<svg style="position: absolute; width: 0; height: 0; overflow: hidden;" version="1.1"
     xmlns="http://www.w3.org/2000/svg" id="tap-dashboard-icons">
    <defs>
        <symbol id="tap-logo" viewBox="0 0 33 30">
            <defs>
                <path id="u1d1vgllha" d="M7.583 0L12.041 1.448 14.796 5.24 14.796 9.927 12.041 13.718 7.583 15.167 3.126 13.718 0.371 9.927 0.371 5.24 3.126 1.448z"/>
                <path id="52015yhsgc" d="M7.583 0L12.041 1.448 14.796 5.24 14.796 9.927 12.041 13.718 7.583 15.167 3.126 13.718 0.371 9.927 0.371 5.24 3.126 1.448z"/>
                <path id="094bxlxale" d="M7.583 0L12.041 1.448 14.796 5.24 14.796 9.927 12.041 13.718 7.583 15.167 3.126 13.718 0.371 9.927 0.371 5.24 3.126 1.448z"/>
            </defs>
            <g transform="translate(-15 -11) translate(15 11) translate(4)">
                <mask id="bqsj97iu6b" fill="#fff">
                    <use xlink:href="#u1d1vgllha"/>
                </mask>
                <path d="M12.542-1.005l-.608 5.01.924 1.6L17.5 7.582l-4.642 1.978-.924 1.6.608 5.01-4.035-3.03H6.659l-4.034 3.03.607-5.01-.923-1.6-4.642-1.978 4.643-1.98.922-1.597-.607-5.01 4.035 3.03h1.846l4.036-3.03zM7.583 4.5C5.88 4.5 4.5 5.88 4.5 7.583c0 1.703 1.38 3.084 3.083 3.084 1.703 0 3.084-1.38 3.084-3.084 0-1.703-1.38-3.083-3.084-3.083z" mask="url(#bqsj97iu6b)"/>
            </g>
            <g transform="translate(-15 -11) translate(15 11) translate(17.333 5)">
                <mask id="4mzmyg39yd" fill="#fff">
                    <use xlink:href="#52015yhsgc"/>
                </mask>
                <path d="M12.542-1.005l-.608 5.01.924 1.6L17.5 7.582l-4.642 1.978-.924 1.6.295 2.426c-2.484-1.043-5.806-1.26-9.241-.41l.244-2.017-.923-1.599-4.642-1.978 4.643-1.98.922-1.597-.607-5.01 4.035 3.03h1.846l4.036-3.03zM7.583 4.5C5.88 4.5 4.5 5.88 4.5 7.583c0 1.703 1.38 3.084 3.083 3.084 1.703 0 3.084-1.38 3.084-3.084 0-1.703-1.38-3.083-3.084-3.083z" mask="url(#4mzmyg39yd)"/>
            </g>
            <g transform="translate(-15 -11) translate(15 11) translate(0 13.833)">
                <mask id="gix5og6vrf" fill="#fff">
                    <use xlink:href="#094bxlxale"/>
                </mask>
                <path d="M12.542-1.005l-.608 5.01.924 1.6 2.239.954c-3.277 2.102-5.204 5.1-4.817 7.913L8.507 13.14H6.659l-4.034 3.031.607-5.01-.923-1.6-4.642-1.978 4.643-1.98.922-1.597-.607-5.01 4.035 3.03h1.846l4.036-3.03zM7.583 4.5C5.88 4.5 4.5 5.88 4.5 7.583c0 1.703 1.38 3.084 3.083 3.084 1.703 0 3.084-1.38 3.084-3.084 0-1.703-1.38-3.083-3.084-3.083z" mask="url(#gix5og6vrf)"/>
            </g>
            <path
                    d="M23.14 21.185l.034-.021-.034.021zm2.583-1.685c-.98 0-3.033.371-3.841.533-.768.152-1.773.365-2.519.656-.576.225-1.121.446-1.674.722-.514.257-1.015.557-1.482.896l-.459.339c-.081.06-.14.115-.22.179-.077.059-.144.13-.216.182-.162.121-.295.3-.448.42-.153.118-.675.712-.808.893l-.49.691c-.472.716-.841 1.572-.979 2.422-.05.311-.047.474-.082.716-.003.012-.004.024-.005.035v.376c.033.455.156.982.157 1.026h.034c.027-.322.516-1.468.636-1.708l.303-.566c.182-.304.377-.603.589-.885.141-.189.289-.382.456-.552.037-.039.037-.046.069-.086.174-.208.4-.398.589-.59l.636-.545c.025-.021.05-.037.079-.059l1.12-.79c.338-.199.66-.421 1.001-.612.308-.171.776-.417 1.075-.54l.806-.358c.418-.165.84-.359 1.269-.501l.873-.307.441-.147c.132-.044.316-.127.455-.136l-.963.443c-.329.134-.926.447-1.272.621l-.925.497c-.293.171-.602.343-.888.533l-.851.589c-.053.04-.076.062-.128.1-.027.022-.041.03-.068.052l-.187.161c-.032.027-.037.024-.069.052-.024.022-.038.037-.061.062l-.806.843-.896 1.237-.357.599c-.032.053-.052.094-.08.145-.178.308-.339.628-.485.955l-.07.173c.24.057 1.568.042 1.887-.004l.596-.064c.972-.105 2.094-.375 2.949-.801.042-.019.079-.032.122-.051.033-.014.072-.035.104-.052.044-.022.062-.037.11-.063l.214-.116c.145-.077.275-.167.405-.254.155-.103.317-.219.456-.343.2-.181.415-.37.584-.58.025-.033.048-.048.073-.081.273-.34.495-.708.738-1.068.354-.532.685-1.073.972-1.648.62-1.242.793-1.397 1.571-2.369.031-.039.032-.048.071-.086l.415-.399c.171-.15.392-.305.607-.384.192-.071.29-.107.553-.107-.184-.273-.969-.294-1.475-.296H25.723zm-2.583 1.685c-.02.019.029.019-.052.019.018-.019-.031-.019.052-.019z"
                    transform="translate(-15 -11) translate(15 11)"/>
        </symbol>
        <symbol id="tap-filter" viewBox="0 0 34 32">
            <g transform="translate(-479 -324) translate(480 325)">
                <path stroke-width="2" fill="#FFF" d="M27.9 4.444c.276 0 .5.224.5.5 0 .107-.035.211-.098.297l-8.303 11.267.001 8.47c0 .184-.102.354-.265.44l-7.89 4.192c-.243.13-.546.037-.675-.207-.039-.072-.059-.153-.059-.235v-12.66L2.81 5.241c-.164-.222-.116-.535.106-.7.086-.062.19-.097.297-.097h24.687z"/>
                <rect width="31.111" fill="#FFF" height="5.556" stroke-width="2" rx="1"/>
                <path d="M15.556 15.556H20V17.778H15.556zM15.556 20H21.112V22.222H15.556z"/>
            </g>
        </symbol>
        <symbol id="tap-delay" viewBox="0 0 30 30">
            <path d="M15 0C6.714 0 0 6.714 0 15s6.714 15 15 15 15-6.714 15-15S23.286 0 15 0zm13.065 15c0 7.18-5.813 13.065-13.065 13.065-7.18 0-13.065-5.813-13.065-13.065C1.935 7.82 7.748 1.935 15 1.935c7.18 0 13.065 5.813 13.065 13.065zm-9.007 5.34l-4.91-3.568c-.188-.139-.297-.357-.297-.587V6.532c0-.399.326-.726.726-.726h.846c.4 0 .726.327.726.726v8.849l4.264 3.103c.327.236.393.69.158 1.016l-.496.683c-.236.321-.69.394-1.017.158z" transform="translate(-739 -323) translate(739 323)"/>
        </symbol>
        <symbol id="tap-trigger" viewBox="0 0 28 29">
            <path d="M19.098 3.546c1.963.474 3.456 2.123 3.636 4.128C25.67 7.881 28 10.272 28 13.183c0 3.044-2.554 5.525-5.688 5.525h-2.854l.873-1.657c1.478.028 2.23.007 2.255-.064 2.04-.138 3.664-1.78 3.664-3.799 0-2.109-1.766-3.825-3.938-3.825-.07 0-.142.011-.207.022l-1.285.127.136-1.062c.028-.202.044-.282.044-.367 0-1.438-1.053-2.64-2.45-2.915zM7.488 2.219L6.92 4.545C5.898 5.403 5.25 6.671 5.25 8.083c0 .106.016.213.033.319l.11.914-.728.19c-1.717.452-2.915 1.961-2.915 3.677 0 2.11 1.766 3.825 3.938 3.825h5.291l-.185 1.7H5.687C2.554 18.708 0 16.228 0 13.183c0-2.237 1.405-4.229 3.5-5.079v-.021c0-2.63 1.644-4.89 3.987-5.864z"
                  transform="translate(-484 -132) translate(484 133)"/>
            <path stroke="#FFF" stroke-width=".3"
                  d="M17.808 0c.346 0 .666.127.866.349.2.221.254.501.147.76h0l-2.806 8.473h4.919c.367 0 .713.153.907.406.193.254.213.56.046.824h0L13.282 27.16c-.18.29-.554.465-.953.465-.08 0-.167-.005-.247-.021-.48-.09-.82-.433-.82-.824h0l1.14-11.277H7.069c-.32 0-.613-.116-.82-.307-.206-.19-.286-.443-.233-.692h0L9.29.692C9.389.29 9.829 0 10.342 0h0zm-1.473 1.685h-5.1L8.35 13.807h5.12c.586 0 1.066.38 1.066.845h0l-1.14 8.541 5.82-11.926h-4.673c-.347 0-.667-.127-.867-.35-.2-.22-.253-.5-.147-.76h0l2.807-8.472z"
                  transform="translate(-484 -132) translate(484 133)"/>
        </symbol>
        <symbol id="tap-apps-active" viewBox="0 0 32 29">
            <defs>
                <clipPath id="7grxy0dsia">
                    <path d="M1250 0v903H0V0h1250z"/>
                </clipPath>
                <clipPath id="n5y2262hkb">
                    <path d="M13.83 0a.75.75 0 0 1 .75.744l.07 8.665a.75.75 0 0 1-.635.748c-2.798.432-4.07 1.744-4.051 4.087.019 2.365 1.345 3.793 4.177 4.409a.75.75 0 0 1 .59.727l.065 7.868a.75.75 0 0 1-.928.735l-1.758-.43a.75.75 0 0 1-.495-.398l-1.108-2.254-2.392-.796-1.966.87a.75.75 0 0 1-.747-.082l-.087-.074-2.714-2.72a.75.75 0 0 1-.087-.953l1.13-1.651-1.091-2.596-2.115-.967a.75.75 0 0 1-.43-.573L0 15.25v-3.09a.75.75 0 0 1 .509-.71l2.061-.701 1.109-2.638-.936-2.175a.75.75 0 0 1 .082-.738l.073-.086L4.956 3.03a.75.75 0 0 1 .81-.17l2.325.921 2.398-.827L11.603.446a.75.75 0 0 1 .575-.438l.11-.008zm-.745 1.5h-.31l-1.046 2.361a.75.75 0 0 1-.346.365l-.096.04L8.32 5.29a.75.75 0 0 1-.52-.012l-2.125-.842-1.354 1.37.863 2.006a.75.75 0 0 1 .04.472l-.037.115-1.362 3.242a.75.75 0 0 1-.45.42l-1.874.636v2.071l1.944.89a.75.75 0 0 1 .329.291l.05.1 1.363 3.242a.75.75 0 0 1-.073.714L4.102 21.48l1.91 1.914 1.762-.777a.75.75 0 0 1 .432-.053l.107.027 2.967.986c.19.063.348.2.436.381l1.09 2.221.482.118-.052-6.322-.273-.078c-2.834-.858-4.378-2.679-4.493-5.377l-.006-.264c-.024-2.87 1.53-4.715 4.482-5.418l.199-.046-.06-7.292z"/>
                </clipPath>
                <clipPath id="trd5wasc1c">
                    <path d="M3.5 0a3.5 3.5 0 1 1 0 7 3.5 3.5 0 0 1 0-7zm0 1.5a2 2 0 1 0 0 4 2 2 0 0 0 0-4z"/>
                </clipPath>
                <clipPath id="kkb4b550yd">
                    <path d="M3.5 0a3.5 3.5 0 1 1 0 7 3.5 3.5 0 0 1 0-7zm0 1.5a2 2 0 1 0 0 4 2 2 0 0 0 0-4z"/>
                </clipPath>
                <clipPath id="p7o5rasrwe">
                    <path d="M3.5 0a3.5 3.5 0 1 1 0 7 3.5 3.5 0 0 1 0-7zm0 1.5a2 2 0 1 0 0 4 2 2 0 0 0 0-4z"/>
                </clipPath>
                <clipPath id="ctzdl6yn9f">
                    <path d="M8.202.076a.75.75 0 0 1 .344 1.003L6.308 5.662a.75.75 0 0 1-.674.42H.75a.75.75 0 0 1 0-1.5h4.416L7.2.42A.75.75 0 0 1 8.202.076z"/>
                </clipPath>
                <clipPath id="rb3zh22xjg">
                    <path d="M13.25 0a.75.75 0 1 1 0 1.5H.75a.75.75 0 0 1 0-1.5h12.5z"/>
                </clipPath>
                <clipPath id="lkged7xz0h">
                    <path d="M3.21 3.29c.163.335.298.66.405.973l-.947.322a7.528 7.528 0 0 0-.357-.859zM2.126 1.483c.114.15.223.308.33.473.092.145.176.28.256.415l-.858.513-.24-.388a6.589 6.589 0 0 0-.286-.41zM.516 0c.31.187.604.41.88.668l-.683.73A4.302 4.302 0 0 0 0 .857z"/>
                </clipPath>
                <clipPath id="1wn3eig93i">
                    <path d="M3.21 3.29c.163.335.298.66.405.973l-.947.322a7.528 7.528 0 0 0-.357-.859zM2.126 1.483c.114.15.223.308.33.473.092.145.176.28.256.415l-.858.513-.24-.388a6.589 6.589 0 0 0-.286-.41zM.516 0c.31.187.604.41.88.668l-.683.73A4.302 4.302 0 0 0 0 .857z"/>
                </clipPath>
                <clipPath id="fd91hxayaj">
                    <path d="M3.21 3.29c.163.335.298.66.405.973l-.947.322a7.528 7.528 0 0 0-.357-.859zM2.126 1.483c.114.15.223.308.33.473.092.145.176.28.256.415l-.858.513-.24-.388a6.589 6.589 0 0 0-.286-.41zM.516 0c.31.187.604.41.88.668l-.683.73A4.302 4.302 0 0 0 0 .857z"/>
                </clipPath>
                <clipPath id="xi9ryaqthk">
                    <path d="M3.21 3.29c.163.335.298.66.405.973l-.947.322a7.528 7.528 0 0 0-.357-.859zM2.126 1.483c.114.15.223.308.33.473.092.145.176.28.256.415l-.858.513-.24-.388a6.589 6.589 0 0 0-.286-.41zM.516 0c.31.187.604.41.88.668l-.683.73A4.302 4.302 0 0 0 0 .857z"/>
                </clipPath>
            </defs>
            <g clip-path="url(#7grxy0dsia)" transform="translate(-14 -145)">
                <g clip-path="url(#n5y2262hkb)" transform="translate(14.237 145.25)">
                    <path d="M0 0h14.796v28.005H0V0z"/>
                </g>
                <g clip-path="url(#trd5wasc1c)" transform="translate(33 146)">
                    <path d="M0 0h7v7H0V0z"/>
                </g>
                <g clip-path="url(#kkb4b550yd)" transform="translate(39 156)">
                    <path d="M0 0h7v7H0V0z"/>
                </g>
                <g clip-path="url(#p7o5rasrwe)" transform="translate(33 166)">
                    <path d="M0 0h7v7H0V0z"/>
                </g>
                <g clip-path="url(#ctzdl6yn9f)" transform="translate(27.366 151.667)">
                    <path d="M0 0h8.623v6.083H0V0z"/>
                </g>
                <g clip-path="url(#rb3zh22xjg)" transform="translate(25.75 158.75)">
                    <path d="M0 0h14v1.5H0V0z"/>
                </g>
                <path d="M28.116 162.277H33l2.238 4.319" stroke="#FFF" stroke-width="1.5" fill="none" stroke-linecap="round" stroke-linejoin="round"/>
                <g clip-path="url(#lkged7xz0h)" transform="rotate(5 -1714.606 521.742)">
                    <path d="M0 0h3.615v4.585H0V0z"/>
                </g>
                <g clip-path="url(#1wn3eig93i)" transform="rotate(61 -116.818 116.463)">
                    <path d="M0 0h3.615v4.585H0V0z"/>
                </g>
                <g clip-path="url(#fd91hxayaj)" transform="rotate(137 -16.826 91.74)">
                    <path d="M0 0h3.615v4.585H0V0z"/>
                </g>
                <g clip-path="url(#xi9ryaqthk)" transform="scale(-1 1) rotate(-52 135.888 108.749)">
                    <path d="M0 0h3.615v4.585H0V0z"/>
                </g>
            </g>
        </symbol>

        <symbol id="tap-apps-default" viewBox="0 0 32 29">
            <defs>
                <clipPath id="ze0fmsb8ea">
                    <path d="M1250 0v903H0V0h1250z"/>
                </clipPath>
                <clipPath id="k7i5rkcxtb">
                    <path d="M13.83 0a.75.75 0 0 1 .75.744l.07 8.665a.75.75 0 0 1-.635.748c-2.798.432-4.07 1.744-4.051 4.087.019 2.365 1.345 3.793 4.177 4.409a.75.75 0 0 1 .59.727l.065 7.868a.75.75 0 0 1-.928.735l-1.758-.43a.75.75 0 0 1-.495-.398l-1.108-2.254-2.392-.796-1.966.87a.75.75 0 0 1-.747-.082l-.087-.074-2.714-2.72a.75.75 0 0 1-.087-.953l1.13-1.651-1.091-2.596-2.115-.967a.75.75 0 0 1-.43-.573L0 15.25v-3.09a.75.75 0 0 1 .509-.71l2.061-.701 1.109-2.638-.936-2.175a.75.75 0 0 1 .082-.738l.073-.086L4.956 3.03a.75.75 0 0 1 .81-.17l2.325.921 2.398-.827L11.603.446a.75.75 0 0 1 .575-.438l.11-.008h1.541z"/>
                </clipPath>
                <clipPath id="c5isd54t4c">
                    <path d="M3.5 0a3.5 3.5 0 1 1 0 7 3.5 3.5 0 0 1 0-7z"/>
                </clipPath>
                <clipPath id="h6jb9dhtod">
                    <path d="M8.202.076a.75.75 0 0 1 .344 1.003L6.308 5.662a.75.75 0 0 1-.674.42H.75a.75.75 0 0 1 0-1.5h4.416L7.2.42A.75.75 0 0 1 8.202.076z"/>
                </clipPath>
                <clipPath id="anbdzhcebe">
                    <path d="M13.25 0a.75.75 0 1 1 0 1.5H.75a.75.75 0 0 1 0-1.5h12.5z"/>
                </clipPath>
                <clipPath id="l0hfawrghf">
                    <path d="M5.634 0A.75.75 0 0 1 6.3.405l2.238 4.319a.75.75 0 0 1-1.331.69L5.178 1.5H.75A.75.75 0 0 1 .007.852L0 .75A.75.75 0 0 1 .75 0h4.884z"/>
                </clipPath>
                <clipPath id="g1w2nkjgqg">
                    <path d="M3.21 3.29c.163.335.298.66.405.973l-.947.322a7.528 7.528 0 0 0-.357-.859zM2.126 1.483c.114.15.223.308.33.473.092.145.176.28.256.415l-.858.513-.24-.388a6.589 6.589 0 0 0-.286-.41zM.516 0c.31.187.604.41.88.668l-.683.73A4.302 4.302 0 0 0 0 .857z"/>
                </clipPath>
                <clipPath id="dnl12ff9fh">
                    <path d="M3.21 3.29c.163.335.298.66.405.973l-.947.322a7.528 7.528 0 0 0-.357-.859zM2.126 1.483c.114.15.223.308.33.473.092.145.176.28.256.415l-.858.513-.24-.388a6.589 6.589 0 0 0-.286-.41zM.516 0c.31.187.604.41.88.668l-.683.73A4.302 4.302 0 0 0 0 .857z"/>
                </clipPath>
                <clipPath id="473soq2z8i">
                    <path d="M3.21 3.29c.163.335.298.66.405.973l-.947.322a7.528 7.528 0 0 0-.357-.859zM2.126 1.483c.114.15.223.308.33.473.092.145.176.28.256.415l-.858.513-.24-.388a6.589 6.589 0 0 0-.286-.41zM.516 0c.31.187.604.41.88.668l-.683.73A4.302 4.302 0 0 0 0 .857z"/>
                </clipPath>
                <clipPath id="w3bi2zchrj">
                    <path d="M3.21 3.29c.163.335.298.66.405.973l-.947.322a7.528 7.528 0 0 0-.357-.859zM2.126 1.483c.114.15.223.308.33.473.092.145.176.28.256.415l-.858.513-.24-.388a6.589 6.589 0 0 0-.286-.41zM.516 0c.31.187.604.41.88.668l-.683.73A4.302 4.302 0 0 0 0 .857z"/>
                </clipPath>
            </defs>
            <g clip-path="url(#ze0fmsb8ea)" transform="translate(-14 -145)">
                <g clip-path="url(#k7i5rkcxtb)" transform="translate(14.237 145.25)">
                    <path fill="#FFF" d="M0 0h14.796v28.005H0V0z"/>
                </g>
                <g clip-path="url(#c5isd54t4c)" transform="translate(33 146)">
                    <path fill="#FFF" d="M0 0h7v7H0V0z"/>
                    <path d="M3.5 7a3.5 3.5 0 1 0 0-7 3.5 3.5 0 0 0 0 7z" stroke="#FFF" stroke-width="3" fill="none" stroke-miterlimit="5"/>
                </g>
                <g clip-path="url(#c5isd54t4c)" transform="translate(39 156)">
                    <path fill="#FFF" d="M0 0h7v7H0V0z"/>
                    <path d="M3.5 7a3.5 3.5 0 1 0 0-7 3.5 3.5 0 0 0 0 7z" stroke="#FFF" stroke-width="3" fill="none" stroke-miterlimit="5"/>
                </g>
                <g clip-path="url(#c5isd54t4c)" transform="translate(33 166)">
                    <path fill="#FFF" d="M0 0h7v7H0V0z"/>
                    <path d="M3.5 7a3.5 3.5 0 1 0 0-7 3.5 3.5 0 0 0 0 7z" stroke="#FFF" stroke-width="3" fill="none" stroke-miterlimit="5"/>
                </g>
                <g clip-path="url(#h6jb9dhtod)" transform="translate(27.366 151.667)">
                    <path fill="#FFF" d="M0 0h8.623v6.083H0V0z"/>
                </g>
                <g clip-path="url(#anbdzhcebe)" transform="translate(25.75 158.75)">
                    <path fill="#FFF" d="M0 0h14v1.5H0V0z"/>
                </g>
                <g clip-path="url(#l0hfawrghf)" transform="translate(27.366 161.527)">
                    <path fill="#FFF" d="M0 0h8.623v5.819H0V0z"/>
                </g>
                <g clip-path="url(#g1w2nkjgqg)" transform="rotate(5 -1714.606 521.742)">
                    <path fill="#FFF" d="M0 0h3.615v4.585H0V0z"/>
                </g>
                <g clip-path="url(#dnl12ff9fh)" transform="rotate(61 -116.818 116.463)">
                    <path fill="#FFF" d="M0 0h3.615v4.585H0V0z"/>
                </g>
                <g clip-path="url(#473soq2z8i)" transform="rotate(137 -16.826 91.74)">
                    <path fill="#FFF" d="M0 0h3.615v4.585H0V0z"/>
                </g>
                <g clip-path="url(#w3bi2zchrj)" transform="scale(-1 1) rotate(-52 135.888 108.749)">
                    <path fill="#FFF" d="M0 0h3.615v4.585H0V0z"/>
                </g>
            </g>
        </symbol>

        <symbol id="tap-cogs" viewBox="0 0 221 221">
            <g fill="none" fill-rule="evenodd">
                <g>
                    <g transform="translate(-602.000000, -209.000000) translate(602.017263, 209.499999)">
                        <path fill="#521333" fill-rule="nonzero"
                              d="M114.526 0l.247.004c3.283.114 6.058 2.51 6.63 5.767l1.074 6.118.294.09.781.248c2.077.684 4.092 1.546 6.022 2.576l.272.145 5.115-3.61.226-.152c2.736-1.755 6.345-1.384 8.668.928l4.235 4.249.188.196c2.203 2.393 2.462 6.012.587 8.7l-3.455 5.132.14.266.379.727c.987 1.952 1.805 3.984 2.446 6.076l.09.293 6.118 1.075.242.047c3.213.681 5.53 3.523 5.529 6.83v5.994l-.004.247c-.109 3.285-2.507 6.062-5.767 6.63l-6.118 1.074-.09.293-.249.78c-.685 2.073-1.546 4.084-2.575 6.01l-.145.271 3.569 5.087.15.227c1.751 2.738 1.38 6.344-.927 8.67l-4.235 4.234-.196.188c-2.394 2.198-6.01 2.456-8.7.586l-5.202-3.454-.264.14-.727.38c-1.951.987-3.984 1.805-6.076 2.444l-.293.09-1.075 6.119-.047.242c-.681 3.213-3.523 5.53-6.83 5.528h-5.993l-.248-.004c-3.282-.113-6.057-2.51-6.63-5.766l-1.074-6.119-.293-.09-.78-.248c-2.073-.685-4.083-1.546-6.01-2.575l-.271-.145-5.087 3.569-.226.15c-2.738 1.757-6.346 1.385-8.67-.927l-4.304-4.29-.19-.197c-2.225-2.405-2.478-6.055-.572-8.75l3.57-5.089-.145-.27-.378-.728c-.988-1.952-1.806-3.984-2.446-6.076l-.09-.293-6.118-1.075-.243-.047c-3.216-.677-5.535-3.52-5.528-6.829v-5.995l.004-.247c.114-3.282 2.51-6.057 5.767-6.63l6.118-1.074.09-.293.249-.782c.684-2.077 1.545-4.092 2.575-6.022l.145-.271-3.57-5.074-.15-.226c-1.75-2.738-1.38-6.344.928-8.67l4.248-4.248.197-.188c2.392-2.203 6.01-2.461 8.699-.586l5.086 3.567.27-.144.729-.378c1.951-.987 3.984-1.806 6.076-2.446l.293-.09 1.074-6.118.047-.243c.682-3.213 3.523-5.53 6.83-5.528h5.994zm.026 3.018h-5.992l-.202.005c-1.806.088-3.326 1.416-3.642 3.215l-1.24 7.07-.032.145c-.143.522-.55.935-1.079 1.08-2.936.807-5.755 1.991-8.387 3.524-.518.299-1.164.27-1.655-.073l-5.886-4.088-.18-.12c-1.527-.947-3.52-.727-4.804.559l-4.237 4.25-.145.154c-1.168 1.305-1.323 3.243-.355 4.723l4.186 6.03c.311.5.32 1.116.025 1.614-1.536 2.635-2.72 5.454-3.526 8.391-.156.584-.633 1.021-1.225 1.125l-7.07 1.24-.198.04c-1.763.403-3.027 1.978-3.021 3.805v5.992l.004.201c.088 1.806 1.416 3.327 3.215 3.642l7.07 1.24.145.032c.522.143.935.55 1.08 1.079.792 2.952 1.967 5.79 3.496 8.44.3.52.271 1.165-.072 1.657l-4.088 5.886-.12.18c-.954 1.517-.747 3.51.53 4.802l.146.148h.016l4.09 4.09.156.147c1.333 1.18 3.306 1.31 4.785.293l6.02-4.18c.5-.311 1.116-.32 1.614-.025 2.655 1.535 5.493 2.715 8.448 3.513.581.155 1.019.633 1.123 1.225l1.24 7.07.04.197c.403 1.764 1.977 3.027 3.804 3.022h5.992l.202-.005c1.806-.087 3.326-1.415 3.642-3.215l1.24-7.07.032-.145c.145-.523.557-.937 1.089-1.079 2.956-.798 5.794-1.978 8.444-3.51.494-.26 1.114-.22 1.587.113l5.887 4.088.18.119c1.527.948 3.52.727 4.804-.558l4.236-4.236.15-.158c1.2-1.338 1.33-3.34.288-4.828l-4.086-5.883-.08-.126c-.267-.473-.268-1.056.007-1.532 1.528-2.65 2.704-5.489 3.497-8.443.155-.58.632-1.018 1.224-1.122l7.07-1.24.198-.04c1.763-.403 3.027-1.978 3.021-3.804V45.69l-.004-.201c-.088-1.806-1.416-3.327-3.215-3.642l-7.07-1.24-.145-.032c-.524-.145-.937-.557-1.08-1.089-.812-2.937-2.001-5.752-3.538-8.378-.307-.533-.267-1.2.104-1.695l4.099-5.942.119-.18c.947-1.525.727-3.519-.559-4.803l-4.235-4.25-.158-.148c-1.34-1.2-3.34-1.331-4.829-.29l-5.883 4.086-.126.08c-.473.268-1.056.268-1.532-.007-2.657-1.505-5.495-2.657-8.446-3.429-.578-.154-1.015-.632-1.119-1.223l-1.24-7.07-.04-.198c-.403-1.763-1.978-3.027-3.804-3.022z"/>
                        <circle cx="111.59" cy="48.763" r="18.474" fill="#FFF"/>
                        <path fill="#521333" fill-rule="nonzero" d="M126.724 33.641c6.117 6.122 7.944 15.327 4.627 23.32-3.316 7.995-11.122 13.203-19.777 13.197-11.806-.018-21.37-9.589-21.378-21.395 0-8.654 5.214-16.456 13.21-19.767 7.997-3.31 17.2-1.477 23.318 4.645zm-15.152-3.167c-10.083.02-18.252 8.188-18.271 18.27-.007 7.402 4.446 14.077 11.282 16.913 6.836 2.835 14.707 1.271 19.94-3.962 5.233-5.233 6.796-13.103 3.96-19.94-2.786-6.72-9.285-11.137-16.535-11.278l-.376-.003z"/>
                        <path fill="#A32566" d="M98.584 41.23l15.066 15.066c.78.781.78 2.048 0 2.829-.375.375-.884.586-1.414.586H97.169c-1.104 0-2-.896-2-2V42.644c0-1.104.896-2 2-2 .53 0 1.04.21 1.415.586z" transform="translate(106.116708, 48.763159) rotate(-135.000000) translate(-106.116708, -48.763159)"/>
                        <path fill="#595E57" fill-rule="nonzero"
                              d="M183.084 49.828l1.869 4.016.13.086c1.86.066 3.709.31 5.52.731l.15-.05 2.856-3.43c1.697-2.016 4.594-2.528 6.88-1.216l3.893 2.257c2.279 1.323 3.284 4.087 2.387 6.565l-1.432 4.173.032.15c1.27 1.36 2.406 2.838 3.393 4.416l.14.07 4.412-.39c2.641-.232 5.068 1.467 5.753 4.028l1.163 4.342c.692 2.562-.561 5.249-2.968 6.365l-4.015 1.869-.087.13c-.067 1.857-.312 3.702-.733 5.51l.05.15 3.395 2.844c2.012 1.7 2.523 4.594 1.215 6.88l-2.246 3.89c-1.283 2.203-3.911 3.214-6.325 2.468l-4.463-1.5-.15.033c-1.36 1.27-2.838 2.407-4.415 3.392l-.07.14.389 4.413c.232 2.641-1.467 5.068-4.028 5.752l-4.342 1.164c-2.56.687-5.245-.564-6.364-2.968l-1.87-4.016-.13-.086c-1.856-.067-3.701-.313-5.51-.733l-.15.05-2.844 3.395c-1.697 2.015-4.594 2.527-6.88 1.215l-3.95-2.272c-2.3-1.327-3.308-4.117-2.388-6.607l1.518-4.162-.03-.154c-1.271-1.359-2.408-2.838-3.394-4.415l-.14-.07-4.412.389c-2.642.237-5.071-1.464-5.753-4.027l-1.163-4.343c-.688-2.56.564-5.245 2.968-6.364l4.015-1.87.087-.13c.065-1.86.31-3.708.73-5.52l-.05-.149-3.393-2.835c-2.01-1.7-2.522-4.593-1.214-6.88l2.253-3.903c1.323-2.278 4.088-3.283 6.566-2.387l4.16 1.519.155-.032c1.359-1.27 2.838-2.406 4.415-3.392l.07-.14-.39-4.413c-.232-2.64 1.467-5.067 4.028-5.752l4.342-1.164c2.561-.687 5.246.565 6.365 2.968zm-5.643-.352L173.1 50.64c-1.268.335-2.11 1.535-1.994 2.841l.474 5.362c.049.534-.215 1.047-.677 1.318-1.954 1.145-3.751 2.538-5.346 4.145-.38.38-.945.505-1.45.321l-5.057-1.818c-1.228-.447-2.601.053-3.255 1.186l-2.244 3.901c-.634 1.104-.41 2.501.54 3.35l4.105 3.473c.455.349.65.932.496 1.476-.596 2.186-.904 4.44-.917 6.704 0 .54-.312 1.028-.8 1.255l-4.88 2.27c-1.19.554-1.808 1.883-1.464 3.148l1.163 4.342c.335 1.267 1.535 2.109 2.841 1.993l5.363-.474c.533-.048 1.046.216 1.317.678 1.137 1.968 2.528 3.781 4.135 5.39.38.38.506.945.322 1.45l-1.818 5.057-.059.176c-.347 1.178.15 2.454 1.224 3.083l.02.003 3.882 2.242c1.124.64 2.543.39 3.382-.592l3.47-4.103c.349-.455.932-.649 1.476-.496 2.2.591 4.466.893 6.742.897.538 0 1.027.312 1.254.8l2.27 4.88c.554 1.19 1.883 1.807 3.148 1.464l4.342-1.163c1.267-.336 2.109-1.535 1.993-2.841l-.474-5.363c-.047-.536.22-1.05.686-1.32 1.97-1.141 3.781-2.535 5.39-4.145.376-.348.921-.457 1.408-.28l5.057 1.82c1.228.447 2.601-.054 3.254-1.187l2.247-3.89c.655-1.133.401-2.572-.6-3.413l-4.103-3.47c-.412-.345-.586-.897-.447-1.416.588-2.198.886-4.463.886-6.737 0-.539.312-1.028.8-1.255l4.88-2.27c1.19-.553 1.808-1.882 1.465-3.148l-1.164-4.341c-.335-1.267-1.535-2.11-2.841-1.994l-5.362.475c-.536.047-1.05-.22-1.32-.687-1.148-1.951-2.543-3.744-4.153-5.335-.39-.39-.51-.978-.304-1.492l1.813-5.091c.447-1.229-.053-2.601-1.186-3.255l-3.894-2.256c-1.133-.655-2.572-.401-3.412.6l-3.47 4.103c-.345.412-.898.586-1.417.447-2.196-.57-4.457-.851-6.725-.837-.537 0-1.026-.312-1.253-.8l-2.27-4.88c-.553-1.19-1.882-1.808-3.148-1.465z"/>
                        <path fill="#595E57" fill-rule="nonzero"
                              d="M174.214 70.064c5.223-4.006 12.344-4.471 18.043-1.178 5.7 3.293 8.853 9.696 7.99 16.22-.863 6.526-5.572 11.889-11.931 13.588-8.676 2.31-17.586-2.838-19.916-11.509-1.703-6.358.591-13.115 5.814-17.121zm20.602 4.691c-3.325-4.33-8.932-6.228-14.204-4.81-7.181 1.939-11.442 9.32-9.531 16.508 1.408 5.275 5.856 9.181 11.268 9.896 5.412.715 10.722-1.902 13.452-6.63 2.73-4.727 2.34-10.634-.985-14.964zM29.156 39.963c2.491-.558 5.052.69 6.138 3.023l1.87 4.016.13.086.697.033c1.624.096 3.238.33 4.823.698l.15-.05 2.856-3.431.168-.19c1.715-1.856 4.5-2.294 6.711-1.025l3.894 2.256.216.133c2.125 1.369 3.038 4.035 2.17 6.433l-1.432 4.172.032.152.47.515c1.082 1.215 2.06 2.52 2.923 3.9l.14.07 4.413-.39.232-.015c2.55-.116 4.855 1.557 5.52 4.043l1.164 4.342.056.227c.56 2.491-.688 5.054-3.024 6.138l-4.016 1.869-.087.13-.033.696c-.097 1.621-.331 3.232-.7 4.815l.05.149 3.396 2.844.19.168c1.852 1.718 2.29 4.5 1.025 6.712l-2.246 3.89-.133.217c-1.371 2.122-4.035 3.034-6.433 2.17l-4.223-1.419-.15.033-.515.47c-1.215 1.082-2.52 2.06-3.9 2.922l-.07.14.39 4.413.015.232c.116 2.55-1.557 4.856-4.043 5.52l-4.343 1.164-.226.055c-2.49.558-5.052-.69-6.138-3.023l-1.87-4.016-.13-.086-.695-.034c-1.621-.097-3.232-.331-4.815-.7l-.149.05-2.845 3.396-.168.19c-1.715 1.856-4.5 2.295-6.711 1.025l-3.951-2.273-.212-.128c-2.148-1.372-3.067-4.066-2.176-6.478l1.519-4.162-.031-.154-.47-.515c-1.083-1.215-2.06-2.52-2.923-3.9l-.14-.07-4.412.389-.233.016c-2.551.12-4.859-1.555-5.52-4.044L.187 83.43l-.055-.226c-.557-2.491.69-5.052 3.024-6.138l4.015-1.87.087-.13.032-.697c.097-1.624.33-3.237.698-4.823l-.05-.15-3.393-2.834-.19-.168c-1.852-1.717-2.29-4.499-1.025-6.712l2.254-3.903.132-.216c1.369-2.125 4.035-3.038 6.433-2.17l4.161 1.518.154-.032.515-.47c1.216-1.081 2.52-2.06 3.9-2.922l.07-.14-.389-4.413-.015-.232c-.117-2.55 1.557-4.856 4.043-5.52l4.342-1.164zm3.567 3.983c-.592-1.089-1.86-1.64-3.071-1.312l-4.342 1.164-.163.048c-1.176.392-1.94 1.544-1.83 2.793l.474 5.362.006.133c-.003.485-.26.936-.684 1.185-1.953 1.144-3.75 2.538-5.346 4.145-.38.38-.945.505-1.45.321l-5.056-1.818-.177-.058c-1.181-.34-2.456.165-3.078 1.244l-2.244 3.901-.089.168c-.521 1.074-.273 2.376.628 3.182l4.214 3.565c.377.353.528.885.387 1.384-.595 2.186-.903 4.44-.917 6.704 0 .539-.311 1.028-.799 1.255l-4.88 2.27-.153.077c-1.089.592-1.64 1.86-1.312 3.071l1.163 4.342.05.163c.39 1.175 1.542 1.94 2.792 1.83l5.362-.474.133-.006c.484.003.936.26 1.184.683 1.138 1.97 2.528 3.782 4.136 5.391.38.38.505.945.322 1.45l-1.819 5.057-.058.176c-.347 1.177.15 2.454 1.224 3.083l.017.002 3.885 2.243.17.09c1.094.522 2.414.252 3.211-.682l3.562-4.211c.354-.377.886-.528 1.385-.388 2.2.591 4.465.893 6.741.897.539 0 1.028.311 1.255.8l2.27 4.88.077.152c.592 1.09 1.86 1.64 3.07 1.312l4.342-1.163.163-.049c1.176-.391 1.941-1.543 1.83-2.793l-.474-5.362-.005-.133c.004-.487.265-.94.692-1.186 1.97-1.142 3.78-2.536 5.389-4.146.376-.348.922-.457 1.408-.28l5.057 1.82.177.057c1.18.34 2.456-.165 3.078-1.244l2.247-3.891.087-.164c.541-1.104.266-2.447-.688-3.248l-4.102-3.47-.107-.099c-.334-.346-.467-.846-.34-1.317.587-2.198.885-4.463.886-6.738 0-.538.312-1.027.8-1.254l4.88-2.27.152-.077c1.09-.592 1.64-1.86 1.312-3.07L68.594 65.1l-.049-.163c-.391-1.176-1.543-1.941-2.793-1.83l-5.362.474-.133.005c-.487-.004-.94-.265-1.186-.692-1.148-1.951-2.544-3.744-4.153-5.335-.39-.391-.51-.978-.304-1.492l1.812-5.092.058-.176c.34-1.18-.165-2.456-1.244-3.078l-3.894-2.256-.163-.088c-1.105-.541-2.448-.266-3.249.688l-3.47 4.103-.098.106c-.347.335-.846.467-1.318.34-2.197-.57-4.457-.85-6.725-.836-.537 0-1.027-.312-1.253-.8L32.8 44.1z"/>
                        <path fill="#595E57" fill-rule="nonzero" d="M44.468 62.044c5.699 3.293 8.852 9.695 7.99 16.22-.863 6.526-5.572 11.889-11.931 13.587-8.677 2.311-17.586-2.837-19.916-11.508-1.704-6.358.59-13.116 5.813-17.121 5.223-4.006 12.345-4.471 18.044-1.178zm-11.329.978l-.317.08c-7.18 1.94-11.442 9.32-9.53 16.509 1.407 5.275 5.855 9.18 11.268 9.896 5.412.715 10.722-1.902 13.451-6.63 2.73-4.728 2.341-10.634-.984-14.964-3.26-4.243-8.71-6.152-13.888-4.891z"/>
                    </g>
                </g>
            </g>
        </symbol>
        <symbol id="tap-pen" viewBox="0 0 17 15">
            <path d="M12.827.412l1.761 1.76c.55.55.55 1.44 0 1.99L4.126 14.624l-3.345.372c-.448.05-.827-.329-.777-.777l.372-3.345L10.838.412c.55-.55 1.44-.55 1.99 0zM9.221 3.549l-7.82 7.817-.278 2.515 2.514-.278 7.818-7.821L9.22 3.549zm2.377-2.38l-1.62 1.62 2.233 2.233 1.62-1.62c.131-.128.131-.342 0-.473l-1.76-1.76c-.128-.128-.342-.134-.473 0z" transform="translate(1)"/>
        </symbol>
        <symbol id="tap-plus" viewBox="0 0 12 12">
            <g>
                <g>
                    <path d="M713.714 211.5c.276 0 .5.224.5.5v3.785H718c.276 0 .5.225.5.5v1.43c0 .275-.224.5-.5.5l-3.786-.001V222c0 .276-.224.5-.5.5h-1.428c-.276 0-.5-.224-.5-.5l-.001-3.786H708c-.276 0-.5-.224-.5-.5v-1.428c0-.276.224-.5.5-.5l3.785-.001V212c0-.276.225-.5.5-.5h1.43z" transform="translate(-707.000000, -211.000000)"/>
                </g>
            </g>
        </symbol>
        <symbol id="tap-rocket" viewBox="0 0 16 16">
            <path d="M11.502 2.75c-.708 0-1.346.427-1.617 1.081-.27.654-.121 1.407.38 1.907.5.5 1.252.65 1.906.38.654-.271 1.08-.91 1.08-1.617 0-.966-.783-1.75-1.75-1.75zm0 2.5c-.304 0-.577-.182-.693-.462-.116-.28-.052-.603.162-.818.215-.214.537-.278.818-.162.28.116.463.39.463.693 0 .414-.336.75-.75.75zM15.786.604c-.036-.17-.218-.352-.389-.389C14.395 0 13.61 0 12.827 0 9.602 0 7.668 1.725 6.225 4H2.969c-.509 0-1.112.372-1.34.828L.085 7.915c-.047.105-.074.219-.078.334 0 .414.336.75.75.75h3.247c1.657 0 3 1.343 3 3v3.25c0 .414.336.75.75.75.115-.005.229-.031.334-.08l3.085-1.543c.455-.228.827-.83.827-1.339V9.774c2.268-1.447 4-3.387 4-6.596.002-.786.002-1.572-.214-2.575zM1.161 7.999l1.363-2.724C2.58 5.159 2.84 5 2.969 5h2.659L4.142 8l.002.013C4.096 8.012 1.907 8 1.161 8zm9.84 5.038c0 .13-.16.387-.275.445l-2.722 1.362c0-.747-.013-2.94-.015-2.988l.012.002c1-.495 2.118-1.05 2.995-1.486H11v2.665zm-3.19-2.203c-.39-1.265-1.38-2.255-2.646-2.642C6.791 4.942 8.283 1 12.827 1c.661 0 1.29 0 2.044.13.133.763.13 1.388.129 2.048 0 4.53-3.969 6.046-7.19 7.656zM3.2 9.999C1.699 10 .063 11.23.005 15H0v1h1v-.007c5.363-.105 5.778-3.595 4.181-5.2-.467-.468-1.205-.794-1.98-.794zm1.654 3.419c-.402.973-1.802 1.544-3.856 1.58C1.001 14.885.964 11 3.201 11c.472 0 .972.197 1.275.501.4.402.67 1.21.379 1.916z"
                  transform="translate(-140 -80) translate(140 80)"/>
        </symbol>
        <symbol id="tap-play" viewBox="0 0 16 16">
            <path d="M8 16c4.42 0 8-3.58 8-8s-3.58-8-8-8-8 3.58-8 8 3.58 8 8 8zM1.032 8c0-3.829 3.1-6.968 6.968-6.968 3.829 0 6.968 3.1 6.968 6.968 0 3.829-3.1 6.968-6.968 6.968-3.829 0-6.968-3.1-6.968-6.968zm10.7-.58L6.055 3.967c-.51-.284-1.152.08-1.152.677v6.71c0 .593.639.961 1.152.677l5.677-3.258c.53-.293.53-1.058 0-1.355zm-5.797 3.154V5.448c0-.151.165-.245.294-.164l4.339 2.635c.126.078.122.262-.003.333l-4.34 2.49c-.128.074-.29-.02-.29-.168z"
                  transform="translate(-231 -80) translate(231 80)"/>
        </symbol>
        <symbol id="tap-pause" viewBox="0 0 16 16">
            <path d="M1.714 16h3.429c.946 0 1.714-.768 1.714-1.714V1.714C6.857.768 6.09 0 5.143 0H1.714C.768 0 0 .768 0 1.714v12.572C0 15.232.768 16 1.714 16zM1.143 1.714c0-.314.257-.571.571-.571h3.429c.314 0 .571.257.571.571v12.572c0 .314-.257.571-.571.571H1.714c-.314 0-.571-.257-.571-.571V1.714zM10.857 16h3.429c.946 0 1.714-.768 1.714-1.714V1.714C16 .768 15.232 0 14.286 0h-3.429c-.946 0-1.714.768-1.714 1.714v12.572c0 .946.768 1.714 1.714 1.714zm-.571-14.286c0-.314.257-.571.571-.571h3.429c.314 0 .571.257.571.571v12.572c0 .314-.257.571-.571.571h-3.429c-.314 0-.571-.257-.571-.571V1.714z"
                  transform="translate(-171 -80) translate(171 80)"/>

        </symbol>
        <symbol id="tap-trash" viewBox="0 0 14 16">
            <path d="M13.75 2H10.5L9.45.6C9.167.222 8.722 0 8.25 0h-2.5c-.472 0-.917.222-1.2.6L3.5 2H.25C.112 2 0 2.112 0 2.25v.5c0 .138.112.25.25.25h.59l1.038 11.634c.07.774.718 1.366 1.494 1.366h7.256c.776 0 1.424-.592 1.494-1.366L13.159 3h.591c.138 0 .25-.112.25-.25v-.5c0-.138-.112-.25-.25-.25zm-8.4-.8c.095-.126.243-.2.4-.2h2.5c.157 0 .305.074.4.2l.6.8h-4.5l.6-.8zm5.775 13.344c-.021.258-.238.457-.497.456H3.372c-.26 0-.476-.198-.497-.456L1.844 3h10.312l-1.031 11.544z"
                  transform="translate(-202 -80) translate(202 80)"/>
        </symbol>
        <symbol id="tap-cross" viewBox="0 0 8 8">
            <path d="M947.787 219.17l-2.794 2.795 2.794 2.794c.19.19.19.496 0 .686l-.342.342c-.19.19-.496.19-.686 0l-2.794-2.794-2.795 2.794c-.19.19-.496.19-.685 0l-.343-.342c-.19-.19-.19-.496 0-.686l2.794-2.794-2.794-2.795c-.19-.19-.19-.496 0-.685l.343-.343c.19-.19.496-.19.685 0l2.795 2.794 2.794-2.794c.19-.19.496-.19.686 0l.342.343c.186.19.186.496 0 .685z" transform="translate(-940 -218)"/>
        </symbol>
        <symbol id="tap-move-up" viewBox="0 0 12 12">
            <path d="M902.308 510.335l-3.08 3.083c-.126.126-.33.126-.456 0l-3.08-3.083c-.126-.126-.126-.33 0-.456l.185-.184c.126-.126.335-.126.458.005l2.21 2.293v-5.1c0-.177.144-.322.321-.322h.268c.177 0 .321.145.321.322v5.097l2.21-2.293c.126-.128.332-.13.458-.005l.185.185c.126.128.126.332 0 .458zm2.692-5.05v9.43c0 .71-.576 1.285-1.286 1.285h-9.428c-.71 0-1.286-.576-1.286-1.286v-9.428c0-.71.576-1.286 1.286-1.286h9.428c.71 0 1.286.576 1.286 1.286zm-.857 0c0-.235-.193-.428-.429-.428h-9.428c-.236 0-.429.193-.429.429v9.428c0 .236.193.429.429.429h9.428c.236 0 .429-.193.429-.429v-9.428z"
                  transform="translate(-893 -504) matrix(1 0 0 -1 0 1020)"/>
        </symbol>

        <symbol id="tap-move-down" viewBox="0 0 12 12">
            <path d="M924.308 510.335l-3.08 3.083c-.126.126-.33.126-.456 0l-3.08-3.083c-.126-.126-.126-.33 0-.456l.185-.184c.126-.126.335-.126.458.005l2.21 2.293v-5.1c0-.177.144-.322.321-.322h.268c.177 0 .321.145.321.322v5.097l2.21-2.293c.126-.128.332-.13.458-.005l.185.185c.126.128.126.332 0 .458zm2.692-5.05v9.43c0 .71-.576 1.285-1.286 1.285h-9.428c-.71 0-1.286-.576-1.286-1.286v-9.428c0-.71.576-1.286 1.286-1.286h9.428c.71 0 1.286.576 1.286 1.286zm-.857 0c0-.235-.193-.428-.429-.428h-9.428c-.236 0-.429.193-.429.429v9.428c0 .236.193.429.429.429h9.428c.236 0 .429-.193.429-.429v-9.428z"
                  transform="translate(-915 -504)"/>
        </symbol>
        <symbol id="tap-move-right" viewBox="0 0 6 9">
            <path d="M777.584 173.612c.487 0 .731-.59.387-.934l-3.518-3.518c-.214-.213-.56-.213-.774 0l-3.518 3.518c-.344.345-.1.934.387.934h7.036z" transform="translate(-771 -167) scale(1 -1) rotate(90 945.372 0)"/>
        </symbol>
        <symbol id="tap-calendar" viewBox="0 0 13 14">
            <path d="M10.938 1.75H9.624V.328c0-.18-.148-.328-.328-.328h-.219c-.18 0-.328.148-.328.328V1.75H3.5V.328C3.5.148 3.352 0 3.172 0h-.219c-.18 0-.328.148-.328.328V1.75H1.312C.589 1.75 0 2.338 0 3.063v9.624C0 13.412.588 14 1.313 14h9.624c.725 0 1.313-.588 1.313-1.313V3.063c0-.725-.588-1.313-1.313-1.313zm-9.626.875h9.626c.24 0 .437.197.437.438v1.312H.875V3.062c0-.24.197-.437.438-.437zm9.626 10.5H1.312c-.24 0-.437-.197-.437-.438V5.25h10.5v7.438c0 .24-.197.437-.438.437zM4.046 8.75H2.953c-.18 0-.328-.148-.328-.328V7.328c0-.18.148-.328.328-.328h1.094c.18 0 .328.148.328.328v1.094c0 .18-.148.328-.328.328zm2.625 0H5.578c-.18 0-.328-.148-.328-.328V7.328c0-.18.148-.328.328-.328h1.094c.18 0 .328.148.328.328v1.094c0 .18-.148.328-.328.328zm2.625 0H8.203c-.18 0-.328-.148-.328-.328V7.328c0-.18.148-.328.328-.328h1.094c.18 0 .328.148.328.328v1.094c0 .18-.148.328-.328.328zm-2.625 2.625H5.578c-.18 0-.328-.148-.328-.328V9.953c0-.18.148-.328.328-.328h1.094c.18 0 .328.148.328.328v1.094c0 .18-.148.328-.328.328zm-2.625 0H2.953c-.18 0-.328-.148-.328-.328V9.953c0-.18.148-.328.328-.328h1.094c.18 0 .328.148.328.328v1.094c0 .18-.148.328-.328.328zm5.25 0H8.203c-.18 0-.328-.148-.328-.328V9.953c0-.18.148-.328.328-.328h1.094c.18 0 .328.148.328.328v1.094c0 .18-.148.328-.328.328z"
                  transform="translate(-748 -166) translate(748 166)"/>\
        </symbol>
        <symbol id="tap-three-dots" viewBox="0 0 4 13">
            <path d="M1.56 4.94a1.56 1.56 0 1 1 0 3.12 1.56 1.56 0 0 1 0-3.12zM0 1.56a1.56 1.56 0 1 0 3.12 0 1.56 1.56 0 0 0-3.12 0zm0 9.88a1.56 1.56 0 1 0 3.12 0 1.56 1.56 0 0 0-3.12 0z"/>
        </symbol>
        <symbol id="tap-caret-down" viewBox="0 0 7 5">
            <path fill-rule="evenodd" d="M.464.94H6.51c.203 0 .343.098.421.294.079.195.047.363-.093.503L3.815 4.761a.45.45 0 0 1-.656 0L.136 1.737c-.141-.14-.172-.308-.094-.503C.12 1.038.26.94.464.94z"/>
        </symbol>
        <symbol id="tap-search" viewBox="0 0 512 512">
            <path d="M508.5 468.9L387.1 347.5c-2.3-2.3-5.3-3.5-8.5-3.5h-13.2c31.5-36.5 50.6-84 50.6-136C416 93.1 322.9 0 208 0S0 93.1 0 208s93.1 208 208 208c52 0 99.5-19.1 136-50.6v13.2c0 3.2 1.3 6.2 3.5 8.5l121.4 121.4c4.7 4.7 12.3 4.7 17 0l22.6-22.6c4.7-4.7 4.7-12.3 0-17zM208 368c-88.4 0-160-71.6-160-160S119.6 48 208 48s160 71.6 160 160-71.6 160-160 160z"/>
        </symbol>
        <symbol id="tap-clock" viewBox="0 0 28 28">
            <path d="M14 0C6.266 0 0 6.266 0 14s6.266 14 14 14 14-6.266 14-14S21.734 0 14 0zm12.194 14c0 6.7-5.425 12.194-12.194 12.194-6.7 0-12.194-5.425-12.194-12.194C1.806 7.3 7.231 1.806 14 1.806c6.7 0 12.194 5.425 12.194 12.194zm-8.406 4.985l-4.584-3.331c-.175-.13-.277-.333-.277-.548v-9.01c0-.372.305-.677.678-.677h.79c.373 0 .678.305.678.678v8.259l3.98 2.896c.304.22.366.643.146.948l-.463.638c-.22.3-.643.367-.948.147z" transform="translate(-484 -508) translate(484 508)"/>
        </symbol>
        <symbol id="tap-arrow-down" viewBox="0 0 10 5">
            <path d="M716.5 229.374v5.976c0 .165-.134.3-.3.3h-5.976c-.165 0-.3-.135-.3-.3 0-.08.032-.156.088-.212l5.976-5.976c.117-.117.307-.117.424 0 .056.056.088.132.088.212z" transform="translate(-708.000000, -232.000000) translate(713.000000, 232.149747) rotate(45.000000) translate(-713.000000, -232.149747)"/>
        </symbol>
        <symbol id="tap-wordpress-logo" viewBox="0 0 30 30">
            <g fill="none" fill-rule="evenodd">
                <g fill="#21759B" fill-rule="nonzero">
                    <path d="M925 323c-8.268 0-15 6.726-15 15 0 8.268 6.732 15 15 15s15-6.732 15-15c0-8.274-6.732-15-15-15zm-13.488 15c0-1.954.417-3.81 1.167-5.486l6.436 17.625c-4.5-2.19-7.603-6.804-7.603-12.139zM925 351.488c-1.325 0-2.6-.194-3.81-.55l4.046-11.759 4.143 11.36c.03.066.06.126.097.187-1.397.49-2.903.762-4.476.762zm1.857-19.809c.81-.042 1.542-.127 1.542-.127.726-.084.641-1.155-.084-1.112 0 0-2.184.169-3.593.169-1.325 0-3.55-.17-3.55-.17-.726-.042-.811 1.071-.085 1.113 0 0 .69.085 1.415.127l2.099 5.759-2.952 8.848-4.911-14.607c.81-.042 1.542-.127 1.542-.127.726-.084.641-1.155-.084-1.112 0 0-2.184.169-3.593.169-.254 0-.55-.006-.871-.018 2.413-3.66 6.556-6.079 11.268-6.079 3.508 0 6.708 1.343 9.109 3.538-.06-.006-.115-.012-.176-.012-1.324 0-2.262 1.156-2.262 2.395 0 1.113.641 2.05 1.325 3.164.514.895 1.113 2.05 1.113 3.72 0 1.155-.442 2.491-1.028 4.36l-1.343 4.494-4.881-14.492zm4.923 17.976l4.12-11.909c.767-1.923 1.027-3.46 1.027-4.833 0-.496-.03-.955-.09-1.385 1.052 1.924 1.65 4.125 1.65 6.472 0 4.978-2.697 9.32-6.707 11.655z"
                          transform="translate(-910 -323)"/>
                </g>
            </g>
        </symbol>
        <symbol id="tap-date-time-logo" viewBox="0 0 24 21">
            <g fill="#D02591" fill-rule="nonzero">
                <path d="M4.776 1a.39.39 0 0 1 .39.39v1.693h6.25V1.391A.39.39 0 0 1 11.808 1h.26a.39.39 0 0 1 .391.39v1.693h1.563c.863 0 1.562.7 1.562 1.563v.365c-.353.018-.701.059-1.041.122v-.487a.521.521 0 0 0-.521-.521H2.562a.521.521 0 0 0-.52.52v1.563h9.729c-.481.3-.928.65-1.334 1.042H2.042v8.854c0 .287.233.521.52.521h6.305a8 8 0 0 0 .634 1.041H2.563C1.7 17.667 1 16.968 1 16.105V4.646c0-.863.7-1.563 1.563-1.563h1.562V1.391A.39.39 0 0 1 4.515 1z" stroke="#D02591" stroke-width=".2"/>
                <path d="M16.155 9.5h-.353a.503.503 0 0 0-.502.502v4.023c0 .159.076.31.204.405l2.048 1.488a.505.505 0 0 0 .702-.109l.208-.286.046-.078a.501.501 0 0 0-.157-.625l-1.694-1.233v-3.585a.503.503 0 0 0-.502-.502z"/>
                <path d="M16 5a8 8 0 1 1 0 16 8 8 0 0 1 0-16zm0 1.185a6.815 6.815 0 1 0 0 13.63 6.815 6.815 0 0 0 0-13.63z"/>
            </g>
        </symbol>
        <symbol id="tap-leads-logo" viewBox="0 0 20 20">
            <g fill="none" fill-rule="evenodd">
                <g>
                    <g>
                        <path fill="#424242"
                              d="M18.54 17.306c0 .125-.019.24-.055.356l-5.548-5.544 5.604-4.475v9.663zm-16.34 1.2l5.68-5.675 2.008 1.38 2.014-1.38 5.68 5.675c-.09.025-15.292.025-15.383 0zm-.96-1.2V7.643l5.6 4.475-5.544 5.544c-.036-.116-.056-.231-.056-.356zm16.1-13.118l-.09.176c-.19.362-.321.613-.437.869l1.728.944-2.747 2.09v.004l-1.602 1.215v.005h-.005l-4.299 3.275-2.345-1.788-1.025-.779-1.39-1.06-.804-.612-3.084-2.35 8.638-4.74 2.094 1.144c.246-.1.819-.326 1.486-.577L9.888 0 0 5.56v11.746c0 1.365 1.11 2.475 2.47 2.475h14.835c1.366 0 2.476-1.11 2.476-2.475V5.559l-2.44-1.37z"
                              transform="translate(-667 -236) translate(667 236)"/>
                        <path fill="#59A31D"
                              d="M18.109 2.154c-.281.05-.382.11-.567.226-.217.13-.422.342-.568.538l-.366.512c-.03.05-.03.06-.056.105-.632 1.206-.783 1.406-1.185 2.863-.186.678-.427 1.32-.698 1.963-.156.377-.296.764-.477 1.13l-4.304 3.274-2.345-1.787.417-.9.683-1.069c.02-.03.03-.05.055-.075.03-.04.03-.035.06-.07l.166-.211c.025-.03.035-.04.065-.07.045-.05.066-.081.116-.136l.783-.804c.266-.266.562-.512.844-.758l.884-.723c.331-.256.904-.718 1.23-.93l.934-.677c-.146.045-.326.17-.457.241-.15.085-.286.16-.442.251l-.869.512c-.427.241-.838.538-1.25.799l-.788.552c-.292.191-.744.553-1.035.799-.326.276-.628.582-.944.863L6.96 9.652c-.025.03-.05.055-.07.08l-.372.467-1.39-1.06c.13-.215.26-.416.326-.491.135-.16.24-.377.391-.543.066-.07.121-.16.191-.24.07-.081.126-.156.196-.237l.422-.457c.427-.457.899-.884 1.396-1.265.538-.412 1.07-.764 1.642-1.12.738-.467 1.763-.904 2.556-1.23.829-.342 2.948-1.165 3.998-1.366l.01-.005.05-.01.16-.03c.317-.06.739-.136 1.08-.136.247 0 .457.04.563.145"
                              transform="translate(-667 -236) translate(667 236)"/>
                    </g>
                </g>
            </g>
        </symbol>
        <symbol id="tap-info" viewBox="0 0 512 512">
            <path d="M256 8C119.043 8 8 119.083 8 256c0 136.997 111.043 248 248 248s248-111.003 248-248C504 119.083 392.957 8 256 8zm0 110c23.196 0 42 18.804 42 42s-18.804 42-42 42-42-18.804-42-42 18.804-42 42-42zm56 254c0 6.627-5.373 12-12 12h-88c-6.627 0-12-5.373-12-12v-24c0-6.627 5.373-12 12-12h12v-64h-12c-6.627 0-12-5.373-12-12v-24c0-6.627 5.373-12 12-12h64c6.627 0 12 5.373 12 12v100h12c6.627 0 12 5.373 12 12v24z"></path>
        </symbol>
        <symbol id="tap-error-log-active" viewBox="0 0 18 22">
            <path
                    d="M17 0c.552 0 1 .448 1 1v20c0 .552-.448 1-1 1H1c-.552 0-1-.448-1-1V1c0-.552.448-1 1-1h16zm-3.5 16h-9c-.276 0-.5.224-.5.5v.5c0 .276.224.5.5.5h9c.276 0 .5-.224.5-.5v-.5c0-.276-.224-.5-.5-.5zm0-4h-9c-.276 0-.5.224-.5.5v.5c0 .276.224.5.5.5h9c.276 0 .5-.224.5-.5v-.5c0-.276-.224-.5-.5-.5zm0-4h-9c-.276 0-.5.224-.5.5V9c0 .276.224.5.5.5h9c.276 0 .5-.224.5-.5v-.5c0-.276-.224-.5-.5-.5zm0-4h-9c-.276 0-.5.224-.5.5V5c0 .276.224.5.5.5h9c.276 0 .5-.224.5-.5v-.5c0-.276-.224-.5-.5-.5z"
                    transform="translate(-23 -93) translate(23 93)"/>
        </symbol>
        <symbol id="tap-error-log-default" viewBox="0 0 18 22">
            <g fill="none" fill-rule="evenodd">
                <g>
                    <g transform="translate(-23.000000, -164.000000) translate(23.000000, 164.000000)">
                        <rect width="16.5" height="20.5" x=".75" y=".75" stroke="#FFF" stroke-width="1.5" rx="1"/>
                        <g fill="#FFF">
                            <path d="M9.5 12c.276 0 .5.224.5.5v.5c0 .276-.224.5-.5.5h-9c-.276 0-.5-.224-.5-.5v-.5c0-.276.224-.5.5-.5h9zm0-4c.276 0 .5.224.5.5V9c0 .276-.224.5-.5.5h-9C.224 9.5 0 9.276 0 9v-.5c0-.276.224-.5.5-.5h9zm0-4c.276 0 .5.224.5.5V5c0 .276-.224.5-.5.5h-9C.224 5.5 0 5.276 0 5v-.5c0-.276.224-.5.5-.5h9zm0-4c.276 0 .5.224.5.5V1c0 .276-.224.5-.5.5h-9C.224 1.5 0 1.276 0 1V.5C0 .224.224 0 .5 0h9z" transform="translate(4.000000, 4.000000)"/>
                        </g>
                    </g>
                </g>
            </g>
        </symbol>
        <symbol id="tap-external-link" viewBox="0 0 16 16">
            <path d="M13.75 8h-.5c-.138 0-.25.112-.25.25v6.25c0 .276-.224.5-.5.5h-11c-.276 0-.5-.224-.5-.5v-11c0-.276.224-.5.5-.5h6.25c.138 0 .25-.112.25-.25v-.5C8 2.112 7.888 2 7.75 2H1.5C.672 2 0 2.672 0 3.5v11c0 .828.672 1.5 1.5 1.5h11c.828 0 1.5-.672 1.5-1.5V8.25c0-.138-.112-.25-.25-.25zm1.875-8l-4.25.01C11.168.01 11 .18 11 .387v.312c0 .207.168.375.375.375l2.813-.01.021.022-10.1 10.098c-.07.07-.11.166-.11.266s.04.195.11.265l.178.177c.07.07.166.11.265.11.1 0 .195-.04.266-.11l10.097-10.1.023.023-.011 2.812c0 .207.168.375.375.375h.312c.207 0 .375-.168.375-.375L16 .375C16 .168 15.832 0 15.625 0z"
                  transform="translate(-1055 -197) translate(1055 197)"/>
        </symbol>
        <symbol id="tap-sync" viewBox="0 0 16 16">
            <path d="M15.613 0h-.323c-.213 0-.387.173-.387.387v3.569C13.513 1.589 10.943 0 8 0 3.717 0 .22 3.366.01 7.597 0 7.817.177 8 .397 8H.72c.205 0 .376-.16.386-.364.19-3.629 3.187-6.54 6.894-6.54 2.673 0 4.992 1.52 6.138 3.743h-3.686c-.214 0-.387.173-.387.387v.322c0 .214.173.387.387.387h5.16c.215 0 .388-.173.388-.387V.388C16 .172 15.827 0 15.613 0zm-.01 8h-.323c-.205 0-.376.16-.386.364-.19 3.641-3.199 6.54-6.894 6.54-2.665 0-4.99-1.515-6.139-3.743h3.687c.214 0 .387-.173.387-.387v-.322c0-.214-.173-.387-.387-.387H.388c-.215 0-.388.173-.388.387v5.16c0 .215.173.388.387.388H.71c.213 0 .387-.173.387-.387v-3.569C2.487 14.411 5.057 16 8 16c4.283 0 7.78-3.366 7.99-7.597.01-.22-.167-.403-.387-.403z"
                  transform="translate(-1253 -197) translate(1253 197)"/>
        </symbol>
        <symbol id="tap-angle-right" viewBox="0 0 256 512">
            <path d="M224.3 273l-136 136c-9.4 9.4-24.6 9.4-33.9 0l-22.6-22.6c-9.4-9.4-9.4-24.6 0-33.9l96.4-96.4-96.4-96.4c-9.4-9.4-9.4-24.6 0-33.9L54.3 103c9.4-9.4 24.6-9.4 33.9 0l136 136c9.5 9.4 9.5 24.6.1 34z"/>
        </symbol>
        <symbol id="tap-angle-left" viewBox="0 0 256 512">
            <path d="M31.7 239l136-136c9.4-9.4 24.6-9.4 33.9 0l22.6 22.6c9.4 9.4 9.4 24.6 0 33.9L127.9 256l96.4 96.4c9.4 9.4 9.4 24.6 0 33.9L201.7 409c-9.4 9.4-24.6 9.4-33.9 0l-136-136c-9.5-9.4-9.5-24.6-.1-34z"/>
        </symbol>
        <symbol id="tap-angle-double-left" viewBox="0 0 448 512">
            <path d="M223.7 239l136-136c9.4-9.4 24.6-9.4 33.9 0l22.6 22.6c9.4 9.4 9.4 24.6 0 33.9L319.9 256l96.4 96.4c9.4 9.4 9.4 24.6 0 33.9L393.7 409c-9.4 9.4-24.6 9.4-33.9 0l-136-136c-9.5-9.4-9.5-24.6-.1-34zm-192 34l136 136c9.4 9.4 24.6 9.4 33.9 0l22.6-22.6c9.4-9.4 9.4-24.6 0-33.9L127.9 256l96.4-96.4c9.4-9.4 9.4-24.6 0-33.9L201.7 103c-9.4-9.4-24.6-9.4-33.9 0l-136 136c-9.5 9.4-9.5 24.6-.1 34z"/>
        </symbol>
        <symbol id="tap-angle-double-right" viewBox="0 0 448 512">
            <path d="M224.3 273l-136 136c-9.4 9.4-24.6 9.4-33.9 0l-22.6-22.6c-9.4-9.4-9.4-24.6 0-33.9l96.4-96.4-96.4-96.4c-9.4-9.4-9.4-24.6 0-33.9L54.3 103c9.4-9.4 24.6-9.4 33.9 0l136 136c9.5 9.4 9.5 24.6.1 34zm192-34l-136-136c-9.4-9.4-24.6-9.4-33.9 0l-22.6 22.6c-9.4 9.4-9.4 24.6 0 33.9l96.4 96.4-96.4 96.4c-9.4 9.4-9.4 24.6 0 33.9l22.6 22.6c9.4 9.4 24.6 9.4 33.9 0l136-136c9.4-9.2 9.4-24.4 0-33.8z"/>
        </symbol>
        <symbol id="tap-file-search" viewBox="0 0 45 40">
            <path d="M44.816 38.05l-6.944-6.943c1.317-1.694 2.133-3.795 2.133-6.107 0-5.523-4.477-10-10-10-5.522 0-10 4.477-10 10s4.478 10 10 10c2.31 0 4.41-.814 6.102-2.128l6.945 6.944c.118.118.277.184.443.184.165 0 .324-.066.442-.184l.883-.883c.242-.245.24-.64-.004-.882zM30.004 32.5c-4.142 0-7.5-3.358-7.5-7.5 0-4.142 3.358-7.5 7.5-7.5 4.142 0 7.5 3.358 7.5 7.5-.005 4.14-3.36 7.495-7.5 7.5zm-3.754 5H3.75c-.69 0-1.25-.56-1.25-1.25V3.757c0-.69.56-1.25 1.25-1.25H17.5v8.125c-.001.498.196.976.548 1.327.352.352.83.55 1.327.548L30 12.5v-2.188c-.002-.996-.398-1.95-1.102-2.656l-6.554-6.554C21.64.398 20.688.002 19.694 0H3.75C1.679.007.003 1.686 0 3.757V36.25C0 38.321 1.679 40 3.75 40h22.5c1.593-.004 3.009-1.016 3.527-2.523-.893-.018-1.781-.132-2.65-.34-.233.232-.548.363-.877.363zM20 2.546c.22.054.42.168.578.328l6.555 6.554c.16.159.274.359.328.577H20V2.546z"
                  transform="translate(-691.000000, -237.000000) translate(669.000000, 237.000000) translate(22.000000, 0.000000)"/>
        </symbol>
        <symbol id="tap-database" viewBox="0 0 448 512">
            <path d="M224 48c97.167 0 176 27.723 176 61.714v4.571C400 148.277 321.167 176 224 176S48 148.277 48 114.286v-4.571C48 75.723 126.833 48 224 48m176 135.018v26.399c0 33.991-78.833 61.714-176 61.714S48 243.408 48 209.417v-26.399C85.813 210.982 155.021 224 224 224s138.187-13.018 176-40.982m0 96v26.834c0 33.991-78.833 61.714-176 61.714S48 339.842 48 305.851v-26.834C85.813 306.982 155.021 320 224 320s138.187-13.018 176-40.982m0 96v27.268C400 436.277 321.167 464 224 464S48 436.277 48 402.286v-27.268C85.813 402.982 155.021 416 224 416s138.187-13.018 176-40.982M224 0C137.052 0 0 23.26 0 109.714v292.571C0 488.758 137.03 512 224 512c86.948 0 224-23.26 224-109.714V109.714C448 23.242 310.97 0 224 0z"></path>
        </symbol>
        <symbol id="tap-send-webhook" viewBox="0 0 31 28">
            <path d="M15.4 0c-3.858 0-7 3.142-7 7 0 2.302 1.143 4.323 2.866 5.6l-3.457 5.71c-.027-.009-.057-.014-.087-.022a2.81 2.81 0 0 0-3.15 4.112A2.8 2.8 0 0 0 7 23.8a2.81 2.81 0 0 0 2.713-2.078 2.771 2.771 0 0 0-.285-2.122 2.933 2.933 0 0 0-.437-.547l3.806-6.256.372-.613-.613-.35A5.608 5.608 0 0 1 9.8 7c0-3.1 2.5-5.6 5.6-5.6C18.5 1.4 21 3.9 21 7a5.5 5.5 0 0 1-.24 1.64l1.334.416c.202-.653.306-1.34.306-2.056 0-3.858-3.142-7-7-7zm0 4.2A2.802 2.802 0 0 0 12.6 7c0 1.545 1.255 2.8 2.8 2.8.232 0 .462-.033.678-.088l3.369 6.104.328.612.634-.328a5.521 5.521 0 0 1 2.691-.7c3.1 0 5.6 2.5 5.6 5.6 0 3.1-2.5 5.6-5.6 5.6a5.605 5.605 0 0 1-3.894-1.575l-.962 1.006A6.998 6.998 0 0 0 23.1 28c3.858 0 7-3.142 7-7s-3.142-7-7-7c-.97 0-1.87.254-2.713.613l-3.084-5.579A2.775 2.775 0 0 0 18.2 7c0-1.545-1.255-2.8-2.8-2.8zM5.294 14.197A7.012 7.012 0 0 0 0 21c0 3.858 3.142 7 7 7 3.61 0 6.5-2.786 6.869-6.3h6.54a2.782 2.782 0 0 0 2.691 2.1c1.545 0 2.8-1.255 2.8-2.8s-1.255-2.8-2.8-2.8a2.782 2.782 0 0 0-2.69 2.1H12.6v.7c0 3.1-2.5 5.6-5.6 5.6-3.1 0-5.6-2.5-5.6-5.6 0-2.63 1.81-4.818 4.244-5.425l-.35-1.378z"/>
        </symbol>
        <symbol id="tap-spinner" viewBox="0 0 16 16">
            <path d="M8 12.025a1.662 1.662 0 1 1 0 3.325 1.662 1.662 0 0 1 0-3.325zm-4.022-1.666a1.663 1.663 0 1 1 0 3.325 1.663 1.663 0 0 1 0-3.325zm8.044 0a1.663 1.663 0 1 1 0 3.325 1.663 1.663 0 0 1 0-3.325zm1.665-4.022a1.662 1.662 0 1 1 0 3.325 1.662 1.662 0 0 1 0-3.325zm-11.374 0a1.662 1.662 0 1 1 0 3.325 1.662 1.662 0 0 1 0-3.325zm1.665-4.021a1.663 1.663 0 1 1 0 3.325 1.663 1.663 0 0 1 0-3.325zM8 .65a1.662 1.662 0 1 1 0 3.325A1.662 1.662 0 0 1 8 .65z"/>
        </symbol>
        <symbol id="tap-check" viewBox="0 0 18 14">
            <path d="M16.08.14 5.725 10.599 1.92 6.756a.47.47 0 0 0-.668 0L.138 7.88a.48.48 0 0 0 0 .675l5.253 5.305a.47.47 0 0 0 .668 0L17.862 1.94a.48.48 0 0 0 0-.676L16.748.14a.47.47 0 0 0-.668 0z"/>
        </symbol>
        <symbol id="tap-clipboard" viewBox="0 0 448 512">
            <path d="M433.941 65.941l-51.882-51.882A48 48 0 0 0 348.118 0H176c-26.51 0-48 21.49-48 48v48H48c-26.51 0-48 21.49-48 48v320c0 26.51 21.49 48 48 48h224c26.51 0 48-21.49 48-48v-48h80c26.51 0 48-21.49 48-48V99.882a48 48 0 0 0-14.059-33.941zM266 464H54a6 6 0 0 1-6-6V150a6 6 0 0 1 6-6h74v224c0 26.51 21.49 48 48 48h96v42a6 6 0 0 1-6 6zm128-96H182a6 6 0 0 1-6-6V54a6 6 0 0 1 6-6h106v88c0 13.255 10.745 24 24 24h88v202a6 6 0 0 1-6 6zm6-256h-64V48h9.632c1.591 0 3.117.632 4.243 1.757l48.368 48.368a6 6 0 0 1 1.757 4.243V112z"></path>
        </symbol>
        <symbol id="tap-radar" viewBox="0 0 24 24">
            <path d="M19.07,4.93L17.66,6.34C19.1,7.79 20,9.79 20,12A8,8 0 0,1 12,20A8,8 0 0,1 4,12C4,7.92 7.05,4.56 11,4.07V6.09C8.16,6.57 6,9.03 6,12A6,6 0 0,0 12,18A6,6 0 0,0 18,12C18,10.34 17.33,8.84 16.24,7.76L14.83,9.17C15.55,9.9 16,10.9 16,12A4,4 0 0,1 12,16A4,4 0 0,1 8,12C8,10.14 9.28,8.59 11,8.14V10.28C10.4,10.63 10,11.26 10,12A2,2 0 0,0 12,14A2,2 0 0,0 14,12C14,11.26 13.6,10.62 13,10.28V2H12A10,10 0 0,0 2,12A10,10 0 0,0 12,22A10,10 0 0,0 22,12C22,9.24 20.88,6.74 19.07,4.93Z"></path>
        </symbol>
        <symbol id="tap-chevron-down" viewBox="0 0 14 8">
            <path d="m13.288.319-.213-.213a.36.36 0 0 0-.51 0L6.699 5.975.829.105a.36.36 0 0 0-.51 0L.106.32a.36.36 0 0 0 0 .51L6.44 7.167a.36.36 0 0 0 .51 0L13.286.829a.358.358 0 0 0 .003-.51z" fill="#646B74" fill-rule="nonzero"/>
        </symbol>
        <symbol id="tap-advanced-mapping" viewBox="0 0 32 24">
            <path d="M22.2.2a.2.2 0 0 1 .12.04l3.467 2.6a.2.2 0 0 1 0 .32l-3.467 2.6A.2.2 0 0 1 22 5.6V3.964l-.95-.007a7.1 7.1 0 0 0-7.144 6.81l-.006.24v.092l8.1.001V9.4a.2.2 0 0 1 .32-.16l3.467 2.6a.2.2 0 0 1 0 .32l-3.467 2.6a.2.2 0 0 1-.32-.16v-1.7l-8.1-.001V13a7.1 7.1 0 0 0 6.86 7.096l.24.004 1-.001V18.4a.2.2 0 0 1 .32-.16l3.467 2.6a.2.2 0 0 1 0 .32l-3.467 2.6a.2.2 0 0 1-.32-.16v-1.701l-1 .001a8.9 8.9 0 0 1-8.896-8.638L12.1 13l-.001-.101L10 12.9a.9.9 0 0 1-.113-1.793L10 11.1l2.1-.001v-.105a8.9 8.9 0 0 1 8.963-8.837l.937.007V.4c0-.11.09-.2.2-.2zM30 5a2 2 0 1 0 0-4 2 2 0 0 0 0 4zm0 9a2 2 0 1 0 0-4 2 2 0 0 0 0 4zm0 9a2 2 0 1 0 0-4 2 2 0 0 0 0 4zM4 8.1a3.9 3.9 0 1 0 0 7.8 3.9 3.9 0 0 0 0-7.8zm0 1.8a2.1 2.1 0 1 1 0 4.2 2.1 2.1 0 0 1 0-4.2z"
                  fill="#A365A4" fill-rule="evenodd"/>
        </symbol>
        <symbol id="tap-generic-cogs" viewBox="0 0 38 31">
            <path xmlns="http://www.w3.org/2000/svg"
                  d="M31.582 12.234c.156.274.38.47.674.586.293.118.595.137.908.059.781-.273 1.445-.625 1.992-1.055a1.42 1.42 0 0 0 .498-.85 1.52 1.52 0 0 0-.146-.966l-.176-.235c.156-.195.273-.41.352-.644h.292c.352 0 .655-.107.909-.322.254-.215.42-.479.498-.791a5.628 5.628 0 0 0 0-2.285 1.488 1.488 0 0 0-.498-.791 1.283 1.283 0 0 0-.85-.323h-.351a2.075 2.075 0 0 0-.352-.644l.176-.235a1.52 1.52 0 0 0 .146-.966 1.555 1.555 0 0 0-.44-.85A5.572 5.572 0 0 0 33.224.809a1.294 1.294 0 0 0-.938 0 1.262 1.262 0 0 0-.703.644l-.176.235h-.703l-.176-.235a1.262 1.262 0 0 0-.703-.644 1.294 1.294 0 0 0-.937 0 7.082 7.082 0 0 0-1.993 1.113c-.234.234-.38.518-.439.85-.059.332-.01.634.146.908l.176.293c-.156.195-.273.41-.351.644h-.528a1.36 1.36 0 0 0-.908.323c-.254.214-.42.478-.498.79a5.628 5.628 0 0 0 0 2.286c.078.312.244.576.498.79.254.216.557.323.908.323h.528c.078.234.195.45.351.644l-.176.235a1.52 1.52 0 0 0-.146.967c.059.332.225.595.498.79.547.47 1.211.84 1.992 1.114.313.078.615.059.908-.059a1.32 1.32 0 0 0 .674-.586l.176-.234c.234.04.469.04.703 0l.176.234zm.703-1.992-.586.117c-.43.079-.86.079-1.289 0l-.586-.117-.586 1.055c-.43-.156-.8-.371-1.113-.645l.644-1.054-.41-.41a4.275 4.275 0 0 1-.644-1.172l-.176-.528h-1.23a3.257 3.257 0 0 1 0-1.23h1.23l.176-.586a4.58 4.58 0 0 1 .644-1.113l.41-.41-.644-1.114c.351-.234.723-.43 1.113-.586l.586 1.055.586-.117c.43-.078.86-.078 1.29 0l.585.117.586-1.055c.43.157.8.352 1.113.586l-.586 1.113.352.41c.273.352.488.723.644 1.114l.176.586h1.23c.079.39.079.8 0 1.23h-1.23l-.176.586a4.58 4.58 0 0 1-.644 1.114l-.352.41.586 1.054a4.58 4.58 0 0 1-1.113.645l-.586-1.055zM8.496 27.352c0 .351.107.654.322.908.215.254.479.42.791.498 1.094.234 2.09.351 2.989.351.898 0 1.894-.117 2.988-.351.312-.078.576-.244.79-.498.216-.254.323-.537.323-.85v-1.875a14.166 14.166 0 0 0 2.11-1.23l1.582.937c.312.156.625.205.937.147a1.54 1.54 0 0 0 .82-.44c1.875-1.992 2.97-3.73 3.282-5.215a1.194 1.194 0 0 0-.059-.82 1.337 1.337 0 0 0-.586-.644l-1.64-1.055c.117-.82.117-1.64 0-2.461l1.464-.938a1.31 1.31 0 0 0 .586-.703 1.294 1.294 0 0 0 0-.937 13.256 13.256 0 0 0-1.172-2.666c-.468-.801-1.093-1.631-1.875-2.49a1.28 1.28 0 0 0-.79-.44 1.52 1.52 0 0 0-.967.147l-1.582.937a9.592 9.592 0 0 0-2.11-1.23V4.617a1.36 1.36 0 0 0-.322-.908 1.488 1.488 0 0 0-.791-.498c-1.133-.234-2.149-.352-3.047-.352-.898 0-1.875.118-2.93.352a1.488 1.488 0 0 0-.79.498 1.36 1.36 0 0 0-.323.908v1.817c-.781.351-1.484.761-2.11 1.23l-1.64-.937a1.315 1.315 0 0 0-.908-.147 1.28 1.28 0 0 0-.791.44c-.742.78-1.338 1.562-1.787 2.343-.45.782-.85 1.72-1.201 2.813-.079.312-.059.625.058.937.117.313.313.547.586.703l1.582.938a12.95 12.95 0 0 0 0 2.46l-1.582.938a1.31 1.31 0 0 0-.586.703 1.545 1.545 0 0 0-.058.938c.351 1.094.752 2.031 1.2 2.812.45.782 1.046 1.563 1.788 2.344.195.235.459.381.79.44.333.058.636.01.91-.147l1.64-.937a9.592 9.592 0 0 0 2.11 1.23v1.817zM10.371 27v-2.754l-.586-.234A7.797 7.797 0 0 1 7.09 22.43l-.528-.41-2.402 1.406a10.747 10.747 0 0 1-2.226-3.809l2.402-1.406-.117-.645a8.616 8.616 0 0 1 0-3.164l.117-.644-2.402-1.348A10.656 10.656 0 0 1 4.16 8.543l2.402 1.406.528-.41a7.797 7.797 0 0 1 2.695-1.582l.586-.234V4.969a10.693 10.693 0 0 1 4.453 0v2.754l.586.234a7.797 7.797 0 0 1 2.695 1.582l.528.41 2.402-1.406c1.29 1.445 2.11 2.715 2.461 3.809l-2.402 1.406.117.644a8.302 8.302 0 0 1 0 3.106l-.117.703 2.402 1.406c-.352 1.094-1.172 2.363-2.46 3.809l-2.403-1.406-.528.41a7.797 7.797 0 0 1-2.695 1.582l-.586.176V27a10.693 10.693 0 0 1-4.453 0zm2.285-6.152c1.328 0 2.47-.479 3.428-1.436.957-.957 1.435-2.1 1.435-3.428 0-1.328-.478-2.47-1.435-3.427-.957-.957-2.11-1.436-3.457-1.436-1.348 0-2.49.479-3.428 1.436-.937.957-1.406 2.1-1.406 3.427 0 1.329.469 2.471 1.406 3.428.938.957 2.09 1.436 3.457 1.436zm0-7.852c.82 0 1.524.293 2.11.879.586.586.878 1.29.878 2.11 0 .82-.292 1.523-.878 2.109a2.877 2.877 0 0 1-2.11.879c-.82 0-1.523-.293-2.11-.88a2.877 2.877 0 0 1-.878-2.109c0-.82.293-1.523.879-2.109a2.877 2.877 0 0 1 2.11-.879zm18.926 17.11c.156.273.38.458.674.556.293.098.595.108.908.03.781-.235 1.445-.587 1.992-1.055a1.42 1.42 0 0 0 .498-.85 1.52 1.52 0 0 0-.146-.967l-.176-.234c.156-.195.273-.39.352-.586h.292c.352 0 .655-.107.909-.322.254-.215.42-.498.498-.85a5.347 5.347 0 0 0 0-2.226 1.505 1.505 0 0 0-.498-.85 1.283 1.283 0 0 0-.85-.322h-.351a2.075 2.075 0 0 0-.352-.645l.176-.234a1.52 1.52 0 0 0 .146-.967 1.28 1.28 0 0 0-.44-.791 5.572 5.572 0 0 0-1.991-1.113 1.294 1.294 0 0 0-.938 0 1.31 1.31 0 0 0-.703.586l-.176.293a2.124 2.124 0 0 0-.703 0l-.176-.293a1.31 1.31 0 0 0-.703-.586 1.294 1.294 0 0 0-.937 0 5.572 5.572 0 0 0-1.993 1.113 1.28 1.28 0 0 0-.439.791 1.52 1.52 0 0 0 .146.967l.176.234c-.156.195-.273.41-.351.645h-.528a1.36 1.36 0 0 0-.908.322c-.254.215-.42.478-.498.791a5.628 5.628 0 0 0 0 2.285c.078.352.244.635.498.85.254.215.557.322.908.322h.528c.078.195.195.39.351.586l-.176.234a1.52 1.52 0 0 0-.146.967c.059.332.225.615.498.85.547.468 1.211.82 1.992 1.054.313.079.615.069.908-.029.293-.098.518-.283.674-.557l.176-.234h.703l.176.234zm.703-2.051-.586.117c-.43.078-.86.078-1.289 0l-.586-.117-.586 1.054a4.28 4.28 0 0 1-1.113-.586l.644-1.113-.41-.41a4.58 4.58 0 0 1-.644-1.113l-.176-.586h-1.23c-.079-.39-.079-.801 0-1.23h1.23l.176-.528a4.58 4.58 0 0 1 .644-1.113l.41-.47-.644-1.054a4.58 4.58 0 0 1 1.113-.644l.586 1.054.586-.117c.43-.078.86-.078 1.29 0l.585.117.586-1.054c.43.156.8.37 1.113.644l-.586 1.055.352.469c.273.312.488.683.644 1.113l.176.527h1.23c.079.43.079.84 0 1.23h-1.23l-.176.587A4.58 4.58 0 0 1 33.75 27l-.352.41.586 1.113c-.351.235-.722.43-1.113.586l-.586-1.054zm.527-3.399c0-.508-.185-.947-.556-1.318a1.802 1.802 0 0 0-1.319-.557c-.507 0-.947.186-1.318.557-.371.371-.557.81-.557 1.318s.186.948.557 1.319c.371.37.81.556 1.318.556s.948-.185 1.319-.556c.37-.371.556-.81.556-1.319zm0-17.812c0-.547-.185-.996-.556-1.348a1.852 1.852 0 0 0-1.319-.527c-.507 0-.947.176-1.318.527a1.74 1.74 0 0 0-.557 1.319c0 .527.186.976.557 1.347.371.371.81.557 1.318.557s.948-.186 1.319-.557c.37-.37.556-.81.556-1.318z"
                  fill="#906E7F" fill-rule="nonzero"/>
        </symbol>
        <symbol id="tap-trash" viewBox="0 0 11 12">
            <path d="M10.313 1.5H7.874L7.087.45a1.125 1.125 0 0 0-.9-.45H4.313c-.354 0-.687.167-.9.45L2.626 1.5H.187A.188.188 0 0 0 0 1.688v.375c0 .103.084.187.188.187H.63l.779 8.726c.052.58.538 1.024 1.12 1.024H7.97c.582 0 1.068-.444 1.12-1.024L9.87 2.25h.443a.188.188 0 0 0 .187-.188v-.374a.188.188 0 0 0-.188-.188zm-6.3-.6a.377.377 0 0 1 .3-.15h1.875c.117 0 .228.056.3.15l.45.6H3.563l.45-.6zm4.33 10.008a.373.373 0 0 1-.372.342H2.53a.373.373 0 0 1-.373-.342L1.383 2.25h7.734l-.773 8.658z"
            />
        </symbol>
        <symbol id="tap-email" viewBox="0 0 24 24">
            <path d="M22 6C22 4.9 21.1 4 20 4H4C2.9 4 2 4.9 2 6V18C2 19.1 2.9 20 4 20H20C21.1 20 22 19.1 22 18V6M20 6L12 11L4 6H20M20 18H4V8L12 13L20 8V18Z"></path>
        </symbol>
        <symbol id="tap-cog" viewBox="0 0 512 512">
            <path d="M482.696 299.276l-32.61-18.827a195.168 195.168 0 0 0 0-48.899l32.61-18.827c9.576-5.528 14.195-16.902 11.046-27.501-11.214-37.749-31.175-71.728-57.535-99.595-7.634-8.07-19.817-9.836-29.437-4.282l-32.562 18.798a194.125 194.125 0 0 0-42.339-24.48V38.049c0-11.13-7.652-20.804-18.484-23.367-37.644-8.909-77.118-8.91-114.77 0-10.831 2.563-18.484 12.236-18.484 23.367v37.614a194.101 194.101 0 0 0-42.339 24.48L105.23 81.345c-9.621-5.554-21.804-3.788-29.437 4.282-26.36 27.867-46.321 61.847-57.535 99.595-3.149 10.599 1.47 21.972 11.046 27.501l32.61 18.827a195.168 195.168 0 0 0 0 48.899l-32.61 18.827c-9.576 5.528-14.195 16.902-11.046 27.501 11.214 37.748 31.175 71.728 57.535 99.595 7.634 8.07 19.817 9.836 29.437 4.283l32.562-18.798a194.08 194.08 0 0 0 42.339 24.479v37.614c0 11.13 7.652 20.804 18.484 23.367 37.645 8.909 77.118 8.91 114.77 0 10.831-2.563 18.484-12.236 18.484-23.367v-37.614a194.138 194.138 0 0 0 42.339-24.479l32.562 18.798c9.62 5.554 21.803 3.788 29.437-4.283 26.36-27.867 46.321-61.847 57.535-99.595 3.149-10.599-1.47-21.972-11.046-27.501zm-65.479 100.461l-46.309-26.74c-26.988 23.071-36.559 28.876-71.039 41.059v53.479a217.145 217.145 0 0 1-87.738 0v-53.479c-33.621-11.879-43.355-17.395-71.039-41.059l-46.309 26.74c-19.71-22.09-34.689-47.989-43.929-75.958l46.329-26.74c-6.535-35.417-6.538-46.644 0-82.079l-46.329-26.74c9.24-27.969 24.22-53.869 43.929-75.969l46.309 26.76c27.377-23.434 37.063-29.065 71.039-41.069V44.464a216.79 216.79 0 0 1 87.738 0v53.479c33.978 12.005 43.665 17.637 71.039 41.069l46.309-26.76c19.709 22.099 34.689 47.999 43.929 75.969l-46.329 26.74c6.536 35.426 6.538 46.644 0 82.079l46.329 26.74c-9.24 27.968-24.219 53.868-43.929 75.957zM256 160c-52.935 0-96 43.065-96 96s43.065 96 96 96 96-43.065 96-96-43.065-96-96-96zm0 160c-35.29 0-64-28.71-64-64s28.71-64 64-64 64 28.71 64 64-28.71 64-64 64z"></path>
        </symbol>
        <symbol id="tap-lock" viewBox="0 0 10 12">
            <path xmlns="http://www.w3.org/2000/svg"
                  d="M8.781 4.5c.287 0 .53.1.73.3.201.201.301.445.301.731v4.813c0 .286-.1.53-.3.73-.2.2-.444.301-.73.301H1.218c-.287 0-.53-.1-.73-.3-.201-.201-.301-.445-.301-.731V5.53c0-.286.1-.53.3-.73.2-.2.444-.301.73-.301h.688V3.469c0-.559.14-1.074.42-1.547.278-.473.654-.849 1.127-1.128C3.926.514 4.441.375 5 .375c.559 0 1.074.14 1.547.419.473.28.848.659 1.128 1.139.28.48.419.999.419 1.557V4.5h.687zM2.937 3.469V4.5h4.125V3.469c0-.573-.2-1.06-.601-1.461A1.989 1.989 0 0 0 5 1.406c-.573 0-1.06.2-1.46.602a1.989 1.989 0 0 0-.603 1.46zm5.844 6.875V5.53H1.22v4.813H8.78z"/>
        </symbol>
        <symbol id="tap-arrow-right" viewBox="0 0 12 12">
            <path d="M5.535.59a.371.371 0 0 1 .229-.076c.084 0 .152.025.203.076l5.306 5.332c.068.05.102.118.102.203a.241.241 0 0 1-.102.203L5.967 11.66a.275.275 0 0 1-.203.076.371.371 0 0 1-.229-.076l-.508-.508a.275.275 0 0 1-.076-.203c0-.084.026-.16.076-.228l3.936-3.936H.305a.294.294 0 0 1-.216-.089A.294.294 0 0 1 0 6.48v-.71c0-.085.03-.157.089-.216a.294.294 0 0 1 .216-.09h8.658L5.027 1.53a.371.371 0 0 1-.076-.228c0-.085.026-.153.076-.203L5.535.59z"/>
        </symbol>
        <symbol id="tap-oval" viewBox="0 0 300 300">
            <path d="M150,0C67.29,0,0,67.29,0,150s67.29,150,150,150s150-67.29,150-150S232.71,0,150,0z M150,270c-66.169,0-120-53.832-120-120  S83.831,30,150,30s120,53.832,120,120S216.168,270,150,270z"/>
        </symbol>
        <symbol id="tap-oval-filled" viewBox="0 0 20 20">
            <g fill-rule="evenodd">
                <circle cx="10" cy="10" r="5"/>
                <circle opacity=".154" cx="10" cy="10" r="10"/>
            </g>
        </symbol>
        <symbol id="tap-filled-check" viewBox="0 0 30 30">
            <g fill="none" fill-rule="evenodd">
                <circle fill="currentColor" cx="15" cy="15" r="15"/>
                <path d="M13.418 19.771a.58.58 0 0 0 .457.204.58.58 0 0 0 .457-.204l7.49-7.464A.619.619 0 0 0 22 11.85a.619.619 0 0 0-.178-.457l-.94-.914a.566.566 0 0 0-.444-.204.645.645 0 0 0-.47.204l-6.093 6.093-2.844-2.843a.645.645 0 0 0-.47-.204.566.566 0 0 0-.444.204l-.94.914A.619.619 0 0 0 9 15.1c0 .186.06.338.178.457l4.24 4.214z" fill="#FFF" fill-rule="nonzero"/>
            </g>
        </symbol>
    </defs>
</svg>
