<svg style="position: absolute; width: 0; height: 0; overflow: hidden;" version="1.1"
     xmlns="http://www.w3.org/2000/svg" id="tva-automator-icons">
    <defs>
        <symbol id="tap-enroll-course" viewBox="0 0 27 30">
            <path
                    d="M20.86 9.375h-9.844c-.387 0-.704-.316-.704-.703v-.469c0-.387.317-.703.704-.703h9.843c.387 0 .703.316.703.703v.469c0 .387-.316.703-.703.703zm.703 3.047v-.469c0-.387-.317-.703-.704-.703h-9.843c-.387 0-.704.316-.704.703v.469c0 .387.317.703.704.703h9.843c.387 0 .703-.316.703-.703zm3.79 15.703h.194c.387 0 .703.316.703.703v.469c0 .387-.316.703-.703.703H4.687C2.098 30 0 27.902 0 25.312V4.688C0 2.098 2.098 0 4.688 0h20.156c.779 0 1.406.627 1.406 1.406V22.97c0 .586-.363 1.09-.873 1.3-.211.944-.258 2.672-.023 3.856zM7.5 22.5h16.875V1.875H7.5V22.5zm-5.625.938c.785-.586 1.758-.938 2.813-.938h.937V1.875h-.938c-1.552 0-2.812 1.26-2.812 2.813v18.75zm21.814 4.687c-.181-1.195-.17-2.648 0-3.75H4.687c-3.75 0-3.75 3.75 0 3.75H23.69z"
                    transform="translate(-651 -323) translate(651 323)"/>
        </symbol>
        <symbol id="tap-remove-course" viewBox="0 0 29 28">
            <path d="M23.188 0c.727 0 1.312.585 1.312 1.313V3h-1.75V1.75H7V21h15.75v-1.325h1.75v1.762c0 .547-.34 1.018-.815 1.215-.197.88-.24 2.493-.022 3.598h.18c.362 0 .657.295.657.656v.438c0 .36-.295.656-.656.656H4.375C1.958 28 0 26.042 0 23.625V4.375C0 1.958 1.958 0 4.375 0h18.813zM22.11 22.75H4.375c-3.5 0-3.5 3.5 0 3.5H22.11c-.17-1.116-.158-2.472 0-3.5zm-16.86-21h-.875c-1.45 0-2.625 1.176-2.625 2.625v17.5C2.483 21.328 3.39 21 4.375 21h.875V1.75z"
                  transform="translate(-60.000000, -782.000000) translate(33.000000, 737.000000) translate(27.000000, 45.000000)"/>
            <path d="M11.58.165l-.332.331c-.22.22-.22.576 0 .796l3.934 3.911H.562c-.31 0-.562.252-.562.563v.468c0 .311.252.563.563.563h14.62l-3.935 3.911c-.22.22-.22.576 0 .796l.332.331c.22.22.575.22.795 0l5.46-5.437c.22-.22.22-.576 0-.796L12.375.165c-.22-.22-.576-.22-.795 0z" transform="translate(-60.000000, -782.000000) translate(33.000000, 737.000000) translate(27.000000, 45.000000) translate(11.000000, 5.000000)"/>
        </symbol>
        <symbol id="tap-apprentice-logo" viewBox="0 0 21 19">
            <defs>
                <path id="lroj72ai4a" d="M0.284 0.562L10.622 0.562 10.622 7.555 0.284 7.555z"/>
                <path id="04huvw8fcc" d="M0 0L21.111 0 21.111 18.889 0 18.889z"/>
            </defs>
            <g fill="none" fill-rule="evenodd">
                <g>
                    <g>
                        <g>
                            <g>
                                <g transform="translate(-538 -132) translate(538 108) translate(0 24) translate(10.302 11.323)">
                                    <mask id="1nqnc9olub" fill="#fff">
                                        <use xlink:href="#lroj72ai4a"/>
                                    </mask>
                                    <path fill="#4F9542"
                                          d="M9.453.562c-.68 0-2.104.257-2.664.369-.532.106-1.23.253-1.747.455-.4.156-.777.309-1.16.5-.357.18-.704.387-1.028.621l-.318.235c-.057.042-.097.08-.153.125-.053.04-.1.09-.15.127-.111.084-.204.208-.31.29-.106.083-.468.494-.56.62l-.34.478C.695 4.88.44 5.473.344 6.062c-.035.215-.032.329-.057.496l-.003.025v.26c.022.316.107.682.108.712h.024c.019-.223.358-1.018.442-1.184l.21-.392c.126-.211.26-.419.408-.614.097-.132.2-.265.316-.383.026-.027.026-.032.048-.06.12-.144.277-.275.409-.409l.44-.378.054-.041.777-.547c.235-.14.458-.292.695-.425.213-.119.538-.29.744-.374l.56-.248c.29-.115.583-.25.88-.348l.605-.213.306-.102c.091-.03.219-.088.315-.095l-.667.308c-.228.093-.642.31-.882.43l-.642.345c-.203.12-.418.238-.615.37l-.591.409c-.036.027-.053.043-.088.069-.02.015-.029.02-.047.035l-.13.112c-.023.02-.026.017-.048.037-.017.015-.026.025-.042.043l-.56.583-.62.859-.248.415c-.022.037-.036.066-.056.1-.123.214-.234.436-.336.663l-.048.12c.166.04 1.087.029 1.308-.003l.413-.044c.674-.073 1.453-.26 2.045-.556l.085-.035.073-.036c.03-.015.042-.026.075-.044l.148-.08c.1-.054.19-.116.281-.177.108-.071.22-.151.316-.237.14-.125.288-.257.406-.403.017-.022.032-.033.05-.056.19-.235.344-.491.511-.741.246-.368.476-.743.675-1.142.43-.86.55-.97 1.09-1.642.02-.028.022-.033.049-.06l.287-.277c.118-.104.272-.211.42-.266.134-.05.202-.074.385-.074-.128-.19-.672-.204-1.024-.205H9.453z"
                                          mask="url(#1nqnc9olub)"/>
                                </g>
                                <g>
                                    <g transform="translate(-538 -132) translate(538 108) translate(0 24) translate(0 .08) translate(0 .118)">
                                        <mask id="oje207toud" fill="#fff">
                                            <use xlink:href="#04huvw8fcc"/>
                                        </mask>
                                        <path fill="#434242"
                                              d="M7.693 6.584c0 .314-.356.49-.61.306-2.385-1.742-4.368-2.08-5.14-2.144-.196-.016-.345-.183-.345-.38V3.081c0-.223.191-.403.414-.383 3.161.296 5.075 1.869 5.559 2.314.08.073.122.174.122.282v1.29zm-.028 3.506c0 .312-.356.49-.609.305-2.385-1.742-4.369-2.08-5.14-2.144-.197-.016-.347-.183-.347-.38V6.586c0-.223.192-.403.415-.383 3.162.296 5.074 1.869 5.56 2.315.078.073.12.173.12.28v1.292zm11.459-1.398V.383c0-.226-.193-.404-.418-.381-1.433.14-6.208.834-8.85 3.97-.156.184-.432.184-.588 0C6.626.836 1.85.142.418.002.192-.021 0 .157 0 .383v9.673c0 .197.152.362.349.38 1.343.125 6.233.79 8.919 3.977.156.184.432.184.587 0 .032-.038.066-.074.099-.112.284-1.054 1.843-5.037 9.17-5.61z"
                                              mask="url(#oje207toud)"/>
                                    </g>
                                </g>
                            </g>
                        </g>
                    </g>
                </g>
            </g>
        </symbol>
        <symbol id="tap-product-enroll" viewBox="0 0 30 30">
            <g fill="#A365A4" fill-rule="nonzero">
                <path d="M18.226 0c.91 0 1.72.546 2.065 1.372l.059.159 2.182 6.545a10.42 10.42 0 0 0-1.985-.65l-1.788-5.364a.562.562 0 0 0-.533-.382H12.18v7.07h.575a10.549 10.549 0 0 0-2.07 1.68H1.68v10.01c0 .24.153.445.365.525l.083.024.112.011h6.076c.195.585.44 1.147.729 1.68H2.24A2.24 2.24 0 0 1 .006 20.6L0 20.44V8.881c0-.177.022-.355.066-.532l.05-.177L2.33 1.531A2.234 2.234 0 0 1 4.285.006L4.454 0h13.772zM10.5 1.68H4.454a.562.562 0 0 0-.497.3l-.035.081-2.213 6.637-.012.052H10.5V1.68z"/>
                <path d="M18.2 7c6.186 0 11.2 5.014 11.2 11.2 0 6.186-5.014 11.2-11.2 11.2C12.014 29.4 7 24.386 7 18.2 7 12.014 12.014 7 18.2 7zm0 1.66a9.54 9.54 0 1 0 0 19.08 9.54 9.54 0 0 0 0-19.08z"/>
                <path d="M18.2 11.83c.458 0 .84.33.918.766l.015.167v10.934a.933.933 0 0 1-1.851.168l-.015-.168V12.763c0-.515.418-.933.933-.933z"/>
                <path d="M11.81 18.2c0-.458.33-.84.766-.918l.168-.015H23.73a.933.933 0 0 1 .168 1.851l-.168.015H12.744a.933.933 0 0 1-.934-.933z"/>
            </g>
        </symbol>
        <symbol id="tap-unlock-content-user" viewBox="0 0 27 28">
            <g fill="#A365A4" fill-rule="nonzero">
                <path d="M11.9 0c3.814 0 6.9 3.086 6.9 6.9 0 3.814-3.086 6.9-6.9 6.9A6.896 6.896 0 0 1 5 6.9C5 3.086 8.086 0 11.9 0zm0 1.8a5.107 5.107 0 0 0-5.1 5.1c0 2.811 2.289 5.1 5.1 5.1 2.811 0 5.1-2.289 5.1-5.1 0-2.811-2.289-5.1-5.1-5.1zM6.894 15.25c.695 0 1.179.067 1.865.24l.494.132c1.013.274 1.63.378 2.647.378.904 0 1.492-.082 2.323-.293l.51-.136c.14-.038.27-.072.394-.102l-.002 1.857-.38.102a9.955 9.955 0 0 1-2.845.372c-1.005 0-1.709-.09-2.531-.291l-.94-.248c-.568-.145-1.007-.211-1.542-.211-1.737 0-3.307.784-4.189 2.094A5.293 5.293 0 0 0 1.8 22.1v2.8c0 .605.495 1.1 1.1 1.1l9.635-.001v.107c0 .714.374 1.34.936 1.694H2.9A2.9 2.9 0 0 1 0 24.9v-2.8c0-1.433.424-2.8 1.208-3.963 1.235-1.831 3.37-2.887 5.686-2.887z"/>
                <path d="M21.706 12.3c1.305 0 2.373 1.029 2.456 2.33l.006.164v1.557H22.32v-1.557a.623.623 0 0 0-.4-.585l-.09-.026-.125-.013H18.63a.618.618 0 0 0-.608.531l-.007.093-.001 3.477h6.538c1.111 0 2.033.736 2.115 1.686l.005.137v5.898c0 .969-.87 1.748-1.963 1.817l-.157.005h-8.73c-1.112 0-2.034-.736-2.115-1.685l-.006-.137v-5.898c0-.969.871-1.749 1.963-1.818l.158-.005h.346v-3.477c0-1.323 1.016-2.404 2.3-2.489l.162-.005h3.077zm3.033 7.915h-9.143l-.1.1v5.714l.1.1h9.143l.1-.1v-5.714l-.1-.1zm-4.553 1.623a.7.7 0 0 1 .693.605l.007.095v1.558a.7.7 0 0 1-1.394.095l-.006-.095v-1.558a.7.7 0 0 1 .7-.7z"/>
            </g>
        </symbol>
        <symbol id="tap-unlock-content" viewBox="0 0 28 27">
            <g fill-rule="nonzero" fill="none">
                <path d="M15.571 8c2.155 0 3.916 1.54 4.024 3.482l.005.19-.002.302c.303-.088.622-.145.951-.165l.28-.009h3.142c2.155 0 3.916 1.54 4.024 3.482l.005.19v4.522c0 .674-.562 1.224-1.276 1.286l-.135.006-.554-.001v4.186c0 .754-.591 1.376-1.37 1.504l-.149.019-.152.006H21v-1.6h3.65v-5.5h1.75v-4.059c0-1.357-1.173-2.441-2.6-2.441H21c-.514 0-.995.14-1.4.384l-.001.115h-1.6L18 12.041c0-1.357-1.173-2.441-2.6-2.441h-2.8c-1.427 0-2.6 1.084-2.6 2.441L9.999 13.9h-1.6v-.115A2.714 2.714 0 0 0 7 13.4H4.2c-1.427 0-2.6 1.084-2.6 2.441V19.9h1.75v5.5H7V27H3.636c-.871 0-1.588-.607-1.665-1.389l-.007-.14v-4.186h-.553c-.687 0-1.26-.448-1.386-1.045l-.019-.122L0 19.994V15.47c0-1.967 1.694-3.568 3.821-3.666l.208-.005H7.17c.429 0 .841.06 1.229.174v-.303c0-1.967 1.694-3.568 3.821-3.666L12.43 8h3.142zM5.6 3.8c1.989 0 3.6 1.611 3.6 3.6S7.589 11 5.6 11A3.599 3.599 0 0 1 2 7.4c0-1.989 1.611-3.6 3.6-3.6zm16.8 0c1.989 0 3.6 1.611 3.6 3.6S24.389 11 22.4 11a3.599 3.599 0 0 1-3.6-3.6c0-1.989 1.611-3.6 3.6-3.6zM5.6 5.35a2.05 2.05 0 1 0 0 4.1 2.05 2.05 0 0 0 0-4.1zm16.8 0a2.05 2.05 0 1 0 0 4.1 2.05 2.05 0 0 0 0-4.1zM14 0c1.989 0 3.6 1.611 3.6 3.6S15.989 7.2 14 7.2a3.599 3.599 0 0 1-3.6-3.6C10.4 1.611 12.011 0 14 0zm0 1.55a2.05 2.05 0 1 0 0 4.1 2.05 2.05 0 0 0 0-4.1z"
                      fill="#A365A4"/>
                <path d="M15.346 13.5c1.19 0 2.154.977 2.154 2.182v1.363h-1.616v-1.363a.546.546 0 0 0-.34-.508l-.09-.027-.108-.01h-2.692a.542.542 0 0 0-.539.545v3.273l2.385-.001v.003l3-.001v1.319h-7v-4.593c0-1.205.964-2.182 2.154-2.182z" fill="#A365A4"/>
                <path d="M17.835 18.8h-7.639c-.98 0-1.78.676-1.78 1.52v5.16c0 .844.8 1.52 1.78 1.52h7.64c.98 0 1.78-.676 1.78-1.52v-5.16c0-.844-.8-1.52-1.78-1.52z" fill="#A365A4"/>
                <path fill="#FFF" d="M18 20.413h-8l-.1.1v5l.1.1h8l.1-.1v-5z"/>
                <path d="M14.016 21.708a.75.75 0 0 1 .743.648l.007.102v1.364a.75.75 0 0 1-1.493.102l-.007-.102v-1.364a.75.75 0 0 1 .75-.75z" fill="#A365A4"/>
            </g>
        </symbol>
        <symbol id="tap-remove-product" viewBox="0 0 30 30">
            <g fill="#A365A4" fill-rule="nonzero">
                <path d="M18.226 0c.91 0 1.72.546 2.065 1.372l.059.159 2.182 6.545a10.42 10.42 0 0 0-1.985-.65l-1.788-5.364a.562.562 0 0 0-.533-.382H12.18v7.07h.575a10.549 10.549 0 0 0-2.07 1.68H1.68v10.01c0 .24.153.445.365.525l.083.024.112.011h6.076c.195.585.44 1.147.729 1.68H2.24A2.24 2.24 0 0 1 .006 20.6L0 20.44V8.881c0-.177.022-.355.066-.532l.05-.177L2.33 1.531A2.234 2.234 0 0 1 4.285.006L4.454 0h13.772zM10.5 1.68H4.454a.562.562 0 0 0-.497.3l-.035.081-2.213 6.637-.012.052H10.5V1.68z"/>
                <path d="M18.2 7c6.186 0 11.2 5.014 11.2 11.2 0 6.186-5.014 11.2-11.2 11.2C12.014 29.4 7 24.386 7 18.2 7 12.014 12.014 7 18.2 7zm0 1.66a9.54 9.54 0 1 0 0 19.08 9.54 9.54 0 0 0 0-19.08z"/>
                <path d="M11.81 18.2c0-.458.33-.84.766-.918l.168-.015H23.73a.933.933 0 0 1 .168 1.851l-.168.015H12.744a.933.933 0 0 1-.934-.933z"/>
            </g>
        </symbol>
    </defs>
</svg>
