<?xml version="1.0" encoding="UTF-8"?>
<svg width="24px" height="24px" viewBox="0 0 24 24" version="1.1" xmlns="http://www.w3.org/2000/svg" xmlns:xlink="http://www.w3.org/1999/xlink">
    <title>ic_format_align_left</title>
    <defs>
        <filter id="filter-1">
            <feColorMatrix in="SourceGraphic" type="matrix" values="0 0 0 0 0.525490 0 0 0 0 0.525490 0 0 0 0 0.525490 0 0 0 1.000000 0"></feColorMatrix>
        </filter>
    </defs>
    <g id="Page-1" stroke="none" stroke-width="1" fill="none" fill-rule="evenodd">
        <g id="ic_format_align_left" transform="translate(-127.000000, -396.000000)" filter="url(#filter-1)">
            <g transform="translate(127.000000, 396.000000)" id="Icon-24px">
                <path d="M15,15 L3,15 L3,17 L15,17 L15,15 L15,15 Z M15,7 L3,7 L3,9 L15,9 L15,7 L15,7 Z M3,13 L21,13 L21,11 L3,11 L3,13 L3,13 Z M3,21 L21,21 L21,19 L3,19 L3,21 L3,21 Z M3,3 L3,5 L21,5 L21,3 L3,3 L3,3 Z" id="Shape" fill="#000000"></path>
                <polygon id="Shape" points="0 0 24 0 24 24 0 24"></polygon>
            </g>
        </g>
    </g>
</svg>