<svg viewBox="0 0 45 51" version="1.1" xmlns="http://www.w3.org/2000/svg" xmlns:xlink="http://www.w3.org/1999/xlink" id="el_GNkiBaE3U0l">
    <style>@-webkit-keyframes el_0kCdDtxJSnz_Animation{75%{opacity: 1;}0%{opacity: 1;}100%{opacity: 1;}}@keyframes el_0kCdDtxJSnz_Animation{75%{opacity: 1;}0%{opacity: 1;}100%{opacity: 1;}}@-webkit-keyframes el_VVl40MBsdRZ_Animation{40%{opacity: 1;}60%{opacity: 0.5;}80%{opacity: 1;}0%{opacity: 1;}100%{opacity: 1;}}@keyframes el_VVl40MBsdRZ_Animation{40%{opacity: 1;}60%{opacity: 0.5;}80%{opacity: 1;}0%{opacity: 1;}100%{opacity: 1;}}@-webkit-keyframes el_760g2LyhhAi_Animation{20%{opacity: 1;}40%{opacity: 0.5;}60%{opacity: 1;}0%{opacity: 1;}100%{opacity: 1;}}@keyframes el_760g2LyhhAi_Animation{20%{opacity: 1;}40%{opacity: 0.5;}60%{opacity: 1;}0%{opacity: 1;}100%{opacity: 1;}}@-webkit-keyframes el_oZMCWC0vP1a_Animation{0%{opacity: 1;}20%{opacity: 0.5;}40%{opacity: 1;}100%{opacity: 1;}}@keyframes el_oZMCWC0vP1a_Animation{0%{opacity: 1;}20%{opacity: 0.5;}40%{opacity: 1;}100%{opacity: 1;}}#el_GNkiBaE3U0l *{-webkit-animation-duration: 2s;animation-duration:
        2s;-webkit-animation-iteration-count: infinite;animation-iteration-count: infinite;-webkit-animation-timing-function: cubic-bezier(0, 0, 1, 1);animation-timing-function: cubic-bezier(0, 0, 1, 1);}#el_BV_o8S31nEO{stroke: none;stroke-width: 1;fill: none;}#el_kq0V4vnapm4{-webkit-transform: translate(-796px, -383px);transform: translate(-796px, -383px);fill: #B3BCBC;}#el_wDduJrPXUC3{-webkit-transform: translate(796px, 383px);transform: translate(796px, 383px);}#el_oZMCWC0vP1a{-webkit-animation-name: el_oZMCWC0vP1a_Animation;animation-name: el_oZMCWC0vP1a_Animation;}#el_760g2LyhhAi{-webkit-animation-name: el_760g2LyhhAi_Animation;animation-name: el_760g2LyhhAi_Animation;}#el_VVl40MBsdRZ{-webkit-animation-name: el_VVl40MBsdRZ_Animation;animation-name: el_VVl40MBsdRZ_Animation;}#el_0kCdDtxJSnz{-webkit-animation-name: el_0kCdDtxJSnz_Animation;animation-name: el_0kCdDtxJSnz_Animation;}
    </style>
    <!-- Generator: Sketch 51 (57462) - http://www.bohemiancoding.com/sketch -->
    <title>Logo-ThriveThemeBuilder@1x</title>
    <desc>Created with Sketch.</desc>
    <defs/>
    <g id="el_BV_o8S31nEO" fill-rule="evenodd">
        <g id="el_kq0V4vnapm4" fill-rule="nonzero">
            <g id="el_wDduJrPXUC3">
                <path d="M13.620283,27.4310595 L13.620283,36.2481858 C14.5931604,35.2685051 15.9551887,34.0928882 17.5117925,33.1132075 L17.5117925,31.3497823 L20.0412736,31.3497823 C24.1273585,28.6066763 27.4351415,27.8229318 28.9917453,27.4310595 L13.620283,27.4310595 Z" id="el_VVl40MBsdRZ"/>
                <path d="M38.9150943,3.91872279 L38.9150943,7.83744557 L3.89150943,7.83744557 L3.89150943,3.91872279 L38.9150943,3.91872279 Z M42.8066038,0 L0,0 L0,11.7561684 L42.8066038,11.7561684 L42.8066038,0 Z" id="el_oZMCWC0vP1a"/>
                <path d="M25.2948113,17.6342525 L25.2948113,21.5529753 L17.5117925,21.5529753 L17.5117925,17.6342525 L25.2948113,17.6342525 Z M29.1863208,13.7155298 L13.620283,13.7155298 L13.620283,25.4716981 L29.1863208,25.4716981 L29.1863208,13.7155298 Z" id="el_760g2LyhhAi"/>
                <path d="M10.7016509,50.7474601 C10.7016509,50.7474601 9.33962264,47.4165457 11.6745283,41.9303338 C14.009434,36.4441219 20.625,31.7416546 26.2676887,29.9782293 C31.9103774,28.2148041 36.9693396,27.6269956 39.3042453,27.2351234 C41.6391509,26.8432511 43.1957547,27.2351234 43.7794811,27.2351234 C44.3632075,27.2351234 44.946934,27.8229318 44.946934,27.8229318 C44.946934,27.8229318 43.3903302,27.8229318 42.6120283,28.6066763 C41.8337264,29.3904209 39.1096698,32.329463 38.5259434,33.8969521 C37.942217,35.4644412 35.0235849,40.1669086 33.0778302,42.3222061 C31.1320755,44.4775036 28.9917453,46.0449927 24.1273585,47.2206096 C19.2629717,48.3962264 15.9551887,47.6124819 15.9551887,47.6124819 C15.9551887,47.6124819 18.6792453,41.3425254 23.1544811,37.8156749 C27.4351415,34.4847605 34.634434,31.3497823 34.634434,31.3497823 C34.634434,31.3497823 27.240566,33.701016 23.1544811,36.0522496 C18.8738208,38.4034833 15.5660377,40.9506531 13.0365566,45.065312 C10.5070755,49.179971 10.7016509,50.7474601 10.7016509,50.7474601 Z"
                      id="el_0kCdDtxJSnz"/>
            </g>
        </g>
    </g>
    <script>(function(){var a=document.querySelector('#el_GNkiBaE3U0l'),b=a.querySelectorAll('style'),c=function(d){b.forEach(function(f){var g=f.textContent;g&amp;&amp;(f.textContent=g.replace(/transform-box:[^;\r\n]*/gi,'transform-box: '+d))})};c('initial'),window.requestAnimationFrame(function(){return c('fill-box')})})();</script>
</svg>
