<svg xmlns="http://www.w3.org/2000/svg" width="256" height="256" xmlns:v="https://vecta.io/nano"><path d="M0 0h256v256H0V0z" fill="#047aed"/><path d="M140.135 157.59a44.58 44.58 0 0 0 12.038 38.924H40.5V157.59h99.635zm-34.119 10.926h-8.248l-6.828 17.073h8.249l6.827-17.073zm-26.739 0h-8.248L64.2 185.589h8.248l6.829-17.073zm-13.37 0h-8.249l-6.829 17.073h8.249l6.829-17.073zm26.74 0h-8.249l-6.828 17.073h8.248l6.829-17.073zm26.741 0h-8.248l-6.829 17.073h8.247l6.83-17.073zm0-49.1l-6.83 17.072h-8.247l6.829-17.072h8.248zm-26.741 0l-6.829 17.072H77.57l6.828-17.072h8.249zm-26.74 0l-6.829 17.072h-8.249l6.829-17.072h8.249zm13.37 0l-6.829 17.072H64.2l6.829-17.072h8.248zm26.739 0l-6.827 17.072H90.94l6.828-17.072h8.248zm89.779-10.926H40.5v38.924h102.716c8.843-20.126 31.104-31.031 52.579-25.234v-13.69zm-11.64 25.496c17.311 0 31.345 14.034 31.345 31.345s-14.034 31.345-31.345 31.345-31.345-14.034-31.345-31.345 14.033-31.345 31.345-31.345zm9.552 9.158l-24.713 30.019 15.734-4.644-7.944 18.679 25.109-31.669-15.659 4.556 7.473-16.941zm-16.349-70.06c3.15 0 5.703 2.552 5.703 5.701s-2.553 5.702-5.703 5.702-5.702-2.553-5.702-5.702 2.554-5.701 5.702-5.701zm-71.342-2.835l-6.827 17.073H90.94l6.828-17.073h8.248zm-26.739 0l-6.829 17.073H64.2l6.829-17.073h8.248zm-13.37 0l-6.829 17.073h-8.249l6.829-17.073h8.249zm26.74 0l-6.829 17.073H77.57l6.828-17.073h8.249zm26.741 0l-6.83 17.073h-8.247l6.829-17.073h8.248zm76.407-10.925H40.5v38.924h155.295V59.324z" fill="#fff"/></svg>