<?xml version="1.0" encoding="utf-8"?>
<!-- Generator: Adobe Illustrator 24.1.1, SVG Export Plug-In . SVG Version: 6.00 Build 0)  -->
<svg version="1.1" id="Livello_1" xmlns="http://www.w3.org/2000/svg" xmlns:xlink="http://www.w3.org/1999/xlink" x="0px" y="0px"
	 viewBox="0 0 16 16" style="enable-background:new 0 0 16 16;" xml:space="preserve">
<style type="text/css">
	.st0{fill:#7FC241;}
</style>
<g>
	<path class="st0" d="M8,1.9c-0.2,0-0.5,0-0.7,0c-0.1,0-0.1,0-0.2,0C6.9,2,6.7,2,6.6,2.1c-0.1,0-0.1,0-0.2,0.1c-0.2,0-0.4,0-0.6,0.1
		H5.7C5.5,2.4,5.3,2.5,5.1,2.6h4.5L9.3,4.1H5.8L5.3,6.2H8L7.6,7.6H5l-0.8,3.9H3l0,0c0.9,1.2,2.2,2.1,3.7,2.5l0,0l1.6-7.8h2.3
		c0.8,0,1.4,0.2,1.8,0.7c0.4,0.5,0.5,1.3,0.3,2.2c-0.4,1.8-1.7,2.7-3.6,2.7H8.8L8.3,14c0.8,0,1.6-0.2,2.3-0.6l0,0
		c0.2-0.1,0.3-0.2,0.5-0.3l0,0c0.2-0.1,0.3-0.2,0.5-0.3l0,0c0.1-0.1,0.3-0.2,0.4-0.3c0,0,0,0,0.1-0.1s0.2-0.2,0.3-0.3l0.1-0.1
		c0.1-0.1,0.2-0.2,0.3-0.3l0.1-0.1c0.1-0.1,0.2-0.2,0.2-0.3s0.1-0.1,0.1-0.2c0.1-0.1,0.1-0.2,0.2-0.3c0-0.1,0.1-0.1,0.1-0.2
		c0.1-0.1,0.1-0.2,0.1-0.3s0.1-0.2,0.1-0.3s0.1-0.2,0.1-0.3s0.1-0.2,0.1-0.3s0-0.2,0.1-0.3c0-0.1,0-0.2,0.1-0.4c0-0.1,0-0.1,0-0.2
		c0-0.2,0-0.4,0-0.6C14.1,4.6,11.4,1.9,8,1.9z"/>
	<path class="st0" d="M4.4,3.1C3.6,3.6,3,4.4,2.6,5.2v0.1C2.4,5.4,2.4,5.6,2.3,5.8c0,0.1,0,0.1-0.1,0.2c0,0.1-0.1,0.3-0.1,0.4
		s0,0.1-0.1,0.2c0,0.2,0,0.3,0,0.5c0,0.1,0,0.1,0,0.2C2,7.5,2,7.8,2,8c0,0.3,0,0.5,0,0.7c0,0.1,0,0.1,0,0.2c0,0.2,0,0.4,0.1,0.6
		c0,0.1,0,0.1,0,0.2c0.1,0.5,0.3,0.9,0.6,1.4L4.4,3.1L4.4,3.1z"/>
	<path class="st0" d="M11.2,9L11.2,9c0.1-0.5,0.1-0.9-0.1-1.1c-0.1-0.2-0.4-0.2-0.8-0.2H9.7l-0.6,2.8h0.5C10.4,10.5,11,9.9,11.2,9z"
		/>
	<path class="st0" d="M8,0C3.6,0,0,3.6,0,8s3.6,8,8,8s8-3.6,8-8S12.4,0,8,0z M8,15.1c-3.9,0-7.1-3.2-7.1-7.1S4.1,0.9,8,0.9
		s7.1,3.2,7.1,7.1S11.9,15.1,8,15.1z"/>
</g>
</svg>
