<?xml version="1.0" encoding="utf-8"?>
<!-- Generator: Adobe Illustrator 24.1.1, SVG Export Plug-In . SVG Version: 6.00 Build 0)  -->
<svg version="1.1" id="Livello_1" xmlns="http://www.w3.org/2000/svg" xmlns:xlink="http://www.w3.org/1999/xlink" x="0px" y="0px"
	 viewBox="0 0 16 16" style="enable-background:new 0 0 16 16;" xml:space="preserve">
<style type="text/css">
	.st0{fill:#7FC241;}
</style>
<path class="st0" d="M8,0C3.6,0,0,3.1,0,7c0,2.6,1.7,4.9,4.1,6.1V16l3.8-2C8,14,8,14,8,14c4.4,0,8-3.1,8-7C15.9,3.1,12.3,0,8,0z
	 M7.8,11.4c-0.7,0-1.2-0.5-1.2-1.1c0-0.7,0.5-1.1,1.2-1.1S9,9.7,9,10.3S8.4,11.4,7.8,11.4z M9.3,6.8c-0.5,0.5-0.7,1-0.7,1.6v0.2H6.9
	V8.3c0-0.6,0.2-1.3,0.8-1.9C8,5.8,8.4,5.4,8.4,5s-0.3-0.7-1-0.7c-0.4,0-1,0.1-1.3,0.4L5.7,3.3C6.2,3,7,2.8,7.9,2.8
	c1.8,0,2.6,0.9,2.6,1.9C10.4,5.6,9.8,6.3,9.3,6.8z"/>
</svg>
