<?xml version="1.0" encoding="utf-8"?>
<!-- Generator: Adobe Illustrator 24.1.1, SVG Export Plug-In . SVG Version: 6.00 Build 0)  -->
<svg version="1.1" id="Livello_1" xmlns="http://www.w3.org/2000/svg" xmlns:xlink="http://www.w3.org/1999/xlink" x="0px" y="0px"
	 viewBox="0 0 16 16" style="enable-background:new 0 0 16 16;" xml:space="preserve">
<style type="text/css">
	.st0{fill:#7FC241;}
</style>
<g>
	<path class="st0" d="M7.4,6.6c0.4-0.1,0.7-0.4,0.8-0.8c0.1-0.2,0.1-0.4,0-0.6c-0.1-0.5-0.5-0.8-1-0.8c-0.1,0-0.2,0-0.3,0
		C6.3,4.6,5.9,5.2,6,5.8C6.2,6.4,6.8,6.7,7.4,6.6z"/>
	<path class="st0" d="M16,11.5L13.2,0.1V0H13L2.9,2.4H2.8v0.1l0.7,3L0,7.9L5.6,16l4.2-2.9l6-1.4h0.1L16,11.5z M4.9,13.5L1.1,8.1
		l2.6-1.8l0.4,1.8c-0.1,0-0.3,0-0.4,0.1C3.3,8.5,3.2,9.1,3.4,9.5C3.7,9.9,4.1,10,4.5,9.9l0.6,2.5l-0.2,0.8L5.3,13l0.1,0.3L4.9,13.5z
		 M11.7,9.4l-1.3,0.3L9.6,10l-3,0.7L6,10.8L4.7,5.6L4.5,4.9L4,3.1l8.2-1.9l1.9,7.7L11.7,9.4z"/>
	<polygon class="st0" points="10,7 9.5,7.7 9.3,7.9 8.4,9.2 7.4,8.7 6.9,9.3 6.1,10.4 6.7,10.3 10.3,9.4 10.6,9.3 11.5,9.1 
		13.7,8.6 13,5.7 12.3,6.5 10.9,5.8 	"/>
</g>
</svg>
