<?xml version="1.0" encoding="utf-8"?>
<!-- Generator: Adobe Illustrator 24.1.1, SVG Export Plug-In . SVG Version: 6.00 Build 0)  -->
<svg version="1.1" id="Livello_1" xmlns="http://www.w3.org/2000/svg" xmlns:xlink="http://www.w3.org/1999/xlink" x="0px" y="0px"
	 viewBox="0 0 16 16" style="enable-background:new 0 0 16 16;" xml:space="preserve">
<style type="text/css">
	.st0{fill:#7FC241;}
</style>
<g id="XMLID_11_">
	<g id="XMLID_118_">
		<path class="st0" d="M6.5,8h-6C0.2,8,0,8.2,0,8.5v7C0,15.8,0.2,16,0.5,16h6C6.8,16,7,15.8,7,15.5v-7C7,8.2,6.8,8,6.5,8z M6,13.4
			C6,13.7,5.7,14,5.4,14H1.6C1.3,14,1,13.7,1,13.4v-2.1c0-0.3,0.3-0.6,0.6-0.6h0.9l0.1-0.3C2.7,10.2,2.9,10,3.1,10H4
			c0.2,0,0.4,0.1,0.5,0.3l0.1,0.3h0.9c0.3,0,0.6,0.3,0.6,0.6L6,13.4L6,13.4z"/>
	</g>
	<g id="XMLID_104_">
		<path class="st0" d="M3.5,11.5c-0.5,0-1,0.4-1,1c0,0.5,0.4,1,1,1c0.5,0,1-0.4,1-1S4,11.5,3.5,11.5z M3.5,13.1
			c-0.3,0-0.6-0.3-0.6-0.6s0.3-0.6,0.6-0.6s0.6,0.3,0.6,0.6S3.8,13.1,3.5,13.1z"/>
	</g>
	<g id="XMLID_86_">
		<path class="st0" d="M6.5,0h-6C0.2,0,0,0.2,0,0.5v5.1c0,0.3,0.2,0.5,0.5,0.5h6C6.8,6.1,7,5.9,7,5.6V0.5C7,0.2,6.8,0,6.5,0z
			 M3.5,5.1c-1.1,0-2-0.9-2-2s0.9-2,2-2s2,0.9,2,2S4.6,5.1,3.5,5.1z"/>
	</g>
	<g id="XMLID_8_">
		<polygon class="st0" points="3,1.6 3,4.5 3,4.5 4.5,3.1 		"/>
	</g>
	<g id="XMLID_51_">
		<path class="st0" d="M15.5,0h-6C9.2,0,9,0.2,9,0.5v7C9,7.8,9.2,8,9.5,8h6C15.8,8,16,7.8,16,7.5v-7C16,0.2,15.8,0,15.5,0z
			 M12.1,5.9c-0.2,0.2-0.5,0.3-0.8,0.3s-0.6-0.1-0.8-0.3c-0.2-0.2-0.3-0.5-0.3-0.8s0.1-0.6,0.3-0.8l1-0.9c0.2-0.2,0.5-0.3,0.8-0.3
			s0.6,0.1,0.8,0.3c0.1,0.1,0.2,0.2,0.2,0.3l-0.2,0.2C13,4,12.9,4,12.8,4c-0.1,0-0.2,0-0.2-0.1c-0.1-0.1-0.2-0.2-0.4-0.2
			s-0.4,0.1-0.4,0.2L11,4.7c-0.1,0.1-0.2,0.2-0.2,0.4c0,0.1,0.1,0.3,0.2,0.4c0.1,0.1,0.3,0.2,0.4,0.2c0.1,0,0.3-0.1,0.4-0.2L12.3,5
			c0.1,0,0.3,0,0.5,0c0.1,0,0.2,0,0.3,0L12.1,5.9z M14.6,3.7l-1,0.9c-0.2,0.2-0.5,0.3-0.8,0.3S12.2,4.8,12,4.6
			c-0.1-0.1-0.2-0.2-0.2-0.3L12,4.1C12,4,12.1,4,12.2,4c0.1,0,0.2,0,0.2,0.1c0,0,0.1,0.2,0.4,0.2c0.2,0,0.3,0,0.4-0.2
			C13.3,4,14,3.3,14,3.3c0.1-0.1,0.2-0.2,0.2-0.4c0-0.1-0.1-0.3-0.2-0.4c-0.1-0.1-0.3-0.2-0.4-0.2c-0.1,0-0.3,0.1-0.4,0.2L12.7,3
			c-0.1,0-0.3,0-0.5,0c-0.1,0-0.2,0-0.3,0l1-0.9c0.2-0.2,0.5-0.3,0.8-0.3s0.6,0.1,0.8,0.3s0.3,0.5,0.3,0.8
			C14.9,3.2,14.8,3.4,14.6,3.7z"/>
	</g>
	<g id="XMLID_12_">
		<path class="st0" d="M15.5,9.8h-6C9.2,9.8,9,10.1,9,10.3v5.1C9,15.7,9.2,16,9.5,16h6c0.3,0,0.5-0.2,0.5-0.5v-5.1
			C16,10.1,15.8,9.8,15.5,9.8z M14.2,12.8c0,0.1,0,0.1-0.1,0.2c-0.1,0.1-0.2,0.5-0.4,0.3c0-0.1,0-0.1,0.1-0.2c0.1-0.2,0.1-0.4,0-0.6
			c-0.1-0.4-0.5-0.2-0.8-0.4c0,0.8,0,0.4,0,1.2c0,0.6,0,0.8-0.2,1.1c-0.5,0.6-1.5,0.9-2,0.3c-0.1-0.1-0.2-0.3-0.1-0.5
			c0.1-0.6,1-1.1,1.7-0.7c0,0,0-1.4,0-2.6h0.5C13,11.9,14.6,11.7,14.2,12.8z"/>
	</g>
</g>
</svg>
