<?xml version="1.0" encoding="utf-8"?>
<!-- Generator: Adobe Illustrator 24.1.1, SVG Export Plug-In . SVG Version: 6.00 Build 0)  -->
<svg version="1.1" id="Livello_1" xmlns="http://www.w3.org/2000/svg" xmlns:xlink="http://www.w3.org/1999/xlink" x="0px" y="0px"
	 viewBox="0 0 16 16" style="enable-background:new 0 0 16 16;" xml:space="preserve">
<style type="text/css">
	.st0{fill:#7FC241;}
</style>
<g id="base">
	<g>
		<g>
			<path class="st0" d="M6.2,14.7v0.4H6H4.5H3H1.5H0.9v-0.2v-0.5v-0.5v-0.5v-0.5v-0.5v-0.5v-0.5v-0.5v-0.5V9.9V9.4V8.9V8.5h0.2h0.7
				c0-0.2,0-0.4,0-0.6c0-0.1,0-0.2,0-0.3H0.5C0.2,8,0,8.2,0,8.5v7C0,15.8,0.2,16,0.5,16h6C6.8,16,7,15.8,7,15.5v-1
				c-0.3,0-0.6-0.1-0.8-0.2V14.7z"/>
		</g>
		<g>
			<path class="st0" d="M2.1,10.8v0.4v0.4V12v0.4v0.4v0.4v0.4v0.1H3h1.4h0.5v-0.1c-1.3-0.7-2.3-2-2.9-3.4l0,0L2.1,10.8z"/>
		</g>
		<g>
			<path class="st0" d="M4.9,2.5V2.1V2H4.5h-1H2.4H2.1l0,0v0.3v0.3V3v0.3v0.3V4v0.1h0.4h0.8c0.5-0.5,1-1,1.7-1.3l0,0L4.9,2.5
				L4.9,2.5z"/>
		</g>
		<g>
			<path class="st0" d="M2.3,5.3H1.1H0.8l0,0V4.9V4.5V4.1V3.7V3.4V3V2.6V2.2V1.9V1.5V1.1V0.8H1h1.2h1.2h1.2h1.2h0.3v0.1v0.4v0.4V2
				v0.3C6.4,2.2,6.7,2.1,7,2.1V0.5C7,0.2,6.8,0,6.5,0h-6C0.2,0,0,0.2,0,0.5v5.1c0,0.3,0.2,0.5,0.5,0.5h1.6C2.2,5.8,2.3,5.6,2.3,5.3
				C2.4,5.3,2.3,5.3,2.3,5.3z"/>
		</g>
		<g>
			<path class="st0" d="M13.9,5.6V5.2V4.8V4.4V4V3.6V3.2V2.8V2.4V2.3H13h-1.3h-0.6v0.3V3c1.2,0.7,2.2,1.8,2.7,3.1h0.1V5.6z"/>
		</g>
		<g>
			<path class="st0" d="M16,7.5v-7C16,0.2,15.8,0,15.5,0h-6C9.2,0,9,0.2,9,0.5v1.6c0.3,0,0.6,0.1,0.8,0.2V2.2V1.7V1.2V0.8h0.3h1.5
				h1.5h1.5h0.6V1v0.5V2v0.5V3v0.5V4v0.5V5v0.5V6v0.5V7v0.4H15h-0.8c0,0.3,0.1,0.5,0.1,0.8h1.2C15.8,8,16,7.8,16,7.5z"/>
		</g>
		<g>
			<path class="st0" d="M14.9,10.6h0.3v0.1v0.4v0.4v0.4v0.4v0.4V13v0.4v0.4v0.4v0.4V15v0.3H15h-1.2h-1.2h-1.2h-1.2H9.8v-0.1v-0.4
				v-0.4l0,0c-0.3,0.1-0.5,0.1-0.8,0.2v1C9,15.7,9.2,16,9.5,16h6c0.3,0,0.5-0.2,0.5-0.5v-5.1c0-0.3-0.2-0.5-0.5-0.5h-1.4
				c-0.1,0.3-0.2,0.5-0.3,0.8L14.9,10.6L14.9,10.6z"/>
		</g>
		<g>
			<path class="st0" d="M11.1,14h0.4h1.1h1.1H14v-0.3v-0.3V13v-0.3v-0.3V12v-0.1h-0.4h-0.4c-0.5,0.8-1.3,1.5-2.1,1.9v0.1
				C11.1,13.9,11.1,14,11.1,14z"/>
		</g>
	</g>
</g>
<g>
	<g>
		<path class="st0" d="M9.4,6.6c-0.2,0-0.3,0.1-0.3,0.3c0,0.2,0.1,0.3,0.3,0.3S9.7,7,9.7,6.9C9.7,6.7,9.6,6.6,9.4,6.6z"/>
	</g>
	<g>
		<circle class="st0" cx="6.6" cy="9.7" r="0.3"/>
	</g>
	<g>
		<path class="st0" d="M8,3.3c-2.8,0-5,2.2-5,5s2.2,5,5,5s5-2.2,5-5S10.8,3.3,8,3.3z M11.1,9.9c0,0.2-0.1,0.3-0.3,0.3H7.5
			c-0.2,0.3-0.5,0.6-0.9,0.6s-0.7-0.2-0.9-0.6H5.1C5,10.1,4.9,10,4.9,9.9V9.6c0-0.2,0.1-0.3,0.3-0.3h0.5C5.9,9,6.2,8.7,6.6,8.7
			s0.7,0.2,0.9,0.6h3.4c0.2,0,0.3,0.1,0.3,0.3v0.3H11.1z M11.1,7c0,0.2-0.1,0.3-0.3,0.3h-0.5c-0.2,0.3-0.5,0.6-0.9,0.6
			C9,7.9,8.7,7.6,8.5,7.3H5.1C5,7.3,4.9,7.2,4.9,7V6.7c0-0.2,0.1-0.3,0.3-0.3h3.4C8.7,6.1,9,5.9,9.4,5.9s0.7,0.2,0.9,0.6h0.5
			c0.2,0,0.3,0.1,0.3,0.3C11.1,6.8,11.1,7,11.1,7z"/>
	</g>
</g>
<circle class="st0" cx="9.4" cy="6.9" r="0.3"/>
<circle class="st0" cx="6.6" cy="9.7" r="0.3"/>
</svg>
