<?xml version="1.0" encoding="utf-8"?>
<!-- Generator: Adobe Illustrator 24.1.1, SVG Export Plug-In . SVG Version: 6.00 Build 0)  -->
<svg version="1.1" id="Livello_1" xmlns="http://www.w3.org/2000/svg" xmlns:xlink="http://www.w3.org/1999/xlink" x="0px" y="0px"
	 viewBox="0 0 16 16" style="enable-background:new 0 0 16 16;" xml:space="preserve">
<style type="text/css">
	.st0{fill:#7FC241;}
</style>
<g>
	<g id="Livello_9_1_">
		<g>
			<path class="st0" d="M13.1,2.8L13.1,2.8c0.3-0.5,0.3-1.1,0.1-1.6C12.8,0.4,12,0,11.1,0C9.7,0,8.5,1,8,1.5C7.5,1,6.3,0,4.9,0
				C4,0,3.2,0.4,2.9,1.2c-0.3,0.5-0.3,1.1,0,1.6l0,0l0,0L13.1,2.8L13.1,2.8z M4.7,2.4c-0.5,0-0.9-0.1-1-0.3s-0.1-0.4,0-0.6
				c0.2-0.3,0.6-0.7,1.2-0.7c0.9,0,1.7,0.6,2.2,1.1C6.5,2.1,5.5,2.4,4.7,2.4z M12.4,2.1c-0.1,0.2-0.5,0.3-1,0.3
				c-0.8,0-1.8-0.3-2.5-0.5c0.5-0.5,1.3-1.1,2.2-1.1c0.7,0,1.1,0.4,1.2,0.7C12.4,1.7,12.5,1.9,12.4,2.1z"/>
			<path class="st0" d="M15.1,3.2h-0.8h-1.2H2.9H2.2H0.9c-0.2,0-0.3,0.1-0.3,0.2v2v0.4C0.5,5.9,0.6,6,0.8,6h14.5
				c0.1,0,0.2-0.1,0.2-0.2V5.4v-2C15.5,3.3,15.3,3.2,15.1,3.2z"/>
			<path class="st0" d="M1.3,6.9v1.7v7.1c0,0.2,0.1,0.3,0.3,0.3h13c0.2,0,0.3-0.1,0.3-0.3V8.6V6.9H1.3z M7.6,11.6v3v0.1
				c0,0.1,0,0.1-0.1,0.1l0,0H4.9H4.8c-0.1,0-0.1,0-0.1-0.1v-0.1v-3v-0.1c0-0.1,0-0.1,0.1-0.1h0.1h2.6h0.1
				C7.6,11.5,7.6,11.5,7.6,11.6L7.6,11.6z M7.6,10.5C7.6,10.5,7.6,10.6,7.6,10.5l-2.8,0.1c-0.1,0-0.1,0-0.1-0.1V8.2
				c0-0.1,0-0.1,0.1-0.1h2.7c0.1,0,0.1,0,0.1,0.1V10.5z M11.5,14.7C11.5,14.7,11.5,14.8,11.5,14.7l-2.8,0.1c-0.1,0-0.1,0-0.1-0.1
				v-2.3c0-0.1,0-0.1,0.1-0.1h2.7c0.1,0,0.1,0,0.1,0.1V14.7z M11.5,8.2v3v0.1c0,0.1,0,0.1-0.1,0.1h-0.1H8.8H8.7
				c-0.1,0-0.1,0-0.1-0.1v-0.1v-3l0,0c0-0.1,0-0.1,0.1-0.1h0.1h2.6h0.1C11.5,8.1,11.5,8.1,11.5,8.2L11.5,8.2z"/>
		</g>
	</g>
</g>
</svg>
