<?xml version="1.0" encoding="utf-8"?>
<!-- Generator: Adobe Illustrator 24.1.1, SVG Export Plug-In . SVG Version: 6.00 Build 0)  -->
<svg version="1.1" id="Livello_1" xmlns="http://www.w3.org/2000/svg" xmlns:xlink="http://www.w3.org/1999/xlink" x="0px" y="0px"
	 viewBox="0 0 16 16" style="enable-background:new 0 0 16 16;" xml:space="preserve">
<style type="text/css">
	.st0{fill:#7FC241;}
</style>
<g>
	<g>
		<g>
			<path class="st0" d="M6.5,8h-6C0.2,8,0,8.2,0,8.5v7C0,15.8,0.2,16,0.5,16h6C6.8,16,7,15.8,7,15.5v-7C7,8.2,6.8,8,6.5,8z M6,15.2
				H4.5H3H1.5H0.9V15v-0.5V14v-0.5V13v-0.5V12v-0.5V11v-0.5V10V9.5V9V8.6h0.2h1.5h1.5h1.5h0.6v0.2v0.5v0.5v0.5v0.5v0.5v0.5v0.5v0.5
				v0.5v0.5v0.5v0.5v0.4H6z"/>
		</g>
		<g>
			<polygon class="st0" points="4.9,13.2 4.9,12.7 4.9,12.3 4.9,11.9 4.9,11.5 4.9,11 4.9,10.6 4.9,10.2 4.9,10.1 4,10.1 2.7,10.1 
				2.1,10.1 2.1,10.4 2.1,10.8 2.1,11.2 2.1,11.7 2.1,12.1 2.1,12.5 2.1,13 2.1,13.4 2.1,13.8 2.1,13.9 3,13.9 4.4,13.9 4.9,13.9 
				4.9,13.6 			"/>
		</g>
		<g>
			<polygon class="st0" points="3.5,2 2.4,2 2.1,2 2.1,2 2.1,2.3 2.1,2.7 2.1,3 2.1,3.3 2.1,3.7 2.1,4 2.1,4.2 2.5,4.2 3.5,4.2 
				4.6,4.2 4.9,4.2 4.9,3.8 4.9,3.5 4.9,3.1 4.9,2.8 4.9,2.5 4.9,2.1 4.9,2 4.5,2 			"/>
		</g>
		<g>
			<path class="st0" d="M6.5,0h-6C0.2,0,0,0.2,0,0.5v5.1c0,0.3,0.2,0.5,0.5,0.5h6C6.8,6.1,7,5.9,7,5.6V0.5C7,0.2,6.8,0,6.5,0z
				 M6.2,0.9v0.4v0.4V2v0.4v0.4v0.4v0.4V4v0.4v0.4V5v0.3H6H4.8H3.6H2.3H1.1H0.8l0,0V4.9V4.5V4.1V3.7V3.4V3V2.6V2.2V1.9V1.5V1.1V0.8
				H1h1.2h1.2h1.2h1.2L6.2,0.9L6.2,0.9z"/>
		</g>
		<g>
			<polygon class="st0" points="13.9,5.2 13.9,4.8 13.9,4.3 13.9,3.9 13.9,3.5 13.9,3 13.9,2.6 13.9,2.2 13.9,2.1 13,2.1 11.7,2.1 
				11.1,2.2 11.1,2.4 11.1,2.8 11.1,3.3 11.1,3.7 11.1,4.1 11.1,4.5 11.1,5 11.1,5.4 11.1,5.8 11.1,5.9 12,5.9 13.4,5.9 13.9,5.9 
				13.9,5.6 			"/>
		</g>
		<g>
			<path class="st0" d="M15.5,0h-6C9.2,0,9,0.2,9,0.5v7C9,7.8,9.2,8,9.5,8h6C15.8,8,16,7.8,16,7.5v-7C16,0.2,15.8,0,15.5,0z M15,7.2
				h-1.5H12h-1.5H9.9V7V6.5V6V5.5V5V4.5V4V3.5V3V2.5V2V1.5V1V0.6h0.3h1.5h1.5h1.5h0.6v0.2v0.5v0.5v0.5v0.5v0.5v0.5v0.5v0.5v0.5v0.5
				v0.5v0.5v0.4C15.3,7.2,15,7.2,15,7.2z"/>
		</g>
		<g>
			<path class="st0" d="M15.5,9.8h-6C9.2,9.8,9,10.1,9,10.3v5.1C9,15.7,9.2,16,9.5,16h6c0.3,0,0.5-0.2,0.5-0.5v-5.1
				C16,10.1,15.8,9.8,15.5,9.8z M15.2,10.7v0.4v0.4v0.4v0.4v0.4V13v0.4v0.4v0.4v0.4V15v0.3H15h-1.2h-1.2h-1.2h-1.2H9.8v-0.1v-0.4
				v-0.4V14v-0.4v-0.4v-0.4v-0.4V12v-0.4v-0.4v-0.4v-0.3H10h1.2h1.2h1.2h1.2L15.2,10.7L15.2,10.7z"/>
		</g>
		<g>
			<polygon class="st0" points="12.5,11.8 11.4,11.8 11.1,11.8 11.1,12.2 11.1,12.5 11.1,12.8 11.1,13.2 11.1,13.5 11.1,13.8 
				11.1,14 11.5,14 12.5,14 13.6,14 13.9,14 13.9,13.6 13.9,13.3 13.9,13 13.9,12.6 13.9,12.3 13.9,12 13.9,11.8 13.5,11.8 			"/>
		</g>
	</g>
</g>
</svg>
