<?xml version="1.0" encoding="utf-8"?>
<!-- Generator: Adobe Illustrator 24.1.1, SVG Export Plug-In . SVG Version: 6.00 Build 0)  -->
<svg version="1.1" id="Livello_1" xmlns="http://www.w3.org/2000/svg" xmlns:xlink="http://www.w3.org/1999/xlink" x="0px" y="0px"
	 viewBox="0 0 16 16" style="enable-background:new 0 0 16 16;" xml:space="preserve">
<style type="text/css">
	.st0{fill:#7FC241;}
</style>
<polygon class="st0" points="13.7,0 2.4,0 0,1.9 0.2,1.9 16,1.9 "/>
<path class="st0" d="M0,2.7V16h16V2.7H0z M8,4.1c1.4,0,2.5,1.1,2.5,2.5S9.4,9.2,8,9.2S5.5,8,5.5,6.7S6.6,4.1,8,4.1L8,4.1z
	 M11.5,14.3h-7c-0.6,0-1-0.4-1-1c0.2-1.6,1.2-3,2.7-3.7c0.3,0.7,1.1,1.2,1.9,1.1c0.8,0,1.5-0.5,1.8-1.2c1.5,0.7,2.5,2.1,2.7,3.7
	C12.4,13.8,12,14.2,11.5,14.3z"/>
</svg>
