<?xml version="1.0" encoding="utf-8"?>
<!-- Generator: Adobe Illustrator 24.1.1, SVG Export Plug-In . SVG Version: 6.00 Build 0)  -->
<svg version="1.1" id="Livello_1" xmlns="http://www.w3.org/2000/svg" xmlns:xlink="http://www.w3.org/1999/xlink" x="0px" y="0px"
	 viewBox="0 0 16 16" style="enable-background:new 0 0 16 16;" xml:space="preserve">
<style type="text/css">
	.st0{fill:#7FC241;}
</style>
<path class="st0" d="M13.1,2.8L13.1,2.8c0.3-0.5,0.3-1.1,0.1-1.6C12.8,0.4,12,0,11.1,0C9.7,0,8.5,1,8,1.5C7.5,1,6.3,0,4.9,0
	C4,0,3.2,0.4,2.9,1.2c-0.3,0.5-0.3,1.1,0,1.6l0,0l0,0L13.1,2.8L13.1,2.8z M4.7,2.4c-0.5,0-0.9-0.1-1-0.3s-0.1-0.4,0-0.6
	c0.2-0.3,0.6-0.7,1.2-0.7c0.9,0,1.7,0.6,2.2,1.1C6.5,2.1,5.5,2.4,4.7,2.4z M12.4,2.1c-0.1,0.2-0.5,0.3-1,0.3c-0.8,0-1.8-0.3-2.5-0.5
	c0.5-0.5,1.3-1.1,2.2-1.1c0.7,0,1.1,0.4,1.2,0.7C12.4,1.7,12.5,1.9,12.4,2.1z"/>
<path class="st0" d="M15.1,3.2h-0.8h-1.2H2.9H2.2H0.9c-0.2,0-0.3,0.1-0.3,0.2v2v0.4C0.5,5.9,0.6,6,0.8,6h14.5c0.1,0,0.2-0.1,0.2-0.2
	V5.4v-2C15.5,3.3,15.3,3.2,15.1,3.2z"/>
<path class="st0" d="M1.3,6.9v1.7v7.1c0,0.2,0.1,0.3,0.3,0.3h13c0.2,0,0.3-0.1,0.3-0.3V8.6V6.9H1.3z M8.1,8.4c0.8,0,1.5,0.7,1.5,1.5
	s-0.7,1.5-1.5,1.5s-1.5-0.7-1.5-1.5C6.6,9.1,7.3,8.4,8.1,8.4z M10.2,14.4H6c-0.3,0-0.6-0.3-0.6-0.6c0.1-1,0.7-1.8,1.6-2.2
	c0.2,0.4,0.6,0.7,1.1,0.7S9,12,9.2,11.6c0.9,0.4,1.5,1.2,1.6,2.2C10.8,14.1,10.5,14.4,10.2,14.4z"/>
</svg>
