<?xml version="1.0" encoding="utf-8"?>
<!-- Generator: Adobe Illustrator 24.1.1, SVG Export Plug-In . SVG Version: 6.00 Build 0)  -->
<svg version="1.1" id="Livello_1" xmlns="http://www.w3.org/2000/svg" xmlns:xlink="http://www.w3.org/1999/xlink" x="0px" y="0px"
	 viewBox="0 0 16 16" style="enable-background:new 0 0 16 16;" xml:space="preserve">
<style type="text/css">
	.st0{fill:#7FC241;}
</style>
<g>
	<path class="st0" d="M7.1,9.1c0,0.6,0.5,1.1,1.1,1.1s1.1-0.5,1.1-1.1S8.8,8,8.2,8S7.1,8.4,7.1,9.1z"/>
	<path class="st0" d="M8.3,10.9c-0.4,0-0.7-0.2-0.8-0.5c-0.6,0.3-1.1,0.9-1.2,1.6c0,0.2,0.2,0.5,0.4,0.5h3.1c0.2,0,0.4-0.2,0.4-0.5
		c-0.1-0.7-0.6-1.4-1.2-1.6C8.9,10.6,8.6,10.9,8.3,10.9z"/>
	<path class="st0" d="M15.5,2.8h-15H0v12.7V16h0.5H16l0,0v-0.5V2.8H15.5z M12.9,7.4v0.3v5.4c0,0.3-0.2,0.5-0.5,0.5H3.8
		c-0.3,0-0.5-0.2-0.5-0.5V5.7c0-0.3,0.2-0.5,0.5-0.5h2.9l1.2,1h5V7.4z"/>
</g>
<polygon id="XMLID_1_" class="st0" points="13.7,0 2.4,0 0,1.9 0.2,1.9 16,1.9 "/>
</svg>
