<?xml version="1.0" encoding="utf-8"?>
<!-- Generator: Adobe Illustrator 24.1.1, SVG Export Plug-In . SVG Version: 6.00 Build 0)  -->
<svg version="1.1" id="Livello_1" xmlns="http://www.w3.org/2000/svg" xmlns:xlink="http://www.w3.org/1999/xlink" x="0px" y="0px"
	 viewBox="0 0 16 16" style="enable-background:new 0 0 16 16;" xml:space="preserve">
<style type="text/css">
	.st0{fill:#7FC241;}
</style>
<path class="st0" d="M15.5,2.8h-15H0v12.7V16h0.5H16l0,0v-0.5V2.8H15.5z M3.6,6.4L3.6,6.4c0.1,0,0.2-0.1,0.3-0.1l0,0h8.2l0,0
	c0.1,0,0.2,0,0.3,0.1l0,0c0.1,0,0.1,0.1,0.2,0.1c0,0,0,0-0.1,0l0,0l-0.2,0.2h-0.1l0,0L8.4,10c-0.1,0.1-0.2,0.2-0.4,0.2
	c-0.1,0-0.3-0.1-0.4-0.2L3.8,6.7H3.7L3.6,6.4L3.6,6.4L3.6,6.4z M3.2,12.2L3.2,12.2c0-0.1-0.1-0.2-0.1-0.3l0,0V7.1l0,0
	c0-0.1,0-0.2,0.1-0.3l0,0l0,0l0,0l2.9,2.6H6L3.2,12.2L3.2,12.2z M12.4,12.6L12.4,12.6c-0.1,0-0.2,0.1-0.3,0.1l0,0H3.9l0,0
	c-0.1,0-0.2,0-0.3-0.1l0,0c0,0-0.1,0-0.1-0.1l0.2-0.2l0,0c0,0,0.1,0,0.1-0.1l2.6-2.6l0,0l0.8,0.7c0.2,0.2,0.4,0.3,0.7,0.3
	s0.5-0.1,0.7-0.3l0.8-0.7l2.6,2.6l0.1,0.1l0,0L12.4,12.6C12.5,12.5,12.4,12.6,12.4,12.6z M12.9,11.9L12.9,11.9c0,0.1,0,0.2-0.1,0.3
	l0,0l0,0L9.9,9.4l0,0l2.9-2.5l0,0c0,0.1,0.1,0.2,0.1,0.3l0,0V11.9z"/>
<polygon id="XMLID_3_" class="st0" points="13.7,0 2.4,0 0,1.9 0.2,1.9 16,1.9 "/>
</svg>
