<?xml version="1.0" encoding="utf-8"?>
<!-- Generator: Adobe Illustrator 24.1.1, SVG Export Plug-In . SVG Version: 6.00 Build 0)  -->
<svg version="1.1" id="Livello_1" xmlns="http://www.w3.org/2000/svg" xmlns:xlink="http://www.w3.org/1999/xlink" x="0px" y="0px"
	 viewBox="0 0 16 16" style="enable-background:new 0 0 16 16;" xml:space="preserve">
<style type="text/css">
	.st0{fill:#7FC241;}
</style>
<path class="st0" d="M15.5,2.8h-15H0v12.7V16h0.5H16l0,0v-0.5V2.8H15.5z M11,12.4c-0.8,0.3-2.3,0.4-3,0.4c-0.8,0-2.3-0.1-3-0.4l0,0
	l0,0c-0.1-0.2-0.1-0.1,0-0.1c0,0,0,0,0-0.1h6.3L11,12.4z M11.4,11.6H8H4.6L3.1,6.1l2.7,2.5L8,6.1l2.1,2.5l2.7-2.5L11.4,11.6z"/>
<polygon id="XMLID_1_" class="st0" points="13.7,0 2.4,0 0,1.9 0.2,1.9 16,1.9 "/>
</svg>
