<?xml version="1.0" encoding="utf-8"?>
<!-- Generator: Adobe Illustrator 24.1.1, SVG Export Plug-In . SVG Version: 6.00 Build 0)  -->
<svg version="1.1" id="Livello_1" xmlns="http://www.w3.org/2000/svg" xmlns:xlink="http://www.w3.org/1999/xlink" x="0px" y="0px"
	 viewBox="0 0 16 16" style="enable-background:new 0 0 16 16;" xml:space="preserve">
<style type="text/css">
	.st0{fill:#7FC241;}
</style>
<path class="st0" d="M15.5,2.8h-15H0v12.7V16h0.5H16l0,0v-0.5V2.8H15.5z M7.9,4.5c1.9,0,3.5,0.5,3.5,1.2S9.8,6.9,7.9,6.9
	C6,6.9,4.5,6.4,4.5,5.7S6,4.5,7.9,4.5z M11.6,13.1L11.6,13.1L11.6,13.1L11.6,13.1L11.6,13.1c0,0.8-1.7,1.3-3.6,1.3
	c-2,0-3.6-0.6-3.6-1.3l0,0l0,0v-2c0,0.7,1.7,1.3,3.6,1.3c2,0,3.6-0.6,3.6-1.3V13.1z M11.6,10.5L11.6,10.5L11.6,10.5L11.6,10.5
	L11.6,10.5c0,0.8-1.7,1.3-3.6,1.3c-2,0-3.6-0.6-3.6-1.3l0,0l0,0v-2c0,0.7,1.7,1.3,3.6,1.3c2,0,3.6-0.6,3.6-1.3V10.5z M11.6,7.9
	L11.6,7.9L11.6,7.9L11.6,7.9L11.6,7.9c0,0.8-1.7,1.3-3.6,1.3C6,9.3,4.3,8.7,4.3,8l0,0l0,0V6c0,0.7,1.7,1.3,3.6,1.3
	c2,0,3.6-0.6,3.6-1.3v1.9H11.6z"/>
<polygon id="XMLID_3_" class="st0" points="13.7,0 2.4,0 0,1.9 0.2,1.9 16,1.9 "/>
</svg>
