<?xml version="1.0" encoding="utf-8"?>
<!-- Generator: Adobe Illustrator 24.1.1, SVG Export Plug-In . SVG Version: 6.00 Build 0)  -->
<svg version="1.1" id="Livello_1" xmlns="http://www.w3.org/2000/svg" xmlns:xlink="http://www.w3.org/1999/xlink" x="0px" y="0px"
	 viewBox="0 0 16 16" style="enable-background:new 0 0 16 16;" xml:space="preserve">
<style type="text/css">
	.st0{fill:#7FC241;}
</style>
<g>
	<g>
		<g>
			<path class="st0" d="M15.2,8.6c0,0-1.2-0.7-1.4-0.8c-0.2-0.1-0.2-0.1-0.4,0s-4.9,2.8-4.9,2.8c-0.2,0.1-0.4,0.2-0.6,0.2
				c-0.2,0-0.5-0.1-0.6-0.2c0,0-4.6-2.7-4.8-2.8C2.3,7.7,2.2,7.7,2,7.8C1.8,7.9,0.7,8.6,0.7,8.6c-0.3,0.2-0.3,0.5,0,0.7l6.6,3.9
				c0.2,0.1,0.4,0.2,0.6,0.2s0.5-0.1,0.6-0.2l6.6-3.9C15.6,9.1,15.6,8.8,15.2,8.6z"/>
		</g>
		<g>
			<path class="st0" d="M15.2,11.3c0,0-0.1,0-0.2-0.1c-0.1,0-0.1,0-0.2,0.1c-0.1,0-0.6,0.3-1.4,0.7L9,14.5c-0.3,0.2-0.7,0.3-1.1,0.3
				s-0.8-0.1-1.1-0.3l-4.6-2.7c-0.5-0.3-0.9-0.5-1-0.5c-0.2-0.1-0.3-0.1-0.4-0.1c-0.1,0.1-0.2,0.1-0.2,0.1c-0.3,0.2-0.3,0.5,0,0.7
				l0.2,0.1l6.7,3.8c0,0,0.1,0,0.2,0.1c0.1,0,0.2,0,0.3,0l0,0c0.1,0,0.2,0,0.3,0s0.1,0,0.2-0.1l5.7-3.3l1.1-0.6
				C15.6,11.8,15.6,11.5,15.2,11.3z"/>
		</g>
		<g>
			<g>
				<path class="st0" d="M15.7,4.3l-7-4.1C8.5,0.1,8.2,0,8,0S7.5,0.1,7.3,0.2l-7,4.1c-0.4,0.2-0.4,0.6,0,0.8l7.1,4.1
					c0.1,0,0.4,0.1,0.6,0.1s0.5-0.1,0.7-0.2l7-4.1C16.1,4.8,16.1,4.5,15.7,4.3z M6,6.3C5.5,6.3,5,6,5,5.6C5,5.3,5.5,5,6.1,5
					s1,0.3,1,0.7C7.1,6.1,6.6,6.3,6,6.3z M9.8,6.3H9.7L8.3,6.2H8.2V6.1c0-0.4-0.2-0.9-0.7-1.2c-0.6-0.3-1.2-0.6-2-0.6H5.4V4.2V3.4
					V3.3h0.1c1.2,0.1,2.2,0.4,3,1C9.4,4.9,9.8,5.5,9.8,6.3L9.8,6.3z M12.1,6.2H12l-1.3-0.1h-0.1V6c0-0.8-0.4-1.5-1.3-2.1
					C8.4,3.4,7.2,3,6,2.9H5.9V2.8V2V1.9L6,2C9.5,2.2,12.3,4.1,12.1,6.2L12.1,6.2z"/>
			</g>
		</g>
	</g>
</g>
</svg>
