<svg id="visual" viewBox="0 0 1920 1280" width="1920" height="1280" xmlns="http://www.w3.org/2000/svg" xmlns:xlink="http://www.w3.org/1999/xlink" version="1.1"><rect x="0" y="0" width="1920" height="1280" fill="#c9c1fc"></rect><defs><linearGradient id="grad1_0" x1="33.3%" y1="0%" x2="100%" y2="100%"><stop offset="20%" stop-color="#715df2" stop-opacity="1"></stop><stop offset="80%" stop-color="#715df2" stop-opacity="1"></stop></linearGradient></defs><defs><linearGradient id="grad1_1" x1="33.3%" y1="0%" x2="100%" y2="100%"><stop offset="20%" stop-color="#715df2" stop-opacity="1"></stop><stop offset="80%" stop-color="#7f6cf4" stop-opacity="1"></stop></linearGradient></defs><defs><linearGradient id="grad1_2" x1="33.3%" y1="0%" x2="100%" y2="100%"><stop offset="20%" stop-color="#8c7af6" stop-opacity="1"></stop><stop offset="80%" stop-color="#7f6cf4" stop-opacity="1"></stop></linearGradient></defs><defs><linearGradient id="grad1_3" x1="33.3%" y1="0%" x2="100%" y2="100%"><stop offset="20%" stop-color="#8c7af6" stop-opacity="1"></stop><stop offset="80%" stop-color="#9888f8" stop-opacity="1"></stop></linearGradient></defs><defs><linearGradient id="grad1_4" x1="33.3%" y1="0%" x2="100%" y2="100%"><stop offset="20%" stop-color="#a596f9" stop-opacity="1"></stop><stop offset="80%" stop-color="#9888f8" stop-opacity="1"></stop></linearGradient></defs><defs><linearGradient id="grad1_5" x1="33.3%" y1="0%" x2="100%" y2="100%"><stop offset="20%" stop-color="#a596f9" stop-opacity="1"></stop><stop offset="80%" stop-color="#b1a5fb" stop-opacity="1"></stop></linearGradient></defs><defs><linearGradient id="grad1_6" x1="33.3%" y1="0%" x2="100%" y2="100%"><stop offset="20%" stop-color="#bdb3fb" stop-opacity="1"></stop><stop offset="80%" stop-color="#b1a5fb" stop-opacity="1"></stop></linearGradient></defs><defs><linearGradient id="grad1_7" x1="33.3%" y1="0%" x2="100%" y2="100%"><stop offset="20%" stop-color="#bdb3fb" stop-opacity="1"></stop><stop offset="80%" stop-color="#c9c1fc" stop-opacity="1"></stop></linearGradient></defs><defs><linearGradient id="grad2_0" x1="0%" y1="0%" x2="66.7%" y2="100%"><stop offset="20%" stop-color="#715df2" stop-opacity="1"></stop><stop offset="80%" stop-color="#715df2" stop-opacity="1"></stop></linearGradient></defs><defs><linearGradient id="grad2_1" x1="0%" y1="0%" x2="66.7%" y2="100%"><stop offset="20%" stop-color="#7f6cf4" stop-opacity="1"></stop><stop offset="80%" stop-color="#715df2" stop-opacity="1"></stop></linearGradient></defs><defs><linearGradient id="grad2_2" x1="0%" y1="0%" x2="66.7%" y2="100%"><stop offset="20%" stop-color="#7f6cf4" stop-opacity="1"></stop><stop offset="80%" stop-color="#8c7af6" stop-opacity="1"></stop></linearGradient></defs><defs><linearGradient id="grad2_3" x1="0%" y1="0%" x2="66.7%" y2="100%"><stop offset="20%" stop-color="#9888f8" stop-opacity="1"></stop><stop offset="80%" stop-color="#8c7af6" stop-opacity="1"></stop></linearGradient></defs><defs><linearGradient id="grad2_4" x1="0%" y1="0%" x2="66.7%" y2="100%"><stop offset="20%" stop-color="#9888f8" stop-opacity="1"></stop><stop offset="80%" stop-color="#a596f9" stop-opacity="1"></stop></linearGradient></defs><defs><linearGradient id="grad2_5" x1="0%" y1="0%" x2="66.7%" y2="100%"><stop offset="20%" stop-color="#b1a5fb" stop-opacity="1"></stop><stop offset="80%" stop-color="#a596f9" stop-opacity="1"></stop></linearGradient></defs><defs><linearGradient id="grad2_6" x1="0%" y1="0%" x2="66.7%" y2="100%"><stop offset="20%" stop-color="#b1a5fb" stop-opacity="1"></stop><stop offset="80%" stop-color="#bdb3fb" stop-opacity="1"></stop></linearGradient></defs><defs><linearGradient id="grad2_7" x1="0%" y1="0%" x2="66.7%" y2="100%"><stop offset="20%" stop-color="#c9c1fc" stop-opacity="1"></stop><stop offset="80%" stop-color="#bdb3fb" stop-opacity="1"></stop></linearGradient></defs><g transform="translate(1920, 0)"><path d="M0 1038.4C-134.4 1024.6 -268.9 1010.8 -397.4 959.4C-525.9 907.9 -648.5 818.7 -704.3 704.3C-760.1 589.9 -749.1 450.3 -793.6 328.7C-838.2 207.1 -938.3 103.6 -1038.4 0L0 0Z" fill="#c3bafc"></path><path d="M0 908.6C-117.6 896.5 -235.3 884.5 -347.7 839.4C-460.2 794.4 -567.4 716.3 -616.2 616.2C-665.1 516.2 -655.4 394 -694.4 287.6C-733.4 181.3 -821 90.6 -908.6 0L0 0Z" fill="#b7acfb"></path><path d="M0 778.8C-100.8 768.5 -201.6 758.1 -298 719.5C-394.4 680.9 -486.4 614 -528.2 528.2C-570.1 442.4 -561.8 337.7 -595.2 246.5C-628.6 155.4 -703.7 77.7 -778.8 0L0 0Z" fill="#ab9dfa"></path><path d="M0 649C-84 640.4 -168 631.8 -248.4 599.6C-328.7 567.4 -405.3 511.7 -440.2 440.2C-475 368.7 -468.2 281.4 -496 205.5C-523.9 129.5 -586.4 64.7 -649 0L0 0Z" fill="#9e8ff9"></path><path d="M0 519.2C-67.2 512.3 -134.4 505.4 -198.7 479.7C-262.9 453.9 -324.2 409.3 -352.1 352.1C-380 294.9 -374.5 225.2 -396.8 164.4C-419.1 103.6 -469.1 51.8 -519.2 0L0 0Z" fill="#9281f7"></path><path d="M0 389.4C-50.4 384.2 -100.8 379.1 -149 359.8C-197.2 340.5 -243.2 307 -264.1 264.1C-285 221.2 -280.9 168.9 -297.6 123.3C-314.3 77.7 -351.9 38.8 -389.4 0L0 0Z" fill="#8573f5"></path><path d="M0 259.6C-33.6 256.2 -67.2 252.7 -99.3 239.8C-131.5 227 -162.1 204.7 -176.1 176.1C-190 147.5 -187.3 112.6 -198.4 82.2C-209.5 51.8 -234.6 25.9 -259.6 0L0 0Z" fill="#7864f3"></path><path d="M0 129.8C-16.8 128.1 -33.6 126.4 -49.7 119.9C-65.7 113.5 -81.1 102.3 -88 88C-95 73.7 -93.6 56.3 -99.2 41.1C-104.8 25.9 -117.3 12.9 -129.8 0L0 0Z" fill="#715df2"></path></g><g transform="translate(0, 1280)"><path d="M0 -1038.4C105.4 -942.2 210.8 -845.9 331.4 -800.1C452 -754.3 587.7 -758.9 701.4 -701.4C815.2 -644 906.9 -524.6 959.4 -397.4C1011.8 -270.1 1025.1 -135.1 1038.4 0L0 0Z" fill="#c3bafc"></path><path d="M0 -908.6C92.2 -824.4 184.5 -740.2 290 -700.1C395.5 -660 514.3 -664 613.8 -613.8C713.3 -563.5 793.5 -459 839.4 -347.7C885.4 -236.4 897 -118.2 908.6 0L0 0Z" fill="#b7acfb"></path><path d="M0 -778.8C79.1 -706.6 158.1 -634.4 248.6 -600.1C339 -565.7 440.8 -569.1 526.1 -526.1C611.4 -483 680.2 -393.5 719.5 -298C758.9 -202.6 768.8 -101.3 778.8 0L0 0Z" fill="#ab9dfa"></path><path d="M0 -649C65.9 -588.8 131.8 -528.7 207.1 -500C282.5 -471.4 367.3 -474.3 438.4 -438.4C509.5 -402.5 566.8 -327.9 599.6 -248.4C632.4 -168.8 640.7 -84.4 649 0L0 0Z" fill="#9e8ff9"></path><path d="M0 -519.2C52.7 -471.1 105.4 -423 165.7 -400C226 -377.1 293.9 -379.4 350.7 -350.7C407.6 -322 453.4 -262.3 479.7 -198.7C505.9 -135.1 512.6 -67.5 519.2 0L0 0Z" fill="#9281f7"></path><path d="M0 -389.4C39.5 -353.3 79.1 -317.2 124.3 -300C169.5 -282.8 220.4 -284.6 263 -263C305.7 -241.5 340.1 -196.7 359.8 -149C379.4 -101.3 384.4 -50.7 389.4 0L0 0Z" fill="#8573f5"></path><path d="M0 -259.6C26.4 -235.5 52.7 -211.5 82.9 -200C113 -188.6 146.9 -189.7 175.4 -175.4C203.8 -161 226.7 -131.2 239.8 -99.3C253 -67.5 256.3 -33.8 259.6 0L0 0Z" fill="#7864f3"></path><path d="M0 -129.8C13.2 -117.8 26.4 -105.7 41.4 -100C56.5 -94.3 73.5 -94.9 87.7 -87.7C101.9 -80.5 113.4 -65.6 119.9 -49.7C126.5 -33.8 128.1 -16.9 129.8 0L0 0Z" fill="#715df2"></path></g></svg>