<svg id="visual" viewBox="0 0 1920 1280" width="1920" height="1280" xmlns="http://www.w3.org/2000/svg" xmlns:xlink="http://www.w3.org/1999/xlink" version="1.1"><rect x="0" y="0" width="1920" height="1280" fill="#4FACF7"></rect><defs><linearGradient id="grad1_0" x1="33.3%" y1="0%" x2="100%" y2="100%"><stop offset="20%" stop-color="#0066ff" stop-opacity="1"></stop><stop offset="80%" stop-color="#0066ff" stop-opacity="1"></stop></linearGradient></defs><defs><linearGradient id="grad1_1" x1="33.3%" y1="0%" x2="100%" y2="100%"><stop offset="20%" stop-color="#0066ff" stop-opacity="1"></stop><stop offset="80%" stop-color="#0072ff" stop-opacity="1"></stop></linearGradient></defs><defs><linearGradient id="grad1_2" x1="33.3%" y1="0%" x2="100%" y2="100%"><stop offset="20%" stop-color="#007dff" stop-opacity="1"></stop><stop offset="80%" stop-color="#0072ff" stop-opacity="1"></stop></linearGradient></defs><defs><linearGradient id="grad1_3" x1="33.3%" y1="0%" x2="100%" y2="100%"><stop offset="20%" stop-color="#007dff" stop-opacity="1"></stop><stop offset="80%" stop-color="#0087ff" stop-opacity="1"></stop></linearGradient></defs><defs><linearGradient id="grad1_4" x1="33.3%" y1="0%" x2="100%" y2="100%"><stop offset="20%" stop-color="#0091ff" stop-opacity="1"></stop><stop offset="80%" stop-color="#0087ff" stop-opacity="1"></stop></linearGradient></defs><defs><linearGradient id="grad1_5" x1="33.3%" y1="0%" x2="100%" y2="100%"><stop offset="20%" stop-color="#0091ff" stop-opacity="1"></stop><stop offset="80%" stop-color="#1b9bfd" stop-opacity="1"></stop></linearGradient></defs><defs><linearGradient id="grad1_6" x1="33.3%" y1="0%" x2="100%" y2="100%"><stop offset="20%" stop-color="#38a3fa" stop-opacity="1"></stop><stop offset="80%" stop-color="#1b9bfd" stop-opacity="1"></stop></linearGradient></defs><defs><linearGradient id="grad1_7" x1="33.3%" y1="0%" x2="100%" y2="100%"><stop offset="20%" stop-color="#38a3fa" stop-opacity="1"></stop><stop offset="80%" stop-color="#4facf7" stop-opacity="1"></stop></linearGradient></defs><defs><linearGradient id="grad2_0" x1="0%" y1="0%" x2="66.7%" y2="100%"><stop offset="20%" stop-color="#0066ff" stop-opacity="1"></stop><stop offset="80%" stop-color="#0066ff" stop-opacity="1"></stop></linearGradient></defs><defs><linearGradient id="grad2_1" x1="0%" y1="0%" x2="66.7%" y2="100%"><stop offset="20%" stop-color="#0072ff" stop-opacity="1"></stop><stop offset="80%" stop-color="#0066ff" stop-opacity="1"></stop></linearGradient></defs><defs><linearGradient id="grad2_2" x1="0%" y1="0%" x2="66.7%" y2="100%"><stop offset="20%" stop-color="#0072ff" stop-opacity="1"></stop><stop offset="80%" stop-color="#007dff" stop-opacity="1"></stop></linearGradient></defs><defs><linearGradient id="grad2_3" x1="0%" y1="0%" x2="66.7%" y2="100%"><stop offset="20%" stop-color="#0087ff" stop-opacity="1"></stop><stop offset="80%" stop-color="#007dff" stop-opacity="1"></stop></linearGradient></defs><defs><linearGradient id="grad2_4" x1="0%" y1="0%" x2="66.7%" y2="100%"><stop offset="20%" stop-color="#0087ff" stop-opacity="1"></stop><stop offset="80%" stop-color="#0091ff" stop-opacity="1"></stop></linearGradient></defs><defs><linearGradient id="grad2_5" x1="0%" y1="0%" x2="66.7%" y2="100%"><stop offset="20%" stop-color="#1b9bfd" stop-opacity="1"></stop><stop offset="80%" stop-color="#0091ff" stop-opacity="1"></stop></linearGradient></defs><defs><linearGradient id="grad2_6" x1="0%" y1="0%" x2="66.7%" y2="100%"><stop offset="20%" stop-color="#1b9bfd" stop-opacity="1"></stop><stop offset="80%" stop-color="#38a3fa" stop-opacity="1"></stop></linearGradient></defs><defs><linearGradient id="grad2_7" x1="0%" y1="0%" x2="66.7%" y2="100%"><stop offset="20%" stop-color="#4facf7" stop-opacity="1"></stop><stop offset="80%" stop-color="#38a3fa" stop-opacity="1"></stop></linearGradient></defs><g transform="translate(1920, 0)"><path d="M0 1038.4C-117.2 978.7 -234.5 919.1 -363.5 877.7C-492.6 836.3 -633.5 813.1 -734.3 734.3C-835 655.4 -895.6 520.8 -939.6 389.2C-983.6 257.5 -1011 128.8 -1038.4 0L0 0Z" fill="#44a8f9"></path><path d="M0 908.6C-102.6 856.4 -205.2 804.2 -318.1 768C-431 731.7 -554.3 711.5 -642.5 642.5C-730.6 573.5 -783.6 455.7 -822.1 340.5C-860.6 225.3 -884.6 112.7 -908.6 0L0 0Z" fill="#2b9ffc"></path><path d="M0 778.8C-87.9 734.1 -175.9 689.3 -272.7 658.3C-369.5 627.2 -475.1 609.8 -550.7 550.7C-626.3 491.6 -671.7 390.6 -704.7 291.9C-737.7 193.1 -758.2 96.6 -778.8 0L0 0Z" fill="#0096ff"></path><path d="M0 649C-73.3 611.7 -146.6 574.4 -227.2 548.6C-307.9 522.7 -395.9 508.2 -458.9 458.9C-521.9 409.6 -559.7 325.5 -587.2 243.2C-614.7 161 -631.9 80.5 -649 0L0 0Z" fill="#008cff"></path><path d="M0 519.2C-58.6 489.4 -117.2 459.5 -181.8 438.8C-246.3 418.1 -316.8 406.6 -367.1 367.1C-417.5 327.7 -447.8 260.4 -469.8 194.6C-491.8 128.8 -505.5 64.4 -519.2 0L0 0Z" fill="#0082ff"></path><path d="M0 389.4C-44 367 -87.9 344.7 -136.3 329.1C-184.7 313.6 -237.6 304.9 -275.3 275.3C-313.1 245.8 -335.8 195.3 -352.3 145.9C-368.8 96.6 -379.1 48.3 -389.4 0L0 0Z" fill="#0078ff"></path><path d="M0 259.6C-29.3 244.7 -58.6 229.8 -90.9 219.4C-123.2 209.1 -158.4 203.3 -183.6 183.6C-208.8 163.9 -223.9 130.2 -234.9 97.3C-245.9 64.4 -252.7 32.2 -259.6 0L0 0Z" fill="#006cff"></path><path d="M0 129.8C-14.7 122.3 -29.3 114.9 -45.4 109.7C-61.6 104.5 -79.2 101.6 -91.8 91.8C-104.4 81.9 -111.9 65.1 -117.4 48.6C-122.9 32.2 -126.4 16.1 -129.8 0L0 0Z" fill="#0066ff"></path></g><g transform="translate(0, 1280)"><path d="M0 -1038.4C132.8 -1022.5 265.6 -1006.7 397.4 -959.4C529.2 -912.1 659.9 -833.3 721.2 -721.2C782.6 -609.2 774.5 -463.7 815.8 -337.9C857.1 -212.1 947.7 -106.1 1038.4 0L0 0Z" fill="#44a8f9"></path><path d="M0 -908.6C116.2 -894.7 232.4 -880.8 347.7 -839.4C463 -798.1 577.4 -729.2 631.1 -631.1C684.8 -533 677.7 -405.7 713.8 -295.7C749.9 -185.6 829.3 -92.8 908.6 0L0 0Z" fill="#2b9ffc"></path><path d="M0 -778.8C99.6 -766.9 199.2 -755 298 -719.5C396.9 -684 494.9 -625 540.9 -540.9C586.9 -456.9 580.9 -347.8 611.8 -253.4C642.8 -159.1 710.8 -79.6 778.8 0L0 0Z" fill="#0096ff"></path><path d="M0 -649C83 -639.1 166 -629.2 248.4 -599.6C330.7 -570 412.4 -520.8 450.8 -450.8C489.1 -380.7 484.1 -289.8 509.9 -211.2C535.7 -132.6 592.3 -66.3 649 0L0 0Z" fill="#008cff"></path><path d="M0 -519.2C66.4 -511.3 132.8 -503.3 198.7 -479.7C264.6 -456 330 -416.7 360.6 -360.6C391.3 -304.6 387.2 -231.8 407.9 -169C428.5 -106.1 473.9 -53 519.2 0L0 0Z" fill="#0082ff"></path><path d="M0 -389.4C49.8 -383.4 99.6 -377.5 149 -359.8C198.4 -342 247.5 -312.5 270.5 -270.5C293.5 -228.4 290.4 -173.9 305.9 -126.7C321.4 -79.6 355.4 -39.8 389.4 0L0 0Z" fill="#0078ff"></path><path d="M0 -259.6C33.2 -255.6 66.4 -251.7 99.3 -239.8C132.3 -228 165 -208.3 180.3 -180.3C195.6 -152.3 193.6 -115.9 203.9 -84.5C214.3 -53 236.9 -26.5 259.6 0L0 0Z" fill="#006cff"></path><path d="M0 -129.8C16.6 -127.8 33.2 -125.8 49.7 -119.9C66.1 -114 82.5 -104.2 90.2 -90.2C97.8 -76.1 96.8 -58 102 -42.2C107.1 -26.5 118.5 -13.3 129.8 0L0 0Z" fill="#0066ff"></path></g></svg>