<svg id="visual" viewBox="0 0 1920 1280" width="1920" height="1280" xmlns="http://www.w3.org/2000/svg" xmlns:xlink="http://www.w3.org/1999/xlink" version="1.1"><rect x="0" y="0" width="1920" height="1280" fill="#ffe8e8"></rect><defs><linearGradient id="grad1_0" x1="33.3%" y1="0%" x2="100%" y2="100%"><stop offset="20%" stop-color="#ffcbcb" stop-opacity="1"></stop><stop offset="80%" stop-color="#ffcbcb" stop-opacity="1"></stop></linearGradient></defs><defs><linearGradient id="grad1_1" x1="33.3%" y1="0%" x2="100%" y2="100%"><stop offset="20%" stop-color="#ffcbcb" stop-opacity="1"></stop><stop offset="80%" stop-color="#ffcfcf" stop-opacity="1"></stop></linearGradient></defs><defs><linearGradient id="grad1_2" x1="33.3%" y1="0%" x2="100%" y2="100%"><stop offset="20%" stop-color="#ffd3d3" stop-opacity="1"></stop><stop offset="80%" stop-color="#ffcfcf" stop-opacity="1"></stop></linearGradient></defs><defs><linearGradient id="grad1_3" x1="33.3%" y1="0%" x2="100%" y2="100%"><stop offset="20%" stop-color="#ffd3d3" stop-opacity="1"></stop><stop offset="80%" stop-color="#ffd7d7" stop-opacity="1"></stop></linearGradient></defs><defs><linearGradient id="grad1_4" x1="33.3%" y1="0%" x2="100%" y2="100%"><stop offset="20%" stop-color="#ffdcdc" stop-opacity="1"></stop><stop offset="80%" stop-color="#ffd7d7" stop-opacity="1"></stop></linearGradient></defs><defs><linearGradient id="grad1_5" x1="33.3%" y1="0%" x2="100%" y2="100%"><stop offset="20%" stop-color="#ffdcdc" stop-opacity="1"></stop><stop offset="80%" stop-color="#ffe0e0" stop-opacity="1"></stop></linearGradient></defs><defs><linearGradient id="grad1_6" x1="33.3%" y1="0%" x2="100%" y2="100%"><stop offset="20%" stop-color="#ffe4e4" stop-opacity="1"></stop><stop offset="80%" stop-color="#ffe0e0" stop-opacity="1"></stop></linearGradient></defs><defs><linearGradient id="grad1_7" x1="33.3%" y1="0%" x2="100%" y2="100%"><stop offset="20%" stop-color="#ffe4e4" stop-opacity="1"></stop><stop offset="80%" stop-color="#ffe8e8" stop-opacity="1"></stop></linearGradient></defs><defs><linearGradient id="grad2_0" x1="0%" y1="0%" x2="66.7%" y2="100%"><stop offset="20%" stop-color="#ffcbcb" stop-opacity="1"></stop><stop offset="80%" stop-color="#ffcbcb" stop-opacity="1"></stop></linearGradient></defs><defs><linearGradient id="grad2_1" x1="0%" y1="0%" x2="66.7%" y2="100%"><stop offset="20%" stop-color="#ffcfcf" stop-opacity="1"></stop><stop offset="80%" stop-color="#ffcbcb" stop-opacity="1"></stop></linearGradient></defs><defs><linearGradient id="grad2_2" x1="0%" y1="0%" x2="66.7%" y2="100%"><stop offset="20%" stop-color="#ffcfcf" stop-opacity="1"></stop><stop offset="80%" stop-color="#ffd3d3" stop-opacity="1"></stop></linearGradient></defs><defs><linearGradient id="grad2_3" x1="0%" y1="0%" x2="66.7%" y2="100%"><stop offset="20%" stop-color="#ffd7d7" stop-opacity="1"></stop><stop offset="80%" stop-color="#ffd3d3" stop-opacity="1"></stop></linearGradient></defs><defs><linearGradient id="grad2_4" x1="0%" y1="0%" x2="66.7%" y2="100%"><stop offset="20%" stop-color="#ffd7d7" stop-opacity="1"></stop><stop offset="80%" stop-color="#ffdcdc" stop-opacity="1"></stop></linearGradient></defs><defs><linearGradient id="grad2_5" x1="0%" y1="0%" x2="66.7%" y2="100%"><stop offset="20%" stop-color="#ffe0e0" stop-opacity="1"></stop><stop offset="80%" stop-color="#ffdcdc" stop-opacity="1"></stop></linearGradient></defs><defs><linearGradient id="grad2_6" x1="0%" y1="0%" x2="66.7%" y2="100%"><stop offset="20%" stop-color="#ffe0e0" stop-opacity="1"></stop><stop offset="80%" stop-color="#ffe4e4" stop-opacity="1"></stop></linearGradient></defs><defs><linearGradient id="grad2_7" x1="0%" y1="0%" x2="66.7%" y2="100%"><stop offset="20%" stop-color="#ffe8e8" stop-opacity="1"></stop><stop offset="80%" stop-color="#ffe4e4" stop-opacity="1"></stop></linearGradient></defs><g transform="translate(1920, 0)"><path d="M0 1038.4C-135.2 1003.3 -270.5 968.2 -372.7 899.9C-475 831.6 -544.3 730.1 -647.7 647.7C-751.1 565.4 -888.6 502.1 -959.4 397.4C-1030.1 292.6 -1034.3 146.3 -1038.4 0L0 0Z" fill="#ffe6e6"></path><path d="M0 908.6C-118.3 877.9 -236.7 847.1 -326.1 787.4C-415.6 727.6 -476.3 638.8 -566.7 566.7C-657.2 494.7 -777.5 439.4 -839.4 347.7C-901.4 256 -905 128 -908.6 0L0 0Z" fill="#ffe2e2"></path><path d="M0 778.8C-101.4 752.5 -202.8 726.1 -279.6 674.9C-356.3 623.7 -408.2 547.5 -485.8 485.8C-563.3 424 -666.4 376.6 -719.5 298C-772.6 219.5 -775.7 109.7 -778.8 0L0 0Z" fill="#ffdede"></path><path d="M0 649C-84.5 627.1 -169 605.1 -233 562.4C-296.9 519.7 -340.2 456.3 -404.8 404.8C-469.4 353.3 -555.4 313.8 -599.6 248.4C-643.8 182.9 -646.4 91.4 -649 0L0 0Z" fill="#ffdad9"></path><path d="M0 519.2C-67.6 501.6 -135.2 484.1 -186.4 449.9C-237.5 415.8 -272.2 365 -323.9 323.9C-375.5 282.7 -444.3 251.1 -479.7 198.7C-515.1 146.3 -517.1 73.2 -519.2 0L0 0Z" fill="#ffd5d5"></path><path d="M0 389.4C-50.7 376.2 -101.4 363.1 -139.8 337.4C-178.1 311.8 -204.1 273.8 -242.9 242.9C-281.7 212 -333.2 188.3 -359.8 149C-386.3 109.7 -387.9 54.9 -389.4 0L0 0Z" fill="#ffd1d1"></path><path d="M0 259.6C-33.8 250.8 -67.6 242 -93.2 225C-118.8 207.9 -136.1 182.5 -161.9 161.9C-187.8 141.3 -222.1 125.5 -239.8 99.3C-257.5 73.2 -258.6 36.6 -259.6 0L0 0Z" fill="#ffcdcd"></path><path d="M0 129.8C-16.9 125.4 -33.8 121 -46.6 112.5C-59.4 103.9 -68 91.3 -81 81C-93.9 70.7 -111.1 62.8 -119.9 49.7C-128.8 36.6 -129.3 18.3 -129.8 0L0 0Z" fill="#ffcbcb"></path></g><g transform="translate(0, 1280)"><path d="M0 -1038.4C139.3 -1026.4 278.7 -1014.3 397.4 -959.4C516.1 -904.4 614.1 -806.5 707.8 -707.8C801.5 -609.1 890.8 -509.6 945.1 -391.5C999.5 -273.4 1018.9 -136.7 1038.4 0L0 0Z" fill="#ffe6e6"></path><path d="M0 -908.6C121.9 -898.1 243.8 -887.5 347.7 -839.4C451.6 -791.3 537.4 -705.7 619.3 -619.3C701.3 -533 779.4 -445.9 827 -342.5C874.6 -239.2 891.6 -119.6 908.6 0L0 0Z" fill="#ffe2e2"></path><path d="M0 -778.8C104.5 -769.8 209 -760.7 298 -719.5C387.1 -678.3 460.6 -604.9 530.9 -530.9C601.1 -456.8 668.1 -382.2 708.8 -293.6C749.6 -205 764.2 -102.5 778.8 0L0 0Z" fill="#ffdede"></path><path d="M0 -649C87.1 -641.5 174.2 -633.9 248.4 -599.6C322.5 -565.2 383.8 -504.1 442.4 -442.4C500.9 -380.7 556.7 -318.5 590.7 -244.7C624.7 -170.9 636.8 -85.4 649 0L0 0Z" fill="#ffdad9"></path><path d="M0 -519.2C69.7 -513.2 139.3 -507.2 198.7 -479.7C258 -452.2 307.1 -403.3 353.9 -353.9C400.7 -304.6 445.4 -254.8 472.6 -195.7C499.7 -136.7 509.5 -68.3 519.2 0L0 0Z" fill="#ffd5d5"></path><path d="M0 -389.4C52.3 -384.9 104.5 -380.4 149 -359.8C193.5 -339.1 230.3 -302.4 265.4 -265.4C300.6 -228.4 334 -191.1 354.4 -146.8C374.8 -102.5 382.1 -51.3 389.4 0L0 0Z" fill="#ffd1d1"></path><path d="M0 -259.6C34.8 -256.6 69.7 -253.6 99.3 -239.8C129 -226.1 153.5 -201.6 177 -177C200.4 -152.3 222.7 -127.4 236.3 -97.9C249.9 -68.3 254.7 -34.2 259.6 0L0 0Z" fill="#ffcdcd"></path><path d="M0 -129.8C17.4 -128.3 34.8 -126.8 49.7 -119.9C64.5 -113 76.8 -100.8 88.5 -88.5C100.2 -76.1 111.3 -63.7 118.1 -48.9C124.9 -34.2 127.4 -17.1 129.8 0L0 0Z" fill="#ffcbcb"></path></g></svg>