<svg id="visual" viewBox="0 0 1920 1280" width="1920" height="1280" xmlns="http://www.w3.org/2000/svg" xmlns:xlink="http://www.w3.org/1999/xlink" version="1.1"><rect x="0" y="0" width="1920" height="1280" fill="#ffe6c0"></rect><defs><linearGradient id="grad1_0" x1="33.3%" y1="0%" x2="100%" y2="100%"><stop offset="20%" stop-color="#ffa825" stop-opacity="1"></stop><stop offset="80%" stop-color="#ffa825" stop-opacity="1"></stop></linearGradient></defs><defs><linearGradient id="grad1_1" x1="33.3%" y1="0%" x2="100%" y2="100%"><stop offset="20%" stop-color="#ffa825" stop-opacity="1"></stop><stop offset="80%" stop-color="#ffb240" stop-opacity="1"></stop></linearGradient></defs><defs><linearGradient id="grad1_2" x1="33.3%" y1="0%" x2="100%" y2="100%"><stop offset="20%" stop-color="#ffbb57" stop-opacity="1"></stop><stop offset="80%" stop-color="#ffb240" stop-opacity="1"></stop></linearGradient></defs><defs><linearGradient id="grad1_3" x1="33.3%" y1="0%" x2="100%" y2="100%"><stop offset="20%" stop-color="#ffbb57" stop-opacity="1"></stop><stop offset="80%" stop-color="#ffc46c" stop-opacity="1"></stop></linearGradient></defs><defs><linearGradient id="grad1_4" x1="33.3%" y1="0%" x2="100%" y2="100%"><stop offset="20%" stop-color="#ffcd81" stop-opacity="1"></stop><stop offset="80%" stop-color="#ffc46c" stop-opacity="1"></stop></linearGradient></defs><defs><linearGradient id="grad1_5" x1="33.3%" y1="0%" x2="100%" y2="100%"><stop offset="20%" stop-color="#ffcd81" stop-opacity="1"></stop><stop offset="80%" stop-color="#ffd596" stop-opacity="1"></stop></linearGradient></defs><defs><linearGradient id="grad1_6" x1="33.3%" y1="0%" x2="100%" y2="100%"><stop offset="20%" stop-color="#ffdeab" stop-opacity="1"></stop><stop offset="80%" stop-color="#ffd596" stop-opacity="1"></stop></linearGradient></defs><defs><linearGradient id="grad1_7" x1="33.3%" y1="0%" x2="100%" y2="100%"><stop offset="20%" stop-color="#ffdeab" stop-opacity="1"></stop><stop offset="80%" stop-color="#ffe6c0" stop-opacity="1"></stop></linearGradient></defs><defs><linearGradient id="grad2_0" x1="0%" y1="0%" x2="66.7%" y2="100%"><stop offset="20%" stop-color="#ffa825" stop-opacity="1"></stop><stop offset="80%" stop-color="#ffa825" stop-opacity="1"></stop></linearGradient></defs><defs><linearGradient id="grad2_1" x1="0%" y1="0%" x2="66.7%" y2="100%"><stop offset="20%" stop-color="#ffb240" stop-opacity="1"></stop><stop offset="80%" stop-color="#ffa825" stop-opacity="1"></stop></linearGradient></defs><defs><linearGradient id="grad2_2" x1="0%" y1="0%" x2="66.7%" y2="100%"><stop offset="20%" stop-color="#ffb240" stop-opacity="1"></stop><stop offset="80%" stop-color="#ffbb57" stop-opacity="1"></stop></linearGradient></defs><defs><linearGradient id="grad2_3" x1="0%" y1="0%" x2="66.7%" y2="100%"><stop offset="20%" stop-color="#ffc46c" stop-opacity="1"></stop><stop offset="80%" stop-color="#ffbb57" stop-opacity="1"></stop></linearGradient></defs><defs><linearGradient id="grad2_4" x1="0%" y1="0%" x2="66.7%" y2="100%"><stop offset="20%" stop-color="#ffc46c" stop-opacity="1"></stop><stop offset="80%" stop-color="#ffcd81" stop-opacity="1"></stop></linearGradient></defs><defs><linearGradient id="grad2_5" x1="0%" y1="0%" x2="66.7%" y2="100%"><stop offset="20%" stop-color="#ffd596" stop-opacity="1"></stop><stop offset="80%" stop-color="#ffcd81" stop-opacity="1"></stop></linearGradient></defs><defs><linearGradient id="grad2_6" x1="0%" y1="0%" x2="66.7%" y2="100%"><stop offset="20%" stop-color="#ffd596" stop-opacity="1"></stop><stop offset="80%" stop-color="#ffdeab" stop-opacity="1"></stop></linearGradient></defs><defs><linearGradient id="grad2_7" x1="0%" y1="0%" x2="66.7%" y2="100%"><stop offset="20%" stop-color="#ffe6c0" stop-opacity="1"></stop><stop offset="80%" stop-color="#ffdeab" stop-opacity="1"></stop></linearGradient></defs><g transform="translate(1920, 0)"><path d="M0 1038.4C-121.9 1000 -243.9 961.5 -381.5 921.1C-519.2 880.7 -672.7 838.3 -734.3 734.3C-795.9 630.2 -765.6 464.4 -801 331.8C-836.4 199.1 -937.4 99.6 -1038.4 0L0 0Z" fill="#ffe2b5"></path><path d="M0 908.6C-106.7 875 -213.4 841.3 -333.8 806C-454.3 770.6 -588.6 733.5 -642.5 642.5C-696.4 551.4 -669.9 406.4 -700.9 290.3C-731.8 174.2 -820.2 87.1 -908.6 0L0 0Z" fill="#ffd9a0"></path><path d="M0 778.8C-91.4 750 -182.9 721.1 -286.2 690.8C-389.4 660.5 -504.5 628.7 -550.7 550.7C-596.9 472.6 -574.2 348.3 -600.8 248.8C-627.3 149.3 -703 74.7 -778.8 0L0 0Z" fill="#ffd18b"></path><path d="M0 649C-76.2 625 -152.4 600.9 -238.5 575.7C-324.5 550.4 -420.4 524 -458.9 458.9C-497.4 393.9 -478.5 290.3 -500.6 207.4C-522.7 124.5 -585.9 62.2 -649 0L0 0Z" fill="#ffc877"></path><path d="M0 519.2C-61 500 -121.9 480.8 -190.8 460.6C-259.6 440.3 -336.3 419.2 -367.1 367.1C-397.9 315.1 -382.8 232.2 -400.5 165.9C-418.2 99.6 -468.7 49.8 -519.2 0L0 0Z" fill="#ffbf61"></path><path d="M0 389.4C-45.7 375 -91.4 360.6 -143.1 345.4C-194.7 330.3 -252.2 314.4 -275.3 275.3C-298.4 236.3 -287.1 174.2 -300.4 124.4C-313.6 74.7 -351.5 37.3 -389.4 0L0 0Z" fill="#ffb64c"></path><path d="M0 259.6C-30.5 250 -61 240.4 -95.4 230.3C-129.8 220.2 -168.2 209.6 -183.6 183.6C-199 157.5 -191.4 116.1 -200.3 82.9C-209.1 49.8 -234.3 24.9 -259.6 0L0 0Z" fill="#ffad33"></path><path d="M0 129.8C-15.2 125 -30.5 120.2 -47.7 115.1C-64.9 110.1 -84.1 104.8 -91.8 91.8C-99.5 78.8 -95.7 58.1 -100.1 41.5C-104.5 24.9 -117.2 12.4 -129.8 0L0 0Z" fill="#ffa825"></path></g><g transform="translate(0, 1280)"><path d="M0 -1038.4C155.5 -1042.5 311.1 -1046.7 397.4 -959.4C483.7 -872 500.8 -693.3 594.7 -594.7C688.6 -496.1 859.3 -477.6 946.1 -391.9C1032.8 -306.1 1035.6 -153.1 1038.4 0L0 0Z" fill="#ffe2b5"></path><path d="M0 -908.6C136.1 -912.2 272.2 -915.8 347.7 -839.4C423.2 -763 438.2 -606.6 520.3 -520.3C602.5 -434.1 751.9 -417.9 827.8 -342.9C903.7 -267.8 906.2 -133.9 908.6 0L0 0Z" fill="#ffd9a0"></path><path d="M0 -778.8C116.7 -781.9 233.3 -785 298 -719.5C362.8 -654 375.6 -520 446 -446C516.4 -372.1 644.5 -358.2 709.5 -293.9C774.6 -229.6 776.7 -114.8 778.8 0L0 0Z" fill="#ffd18b"></path><path d="M0 -649C97.2 -651.6 194.4 -654.2 248.4 -599.6C302.3 -545 313 -433.3 371.7 -371.7C430.4 -310 537.1 -298.5 591.3 -244.9C645.5 -191.3 647.3 -95.7 649 0L0 0Z" fill="#ffc877"></path><path d="M0 -519.2C77.8 -521.3 155.5 -523.3 198.7 -479.7C241.8 -436 250.4 -346.6 297.3 -297.3C344.3 -248 429.6 -238.8 473 -195.9C516.4 -153.1 517.8 -76.5 519.2 0L0 0Z" fill="#ffbf61"></path><path d="M0 -389.4C58.3 -391 116.7 -392.5 149 -359.8C181.4 -327 187.8 -260 223 -223C258.2 -186 322.2 -179.1 354.8 -147C387.3 -114.8 388.4 -57.4 389.4 0L0 0Z" fill="#ffb64c"></path><path d="M0 -259.6C38.9 -260.6 77.8 -261.7 99.3 -239.8C120.9 -218 125.2 -173.3 148.7 -148.7C172.1 -124 214.8 -119.4 236.5 -98C258.2 -76.5 258.9 -38.3 259.6 0L0 0Z" fill="#ffad33"></path><path d="M0 -129.8C19.4 -130.3 38.9 -130.8 49.7 -119.9C60.5 -109 62.6 -86.7 74.3 -74.3C86.1 -62 107.4 -59.7 118.3 -49C129.1 -38.3 129.5 -19.1 129.8 0L0 0Z" fill="#ffa825"></path></g></svg>