<svg id="visual" viewBox="0 0 1920 1280" width="1920" height="1280" xmlns="http://www.w3.org/2000/svg" xmlns:xlink="http://www.w3.org/1999/xlink" version="1.1"><rect x="0" y="0" width="1920" height="1280" fill="#d3d3d3"></rect><defs><linearGradient id="grad1_0" x1="33.3%" y1="0%" x2="100%" y2="100%"><stop offset="20%" stop-color="#363636" stop-opacity="1"></stop><stop offset="80%" stop-color="#363636" stop-opacity="1"></stop></linearGradient></defs><defs><linearGradient id="grad1_1" x1="33.3%" y1="0%" x2="100%" y2="100%"><stop offset="20%" stop-color="#363636" stop-opacity="1"></stop><stop offset="80%" stop-color="#4a4a4a" stop-opacity="1"></stop></linearGradient></defs><defs><linearGradient id="grad1_2" x1="33.3%" y1="0%" x2="100%" y2="100%"><stop offset="20%" stop-color="#5f5f5f" stop-opacity="1"></stop><stop offset="80%" stop-color="#4a4a4a" stop-opacity="1"></stop></linearGradient></defs><defs><linearGradient id="grad1_3" x1="33.3%" y1="0%" x2="100%" y2="100%"><stop offset="20%" stop-color="#5f5f5f" stop-opacity="1"></stop><stop offset="80%" stop-color="#757575" stop-opacity="1"></stop></linearGradient></defs><defs><linearGradient id="grad1_4" x1="33.3%" y1="0%" x2="100%" y2="100%"><stop offset="20%" stop-color="#8b8b8b" stop-opacity="1"></stop><stop offset="80%" stop-color="#757575" stop-opacity="1"></stop></linearGradient></defs><defs><linearGradient id="grad1_5" x1="33.3%" y1="0%" x2="100%" y2="100%"><stop offset="20%" stop-color="#8b8b8b" stop-opacity="1"></stop><stop offset="80%" stop-color="#a3a3a3" stop-opacity="1"></stop></linearGradient></defs><defs><linearGradient id="grad1_6" x1="33.3%" y1="0%" x2="100%" y2="100%"><stop offset="20%" stop-color="#bbbbbb" stop-opacity="1"></stop><stop offset="80%" stop-color="#a3a3a3" stop-opacity="1"></stop></linearGradient></defs><defs><linearGradient id="grad1_7" x1="33.3%" y1="0%" x2="100%" y2="100%"><stop offset="20%" stop-color="#bbbbbb" stop-opacity="1"></stop><stop offset="80%" stop-color="#d3d3d3" stop-opacity="1"></stop></linearGradient></defs><defs><linearGradient id="grad2_0" x1="0%" y1="0%" x2="66.7%" y2="100%"><stop offset="20%" stop-color="#363636" stop-opacity="1"></stop><stop offset="80%" stop-color="#363636" stop-opacity="1"></stop></linearGradient></defs><defs><linearGradient id="grad2_1" x1="0%" y1="0%" x2="66.7%" y2="100%"><stop offset="20%" stop-color="#4a4a4a" stop-opacity="1"></stop><stop offset="80%" stop-color="#363636" stop-opacity="1"></stop></linearGradient></defs><defs><linearGradient id="grad2_2" x1="0%" y1="0%" x2="66.7%" y2="100%"><stop offset="20%" stop-color="#4a4a4a" stop-opacity="1"></stop><stop offset="80%" stop-color="#5f5f5f" stop-opacity="1"></stop></linearGradient></defs><defs><linearGradient id="grad2_3" x1="0%" y1="0%" x2="66.7%" y2="100%"><stop offset="20%" stop-color="#757575" stop-opacity="1"></stop><stop offset="80%" stop-color="#5f5f5f" stop-opacity="1"></stop></linearGradient></defs><defs><linearGradient id="grad2_4" x1="0%" y1="0%" x2="66.7%" y2="100%"><stop offset="20%" stop-color="#757575" stop-opacity="1"></stop><stop offset="80%" stop-color="#8b8b8b" stop-opacity="1"></stop></linearGradient></defs><defs><linearGradient id="grad2_5" x1="0%" y1="0%" x2="66.7%" y2="100%"><stop offset="20%" stop-color="#a3a3a3" stop-opacity="1"></stop><stop offset="80%" stop-color="#8b8b8b" stop-opacity="1"></stop></linearGradient></defs><defs><linearGradient id="grad2_6" x1="0%" y1="0%" x2="66.7%" y2="100%"><stop offset="20%" stop-color="#a3a3a3" stop-opacity="1"></stop><stop offset="80%" stop-color="#bbbbbb" stop-opacity="1"></stop></linearGradient></defs><defs><linearGradient id="grad2_7" x1="0%" y1="0%" x2="66.7%" y2="100%"><stop offset="20%" stop-color="#d3d3d3" stop-opacity="1"></stop><stop offset="80%" stop-color="#bbbbbb" stop-opacity="1"></stop></linearGradient></defs><g transform="translate(1920, 0)"><path d="M0 1038.4C-127.8 977.6 -255.5 916.7 -348.6 841.7C-441.7 766.6 -500.1 677.3 -609.5 609.5C-718.9 541.7 -879.4 495.4 -959.4 397.4C-1039.3 299.4 -1038.9 149.7 -1038.4 0L0 0Z" fill="#c7c7c7"></path><path d="M0 908.6C-111.8 855.4 -223.6 802.1 -305 736.4C-386.5 670.8 -437.6 592.7 -533.3 533.3C-629.1 474 -769.5 433.5 -839.4 347.7C-909.4 261.9 -909 131 -908.6 0L0 0Z" fill="#afafaf"></path><path d="M0 778.8C-95.8 733.2 -191.7 687.5 -261.5 631.2C-331.3 574.9 -375.1 508 -457.1 457.1C-539.2 406.3 -659.5 371.5 -719.5 298C-779.5 224.5 -779.2 112.3 -778.8 0L0 0Z" fill="#979797"></path><path d="M0 649C-79.9 611 -159.7 572.9 -217.9 526C-276.1 479.1 -312.6 423.3 -381 381C-449.3 338.6 -549.6 309.6 -599.6 248.4C-649.6 187.1 -649.3 93.6 -649 0L0 0Z" fill="#808080"></path><path d="M0 519.2C-63.9 488.8 -127.8 458.4 -174.3 420.8C-220.9 383.3 -250.1 338.7 -304.8 304.8C-359.5 270.9 -439.7 247.7 -479.7 198.7C-519.7 149.7 -519.4 74.8 -519.2 0L0 0Z" fill="#6a6a6a"></path><path d="M0 389.4C-47.9 366.6 -95.8 343.8 -130.7 315.6C-165.6 287.5 -187.5 254 -228.6 228.6C-269.6 203.1 -329.8 185.8 -359.8 149C-389.8 112.3 -389.6 56.1 -389.4 0L0 0Z" fill="#545454"></path><path d="M0 259.6C-31.9 244.4 -63.9 229.2 -87.2 210.4C-110.4 191.6 -125 169.3 -152.4 152.4C-179.7 135.4 -219.8 123.8 -239.8 99.3C-259.8 74.8 -259.7 37.4 -259.6 0L0 0Z" fill="#404040"></path><path d="M0 129.8C-16 122.2 -31.9 114.6 -43.6 105.2C-55.2 95.8 -62.5 84.7 -76.2 76.2C-89.9 67.7 -109.9 61.9 -119.9 49.7C-129.9 37.4 -129.9 18.7 -129.8 0L0 0Z" fill="#363636"></path></g><g transform="translate(0, 1280)"><path d="M0 -1038.4C141 -1031.5 282 -1024.5 397.4 -959.4C512.8 -894.2 602.7 -770.7 654.8 -654.8C706.9 -538.9 721.2 -430.5 778.8 -322.6C836.5 -214.7 937.4 -107.4 1038.4 0L0 0Z" fill="#c7c7c7"></path><path d="M0 -908.6C123.4 -902.5 246.7 -896.5 347.7 -839.4C448.7 -782.4 527.3 -674.4 572.9 -572.9C618.5 -471.5 631 -376.7 681.5 -282.3C731.9 -187.9 820.3 -93.9 908.6 0L0 0Z" fill="#afafaf"></path><path d="M0 -778.8C105.7 -773.6 211.5 -768.4 298 -719.5C384.6 -670.6 452 -578 491.1 -491.1C530.2 -404.1 540.9 -322.9 584.1 -242C627.4 -161 703.1 -80.5 778.8 0L0 0Z" fill="#979797"></path><path d="M0 -649C88.1 -644.7 176.2 -640.3 248.4 -599.6C320.5 -558.9 376.7 -481.7 409.2 -409.2C441.8 -336.8 450.7 -269 486.8 -201.6C522.8 -134.2 585.9 -67.1 649 0L0 0Z" fill="#808080"></path><path d="M0 -519.2C70.5 -515.7 141 -512.3 198.7 -479.7C256.4 -447.1 301.3 -385.4 327.4 -327.4C353.4 -269.4 360.6 -215.2 389.4 -161.3C418.2 -107.4 468.7 -53.7 519.2 0L0 0Z" fill="#6a6a6a"></path><path d="M0 -389.4C52.9 -386.8 105.7 -384.2 149 -359.8C192.3 -335.3 226 -289 245.5 -245.5C265.1 -202.1 270.4 -161.4 292.1 -121C313.7 -80.5 351.5 -40.3 389.4 0L0 0Z" fill="#545454"></path><path d="M0 -259.6C35.2 -257.9 70.5 -256.1 99.3 -239.8C128.2 -223.5 150.7 -192.7 163.7 -163.7C176.7 -134.7 180.3 -107.6 194.7 -80.7C209.1 -53.7 234.4 -26.8 259.6 0L0 0Z" fill="#404040"></path><path d="M0 -129.8C17.6 -128.9 35.2 -128.1 49.7 -119.9C64.1 -111.8 75.3 -96.3 81.8 -81.8C88.4 -67.4 90.1 -53.8 97.4 -40.3C104.6 -26.8 117.2 -13.4 129.8 0L0 0Z" fill="#363636"></path></g></svg>