<svg id="visual" viewBox="0 0 1920 1280" width="1920" height="1280" xmlns="http://www.w3.org/2000/svg" xmlns:xlink="http://www.w3.org/1999/xlink" version="1.1"><rect x="0" y="0" width="1920" height="1280" fill="#fdf4e5"></rect><defs><linearGradient id="grad1_0" x1="33.3%" y1="0%" x2="100%" y2="100%"><stop offset="20%" stop-color="#ffe1b4" stop-opacity="1"></stop><stop offset="80%" stop-color="#ffe1b4" stop-opacity="1"></stop></linearGradient></defs><defs><linearGradient id="grad1_1" x1="33.3%" y1="0%" x2="100%" y2="100%"><stop offset="20%" stop-color="#ffe1b4" stop-opacity="1"></stop><stop offset="80%" stop-color="#ffe4bb" stop-opacity="1"></stop></linearGradient></defs><defs><linearGradient id="grad1_2" x1="33.3%" y1="0%" x2="100%" y2="100%"><stop offset="20%" stop-color="#fee7c2" stop-opacity="1"></stop><stop offset="80%" stop-color="#ffe4bb" stop-opacity="1"></stop></linearGradient></defs><defs><linearGradient id="grad1_3" x1="33.3%" y1="0%" x2="100%" y2="100%"><stop offset="20%" stop-color="#fee7c2" stop-opacity="1"></stop><stop offset="80%" stop-color="#fee9c9" stop-opacity="1"></stop></linearGradient></defs><defs><linearGradient id="grad1_4" x1="33.3%" y1="0%" x2="100%" y2="100%"><stop offset="20%" stop-color="#feecd0" stop-opacity="1"></stop><stop offset="80%" stop-color="#fee9c9" stop-opacity="1"></stop></linearGradient></defs><defs><linearGradient id="grad1_5" x1="33.3%" y1="0%" x2="100%" y2="100%"><stop offset="20%" stop-color="#feecd0" stop-opacity="1"></stop><stop offset="80%" stop-color="#feefd7" stop-opacity="1"></stop></linearGradient></defs><defs><linearGradient id="grad1_6" x1="33.3%" y1="0%" x2="100%" y2="100%"><stop offset="20%" stop-color="#fdf1de" stop-opacity="1"></stop><stop offset="80%" stop-color="#feefd7" stop-opacity="1"></stop></linearGradient></defs><defs><linearGradient id="grad1_7" x1="33.3%" y1="0%" x2="100%" y2="100%"><stop offset="20%" stop-color="#fdf1de" stop-opacity="1"></stop><stop offset="80%" stop-color="#fdf4e5" stop-opacity="1"></stop></linearGradient></defs><defs><linearGradient id="grad2_0" x1="0%" y1="0%" x2="66.7%" y2="100%"><stop offset="20%" stop-color="#ffe1b4" stop-opacity="1"></stop><stop offset="80%" stop-color="#ffe1b4" stop-opacity="1"></stop></linearGradient></defs><defs><linearGradient id="grad2_1" x1="0%" y1="0%" x2="66.7%" y2="100%"><stop offset="20%" stop-color="#ffe4bb" stop-opacity="1"></stop><stop offset="80%" stop-color="#ffe1b4" stop-opacity="1"></stop></linearGradient></defs><defs><linearGradient id="grad2_2" x1="0%" y1="0%" x2="66.7%" y2="100%"><stop offset="20%" stop-color="#ffe4bb" stop-opacity="1"></stop><stop offset="80%" stop-color="#fee7c2" stop-opacity="1"></stop></linearGradient></defs><defs><linearGradient id="grad2_3" x1="0%" y1="0%" x2="66.7%" y2="100%"><stop offset="20%" stop-color="#fee9c9" stop-opacity="1"></stop><stop offset="80%" stop-color="#fee7c2" stop-opacity="1"></stop></linearGradient></defs><defs><linearGradient id="grad2_4" x1="0%" y1="0%" x2="66.7%" y2="100%"><stop offset="20%" stop-color="#fee9c9" stop-opacity="1"></stop><stop offset="80%" stop-color="#feecd0" stop-opacity="1"></stop></linearGradient></defs><defs><linearGradient id="grad2_5" x1="0%" y1="0%" x2="66.7%" y2="100%"><stop offset="20%" stop-color="#feefd7" stop-opacity="1"></stop><stop offset="80%" stop-color="#feecd0" stop-opacity="1"></stop></linearGradient></defs><defs><linearGradient id="grad2_6" x1="0%" y1="0%" x2="66.7%" y2="100%"><stop offset="20%" stop-color="#feefd7" stop-opacity="1"></stop><stop offset="80%" stop-color="#fdf1de" stop-opacity="1"></stop></linearGradient></defs><defs><linearGradient id="grad2_7" x1="0%" y1="0%" x2="66.7%" y2="100%"><stop offset="20%" stop-color="#fdf4e5" stop-opacity="1"></stop><stop offset="80%" stop-color="#fdf1de" stop-opacity="1"></stop></linearGradient></defs><g transform="translate(1920, 0)"><path d="M0 1038.4C-130 990.8 -260 943.2 -363.2 876.8C-466.3 810.3 -542.6 725 -648.4 648.4C-754.2 571.8 -889.4 504 -959.4 397.4C-1029.3 290.8 -1033.8 145.4 -1038.4 0L0 0Z" fill="#fdf3e1"></path><path d="M0 908.6C-113.8 867 -227.5 825.3 -317.8 767.2C-408 709 -474.8 634.4 -567.4 567.4C-659.9 500.4 -778.3 441 -839.4 347.7C-900.6 254.4 -904.6 127.2 -908.6 0L0 0Z" fill="#fdf0da"></path><path d="M0 778.8C-97.5 743.1 -195 707.4 -272.4 657.6C-349.7 607.7 -407 543.7 -486.3 486.3C-565.6 428.9 -667.1 378 -719.5 298C-771.9 218.1 -775.4 109 -778.8 0L0 0Z" fill="#feedd3"></path><path d="M0 649C-81.3 619.3 -162.5 589.5 -227 548C-291.5 506.4 -339.1 453.1 -405.3 405.3C-471.4 357.4 -555.9 315 -599.6 248.4C-643.3 181.7 -646.1 90.9 -649 0L0 0Z" fill="#feebcc"></path><path d="M0 519.2C-65 495.4 -130 471.6 -181.6 438.4C-233.2 405.2 -271.3 362.5 -324.2 324.2C-377.1 285.9 -444.7 252 -479.7 198.7C-514.6 145.4 -516.9 72.7 -519.2 0L0 0Z" fill="#fee8c5"></path><path d="M0 389.4C-48.8 371.6 -97.5 353.7 -136.2 328.8C-174.9 303.9 -203.5 271.9 -243.2 243.2C-282.8 214.4 -333.5 189 -359.8 149C-386 109 -387.7 54.5 -389.4 0L0 0Z" fill="#ffe5be"></path><path d="M0 259.6C-32.5 247.7 -65 235.8 -90.8 219.2C-116.6 202.6 -135.7 181.2 -162.1 162.1C-188.5 143 -222.4 126 -239.8 99.3C-257.3 72.7 -258.5 36.3 -259.6 0L0 0Z" fill="#ffe2b7"></path><path d="M0 129.8C-16.3 123.9 -32.5 117.9 -45.4 109.6C-58.3 101.3 -67.8 90.6 -81.1 81.1C-94.3 71.5 -111.2 63 -119.9 49.7C-128.7 36.3 -129.2 18.2 -129.8 0L0 0Z" fill="#ffe1b4"></path></g><g transform="translate(0, 1280)"><path d="M0 -1038.4C121.3 -971.7 242.6 -905 349.4 -843.5C456.2 -782.1 548.4 -725.9 657.6 -657.6C766.8 -589.3 893.1 -509 959.4 -397.4C1025.7 -285.8 1032 -142.9 1038.4 0L0 0Z" fill="#fdf3e1"></path><path d="M0 -908.6C106.1 -850.2 212.3 -791.8 305.7 -738.1C399.1 -684.3 479.8 -635.1 575.4 -575.4C671 -515.7 781.4 -445.4 839.4 -347.7C897.4 -250 903 -125 908.6 0L0 0Z" fill="#fdf0da"></path><path d="M0 -778.8C91 -728.8 182 -678.7 262 -632.6C342.1 -586.5 411.3 -544.4 493.2 -493.2C575.1 -442 669.8 -381.7 719.5 -298C769.2 -214.3 774 -107.2 778.8 0L0 0Z" fill="#feedd3"></path><path d="M0 -649C75.8 -607.3 151.6 -565.6 218.4 -527.2C285.1 -488.8 342.7 -453.7 411 -411C479.3 -368.3 558.2 -318.1 599.6 -248.4C641 -178.6 645 -89.3 649 0L0 0Z" fill="#feebcc"></path><path d="M0 -519.2C60.7 -485.8 121.3 -452.5 174.7 -421.8C228.1 -391 274.2 -362.9 328.8 -328.8C383.4 -294.7 446.5 -254.5 479.7 -198.7C512.8 -142.9 516 -71.4 519.2 0L0 0Z" fill="#fee8c5"></path><path d="M0 -389.4C45.5 -364.4 91 -339.4 131 -316.3C171.1 -293.3 205.6 -272.2 246.6 -246.6C287.6 -221 334.9 -190.9 359.8 -149C384.6 -107.2 387 -53.6 389.4 0L0 0Z" fill="#ffe5be"></path><path d="M0 -259.6C30.3 -242.9 60.7 -226.2 87.3 -210.9C114 -195.5 137.1 -181.5 164.4 -164.4C191.7 -147.3 223.3 -127.2 239.8 -99.3C256.4 -71.4 258 -35.7 259.6 0L0 0Z" fill="#ffe2b7"></path><path d="M0 -129.8C15.2 -121.5 30.3 -113.1 43.7 -105.4C57 -97.8 68.5 -90.7 82.2 -82.2C95.9 -73.7 111.6 -63.6 119.9 -49.7C128.2 -35.7 129 -17.9 129.8 0L0 0Z" fill="#ffe1b4"></path></g></svg>