<svg id="visual" viewBox="0 0 1920 1280" width="1920" height="1280" xmlns="http://www.w3.org/2000/svg" xmlns:xlink="http://www.w3.org/1999/xlink" version="1.1"><path d="M1689 1280L1823 1280L1823 1224L1842 1224L1842 1169L1727 1169L1727 1113L1689 1113L1689 1057L1842 1057L1842 1002L1765 1002L1765 946L1842 946L1842 890L1708 890L1708 835L1785 835L1785 779L1842 779L1842 723L1861 723L1861 668L1746 668L1746 612L1785 612L1785 557L1823 557L1823 501L1900 501L1900 445L1746 445L1746 390L1823 390L1823 334L1708 334L1708 278L1746 278L1746 223L1900 223L1900 167L1900 167L1900 111L1842 111L1842 56L1708 56L1708 0L1920 0L1920 56L1920 56L1920 111L1920 111L1920 167L1920 167L1920 223L1920 223L1920 278L1920 278L1920 334L1920 334L1920 390L1920 390L1920 445L1920 445L1920 501L1920 501L1920 557L1920 557L1920 612L1920 612L1920 668L1920 668L1920 723L1920 723L1920 779L1920 779L1920 835L1920 835L1920 890L1920 890L1920 946L1920 946L1920 1002L1920 1002L1920 1057L1920 1057L1920 1113L1920 1113L1920 1169L1920 1169L1920 1224L1920 1224L1920 1280L1920 1280Z" fill="#6048f7"></path><path d="M1420 1280L1516 1280L1516 1224L1727 1224L1727 1169L1708 1169L1708 1113L1593 1113L1593 1057L1497 1057L1497 1002L1554 1002L1554 946L1689 946L1689 890L1439 890L1439 835L1785 835L1785 779L1842 779L1842 723L1516 723L1516 668L1708 668L1708 612L1516 612L1516 557L1631 557L1631 501L1516 501L1516 445L1746 445L1746 390L1477 390L1477 334L1420 334L1420 278L1458 278L1458 223L1669 223L1669 167L1689 167L1689 111L1746 111L1746 56L1381 56L1381 0L1709 0L1709 56L1843 56L1843 111L1901 111L1901 167L1901 167L1901 223L1747 223L1747 278L1709 278L1709 334L1824 334L1824 390L1747 390L1747 445L1901 445L1901 501L1824 501L1824 557L1786 557L1786 612L1747 612L1747 668L1862 668L1862 723L1843 723L1843 779L1786 779L1786 835L1709 835L1709 890L1843 890L1843 946L1766 946L1766 1002L1843 1002L1843 1057L1690 1057L1690 1113L1728 1113L1728 1169L1843 1169L1843 1224L1824 1224L1824 1280L1690 1280Z" fill="#705af6"></path><path d="M1420 1280L1458 1280L1458 1224L1593 1224L1593 1169L1554 1169L1554 1113L1554 1113L1554 1057L1497 1057L1497 1002L1516 1002L1516 946L1669 946L1669 890L1305 890L1305 835L1650 835L1650 779L1689 779L1689 723L1497 723L1497 668L1689 668L1689 612L1477 612L1477 557L1497 557L1497 501L1516 501L1516 445L1650 445L1650 390L1420 390L1420 334L1420 334L1420 278L1285 278L1285 223L1631 223L1631 167L1535 167L1535 111L1593 111L1593 56L1228 56L1228 0L1382 0L1382 56L1747 56L1747 111L1690 111L1690 167L1670 167L1670 223L1459 223L1459 278L1421 278L1421 334L1478 334L1478 390L1747 390L1747 445L1517 445L1517 501L1632 501L1632 557L1517 557L1517 612L1709 612L1709 668L1517 668L1517 723L1843 723L1843 779L1786 779L1786 835L1440 835L1440 890L1690 890L1690 946L1555 946L1555 1002L1498 1002L1498 1057L1594 1057L1594 1113L1709 1113L1709 1169L1728 1169L1728 1224L1517 1224L1517 1280L1421 1280Z" fill="#7e6bf5"></path><path d="M1324 1280L1362 1280L1362 1224L1573 1224L1573 1169L1554 1169L1554 1113L1477 1113L1477 1057L1362 1057L1362 1002L1439 1002L1439 946L1554 946L1554 890L1285 890L1285 835L1631 835L1631 779L1593 779L1593 723L1381 723L1381 668L1535 668L1535 612L1362 612L1362 557L1401 557L1401 501L1420 501L1420 445L1612 445L1612 390L1305 390L1305 334L1305 334L1305 278L1285 278L1285 223L1573 223L1573 167L1477 167L1477 111L1535 111L1535 56L1209 56L1209 0L1229 0L1229 56L1594 56L1594 111L1536 111L1536 167L1632 167L1632 223L1286 223L1286 278L1421 278L1421 334L1421 334L1421 390L1651 390L1651 445L1517 445L1517 501L1498 501L1498 557L1478 557L1478 612L1690 612L1690 668L1498 668L1498 723L1690 723L1690 779L1651 779L1651 835L1306 835L1306 890L1670 890L1670 946L1517 946L1517 1002L1498 1002L1498 1057L1555 1057L1555 1113L1555 1113L1555 1169L1594 1169L1594 1224L1459 1224L1459 1280L1421 1280Z" fill="#8c7bf4"></path><path d="M1228 1280L1324 1280L1324 1224L1420 1224L1420 1169L1535 1169L1535 1113L1324 1113L1324 1057L1324 1057L1324 1002L1439 1002L1439 946L1381 946L1381 890L1247 890L1247 835L1497 835L1497 779L1439 779L1439 723L1305 723L1305 668L1477 668L1477 612L1266 612L1266 557L1247 557L1247 501L1324 501L1324 445L1439 445L1439 390L1285 390L1285 334L1228 334L1228 278L1113 278L1113 223L1497 223L1497 167L1381 167L1381 111L1439 111L1439 56L1189 56L1189 0L1210 0L1210 56L1536 56L1536 111L1478 111L1478 167L1574 167L1574 223L1286 223L1286 278L1306 278L1306 334L1306 334L1306 390L1613 390L1613 445L1421 445L1421 501L1402 501L1402 557L1363 557L1363 612L1536 612L1536 668L1382 668L1382 723L1594 723L1594 779L1632 779L1632 835L1286 835L1286 890L1555 890L1555 946L1440 946L1440 1002L1363 1002L1363 1057L1478 1057L1478 1113L1555 1113L1555 1169L1574 1169L1574 1224L1363 1224L1363 1280L1325 1280Z" fill="#9a8cf2"></path><path d="M1074 1280L1151 1280L1151 1224L671 1224L671 1169L1324 1169L1324 1113L498 1113L498 1057L940 1057L940 1002L959 1002L959 946L1151 946L1151 890L1074 890L1074 835L1420 835L1420 779L1209 779L1209 723L921 723L921 668L921 668L921 612L805 612L805 557L1055 557L1055 501L575 501L575 445L997 445L997 390L537 390L537 334L844 334L844 278L767 278L767 223L1439 223L1439 167L421 167L421 111L978 111L978 56L1017 56L1017 0L1190 0L1190 56L1440 56L1440 111L1382 111L1382 167L1498 167L1498 223L1114 223L1114 278L1229 278L1229 334L1286 334L1286 390L1440 390L1440 445L1325 445L1325 501L1248 501L1248 557L1267 557L1267 612L1478 612L1478 668L1306 668L1306 723L1440 723L1440 779L1498 779L1498 835L1248 835L1248 890L1382 890L1382 946L1440 946L1440 1002L1325 1002L1325 1057L1325 1057L1325 1113L1536 1113L1536 1169L1421 1169L1421 1224L1325 1224L1325 1280L1229 1280Z" fill="#9f92f1"></path><path d="M537 1280L767 1280L767 1224L537 1224L537 1169L882 1169L882 1113L441 1113L441 1057L556 1057L556 1002L441 1002L441 946L901 946L901 890L709 890L709 835L748 835L748 779L633 779L633 723L613 723L613 668L825 668L825 612L767 612L767 557L556 557L556 501L306 501L306 445L441 445L441 390L517 390L517 334L306 334L306 278L498 278L498 223L1036 223L1036 167L345 167L345 111L671 111L671 56L460 56L460 0L1018 0L1018 56L979 56L979 111L422 111L422 167L1440 167L1440 223L768 223L768 278L845 278L845 334L538 334L538 390L998 390L998 445L576 445L576 501L1056 501L1056 557L806 557L806 612L922 612L922 668L922 668L922 723L1210 723L1210 779L1421 779L1421 835L1075 835L1075 890L1152 890L1152 946L960 946L960 1002L941 1002L941 1057L499 1057L499 1113L1325 1113L1325 1169L672 1169L672 1224L1152 1224L1152 1280L1075 1280Z" fill="#9f92f1"></path><path d="M441 1280L575 1280L575 1224L537 1224L537 1169L671 1169L671 1113L306 1113L306 1057L364 1057L364 1002L325 1002L325 946L805 946L805 890L517 890L517 835L729 835L729 779L460 779L460 723L537 723L537 668L690 668L690 612L517 612L517 557L402 557L402 501L210 501L210 445L249 445L249 390L498 390L498 334L210 334L210 278L345 278L345 223L882 223L882 167L325 167L325 111L537 111L537 56L249 56L249 0L461 0L461 56L672 56L672 111L346 111L346 167L1037 167L1037 223L499 223L499 278L307 278L307 334L518 334L518 390L442 390L442 445L307 445L307 501L557 501L557 557L768 557L768 612L826 612L826 668L614 668L614 723L634 723L634 779L749 779L749 835L710 835L710 890L902 890L902 946L442 946L442 1002L557 1002L557 1057L442 1057L442 1113L883 1113L883 1169L538 1169L538 1224L768 1224L768 1280L538 1280Z" fill="#9a8cf2"></path><path d="M306 1280L383 1280L383 1224L537 1224L537 1169L613 1169L613 1113L287 1113L287 1057L364 1057L364 1002L325 1002L325 946L613 946L613 890L441 890L441 835L729 835L729 779L441 779L441 723L325 723L325 668L575 668L575 612L460 612L460 557L383 557L383 501L172 501L172 445L191 445L191 390L402 390L402 334L153 334L153 278L268 278L268 223L767 223L767 167L249 167L249 111L383 111L383 56L249 56L249 0L250 0L250 56L538 56L538 111L326 111L326 167L883 167L883 223L346 223L346 278L211 278L211 334L499 334L499 390L250 390L250 445L211 445L211 501L403 501L403 557L518 557L518 612L691 612L691 668L538 668L538 723L461 723L461 779L730 779L730 835L518 835L518 890L806 890L806 946L326 946L326 1002L365 1002L365 1057L307 1057L307 1113L672 1113L672 1169L538 1169L538 1224L576 1224L576 1280L442 1280Z" fill="#8c7bf4"></path><path d="M114 1280L191 1280L191 1224L172 1224L172 1169L114 1169L114 1113L95 1113L95 1057L364 1057L364 1002L191 1002L191 946L268 946L268 890L287 890L287 835L325 835L325 779L306 779L306 723L18 723L18 668L95 668L95 612L153 612L153 557L114 557L114 501L95 501L95 445L76 445L76 390L402 390L402 334L95 334L95 278L153 278L153 223L421 223L421 167L153 167L153 111L268 111L268 56L249 56L249 0L250 0L250 56L384 56L384 111L250 111L250 167L768 167L768 223L269 223L269 278L154 278L154 334L403 334L403 390L192 390L192 445L173 445L173 501L384 501L384 557L461 557L461 612L576 612L576 668L326 668L326 723L442 723L442 779L730 779L730 835L442 835L442 890L614 890L614 946L326 946L326 1002L365 1002L365 1057L288 1057L288 1113L614 1113L614 1169L538 1169L538 1224L384 1224L384 1280L307 1280Z" fill="#7e6bf5"></path><path d="M57 1280L57 1280L57 1224L18 1224L18 1169L0 1169L0 1113L18 1113L18 1057L95 1057L95 1002L114 1002L114 946L37 946L37 890L76 890L76 835L37 835L37 779L114 779L114 723L18 723L18 668L0 668L0 612L114 612L114 557L0 557L0 501L18 501L18 445L76 445L76 390L153 390L153 334L18 334L18 278L0 278L0 223L153 223L153 167L18 167L18 111L95 111L95 56L0 56L0 0L250 0L250 56L269 56L269 111L154 111L154 167L422 167L422 223L154 223L154 278L96 278L96 334L403 334L403 390L77 390L77 445L96 445L96 501L115 501L115 557L154 557L154 612L96 612L96 668L19 668L19 723L307 723L307 779L326 779L326 835L288 835L288 890L269 890L269 946L192 946L192 1002L365 1002L365 1057L96 1057L96 1113L115 1113L115 1169L173 1169L173 1224L192 1224L192 1280L115 1280Z" fill="#705af6"></path><path d="M0 1280L0 1280L0 1224L0 1224L0 1169L0 1169L0 1113L0 1113L0 1057L0 1057L0 1002L0 1002L0 946L0 946L0 890L0 890L0 835L0 835L0 779L0 779L0 723L0 723L0 668L0 668L0 612L0 612L0 557L0 557L0 501L0 501L0 445L0 445L0 390L0 390L0 334L0 334L0 278L0 278L0 223L0 223L0 167L0 167L0 111L0 111L0 56L0 56L0 0L0 0L0 56L96 56L96 111L19 111L19 167L154 167L154 223L0 223L0 278L19 278L19 334L154 334L154 390L77 390L77 445L19 445L19 501L0 501L0 557L115 557L115 612L0 612L0 668L19 668L19 723L115 723L115 779L38 779L38 835L77 835L77 890L38 890L38 946L115 946L115 1002L96 1002L96 1057L19 1057L19 1113L0 1113L0 1169L19 1169L19 1224L58 1224L58 1280L58 1280Z" fill="#6048f7"></path></svg>