<svg id="visual" viewBox="0 0 1920 1280" width="1920" height="1280" xmlns="http://www.w3.org/2000/svg" xmlns:xlink="http://www.w3.org/1999/xlink" version="1.1"><path d="M1765 1280L1765 1280L1765 1224L1785 1224L1785 1169L1861 1169L1861 1113L1746 1113L1746 1057L1823 1057L1823 1002L1919 1002L1919 946L1861 946L1861 890L1861 890L1861 835L1881 835L1881 779L1842 779L1842 723L1881 723L1881 668L1804 668L1804 612L1919 612L1919 557L1861 557L1861 501L1746 501L1746 445L1881 445L1881 390L1919 390L1919 334L1861 334L1861 278L1842 278L1842 223L1861 223L1861 167L1900 167L1900 111L1823 111L1823 56L1746 56L1746 0L1920 0L1920 56L1920 56L1920 111L1920 111L1920 167L1920 167L1920 223L1920 223L1920 278L1920 278L1920 334L1920 334L1920 390L1920 390L1920 445L1920 445L1920 501L1920 501L1920 557L1920 557L1920 612L1920 612L1920 668L1920 668L1920 723L1920 723L1920 779L1920 779L1920 835L1920 835L1920 890L1920 890L1920 946L1920 946L1920 1002L1920 1002L1920 1057L1920 1057L1920 1113L1920 1113L1920 1169L1920 1169L1920 1224L1920 1224L1920 1280L1920 1280Z" fill="#218ee8"></path><path d="M1631 1280L1573 1280L1573 1224L1266 1224L1266 1169L1842 1169L1842 1113L1554 1113L1554 1057L1746 1057L1746 1002L1612 1002L1612 946L1669 946L1669 890L1650 890L1650 835L1861 835L1861 779L1689 779L1689 723L1727 723L1727 668L1708 668L1708 612L1669 612L1669 557L1804 557L1804 501L1746 501L1746 445L1881 445L1881 390L1593 390L1593 334L1765 334L1765 278L1804 278L1804 223L1650 223L1650 167L1708 167L1708 111L1765 111L1765 56L1516 56L1516 0L1747 0L1747 56L1824 56L1824 111L1901 111L1901 167L1862 167L1862 223L1843 223L1843 278L1862 278L1862 334L1920 334L1920 390L1882 390L1882 445L1747 445L1747 501L1862 501L1862 557L1920 557L1920 612L1805 612L1805 668L1882 668L1882 723L1843 723L1843 779L1882 779L1882 835L1862 835L1862 890L1862 890L1862 946L1920 946L1920 1002L1824 1002L1824 1057L1747 1057L1747 1113L1862 1113L1862 1169L1786 1169L1786 1224L1766 1224L1766 1280L1766 1280Z" fill="#439ceb"></path><path d="M1477 1280L1458 1280L1458 1224L1151 1224L1151 1169L1631 1169L1631 1113L1362 1113L1362 1057L1669 1057L1669 1002L1477 1002L1477 946L1669 946L1669 890L1612 890L1612 835L1746 835L1746 779L1669 779L1669 723L1689 723L1689 668L1573 668L1573 612L1669 612L1669 557L1689 557L1689 501L1727 501L1727 445L1669 445L1669 390L1477 390L1477 334L1612 334L1612 278L1669 278L1669 223L1554 223L1554 167L1689 167L1689 111L1631 111L1631 56L1458 56L1458 0L1517 0L1517 56L1766 56L1766 111L1709 111L1709 167L1651 167L1651 223L1805 223L1805 278L1766 278L1766 334L1594 334L1594 390L1882 390L1882 445L1747 445L1747 501L1805 501L1805 557L1670 557L1670 612L1709 612L1709 668L1728 668L1728 723L1690 723L1690 779L1862 779L1862 835L1651 835L1651 890L1670 890L1670 946L1613 946L1613 1002L1747 1002L1747 1057L1555 1057L1555 1113L1843 1113L1843 1169L1267 1169L1267 1224L1574 1224L1574 1280L1632 1280Z" fill="#5ea9ed"></path><path d="M1381 1280L1420 1280L1420 1224L1036 1224L1036 1169L1497 1169L1497 1113L1343 1113L1343 1057L1535 1057L1535 1002L1458 1002L1458 946L1573 946L1573 890L1535 890L1535 835L1669 835L1669 779L1593 779L1593 723L1650 723L1650 668L1420 668L1420 612L1631 612L1631 557L1535 557L1535 501L1727 501L1727 445L1593 445L1593 390L1458 390L1458 334L1554 334L1554 278L1535 278L1535 223L1420 223L1420 167L1593 167L1593 111L1573 111L1573 56L1439 56L1439 0L1459 0L1459 56L1632 56L1632 111L1690 111L1690 167L1555 167L1555 223L1670 223L1670 278L1613 278L1613 334L1478 334L1478 390L1670 390L1670 445L1728 445L1728 501L1690 501L1690 557L1670 557L1670 612L1574 612L1574 668L1690 668L1690 723L1670 723L1670 779L1747 779L1747 835L1613 835L1613 890L1670 890L1670 946L1478 946L1478 1002L1670 1002L1670 1057L1363 1057L1363 1113L1632 1113L1632 1169L1152 1169L1152 1224L1459 1224L1459 1280L1478 1280Z" fill="#77b7ef"></path><path d="M1324 1280L1362 1280L1362 1224L825 1224L825 1169L1266 1169L1266 1113L1343 1113L1343 1057L1420 1057L1420 1002L1401 1002L1401 946L1439 946L1439 890L1497 890L1497 835L1477 835L1477 779L1285 779L1285 723L1631 723L1631 668L1420 668L1420 612L1401 612L1401 557L1343 557L1343 501L1727 501L1727 445L1497 445L1497 390L1247 390L1247 334L1381 334L1381 278L1516 278L1516 223L1305 223L1305 167L1439 167L1439 111L1458 111L1458 56L1285 56L1285 0L1440 0L1440 56L1574 56L1574 111L1594 111L1594 167L1421 167L1421 223L1536 223L1536 278L1555 278L1555 334L1459 334L1459 390L1594 390L1594 445L1728 445L1728 501L1536 501L1536 557L1632 557L1632 612L1421 612L1421 668L1651 668L1651 723L1594 723L1594 779L1670 779L1670 835L1536 835L1536 890L1574 890L1574 946L1459 946L1459 1002L1536 1002L1536 1057L1344 1057L1344 1113L1498 1113L1498 1169L1037 1169L1037 1224L1421 1224L1421 1280L1382 1280Z" fill="#8ec4f0"></path><path d="M997 1280L767 1280L767 1224L441 1224L441 1169L921 1169L921 1113L863 1113L863 1057L825 1057L825 1002L1055 1002L1055 946L1439 946L1439 890L652 890L652 835L1151 835L1151 779L421 779L421 723L959 723L959 668L1209 668L1209 612L652 612L652 557L729 557L729 501L1497 501L1497 445L844 445L844 390L978 390L978 334L575 334L575 278L1132 278L1132 223L1305 223L1305 167L748 167L748 111L1017 111L1017 56L1266 56L1266 0L1286 0L1286 56L1459 56L1459 111L1440 111L1440 167L1306 167L1306 223L1517 223L1517 278L1382 278L1382 334L1248 334L1248 390L1498 390L1498 445L1728 445L1728 501L1344 501L1344 557L1402 557L1402 612L1421 612L1421 668L1632 668L1632 723L1286 723L1286 779L1478 779L1478 835L1498 835L1498 890L1440 890L1440 946L1402 946L1402 1002L1421 1002L1421 1057L1344 1057L1344 1113L1267 1113L1267 1169L826 1169L826 1224L1363 1224L1363 1280L1325 1280Z" fill="#98c9f1"></path><path d="M690 1280L441 1280L441 1224L268 1224L268 1169L364 1169L364 1113L633 1113L633 1057L786 1057L786 1002L652 1002L652 946L671 946L671 890L633 890L633 835L825 835L825 779L364 779L364 723L690 723L690 668L767 668L767 612L441 612L441 557L613 557L613 501L805 501L805 445L729 445L729 390L767 390L767 334L479 334L479 278L652 278L652 223L517 223L517 167L690 167L690 111L537 111L537 56L594 56L594 0L1267 0L1267 56L1018 56L1018 111L749 111L749 167L1306 167L1306 223L1133 223L1133 278L576 278L576 334L979 334L979 390L845 390L845 445L1498 445L1498 501L730 501L730 557L653 557L653 612L1210 612L1210 668L960 668L960 723L422 723L422 779L1152 779L1152 835L653 835L653 890L1440 890L1440 946L1056 946L1056 1002L826 1002L826 1057L864 1057L864 1113L922 1113L922 1169L442 1169L442 1224L768 1224L768 1280L998 1280Z" fill="#98c9f1"></path><path d="M633 1280L421 1280L421 1224L210 1224L210 1169L287 1169L287 1113L633 1113L633 1057L729 1057L729 1002L613 1002L613 946L594 946L594 890L556 890L556 835L805 835L805 779L345 779L345 723L652 723L652 668L671 668L671 612L325 612L325 557L594 557L594 501L729 501L729 445L671 445L671 390L652 390L652 334L383 334L383 278L633 278L633 223L441 223L441 167L690 167L690 111L517 111L517 56L498 56L498 0L595 0L595 56L538 56L538 111L691 111L691 167L518 167L518 223L653 223L653 278L480 278L480 334L768 334L768 390L730 390L730 445L806 445L806 501L614 501L614 557L442 557L442 612L768 612L768 668L691 668L691 723L365 723L365 779L826 779L826 835L634 835L634 890L672 890L672 946L653 946L653 1002L787 1002L787 1057L634 1057L634 1113L365 1113L365 1169L269 1169L269 1224L442 1224L442 1280L691 1280Z" fill="#8ec4f0"></path><path d="M345 1280L287 1280L287 1224L210 1224L210 1169L172 1169L172 1113L594 1113L594 1057L633 1057L633 1002L498 1002L498 946L345 946L345 890L441 890L441 835L537 835L537 779L133 779L133 723L479 723L479 668L402 668L402 612L325 612L325 557L383 557L383 501L517 501L517 445L383 445L383 390L421 390L421 334L114 334L114 278L517 278L517 223L229 223L229 167L517 167L517 111L306 111L306 56L402 56L402 0L499 0L499 56L518 56L518 111L691 111L691 167L442 167L442 223L634 223L634 278L384 278L384 334L653 334L653 390L672 390L672 445L730 445L730 501L595 501L595 557L326 557L326 612L672 612L672 668L653 668L653 723L346 723L346 779L806 779L806 835L557 835L557 890L595 890L595 946L614 946L614 1002L730 1002L730 1057L634 1057L634 1113L288 1113L288 1169L211 1169L211 1224L422 1224L422 1280L634 1280Z" fill="#77b7ef"></path><path d="M325 1280L249 1280L249 1224L114 1224L114 1169L153 1169L153 1113L402 1113L402 1057L441 1057L441 1002L460 1002L460 946L268 946L268 890L441 890L441 835L364 835L364 779L76 779L76 723L249 723L249 668L210 668L210 612L210 612L210 557L383 557L383 501L383 501L383 445L306 445L306 390L364 390L364 334L95 334L95 278L460 278L460 223L153 223L153 167L364 167L364 111L249 111L249 56L383 56L383 0L403 0L403 56L307 56L307 111L518 111L518 167L230 167L230 223L518 223L518 278L115 278L115 334L422 334L422 390L384 390L384 445L518 445L518 501L384 501L384 557L326 557L326 612L403 612L403 668L480 668L480 723L134 723L134 779L538 779L538 835L442 835L442 890L346 890L346 946L499 946L499 1002L634 1002L634 1057L595 1057L595 1113L173 1113L173 1169L211 1169L211 1224L288 1224L288 1280L346 1280Z" fill="#5ea9ed"></path><path d="M153 1280L95 1280L95 1224L57 1224L57 1169L133 1169L133 1113L18 1113L18 1057L114 1057L114 1002L133 1002L133 946L95 946L95 890L37 890L37 835L95 835L95 779L0 779L0 723L18 723L18 668L18 668L18 612L191 612L191 557L95 557L95 501L133 501L133 445L95 445L95 390L37 390L37 334L95 334L95 278L133 278L133 223L153 223L153 167L114 167L114 111L57 111L57 56L0 56L0 0L384 0L384 56L250 56L250 111L365 111L365 167L154 167L154 223L461 223L461 278L96 278L96 334L365 334L365 390L307 390L307 445L384 445L384 501L384 501L384 557L211 557L211 612L211 612L211 668L250 668L250 723L77 723L77 779L365 779L365 835L442 835L442 890L269 890L269 946L461 946L461 1002L442 1002L442 1057L403 1057L403 1113L154 1113L154 1169L115 1169L115 1224L250 1224L250 1280L326 1280Z" fill="#439ceb"></path><path d="M0 1280L0 1280L0 1224L0 1224L0 1169L0 1169L0 1113L0 1113L0 1057L0 1057L0 1002L0 1002L0 946L0 946L0 890L0 890L0 835L0 835L0 779L0 779L0 723L0 723L0 668L0 668L0 612L0 612L0 557L0 557L0 501L0 501L0 445L0 445L0 390L0 390L0 334L0 334L0 278L0 278L0 223L0 223L0 167L0 167L0 111L0 111L0 56L0 56L0 0L0 0L0 56L58 56L58 111L115 111L115 167L154 167L154 223L134 223L134 278L96 278L96 334L38 334L38 390L96 390L96 445L134 445L134 501L96 501L96 557L192 557L192 612L19 612L19 668L19 668L19 723L0 723L0 779L96 779L96 835L38 835L38 890L96 890L96 946L134 946L134 1002L115 1002L115 1057L19 1057L19 1113L134 1113L134 1169L58 1169L58 1224L96 1224L96 1280L154 1280Z" fill="#218ee8"></path></svg>