<svg id="visual" viewBox="0 0 1920 1280" width="1920" height="1280" xmlns="http://www.w3.org/2000/svg" xmlns:xlink="http://www.w3.org/1999/xlink" version="1.1"><path d="M0 347L24.7 364C49.3 381 98.7 415 147.8 402.2C197 389.3 246 329.7 295.2 319C344.3 308.3 393.7 346.7 443 363.7C492.3 380.7 541.7 376.3 590.8 359.3C640 342.3 689 312.7 738.2 297.8C787.3 283 836.7 283 886 310.7C935.3 338.3 984.7 393.7 1034 383C1083.3 372.3 1132.7 295.7 1181.8 253C1231 210.3 1280 201.7 1329.2 210.2C1378.3 218.7 1427.7 244.3 1477 276.3C1526.3 308.3 1575.7 346.7 1624.8 340.2C1674 333.7 1723 282.3 1772.2 265.3C1821.3 248.3 1870.7 265.7 1895.3 274.3L1920 283L1920 0L1895.3 0C1870.7 0 1821.3 0 1772.2 0C1723 0 1674 0 1624.8 0C1575.7 0 1526.3 0 1477 0C1427.7 0 1378.3 0 1329.2 0C1280 0 1231 0 1181.8 0C1132.7 0 1083.3 0 1034 0C984.7 0 935.3 0 886 0C836.7 0 787.3 0 738.2 0C689 0 640 0 590.8 0C541.7 0 492.3 0 443 0C393.7 0 344.3 0 295.2 0C246 0 197 0 147.8 0C98.7 0 49.3 0 24.7 0L0 0Z" fill="#be8128"></path><path d="M0 462L24.7 474.8C49.3 487.7 98.7 513.3 147.8 502.7C197 492 246 445 295.2 455.7C344.3 466.3 393.7 534.7 443 564.5C492.3 594.3 541.7 585.7 590.8 566.3C640 547 689 517 738.2 489.3C787.3 461.7 836.7 436.3 886 451.3C935.3 466.3 984.7 521.7 1034 521.7C1083.3 521.7 1132.7 466.3 1181.8 425.8C1231 385.3 1280 359.7 1329.2 357.5C1378.3 355.3 1427.7 376.7 1477 400.2C1526.3 423.7 1575.7 449.3 1624.8 440.8C1674 432.3 1723 389.7 1772.2 379C1821.3 368.3 1870.7 389.7 1895.3 400.3L1920 411L1920 281L1895.3 272.3C1870.7 263.7 1821.3 246.3 1772.2 263.3C1723 280.3 1674 331.7 1624.8 338.2C1575.7 344.7 1526.3 306.3 1477 274.3C1427.7 242.3 1378.3 216.7 1329.2 208.2C1280 199.7 1231 208.3 1181.8 251C1132.7 293.7 1083.3 370.3 1034 381C984.7 391.7 935.3 336.3 886 308.7C836.7 281 787.3 281 738.2 295.8C689 310.7 640 340.3 590.8 357.3C541.7 374.3 492.3 378.7 443 361.7C393.7 344.7 344.3 306.3 295.2 317C246 327.7 197 387.3 147.8 400.2C98.7 413 49.3 379 24.7 362L0 345Z" fill="#d69330"></path><path d="M0 564L24.7 587.5C49.3 611 98.7 658 147.8 647.3C197 636.7 246 568.3 295.2 564C344.3 559.7 393.7 619.3 443 651.3C492.3 683.3 541.7 687.7 590.8 681.3C640 675 689 658 738.2 626C787.3 594 836.7 547 886 562C935.3 577 984.7 654 1034 651.8C1083.3 649.7 1132.7 568.3 1181.8 527.7C1231 487 1280 487 1329.2 493.5C1378.3 500 1427.7 513 1477 525.8C1526.3 538.7 1575.7 551.3 1624.8 540.7C1674 530 1723 496 1772.2 483.2C1821.3 470.3 1870.7 478.7 1895.3 482.8L1920 487L1920 409L1895.3 398.3C1870.7 387.7 1821.3 366.3 1772.2 377C1723 387.7 1674 430.3 1624.8 438.8C1575.7 447.3 1526.3 421.7 1477 398.2C1427.7 374.7 1378.3 353.3 1329.2 355.5C1280 357.7 1231 383.3 1181.8 423.8C1132.7 464.3 1083.3 519.7 1034 519.7C984.7 519.7 935.3 464.3 886 449.3C836.7 434.3 787.3 459.7 738.2 487.3C689 515 640 545 590.8 564.3C541.7 583.7 492.3 592.3 443 562.5C393.7 532.7 344.3 464.3 295.2 453.7C246 443 197 490 147.8 500.7C98.7 511.3 49.3 485.7 24.7 472.8L0 460Z" fill="#efa638"></path><path d="M0 833L24.7 837.3C49.3 841.7 98.7 850.3 147.8 831.2C197 812 246 765 295.2 754.3C344.3 743.7 393.7 769.3 443 799.2C492.3 829 541.7 863 590.8 858.7C640 854.3 689 811.7 738.2 794.7C787.3 777.7 836.7 786.3 886 801.3C935.3 816.3 984.7 837.7 1034 822.7C1083.3 807.7 1132.7 756.3 1181.8 722.2C1231 688 1280 671 1329.2 686C1378.3 701 1427.7 748 1477 769.3C1526.3 790.7 1575.7 786.3 1624.8 777.7C1674 769 1723 756 1772.2 745.3C1821.3 734.7 1870.7 726.3 1895.3 722.2L1920 718L1920 485L1895.3 480.8C1870.7 476.7 1821.3 468.3 1772.2 481.2C1723 494 1674 528 1624.8 538.7C1575.7 549.3 1526.3 536.7 1477 523.8C1427.7 511 1378.3 498 1329.2 491.5C1280 485 1231 485 1181.8 525.7C1132.7 566.3 1083.3 647.7 1034 649.8C984.7 652 935.3 575 886 560C836.7 545 787.3 592 738.2 624C689 656 640 673 590.8 679.3C541.7 685.7 492.3 681.3 443 649.3C393.7 617.3 344.3 557.7 295.2 562C246 566.3 197 634.7 147.8 645.3C98.7 656 49.3 609 24.7 585.5L0 562Z" fill="#fdb449"></path><path d="M0 1025L24.7 1016.5C49.3 1008 98.7 991 147.8 954.7C197 918.3 246 862.7 295.2 858.3C344.3 854 393.7 901 443 937.3C492.3 973.7 541.7 999.3 590.8 984.5C640 969.7 689 914.3 738.2 893C787.3 871.7 836.7 884.3 886 899.2C935.3 914 984.7 931 1034 916C1083.3 901 1132.7 854 1181.8 834.8C1231 815.7 1280 824.3 1329.2 839.3C1378.3 854.3 1427.7 875.7 1477 897C1526.3 918.3 1575.7 939.7 1624.8 929C1674 918.3 1723 875.7 1772.2 865C1821.3 854.3 1870.7 875.7 1895.3 886.3L1920 897L1920 716L1895.3 720.2C1870.7 724.3 1821.3 732.7 1772.2 743.3C1723 754 1674 767 1624.8 775.7C1575.7 784.3 1526.3 788.7 1477 767.3C1427.7 746 1378.3 699 1329.2 684C1280 669 1231 686 1181.8 720.2C1132.7 754.3 1083.3 805.7 1034 820.7C984.7 835.7 935.3 814.3 886 799.3C836.7 784.3 787.3 775.7 738.2 792.7C689 809.7 640 852.3 590.8 856.7C541.7 861 492.3 827 443 797.2C393.7 767.3 344.3 741.7 295.2 752.3C246 763 197 810 147.8 829.2C98.7 848.3 49.3 839.7 24.7 835.3L0 831Z" fill="#febe62"></path><path d="M0 1281L24.7 1281C49.3 1281 98.7 1281 147.8 1281C197 1281 246 1281 295.2 1281C344.3 1281 393.7 1281 443 1281C492.3 1281 541.7 1281 590.8 1281C640 1281 689 1281 738.2 1281C787.3 1281 836.7 1281 886 1281C935.3 1281 984.7 1281 1034 1281C1083.3 1281 1132.7 1281 1181.8 1281C1231 1281 1280 1281 1329.2 1281C1378.3 1281 1427.7 1281 1477 1281C1526.3 1281 1575.7 1281 1624.8 1281C1674 1281 1723 1281 1772.2 1281C1821.3 1281 1870.7 1281 1895.3 1281L1920 1281L1920 895L1895.3 884.3C1870.7 873.7 1821.3 852.3 1772.2 863C1723 873.7 1674 916.3 1624.8 927C1575.7 937.7 1526.3 916.3 1477 895C1427.7 873.7 1378.3 852.3 1329.2 837.3C1280 822.3 1231 813.7 1181.8 832.8C1132.7 852 1083.3 899 1034 914C984.7 929 935.3 912 886 897.2C836.7 882.3 787.3 869.7 738.2 891C689 912.3 640 967.7 590.8 982.5C541.7 997.3 492.3 971.7 443 935.3C393.7 899 344.3 852 295.2 856.3C246 860.7 197 916.3 147.8 952.7C98.7 989 49.3 1006 24.7 1014.5L0 1023Z" fill="#ffc87a"></path></svg>