<svg id="visual" viewBox="0 0 1920 1280" width="1920" height="1280" xmlns="http://www.w3.org/2000/svg" xmlns:xlink="http://www.w3.org/1999/xlink" version="1.1"><path d="M1804 1280L1861 1280L1861 1224L1669 1224L1669 1169L1823 1169L1823 1113L1823 1113L1823 1057L1842 1057L1842 1002L1785 1002L1785 946L1708 946L1708 890L1689 890L1689 835L1650 835L1650 779L1727 779L1727 723L1650 723L1650 668L1785 668L1785 612L1823 612L1823 557L1881 557L1881 501L1881 501L1881 445L1765 445L1765 390L1689 390L1689 334L1900 334L1900 278L1861 278L1861 223L1669 223L1669 167L1842 167L1842 111L1785 111L1785 56L1669 56L1669 0L1920 0L1920 56L1920 56L1920 111L1920 111L1920 167L1920 167L1920 223L1920 223L1920 278L1920 278L1920 334L1920 334L1920 390L1920 390L1920 445L1920 445L1920 501L1920 501L1920 557L1920 557L1920 612L1920 612L1920 668L1920 668L1920 723L1920 723L1920 779L1920 779L1920 835L1920 835L1920 890L1920 890L1920 946L1920 946L1920 1002L1920 1002L1920 1057L1920 1057L1920 1113L1920 1113L1920 1169L1920 1169L1920 1224L1920 1224L1920 1280L1920 1280Z" fill="#42a892"></path><path d="M1497 1280L1381 1280L1381 1224L1477 1224L1477 1169L1669 1169L1669 1113L1497 1113L1497 1057L1535 1057L1535 1002L1765 1002L1765 946L1324 946L1324 890L1477 890L1477 835L1458 835L1458 779L1497 779L1497 723L1554 723L1554 668L1612 668L1612 612L1631 612L1631 557L1785 557L1785 501L1554 501L1554 445L1689 445L1689 390L1439 390L1439 334L1881 334L1881 278L1631 278L1631 223L1170 223L1170 167L1554 167L1554 111L1420 111L1420 56L1477 56L1477 0L1670 0L1670 56L1786 56L1786 111L1843 111L1843 167L1670 167L1670 223L1862 223L1862 278L1901 278L1901 334L1690 334L1690 390L1766 390L1766 445L1882 445L1882 501L1882 501L1882 557L1824 557L1824 612L1786 612L1786 668L1651 668L1651 723L1728 723L1728 779L1651 779L1651 835L1690 835L1690 890L1709 890L1709 946L1786 946L1786 1002L1843 1002L1843 1057L1824 1057L1824 1113L1824 1113L1824 1169L1670 1169L1670 1224L1862 1224L1862 1280L1805 1280Z" fill="#5cbba6"></path><path d="M1420 1280L1285 1280L1285 1224L1324 1224L1324 1169L1535 1169L1535 1113L1420 1113L1420 1057L1458 1057L1458 1002L1612 1002L1612 946L1285 946L1285 890L1439 890L1439 835L1362 835L1362 779L1343 779L1343 723L1535 723L1535 668L1554 668L1554 612L1458 612L1458 557L1708 557L1708 501L1516 501L1516 445L1612 445L1612 390L1362 390L1362 334L1708 334L1708 278L1631 278L1631 223L1113 223L1113 167L1381 167L1381 111L1228 111L1228 56L1420 56L1420 0L1478 0L1478 56L1421 56L1421 111L1555 111L1555 167L1171 167L1171 223L1632 223L1632 278L1882 278L1882 334L1440 334L1440 390L1690 390L1690 445L1555 445L1555 501L1786 501L1786 557L1632 557L1632 612L1613 612L1613 668L1555 668L1555 723L1498 723L1498 779L1459 779L1459 835L1478 835L1478 890L1325 890L1325 946L1766 946L1766 1002L1536 1002L1536 1057L1498 1057L1498 1113L1670 1113L1670 1169L1478 1169L1478 1224L1382 1224L1382 1280L1498 1280Z" fill="#75cfbb"></path><path d="M1343 1280L1151 1280L1151 1224L1228 1224L1228 1169L1516 1169L1516 1113L1266 1113L1266 1057L1381 1057L1381 1002L1573 1002L1573 946L1189 946L1189 890L1362 890L1362 835L1305 835L1305 779L1285 779L1285 723L1477 723L1477 668L1458 668L1458 612L1362 612L1362 557L1650 557L1650 501L1362 501L1362 445L1593 445L1593 390L1247 390L1247 334L1573 334L1573 278L1477 278L1477 223L1093 223L1093 167L1228 167L1228 111L1228 111L1228 56L1343 56L1343 0L1421 0L1421 56L1229 56L1229 111L1382 111L1382 167L1114 167L1114 223L1632 223L1632 278L1709 278L1709 334L1363 334L1363 390L1613 390L1613 445L1517 445L1517 501L1709 501L1709 557L1459 557L1459 612L1555 612L1555 668L1536 668L1536 723L1344 723L1344 779L1363 779L1363 835L1440 835L1440 890L1286 890L1286 946L1613 946L1613 1002L1459 1002L1459 1057L1421 1057L1421 1113L1536 1113L1536 1169L1325 1169L1325 1224L1286 1224L1286 1280L1421 1280Z" fill="#8ee3d0"></path><path d="M1189 1280L1132 1280L1132 1224L1151 1224L1151 1169L1343 1169L1343 1113L1228 1113L1228 1057L1343 1057L1343 1002L1535 1002L1535 946L978 946L978 890L1247 890L1247 835L1266 835L1266 779L1228 779L1228 723L1343 723L1343 668L1266 668L1266 612L1266 612L1266 557L1497 557L1497 501L1170 501L1170 445L1554 445L1554 390L1093 390L1093 334L1535 334L1535 278L1305 278L1305 223L1055 223L1055 167L1074 167L1074 111L1036 111L1036 56L1247 56L1247 0L1344 0L1344 56L1229 56L1229 111L1229 111L1229 167L1094 167L1094 223L1478 223L1478 278L1574 278L1574 334L1248 334L1248 390L1594 390L1594 445L1363 445L1363 501L1651 501L1651 557L1363 557L1363 612L1459 612L1459 668L1478 668L1478 723L1286 723L1286 779L1306 779L1306 835L1363 835L1363 890L1190 890L1190 946L1574 946L1574 1002L1382 1002L1382 1057L1267 1057L1267 1113L1517 1113L1517 1169L1229 1169L1229 1224L1152 1224L1152 1280L1344 1280Z" fill="#a6f7e5"></path><path d="M1093 1280L690 1280L690 1224L805 1224L805 1169L652 1169L652 1113L613 1113L613 1057L1170 1057L1170 1002L882 1002L882 946L767 946L767 890L978 890L978 835L1017 835L1017 779L997 779L997 723L441 723L441 668L1189 668L1189 612L882 612L882 557L786 557L786 501L709 501L709 445L1055 445L1055 390L921 390L921 334L882 334L882 278L556 278L556 223L901 223L901 167L690 167L690 111L748 111L748 56L767 56L767 0L1248 0L1248 56L1037 56L1037 111L1075 111L1075 167L1056 167L1056 223L1306 223L1306 278L1536 278L1536 334L1094 334L1094 390L1555 390L1555 445L1171 445L1171 501L1498 501L1498 557L1267 557L1267 612L1267 612L1267 668L1344 668L1344 723L1229 723L1229 779L1267 779L1267 835L1248 835L1248 890L979 890L979 946L1536 946L1536 1002L1344 1002L1344 1057L1229 1057L1229 1113L1344 1113L1344 1169L1152 1169L1152 1224L1133 1224L1133 1280L1190 1280Z" fill="#b0ffee"></path><path d="M1036 1280L690 1280L690 1224L671 1224L671 1169L613 1169L613 1113L594 1113L594 1057L901 1057L901 1002L709 1002L709 946L690 946L690 890L729 890L729 835L805 835L805 779L863 779L863 723L383 723L383 668L1132 668L1132 612L767 612L767 557L479 557L479 501L709 501L709 445L805 445L805 390L748 390L748 334L709 334L709 278L306 278L306 223L863 223L863 167L460 167L460 111L613 111L613 56L729 56L729 0L768 0L768 56L749 56L749 111L691 111L691 167L902 167L902 223L557 223L557 278L883 278L883 334L922 334L922 390L1056 390L1056 445L710 445L710 501L787 501L787 557L883 557L883 612L1190 612L1190 668L442 668L442 723L998 723L998 779L1018 779L1018 835L979 835L979 890L768 890L768 946L883 946L883 1002L1171 1002L1171 1057L614 1057L614 1113L653 1113L653 1169L806 1169L806 1224L691 1224L691 1280L1094 1280Z" fill="#b0ffee"></path><path d="M729 1280L460 1280L460 1224L498 1224L498 1169L268 1169L268 1113L325 1113L325 1057L652 1057L652 1002L652 1002L652 946L652 946L652 890L671 890L671 835L556 835L556 779L786 779L786 723L287 723L287 668L748 668L748 612L479 612L479 557L345 557L345 501L575 501L575 445L652 445L652 390L575 390L575 334L575 334L575 278L306 278L306 223L633 223L633 167L402 167L402 111L498 111L498 56L441 56L441 0L730 0L730 56L614 56L614 111L461 111L461 167L864 167L864 223L307 223L307 278L710 278L710 334L749 334L749 390L806 390L806 445L710 445L710 501L480 501L480 557L768 557L768 612L1133 612L1133 668L384 668L384 723L864 723L864 779L806 779L806 835L730 835L730 890L691 890L691 946L710 946L710 1002L902 1002L902 1057L595 1057L595 1113L614 1113L614 1169L672 1169L672 1224L691 1224L691 1280L1037 1280Z" fill="#a6f7e5"></path><path d="M709 1280L306 1280L306 1224L479 1224L479 1169L249 1169L249 1113L249 1113L249 1057L613 1057L613 1002L633 1002L633 946L556 946L556 890L575 890L575 835L498 835L498 779L633 779L633 723L191 723L191 668L748 668L748 612L402 612L402 557L210 557L210 501L460 501L460 445L537 445L537 390L517 390L517 334L498 334L498 278L268 278L268 223L575 223L575 167L345 167L345 111L383 111L383 56L364 56L364 0L442 0L442 56L499 56L499 111L403 111L403 167L634 167L634 223L307 223L307 278L576 278L576 334L576 334L576 390L653 390L653 445L576 445L576 501L346 501L346 557L480 557L480 612L749 612L749 668L288 668L288 723L787 723L787 779L557 779L557 835L672 835L672 890L653 890L653 946L653 946L653 1002L653 1002L653 1057L326 1057L326 1113L269 1113L269 1169L499 1169L499 1224L461 1224L461 1280L730 1280Z" fill="#8ee3d0"></path><path d="M575 1280L249 1280L249 1224L421 1224L421 1169L153 1169L153 1113L249 1113L249 1057L556 1057L556 1002L383 1002L383 946L517 946L517 890L537 890L537 835L383 835L383 779L556 779L556 723L57 723L57 668L709 668L709 612L383 612L383 557L191 557L191 501L460 501L460 445L460 445L460 390L383 390L383 334L325 334L325 278L210 278L210 223L421 223L421 167L153 167L153 111L229 111L229 56L191 56L191 0L365 0L365 56L384 56L384 111L346 111L346 167L576 167L576 223L269 223L269 278L499 278L499 334L518 334L518 390L538 390L538 445L461 445L461 501L211 501L211 557L403 557L403 612L749 612L749 668L192 668L192 723L634 723L634 779L499 779L499 835L576 835L576 890L557 890L557 946L634 946L634 1002L614 1002L614 1057L250 1057L250 1113L250 1113L250 1169L480 1169L480 1224L307 1224L307 1280L710 1280Z" fill="#75cfbb"></path><path d="M479 1280L153 1280L153 1224L402 1224L402 1169L57 1169L57 1113L95 1113L95 1057L498 1057L498 1002L325 1002L325 946L441 946L441 890L479 890L479 835L383 835L383 779L517 779L517 723L18 723L18 668L671 668L671 612L345 612L345 557L153 557L153 501L364 501L364 445L421 445L421 390L287 390L287 334L325 334L325 278L37 278L37 223L402 223L402 167L95 167L95 111L210 111L210 56L114 56L114 0L192 0L192 56L230 56L230 111L154 111L154 167L422 167L422 223L211 223L211 278L326 278L326 334L384 334L384 390L461 390L461 445L461 445L461 501L192 501L192 557L384 557L384 612L710 612L710 668L58 668L58 723L557 723L557 779L384 779L384 835L538 835L538 890L518 890L518 946L384 946L384 1002L557 1002L557 1057L250 1057L250 1113L154 1113L154 1169L422 1169L422 1224L250 1224L250 1280L576 1280Z" fill="#5cbba6"></path><path d="M0 1280L0 1280L0 1224L0 1224L0 1169L0 1169L0 1113L0 1113L0 1057L0 1057L0 1002L0 1002L0 946L0 946L0 890L0 890L0 835L0 835L0 779L0 779L0 723L0 723L0 668L0 668L0 612L0 612L0 557L0 557L0 501L0 501L0 445L0 445L0 390L0 390L0 334L0 334L0 278L0 278L0 223L0 223L0 167L0 167L0 111L0 111L0 56L0 56L0 0L115 0L115 56L211 56L211 111L96 111L96 167L403 167L403 223L38 223L38 278L326 278L326 334L288 334L288 390L422 390L422 445L365 445L365 501L154 501L154 557L346 557L346 612L672 612L672 668L19 668L19 723L518 723L518 779L384 779L384 835L480 835L480 890L442 890L442 946L326 946L326 1002L499 1002L499 1057L96 1057L96 1113L58 1113L58 1169L403 1169L403 1224L154 1224L154 1280L480 1280Z" fill="#42a892"></path></svg>