<svg id="visual" viewBox="0 0 1920 1280" width="1920" height="1280" xmlns="http://www.w3.org/2000/svg" xmlns:xlink="http://www.w3.org/1999/xlink" version="1.1"><path d="M1842 1280L1804 1280L1804 1224L1765 1224L1765 1169L1919 1169L1919 1113L1765 1113L1765 1057L1804 1057L1804 1002L1900 1002L1900 946L1823 946L1823 890L1765 890L1765 835L1881 835L1881 779L1727 779L1727 723L1842 723L1842 668L1900 668L1900 612L1919 612L1919 557L1727 557L1727 501L1823 501L1823 445L1746 445L1746 390L1785 390L1785 334L1881 334L1881 278L1823 278L1823 223L1842 223L1842 167L1881 167L1881 111L1861 111L1861 56L1900 56L1900 0L1920 0L1920 56L1920 56L1920 111L1920 111L1920 167L1920 167L1920 223L1920 223L1920 278L1920 278L1920 334L1920 334L1920 390L1920 390L1920 445L1920 445L1920 501L1920 501L1920 557L1920 557L1920 612L1920 612L1920 668L1920 668L1920 723L1920 723L1920 779L1920 779L1920 835L1920 835L1920 890L1920 890L1920 946L1920 946L1920 1002L1920 1002L1920 1057L1920 1057L1920 1113L1920 1113L1920 1169L1920 1169L1920 1224L1920 1224L1920 1280L1920 1280Z" fill="#f9a968"></path><path d="M1593 1280L1593 1280L1593 1224L1746 1224L1746 1169L1765 1169L1765 1113L1669 1113L1669 1057L1785 1057L1785 1002L1689 1002L1689 946L1573 946L1573 890L1669 890L1669 835L1708 835L1708 779L1612 779L1612 723L1746 723L1746 668L1900 668L1900 612L1919 612L1919 557L1631 557L1631 501L1669 501L1669 445L1689 445L1689 390L1708 390L1708 334L1650 334L1650 278L1631 278L1631 223L1765 223L1765 167L1727 167L1727 111L1842 111L1842 56L1669 56L1669 0L1901 0L1901 56L1862 56L1862 111L1882 111L1882 167L1843 167L1843 223L1824 223L1824 278L1882 278L1882 334L1786 334L1786 390L1747 390L1747 445L1824 445L1824 501L1728 501L1728 557L1920 557L1920 612L1901 612L1901 668L1843 668L1843 723L1728 723L1728 779L1882 779L1882 835L1766 835L1766 890L1824 890L1824 946L1901 946L1901 1002L1805 1002L1805 1057L1766 1057L1766 1113L1920 1113L1920 1169L1766 1169L1766 1224L1805 1224L1805 1280L1843 1280Z" fill="#fab77a"></path><path d="M1362 1280L1420 1280L1420 1224L1420 1224L1420 1169L1689 1169L1689 1113L1631 1113L1631 1057L1650 1057L1650 1002L1535 1002L1535 946L1477 946L1477 890L1401 890L1401 835L1631 835L1631 779L1285 779L1285 723L1612 723L1612 668L1708 668L1708 612L1785 612L1785 557L1535 557L1535 501L1362 501L1362 445L1689 445L1689 390L1708 390L1708 334L1477 334L1477 278L1401 278L1401 223L1573 223L1573 167L1727 167L1727 111L1785 111L1785 56L1612 56L1612 0L1670 0L1670 56L1843 56L1843 111L1728 111L1728 167L1766 167L1766 223L1632 223L1632 278L1651 278L1651 334L1709 334L1709 390L1690 390L1690 445L1670 445L1670 501L1632 501L1632 557L1920 557L1920 612L1901 612L1901 668L1747 668L1747 723L1613 723L1613 779L1709 779L1709 835L1670 835L1670 890L1574 890L1574 946L1690 946L1690 1002L1786 1002L1786 1057L1670 1057L1670 1113L1766 1113L1766 1169L1747 1169L1747 1224L1594 1224L1594 1280L1594 1280Z" fill="#fbc58d"></path><path d="M1266 1280L1343 1280L1343 1224L1381 1224L1381 1169L1573 1169L1573 1113L1631 1113L1631 1057L1631 1057L1631 1002L1497 1002L1497 946L1381 946L1381 890L1305 890L1305 835L1612 835L1612 779L1285 779L1285 723L1477 723L1477 668L1535 668L1535 612L1631 612L1631 557L1516 557L1516 501L1343 501L1343 445L1573 445L1573 390L1573 390L1573 334L1439 334L1439 278L1305 278L1305 223L1439 223L1439 167L1669 167L1669 111L1746 111L1746 56L1573 56L1573 0L1613 0L1613 56L1786 56L1786 111L1728 111L1728 167L1574 167L1574 223L1402 223L1402 278L1478 278L1478 334L1709 334L1709 390L1690 390L1690 445L1363 445L1363 501L1536 501L1536 557L1786 557L1786 612L1709 612L1709 668L1613 668L1613 723L1286 723L1286 779L1632 779L1632 835L1402 835L1402 890L1478 890L1478 946L1536 946L1536 1002L1651 1002L1651 1057L1632 1057L1632 1113L1690 1113L1690 1169L1421 1169L1421 1224L1421 1224L1421 1280L1363 1280Z" fill="#fcd3a1"></path><path d="M901 1280L1247 1280L1247 1224L997 1224L997 1169L1209 1169L1209 1113L1381 1113L1381 1057L1266 1057L1266 1002L1113 1002L1113 946L1305 946L1305 890L1266 890L1266 835L1209 835L1209 779L997 779L997 723L1093 723L1093 668L1516 668L1516 612L1477 612L1477 557L1420 557L1420 501L863 501L863 445L1305 445L1305 390L1285 390L1285 334L1285 334L1285 278L1228 278L1228 223L1324 223L1324 167L1439 167L1439 111L1381 111L1381 56L959 56L959 0L1574 0L1574 56L1747 56L1747 111L1670 111L1670 167L1440 167L1440 223L1306 223L1306 278L1440 278L1440 334L1574 334L1574 390L1574 390L1574 445L1344 445L1344 501L1517 501L1517 557L1632 557L1632 612L1536 612L1536 668L1478 668L1478 723L1286 723L1286 779L1613 779L1613 835L1306 835L1306 890L1382 890L1382 946L1498 946L1498 1002L1632 1002L1632 1057L1632 1057L1632 1113L1574 1113L1574 1169L1382 1169L1382 1224L1344 1224L1344 1280L1267 1280Z" fill="#fee0b6"></path><path d="M306 1280L556 1280L556 1224L959 1224L959 1169L1209 1169L1209 1113L729 1113L729 1057L729 1057L729 1002L1017 1002L1017 946L633 946L633 890L1247 890L1247 835L921 835L921 779L844 779L844 723L997 723L997 668L1228 668L1228 612L959 612L959 557L1113 557L1113 501L805 501L805 445L997 445L997 390L1093 390L1093 334L863 334L863 278L1093 278L1093 223L1209 223L1209 167L825 167L825 111L1285 111L1285 56L959 56L959 0L960 0L960 56L1382 56L1382 111L1440 111L1440 167L1325 167L1325 223L1229 223L1229 278L1286 278L1286 334L1286 334L1286 390L1306 390L1306 445L864 445L864 501L1421 501L1421 557L1478 557L1478 612L1517 612L1517 668L1094 668L1094 723L998 723L998 779L1210 779L1210 835L1267 835L1267 890L1306 890L1306 946L1114 946L1114 1002L1267 1002L1267 1057L1382 1057L1382 1113L1210 1113L1210 1169L998 1169L998 1224L1248 1224L1248 1280L902 1280Z" fill="#ffe5bf"></path><path d="M287 1280L498 1280L498 1224L421 1224L421 1169L556 1169L556 1113L709 1113L709 1057L498 1057L498 1002L690 1002L690 946L421 946L421 890L594 890L594 835L364 835L364 779L537 779L537 723L421 723L421 668L613 668L613 612L652 612L652 557L556 557L556 501L287 501L287 445L729 445L729 390L249 390L249 334L441 334L441 278L556 278L556 223L825 223L825 167L421 167L421 111L825 111L825 56L249 56L249 0L960 0L960 56L1286 56L1286 111L826 111L826 167L1210 167L1210 223L1094 223L1094 278L864 278L864 334L1094 334L1094 390L998 390L998 445L806 445L806 501L1114 501L1114 557L960 557L960 612L1229 612L1229 668L998 668L998 723L845 723L845 779L922 779L922 835L1248 835L1248 890L634 890L634 946L1018 946L1018 1002L730 1002L730 1057L730 1057L730 1113L1210 1113L1210 1169L960 1169L960 1224L557 1224L557 1280L307 1280Z" fill="#ffe5bf"></path><path d="M153 1280L364 1280L364 1224L402 1224L402 1169L383 1169L383 1113L613 1113L613 1057L460 1057L460 1002L671 1002L671 946L249 946L249 890L479 890L479 835L229 835L229 779L479 779L479 723L306 723L306 668L594 668L594 612L460 612L460 557L325 557L325 501L268 501L268 445L537 445L537 390L191 390L191 334L306 334L306 278L498 278L498 223L594 223L594 167L364 167L364 111L575 111L575 56L210 56L210 0L250 0L250 56L826 56L826 111L422 111L422 167L826 167L826 223L557 223L557 278L442 278L442 334L250 334L250 390L730 390L730 445L288 445L288 501L557 501L557 557L653 557L653 612L614 612L614 668L422 668L422 723L538 723L538 779L365 779L365 835L595 835L595 890L422 890L422 946L691 946L691 1002L499 1002L499 1057L710 1057L710 1113L557 1113L557 1169L422 1169L422 1224L499 1224L499 1280L288 1280Z" fill="#fee0b6"></path><path d="M114 1280L229 1280L229 1224L325 1224L325 1169L268 1169L268 1113L556 1113L556 1057L306 1057L306 1002L537 1002L537 946L249 946L249 890L441 890L441 835L133 835L133 779L460 779L460 723L268 723L268 668L498 668L498 612L383 612L383 557L268 557L268 501L133 501L133 445L421 445L421 390L191 390L191 334L287 334L287 278L383 278L383 223L479 223L479 167L287 167L287 111L441 111L441 56L95 56L95 0L211 0L211 56L576 56L576 111L365 111L365 167L595 167L595 223L499 223L499 278L307 278L307 334L192 334L192 390L538 390L538 445L269 445L269 501L326 501L326 557L461 557L461 612L595 612L595 668L307 668L307 723L480 723L480 779L230 779L230 835L480 835L480 890L250 890L250 946L672 946L672 1002L461 1002L461 1057L614 1057L614 1113L384 1113L384 1169L403 1169L403 1224L365 1224L365 1280L154 1280Z" fill="#fcd3a1"></path><path d="M95 1280L153 1280L153 1224L191 1224L191 1169L268 1169L268 1113L364 1113L364 1057L229 1057L229 1002L402 1002L402 946L249 946L249 890L402 890L402 835L114 835L114 779L383 779L383 723L268 723L268 668L421 668L421 612L364 612L364 557L210 557L210 501L133 501L133 445L287 445L287 390L133 390L133 334L153 334L153 278L249 278L249 223L383 223L383 167L268 167L268 111L421 111L421 56L95 56L95 0L96 0L96 56L442 56L442 111L288 111L288 167L480 167L480 223L384 223L384 278L288 278L288 334L192 334L192 390L422 390L422 445L134 445L134 501L269 501L269 557L384 557L384 612L499 612L499 668L269 668L269 723L461 723L461 779L134 779L134 835L442 835L442 890L250 890L250 946L538 946L538 1002L307 1002L307 1057L557 1057L557 1113L269 1113L269 1169L326 1169L326 1224L230 1224L230 1280L115 1280Z" fill="#fbc58d"></path><path d="M0 1280L37 1280L37 1224L95 1224L95 1169L153 1169L153 1113L57 1113L57 1057L0 1057L0 1002L114 1002L114 946L76 946L76 890L133 890L133 835L114 835L114 779L76 779L76 723L95 723L95 668L0 668L0 612L37 612L37 557L76 557L76 501L114 501L114 445L37 445L37 390L95 390L95 334L95 334L95 278L57 278L57 223L133 223L133 167L133 167L133 111L133 111L133 56L18 56L18 0L96 0L96 56L422 56L422 111L269 111L269 167L384 167L384 223L250 223L250 278L154 278L154 334L134 334L134 390L288 390L288 445L134 445L134 501L211 501L211 557L365 557L365 612L422 612L422 668L269 668L269 723L384 723L384 779L115 779L115 835L403 835L403 890L250 890L250 946L403 946L403 1002L230 1002L230 1057L365 1057L365 1113L269 1113L269 1169L192 1169L192 1224L154 1224L154 1280L96 1280Z" fill="#fab77a"></path><path d="M0 1280L0 1280L0 1224L0 1224L0 1169L0 1169L0 1113L0 1113L0 1057L0 1057L0 1002L0 1002L0 946L0 946L0 890L0 890L0 835L0 835L0 779L0 779L0 723L0 723L0 668L0 668L0 612L0 612L0 557L0 557L0 501L0 501L0 445L0 445L0 390L0 390L0 334L0 334L0 278L0 278L0 223L0 223L0 167L0 167L0 111L0 111L0 56L0 56L0 0L19 0L19 56L134 56L134 111L134 111L134 167L134 167L134 223L58 223L58 278L96 278L96 334L96 334L96 390L38 390L38 445L115 445L115 501L77 501L77 557L38 557L38 612L0 612L0 668L96 668L96 723L77 723L77 779L115 779L115 835L134 835L134 890L77 890L77 946L115 946L115 1002L0 1002L0 1057L58 1057L58 1113L154 1113L154 1169L96 1169L96 1224L38 1224L38 1280L0 1280Z" fill="#f9a968"></path></svg>