<svg id="visual" viewBox="0 0 1920 1280" width="1920" height="1280" xmlns="http://www.w3.org/2000/svg" xmlns:xlink="http://www.w3.org/1999/xlink" version="1.1"><path d="M0 244L24.7 265.3C49.3 286.7 98.7 329.3 147.8 340C197 350.7 246 329.3 295.2 327.2C344.3 325 393.7 342 443 325C492.3 308 541.7 257 590.8 259.2C640 261.3 689 316.7 738.2 355C787.3 393.3 836.7 414.7 886 414.7C935.3 414.7 984.7 393.3 1034 389.2C1083.3 385 1132.7 398 1181.8 391.7C1231 385.3 1280 359.7 1329.2 374.5C1378.3 389.3 1427.7 444.7 1477 444.7C1526.3 444.7 1575.7 389.3 1624.8 336C1674 282.7 1723 231.3 1772.2 237.7C1821.3 244 1870.7 308 1895.3 340L1920 372L1920 0L1895.3 0C1870.7 0 1821.3 0 1772.2 0C1723 0 1674 0 1624.8 0C1575.7 0 1526.3 0 1477 0C1427.7 0 1378.3 0 1329.2 0C1280 0 1231 0 1181.8 0C1132.7 0 1083.3 0 1034 0C984.7 0 935.3 0 886 0C836.7 0 787.3 0 738.2 0C689 0 640 0 590.8 0C541.7 0 492.3 0 443 0C393.7 0 344.3 0 295.2 0C246 0 197 0 147.8 0C98.7 0 49.3 0 24.7 0L0 0Z" fill="#ffc8c8"></path><path d="M0 334L24.7 357.5C49.3 381 98.7 428 147.8 440.8C197 453.7 246 432.3 295.2 438.7C344.3 445 393.7 479 443 472.5C492.3 466 541.7 419 590.8 423.3C640 427.7 689 483.3 738.2 517.5C787.3 551.7 836.7 564.3 886 562.2C935.3 560 984.7 543 1034 543C1083.3 543 1132.7 560 1181.8 542.8C1231 525.7 1280 474.3 1329.2 474.3C1378.3 474.3 1427.7 525.7 1477 532.2C1526.3 538.7 1575.7 500.3 1624.8 459.8C1674 419.3 1723 376.7 1772.2 383C1821.3 389.3 1870.7 444.7 1895.3 472.3L1920 500L1920 370L1895.3 338C1870.7 306 1821.3 242 1772.2 235.7C1723 229.3 1674 280.7 1624.8 334C1575.7 387.3 1526.3 442.7 1477 442.7C1427.7 442.7 1378.3 387.3 1329.2 372.5C1280 357.7 1231 383.3 1181.8 389.7C1132.7 396 1083.3 383 1034 387.2C984.7 391.3 935.3 412.7 886 412.7C836.7 412.7 787.3 391.3 738.2 353C689 314.7 640 259.3 590.8 257.2C541.7 255 492.3 306 443 323C393.7 340 344.3 323 295.2 325.2C246 327.3 197 348.7 147.8 338C98.7 327.3 49.3 284.7 24.7 263.3L0 242Z" fill="#ffbebe"></path><path d="M0 436L24.7 465.8C49.3 495.7 98.7 555.3 147.8 576.7C197 598 246 581 295.2 581C344.3 581 393.7 598 443 595.8C492.3 593.7 541.7 572.3 590.8 591.7C640 611 689 671 738.2 692.3C787.3 713.7 836.7 696.3 886 698.3C935.3 700.3 984.7 721.7 1034 728.2C1083.3 734.7 1132.7 726.3 1181.8 688C1231 649.7 1280 581.3 1329.2 581.3C1378.3 581.3 1427.7 649.7 1477 662.5C1526.3 675.3 1575.7 632.7 1624.8 596.3C1674 560 1723 530 1772.2 534.2C1821.3 538.3 1870.7 576.7 1895.3 595.8L1920 615L1920 498L1895.3 470.3C1870.7 442.7 1821.3 387.3 1772.2 381C1723 374.7 1674 417.3 1624.8 457.8C1575.7 498.3 1526.3 536.7 1477 530.2C1427.7 523.7 1378.3 472.3 1329.2 472.3C1280 472.3 1231 523.7 1181.8 540.8C1132.7 558 1083.3 541 1034 541C984.7 541 935.3 558 886 560.2C836.7 562.3 787.3 549.7 738.2 515.5C689 481.3 640 425.7 590.8 421.3C541.7 417 492.3 464 443 470.5C393.7 477 344.3 443 295.2 436.7C246 430.3 197 451.7 147.8 438.8C98.7 426 49.3 379 24.7 355.5L0 332Z" fill="#ffb3b3"></path><path d="M0 897L24.7 901.3C49.3 905.7 98.7 914.3 147.8 905.8C197 897.3 246 871.7 295.2 875.8C344.3 880 393.7 914 443 939.5C492.3 965 541.7 982 590.8 975.7C640 969.3 689 939.7 738.2 933.3C787.3 927 836.7 944 886 958.8C935.3 973.7 984.7 986.3 1034 992.7C1083.3 999 1132.7 999 1181.8 967C1231 935 1280 871 1329.2 866.8C1378.3 862.7 1427.7 918.3 1477 948.3C1526.3 978.3 1575.7 982.7 1624.8 967.7C1674 952.7 1723 918.3 1772.2 903.3C1821.3 888.3 1870.7 892.7 1895.3 894.8L1920 897L1920 613L1895.3 593.8C1870.7 574.7 1821.3 536.3 1772.2 532.2C1723 528 1674 558 1624.8 594.3C1575.7 630.7 1526.3 673.3 1477 660.5C1427.7 647.7 1378.3 579.3 1329.2 579.3C1280 579.3 1231 647.7 1181.8 686C1132.7 724.3 1083.3 732.7 1034 726.2C984.7 719.7 935.3 698.3 886 696.3C836.7 694.3 787.3 711.7 738.2 690.3C689 669 640 609 590.8 589.7C541.7 570.3 492.3 591.7 443 593.8C393.7 596 344.3 579 295.2 579C246 579 197 596 147.8 574.7C98.7 553.3 49.3 493.7 24.7 463.8L0 434Z" fill="#ffa9a8"></path><path d="M0 1063L24.7 1065.2C49.3 1067.3 98.7 1071.7 147.8 1061C197 1050.3 246 1024.7 295.2 1018.3C344.3 1012 393.7 1025 443 1052.8C492.3 1080.7 541.7 1123.3 590.8 1131.8C640 1140.3 689 1114.7 738.2 1104C787.3 1093.3 836.7 1097.7 886 1095.5C935.3 1093.3 984.7 1084.7 1034 1080.3C1083.3 1076 1132.7 1076 1181.8 1061.2C1231 1046.3 1280 1016.7 1329.2 1023.2C1378.3 1029.7 1427.7 1072.3 1477 1102.2C1526.3 1132 1575.7 1149 1624.8 1136.2C1674 1123.3 1723 1080.7 1772.2 1059.3C1821.3 1038 1870.7 1038 1895.3 1038L1920 1038L1920 895L1895.3 892.8C1870.7 890.7 1821.3 886.3 1772.2 901.3C1723 916.3 1674 950.7 1624.8 965.7C1575.7 980.7 1526.3 976.3 1477 946.3C1427.7 916.3 1378.3 860.7 1329.2 864.8C1280 869 1231 933 1181.8 965C1132.7 997 1083.3 997 1034 990.7C984.7 984.3 935.3 971.7 886 956.8C836.7 942 787.3 925 738.2 931.3C689 937.7 640 967.3 590.8 973.7C541.7 980 492.3 963 443 937.5C393.7 912 344.3 878 295.2 873.8C246 869.7 197 895.3 147.8 903.8C98.7 912.3 49.3 903.7 24.7 899.3L0 895Z" fill="#ff9e9d"></path><path d="M0 1281L24.7 1281C49.3 1281 98.7 1281 147.8 1281C197 1281 246 1281 295.2 1281C344.3 1281 393.7 1281 443 1281C492.3 1281 541.7 1281 590.8 1281C640 1281 689 1281 738.2 1281C787.3 1281 836.7 1281 886 1281C935.3 1281 984.7 1281 1034 1281C1083.3 1281 1132.7 1281 1181.8 1281C1231 1281 1280 1281 1329.2 1281C1378.3 1281 1427.7 1281 1477 1281C1526.3 1281 1575.7 1281 1624.8 1281C1674 1281 1723 1281 1772.2 1281C1821.3 1281 1870.7 1281 1895.3 1281L1920 1281L1920 1036L1895.3 1036C1870.7 1036 1821.3 1036 1772.2 1057.3C1723 1078.7 1674 1121.3 1624.8 1134.2C1575.7 1147 1526.3 1130 1477 1100.2C1427.7 1070.3 1378.3 1027.7 1329.2 1021.2C1280 1014.7 1231 1044.3 1181.8 1059.2C1132.7 1074 1083.3 1074 1034 1078.3C984.7 1082.7 935.3 1091.3 886 1093.5C836.7 1095.7 787.3 1091.3 738.2 1102C689 1112.7 640 1138.3 590.8 1129.8C541.7 1121.3 492.3 1078.7 443 1050.8C393.7 1023 344.3 1010 295.2 1016.3C246 1022.7 197 1048.3 147.8 1059C98.7 1069.7 49.3 1065.3 24.7 1063.2L0 1061Z" fill="#ff9392"></path></svg>