<svg viewBox="0 0 800 800" xmlns="http://www.w3.org/2000/svg" xml:space="preserve" style="fill-rule:evenodd;clip-rule:evenodd;stroke-linejoin:round;stroke-miterlimit:2"><path d="M35.981 40H4.112C1.805 40 0 38.195 0 35.907V4.093C0 1.805 1.805 0 4.112 0h31.869c2.289 0 4.112 1.805 4.112 4.093v31.814c0 2.288-1.823 4.093-4.112 4.093ZM9.916 32.558a3 3 0 0 1-.688-.111 1.84 1.84 0 0 1-1.061-2.4L16.54 8.614a1.856 1.856 0 0 1 2.4-1.061 1.841 1.841 0 0 1 1.06 2.4l-8.335 21.433c-.26.744-1.004 1.172-1.749 1.172Zm12-2.716a1.87 1.87 0 0 0 1.34.539c.484 0 .967-.167 1.339-.539l6.549-6.493c1.172-1.172 1.172-3.144 0-4.316l-6.549-6.549c-.688-.744-1.86-.744-2.604 0-.744.688-.744 1.86 0 2.604l6.028 6.066-6.084 6.065c-.781.707-.781 1.879-.019 2.623Z" style="fill:#0065ff" transform="scale(19.9536)"/></svg>