<svg width="175" height="60" viewBox="0 0 175 60" fill="none" xmlns="http://www.w3.org/2000/svg">
<rect width="175" height="60" rx="10" fill="#61CE70"/>
<g clip-path="url(#clip0_133_48)">
<path d="M138.502 29.99C138.522 25.8005 141.882 22.485 146.09 22.505C150.198 22.5183 153.512 25.9273 153.492 30.1167C153.472 34.1928 150.064 37.5284 145.937 37.5017C141.836 37.4817 138.488 34.0927 138.502 29.99ZM145.963 35.0067C148.704 35.0334 150.978 32.8052 151.004 30.07C151.031 27.2949 148.831 25.02 146.083 24.9867C143.283 24.9533 141.016 27.1748 140.996 29.97C140.976 32.7318 143.196 34.9867 145.963 35.0067Z" fill="white"/>
<path d="M156.986 39.6097C156.952 40.2235 156.732 40.6104 156.299 40.8372C155.832 41.0774 155.352 41.0574 154.965 40.6971C154.285 40.0634 153.625 39.4029 152.992 38.7225C152.558 38.2555 152.618 37.5617 153.072 37.0947C153.518 36.6344 154.225 36.5477 154.699 36.9813C155.405 37.6351 156.079 38.3222 156.739 39.0294C156.892 39.1961 156.932 39.4763 156.986 39.6097Z" fill="white"/>
<path d="M157.052 20.3169C156.906 20.5904 156.799 20.9106 156.599 21.1308C156.039 21.7445 155.439 22.3249 154.839 22.8986C154.299 23.4189 153.585 23.4256 153.085 22.932C152.578 22.4316 152.578 21.6845 153.098 21.1441C153.678 20.5504 154.265 19.9566 154.865 19.3829C155.252 19.0093 155.705 18.9026 156.212 19.1227C156.672 19.3229 156.979 19.7899 157.052 20.3169Z" fill="white"/>
<path d="M139.309 38.1021C139.222 38.2688 139.122 38.6024 138.908 38.8359C138.348 39.4496 137.748 40.0234 137.155 40.6037C136.635 41.1107 135.881 41.1107 135.394 40.6171C134.901 40.1167 134.894 39.3763 135.401 38.8559C135.988 38.2555 136.581 37.6551 137.188 37.068C137.575 36.7011 138.035 36.6011 138.542 36.8212C139.028 37.0347 139.249 37.4216 139.309 38.1021Z" fill="white"/>
<path d="M158.493 31.2375C158.073 31.2375 157.646 31.2442 157.226 31.2375C156.559 31.2242 156.032 30.7038 156.006 30.0634C155.979 29.3963 156.466 28.8092 157.139 28.7825C158.046 28.7492 158.96 28.7492 159.873 28.7825C160.527 28.8092 161.013 29.3963 160.993 30.0434C160.973 30.6704 160.473 31.1975 159.82 31.2308C159.38 31.2508 158.94 31.2308 158.493 31.2375C158.493 31.2308 158.493 31.2308 158.493 31.2375Z" fill="white"/>
<path d="M136.435 19.0027C136.595 19.0894 136.915 19.1895 137.135 19.3963C137.755 19.9633 138.342 20.5704 138.928 21.1774C139.415 21.6778 139.409 22.4316 138.935 22.9186C138.455 23.4056 137.701 23.4323 137.195 22.9453C136.575 22.3449 135.961 21.7378 135.368 21.1107C135.001 20.7238 134.914 20.2568 135.148 19.7565C135.368 19.2762 135.761 19.0494 136.435 19.0027Z" fill="white"/>
<path d="M133.527 31.2375C133.114 31.2375 132.707 31.2442 132.294 31.2375C131.547 31.2175 131 30.6971 131 30.0033C131 29.3029 131.547 28.7692 132.294 28.7625C133.094 28.7558 133.894 28.7558 134.694 28.7625C135.441 28.7692 135.988 29.3029 135.988 29.9967C135.988 30.6905 135.428 31.2242 134.694 31.2308C134.307 31.2375 133.921 31.2375 133.527 31.2375Z" fill="white"/>
<path d="M147.237 42.485C147.237 42.8719 147.237 43.2655 147.237 43.6524C147.23 44.433 146.723 44.9933 146.017 45C145.296 45.0067 144.763 44.453 144.756 43.6658C144.75 42.8519 144.743 42.0447 144.763 41.2308C144.776 40.6371 145.17 40.1768 145.71 40.0434C146.243 39.9099 146.817 40.1634 147.084 40.6771C147.17 40.8439 147.21 41.0574 147.217 41.2508C147.237 41.6578 147.224 42.0714 147.224 42.485C147.23 42.485 147.237 42.485 147.237 42.485Z" fill="white"/>
<path d="M147.224 17.495C147.224 17.9153 147.237 18.3422 147.224 18.7625C147.204 19.4363 146.697 19.9566 146.057 19.9833C145.39 20.01 144.81 19.543 144.776 18.8492C144.736 17.942 144.73 17.028 144.77 16.1207C144.81 15.4336 145.397 14.9733 146.07 15C146.71 15.0267 147.21 15.5537 147.224 16.2275C147.237 16.6544 147.224 17.0747 147.224 17.495Z" fill="white"/>
</g>
<path d="M21.4382 37V23.9091H23.4134V35.2997H29.3452V37H21.4382ZM31.445 37V27.1818H33.3562V37H31.445ZM32.4102 25.6669C32.0778 25.6669 31.7923 25.5561 31.5536 25.3345C31.3192 25.1087 31.2021 24.8402 31.2021 24.5291C31.2021 24.2138 31.3192 23.9453 31.5536 23.7237C31.7923 23.4979 32.0778 23.3849 32.4102 23.3849C32.7425 23.3849 33.0259 23.4979 33.2603 23.7237C33.4989 23.9453 33.6183 24.2138 33.6183 24.5291C33.6183 24.8402 33.4989 25.1087 33.2603 25.3345C33.0259 25.5561 32.7425 25.6669 32.4102 25.6669ZM40.0439 40.8864C39.264 40.8864 38.5929 40.7841 38.0304 40.5795C37.4721 40.375 37.0162 40.1044 36.6625 39.7678C36.3088 39.4311 36.0446 39.0625 35.8699 38.6619L37.5126 37.9844C37.6277 38.1719 37.7811 38.37 37.9728 38.5788C38.1689 38.7919 38.4331 38.973 38.7654 39.1222C39.1021 39.2713 39.5346 39.3459 40.063 39.3459C40.7875 39.3459 41.3862 39.169 41.8592 38.8153C42.3322 38.4659 42.5687 37.9077 42.5687 37.1406V35.2102H42.4473C42.3322 35.419 42.166 35.6513 41.9487 35.907C41.7356 36.1626 41.4416 36.3842 41.0666 36.5717C40.6916 36.7592 40.2037 36.853 39.6028 36.853C38.8272 36.853 38.1284 36.6719 37.5062 36.3097C36.8883 35.9432 36.3983 35.4041 36.036 34.6925C35.6781 33.9766 35.4991 33.0966 35.4991 32.0526C35.4991 31.0085 35.676 30.1136 36.0297 29.3679C36.3876 28.6222 36.8777 28.0511 37.4998 27.6548C38.122 27.2543 38.8272 27.054 39.6156 27.054C40.225 27.054 40.7172 27.1562 41.0922 27.3608C41.4672 27.5611 41.7591 27.7955 41.9679 28.0639C42.1809 28.3324 42.345 28.5689 42.4601 28.7734H42.6007V27.1818H44.4735V37.2173C44.4735 38.0611 44.2775 38.7536 43.8855 39.2947C43.4934 39.8359 42.9629 40.2365 42.2939 40.4964C41.6291 40.7564 40.8791 40.8864 40.0439 40.8864ZM40.0247 35.2678C40.5744 35.2678 41.0389 35.1399 41.4181 34.8842C41.8017 34.6243 42.0914 34.2536 42.2875 33.772C42.4877 33.2862 42.5879 32.7045 42.5879 32.027C42.5879 31.3665 42.4899 30.7848 42.2939 30.282C42.0978 29.7791 41.8102 29.3871 41.4309 29.1058C41.0517 28.8203 40.5829 28.6776 40.0247 28.6776C39.4494 28.6776 38.97 28.8267 38.5865 29.125C38.2029 29.419 37.9132 29.8196 37.7172 30.3267C37.5254 30.8338 37.4295 31.4006 37.4295 32.027C37.4295 32.6705 37.5275 33.2351 37.7235 33.7209C37.9196 34.2067 38.2093 34.5859 38.5929 34.8587C38.9806 35.1314 39.4579 35.2678 40.0247 35.2678ZM48.948 31.1705V37H47.0368V23.9091H48.9224V28.7798H49.0439C49.274 28.2514 49.6255 27.8317 50.0985 27.5206C50.5716 27.2095 51.1895 27.054 51.9522 27.054C52.6255 27.054 53.2136 27.1925 53.7164 27.4695C54.2235 27.7464 54.6156 28.1598 54.8926 28.7095C55.1738 29.255 55.3145 29.9368 55.3145 30.755V37H53.4032V30.9851C53.4032 30.2649 53.2179 29.7067 52.8471 29.3104C52.4764 28.9098 51.9608 28.7095 51.3002 28.7095C50.8485 28.7095 50.4437 28.8054 50.0858 28.9972C49.7321 29.1889 49.4529 29.4702 49.2484 29.8409C49.0481 30.2074 48.948 30.6506 48.948 31.1705ZM62.448 27.1818V28.7159H57.085V27.1818H62.448ZM58.5233 24.8295H60.4345V34.1172C60.4345 34.4879 60.4899 34.767 60.6007 34.9545C60.7115 35.1378 60.8542 35.2635 61.0289 35.3317C61.2079 35.3956 61.4018 35.4276 61.6106 35.4276C61.764 35.4276 61.8983 35.4169 62.0133 35.3956C62.1284 35.3743 62.2179 35.3572 62.2818 35.3445L62.627 36.9233C62.5162 36.9659 62.3585 37.0085 62.1539 37.0511C61.9494 37.098 61.6937 37.1236 61.3869 37.1278C60.8841 37.1364 60.4153 37.0469 59.9806 36.8594C59.546 36.6719 59.1944 36.3821 58.926 35.9901C58.6575 35.598 58.5233 35.1058 58.5233 34.5135V24.8295ZM69.4792 23.9091H71.8762L76.0439 34.0852H76.1973L80.3649 23.9091H82.7619V37H80.8826V27.527H80.7612L76.9004 36.9808H75.3407L71.4799 27.5206H71.3585V37H69.4792V23.9091ZM89.6158 37.1982C88.6953 37.1982 87.892 36.9872 87.206 36.5653C86.5199 36.1435 85.9872 35.5533 85.608 34.7947C85.2287 34.0362 85.0391 33.1499 85.0391 32.1357C85.0391 31.1172 85.2287 30.2266 85.608 29.4638C85.9872 28.701 86.5199 28.1087 87.206 27.6868C87.892 27.2649 88.6953 27.054 89.6158 27.054C90.5362 27.054 91.3395 27.2649 92.0256 27.6868C92.7116 28.1087 93.2443 28.701 93.6236 29.4638C94.0028 30.2266 94.1925 31.1172 94.1925 32.1357C94.1925 33.1499 94.0028 34.0362 93.6236 34.7947C93.2443 35.5533 92.7116 36.1435 92.0256 36.5653C91.3395 36.9872 90.5362 37.1982 89.6158 37.1982ZM89.6222 35.5938C90.2188 35.5938 90.7131 35.4361 91.1051 35.1207C91.4972 34.8054 91.7869 34.3857 91.9744 33.8615C92.1662 33.3374 92.2621 32.7599 92.2621 32.1293C92.2621 31.5028 92.1662 30.9276 91.9744 30.4034C91.7869 29.875 91.4972 29.451 91.1051 29.1314C90.7131 28.8118 90.2188 28.652 89.6222 28.652C89.0213 28.652 88.5227 28.8118 88.1264 29.1314C87.7344 29.451 87.4425 29.875 87.2507 30.4034C87.0632 30.9276 86.9695 31.5028 86.9695 32.1293C86.9695 32.7599 87.0632 33.3374 87.2507 33.8615C87.4425 34.3857 87.7344 34.8054 88.1264 35.1207C88.5227 35.4361 89.0213 35.5938 89.6222 35.5938ZM100.001 37.1918C99.2086 37.1918 98.5012 36.9893 97.8791 36.5845C97.2612 36.1754 96.7754 35.5937 96.4217 34.8395C96.0723 34.081 95.8975 33.1712 95.8975 32.1101C95.8975 31.049 96.0744 30.1413 96.4281 29.3871C96.786 28.6328 97.2761 28.0554 97.8983 27.6548C98.5204 27.2543 99.2257 27.054 100.014 27.054C100.623 27.054 101.113 27.1562 101.484 27.3608C101.859 27.5611 102.149 27.7955 102.354 28.0639C102.562 28.3324 102.724 28.5689 102.839 28.7734H102.954V23.9091H104.866V37H102.999V35.4723H102.839C102.724 35.6811 102.558 35.9197 102.341 36.1882C102.128 36.4567 101.834 36.6911 101.459 36.8913C101.084 37.0916 100.598 37.1918 100.001 37.1918ZM100.423 35.5618C100.973 35.5618 101.437 35.4169 101.817 35.1271C102.2 34.8331 102.49 34.4261 102.686 33.9062C102.886 33.3864 102.986 32.7812 102.986 32.0909C102.986 31.4091 102.888 30.8125 102.692 30.3011C102.496 29.7898 102.209 29.3913 101.829 29.1058C101.45 28.8203 100.981 28.6776 100.423 28.6776C99.8478 28.6776 99.3684 28.8267 98.9849 29.125C98.6014 29.4233 98.3116 29.8303 98.1156 30.3459C97.9238 30.8615 97.8279 31.4432 97.8279 32.0909C97.8279 32.7472 97.926 33.3374 98.122 33.8615C98.318 34.3857 98.6078 34.8011 98.9913 35.108C99.3791 35.4105 99.8564 35.5618 100.423 35.5618ZM111.825 37.1982C110.858 37.1982 110.025 36.9915 109.326 36.5781C108.631 36.1605 108.094 35.5746 107.715 34.8203C107.34 34.0618 107.152 33.1733 107.152 32.1548C107.152 31.1491 107.34 30.2628 107.715 29.4957C108.094 28.7287 108.623 28.13 109.3 27.6996C109.982 27.2692 110.779 27.054 111.691 27.054C112.245 27.054 112.782 27.1456 113.301 27.3288C113.821 27.5121 114.288 27.7997 114.701 28.1918C115.115 28.5838 115.441 29.093 115.679 29.7195C115.918 30.3416 116.037 31.098 116.037 31.9886V32.6662H108.233V31.2344H114.164C114.164 30.7315 114.062 30.2862 113.858 29.8984C113.653 29.5064 113.365 29.1974 112.995 28.9716C112.628 28.7457 112.198 28.6328 111.703 28.6328C111.167 28.6328 110.698 28.7649 110.297 29.0291C109.901 29.2891 109.594 29.63 109.377 30.0518C109.164 30.4695 109.057 30.9233 109.057 31.4134V32.532C109.057 33.1882 109.172 33.7464 109.402 34.2067C109.637 34.6669 109.963 35.0185 110.38 35.2614C110.798 35.5 111.286 35.6193 111.844 35.6193C112.206 35.6193 112.537 35.5682 112.835 35.4659C113.133 35.3594 113.391 35.2017 113.608 34.9929C113.826 34.7841 113.992 34.5263 114.107 34.2195L115.916 34.5455C115.771 35.0781 115.511 35.5447 115.136 35.9453C114.765 36.3416 114.299 36.6506 113.736 36.8722C113.178 37.0895 112.541 37.1982 111.825 37.1982Z" fill="white"/>
<defs>
<clipPath id="clip0_133_48">
<rect width="30" height="30" fill="white" transform="translate(131 15)"/>
</clipPath>
</defs>
</svg>
