<svg width="78" height="80" viewBox="0 0 78 80" fill="none" xmlns="http://www.w3.org/2000/svg">
<rect width="78" height="80" rx="20" fill="#00288F"/>
<g clip-path="url(#clip0_47_2617)">
<path d="M39.0308 63.0001C32.6948 62.9139 27.2324 60.6607 22.7419 56.2035C20.0968 53.5686 18.2268 50.4412 17.1073 46.8705C16.2953 44.2603 15.877 41.5884 16.0246 38.8796C16.1353 36.9589 16.4798 35.075 17.058 33.2158C18.2637 29.3866 20.2568 26.0499 23.1725 23.2795C25.8422 20.7308 28.9425 18.8962 32.4857 17.8989C33.9005 17.5049 35.3522 17.2094 36.804 17.0247C38.2188 16.84 39.2891 17.7512 39.3752 19.1302C39.3998 19.5488 39.2522 20.0167 39.0677 20.4107C38.391 21.8143 37.5544 23.1318 37.0008 24.5724C36.2626 26.4808 36.1519 28.5001 36.4103 30.5563C36.6932 32.711 37.3699 34.6933 38.5879 36.491C40.3225 39.0274 42.5616 40.9728 45.5266 41.8962C46.9783 42.3518 48.5285 42.7212 50.0294 42.7335C52.7606 42.7581 55.3811 42.0686 57.6817 40.468C58.1492 40.1478 58.666 39.8523 59.195 39.7046C60.7574 39.2736 62.123 40.4803 61.9754 42.1179C61.7416 44.6666 61.1019 47.1168 60.0193 49.4562C57.6694 54.5782 53.954 58.3459 48.8853 60.7838C45.7973 62.286 42.4878 63.0001 39.0308 63.0001ZM20.5274 40.1971C20.6135 41.0097 20.6874 42.1425 20.8965 43.2383C21.0933 44.2603 21.3886 45.2699 21.7331 46.2549C22.8772 49.5301 24.8211 52.2758 27.5523 54.3936C32.9409 58.5675 38.9446 59.5156 45.3544 57.2993C50.3124 55.5756 53.831 52.1527 55.9717 47.3384C56.0824 47.0799 56.107 46.772 56.1685 46.4888C55.8732 46.5135 55.578 46.5012 55.295 46.575C52.5884 47.3138 49.8326 47.5477 47.0768 47.0552C41.8358 46.1195 37.6898 43.4353 34.7371 38.9781C32.781 36.0354 31.809 32.7726 31.7106 29.2512C31.6491 27.2442 31.9813 25.2988 32.5472 23.378C32.5964 23.2057 32.5226 23.0087 32.5103 22.8117C32.3381 22.8363 32.1412 22.8117 31.9936 22.8855C31.1078 23.3165 30.1974 23.7105 29.3731 24.2399C23.7015 27.8968 20.8596 33.1666 20.5274 40.1971Z" fill="white"/>
</g>
<defs>
<clipPath id="clip0_47_2617">
<rect width="46" height="46" fill="white" transform="translate(16 17)"/>
</clipPath>
</defs>
</svg>
