<svg width="103" height="85" viewBox="0 0 103 85" fill="none" xmlns="http://www.w3.org/2000/svg">
<rect width="103" height="50" rx="25" fill="#D1D1CF"/>
<circle cx="25" cy="25" r="21" fill="white"/>
<path d="M4.43821 81V67.9091H6.41335V79.2997H12.3452V81H4.43821ZM14.445 81V71.1818H16.3562V81H14.445ZM15.4102 69.6669C15.0778 69.6669 14.7923 69.5561 14.5536 69.3345C14.3192 69.1087 14.2021 68.8402 14.2021 68.5291C14.2021 68.2138 14.3192 67.9453 14.5536 67.7237C14.7923 67.4979 15.0778 67.3849 15.4102 67.3849C15.7425 67.3849 16.0259 67.4979 16.2603 67.7237C16.4989 67.9453 16.6183 68.2138 16.6183 68.5291C16.6183 68.8402 16.4989 69.1087 16.2603 69.3345C16.0259 69.5561 15.7425 69.6669 15.4102 69.6669ZM23.0439 84.8864C22.264 84.8864 21.5929 84.7841 21.0304 84.5795C20.4721 84.375 20.0162 84.1044 19.6625 83.7678C19.3088 83.4311 19.0446 83.0625 18.8699 82.6619L20.5126 81.9844C20.6277 82.1719 20.7811 82.37 20.9728 82.5788C21.1689 82.7919 21.4331 82.973 21.7654 83.1222C22.1021 83.2713 22.5346 83.3459 23.063 83.3459C23.7875 83.3459 24.3862 83.169 24.8592 82.8153C25.3322 82.4659 25.5687 81.9077 25.5687 81.1406V79.2102H25.4473C25.3322 79.419 25.166 79.6513 24.9487 79.907C24.7356 80.1626 24.4416 80.3842 24.0666 80.5717C23.6916 80.7592 23.2037 80.853 22.6028 80.853C21.8272 80.853 21.1284 80.6719 20.5062 80.3097C19.8883 79.9432 19.3983 79.4041 19.036 78.6925C18.6781 77.9766 18.4991 77.0966 18.4991 76.0526C18.4991 75.0085 18.676 74.1136 19.0297 73.3679C19.3876 72.6222 19.8777 72.0511 20.4998 71.6548C21.122 71.2543 21.8272 71.054 22.6156 71.054C23.225 71.054 23.7172 71.1562 24.0922 71.3608C24.4672 71.5611 24.7591 71.7955 24.9679 72.0639C25.1809 72.3324 25.345 72.5689 25.4601 72.7734H25.6007V71.1818H27.4735V81.2173C27.4735 82.0611 27.2775 82.7536 26.8855 83.2947C26.4934 83.8359 25.9629 84.2365 25.2939 84.4964C24.6291 84.7564 23.8791 84.8864 23.0439 84.8864ZM23.0247 79.2678C23.5744 79.2678 24.0389 79.1399 24.4181 78.8842C24.8017 78.6243 25.0914 78.2536 25.2875 77.772C25.4877 77.2862 25.5879 76.7045 25.5879 76.027C25.5879 75.3665 25.4899 74.7848 25.2939 74.282C25.0978 73.7791 24.8102 73.3871 24.4309 73.1058C24.0517 72.8203 23.5829 72.6776 23.0247 72.6776C22.4494 72.6776 21.97 72.8267 21.5865 73.125C21.2029 73.419 20.9132 73.8196 20.7172 74.3267C20.5254 74.8338 20.4295 75.4006 20.4295 76.027C20.4295 76.6705 20.5275 77.2351 20.7235 77.7209C20.9196 78.2067 21.2093 78.5859 21.5929 78.8587C21.9806 79.1314 22.4579 79.2678 23.0247 79.2678ZM31.948 75.1705V81H30.0368V67.9091H31.9224V72.7798H32.0439C32.274 72.2514 32.6255 71.8317 33.0985 71.5206C33.5716 71.2095 34.1895 71.054 34.9522 71.054C35.6255 71.054 36.2136 71.1925 36.7164 71.4695C37.2235 71.7464 37.6156 72.1598 37.8926 72.7095C38.1738 73.255 38.3145 73.9368 38.3145 74.755V81H36.4032V74.9851C36.4032 74.2649 36.2179 73.7067 35.8471 73.3104C35.4764 72.9098 34.9608 72.7095 34.3002 72.7095C33.8485 72.7095 33.4437 72.8054 33.0858 72.9972C32.7321 73.1889 32.4529 73.4702 32.2484 73.8409C32.0481 74.2074 31.948 74.6506 31.948 75.1705ZM45.448 71.1818V72.7159H40.085V71.1818H45.448ZM41.5233 68.8295H43.4345V78.1172C43.4345 78.4879 43.4899 78.767 43.6007 78.9545C43.7115 79.1378 43.8542 79.2635 44.0289 79.3317C44.2079 79.3956 44.4018 79.4276 44.6106 79.4276C44.764 79.4276 44.8983 79.4169 45.0133 79.3956C45.1284 79.3743 45.2179 79.3572 45.2818 79.3445L45.627 80.9233C45.5162 80.9659 45.3585 81.0085 45.1539 81.0511C44.9494 81.098 44.6937 81.1236 44.3869 81.1278C43.8841 81.1364 43.4153 81.0469 42.9806 80.8594C42.546 80.6719 42.1944 80.3821 41.926 79.9901C41.6575 79.598 41.5233 79.1058 41.5233 78.5135V68.8295ZM52.4792 67.9091H54.8762L59.0439 78.0852H59.1973L63.3649 67.9091H65.7619V81H63.8826V71.527H63.7612L59.9004 80.9808H58.3407L54.4799 71.5206H54.3585V81H52.4792V67.9091ZM72.6158 81.1982C71.6953 81.1982 70.892 80.9872 70.206 80.5653C69.5199 80.1435 68.9872 79.5533 68.608 78.7947C68.2287 78.0362 68.0391 77.1499 68.0391 76.1357C68.0391 75.1172 68.2287 74.2266 68.608 73.4638C68.9872 72.701 69.5199 72.1087 70.206 71.6868C70.892 71.2649 71.6953 71.054 72.6158 71.054C73.5362 71.054 74.3395 71.2649 75.0256 71.6868C75.7116 72.1087 76.2443 72.701 76.6236 73.4638C77.0028 74.2266 77.1925 75.1172 77.1925 76.1357C77.1925 77.1499 77.0028 78.0362 76.6236 78.7947C76.2443 79.5533 75.7116 80.1435 75.0256 80.5653C74.3395 80.9872 73.5362 81.1982 72.6158 81.1982ZM72.6222 79.5938C73.2188 79.5938 73.7131 79.4361 74.1051 79.1207C74.4972 78.8054 74.7869 78.3857 74.9744 77.8615C75.1662 77.3374 75.2621 76.7599 75.2621 76.1293C75.2621 75.5028 75.1662 74.9276 74.9744 74.4034C74.7869 73.875 74.4972 73.451 74.1051 73.1314C73.7131 72.8118 73.2188 72.652 72.6222 72.652C72.0213 72.652 71.5227 72.8118 71.1264 73.1314C70.7344 73.451 70.4425 73.875 70.2507 74.4034C70.0632 74.9276 69.9695 75.5028 69.9695 76.1293C69.9695 76.7599 70.0632 77.3374 70.2507 77.8615C70.4425 78.3857 70.7344 78.8054 71.1264 79.1207C71.5227 79.4361 72.0213 79.5938 72.6222 79.5938ZM83.0012 81.1918C82.2086 81.1918 81.5012 80.9893 80.8791 80.5845C80.2612 80.1754 79.7754 79.5937 79.4217 78.8395C79.0723 78.081 78.8975 77.1712 78.8975 76.1101C78.8975 75.049 79.0744 74.1413 79.4281 73.3871C79.786 72.6328 80.2761 72.0554 80.8983 71.6548C81.5204 71.2543 82.2257 71.054 83.014 71.054C83.6234 71.054 84.1135 71.1562 84.4842 71.3608C84.8592 71.5611 85.149 71.7955 85.3535 72.0639C85.5623 72.3324 85.7243 72.5689 85.8393 72.7734H85.9544V67.9091H87.8656V81H85.9991V79.4723H85.8393C85.7243 79.6811 85.5581 79.9197 85.3407 80.1882C85.1277 80.4567 84.8336 80.6911 84.4586 80.8913C84.0836 81.0916 83.5978 81.1918 83.0012 81.1918ZM83.4231 79.5618C83.9728 79.5618 84.4373 79.4169 84.8166 79.1271C85.2001 78.8331 85.4899 78.4261 85.6859 77.9062C85.8862 77.3864 85.9863 76.7812 85.9863 76.0909C85.9863 75.4091 85.8883 74.8125 85.6923 74.3011C85.4963 73.7898 85.2086 73.3913 84.8294 73.1058C84.4501 72.8203 83.9814 72.6776 83.4231 72.6776C82.8478 72.6776 82.3684 72.8267 81.9849 73.125C81.6014 73.4233 81.3116 73.8303 81.1156 74.3459C80.9238 74.8615 80.8279 75.4432 80.8279 76.0909C80.8279 76.7472 80.926 77.3374 81.122 77.8615C81.318 78.3857 81.6078 78.8011 81.9913 79.108C82.3791 79.4105 82.8564 79.5618 83.4231 79.5618ZM94.8249 81.1982C93.8576 81.1982 93.0245 80.9915 92.3256 80.5781C91.631 80.1605 91.0941 79.5746 90.7148 78.8203C90.3398 78.0618 90.1523 77.1733 90.1523 76.1548C90.1523 75.1491 90.3398 74.2628 90.7148 73.4957C91.0941 72.7287 91.6225 72.13 92.3001 71.6996C92.9819 71.2692 93.7788 71.054 94.6907 71.054C95.2447 71.054 95.7816 71.1456 96.3015 71.3288C96.8214 71.5121 97.288 71.7997 97.7013 72.1918C98.1147 72.5838 98.4407 73.093 98.6793 73.7195C98.918 74.3416 99.0373 75.098 99.0373 75.9886V76.6662H91.2326V75.2344H97.1644C97.1644 74.7315 97.0621 74.2862 96.8576 73.8984C96.6531 73.5064 96.3654 73.1974 95.9947 72.9716C95.6282 72.7457 95.1978 72.6328 94.7035 72.6328C94.1665 72.6328 93.6978 72.7649 93.2972 73.0291C92.9009 73.2891 92.5941 73.63 92.3768 74.0518C92.1637 74.4695 92.0572 74.9233 92.0572 75.4134V76.532C92.0572 77.1882 92.1722 77.7464 92.4023 78.2067C92.6367 78.6669 92.9627 79.0185 93.3803 79.2614C93.7979 79.5 94.2859 79.6193 94.8441 79.6193C95.2063 79.6193 95.5366 79.5682 95.8349 79.4659C96.1332 79.3594 96.391 79.2017 96.6083 78.9929C96.8256 78.7841 96.9918 78.5263 97.1069 78.2195L98.9158 78.5455C98.771 79.0781 98.511 79.5447 98.136 79.9453C97.7653 80.3416 97.2987 80.6506 96.7362 80.8722C96.1779 81.0895 95.5408 81.1982 94.8249 81.1982Z" fill="black"/>
</svg>
