<svg width="180" height="80" viewBox="0 0 180 80" fill="none" xmlns="http://www.w3.org/2000/svg">
<rect width="180" height="80" rx="40" fill="#484D60"/>
<circle cx="140" cy="40" r="30" fill="url(#paint0_linear_47_2572)"/>
<g clip-path="url(#clip0_47_2572)">
<path d="M143.897 25.2107C138.169 28.5948 136.397 35.1755 138.58 40.2692C139.871 43.2552 142.019 45.4097 145.047 46.6275C148.052 47.8336 151.092 47.7985 154.155 46.6275C152.019 51.7915 145.387 56.3933 137.5 54.6135C129.589 52.8102 124.484 44.8477 126.15 37.0257C127.793 29.2856 135.024 23.8289 143.897 25.2107Z" fill="#484D60"/>
</g>
<path d="M43.704 49V32.2H49.152C51.12 32.2 52.736 32.544 54 33.232C55.28 33.92 56.224 34.896 56.832 36.16C57.456 37.408 57.768 38.896 57.768 40.624C57.768 42.336 57.456 43.824 56.832 45.088C56.224 46.336 55.28 47.304 54 47.992C52.736 48.664 51.12 49 49.152 49H43.704ZM46.248 46.84H49.056C50.576 46.84 51.776 46.592 52.656 46.096C53.552 45.6 54.192 44.888 54.576 43.96C54.976 43.032 55.176 41.92 55.176 40.624C55.176 39.328 54.976 38.208 54.576 37.264C54.192 36.32 53.552 35.6 52.656 35.104C51.776 34.592 50.576 34.336 49.056 34.336H46.248V46.84ZM64.515 49.288C63.507 49.288 62.675 49.12 62.019 48.784C61.363 48.448 60.875 48.008 60.555 47.464C60.235 46.904 60.075 46.296 60.075 45.64C60.075 44.488 60.523 43.576 61.419 42.904C62.315 42.232 63.595 41.896 65.259 41.896H68.379V41.68C68.379 40.752 68.123 40.056 67.611 39.592C67.115 39.128 66.467 38.896 65.667 38.896C64.963 38.896 64.347 39.072 63.819 39.424C63.307 39.76 62.995 40.264 62.883 40.936H60.339C60.419 40.072 60.707 39.336 61.203 38.728C61.715 38.104 62.355 37.632 63.123 37.312C63.907 36.976 64.763 36.808 65.691 36.808C67.355 36.808 68.643 37.248 69.555 38.128C70.467 38.992 70.923 40.176 70.923 41.68V49H68.715L68.499 46.96C68.163 47.616 67.675 48.168 67.035 48.616C66.395 49.064 65.555 49.288 64.515 49.288ZM65.019 47.224C65.707 47.224 66.283 47.064 66.747 46.744C67.227 46.408 67.595 45.968 67.851 45.424C68.123 44.88 68.291 44.28 68.355 43.624H65.523C64.515 43.624 63.795 43.8 63.363 44.152C62.947 44.504 62.739 44.944 62.739 45.472C62.739 46.016 62.939 46.448 63.339 46.768C63.755 47.072 64.315 47.224 65.019 47.224ZM73.8893 49V37.096H76.1693L76.3853 39.352C76.8013 38.568 77.3773 37.952 78.1133 37.504C78.8653 37.04 79.7693 36.808 80.8253 36.808V39.472H80.1293C79.4253 39.472 78.7933 39.592 78.2333 39.832C77.6893 40.056 77.2493 40.448 76.9133 41.008C76.5933 41.552 76.4333 42.312 76.4333 43.288V49H73.8893ZM83.0064 49V31.72H85.5504V42.016L90.1104 37.096H93.1584L88.0944 42.496L93.9024 49H90.6864L85.5504 42.904V49H83.0064Z" fill="white"/>
<defs>
<linearGradient id="paint0_linear_47_2572" x1="120.27" y1="14.0541" x2="161.622" y2="70" gradientUnits="userSpaceOnUse">
<stop stop-color="white"/>
<stop offset="1" stop-color="white"/>
</linearGradient>
<clipPath id="clip0_47_2572">
<rect width="28.3333" height="30" fill="white" transform="translate(125.833 25)"/>
</clipPath>
</defs>
</svg>
