<?xml version="1.0" encoding="utf-8"?>
<!-- Generated by IcoMoon.io -->
<!DOCTYPE svg PUBLIC "-//W3C//DTD SVG 1.1//EN" "http://www.w3.org/Graphics/SVG/1.1/DTD/svg11.dtd">
<svg version="1.1" xmlns="http://www.w3.org/2000/svg" xmlns:xlink="http://www.w3.org/1999/xlink" width="16" height="16" viewBox="0 0 16 16">
<path fill="#000" d="M11.964 3.537c-0.108 0.153-1.008 1.363-3.134 2.16-0.98-1.8-2.066-3.279-2.231-3.5 0.45-0.108 0.919-0.166 1.401-0.166 1.519 0 2.908 0.57 3.963 1.507zM8.418 8.061c-3.084 0.997-4.725 3.714-4.86 3.946-0.955-1.060-1.537-2.462-1.537-3.998 0-0.061 0.001-0.122 0.003-0.183 0.262 0.005 3.159 0.043 6.145-0.851 0.171 0.335 0.335 0.675 0.485 1.015-0.079 0.022-0.158 0.046-0.236 0.071zM8 0c-4.418 0-8 3.582-8 8s3.582 8 8 8 8-3.582 8-8-3.582-8-8-8zM8 15c-3.86 0-7-3.14-7-7s3.14-7 7-7 7 3.14 7 7c0 3.86-3.14 7-7 7zM9.686 7.452c-0.124-0.292-0.258-0.581-0.397-0.866 2.211-0.903 3.213-2.187 3.339-2.357 0.833 1.017 1.337 2.313 1.35 3.725-0.197-0.042-2.174-0.443-4.163-0.192-0.042-0.102-0.085-0.205-0.129-0.309zM7.675 6.056c-2.797 0.743-5.26 0.732-5.528 0.728 0.388-1.855 1.638-3.397 3.311-4.186 0.158 0.216 1.226 1.697 2.217 3.458zM9.021 8.992c0.013-0.005 0.026-0.009 0.039-0.013 0.839 2.181 1.187 4.010 1.276 4.534-0.718 0.306-1.507 0.475-2.336 0.475-1.382 0-2.656-0.472-3.67-1.262 0.108-0.22 1.318-2.559 4.691-3.734zM10.179 8.703c1.874-0.3 3.52 0.191 3.724 0.256-0.267 1.664-1.221 3.1-2.563 4.007-0.061-0.364-0.38-2.114-1.162-4.263z"></path>
</svg>
