<?xml version="1.0" encoding="utf-8"?>
<!-- Generated by IcoMoon.io -->
<!DOCTYPE svg PUBLIC "-//W3C//DTD SVG 1.1//EN" "http://www.w3.org/Graphics/SVG/1.1/DTD/svg11.dtd">
<svg version="1.1" xmlns="http://www.w3.org/2000/svg" xmlns:xlink="http://www.w3.org/1999/xlink" width="16" height="16" viewBox="0 0 16 16">
<path fill="#000" d="M13.313 0h-10.625c-1.478 0-2.688 1.209-2.688 2.688v10.625c0 1.478 1.209 2.688 2.688 2.688h10.625c1.478 0 2.688-1.209 2.688-2.688v-10.625c0-1.478-1.209-2.688-2.688-2.688zM6 13h-2v-7h2v7zM5 5c-0.552 0-1-0.448-1-1s0.448-1 1-1 1 0.448 1 1-0.448 1-1 1zM13 13h-2v-4c0-0.552-0.448-1-1-1s-1 0.448-1 1v4h-2v-7h2v1.242c0.412-0.567 1.043-1.242 1.75-1.242 1.243 0 2.25 1.119 2.25 2.5v4.5z"></path>
</svg>
