<?xml version="1.0" encoding="utf-8"?>
<!-- Generated by IcoMoon.io -->
<!DOCTYPE svg PUBLIC "-//W3C//DTD SVG 1.1//EN" "http://www.w3.org/Graphics/SVG/1.1/DTD/svg11.dtd">
<svg version="1.1" xmlns="http://www.w3.org/2000/svg" xmlns:xlink="http://www.w3.org/1999/xlink" width="37" height="32" viewBox="0 0 37 32">
<path fill="#444" d="M34.286 13.714q0.946 0 1.616 0.67t0.67 1.616-0.67 1.616-1.616 0.67h-0.268l-2.054 11.821q-0.143 0.821-0.786 1.357t-1.464 0.536h-22.857q-0.821 0-1.464-0.536t-0.786-1.357l-2.054-11.821h-0.268q-0.946 0-1.616-0.67t-0.67-1.616 0.67-1.616 1.616-0.67h32zM8.661 28q0.464-0.036 0.777-0.402t0.277-0.83l-0.571-7.429q-0.036-0.464-0.402-0.777t-0.83-0.277-0.777 0.402-0.277 0.83l0.571 7.429q0.036 0.446 0.366 0.75t0.777 0.304h0.089zM16 26.857v-7.429q0-0.464-0.339-0.804t-0.804-0.339-0.804 0.339-0.339 0.804v7.429q0 0.464 0.339 0.804t0.804 0.339 0.804-0.339 0.339-0.804zM22.857 26.857v-7.429q0-0.464-0.339-0.804t-0.804-0.339-0.804 0.339-0.339 0.804v7.429q0 0.464 0.339 0.804t0.804 0.339 0.804-0.339 0.339-0.804zM29.143 26.946l0.571-7.429q0.036-0.464-0.277-0.83t-0.777-0.402-0.83 0.277-0.402 0.777l-0.571 7.429q-0.036 0.464 0.277 0.83t0.777 0.402h0.089q0.446 0 0.777-0.304t0.366-0.75zM8.5 5.214l-1.661 7.357h-2.357l1.804-7.875q0.339-1.571 1.589-2.563t2.857-0.991h2.982q0-0.464 0.339-0.804t0.804-0.339h6.857q0.464 0 0.804 0.339t0.339 0.804h2.982q1.607 0 2.857 0.991t1.589 2.563l1.804 7.875h-2.357l-1.661-7.357q-0.196-0.786-0.813-1.286t-1.42-0.5h-2.982q0 0.464-0.339 0.804t-0.804 0.339h-6.857q-0.464 0-0.804-0.339t-0.339-0.804h-2.982q-0.804 0-1.42 0.5t-0.813 1.286z"></path>
</svg>
