<?xml version="1.0" encoding="UTF-8"?>
<svg width="17px" height="17px" viewBox="0 0 17 17" version="1.1" xmlns="http://www.w3.org/2000/svg" xmlns:xlink="http://www.w3.org/1999/xlink">
    <g id="Page-1" stroke="none" stroke-width="1" fill="none" fill-rule="evenodd">
        <g id="shopping-cart" transform="translate(0.166667, 0.166667)" fill="#2B87DA" fill-rule="nonzero">
            <path d="M14.8402677,11.4419476 L5.42440069,11.4419476 C5.00838151,11.4419476 4.67113133,11.1049035 4.67113133,10.6891386 C4.67113133,10.2733737 5.00838151,9.93632959 5.42440069,9.93632959 L14.0869984,9.93632959 C14.2640596,9.93610489 14.4170569,9.81265385 14.4545938,9.63972285 L15.9611325,2.69054307 C15.9852633,2.57937447 15.9577944,2.46326276 15.8864041,2.37466426 C15.8150138,2.28606575 15.7073609,2.23448523 15.5935371,2.23434082 L4.357018,2.23434082 L3.90505639,0.435127341 C3.86336047,0.268046928 3.71352942,0.15054949 3.54122728,0.149812734 L0.528149833,0.149812734 C0.320140242,0.149812734 0.151515152,0.318334766 0.151515152,0.526217228 C0.151515152,0.73409969 0.320140242,0.902621723 0.528149833,0.902621723 L3.24669896,0.902621723 L5.32120279,9.19405993 C4.53854339,9.2809909 3.95491415,9.95565001 3.98196403,10.7421825 C4.00901392,11.528715 4.63761597,12.1617349 5.42440069,12.1947566 L14.8402677,12.1947566 C15.0482773,12.1947566 15.2169024,12.0262345 15.2169024,11.8183521 C15.2169024,11.6104696 15.0482773,11.4419476 14.8402677,11.4419476 Z M15.1265101,2.98714981 L13.7856906,9.1835206 L6.09556369,9.1835206 L4.54533534,2.98714981 L15.1265101,2.98714981 Z" id="Shape"></path>
            <path d="M6.78787879,12.9138577 C5.93434781,12.9138577 5.24242424,13.5980068 5.24242424,14.4419476 C5.24242424,15.2858883 5.93434781,15.9700375 6.78787879,15.9700375 C7.64140976,15.9700375 8.33333333,15.2858883 8.33333333,14.4419476 C8.33333333,13.5980068 7.64140976,12.9138577 6.78787879,12.9138577 Z M6.78787879,15.2059925 C6.3611133,15.2059925 6.01515152,14.8639179 6.01515152,14.4419476 C6.01515152,14.0199772 6.3611133,13.6779026 6.78787879,13.6779026 C7.21464428,13.6779026 7.56060606,14.0199772 7.56060606,14.4419476 C7.56060606,14.8639179 7.21464428,15.2059925 6.78787879,15.2059925 Z" id="Shape"></path>
            <path d="M12.969697,12.9138577 C12.116166,12.9138577 11.4242424,13.5980068 11.4242424,14.4419476 C11.4242424,15.2858883 12.116166,15.9700375 12.969697,15.9700375 C13.8232279,15.9700375 14.5151515,15.2858883 14.5151515,14.4419476 C14.5151515,13.5980068 13.8232279,12.9138577 12.969697,12.9138577 Z M12.969697,15.2059925 C12.5429315,15.2059925 12.1969697,14.8639179 12.1969697,14.4419476 C12.1969697,14.0199772 12.5429315,13.6779026 12.969697,13.6779026 C13.3964625,13.6779026 13.7424242,14.0199772 13.7424242,14.4419476 C13.7424242,14.8639179 13.3964625,15.2059925 12.969697,15.2059925 Z" id="Shape"></path>
            <path d="M9.78787879,8.41947566 C9.98870961,8.41947566 10.1515152,8.25179204 10.1515152,8.04494382 L10.1515152,4.29962547 C10.1515152,4.09277725 9.98870961,3.92509363 9.78787879,3.92509363 C9.58704797,3.92509363 9.42424242,4.09277725 9.42424242,4.29962547 L9.42424242,8.04494382 C9.42424242,8.25179204 9.58704797,8.41947566 9.78787879,8.41947566 Z" id="Path"></path>
            <path d="M11.7878788,7.70037453 C11.9887096,7.70037453 12.1515152,7.52933725 12.1515152,7.31835206 L12.1515152,5.02621723 C12.1515152,4.81523204 11.9887096,4.64419476 11.7878788,4.64419476 C11.587048,4.64419476 11.4242424,4.81523204 11.4242424,5.02621723 L11.4242424,7.31835206 C11.4242424,7.52933725 11.587048,7.70037453 11.7878788,7.70037453 Z" id="Path"></path>
            <path d="M7.96969697,7.70037453 C8.17052779,7.70037453 8.33333333,7.52933725 8.33333333,7.31835206 L8.33333333,5.02621723 C8.33333333,4.81523204 8.17052779,4.64419476 7.96969697,4.64419476 C7.76886615,4.64419476 7.60606061,4.81523204 7.60606061,5.02621723 L7.60606061,7.31835206 C7.60606061,7.52933725 7.76886615,7.70037453 7.96969697,7.70037453 Z" id="Path"></path>
        </g>
    </g>
</svg>