<svg xmlns="http://www.w3.org/2000/svg" viewBox="0 0 1000 1000" fill-rule="evenodd" stroke-linejoin="round" stroke-miterlimit="2" fill="#3d49f2" xmlns:v="https://vecta.io/nano"><path d="M467.632 960.433c-216.52-.008-405.226-152.696-450.416-364.448-.416-1.965-.627-3.968-.627-5.976 0-15.81 13.01-28.819 28.819-28.819 13.563 0 25.379 9.576 28.192 22.843 39.104 184.752 204.8 318.848 394.032 318.848 202.848 0 374.704-151.536 399.76-352.48 2.246-13.891 14.36-24.203 28.43-24.203 15.8 0 28.8 13.002 28.8 28.8a28.85 28.85 0 0 1-.11 2.523c-28.656 229.696-225.072 402.912-456.88 402.912zM45.76 437.089c-15.805 0-28.806-13-28.806-28.8a28.88 28.88 0 0 1 .646-6.064C63.309 191.207 251.72 39.375 467.632 39.569c96.39-.238 190.432 30.011 268.608 86.4 6.942 5.456 11.002 13.813 11.002 22.643 0 15.798-13 28.8-28.8 28.8a28.81 28.81 0 0 1-15.802-4.723 400.05 400.05 0 0 0-235.008-75.52c-188.4 0-354.032 133.392-393.776 317.216-2.854 13.182-14.608 22.68-28.096 22.704z" fill-rule="nonzero"/><circle cx="292.27" cy="287.77" r="31.48" transform="matrix(1.6 0 0 1.6 0 39.5687)"/><path d="M467.632 636.689c-74.97-.021-136.65-61.718-136.65-136.688 0-74.986 61.704-136.688 136.688-136.688 48.763 0 93.971 26.094 118.362 68.32a28.8 28.8 0 0 1 4.496 15.451c0 15.798-13.002 28.8-28.8 28.8a28.84 28.84 0 0 1-25.52-15.451c-14.117-24.464-40.299-39.584-68.542-39.584-43.413 0-79.136 35.723-79.136 79.136s35.723 79.136 79.136 79.136c28.243 0 54.426-15.12 68.542-39.584 5.28-8.306 14.464-13.349 24.304-13.349 15.8 0 28.8 13 28.8 28.8a28.8 28.8 0 0 1-3.28 13.349c-24.464 42.176-69.643 68.258-118.4 68.352zm0 161.872a296.45 296.45 0 0 1-119.44-24.848 28.85 28.85 0 0 1-17.283-26.4c0-15.802 13.002-28.803 28.803-28.803a28.8 28.8 0 0 1 11.52 2.403 239.32 239.32 0 0 0 96.4 20.032c114.176 0 213.504-81.072 236.192-192.768 2.216-13.922 14.344-24.274 28.442-24.274 15.8 0 28.8 13.002 28.8 28.8a28.77 28.77 0 0 1-.842 6.914c-28.288 138.502-151.23 238.877-292.592 238.88v.064zM218.32 632.065a28.85 28.85 0 0 1-26.592-17.76 296.94 296.94 0 0 1-22.656-114.304c0-164.624 133.936-298.56 298.56-298.56a296.78 296.78 0 0 1 211.2 87.44c5.843 5.445 9.166 13.083 9.166 21.07 0 15.8-13 28.8-28.8 28.8a28.81 28.81 0 0 1-21.07-9.166 239.52 239.52 0 0 0-170.416-70.592c-132.896 0-241.008 108.112-241.008 241.008a239.61 239.61 0 0 0 18.272 92.256 28.81 28.81 0 0 1 2.187 11.008c0 15.786-12.978 28.779-28.763 28.8h-.08z" fill-rule="nonzero"/><g transform="matrix(1.6 0 0 1.6 0 39.5687)"><circle cx="173.04" cy="407" r="22.48"/><circle cx="493.36" cy="107.91" r="22.48"/><circle cx="22.48" cy="287.77" r="22.48"/></g><path d="M971.2 474.769H561.104c-15.8 0-28.8-13-28.8-28.8s13-28.8 28.8-28.8H971.2c15.8 0 28.8 13 28.8 28.8s-13 28.8-28.8 28.8zM732.016 582.737H561.104c-15.8 0-28.8-13-28.8-28.8s13-28.8 28.8-28.8h170.912c15.8 0 28.8 13 28.8 28.8s-13 28.8-28.8 28.8zm239.184 0H896c-15.8 0-28.8-13-28.8-28.8s13-28.8 28.8-28.8h75.2c15.8 0 28.8 13 28.8 28.8s-13 28.8-28.8 28.8z" fill-rule="nonzero"/></svg>