<svg width="8" height="8" viewBox="0 0 8 8" fill="none" xmlns="http://www.w3.org/2000/svg">
<path d="M1.9913 3.99506C1.9913 5.10174 2.8854 5.99896 3.99208 6.00209C5.10189 6.00522 6.00849 5.09861 6.00536 3.98881C6.00224 2.88213 5.10189 1.98803 3.99521 1.99116C2.8854 1.99428 1.9913 2.88838 1.9913 3.99506Z" fill="#B7B6BF"/>
<path d="M3.71707 0.687767C3.71707 0.806563 3.71394 0.925359 3.71707 1.04728C3.72019 1.23485 3.83586 1.36303 3.99217 1.36616C4.14849 1.36928 4.27041 1.24111 4.27353 1.05666C4.27666 0.806563 4.27666 0.559592 4.27353 0.309495C4.27041 0.125049 4.15161 0 3.99217 0C3.83274 0.00312621 3.72332 0.128175 3.71707 0.315748C3.71394 0.43767 3.71707 0.562718 3.71707 0.687767Z" fill="#B7B6BF"/>
<path d="M7.32155 4.2764C7.4466 4.2764 7.57165 4.27953 7.6967 4.2764C7.87489 4.27015 7.99682 4.1576 7.99994 4.00442C8.00307 3.84498 7.87802 3.72306 7.69357 3.71993C7.44348 3.71681 7.19651 3.71681 6.94641 3.71993C6.76196 3.72306 6.63379 3.84186 6.63379 3.99817C6.63379 4.15448 6.76509 4.27015 6.94953 4.27327C7.07146 4.27953 7.19651 4.2764 7.32155 4.2764Z" fill="#B7B6BF"/>
<path d="M0.684838 4.2764C0.803634 4.2764 0.922431 4.27953 1.04435 4.2764C1.2288 4.27327 1.3601 4.15761 1.36323 4.00129C1.36635 3.84498 1.23505 3.72306 1.05373 3.71993C0.803634 3.71681 0.556663 3.71681 0.306566 3.71993C0.12212 3.72306 -0.00292909 3.84186 0.000197053 4.00129C0.00332332 4.16073 0.128372 4.27015 0.315945 4.2764C0.322197 4.2764 0.325324 4.2764 0.331576 4.2764C0.447246 4.2764 0.566042 4.2764 0.684838 4.2764Z" fill="#B7B6BF"/>
<path d="M3.71698 7.32142C3.71698 7.44647 3.71385 7.57152 3.71698 7.69657C3.72323 7.87476 3.83265 7.99668 3.98583 7.99981C4.14527 8.00606 4.26719 7.87789 4.27032 7.69657C4.27344 7.44334 4.27657 7.18699 4.27032 6.93377C4.26719 6.7587 4.14527 6.63678 3.99208 6.63678C3.84202 6.63678 3.72323 6.76183 3.71385 6.9369C3.71385 6.94628 3.71385 6.95878 3.71385 6.96816C3.71698 7.0807 3.71698 7.1995 3.71698 7.32142Z" fill="#B7B6BF"/>
<path d="M1.06952 6.66484C1.12267 6.72737 1.16956 6.82741 1.24459 6.86492C1.31649 6.89931 1.44779 6.89618 1.50094 6.84929C1.73228 6.64296 1.95424 6.421 2.1637 6.19279C2.25436 6.09275 2.22935 5.9677 2.13556 5.86766C2.04177 5.77075 1.9136 5.73323 1.81356 5.82389C1.57597 6.0396 1.35401 6.27407 1.12892 6.50541C1.10078 6.53354 1.09766 6.58982 1.06952 6.66484Z" fill="#B7B6BF"/>
<path d="M6.66207 1.0564C6.56828 1.11267 6.49325 1.1408 6.44011 1.19082C6.25253 1.36902 6.06809 1.55346 5.88989 1.74104C5.76797 1.86609 5.76484 2.01927 5.87114 2.12869C5.97743 2.24123 6.13686 2.24436 6.25879 2.12556C6.45261 1.93799 6.65269 1.75354 6.82776 1.55034C6.88715 1.48156 6.90904 1.34401 6.8809 1.25647C6.85277 1.17832 6.74022 1.12517 6.66207 1.0564Z" fill="#B7B6BF"/>
<path d="M1.04731 1.34406C1.10359 1.44098 1.13172 1.51601 1.18174 1.56915C1.35681 1.7536 1.53813 1.93179 1.71945 2.10999C1.85388 2.24129 2.01019 2.24754 2.11961 2.135C2.23215 2.02245 2.22902 1.86614 2.10085 1.73484C1.9164 1.54414 1.72883 1.35969 1.53813 1.17212C1.45372 1.08771 1.34431 1.0502 1.24114 1.11898C1.16611 1.17525 1.11609 1.26278 1.04731 1.34406Z" fill="#B7B6BF"/>
<path d="M5.75844 6.03338C5.81158 6.12404 5.83347 6.19594 5.88036 6.24596C6.06168 6.43666 6.24925 6.62424 6.43995 6.80868C6.565 6.93061 6.71506 6.93373 6.8276 6.82431C6.93389 6.72115 6.93702 6.55233 6.82135 6.43354C6.6369 6.24284 6.44933 6.05527 6.25863 5.87082C6.1711 5.78641 6.05855 5.73327 5.94914 5.80829C5.87411 5.86457 5.82409 5.95523 5.75844 6.03338Z" fill="#B7B6BF"/>
</svg>
