<svg width="8" height="8" viewBox="0 0 8 8" fill="none" xmlns="http://www.w3.org/2000/svg">
<path d="M7.81966 3.96708C7.81966 4.46905 7.72079 4.9661 7.5287 5.42986C7.3366 5.89362 7.05504 6.315 6.7001 6.66995C6.34515 7.02489 5.92377 7.30645 5.46001 7.49855C4.99625 7.69064 4.4992 7.78951 3.99723 7.78951C3.49526 7.78951 2.99821 7.69064 2.53445 7.49855C2.07069 7.30645 1.64931 7.02489 1.29437 6.66995C0.939422 6.315 0.657864 5.89362 0.465769 5.42986C0.273674 4.9661 0.174805 4.46905 0.174805 3.96708C0.174805 3.46511 0.273674 2.96806 0.465769 2.5043C0.657864 2.04054 0.939422 1.61916 1.29437 1.26422C1.64931 0.909271 2.07069 0.627713 2.53445 0.435618C2.99821 0.243523 3.49526 0.144653 3.99723 0.144653C4.4992 0.144653 4.99625 0.243523 5.46001 0.435618C5.92377 0.627713 6.34515 0.909271 6.7001 1.26422C7.05504 1.61916 7.3366 2.04054 7.5287 2.5043C7.72079 2.96806 7.81966 3.46511 7.81966 3.96708Z" fill="#6E6D7E"/>
<path d="M6.93002 5.47358C6.66378 6.01354 6.25554 6.47082 5.74909 6.79634C5.24265 7.12186 4.65713 7.30333 4.05536 7.32128C3.45359 7.33923 2.85829 7.19298 2.33335 6.89822C1.80841 6.60347 1.37363 6.17133 1.07568 5.64819L3.95652 4.00745L6.93002 5.47358Z" fill="#E7E7E9"/>
<path opacity="0.3" d="M3.69043 0.702836C4.27649 0.655644 4.86457 0.76516 5.39435 1.02015C5.92414 1.27515 6.37659 1.66645 6.7053 2.15394C7.03402 2.64143 7.22718 3.20756 7.26498 3.79431C7.30278 4.38105 7.18386 4.9673 6.92041 5.49293L3.95653 4.00745L3.69043 0.702836Z" fill="#B7B6BF"/>
<path d="M1.10553 5.69969C0.806962 5.19669 0.646785 4.62366 0.641261 4.03875C0.635737 3.45384 0.785062 2.87789 1.07408 2.36934C1.3631 1.8608 1.78152 1.43777 2.28686 1.14321C2.79221 0.84864 3.3665 0.693018 3.95144 0.692139L3.95642 4.00744L1.10553 5.69969Z" fill="#B7B6BF"/>
</svg>
