<?xml version="1.0" encoding="iso-8859-1"?>
<!DOCTYPE svg PUBLIC "-//W3C//DTD SVG 1.1//EN" "http://www.w3.org/Graphics/SVG/1.1/DTD/svg11.dtd">
<svg version="1.1" xmlns="http://www.w3.org/2000/svg" xmlns:xlink="http://www.w3.org/1999/xlink" x="0px" y="0px" width="30" height="30" viewBox="0 0 30 30" xml:space="preserve">
    <g transform="translate(-30 -80)">
        <g xmlns="http://www.w3.org/2000/svg" xmlns:xlink="http://www.w3.org/1999/xlink" id="circle-user-7">
		<path d="M45,108c7.18,0,13-5.82,13-13s-5.82-13-13-13s-13,5.82-13,13S37.82,108,45,108z M45,107c-2.658,0-5.11-0.88-7.102-2.349    c0.588-0.28,1.238-0.576,1.953-0.883c0.089-0.036,1.034-0.435,1.034-0.435c0.427-0.213,2.258-1.21,2.504-2.721    c0.079-0.49,0.026-1.224-0.681-1.939c-0.264-0.267-0.635-0.9-0.904-2.404l-0.145-0.803l-0.528-0.014    c-0.112-0.177-0.28-0.529-0.407-1.044c-0.065-0.266-0.102-0.5-0.119-0.695l0.614,0.165l-0.18-1.472    c-0.11-0.902-0.036-1.329,0.001-1.417c0.203-0.284,0.389-0.542,0.554-0.773c0.409-0.569,0.705-0.981,1.169-1.76    c0.373-0.628,1.977-1.083,3.545-1.306c-0.023,0.195-0.016,0.395,0.032,0.594c0.075,0.308,0.313,0.865,1.079,1.142    c0.417,0.149,0.555,0.382,0.891,1.034c0.171,0.331,0.365,0.706,0.646,1.109c0,0,0,0,0,0c-0.007,0,0.117,0.344,0.02,1.404    l-0.125,1.344l0.541-0.111c-0.016,0.203-0.053,0.454-0.124,0.742c-0.128,0.515-0.294,0.866-0.406,1.043l-0.53,0.014l-0.143,0.803    c-0.27,1.503-0.64,2.137-0.903,2.403c-0.708,0.716-0.761,1.45-0.682,1.939c0.246,1.511,2.077,2.507,2.44,2.691    c0.063,0.029,1.009,0.428,1.115,0.471c0.708,0.305,1.354,0.599,1.939,0.878C50.108,106.121,47.658,107,45,107z M45,83    c6.617,0,12,5.383,12,12c0,3.562-1.568,6.757-4.041,8.957c-0.865-0.424-1.759-0.822-2.42-1.107    c-0.105-0.043-1.042-0.438-1.042-0.438s-3-1.518-1.5-3.036c0.606-0.613,0.961-1.726,1.177-2.931    c0.35-0.009,0.813-0.773,1.065-1.796c0.269-1.085,0.197-2.038-0.161-2.127c-0.035-0.009-0.07-0.002-0.106,0.005    c0.081-0.876,0.056-1.707-0.193-2.067c-0.776-1.11-0.842-2.089-2.018-2.512C46.588,87.523,48,86,48,86s-5.024,0.141-6.095,1.945    c-0.629,1.055-0.934,1.403-1.708,2.514c-0.25,0.361-0.257,1.193-0.15,2.069c-0.045-0.012-0.088-0.017-0.13-0.006    c-0.359,0.089-0.431,1.042-0.163,2.127c0.254,1.023,0.717,1.787,1.066,1.796c0.216,1.205,0.57,2.317,1.177,2.931    c1.5,1.518-1.5,3.036-1.5,3.036s-0.937,0.395-1.042,0.438c-0.66,0.285-1.552,0.683-2.416,1.105C34.568,101.755,33,98.561,33,95    C33,88.383,38.383,83,45,83z"/>
	</g>

    </g>
</svg>
