<?xml version="1.0" encoding="iso-8859-1"?>
<!DOCTYPE svg PUBLIC "-//W3C//DTD SVG 1.1//EN" "http://www.w3.org/Graphics/SVG/1.1/DTD/svg11.dtd">
<svg version="1.1" xmlns="http://www.w3.org/2000/svg" xmlns:xlink="http://www.w3.org/1999/xlink" x="0px" y="0px" width="30" height="30" viewBox="0 0 30 30" xml:space="preserve">
    <g transform="translate(-450 -140)">
        <g xmlns="http://www.w3.org/2000/svg" xmlns:xlink="http://www.w3.org/1999/xlink" id="color-palette-7">
		<path d="M463.551,167.995c0.904-1.182,2.354-2.419,2.354-3.125c0-1.634-3.791-7.283,1.516-7.283c5.309,0,1.518,5.649,1.518,7.283    c0,0.36,0.379,0.86,0.871,1.421c1.322-0.708,2.582-1.616,3.717-2.751c5.42-5.423,5.997-13.639,1.287-18.351    c-4.709-4.711-12.92-4.135-18.338,1.288c-5.421,5.423-5.997,13.639-1.287,18.348C457.412,167.053,460.424,168.084,463.551,167.995    z M457.182,147.184c2.656-2.659,6.17-4.184,9.64-4.184c2.831,0,5.419,1.028,7.284,2.896c4.313,4.314,3.734,11.912-1.287,16.937    c-0.826,0.826-1.754,1.553-2.766,2.168c-0.088-0.127-0.117-0.192-0.127-0.223c0.012-0.141,0.271-0.864,0.46-1.392    c0.628-1.75,1.41-3.929,0.329-5.465c-0.622-0.885-1.73-1.333-3.295-1.333c-1.563,0-2.672,0.449-3.294,1.333    c-1.081,1.536-0.3,3.715,0.329,5.465c0.189,0.528,0.449,1.251,0.449,1.484c-0.068,0.156-0.669,0.818-1.066,1.257    c-0.258,0.284-0.521,0.576-0.771,0.873c-2.795-0.026-5.339-1.047-7.172-2.881C451.582,159.805,452.158,152.208,457.182,147.184z"/>
		<path d="M459.5,159c-1.381,0-2.5,1.119-2.5,2.5s1.119,2.5,2.5,2.5s2.5-1.119,2.5-2.5S460.881,159,459.5,159z M459.5,163    c-0.827,0-1.5-0.673-1.5-1.5s0.673-1.5,1.5-1.5s1.5,0.673,1.5,1.5S460.327,163,459.5,163z"/>
		<path d="M460,154.5c0-1.381-1.119-2.5-2.5-2.5s-2.5,1.119-2.5,2.5s1.119,2.5,2.5,2.5S460,155.881,460,154.5z M456,154.5    c0-0.827,0.673-1.5,1.5-1.5s1.5,0.673,1.5,1.5s-0.673,1.5-1.5,1.5S456,155.327,456,154.5z"/>
		<path d="M461.5,151c1.381,0,2.5-1.119,2.5-2.5s-1.119-2.5-2.5-2.5s-2.5,1.119-2.5,2.5S460.119,151,461.5,151z M461.5,147    c0.827,0,1.5,0.673,1.5,1.5s-0.673,1.5-1.5,1.5s-1.5-0.673-1.5-1.5S460.673,147,461.5,147z"/>
		<path d="M468.5,150c1.381,0,2.5-1.119,2.5-2.5s-1.119-2.5-2.5-2.5s-2.5,1.119-2.5,2.5S467.119,150,468.5,150z M468.5,146    c0.827,0,1.5,0.673,1.5,1.5s-0.673,1.5-1.5,1.5s-1.5-0.673-1.5-1.5S467.673,146,468.5,146z"/>
		<path d="M470,153.5c0,1.381,1.119,2.5,2.5,2.5s2.5-1.119,2.5-2.5s-1.119-2.5-2.5-2.5S470,152.119,470,153.5z M472.5,152    c0.827,0,1.5,0.673,1.5,1.5s-0.673,1.5-1.5,1.5s-1.5-0.673-1.5-1.5S471.673,152,472.5,152z"/>
	</g>
	
    </g>
</svg>
