<svg xmlns="http://www.w3.org/2000/svg" xmlns:xlink="http://www.w3.org/1999/xlink" version="1.1" width="1000" height="1000" viewBox="0 0 1000 1000" xml:space="preserve">
<desc>Created with Fabric.js 3.5.0</desc>
<defs>
</defs>
<rect x="0" y="0" width="100%" height="100%" fill="#ffffff"/>
<g transform="matrix(-21.645 0 0 21.645 499.9995 499.9997)" id="867251">
<path style="stroke: none; stroke-width: 1; stroke-dasharray: none; stroke-linecap: butt; stroke-dashoffset: 0; stroke-linejoin: miter; stroke-miterlimit: 4; is-custom-font: none; font-file-url: none; fill: rgb(0,0,0); fill-rule: evenodd; opacity: 1;" vector-effect="non-scaling-stroke" transform=" translate(-24, -23.9988)" d="M 44.9 32.971 c 0 0.011 0.006 0.019 0.006 0.029 c 0 0.005 -0.003 0.01 -0.003 0.016 c 0.001 0.005 0.003 0.01 0.003 0.016 c 0 0.552 -0.447 1 -1 1 C 43.921 34.031 35 34 35 34 c -0.553 0 -1 -0.448 -1 -1 c 0 -0.553 0.447 -1 1 -1 h 7.946 C 42.965 31.666 43 31.338 43 31 c 0 -10.493 -8.507 -19 -19 -19 S 5 20.507 5 31 c 0 0.338 0.035 0.666 0.053 1 H 13 c 0.553 0 1 0.447 1 1 c 0 0.552 -0.447 1 -1 1 c 0 0 -8.92 0.031 -8.906 0.031 c -0.553 0 -1 -0.448 -1 -1 c 0 -0.006 0.002 -0.011 0.003 -0.016 c 0 -0.006 -0.003 -0.011 -0.003 -0.016 c 0 -0.011 0.006 -0.019 0.006 -0.028 C 3.039 32.321 3 31.665 3 31 c 0 -11.599 9.402 -21 21 -21 s 21 9.401 21 21 C 45 31.665 44.961 32.321 44.9 32.971 z M 17.523 21.128 c 0.393 -0.216 0.865 -0.144 1.189 0.133 l -0.05 -0.083 c 8.774 6.42 10.577 9.373 10.61 9.428 c 1.433 2.357 0.581 5.371 -1.899 6.731 s -5.653 0.553 -7.085 -1.804 c -0.035 -0.053 -1.824 -3.014 -3.291 -13.442 l 0.051 0.082 C 16.959 21.769 17.131 21.343 17.523 21.128 z M 22.086 34.549 c 0.555 0.911 1.589 1.478 2.699 1.478 c 0.542 0 1.079 -0.137 1.552 -0.397 c 0.72 -0.395 1.235 -1.031 1.45 -1.794 c 0.216 -0.764 0.105 -1.56 -0.303 -2.232 c -0.017 -0.025 -1.572 -2.386 -8.062 -7.348 C 20.703 32.071 22.075 34.529 22.086 34.549 z" stroke-linecap="round"/>
</g>
</svg>