<?xml version="1.0" encoding="iso-8859-1"?>
<!DOCTYPE svg PUBLIC "-//W3C//DTD SVG 1.1//EN" "http://www.w3.org/Graphics/SVG/1.1/DTD/svg11.dtd">
<svg version="1.1" xmlns="http://www.w3.org/2000/svg" xmlns:xlink="http://www.w3.org/1999/xlink" x="0px" y="0px" width="30" height="30" viewBox="0 0 30 30" xml:space="preserve">
    <g transform="translate(-30 -140)">
        <g xmlns="http://www.w3.org/2000/svg" xmlns:xlink="http://www.w3.org/1999/xlink" id="magnifying-glass-7">
		<path d="M49.237,157.116c1.136-1.565,1.813-3.484,1.813-5.566c0-5.246-4.254-9.5-9.5-9.5c-5.247,0-9.5,4.254-9.5,9.5    c0,5.247,4.253,9.5,9.5,9.5c2.081,0,4-0.677,5.565-1.813l8.93,8.93c0.586,0.586,1.536,0.586,2.122,0    c0.585-0.586,0.585-1.536,0-2.122L49.237,157.116z M41.551,160.05c-4.695,0-8.5-3.806-8.5-8.5c-0.001-4.695,3.805-8.5,8.5-8.5    c4.693,0,8.5,3.805,8.499,8.5C50.05,156.245,46.244,160.05,41.551,160.05z M57.46,167.46c-0.194,0.195-0.512,0.195-0.707,0    l-8.855-8.855c0.248-0.224,0.483-0.459,0.707-0.707l8.855,8.855C57.655,166.948,57.655,167.265,57.46,167.46z"/>
	</g>
	
    </g>
</svg>
