<?xml version="1.0" encoding="iso-8859-1"?>
<!DOCTYPE svg PUBLIC "-//W3C//DTD SVG 1.1//EN" "http://www.w3.org/Graphics/SVG/1.1/DTD/svg11.dtd">
<svg version="1.1" xmlns="http://www.w3.org/2000/svg" xmlns:xlink="http://www.w3.org/1999/xlink" x="0px" y="0px" width="30" height="30" viewBox="0 0 30 30" xml:space="preserve">
    <g transform="translate(-570 -80)">
        <g xmlns="http://www.w3.org/2000/svg" xmlns:xlink="http://www.w3.org/1999/xlink" id="spanner-screwdriver-7">
		<polygon points="581.111,93.233 573.414,85.536 575.535,83.414 583.232,91.112 583.939,90.405 575.535,82 572,85.536     580.404,93.94   "/>
		<rect x="586.493" y="100.052" transform="matrix(-0.7071 -0.7071 0.7071 -0.7071 937.5324 590.4421)" width="9.115" height="2"/>
		<rect x="594.541" y="105.042" transform="matrix(0.7071 0.7071 -0.7071 0.7071 249.5594 -390.4057)" width="3" height="2"/>
		<path d="M577.12,107.122l12.279-12.278c2.466,0.875,5.322,0.334,7.296-1.639c1.973-1.975,2.515-4.83,1.639-7.296l-3.053,3.053    c-1.172,1.171-3.072,1.171-4.243,0s-1.171-3.071,0-4.243l3.053-3.053c-2.466-0.876-5.321-0.334-7.296,1.639    c-1.974,1.975-2.514,4.831-1.638,7.297l-12.279,12.278c-1.171,1.172-1.171,3.072,0,4.242    C574.049,108.293,575.949,108.293,577.12,107.122z M573.585,103.587l12.503-12.504c0.087-0.087,0.182-0.16,0.278-0.228    c-1.077-2.234-0.714-4.993,1.137-6.844c1.214-1.214,2.89-1.828,4.567-1.739l-1.739,1.739c-1.56,1.561-1.56,4.098,0,5.657    s4.097,1.56,5.657,0l1.739-1.739c0.089,1.678-0.525,3.354-1.739,4.568c-1.851,1.85-4.61,2.213-6.844,1.136    c-0.068,0.097-0.141,0.192-0.228,0.278l-12.504,12.503c-0.779,0.78-2.049,0.78-2.828,0S572.805,104.366,573.585,103.587z"/>
		<circle cx="574.999" cy="105.001" r="1"/>
	</g>
	
    </g>
</svg>
