<?xml version="1.0" encoding="iso-8859-1"?>
<!DOCTYPE svg PUBLIC "-//W3C//DTD SVG 1.1//EN" "http://www.w3.org/Graphics/SVG/1.1/DTD/svg11.dtd">
<svg version="1.1" xmlns="http://www.w3.org/2000/svg" xmlns:xlink="http://www.w3.org/1999/xlink" x="0px" y="0px" width="30" height="30" viewBox="0 0 30 30" xml:space="preserve">
    <g transform="translate(-570 -620)">
        <g xmlns="http://www.w3.org/2000/svg" xmlns:xlink="http://www.w3.org/1999/xlink" id="window-up-7">
		<path d="M573,640h15v-1h-14v-12h22v12h-5v1h6v-18h-24V640z M574,623h22v3h-22V623z"/>
		<rect x="579" y="624" width="1" height="1"/>
		<rect x="577" y="624" width="1" height="1"/>
		<rect x="575" y="624" width="1" height="1"/>
		<polygon points="590,637.586 590,633.915 593.742,637.657 594.45,636.95 589.5,632 584.55,636.95 585.258,637.657 589,633.915     589,637.586 589,641.586 589,648 590,648 590,641.586   "/>
	</g>
	
    </g>
</svg>
