<?xml version="1.0" encoding="utf-8"?>
<!-- Generator: Adobe Illustrator 25.4.1, SVG Export Plug-In . SVG Version: 6.00 Build 0)  -->
<svg version="1.1" id="Layer_1" xmlns="http://www.w3.org/2000/svg" xmlns:xlink="http://www.w3.org/1999/xlink" x="0px" y="0px"
	 viewBox="0 0 35 35" style="enable-background:new 0 0 35 35;" xml:space="preserve">
<style type="text/css">
	.st0{fill:#FFFFFF;}
</style>
<g>
	<g>
		<path class="st0" d="M25.9,8.6h-2.3V6.1c-0.1-0.3-0.3-0.6-0.7-0.6h-2c-0.3,0-0.6,0.3-0.6,0.6v2.5h-5.7V6.1c0-0.3-0.3-0.6-0.6-0.6
			H12c-0.3,0-0.6,0.3-0.6,0.6v2.5H9.1c-1.1,0-2,0.9-2,2v16.9c0,1.1,0.9,2,2,2h16.9c1.1,0,2-0.9,2-2v-17C27.9,9.5,27,8.6,25.9,8.6z
			 M25.1,27.2H9.9c-0.3,0-0.5-0.2-0.5-0.5V13.4c0-0.3,0.2-0.5,0.5-0.5h15.2c0.3,0,0.5,0.2,0.5,0.5v13.3C25.6,27,25.3,27.2,25.1,27.2
			z"/>
		<path class="st0" d="M23.4,16.9c0.1,0.2,0.1,0.5,0,0.6l-5.7,5.4l-1.8,1.7c-0.2,0.1-0.5,0.1-0.6,0l-1.7-1.8l-2-2.1
			c-0.1-0.2-0.1-0.5,0-0.6l1.5-1.4c0.2-0.1,0.5-0.1,0.6,0l2.1,2.1l5.7-5.4c0.2-0.1,0.5-0.1,0.6,0L23.4,16.9z"/>
	</g>
</g>
</svg>
