<?xml version="1.0" encoding="utf-8"?>
<!-- Generator: Adobe Illustrator 25.4.1, SVG Export Plug-In . SVG Version: 6.00 Build 0)  -->
<svg version="1.1" id="Layer_1" xmlns="http://www.w3.org/2000/svg" xmlns:xlink="http://www.w3.org/1999/xlink" x="0px" y="0px"
	 viewBox="0 0 35 35" style="enable-background:new 0 0 35 35;" xml:space="preserve">
<style type="text/css">
	.st0{fill:#FFFFFF;}
</style>
<path class="st0" d="M29.2,10.5c-0.2-0.7-0.7-1.2-1.3-1.5c-0.3-0.1-0.7-0.3-1.1-0.3H8c-0.4,0-0.8,0.1-1.2,0.3
	c-0.5,0.3-1,0.9-1.2,1.5c-0.1,0.3-0.1,0.5-0.1,0.8v12.7c0,0.3,0.1,0.5,0.1,0.8c0.2,0.7,0.7,1.2,1.2,1.5c0.3,0.2,0.8,0.3,1.2,0.3
	h18.9c0.4,0,0.8-0.1,1.2-0.3c0.6-0.3,1.1-0.8,1.3-1.5c0.1-0.2,0.1-0.5,0.1-0.8V11.2C29.4,10.9,29.3,10.7,29.2,10.5z M25.6,10.9
	l-8.2,6.6l-8.2-6.6H25.6z M7.7,12l5.8,4.7l-5.8,5.8C7.7,22.5,7.7,12,7.7,12z M8.8,24.2L15,18l1.9,1.5c0.2,0.1,0.4,0.2,0.6,0.2
	s0.4-0.1,0.6-0.2l1.9-1.5l6.2,6.2H8.8z M21.5,16.8l5.8-4.7v10.4L21.5,16.8z"/>
</svg>
