<?xml version="1.0" encoding="utf-8"?>
<!-- Generator: Adobe Illustrator 25.4.1, SVG Export Plug-In . SVG Version: 6.00 Build 0)  -->
<svg version="1.1" id="Layer_1" xmlns="http://www.w3.org/2000/svg" xmlns:xlink="http://www.w3.org/1999/xlink" x="0px" y="0px"
	 viewBox="0 0 35 35" style="enable-background:new 0 0 35 35;" xml:space="preserve">
<style type="text/css">
	.st0{fill:#FFFFFF;}
</style>
<g>
	<path class="st0" d="M25,11.6v17.1c0,0.7-0.8,1-1.3,0.5l-3.6-4H6.9c-0.8,0-1.4-0.6-1.4-1.4V11.6c0-0.8,0.6-1.4,1.4-1.4h16.6
		C24.4,10.2,25,10.8,25,11.6z"/>
	<path class="st0" d="M29.5,9.3V25h-0.3c-1.6,0-3-1.4-3-3V11.7c0-1.6-1.2-2.8-2.8-2.8H10.2V8.8c0-1.8,1.4-3.2,3.2-3.2h12.3
		C27.8,5.6,29.5,7.3,29.5,9.3z"/>
</g>
</svg>
