<?xml version="1.0" encoding="utf-8"?>
<!-- Generator: Adobe Illustrator 25.4.1, SVG Export Plug-In . SVG Version: 6.00 Build 0)  -->
<svg version="1.1" id="Layer_1" xmlns="http://www.w3.org/2000/svg" xmlns:xlink="http://www.w3.org/1999/xlink" x="0px" y="0px"
	 viewBox="0 0 35 35" style="enable-background:new 0 0 35 35;" xml:space="preserve">
<style type="text/css">
	.st0{fill:#FFFFFF;}
</style>
<g>
	<g>
		<path class="st0" d="M17.5,6.9c-6.6,0-12,4.5-12,10.1c0,2.2,0.8,4.2,2.3,6c0,0.5-0.1,1.8-1.7,2.6c-0.4,0.2-0.7,0.8-0.6,1.2
			s0.5,0.9,1,1c0.8,0.1,1.4,0.2,2.1,0.2c1.9,0,3.6-0.5,4.7-1.5c1.3,0.4,2.7,0.6,4.1,0.6c6.7,0,12.1-4.5,12.1-10.1S24.2,6.9,17.5,6.9
			z M17.5,24.8c-1.4,0-2.7-0.3-4-0.7c-0.5-0.1-1-0.1-1.3,0.3c-0.6,0.7-1.5,1.1-2.7,1.2c0.8-1.2,0.8-2.5,0.6-3.3
			c0-0.3-0.1-0.5-0.3-0.6l0,0c-1.3-1.4-2-2.9-2-4.7c0-4.2,4.3-7.7,9.7-7.7s9.7,3.5,9.7,7.7C27.2,21.3,22.9,24.8,17.5,24.8z"/>
	</g>
	<g>
		<g>
			<circle class="st0" cx="12.6" cy="17" r="1.4"/>
		</g>
		<g>
			<circle class="st0" cx="17.5" cy="17" r="1.4"/>
		</g>
		<g>
			<circle class="st0" cx="22.4" cy="17" r="1.4"/>
		</g>
	</g>
</g>
</svg>
