<?xml version="1.0" encoding="utf-8"?>
<!-- Generator: Adobe Illustrator 25.4.1, SVG Export Plug-In . SVG Version: 6.00 Build 0)  -->
<svg version="1.1" id="Layer_1" xmlns="http://www.w3.org/2000/svg" xmlns:xlink="http://www.w3.org/1999/xlink" x="0px" y="0px"
	 viewBox="0 0 35 35" style="enable-background:new 0 0 35 35;" xml:space="preserve">
<style type="text/css">
	.st0{fill:#FFFFFF;}
</style>
<path class="st0" d="M26.1,5.5H8.9c-1.8,0-3.2,1.4-3.2,3.2v12.9c0,1.8,1.4,3.2,3.2,3.2h9.9l5.7,4.7v-4.7h1.6c1.8,0,3.2-1.4,3.2-3.2
	V8.7C29.3,6.9,27.9,5.5,26.1,5.5z M19.2,18C19.2,18,19.2,18.1,19.2,18l-9,0.1c-0.1,0-0.1,0-0.1-0.1v-1.5c0-0.1,0-0.1,0.1-0.1h8.9
	c0.1,0,0.1,0,0.1,0.1V18z M22.5,15.4C22.5,15.4,22.5,15.4,22.5,15.4l-12.3,0.1c-0.1,0-0.1,0-0.1-0.1v-1.5c0-0.1,0-0.1,0.1-0.1h12.2
	c0.1,0,0.1,0,0.1,0.1V15.4z M24.8,12.8C24.8,12.9,24.7,12.9,24.8,12.8l-14.5,0.1c-0.1,0-0.1,0-0.1-0.1v-1.5c0-0.1,0-0.1,0.1-0.1
	h14.5c0.1,0,0.1,0,0.1,0.1V12.8z"/>
</svg>
