<?xml version="1.0" encoding="utf-8"?>
<!-- Generator: Adobe Illustrator 25.4.1, SVG Export Plug-In . SVG Version: 6.00 Build 0)  -->
<svg version="1.1" id="Layer_1" xmlns="http://www.w3.org/2000/svg" xmlns:xlink="http://www.w3.org/1999/xlink" x="0px" y="0px"
	 viewBox="0 0 35 35" style="enable-background:new 0 0 35 35;" xml:space="preserve">
<style type="text/css">
	.st0{fill:#FFFFFF;}
</style>
<path class="st0" d="M27.6,11.1c-1-1.5-2.2-2.7-3.6-3.6c-1.9-1.2-4-1.9-6.4-1.9s-4.6,0.7-6.4,1.9c-1.4,1-2.7,2.2-3.6,3.6
	c-1.2,1.9-1.9,4.1-1.9,6.5s0.7,4.6,1.9,6.4c1,1.5,2.2,2.7,3.6,3.6c1.9,1.2,4.1,1.9,6.5,1.9s4.6-0.7,6.4-1.9c1.5-1,2.7-2.2,3.6-3.6
	c1.2-1.9,1.9-4.1,1.9-6.5S28.8,12.9,27.6,11.1z M11.7,19.7l-2.4,2.4c-0.8-1.4-1.2-2.9-1.2-4.5s0.4-3.2,1.2-4.5l2.4,2.3
	c-0.3,0.7-0.4,1.4-0.4,2.2S11.4,19,11.7,19.7z M17.5,26.9c-1.6,0-3.2-0.4-4.5-1.2l2.4-2.4c0.7,0.3,1.4,0.4,2.2,0.4
	c0.8,0,1.5-0.1,2.2-0.4l2.4,2.4C20.7,26.5,19.1,26.9,17.5,26.9z M13.8,17.5L13.8,17.5c0-2.1,1.6-3.7,3.7-3.7h0.1
	c2,0,3.6,1.6,3.6,3.7v0.1c0,2-1.6,3.6-3.6,3.7h-0.1C15.4,21.2,13.8,19.6,13.8,17.5z M19.7,11.7c-0.7-0.3-1.4-0.4-2.2-0.4
	s-1.5,0.1-2.2,0.4l-2.4-2.4c1.4-0.8,2.9-1.2,4.5-1.2s3.2,0.4,4.5,1.2L19.7,11.7z M25.7,22l-2.4-2.3c0.3-0.7,0.4-1.4,0.4-2.2
	s-0.1-1.5-0.4-2.2l2.4-2.4c0.8,1.4,1.2,2.9,1.2,4.5C26.9,19.1,26.5,20.7,25.7,22z"/>
</svg>
