<?xml version="1.0" encoding="utf-8"?>
<!-- Generator: Adobe Illustrator 25.0.1, SVG Export Plug-In . SVG Version: 6.00 Build 0)  -->
<svg version="1.1" id="Layer_1" xmlns="http://www.w3.org/2000/svg" xmlns:xlink="http://www.w3.org/1999/xlink" x="0px" y="0px"
	 viewBox="0 0 20 20" style="enable-background:new 0 0 20 20;" xml:space="preserve">
<style type="text/css">
	.st0{fill:#FFFFFF;}
</style>
<g>
	<g>
		<path class="st0" d="M18.3,4.3H1.7C1.2,4.3,0.8,4,0.8,3.5s0.4-0.8,0.8-0.8h16.7c0.5,0,0.8,0.4,0.8,0.8S18.8,4.3,18.3,4.3z"/>
	</g>
	<g>
		<path class="st0" d="M18.3,10.8H1.7c-0.5,0-0.8-0.4-0.8-0.8s0.4-0.8,0.8-0.8h16.7c0.5,0,0.8,0.4,0.8,0.8S18.8,10.8,18.3,10.8z"/>
	</g>
	<g>
		<path class="st0" d="M18.3,17.3H1.7c-0.5,0-0.8-0.4-0.8-0.8c0-0.5,0.4-0.8,0.8-0.8h16.7c0.5,0,0.8,0.4,0.8,0.8
			C19.2,17,18.8,17.3,18.3,17.3z"/>
	</g>
</g>
</svg>
