<?xml version="1.0" encoding="utf-8"?>
<!-- Generator: Adobe Illustrator 25.0.1, SVG Export Plug-In . SVG Version: 6.00 Build 0)  -->
<svg version="1.1" id="Layer_1" xmlns="http://www.w3.org/2000/svg" xmlns:xlink="http://www.w3.org/1999/xlink" x="0px" y="0px"
	 viewBox="0 0 20 20" style="enable-background:new 0 0 20 20;" xml:space="preserve">
<style type="text/css">
	.st0{fill:#FFFFFF;}
</style>
<g>
	<path class="st0" d="M17.3,1.6c-0.3,0-0.6,0.1-0.8,0.3L1.9,16.5c-0.2,0.2-0.3,0.5-0.3,0.8c0,0.3,0.1,0.6,0.3,0.8
		c0.4,0.4,1.1,0.4,1.6,0L18.1,3.5c0.2-0.2,0.3-0.5,0.3-0.8c0-0.3-0.1-0.6-0.3-0.8C17.9,1.7,17.6,1.6,17.3,1.6z"/>
	<path class="st0" d="M3.5,1.9C3.3,1.7,3,1.6,2.7,1.6c-0.3,0-0.6,0.1-0.8,0.3S1.6,2.4,1.6,2.7c0,0.3,0.1,0.6,0.3,0.8l14.6,14.6
		c0.4,0.4,1.1,0.4,1.6,0c0.2-0.2,0.3-0.5,0.3-0.8c0-0.3-0.1-0.6-0.3-0.8L3.5,1.9z"/>
</g>
</svg>
