<?xml version="1.0" encoding="utf-8"?>
<!-- Generator: Adobe Illustrator 25.0.1, SVG Export Plug-In . SVG Version: 6.00 Build 0)  -->
<svg version="1.1" id="Layer_1" xmlns="http://www.w3.org/2000/svg" xmlns:xlink="http://www.w3.org/1999/xlink" x="0px" y="0px"
	 viewBox="0 0 20 20" style="enable-background:new 0 0 20 20;" xml:space="preserve">
<style type="text/css">
	.st0{fill:#FFFFFF;}
</style>
<g>
	<path class="st0" d="M1.4,2.4l0.7,1.7l2.1-2.1L2.4,1.4C1.8,1.2,1.2,1.8,1.4,2.4z"/>
	<path class="st0" d="M2.1,4.2l1.2-1.2L3.2,2.4C3.1,2.2,3.1,2,3.3,1.8L2.4,1.4c-0.6-0.2-1.2,0.4-1,1L2.1,4.2z"/>
	<path class="st0" d="M4,19.2c-1.8,0-3.2-1.4-3.2-3.2s1.4-3.2,3.2-3.2c0.1,0,0.2,0,0.3,0l8.5-8.2c0-0.2-0.1-0.4-0.1-0.6
		c0-1.8,1.4-3.2,3.2-3.2s3.2,1.4,3.2,3.2S17.7,7.2,16,7.2c-0.1,0-0.2,0-0.3,0l-8.5,8.3c0,0.2,0,0.3,0,0.5C7.2,17.7,5.8,19.2,4,19.2
		L4,19.2z M4,13.9c-1.1,0-2,0.9-2,2s0.9,2,2,2s2-0.9,2-2c0-0.2,0-0.3-0.1-0.5c-0.1-0.2,0-0.4,0.1-0.6l8.9-8.7C15.2,6,15.4,6,15.6,6
		c0.1,0,0.2,0,0.4,0c1.1,0,2-0.9,2-2s-0.9-2-2-2s-2,0.9-2,2c0,0.2,0,0.4,0.1,0.6c0.1,0.2,0,0.4-0.1,0.6l-8.9,8.7
		c-0.1,0.1-0.1,0.1-0.2,0.1c-0.1,0-0.1,0-0.2,0c0,0,0,0,0,0c0,0,0,0,0,0c0,0,0,0,0,0h0c0,0,0,0,0,0s0,0,0,0s0,0,0,0c0,0-0.1,0-0.1,0
		C4.3,13.9,4.2,13.9,4,13.9L4,13.9z"/>
	<path class="st0" d="M16.6,19.2c-0.7,0-1.3-0.2-1.8-0.7l-5.3-5.3c0,0-0.1-0.1-0.1-0.1l-0.2-0.3l1-0.5l0.1,0.2l5.3,5.3
		c0.5,0.5,1.4,0.5,2,0c0.3-0.3,0.4-0.6,0.4-1s-0.1-0.7-0.4-1l-5.3-5.3l-0.2-0.1l0.5-1l0.3,0.1c0.1,0,0.1,0.1,0.1,0.1l5.3,5.3
		c1,1,1,2.6,0,3.6C17.9,18.9,17.3,19.2,16.6,19.2L16.6,19.2z"/>
	<path class="st0" d="M2.8,3.6l0.8-0.8l5.8,5.8L8.6,9.4L2.8,3.6z"/>
	<path class="st0" d="M2.1,4.8c0,0-0.1,0-0.1,0c-0.2,0-0.3-0.2-0.4-0.4L0.9,2.7c0,0,0,0,0,0c-0.2-0.5,0-1,0.3-1.4
		c0.4-0.4,0.9-0.5,1.4-0.3l1.8,0.7C4.6,1.7,4.7,1.8,4.7,2c0,0.2,0,0.4-0.2,0.5L2.5,4.6C2.4,4.7,2.3,4.8,2.1,4.8L2.1,4.8z M2,2.3
		l0.3,0.9l0.8-0.8L2.2,2C2.2,2,2.1,2,2,2C2,2.1,2,2.2,2,2.3z"/>
</g>
</svg>
