<?xml version="1.0" encoding="utf-8"?>
<!-- Generator: Adobe Illustrator 25.0.1, SVG Export Plug-In . SVG Version: 6.00 Build 0)  -->
<svg version="1.1" id="Layer_1" xmlns="http://www.w3.org/2000/svg" xmlns:xlink="http://www.w3.org/1999/xlink" x="0px" y="0px"
	 viewBox="0 0 18 18" style="enable-background:new 0 0 18 18;" xml:space="preserve">
<style type="text/css">
	.st0{fill:#cccccc;}
</style>
<g>
	<g>
		<g>
			<g>
				
					<rect x="3.9" y="6.3" transform="matrix(0.7071 -0.7071 0.7071 0.7071 -3.7096 9.0098)" class="st0" width="10.2" height="5.4"/>
			</g>
		</g>
		<g>
			<g>
				<path class="st0" d="M16.5,4.4l-2.8-2.9c-0.3-0.3-0.7-0.3-1,0c0,0,0,0,0,0l-1.2,1.2l3.8,3.8l1.2-1.2C16.7,5.1,16.7,4.6,16.5,4.4
					z"/>
			</g>
		</g>
		<g>
			<g>
				<path class="st0" d="M2.9,11.5l-1.6,4.2c-0.1,0.4,0,0.8,0.4,0.9c0.2,0.1,0.3,0.1,0.5,0l4.2-1.6L2.9,11.5z"/>
			</g>
		</g>
	</g>
</g>
</svg>
