<?xml version="1.0" encoding="utf-8"?>
<!-- Generator: Adobe Illustrator 25.0.1, SVG Export Plug-In . SVG Version: 6.00 Build 0)  -->
<svg version="1.1" id="Layer_1" xmlns="http://www.w3.org/2000/svg" xmlns:xlink="http://www.w3.org/1999/xlink" x="0px" y="0px"
	 viewBox="0 0 20 20" style="enable-background:new 0 0 20 20;" xml:space="preserve">
<style type="text/css">
	.st0{fill:#FFFFFF;}
</style>
<path class="st0" d="M17.6,6.7l-1.7-1c0.8-1.3,0.4-2.9-0.8-3.9c-0.7-0.5-1.5-0.7-2.3-0.5c-0.8,0.2-1.5,0.6-1.9,1.3L9.5,1.8
	C9,1.5,8.4,1.4,7.8,1.5C7.2,1.7,6.7,2,6.4,2.6l-4.7,7.7c-0.7,1.1-0.3,2.5,0.8,3.2l1.3,0.8c0.4,0.2,0.9,0.1,1.1-0.3l0-0.1
	c0.2-0.3,0.5-0.6,0.8-0.7c0.4-0.1,0.7-0.1,1.1,0.1c0.3,0.2,0.6,0.5,0.7,0.8s0.1,0.7-0.1,1.1c0,0.1-0.1,0.2-0.1,0.2
	c-0.1,0.2-0.2,0.4-0.2,0.6c0,0.2,0.1,0.4,0.3,0.5l2.9,1.8c0.4,0.2,0.8,0.3,1.2,0.3c0,0,0,0,0,0c0.8,0,1.5-0.4,2-1.1l1-1.6
	c0.1-0.2,0.2-0.4,0.1-0.6c-0.1-0.2-0.2-0.4-0.4-0.5c0,0-0.1,0-0.1,0c-0.4-0.2-0.7-0.5-0.8-0.9c-0.1-0.4-0.1-0.9,0.1-1.3
	c0.4-0.8,1.4-1.2,2.2-0.8c0.1,0.1,0.2,0.1,0.3,0.2c0.4,0.3,0.9,0.2,1.2-0.1c0,0,0-0.1,0.1-0.1l1.2-1.9C19,8.8,18.7,7.4,17.6,6.7z
	 M12.6,11.6c-0.5,0.6-0.7,1.4-0.6,2.2c0.1,0.8,0.5,1.5,1.1,2c0,0,0,0,0.1,0L12.5,17c-0.3,0.5-0.9,0.6-1.4,0.3l-2.4-1.5
	c0.3-0.6,0.3-1.2,0.2-1.9c-0.2-0.7-0.6-1.3-1.3-1.7C6.4,11.6,4.9,11.9,4,13l-0.9-0.6c-0.5-0.3-0.6-0.9-0.3-1.4l4.7-7.7
	C7.6,3,7.8,2.9,8.1,2.8c0.3-0.1,0.5,0,0.8,0.1L10.6,4c0.2,0.1,0.5,0.2,0.7,0.1c0.2-0.1,0.4-0.3,0.5-0.5c0.2-0.5,0.7-0.9,1.2-1
	c0.5-0.1,0.9,0,1.3,0.3C14.7,3.2,14.9,3.6,15,4s-0.1,0.9-0.3,1.2c0,0-0.1,0.1-0.1,0.1c-0.2,0.2-0.2,0.4-0.2,0.7
	c0,0.2,0.2,0.5,0.4,0.6l2.1,1.3c0.2,0.1,0.4,0.4,0.5,0.6c0.1,0.3,0,0.5-0.1,0.8l-0.9,1.5c0,0-0.1,0-0.1-0.1
	C14.9,10.1,13.4,10.5,12.6,11.6z"/>
</svg>
