<?xml version="1.0" encoding="utf-8"?>
<!-- Generator: Adobe Illustrator 25.0.1, SVG Export Plug-In . SVG Version: 6.00 Build 0)  -->
<svg version="1.1" id="Layer_1" xmlns="http://www.w3.org/2000/svg" xmlns:xlink="http://www.w3.org/1999/xlink" x="0px" y="0px"
	 viewBox="0 0 20 20" style="enable-background:new 0 0 20 20;" xml:space="preserve">
<style type="text/css">
	.st0{fill:#FFFFFF;}
</style>
<g>
	<path class="st0" d="M19,9.7l-3.4-3c-0.2-0.1-0.4-0.1-0.6,0l-3.4,3c-0.1,0.1-0.1,0.2-0.1,0.3v1.3c0,0.2,0.2,0.4,0.4,0.4h1.3v1.7H14
		v-2.2c0-0.2-0.2-0.4-0.4-0.4h-1.3v-0.7l3-2.6l3,2.6v0.7H17c-0.2,0-0.4,0.2-0.4,0.4v2.2h0.9v-1.7h1.3c0.2,0,0.4-0.2,0.4-0.4V10
		C19.1,9.9,19.1,9.8,19,9.7z"/>
	<path class="st0" d="M0.9,8.7V10c0,0.1,0.1,0.2,0.1,0.3l3.4,3c0.2,0.1,0.4,0.1,0.6,0l3.4-3c0.1-0.1,0.1-0.2,0.1-0.3V8.7
		c0-0.2-0.2-0.4-0.4-0.4H6.9V6.6H6v2.2c0,0.2,0.2,0.4,0.4,0.4h1.3v0.7l-3,2.6l-3-2.6V9.1H3c0.2,0,0.4-0.2,0.4-0.4V6.6H2.6v1.7H1.3
		C1,8.3,0.9,8.5,0.9,8.7z"/>
</g>
</svg>
