<?xml version="1.0" encoding="utf-8"?>
<!-- Generator: Adobe Illustrator 25.0.1, SVG Export Plug-In . SVG Version: 6.00 Build 0)  -->
<svg version="1.1" id="Layer_1" xmlns="http://www.w3.org/2000/svg" xmlns:xlink="http://www.w3.org/1999/xlink" x="0px" y="0px"
	 viewBox="0 0 20 20" style="enable-background:new 0 0 20 20;" xml:space="preserve">
<style type="text/css">
	.st0{fill:#FFFFFF;}
</style>
<g>
	<path class="st0" d="M3,12.5c-1.4,0-2.5-1.1-2.5-2.5S1.6,7.5,3,7.5c1.4,0,2.5,1.1,2.5,2.5S4.3,12.5,3,12.5z M3,8.4
		c-0.9,0-1.6,0.7-1.6,1.6c0,0.9,0.7,1.6,1.6,1.6c0.9,0,1.6-0.7,1.6-1.6C4.5,9.1,3.9,8.4,3,8.4z"/>
	<path class="st0" d="M10,12.5c-1.4,0-2.5-1.1-2.5-2.5S8.6,7.5,10,7.5s2.5,1.1,2.5,2.5S11.4,12.5,10,12.5z M10,8.4
		c-0.9,0-1.6,0.7-1.6,1.6c0,0.9,0.7,1.6,1.6,1.6s1.6-0.7,1.6-1.6C11.6,9.1,10.9,8.4,10,8.4z"/>
	<path class="st0" d="M17,12.5c-1.4,0-2.5-1.1-2.5-2.5s1.1-2.5,2.5-2.5c1.4,0,2.5,1.1,2.5,2.5S18.4,12.5,17,12.5z M17,8.4
		c-0.9,0-1.6,0.7-1.6,1.6c0,0.9,0.7,1.6,1.6,1.6c0.9,0,1.6-0.7,1.6-1.6C18.6,9.1,17.9,8.4,17,8.4z"/>
</g>
</svg>
