<?xml version="1.0" encoding="utf-8"?>
<!-- Generator: Adobe Illustrator 24.2.1, SVG Export Plug-In . SVG Version: 6.00 Build 0)  -->
<svg version="1.1" id="Layer_1" xmlns="http://www.w3.org/2000/svg" xmlns:xlink="http://www.w3.org/1999/xlink" x="0px" y="0px"
	 viewBox="0 0 55 55" style="enable-background:new 0 0 55 55;" xml:space="preserve">
<style type="text/css">
	.st0{opacity:0.08;fill:#010101;}
	.st1{fill:#FFFFFF;}
</style>
<g>
	<path class="st0" d="M46.67,53.5H8.33c-3.77,0-6.83-3.06-6.83-6.83V8.33c0-3.77,3.06-6.83,6.83-6.83h38.34
		c3.77,0,6.83,3.06,6.83,6.83v38.34C53.5,50.44,50.44,53.5,46.67,53.5z"/>
	<g>
		<g>
			<path class="st1" d="M44.15,12.67h-33.3c-1.34,0-2.42,1.08-2.42,2.42v24.82c0,1.34,1.08,2.42,2.42,2.42h33.3
				c1.34,0,2.42-1.08,2.42-2.42V15.09C46.57,13.75,45.49,12.67,44.15,12.67z M44.15,15.09V32.7l-4.77-4.34
				c-0.72-0.65-1.82-0.63-2.51,0.06l-4.83,4.83l-9.52-11.38c-0.72-0.86-2.04-0.87-2.77-0.02l-8.9,10.34V15.09H44.15z M33.86,21.45
				c0-1.84,1.49-3.33,3.33-3.33c1.84,0,3.33,1.49,3.33,3.33c0,1.84-1.49,3.33-3.33,3.33C35.35,24.78,33.86,23.29,33.86,21.45z"/>
		</g>
	</g>
</g>
</svg>
