<?xml version="1.0" encoding="utf-8"?>
<!-- Generator: Adobe Illustrator 24.2.1, SVG Export Plug-In . SVG Version: 6.00 Build 0)  -->
<svg version="1.1" id="Layer_1" xmlns="http://www.w3.org/2000/svg" xmlns:xlink="http://www.w3.org/1999/xlink" x="0px" y="0px"
	 viewBox="0 0 35 35" style="enable-background:new 0 0 35 35;" xml:space="preserve">
<style type="text/css">
	.st0{fill:#D21F33;}
	.st1{fill:#F1F1F5;}
</style>
<g>
	<circle class="st0" cx="17.5" cy="17.5" r="15.57"/>
	<g>
		<g>
			<path class="st1" d="M18.77,17.1l4.32-4.32c0.12-0.12,0.18-0.28,0.18-0.45c0-0.17-0.07-0.33-0.18-0.45l-0.38-0.38
				c-0.12-0.12-0.28-0.18-0.45-0.18c-0.17,0-0.33,0.07-0.45,0.18l-4.32,4.32l-4.32-4.32c-0.12-0.12-0.28-0.18-0.45-0.18
				c-0.17,0-0.33,0.07-0.45,0.18l-0.38,0.38c-0.25,0.25-0.25,0.65,0,0.89l4.32,4.32l-4.32,4.32c-0.12,0.12-0.18,0.28-0.18,0.45
				c0,0.17,0.07,0.33,0.18,0.45l0.38,0.38c0.12,0.12,0.28,0.18,0.45,0.18c0.17,0,0.33-0.07,0.45-0.18l4.32-4.32l4.32,4.32
				c0.12,0.12,0.28,0.18,0.45,0.18h0c0.17,0,0.33-0.07,0.45-0.18l0.38-0.38c0.12-0.12,0.18-0.28,0.18-0.45
				c0-0.17-0.07-0.33-0.18-0.45L18.77,17.1z"/>
		</g>
	</g>
</g>
</svg>
