<?xml version="1.0" encoding="utf-8"?>
<!-- Generator: Adobe Illustrator 25.0.1, SVG Export Plug-In . SVG Version: 6.00 Build 0)  -->
<svg version="1.1" id="Layer_1" xmlns="http://www.w3.org/2000/svg" xmlns:xlink="http://www.w3.org/1999/xlink" x="0px" y="0px"
	 viewBox="0 0 20 20" style="enable-background:new 0 0 20 20;" xml:space="preserve">
<style type="text/css">
	.st0{fill:#A3A3A3;}
</style>
<path class="st0" d="M19.4,18.4l-4.7-4.7c1.2-1.4,1.9-3.2,1.9-5.2c0-4.5-3.6-8.1-8.1-8.1C4,0.3,0.3,4,0.3,8.5c0,4.5,3.6,8.1,8.1,8.1
	c2,0,3.8-0.7,5.2-1.9l4.7,4.7c0.1,0.1,0.3,0.2,0.5,0.2c0.2,0,0.4-0.1,0.5-0.2C19.7,19.1,19.7,18.7,19.4,18.4z M1.8,8.5
	c0-3.7,3-6.6,6.6-6.6c3.7,0,6.6,3,6.6,6.6c0,3.7-3,6.6-6.6,6.6C4.8,15.1,1.8,12.1,1.8,8.5z"/>
</svg>
