<?xml version="1.0" encoding="utf-8"?>
<!-- Generator: Adobe Illustrator 25.0.1, SVG Export Plug-In . SVG Version: 6.00 Build 0)  -->
<svg version="1.1" id="Layer_1" xmlns="http://www.w3.org/2000/svg" xmlns:xlink="http://www.w3.org/1999/xlink" x="0px" y="0px"
	 viewBox="0 0 20 20" style="enable-background:new 0 0 20 20;" xml:space="preserve">
<style type="text/css">
	.st0{fill:#A3A3A3;}
</style>
<g>
	<path class="st0" d="M10,6.5c-1.9,0-3.5,1.6-3.5,3.5c0,1.9,1.6,3.5,3.5,3.5s3.5-1.6,3.5-3.5C13.5,8.1,11.9,6.5,10,6.5z M10,12.1
		c-1.2,0-2.1-1-2.1-2.1c0-1.2,1-2.1,2.1-2.1s2.1,1,2.1,2.1C12.1,11.2,11.2,12.1,10,12.1z"/>
	<path class="st0" d="M18.1,10.9l0-0.1c0-0.3,0-0.5,0-0.7c0-0.2,0-0.5,0-0.7l0-0.1l1.2-1c0.5-0.5,0.6-1.2,0.3-1.9l-1.4-2.3
		c-0.4-0.6-1.1-0.9-1.8-0.7l-1.5,0.5l-0.1-0.1c-0.4-0.3-0.9-0.6-1.4-0.8l-0.1,0l-0.3-1.5c-0.2-0.7-0.8-1.1-1.5-1.1H8.6
		c-0.7,0-1.3,0.5-1.5,1.1L6.8,2.8l-0.1,0c-0.5,0.2-1,0.5-1.4,0.8L5.1,3.7L3.6,3.3C2.9,3.1,2.2,3.4,1.8,3.9L0.4,6.3
		C0.1,6.9,0.2,7.6,0.7,8.1l1.2,1l0,0.1c0,0.3,0,0.5,0,0.7c0,0.2,0,0.5,0,0.7l0,0.1l-1.2,1c-0.5,0.5-0.6,1.2-0.3,1.9l1.4,2.3
		c0.4,0.6,1.1,0.9,1.8,0.7l1.5-0.5l0.1,0.1c0.4,0.3,0.9,0.6,1.4,0.8l0.1,0l0.3,1.5c0.2,0.7,0.8,1.1,1.5,1.1h2.8
		c0.7,0,1.3-0.5,1.5-1.1l0.3-1.5l0.1,0c0.5-0.2,1-0.5,1.4-0.8l0.1-0.1l1.5,0.5c0.7,0.2,1.4-0.1,1.8-0.7l1.4-2.3
		c0.4-0.6,0.2-1.4-0.3-1.8L18.1,10.9z M17,15.3L17,15.3l-0.1,0.1l0,0l0,0l0,0l-1.9-0.6c-0.2-0.1-0.5,0-0.6,0.1
		c-0.6,0.5-1.2,0.8-1.9,1c-0.2,0.1-0.4,0.3-0.4,0.5l-0.5,1.9H8.5L8,16.5C8,16.3,7.8,16.1,7.6,16c-0.7-0.2-1.3-0.6-1.9-1
		c-0.2-0.1-0.4-0.2-0.6-0.1l-2,0.6L1.6,13l1.5-1.3c0.2-0.2,0.3-0.4,0.2-0.6c-0.1-0.3-0.1-0.7-0.1-1c0-0.3,0-0.7,0.1-1
		c0-0.2,0-0.5-0.2-0.6L1.6,7l1.5-2.5l2,0.6c0.2,0.1,0.4,0,0.6-0.1c0.6-0.5,1.2-0.8,1.9-1C7.8,3.9,8,3.7,8,3.5l0.5-1.9h3.1L12,3.5
		C12,3.7,12.2,3.9,12.4,4c0.7,0.2,1.3,0.6,1.9,1c0.2,0.1,0.4,0.2,0.6,0.1l2-0.6L18.4,7l-1.5,1.3c-0.2,0.2-0.3,0.4-0.2,0.6
		c0.1,0.3,0.1,0.7,0.1,1c0,0.3,0,0.7-0.1,1c0,0.2,0,0.5,0.2,0.6l1.5,1.3L17,15.3z"/>
</g>
</svg>
