<?xml version="1.0" encoding="utf-8"?>
<!-- Generator: Adobe Illustrator 25.0.1, SVG Export Plug-In . SVG Version: 6.00 Build 0)  -->
<svg version="1.1" id="Layer_1" xmlns="http://www.w3.org/2000/svg" xmlns:xlink="http://www.w3.org/1999/xlink" x="0px" y="0px"
	 viewBox="0 0 20 20" style="enable-background:new 0 0 20 20;" xml:space="preserve">
<style type="text/css">
	.st0{fill:#FFFFFF;}
</style>
<path class="st0" d="M18,5.1H2c-0.8,0-1.5,0.7-1.5,1.5v4.1c0,0.8,0.7,1.5,1.5,1.5h3.2v2.4c0,0.2,0.2,0.4,0.4,0.4
	c0.1,0,0.2,0,0.3-0.1l1.4-1.5c0.1-0.1,0.1-0.2,0.1-0.3c0-0.1-0.1-0.2-0.1-0.3c-0.2-0.1-0.4-0.1-0.6,0l-0.7,0.8v-1.7
	c0-0.2-0.2-0.4-0.4-0.4H2c-0.4,0-0.7-0.3-0.7-0.7V6.6c0-0.4,0.3-0.7,0.7-0.7H18c0.4,0,0.7,0.3,0.7,0.7v4.1c0,0.4-0.3,0.7-0.7,0.7h-8
	c-0.2,0-0.4,0.2-0.4,0.4c0,0.2,0.2,0.4,0.4,0.4h8c0.8,0,1.5-0.7,1.5-1.5V6.6C19.5,5.8,18.9,5.1,18,5.1z"/>
</svg>
