<?xml version="1.0" encoding="UTF-8"?>
<!DOCTYPE svg PUBLIC "-//W3C//DTD SVG 1.1//EN" "http://www.w3.org/Graphics/SVG/1.1/DTD/svg11.dtd">
<!-- Creator: CorelDRAW 2017 -->
<svg xmlns="http://www.w3.org/2000/svg" xml:space="preserve" version="1.1" shape-rendering="geometricPrecision" text-rendering="geometricPrecision" image-rendering="optimizeQuality" fill-rule="evenodd" clip-rule="evenodd"
viewBox="0 0 500 500"
 xmlns:xlink="http://www.w3.org/1999/xlink">
 <defs>
   <mask id="id0">
     <linearGradient id="id1" gradientUnits="userSpaceOnUse" x1="291.01" y1="294.77" x2="326.03" y2="250.62">
      <stop offset="0" stop-opacity="1" stop-color="white"/>
      <stop offset="1" stop-opacity="0" stop-color="white"/>
     </linearGradient>
    <rect fill="url(#id1)" x="275.1" y="184.32" width="132.11" height="132.1"/>
   </mask>
   <mask id="id2">
     <linearGradient id="id3" gradientUnits="userSpaceOnUse" x1="227.97" y1="295.61" x2="192.94" y2="251.46">
      <stop offset="0" stop-opacity="1" stop-color="white"/>
      <stop offset="1" stop-opacity="0" stop-color="white"/>
     </linearGradient>
    <rect fill="url(#id3)" x="111.77" y="185.16" width="132.11" height="132.1"/>
   </mask>
   <mask id="id4">
     <linearGradient id="id5" gradientUnits="userSpaceOnUse" x1="223.66" y1="332.27" x2="163.45" y2="187.1">
      <stop offset="0" stop-opacity="1" stop-color="white"/>
      <stop offset="1" stop-opacity="0" stop-color="white"/>
     </linearGradient>
    <rect fill="url(#id5)" x="141.77" y="183.5" width="97.18" height="127.53"/>
   </mask>
   <mask id="id6">
     <linearGradient id="id7" gradientUnits="userSpaceOnUse" x1="236.79" y1="205.41" x2="245.16" y2="306.09">
      <stop offset="0" stop-opacity="1" stop-color="white"/>
      <stop offset="1" stop-opacity="0" stop-color="white"/>
     </linearGradient>
    <rect fill="url(#id7)" x="195.22" y="220.92" width="41.83" height="54.46"/>
   </mask>
   <mask id="id8">
     <linearGradient id="id9" gradientUnits="userSpaceOnUse" x1="309.29" y1="328.26" x2="338.72" y2="211.19">
      <stop offset="0" stop-opacity="1" stop-color="white"/>
      <stop offset="1" stop-opacity="0" stop-color="white"/>
     </linearGradient>
    <rect fill="url(#id9)" x="278.24" y="183.5" width="97.18" height="127.53"/>
   </mask>
   <mask id="id10">
     <linearGradient id="id11" gradientUnits="userSpaceOnUse" x1="298.54" y1="204.69" x2="306.91" y2="305.37">
      <stop offset="0" stop-opacity="1" stop-color="white"/>
      <stop offset="1" stop-opacity="0" stop-color="white"/>
     </linearGradient>
    <rect fill="url(#id11)" x="313.77" y="220.2" width="41.83" height="54.46"/>
   </mask>
   <mask id="id12">
     <linearGradient id="id13" gradientUnits="userSpaceOnUse" x1="306.87" y1="166.6" x2="301.1" y2="155.44">
      <stop offset="0" stop-opacity="1" stop-color="white"/>
      <stop offset="1" stop-opacity="0" stop-color="white"/>
     </linearGradient>
    <rect fill="url(#id13)" x="263.17" y="156.92" width="74.08" height="42.94"/>
   </mask>
   <mask id="id14">
     <linearGradient id="id15" gradientUnits="userSpaceOnUse" x1="178.66" y1="169.05" x2="173.5" y2="157.6">
      <stop offset="0" stop-opacity="1" stop-color="white"/>
      <stop offset="1" stop-opacity="0" stop-color="white"/>
     </linearGradient>
    <rect fill="url(#id15)" x="132.7" y="159.63" width="76.72" height="41.54"/>
   </mask>
 </defs>
 <g id="Layer_x0020_1">
  <metadata id="CorelCorpID_0Corel-Layer"/>
  <circle fill="#00A0E3" cx="252.44" cy="251.31" r="239.31"/>
  <circle fill="#FEFEFE" cx="252.44" cy="251.31" r="218.26"/>
  <polygon fill="#00A0E3" fill-rule="nonzero" points="63.2,326.39 285.24,325.35 285.24,410.64 471.14,240.07 285.24,69.5 285.24,154.78 63.2,155.82 "/>
  <path fill="#5E5971" mask="url(#id0)" d="M292.35 315.24l95.03 0c8.84,0 24.91,-16.36 16.07,-16.07 -134.57,4.4 -102.02,11.76 -111.1,-111.1 -0.65,-8.82 -16.07,7.23 -16.07,16.07l0 95.03c0,8.84 7.23,16.07 16.07,16.07z"/>
  <path fill="#5E5971" mask="url(#id2)" d="M226.62 316.08l-95.02 0c-8.84,0 -24.91,-16.37 -16.08,-16.08 134.58,4.4 102.03,11.77 111.1,-111.1 0.65,-8.82 16.08,7.24 16.08,16.08l0 95.02c0,8.84 -7.24,16.08 -16.08,16.08z"/>
  <path fill="#5E5971" mask="url(#id4)" d="M190.36 184.68c26.18,0 47.41,28.02 47.41,62.58 0,34.57 -21.23,62.59 -47.41,62.59 -26.18,0 -47.41,-28.02 -47.41,-62.59 0,-34.56 21.23,-62.58 47.41,-62.58z"/>
  <ellipse fill="#FEFEFE" cx="197.25" cy="247.26" rx="42.62" ry="56.26"/>
  <path fill="#2B2A29" mask="url(#id6)" d="M216.13 222.1c10.9,0 19.74,11.66 19.74,26.05 0,14.38 -8.84,26.05 -19.74,26.05 -10.89,0 -19.73,-11.67 -19.73,-26.05 0,-14.39 8.84,-26.05 19.73,-26.05z"/>
  <ellipse fill="#2B2A29" cx="217.23" cy="248.37" rx="12.34" ry="16.29"/>
  <path fill="#5E5971" mask="url(#id8)" d="M326.83 184.68c26.18,0 47.41,28.02 47.41,62.58 0,34.57 -21.23,62.59 -47.41,62.59 -26.18,0 -47.41,-28.02 -47.41,-62.59 0,-34.56 21.23,-62.58 47.41,-62.58z"/>
  <ellipse fill="#FEFEFE" cx="319.93" cy="247.26" rx="42.62" ry="56.26"/>
  <path fill="#2B2A29" mask="url(#id10)" d="M334.69 221.38c10.89,0 19.73,11.67 19.73,26.05 0,14.39 -8.84,26.05 -19.73,26.05 -10.9,0 -19.74,-11.66 -19.74,-26.05 0,-14.38 8.84,-26.05 19.74,-26.05z"/>
  <ellipse fill="#2B2A29" cx="335.24" cy="254.3" rx="10.65" ry="14.06"/>
  <rect fill="#FEFEFE" x="208.42" y="218.58" width="11.37" height="12.88"/>
  <rect fill="#FEFEFE" x="207.91" y="234.14" width="5.02" height="5.68"/>
  <rect fill="#FEFEFE" x="320.01" y="237.27" width="5.02" height="5.68"/>
  <rect fill="#FEFEFE" x="320.84" y="220.63" width="11.37" height="12.88"/>
  <path fill="#2B2A29" mask="url(#id12)" d="M336.07 164.32c-20.74,4.18 -52.12,20.1 -71.72,34.36 4.49,-23.96 47.05,-53.68 71.72,-34.36z"/>
  <path fill="#2B2A29" mask="url(#id14)" d="M208.24 167.72c-21.16,3.52 -53.76,18.55 -74.36,32.27 5.94,-24.01 50.63,-52.57 74.36,-32.27z"/>
 </g>
</svg>
