<?xml version="1.0" encoding="UTF-8"?>
<!DOCTYPE svg PUBLIC "-//W3C//DTD SVG 1.1//EN" "http://www.w3.org/Graphics/SVG/1.1/DTD/svg11.dtd">
<!-- Creator: CorelDRAW 2017 -->
<svg xmlns="http://www.w3.org/2000/svg" xml:space="preserve" version="1.1" shape-rendering="geometricPrecision" text-rendering="geometricPrecision" image-rendering="optimizeQuality" fill-rule="evenodd" clip-rule="evenodd"
viewBox="0 0 500 500"
 xmlns:xlink="http://www.w3.org/1999/xlink">
 <defs>
   <mask id="id0">
     <linearGradient id="id1" gradientUnits="userSpaceOnUse" x1="-134.19" y1="220.15" x2="248.09" y2="258.28">
      <stop offset="0" stop-opacity="1" stop-color="white"/>
      <stop offset="1" stop-opacity="0" stop-color="white"/>
     </linearGradient>
    <rect fill="url(#id1)" x="44" y="38.22" width="410.36" height="410.36"/>
   </mask>
   <mask id="id2">
     <linearGradient id="id3" gradientUnits="userSpaceOnUse" x1="277.83" y1="228.44" x2="317.54" y2="178.39">
      <stop offset="0" stop-opacity="1" stop-color="white"/>
      <stop offset="1" stop-opacity="0" stop-color="white"/>
     </linearGradient>
    <rect fill="url(#id3)" x="259.96" y="103.37" width="149.46" height="149.46"/>
   </mask>
   <linearGradient id="id4" gradientUnits="userSpaceOnUse" x1="277.69" y1="153.22" x2="398.3" y2="203.97">
    <stop offset="0" stop-opacity="1" stop-color="#7B481D"/>
    <stop offset="1" stop-opacity="1" stop-color="#2B2A29"/>
   </linearGradient>
   <mask id="id5">
     <linearGradient id="id6" gradientUnits="userSpaceOnUse" x1="216.33" y1="226.07" x2="176.62" y2="176.02">
      <stop offset="0" stop-opacity="1" stop-color="white"/>
      <stop offset="1" stop-opacity="0" stop-color="white"/>
     </linearGradient>
    <rect fill="url(#id6)" x="84.75" y="101" width="149.46" height="149.46"/>
   </mask>
   <linearGradient id="id7" gradientUnits="userSpaceOnUse" x1="102.48" y1="150.86" x2="223.09" y2="201.6">
    <stop offset="0" stop-opacity="1" stop-color="#7B481D"/>
    <stop offset="1" stop-opacity="1" stop-color="#2B2A29"/>
   </linearGradient>
   <mask id="id8">
     <linearGradient id="id9" gradientUnits="userSpaceOnUse" x1="215.09" y1="272.23" x2="146.83" y2="107.64">
      <stop offset="0" stop-opacity="1" stop-color="white"/>
      <stop offset="1" stop-opacity="0" stop-color="white"/>
     </linearGradient>
    <rect fill="url(#id9)" x="122.41" y="103.71" width="109.86" height="144.28"/>
   </mask>
   <mask id="id10">
     <linearGradient id="id11" gradientUnits="userSpaceOnUse" x1="227.08" y1="116.46" x2="248.49" y2="307.58">
      <stop offset="0" stop-opacity="1" stop-color="white"/>
      <stop offset="1" stop-opacity="0" stop-color="white"/>
     </linearGradient>
    <rect fill="url(#id11)" x="127.92" y="100.73" width="99" height="129.94"/>
   </mask>
   <mask id="id12">
     <linearGradient id="id13" gradientUnits="userSpaceOnUse" x1="200.55" y1="82.75" x2="210.03" y2="196.89">
      <stop offset="0" stop-opacity="1" stop-color="white"/>
      <stop offset="1" stop-opacity="0" stop-color="white"/>
     </linearGradient>
    <rect fill="url(#id13)" x="153.57" y="100.49" width="47.11" height="61.43"/>
   </mask>
   <mask id="id14">
     <linearGradient id="id15" gradientUnits="userSpaceOnUse" x1="192.53" y1="90.28" x2="198.46" y2="161.67">
      <stop offset="0" stop-opacity="1" stop-color="white"/>
      <stop offset="1" stop-opacity="0" stop-color="white"/>
     </linearGradient>
    <rect fill="url(#id15)" x="162.71" y="100.93" width="30.35" height="39.31"/>
   </mask>
   <mask id="id16">
     <linearGradient id="id17" gradientUnits="userSpaceOnUse" x1="295.58" y1="262.78" x2="328.95" y2="130.05">
      <stop offset="0" stop-opacity="1" stop-color="white"/>
      <stop offset="1" stop-opacity="0" stop-color="white"/>
     </linearGradient>
    <rect fill="url(#id17)" x="260.54" y="98.82" width="109.86" height="144.28"/>
   </mask>
   <mask id="id18">
     <linearGradient id="id19" gradientUnits="userSpaceOnUse" x1="253.05" y1="119.19" x2="250.19" y2="299.7">
      <stop offset="0" stop-opacity="1" stop-color="white"/>
      <stop offset="1" stop-opacity="0" stop-color="white"/>
     </linearGradient>
    <rect fill="url(#id19)" x="268.71" y="92.85" width="99" height="129.94"/>
   </mask>
   <mask id="id20">
     <linearGradient id="id21" gradientUnits="userSpaceOnUse" x1="277.81" y1="76.94" x2="287.29" y2="191.09">
      <stop offset="0" stop-opacity="1" stop-color="white"/>
      <stop offset="1" stop-opacity="0" stop-color="white"/>
     </linearGradient>
    <rect fill="url(#id21)" x="295.23" y="94.68" width="47.11" height="61.43"/>
   </mask>
   <mask id="id22">
     <linearGradient id="id23" gradientUnits="userSpaceOnUse" x1="291.74" y1="86.73" x2="296.86" y2="148.33">
      <stop offset="0" stop-opacity="1" stop-color="white"/>
      <stop offset="1" stop-opacity="0" stop-color="white"/>
     </linearGradient>
    <rect fill="url(#id23)" x="300.6" y="95.76" width="26.51" height="34.24"/>
   </mask>
   <mask id="id24">
     <linearGradient id="id25" gradientUnits="userSpaceOnUse" x1="345.77" y1="77.12" x2="349.74" y2="66.56">
      <stop offset="0" stop-opacity="1" stop-color="white"/>
      <stop offset="1" stop-opacity="0" stop-color="white"/>
     </linearGradient>
    <rect fill="url(#id25)" x="324" y="67.99" width="53.15" height="40.31"/>
   </mask>
   <mask id="id26">
     <linearGradient id="id27" gradientUnits="userSpaceOnUse" x1="152.77" y1="78.24" x2="148.8" y2="67.67">
      <stop offset="0" stop-opacity="1" stop-color="white"/>
      <stop offset="1" stop-opacity="0" stop-color="white"/>
     </linearGradient>
    <rect fill="url(#id27)" x="121.39" y="69.11" width="53.15" height="40.3"/>
   </mask>
   <linearGradient id="id28" gradientUnits="userSpaceOnUse" x1="256.53" y1="329.09" x2="374.33" y2="414.51">
    <stop offset="0" stop-opacity="1" stop-color="#7B481D"/>
    <stop offset="1" stop-opacity="1" stop-color="#2B2A29"/>
   </linearGradient>
   <linearGradient id="id29" gradientUnits="userSpaceOnUse" x1="139.17" y1="328.65" x2="256.97" y2="414.06">
    <stop offset="0" stop-opacity="1" stop-color="#7B481D"/>
    <stop offset="1" stop-opacity="1" stop-color="#2B2A29"/>
   </linearGradient>
 </defs>
 <g id="Layer_x0020_1">
  <metadata id="CorelCorpID_0Corel-Layer"/>
  <circle fill="#FFD500" cx="249.18" cy="243.4" r="223.68"/>
  <path fill="#FEFEFE" mask="url(#id0)" d="M249.18 39.4c112.67,0 204,91.33 204,204 0,112.67 -91.33,204 -204,204 -112.67,0 -204,-91.33 -204,-204 0,-112.67 91.33,-204 204,-204z"/>
  <path fill="url(#id4)" mask="url(#id2)" d="M279.36 251.65l107.74 0c10.02,0 28.24,-18.56 18.22,-18.23 -152.58,4.99 -115.67,13.34 -125.96,-125.96 -0.74,-10 -18.22,8.2 -18.22,18.23l0 107.73c0,10.03 8.2,18.23 18.22,18.23z"/>
  <path fill="url(#id7)" mask="url(#id5)" d="M214.8 249.28l-107.73 0c-10.03,0 -28.25,-18.55 -18.23,-18.23 152.58,4.99 115.68,13.35 125.96,-125.96 0.74,-10 18.23,8.2 18.23,18.23l0 107.73c0,10.03 -8.2,18.23 -18.23,18.23z"/>
  <path fill="#008DD2" mask="url(#id8)" d="M177.34 104.89c29.68,0 53.75,31.77 53.75,70.96 0,39.19 -24.07,70.96 -53.75,70.96 -29.69,0 -53.75,-31.77 -53.75,-70.96 0,-39.19 24.06,-70.96 53.75,-70.96z"/>
  <path fill="#FEFEFE" mask="url(#id10)" d="M177.42 101.91c26.69,0 48.32,28.56 48.32,63.79 0,35.23 -21.63,63.79 -48.32,63.79 -26.68,0 -48.32,-28.56 -48.32,-63.79 0,-35.23 21.64,-63.79 48.32,-63.79z"/>
  <path fill="#2B2A29" mask="url(#id12)" d="M177.12 101.67c12.36,0 22.38,13.22 22.38,29.53 0,16.32 -10.02,29.54 -22.38,29.54 -12.35,0 -22.37,-13.22 -22.37,-29.54 0,-16.31 10.02,-29.53 22.37,-29.53z"/>
  <path fill="#2B2A29" mask="url(#id14)" d="M177.88 102.11c7.73,0 14,8.27 14,18.48 0,10.2 -6.27,18.47 -14,18.47 -7.73,0 -13.99,-8.27 -13.99,-18.47 0,-10.21 6.26,-18.48 13.99,-18.48z"/>
  <path fill="#008DD2" mask="url(#id16)" d="M315.47 100c29.69,0 53.75,31.77 53.75,70.96 0,39.19 -24.06,70.96 -53.75,70.96 -29.68,0 -53.75,-31.77 -53.75,-70.96 0,-39.19 24.07,-70.96 53.75,-70.96z"/>
  <path fill="#FEFEFE" mask="url(#id18)" d="M318.21 94.03c26.69,0 48.32,28.56 48.32,63.79 0,35.23 -21.63,63.79 -48.32,63.79 -26.68,0 -48.32,-28.56 -48.32,-63.79 0,-35.23 21.64,-63.79 48.32,-63.79z"/>
  <path fill="#2B2A29" mask="url(#id20)" d="M318.79 95.86c12.35,0 22.37,13.22 22.37,29.53 0,16.32 -10.02,29.54 -22.37,29.54 -12.36,0 -22.38,-13.22 -22.38,-29.54 0,-16.31 10.02,-29.53 22.38,-29.53z"/>
  <path fill="#2B2A29" mask="url(#id22)" d="M313.86 96.94c6.66,0 12.07,7.14 12.07,15.94 0,8.8 -5.41,15.94 -12.07,15.94 -6.67,0 -12.08,-7.14 -12.08,-15.94 0,-8.8 5.41,-15.94 12.08,-15.94z"/>
  <rect fill="#FEFEFE" x="162.75" y="111.89" width="12.89" height="14.6"/>
  <rect fill="#FEFEFE" x="166.56" y="126.89" width="5.69" height="6.44"/>
  <rect fill="#FEFEFE" x="303.77" y="126.22" width="5.69" height="6.44"/>
  <rect fill="#FEFEFE" x="300.72" y="105.95" width="12.89" height="14.6"/>
  <path fill="#7B481D" mask="url(#id24)" d="M325.18 75.15c14.64,3.81 36.88,18.64 50.79,31.97 -3.35,-22.57 -33.57,-50.35 -50.79,-31.97z"/>
  <path fill="#7B481D" mask="url(#id26)" d="M173.36 76.27c-14.64,3.81 -36.87,18.64 -50.79,31.96 3.35,-22.57 33.57,-50.34 50.79,-31.96z"/>
  <path fill="url(#id28)" d="M332.64 353.63l2.93 -0.33c1.13,-11 0.71,-24.42 0.89,-35.82 0.23,-14.21 -2.5,-16.68 -14.35,-23.06 -42.88,-23.08 -9.25,-15.33 -44.95,-35.21l17.56 -5.06c6.65,7.88 7.12,14.35 14.19,21.9 12.29,13.11 42.34,15.02 27.05,76.27 4.07,3.19 2.64,-1.33 2.69,6.32 -1.44,12.18 8.03,59.5 12.41,68.86 4.22,9 3.3,7.25 1.63,19.82l1.8 -37.37 23.22 19.47c1.76,11.62 -1.83,26.3 -7.84,36.19 -11.68,19.21 -54.2,37.47 -52.48,9.39l13.79 -3.68 -60.54 -24.18c-5.54,-10.75 -9.35,-22.28 -10.03,-34.42 -0.44,-7.76 0.79,-12.81 0.91,-19.96 0.16,-10.38 -0.95,-3.1 4.7,-11.01 -10.24,-12.42 -34.39,-33.81 -8.45,-49.07l23.01 27.34c9.01,10.68 1.06,24.8 8.07,37.42 -12.41,-69.33 -4.85,-30.74 -19.23,-61.31 -5.59,-11.87 -6.4,-6.81 -16.68,-11.63l8.69 -29.09 33.19 34.18c16.24,16.8 9.52,41.35 15.12,43.85 0.6,0.26 0.47,0.9 0.76,1.32l-1.28 -31.46c-0.68,-9.81 4.17,-3.39 -2.9,-11.33 -5.4,-6.06 -16.21,-11.74 -25.67,-27.82 -8.35,-14.18 -7.39,-8.18 -18.05,-16.78l19.82 -19.54 16.41 19.94c23.99,23.85 32.19,-8.52 33.61,65.86zm-35.46 -105.21l-10.86 -1.24c-12.99,6.44 -11.22,8.02 -19.72,18.16 -13.07,15.59 -4.57,13.35 -10.35,24.07 -4.21,7.8 -14.83,9.06 -12.39,24.71 2.63,16.84 9.89,4.75 0.11,24.4 -13.45,27.03 15.16,35.24 12.8,52.53 -11.39,83.73 47.1,80.21 54.11,87.7 7.24,7.74 2.51,14.3 20.62,15.88 36.64,3.19 70.13,-57.59 42.17,-85.09 -9.99,-9.83 -12.81,-6.23 -22.65,-4.38l-6.59 -93.79c-0.8,-18.23 -8.91,-22.7 -22.31,-32.39 -19.18,-13.87 -13.5,-20.91 -24.94,-30.56z"/>
  <path fill="url(#id29)" d="M174.4 353.18l-2.93 -0.33c-1.14,-11 -0.71,-24.42 -0.9,-35.82 -0.22,-14.21 2.51,-16.68 14.35,-23.06 42.89,-23.08 9.26,-15.33 44.95,-35.21l-17.56 -5.06c-6.65,7.89 -7.12,14.35 -14.18,21.9 -12.29,13.11 -42.35,15.02 -27.05,76.27 -4.07,3.2 -2.65,-1.33 -2.69,6.33 1.43,12.18 -8.03,59.49 -12.42,68.85 -4.21,9 -3.3,7.25 -1.62,19.82l-1.81 -37.37 -23.21 19.47c-1.77,11.62 1.82,26.31 7.84,36.2 11.67,19.2 54.2,37.46 52.47,9.39l-13.78 -3.68 60.53 -24.19c5.55,-10.75 9.36,-22.28 10.04,-34.42 0.43,-7.76 -0.8,-12.81 -0.91,-19.96 -0.17,-10.38 0.94,-3.1 -4.7,-11.01 10.23,-12.41 34.38,-33.81 8.45,-49.06l-23.02 27.33c-9,10.68 -1.05,24.8 -8.06,37.42 12.4,-69.32 4.85,-30.73 19.23,-61.31 5.58,-11.87 6.39,-6.8 16.67,-11.63l-8.68 -29.08 -33.19 34.18c-16.25,16.8 -9.52,41.34 -15.13,43.84 -0.6,0.27 -0.46,0.91 -0.76,1.32l1.28 -31.46c0.68,-9.81 -4.17,-3.39 2.9,-11.32 5.41,-6.07 16.22,-11.75 25.68,-27.82 8.34,-14.19 7.39,-8.18 18.05,-16.79l-19.82 -19.54 -16.41 19.94c-23.99,23.85 -32.19,-8.52 -33.61,65.86zm35.45 -105.21l10.86 -1.24c13,6.44 11.22,8.02 19.73,18.16 13.06,15.59 4.56,13.35 10.35,24.07 4.21,7.8 14.83,9.07 12.39,24.72 -2.63,16.83 -9.9,4.74 -0.12,24.4 13.45,27.02 -15.15,35.23 -12.8,52.53 11.39,83.72 -47.1,80.2 -54.1,87.69 -7.24,7.74 -2.52,14.31 -20.62,15.88 -36.64,3.19 -70.13,-57.59 -42.18,-85.09 10,-9.83 12.81,-6.23 22.65,-4.38l6.59 -93.79c0.81,-18.23 8.92,-22.7 22.32,-32.39 19.17,-13.87 13.5,-20.91 24.93,-30.56z"/>
  <path fill="#FEFEFE" d="M285.56 379.03c0.91,5.09 1.99,11.16 3.29,18.41 -3.32,-5.97 -3.29,-12.29 -3.29,-18.41zm-3.01 -16.52c2.98,5.03 3.01,10.69 3.01,16.52 -1.31,-7.33 -2.26,-12.64 -3.01,-16.52zm70.84 70.28c1.36,3.77 0.53,5.24 -0.7,14.53l0.7 -14.53zm-2.33 -5.29c-4.38,-9.36 -13.85,-56.68 -12.41,-68.86 -0.05,-7.65 1.38,-3.13 -2.69,-6.32 15.29,-61.25 -14.76,-63.16 -27.05,-76.27 -7.07,-7.55 -7.54,-14.02 -14.19,-21.9l-17.56 5.06c35.7,19.88 2.07,12.13 44.95,35.21 11.85,6.38 14.58,8.85 14.35,23.06 -0.18,11.4 0.24,24.82 -0.89,35.82l-2.93 0.33c-1.42,-74.38 -9.62,-42.01 -33.61,-65.86l-16.41 -19.94 -19.82 19.54c10.66,8.6 9.7,2.6 18.05,16.78 9.46,16.08 20.27,21.76 25.67,27.82 7.07,7.94 2.22,1.52 2.9,11.33l1.28 31.46c-0.29,-0.42 -0.16,-1.06 -0.76,-1.32 -5.6,-2.5 1.12,-27.05 -15.12,-43.85l-33.19 -34.18 -8.69 29.09c10.28,4.82 11.09,-0.24 16.68,11.63 10.71,22.77 9.25,7.18 12.93,26.38 -0.5,-0.85 -1.08,-1.68 -1.77,-2.49l-23.01 -27.34c-25.94,15.26 -1.79,36.65 8.45,49.07 -5.65,7.91 -4.54,0.63 -4.7,11.01 -0.12,7.15 -1.35,12.2 -0.91,19.96 0.68,12.14 4.49,23.67 10.03,34.42l60.54 24.18 -13.79 3.68c-1.72,28.08 40.8,9.82 52.48,-9.39 6.01,-9.89 9.6,-24.57 7.84,-36.19l-23.22 -19.47 -1.1 22.84c-0.48,-1.33 -1.23,-2.94 -2.33,-5.29z"/>
  <path fill="#FEFEFE" d="M221.47 378.58c-0.91,5.1 -1.99,11.16 -3.28,18.41 3.32,-5.97 3.28,-12.28 3.28,-18.41zm3.01 -16.52c-2.98,5.03 -3.01,10.69 -3.01,16.52 1.31,-7.33 2.27,-12.64 3.01,-16.52zm-70.83 70.29c-1.36,3.76 -0.54,5.23 0.7,14.52l-0.7 -14.52zm2.32 -5.3c4.39,-9.36 13.85,-56.67 12.42,-68.85 0.04,-7.66 -1.38,-3.13 2.69,-6.33 -15.3,-61.25 14.76,-63.16 27.05,-76.27 7.06,-7.55 7.53,-14.01 14.18,-21.9l17.56 5.06c-35.69,19.88 -2.06,12.13 -44.95,35.21 -11.84,6.38 -14.57,8.85 -14.35,23.06 0.19,11.4 -0.24,24.82 0.9,35.82l2.93 0.33c1.42,-74.38 9.62,-42.01 33.61,-65.86l16.41 -19.94 19.82 19.54c-10.66,8.61 -9.71,2.6 -18.05,16.79 -9.46,16.07 -20.27,21.75 -25.68,27.82 -7.07,7.93 -2.22,1.51 -2.9,11.32l-1.28 31.46c0.3,-0.41 0.16,-1.05 0.76,-1.32 5.61,-2.5 -1.12,-27.04 15.13,-43.84l33.19 -34.18 8.68 29.08c-10.28,4.83 -11.09,-0.24 -16.67,11.63 -10.71,22.77 -9.26,7.18 -12.94,26.38 0.5,-0.85 1.09,-1.68 1.77,-2.49l23.02 -27.33c25.93,15.25 1.78,36.65 -8.45,49.06 5.64,7.91 4.53,0.63 4.7,11.01 0.11,7.16 1.34,12.2 0.91,19.96 -0.68,12.14 -4.49,23.67 -10.04,34.42l-60.53 24.19 13.78 3.68c1.73,28.07 -40.8,9.81 -52.47,-9.39 -6.02,-9.89 -9.61,-24.58 -7.84,-36.2l23.21 -19.47 1.11 22.85c0.47,-1.33 1.22,-2.95 2.32,-5.3z"/>
 </g>
</svg>
