<?xml version="1.0" encoding="UTF-8"?>
<!DOCTYPE svg PUBLIC "-//W3C//DTD SVG 1.1//EN" "http://www.w3.org/Graphics/SVG/1.1/DTD/svg11.dtd">
<!-- Creator: CorelDRAW 2017 -->
<svg xmlns="http://www.w3.org/2000/svg" xml:space="preserve" version="1.1" shape-rendering="geometricPrecision" text-rendering="geometricPrecision" image-rendering="optimizeQuality" fill-rule="evenodd" clip-rule="evenodd"
viewBox="0 0 500 500"
 xmlns:xlink="http://www.w3.org/1999/xlink">
 <defs>
   <mask id="id0">
     <linearGradient id="id1" gradientUnits="userSpaceOnUse" x1="-132.97" y1="211.33" x2="257.51" y2="250.28">
      <stop offset="0" stop-opacity="1" stop-color="white"/>
      <stop offset="1" stop-opacity="0" stop-color="white"/>
     </linearGradient>
    <rect fill="url(#id1)" x="49.07" y="25.52" width="419.12" height="419.12"/>
   </mask>
   <mask id="id2">
     <linearGradient id="id3" gradientUnits="userSpaceOnUse" x1="296.88" y1="231.16" x2="336.33" y2="181.44">
      <stop offset="0" stop-opacity="1" stop-color="white"/>
      <stop offset="1" stop-opacity="0" stop-color="white"/>
     </linearGradient>
    <rect fill="url(#id3)" x="279.11" y="106.92" width="148.49" height="148.47"/>
   </mask>
   <mask id="id4">
     <linearGradient id="id5" gradientUnits="userSpaceOnUse" x1="225.89" y1="232.1" x2="186.44" y2="182.38">
      <stop offset="0" stop-opacity="1" stop-color="white"/>
      <stop offset="1" stop-opacity="0" stop-color="white"/>
     </linearGradient>
    <rect fill="url(#id5)" x="95.17" y="107.86" width="148.48" height="148.47"/>
   </mask>
   <mask id="id6">
     <linearGradient id="id7" gradientUnits="userSpaceOnUse" x1="221.03" y1="273.39" x2="153.23" y2="109.9">
      <stop offset="0" stop-opacity="1" stop-color="white"/>
      <stop offset="1" stop-opacity="0" stop-color="white"/>
     </linearGradient>
    <rect fill="url(#id7)" x="128.96" y="105.99" width="109.14" height="143.33"/>
   </mask>
   <linearGradient id="id8" gradientUnits="userSpaceOnUse" x1="142.16" y1="153.81" x2="229.7" y2="202.45">
    <stop offset="0" stop-opacity="1" stop-color="#7B481D"/>
    <stop offset="1" stop-opacity="1" stop-color="#2B2A29"/>
   </linearGradient>
   <mask id="id9">
     <linearGradient id="id10" gradientUnits="userSpaceOnUse" x1="240.62" y1="128.73" x2="261.89" y2="318.59">
      <stop offset="0" stop-opacity="1" stop-color="white"/>
      <stop offset="1" stop-opacity="0" stop-color="white"/>
     </linearGradient>
    <rect fill="url(#id10)" x="142.12" y="113.11" width="98.35" height="129.09"/>
   </mask>
   <mask id="id11">
     <linearGradient id="id12" gradientUnits="userSpaceOnUse" x1="227.82" y1="159.52" x2="237.24" y2="272.91">
      <stop offset="0" stop-opacity="1" stop-color="white"/>
      <stop offset="1" stop-opacity="0" stop-color="white"/>
     </linearGradient>
    <rect fill="url(#id12)" x="181.15" y="177.14" width="46.81" height="61.03"/>
   </mask>
   <mask id="id13">
     <linearGradient id="id14" gradientUnits="userSpaceOnUse" x1="317.47" y1="268.87" x2="350.62" y2="137.02">
      <stop offset="0" stop-opacity="1" stop-color="white"/>
      <stop offset="1" stop-opacity="0" stop-color="white"/>
     </linearGradient>
    <rect fill="url(#id14)" x="282.65" y="105.99" width="109.15" height="143.33"/>
   </mask>
   <linearGradient id="id15" gradientUnits="userSpaceOnUse" x1="295.85" y1="153.81" x2="383.4" y2="202.45">
    <stop offset="0" stop-opacity="1" stop-color="#7B481D"/>
    <stop offset="1" stop-opacity="1" stop-color="#2B2A29"/>
   </linearGradient>
   <mask id="id16">
     <linearGradient id="id17" gradientUnits="userSpaceOnUse" x1="264.73" y1="139.28" x2="261.89" y2="318.59">
      <stop offset="0" stop-opacity="1" stop-color="white"/>
      <stop offset="1" stop-opacity="0" stop-color="white"/>
     </linearGradient>
    <rect fill="url(#id17)" x="280.28" y="113.11" width="98.35" height="129.09"/>
   </mask>
   <mask id="id18">
     <linearGradient id="id19" gradientUnits="userSpaceOnUse" x1="275.58" y1="159.16" x2="285" y2="272.54">
      <stop offset="0" stop-opacity="1" stop-color="white"/>
      <stop offset="1" stop-opacity="0" stop-color="white"/>
     </linearGradient>
    <rect fill="url(#id19)" x="292.88" y="176.77" width="46.81" height="61.04"/>
   </mask>
   <mask id="id20">
     <linearGradient id="id21" gradientUnits="userSpaceOnUse" x1="350.54" y1="82.15" x2="355.54" y2="72.05">
      <stop offset="0" stop-opacity="1" stop-color="white"/>
      <stop offset="1" stop-opacity="0" stop-color="white"/>
     </linearGradient>
    <rect fill="url(#id21)" x="329.11" y="72.25" width="49.64" height="43.88"/>
   </mask>
   <mask id="id22">
     <linearGradient id="id23" gradientUnits="userSpaceOnUse" x1="154.26" y1="89.65" x2="149.26" y2="79.55">
      <stop offset="0" stop-opacity="1" stop-color="white"/>
      <stop offset="1" stop-opacity="0" stop-color="white"/>
     </linearGradient>
    <rect fill="url(#id23)" x="126.05" y="79.75" width="49.65" height="43.88"/>
   </mask>
   <mask id="id24">
     <linearGradient id="id25" gradientUnits="userSpaceOnUse" x1="261.67" y1="314.25" x2="223.78" y2="390.82">
      <stop offset="0" stop-opacity="1" stop-color="white"/>
      <stop offset="1" stop-opacity="0" stop-color="white"/>
     </linearGradient>
    <rect fill="url(#id25)" x="168.17" y="302.82" width="186.99" height="93.16"/>
   </mask>
   <linearGradient id="id26" gradientUnits="userSpaceOnUse" x1="151" y1="316.86" x2="343.99" y2="409.48">
    <stop offset="0" stop-opacity="1" stop-color="#7B481D"/>
    <stop offset="1" stop-opacity="1" stop-color="#2B2A29"/>
   </linearGradient>
 </defs>
 <g id="Layer_x0020_1">
  <metadata id="CorelCorpID_0Corel-Layer"/>
  <circle fill="#FFD500" cx="257.52" cy="235.82" r="228.48"/>
  <path fill="#FEFEFE" mask="url(#id0)" d="M258.63 26.7c115.08,0 208.38,93.29 208.38,208.38 0,115.08 -93.3,208.38 -208.38,208.38 -115.09,0 -208.38,-93.3 -208.38,-208.38 0,-115.09 93.29,-208.38 208.38,-208.38z"/>
  <path fill="#5E5971" mask="url(#id2)" d="M298.4 254.21l107.02 0c9.95,0 28.05,-18.43 18.1,-18.1 -151.56,4.95 -114.9,13.25 -125.12,-125.13 -0.74,-9.93 -18.11,8.15 -18.11,18.11l0 107.02c0,9.95 8.15,18.1 18.11,18.1z"/>
  <path fill="#5E5971" mask="url(#id4)" d="M224.37 255.15l-107.02 0c-9.96,0 -28.06,-18.43 -18.1,-18.1 151.56,4.95 114.9,13.25 125.12,-125.12 0.73,-9.94 18.1,8.14 18.1,18.1l0 107.02c0,9.95 -8.14,18.1 -18.1,18.1z"/>
  <path fill="url(#id8)" mask="url(#id6)" d="M183.53 107.17c29.49,0 53.39,31.55 53.39,70.48 0,38.93 -23.9,70.49 -53.39,70.49 -29.49,0 -53.39,-31.56 -53.39,-70.49 0,-38.93 23.9,-70.48 53.39,-70.48z"/>
  <path fill="#FEFEFE" mask="url(#id9)" d="M191.29 114.29c26.51,0 48,28.37 48,63.36 0,35 -21.49,63.37 -48,63.37 -26.5,0 -47.99,-28.37 -47.99,-63.37 0,-34.99 21.49,-63.36 47.99,-63.36z"/>
  <path fill="#2B2A29" mask="url(#id11)" d="M204.55 178.32c12.28,0 22.23,13.13 22.23,29.33 0,16.21 -9.95,29.34 -22.23,29.34 -12.27,0 -22.22,-13.13 -22.22,-29.34 0,-16.2 9.95,-29.33 22.22,-29.33z"/>
  <ellipse fill="#2B2A29" cx="205.79" cy="207.91" rx="13.9" ry="18.35"/>
  <path fill="url(#id15)" mask="url(#id13)" d="M337.22 107.17c29.49,0 53.4,31.55 53.4,70.48 0,38.93 -23.91,70.49 -53.4,70.49 -29.48,0 -53.39,-31.56 -53.39,-70.49 0,-38.93 23.91,-70.48 53.39,-70.48z"/>
  <path fill="#FEFEFE" mask="url(#id16)" d="M329.46 114.29c26.51,0 47.99,28.37 47.99,63.36 0,35 -21.48,63.37 -47.99,63.37 -26.51,0 -48,-28.37 -48,-63.37 0,-34.99 21.49,-63.36 48,-63.36z"/>
  <path fill="#2B2A29" mask="url(#id18)" d="M316.29 177.95c12.27,0 22.22,13.14 22.22,29.34 0,16.2 -9.95,29.34 -22.22,29.34 -12.28,0 -22.23,-13.14 -22.23,-29.34 0,-16.2 9.95,-29.34 22.23,-29.34z"/>
  <ellipse fill="#2B2A29" cx="316.91" cy="215.03" rx="11.99" ry="15.83"/>
  <rect fill="#FEFEFE" x="195.86" y="174.36" width="12.81" height="14.5"/>
  <rect fill="#FEFEFE" x="195.3" y="191.88" width="5.65" height="6.4"/>
  <rect fill="#FEFEFE" x="299.75" y="195.85" width="5.65" height="6.4"/>
  <rect fill="#FEFEFE" x="300.69" y="177.1" width="12.81" height="14.5"/>
  <path fill="#2B2A29" mask="url(#id20)" d="M330.29 78.14c14.16,5.25 34.78,22.19 47.28,36.81 -1.09,-22.76 -28.36,-53.35 -47.28,-36.81z"/>
  <path fill="#2B2A29" mask="url(#id22)" d="M174.52 85.64c-14.17,5.25 -34.78,22.19 -47.29,36.81 1.09,-22.76 28.36,-53.35 47.29,-36.81z"/>
  <path fill="#5E5971" mask="url(#id24)" d="M261.67 304c50.98,0 92.31,20.33 92.31,45.4 0,25.08 -41.33,45.4 -92.31,45.4 -50.98,0 -92.32,-20.32 -92.32,-45.4 0,-25.07 41.34,-45.4 92.32,-45.4z"/>
  <ellipse fill="#E31E24" cx="261.67" cy="348.49" rx="71.47" ry="46.31"/>
  <path fill="url(#id26)" d="M162.35 415.8c-14.62,-13.08 -10.31,-39.55 2.42,-53.69 11.75,-13.04 -12.95,-50.37 -5.11,-67.33 17.11,-16.91 43.12,-3.13 55.52,28.81l-23.43 15.99c62.91,-27.41 54.05,-34.7 66.39,-78.81 9.54,-34.09 40.13,-27.28 42.97,6.31 2.57,29.88 -11.54,36.44 -22.65,68.2l32.75 -62.6c18.83,28.86 10.37,34.45 0.64,77.65 13.58,-12.11 23.11,-32.54 19.14,-53.29 28.26,27.34 16.96,66.47 6.61,79.91l12.64 -16.69c2.01,20.23 -44.77,55.51 -62.09,67.49 -30.68,21.22 -76.65,24.5 -78.67,34.57 19.62,3.58 25.6,-4.07 33.16,-2.17 1.85,18.63 -23.11,27.82 -39.4,28.3 -18.78,0.55 -36.71,-7.39 -51.71,-18.23 -14.22,-15.37 -17.79,-14.62 -18.29,-35.37 -0.33,-13.63 0.6,-24.93 15.24,-31.88 14.16,14.17 -0.71,6.07 3.98,22.57l16.32 17.83 -11.59 -18.84c2.34,-3.15 -4.13,-3.03 5.41,-2.54l-0.25 -6.19zm-23.57 -14.37l-8.37 8.68c-8.73,16.21 -8.04,37.89 3.84,52.62l10.72 12.05c22.82,16.46 41.21,26.41 70.81,19.49 12.66,-2.96 27.79,-9.8 32.59,-21.52 6.3,-15.37 -10.53,-13.08 13.61,-21.98 38.16,-14.07 106.02,-68.11 97.12,-109.37 -7.03,-32.58 -14.53,-35.98 -32.02,-61.57 -92.09,-128.84 -56.13,21.17 -104.97,38.03 9.78,-14.12 -62.79,-82.05 -71.06,-17.02 -3.78,22.37 10.12,21.44 12.56,48.14 -10.22,19.29 -16.93,24.69 -14.53,47.57l-10.3 4.88z"/>
  <path fill="#FEFEFE" d="M209.48 462.32c2.02,-10.07 47.99,-13.35 78.67,-34.57 17.32,-11.98 64.1,-47.26 62.09,-67.49l-12.35 16.3c10.27,-13.78 21.1,-52.44 -6.9,-79.52 3.97,20.75 -5.56,41.18 -19.14,53.29 9.73,-43.2 18.19,-48.79 -0.64,-77.65l-32.75 62.6c11.11,-31.76 25.22,-38.32 22.65,-68.2 -3.24,-37.53 -30.09,-39.61 -42.14,-8.49 -16.63,42.94 -4.31,53.58 -67.22,80.99l23.43 -15.99c-12.4,-31.94 -38.41,-45.72 -55.52,-28.81 -7.84,16.96 16.86,54.3 5.11,67.33 -12.73,14.14 -17.04,40.61 -2.42,53.69l0.25 6.19c-9.54,-0.49 -3.07,-0.61 -5.41,2.54l11.59 18.84 -16.32 -17.83c-4.69,-16.5 10.18,-8.4 -3.98,-22.57 -14.64,6.95 -15.57,18.25 -15.24,31.88 0.5,20.75 4.07,20 18.29,35.37 15,10.84 32.93,18.78 51.71,18.23 16.29,-0.48 41.25,-9.67 39.4,-28.3 -7.56,-1.9 -13.54,5.75 -33.16,2.17z"/>
 </g>
</svg>
