<?xml version="1.0" encoding="UTF-8"?>
<!DOCTYPE svg PUBLIC "-//W3C//DTD SVG 1.1//EN" "http://www.w3.org/Graphics/SVG/1.1/DTD/svg11.dtd">
<!-- Creator: CorelDRAW 2017 -->
<svg xmlns="http://www.w3.org/2000/svg" xml:space="preserve" version="1.1" shape-rendering="geometricPrecision" text-rendering="geometricPrecision" image-rendering="optimizeQuality" fill-rule="evenodd" clip-rule="evenodd"
viewBox="0 0 500 500"
 xmlns:xlink="http://www.w3.org/1999/xlink">
 <defs>
   <mask id="id0">
     <linearGradient id="id1" gradientUnits="userSpaceOnUse" x1="304.33" y1="249.62" x2="357.81" y2="182.21">
      <stop offset="0" stop-opacity="1" stop-color="white"/>
      <stop offset="1" stop-opacity="0" stop-color="white"/>
     </linearGradient>
    <rect fill="url(#id1)" x="280.67" y="81.61" width="200.45" height="200.44"/>
   </mask>
   <mask id="id2">
     <linearGradient id="id3" gradientUnits="userSpaceOnUse" x1="208.09" y1="250.9" x2="154.61" y2="183.49">
      <stop offset="0" stop-opacity="1" stop-color="white"/>
      <stop offset="1" stop-opacity="0" stop-color="white"/>
     </linearGradient>
    <rect fill="url(#id3)" x="31.3" y="82.88" width="200.46" height="200.45"/>
   </mask>
   <mask id="id4">
     <linearGradient id="id5" gradientUnits="userSpaceOnUse" x1="201.51" y1="306.87" x2="109.59" y2="85.23">
      <stop offset="0" stop-opacity="1" stop-color="white"/>
      <stop offset="1" stop-opacity="0" stop-color="white"/>
     </linearGradient>
    <rect fill="url(#id5)" x="77.11" y="80.35" width="147.12" height="193.47"/>
   </mask>
   <mask id="id6">
     <linearGradient id="id7" gradientUnits="userSpaceOnUse" x1="403.29" y1="305.57" x2="311.37" y2="83.93">
      <stop offset="0" stop-opacity="1" stop-color="white"/>
      <stop offset="1" stop-opacity="0" stop-color="white"/>
     </linearGradient>
    <rect fill="url(#id7)" x="278.89" y="79.04" width="147.12" height="193.48"/>
   </mask>
   <mask id="id8">
     <linearGradient id="id9" gradientUnits="userSpaceOnUse" x1="228.07" y1="129.46" x2="256.9" y2="355.23">
      <stop offset="0" stop-opacity="1" stop-color="white"/>
      <stop offset="1" stop-opacity="0" stop-color="white"/>
     </linearGradient>
    <rect fill="url(#id9)" x="94.95" y="111.11" width="132.49" height="153.06"/>
   </mask>
   <mask id="id10">
     <linearGradient id="id11" gradientUnits="userSpaceOnUse" x1="225.8" y1="106.53" x2="238.57" y2="260.25">
      <stop offset="0" stop-opacity="1" stop-color="white"/>
      <stop offset="1" stop-opacity="0" stop-color="white"/>
     </linearGradient>
    <rect fill="url(#id11)" x="162.96" y="130.83" width="62.61" height="81.91"/>
   </mask>
   <mask id="id12">
     <linearGradient id="id13" gradientUnits="userSpaceOnUse" x1="215.01" y1="116.67" x2="223" y2="212.82">
      <stop offset="0" stop-opacity="1" stop-color="white"/>
      <stop offset="1" stop-opacity="0" stop-color="white"/>
     </linearGradient>
    <rect fill="url(#id13)" x="175.26" y="131.43" width="40.05" height="52.12"/>
   </mask>
   <mask id="id14">
     <linearGradient id="id15" gradientUnits="userSpaceOnUse" x1="332.25" y1="300.74" x2="377.19" y2="122">
      <stop offset="0" stop-opacity="1" stop-color="white"/>
      <stop offset="1" stop-opacity="0" stop-color="white"/>
     </linearGradient>
    <rect fill="url(#id15)" x="285.47" y="80.35" width="147.12" height="193.47"/>
   </mask>
   <mask id="id16">
     <linearGradient id="id17" gradientUnits="userSpaceOnUse" x1="260.75" y1="139.39" x2="256.9" y2="357.22">
      <stop offset="0" stop-opacity="1" stop-color="white"/>
      <stop offset="1" stop-opacity="0" stop-color="white"/>
     </linearGradient>
    <rect fill="url(#id17)" x="282.25" y="107.85" width="132.5" height="156.32"/>
   </mask>
   <mask id="id18">
     <linearGradient id="id19" gradientUnits="userSpaceOnUse" x1="258.46" y1="105.21" x2="271.23" y2="258.92">
      <stop offset="0" stop-opacity="1" stop-color="white"/>
      <stop offset="1" stop-opacity="0" stop-color="white"/>
     </linearGradient>
    <rect fill="url(#id19)" x="282.34" y="129.51" width="62.61" height="81.9"/>
   </mask>
   <mask id="id20">
     <linearGradient id="id21" gradientUnits="userSpaceOnUse" x1="277.23" y1="118.39" x2="284.12" y2="201.34">
      <stop offset="0" stop-opacity="1" stop-color="white"/>
      <stop offset="1" stop-opacity="0" stop-color="white"/>
     </linearGradient>
    <rect fill="url(#id21)" x="289.57" y="130.96" width="34.87" height="45.29"/>
   </mask>
   <mask id="id22">
     <linearGradient id="id23" gradientUnits="userSpaceOnUse" x1="186.6" y1="62.2" x2="191.61" y2="48.89">
      <stop offset="0" stop-opacity="1" stop-color="white"/>
      <stop offset="1" stop-opacity="0" stop-color="white"/>
     </linearGradient>
    <rect fill="url(#id23)" x="159.48" y="51" width="66.36" height="50.18"/>
   </mask>
   <mask id="id24">
     <linearGradient id="id25" gradientUnits="userSpaceOnUse" x1="319.99" y1="59.95" x2="314.98" y2="46.64">
      <stop offset="0" stop-opacity="1" stop-color="white"/>
      <stop offset="1" stop-opacity="0" stop-color="white"/>
     </linearGradient>
    <rect fill="url(#id25)" x="280.75" y="48.75" width="66.36" height="50.19"/>
   </mask>
    <mask id="id26">
      <linearGradient id="id27" gradientUnits="userSpaceOnUse" x1="449.29" y1="126.27" x2="199.63" y2="130.63">
       <stop offset="0" stop-opacity="1" stop-color="white"/>
       <stop offset="1" stop-opacity="0" stop-color="white"/>
      </linearGradient>
     <rect fill="url(#id27)" x="65.32" y="124.15" width="385.15" height="9.39"/>
    </mask>
 </defs>
 <g id="Layer_x0020_1">
  <metadata id="CorelCorpID_0Corel-Layer"/>
  <circle fill="#FFD500" cx="252.01" cy="249.44" r="246.01"/>
  <path fill="#5E5971" mask="url(#id0)" d="M306.39 280.87l145.08 0c13.5,0 38.04,-24.98 24.55,-24.54 -205.47,6.72 -155.77,17.96 -169.63,-169.63 -0.99,-13.46 -24.54,11.05 -24.54,24.55l0 145.08c0,13.5 11.04,24.54 24.54,24.54z"/>
  <path fill="#5E5971" mask="url(#id2)" d="M206.03 282.15l-145.08 0c-13.5,0 -38.03,-24.99 -24.54,-24.55 205.47,6.72 155.77,17.97 169.62,-169.62 1,-13.46 24.55,11.04 24.55,24.54l0 145.08c0,13.5 -11.05,24.55 -24.55,24.55z"/>
  <path fill="#5E5971" mask="url(#id4)" d="M150.67 81.53c39.97,0 72.38,42.78 72.38,95.55 0,52.78 -32.41,95.56 -72.38,95.56 -39.98,0 -72.38,-42.78 -72.38,-95.56 0,-52.77 32.4,-95.55 72.38,-95.55z"/>
  <path fill="#5E5971" mask="url(#id6)" d="M352.45 80.22c39.97,0 72.38,42.79 72.38,95.56 0,52.78 -32.41,95.56 -72.38,95.56 -39.98,0 -72.38,-42.78 -72.38,-95.56 0,-52.77 32.4,-95.56 72.38,-95.56z"/>
  <path fill="#FEFEFE" mask="url(#id8)" d="M161.2 112.29c35.93,0 65.06,33.73 65.06,75.35 0,41.61 -29.13,75.35 -65.06,75.35 -35.94,0 -65.07,-33.74 -65.07,-75.35 0,-41.62 29.13,-75.35 65.07,-75.35z"/>
  <path fill="#2B2A29" mask="url(#id10)" d="M194.26 132.01c16.64,0 30.13,17.81 30.13,39.78 0,21.96 -13.49,39.77 -30.13,39.77 -16.63,0 -30.12,-17.81 -30.12,-39.77 0,-21.97 13.49,-39.78 30.12,-39.78z"/>
  <path fill="#2B2A29" mask="url(#id12)" d="M195.29 132.61c10.4,0 18.84,11.14 18.84,24.88 0,13.74 -8.44,24.88 -18.84,24.88 -10.41,0 -18.85,-11.14 -18.85,-24.88 0,-13.74 8.44,-24.88 18.85,-24.88z"/>
  <path fill="#5E5971" mask="url(#id14)" d="M359.03 81.53c39.97,0 72.38,42.78 72.38,95.55 0,52.78 -32.41,95.56 -72.38,95.56 -39.98,0 -72.38,-42.78 -72.38,-95.56 0,-52.77 32.4,-95.55 72.38,-95.55z"/>
  <path fill="#FEFEFE" mask="url(#id16)" d="M348.5 109.03c35.93,0 65.07,34.46 65.07,76.98 0,42.51 -29.14,76.98 -65.07,76.98 -35.94,0 -65.07,-34.47 -65.07,-76.98 0,-42.52 29.13,-76.98 65.07,-76.98z"/>
  <path fill="#2B2A29" mask="url(#id18)" d="M313.64 130.69c16.64,0 30.13,17.8 30.13,39.77 0,21.96 -13.49,39.77 -30.13,39.77 -16.64,0 -30.12,-17.81 -30.12,-39.77 0,-21.97 13.48,-39.77 30.12,-39.77z"/>
  <path fill="#2B2A29" mask="url(#id20)" d="M307 132.14c8.98,0 16.26,9.61 16.26,21.47 0,11.85 -7.28,21.46 -16.26,21.46 -8.98,0 -16.25,-9.61 -16.25,-21.46 0,-11.86 7.27,-21.47 16.25,-21.47z"/>
  <rect fill="#FEFEFE" x="182.48" y="126.65" width="17.36" height="19.66"/>
  <rect fill="#FEFEFE" x="181.71" y="150.4" width="7.66" height="8.68"/>
  <rect fill="#FEFEFE" x="291.23" y="154.94" width="7.66" height="8.68"/>
  <rect fill="#FEFEFE" x="292.5" y="129.53" width="17.36" height="19.66"/>
  <path fill="#7B481D" mask="url(#id22)" d="M160.66 59.72c18.44,4.8 46.46,23.49 64,40.28 -4.23,-28.44 -42.31,-63.44 -64,-40.28z"/>
  <path fill="#7B481D" mask="url(#id24)" d="M345.93 57.47c-18.44,4.81 -46.46,23.49 -64,40.29 4.23,-28.44 42.31,-63.45 64,-40.29z"/>
  <path fill="#2B2A29" d="M131.7 327.83c64.87,35.03 165.69,31.17 229.82,3.22 -20.36,128.95 -159.33,182.3 -229.82,-3.22z"/>
  <path fill="#E31E24" d="M149.59 353.34c54.77,22.38 139.89,19.91 194.04,2.05 -17.19,82.39 -134.52,116.48 -194.04,-2.05z"/>
  <path fill="#FEFEFE" d="M149.59 353.34c55.07,21.54 140.21,20.87 194.04,1.02 -17.19,41.2 -134.52,58.24 -194.04,-1.02z"/>
  <path fill="#2B2A29" d="M117.73 344.99c8.33,-7.39 18,-24.59 22.72,-38.04 5.23,16.05 -5.4,44.47 -22.72,38.04z"/>
  <path fill="#2B2A29" d="M377.28 346.58c-8.33,-7.4 -18,-24.6 -22.72,-38.05 -5.23,16.05 5.4,44.47 22.72,38.05z"/>
  <rect fill="#2B2A29" x="69.72" y="122.86" width="165.53" height="179.58" rx="20.19" ry="21.9"/>
  <rect fill="#2B2A29" x="269.12" y="122.86" width="165.53" height="179.58" rx="18.17" ry="19.71"/>
  <g id="_2015823245424">
   <rect fill="#2B2A29" x="47.29" y="120.84" width="409.79" height="37.26" rx="9.15" ry="9.09"/>
   <path fill="#FEFEFE" mask="url(#id26)" d="M70.01 125.33l375.76 0c1.94,0 3.52,1.58 3.52,3.52l0 0c0,1.93 -1.58,3.51 -3.52,3.51l-375.76 0c-1.93,0 -3.51,-1.58 -3.51,-3.51l0 0c0,-1.94 1.58,-3.52 3.51,-3.52z"/>
  </g>
  <rect fill="#FEFEFE" x="102.38" y="166.05" width="36.04" height="40.81"/>
  <rect fill="#FEFEFE" x="312.62" y="164.75" width="36.04" height="40.81"/>
  <rect fill="#FEFEFE" x="100.78" y="215.35" width="15.91" height="18.01"/>
  <rect fill="#FEFEFE" x="311.03" y="214.05" width="15.91" height="18.01"/>
 </g>
</svg>
