<?xml version="1.0" encoding="UTF-8"?>
<!DOCTYPE svg PUBLIC "-//W3C//DTD SVG 1.1//EN" "http://www.w3.org/Graphics/SVG/1.1/DTD/svg11.dtd">
<!-- Creator: CorelDRAW 2017 -->
<svg xmlns="http://www.w3.org/2000/svg" xml:space="preserve" version="1.1" shape-rendering="geometricPrecision" text-rendering="geometricPrecision" image-rendering="optimizeQuality" fill-rule="evenodd" clip-rule="evenodd"
viewBox="0 0 500 500"
 xmlns:xlink="http://www.w3.org/1999/xlink">
 <defs>
   <mask id="id0">
     <linearGradient id="id1" gradientUnits="userSpaceOnUse" x1="-161.7" y1="230.74" x2="250.51" y2="271.85">
      <stop offset="0" stop-opacity="1" stop-color="white"/>
      <stop offset="1" stop-opacity="0" stop-color="white"/>
     </linearGradient>
    <rect fill="url(#id1)" x="30.54" y="34.65" width="442.31" height="442.31"/>
   </mask>
   <mask id="id2">
     <linearGradient id="id3" gradientUnits="userSpaceOnUse" x1="302.99" y1="255.98" x2="355.42" y2="189.89">
      <stop offset="0" stop-opacity="1" stop-color="white"/>
      <stop offset="1" stop-opacity="0" stop-color="white"/>
     </linearGradient>
    <rect fill="url(#id3)" x="279.77" y="91.23" width="196.57" height="196.57"/>
   </mask>
   <mask id="id4">
     <linearGradient id="id5" gradientUnits="userSpaceOnUse" x1="208.63" y1="257.23" x2="156.2" y2="191.15">
      <stop offset="0" stop-opacity="1" stop-color="white"/>
      <stop offset="1" stop-opacity="0" stop-color="white"/>
     </linearGradient>
    <rect fill="url(#id5)" x="35.29" y="92.49" width="196.57" height="196.56"/>
   </mask>
   <mask id="id6">
     <linearGradient id="id7" gradientUnits="userSpaceOnUse" x1="202.18" y1="312.11" x2="112.06" y2="94.81">
      <stop offset="0" stop-opacity="1" stop-color="white"/>
      <stop offset="1" stop-opacity="0" stop-color="white"/>
     </linearGradient>
    <rect fill="url(#id7)" x="80.19" y="90" width="144.29" height="189.73"/>
   </mask>
   <mask id="id8">
     <linearGradient id="id9" gradientUnits="userSpaceOnUse" x1="228.22" y1="119.85" x2="256.48" y2="372.18">
      <stop offset="0" stop-opacity="1" stop-color="white"/>
      <stop offset="1" stop-opacity="0" stop-color="white"/>
     </linearGradient>
    <rect fill="url(#id9)" x="97.69" y="99.47" width="129.94" height="170.79"/>
   </mask>
   <mask id="id10">
     <linearGradient id="id11" gradientUnits="userSpaceOnUse" x1="226" y1="115.7" x2="238.52" y2="266.4">
      <stop offset="0" stop-opacity="1" stop-color="white"/>
      <stop offset="1" stop-opacity="0" stop-color="white"/>
     </linearGradient>
    <rect fill="url(#id11)" x="164.36" y="139.5" width="61.43" height="80.35"/>
   </mask>
   <mask id="id12">
     <linearGradient id="id13" gradientUnits="userSpaceOnUse" x1="330.36" y1="306.1" x2="374.42" y2="130.86">
      <stop offset="0" stop-opacity="1" stop-color="white"/>
      <stop offset="1" stop-opacity="0" stop-color="white"/>
     </linearGradient>
    <rect fill="url(#id13)" x="284.47" y="90" width="144.29" height="189.73"/>
   </mask>
   <mask id="id14">
     <linearGradient id="id15" gradientUnits="userSpaceOnUse" x1="260.26" y1="133.86" x2="256.48" y2="372.18">
      <stop offset="0" stop-opacity="1" stop-color="white"/>
      <stop offset="1" stop-opacity="0" stop-color="white"/>
     </linearGradient>
    <rect fill="url(#id15)" x="281.32" y="99.47" width="129.94" height="170.79"/>
   </mask>
   <mask id="id16">
     <linearGradient id="id17" gradientUnits="userSpaceOnUse" x1="258.02" y1="114.39" x2="270.53" y2="265.1">
      <stop offset="0" stop-opacity="1" stop-color="white"/>
      <stop offset="1" stop-opacity="0" stop-color="white"/>
     </linearGradient>
    <rect fill="url(#id17)" x="281.4" y="138.2" width="61.43" height="80.34"/>
   </mask>
   <mask id="id18">
     <linearGradient id="id19" gradientUnits="userSpaceOnUse" x1="318.31" y1="90.53" x2="323.22" y2="77.48">
      <stop offset="0" stop-opacity="1" stop-color="white"/>
      <stop offset="1" stop-opacity="0" stop-color="white"/>
     </linearGradient>
    <rect fill="url(#id19)" x="291.7" y="79.53" width="65.11" height="49.24"/>
   </mask>
   <mask id="id20">
     <linearGradient id="id21" gradientUnits="userSpaceOnUse" x1="203.48" y1="89.17" x2="198.57" y2="76.12">
      <stop offset="0" stop-opacity="1" stop-color="white"/>
      <stop offset="1" stop-opacity="0" stop-color="white"/>
     </linearGradient>
    <rect fill="url(#id21)" x="164.98" y="78.17" width="65.11" height="49.24"/>
   </mask>
    <mask id="id22">
      <linearGradient id="id23" gradientUnits="userSpaceOnUse" x1="268.1" y1="298.76" x2="269.53" y2="376.98">
       <stop offset="0" stop-opacity="1" stop-color="white"/>
       <stop offset="1" stop-opacity="0" stop-color="white"/>
      </linearGradient>
     <rect fill="url(#id23)" x="162.15" y="321.75" width="188.16" height="91.52"/>
    </mask>
    <linearGradient id="id24" gradientUnits="userSpaceOnUse" x1="177.79" y1="367.51" x2="334.67" y2="367.51">
     <stop offset="0" stop-opacity="1" stop-color="#7B481D"/>
     <stop offset="1" stop-opacity="1" stop-color="#2B2A29"/>
    </linearGradient>
    <mask id="id25">
      <linearGradient id="id26" gradientUnits="userSpaceOnUse" x1="267.25" y1="308.2" x2="265.6" y2="430.8">
       <stop offset="0" stop-opacity="1" stop-color="white"/>
       <stop offset="1" stop-opacity="0" stop-color="white"/>
      </linearGradient>
     <rect fill="url(#id26)" x="166.3" y="375.28" width="187.34" height="92.5"/>
    </mask>
   <mask id="id27">
     <linearGradient id="id28" gradientUnits="userSpaceOnUse" x1="198.32" y1="325.13" x2="131.05" y2="324.23">
      <stop offset="0" stop-opacity="1" stop-color="white"/>
      <stop offset="1" stop-opacity="0" stop-color="white"/>
     </linearGradient>
    <rect fill="url(#id28)" x="104.44" y="276.67" width="70.75" height="120.27"/>
   </mask>
 </defs>
 <g id="Layer_x0020_1">
  <metadata id="CorelCorpID_0Corel-Layer"/>
  <circle fill="#FFD500" cx="251.69" cy="255.81" r="241.19"/>
  <path fill="#FEFEFE" mask="url(#id0)" d="M251.69 35.83c121.49,0 219.98,98.49 219.98,219.98 0,121.48 -98.49,219.97 -219.98,219.97 -121.48,0 -219.97,-98.49 -219.97,-219.97 0,-121.49 98.49,-219.98 219.97,-219.98z"/>
  <path fill="#008DD2" mask="url(#id2)" d="M305.01 286.62l142.24 0c13.23,0 37.29,-24.5 24.06,-24.06 -201.44,6.58 -152.72,17.61 -166.3,-166.31 -0.97,-13.2 -24.06,10.83 -24.06,24.07l0 142.24c0,13.23 10.82,24.06 24.06,24.06z"/>
  <path fill="#008DD2" mask="url(#id4)" d="M206.62 287.87l-142.24 0c-13.24,0 -37.29,-24.5 -24.07,-24.06 201.45,6.58 152.73,17.61 166.31,-166.31 0.97,-13.2 24.06,10.83 24.06,24.07l0 142.24c0,13.23 -10.83,24.06 -24.06,24.06z"/>
  <path fill="#5E5971" mask="url(#id6)" d="M152.33 91.18c39.2,0 70.97,41.94 70.97,93.69 0,51.74 -31.77,93.68 -70.97,93.68 -39.19,0 -70.96,-41.94 -70.96,-93.68 0,-51.75 31.77,-93.69 70.96,-93.69z"/>
  <path fill="#FEFEFE" mask="url(#id8)" d="M162.66 100.65c35.23,0 63.79,37.7 63.79,84.22 0,46.51 -28.56,84.21 -63.79,84.21 -35.23,0 -63.79,-37.7 -63.79,-84.21 0,-46.52 28.56,-84.22 63.79,-84.22z"/>
  <path fill="#2B2A29" mask="url(#id10)" d="M195.08 140.68c16.31,0 29.53,17.46 29.53,38.99 0,21.54 -13.22,39 -29.53,39 -16.32,0 -29.54,-17.46 -29.54,-39 0,-21.53 13.22,-38.99 29.54,-38.99z"/>
  <ellipse fill="#2B2A29" cx="196.08" cy="165.65" rx="18.47" ry="24.39"/>
  <path fill="#5E5971" mask="url(#id12)" d="M356.61 91.18c39.2,0 70.97,41.94 70.97,93.69 0,51.74 -31.77,93.68 -70.97,93.68 -39.19,0 -70.96,-41.94 -70.96,-93.68 0,-51.75 31.77,-93.69 70.96,-93.69z"/>
  <path fill="#FEFEFE" mask="url(#id14)" d="M346.29 100.65c35.23,0 63.79,37.7 63.79,84.22 0,46.51 -28.56,84.21 -63.79,84.21 -35.23,0 -63.79,-37.7 -63.79,-84.21 0,-46.52 28.56,-84.22 63.79,-84.22z"/>
  <path fill="#2B2A29" mask="url(#id16)" d="M312.12 139.38c16.31,0 29.53,17.45 29.53,38.99 0,21.53 -13.22,38.99 -29.53,38.99 -16.32,0 -29.54,-17.46 -29.54,-38.99 0,-21.54 13.22,-38.99 29.54,-38.99z"/>
  <ellipse fill="#2B2A29" cx="305.61" cy="161.85" rx="15.94" ry="21.04"/>
  <rect fill="#FEFEFE" x="183.52" y="135.42" width="17.02" height="19.28"/>
  <rect fill="#FEFEFE" x="182.77" y="158.71" width="7.51" height="8.51"/>
  <rect fill="#FEFEFE" x="290.14" y="163.16" width="7.51" height="8.51"/>
  <rect fill="#FEFEFE" x="291.39" y="138.25" width="17.02" height="19.28"/>
  <path fill="#7B481D" mask="url(#id18)" d="M292.88 88.1c18.09,4.71 45.56,23.03 62.75,39.49 -4.14,-27.88 -41.48,-62.2 -62.75,-39.49z"/>
  <path fill="#7B481D" mask="url(#id20)" d="M228.91 86.74c-18.09,4.71 -45.56,23.03 -62.75,39.49 4.14,-27.88 41.48,-62.19 62.75,-39.49z"/>
  <g id="_2015776455888">
   <path fill="#2B2A29" mask="url(#id22)" d="M163.33 412.09c52.44,-25.96 133.96,-23.1 185.8,-2.38 -16.46,-95.59 -128.81,-135.14 -185.8,2.38z"/>
   <path fill="url(#id24)" d="M177.79 405.15c44.28,-21.92 113.1,-19.5 156.88,-2.01 -13.9,-80.71 -108.76,-114.1 -156.88,2.01z"/>
   <path fill="#EF7F1A" mask="url(#id25)" d="M167.48 411.67c45.6,-47.77 137.5,-43.82 184.98,-6.88 -59.68,76.56 -107.81,85.57 -184.98,6.88z"/>
  </g>
  <path fill="#008DD2" d="M142.61 260.32c-14.98,42.47 -36.36,58.66 -39.96,79.74 -13.31,77.95 86.16,80.07 75.02,-0.24 -2.9,-20.89 -26.43,-38.73 -35.06,-79.5z"/>
  <path fill="#FEFEFE" mask="url(#id27)" d="M142.14 277.85c-13.28,36.03 -32.23,49.77 -35.43,67.65 -11.8,66.14 76.41,67.94 66.53,-0.2 -2.57,-17.72 -23.44,-32.86 -31.1,-67.45z"/>
  <rect fill="#FEFEFE" x="113.9" y="337.48" width="17.02" height="19.28"/>
  <rect fill="#FEFEFE" x="121.91" y="366.48" width="7.51" height="8.51"/>
 </g>
</svg>
