<?xml version="1.0" encoding="UTF-8"?>
<!DOCTYPE svg PUBLIC "-//W3C//DTD SVG 1.1//EN" "http://www.w3.org/Graphics/SVG/1.1/DTD/svg11.dtd">
<!-- Creator: CorelDRAW 2017 -->
<svg xmlns="http://www.w3.org/2000/svg" xml:space="preserve" version="1.1" shape-rendering="geometricPrecision" text-rendering="geometricPrecision" image-rendering="optimizeQuality" fill-rule="evenodd" clip-rule="evenodd"
viewBox="0 0 500 500"
 xmlns:xlink="http://www.w3.org/1999/xlink">
 <defs>
   <mask id="id0">
     <linearGradient id="id1" gradientUnits="userSpaceOnUse" x1="-161.95" y1="343.24" x2="248.92" y2="265.36">
      <stop offset="0" stop-opacity="1" stop-color="white"/>
      <stop offset="1" stop-opacity="0" stop-color="white"/>
     </linearGradient>
    <rect fill="url(#id1)" x="22.18" y="26.19" width="446.61" height="446.6"/>
   </mask>
   <mask id="id2">
     <linearGradient id="id3" gradientUnits="userSpaceOnUse" x1="297.27" y1="249.67" x2="350.2" y2="182.95">
      <stop offset="0" stop-opacity="1" stop-color="white"/>
      <stop offset="1" stop-opacity="0" stop-color="white"/>
     </linearGradient>
    <rect fill="url(#id3)" x="273.84" y="83.36" width="198.42" height="198.41"/>
   </mask>
   <mask id="id4">
     <linearGradient id="id5" gradientUnits="userSpaceOnUse" x1="202.02" y1="250.93" x2="149.09" y2="184.21">
      <stop offset="0" stop-opacity="1" stop-color="white"/>
      <stop offset="1" stop-opacity="0" stop-color="white"/>
     </linearGradient>
    <rect fill="url(#id5)" x="27.03" y="84.63" width="198.42" height="198.41"/>
   </mask>
   <mask id="id6">
     <linearGradient id="id7" gradientUnits="userSpaceOnUse" x1="195.5" y1="306.33" x2="104.52" y2="86.96">
      <stop offset="0" stop-opacity="1" stop-color="white"/>
      <stop offset="1" stop-opacity="0" stop-color="white"/>
     </linearGradient>
    <rect fill="url(#id7)" x="72.36" y="82.12" width="145.64" height="191.51"/>
   </mask>
   <mask id="id8">
     <linearGradient id="id9" gradientUnits="userSpaceOnUse" x1="221.79" y1="112.24" x2="250.32" y2="366.97">
      <stop offset="0" stop-opacity="1" stop-color="white"/>
      <stop offset="1" stop-opacity="0" stop-color="white"/>
     </linearGradient>
    <rect fill="url(#id9)" x="90.03" y="91.67" width="131.15" height="172.4"/>
   </mask>
   <mask id="id10">
     <linearGradient id="id11" gradientUnits="userSpaceOnUse" x1="219.55" y1="108.05" x2="232.19" y2="260.19">
      <stop offset="0" stop-opacity="1" stop-color="white"/>
      <stop offset="1" stop-opacity="0" stop-color="white"/>
     </linearGradient>
    <rect fill="url(#id11)" x="157.33" y="132.09" width="62" height="81.09"/>
   </mask>
   <mask id="id12">
     <linearGradient id="id13" gradientUnits="userSpaceOnUse" x1="324.9" y1="300.26" x2="369.38" y2="123.35">
      <stop offset="0" stop-opacity="1" stop-color="white"/>
      <stop offset="1" stop-opacity="0" stop-color="white"/>
     </linearGradient>
    <rect fill="url(#id13)" x="278.59" y="82.12" width="145.63" height="191.51"/>
   </mask>
   <mask id="id14">
     <linearGradient id="id15" gradientUnits="userSpaceOnUse" x1="254.13" y1="126.39" x2="250.32" y2="366.97">
      <stop offset="0" stop-opacity="1" stop-color="white"/>
      <stop offset="1" stop-opacity="0" stop-color="white"/>
     </linearGradient>
    <rect fill="url(#id15)" x="275.41" y="91.67" width="131.15" height="172.4"/>
   </mask>
   <mask id="id16">
     <linearGradient id="id17" gradientUnits="userSpaceOnUse" x1="251.87" y1="106.73" x2="264.5" y2="258.87">
      <stop offset="0" stop-opacity="1" stop-color="white"/>
      <stop offset="1" stop-opacity="0" stop-color="white"/>
     </linearGradient>
    <rect fill="url(#id17)" x="275.49" y="130.77" width="61.99" height="81.09"/>
   </mask>
   <mask id="id18">
     <linearGradient id="id19" gradientUnits="userSpaceOnUse" x1="312.74" y1="82.64" x2="317.69" y2="69.47">
      <stop offset="0" stop-opacity="1" stop-color="white"/>
      <stop offset="1" stop-opacity="0" stop-color="white"/>
     </linearGradient>
    <rect fill="url(#id19)" x="285.88" y="71.55" width="65.71" height="49.69"/>
   </mask>
   <mask id="id20">
     <linearGradient id="id21" gradientUnits="userSpaceOnUse" x1="196.81" y1="81.27" x2="191.85" y2="68.1">
      <stop offset="0" stop-opacity="1" stop-color="white"/>
      <stop offset="1" stop-opacity="0" stop-color="white"/>
     </linearGradient>
    <rect fill="url(#id21)" x="157.96" y="70.18" width="65.7" height="49.69"/>
   </mask>
 </defs>
 <g id="Layer_x0020_1">
  <metadata id="CorelCorpID_0Corel-Layer"/>
  <circle fill="#FFD500" cx="245.49" cy="249.49" r="243.49"/>
  <path fill="#FEFEFE" mask="url(#id0)" d="M182.68 36.49c117.64,-34.69 241.12,32.56 275.8,150.19 34.69,117.64 -32.55,241.12 -150.19,275.81 -117.64,34.68 -241.12,-32.56 -275.8,-150.19 -34.69,-117.64 32.55,-241.12 150.19,-275.81z"/>
  <path fill="#7B481D" mask="url(#id2)" d="M299.31 280.59l143.59 0c13.36,0 37.64,-24.72 24.29,-24.29 -203.36,6.65 -154.17,17.79 -167.88,-167.88 -0.99,-13.33 -24.29,10.93 -24.29,24.29l0 143.59c0,13.36 10.93,24.29 24.29,24.29z"/>
  <path fill="#7B481D" mask="url(#id4)" d="M199.98 281.86l-143.59 0c-13.36,0 -37.65,-24.73 -24.29,-24.3 203.36,6.65 154.17,17.79 167.88,-167.88 0.98,-13.32 24.29,10.93 24.29,24.29l0 143.59c0,13.37 -10.93,24.3 -24.29,24.3z"/>
  <path fill="#5E5971" mask="url(#id6)" d="M145.18 83.3c39.57,0 71.64,42.34 71.64,94.57 0,52.24 -32.07,94.58 -71.64,94.58 -39.56,0 -71.64,-42.34 -71.64,-94.58 0,-52.23 32.08,-94.57 71.64,-94.57z"/>
  <path fill="#FEFEFE" mask="url(#id8)" d="M155.6 92.85c35.57,0 64.4,38.07 64.4,85.02 0,46.96 -28.83,85.02 -64.4,85.02 -35.56,0 -64.39,-38.06 -64.39,-85.02 0,-46.95 28.83,-85.02 64.39,-85.02z"/>
  <path fill="#2B2A29" mask="url(#id10)" d="M188.33 133.27c16.47,0 29.82,17.62 29.82,39.36 0,21.74 -13.35,39.37 -29.82,39.37 -16.47,0 -29.82,-17.63 -29.82,-39.37 0,-21.74 13.35,-39.36 29.82,-39.36z"/>
  <ellipse fill="#2B2A29" cx="189.34" cy="158.48" rx="18.65" ry="24.62"/>
  <path fill="#5E5971" mask="url(#id12)" d="M351.4 83.3c39.57,0 71.64,42.34 71.64,94.57 0,52.24 -32.07,94.58 -71.64,94.58 -39.56,0 -71.63,-42.34 -71.63,-94.58 0,-52.23 32.07,-94.57 71.63,-94.57z"/>
  <path fill="#FEFEFE" mask="url(#id14)" d="M340.98 92.85c35.57,0 64.4,38.07 64.4,85.02 0,46.96 -28.83,85.02 -64.4,85.02 -35.56,0 -64.39,-38.06 -64.39,-85.02 0,-46.95 28.83,-85.02 64.39,-85.02z"/>
  <path fill="#2B2A29" mask="url(#id16)" d="M306.48 131.95c16.47,0 29.82,17.63 29.82,39.37 0,21.74 -13.35,39.36 -29.82,39.36 -16.46,0 -29.81,-17.62 -29.81,-39.36 0,-21.74 13.35,-39.37 29.81,-39.37z"/>
  <ellipse fill="#2B2A29" cx="299.91" cy="154.64" rx="16.09" ry="21.24"/>
  <rect fill="#FEFEFE" x="176.67" y="127.96" width="17.19" height="19.46"/>
  <rect fill="#FEFEFE" x="175.91" y="151.47" width="7.59" height="8.59"/>
  <rect fill="#FEFEFE" x="284.3" y="155.96" width="7.59" height="8.59"/>
  <rect fill="#FEFEFE" x="285.56" y="130.81" width="17.19" height="19.46"/>
  <path fill="#7B481D" mask="url(#id18)" d="M287.06 80.19c18.26,4.75 45.99,23.25 63.35,39.87 -4.18,-28.15 -41.88,-62.79 -63.35,-39.87z"/>
  <path fill="#7B481D" mask="url(#id20)" d="M222.48 78.82c-18.25,4.75 -45.99,23.25 -63.34,39.87 4.18,-28.15 41.87,-62.79 63.34,-39.87z"/>
  <rect fill="#FEFDFA" stroke="#2B2A29" stroke-width="5" stroke-miterlimit="2.61313" transform="matrix(0.510986 0.000208646 -0.000173182 0.424134 127.904 339.245)" width="519.21" height="143.43" rx="47.15" ry="47.15"/>
  <g id="_1980616217408">
   <line fill="none" stroke="#2B2A29" stroke-width="2.08" stroke-miterlimit="2.61313" x1="127.89" y1="369.66" x2="393.2" y2= "369.77" />
  </g>
  <g id="_2015774808224">
   <line fill="none" stroke="#2B2A29" stroke-width="2.08" stroke-miterlimit="2.61313" x1="245.49" y1="6" x2="245.49" y2= "6" />
  </g>
  <line fill="none" stroke="#2B2A29" stroke-width="2.08" stroke-miterlimit="2.61313" x1="158.09" y1="339.26" x2="158.06" y2= "400.09" />
  <line fill="none" stroke="#2B2A29" stroke-width="2.08" stroke-miterlimit="2.61313" x1="192.97" y1="339.27" x2="192.95" y2= "400.1" />
  <line fill="none" stroke="#2B2A29" stroke-width="2.08" stroke-miterlimit="2.61313" x1="226.74" y1="339.29" x2="226.72" y2= "400.12" />
  <line fill="none" stroke="#2B2A29" stroke-width="2.08" stroke-miterlimit="2.61313" x1="260.1" y1="339.3" x2="260.07" y2= "400.13" />
  <line fill="none" stroke="#2B2A29" stroke-width="2.08" stroke-miterlimit="2.61313" x1="294.98" y1="339.32" x2="294.95" y2= "400.15" />
  <line fill="none" stroke="#2B2A29" stroke-width="2.08" stroke-miterlimit="2.61313" x1="329.3" y1="339.33" x2="329.28" y2= "400.17" />
  <line fill="none" stroke="#2B2A29" stroke-width="2.08" stroke-miterlimit="2.61313" x1="365.84" y1="339.34" x2="365.82" y2= "400.18" />
 </g>
</svg>
