<?xml version="1.0" encoding="UTF-8"?>
<!DOCTYPE svg PUBLIC "-//W3C//DTD SVG 1.1//EN" "http://www.w3.org/Graphics/SVG/1.1/DTD/svg11.dtd">
<!-- Creator: CorelDRAW 2017 -->
<svg xmlns="http://www.w3.org/2000/svg" xml:space="preserve" version="1.1" shape-rendering="geometricPrecision" text-rendering="geometricPrecision" image-rendering="optimizeQuality" fill-rule="evenodd" clip-rule="evenodd"
viewBox="0 0 500 500"
 xmlns:xlink="http://www.w3.org/1999/xlink">
 <defs>
   <mask id="id0">
     <linearGradient id="id1" gradientUnits="userSpaceOnUse" x1="-169.25" y1="227.57" x2="247.47" y2="269.14">
      <stop offset="0" stop-opacity="1" stop-color="white"/>
      <stop offset="1" stop-opacity="0" stop-color="white"/>
     </linearGradient>
    <rect fill="url(#id1)" x="25.1" y="29.35" width="447.13" height="447.13"/>
   </mask>
   <mask id="id2">
     <linearGradient id="id3" gradientUnits="userSpaceOnUse" x1="202.01" y1="259.36" x2="145.82" y2="188.54">
      <stop offset="0" stop-opacity="1" stop-color="white"/>
      <stop offset="1" stop-opacity="0" stop-color="white"/>
     </linearGradient>
    <rect fill="url(#id3)" x="16.32" y="82.89" width="210.49" height="210.48"/>
   </mask>
   <mask id="id4">
     <linearGradient id="id5" gradientUnits="userSpaceOnUse" x1="283.56" y1="260.45" x2="343.99" y2="184.27">
      <stop offset="0" stop-opacity="1" stop-color="white"/>
      <stop offset="1" stop-opacity="0" stop-color="white"/>
     </linearGradient>
    <rect fill="url(#id5)" x="256.97" y="70.74" width="226.22" height="226.2"/>
   </mask>
   <mask id="id6">
     <linearGradient id="id7" gradientUnits="userSpaceOnUse" x1="280.81" y1="278.29" x2="337" y2="207.47">
      <stop offset="0" stop-opacity="1" stop-color="white"/>
      <stop offset="1" stop-opacity="0" stop-color="white"/>
     </linearGradient>
    <rect fill="url(#id7)" x="256.01" y="101.83" width="210.49" height="210.47"/>
   </mask>
   <mask id="id8">
     <linearGradient id="id9" gradientUnits="userSpaceOnUse" x1="206.43" y1="275.23" x2="150.25" y2="204.4">
      <stop offset="0" stop-opacity="1" stop-color="white"/>
      <stop offset="1" stop-opacity="0" stop-color="white"/>
     </linearGradient>
    <rect fill="url(#id9)" x="20.75" y="98.76" width="210.49" height="210.48"/>
   </mask>
   <mask id="id10">
     <linearGradient id="id11" gradientUnits="userSpaceOnUse" x1="186.19" y1="323.36" x2="89.61" y2="90.49">
      <stop offset="0" stop-opacity="1" stop-color="white"/>
      <stop offset="1" stop-opacity="0" stop-color="white"/>
     </linearGradient>
    <rect fill="url(#id11)" x="55.55" y="85.42" width="154.45" height="203.15"/>
   </mask>
   <mask id="id12">
     <linearGradient id="id13" gradientUnits="userSpaceOnUse" x1="214.09" y1="117.32" x2="244.38" y2="387.73">
      <stop offset="0" stop-opacity="1" stop-color="white"/>
      <stop offset="1" stop-opacity="0" stop-color="white"/>
     </linearGradient>
    <rect fill="url(#id13)" x="74.29" y="95.56" width="139.09" height="182.87"/>
   </mask>
   <mask id="id14">
     <linearGradient id="id15" gradientUnits="userSpaceOnUse" x1="179.74" y1="93.02" x2="193.16" y2="254.52">
      <stop offset="0" stop-opacity="1" stop-color="white"/>
      <stop offset="1" stop-opacity="0" stop-color="white"/>
     </linearGradient>
    <rect fill="url(#id15)" x="113.77" y="118.61" width="65.66" height="85.94"/>
   </mask>
   <mask id="id16">
     <linearGradient id="id17" gradientUnits="userSpaceOnUse" x1="165.56" y1="122.36" x2="173.23" y2="214.74">
      <stop offset="0" stop-opacity="1" stop-color="white"/>
      <stop offset="1" stop-opacity="0" stop-color="white"/>
     </linearGradient>
    <rect fill="url(#id17)" x="127.32" y="136.5" width="38.57" height="50.16"/>
   </mask>
   <mask id="id18">
     <linearGradient id="id19" gradientUnits="userSpaceOnUse" x1="320.03" y1="326.97" x2="370.82" y2="124.99">
      <stop offset="0" stop-opacity="1" stop-color="white"/>
      <stop offset="1" stop-opacity="0" stop-color="white"/>
     </linearGradient>
    <rect fill="url(#id19)" x="267.33" y="78.07" width="165.94" height="218.33"/>
   </mask>
   <mask id="id20">
     <linearGradient id="id21" gradientUnits="userSpaceOnUse" x1="239.24" y1="128.45" x2="234.89" y2="403.14">
      <stop offset="0" stop-opacity="1" stop-color="white"/>
      <stop offset="1" stop-opacity="0" stop-color="white"/>
     </linearGradient>
    <rect fill="url(#id21)" x="263.69" y="88.98" width="149.42" height="196.51"/>
   </mask>
   <mask id="id22">
     <linearGradient id="id23" gradientUnits="userSpaceOnUse" x1="236.66" y1="144.8" x2="283.46" y2="312.7">
      <stop offset="0" stop-opacity="1" stop-color="white"/>
      <stop offset="1" stop-opacity="0" stop-color="white"/>
     </linearGradient>
    <rect fill="url(#id23)" x="276.09" y="159.72" width="71.35" height="91.58"/>
   </mask>
   <mask id="id24">
     <linearGradient id="id25" gradientUnits="userSpaceOnUse" x1="267.94" y1="164.99" x2="288.9" y2="240.19">
      <stop offset="0" stop-opacity="1" stop-color="white"/>
      <stop offset="1" stop-opacity="0" stop-color="white"/>
     </linearGradient>
    <rect fill="url(#id25)" x="284.95" y="171.02" width="33.26" height="42.32"/>
   </mask>
   <linearGradient id="id26" gradientUnits="userSpaceOnUse" x1="247.17" y1="369.43" x2="242.87" y2="320.24">
    <stop offset="0" stop-opacity="1" stop-color="#0E7340"/>
    <stop offset="1" stop-opacity="1" stop-color="#FEFEFE"/>
   </linearGradient>
   <mask id="id27">
     <linearGradient id="id28" gradientUnits="userSpaceOnUse" x1="248.15" y1="341.85" x2="244.94" y2="386.25">
      <stop offset="0" stop-opacity="1" stop-color="white"/>
      <stop offset="1" stop-opacity="0" stop-color="white"/>
     </linearGradient>
    <rect fill="url(#id28)" x="202.99" y="358.88" width="83.89" height="26.42"/>
   </mask>
 </defs>
 <g id="Layer_x0020_1">
  <metadata id="CorelCorpID_0Corel-Layer"/>
  <circle fill="#07AD36" cx="248.67" cy="252.92" r="243.84"/>
  <path fill="#FEFEFE" mask="url(#id0)" d="M248.67 30.53c122.81,0 222.38,99.57 222.38,222.38 0,122.82 -99.57,222.39 -222.38,222.39 -122.82,0 -222.39,-99.57 -222.39,-222.39 0,-122.81 99.57,-222.38 222.39,-222.38z"/>
  <path fill="#0C4A29" mask="url(#id2)" d="M199.84 292.19l-152.43 0c-14.18,0 -39.96,-26.25 -25.78,-25.79 215.87,7.06 163.66,18.88 178.21,-178.21 1.05,-14.15 25.79,11.6 25.79,25.78l0 152.43c0,14.19 -11.6,25.79 -25.79,25.79z"/>
  <path fill="#0C4A29" mask="url(#id4)" d="M285.89 295.76l163.95 0c15.25,0 42.98,-28.23 27.73,-27.74 -232.19,7.6 -176.03,20.31 -191.68,-191.68 -1.13,-15.21 -27.74,12.48 -27.74,27.74l0 163.94c0,15.26 12.48,27.74 27.74,27.74z"/>
  <path fill="#5E5971" mask="url(#id6)" d="M282.97 311.12l152.43 0c14.19,0 39.97,-26.25 25.79,-25.78 -215.88,7.06 -163.66,18.87 -178.22,-178.22 -1.04,-14.14 -25.78,11.6 -25.78,25.79l0 152.43c0,14.18 11.6,25.78 25.78,25.78z"/>
  <path fill="#5E5971" mask="url(#id8)" d="M204.27 308.06l-152.43 0c-14.18,0 -39.96,-26.25 -25.79,-25.79 215.88,7.06 163.67,18.88 178.22,-178.22 1.05,-14.14 25.79,11.61 25.79,25.79l0 152.43c0,14.18 -11.61,25.79 -25.79,25.79z"/>
  <path fill="#2B2A29" mask="url(#id10)" d="M132.77 86.6c42,0 76.05,44.95 76.05,100.4 0,55.45 -34.05,100.39 -76.05,100.39 -42,0 -76.04,-44.94 -76.04,-100.39 0,-55.45 34.04,-100.4 76.04,-100.4z"/>
  <path fill="#FEFEFE" mask="url(#id12)" d="M143.84 96.74c37.75,0 68.36,40.41 68.36,90.26 0,49.84 -30.61,90.25 -68.36,90.25 -37.76,0 -68.37,-40.41 -68.37,-90.25 0,-49.85 30.61,-90.26 68.37,-90.26z"/>
  <path fill="#2B2A29" mask="url(#id14)" d="M146.6 119.79c17.48,0 31.65,18.71 31.65,41.79 0,23.08 -14.17,41.79 -31.65,41.79 -17.48,0 -31.65,-18.71 -31.65,-41.79 0,-23.08 14.17,-41.79 31.65,-41.79z"/>
  <path fill="#2B2A29" mask="url(#id16)" d="M146.6 137.68c10,0 18.11,10.7 18.11,23.9 0,13.2 -8.11,23.9 -18.11,23.9 -10,0 -18.1,-10.7 -18.1,-23.9 0,-13.2 8.1,-23.9 18.1,-23.9z"/>
  <path fill="#2B2A29" mask="url(#id18)" d="M350.3 79.25c45.17,0 81.79,48.35 81.79,107.98 0,59.64 -36.62,107.99 -81.79,107.99 -45.17,0 -81.79,-48.35 -81.79,-107.99 0,-59.63 36.62,-107.98 81.79,-107.98z"/>
  <path fill="#FEFEFE" mask="url(#id20)" d="M338.4 90.16c40.61,0 73.53,43.46 73.53,97.07 0,53.62 -32.92,97.08 -73.53,97.08 -40.61,0 -73.53,-43.46 -73.53,-97.08 0,-53.61 32.92,-97.07 73.53,-97.07z"/>
  <path fill="#2B2A29" mask="url(#id22)" d="M303.32 161.37c18.47,-3.54 37.22,13.37 41.88,37.75 4.66,24.38 -6.53,47.01 -25,50.54 -18.46,3.53 -37.21,-13.37 -41.87,-37.75 -4.67,-24.39 6.52,-47.01 24.99,-50.54z"/>
  <path fill="#2B2A29" mask="url(#id24)" d="M297.8 172.41c8.27,-1.58 16.66,5.99 18.75,16.91 2.09,10.92 -2.92,21.05 -11.19,22.64 -8.27,1.58 -16.67,-5.99 -18.76,-16.91 -2.09,-10.92 2.92,-21.06 11.2,-22.64z"/>
  <rect fill="#FEFEFE" x="134.22" y="114.16" width="18.24" height="20.66"/>
  <rect fill="#FEFEFE" x="133.41" y="139.11" width="8.05" height="9.12"/>
  <rect fill="#FEFEFE" transform="matrix(0.200153 -0.0382747 0.0382747 0.200153 283.59 193.049)" width="42.5" height="48.12"/>
  <rect fill="#FEFEFE" transform="matrix(0.453464 -0.0867146 0.0867146 0.453464 279.612 164.576)" width="42.5" height="48.12"/>
  <path fill="url(#id26)" d="M204.08 366.04c23.11,-12.35 59.04,-10.99 81.89,-1.14 -7.25,-45.47 -56.78,-64.28 -81.89,1.14z"/>
  <path fill="#2B2A29" d="M210.45 362.73c19.52,-10.42 49.85,-9.27 69.14,-0.95 -6.12,-38.39 -47.93,-54.27 -69.14,0.95z"/>
  <path fill="#FEFEFE" mask="url(#id27)" d="M204.17 369.46c20.1,-12.75 60.61,-11.69 81.53,-1.84 -26.3,20.43 -47.51,22.84 -81.53,1.84z"/>
 </g>
</svg>
