<?xml version="1.0" encoding="UTF-8"?>
<!DOCTYPE svg PUBLIC "-//W3C//DTD SVG 1.1//EN" "http://www.w3.org/Graphics/SVG/1.1/DTD/svg11.dtd">
<!-- Creator: CorelDRAW 2017 -->
<svg xmlns="http://www.w3.org/2000/svg" xml:space="preserve" version="1.1" shape-rendering="geometricPrecision" text-rendering="geometricPrecision" image-rendering="optimizeQuality" fill-rule="evenodd" clip-rule="evenodd"
viewBox="0 0 500 500"
 xmlns:xlink="http://www.w3.org/1999/xlink">
 <defs>
   <mask id="id0">
     <linearGradient id="id1" gradientUnits="userSpaceOnUse" x1="486.83" y1="470.76" x2="346.94" y2="359.54">
      <stop offset="0" stop-opacity="1" stop-color="white"/>
      <stop offset="1" stop-opacity="0" stop-color="white"/>
     </linearGradient>
    <rect fill="url(#id1)" x="33.32" y="48.52" width="434.42" height="434.43"/>
   </mask>
   <mask id="id2">
     <linearGradient id="id3" gradientUnits="userSpaceOnUse" x1="198.65" y1="288.45" x2="131.79" y2="199.99">
      <stop offset="0" stop-opacity="1" stop-color="white"/>
      <stop offset="1" stop-opacity="0" stop-color="white"/>
     </linearGradient>
    <rect fill="url(#id3)" x="95.49" y="202.59" width="133.39" height="69.34"/>
   </mask>
   <mask id="id4">
     <linearGradient id="id5" gradientUnits="userSpaceOnUse" x1="259.37" y1="115.69" x2="232.47" y2="353.27">
      <stop offset="0" stop-opacity="1" stop-color="white"/>
      <stop offset="1" stop-opacity="0" stop-color="white"/>
     </linearGradient>
    <rect fill="url(#id5)" x="123.21" y="82" width="124.72" height="159.31"/>
   </mask>
   <mask id="id6">
     <linearGradient id="id7" gradientUnits="userSpaceOnUse" x1="244.38" y1="118.64" x2="224.3" y2="259.62">
      <stop offset="0" stop-opacity="1" stop-color="white"/>
      <stop offset="1" stop-opacity="0" stop-color="white"/>
     </linearGradient>
    <rect fill="url(#id7)" x="173.08" y="133.38" width="59.01" height="75.03"/>
   </mask>
   <mask id="id8">
     <linearGradient id="id9" gradientUnits="userSpaceOnUse" x1="316.68" y1="309.59" x2="370.79" y2="258.99">
      <stop offset="0" stop-opacity="1" stop-color="white"/>
      <stop offset="1" stop-opacity="0" stop-color="white"/>
     </linearGradient>
    <rect fill="url(#id9)" x="283.49" y="237.23" width="133.49" height="72.93"/>
   </mask>
   <mask id="id10">
     <linearGradient id="id11" gradientUnits="userSpaceOnUse" x1="285.86" y1="135.28" x2="232.47" y2="353.27">
      <stop offset="0" stop-opacity="1" stop-color="white"/>
      <stop offset="1" stop-opacity="0" stop-color="white"/>
     </linearGradient>
    <rect fill="url(#id11)" x="291.79" y="120.46" width="124.72" height="159.32"/>
   </mask>
   <mask id="id12">
     <linearGradient id="id13" gradientUnits="userSpaceOnUse" x1="294.7" y1="122.69" x2="274.62" y2="263.67">
      <stop offset="0" stop-opacity="1" stop-color="white"/>
      <stop offset="1" stop-opacity="0" stop-color="white"/>
     </linearGradient>
    <rect fill="url(#id13)" x="301.46" y="155.24" width="59.01" height="75.03"/>
   </mask>
   <linearGradient id="id14" gradientUnits="userSpaceOnUse" x1="108" y1="374.31" x2="334.88" y2="374.31">
    <stop offset="0" stop-opacity="1" stop-color="#D9DADA"/>
    <stop offset="1" stop-opacity="1" stop-color="#2B2A29"/>
   </linearGradient>
   <mask id="id15">
     <linearGradient id="id16" gradientUnits="userSpaceOnUse" x1="244.7" y1="356.88" x2="207.93" y2="477.26">
      <stop offset="0" stop-opacity="1" stop-color="white"/>
      <stop offset="1" stop-opacity="0" stop-color="white"/>
     </linearGradient>
    <rect fill="url(#id16)" x="104.94" y="396.21" width="228.26" height="80.3"/>
   </mask>
 </defs>
 <g id="Layer_x0020_1">
  <metadata id="CorelCorpID_0Corel-Layer"/>
  <path fill="#A00CB0" d="M250.06 25.84c66.75,0 126.95,28 169.51,72.9l49.69 -44.93 10.68 164.25 0 0c2.4,13.4 3.64,27.21 3.64,41.3 0,128.97 -104.55,233.52 -233.52,233.52 -128.97,0 -233.52,-104.55 -233.52,-233.52 0,-68.99 29.92,-130.99 77.49,-173.74l41.39 -83.62 25.64 41.41c27.43,-11.32 57.48,-17.57 89,-17.57z"/>
  <path fill="#FEFEFE" mask="url(#id0)" d="M250.53 49.71c119.31,0 216.03,96.72 216.03,216.03 0,119.31 -96.72,216.03 -216.03,216.03 -119.31,0 -216.03,-96.72 -216.03,-216.03 0,-119.31 96.72,-216.03 216.03,-216.03z"/>
  <ellipse fill="#2B2A29" transform="matrix(0.334093 0.0762311 -0.0972136 0.426051 176.091 159.49)" rx="195" ry="201.87"/>
  <path fill="#2B2A29" mask="url(#id2)" d="M169.03 207.26c35.98,8.21 62.09,28.3 58.3,44.87 -3.78,16.57 -36.01,23.34 -71.99,15.13 -35.98,-8.21 -62.08,-28.29 -58.3,-44.86 3.78,-16.57 36.01,-23.35 71.99,-15.14z"/>
  <path fill="#FEFEFE" mask="url(#id4)" d="M203.21 84.34c32.34,7.38 50.66,47.97 40.92,90.68 -9.74,42.7 -43.86,71.33 -76.21,63.95 -32.34,-7.38 -50.66,-47.98 -40.92,-90.68 9.75,-42.7 43.86,-71.34 76.21,-63.95z"/>
  <path fill="#2B2A29" mask="url(#id6)" d="M210.75 135.09c14.98,3.42 23.46,22.22 18.95,41.99 -4.51,19.77 -20.31,33.03 -35.28,29.61 -14.98,-3.41 -23.46,-22.21 -18.95,-41.98 4.51,-19.78 20.31,-33.03 35.28,-29.62z"/>
  <ellipse fill="#2B2A29" transform="matrix(0.0978201 0.02232 -0.0284635 0.124745 207.828 176.526)" rx="195" ry="201.87"/>
  <ellipse fill="#2B2A29" transform="matrix(0.334093 0.0762311 -0.0972136 0.426051 363.63 202.281)" rx="195" ry="201.87"/>
  <path fill="#2B2A29" mask="url(#id8)" d="M357.53 241.71c35.99,8.21 61.88,29.19 57.85,46.85 -4.03,17.67 -36.46,25.34 -72.44,17.13 -35.98,-8.21 -61.88,-29.19 -57.85,-46.86 4.03,-17.66 36.46,-25.33 72.44,-17.12z"/>
  <path fill="#FEFEFE" mask="url(#id10)" d="M371.79 122.8c32.35,7.38 50.67,47.98 40.93,90.68 -9.75,42.7 -43.86,71.34 -76.21,63.96 -32.34,-7.38 -50.66,-47.98 -40.92,-90.68 9.74,-42.71 43.86,-71.34 76.2,-63.96z"/>
  <path fill="#2B2A29" mask="url(#id12)" d="M339.13 156.96c14.98,3.42 23.46,22.21 18.95,41.98 -4.51,19.78 -20.31,33.03 -35.28,29.62 -14.98,-3.42 -23.46,-22.22 -18.95,-41.99 4.51,-19.77 20.31,-33.03 35.28,-29.61z"/>
  <ellipse fill="#2B2A29" transform="matrix(0.105788 0.024138 -0.030782 0.134906 324.066 196.23)" rx="195" ry="201.87"/>
  <rect fill="#FEFEFE" transform="matrix(0.367722 0.0839046 -0.0839046 0.367722 199.761 134.363)" width="42.5" height="48.12"/>
  <rect fill="#FEFEFE" transform="matrix(0.162308 0.0370344 -0.0370344 0.162308 194.194 155.582)" width="42.5" height="48.12"/>
  <rect fill="#FEFEFE" transform="matrix(0.162308 0.0370344 -0.0370344 0.162308 330.991 185.958)" width="42.5" height="48.12"/>
  <rect fill="#FEFEFE" transform="matrix(0.367722 0.0839046 -0.0839046 0.367722 337.356 163.35)" width="42.5" height="48.12"/>
  <path fill="url(#id14)" d="M108 395.84c71.49,-19.5 169.67,6.85 226.46,48.39 8.6,-129.9 -116.07,-212.9 -226.46,-48.39z"/>
  <path fill="#E31E24" d="M127.65 390.75c60.36,-16.46 143.25,5.78 191.2,40.85 7.26,-109.67 -98,-179.75 -191.2,-40.85z"/>
  <path fill="#2B2A29" d="M265.4 130.22c-18.15,-9.43 -43,-35.67 -57.34,-57.42 -2.36,30.76 29.12,76.46 57.34,57.42z"/>
  <path fill="#2B2A29" d="M291 139.96c20.45,-0.62 54.22,-13.48 76.57,-26.86 -11.21,28.74 -59.4,56.26 -76.57,26.86z"/>
  <path fill="#EBECEC" mask="url(#id15)" d="M106.12 405.33c63.42,-22.49 174.41,5.89 225.9,46.23 -85.36,39.77 -145.35,33.05 -225.9,-46.23z"/>
 </g>
</svg>
