<?xml version="1.0" encoding="UTF-8"?>
<!DOCTYPE svg PUBLIC "-//W3C//DTD SVG 1.1//EN" "http://www.w3.org/Graphics/SVG/1.1/DTD/svg11.dtd">
<!-- Creator: CorelDRAW 2017 -->
<svg xmlns="http://www.w3.org/2000/svg" xml:space="preserve" version="1.1" shape-rendering="geometricPrecision" text-rendering="geometricPrecision" image-rendering="optimizeQuality" fill-rule="evenodd" clip-rule="evenodd"
viewBox="0 0 500 500"
 xmlns:xlink="http://www.w3.org/1999/xlink">
 <defs>
   <mask id="id0">
     <linearGradient id="id1" gradientUnits="userSpaceOnUse" x1="-161.65" y1="226.57" x2="251.47" y2="267.77">
      <stop offset="0" stop-opacity="1" stop-color="white"/>
      <stop offset="1" stop-opacity="0" stop-color="white"/>
     </linearGradient>
    <rect fill="url(#id1)" x="31.01" y="30.05" width="443.28" height="443.28"/>
   </mask>
   <mask id="id2">
     <linearGradient id="id3" gradientUnits="userSpaceOnUse" x1="298.71" y1="277.02" x2="347.37" y2="215.68">
      <stop offset="0" stop-opacity="1" stop-color="white"/>
      <stop offset="1" stop-opacity="0" stop-color="white"/>
     </linearGradient>
    <rect fill="url(#id3)" x="277.07" y="124.03" width="182.61" height="182.6"/>
   </mask>
   <mask id="id4">
     <linearGradient id="id5" gradientUnits="userSpaceOnUse" x1="211.14" y1="278.18" x2="162.48" y2="216.84">
      <stop offset="0" stop-opacity="1" stop-color="white"/>
      <stop offset="1" stop-opacity="0" stop-color="white"/>
     </linearGradient>
    <rect fill="url(#id5)" x="50.17" y="125.19" width="182.61" height="182.6"/>
   </mask>
   <mask id="id6">
     <linearGradient id="id7" gradientUnits="userSpaceOnUse" x1="205.15" y1="329.11" x2="121.51" y2="127.43">
      <stop offset="0" stop-opacity="1" stop-color="white"/>
      <stop offset="1" stop-opacity="0" stop-color="white"/>
     </linearGradient>
    <rect fill="url(#id7)" x="91.85" y="122.88" width="134.08" height="176.26"/>
   </mask>
   <mask id="id8">
     <linearGradient id="id9" gradientUnits="userSpaceOnUse" x1="229.31" y1="150.67" x2="255.55" y2="384.86">
      <stop offset="0" stop-opacity="1" stop-color="white"/>
      <stop offset="1" stop-opacity="0" stop-color="white"/>
     </linearGradient>
    <rect fill="url(#id9)" x="108.08" y="131.67" width="120.77" height="158.69"/>
   </mask>
   <mask id="id10">
     <linearGradient id="id11" gradientUnits="userSpaceOnUse" x1="176.28" y1="144.2" x2="187.9" y2="284.07">
      <stop offset="0" stop-opacity="1" stop-color="white"/>
      <stop offset="1" stop-opacity="0" stop-color="white"/>
     </linearGradient>
    <rect fill="url(#id11)" x="118.99" y="166.21" width="57.19" height="74.74"/>
   </mask>
   <mask id="id12">
     <linearGradient id="id13" gradientUnits="userSpaceOnUse" x1="324.11" y1="323.53" x2="365" y2="160.89">
      <stop offset="0" stop-opacity="1" stop-color="white"/>
      <stop offset="1" stop-opacity="0" stop-color="white"/>
     </linearGradient>
    <rect fill="url(#id13)" x="281.44" y="122.88" width="134.08" height="176.26"/>
   </mask>
   <mask id="id14">
     <linearGradient id="id15" gradientUnits="userSpaceOnUse" x1="259.05" y1="163.68" x2="255.55" y2="384.86">
      <stop offset="0" stop-opacity="1" stop-color="white"/>
      <stop offset="1" stop-opacity="0" stop-color="white"/>
     </linearGradient>
    <rect fill="url(#id15)" x="278.51" y="131.67" width="120.77" height="158.69"/>
   </mask>
   <mask id="id16">
     <linearGradient id="id17" gradientUnits="userSpaceOnUse" x1="267.05" y1="139.23" x2="278.67" y2="279.1">
      <stop offset="0" stop-opacity="1" stop-color="white"/>
      <stop offset="1" stop-opacity="0" stop-color="white"/>
     </linearGradient>
    <rect fill="url(#id17)" x="288.67" y="161.24" width="57.19" height="74.74"/>
   </mask>
   <mask id="id18">
     <linearGradient id="id19" gradientUnits="userSpaceOnUse" x1="194.3" y1="94.62" x2="208.12" y2="80.59">
      <stop offset="0" stop-opacity="1" stop-color="white"/>
      <stop offset="1" stop-opacity="0" stop-color="white"/>
     </linearGradient>
    <rect fill="url(#id19)" x="123.51" y="65.02" width="92.75" height="61.94"/>
   </mask>
   <mask id="id20">
     <linearGradient id="id21" gradientUnits="userSpaceOnUse" x1="304.9" y1="97.96" x2="291.08" y2="83.93">
      <stop offset="0" stop-opacity="1" stop-color="white"/>
      <stop offset="1" stop-opacity="0" stop-color="white"/>
     </linearGradient>
    <rect fill="url(#id21)" x="282.95" y="68.36" width="92.74" height="61.94"/>
   </mask>
   <mask id="id22">
     <linearGradient id="id23" gradientUnits="userSpaceOnUse" x1="252.1" y1="367.52" x2="236.79" y2="419.77">
      <stop offset="0" stop-opacity="1" stop-color="white"/>
      <stop offset="1" stop-opacity="0" stop-color="white"/>
     </linearGradient>
    <rect fill="url(#id23)" x="213.61" y="359.34" width="76.99" height="64.33"/>
   </mask>
   <linearGradient id="id24" gradientUnits="userSpaceOnUse" x1="223.21" y1="391.51" x2="280.99" y2="391.51">
    <stop offset="0" stop-opacity="1" stop-color="#7B481D"/>
    <stop offset="1" stop-opacity="1" stop-color="#2B2A29"/>
   </linearGradient>
 </defs>
 <g id="Layer_x0020_1">
  <metadata id="CorelCorpID_0Corel-Layer"/>
  <circle fill="#EF7F1A" cx="251.48" cy="252.48" r="241.73"/>
  <path fill="#FEFEFE" mask="url(#id0)" d="M252.65 31.23c121.76,0 220.46,98.71 220.46,220.46 0,121.76 -98.7,220.46 -220.46,220.46 -121.76,0 -220.46,-98.7 -220.46,-220.46 0,-121.75 98.7,-220.46 220.46,-220.46z"/>
  <path fill="#5E5971" mask="url(#id2)" d="M300.58 305.45l132.02 0c12.28,0 34.61,-22.73 22.33,-22.33 -186.96,6.11 -141.74,16.35 -154.35,-154.35 -0.9,-12.25 -22.33,10.05 -22.33,22.34l0 132.01c0,12.28 10.05,22.33 22.33,22.33z"/>
  <path fill="#5E5971" mask="url(#id4)" d="M209.27 306.61l-132.02 0c-12.28,0 -34.61,-22.73 -22.33,-22.33 186.96,6.11 141.74,16.35 154.35,-154.35 0.9,-12.25 22.33,10.05 22.33,22.34l0 132.01c0,12.28 -10.05,22.33 -22.33,22.33z"/>
  <path fill="#5E5971" mask="url(#id6)" d="M158.89 124.06c36.37,0 65.86,38.93 65.86,86.95 0,48.03 -29.49,86.95 -65.86,86.95 -36.38,0 -65.86,-38.92 -65.86,-86.95 0,-48.02 29.48,-86.95 65.86,-86.95z"/>
  <path fill="#FEFEFE" mask="url(#id8)" d="M168.47 132.85c32.7,0 59.2,35 59.2,78.16 0,43.17 -26.5,78.17 -59.2,78.17 -32.7,0 -59.21,-35 -59.21,-78.17 0,-43.16 26.51,-78.16 59.21,-78.16z"/>
  <path fill="#2B2A29" mask="url(#id10)" d="M147.58 167.39c15.14,0 27.42,16.2 27.42,36.19 0,19.98 -12.28,36.19 -27.42,36.19 -15.14,0 -27.41,-16.21 -27.41,-36.19 0,-19.99 12.27,-36.19 27.41,-36.19z"/>
  <path fill="#5E5971" mask="url(#id12)" d="M348.48 124.06c36.37,0 65.86,38.93 65.86,86.95 0,48.03 -29.49,86.95 -65.86,86.95 -36.38,0 -65.86,-38.92 -65.86,-86.95 0,-48.02 29.48,-86.95 65.86,-86.95z"/>
  <path fill="#FEFEFE" mask="url(#id14)" d="M338.9 132.85c32.7,0 59.2,35 59.2,78.16 0,43.17 -26.5,78.17 -59.2,78.17 -32.7,0 -59.21,-35 -59.21,-78.17 0,-43.16 26.51,-78.16 59.21,-78.16z"/>
  <path fill="#2B2A29" mask="url(#id16)" d="M317.26 162.42c15.14,0 27.42,16.2 27.42,36.19 0,19.99 -12.28,36.19 -27.42,36.19 -15.14,0 -27.41,-16.2 -27.41,-36.19 0,-19.99 12.27,-36.19 27.41,-36.19z"/>
  <ellipse fill="#2B2A29" cx="308.88" cy="191.59" rx="14.79" ry="19.53"/>
  <ellipse fill="#2B2A29" cx="140.4" cy="193.71" rx="14.79" ry="19.53"/>
  <rect fill="#FEFEFE" x="136.86" y="162.51" width="15.8" height="17.89"/>
  <rect fill="#FEFEFE" x="136.16" y="184.12" width="6.97" height="7.9"/>
  <rect fill="#FEFEFE" x="296.87" y="184.49" width="6.97" height="7.9"/>
  <rect fill="#FEFEFE" x="301.27" y="159.11" width="15.8" height="17.89"/>
  <path fill="#2B2A29" mask="url(#id18)" d="M212.48 125.78c-16.75,-20.4 -56.5,-44.77 -87.79,-57.07 38.2,-11.19 104.3,16.36 87.79,57.07z"/>
  <path fill="#2B2A29" mask="url(#id20)" d="M286.73 129.12c16.74,-20.4 56.49,-44.77 87.78,-57.07 -38.2,-11.19 -104.3,16.36 -87.78,57.07z"/>
  <path fill="#5E5971" mask="url(#id22)" d="M252.1 360.52c20.61,0 37.32,13.88 37.32,30.99 0,17.11 -16.71,30.98 -37.32,30.98 -20.61,0 -37.31,-13.87 -37.31,-30.98 0,-17.11 16.7,-30.99 37.31,-30.99z"/>
  <ellipse fill="url(#id24)" cx="252.1" cy="391.51" rx="28.89" ry="23.99"/>
 </g>
</svg>
