<?xml version="1.0" encoding="UTF-8"?>
<!DOCTYPE svg PUBLIC "-//W3C//DTD SVG 1.1//EN" "http://www.w3.org/Graphics/SVG/1.1/DTD/svg11.dtd">
<!-- Creator: CorelDRAW 2017 -->
<svg xmlns="http://www.w3.org/2000/svg" xml:space="preserve"  version="1.1" shape-rendering="geometricPrecision" text-rendering="geometricPrecision" image-rendering="optimizeQuality" fill-rule="evenodd" clip-rule="evenodd"
viewBox="0 0 500 500"
 xmlns:xlink="http://www.w3.org/1999/xlink">
 <defs>
   <mask id="id0">
     <linearGradient id="id1" gradientUnits="userSpaceOnUse" x1="-159.45" y1="231.39" x2="251.91" y2="272.42">
      <stop offset="0" stop-opacity="1" stop-color="white"/>
      <stop offset="1" stop-opacity="0" stop-color="white"/>
     </linearGradient>
    <rect fill="url(#id1)" x="32.39" y="35.7" width="441.41" height="441.41"/>
   </mask>
   <mask id="id2">
     <linearGradient id="id3" gradientUnits="userSpaceOnUse" x1="214.23" y1="251.44" x2="175.68" y2="202.85">
      <stop offset="0" stop-opacity="1" stop-color="white"/>
      <stop offset="1" stop-opacity="0" stop-color="white"/>
     </linearGradient>
    <rect fill="url(#id3)" x="86.46" y="130" width="145.16" height="145.15"/>
   </mask>
   <mask id="id4">
     <linearGradient id="id5" gradientUnits="userSpaceOnUse" x1="286.73" y1="252.98" x2="325.28" y2="204.39">
      <stop offset="0" stop-opacity="1" stop-color="white"/>
      <stop offset="1" stop-opacity="0" stop-color="white"/>
     </linearGradient>
    <rect fill="url(#id5)" x="269.34" y="131.53" width="145.17" height="145.16"/>
   </mask>
   <mask id="id6">
     <linearGradient id="id7" gradientUnits="userSpaceOnUse" x1="157.6" y1="195.2" x2="150.16" y2="303.06">
      <stop offset="0" stop-opacity="1" stop-color="white"/>
      <stop offset="1" stop-opacity="0" stop-color="white"/>
     </linearGradient>
    <rect fill="url(#id7)" x="133.51" y="136.86" width="96.17" height="126.21"/>
   </mask>
   <mask id="id8">
     <linearGradient id="id9" gradientUnits="userSpaceOnUse" x1="211.38" y1="161.7" x2="220.58" y2="272.51">
      <stop offset="0" stop-opacity="1" stop-color="white"/>
      <stop offset="1" stop-opacity="0" stop-color="white"/>
     </linearGradient>
    <rect fill="url(#id9)" x="165.74" y="178.89" width="45.8" height="59.7"/>
   </mask>
   <mask id="id10">
     <linearGradient id="id11" gradientUnits="userSpaceOnUse" x1="282.65" y1="195.09" x2="284.97" y2="312.38">
      <stop offset="0" stop-opacity="1" stop-color="white"/>
      <stop offset="1" stop-opacity="0" stop-color="white"/>
     </linearGradient>
    <rect fill="url(#id11)" x="278.96" y="137.96" width="96.17" height="126.21"/>
   </mask>
   <mask id="id12">
     <linearGradient id="id13" gradientUnits="userSpaceOnUse" x1="277.19" y1="160.88" x2="286.39" y2="271.69">
      <stop offset="0" stop-opacity="1" stop-color="white"/>
      <stop offset="1" stop-opacity="0" stop-color="white"/>
     </linearGradient>
    <rect fill="url(#id13)" x="294.07" y="178.07" width="45.79" height="59.71"/>
   </mask>
   <mask id="id14">
     <linearGradient id="id15" gradientUnits="userSpaceOnUse" x1="156.15" y1="89.4" x2="150.17" y2="73.52">
      <stop offset="0" stop-opacity="1" stop-color="white"/>
      <stop offset="1" stop-opacity="0" stop-color="white"/>
     </linearGradient>
    <rect fill="url(#id15)" x="109.56" y="76.26" width="78.71" height="59.41"/>
   </mask>
   <mask id="id16">
     <linearGradient id="id17" gradientUnits="userSpaceOnUse" x1="338.32" y1="83.95" x2="344.3" y2="68.07">
      <stop offset="0" stop-opacity="1" stop-color="white"/>
      <stop offset="1" stop-opacity="0" stop-color="white"/>
     </linearGradient>
    <rect fill="url(#id17)" x="306.2" y="70.82" width="78.71" height="59.41"/>
   </mask>
   <mask id="id18">
     <linearGradient id="id19" gradientUnits="userSpaceOnUse" x1="260.84" y1="389.3" x2="264.32" y2="289.62">
      <stop offset="0" stop-opacity="1" stop-color="white"/>
      <stop offset="1" stop-opacity="0" stop-color="white"/>
     </linearGradient>
    <rect fill="url(#id19)" x="88.31" y="288.06" width="314.46" height="56.3"/>
   </mask>
 </defs>
 <g id="Layer_x0020_1">
  <metadata id="CorelCorpID_0Corel-Layer"/>
  <circle fill="#FFD500" cx="253.09" cy="256.41" r="235.41"/>
  <path fill="#FEFEFE" mask="url(#id0)" d="M253.09 36.88c121.24,0 219.53,98.29 219.53,219.53 0,121.24 -98.29,219.52 -219.53,219.52 -121.24,0 -219.52,-98.28 -219.52,-219.52 0,-121.24 98.28,-219.53 219.52,-219.53z"/>
  <path fill="#5E5971" mask="url(#id2)" d="M212.75 273.97l-104.59 0c-9.73,0 -27.42,-18.01 -17.69,-17.69 148.11,4.84 112.29,12.95 122.28,-122.28 0.71,-9.71 17.69,7.96 17.69,17.69l0 104.59c0,9.73 -7.96,17.69 -17.69,17.69z"/>
  <path fill="#5E5971" mask="url(#id4)" d="M288.22 275.51l104.58 0c9.73,0 27.42,-18.01 17.7,-17.7 -148.12,4.85 -112.3,12.96 -122.28,-122.27 -0.72,-9.71 -17.7,7.96 -17.7,17.69l0 104.58c0,9.74 7.97,17.7 17.7,17.7z"/>
  <ellipse fill="#2B2A29" cx="174.01" cy="199.96" rx="52.18" ry="68.89"/>
  <path fill="#FEFEFE" mask="url(#id6)" d="M181.6 138.04c25.9,0 46.9,27.72 46.9,61.92 0,34.2 -21,61.93 -46.9,61.93 -25.91,0 -46.91,-27.73 -46.91,-61.93 0,-34.2 21,-61.92 46.91,-61.92z"/>
  <path fill="#2B2A29" mask="url(#id8)" d="M188.64 180.07c11.99,0 21.72,12.83 21.72,28.67 0,15.83 -9.73,28.67 -21.72,28.67 -11.99,0 -21.72,-12.84 -21.72,-28.67 0,-15.84 9.73,-28.67 21.72,-28.67z"/>
  <ellipse fill="#2B2A29" cx="188.06" cy="209.12" rx="9.95" ry="13.13"/>
  <ellipse fill="#2B2A29" cx="334.63" cy="201.07" rx="52.18" ry="68.89"/>
  <path fill="#FEFEFE" mask="url(#id10)" d="M327.04 139.14c25.91,0 46.91,27.73 46.91,61.93 0,34.2 -21,61.92 -46.91,61.92 -25.9,0 -46.9,-27.72 -46.9,-61.92 0,-34.2 21,-61.93 46.9,-61.93z"/>
  <path fill="#2B2A29" mask="url(#id12)" d="M316.97 179.25c11.99,0 21.71,12.84 21.71,28.67 0,15.84 -9.72,28.68 -21.71,28.68 -12,0 -21.72,-12.84 -21.72,-28.68 0,-15.83 9.72,-28.67 21.72,-28.67z"/>
  <ellipse fill="#2B2A29" cx="316.97" cy="207.92" rx="10.44" ry="13.78"/>
  <rect fill="#FEFEFE" x="180.15" y="176.2" width="12.52" height="14.17"/>
  <rect fill="#FEFEFE" x="179.59" y="193.32" width="5.52" height="6.26"/>
  <rect fill="#FEFEFE" x="300.81" y="196.74" width="5.52" height="6.26"/>
  <rect fill="#FEFEFE" x="301.73" y="178.42" width="12.52" height="14.17"/>
  <path fill="#2B2A29" d="M89.11 329.78c88.49,27.7 226.02,24.65 313.49,2.55 -27.77,101.95 -217.33,144.14 -313.49,-2.55z"/>
  <path fill="#E31E24" d="M113.51 349.95c74.72,17.69 190.83,15.75 264.69,1.62 -23.45,65.15 -183.5,92.1 -264.69,-1.62z"/>
  <path fill="#2B2A29" d="M70.05 343.35c11.36,-5.84 24.55,-19.45 30.99,-30.08 7.14,12.69 -7.37,35.16 -30.99,30.08z"/>
  <path fill="#2B2A29" mask="url(#id14)" d="M187.09 86.43c-22.01,5.74 -55.43,28.03 -76.35,48.06 5.04,-33.93 50.47,-75.68 76.35,-48.06z"/>
  <path fill="#2B2A29" mask="url(#id16)" d="M307.38 80.99c22.01,5.73 55.43,28.02 76.35,48.06 -5.04,-33.93 -50.47,-75.68 -76.35,-48.06z"/>
  <path fill="#2B2A29" d="M424.1 344.6c-11.36,-5.84 -24.55,-19.45 -30.99,-30.07 -7.14,12.68 7.37,35.16 30.99,30.07z"/>
  <path fill="#EBECEC" mask="url(#id18)" d="M89.49 322.11c76.93,28.59 231.99,26.22 312.1,4.12 -100.69,-45.81 -181.9,-51.21 -312.1,-4.12z"/>
  <path fill="#FEFEFE" d="M113.51 349.95c77.01,17.33 189.84,15.9 264.69,1.62 -29.4,26.8 -188.15,42.14 -264.69,-1.62z"/>
 </g>
</svg>
