<?xml version="1.0" encoding="UTF-8"?>
<!DOCTYPE svg PUBLIC "-//W3C//DTD SVG 1.1//EN" "http://www.w3.org/Graphics/SVG/1.1/DTD/svg11.dtd">
<!-- Creator: CorelDRAW 2017 -->
<svg xmlns="http://www.w3.org/2000/svg" xml:space="preserve" version="1.1" shape-rendering="geometricPrecision" text-rendering="geometricPrecision" image-rendering="optimizeQuality" fill-rule="evenodd" clip-rule="evenodd"
viewBox="0 0 500 500"
 xmlns:xlink="http://www.w3.org/1999/xlink">
 <defs>
   <mask id="id0">
     <linearGradient id="id1" gradientUnits="userSpaceOnUse" x1="301.98" y1="291.52" x2="356.89" y2="236.52">
      <stop offset="0" stop-opacity="1" stop-color="white"/>
      <stop offset="1" stop-opacity="0" stop-color="white"/>
     </linearGradient>
    <rect fill="url(#id1)" x="279.79" y="140.5" width="180.04" height="195.41"/>
   </mask>
   <mask id="id2">
     <linearGradient id="id3" gradientUnits="userSpaceOnUse" x1="245.59" y1="281.54" x2="199.24" y2="207.08">
      <stop offset="0" stop-opacity="1" stop-color="white"/>
      <stop offset="1" stop-opacity="0" stop-color="white"/>
     </linearGradient>
    <rect fill="url(#id3)" x="65.48" y="111.49" width="220.17" height="202.8"/>
   </mask>
   <mask id="id4">
     <linearGradient id="id5" gradientUnits="userSpaceOnUse" x1="120.27" y1="318.26" x2="257.72" y2="115.95">
      <stop offset="0" stop-opacity="1" stop-color="white"/>
      <stop offset="1" stop-opacity="0" stop-color="white"/>
     </linearGradient>
    <rect fill="url(#id5)" x="121.69" y="101.43" width="152.18" height="195.5"/>
   </mask>
   <mask id="id6">
     <linearGradient id="id7" gradientUnits="userSpaceOnUse" x1="134.18" y1="117.02" x2="52.35" y2="368.02">
      <stop offset="0" stop-opacity="1" stop-color="white"/>
      <stop offset="1" stop-opacity="0" stop-color="white"/>
     </linearGradient>
    <rect fill="url(#id7)" x="118.75" y="109.02" width="137.04" height="175.98"/>
   </mask>
   <mask id="id8">
     <linearGradient id="id9" gradientUnits="userSpaceOnUse" x1="221.74" y1="103.59" x2="132.75" y2="233.2">
      <stop offset="0" stop-opacity="1" stop-color="white"/>
      <stop offset="1" stop-opacity="0" stop-color="white"/>
     </linearGradient>
    <rect fill="url(#id9)" x="182.11" y="137.74" width="69.15" height="79.1"/>
   </mask>
   <mask id="id10">
     <linearGradient id="id11" gradientUnits="userSpaceOnUse" x1="226.11" y1="152.3" x2="186.71" y2="194.27">
      <stop offset="0" stop-opacity="1" stop-color="white"/>
      <stop offset="1" stop-opacity="0" stop-color="white"/>
     </linearGradient>
    <rect fill="url(#id11)" x="206.25" y="163.94" width="27.87" height="29.5"/>
   </mask>
   <mask id="id12">
     <linearGradient id="id13" gradientUnits="userSpaceOnUse" x1="354.1" y1="267.58" x2="419.81" y2="115.34">
      <stop offset="0" stop-opacity="1" stop-color="white"/>
      <stop offset="1" stop-opacity="0" stop-color="white"/>
     </linearGradient>
    <rect fill="url(#id13)" x="298.09" y="120.02" width="154.13" height="193.98"/>
   </mask>
   <mask id="id14">
     <linearGradient id="id15" gradientUnits="userSpaceOnUse" x1="293.65" y1="138.24" x2="221.04" y2="375.17">
      <stop offset="0" stop-opacity="1" stop-color="white"/>
      <stop offset="1" stop-opacity="0" stop-color="white"/>
     </linearGradient>
    <rect fill="url(#id15)" x="295.45" y="126.72" width="138.8" height="174.62"/>
   </mask>
   <mask id="id16">
     <linearGradient id="id17" gradientUnits="userSpaceOnUse" x1="369.91" y1="95.87" x2="302.49" y2="237.91">
      <stop offset="0" stop-opacity="1" stop-color="white"/>
      <stop offset="1" stop-opacity="0" stop-color="white"/>
     </linearGradient>
    <rect fill="url(#id17)" x="350.51" y="142.14" width="69.29" height="78.99"/>
   </mask>
   <mask id="id18">
     <linearGradient id="id19" gradientUnits="userSpaceOnUse" x1="382.85" y1="148.41" x2="354.98" y2="209.94">
      <stop offset="0" stop-opacity="1" stop-color="white"/>
      <stop offset="1" stop-opacity="0" stop-color="white"/>
     </linearGradient>
    <rect fill="url(#id19)" x="374.57" y="167.44" width="30.97" height="35.4"/>
   </mask>
   <mask id="id20">
     <linearGradient id="id21" gradientUnits="userSpaceOnUse" x1="376.15" y1="92.27" x2="375.29" y2="77.8">
      <stop offset="0" stop-opacity="1" stop-color="white"/>
      <stop offset="1" stop-opacity="0" stop-color="white"/>
     </linearGradient>
    <rect fill="url(#id21)" x="326.51" y="82.86" width="76.83" height="35.92"/>
   </mask>
   <mask id="id22">
     <linearGradient id="id23" gradientUnits="userSpaceOnUse" x1="186.2" y1="61.85" x2="176.76" y2="29.33">
      <stop offset="0" stop-opacity="1" stop-color="white"/>
      <stop offset="1" stop-opacity="0" stop-color="white"/>
     </linearGradient>
    <rect fill="url(#id23)" x="114.54" y="45.91" width="118.52" height="52.13"/>
   </mask>
    <mask id="id24">
      <linearGradient id="id25" gradientUnits="userSpaceOnUse" x1="319.61" y1="404.7" x2="162.29" y2="389.55">
       <stop offset="0" stop-opacity="1" stop-color="white"/>
       <stop offset="1" stop-opacity="0" stop-color="white"/>
      </linearGradient>
     <rect fill="url(#id25)" x="117.91" y="364.42" width="183.99" height="55.03"/>
    </mask>
     <mask id="id26">
       <linearGradient id="id27" gradientUnits="userSpaceOnUse" x1="214.71" y1="399.96" x2="199.76" y2="362.67">
        <stop offset="0" stop-opacity="1" stop-color="white"/>
        <stop offset="1" stop-opacity="0" stop-color="white"/>
       </linearGradient>
      <rect fill="url(#id27)" x="117.15" y="359.11" width="182.83" height="35.25"/>
     </mask>
 </defs>
 <g id="Layer_x0020_1">
  <metadata id="CorelCorpID_0Corel-Layer"/>
  <circle fill="#FFD500" cx="251.11" cy="248.61" r="243.86"/>
  <path fill="#5E5971" mask="url(#id0)" d="M300.62 319.78l130.19 14.89c12.12,1.38 36.7,-18.52 24.55,-19.51 -185.08,-15.06 -141.64,0.14 -134.82,-169.63 0.49,-12.18 -23.16,7.39 -24.54,19.51l-14.89 130.19c-1.38,12.12 7.39,23.16 19.51,24.55z"/>
  <path fill="#5E5971" mask="url(#id2)" d="M239.89 312.95l-146.93 -16.8c-13.67,-1.56 -35.63,-29.71 -22.01,-27.7 207.3,30.6 155.67,36.23 191.42,-152.14 2.57,-13.52 23.58,14.03 22.02,27.7l-16.8 146.92c-1.56,13.67 -14.03,23.58 -27.7,22.02z"/>
  <path fill="#2B2A29" mask="url(#id4)" d="M217.47 103.79c-39.9,-8.24 -81.07,27.79 -91.95,80.47 -10.88,52.69 12.66,102.08 52.56,110.31 39.91,8.24 81.08,-27.79 91.95,-80.47 10.88,-52.69 -12.65,-102.07 -52.56,-110.31z"/>
  <path fill="#FEFEFE" mask="url(#id6)" d="M204.97 111.26c-35.87,-7.41 -72.88,24.98 -82.66,72.34 -9.78,47.36 11.38,91.76 47.25,99.16 35.88,7.41 72.88,-24.98 82.66,-72.34 9.78,-47.36 -11.38,-91.76 -47.25,-99.16z"/>
  <path fill="#2B2A29" mask="url(#id8)" d="M236.79 142.08c-14.73,-8.41 -35.67,0.54 -46.77,19.98 -11.11,19.45 -8.17,42.03 6.56,50.44 14.73,8.41 35.67,-0.54 46.77,-19.98 11.11,-19.45 8.17,-42.03 -6.56,-50.44z"/>
  <path fill="#2B2A29" mask="url(#id10)" d="M229.41 167.07c-4.86,-3.86 -12.93,-1.79 -18.03,4.63 -5.1,6.42 -5.29,14.76 -0.42,18.62 4.86,3.86 12.94,1.78 18.03,-4.64 5.1,-6.42 5.29,-14.75 0.42,-18.61z"/>
  <path fill="#2B2A29" mask="url(#id12)" d="M402.22 123.44c39.14,11.32 58.76,62.39 43.81,114.07 -14.95,51.68 -58.79,84.39 -97.94,73.07 -39.14,-11.32 -58.76,-62.39 -43.81,-114.07 14.95,-51.68 58.8,-84.39 97.94,-73.07z"/>
  <path fill="#FEFEFE" mask="url(#id14)" d="M389.18 129.92c35.18,10.17 52.82,56.08 39.38,102.54 -13.44,46.45 -52.85,75.86 -88.04,65.68 -35.19,-10.17 -52.82,-56.08 -39.39,-102.54 13.44,-46.45 52.86,-75.86 88.05,-65.68z"/>
  <path fill="#2B2A29" mask="url(#id16)" d="M405.51 146.57c14.66,8.52 17.44,31.12 6.2,50.48 -11.24,19.37 -32.25,28.16 -46.92,19.65 -14.66,-8.52 -17.44,-31.12 -6.2,-50.49 11.25,-19.36 32.25,-28.15 46.92,-19.64z"/>
  <path fill="#2B2A29" mask="url(#id18)" d="M398.53 169.92c6.36,3.55 7.73,13.23 3.05,21.64 -4.68,8.4 -13.64,12.34 -20,8.79 -6.37,-3.54 -7.73,-13.23 -3.05,-21.63 4.68,-8.41 13.63,-12.34 20,-8.8z"/>
  <rect fill="#FEFEFE" transform="matrix(-0.249553 0.0826013 0.0826013 0.249553 241.808 140.675)" width="42.5" height="48.12"/>
  <rect fill="#FEFEFE" transform="matrix(-0.0955627 0.031631 0.031631 0.0955627 231.436 156.431)" width="42.5" height="48.12"/>
  <path fill="#2B2A29" mask="url(#id20)" d="M402.16 97.67c-4.9,-0.22 -15.65,-3.42 -15.65,-3.42 -11.7,-5.01 -26.36,3.96 -58.82,23.35 12.69,-26.42 60.33,-49.02 74.47,-19.93z"/>
  <path fill="#2B2A29" mask="url(#id22)" d="M231.83 47.09c-3.88,21.04 -71.83,47.5 -116.11,36.71 18.66,30.14 118.54,4.03 116.11,-36.71z"/>
  <g id="_2015823239248">
   <path fill="#2B2A29" mask="url(#id24)" d="M300.72 395.72c-45.28,1.93 -125.89,-12.89 -181.63,-30.12 38.75,42.19 158.27,77.31 181.63,30.12z"/>
   <g>
    <path fill="#2B2A29" d="M288.18 396.16c-38.24,1.63 -106.29,-10.88 -153.35,-25.43 32.72,35.62 133.63,65.28 153.35,25.43z"/>
    <path fill="#EBECEC" mask="url(#id26)" d="M298.8 392.72c-38.37,3.42 -129.01,-12.88 -180.47,-29.38 48.36,-7.72 94.36,-1.75 180.47,29.38z"/>
   </g>
  </g>
  <rect fill="#FEFEFE" transform="matrix(-0.227642 0.0753489 0.0753489 0.227642 410.073 146.809)" width="42.5" height="48.12"/>
  <rect fill="#FEFEFE" transform="matrix(-0.0955627 0.031631 0.031631 0.0955627 403.848 163.433)" width="42.5" height="48.12"/>
 </g>
</svg>
