<?xml version="1.0" encoding="UTF-8"?>
<!DOCTYPE svg PUBLIC "-//W3C//DTD SVG 1.1//EN" "http://www.w3.org/Graphics/SVG/1.1/DTD/svg11.dtd">
<!-- Creator: CorelDRAW 2017 -->
<svg xmlns="http://www.w3.org/2000/svg" xml:space="preserve" version="1.1" shape-rendering="geometricPrecision" text-rendering="geometricPrecision" image-rendering="optimizeQuality" fill-rule="evenodd" clip-rule="evenodd"
viewBox="0 0 500 500"
 xmlns:xlink="http://www.w3.org/1999/xlink">
 <defs>
    <mask id="id0">
      <linearGradient id="id1" gradientUnits="userSpaceOnUse" x1="250.62" y1="23.31" x2="254.61" y2="342.65">
       <stop offset="0" stop-opacity="1" stop-color="white"/>
       <stop offset="1" stop-opacity="0" stop-color="white"/>
      </linearGradient>
     <rect fill="url(#id1)" x="61.45" y="22.13" width="378.34" height="378.34"/>
    </mask>
    <mask id="id2">
      <linearGradient id="id3" gradientUnits="userSpaceOnUse" x1="292.04" y1="201.32" x2="336.84" y2="144.84">
       <stop offset="0" stop-opacity="1" stop-color="white"/>
       <stop offset="1" stop-opacity="0" stop-color="white"/>
      </linearGradient>
     <rect fill="url(#id3)" x="272.02" y="60.35" width="168.33" height="168.33"/>
    </mask>
    <mask id="id4">
      <linearGradient id="id5" gradientUnits="userSpaceOnUse" x1="211.4" y1="200.52" x2="166.59" y2="144.04">
       <stop offset="0" stop-opacity="1" stop-color="white"/>
       <stop offset="1" stop-opacity="0" stop-color="white"/>
      </linearGradient>
     <rect fill="url(#id5)" x="63.08" y="59.56" width="168.34" height="168.32"/>
    </mask>
    <mask id="id6">
      <linearGradient id="id7" gradientUnits="userSpaceOnUse" x1="167.1" y1="171.64" x2="167.1" y2="306.89">
       <stop offset="0" stop-opacity="1" stop-color="white"/>
       <stop offset="1" stop-opacity="0" stop-color="white"/>
      </linearGradient>
     <rect fill="url(#id7)" x="142.37" y="97.87" width="91.45" height="119.98"/>
    </mask>
    <mask id="id8">
      <linearGradient id="id9" gradientUnits="userSpaceOnUse" x1="225.64" y1="117.73" x2="234.38" y2="222.96">
       <stop offset="0" stop-opacity="1" stop-color="white"/>
       <stop offset="1" stop-opacity="0" stop-color="white"/>
      </linearGradient>
     <rect fill="url(#id9)" x="182.24" y="133.99" width="43.61" height="56.82"/>
    </mask>
    <mask id="id10">
      <linearGradient id="id11" gradientUnits="userSpaceOnUse" x1="273.2" y1="172.63" x2="276.27" y2="284.07">
       <stop offset="0" stop-opacity="1" stop-color="white"/>
       <stop offset="1" stop-opacity="0" stop-color="white"/>
      </linearGradient>
     <rect fill="url(#id11)" x="270.6" y="97.87" width="91.45" height="119.98"/>
    </mask>
    <mask id="id12">
      <linearGradient id="id13" gradientUnits="userSpaceOnUse" x1="265.14" y1="116.68" x2="273.88" y2="221.91">
       <stop offset="0" stop-opacity="1" stop-color="white"/>
       <stop offset="1" stop-opacity="0" stop-color="white"/>
      </linearGradient>
     <rect fill="url(#id13)" x="281.12" y="132.94" width="43.61" height="56.82"/>
    </mask>
    <mask id="id14">
      <linearGradient id="id15" gradientUnits="userSpaceOnUse" x1="264.27" y1="373.13" x2="265.74" y2="302.87">
       <stop offset="0" stop-opacity="1" stop-color="white"/>
       <stop offset="1" stop-opacity="0" stop-color="white"/>
      </linearGradient>
     <rect fill="url(#id15)" x="155.39" y="270.15" width="193.34" height="82.44"/>
    </mask>
    <mask id="id16">
      <linearGradient id="id17" gradientUnits="userSpaceOnUse" x1="343.54" y1="77.92" x2="346.97" y2="68.81">
       <stop offset="0" stop-opacity="1" stop-color="white"/>
       <stop offset="1" stop-opacity="0" stop-color="white"/>
      </linearGradient>
     <rect fill="url(#id17)" x="324.6" y="69.88" width="46.18" height="35.1"/>
    </mask>
    <mask id="id18">
      <linearGradient id="id19" gradientUnits="userSpaceOnUse" x1="156.75" y1="80.68" x2="153.32" y2="71.56">
       <stop offset="0" stop-opacity="1" stop-color="white"/>
       <stop offset="1" stop-opacity="0" stop-color="white"/>
      </linearGradient>
     <rect fill="url(#id19)" x="129.52" y="72.64" width="46.17" height="35.09"/>
    </mask>
    <mask id="id20">
      <linearGradient id="id21" gradientUnits="userSpaceOnUse" x1="255.85" y1="311.06" x2="254.48" y2="264.46">
       <stop offset="0" stop-opacity="1" stop-color="white"/>
       <stop offset="1" stop-opacity="0" stop-color="white"/>
      </linearGradient>
     <rect fill="url(#id21)" x="171.64" y="249.67" width="156.32" height="36.62"/>
    </mask>
 </defs>
 <g id="Layer_x0020_1">
  <metadata id="CorelCorpID_0Corel-Layer"/>
  <g id="_2015868199184">
   <circle fill="#FFD500" cx="250.62" cy="211.3" r="206.12"/>
   <path fill="#FEFEFE" mask="url(#id0)" d="M438.61 211.3c0,103.82 -84.16,187.99 -187.99,187.99 -103.82,0 -187.99,-84.17 -187.99,-187.99 0,-103.83 84.17,-187.99 187.99,-187.99 103.83,0 187.99,84.16 187.99,187.99z"/>
   <path fill="#5E5971" mask="url(#id2)" d="M293.76 227.5l121.56 0c11.31,0 31.86,-20.94 20.56,-20.57 -172.15,5.63 -130.51,15.06 -142.12,-142.12 -0.83,-11.28 -20.56,9.26 -20.56,20.57l0 121.55c0,11.31 9.25,20.57 20.56,20.57z"/>
   <path fill="#5E5971" mask="url(#id4)" d="M209.67 226.7l-121.55 0c-11.31,0 -31.87,-20.93 -20.57,-20.56 172.16,5.63 130.52,15.05 142.12,-142.12 0.84,-11.28 20.57,9.25 20.57,20.56l0 121.56c0,11.31 -9.26,20.56 -20.57,20.56z"/>
   <ellipse fill="#2B2A29" cx="180.89" cy="157.86" rx="49.55" ry="65.42"/>
   <path fill="#FEFEFE" mask="url(#id6)" d="M188.09 99.05c24.61,0 44.55,26.33 44.55,58.81 0,32.48 -19.94,58.81 -44.55,58.81 -24.6,0 -44.54,-26.33 -44.54,-58.81 0,-32.48 19.94,-58.81 44.54,-58.81z"/>
   <path fill="#2B2A29" mask="url(#id8)" d="M204.04 135.17c11.39,0 20.63,12.19 20.63,27.23 0,15.04 -9.24,27.23 -20.63,27.23 -11.39,0 -20.62,-12.19 -20.62,-27.23 0,-15.04 9.23,-27.23 20.62,-27.23z"/>
   <ellipse fill="#2B2A29" cx="204.74" cy="152.61" rx="12.9" ry="17.03"/>
   <ellipse fill="#2B2A29" cx="323.53" cy="157.86" rx="49.55" ry="65.42"/>
   <path fill="#FEFEFE" mask="url(#id10)" d="M316.32 99.05c24.61,0 44.55,26.33 44.55,58.81 0,32.48 -19.94,58.81 -44.55,58.81 -24.6,0 -44.54,-26.33 -44.54,-58.81 0,-32.48 19.94,-58.81 44.54,-58.81z"/>
   <path fill="#2B2A29" mask="url(#id12)" d="M302.92 134.12c11.39,0 20.63,12.2 20.63,27.23 0,15.04 -9.24,27.23 -20.63,27.23 -11.39,0 -20.62,-12.19 -20.62,-27.23 0,-15.03 9.23,-27.23 20.62,-27.23z"/>
   <ellipse fill="#2B2A29" cx="298.38" cy="149.82" rx="11.13" ry="14.69"/>
   <rect fill="#FEFEFE" x="195.97" y="131.5" width="11.89" height="13.46"/>
   <rect fill="#FEFEFE" x="195.45" y="147.76" width="5.25" height="5.94"/>
   <rect fill="#FEFEFE" x="287.58" y="150.73" width="5.25" height="5.94"/>
   <rect fill="#FEFEFE" x="288.45" y="133.34" width="11.89" height="13.46"/>
   <path fill="#2B2A29" mask="url(#id14)" d="M156.57 271.33c53.91,23.32 137.69,20.75 190.98,2.14 -16.92,85.86 -132.4,121.38 -190.98,-2.14z"/>
   <path fill="#7B481D" d="M167.14 276.47c36.86,19.69 135.59,14.25 172.02,-1.46 -11.57,72.49 -131.97,105.75 -172.02,1.46z"/>
   <path fill="#2B2A29" mask="url(#id16)" d="M325.78 76.22c12.63,3.29 31.81,16.08 43.82,27.58 -2.9,-19.47 -28.97,-43.43 -43.82,-27.58z"/>
   <path fill="#2B2A29" mask="url(#id18)" d="M174.51 78.98c-12.63,3.29 -31.81,16.08 -43.81,27.57 2.89,-19.47 28.96,-43.43 43.81,-27.57z"/>
   <path fill="#EF7F1A" mask="url(#id20)" d="M172.82 271.73c37.95,18.16 114.44,16.65 153.96,2.61 -49.67,-29.1 -89.73,-32.52 -153.96,-2.61z"/>
   <path fill="#434242" d="M150.59 391.56c70.9,32.49 132.68,26.82 187.93,-1.84 -0.07,27.89 -0.06,30.94 -0.15,58.83 -0.07,21.27 -10.22,30.74 -24.01,35.99 -46.06,17.52 -83.47,14.27 -128.82,2.32 -19.01,-5.82 -34.25,-17.37 -34.8,-38.45 -0.72,-27.92 -0.15,-28.92 -0.15,-56.85z"/>
   <ellipse fill="#2B2A29" transform="matrix(0.195079 0.027958 -0.0247582 0.172752 245.867 409.318)" rx="550" ry="53.12"/>
   <ellipse fill="#2B2A29" transform="matrix(0.195079 0.027958 -0.0247582 0.172752 237.631 443.731)" rx="550" ry="53.12"/>
   <ellipse fill="#2B2A29" transform="matrix(0.163102 0.0240452 -0.0206998 0.148574 225.839 474.427)" rx="550" ry="53.12"/>
   <ellipse fill="#2B2A29" transform="matrix(0.110653 0.0118781 -0.0140433 0.144351 291.948 391.24)" rx="550" ry="53.12"/>
  </g>
 </g>
</svg>
