<?xml version="1.0" encoding="UTF-8"?>
<!DOCTYPE svg PUBLIC "-//W3C//DTD SVG 1.1//EN" "http://www.w3.org/Graphics/SVG/1.1/DTD/svg11.dtd">
<!-- Creator: CorelDRAW 2017 -->
<svg xmlns="http://www.w3.org/2000/svg" xml:space="preserve" version="1.1" shape-rendering="geometricPrecision" text-rendering="geometricPrecision" image-rendering="optimizeQuality" fill-rule="evenodd" clip-rule="evenodd"
viewBox="0 0 500 500"
 xmlns:xlink="http://www.w3.org/1999/xlink">
 <defs>
   <mask id="id0">
     <linearGradient id="id1" gradientUnits="userSpaceOnUse" x1="-168.48" y1="226.88" x2="248.54" y2="268.47">
      <stop offset="0" stop-opacity="1" stop-color="white"/>
      <stop offset="1" stop-opacity="0" stop-color="white"/>
     </linearGradient>
    <rect fill="url(#id1)" x="26.01" y="28.52" width="447.45" height="447.44"/>
   </mask>
   <linearGradient id="id2" gradientUnits="userSpaceOnUse" x1="242.23" y1="284.03" x2="242.23" y2="426.87">
    <stop offset="0" stop-opacity="1" stop-color="#4F331B"/>
    <stop offset="1" stop-opacity="1" stop-color="#FEFEFE"/>
   </linearGradient>
    <mask id="id3">
      <linearGradient id="id4" gradientUnits="userSpaceOnUse" x1="308.08" y1="222.1" x2="304.32" y2="204.76">
       <stop offset="0" stop-opacity="1" stop-color="white"/>
       <stop offset="1" stop-opacity="0" stop-color="white"/>
      </linearGradient>
     <rect fill="url(#id4)" x="268.99" y="210.88" width="123.35" height="29.2"/>
    </mask>
    <mask id="id5">
      <linearGradient id="id6" gradientUnits="userSpaceOnUse" x1="289.32" y1="197.55" x2="267.96" y2="193.47">
       <stop offset="0" stop-opacity="1" stop-color="white"/>
       <stop offset="1" stop-opacity="0" stop-color="white"/>
      </linearGradient>
     <rect fill="url(#id6)" x="265.45" y="132.8" width="107.77" height="103.81"/>
    </mask>
    <mask id="id7">
      <linearGradient id="id8" gradientUnits="userSpaceOnUse" x1="302.22" y1="222.1" x2="298.46" y2="204.76">
       <stop offset="0" stop-opacity="1" stop-color="white"/>
       <stop offset="1" stop-opacity="0" stop-color="white"/>
      </linearGradient>
     <rect fill="url(#id8)" x="263.13" y="210.88" width="123.36" height="29.2"/>
    </mask>
    <mask id="id9">
      <linearGradient id="id10" gradientUnits="userSpaceOnUse" x1="283.46" y1="197.55" x2="262.1" y2="193.47">
       <stop offset="0" stop-opacity="1" stop-color="white"/>
       <stop offset="1" stop-opacity="0" stop-color="white"/>
      </linearGradient>
     <rect fill="url(#id10)" x="259.6" y="132.8" width="107.76" height="103.81"/>
    </mask>
    <mask id="id11">
      <linearGradient id="id12" gradientUnits="userSpaceOnUse" x1="192.13" y1="221.71" x2="195.89" y2="204.36">
       <stop offset="0" stop-opacity="1" stop-color="white"/>
       <stop offset="1" stop-opacity="0" stop-color="white"/>
      </linearGradient>
     <rect fill="url(#id12)" x="107.87" y="210.49" width="123.35" height="29.2"/>
    </mask>
    <mask id="id13">
      <linearGradient id="id14" gradientUnits="userSpaceOnUse" x1="210.89" y1="197.16" x2="232.25" y2="193.08">
       <stop offset="0" stop-opacity="1" stop-color="white"/>
       <stop offset="1" stop-opacity="0" stop-color="white"/>
      </linearGradient>
     <rect fill="url(#id14)" x="126.99" y="132.4" width="107.76" height="103.81"/>
    </mask>
   <mask id="id15">
     <linearGradient id="id16" gradientUnits="userSpaceOnUse" x1="263.06" y1="322.42" x2="266.44" y2="226.39">
      <stop offset="0" stop-opacity="1" stop-color="white"/>
      <stop offset="1" stop-opacity="0" stop-color="white"/>
     </linearGradient>
    <rect fill="url(#id16)" x="89.25" y="224.95" width="318.8" height="84.17"/>
   </mask>
 </defs>
 <g id="Layer_x0020_1">
  <metadata id="CorelCorpID_0Corel-Layer"/>
  <circle fill="#FFD500" cx="249.74" cy="252.24" r="244.01"/>
  <path fill="#FEFEFE" mask="url(#id0)" d="M249.74 29.7c122.91,0 222.54,99.63 222.54,222.54 0,122.91 -99.63,222.54 -222.54,222.54 -122.91,0 -222.55,-99.63 -222.55,-222.54 0,-122.91 99.64,-222.54 222.55,-222.54z"/>
  <path fill="url(#id2)" d="M79.76 284.03c91.73,41.59 234.28,37.01 324.95,3.81 -28.79,153.16 -225.28,216.52 -324.95,-3.81z"/>
  <path fill="#E31E24" d="M105.06 314.32c77.44,26.57 197.8,23.65 274.35,2.44 -24.3,97.85 -190.2,138.33 -274.35,-2.44z"/>
  <path fill="#FEFEFE" d="M105.06 314.32c77.86,25.58 198.24,24.79 274.35,1.22 -24.3,48.92 -190.2,69.16 -274.35,-1.22z"/>
  <path fill="#2B2A29" d="M60.01 304.41c11.77,-8.78 25.45,-29.22 32.12,-45.18 7.4,19.05 -7.64,52.81 -32.12,45.18z"/>
  <g id="_2015839074256">
   <path fill="#FEFEFE" d="M227.97 236.12c-29.41,-6.31 -83.22,-3.72 -121,3.35 28.71,-27.79 109.57,-41.58 121,-3.35z"/>
   <path fill="#FEFEFE" d="M224.15 236c-16.26,-27.65 -61.04,-72.31 -98.06,-101.45 51.93,12.74 129.73,75.7 98.06,101.45z"/>
  </g>
  <g id="_2015839073232">
   <path fill="#FEFEFE" mask="url(#id3)" d="M270.17 235.55c29.4,-6.31 83.21,-3.72 120.99,3.35 -28.71,-27.79 -109.57,-41.58 -120.99,-3.35z"/>
   <path fill="#FEFEFE" mask="url(#id5)" d="M273.98 235.43c16.27,-27.65 61.05,-72.31 98.06,-101.45 -51.93,12.74 -129.72,75.69 -98.06,101.45z"/>
  </g>
  <g id="_2015839072624">
   <path fill="#704E2E" mask="url(#id7)" d="M264.31 235.55c29.41,-6.31 83.22,-3.72 121,3.35 -28.71,-27.79 -109.57,-41.58 -121,-3.35z"/>
   <path fill="#704E2E" mask="url(#id9)" d="M268.13 235.43c16.26,-27.65 61.04,-72.31 98.05,-101.45 -51.93,12.74 -129.72,75.69 -98.05,101.45z"/>
  </g>
  <g id="_2015839072560">
   <path fill="#704E2E" mask="url(#id11)" d="M230.04 235.16c-29.4,-6.32 -83.22,-3.72 -120.99,3.35 28.71,-27.79 109.57,-41.58 120.99,-3.35z"/>
   <path fill="#704E2E" mask="url(#id13)" d="M226.22 235.03c-16.26,-27.64 -61.04,-72.3 -98.05,-101.45 51.93,12.75 129.72,75.7 98.05,101.45z"/>
  </g>
  <path fill="#2B2A29" d="M426.99 306.29c-11.77,-8.78 -25.44,-29.22 -32.12,-45.18 -7.4,19.05 7.64,52.81 32.12,45.18z"/>
  <path fill="#EBECEC" mask="url(#id15)" d="M90.43 279.76c79,41.34 236.06,34.01 316.44,-1.35 -103.7,-66.82 -186.19,-73 -316.44,1.35z"/>
 </g>
</svg>
