<?xml version="1.0" encoding="UTF-8"?>
<!DOCTYPE svg PUBLIC "-//W3C//DTD SVG 1.1//EN" "http://www.w3.org/Graphics/SVG/1.1/DTD/svg11.dtd">
<!-- Creator: CorelDRAW 2017 -->
<svg xmlns="http://www.w3.org/2000/svg" xml:space="preserve" version="1.1" shape-rendering="geometricPrecision" text-rendering="geometricPrecision" image-rendering="optimizeQuality" fill-rule="evenodd" clip-rule="evenodd"
viewBox="0 0 500 500"
 xmlns:xlink="http://www.w3.org/1999/xlink">
 <defs>
   <mask id="id0">
     <linearGradient id="id1" gradientUnits="userSpaceOnUse" x1="-13.58" y1="474.26" x2="133.34" y2="357.45">
      <stop offset="0" stop-opacity="1" stop-color="white"/>
      <stop offset="1" stop-opacity="0" stop-color="white"/>
     </linearGradient>
    <rect fill="url(#id1)" x="6.53" y="30.86" width="456.13" height="456.13"/>
   </mask>
   <mask id="id2">
     <linearGradient id="id3" gradientUnits="userSpaceOnUse" x1="308.3" y1="276.08" x2="341.38" y2="82">
      <stop offset="0" stop-opacity="1" stop-color="white"/>
      <stop offset="1" stop-opacity="0" stop-color="white"/>
     </linearGradient>
    <rect fill="url(#id3)" x="263.62" y="84.21" width="123.33" height="157.53"/>
   </mask>
   <mask id="id4">
     <linearGradient id="id5" gradientUnits="userSpaceOnUse" x1="305.23" y1="277.59" x2="364.66" y2="198.97">
      <stop offset="0" stop-opacity="1" stop-color="white"/>
      <stop offset="1" stop-opacity="0" stop-color="white"/>
     </linearGradient>
    <rect fill="url(#id5)" x="278.24" y="201.15" width="118.8" height="61.89"/>
   </mask>
   <mask id="id6">
     <linearGradient id="id7" gradientUnits="userSpaceOnUse" x1="251.27" y1="124.06" x2="275.18" y2="335.2">
      <stop offset="0" stop-opacity="1" stop-color="white"/>
      <stop offset="1" stop-opacity="0" stop-color="white"/>
     </linearGradient>
    <rect fill="url(#id7)" x="261.31" y="93.97" width="111.11" height="141.85"/>
   </mask>
   <mask id="id8">
     <linearGradient id="id9" gradientUnits="userSpaceOnUse" x1="258.56" y1="102.03" x2="276.4" y2="227.32">
      <stop offset="0" stop-opacity="1" stop-color="white"/>
      <stop offset="1" stop-opacity="0" stop-color="white"/>
     </linearGradient>
    <rect fill="url(#id9)" x="269.35" y="115" width="52.71" height="66.94"/>
   </mask>
   <mask id="id10">
     <linearGradient id="id11" gradientUnits="userSpaceOnUse" x1="264.91" y1="120.81" x2="277.47" y2="208.95">
      <stop offset="0" stop-opacity="1" stop-color="white"/>
      <stop offset="1" stop-opacity="0" stop-color="white"/>
     </linearGradient>
    <rect fill="url(#id11)" x="272.15" y="129.58" width="37.78" height="47.8"/>
   </mask>
   <mask id="id12">
     <linearGradient id="id13" gradientUnits="userSpaceOnUse" x1="202.61" y1="295.04" x2="134.03" y2="160.26">
      <stop offset="0" stop-opacity="1" stop-color="white"/>
      <stop offset="1" stop-opacity="0" stop-color="white"/>
     </linearGradient>
    <rect fill="url(#id13)" x="96.95" y="122.24" width="123.33" height="157.53"/>
   </mask>
   <mask id="id14">
     <linearGradient id="id15" gradientUnits="userSpaceOnUse" x1="200.33" y1="296.38" x2="152.25" y2="251.4">
      <stop offset="0" stop-opacity="1" stop-color="white"/>
      <stop offset="1" stop-opacity="0" stop-color="white"/>
     </linearGradient>
    <rect fill="url(#id15)" x="111.07" y="231.94" width="118.89" height="65.08"/>
   </mask>
   <mask id="id16">
     <linearGradient id="id17" gradientUnits="userSpaceOnUse" x1="227.73" y1="141.46" x2="275.18" y2="335.2">
      <stop offset="0" stop-opacity="1" stop-color="white"/>
      <stop offset="1" stop-opacity="0" stop-color="white"/>
     </linearGradient>
    <rect fill="url(#id17)" x="111.48" y="128.16" width="111.11" height="141.85"/>
   </mask>
   <mask id="id18">
     <linearGradient id="id19" gradientUnits="userSpaceOnUse" x1="212.12" y1="111.34" x2="229.96" y2="236.63">
      <stop offset="0" stop-opacity="1" stop-color="white"/>
      <stop offset="1" stop-opacity="0" stop-color="white"/>
     </linearGradient>
    <rect fill="url(#id19)" x="153.53" y="140.14" width="52.71" height="66.94"/>
   </mask>
   <mask id="id20">
     <linearGradient id="id21" gradientUnits="userSpaceOnUse" x1="210.54" y1="129.32" x2="224.11" y2="224.64">
      <stop offset="0" stop-opacity="1" stop-color="white"/>
      <stop offset="1" stop-opacity="0" stop-color="white"/>
     </linearGradient>
    <rect fill="url(#id21)" x="165.69" y="150.95" width="40.66" height="51.49"/>
   </mask>
   <linearGradient id="id22" gradientUnits="userSpaceOnUse" x1="385.8" y1="353.89" x2="184.16" y2="353.89">
    <stop offset="0" stop-opacity="1" stop-color="#7B481D"/>
    <stop offset="1" stop-opacity="1" stop-color="#2B2A29"/>
   </linearGradient>
   <linearGradient id="id23" gradientUnits="userSpaceOnUse" x1="368.34" y1="352.35" x2="198.09" y2="352.35">
    <stop offset="0" stop-opacity="1" stop-color="#2B2A29"/>
    <stop offset="1" stop-opacity="1" stop-color="#5B411C"/>
   </linearGradient>
   <mask id="id24">
     <linearGradient id="id25" gradientUnits="userSpaceOnUse" x1="288.21" y1="96.75" x2="299.69" y2="114.12">
      <stop offset="0" stop-opacity="1" stop-color="white"/>
      <stop offset="1" stop-opacity="0" stop-color="white"/>
     </linearGradient>
    <rect fill="url(#id25)" x="250.82" y="29.24" width="80.75" height="86.82"/>
   </mask>
   <mask id="id26">
     <linearGradient id="id27" gradientUnits="userSpaceOnUse" x1="149.36" y1="115.78" x2="166.51" y2="87.37">
      <stop offset="0" stop-opacity="1" stop-color="white"/>
      <stop offset="1" stop-opacity="0" stop-color="white"/>
     </linearGradient>
    <rect fill="url(#id27)" x="94.41" y="79.16" width="106.81" height="56.19"/>
   </mask>
   <mask id="id28">
     <linearGradient id="id29" gradientUnits="userSpaceOnUse" x1="264.31" y1="338.41" x2="296.99" y2="445.39">
      <stop offset="0" stop-opacity="1" stop-color="white"/>
      <stop offset="1" stop-opacity="0" stop-color="white"/>
     </linearGradient>
    <rect fill="url(#id29)" x="185.53" y="373.23" width="203.12" height="71.63"/>
   </mask>
 </defs>
 <g id="Layer_x0020_1">
  <metadata id="CorelCorpID_0Corel-Layer"/>
  <circle fill="#E31E24" cx="247.26" cy="249.74" r="245.26"/>
  <path fill="#FEFEFE" mask="url(#id0)" d="M234.59 32.04c-125.3,0 -226.88,101.58 -226.88,226.89 0,125.3 101.58,226.88 226.88,226.88 125.31,0 226.89,-101.58 226.89,-226.88 0,-125.31 -101.58,-226.89 -226.89,-226.89z"/>
  <path fill="#2B2A29" mask="url(#id2)" d="M307.84 86.54c-31.97,7.3 -50.09,47.43 -40.45,89.65 9.63,42.22 43.36,70.52 75.34,63.23 31.97,-7.3 50.09,-47.44 40.45,-89.65 -9.63,-42.22 -43.36,-70.53 -75.34,-63.23z"/>
  <path fill="#2B2A29" mask="url(#id4)" d="M331.56 205.43c-31.98,7.3 -55.18,25.15 -51.82,39.88 3.36,14.72 32.01,20.75 63.99,13.45 31.97,-7.3 55.17,-25.15 51.81,-39.87 -3.36,-14.73 -32,-20.75 -63.98,-13.46z"/>
  <path fill="#FEFEFE" mask="url(#id6)" d="M301.18 96.19c-28.74,6.55 -45.02,42.64 -36.37,80.59 8.66,37.95 38.99,63.39 67.73,56.83 28.75,-6.56 45.03,-42.64 36.37,-80.59 -8.66,-37.95 -38.98,-63.39 -67.73,-56.83z"/>
  <path fill="#2B2A29" mask="url(#id8)" d="M288.44 116.66c-13.31,3.03 -20.85,19.74 -16.84,37.31 4.01,17.57 18.05,29.35 31.36,26.32 13.31,-3.04 20.85,-19.75 16.84,-37.32 -4.01,-17.57 -18.05,-29.35 -31.36,-26.31z"/>
  <path fill="#2B2A29" mask="url(#id10)" d="M285.94 131.1c-9.37,2.13 -14.67,13.89 -11.85,26.25 2.82,12.36 12.7,20.65 22.06,18.51 9.36,-2.14 14.66,-13.89 11.84,-26.25 -2.82,-12.36 -12.69,-20.65 -22.05,-18.51z"/>
  <path fill="#2B2A29" mask="url(#id12)" d="M141.17 124.57c-31.98,7.3 -50.09,47.43 -40.46,89.65 9.64,42.22 43.37,70.52 75.34,63.23 31.98,-7.3 50.09,-47.44 40.46,-89.65 -9.63,-42.22 -43.36,-70.53 -75.34,-63.23z"/>
  <path fill="#2B2A29" mask="url(#id14)" d="M164.03 236.05c-31.98,7.29 -55,25.94 -51.41,41.64 3.58,15.7 32.41,22.51 64.38,15.22 31.98,-7.3 55,-25.94 51.42,-41.64 -3.59,-15.7 -32.41,-22.52 -64.39,-15.22z"/>
  <path fill="#FEFEFE" mask="url(#id16)" d="M151.36 130.37c-28.75,6.56 -45.03,42.64 -36.37,80.59 8.66,37.95 38.98,63.4 67.72,56.84 28.75,-6.56 45.03,-42.64 36.37,-80.59 -8.66,-37.95 -38.98,-63.4 -67.72,-56.84z"/>
  <path fill="#2B2A29" mask="url(#id18)" d="M172.63 141.79c-13.31,3.04 -20.85,19.75 -16.84,37.32 4.01,17.57 18.05,29.35 31.36,26.31 13.31,-3.03 20.85,-19.74 16.84,-37.31 -4.01,-17.57 -18.05,-29.35 -31.36,-26.32z"/>
  <path fill="#2B2A29" mask="url(#id20)" d="M180.5 152.49c-10.13,2.31 -15.86,15.02 -12.81,28.39 3.04,13.36 13.73,22.33 23.85,20.02 10.13,-2.31 15.86,-15.02 12.81,-28.39 -3.05,-13.37 -13.73,-22.33 -23.85,-20.02z"/>
  <rect fill="#FEFEFE" transform="matrix(-0.326806 0.0745686 0.0745686 0.326806 298.211 116.006)" width="42.5" height="48.12"/>
  <rect fill="#FEFEFE" transform="matrix(-0.144248 0.0329136 0.0329136 0.144248 303.159 134.864)" width="42.5" height="48.12"/>
  <rect fill="#FEFEFE" transform="matrix(-0.144248 0.0329136 0.0329136 0.144248 179.865 167.566)" width="42.5" height="48.12"/>
  <rect fill="#FEFEFE" transform="matrix(-0.326806 0.0745686 0.0745686 0.326806 174.207 147.473)" width="42.5" height="48.12"/>
  <path fill="url(#id22)" d="M385.8 373.03c-63.54,-17.33 -150.79,6.08 -201.26,43 -7.64,-115.44 103.16,-189.2 201.26,-43z"/>
  <path fill="url(#id23)" d="M368.34 368.51c-53.65,-14.64 -127.32,5.13 -169.93,36.3 -6.45,-97.46 87.1,-159.74 169.93,-36.3z"/>
  <path fill="#7B481D" mask="url(#id24)" d="M252 108.74c24.76,-12.86 58.66,-48.65 78.22,-78.32 3.23,41.96 -39.72,104.3 -78.22,78.32z"/>
  <path fill="#7B481D" mask="url(#id26)" d="M200.04 116.98c-27.89,-0.85 -73.96,-18.39 -104.45,-36.64 15.29,39.21 81.03,76.75 104.45,36.64z"/>
  <path fill="#EBECEC" mask="url(#id28)" d="M387.47 381.47c-56.36,-19.99 -155,5.23 -200.76,41.08 75.86,35.34 129.17,29.38 200.76,-41.08z"/>
 </g>
</svg>
