<?xml version="1.0" encoding="UTF-8"?>
<!DOCTYPE svg PUBLIC "-//W3C//DTD SVG 1.1//EN" "http://www.w3.org/Graphics/SVG/1.1/DTD/svg11.dtd">
<!-- Creator: CorelDRAW 2017 -->
<svg xmlns="http://www.w3.org/2000/svg" xml:space="preserve"  version="1.1" shape-rendering="geometricPrecision" text-rendering="geometricPrecision" image-rendering="optimizeQuality" fill-rule="evenodd" clip-rule="evenodd"
viewBox="0 0 500 500"
 xmlns:xlink="http://www.w3.org/1999/xlink">
 <defs>
   <mask id="id0">
     <linearGradient id="id1" gradientUnits="userSpaceOnUse" x1="-168.55" y1="227.81" x2="247.42" y2="269.3">
      <stop offset="0" stop-opacity="1" stop-color="white"/>
      <stop offset="1" stop-opacity="0" stop-color="white"/>
     </linearGradient>
    <rect fill="url(#id1)" x="25.45" y="29.95" width="446.32" height="446.32"/>
   </mask>
   <mask id="id2">
     <linearGradient id="id3" gradientUnits="userSpaceOnUse" x1="238.14" y1="321.22" x2="229.26" y2="487.53">
      <stop offset="0" stop-opacity="1" stop-color="white"/>
      <stop offset="1" stop-opacity="0" stop-color="white"/>
     </linearGradient>
    <rect fill="url(#id3)" x="75.63" y="299.65" width="326.49" height="147.13"/>
   </mask>
   <linearGradient id="id4" gradientUnits="userSpaceOnUse" x1="102.05" y1="377.78" x2="375.71" y2="377.78">
    <stop offset="0" stop-opacity="1" stop-color="#7B481D"/>
    <stop offset="1" stop-opacity="1" stop-color="#2B2A29"/>
   </linearGradient>
   <mask id="id5">
     <linearGradient id="id6" gradientUnits="userSpaceOnUse" x1="254.37" y1="362.37" x2="257.97" y2="259.3">
      <stop offset="0" stop-opacity="1" stop-color="white"/>
      <stop offset="1" stop-opacity="0" stop-color="white"/>
     </linearGradient>
    <rect fill="url(#id6)" x="76.03" y="257.73" width="325.04" height="58.14"/>
   </mask>
   <mask id="id7">
     <linearGradient id="id8" gradientUnits="userSpaceOnUse" x1="204.41" y1="254.84" x2="157.08" y2="195.17">
      <stop offset="0" stop-opacity="1" stop-color="white"/>
      <stop offset="1" stop-opacity="0" stop-color="white"/>
     </linearGradient>
    <rect fill="url(#id8)" x="47.79" y="105.98" width="177.71" height="177.7"/>
   </mask>
   <mask id="id9">
     <linearGradient id="id10" gradientUnits="userSpaceOnUse" x1="293.44" y1="256.73" x2="340.78" y2="197.06">
      <stop offset="0" stop-opacity="1" stop-color="white"/>
      <stop offset="1" stop-opacity="0" stop-color="white"/>
     </linearGradient>
    <rect fill="url(#id10)" x="272.36" y="107.87" width="177.71" height="177.7"/>
   </mask>
   <mask id="id11">
     <linearGradient id="id12" gradientUnits="userSpaceOnUse" x1="159.84" y1="197.86" x2="170.14" y2="346.05">
      <stop offset="0" stop-opacity="1" stop-color="white"/>
      <stop offset="1" stop-opacity="0" stop-color="white"/>
     </linearGradient>
    <rect fill="url(#id12)" x="130.49" y="130.43" width="100.18" height="131.51"/>
   </mask>
   <mask id="id13">
     <linearGradient id="id14" gradientUnits="userSpaceOnUse" x1="211.04" y1="136.12" x2="220.64" y2="251.67">
      <stop offset="0" stop-opacity="1" stop-color="white"/>
      <stop offset="1" stop-opacity="0" stop-color="white"/>
     </linearGradient>
    <rect fill="url(#id14)" x="163.5" y="154.09" width="47.65" height="62.16"/>
   </mask>
   <mask id="id15">
     <linearGradient id="id16" gradientUnits="userSpaceOnUse" x1="273.54" y1="209.66" x2="280.91" y2="360.15">
      <stop offset="0" stop-opacity="1" stop-color="white"/>
      <stop offset="1" stop-opacity="0" stop-color="white"/>
     </linearGradient>
    <rect fill="url(#id16)" x="271.29" y="130.43" width="100.19" height="131.51"/>
   </mask>
   <mask id="id17">
     <linearGradient id="id18" gradientUnits="userSpaceOnUse" x1="272.99" y1="138.33" x2="282.59" y2="253.88">
      <stop offset="0" stop-opacity="1" stop-color="white"/>
      <stop offset="1" stop-opacity="0" stop-color="white"/>
     </linearGradient>
    <rect fill="url(#id18)" x="290.65" y="156.3" width="47.65" height="62.16"/>
   </mask>
   <mask id="id19">
     <linearGradient id="id20" gradientUnits="userSpaceOnUse" x1="161.6" y1="102.33" x2="157.83" y2="92.32">
      <stop offset="0" stop-opacity="1" stop-color="white"/>
      <stop offset="1" stop-opacity="0" stop-color="white"/>
     </linearGradient>
    <rect fill="url(#id20)" x="131.8" y="93.62" width="50.48" height="38.31"/>
   </mask>
   <mask id="id21">
     <linearGradient id="id22" gradientUnits="userSpaceOnUse" x1="348.11" y1="98.72" x2="351.88" y2="88.71">
      <stop offset="0" stop-opacity="1" stop-color="white"/>
      <stop offset="1" stop-opacity="0" stop-color="white"/>
     </linearGradient>
    <rect fill="url(#id22)" x="327.43" y="90.01" width="50.47" height="38.31"/>
   </mask>
 </defs>
 <g id="Layer_x0020_1">
  <metadata id="CorelCorpID_0Corel-Layer"/>
  <circle fill="#17CF35" cx="248.61" cy="253.11" r="243.39"/>
  <path fill="#FEFEFE" mask="url(#id0)" d="M248.61 31.13c122.59,0 221.98,99.38 221.98,221.98 0,122.59 -99.39,221.98 -221.98,221.98 -122.6,0 -221.98,-99.39 -221.98,-221.98 0,-122.6 99.38,-221.98 221.98,-221.98z"/>
  <path fill="#2B2A29" mask="url(#id2)" d="M76.81 300.83c91.5,42.16 233.69,37.52 324.13,3.87 -28.72,155.21 -224.71,219.43 -324.13,-3.87z"/>
  <path fill="url(#id4)" d="M102.05 331.53c77.24,26.93 197.3,23.97 273.66,2.47 -24.25,99.17 -189.72,140.19 -273.66,-2.47z"/>
  <path fill="#2B2A29" d="M57.11 314.86c11.75,-6.04 25.39,-20.11 32.04,-31.1 7.39,13.12 -7.61,36.35 -32.04,31.1z"/>
  <path fill="#2B2A29" d="M423.17 316.15c-11.74,-6.04 -25.38,-20.1 -32.04,-31.09 -7.38,13.11 7.62,36.35 32.04,31.09z"/>
  <path fill="#FEFEFE" d="M102.05 331.53c67.89,20.31 158.42,28.49 273.66,2.47 -71.98,54.19 -205.32,45.18 -273.66,-2.47z"/>
  <path fill="#EBECEC" mask="url(#id5)" d="M77.21 292.9c79.54,29.55 239.85,27.11 322.68,4.26 -104.1,-47.37 -188.06,-52.95 -322.68,-4.26z"/>
  <path fill="#5E5971" mask="url(#id7)" d="M202.59 282.5l-128.42 0c-11.95,0 -33.67,-22.12 -21.73,-21.73 181.88,5.95 137.89,15.91 150.15,-150.15 0.88,-11.91 21.73,9.78 21.73,21.73l0 128.42c0,11.95 -9.78,21.73 -21.73,21.73z"/>
  <path fill="#5E5971" mask="url(#id9)" d="M295.26 284.39l128.43 0c11.95,0 33.67,-22.12 21.72,-21.73 -181.87,5.95 -137.88,15.91 -150.15,-150.15 -0.88,-11.92 -21.72,9.78 -21.72,21.73l0 128.42c0,11.95 9.78,21.73 21.72,21.73z"/>
  <ellipse fill="#2B2A29" cx="172.67" cy="196.18" rx="54.41" ry="71.84"/>
  <path fill="#FEFEFE" mask="url(#id11)" d="M180.58 131.61c27.01,0 48.91,28.91 48.91,64.57 0,35.67 -21.9,64.58 -48.91,64.58 -27.01,0 -48.91,-28.91 -48.91,-64.58 0,-35.66 21.9,-64.57 48.91,-64.57z"/>
  <path fill="#2B2A29" mask="url(#id13)" d="M187.33 155.27c12.5,0 22.64,13.39 22.64,29.9 0,16.51 -10.14,29.9 -22.64,29.9 -12.51,0 -22.65,-13.39 -22.65,-29.9 0,-16.51 10.14,-29.9 22.65,-29.9z"/>
  <ellipse fill="#2B2A29" cx="186.97" cy="188.18" rx="10.37" ry="13.7"/>
  <ellipse fill="#2B2A29" cx="329.3" cy="196.18" rx="54.41" ry="71.84"/>
  <path fill="#FEFEFE" mask="url(#id15)" d="M321.38 131.61c27.02,0 48.92,28.91 48.92,64.57 0,35.67 -21.9,64.58 -48.92,64.58 -27.01,0 -48.91,-28.91 -48.91,-64.58 0,-35.66 21.9,-64.57 48.91,-64.57z"/>
  <path fill="#2B2A29" mask="url(#id17)" d="M314.48 157.48c12.5,0 22.64,13.39 22.64,29.9 0,16.52 -10.14,29.9 -22.64,29.9 -12.51,0 -22.65,-13.38 -22.65,-29.9 0,-16.51 10.14,-29.9 22.65,-29.9z"/>
  <ellipse fill="#2B2A29" cx="315.2" cy="188.03" rx="10.89" ry="14.37"/>
  <rect fill="#FEFEFE" x="176.17" y="160.38" width="13.05" height="14.78"/>
  <rect fill="#FEFEFE" x="175.59" y="178.23" width="5.76" height="6.52"/>
  <rect fill="#FEFEFE" x="304.05" y="178.82" width="5.76" height="6.52"/>
  <rect fill="#FEFEFE" x="305.01" y="159.72" width="13.05" height="14.78"/>
  <path fill="#2B2A29" mask="url(#id19)" d="M181.1 100.46c-13.87,3.62 -34.93,17.66 -48.12,30.29 3.18,-21.38 31.81,-47.69 48.12,-30.29z"/>
  <path fill="#2B2A29" mask="url(#id21)" d="M328.61 96.85c13.87,3.62 34.93,17.66 48.11,30.29 -3.17,-21.38 -31.8,-47.7 -48.11,-30.29z"/>
 </g>
</svg>
