<?xml version="1.0" encoding="UTF-8"?>
<!DOCTYPE svg PUBLIC "-//W3C//DTD SVG 1.1//EN" "http://www.w3.org/Graphics/SVG/1.1/DTD/svg11.dtd">
<!-- Creator: CorelDRAW 2017 -->
<svg xmlns="http://www.w3.org/2000/svg" xml:space="preserve"  version="1.1" shape-rendering="geometricPrecision" text-rendering="geometricPrecision" image-rendering="optimizeQuality" fill-rule="evenodd" clip-rule="evenodd"
viewBox="0 0 500 500"
 xmlns:xlink="http://www.w3.org/1999/xlink">
 <defs>
   <mask id="id0">
     <linearGradient id="id1" gradientUnits="userSpaceOnUse" x1="-172.41" y1="220.55" x2="249.19" y2="262.6">
      <stop offset="0" stop-opacity="1" stop-color="white"/>
      <stop offset="1" stop-opacity="0" stop-color="white"/>
     </linearGradient>
    <rect fill="url(#id1)" x="24.23" y="20.02" width="452.33" height="452.33"/>
   </mask>
   <mask id="id2">
     <linearGradient id="id3" gradientUnits="userSpaceOnUse" x1="296.64" y1="268.45" x2="344.93" y2="207.58">
      <stop offset="0" stop-opacity="1" stop-color="white"/>
      <stop offset="1" stop-opacity="0" stop-color="white"/>
     </linearGradient>
    <rect fill="url(#id3)" x="275.15" y="116.62" width="181.25" height="181.23"/>
   </mask>
   <mask id="id4">
     <linearGradient id="id5" gradientUnits="userSpaceOnUse" x1="209.72" y1="269.61" x2="161.43" y2="208.74">
      <stop offset="0" stop-opacity="1" stop-color="white"/>
      <stop offset="1" stop-opacity="0" stop-color="white"/>
     </linearGradient>
    <rect fill="url(#id5)" x="49.96" y="117.77" width="181.25" height="181.24"/>
   </mask>
   <mask id="id6">
     <linearGradient id="id7" gradientUnits="userSpaceOnUse" x1="203.78" y1="320.15" x2="120.77" y2="120">
      <stop offset="0" stop-opacity="1" stop-color="white"/>
      <stop offset="1" stop-opacity="0" stop-color="white"/>
     </linearGradient>
    <rect fill="url(#id7)" x="91.32" y="115.48" width="133.09" height="174.94"/>
   </mask>
   <mask id="id8">
     <linearGradient id="id9" gradientUnits="userSpaceOnUse" x1="227.76" y1="143.06" x2="253.8" y2="375.48">
      <stop offset="0" stop-opacity="1" stop-color="white"/>
      <stop offset="1" stop-opacity="0" stop-color="white"/>
     </linearGradient>
    <rect fill="url(#id9)" x="107.44" y="124.2" width="119.87" height="157.5"/>
   </mask>
   <mask id="id10">
     <linearGradient id="id11" gradientUnits="userSpaceOnUse" x1="195.86" y1="144.02" x2="207.39" y2="282.84">
      <stop offset="0" stop-opacity="1" stop-color="white"/>
      <stop offset="1" stop-opacity="0" stop-color="white"/>
     </linearGradient>
    <rect fill="url(#id11)" x="138.99" y="165.85" width="56.77" height="74.2"/>
   </mask>
   <mask id="id12">
     <linearGradient id="id13" gradientUnits="userSpaceOnUse" x1="321.84" y1="314.62" x2="362.42" y2="153.21">
      <stop offset="0" stop-opacity="1" stop-color="white"/>
      <stop offset="1" stop-opacity="0" stop-color="white"/>
     </linearGradient>
    <rect fill="url(#id13)" x="279.48" y="115.48" width="133.09" height="174.94"/>
   </mask>
   <mask id="id14">
     <linearGradient id="id15" gradientUnits="userSpaceOnUse" x1="257.28" y1="155.97" x2="253.8" y2="375.48">
      <stop offset="0" stop-opacity="1" stop-color="white"/>
      <stop offset="1" stop-opacity="0" stop-color="white"/>
     </linearGradient>
    <rect fill="url(#id15)" x="276.58" y="124.2" width="119.88" height="157.5"/>
   </mask>
    <mask id="id16">
      <linearGradient id="id17" gradientUnits="userSpaceOnUse" x1="287.46" y1="145.06" x2="298.99" y2="283.87">
       <stop offset="0" stop-opacity="1" stop-color="white"/>
       <stop offset="1" stop-opacity="0" stop-color="white"/>
      </linearGradient>
     <rect fill="url(#id17)" x="308.9" y="166.89" width="56.78" height="74.2"/>
    </mask>
   <mask id="id18">
     <linearGradient id="id19" gradientUnits="userSpaceOnUse" x1="321.93" y1="99.3" x2="317.61" y2="86.68">
      <stop offset="0" stop-opacity="1" stop-color="white"/>
      <stop offset="1" stop-opacity="0" stop-color="white"/>
     </linearGradient>
    <rect fill="url(#id19)" x="282.78" y="90.69" width="124.9" height="21"/>
   </mask>
   <mask id="id20">
     <linearGradient id="id21" gradientUnits="userSpaceOnUse" x1="179.42" y1="94.68" x2="182.66" y2="81.96">
      <stop offset="0" stop-opacity="1" stop-color="white"/>
      <stop offset="1" stop-opacity="0" stop-color="white"/>
     </linearGradient>
    <rect fill="url(#id21)" x="94.1" y="86.25" width="125.61" height="23.08"/>
   </mask>
 </defs>
 <g id="Layer_x0020_1">
  <metadata id="CorelCorpID_0Corel-Layer"/>
  <circle fill="#FFD500" cx="250.4" cy="246.19" r="246.69"/>
  <path fill="#FEFEFE" mask="url(#id0)" d="M250.4 21.2c124.25,0 224.98,100.73 224.98,224.99 0,124.25 -100.73,224.98 -224.98,224.98 -124.26,0 -224.99,-100.73 -224.99,-224.98 0,-124.26 100.73,-224.99 224.99,-224.99z"/>
  <path fill="#5E5971" mask="url(#id2)" d="M298.49 296.67l131.02 0c12.19,0 34.34,-22.56 22.16,-22.16 -185.55,6.07 -140.67,16.23 -153.18,-153.18 -0.89,-12.16 -22.16,9.98 -22.16,22.17l0 131.01c0,12.19 9.97,22.16 22.16,22.16z"/>
  <path fill="#5E5971" mask="url(#id4)" d="M207.86 297.83l-131.01 0c-12.19,0 -34.35,-22.57 -22.16,-22.17 185.54,6.07 140.66,16.23 153.17,-153.18 0.9,-12.15 22.17,9.98 22.17,22.17l0 131.01c0,12.19 -9.98,22.17 -22.17,22.17z"/>
  <path fill="#5E5971" mask="url(#id6)" d="M157.87 116.66c36.1,0 65.36,38.63 65.36,86.29 0,47.66 -29.26,86.29 -65.36,86.29 -36.1,0 -65.37,-38.63 -65.37,-86.29 0,-47.66 29.27,-86.29 65.37,-86.29z"/>
  <path fill="#FEFEFE" mask="url(#id8)" d="M167.37 125.38c32.46,0 58.76,34.73 58.76,77.57 0,42.84 -26.3,77.57 -58.76,77.57 -32.45,0 -58.75,-34.73 -58.75,-77.57 0,-42.84 26.3,-77.57 58.75,-77.57z"/>
  <path fill="#2B2A29" mask="url(#id10)" d="M167.37 167.03c15.03,0 27.21,16.08 27.21,35.92 0,19.84 -12.18,35.92 -27.21,35.92 -15.02,0 -27.2,-16.08 -27.2,-35.92 0,-19.84 12.18,-35.92 27.2,-35.92z"/>
  <path fill="#5E5971" mask="url(#id12)" d="M346.03 116.66c36.09,0 65.36,38.63 65.36,86.29 0,47.66 -29.27,86.29 -65.36,86.29 -36.1,0 -65.37,-38.63 -65.37,-86.29 0,-47.66 29.27,-86.29 65.37,-86.29z"/>
  <path fill="#FEFEFE" mask="url(#id14)" d="M336.52 125.38c32.45,0 58.76,34.73 58.76,77.57 0,42.84 -26.31,77.57 -58.76,77.57 -32.45,0 -58.76,-34.73 -58.76,-77.57 0,-42.84 26.31,-77.57 58.76,-77.57z"/>
  <ellipse fill="#2B2A29" cx="167.37" cy="202.95" rx="14.68" ry="19.38"/>
  <rect fill="#FEFEFE" x="156.73" y="162.19" width="15.68" height="17.75"/>
  <rect fill="#FEFEFE" x="156.04" y="183.64" width="6.92" height="7.84"/>
  <g id="_2015829688736">
   <path fill="#2B2A29" mask="url(#id16)" d="M337.29 168.07c15.03,0 27.21,16.08 27.21,35.92 0,19.84 -12.18,35.92 -27.21,35.92 -15.03,0 -27.21,-16.08 -27.21,-35.92 0,-19.84 12.18,-35.92 27.21,-35.92z"/>
   <ellipse fill="#2B2A29" cx="338.71" cy="207.58" rx="14.68" ry="19.38"/>
   <rect fill="#FEFEFE" x="317.05" y="189.98" width="6.92" height="7.84"/>
   <rect fill="#FEFEFE" x="318.2" y="167.03" width="15.68" height="17.75"/>
  </g>
  <path fill="#7B481D" mask="url(#id18)" d="M283.96 109.6c29.57,-4.98 84.1,-3.77 122.54,0.91 -29.87,-19.92 -112.1,-28.97 -122.54,-0.91z"/>
  <path fill="#7B481D" mask="url(#id20)" d="M218.53 103.94c-30.2,-4.18 -84.97,-1.51 -123.25,4.21 28.33,-20.71 110.3,-31.95 123.25,-4.21z"/>
  <rect fill="#FFED00" x="169.43" y="351.29" width="173.2" height="43.96" rx="100.16" ry="100.16"/>
  <rect fill="#2B2A29" x="184.23" y="366.1" width="143.59" height="14.36" rx="6.12" ry="6.12"/>
 </g>
</svg>
