<?xml version="1.0" encoding="UTF-8"?>
<!DOCTYPE svg PUBLIC "-//W3C//DTD SVG 1.1//EN" "http://www.w3.org/Graphics/SVG/1.1/DTD/svg11.dtd">
<!-- Creator: CorelDRAW 2017 -->
<svg xmlns="http://www.w3.org/2000/svg" xml:space="preserve" version="1.1" shape-rendering="geometricPrecision" text-rendering="geometricPrecision" image-rendering="optimizeQuality" fill-rule="evenodd" clip-rule="evenodd"
viewBox="0 0 500 500"
 xmlns:xlink="http://www.w3.org/1999/xlink">
 <defs>
   <mask id="id0">
     <linearGradient id="id1" gradientUnits="userSpaceOnUse" x1="-156.81" y1="227.18" x2="249.34" y2="267.69">
      <stop offset="0" stop-opacity="1" stop-color="white"/>
      <stop offset="1" stop-opacity="0" stop-color="white"/>
     </linearGradient>
    <rect fill="url(#id1)" x="32.58" y="33.96" width="435.85" height="435.84"/>
   </mask>
    <mask id="id2">
      <linearGradient id="id3" gradientUnits="userSpaceOnUse" x1="263.14" y1="393.91" x2="264.55" y2="365.2">
       <stop offset="0" stop-opacity="1" stop-color="white"/>
       <stop offset="1" stop-opacity="0" stop-color="white"/>
      </linearGradient>
     <rect fill="url(#id3)" x="158.72" y="351.13" width="185.44" height="35.08"/>
    </mask>
    <linearGradient id="id4" gradientUnits="userSpaceOnUse" x1="174.15" y1="368.67" x2="328.73" y2="368.67">
     <stop offset="0" stop-opacity="1" stop-color="#7B481D"/>
     <stop offset="1" stop-opacity="1" stop-color="#2B2A29"/>
    </linearGradient>
    <mask id="id5">
      <linearGradient id="id6" gradientUnits="userSpaceOnUse" x1="262.3" y1="390.44" x2="260.67" y2="345.44">
       <stop offset="0" stop-opacity="1" stop-color="white"/>
       <stop offset="1" stop-opacity="0" stop-color="white"/>
      </linearGradient>
     <rect fill="url(#id6)" x="162.82" y="331.12" width="184.62" height="35.45"/>
    </mask>
   <mask id="id7">
     <linearGradient id="id8" gradientUnits="userSpaceOnUse" x1="6.83" y1="360.95" x2="160.02" y2="292.41">
      <stop offset="0" stop-opacity="1" stop-color="white"/>
      <stop offset="1" stop-opacity="0" stop-color="white"/>
     </linearGradient>
    <rect fill="url(#id8)" x="39.25" y="236.14" width="144.8" height="158.24"/>
   </mask>
   <mask id="id9">
     <linearGradient id="id10" gradientUnits="userSpaceOnUse" x1="488.78" y1="356.7" x2="335.59" y2="288.17">
      <stop offset="0" stop-opacity="1" stop-color="white"/>
      <stop offset="1" stop-opacity="0" stop-color="white"/>
     </linearGradient>
    <rect fill="url(#id10)" x="311.56" y="231.89" width="144.8" height="158.24"/>
   </mask>
   <mask id="id11">
     <linearGradient id="id12" gradientUnits="userSpaceOnUse" x1="291.43" y1="256.39" x2="333.72" y2="203.08">
      <stop offset="0" stop-opacity="1" stop-color="white"/>
      <stop offset="1" stop-opacity="0" stop-color="white"/>
     </linearGradient>
    <rect fill="url(#id12)" x="272.46" y="123.27" width="159.02" height="159.01"/>
   </mask>
   <mask id="id13">
     <linearGradient id="id14" gradientUnits="userSpaceOnUse" x1="215.31" y1="257.4" x2="173.02" y2="204.09">
      <stop offset="0" stop-opacity="1" stop-color="white"/>
      <stop offset="1" stop-opacity="0" stop-color="white"/>
     </linearGradient>
    <rect fill="url(#id14)" x="75.26" y="124.28" width="159.02" height="159.01"/>
   </mask>
   <mask id="id15">
     <linearGradient id="id16" gradientUnits="userSpaceOnUse" x1="210.11" y1="301.66" x2="137.41" y2="126.38">
      <stop offset="0" stop-opacity="1" stop-color="white"/>
      <stop offset="1" stop-opacity="0" stop-color="white"/>
     </linearGradient>
    <rect fill="url(#id16)" x="111.48" y="122.27" width="116.84" height="153.51"/>
   </mask>
   <mask id="id17">
     <linearGradient id="id18" gradientUnits="userSpaceOnUse" x1="231.11" y1="146.58" x2="253.91" y2="350.12">
      <stop offset="0" stop-opacity="1" stop-color="white"/>
      <stop offset="1" stop-opacity="0" stop-color="white"/>
     </linearGradient>
    <rect fill="url(#id18)" x="125.59" y="129.91" width="105.27" height="138.23"/>
   </mask>
   <mask id="id19">
     <linearGradient id="id20" gradientUnits="userSpaceOnUse" x1="205.46" y1="179.34" x2="215.55" y2="300.91">
      <stop offset="0" stop-opacity="1" stop-color="white"/>
      <stop offset="1" stop-opacity="0" stop-color="white"/>
     </linearGradient>
    <rect fill="url(#id20)" x="155.51" y="198.31" width="50.01" height="65.27"/>
   </mask>
   <mask id="id21">
     <linearGradient id="id22" gradientUnits="userSpaceOnUse" x1="313.5" y1="296.82" x2="349.04" y2="155.46">
      <stop offset="0" stop-opacity="1" stop-color="white"/>
      <stop offset="1" stop-opacity="0" stop-color="white"/>
     </linearGradient>
    <rect fill="url(#id22)" x="276.26" y="122.27" width="116.84" height="153.51"/>
   </mask>
   <mask id="id23">
     <linearGradient id="id24" gradientUnits="userSpaceOnUse" x1="256.96" y1="157.89" x2="253.91" y2="350.12">
      <stop offset="0" stop-opacity="1" stop-color="white"/>
      <stop offset="1" stop-opacity="0" stop-color="white"/>
     </linearGradient>
    <rect fill="url(#id24)" x="273.72" y="129.91" width="105.27" height="138.23"/>
   </mask>
   <mask id="id25">
     <linearGradient id="id26" gradientUnits="userSpaceOnUse" x1="276.88" y1="175.15" x2="286.98" y2="296.72">
      <stop offset="0" stop-opacity="1" stop-color="white"/>
      <stop offset="1" stop-opacity="0" stop-color="white"/>
     </linearGradient>
    <rect fill="url(#id26)" x="295.52" y="194.12" width="50.01" height="65.27"/>
   </mask>
   <mask id="id27">
     <linearGradient id="id28" gradientUnits="userSpaceOnUse" x1="349.93" y1="118.43" x2="353.89" y2="107.91">
      <stop offset="0" stop-opacity="1" stop-color="white"/>
      <stop offset="1" stop-opacity="0" stop-color="white"/>
     </linearGradient>
    <rect fill="url(#id28)" x="328.23" y="109.33" width="52.98" height="40.18"/>
   </mask>
   <mask id="id29">
     <linearGradient id="id30" gradientUnits="userSpaceOnUse" x1="149.38" y1="116.69" x2="145.42" y2="106.16">
      <stop offset="0" stop-opacity="1" stop-color="white"/>
      <stop offset="1" stop-opacity="0" stop-color="white"/>
     </linearGradient>
    <rect fill="url(#id30)" x="118.1" y="107.58" width="52.98" height="40.18"/>
   </mask>
 </defs>
 <g id="Layer_x0020_1">
  <metadata id="CorelCorpID_0Corel-Layer"/>
  <circle fill="#FFD500" cx="249.35" cy="252.65" r="237.65"/>
  <path fill="#FEFEFE" mask="url(#id0)" d="M250.51 35.14c119.7,0 216.74,97.04 216.74,216.74 0,119.7 -97.04,216.74 -216.74,216.74 -119.71,0 -216.75,-97.04 -216.75,-216.74 0,-119.7 97.04,-216.74 216.75,-216.74z"/>
  <g id="_2015839025072">
   <path fill="#2B2A29" mask="url(#id2)" d="M159.9 352.31c51.68,9.53 132,8.48 183.08,0.87 -16.22,35.09 -126.92,49.61 -183.08,-0.87z"/>
   <path fill="url(#id4)" d="M174.16 354.86c43.63,8.04 111.44,7.16 154.57,0.73 -13.7,29.63 -107.16,41.89 -154.57,-0.73z"/>
   <path fill="#EF7F1A" mask="url(#id5)" d="M164 352.46c44.93,17.54 135.48,16.09 182.26,2.53 -58.8,-28.1 -106.22,-31.41 -182.26,-2.53z"/>
  </g>
  <path fill="#E31E24" mask="url(#id7)" d="M111.65 237.32c39.33,0 71.22,34.89 71.22,77.94 0,43.04 -31.89,77.94 -71.22,77.94 -39.34,0 -71.22,-34.9 -71.22,-77.94 0,-43.05 31.88,-77.94 71.22,-77.94z"/>
  <path fill="#E31E24" mask="url(#id9)" d="M383.96 233.07c-39.33,0 -71.22,34.9 -71.22,77.94 0,43.04 31.89,77.94 71.22,77.94 39.34,0 71.22,-34.9 71.22,-77.94 0,-43.04 -31.88,-77.94 -71.22,-77.94z"/>
  <path fill="#5E5971" mask="url(#id11)" d="M293.05 281.1l114.74 0c10.67,0 30.08,-19.76 19.41,-19.41 -162.49,5.32 -123.19,14.21 -134.15,-134.14 -0.78,-10.65 -19.41,8.73 -19.41,19.41l0 114.73c0,10.68 8.74,19.41 19.41,19.41z"/>
  <path fill="#5E5971" mask="url(#id13)" d="M213.69 282.11l-114.74 0c-10.67,0 -30.08,-19.76 -19.41,-19.41 162.49,5.31 123.19,14.21 134.15,-134.14 0.78,-10.65 19.41,8.73 19.41,19.41l0 114.73c0,10.68 -8.74,19.41 -19.41,19.41z"/>
  <path fill="#5E5971" mask="url(#id15)" d="M169.9 123.45c31.61,0 57.24,33.84 57.24,75.57 0,41.74 -25.63,75.58 -57.24,75.58 -31.61,0 -57.24,-33.84 -57.24,-75.58 0,-41.73 25.63,-75.57 57.24,-75.57z"/>
  <path fill="#FEFEFE" mask="url(#id17)" d="M178.23 131.09c28.42,0 51.45,30.42 51.45,67.93 0,37.52 -23.03,67.94 -51.45,67.94 -28.42,0 -51.46,-30.42 -51.46,-67.94 0,-37.51 23.04,-67.93 51.46,-67.93z"/>
  <path fill="#2B2A29" mask="url(#id19)" d="M180.51 199.49c13.16,0 23.83,14.09 23.83,31.46 0,17.37 -10.67,31.45 -23.83,31.45 -13.16,0 -23.82,-14.08 -23.82,-31.45 0,-17.37 10.66,-31.46 23.82,-31.46z"/>
  <ellipse fill="#2B2A29" cx="181.83" cy="231.22" rx="14.9" ry="19.67"/>
  <path fill="#5E5971" mask="url(#id21)" d="M334.68 123.45c31.61,0 57.24,33.84 57.24,75.57 0,41.74 -25.63,75.58 -57.24,75.58 -31.61,0 -57.24,-33.84 -57.24,-75.58 0,-41.73 25.63,-75.57 57.24,-75.57z"/>
  <path fill="#FEFEFE" mask="url(#id23)" d="M326.35 131.09c28.42,0 51.46,30.42 51.46,67.93 0,37.52 -23.04,67.94 -51.46,67.94 -28.41,0 -51.45,-30.42 -51.45,-67.94 0,-37.51 23.04,-67.93 51.45,-67.93z"/>
  <path fill="#2B2A29" mask="url(#id25)" d="M320.52 195.3c13.16,0 23.83,14.09 23.83,31.46 0,17.37 -10.67,31.45 -23.83,31.45 -13.16,0 -23.82,-14.08 -23.82,-31.45 0,-17.37 10.66,-31.46 23.82,-31.46z"/>
  <ellipse fill="#2B2A29" cx="321.19" cy="235.05" rx="12.86" ry="16.97"/>
  <rect fill="#FEFEFE" x="171.19" y="195.25" width="13.73" height="15.55"/>
  <rect fill="#FEFEFE" x="170.59" y="214.03" width="6.06" height="6.86"/>
  <rect fill="#FEFEFE" x="302.79" y="214.49" width="6.06" height="6.86"/>
  <rect fill="#FEFEFE" x="303.8" y="194.39" width="13.73" height="15.55"/>
  <path fill="#2B2A29" mask="url(#id27)" d="M329.41 116.47c14.59,3.8 36.75,18.58 50.62,31.86 -3.34,-22.49 -33.46,-50.17 -50.62,-31.86z"/>
  <path fill="#2B2A29" mask="url(#id29)" d="M169.9 114.73c-14.59,3.8 -36.75,18.57 -50.62,31.85 3.34,-22.49 33.46,-50.17 50.62,-31.85z"/>
 </g>
</svg>
