<?xml version="1.0" encoding="UTF-8"?>
<!DOCTYPE svg PUBLIC "-//W3C//DTD SVG 1.1//EN" "http://www.w3.org/Graphics/SVG/1.1/DTD/svg11.dtd">
<!-- Creator: CorelDRAW 2017 -->
<svg xmlns="http://www.w3.org/2000/svg" xml:space="preserve" version="1.1" shape-rendering="geometricPrecision" text-rendering="geometricPrecision" image-rendering="optimizeQuality" fill-rule="evenodd" clip-rule="evenodd"
viewBox="0 0 500 500"
 xmlns:xlink="http://www.w3.org/1999/xlink">
 <defs>
   <mask id="id0">
     <linearGradient id="id1" gradientUnits="userSpaceOnUse" x1="-154.74" y1="230.19" x2="252.47" y2="270.81">
      <stop offset="0" stop-opacity="1" stop-color="white"/>
      <stop offset="1" stop-opacity="0" stop-color="white"/>
     </linearGradient>
    <rect fill="url(#id1)" x="35.15" y="36.47" width="436.98" height="436.98"/>
   </mask>
   <mask id="id2">
     <linearGradient id="id3" gradientUnits="userSpaceOnUse" x1="299.04" y1="279.92" x2="347.01" y2="219.46">
      <stop offset="0" stop-opacity="1" stop-color="white"/>
      <stop offset="1" stop-opacity="0" stop-color="white"/>
     </linearGradient>
    <rect fill="url(#id3)" x="277.69" y="129.11" width="180.04" height="180.02"/>
   </mask>
   <mask id="id4">
     <linearGradient id="id5" gradientUnits="userSpaceOnUse" x1="212.72" y1="281.07" x2="164.76" y2="220.61">
      <stop offset="0" stop-opacity="1" stop-color="white"/>
      <stop offset="1" stop-opacity="0" stop-color="white"/>
     </linearGradient>
    <rect fill="url(#id5)" x="54.04" y="130.25" width="180.03" height="180.02"/>
   </mask>
   <mask id="id6">
     <linearGradient id="id7" gradientUnits="userSpaceOnUse" x1="206.82" y1="331.27" x2="124.37" y2="132.48">
      <stop offset="0" stop-opacity="1" stop-color="white"/>
      <stop offset="1" stop-opacity="0" stop-color="white"/>
     </linearGradient>
    <rect fill="url(#id7)" x="95.12" y="127.98" width="132.2" height="173.77"/>
   </mask>
   <mask id="id8">
     <linearGradient id="id9" gradientUnits="userSpaceOnUse" x1="230.64" y1="155.38" x2="256.49" y2="386.22">
      <stop offset="0" stop-opacity="1" stop-color="white"/>
      <stop offset="1" stop-opacity="0" stop-color="white"/>
     </linearGradient>
    <rect fill="url(#id9)" x="111.12" y="136.64" width="119.08" height="156.45"/>
   </mask>
   <mask id="id10">
     <linearGradient id="id11" gradientUnits="userSpaceOnUse" x1="216.27" y1="131.53" x2="227.72" y2="269.4">
      <stop offset="0" stop-opacity="1" stop-color="white"/>
      <stop offset="1" stop-opacity="0" stop-color="white"/>
     </linearGradient>
    <rect fill="url(#id11)" x="159.78" y="153.2" width="56.4" height="73.71"/>
   </mask>
   <mask id="id12">
     <linearGradient id="id13" gradientUnits="userSpaceOnUse" x1="324.08" y1="325.77" x2="364.38" y2="165.46">
      <stop offset="0" stop-opacity="1" stop-color="white"/>
      <stop offset="1" stop-opacity="0" stop-color="white"/>
     </linearGradient>
    <rect fill="url(#id13)" x="282" y="127.98" width="132.2" height="173.77"/>
   </mask>
   <mask id="id14">
     <linearGradient id="id15" gradientUnits="userSpaceOnUse" x1="259.95" y1="168.21" x2="256.49" y2="386.22">
      <stop offset="0" stop-opacity="1" stop-color="white"/>
      <stop offset="1" stop-opacity="0" stop-color="white"/>
     </linearGradient>
    <rect fill="url(#id15)" x="279.12" y="136.64" width="119.07" height="156.45"/>
   </mask>
   <mask id="id16">
     <linearGradient id="id17" gradientUnits="userSpaceOnUse" x1="305.74" y1="126.63" x2="317.2" y2="264.5">
      <stop offset="0" stop-opacity="1" stop-color="white"/>
      <stop offset="1" stop-opacity="0" stop-color="white"/>
     </linearGradient>
    <rect fill="url(#id17)" x="327.04" y="148.31" width="56.4" height="73.7"/>
   </mask>
   <mask id="id18">
     <linearGradient id="id19" gradientUnits="userSpaceOnUse" x1="198.47" y1="133.31" x2="212.1" y2="119.48">
      <stop offset="0" stop-opacity="1" stop-color="white"/>
      <stop offset="1" stop-opacity="0" stop-color="white"/>
     </linearGradient>
    <rect fill="url(#id19)" x="128.68" y="104.12" width="91.45" height="61.08"/>
   </mask>
   <mask id="id20">
     <linearGradient id="id21" gradientUnits="userSpaceOnUse" x1="307.49" y1="136.6" x2="293.87" y2="122.77">
      <stop offset="0" stop-opacity="1" stop-color="white"/>
      <stop offset="1" stop-opacity="0" stop-color="white"/>
     </linearGradient>
    <rect fill="url(#id21)" x="285.83" y="107.41" width="91.46" height="61.08"/>
   </mask>
 </defs>
 <g id="Layer_x0020_1">
  <metadata id="CorelCorpID_0Corel-Layer"/>
  <circle fill="#FFD500" cx="252.48" cy="255.73" r="238.27"/>
  <path fill="#FEFEFE" mask="url(#id0)" d="M253.64 37.65c120.01,0 217.31,97.29 217.31,217.31 0,120.01 -97.3,217.31 -217.31,217.31 -120.01,0 -217.31,-97.3 -217.31,-217.31 0,-120.02 97.3,-217.31 217.31,-217.31z"/>
  <path fill="#5E5971" mask="url(#id2)" d="M300.89 307.95l130.12 0c12.11,0 34.12,-22.41 22.02,-22.01 -184.29,6.02 -139.72,16.11 -152.14,-152.14 -0.89,-12.08 -22.02,9.91 -22.02,22.01l0 130.13c0,12.1 9.91,22.01 22.02,22.01z"/>
  <path fill="#5E5971" mask="url(#id4)" d="M210.87 309.09l-130.12 0c-12.11,0 -34.11,-22.41 -22.01,-22.01 184.28,6.03 139.71,16.11 152.13,-152.14 0.9,-12.07 22.02,9.91 22.02,22.02l0 130.12c0,12.11 -9.91,22.01 -22.02,22.01z"/>
  <path fill="#5E5971" mask="url(#id6)" d="M161.22 129.16c35.85,0 64.92,38.37 64.92,85.7 0,47.34 -29.07,85.71 -64.92,85.71 -35.86,0 -64.92,-38.37 -64.92,-85.71 0,-47.33 29.06,-85.7 64.92,-85.7z"/>
  <path fill="#FEFEFE" mask="url(#id8)" d="M170.66 137.82c32.23,0 58.36,34.49 58.36,77.04 0,42.55 -26.13,77.05 -58.36,77.05 -32.23,0 -58.36,-34.5 -58.36,-77.05 0,-42.55 26.13,-77.04 58.36,-77.04z"/>
  <path fill="#2B2A29" mask="url(#id10)" d="M187.98 154.38c14.92,0 27.02,15.97 27.02,35.68 0,19.7 -12.1,35.67 -27.02,35.67 -14.92,0 -27.02,-15.97 -27.02,-35.67 0,-19.71 12.1,-35.68 27.02,-35.68z"/>
  <path fill="#5E5971" mask="url(#id12)" d="M348.1 129.16c35.85,0 64.92,38.37 64.92,85.7 0,47.34 -29.07,85.71 -64.92,85.71 -35.86,0 -64.92,-38.37 -64.92,-85.71 0,-47.33 29.06,-85.7 64.92,-85.7z"/>
  <path fill="#FEFEFE" mask="url(#id14)" d="M338.66 137.82c32.23,0 58.35,34.49 58.35,77.04 0,42.55 -26.12,77.05 -58.35,77.05 -32.24,0 -58.36,-34.5 -58.36,-77.05 0,-42.55 26.12,-77.04 58.36,-77.04z"/>
  <path fill="#2B2A29" mask="url(#id16)" d="M355.24 149.49c14.92,0 27.02,15.97 27.02,35.67 0,19.7 -12.1,35.67 -27.02,35.67 -14.93,0 -27.02,-15.97 -27.02,-35.67 0,-19.7 12.09,-35.67 27.02,-35.67z"/>
  <ellipse fill="#2B2A29" cx="361.79" cy="174.15" rx="14.58" ry="19.25"/>
  <ellipse fill="#2B2A29" cx="195.4" cy="183.17" rx="14.58" ry="19.25"/>
  <rect fill="#FEFEFE" x="177.41" y="149.57" width="15.57" height="17.63"/>
  <rect fill="#FEFEFE" x="176.72" y="170.87" width="6.87" height="7.78"/>
  <rect fill="#FEFEFE" x="335.13" y="171.25" width="6.87" height="7.78"/>
  <rect fill="#FEFEFE" x="336.28" y="148.46" width="15.57" height="17.63"/>
  <path fill="#2B2A29" mask="url(#id18)" d="M216.39 164.02c-16.51,-20.1 -55.69,-44.13 -86.53,-56.25 37.66,-11.03 102.81,16.13 86.53,56.25z"/>
  <path fill="#2B2A29" mask="url(#id20)" d="M289.58 167.31c16.5,-20.1 55.69,-44.13 86.53,-56.25 -37.66,-11.03 -102.81,16.13 -86.53,56.25z"/>
  <path fill="#B2B3B3" d="M170.04 383.86c89.76,-26.48 119.76,-5.83 141.47,-10.94 11.99,-2.82 9.67,-14.34 -6.02,-20.06 -29.78,-10.87 -97.55,-11.72 -135.45,31z"/>
  <path fill="#2B2A29" d="M186.4 382.53c71.22,-21.01 95.02,-4.62 112.25,-8.67 9.52,-2.24 7.68,-11.39 -4.77,-15.93 -23.63,-8.62 -77.41,-9.29 -107.48,24.6z"/>
 </g>
</svg>
