<?xml version="1.0" encoding="UTF-8"?>
<!DOCTYPE svg PUBLIC "-//W3C//DTD SVG 1.1//EN" "http://www.w3.org/Graphics/SVG/1.1/DTD/svg11.dtd">
<!-- Creator: CorelDRAW 2017 -->
<svg xmlns="http://www.w3.org/2000/svg" xml:space="preserve" version="1.1" shape-rendering="geometricPrecision" text-rendering="geometricPrecision" image-rendering="optimizeQuality" fill-rule="evenodd" clip-rule="evenodd"
viewBox="0 0 500 500"
 xmlns:xlink="http://www.w3.org/1999/xlink">
 <defs>
   <mask id="id0">
     <linearGradient id="id1" gradientUnits="userSpaceOnUse" x1="-166.21" y1="222.56" x2="248.6" y2="263.93">
      <stop offset="0" stop-opacity="1" stop-color="white"/>
      <stop offset="1" stop-opacity="0" stop-color="white"/>
     </linearGradient>
    <rect fill="url(#id1)" x="27.25" y="25.25" width="445.08" height="445.08"/>
   </mask>
   <mask id="id2">
     <linearGradient id="id3" gradientUnits="userSpaceOnUse" x1="298.55" y1="236.03" x2="351.31" y2="169.53">
      <stop offset="0" stop-opacity="1" stop-color="white"/>
      <stop offset="1" stop-opacity="0" stop-color="white"/>
     </linearGradient>
    <rect fill="url(#id3)" x="275.19" y="70.25" width="197.8" height="197.79"/>
   </mask>
   <mask id="id4">
     <linearGradient id="id5" gradientUnits="userSpaceOnUse" x1="203.6" y1="235.09" x2="150.84" y2="168.59">
      <stop offset="0" stop-opacity="1" stop-color="white"/>
      <stop offset="1" stop-opacity="0" stop-color="white"/>
     </linearGradient>
    <rect fill="url(#id5)" x="29.16" y="69.32" width="197.8" height="197.78"/>
   </mask>
   <mask id="id6">
     <linearGradient id="id7" gradientUnits="userSpaceOnUse" x1="151.43" y1="201.09" x2="151.43" y2="360.35">
      <stop offset="0" stop-opacity="1" stop-color="white"/>
      <stop offset="1" stop-opacity="0" stop-color="white"/>
     </linearGradient>
    <rect fill="url(#id7)" x="122.53" y="114.43" width="107.26" height="140.86"/>
   </mask>
   <mask id="id8">
     <linearGradient id="id9" gradientUnits="userSpaceOnUse" x1="220.36" y1="137.61" x2="230.66" y2="261.52">
      <stop offset="0" stop-opacity="1" stop-color="white"/>
      <stop offset="1" stop-opacity="0" stop-color="white"/>
     </linearGradient>
    <rect fill="url(#id9)" x="169.47" y="156.97" width="50.93" height="66.48"/>
   </mask>
   <mask id="id10">
     <linearGradient id="id11" gradientUnits="userSpaceOnUse" x1="276.37" y1="202.25" x2="279.98" y2="333.47">
      <stop offset="0" stop-opacity="1" stop-color="white"/>
      <stop offset="1" stop-opacity="0" stop-color="white"/>
     </linearGradient>
    <rect fill="url(#id11)" x="273.52" y="114.43" width="107.26" height="140.86"/>
   </mask>
   <mask id="id12">
     <linearGradient id="id13" gradientUnits="userSpaceOnUse" x1="266.88" y1="136.37" x2="277.18" y2="260.29">
      <stop offset="0" stop-opacity="1" stop-color="white"/>
      <stop offset="1" stop-opacity="0" stop-color="white"/>
     </linearGradient>
    <rect fill="url(#id13)" x="285.9" y="155.73" width="50.93" height="66.49"/>
   </mask>
   <mask id="id14">
     <linearGradient id="id15" gradientUnits="userSpaceOnUse" x1="263.12" y1="438.34" x2="264.52" y2="355.61">
      <stop offset="0" stop-opacity="1" stop-color="white"/>
      <stop offset="1" stop-opacity="0" stop-color="white"/>
     </linearGradient>
    <rect fill="url(#id15)" x="159.25" y="317.29" width="184.46" height="96.66"/>
   </mask>
   <linearGradient id="id16" gradientUnits="userSpaceOnUse" x1="174.61" y1="365.62" x2="328.36" y2="365.62">
    <stop offset="0" stop-opacity="1" stop-color="#7B481D"/>
    <stop offset="1" stop-opacity="1" stop-color="#2B2A29"/>
   </linearGradient>
   <mask id="id17">
     <linearGradient id="id18" gradientUnits="userSpaceOnUse" x1="359.19" y1="90.73" x2="363.23" y2="80">
      <stop offset="0" stop-opacity="1" stop-color="white"/>
      <stop offset="1" stop-opacity="0" stop-color="white"/>
     </linearGradient>
    <rect fill="url(#id18)" x="337.1" y="81.47" width="53.96" height="40.91"/>
   </mask>
   <mask id="id19">
     <linearGradient id="id20" gradientUnits="userSpaceOnUse" x1="139.25" y1="93.98" x2="135.21" y2="83.24">
      <stop offset="0" stop-opacity="1" stop-color="white"/>
      <stop offset="1" stop-opacity="0" stop-color="white"/>
     </linearGradient>
    <rect fill="url(#id20)" x="107.39" y="84.72" width="53.95" height="40.91"/>
   </mask>
   <mask id="id21">
     <linearGradient id="id22" gradientUnits="userSpaceOnUse" x1="255.95" y1="365.26" x2="254.33" y2="310.38">
      <stop offset="0" stop-opacity="1" stop-color="white"/>
      <stop offset="1" stop-opacity="0" stop-color="white"/>
     </linearGradient>
    <rect fill="url(#id22)" x="156.99" y="293.18" width="183.65" height="42.71"/>
   </mask>
   <mask id="id23">
     <linearGradient id="id24" gradientUnits="userSpaceOnUse" x1="265.89" y1="381.85" x2="183.24" y2="446.53">
      <stop offset="0" stop-opacity="1" stop-color="white"/>
      <stop offset="1" stop-opacity="0" stop-color="white"/>
     </linearGradient>
    <rect fill="url(#id24)" x="167.65" y="380.19" width="139.27" height="85.45"/>
   </mask>
   <mask id="id25">
     <linearGradient id="id26" gradientUnits="userSpaceOnUse" x1="212.46" y1="434.68" x2="237.51" y2="399.97">
      <stop offset="0" stop-opacity="1" stop-color="white"/>
      <stop offset="1" stop-opacity="0" stop-color="white"/>
     </linearGradient>
    <rect fill="url(#id26)" x="199.76" y="370.52" width="54.17" height="73.21"/>
   </mask>
   <mask id="id27">
     <linearGradient id="id28" gradientUnits="userSpaceOnUse" x1="268.04" y1="441.26" x2="297.28" y2="395.76">
      <stop offset="0" stop-opacity="1" stop-color="white"/>
      <stop offset="1" stop-opacity="0" stop-color="white"/>
     </linearGradient>
    <rect fill="url(#id28)" x="264.13" y="370.84" width="51.21" height="71.6"/>
   </mask>
 </defs>
 <g id="Layer_x0020_1">
  <metadata id="CorelCorpID_0Corel-Layer"/>
  <circle fill="#FFD500" cx="249.79" cy="247.79" r="242.72"/>
  <path fill="#FEFEFE" mask="url(#id0)" d="M249.79 26.43c122.25,0 221.36,99.1 221.36,221.36 0,122.25 -99.11,221.36 -221.36,221.36 -122.26,0 -221.36,-99.11 -221.36,-221.36 0,-122.26 99.1,-221.36 221.36,-221.36z"/>
  <path fill="#5E5971" mask="url(#id2)" d="M300.58 266.86l143.14 0c13.31,0 37.52,-24.65 24.21,-24.21 -202.71,6.62 -153.68,17.72 -167.35,-167.35 -0.98,-13.29 -24.21,10.89 -24.21,24.21l0 143.14c0,13.31 10.89,24.21 24.21,24.21z"/>
  <path fill="#5E5971" mask="url(#id4)" d="M201.57 265.92l-143.14 0c-13.32,0 -37.52,-24.65 -24.21,-24.21 202.71,6.63 153.68,17.72 167.35,-167.35 0.98,-13.28 24.21,10.89 24.21,24.21l0 143.14c0,13.32 -10.89,24.21 -24.21,24.21z"/>
  <ellipse fill="#2B2A29" cx="167.67" cy="184.86" rx="58.35" ry="77.03"/>
  <path fill="#FEFEFE" mask="url(#id6)" d="M176.16 115.61c28.97,0 52.45,31.01 52.45,69.25 0,38.25 -23.48,69.25 -52.45,69.25 -28.97,0 -52.45,-31 -52.45,-69.25 0,-38.24 23.48,-69.25 52.45,-69.25z"/>
  <path fill="#2B2A29" mask="url(#id8)" d="M194.94 158.15c13.41,0 24.28,14.35 24.28,32.06 0,17.71 -10.87,32.06 -24.28,32.06 -13.42,0 -24.29,-14.35 -24.29,-32.06 0,-17.71 10.87,-32.06 24.29,-32.06z"/>
  <ellipse fill="#2B2A29" cx="195.76" cy="178.68" rx="15.19" ry="20.05"/>
  <ellipse fill="#2B2A29" cx="335.64" cy="184.86" rx="58.35" ry="77.03"/>
  <path fill="#FEFEFE" mask="url(#id10)" d="M327.15 115.61c28.97,0 52.45,31.01 52.45,69.25 0,38.25 -23.48,69.25 -52.45,69.25 -28.97,0 -52.45,-31 -52.45,-69.25 0,-38.24 23.48,-69.25 52.45,-69.25z"/>
  <path fill="#2B2A29" mask="url(#id12)" d="M311.37 156.91c13.41,0 24.28,14.36 24.28,32.06 0,17.71 -10.87,32.07 -24.28,32.07 -13.41,0 -24.29,-14.36 -24.29,-32.07 0,-17.7 10.88,-32.06 24.29,-32.06z"/>
  <ellipse fill="#2B2A29" cx="306.02" cy="175.39" rx="13.11" ry="17.3"/>
  <rect fill="#FEFEFE" x="185.44" y="153.82" width="14" height="15.85"/>
  <rect fill="#FEFEFE" x="184.82" y="172.97" width="6.18" height="7"/>
  <rect fill="#FEFEFE" x="293.3" y="176.47" width="6.18" height="7"/>
  <rect fill="#FEFEFE" x="294.33" y="155.98" width="14" height="15.85"/>
  <path fill="#2B2A29" mask="url(#id14)" d="M160.43 318.47c51.4,27.46 131.29,24.44 182.1,2.52 -16.13,101.11 -126.24,142.93 -182.1,-2.52z"/>
  <path fill="url(#id16)" d="M151.49 324.53c43.4,23.19 159.65,16.78 202.55,-1.72 -13.62,85.36 -155.39,124.52 -202.55,1.72z"/>
  <path fill="#2B2A29" mask="url(#id17)" d="M338.28 88.73c14.88,3.87 37.46,18.94 51.6,32.47 -3.41,-22.92 -34.11,-51.14 -51.6,-32.47z"/>
  <path fill="#2B2A29" mask="url(#id19)" d="M160.16 91.97c-14.87,3.88 -37.45,18.94 -51.59,32.48 3.41,-22.93 34.11,-51.14 51.59,-32.48z"/>
  <path fill="#EF7F1A" mask="url(#id21)" d="M158.17 318.95c44.69,21.38 134.76,19.61 181.29,3.07 -58.49,-34.26 -105.66,-38.3 -181.29,-3.07z"/>
  <path fill="#2B2A29" mask="url(#id23)" d="M234.4 386.33c18.46,0 38.11,-9.81 50.42,-1.74 12.9,8.44 20.92,20.3 20.92,33.42 0,25.66 -30.65,46.45 -68.45,46.45 -37.81,0 -68.46,-20.79 -68.46,-46.45 0,-13.15 8.06,-25.03 21.01,-33.48 12.3,-8.03 26.13,1.8 44.56,1.8z"/>
  <path fill="#E31E24" d="M254.97 370.67c18.47,0 38.12,-9.81 50.43,-1.74 12.9,8.44 20.92,20.3 20.92,33.42 0,25.66 -30.65,46.46 -68.46,46.46 -37.81,0 -68.45,-20.8 -68.45,-46.46 0,-13.15 8.05,-25.03 21,-33.48 12.31,-8.03 26.14,1.8 44.56,1.8z"/>
  <path fill="#FEFEFE" mask="url(#id25)" d="M201.38 391.69c-4.27,34.38 23.55,46.61 51.37,50.86 -3.1,-26.62 -5.53,-46.41 -3.05,-65.34 -22.18,-9.18 -45.47,-8.48 -48.32,14.48z"/>
  <path fill="#FEFEFE" mask="url(#id27)" d="M313.63 392.01c4.27,34.38 -17.77,45.01 -45.59,49.25 3.1,-26.61 -0.25,-44.8 -2.73,-63.73 22.18,-9.18 45.47,-8.47 48.32,14.48z"/>
 </g>
</svg>
