<?xml version="1.0" encoding="UTF-8"?>
<!DOCTYPE svg PUBLIC "-//W3C//DTD SVG 1.1//EN" "http://www.w3.org/Graphics/SVG/1.1/DTD/svg11.dtd">
<!-- Creator: CorelDRAW 2017 -->
<svg xmlns="http://www.w3.org/2000/svg" xml:space="preserve" version="1.1" shape-rendering="geometricPrecision" text-rendering="geometricPrecision" image-rendering="optimizeQuality" fill-rule="evenodd" clip-rule="evenodd"
viewBox="0 0 500 500"
 xmlns:xlink="http://www.w3.org/1999/xlink">
 <defs>
   <mask id="id0">
     <linearGradient id="id1" gradientUnits="userSpaceOnUse" x1="297.62" y1="293.41" x2="352.03" y2="238.9">
      <stop offset="0" stop-opacity="1" stop-color="white"/>
      <stop offset="1" stop-opacity="0" stop-color="white"/>
     </linearGradient>
    <rect fill="url(#id1)" x="275.61" y="143.73" width="178.45" height="193.69"/>
   </mask>
   <mask id="id2">
     <linearGradient id="id3" gradientUnits="userSpaceOnUse" x1="241.74" y1="283.52" x2="195.8" y2="209.73">
      <stop offset="0" stop-opacity="1" stop-color="white"/>
      <stop offset="1" stop-opacity="0" stop-color="white"/>
     </linearGradient>
    <rect fill="url(#id3)" x="63.22" y="114.98" width="218.23" height="201.01"/>
   </mask>
   <mask id="id4">
     <linearGradient id="id5" gradientUnits="userSpaceOnUse" x1="117.54" y1="319.91" x2="253.75" y2="119.41">
      <stop offset="0" stop-opacity="1" stop-color="white"/>
      <stop offset="1" stop-opacity="0" stop-color="white"/>
     </linearGradient>
    <rect fill="url(#id5)" x="118.93" y="105.01" width="150.84" height="193.77"/>
   </mask>
   <mask id="id6">
     <linearGradient id="id7" gradientUnits="userSpaceOnUse" x1="131.32" y1="120.47" x2="50.23" y2="369.22">
      <stop offset="0" stop-opacity="1" stop-color="white"/>
      <stop offset="1" stop-opacity="0" stop-color="white"/>
     </linearGradient>
    <rect fill="url(#id7)" x="116.01" y="112.53" width="135.84" height="174.43"/>
   </mask>
   <mask id="id8">
     <linearGradient id="id9" gradientUnits="userSpaceOnUse" x1="165.59" y1="129.02" x2="202.14" y2="280.49">
      <stop offset="0" stop-opacity="1" stop-color="white"/>
      <stop offset="1" stop-opacity="0" stop-color="white"/>
     </linearGradient>
    <rect fill="url(#id9)" x="183.84" y="141.07" width="65.44" height="81.03"/>
   </mask>
   <mask id="id10">
     <linearGradient id="id11" gradientUnits="userSpaceOnUse" x1="197.9" y1="162.34" x2="211.28" y2="217.8">
      <stop offset="0" stop-opacity="1" stop-color="white"/>
      <stop offset="1" stop-opacity="0" stop-color="white"/>
     </linearGradient>
    <rect fill="url(#id11)" x="203.83" y="166.01" width="25.46" height="31.16"/>
   </mask>
   <mask id="id12">
     <linearGradient id="id13" gradientUnits="userSpaceOnUse" x1="349.28" y1="269.68" x2="414.39" y2="118.81">
      <stop offset="0" stop-opacity="1" stop-color="white"/>
      <stop offset="1" stop-opacity="0" stop-color="white"/>
     </linearGradient>
    <rect fill="url(#id13)" x="293.75" y="123.43" width="152.78" height="192.27"/>
   </mask>
   <mask id="id14">
     <linearGradient id="id15" gradientUnits="userSpaceOnUse" x1="289.37" y1="141.5" x2="217.4" y2="376.31">
      <stop offset="0" stop-opacity="1" stop-color="white"/>
      <stop offset="1" stop-opacity="0" stop-color="white"/>
     </linearGradient>
    <rect fill="url(#id15)" x="291.14" y="130.07" width="137.57" height="173.08"/>
   </mask>
   <mask id="id16">
     <linearGradient id="id17" gradientUnits="userSpaceOnUse" x1="309.14" y1="144.28" x2="361.78" y2="290.94">
      <stop offset="0" stop-opacity="1" stop-color="white"/>
      <stop offset="1" stop-opacity="0" stop-color="white"/>
     </linearGradient>
    <rect fill="url(#id17)" x="347.68" y="152.74" width="64.74" height="81.58"/>
   </mask>
   <mask id="id18">
     <linearGradient id="id19" gradientUnits="userSpaceOnUse" x1="349.59" y1="172.37" x2="372.2" y2="235.38">
      <stop offset="0" stop-opacity="1" stop-color="white"/>
      <stop offset="1" stop-opacity="0" stop-color="white"/>
     </linearGradient>
    <rect fill="url(#id19)" x="365.47" y="175.33" width="29.16" height="36.4"/>
   </mask>
   <mask id="id20">
     <linearGradient id="id21" gradientUnits="userSpaceOnUse" x1="367.25" y1="93.5" x2="362.19" y2="80.05">
      <stop offset="0" stop-opacity="1" stop-color="white"/>
      <stop offset="1" stop-opacity="0" stop-color="white"/>
     </linearGradient>
    <rect fill="url(#id21)" x="327.62" y="82.2" width="67.02" height="50.67"/>
   </mask>
   <mask id="id22">
     <linearGradient id="id23" gradientUnits="userSpaceOnUse" x1="189.64" y1="71.12" x2="180.78" y2="47.57">
      <stop offset="0" stop-opacity="1" stop-color="white"/>
      <stop offset="1" stop-opacity="0" stop-color="white"/>
     </linearGradient>
    <rect fill="url(#id23)" x="121.12" y="52.21" width="115.6" height="86.97"/>
   </mask>
    <mask id="id24">
      <linearGradient id="id25" gradientUnits="userSpaceOnUse" x1="315.1" y1="405.57" x2="159.18" y2="390.56">
       <stop offset="0" stop-opacity="1" stop-color="white"/>
       <stop offset="1" stop-opacity="0" stop-color="white"/>
      </linearGradient>
     <rect fill="url(#id25)" x="115.19" y="365.65" width="182.36" height="54.55"/>
    </mask>
     <mask id="id26">
       <linearGradient id="id27" gradientUnits="userSpaceOnUse" x1="211.13" y1="400.88" x2="196.31" y2="363.92">
        <stop offset="0" stop-opacity="1" stop-color="white"/>
        <stop offset="1" stop-opacity="0" stop-color="white"/>
       </linearGradient>
      <rect fill="url(#id27)" x="114.43" y="360.39" width="181.22" height="34.95"/>
     </mask>
 </defs>
 <g id="Layer_x0020_1">
  <metadata id="CorelCorpID_0Corel-Layer"/>
  <circle fill="#FFD500" cx="250.18" cy="256.83" r="241.68"/>
  <path fill="#5E5971" mask="url(#id0)" d="M296.27 321.42l129.03 14.75c12.01,1.37 36.37,-18.36 24.33,-19.33 -183.43,-14.92 -140.37,0.13 -133.61,-168.11 0.48,-12.08 -22.96,7.32 -24.33,19.33l-14.75 129.03c-1.37,12.01 7.33,22.95 19.33,24.33z"/>
  <path fill="#5E5971" mask="url(#id2)" d="M236.09 314.65l-145.62 -16.65c-13.55,-1.55 -35.31,-29.44 -21.82,-27.45 205.46,30.32 154.29,35.91 189.72,-150.79 2.54,-13.39 23.36,13.91 21.81,27.46l-16.64 145.61c-1.55,13.55 -13.91,23.37 -27.45,21.82z"/>
  <path fill="#2B2A29" mask="url(#id4)" d="M213.87 107.36c-39.55,-8.17 -80.35,27.54 -91.13,79.75 -10.78,52.22 12.54,101.16 52.09,109.33 39.55,8.16 80.35,-27.55 91.13,-79.76 10.78,-52.21 -12.54,-101.16 -52.09,-109.32z"/>
  <path fill="#FEFEFE" mask="url(#id6)" d="M201.48 114.76c-35.55,-7.34 -72.23,24.76 -81.92,71.7 -9.69,46.93 11.27,90.93 46.83,98.27 35.55,7.34 72.23,-24.76 81.92,-71.7 9.69,-46.93 -11.28,-90.93 -46.83,-98.27z"/>
  <path fill="#2B2A29" mask="url(#id8)" d="M203.93 143.45c-15.95,5.28 -23.24,26.64 -16.27,47.7 6.98,21.07 25.57,33.87 41.52,28.58 15.96,-5.28 23.24,-26.64 16.27,-47.7 -6.97,-21.07 -25.56,-33.87 -41.52,-28.58z"/>
  <path fill="#2B2A29" mask="url(#id10)" d="M211.94 167.62c-5.85,1.94 -8.51,9.76 -5.96,17.47 2.55,7.71 9.36,12.4 15.2,10.46 5.84,-1.93 8.51,-9.75 5.96,-17.46 -2.56,-7.71 -9.36,-12.4 -15.2,-10.47z"/>
  <path fill="#2B2A29" mask="url(#id12)" d="M396.96 126.83c38.8,11.22 58.24,61.84 43.42,113.05 -14.81,51.22 -58.27,83.64 -97.06,72.42 -38.79,-11.22 -58.23,-61.83 -43.42,-113.05 14.81,-51.21 58.27,-83.64 97.06,-72.42z"/>
  <path fill="#FEFEFE" mask="url(#id14)" d="M384.04 133.25c34.87,10.09 52.34,55.59 39.03,101.62 -13.32,46.04 -52.38,75.19 -87.26,65.1 -34.87,-10.08 -52.34,-55.58 -39.03,-101.62 13.32,-46.04 52.38,-75.19 87.26,-65.1z"/>
  <path fill="#2B2A29" mask="url(#id16)" d="M369.65 154.72c16.24,-4.35 34.05,9.5 39.79,30.94 5.75,21.43 -2.76,42.33 -19,46.68 -16.23,4.35 -34.05,-9.5 -39.79,-30.94 -5.74,-21.43 2.77,-42.33 19,-46.68z"/>
  <path fill="#2B2A29" mask="url(#id18)" d="M375.58 176.86c6.98,-1.87 14.63,4.08 17.1,13.29 2.46,9.21 -1.19,18.19 -8.17,20.05 -6.97,1.87 -14.63,-4.08 -17.09,-13.29 -2.47,-9.21 1.19,-18.19 8.16,-20.05z"/>
  <rect fill="#FEFEFE" transform="matrix(-0.391816 0.12969 0.12969 0.391816 213.531 134.561)" width="42.5" height="48.12"/>
  <rect fill="#FEFEFE" transform="matrix(-0.172943 0.0572436 0.0572436 0.172943 221.805 157.095)" width="42.5" height="48.12"/>
  <rect fill="#FEFEFE" transform="matrix(0.175967 -0.0471338 0.0471338 0.175967 375.303 176.583)" width="42.5" height="48.12"/>
  <rect fill="#FEFEFE" transform="matrix(0.398668 -0.106786 0.106786 0.398668 357.306 152.99)" width="42.5" height="48.12"/>
  <path fill="#2B2A29" mask="url(#id20)" d="M393.46 90.99c-18.64,4.86 -46.94,23.73 -64.66,40.7 4.27,-28.73 42.74,-64.09 64.66,-40.7z"/>
  <path fill="#2B2A29" mask="url(#id22)" d="M235.54 66.73c-32.64,8.5 -82.21,41.56 -113.24,71.27 7.48,-50.32 74.86,-112.24 113.24,-71.27z"/>
  <g id="_2015780010960">
   <path fill="#2B2A29" mask="url(#id24)" d="M296.37 396.68c-44.88,1.91 -124.76,-12.78 -180,-29.85 38.4,41.81 156.85,76.62 180,29.85z"/>
   <g>
    <path fill="#2B2A29" d="M283.94 397.12c-37.89,1.61 -105.34,-10.79 -151.98,-25.21 32.43,35.3 132.44,64.69 151.98,25.21z"/>
    <path fill="#EBECEC" mask="url(#id26)" d="M294.47 393.7c-38.03,3.39 -127.86,-12.76 -178.86,-29.11 47.93,-7.66 93.52,-1.74 178.86,29.11z"/>
   </g>
  </g>
 </g>
</svg>
