<?xml version="1.0" encoding="UTF-8"?>
<!DOCTYPE svg PUBLIC "-//W3C//DTD SVG 1.1//EN" "http://www.w3.org/Graphics/SVG/1.1/DTD/svg11.dtd">
<!-- Creator: CorelDRAW 2017 -->
<svg xmlns="http://www.w3.org/2000/svg" xml:space="preserve" version="1.1" shape-rendering="geometricPrecision" text-rendering="geometricPrecision" image-rendering="optimizeQuality" fill-rule="evenodd" clip-rule="evenodd"
viewBox="0 0 500 500"
 xmlns:xlink="http://www.w3.org/1999/xlink">
 <defs>
    <mask id="id0">
      <linearGradient id="id1" gradientUnits="userSpaceOnUse" x1="-164.73" y1="221.64" x2="250.68" y2="263.07">
       <stop offset="0" stop-opacity="1" stop-color="white"/>
       <stop offset="1" stop-opacity="0" stop-color="white"/>
      </linearGradient>
     <rect fill="url(#id1)" x="29.01" y="24.04" width="445.72" height="445.72"/>
    </mask>
    <mask id="id2">
      <linearGradient id="id3" gradientUnits="userSpaceOnUse" x1="298.79" y1="283.12" x2="347.72" y2="221.45">
       <stop offset="0" stop-opacity="1" stop-color="white"/>
       <stop offset="1" stop-opacity="0" stop-color="white"/>
      </linearGradient>
     <rect fill="url(#id3)" x="277.04" y="129.3" width="183.61" height="183.6"/>
    </mask>
    <mask id="id4">
      <linearGradient id="id5" gradientUnits="userSpaceOnUse" x1="210.73" y1="284.29" x2="161.8" y2="222.62">
       <stop offset="0" stop-opacity="1" stop-color="white"/>
       <stop offset="1" stop-opacity="0" stop-color="white"/>
      </linearGradient>
     <rect fill="url(#id5)" x="48.88" y="130.46" width="183.61" height="183.6"/>
    </mask>
    <mask id="id6">
      <linearGradient id="id7" gradientUnits="userSpaceOnUse" x1="204.71" y1="328.6" x2="120.61" y2="170.52">
       <stop offset="0" stop-opacity="1" stop-color="white"/>
       <stop offset="1" stop-opacity="0" stop-color="white"/>
      </linearGradient>
     <rect fill="url(#id7)" x="90.79" y="166.7" width="134.81" height="138.67"/>
    </mask>
    <mask id="id8">
      <linearGradient id="id9" gradientUnits="userSpaceOnUse" x1="229.01" y1="188.73" x2="255.39" y2="372.3">
       <stop offset="0" stop-opacity="1" stop-color="white"/>
       <stop offset="1" stop-opacity="0" stop-color="white"/>
      </linearGradient>
     <rect fill="url(#id9)" x="107.11" y="173.59" width="121.43" height="124.89"/>
    </mask>
    <mask id="id10">
      <linearGradient id="id11" gradientUnits="userSpaceOnUse" x1="206.11" y1="221.05" x2="217.79" y2="330.69">
       <stop offset="0" stop-opacity="1" stop-color="white"/>
       <stop offset="1" stop-opacity="0" stop-color="white"/>
      </linearGradient>
     <rect fill="url(#id11)" x="148.5" y="238.05" width="57.49" height="59.09"/>
    </mask>
    <mask id="id12">
      <linearGradient id="id13" gradientUnits="userSpaceOnUse" x1="324.33" y1="324.23" x2="365.45" y2="196.75">
       <stop offset="0" stop-opacity="1" stop-color="white"/>
       <stop offset="1" stop-opacity="0" stop-color="white"/>
      </linearGradient>
     <rect fill="url(#id13)" x="281.43" y="166.7" width="134.81" height="138.67"/>
    </mask>
    <mask id="id14">
      <linearGradient id="id15" gradientUnits="userSpaceOnUse" x1="258.91" y1="198.93" x2="255.39" y2="372.3">
       <stop offset="0" stop-opacity="1" stop-color="white"/>
       <stop offset="1" stop-opacity="0" stop-color="white"/>
      </linearGradient>
     <rect fill="url(#id15)" x="278.49" y="173.59" width="121.42" height="124.89"/>
    </mask>
    <mask id="id16">
      <linearGradient id="id17" gradientUnits="userSpaceOnUse" x1="279.49" y1="221.56" x2="291.17" y2="331.19">
       <stop offset="0" stop-opacity="1" stop-color="white"/>
       <stop offset="1" stop-opacity="0" stop-color="white"/>
      </linearGradient>
     <rect fill="url(#id17)" x="301.23" y="238.55" width="57.49" height="59.1"/>
    </mask>
    <mask id="id18">
      <linearGradient id="id19" gradientUnits="userSpaceOnUse" x1="145.07" y1="172.85" x2="160.25" y2="181.73">
       <stop offset="0" stop-opacity="1" stop-color="white"/>
       <stop offset="1" stop-opacity="0" stop-color="white"/>
      </linearGradient>
     <rect fill="url(#id19)" x="59.89" y="128.22" width="112.35" height="108.37"/>
    </mask>
    <mask id="id20">
      <linearGradient id="id21" gradientUnits="userSpaceOnUse" x1="363.78" y1="172.85" x2="348.59" y2="181.73">
       <stop offset="0" stop-opacity="1" stop-color="white"/>
       <stop offset="1" stop-opacity="0" stop-color="white"/>
      </linearGradient>
     <rect fill="url(#id21)" x="336.61" y="128.22" width="112.34" height="108.37"/>
    </mask>
 </defs>
 <g id="Layer_x0020_1">
  <metadata id="CorelCorpID_0Corel-Layer"/>
  <g id="_2015873691680">
   <circle fill="#FFD500" cx="250.69" cy="247.69" r="243.06"/>
   <path fill="#FEFEFE" mask="url(#id0)" d="M251.87 25.22c122.43,0 221.68,99.25 221.68,221.68 0,122.43 -99.25,221.68 -221.68,221.68 -122.43,0 -221.68,-99.25 -221.68,-221.68 0,-122.43 99.25,-221.68 221.68,-221.68z"/>
   <path fill="#5E5971" mask="url(#id2)" d="M300.68 311.72l132.74 0c12.35,0 34.8,-22.87 22.45,-22.46 -187.99,6.15 -142.52,16.44 -155.19,-155.2 -0.91,-12.32 -22.46,10.1 -22.46,22.46l0 132.74c0,12.35 10.1,22.46 22.46,22.46z"/>
   <path fill="#5E5971" mask="url(#id4)" d="M208.85 312.88l-132.74 0c-12.35,0 -34.8,-22.86 -22.46,-22.46 188,6.15 142.53,16.44 155.2,-155.19 0.91,-12.32 22.46,10.1 22.46,22.45l0 132.74c0,12.36 -10.11,22.46 -22.46,22.46z"/>
   <path fill="#5E5971" mask="url(#id6)" d="M158.19 167.88c36.58,0 66.23,30.51 66.23,68.15 0,37.64 -29.65,68.16 -66.23,68.16 -36.57,0 -66.22,-30.52 -66.22,-68.16 0,-37.64 29.65,-68.15 66.22,-68.15z"/>
   <path fill="#FEFEFE" mask="url(#id8)" d="M167.83 174.77c32.88,0 59.53,27.43 59.53,61.26 0,33.84 -26.65,61.27 -59.53,61.27 -32.88,0 -59.54,-27.43 -59.54,-61.27 0,-33.83 26.66,-61.26 59.54,-61.26z"/>
   <path fill="#2B2A29" mask="url(#id10)" d="M177.25 239.23c15.22,0 27.56,12.7 27.56,28.36 0,15.67 -12.34,28.37 -27.56,28.37 -15.23,0 -27.57,-12.7 -27.57,-28.37 0,-15.66 12.34,-28.36 27.57,-28.36z"/>
   <ellipse fill="#2B2A29" cx="181.75" cy="276.13" rx="15.67" ry="16.13"/>
   <path fill="#5E5971" mask="url(#id12)" d="M348.83 167.88c36.58,0 66.23,30.51 66.23,68.15 0,37.64 -29.65,68.16 -66.23,68.16 -36.57,0 -66.22,-30.52 -66.22,-68.16 0,-37.64 29.65,-68.15 66.22,-68.15z"/>
   <path fill="#FEFEFE" mask="url(#id14)" d="M339.2 174.77c32.88,0 59.53,27.43 59.53,61.26 0,33.84 -26.65,61.27 -59.53,61.27 -32.88,0 -59.53,-27.43 -59.53,-61.27 0,-33.83 26.65,-61.26 59.53,-61.26z"/>
   <path fill="#2B2A29" mask="url(#id16)" d="M329.98 239.73c15.22,0 27.56,12.7 27.56,28.37 0,15.67 -12.34,28.37 -27.56,28.37 -15.23,0 -27.57,-12.7 -27.57,-28.37 0,-15.67 12.34,-28.37 27.57,-28.37z"/>
   <ellipse fill="#2B2A29" cx="325.28" cy="277.35" rx="14.87" ry="15.31"/>
   <rect fill="#FEFEFE" x="164.83" y="248.42" width="15.89" height="14.02"/>
   <rect fill="#FEFEFE" x="316.22" y="249.85" width="15.89" height="14.02"/>
   <rect fill="#FEFEFE" x="164.13" y="265.36" width="7.01" height="6.19"/>
   <rect fill="#FEFEFE" x="315.52" y="266.79" width="7.01" height="6.19"/>
   <path fill="#2B2A29" mask="url(#id18)" d="M168.9 129.4c-21.31,30.79 -70.02,77.17 -107.83,106.01 44.12,-6.09 124.11,-68.78 107.83,-106.01z"/>
   <path fill="#2B2A29" mask="url(#id20)" d="M339.94 129.4c21.31,30.79 70.02,77.17 107.83,106.01 -44.12,-6.09 -124.11,-68.78 -107.83,-106.01z"/>
   <path fill="#2B2A29" d="M164.51 421.58c72.89,-51.18 112.79,-41.46 169.03,1.7 -70.03,-79.55 -110.11,-62.1 -169.03,-1.7z"/>
  </g>
 </g>
</svg>
