<?xml version="1.0" encoding="UTF-8"?>
<!DOCTYPE svg PUBLIC "-//W3C//DTD SVG 1.1//EN" "http://www.w3.org/Graphics/SVG/1.1/DTD/svg11.dtd">
<!-- Creator: CorelDRAW 2017 -->
<svg xmlns="http://www.w3.org/2000/svg" xml:space="preserve"  version="1.1" shape-rendering="geometricPrecision" text-rendering="geometricPrecision" image-rendering="optimizeQuality" fill-rule="evenodd" clip-rule="evenodd"
viewBox="0 0 500 500"
 xmlns:xlink="http://www.w3.org/1999/xlink">
 <defs>
   <mask id="id0">
     <linearGradient id="id1" gradientUnits="userSpaceOnUse" x1="-162.86" y1="229.77" x2="246.55" y2="270.6">
      <stop offset="0" stop-opacity="1" stop-color="white"/>
      <stop offset="1" stop-opacity="0" stop-color="white"/>
     </linearGradient>
    <rect fill="url(#id1)" x="28.06" y="35.01" width="439.32" height="439.32"/>
   </mask>
   <mask id="id2">
     <linearGradient id="id3" gradientUnits="userSpaceOnUse" x1="294" y1="260.75" x2="342.23" y2="199.97">
      <stop offset="0" stop-opacity="1" stop-color="white"/>
      <stop offset="1" stop-opacity="0" stop-color="white"/>
     </linearGradient>
    <rect fill="url(#id3)" x="272.55" y="109.13" width="180.99" height="180.98"/>
   </mask>
   <mask id="id4">
     <linearGradient id="id5" gradientUnits="userSpaceOnUse" x1="207.22" y1="261.9" x2="158.99" y2="201.11">
      <stop offset="0" stop-opacity="1" stop-color="white"/>
      <stop offset="1" stop-opacity="0" stop-color="white"/>
     </linearGradient>
    <rect fill="url(#id5)" x="47.68" y="110.28" width="180.99" height="180.98"/>
   </mask>
   <mask id="id6">
     <linearGradient id="id7" gradientUnits="userSpaceOnUse" x1="201.28" y1="312.37" x2="118.39" y2="112.51">
      <stop offset="0" stop-opacity="1" stop-color="white"/>
      <stop offset="1" stop-opacity="0" stop-color="white"/>
     </linearGradient>
    <rect fill="url(#id7)" x="88.98" y="107.99" width="132.9" height="174.7"/>
   </mask>
   <mask id="id8">
     <linearGradient id="id9" gradientUnits="userSpaceOnUse" x1="225.23" y1="135.53" x2="251.23" y2="367.63">
      <stop offset="0" stop-opacity="1" stop-color="white"/>
      <stop offset="1" stop-opacity="0" stop-color="white"/>
     </linearGradient>
    <rect fill="url(#id9)" x="105.07" y="116.7" width="119.71" height="157.28"/>
   </mask>
   <mask id="id10">
     <linearGradient id="id11" gradientUnits="userSpaceOnUse" x1="197.44" y1="141.38" x2="208.95" y2="279.99">
      <stop offset="0" stop-opacity="1" stop-color="white"/>
      <stop offset="1" stop-opacity="0" stop-color="white"/>
     </linearGradient>
    <rect fill="url(#id11)" x="140.65" y="163.18" width="56.69" height="74.09"/>
   </mask>
   <mask id="id12">
     <linearGradient id="id13" gradientUnits="userSpaceOnUse" x1="319.17" y1="306.85" x2="359.7" y2="145.67">
      <stop offset="0" stop-opacity="1" stop-color="white"/>
      <stop offset="1" stop-opacity="0" stop-color="white"/>
     </linearGradient>
    <rect fill="url(#id13)" x="276.87" y="107.99" width="132.91" height="174.7"/>
   </mask>
   <mask id="id14">
     <linearGradient id="id15" gradientUnits="userSpaceOnUse" x1="254.7" y1="148.43" x2="251.23" y2="367.63">
      <stop offset="0" stop-opacity="1" stop-color="white"/>
      <stop offset="1" stop-opacity="0" stop-color="white"/>
     </linearGradient>
    <rect fill="url(#id15)" x="273.98" y="116.7" width="119.71" height="157.28"/>
   </mask>
   <mask id="id16">
     <linearGradient id="id17" gradientUnits="userSpaceOnUse" x1="282.46" y1="140.4" x2="293.97" y2="279.01">
      <stop offset="0" stop-opacity="1" stop-color="white"/>
      <stop offset="1" stop-opacity="0" stop-color="white"/>
     </linearGradient>
    <rect fill="url(#id17)" x="303.87" y="162.19" width="56.7" height="74.1"/>
   </mask>
   <mask id="id18">
     <linearGradient id="id19" gradientUnits="userSpaceOnUse" x1="327.49" y1="101.25" x2="325.71" y2="88.55">
      <stop offset="0" stop-opacity="1" stop-color="white"/>
      <stop offset="1" stop-opacity="0" stop-color="white"/>
     </linearGradient>
    <rect fill="url(#id19)" x="304.71" y="92.84" width="70.42" height="23.09"/>
   </mask>
   <mask id="id20">
     <linearGradient id="id21" gradientUnits="userSpaceOnUse" x1="168.53" y1="95.47" x2="170.31" y2="82.77">
      <stop offset="0" stop-opacity="1" stop-color="white"/>
      <stop offset="1" stop-opacity="0" stop-color="white"/>
     </linearGradient>
    <rect fill="url(#id21)" x="120.9" y="87.06" width="70.42" height="23.09"/>
   </mask>
   <mask id="id22">
     <linearGradient id="id23" gradientUnits="userSpaceOnUse" x1="250.91" y1="327.91" x2="231.42" y2="448.03">
      <stop offset="0" stop-opacity="1" stop-color="white"/>
      <stop offset="1" stop-opacity="0" stop-color="white"/>
     </linearGradient>
    <rect fill="url(#id23)" x="202.24" y="310.64" width="97.34" height="144.83"/>
   </mask>
   <linearGradient id="id24" gradientUnits="userSpaceOnUse" x1="214.14" y1="383.06" x2="287.68" y2="383.06">
    <stop offset="0" stop-opacity="1" stop-color="#7B481D"/>
    <stop offset="1" stop-opacity="1" stop-color="#2B2A29"/>
   </linearGradient>
 </defs>
 <g id="Layer_x0020_1">
  <metadata id="CorelCorpID_0Corel-Layer"/>
  <circle fill="#FFD500" cx="246.56" cy="255.44" r="239.56"/>
  <path fill="#FEFEFE" mask="url(#id0)" d="M247.72 36.19c120.67,0 218.48,97.81 218.48,218.48 0,120.66 -97.81,218.48 -218.48,218.48 -120.66,0 -218.48,-97.82 -218.48,-218.48 0,-120.67 97.82,-218.48 218.48,-218.48z"/>
  <path fill="#5E5971" mask="url(#id2)" d="M295.86 288.93l130.83 0c12.17,0 34.3,-22.53 22.13,-22.13 -185.28,6.06 -140.47,16.2 -152.96,-152.96 -0.9,-12.14 -22.13,9.96 -22.13,22.13l0 130.83c0,12.17 9.96,22.13 22.13,22.13z"/>
  <path fill="#5E5971" mask="url(#id4)" d="M205.36 290.08l-130.83 0c-12.17,0 -34.3,-22.53 -22.13,-22.13 185.28,6.05 140.47,16.2 152.96,-152.96 0.9,-12.14 22.13,9.96 22.13,22.13l0 130.83c0,12.17 -9.96,22.13 -22.13,22.13z"/>
  <path fill="#5E5971" mask="url(#id6)" d="M155.43 109.17c36.05,0 65.27,38.58 65.27,86.17 0,47.59 -29.22,86.17 -65.27,86.17 -36.04,0 -65.27,-38.58 -65.27,-86.17 0,-47.59 29.23,-86.17 65.27,-86.17z"/>
  <path fill="#FEFEFE" mask="url(#id8)" d="M164.93 117.88c32.4,0 58.67,34.68 58.67,77.46 0,42.78 -26.27,77.46 -58.67,77.46 -32.41,0 -58.68,-34.68 -58.68,-77.46 0,-42.78 26.27,-77.46 58.68,-77.46z"/>
  <path fill="#2B2A29" mask="url(#id10)" d="M169 164.36c15,0 27.16,16.05 27.16,35.86 0,19.81 -12.16,35.87 -27.16,35.87 -15.01,0 -27.17,-16.06 -27.17,-35.87 0,-19.81 12.16,-35.86 27.17,-35.86z"/>
  <ellipse fill="#2B2A29" cx="170.5" cy="200.54" rx="16.99" ry="22.43"/>
  <path fill="#5E5971" mask="url(#id12)" d="M343.33 109.17c36.04,0 65.27,38.58 65.27,86.17 0,47.59 -29.23,86.17 -65.27,86.17 -36.05,0 -65.28,-38.58 -65.28,-86.17 0,-47.59 29.23,-86.17 65.28,-86.17z"/>
  <path fill="#FEFEFE" mask="url(#id14)" d="M333.83 117.88c32.41,0 58.68,34.68 58.68,77.46 0,42.78 -26.27,77.46 -58.68,77.46 -32.4,0 -58.67,-34.68 -58.67,-77.46 0,-42.78 26.27,-77.46 58.67,-77.46z"/>
  <path fill="#2B2A29" mask="url(#id16)" d="M332.22 163.37c15,0 27.17,16.06 27.17,35.87 0,19.81 -12.17,35.87 -27.17,35.87 -15.01,0 -27.17,-16.06 -27.17,-35.87 0,-19.81 12.16,-35.87 27.17,-35.87z"/>
  <ellipse fill="#2B2A29" cx="332.98" cy="208.69" rx="14.66" ry="19.35"/>
  <rect fill="#FEFEFE" x="158.37" y="159.52" width="15.66" height="17.73"/>
  <rect fill="#FEFEFE" x="157.68" y="180.94" width="6.91" height="7.83"/>
  <rect fill="#FEFEFE" x="312.01" y="185.25" width="6.91" height="7.83"/>
  <rect fill="#FEFEFE" x="313.15" y="162.34" width="15.66" height="17.73"/>
  <path fill="#2B2A29" mask="url(#id18)" d="M305.89 110.48c16.67,-4.16 46.92,-1.46 68.06,4.27 -15.63,-20.69 -60.89,-31.96 -68.06,-4.27z"/>
  <path fill="#2B2A29" mask="url(#id20)" d="M190.14 104.7c-16.68,-4.16 -46.93,-1.46 -68.06,4.27 15.62,-20.69 60.88,-31.96 68.06,-4.27z"/>
  <path fill="#5E5971" mask="url(#id22)" d="M250.91 311.82c26.23,0 47.49,31.89 47.49,71.24 0,39.34 -21.26,71.23 -47.49,71.23 -26.23,0 -47.49,-31.89 -47.49,-71.23 0,-39.35 21.26,-71.24 47.49,-71.24z"/>
  <ellipse fill="url(#id24)" cx="250.91" cy="383.06" rx="36.77" ry="55.15"/>
 </g>
</svg>
