<?xml version="1.0" encoding="UTF-8"?>
<!DOCTYPE svg PUBLIC "-//W3C//DTD SVG 1.1//EN" "http://www.w3.org/Graphics/SVG/1.1/DTD/svg11.dtd">
<!-- Creator: CorelDRAW 2017 -->
<svg xmlns="http://www.w3.org/2000/svg" xml:space="preserve" version="1.1" shape-rendering="geometricPrecision" text-rendering="geometricPrecision" image-rendering="optimizeQuality" fill-rule="evenodd" clip-rule="evenodd"
viewBox="0 0 500 500"
 xmlns:xlink="http://www.w3.org/1999/xlink">
 <defs>
   <mask id="id0">
     <linearGradient id="id1" gradientUnits="userSpaceOnUse" x1="-166.8" y1="225.93" x2="250.86" y2="267.59">
      <stop offset="0" stop-opacity="1" stop-color="white"/>
      <stop offset="1" stop-opacity="0" stop-color="white"/>
     </linearGradient>
    <rect fill="url(#id1)" x="28" y="27.27" width="448.12" height="448.12"/>
   </mask>
   <mask id="id2">
     <linearGradient id="id3" gradientUnits="userSpaceOnUse" x1="292.97" y1="247.14" x2="335.16" y2="193.95">
      <stop offset="0" stop-opacity="1" stop-color="white"/>
      <stop offset="1" stop-opacity="0" stop-color="white"/>
     </linearGradient>
    <rect fill="url(#id3)" x="274.05" y="114.33" width="158.65" height="158.64"/>
   </mask>
   <mask id="id4">
     <linearGradient id="id5" gradientUnits="userSpaceOnUse" x1="217.04" y1="248.14" x2="174.85" y2="194.96">
      <stop offset="0" stop-opacity="1" stop-color="white"/>
      <stop offset="1" stop-opacity="0" stop-color="white"/>
     </linearGradient>
    <rect fill="url(#id5)" x="77.31" y="115.34" width="158.65" height="158.64"/>
   </mask>
   <mask id="id6">
     <linearGradient id="id7" gradientUnits="userSpaceOnUse" x1="211.85" y1="292.3" x2="139.32" y2="117.44">
      <stop offset="0" stop-opacity="1" stop-color="white"/>
      <stop offset="1" stop-opacity="0" stop-color="white"/>
     </linearGradient>
    <rect fill="url(#id7)" x="113.45" y="113.33" width="116.57" height="153.15"/>
   </mask>
   <mask id="id8">
     <linearGradient id="id9" gradientUnits="userSpaceOnUse" x1="232.8" y1="137.58" x2="255.54" y2="340.65">
      <stop offset="0" stop-opacity="1" stop-color="white"/>
      <stop offset="1" stop-opacity="0" stop-color="white"/>
     </linearGradient>
    <rect fill="url(#id9)" x="127.52" y="120.95" width="105.03" height="137.91"/>
   </mask>
   <mask id="id10">
     <linearGradient id="id11" gradientUnits="userSpaceOnUse" x1="208.48" y1="142.7" x2="218.56" y2="263.97">
      <stop offset="0" stop-opacity="1" stop-color="white"/>
      <stop offset="1" stop-opacity="0" stop-color="white"/>
     </linearGradient>
    <rect fill="url(#id11)" x="158.65" y="161.62" width="49.9" height="65.12"/>
   </mask>
   <mask id="id12">
     <linearGradient id="id13" gradientUnits="userSpaceOnUse" x1="314.99" y1="287.47" x2="350.45" y2="146.45">
      <stop offset="0" stop-opacity="1" stop-color="white"/>
      <stop offset="1" stop-opacity="0" stop-color="white"/>
     </linearGradient>
    <rect fill="url(#id13)" x="277.84" y="113.33" width="116.57" height="153.15"/>
   </mask>
   <mask id="id14">
     <linearGradient id="id15" gradientUnits="userSpaceOnUse" x1="258.58" y1="148.87" x2="255.54" y2="340.65">
      <stop offset="0" stop-opacity="1" stop-color="white"/>
      <stop offset="1" stop-opacity="0" stop-color="white"/>
     </linearGradient>
    <rect fill="url(#id15)" x="275.3" y="120.95" width="105.03" height="137.91"/>
   </mask>
   <mask id="id16">
     <linearGradient id="id17" gradientUnits="userSpaceOnUse" x1="282.87" y1="141.84" x2="292.94" y2="263.11">
      <stop offset="0" stop-opacity="1" stop-color="white"/>
      <stop offset="1" stop-opacity="0" stop-color="white"/>
     </linearGradient>
    <rect fill="url(#id17)" x="301.46" y="160.76" width="49.89" height="65.12"/>
   </mask>
   <mask id="id18">
     <linearGradient id="id19" gradientUnits="userSpaceOnUse" x1="193.47" y1="92.46" x2="197.13" y2="73.33">
      <stop offset="0" stop-opacity="1" stop-color="white"/>
      <stop offset="1" stop-opacity="0" stop-color="white"/>
     </linearGradient>
    <rect fill="url(#id19)" x="120.77" y="80.01" width="105.96" height="30.58"/>
   </mask>
   <mask id="id20">
     <linearGradient id="id21" gradientUnits="userSpaceOnUse" x1="310.52" y1="94.4" x2="306.85" y2="75.27">
      <stop offset="0" stop-opacity="1" stop-color="white"/>
      <stop offset="1" stop-opacity="0" stop-color="white"/>
     </linearGradient>
    <rect fill="url(#id21)" x="277.25" y="81.95" width="105.96" height="30.58"/>
   </mask>
 </defs>
 <g id="Layer_x0020_1">
  <metadata id="CorelCorpID_0Corel-Layer"/>
  <circle fill="#FFD500" cx="250.87" cy="252.12" r="244.38"/>
  <path fill="#FEFEFE" mask="url(#id0)" d="M252.06 28.45c123.09,0 222.88,99.78 222.88,222.88 0,123.09 -99.79,222.88 -222.88,222.88 -123.1,0 -222.88,-99.79 -222.88,-222.88 0,-123.1 99.78,-222.88 222.88,-222.88z"/>
  <path fill="#5E5971" mask="url(#id2)" d="M294.59 271.79l114.47 0c10.65,0 30.01,-19.71 19.36,-19.36 -162.11,5.3 -122.9,14.17 -133.83,-133.83 -0.78,-10.62 -19.36,8.71 -19.36,19.36l0 114.47c0,10.65 8.71,19.36 19.36,19.36z"/>
  <path fill="#5E5971" mask="url(#id4)" d="M215.41 272.8l-114.46 0c-10.65,0 -30.01,-19.71 -19.37,-19.37 162.11,5.3 122.9,14.18 133.83,-133.83 0.79,-10.62 19.37,8.72 19.37,19.37l0 114.46c0,10.65 -8.72,19.37 -19.37,19.37z"/>
  <path fill="#5E5971" mask="url(#id6)" d="M171.73 114.51c31.54,0 57.11,33.76 57.11,75.4 0,41.64 -25.57,75.39 -57.11,75.39 -31.54,0 -57.1,-33.75 -57.1,-75.39 0,-41.64 25.56,-75.4 57.1,-75.4z"/>
  <path fill="#FEFEFE" mask="url(#id8)" d="M180.04 122.13c28.35,0 51.33,30.35 51.33,67.78 0,37.43 -22.98,67.77 -51.33,67.77 -28.35,0 -51.34,-30.34 -51.34,-67.77 0,-37.43 22.99,-67.78 51.34,-67.78z"/>
  <path fill="#2B2A29" mask="url(#id10)" d="M183.6 162.8c13.13,0 23.77,14.05 23.77,31.38 0,17.33 -10.64,31.38 -23.77,31.38 -13.13,0 -23.77,-14.05 -23.77,-31.38 0,-17.33 10.64,-31.38 23.77,-31.38z"/>
  <ellipse fill="#2B2A29" cx="184.92" cy="194.45" rx="14.87" ry="19.63"/>
  <path fill="#5E5971" mask="url(#id12)" d="M336.12 114.51c31.54,0 57.11,33.76 57.11,75.4 0,41.64 -25.57,75.39 -57.11,75.39 -31.54,0 -57.1,-33.75 -57.1,-75.39 0,-41.64 25.56,-75.4 57.1,-75.4z"/>
  <path fill="#FEFEFE" mask="url(#id14)" d="M327.82 122.13c28.35,0 51.33,30.35 51.33,67.78 0,37.43 -22.98,67.77 -51.33,67.77 -28.36,0 -51.34,-30.34 -51.34,-67.77 0,-37.43 22.98,-67.78 51.34,-67.78z"/>
  <path fill="#2B2A29" mask="url(#id16)" d="M326.41 161.94c13.12,0 23.76,14.05 23.76,31.38 0,17.33 -10.64,31.38 -23.76,31.38 -13.13,0 -23.77,-14.05 -23.77,-31.38 0,-17.33 10.64,-31.38 23.77,-31.38z"/>
  <ellipse fill="#2B2A29" cx="327.07" cy="201.59" rx="12.83" ry="16.93"/>
  <rect fill="#FEFEFE" x="174.3" y="158.57" width="13.7" height="15.51"/>
  <rect fill="#FEFEFE" x="173.7" y="177.31" width="6.05" height="6.85"/>
  <rect fill="#FEFEFE" x="308.72" y="181.08" width="6.05" height="6.85"/>
  <rect fill="#FEFEFE" x="309.73" y="161.03" width="13.7" height="15.51"/>
  <path fill="#2B2A29" mask="url(#id18)" d="M225.55 108.11c-24.99,-7.58 -71.09,-5.78 -103.6,1.3 25.28,-30.21 94.82,-43.87 103.6,-1.3z"/>
  <path fill="#2B2A29" mask="url(#id20)" d="M278.43 110.05c24.99,-7.58 71.1,-5.78 103.6,1.3 -25.28,-30.21 -94.81,-43.87 -103.6,-1.3z"/>
  <path fill="#6E4C2C" d="M188.49 451.32c-14.6,8.02 -33.06,2.65 -41.08,-11.95l-8.71 -15.87c-8.02,-14.6 -2.65,-33.06 11.95,-41.08l167.75 -92.15c14.6,-8.02 33.06,-2.65 41.08,11.95l8.71 15.87c8.02,14.6 2.65,33.06 -11.95,41.08l-167.75 92.15z"/>
  <rect fill="#B8C8BA" transform="matrix(0.181349 -0.0996185 -0.0996185 -0.181349 166.137 447.714)" width="1087.5" height="250" rx="81.25" ry="81.25"/>
  <path fill="#6E4C2C" d="M143.58 356.88c-14.66,-7.9 -20.18,-26.32 -12.28,-40.98l8.59 -15.94c7.9,-14.66 26.32,-20.18 40.98,-12.28l168.49 90.79c14.67,7.9 20.19,26.31 12.28,40.98l-8.58 15.94c-7.91,14.66 -26.32,20.18 -40.99,12.28l-168.49 -90.79z"/>
  <rect fill="#B8C8BA" transform="matrix(0.181349 0.0996185 -0.0996185 0.181349 159.985 292.433)" width="1087.5" height="250" rx="81.25" ry="81.25"/>
 </g>
</svg>
