<?xml version="1.0" encoding="UTF-8"?>
<!DOCTYPE svg PUBLIC "-//W3C//DTD SVG 1.1//EN" "http://www.w3.org/Graphics/SVG/1.1/DTD/svg11.dtd">
<!-- Creator: CorelDRAW 2017 -->
<svg xmlns="http://www.w3.org/2000/svg" xml:space="preserve" version="1.1" shape-rendering="geometricPrecision" text-rendering="geometricPrecision" image-rendering="optimizeQuality" fill-rule="evenodd" clip-rule="evenodd"
viewBox="0 0 500 500"
 xmlns:xlink="http://www.w3.org/1999/xlink">
 <defs>
   <mask id="id0">
     <linearGradient id="id1" gradientUnits="userSpaceOnUse" x1="226.64" y1="242.57" x2="159.66" y2="193.71">
      <stop offset="0" stop-opacity="1" stop-color="white"/>
      <stop offset="1" stop-opacity="0" stop-color="white"/>
     </linearGradient>
    <rect fill="url(#id1)" x="64.64" y="86.06" width="186.63" height="224.97"/>
   </mask>
   <mask id="id2">
     <linearGradient id="id3" gradientUnits="userSpaceOnUse" x1="284.3" y1="235.84" x2="316.65" y2="159.51">
      <stop offset="0" stop-opacity="1" stop-color="white"/>
      <stop offset="1" stop-opacity="0" stop-color="white"/>
     </linearGradient>
    <rect fill="url(#id3)" x="226.2" y="79.87" width="224.86" height="186.49"/>
   </mask>
   <mask id="id4">
     <linearGradient id="id5" gradientUnits="userSpaceOnUse" x1="232.28" y1="306.76" x2="102.6" y2="115.36">
      <stop offset="0" stop-opacity="1" stop-color="white"/>
      <stop offset="1" stop-opacity="0" stop-color="white"/>
     </linearGradient>
    <rect fill="url(#id5)" x="87.19" y="101.64" width="143.95" height="184.93"/>
   </mask>
   <mask id="id6">
     <linearGradient id="id7" gradientUnits="userSpaceOnUse" x1="219.37" y1="116.53" x2="296.41" y2="353.87">
      <stop offset="0" stop-opacity="1" stop-color="white"/>
      <stop offset="1" stop-opacity="0" stop-color="white"/>
     </linearGradient>
    <rect fill="url(#id7)" x="104.28" y="108.82" width="129.64" height="166.49"/>
   </mask>
   <mask id="id8">
     <linearGradient id="id9" gradientUnits="userSpaceOnUse" x1="200.88" y1="96.52" x2="242.69" y2="239.14">
      <stop offset="0" stop-opacity="1" stop-color="white"/>
      <stop offset="1" stop-opacity="0" stop-color="white"/>
     </linearGradient>
    <rect fill="url(#id9)" x="153.09" y="125.04" width="61.3" height="78.36"/>
   </mask>
   <mask id="id10">
     <linearGradient id="id11" gradientUnits="userSpaceOnUse" x1="194.3" y1="125.67" x2="212.77" y2="188.66">
      <stop offset="0" stop-opacity="1" stop-color="white"/>
      <stop offset="1" stop-opacity="0" stop-color="white"/>
     </linearGradient>
    <rect fill="url(#id11)" x="172.54" y="137.61" width="28.39" height="35.92"/>
   </mask>
   <mask id="id12">
     <linearGradient id="id13" gradientUnits="userSpaceOnUse" x1="314.41" y1="283.89" x2="322.22" y2="106.48">
      <stop offset="0" stop-opacity="1" stop-color="white"/>
      <stop offset="1" stop-opacity="0" stop-color="white"/>
     </linearGradient>
    <rect fill="url(#id13)" x="243.77" y="69.52" width="143.95" height="184.94"/>
   </mask>
   <mask id="id14">
     <linearGradient id="id15" gradientUnits="userSpaceOnUse" x1="212.91" y1="131.91" x2="256.34" y2="362.09">
      <stop offset="0" stop-opacity="1" stop-color="white"/>
      <stop offset="1" stop-opacity="0" stop-color="white"/>
     </linearGradient>
    <rect fill="url(#id15)" x="240.99" y="80.78" width="129.64" height="166.49"/>
   </mask>
   <mask id="id16">
     <linearGradient id="id17" gradientUnits="userSpaceOnUse" x1="214.97" y1="92.13" x2="256.78" y2="234.74">
      <stop offset="0" stop-opacity="1" stop-color="white"/>
      <stop offset="1" stop-opacity="0" stop-color="white"/>
     </linearGradient>
    <rect fill="url(#id17)" x="249.04" y="103.86" width="61.29" height="78.35"/>
   </mask>
   <mask id="id18">
     <linearGradient id="id19" gradientUnits="userSpaceOnUse" x1="245.8" y1="109.8" x2="265.1" y2="175.65">
      <stop offset="0" stop-opacity="1" stop-color="white"/>
      <stop offset="1" stop-opacity="0" stop-color="white"/>
     </linearGradient>
    <rect fill="url(#id19)" x="260.89" y="114.58" width="29.58" height="37.45"/>
   </mask>
   <mask id="id20">
     <linearGradient id="id21" gradientUnits="userSpaceOnUse" x1="271.46" y1="330.6" x2="292" y2="407.29">
      <stop offset="0" stop-opacity="1" stop-color="white"/>
      <stop offset="1" stop-opacity="0" stop-color="white"/>
     </linearGradient>
    <rect fill="url(#id21)" x="111.33" y="296.67" width="300.25" height="122.33"/>
   </mask>
   <linearGradient id="id22" gradientUnits="userSpaceOnUse" x1="112.51" y1="357.83" x2="410.4" y2="357.83">
    <stop offset="0" stop-opacity="1" stop-color="#7B481D"/>
    <stop offset="1" stop-opacity="1" stop-color="#2B2A29"/>
   </linearGradient>
   <mask id="id23">
     <linearGradient id="id24" gradientUnits="userSpaceOnUse" x1="330.7" y1="291.91" x2="322.13" y2="466.8">
      <stop offset="0" stop-opacity="1" stop-color="white"/>
      <stop offset="1" stop-opacity="0" stop-color="white"/>
     </linearGradient>
    <rect fill="url(#id24)" x="112.7" y="346.37" width="286.15" height="128.09"/>
   </mask>
   <mask id="id25">
     <linearGradient id="id26" gradientUnits="userSpaceOnUse" x1="309.78" y1="27.95" x2="311.93" y2="14.41">
      <stop offset="0" stop-opacity="1" stop-color="white"/>
      <stop offset="1" stop-opacity="0" stop-color="white"/>
     </linearGradient>
    <rect fill="url(#id26)" x="283.64" y="18.57" width="70.57" height="38.87"/>
   </mask>
   <mask id="id27">
     <linearGradient id="id28" gradientUnits="userSpaceOnUse" x1="105.31" y1="69.89" x2="98" y2="58.29">
      <stop offset="0" stop-opacity="1" stop-color="white"/>
      <stop offset="1" stop-opacity="0" stop-color="white"/>
     </linearGradient>
    <rect fill="url(#id28)" x="75.46" y="57.02" width="55.03" height="57.1"/>
   </mask>
   <mask id="id29">
     <linearGradient id="id30" gradientUnits="userSpaceOnUse" x1="283.79" y1="373.36" x2="252.77" y2="281.29">
      <stop offset="0" stop-opacity="1" stop-color="white"/>
      <stop offset="1" stop-opacity="0" stop-color="white"/>
     </linearGradient>
    <rect fill="url(#id30)" x="110.89" y="277.87" width="299.23" height="73.28"/>
   </mask>
 </defs>
 <g id="Layer_x0020_1">
  <metadata id="CorelCorpID_0Corel-Layer"/>
  <circle fill="#FFD500" cx="251.89" cy="246.39" r="242.86"/>
  <path fill="#5E5971" mask="url(#id0)" d="M232.75 272.12l-134.73 37.26c-12.53,3.47 -41.74,-13.43 -29.09,-16.49 192.53,-46.53 149.27,-23.32 113.95,-201.08 -2.53,-12.76 25.63,3.95 29.1,16.49l37.26 134.72c3.47,12.54 -3.95,25.63 -16.49,29.1z"/>
  <path fill="#5E5971" mask="url(#id2)" d="M294.23 264.33l134.73 -37.26c12.54,-3.47 28.91,-32.97 16.49,-29.1 -189.08,59.01 -140.04,56.7 -201.08,-113.95 -4.38,-12.25 -19.96,16.56 -16.49,29.09l37.26 134.73c3.46,12.54 16.56,19.96 29.09,16.49z"/>
  <path fill="#2B2A29" mask="url(#id4)" d="M140.66 103.91c37.73,-7.74 76.6,26.37 86.82,76.18 10.22,49.81 -12.09,96.47 -49.82,104.21 -37.73,7.74 -76.6,-26.37 -86.82,-76.18 -10.21,-49.81 12.09,-96.47 49.82,-104.21z"/>
  <path fill="#FEFEFE" mask="url(#id6)" d="M152.47 110.99c33.92,-6.96 68.86,23.7 78.04,68.48 9.19,44.78 -10.86,86.72 -44.78,93.67 -33.92,6.96 -68.86,-23.7 -78.04,-68.48 -9.19,-44.77 10.86,-86.71 44.78,-93.67z"/>
  <path fill="#2B2A29" mask="url(#id8)" d="M176.04 126.68c15.7,-3.22 31.88,10.98 36.13,31.71 4.26,20.73 -5.03,40.15 -20.73,43.37 -15.71,3.22 -31.88,-10.97 -36.14,-31.71 -4.25,-20.73 5.03,-40.15 20.74,-43.37z"/>
  <path fill="#2B2A29" mask="url(#id10)" d="M183.33 138.99c6.94,-1.42 14.09,4.85 15.96,14 1.88,9.16 -2.22,17.74 -9.15,19.16 -6.94,1.42 -14.09,-4.85 -15.96,-14 -1.88,-9.16 2.22,-17.74 9.15,-19.16z"/>
  <path fill="#2B2A29" mask="url(#id12)" d="M297.24 71.79c37.73,-7.74 76.6,26.37 86.82,76.18 10.22,49.82 -12.08,96.47 -49.82,104.21 -37.73,7.74 -76.6,-26.37 -86.81,-76.18 -10.22,-49.81 12.08,-96.47 49.81,-104.21z"/>
  <path fill="#FEFEFE" mask="url(#id14)" d="M289.18 82.95c33.91,-6.96 68.85,23.7 78.04,68.48 9.18,44.78 -10.86,86.72 -44.78,93.67 -33.92,6.96 -68.86,-23.7 -78.05,-68.48 -9.18,-44.78 10.87,-86.72 44.79,-93.67z"/>
  <path fill="#2B2A29" mask="url(#id16)" d="M271.99 105.49c15.7,-3.22 31.88,10.98 36.13,31.71 4.25,20.73 -5.03,40.15 -20.74,43.37 -15.7,3.22 -31.88,-10.97 -36.13,-31.7 -4.25,-20.74 5.03,-40.16 20.74,-43.38z"/>
  <path fill="#2B2A29" mask="url(#id18)" d="M272.13 115.97c7.25,-1.48 14.72,5.07 16.68,14.64 1.96,9.58 -2.32,18.54 -9.57,20.03 -7.25,1.49 -14.72,-5.07 -16.69,-14.64 -1.96,-9.57 2.32,-18.54 9.58,-20.03z"/>
  <rect fill="#FEFEFE" transform="matrix(0.38561 -0.0790959 0.0790959 0.38561 163.877 123.901)" width="42.5" height="48.12"/>
  <rect fill="#FEFEFE" transform="matrix(0.170204 -0.0349119 0.0349119 0.170204 167.752 146.466)" width="42.5" height="48.12"/>
  <rect fill="#FEFEFE" transform="matrix(0.170204 -0.0349119 0.0349119 0.170204 285.46 130.473)" width="42.5" height="48.12"/>
  <rect fill="#FEFEFE" transform="matrix(0.38561 -0.0790959 0.0790959 0.38561 281.744 106.244)" width="42.5" height="48.12"/>
  <path fill="url(#id22)" mask="url(#id20)" d="M112.51 356.44c89.34,9.05 219.21,-20.6 297.89,-58.59 -6.51,102.12 -178.12,179.03 -297.89,58.59z"/>
  <path fill="#EF7F1A" mask="url(#id23)" d="M113.88 364.66c83.18,74.09 229.52,94.57 283.79,-17.11 -37.71,159.98 -177.04,169.04 -283.79,17.11z"/>
  <path fill="#2B2A29" d="M161.55 367.87c66.98,0.52 163.25,-22.02 221.08,-46.58 -2.28,55.92 -128.56,106.24 -221.08,46.58z"/>
  <path fill="#7B481D" mask="url(#id25)" d="M284.82 30.63c18.34,0.96 48.4,13.17 68.21,25.63 -9.5,-26.03 -52.22,-51.69 -68.21,-25.63z"/>
  <path fill="#7B481D" mask="url(#id27)" d="M129.31 62.52c-16.48,8.11 -39.31,31.17 -52.61,50.42 -1.52,-27.67 27.65,-68.07 52.61,-50.42z"/>
  <path fill="#EBECEC" mask="url(#id29)" d="M112.07 347.38c78.54,12.14 225.17,-20.27 296.87,-56.83 -104.44,-23.87 -182.52,-13.18 -296.87,56.83z"/>
 </g>
</svg>
