<?xml version="1.0" encoding="UTF-8"?>
<!DOCTYPE svg PUBLIC "-//W3C//DTD SVG 1.1//EN" "http://www.w3.org/Graphics/SVG/1.1/DTD/svg11.dtd">
<!-- Creator: CorelDRAW 2017 -->
<svg xmlns="http://www.w3.org/2000/svg" xml:space="preserve"  version="1.1" shape-rendering="geometricPrecision" text-rendering="geometricPrecision" image-rendering="optimizeQuality" fill-rule="evenodd" clip-rule="evenodd"
viewBox="0 0 500 500"
 xmlns:xlink="http://www.w3.org/1999/xlink">
 <defs>
   <mask id="id0">
     <linearGradient id="id1" gradientUnits="userSpaceOnUse" x1="-166.59" y1="224.01" x2="249.39" y2="265.5">
      <stop offset="0" stop-opacity="1" stop-color="white"/>
      <stop offset="1" stop-opacity="0" stop-color="white"/>
     </linearGradient>
    <rect fill="url(#id1)" x="27.42" y="26.14" width="446.34" height="446.34"/>
   </mask>
   <mask id="id2">
     <linearGradient id="id3" gradientUnits="userSpaceOnUse" x1="297.61" y1="255.49" x2="346.61" y2="193.73">
      <stop offset="0" stop-opacity="1" stop-color="white"/>
      <stop offset="1" stop-opacity="0" stop-color="white"/>
     </linearGradient>
    <rect fill="url(#id3)" x="275.83" y="101.45" width="183.86" height="183.85"/>
   </mask>
   <mask id="id4">
     <linearGradient id="id5" gradientUnits="userSpaceOnUse" x1="209.43" y1="256.66" x2="160.43" y2="194.9">
      <stop offset="0" stop-opacity="1" stop-color="white"/>
      <stop offset="1" stop-opacity="0" stop-color="white"/>
     </linearGradient>
    <rect fill="url(#id5)" x="47.35" y="102.62" width="183.86" height="183.85"/>
   </mask>
   <mask id="id6">
     <linearGradient id="id7" gradientUnits="userSpaceOnUse" x1="203.4" y1="307.94" x2="119.18" y2="104.87">
      <stop offset="0" stop-opacity="1" stop-color="white"/>
      <stop offset="1" stop-opacity="0" stop-color="white"/>
     </linearGradient>
    <rect fill="url(#id7)" x="89.32" y="100.29" width="134.99" height="177.47"/>
   </mask>
   <mask id="id8">
     <linearGradient id="id9" gradientUnits="userSpaceOnUse" x1="227.73" y1="128.26" x2="254.15" y2="364.08">
      <stop offset="0" stop-opacity="1" stop-color="white"/>
      <stop offset="1" stop-opacity="0" stop-color="white"/>
     </linearGradient>
    <rect fill="url(#id9)" x="105.67" y="109.14" width="121.59" height="159.77"/>
   </mask>
   <mask id="id10">
     <linearGradient id="id11" gradientUnits="userSpaceOnUse" x1="206.65" y1="151.88" x2="218.35" y2="292.72">
      <stop offset="0" stop-opacity="1" stop-color="white"/>
      <stop offset="1" stop-opacity="0" stop-color="white"/>
     </linearGradient>
    <rect fill="url(#id11)" x="148.96" y="174.05" width="57.57" height="75.24"/>
   </mask>
   <mask id="id12">
     <linearGradient id="id13" gradientUnits="userSpaceOnUse" x1="323.18" y1="302.33" x2="364.36" y2="138.56">
      <stop offset="0" stop-opacity="1" stop-color="white"/>
      <stop offset="1" stop-opacity="0" stop-color="white"/>
     </linearGradient>
    <rect fill="url(#id13)" x="280.23" y="100.29" width="134.99" height="177.47"/>
   </mask>
   <mask id="id14">
     <linearGradient id="id15" gradientUnits="userSpaceOnUse" x1="257.68" y1="141.36" x2="254.15" y2="364.08">
      <stop offset="0" stop-opacity="1" stop-color="white"/>
      <stop offset="1" stop-opacity="0" stop-color="white"/>
     </linearGradient>
    <rect fill="url(#id15)" x="277.28" y="109.14" width="121.59" height="159.77"/>
   </mask>
   <mask id="id16">
     <linearGradient id="id17" gradientUnits="userSpaceOnUse" x1="283.92" y1="150.27" x2="295.62" y2="291.11">
      <stop offset="0" stop-opacity="1" stop-color="white"/>
      <stop offset="1" stop-opacity="0" stop-color="white"/>
     </linearGradient>
    <rect fill="url(#id17)" x="305.7" y="172.43" width="57.57" height="75.25"/>
   </mask>
   <mask id="id18">
     <linearGradient id="id19" gradientUnits="userSpaceOnUse" x1="365.39" y1="95.66" x2="369.98" y2="83.46">
      <stop offset="0" stop-opacity="1" stop-color="white"/>
      <stop offset="1" stop-opacity="0" stop-color="white"/>
     </linearGradient>
    <rect fill="url(#id19)" x="340.44" y="85.3" width="61.01" height="46.17"/>
   </mask>
   <mask id="id20">
     <linearGradient id="id21" gradientUnits="userSpaceOnUse" x1="133.04" y1="93.64" x2="128.45" y2="81.44">
      <stop offset="0" stop-opacity="1" stop-color="white"/>
      <stop offset="1" stop-opacity="0" stop-color="white"/>
     </linearGradient>
    <rect fill="url(#id21)" x="96.99" y="83.27" width="61" height="46.18"/>
   </mask>
   <linearGradient id="id22" gradientUnits="userSpaceOnUse" x1="134.4" y1="360.32" x2="376.28" y2="360.32">
    <stop offset="0" stop-opacity="1" stop-color="#7B481D"/>
    <stop offset="1" stop-opacity="1" stop-color="#2B2A29"/>
   </linearGradient>
 </defs>
 <g id="Layer_x0020_1">
  <metadata id="CorelCorpID_0Corel-Layer"/>
  <circle fill="#FFD500" cx="249.4" cy="250.1" r="243.4"/>
  <path fill="#FEFEFE" mask="url(#id0)" d="M250.59 27.32c122.6,0 221.99,99.39 221.99,221.99 0,122.6 -99.39,221.99 -221.99,221.99 -122.61,0 -221.99,-99.39 -221.99,-221.99 0,-122.6 99.38,-221.99 221.99,-221.99z"/>
  <path fill="#EF7F1A" d="M136.33 332.45c77.92,69.06 184.29,69.26 241.88,1.21 -24.55,90.77 -172.31,125.6 -241.88,-1.21z"/>
  <path fill="#2B2A29" d="M400.33 342.2c-9.99,-4.66 -24.02,-18.24 -32.29,-29.65 -0.43,16.69 17.68,40.64 32.29,29.65z"/>
  <path fill="#2B2A29" d="M111.17 341.69c10.06,-4.47 24.35,-17.78 32.84,-29.04 0.11,16.7 -18.45,40.3 -32.84,29.04z"/>
  <path fill="#5E5971" mask="url(#id2)" d="M299.5 284.12l132.93 0c12.36,0 34.85,-22.89 22.48,-22.49 -188.26,6.16 -142.72,16.46 -155.41,-155.41 -0.91,-12.34 -22.49,10.12 -22.49,22.48l0 132.93c0,12.37 10.12,22.49 22.49,22.49z"/>
  <path fill="#5E5971" mask="url(#id4)" d="M207.54 285.29l-132.92 0c-12.37,0 -34.85,-22.89 -22.49,-22.49 188.26,6.16 142.72,16.46 155.41,-155.42 0.91,-12.33 22.49,10.12 22.49,22.49l0 132.93c0,12.37 -10.12,22.49 -22.49,22.49z"/>
  <path fill="#5E5971" mask="url(#id6)" d="M156.82 101.47c36.62,0 66.31,39.2 66.31,87.56 0,48.35 -29.69,87.55 -66.31,87.55 -36.63,0 -66.32,-39.2 -66.32,-87.55 0,-48.36 29.69,-87.56 66.32,-87.56z"/>
  <path fill="#FEFEFE" mask="url(#id8)" d="M166.46 110.32c32.93,0 59.62,35.24 59.62,78.71 0,43.46 -26.69,78.7 -59.62,78.7 -32.92,0 -59.61,-35.24 -59.61,-78.7 0,-43.47 26.69,-78.71 59.61,-78.71z"/>
  <path fill="#2B2A29" mask="url(#id10)" d="M177.75 175.23c15.24,0 27.6,16.31 27.6,36.44 0,20.13 -12.36,36.44 -27.6,36.44 -15.25,0 -27.61,-16.31 -27.61,-36.44 0,-20.13 12.36,-36.44 27.61,-36.44z"/>
  <ellipse fill="#2B2A29" cx="179.28" cy="211.99" rx="17.26" ry="22.79"/>
  <path fill="#5E5971" mask="url(#id12)" d="M347.72 101.47c36.63,0 66.32,39.2 66.32,87.56 0,48.35 -29.69,87.55 -66.32,87.55 -36.62,0 -66.31,-39.2 -66.31,-87.55 0,-48.36 29.69,-87.56 66.31,-87.56z"/>
  <path fill="#FEFEFE" mask="url(#id14)" d="M338.08 110.32c32.92,0 59.61,35.24 59.61,78.71 0,43.46 -26.69,78.7 -59.61,78.7 -32.93,0 -59.62,-35.24 -59.62,-78.7 0,-43.47 26.69,-78.71 59.62,-78.71z"/>
  <path fill="#2B2A29" mask="url(#id16)" d="M334.49 173.61c15.24,0 27.6,16.32 27.6,36.44 0,20.13 -12.36,36.45 -27.6,36.45 -15.25,0 -27.61,-16.32 -27.61,-36.45 0,-20.12 12.36,-36.44 27.61,-36.44z"/>
  <ellipse fill="#2B2A29" cx="334.49" cy="210.05" rx="14.9" ry="19.66"/>
  <rect fill="#FEFEFE" x="166.95" y="170.31" width="15.91" height="18.01"/>
  <rect fill="#FEFEFE" x="166.25" y="192.07" width="7.02" height="7.95"/>
  <rect fill="#FEFEFE" x="313.95" y="195.84" width="7.02" height="7.95"/>
  <rect fill="#FEFEFE" x="315.12" y="172.56" width="15.91" height="18.01"/>
  <path fill="#2B2A29" mask="url(#id18)" d="M341.62 93.38c16.91,4.4 42.58,21.53 58.65,36.91 -3.88,-26.06 -38.77,-58.13 -58.65,-36.91z"/>
  <path fill="#2B2A29" mask="url(#id20)" d="M156.81 91.36c-16.9,4.4 -42.57,21.52 -58.64,36.91 3.87,-26.06 38.76,-58.13 58.64,-36.91z"/>
  <path fill="url(#id22)" d="M134.4 337.77c77.92,69.06 184.29,69.26 241.88,1.21 -23.78,71.86 -171.36,102.43 -241.88,-1.21z"/>
 </g>
</svg>
