<?xml version="1.0" encoding="UTF-8"?>
<!DOCTYPE svg PUBLIC "-//W3C//DTD SVG 1.1//EN" "http://www.w3.org/Graphics/SVG/1.1/DTD/svg11.dtd">
<!-- Creator: CorelDRAW 2017 -->
<svg xmlns="http://www.w3.org/2000/svg" xml:space="preserve" version="1.1" shape-rendering="geometricPrecision" text-rendering="geometricPrecision" image-rendering="optimizeQuality" fill-rule="evenodd" clip-rule="evenodd"
viewBox="0 0 500 500"
 xmlns:xlink="http://www.w3.org/1999/xlink">
 <defs>
   <mask id="id0">
     <linearGradient id="id1" gradientUnits="userSpaceOnUse" x1="486.81" y1="473.85" x2="347.5" y2="363.08">
      <stop offset="0" stop-opacity="1" stop-color="white"/>
      <stop offset="1" stop-opacity="0" stop-color="white"/>
     </linearGradient>
    <rect fill="url(#id1)" x="35.15" y="53.33" width="432.66" height="432.66"/>
   </mask>
   <linearGradient id="id2" gradientUnits="userSpaceOnUse" x1="245.27" y1="299.12" x2="208.91" y2="430.32">
    <stop offset="0" stop-opacity="1" stop-color="#4F331B"/>
    <stop offset="1" stop-opacity="1" stop-color="#FEFEFE"/>
   </linearGradient>
   <mask id="id3">
     <linearGradient id="id4" gradientUnits="userSpaceOnUse" x1="199.81" y1="292.28" x2="133.22" y2="204.18">
      <stop offset="0" stop-opacity="1" stop-color="white"/>
      <stop offset="1" stop-opacity="0" stop-color="white"/>
     </linearGradient>
    <rect fill="url(#id4)" x="97.07" y="206.77" width="132.85" height="69.06"/>
   </mask>
   <mask id="id5">
     <linearGradient id="id6" gradientUnits="userSpaceOnUse" x1="260.29" y1="120.23" x2="233.49" y2="356.84">
      <stop offset="0" stop-opacity="1" stop-color="white"/>
      <stop offset="1" stop-opacity="0" stop-color="white"/>
     </linearGradient>
    <rect fill="url(#id6)" x="124.67" y="86.66" width="124.22" height="158.68"/>
   </mask>
   <mask id="id7">
     <linearGradient id="id8" gradientUnits="userSpaceOnUse" x1="245.35" y1="123.16" x2="225.35" y2="263.56">
      <stop offset="0" stop-opacity="1" stop-color="white"/>
      <stop offset="1" stop-opacity="0" stop-color="white"/>
     </linearGradient>
    <rect fill="url(#id8)" x="174.34" y="137.84" width="58.78" height="74.73"/>
   </mask>
   <mask id="id9">
     <linearGradient id="id10" gradientUnits="userSpaceOnUse" x1="317.36" y1="313.34" x2="371.24" y2="262.94">
      <stop offset="0" stop-opacity="1" stop-color="white"/>
      <stop offset="1" stop-opacity="0" stop-color="white"/>
     </linearGradient>
    <rect fill="url(#id10)" x="284.3" y="241.27" width="132.95" height="72.64"/>
   </mask>
   <mask id="id11">
     <linearGradient id="id12" gradientUnits="userSpaceOnUse" x1="286.66" y1="139.73" x2="233.49" y2="356.84">
      <stop offset="0" stop-opacity="1" stop-color="white"/>
      <stop offset="1" stop-opacity="0" stop-color="white"/>
     </linearGradient>
    <rect fill="url(#id12)" x="292.57" y="124.97" width="124.22" height="158.68"/>
   </mask>
   <mask id="id13">
     <linearGradient id="id14" gradientUnits="userSpaceOnUse" x1="295.46" y1="127.2" x2="275.47" y2="267.6">
      <stop offset="0" stop-opacity="1" stop-color="white"/>
      <stop offset="1" stop-opacity="0" stop-color="white"/>
     </linearGradient>
    <rect fill="url(#id14)" x="302.19" y="159.61" width="58.79" height="74.74"/>
   </mask>
 </defs>
 <g id="Layer_x0020_1">
  <metadata id="CorelCorpID_0Corel-Layer"/>
  <path fill="#A00CB0" d="M251.01 30.74c66.47,0 126.43,27.89 168.81,72.61l49.49 -44.75 10.65 163.58 -0.01 0c2.39,13.35 3.63,27.09 3.63,41.13 0,128.44 -104.12,232.57 -232.57,232.57 -128.45,0 -232.57,-104.13 -232.57,-232.57 0,-68.71 29.8,-130.45 77.18,-173.03l41.22 -83.28 25.53 41.24c27.32,-11.27 57.25,-17.5 88.64,-17.5z"/>
  <path fill="#FEFEFE" mask="url(#id0)" d="M251.48 54.51c118.82,0 215.15,96.33 215.15,215.15 0,118.82 -96.33,215.15 -215.15,215.15 -118.82,0 -215.15,-96.33 -215.15,-215.15 0,-118.82 96.33,-215.15 215.15,-215.15z"/>
  <path fill="url(#id2)" d="M96.04 257.76c73.66,61.56 205.76,93.63 297.5,86.22 -65.43,133.34 -262.03,141.53 -297.5,-86.22z"/>
  <path fill="#E31E24" d="M111.56 292.02c64.37,44.13 175.66,72.07 251.38,72.07 -47.23,83.69 -209.91,78.65 -251.38,-72.07z"/>
  <path fill="#FEFEFE" d="M111.56 292.02c65.01,43.31 175.78,73.23 251.69,70.96 -34.78,38.75 -192.31,15.11 -251.69,-70.96z"/>
  <path fill="#2B2A29" d="M72.71 271.45c13.05,-5.06 30.81,-20.35 41,-33.32 1.95,19.39 -20.46,46.57 -41,33.32z"/>
  <path fill="#2B2A29" d="M409.31 366.59c-8.58,-11.06 -15.94,-33.31 -18,-49.67 -11.65,15.61 -6.43,50.45 18,49.67z"/>
  <ellipse fill="#2B2A29" transform="matrix(0.33273 0.0759202 -0.096817 0.424313 177.342 163.847)" rx="195" ry="201.87"/>
  <path fill="#2B2A29" mask="url(#id3)" d="M170.31 211.42c35.84,8.18 61.83,28.19 58.07,44.69 -3.77,16.5 -35.87,23.25 -71.7,15.07 -35.84,-8.18 -61.83,-28.18 -58.07,-44.68 3.77,-16.5 35.87,-23.25 71.7,-15.08z"/>
  <path fill="#FEFEFE" mask="url(#id5)" d="M204.35 89c32.21,7.35 50.46,47.78 40.75,90.31 -9.7,42.53 -43.68,71.04 -75.89,63.69 -32.21,-7.35 -50.46,-47.78 -40.76,-90.31 9.71,-42.52 43.69,-71.04 75.9,-63.69z"/>
  <path fill="#2B2A29" mask="url(#id7)" d="M211.86 139.55c14.92,3.4 23.37,22.12 18.87,41.82 -4.49,19.69 -20.22,32.89 -35.14,29.49 -14.91,-3.41 -23.36,-22.13 -18.87,-41.82 4.5,-19.69 20.23,-32.89 35.14,-29.49z"/>
  <ellipse fill="#2B2A29" transform="matrix(0.0974211 0.0222289 -0.0283474 0.124236 208.95 180.813)" rx="195" ry="201.87"/>
  <ellipse fill="#2B2A29" transform="matrix(0.33273 0.0759202 -0.096817 0.424313 364.116 206.464)" rx="195" ry="201.87"/>
  <path fill="#2B2A29" mask="url(#id9)" d="M358.05 245.73c35.83,8.18 61.62,29.07 57.61,46.66 -4.02,17.6 -36.32,25.23 -72.15,17.06 -35.84,-8.18 -61.63,-29.07 -57.62,-46.67 4.02,-17.59 36.32,-25.23 72.16,-17.05z"/>
  <path fill="#FEFEFE" mask="url(#id11)" d="M372.25 127.31c32.21,7.35 50.46,47.78 40.75,90.31 -9.7,42.53 -43.68,71.04 -75.89,63.69 -32.21,-7.35 -50.46,-47.78 -40.76,-90.31 9.71,-42.53 43.69,-71.04 75.9,-63.69z"/>
  <path fill="#2B2A29" mask="url(#id13)" d="M339.72 161.33c14.91,3.4 23.36,22.12 18.87,41.81 -4.49,19.69 -20.23,32.89 -35.14,29.49 -14.92,-3.4 -23.36,-22.12 -18.87,-41.81 4.49,-19.69 20.22,-32.9 35.14,-29.49z"/>
  <ellipse fill="#2B2A29" transform="matrix(0.105356 0.0240396 -0.0306564 0.134355 324.714 200.437)" rx="195" ry="201.87"/>
  <rect fill="#FEFEFE" transform="matrix(0.366222 0.0835623 -0.0835623 0.366222 200.916 138.822)" width="42.5" height="48.12"/>
  <rect fill="#FEFEFE" transform="matrix(0.161646 0.0368833 -0.0368833 0.161646 195.371 159.955)" width="42.5" height="48.12"/>
  <rect fill="#FEFEFE" transform="matrix(0.161646 0.0368833 -0.0368833 0.161646 331.61 190.207)" width="42.5" height="48.12"/>
  <rect fill="#FEFEFE" transform="matrix(0.366222 0.0835623 -0.0835623 0.366222 337.95 167.691)" width="42.5" height="48.12"/>
  <path fill="#2B2A29" d="M266.28 134.69c-18.07,-9.39 -42.82,-35.51 -57.1,-57.18 -2.35,30.64 29,76.15 57.1,57.18z"/>
  <path fill="#2B2A29" d="M291.79 144.39c20.36,-0.62 53.99,-13.42 76.25,-26.75 -11.17,28.63 -59.16,56.04 -76.25,26.75z"/>
 </g>
</svg>
