<?xml version="1.0" encoding="UTF-8"?>
<!DOCTYPE svg PUBLIC "-//W3C//DTD SVG 1.1//EN" "http://www.w3.org/Graphics/SVG/1.1/DTD/svg11.dtd">
<!-- Creator: CorelDRAW 2017 -->
<svg xmlns="http://www.w3.org/2000/svg" xml:space="preserve"  version="1.1" shape-rendering="geometricPrecision" text-rendering="geometricPrecision" image-rendering="optimizeQuality" fill-rule="evenodd" clip-rule="evenodd"
viewBox="0 0 500 500"
 xmlns:xlink="http://www.w3.org/1999/xlink">
 <defs>
   <mask id="id0">
     <linearGradient id="id1" gradientUnits="userSpaceOnUse" x1="-160.37" y1="221.15" x2="254.34" y2="262.51">
      <stop offset="0" stop-opacity="1" stop-color="white"/>
      <stop offset="1" stop-opacity="0" stop-color="white"/>
     </linearGradient>
    <rect fill="url(#id1)" x="33.04" y="23.88" width="444.97" height="444.98"/>
   </mask>
   <mask id="id2">
     <linearGradient id="id3" gradientUnits="userSpaceOnUse" x1="302.4" y1="252.53" x2="351.25" y2="190.96">
      <stop offset="0" stop-opacity="1" stop-color="white"/>
      <stop offset="1" stop-opacity="0" stop-color="white"/>
     </linearGradient>
    <rect fill="url(#id3)" x="280.69" y="98.96" width="183.3" height="183.29"/>
   </mask>
   <mask id="id4">
     <linearGradient id="id5" gradientUnits="userSpaceOnUse" x1="214.49" y1="253.7" x2="165.65" y2="192.12">
      <stop offset="0" stop-opacity="1" stop-color="white"/>
      <stop offset="1" stop-opacity="0" stop-color="white"/>
     </linearGradient>
    <rect fill="url(#id5)" x="52.91" y="100.12" width="183.3" height="183.3"/>
   </mask>
   <mask id="id6">
     <linearGradient id="id7" gradientUnits="userSpaceOnUse" x1="208.48" y1="304.82" x2="124.52" y2="102.37">
      <stop offset="0" stop-opacity="1" stop-color="white"/>
      <stop offset="1" stop-opacity="0" stop-color="white"/>
     </linearGradient>
    <rect fill="url(#id7)" x="94.75" y="97.81" width="134.59" height="176.93"/>
   </mask>
   <mask id="id8">
     <linearGradient id="id9" gradientUnits="userSpaceOnUse" x1="232.74" y1="125.7" x2="259.07" y2="360.79">
      <stop offset="0" stop-opacity="1" stop-color="white"/>
      <stop offset="1" stop-opacity="0" stop-color="white"/>
     </linearGradient>
    <rect fill="url(#id9)" x="111.04" y="106.63" width="121.23" height="159.29"/>
   </mask>
   <mask id="id10">
     <linearGradient id="id11" gradientUnits="userSpaceOnUse" x1="204.59" y1="131.62" x2="216.25" y2="272.02">
      <stop offset="0" stop-opacity="1" stop-color="white"/>
      <stop offset="1" stop-opacity="0" stop-color="white"/>
     </linearGradient>
    <rect fill="url(#id11)" x="147.08" y="153.71" width="57.4" height="75.02"/>
   </mask>
   <mask id="id12">
     <linearGradient id="id13" gradientUnits="userSpaceOnUse" x1="327.9" y1="299.22" x2="368.95" y2="135.96">
      <stop offset="0" stop-opacity="1" stop-color="white"/>
      <stop offset="1" stop-opacity="0" stop-color="white"/>
     </linearGradient>
    <rect fill="url(#id13)" x="285.07" y="97.81" width="134.59" height="176.93"/>
   </mask>
   <mask id="id14">
     <linearGradient id="id15" gradientUnits="userSpaceOnUse" x1="262.59" y1="138.76" x2="259.07" y2="360.79">
      <stop offset="0" stop-opacity="1" stop-color="white"/>
      <stop offset="1" stop-opacity="0" stop-color="white"/>
     </linearGradient>
    <rect fill="url(#id15)" x="282.13" y="106.63" width="121.23" height="159.29"/>
   </mask>
   <mask id="id16">
     <linearGradient id="id17" gradientUnits="userSpaceOnUse" x1="290.71" y1="130.62" x2="302.37" y2="271.03">
      <stop offset="0" stop-opacity="1" stop-color="white"/>
      <stop offset="1" stop-opacity="0" stop-color="white"/>
     </linearGradient>
    <rect fill="url(#id17)" x="312.42" y="152.71" width="57.39" height="75.02"/>
   </mask>
   <mask id="id18">
     <linearGradient id="id19" gradientUnits="userSpaceOnUse" x1="336.33" y1="90.97" x2="334.52" y2="78.1">
      <stop offset="0" stop-opacity="1" stop-color="white"/>
      <stop offset="1" stop-opacity="0" stop-color="white"/>
     </linearGradient>
    <rect fill="url(#id19)" x="313.26" y="82.46" width="71.3" height="23.36"/>
   </mask>
   <mask id="id20">
     <linearGradient id="id21" gradientUnits="userSpaceOnUse" x1="175.31" y1="85.11" x2="177.11" y2="72.25">
      <stop offset="0" stop-opacity="1" stop-color="white"/>
      <stop offset="1" stop-opacity="0" stop-color="white"/>
     </linearGradient>
    <rect fill="url(#id21)" x="127.07" y="76.6" width="71.31" height="23.37"/>
   </mask>
 </defs>
 <g id="Layer_x0020_1">
  <metadata id="CorelCorpID_0Corel-Layer"/>
  <circle fill="#FFD500" cx="254.34" cy="247.16" r="242.66"/>
  <path fill="#FEFEFE" mask="url(#id0)" d="M255.52 25.06c122.23,0 221.31,99.08 221.31,221.31 0,122.22 -99.08,221.31 -221.31,221.31 -122.22,0 -221.3,-99.09 -221.3,-221.31 0,-122.23 99.08,-221.31 221.3,-221.31z"/>
  <path fill="#5E5971" mask="url(#id2)" d="M304.28 281.07l132.52 0c12.33,0 34.75,-22.82 22.42,-22.41 -187.68,6.13 -142.28,16.41 -154.94,-154.94 -0.9,-12.3 -22.41,10.09 -22.41,22.42l0 132.52c0,12.33 10.08,22.41 22.41,22.41z"/>
  <path fill="#5E5971" mask="url(#id4)" d="M212.61 282.24l-132.52 0c-12.33,0 -34.74,-22.82 -22.42,-22.42 187.68,6.14 142.29,16.41 154.94,-154.94 0.91,-12.3 22.42,10.09 22.42,22.42l0 132.52c0,12.33 -10.09,22.42 -22.42,22.42z"/>
  <path fill="#5E5971" mask="url(#id6)" d="M162.04 98.99c36.51,0 66.12,39.08 66.12,87.28 0,48.21 -29.61,87.29 -66.12,87.29 -36.51,0 -66.11,-39.08 -66.11,-87.29 0,-48.2 29.6,-87.28 66.11,-87.28z"/>
  <path fill="#FEFEFE" mask="url(#id8)" d="M171.66 107.81c32.82,0 59.43,35.13 59.43,78.46 0,43.34 -26.61,78.47 -59.43,78.47 -32.83,0 -59.44,-35.13 -59.44,-78.47 0,-43.33 26.61,-78.46 59.44,-78.46z"/>
  <path fill="#2B2A29" mask="url(#id10)" d="M175.78 154.89c15.2,0 27.52,16.27 27.52,36.33 0,20.06 -12.32,36.33 -27.52,36.33 -15.2,0 -27.52,-16.27 -27.52,-36.33 0,-20.06 12.32,-36.33 27.52,-36.33z"/>
  <ellipse fill="#2B2A29" cx="176.4" cy="200.1" rx="14.38" ry="18.98"/>
  <path fill="#5E5971" mask="url(#id12)" d="M352.36 98.99c36.52,0 66.12,39.08 66.12,87.28 0,48.21 -29.6,87.29 -66.12,87.29 -36.51,0 -66.11,-39.08 -66.11,-87.29 0,-48.2 29.6,-87.28 66.11,-87.28z"/>
  <path fill="#FEFEFE" mask="url(#id14)" d="M342.75 107.81c32.82,0 59.43,35.13 59.43,78.46 0,43.34 -26.61,78.47 -59.43,78.47 -32.83,0 -59.44,-35.13 -59.44,-78.47 0,-43.33 26.61,-78.46 59.44,-78.46z"/>
  <path fill="#2B2A29" mask="url(#id16)" d="M341.11 153.89c15.2,0 27.52,16.27 27.52,36.33 0,20.07 -12.32,36.33 -27.52,36.33 -15.19,0 -27.51,-16.26 -27.51,-36.33 0,-20.06 12.32,-36.33 27.51,-36.33z"/>
  <ellipse fill="#2B2A29" cx="341.89" cy="199.8" rx="14.85" ry="19.6"/>
  <rect fill="#FEFEFE" x="165.02" y="149.99" width="15.86" height="17.96"/>
  <rect fill="#FEFEFE" x="164.32" y="171.69" width="7" height="7.93"/>
  <rect fill="#FEFEFE" x="320.64" y="176.05" width="7" height="7.93"/>
  <rect fill="#FEFEFE" x="321.8" y="152.84" width="15.86" height="17.96"/>
  <path fill="#2B2A29" mask="url(#id18)" d="M314.44 100.32c16.89,-4.21 47.53,-1.48 68.94,4.32 -15.82,-20.96 -61.67,-32.38 -68.94,-4.32z"/>
  <path fill="#2B2A29" mask="url(#id20)" d="M197.2 94.46c-16.9,-4.21 -47.54,-1.47 -68.95,4.33 15.83,-20.96 61.68,-32.38 68.95,-4.33z"/>
  <path fill="#B2B3B3" d="M202.45 397.8c75.58,-49.05 105.99,-36.27 124.5,-46.85 10.23,-5.84 6.14,-16.65 -8.88,-18.31 -28.51,-3.16 -89.22,13.26 -115.62,65.16z"/>
  <path fill="#2B2A29" d="M203.75 400.06c75.59,-49.06 106,-36.28 124.51,-46.86 10.22,-5.84 6.13,-16.65 -8.89,-18.31 -28.51,-3.15 -89.22,13.26 -115.62,65.17z"/>
 </g>
</svg>
