<?xml version="1.0" encoding="UTF-8"?>
<!DOCTYPE svg PUBLIC "-//W3C//DTD SVG 1.1//EN" "http://www.w3.org/Graphics/SVG/1.1/DTD/svg11.dtd">
<!-- Creator: CorelDRAW 2017 -->
<svg xmlns="http://www.w3.org/2000/svg" xml:space="preserve" version="1.1" shape-rendering="geometricPrecision" text-rendering="geometricPrecision" image-rendering="optimizeQuality" fill-rule="evenodd" clip-rule="evenodd"
viewBox="0 0 500 500"
 xmlns:xlink="http://www.w3.org/1999/xlink">
 <defs>
   <mask id="id0">
     <linearGradient id="id1" gradientUnits="userSpaceOnUse" x1="-165.08" y1="225.9" x2="249.92" y2="267.29">
      <stop offset="0" stop-opacity="1" stop-color="white"/>
      <stop offset="1" stop-opacity="0" stop-color="white"/>
     </linearGradient>
    <rect fill="url(#id1)" x="28.47" y="28.5" width="445.28" height="445.28"/>
   </mask>
   <mask id="id2">
     <linearGradient id="id3" gradientUnits="userSpaceOnUse" x1="253.31" y1="-90.62" x2="234.95" y2="249.95">
      <stop offset="0" stop-opacity="1" stop-color="white"/>
      <stop offset="1" stop-opacity="0" stop-color="white"/>
     </linearGradient>
    <rect fill="url(#id3)" x="28.47" y="28.5" width="445.28" height="445.28"/>
   </mask>
   <mask id="id4">
     <linearGradient id="id5" gradientUnits="userSpaceOnUse" x1="267.69" y1="300.08" x2="269.42" y2="352.29">
      <stop offset="0" stop-opacity="1" stop-color="white"/>
      <stop offset="1" stop-opacity="0" stop-color="white"/>
     </linearGradient>
    <rect fill="url(#id5)" x="139.95" y="315.04" width="226.8" height="61.87"/>
   </mask>
   <linearGradient id="id6" gradientUnits="userSpaceOnUse" x1="158.6" y1="345.97" x2="348.1" y2="345.97">
    <stop offset="0" stop-opacity="1" stop-color="#7B481D"/>
    <stop offset="1" stop-opacity="1" stop-color="#2B2A29"/>
   </linearGradient>
   <mask id="id7">
     <linearGradient id="id8" gradientUnits="userSpaceOnUse" x1="266.66" y1="306.39" x2="264.66" y2="388.22">
      <stop offset="0" stop-opacity="1" stop-color="white"/>
      <stop offset="1" stop-opacity="0" stop-color="white"/>
     </linearGradient>
    <rect fill="url(#id8)" x="144.97" y="350.76" width="225.8" height="62.53"/>
   </mask>
   <mask id="id9">
     <linearGradient id="id10" gradientUnits="userSpaceOnUse" x1="500.5" y1="212.83" x2="432.77" y2="211.93">
      <stop offset="0" stop-opacity="1" stop-color="white"/>
      <stop offset="1" stop-opacity="0" stop-color="white"/>
     </linearGradient>
    <rect fill="url(#id10)" x="406" y="164.05" width="71.21" height="121.06"/>
   </mask>
   <mask id="id11">
     <linearGradient id="id12" gradientUnits="userSpaceOnUse" x1="291.76" y1="246.98" x2="333.68" y2="194.13">
      <stop offset="0" stop-opacity="1" stop-color="white"/>
      <stop offset="1" stop-opacity="0" stop-color="white"/>
     </linearGradient>
    <rect fill="url(#id12)" x="272.95" y="115.01" width="157.66" height="157.64"/>
   </mask>
   <mask id="id13">
     <linearGradient id="id14" gradientUnits="userSpaceOnUse" x1="216.31" y1="247.98" x2="174.39" y2="195.13">
      <stop offset="0" stop-opacity="1" stop-color="white"/>
      <stop offset="1" stop-opacity="0" stop-color="white"/>
     </linearGradient>
    <rect fill="url(#id14)" x="77.46" y="116.01" width="157.66" height="157.64"/>
   </mask>
   <mask id="id15">
     <linearGradient id="id16" gradientUnits="userSpaceOnUse" x1="207.81" y1="143.2" x2="217.82" y2="263.71">
      <stop offset="0" stop-opacity="1" stop-color="white"/>
      <stop offset="1" stop-opacity="0" stop-color="white"/>
     </linearGradient>
    <rect fill="url(#id16)" x="158.29" y="162" width="49.59" height="64.72"/>
   </mask>
   <mask id="id17">
     <linearGradient id="id18" gradientUnits="userSpaceOnUse" x1="357.78" y1="288.26" x2="340.74" y2="144.79">
      <stop offset="0" stop-opacity="1" stop-color="white"/>
      <stop offset="1" stop-opacity="0" stop-color="white"/>
     </linearGradient>
    <rect fill="url(#id18)" x="282.28" y="116.15" width="121.11" height="148.11"/>
   </mask>
   <linearGradient id="id19" gradientUnits="userSpaceOnUse" x1="296.83" y1="165.56" x2="394.19" y2="215.84">
    <stop offset="0" stop-opacity="1" stop-color="#7B481D"/>
    <stop offset="1" stop-opacity="1" stop-color="#2B2A29"/>
   </linearGradient>
   <mask id="id20">
     <linearGradient id="id21" gradientUnits="userSpaceOnUse" x1="256.32" y1="179.57" x2="321.42" y2="358.69">
      <stop offset="0" stop-opacity="1" stop-color="white"/>
      <stop offset="1" stop-opacity="0" stop-color="white"/>
     </linearGradient>
    <rect fill="url(#id21)" x="280.57" y="126.46" width="109.11" height="133.38"/>
   </mask>
   <mask id="id22">
     <linearGradient id="id23" gradientUnits="userSpaceOnUse" x1="257.81" y1="128.39" x2="310.12" y2="237.41">
      <stop offset="0" stop-opacity="1" stop-color="white"/>
      <stop offset="1" stop-opacity="0" stop-color="white"/>
     </linearGradient>
    <rect fill="url(#id23)" x="290.57" y="129.25" width="51.78" height="63.03"/>
   </mask>
   <mask id="id24">
     <linearGradient id="id25" gradientUnits="userSpaceOnUse" x1="350.77" y1="85.38" x2="362.44" y2="70.16">
      <stop offset="0" stop-opacity="1" stop-color="white"/>
      <stop offset="1" stop-opacity="0" stop-color="white"/>
     </linearGradient>
    <rect fill="url(#id25)" x="317.09" y="66.35" width="69.78" height="83.89"/>
   </mask>
   <mask id="id26">
     <linearGradient id="id27" gradientUnits="userSpaceOnUse" x1="157.29" y1="83.15" x2="151.11" y2="64.8">
      <stop offset="0" stop-opacity="1" stop-color="white"/>
      <stop offset="1" stop-opacity="0" stop-color="white"/>
     </linearGradient>
    <rect fill="url(#id27)" x="102.51" y="68.75" width="91.37" height="65.18"/>
   </mask>
   <linearGradient id="id28" gradientUnits="userSpaceOnUse" x1="46.12" y1="203.68" x2="251.22" y2="314.98">
    <stop offset="0" stop-opacity="1" stop-color="#7B481D"/>
    <stop offset="1" stop-opacity="1" stop-color="#2B2A29"/>
   </linearGradient>
 </defs>
 <g id="Layer_x0020_1">
  <metadata id="CorelCorpID_0Corel-Layer"/>
  <circle fill="#FFD500" cx="249.93" cy="251.93" r="242.82"/>
  <path fill="#FEFEFE" mask="url(#id0)" d="M251.11 29.68c122.31,0 221.46,99.15 221.46,221.46 0,122.31 -99.15,221.46 -221.46,221.46 -122.31,0 -221.46,-99.15 -221.46,-221.46 0,-122.31 99.15,-221.46 221.46,-221.46z"/>
  <path fill="#008DD2" mask="url(#id2)" d="M472.57 251.14c0,122.31 -99.15,221.46 -221.46,221.46 -122.31,0 -221.46,-99.15 -221.46,-221.46 0,-122.31 99.15,-221.46 221.46,-221.46 122.31,0 221.46,99.15 221.46,221.46z"/>
  <path fill="#2B2A29" mask="url(#id4)" d="M141.13 375.73c63.35,-17.33 161.81,-15.42 224.44,-1.59 -19.88,-63.8 -155.6,-90.2 -224.44,1.59z"/>
  <path fill="url(#id6)" d="M158.6 371.1c53.49,-14.64 136.62,-13.02 189.5,-1.35 -16.79,-53.87 -131.38,-76.15 -189.5,1.35z"/>
  <path fill="#EF7F1A" mask="url(#id7)" d="M146.15 375.45c55.08,-31.89 166.09,-29.25 223.44,-4.59 -72.08,51.1 -130.22,57.11 -223.44,4.59z"/>
  <path fill="#008DD2" d="M444.41 147.59c-15.08,42.75 -36.6,59.05 -40.22,80.27 -13.41,78.48 86.73,80.61 75.52,-0.24 -2.92,-21.03 -26.61,-38.99 -35.3,-80.03z"/>
  <path fill="#FEFEFE" mask="url(#id9)" d="M443.94 165.23c-13.37,36.27 -32.45,50.1 -35.67,68.11 -11.88,66.59 76.92,68.4 66.98,-0.21 -2.59,-17.84 -23.6,-33.08 -31.31,-67.9z"/>
  <rect fill="#FEFEFE" x="415.51" y="225.27" width="17.14" height="19.41"/>
  <rect fill="#FEFEFE" x="423.58" y="254.46" width="7.56" height="8.57"/>
  <path fill="#5E5971" mask="url(#id11)" d="M293.37 271.47l113.74 0c10.58,0 29.82,-19.58 19.24,-19.24 -161.08,5.27 -122.12,14.09 -132.98,-132.97 -0.78,-10.56 -19.24,8.65 -19.24,19.24l0 113.73c0,10.59 8.66,19.24 19.24,19.24z"/>
  <path fill="#5E5971" mask="url(#id13)" d="M214.7 272.47l-113.74 0c-10.58,0 -29.82,-19.58 -19.24,-19.24 161.08,5.27 122.12,14.09 132.98,-132.97 0.78,-10.56 19.24,8.66 19.24,19.24l0 113.73c0,10.59 -8.66,19.24 -19.24,19.24z"/>
  <path fill="#2B2A29" mask="url(#id15)" d="M183.08 163.18c13.05,0 23.62,13.96 23.62,31.18 0,17.22 -10.57,31.18 -23.62,31.18 -13.04,0 -23.61,-13.96 -23.61,-31.18 0,-17.22 10.57,-31.18 23.61,-31.18z"/>
  <ellipse fill="#2B2A29" cx="184.4" cy="194.63" rx="14.77" ry="19.5"/>
  <path fill="url(#id19)" mask="url(#id17)" d="M316.13 120.22c29.28,-11.17 64.97,11.11 79.72,49.76 14.75,38.66 2.97,79.05 -26.31,90.22 -29.28,11.17 -64.97,-11.11 -79.72,-49.76 -14.75,-38.66 -2.97,-79.05 26.31,-90.22z"/>
  <path fill="#FEFEFE" mask="url(#id20)" d="M311.12 130.23c26.32,-10.04 58.4,9.99 71.66,44.74 13.26,34.75 2.67,71.06 -23.65,81.1 -26.32,10.04 -58.4,-9.99 -71.66,-44.73 -13.26,-34.75 -2.67,-71.06 23.65,-81.11z"/>
  <path fill="#2B2A29" mask="url(#id22)" d="M305.34 131.63c12.19,-4.65 27.05,4.63 33.19,20.72 6.13,16.09 1.23,32.9 -10.95,37.55 -12.19,4.65 -27.05,-4.63 -33.19,-20.71 -6.13,-16.09 -1.23,-32.91 10.95,-37.56z"/>
  <ellipse fill="#2B2A29" transform="matrix(0.0610623 -0.0232988 0.0297118 0.0778695 320.011 168.209)" rx="195" ry="201.87"/>
  <rect fill="#FEFEFE" x="173.85" y="158.97" width="13.61" height="15.41"/>
  <rect fill="#FEFEFE" x="173.25" y="177.59" width="6.01" height="6.8"/>
  <rect fill="#FEFEFE" transform="matrix(0.13208 -0.0503961 0.0503961 0.13208 295.706 155.667)" width="42.5" height="48.12"/>
  <rect fill="#FEFEFE" transform="matrix(0.299237 -0.114177 0.114177 0.299237 289.539 136.7)" width="42.5" height="48.12"/>
  <path fill="#2B2A29" mask="url(#id24)" d="M318.27 72.02c21.92,13.42 50.76,48.5 66.82,77.04 5.68,-38.36 -29.76,-98.43 -66.82,-77.04z"/>
  <path fill="#2B2A29" mask="url(#id26)" d="M192.7 81.01c-25.33,5.65 -64.35,29.73 -89.01,51.74 7.12,-38.49 60.6,-84.28 89.01,-51.74z"/>
  <path fill="url(#id28)" d="M58.18 325.34c-15.54,-15.28 -10.96,-46.18 2.57,-62.68 12.49,-15.22 -13.76,-58.81 -5.43,-78.61 18.19,-19.74 45.83,-3.66 59.01,33.63l-24.91 18.67c66.87,-32 72.17,-52.33 60.52,-104.18 -10.31,-45.97 52.27,-24.26 55.71,19.54 2.73,34.89 -12.27,42.55 -24.07,79.63l34.8 -73.09c20.01,33.69 11.03,40.22 0.69,90.65 14.43,-14.14 24.56,-37.99 20.34,-62.21 30.03,31.92 18.02,77.6 7.02,93.29l13.43 -19.48c2.14,23.61 -47.58,64.79 -65.98,78.78 -32.61,24.78 -81.46,28.61 -83.61,40.36 20.85,4.18 27.2,-4.75 35.24,-2.53 1.96,21.75 -24.56,32.47 -41.87,33.03 -19.96,0.65 -39.02,-8.63 -54.96,-21.28 -15.11,-17.94 -18.91,-17.06 -19.44,-41.29 -0.35,-15.91 0.64,-29.11 16.2,-37.21 15.05,16.53 -0.76,7.08 4.23,26.35l17.34 20.8 -12.31 -21.99c2.48,-3.67 -4.39,-3.53 5.75,-2.96l-0.27 -7.22zm-25.05 -16.78l-8.89 10.13c-9.28,18.92 -8.55,44.23 4.07,61.42l11.4 14.07c24.25,19.23 43.79,30.84 75.26,22.76 13.45,-3.46 29.53,-11.44 34.63,-25.13 6.69,-17.94 -11.19,-15.26 14.46,-25.65 40.56,-16.43 112.68,-79.51 103.22,-127.68 -7.47,-38.04 -15.44,-42.01 -34.03,-71.88 -11.46,-18.4 -35.66,-58.3 -54.46,-66.27 -30.1,-12.75 -50.86,12.22 -32.9,45.21 9.86,25.86 -0.74,54.02 -24.2,65.46 10.4,-16.48 -66.73,-95.79 -75.52,-19.87 -4.02,26.11 10.75,25.02 13.35,56.2 -10.86,22.51 -17.99,28.81 -15.44,55.53l-10.95 5.7z"/>
  <path fill="#FEFEFE" d="M108.27 379.64c2.15,-11.75 51,-15.58 83.61,-40.36 18.4,-13.99 68.12,-55.17 65.98,-78.78l-13.12 19.03c10.91,-16.09 22.42,-61.22 -7.33,-92.84 4.22,24.22 -5.91,48.07 -20.34,62.21 10.34,-50.43 19.32,-56.96 -0.69,-90.65l-34.8 73.09c11.8,-37.08 26.8,-44.74 24.07,-79.63 -3.44,-43.8 -66.02,-65.51 -55.71,-19.54 11.65,51.85 6.35,72.18 -60.52,104.18l24.91 -18.67c-13.18,-37.29 -40.82,-53.37 -59.01,-33.63 -8.33,19.8 17.92,63.39 5.43,78.61 -13.53,16.5 -18.11,47.4 -2.57,62.68l0.27 7.22c-10.14,-0.57 -3.27,-0.71 -5.75,2.96l12.31 21.99 -17.34 -20.8c-4.99,-19.27 10.82,-9.82 -4.23,-26.35 -15.56,8.1 -16.55,21.3 -16.2,37.21 0.53,24.23 4.33,23.35 19.44,41.29 15.94,12.65 35,21.93 54.96,21.28 17.31,-0.56 43.83,-11.28 41.87,-33.03 -8.04,-2.22 -14.39,6.71 -35.24,2.53z"/>
 </g>
</svg>
