<?xml version="1.0" encoding="UTF-8"?>
<!DOCTYPE svg PUBLIC "-//W3C//DTD SVG 1.1//EN" "http://www.w3.org/Graphics/SVG/1.1/DTD/svg11.dtd">
<!-- Creator: CorelDRAW 2017 -->
<svg xmlns="http://www.w3.org/2000/svg" xml:space="preserve"  version="1.1" shape-rendering="geometricPrecision" text-rendering="geometricPrecision" image-rendering="optimizeQuality" fill-rule="evenodd" clip-rule="evenodd"
viewBox="0 0 500 500"
 xmlns:xlink="http://www.w3.org/1999/xlink">
 <defs>
   <mask id="id0">
     <linearGradient id="id1" gradientUnits="userSpaceOnUse" x1="-157.29" y1="231.74" x2="247.96" y2="272.16">
      <stop offset="0" stop-opacity="1" stop-color="white"/>
      <stop offset="1" stop-opacity="0" stop-color="white"/>
     </linearGradient>
    <rect fill="url(#id1)" x="31.68" y="38.94" width="434.88" height="434.88"/>
   </mask>
    <mask id="id2">
      <linearGradient id="id3" gradientUnits="userSpaceOnUse" x1="292.27" y1="242.17" x2="340.16" y2="181.81">
       <stop offset="0" stop-opacity="1" stop-color="white"/>
       <stop offset="1" stop-opacity="0" stop-color="white"/>
      </linearGradient>
     <rect fill="url(#id3)" x="270.96" y="91.6" width="179.75" height="179.74"/>
    </mask>
    <mask id="id4">
      <linearGradient id="id5" gradientUnits="userSpaceOnUse" x1="296.42" y1="301.62" x2="378.73" y2="103.15">
       <stop offset="0" stop-opacity="1" stop-color="white"/>
       <stop offset="1" stop-opacity="0" stop-color="white"/>
      </linearGradient>
     <rect fill="url(#id5)" x="275.95" y="98.65" width="131.99" height="173.5"/>
    </mask>
    <mask id="id6">
      <linearGradient id="id7" gradientUnits="userSpaceOnUse" x1="272.64" y1="126.02" x2="246.82" y2="356.49">
       <stop offset="0" stop-opacity="1" stop-color="white"/>
       <stop offset="1" stop-opacity="0" stop-color="white"/>
      </linearGradient>
     <rect fill="url(#id7)" x="273.07" y="107.3" width="118.89" height="156.2"/>
    </mask>
    <mask id="id8">
      <linearGradient id="id9" gradientUnits="userSpaceOnUse" x1="283.41" y1="132.91" x2="271.98" y2="270.56">
       <stop offset="0" stop-opacity="1" stop-color="white"/>
       <stop offset="1" stop-opacity="0" stop-color="white"/>
      </linearGradient>
     <rect fill="url(#id9)" x="283.5" y="154.55" width="56.31" height="73.59"/>
    </mask>
    <mask id="id10">
      <linearGradient id="id11" gradientUnits="userSpaceOnUse" x1="293.08" y1="141.99" x2="285.92" y2="228.09">
       <stop offset="0" stop-opacity="1" stop-color="white"/>
       <stop offset="1" stop-opacity="0" stop-color="white"/>
      </linearGradient>
     <rect fill="url(#id11)" x="292.69" y="155.08" width="36.11" height="46.92"/>
    </mask>
   <mask id="id12">
     <linearGradient id="id13" gradientUnits="userSpaceOnUse" x1="184.79" y1="243.26" x2="185.82" y2="265.62">
      <stop offset="0" stop-opacity="1" stop-color="white"/>
      <stop offset="1" stop-opacity="0" stop-color="white"/>
     </linearGradient>
    <rect fill="url(#id13)" x="101.53" y="200.09" width="119.91" height="53.67"/>
   </mask>
   <mask id="id14">
     <linearGradient id="id15" gradientUnits="userSpaceOnUse" x1="184.79" y1="241.84" x2="185.82" y2="264.2">
      <stop offset="0" stop-opacity="1" stop-color="white"/>
      <stop offset="1" stop-opacity="0" stop-color="white"/>
     </linearGradient>
    <rect fill="url(#id15)" x="101.53" y="198.67" width="119.91" height="53.67"/>
   </mask>
   <mask id="id16">
     <linearGradient id="id17" gradientUnits="userSpaceOnUse" x1="181.22" y1="232.28" x2="182.24" y2="254.63">
      <stop offset="0" stop-opacity="1" stop-color="white"/>
      <stop offset="1" stop-opacity="0" stop-color="white"/>
     </linearGradient>
    <rect fill="url(#id17)" x="101.53" y="200.09" width="119.91" height="45.78"/>
   </mask>
   <mask id="id18">
     <linearGradient id="id19" gradientUnits="userSpaceOnUse" x1="347.55" y1="82.71" x2="352.03" y2="70.79">
      <stop offset="0" stop-opacity="1" stop-color="white"/>
      <stop offset="1" stop-opacity="0" stop-color="white"/>
     </linearGradient>
    <rect fill="url(#id19)" x="323.14" y="72.56" width="59.67" height="45.18"/>
   </mask>
   <mask id="id20">
     <linearGradient id="id21" gradientUnits="userSpaceOnUse" x1="155.57" y1="116.11" x2="154.22" y2="99.98">
      <stop offset="0" stop-opacity="1" stop-color="white"/>
      <stop offset="1" stop-opacity="0" stop-color="white"/>
     </linearGradient>
    <rect fill="url(#id21)" x="100.98" y="105.65" width="84.95" height="41.22"/>
   </mask>
    <mask id="id22">
      <linearGradient id="id23" gradientUnits="userSpaceOnUse" x1="217.88" y1="395.42" x2="227.42" y2="352.71">
       <stop offset="0" stop-opacity="1" stop-color="white"/>
       <stop offset="1" stop-opacity="0" stop-color="white"/>
      </linearGradient>
     <rect fill="url(#id23)" x="141.94" y="300.97" width="210.37" height="95.64"/>
    </mask>
    <linearGradient id="id24" gradientUnits="userSpaceOnUse" x1="328.61" y1="395.78" x2="153.28" y2="330.85">
     <stop offset="0" stop-opacity="1" stop-color="#7B481D"/>
     <stop offset="1" stop-opacity="1" stop-color="#2B2A29"/>
    </linearGradient>
    <mask id="id25">
      <linearGradient id="id26" gradientUnits="userSpaceOnUse" x1="220.18" y1="390.69" x2="239.49" y2="325.37">
       <stop offset="0" stop-opacity="1" stop-color="white"/>
       <stop offset="1" stop-opacity="0" stop-color="white"/>
      </linearGradient>
     <rect fill="url(#id26)" x="137.52" y="296.18" width="210.08" height="82.04"/>
    </mask>
 </defs>
 <g id="Layer_x0020_1">
  <metadata id="CorelCorpID_0Corel-Layer"/>
  <circle fill="#FFD500" cx="249.12" cy="256.38" r="237.12"/>
  <path fill="#FEFEFE" mask="url(#id0)" d="M249.12 40.12c119.44,0 216.26,96.82 216.26,216.26 0,119.44 -96.82,216.26 -216.26,216.26 -119.44,0 -216.26,-96.82 -216.26,-216.26 0,-119.44 96.82,-216.26 216.26,-216.26z"/>
  <g id="_2015775832528">
   <path fill="#5E5971" mask="url(#id2)" d="M294.11 270.16l129.92 0c12.09,0 34.06,-22.38 21.98,-21.98 -183.99,6.01 -139.49,16.09 -151.9,-151.9 -0.89,-12.05 -21.97,9.89 -21.97,21.98l0 129.92c0,12.09 9.89,21.98 21.97,21.98z"/>
   <path fill="#5E5971" mask="url(#id4)" d="M341.94 99.83c-35.79,0 -64.81,38.31 -64.81,85.57 0,47.26 29.02,85.57 64.81,85.57 35.8,0 64.82,-38.31 64.82,-85.57 0,-47.26 -29.02,-85.57 -64.82,-85.57z"/>
   <path fill="#FEFEFE" mask="url(#id6)" d="M332.52 108.48c-32.18,0 -58.27,34.44 -58.27,76.92 0,42.48 26.09,76.92 58.27,76.92 32.18,0 58.26,-34.44 58.26,-76.92 0,-42.48 -26.08,-76.92 -58.26,-76.92z"/>
   <path fill="#2B2A29" mask="url(#id8)" d="M311.66 155.73c-14.9,0 -26.98,15.94 -26.98,35.62 0,19.67 12.08,35.61 26.98,35.61 14.9,0 26.97,-15.94 26.97,-35.61 0,-19.68 -12.07,-35.62 -26.97,-35.62z"/>
   <path fill="#2B2A29" mask="url(#id10)" d="M310.74 156.26c-9.32,0 -16.87,9.98 -16.87,22.28 0,12.3 7.55,22.28 16.87,22.28 9.32,0 16.88,-9.98 16.88,-22.28 0,-12.3 -7.56,-22.28 -16.88,-22.28z"/>
   <rect fill="#FEFEFE" x="306.66" y="150.93" width="15.55" height="17.61"/>
   <rect fill="#FEFEFE" x="316.03" y="172.19" width="6.86" height="7.77"/>
  </g>
  <path fill="#434242" mask="url(#id12)" d="M220.26 219.76c-29.65,4.51 -81.76,-5.1 -117.55,-18.49 27.54,64.37 100.57,65.44 117.55,18.49z"/>
  <path fill="#D9DADA" mask="url(#id14)" d="M220.26 218.33c-29.65,4.51 -81.76,-5.1 -117.55,-18.48 27.54,64.37 100.57,65.43 117.55,18.48z"/>
  <path fill="#2B2A29" mask="url(#id16)" d="M220.26 219.76c-29.65,4.51 -81.76,-5.1 -117.55,-18.49 23.78,38.49 100.57,65.44 117.55,18.49z"/>
  <path fill="#7B481D" mask="url(#id18)" d="M324.32 80.49c16.52,4.3 41.61,21.03 57.31,36.07 -3.78,-25.47 -37.89,-56.81 -57.31,-36.07z"/>
  <path fill="#7B481D" mask="url(#id20)" d="M184.75 121.44c-21.69,-0.46 -58.18,11.3 -82.59,24.25 13.45,-29.83 66.02,-56.34 82.59,-24.25z"/>
  <g id="_2015775830000">
   <path fill="#2B2A29" mask="url(#id22)" d="M351.13 377.77c-62.32,-7.73 -153.01,-43.01 -208.01,-75.62 4.79,58.27 124.72,126.06 208.01,75.62z"/>
   <path fill="url(#id24)" d="M333.97 375.52c-52.61,-6.53 -129.19,-36.31 -175.62,-63.85 4.04,49.2 105.3,106.44 175.62,63.85z"/>
   <path fill="#EF7F1A" mask="url(#id25)" d="M346.42 376.28c-57.77,6.84 -159.92,-33.33 -207.72,-72.86 77.6,-16.52 132.67,-1.45 207.72,72.86z"/>
  </g>
 </g>
</svg>
