<svg style="position: absolute; width: 0; height: 0; overflow: hidden;" xmlns="http://www.w3.org/2000/svg" xmlns:xlink="http://www.w3.org/1999/xlink">
    <defs>
        <symbol id="icon-woocommerce_widget_cart" viewBox="0 0 32 32" style="enable-background:new 0 0 32 32;" xml:space="preserve">
            <style type="text/css">
                .st0{fill:#333333;}
            </style>
            <g>
                <path class="st0" d="M31.86,5.99c-0.14-0.19-0.36-0.3-0.59-0.3L7.64,5.43l-0.58-3.1C6.99,1.98,6.68,1.72,6.32,1.72H0.74
                    c-0.41,0-0.75,0.34-0.75,0.75s0.34,0.75,0.75,0.75H5.7L9.06,21.1c0.07,0.35,0.38,0.61,0.74,0.61h17.87c0.41,0,0.75-0.34,0.75-0.75
                    s-0.34-0.75-0.75-0.75H10.42l-0.76-4.04h19.12c0.34,0,0.63-0.23,0.72-0.55l2.48-8.98C32.05,6.42,32,6.18,31.86,5.99z M28.21,14.67
                    H9.38L7.92,6.93l22.35,0.25L28.21,14.67z"/>
                <path class="st0" d="M13.29,24.08c-1.71,0-3.1,1.39-3.1,3.1s1.39,3.1,3.1,3.1s3.1-1.39,3.1-3.1S15,24.08,13.29,24.08z M13.29,28.78
                    c-0.88,0-1.6-0.72-1.6-1.6c0-0.88,0.72-1.6,1.6-1.6s1.6,0.72,1.6,1.6C14.89,28.06,14.17,28.78,13.29,28.78z"/>
                <path class="st0" d="M23.44,24.08c-1.71,0-3.1,1.39-3.1,3.1s1.39,3.1,3.1,3.1s3.1-1.39,3.1-3.1S25.14,24.08,23.44,24.08z
                     M23.44,28.78c-0.88,0-1.6-0.72-1.6-1.6c0-0.88,0.72-1.6,1.6-1.6c0.88,0,1.6,0.72,1.6,1.6C25.03,28.06,24.31,28.78,23.44,28.78z"/>
            </g>
        </symbol>

        <symbol id="icon-woocommerce_layered_nav_filters" viewBox="0 0 32 32" style="enable-background:new 0 0 32 32;" xml:space="preserve">
            <style type="text/css">
                .st0{fill:#333333;}
            </style>
            <g>
                <path class="st0" d="M31.87,2.12C31.75,1.87,31.49,1.7,31.2,1.7H5.9c-0.03,0-0.06,0.02-0.1,0.02c-0.03,0-0.06-0.02-0.1-0.02H0.8
                    c-0.28,0-0.54,0.16-0.67,0.41C0,2.37,0.03,2.67,0.2,2.9l5.41,7.25c-3.22,1.08-5.55,4.12-5.55,7.7c0,4.48,3.64,8.12,8.12,8.12
                    c1.3,0,2.52-0.31,3.61-0.86v4.43c0,0.23,0.11,0.45,0.29,0.59c0.13,0.1,0.3,0.16,0.46,0.16c0.06,0,0.12-0.01,0.18-0.02l7.39-1.84
                    c0.33-0.08,0.57-0.38,0.57-0.73V17.23L31.79,2.91C31.97,2.69,32,2.38,31.87,2.12z M1.55,17.85c0-3.65,2.97-6.62,6.62-6.62
                    s6.62,2.97,6.62,6.62c0,3.65-2.97,6.62-6.62,6.62S1.55,21.51,1.55,17.85z M19.33,16.51c-0.1,0.13-0.16,0.29-0.16,0.46v10.15
                    l-5.89,1.47v-4.43c1.84-1.49,3.01-3.76,3.01-6.31c0-4.48-3.64-8.12-8.12-8.12c-0.33,0-0.65,0.03-0.97,0.06L2.29,3.2h3.42
                    c0.03,0,0.06-0.02,0.1-0.02c0.03,0,0.06,0.02,0.1,0.02h23.77L19.33,16.51z"/>
                <path class="st0" d="M11.08,14.55l-4.3,5.01l-1.54-1.58c-0.29-0.3-0.76-0.3-1.06-0.01c-0.3,0.29-0.3,0.76-0.01,1.06l2.12,2.17
                    c0.14,0.14,0.33,0.23,0.54,0.23c0.01,0,0.02,0,0.02,0c0.21-0.01,0.41-0.1,0.54-0.26l4.84-5.63c0.27-0.31,0.23-0.79-0.08-1.06
                    C11.82,14.2,11.35,14.23,11.08,14.55z"/>
            </g>
        </symbol>

        <symbol id="icon-woocommerce_layered_nav" viewBox="0 0 32 32" style="enable-background:new 0 0 32 32;" xml:space="preserve">
            <style type="text/css">
                .st0{fill:#333333;}
            </style>
            <g>
                <path class="st0" d="M31.87,2.12C31.75,1.87,31.49,1.7,31.2,1.7H5.9c-0.03,0-0.06,0.02-0.1,0.02c-0.03,0-0.06-0.02-0.1-0.02H0.8
                    c-0.28,0-0.54,0.16-0.67,0.41C0,2.37,0.03,2.67,0.2,2.9l5.4,7.25c-3.22,1.08-5.55,4.12-5.55,7.7c0,4.48,3.64,8.12,8.12,8.12
                    c1.3,0,2.52-0.31,3.61-0.86v4.43c0,0.23,0.11,0.45,0.29,0.59c0.13,0.1,0.3,0.16,0.46,0.16c0.06,0,0.12-0.01,0.18-0.02l7.39-1.84
                    c0.33-0.08,0.57-0.38,0.57-0.73V17.23L31.79,2.91C31.97,2.69,32,2.38,31.87,2.12z M1.55,17.85c0-3.65,2.97-6.62,6.62-6.62
                    s6.62,2.97,6.62,6.62c0,3.65-2.97,6.62-6.62,6.62S1.55,21.51,1.55,17.85z M19.33,16.51c-0.1,0.13-0.16,0.29-0.16,0.46v10.15
                    l-5.89,1.47V24.2c0-0.01-0.01-0.02-0.01-0.03c1.84-1.49,3.02-3.76,3.02-6.31c0-4.48-3.64-8.12-8.12-8.12
                    c-0.33,0-0.65,0.03-0.97,0.06L2.29,3.2h3.42c0.03,0,0.06-0.02,0.1-0.02c0.03,0,0.06,0.02,0.1,0.02h23.77L19.33,16.51z"/>
                <path class="st0" d="M12.8,19.8l-3.93-6.81c-0.29-0.5-1.1-0.5-1.38,0L3.55,19.8c-0.14,0.25-0.14,0.55,0,0.8
                    C3.69,20.85,3.96,21,4.24,21h7.86c0.29,0,0.55-0.15,0.69-0.4C12.94,20.35,12.94,20.05,12.8,19.8z M5.63,19.4l2.55-4.41l2.55,4.41
                    H5.63z"/>
            </g>
        </symbol>

        <symbol id="icon-woocommerce_rating_filter" viewBox="0 0 32 32" style="enable-background:new 0 0 32 32;" xml:space="preserve">
            <style type="text/css">
                .st0{fill:#333333;}
            </style>
            <g>
                <path class="st0" d="M31.87,2.12C31.75,1.87,31.49,1.7,31.2,1.7H5.9c-0.03,0-0.06,0.02-0.1,0.02c-0.03,0-0.06-0.02-0.1-0.02H0.8
                    c-0.28,0-0.54,0.16-0.67,0.41C0,2.37,0.03,2.67,0.2,2.9l5.41,7.25c-3.22,1.08-5.55,4.12-5.55,7.7c0,4.48,3.64,8.12,8.12,8.12
                    c1.3,0,2.52-0.31,3.61-0.86v4.43c0,0.23,0.11,0.45,0.29,0.59c0.13,0.1,0.3,0.16,0.46,0.16c0.06,0,0.12-0.01,0.18-0.02l7.39-1.84
                    c0.33-0.08,0.57-0.38,0.57-0.73V17.23L31.79,2.91C31.97,2.69,32,2.38,31.87,2.12z M8.17,24.48c-3.65,0-6.62-2.97-6.62-6.62
                    c0-3.65,2.97-6.62,6.62-6.62s6.62,2.97,6.62,6.62C14.8,21.51,11.83,24.48,8.17,24.48z M19.33,16.51c-0.1,0.13-0.16,0.29-0.16,0.46
                    v10.15l-5.89,1.47v-4.43c1.84-1.49,3.01-3.76,3.01-6.31c0-4.48-3.64-8.12-8.12-8.12c-0.33,0-0.65,0.03-0.97,0.06L2.29,3.2h3.42
                    c0.03,0,0.06-0.02,0.1-0.02c0.03,0,0.06,0.02,0.1,0.02h23.77L19.33,16.51z"/>
                <path class="st0" d="M13.5,16.21c-0.09-0.29-0.34-0.5-0.65-0.54l-2.74-0.4l-1.23-2.48c-0.27-0.55-1.17-0.55-1.44,0l-1.23,2.48
                    l-2.74,0.4c-0.3,0.04-0.55,0.25-0.65,0.54s-0.02,0.61,0.2,0.82l1.99,1.93L4.56,21.7c-0.05,0.3,0.07,0.6,0.32,0.78
                    c0.25,0.18,0.57,0.2,0.84,0.06l2.45-1.29l2.45,1.29c0.12,0.06,0.25,0.09,0.37,0.09c0.17,0,0.33-0.05,0.47-0.15
                    c0.25-0.18,0.37-0.48,0.32-0.78l-0.47-2.73l1.98-1.93C13.52,16.82,13.6,16.5,13.5,16.21z M9.9,18.12
                    c-0.19,0.18-0.27,0.45-0.23,0.71l0.26,1.55l-1.39-0.73c-0.12-0.06-0.24-0.09-0.37-0.09s-0.26,0.03-0.37,0.09l-1.39,0.73l0.27-1.55
                    c0.04-0.26-0.04-0.53-0.23-0.71l-1.13-1.1l1.55-0.23c0.26-0.04,0.49-0.2,0.6-0.44l0.69-1.41l0.69,1.41c0.12,0.24,0.34,0.4,0.6,0.44
                    l1.56,0.23L9.9,18.12z"/>
            </g>
        </symbol>

        <symbol id="icon-woocommerce_product_categories" viewBox="0 0 32 32" style="enable-background:new 0 0 32 32;" xml:space="preserve">
            <style type="text/css">
                .st0{fill:#333333;}
            </style>
            <g>
                <path class="st0" d="M26.8,14.41c0.41,0,0.75-0.34,0.75-0.75V8.49c0-0.27-0.14-0.52-0.38-0.65l-13-7.51
                    c-0.23-0.13-0.52-0.13-0.75,0l-13,7.51C0.19,7.98,0.05,8.23,0.05,8.49v15.01c0,0.27,0.14,0.52,0.38,0.65l13,7.51
                    c0.12,0.07,0.25,0.1,0.38,0.1s0.26-0.03,0.38-0.1l3.23-1.86c0.36-0.21,0.48-0.67,0.27-1.02c-0.21-0.36-0.67-0.48-1.02-0.27
                    l-2.1,1.21V16.88l11.5-6.64v3.42C26.05,14.08,26.39,14.41,26.8,14.41z M13.8,1.85l11.89,6.86L13.8,15.58L1.91,8.72L13.8,1.85z
                     M1.55,10.24l11.5,6.64v12.83l-11.5-6.64V10.24z"/>
                <path class="st0" d="M24.07,23.31h-4.1c-0.41,0-0.75,0.34-0.75,0.75v4.1c0,0.41,0.34,0.75,0.75,0.75h4.1
                    c0.41,0,0.75-0.34,0.75-0.75v-4.1C24.82,23.65,24.49,23.31,24.07,23.31z M23.32,27.42h-2.6v-2.6h2.6V27.42z"/>
                <path class="st0" d="M31.2,23.31h-4.1c-0.41,0-0.75,0.34-0.75,0.75v4.1c0,0.41,0.34,0.75,0.75,0.75h4.1c0.41,0,0.75-0.34,0.75-0.75
                    v-4.1C31.95,23.65,31.61,23.31,31.2,23.31z M30.45,27.42h-2.6v-2.6h2.6V27.42z"/>
                <path class="st0" d="M24.07,16.19h-4.1c-0.41,0-0.75,0.34-0.75,0.75v4.1c0,0.41,0.34,0.75,0.75,0.75h4.1
                    c0.41,0,0.75-0.34,0.75-0.75v-4.1C24.82,16.52,24.49,16.19,24.07,16.19z M23.32,20.29h-2.6v-2.6h2.6V20.29z"/>
                <path class="st0" d="M31.2,16.19h-4.33c-0.41,0-0.75,0.34-0.75,0.75v4.33c0,0.41,0.34,0.75,0.75,0.75h4.33
                    c0.41,0,0.75-0.34,0.75-0.75v-4.33C31.95,16.52,31.61,16.19,31.2,16.19z M30.45,20.52h-2.83v-2.83h2.83V20.52z"/>
            </g>
        </symbol>

        <symbol id="icon-woocommerce_product_search" viewBox="0 0 32 32" style="enable-background:new 0 0 32 32;" xml:space="preserve">
            <style type="text/css">
                .st0{fill:#333333;}
            </style>
            <g>
                <g>
                    <g>
                        <path class="st0" d="M23.41,27.49c-1.75,0-3.47-0.85-4.49-2.42c-0.79-1.2-1.06-2.63-0.77-4.03c0.29-1.4,1.11-2.61,2.31-3.39
                            c2.47-1.62,5.8-0.93,7.42,1.54c0.79,1.2,1.06,2.63,0.77,4.03c-0.29,1.4-1.11,2.6-2.31,3.39C25.44,27.2,24.42,27.49,23.41,27.49z
                             M23.39,18.28c-0.73,0-1.46,0.2-2.11,0.63c-0.86,0.56-1.46,1.43-1.67,2.44c-0.21,1.01-0.01,2.04,0.55,2.9
                            c1.17,1.78,3.57,2.28,5.35,1.11c0.86-0.56,1.45-1.43,1.66-2.44c0.21-1.01,0.01-2.04-0.55-2.9
                            C25.89,18.89,24.65,18.28,23.39,18.28z"/>
                    </g>
                    <g>
                        <path class="st0" d="M31.14,29.23c-0.15,0-0.3-0.04-0.43-0.13l-4.47-3.11c-0.34-0.24-0.42-0.7-0.19-1.04
                            c0.24-0.34,0.7-0.42,1.04-0.19l4.47,3.11c0.34,0.24,0.42,0.7,0.19,1.04C31.61,29.12,31.38,29.23,31.14,29.23z"/>
                    </g>
                </g>
                <g>
                    <g>
                        <path class="st0" d="M14,31.9c-0.13,0-0.26-0.03-0.37-0.1L0.48,24.22c-0.23-0.13-0.38-0.38-0.38-0.65V8.43
                            c0-0.27,0.14-0.52,0.38-0.65L13.63,0.2c0.23-0.13,0.52-0.13,0.75,0l13.14,7.58c0.23,0.13,0.38,0.38,0.38,0.65v6.7
                            c0,0.41-0.34,0.75-0.75,0.75s-0.75-0.34-0.75-0.75V8.86L14,1.72L1.6,8.86v14.28L14,30.29l4.09-2.36
                            c0.36-0.21,0.82-0.08,1.02,0.27c0.21,0.36,0.08,0.82-0.27,1.02l-4.46,2.57C14.26,31.87,14.13,31.9,14,31.9z"/>
                    </g>
                    <g>
                        <path class="st0" d="M14,17.2c-0.13,0-0.26-0.03-0.37-0.1L0.48,9.53C0.12,9.32,0,8.86,0.21,8.5s0.67-0.48,1.02-0.28L14,15.59
                            l12.77-7.36c0.36-0.21,0.82-0.08,1.02,0.28s0.08,0.82-0.28,1.02L14.37,17.1C14.26,17.17,14.13,17.2,14,17.2z"/>
                    </g>
                    <g>
                        <path class="st0" d="M14,31.64c-0.41,0-0.75-0.34-0.75-0.75V16.45c0-0.41,0.34-0.75,0.75-0.75s0.75,0.34,0.75,0.75v14.44
                            C14.75,31.31,14.41,31.64,14,31.64z"/>
                    </g>
                </g>
            </g>
        </symbol>

        <symbol id="icon-woocommerce_product_tag_cloud" viewBox="0 0 32 32" style="enable-background:new 0 0 32 32;" xml:space="preserve">
            <style type="text/css">
                .st0{fill:#303030;}
            </style>
            <g>
                <path class="st0" d="M16.15,12.39C16.15,12.39,16.15,12.39,16.15,12.39c-0.3-0.25-0.69-0.35-1.07-0.26l-2.93,0.42
                    c-0.03,0-0.07,0.01-0.1,0.02c-0.51,0.15-0.88,0.62-0.88,1.17v2.98c0,0.36,0.15,0.7,0.43,0.94l6,5.14c0.23,0.2,0.51,0.29,0.79,0.29
                    c0.34,0,0.69-0.14,0.93-0.42l2.95-3.44c0.21-0.25,0.31-0.56,0.29-0.89c-0.03-0.32-0.17-0.62-0.42-0.83L16.15,12.39z M18.35,21.47
                    l-5.68-4.87v-2.61l2.61-0.37l5.65,4.84L18.35,21.47z"/>
                <path class="st0" d="M25.7,13.33c-0.43,0-0.86,0.05-1.29,0.15c-0.48-4.66-4.13-8.3-8.53-8.3c-4.36,0-8.02,3.62-8.52,8.25
                    c-0.35-0.06-0.7-0.1-1.05-0.1c-3.45,0-6.25,3.05-6.25,6.79c0,3.35,2.21,6.16,5.26,6.68c0.01,0,0.1,0.02,0.11,0.02
                    c0.04,0.01,0.07,0.01,0.11,0.01h0l20.43-0.02l0.68,0c0.05,0,0.1,0,0.14-0.01c2.99-0.57,5.17-3.38,5.17-6.68
                    C31.95,16.37,29.14,13.33,25.7,13.33z M26.57,25.31l-0.61,0l-20.4,0.01c-2.33-0.4-4.02-2.59-4.02-5.21c0-2.92,2.13-5.29,4.75-5.29
                    c0.5,0,1,0.09,1.48,0.27c0.23,0.08,0.48,0.05,0.68-0.09c0.2-0.14,0.32-0.36,0.32-0.61c0.06-4.26,3.24-7.73,7.08-7.73
                    c3.89,0,7.07,3.51,7.09,7.82c0,0.25,0.13,0.48,0.34,0.62s0.47,0.16,0.71,0.06c0.55-0.23,1.12-0.35,1.69-0.35
                    c2.62,0,4.75,2.37,4.75,5.29C30.45,22.67,28.82,24.85,26.57,25.31z"/>
                <path class="st0" d="M14.17,15.36c-0.29,0.34-0.25,0.85,0.09,1.14c0.34,0.29,0.85,0.25,1.14-0.09c0.29-0.34,0.25-0.85-0.09-1.14
                    C14.97,14.99,14.46,15.03,14.17,15.36z"/>
            </g>
        </symbol>

        <symbol id="icon-woocommerce_products" viewBox="0 0 32 32" style="enable-background:new 0 0 32 32;" xml:space="preserve">
            <style type="text/css">
                .st0{fill:#303030;}
            </style>
            <path class="st0" d="M31.64,17.97l-6.75-3.9c-0.23-0.13-0.52-0.13-0.75,0l-0.56,0.33V8.07c0-0.27-0.14-0.52-0.38-0.65L12.16,1.04
            c-0.23-0.13-0.52-0.13-0.75,0L0.36,7.42C0.13,7.55-0.01,7.8-0.01,8.07v12.76c0,0.27,0.14,0.52,0.38,0.65l11.05,6.38
            c0.12,0.07,0.25,0.1,0.38,0.1s0.26-0.03,0.38-0.1l4.86-2.81v1.37c0,0.27,0.14,0.52,0.38,0.65l6.75,3.9c0.12,0.07,0.25,0.1,0.38,0.1
            s0.26-0.03,0.38-0.1l6.75-3.9c0.23-0.13,0.38-0.38,0.38-0.65v-7.79C32.01,18.36,31.87,18.11,31.64,17.97z M24.52,15.59l5.45,3.15
            l-5.45,3.15l-5.45-3.15L24.52,15.59z M11.78,2.56l9.88,5.7l-9.88,5.7l-9.88-5.7L11.78,2.56z M1.49,9.75l9.55,5.51V25.9l-9.55-5.51
            V9.75z M12.53,25.9V15.26l9.55-5.51v5.52l-4.68,2.7c-0.23,0.13-0.38,0.38-0.38,0.65v4.69L12.53,25.9z M18.52,20.16l5.25,3.03v5.83
            l-5.25-3.03V20.16z M25.27,29.01v-5.83l5.25-3.03v5.83L25.27,29.01z"/>
        </symbol>

        <symbol id="icon-woocommerce_top_rated_products" viewBox="0 0 32 32" style="enable-background:new 0 0 32 32;" xml:space="preserve">
            <style type="text/css">
                .st0{fill:#303030;}
            </style>
            <g>
            <path class="st0" d="M16.45,28.33l-2.06,1.19V16.88l11.34-6.55v2.39c0,0.41,0.34,0.75,0.75,0.75s0.75-0.34,0.75-0.75V8.59
                c0-0.27-0.14-0.52-0.38-0.65L14.01,0.53c-0.23-0.13-0.52-0.13-0.75,0L0.42,7.94C0.19,8.07,0.05,8.32,0.05,8.59v14.82
                c0,0.27,0.14,0.52,0.38,0.65l12.84,7.41c0.12,0.07,0.25,0.1,0.38,0.1s0.26-0.03,0.38-0.1l3.19-1.84c0.36-0.21,0.48-0.67,0.27-1.02
                S16.81,28.13,16.45,28.33z M13.64,2.04l11.72,6.77l-11.72,6.77L1.92,8.81L13.64,2.04z M1.55,10.33l11.34,6.55v12.65L1.55,22.98
                V10.33z"/>
                <path class="st0" d="M31.96,20.06c-0.09-0.29-0.34-0.5-0.65-0.54l-4.13-0.6l-1.84-3.74c-0.13-0.27-0.41-0.45-0.72-0.45
                s-0.58,0.17-0.72,0.45l-1.84,3.74l-4.13,0.6c-0.3,0.04-0.55,0.25-0.65,0.54c-0.09,0.29-0.02,0.61,0.2,0.82l2.98,2.91l-0.7,4.11
                c-0.05,0.3,0.07,0.6,0.32,0.78c0.25,0.18,0.57,0.2,0.84,0.06l3.69-1.94l3.69,1.94c0.12,0.06,0.24,0.09,0.37,0.09
                c0.17,0,0.33-0.05,0.47-0.15c0.25-0.18,0.37-0.48,0.32-0.78l-0.7-4.11l2.99-2.91C31.98,20.67,32.05,20.35,31.96,20.06z
                 M27.36,22.94c-0.19,0.18-0.27,0.45-0.23,0.71l0.5,2.93L25,25.19c-0.23-0.12-0.51-0.12-0.74,0l-2.63,1.38l0.5-2.93
                c0.04-0.26-0.04-0.52-0.23-0.71l-2.13-2.07l2.94-0.43c0.26-0.04,0.49-0.2,0.6-0.44l1.31-2.66L25.94,20c0.12,0.24,0.34,0.4,0.6,0.44
                l2.94,0.43L27.36,22.94z"/>
            </g>
        </symbol>

        <symbol id="icon-woocommerce_recent_reviews" viewBox="0 0 32 32" style="enable-background:new 0 0 32 32;" xml:space="preserve">
            <style type="text/css">
                .st0{fill:#303030;}
            </style>
            <g>
                <path class="st0" d="M9.73,11.69l-1.74-0.25L7.21,9.86C7.09,9.62,6.85,9.47,6.58,9.47S6.07,9.62,5.95,9.86l-0.78,1.58l-1.74,0.25
                    c-0.26,0.04-0.48,0.22-0.56,0.48c-0.08,0.25-0.01,0.53,0.18,0.72l1.26,1.23l-0.3,1.74c-0.04,0.26,0.06,0.53,0.28,0.68
                    c0.21,0.16,0.5,0.18,0.74,0.05l1.56-0.82l1.56,0.82c0.1,0.05,0.21,0.08,0.33,0.08c0.15,0,0.29-0.05,0.41-0.13
                    c0.22-0.16,0.32-0.42,0.28-0.68l-0.3-1.74l1.26-1.23c0.19-0.19,0.26-0.46,0.18-0.72C10.21,11.92,9.99,11.73,9.73,11.69z
                     M7.61,13.37c-0.16,0.16-0.24,0.39-0.2,0.62l0.12,0.7L6.9,14.36c-0.2-0.11-0.45-0.11-0.65,0l-0.63,0.33l0.12-0.7
                    c0.04-0.23-0.04-0.46-0.2-0.62l-0.51-0.5l0.7-0.1c0.23-0.03,0.43-0.18,0.53-0.38l0.31-0.64l0.31,0.64c0.1,0.21,0.3,0.35,0.53,0.38
                    l0.7,0.1L7.61,13.37z"/>
                <path class="st0" d="M28.36,13.99V9.45c0-2.51-1.9-4.55-4.24-4.55H4.42c-2.34,0-4.24,2.04-4.24,4.54L0.05,26.29
                    c0,0.31,0.19,0.59,0.48,0.7c0.09,0.04,0.18,0.05,0.27,0.05c0.21,0,0.41-0.08,0.55-0.24l3.6-3.92h13.58
                    c1.08,2.48,3.55,4.22,6.42,4.22c3.86,0,7-3.14,7-7C31.95,17.48,30.5,15.19,28.36,13.99z M4.62,21.39c-0.21,0-0.41,0.09-0.55,0.24
                    l-2.5,2.72L1.68,9.45c0-1.68,1.23-3.05,2.74-3.05h19.7c1.51,0,2.74,1.37,2.74,3.05v3.92c-0.5-0.14-1.02-0.23-1.55-0.26
                    c-0.14-0.18-0.34-0.3-0.59-0.3H12.49c-0.41,0-0.75,0.34-0.75,0.75s0.34,0.75,0.75,0.75h8.52c-1.85,1.26-3.07,3.38-3.07,5.79
                    c0,0.44,0.05,0.87,0.12,1.29H4.62z M24.95,25.6c-3.04,0-5.5-2.47-5.5-5.5s2.47-5.5,5.5-5.5s5.5,2.47,5.5,5.5S27.98,25.6,24.95,25.6
                    z"/>
                <path class="st0" d="M27.61,20.37h-1.93v-2.9c0-0.41-0.34-0.75-0.75-0.75s-0.75,0.34-0.75,0.75v3.65c0,0.41,0.34,0.75,0.75,0.75
                    h2.68c0.41,0,0.75-0.34,0.75-0.75S28.03,20.37,27.61,20.37z"/>
                <path class="st0" d="M12.49,11.02h9.87c0.41,0,0.75-0.34,0.75-0.75s-0.34-0.75-0.75-0.75h-9.87c-0.41,0-0.75,0.34-0.75,0.75
                    S12.07,11.02,12.49,11.02z"/>
                <path class="st0" d="M18.63,16.85c0-0.41-0.34-0.75-0.75-0.75h-5.4c-0.41,0-0.75,0.34-0.75,0.75c0,0.41,0.34,0.75,0.75,0.75h5.4
                    C18.3,17.6,18.63,17.26,18.63,16.85z"/>
            </g>
        </symbol>

        <symbol id="icon-woocommerce_recently_viewed_products" viewBox="0 0 32 32" style="enable-background:new 0 0 32 32;" xml:space="preserve">
            <style type="text/css">
                .st0{fill:#333333;}
            </style>
            <g>
                <path class="st0" d="M16.59,28.45l-2.09,1.21V16.88l11.45-6.61v3.4c0,0.41,0.34,0.75,0.75,0.75s0.75-0.34,0.75-0.75V8.52
                    c0-0.27-0.14-0.52-0.38-0.65L14.13,0.4c-0.23-0.13-0.52-0.13-0.75,0L0.42,7.87C0.19,8.01,0.05,8.26,0.05,8.52v14.95
                    c0,0.27,0.14,0.52,0.38,0.65l12.95,7.48c0.12,0.07,0.25,0.1,0.38,0.1s0.26-0.03,0.38-0.1l3.22-1.86c0.36-0.21,0.48-0.67,0.27-1.02
                    C17.41,28.36,16.95,28.24,16.59,28.45z M13.75,1.91l11.84,6.83l-11.84,6.83L1.91,8.75L13.75,1.91z M1.55,10.27L13,16.88v12.77
                    L1.55,23.04V10.27z"/>
                <path class="st0" d="M24.71,16.09c-3.99,0-7.24,3.25-7.24,7.24c0,3.99,3.25,7.24,7.24,7.24s7.24-3.25,7.24-7.24
                    C31.95,19.33,28.7,16.09,24.71,16.09z M24.71,29.06c-3.16,0-5.74-2.57-5.74-5.74c0-3.16,2.57-5.74,5.74-5.74s5.74,2.57,5.74,5.74
                    C30.45,26.49,27.88,29.06,24.71,29.06z"/>
                <path class="st0" d="M27.48,23.64h-2.03V20.6c0-0.41-0.34-0.75-0.75-0.75s-0.75,0.34-0.75,0.75v3.79c0,0.41,0.34,0.75,0.75,0.75
                    h2.78c0.41,0,0.75-0.34,0.75-0.75S27.9,23.64,27.48,23.64z"/>
            </g>
        </symbol>

        <symbol id="icon-woocommerce_price_filter" viewBox="0 0 32 32" style="enable-background:new 0 0 32 32;" xml:space="preserve">
            <style type="text/css">
                .st0{fill:#333333;}
            </style>
            <g>
                <path class="st0" d="M31.87,2.12C31.75,1.87,31.49,1.7,31.2,1.7H5.9c-0.03,0-0.06,0.02-0.1,0.02c-0.03,0-0.06-0.02-0.1-0.02H0.8
                    c-0.28,0-0.54,0.16-0.67,0.41C0,2.37,0.03,2.67,0.2,2.9l5.4,7.25c-3.22,1.08-5.55,4.12-5.55,7.7c0,4.48,3.64,8.12,8.12,8.12
                    c1.27,0,2.5-0.3,3.61-0.85v4.42c0,0.23,0.11,0.45,0.29,0.59c0.13,0.1,0.3,0.16,0.46,0.16c0.06,0,0.12-0.01,0.18-0.02l7.39-1.84
                    c0.33-0.08,0.57-0.38,0.57-0.73V17.23L31.79,2.91C31.97,2.69,32,2.38,31.87,2.12z M1.55,17.85c0-3.65,2.97-6.62,6.62-6.62
                    s6.62,2.97,6.62,6.62c0,2.1-1.01,4.09-2.7,5.34c-1.14,0.84-2.5,1.28-3.92,1.28C4.52,24.48,1.55,21.51,1.55,17.85z M19.33,16.51
                    c-0.1,0.13-0.16,0.29-0.16,0.46v10.15l-5.89,1.47v-4.44c1.89-1.54,3.01-3.85,3.01-6.3c0-4.48-3.64-8.12-8.12-8.12
                    c-0.33,0-0.65,0.03-0.97,0.06L2.29,3.2h3.42c0.03,0,0.06-0.02,0.1-0.02c0.03,0,0.06,0.02,0.1,0.02h23.77L19.33,16.51z"/>
                <path class="st0" d="M8.28,15.23c0.27,0,0.47,0.1,0.61,0.3c0.14,0.2,0.22,0.49,0.22,0.86h1.82c0-0.68-0.19-1.25-0.56-1.69
                    C9.99,14.27,9.48,14,8.82,13.9v-1.16H7.96v1.14c-0.68,0.06-1.23,0.29-1.64,0.69c-0.41,0.39-0.61,0.89-0.61,1.5
                    c0,0.36,0.06,0.67,0.17,0.93c0.11,0.26,0.28,0.48,0.5,0.67c0.22,0.19,0.47,0.36,0.77,0.51c0.3,0.15,0.62,0.29,0.97,0.44
                    c0.35,0.14,0.6,0.3,0.74,0.46c0.14,0.16,0.21,0.38,0.21,0.67c0,0.26-0.07,0.46-0.21,0.6c-0.14,0.14-0.33,0.22-0.58,0.22
                    c-0.33,0-0.59-0.11-0.77-0.32c-0.18-0.21-0.27-0.53-0.27-0.94H5.43c0,0.74,0.21,1.34,0.63,1.8c0.42,0.45,1.02,0.72,1.8,0.81v1.09
                    h0.86v-1.08c0.67-0.06,1.2-0.29,1.59-0.68c0.39-0.39,0.58-0.89,0.58-1.5c0-0.36-0.06-0.67-0.18-0.93
                    c-0.12-0.26-0.29-0.48-0.51-0.68c-0.22-0.19-0.47-0.37-0.77-0.52c-0.3-0.15-0.61-0.3-0.95-0.44c-0.33-0.14-0.58-0.29-0.73-0.45
                    c-0.15-0.16-0.23-0.37-0.23-0.63c0-0.26,0.07-0.47,0.2-0.62C7.86,15.31,8.04,15.23,8.28,15.23z"/>
            </g>
        </symbol>

        <symbol id="icon-mini-cart" viewBox="0 0 32 25">
            <path fill="#50565F"
                  d="M31.333 8.791h-4.27l-7.736-8.5c-.328-.36-.89-.39-1.255-.065-.365.325-.394.88-.066 1.241l6.665 7.324H7.329l6.665-7.324c.329-.36.299-.916-.066-1.241-.365-.325-.927-.296-1.255.065l-7.736 8.5H.668c-.369 0-.667.295-.667.66v.44c0 .363.298.659.667.659h.913l1.656 11.79c.183 1.305 1.31 2.275 2.641 2.275h20.246c1.33 0 2.458-.97 2.64-2.274L30.42 10.55h.913c.369 0 .667-.296.667-.66v-.44c0-.364-.299-.659-.667-.659zM27.003 22.1c-.06.432-.44.758-.88.758H5.877c-.44 0-.82-.326-.88-.758l-1.622-11.55h25.25L27.003 22.1zm-10.114-8.473v6.154c0 .486-.398.88-.889.88-.49 0-.889-.394-.889-.88v-6.154c0-.485.398-.879.889-.879.49 0 .889.394.889.88zm6.222 0v6.154c0 .486-.398.88-.889.88-.49 0-.889-.394-.889-.88v-6.154c0-.485.398-.879.89-.879.49 0 .888.394.888.88zm-12.444 0v6.154c0 .486-.398.88-.89.88-.49 0-.888-.394-.888-.88v-6.154c0-.485.398-.879.889-.879.49 0 .889.394.889.88z"/>
        </symbol>

        <symbol id="icon-shop" viewBox="0 0 32 32" style="enable-background:new 0 0 32 32;" xml:space="preserve">
            <style type="text/css">
                .st0{fill:#333333;}
            </style>
            <g>
                <path class="st0" d="M32.02,7.42c0.02-0.16,0-0.31-0.09-0.45l-3.85-6.48c-0.13-0.23-0.38-0.37-0.64-0.37H4.66
                    c-0.26,0-0.5,0.14-0.64,0.36L0.07,6.96c-0.09,0.14-0.1,0.3-0.09,0.46c0,0.03-0.02,0.07-0.02,0.1v2.92c0,1.36,0.73,2.53,1.82,3.18
                    v15.63c0,1.53,1.22,2.77,2.73,2.77h23.08c1.5,0,2.73-1.24,2.73-2.77V13.57c1.03-0.66,1.72-1.82,1.72-3.13V7.52
                    C32.04,7.49,32.02,7.46,32.02,7.42z M5.08,1.62h21.93l2.96,4.98H2.05L5.08,1.62z M24.38,8.1v2.33c0,1.23-1,2.22-2.22,2.22
                    c-1.22,0-2.22-1-2.22-2.22V8.1H24.38z M18.22,8.1v2.33c0,1.23-1,2.22-2.22,2.22c-1.22,0-2.22-1-2.22-2.22V8.1H18.22z M12.06,8.1
                    v2.33c0,1.23-1,2.22-2.22,2.22c-1.22,0-2.22-1-2.22-2.22V8.1H12.06z M1.46,10.44V8.1H5.9v2.33c0,1.23-1,2.22-2.22,2.22
                    S1.46,11.66,1.46,10.44z M28.82,29.25c0,0.7-0.55,1.27-1.23,1.27H4.51c-0.68,0-1.23-0.57-1.23-1.27V14.12
                    c0.13,0.01,0.26,0.04,0.4,0.04c1.28,0,2.41-0.65,3.08-1.64c0.67,0.99,1.8,1.64,3.08,1.64c1.28,0,2.41-0.65,3.08-1.64
                    c0.67,0.99,1.8,1.64,3.08,1.64c1.28,0,2.41-0.65,3.08-1.64c0.67,0.99,1.8,1.64,3.08,1.64c1.28,0,2.41-0.65,3.08-1.64
                    c0.67,0.99,1.8,1.64,3.08,1.64c0.17,0,0.33-0.03,0.5-0.05V29.25z M30.54,10.44c0,1.23-1,2.22-2.22,2.22c-1.22,0-2.22-1-2.22-2.22
                    V8.1h4.44V10.44z"/>
                <path class="st0" d="M23.26,19.8c-0.3-0.06-0.6,0.11-0.87,0.52c-0.23,0.32-0.37,0.66-0.45,1c-0.04,0.19-0.06,0.4-0.06,0.61
                    c0,0.24,0.05,0.5,0.15,0.77c0.13,0.33,0.29,0.5,0.5,0.55c0.21,0.04,0.44-0.05,0.68-0.27c0.31-0.28,0.52-0.69,0.64-1.24
                    c0.04-0.19,0.06-0.4,0.06-0.62c0-0.24-0.05-0.5-0.15-0.77C23.63,20.01,23.46,19.84,23.26,19.8z"/>
                <path class="st0" d="M17.99,19.8c-0.3-0.06-0.6,0.11-0.87,0.52c-0.23,0.32-0.37,0.66-0.45,1c-0.04,0.19-0.06,0.4-0.06,0.61
                    c0,0.24,0.05,0.5,0.15,0.77c0.13,0.33,0.29,0.5,0.5,0.55c0.21,0.04,0.44-0.05,0.68-0.27c0.31-0.28,0.52-0.69,0.64-1.24
                    c0.04-0.19,0.07-0.4,0.06-0.62c0-0.24-0.05-0.5-0.15-0.77C18.36,20.01,18.19,19.84,17.99,19.8z"/>
                <path class="st0" d="M24.42,16.32H7.58c-1.07,0-1.93,0.87-1.92,1.93v6.43c0,1.07,0.86,1.93,1.93,1.93h7.98l3.65,2.03l-0.83-2.03
                    h6.04c1.07,0,1.93-0.86,1.93-1.93v-6.43C26.34,17.19,25.48,16.32,24.42,16.32z M14.23,24.76c0.02,0.21-0.02,0.4-0.1,0.56
                    c-0.1,0.18-0.25,0.29-0.45,0.3c-0.22,0.02-0.45-0.08-0.66-0.31c-0.78-0.8-1.4-1.99-1.86-3.58c-0.55,1.08-0.95,1.88-1.21,2.42
                    c-0.5,0.95-0.92,1.44-1.27,1.46c-0.23,0.02-0.42-0.18-0.59-0.58c-0.43-1.1-0.89-3.23-1.39-6.38c-0.03-0.22,0.02-0.41,0.13-0.56
                    c0.12-0.16,0.29-0.24,0.53-0.26c0.43-0.03,0.67,0.17,0.73,0.61c0.26,1.76,0.55,3.25,0.85,4.47l1.84-3.51
                    c0.17-0.32,0.38-0.49,0.63-0.5c0.37-0.03,0.6,0.21,0.69,0.71c0.21,1.12,0.48,2.07,0.8,2.88c0.22-2.14,0.59-3.68,1.11-4.63
                    c0.13-0.24,0.31-0.35,0.55-0.37c0.19-0.02,0.37,0.04,0.53,0.17c0.16,0.13,0.24,0.29,0.26,0.48c0.01,0.15-0.02,0.28-0.08,0.4
                    c-0.33,0.61-0.6,1.62-0.82,3.04C14.25,22.92,14.18,23.99,14.23,24.76z M19.39,23.44c-0.5,0.84-1.16,1.26-1.98,1.26
                    c-0.14,0-0.29-0.02-0.45-0.05c-0.6-0.13-1.04-0.45-1.35-0.98c-0.27-0.46-0.4-1.02-0.4-1.67c0-0.87,0.22-1.66,0.66-2.37
                    c0.51-0.84,1.17-1.26,1.98-1.26c0.14,0,0.29,0.02,0.45,0.05c0.59,0.13,1.04,0.45,1.35,0.98c0.27,0.45,0.4,1,0.4,1.66
                    C20.05,21.92,19.83,22.71,19.39,23.44z M24.65,23.44c-0.5,0.84-1.16,1.26-1.98,1.26c-0.14,0-0.29-0.02-0.45-0.05
                    c-0.6-0.13-1.04-0.45-1.35-0.98c-0.27-0.46-0.4-1.02-0.4-1.67c0-0.87,0.22-1.66,0.66-2.37c0.51-0.84,1.17-1.26,1.98-1.26
                    c0.14,0,0.29,0.02,0.45,0.05c0.6,0.13,1.04,0.45,1.35,0.98c0.27,0.45,0.41,1,0.4,1.66C25.31,21.92,25.09,22.71,24.65,23.44z"/>
            </g>
       </symbol>

        <symbol id="icon-product-categories" viewBox="0 0 31.59 31.98" style="enable-background:new 0 0 32 32;" xml:space="preserve">
            <style>.cls-1{fill:#333;}</style>
            <g>
                <g>
                    <path class="cls-1" d="M13.75,15.09H1.34A1.34,1.34,0,0,1,0,13.75V1.34A1.34,1.34,0,0,1,1.34,0H13.75a1.34,1.34,0,0,1,1.34,1.34V13.75A1.34,1.34,0,0,1,13.75,15.09ZM1.5,13.59H13.59V1.5H1.5Z"/>
                    <path class="cls-1" d="M27,32H21.11a4.61,4.61,0,0,1-4.61-4.6V21.5a4.61,4.61,0,0,1,4.61-4.6H27a4.61,4.61,0,0,1,4.6,4.6v5.88A4.61,4.61,0,0,1,27,32ZM21.11,18.4A3.11,3.11,0,0,0,18,21.5v5.88a3.11,3.11,0,0,0,3.11,3.1H27a3.1,3.1,0,0,0,3.1-3.1V21.5A3.1,3.1,0,0,0,27,18.4Z"/>
                    <path class="cls-1" d="M7.54,32a7.54,7.54,0,1,1,7.55-7.54A7.55,7.55,0,0,1,7.54,32Zm0-13.58a6,6,0,1,0,6.05,6A6,6,0,0,0,7.54,18.4Z"/>
                    <path class="cls-1" d="M30.84,15.09H17.25A.75.75,0,0,1,16.58,14L23.38.41a.79.79,0,0,1,1.34,0L31.51,14a.73.73,0,0,1,0,.73A.76.76,0,0,1,30.84,15.09Zm-12.37-1.5H29.63L24.05,2.43Z"/>
                </g>
            </g>
        </symbol>

        <symbol id="icon-woo" viewBox="0 0 27 16">
            <g fill="#B7C4C7" fill-rule="nonzero">
                <path d="M22.927 4.49c-.4-.072-.763.146-1.127.674-.29.418-.473.854-.582 1.29a3.853 3.853 0 0 0-.073.8c0 .31.073.655.2.982.164.419.382.655.637.71.273.054.563-.073.873-.346.4-.364.672-.89.818-1.6.054-.255.072-.527.072-.8 0-.31-.072-.655-.2-.982-.145-.454-.363-.673-.618-.727zM16.745 5.2c-.163-.418-.381-.655-.636-.71-.4-.072-.764.146-1.127.674-.291.418-.473.854-.582 1.29a3.853 3.853 0 0 0-.073.8c0 .31.073.655.2.982.164.419.382.655.637.71.272.054.563-.073.872-.346.4-.364.673-.89.819-1.6.054-.255.09-.527.072-.8a2.168 2.168 0 0 0-.182-1z"/>
                <path d="M24.418 0H2.655C1.29 0 .164 1.127.182 2.49v8.31c0 1.382 1.109 2.49 2.49 2.49h10.31l4.709 2.62-1.073-2.62h7.8c1.382 0 2.491-1.108 2.491-2.49V2.49C26.91 1.11 25.8 0 24.42 0zM11.255 10.89c.018.274-.019.51-.128.71a.746.746 0 0 1-.582.4c-.29.018-.581-.11-.854-.4-1.018-1.036-1.818-2.582-2.4-4.636a121.708 121.708 0 0 0-1.564 3.127C5.091 11.327 4.545 11.964 4.091 12c-.291.018-.546-.236-.764-.745C2.782 9.836 2.182 7.09 1.527 3c-.036-.29.018-.527.182-.727.146-.2.382-.31.691-.346.545-.036.873.218.945.782.346 2.273.71 4.2 1.091 5.764l2.382-4.528c.218-.418.491-.636.818-.654.473-.036.764.273.891.909.273 1.436.618 2.673 1.037 3.71.29-2.765.763-4.746 1.436-5.983.164-.309.4-.454.71-.472.235 0 .472.072.672.236.2.164.309.364.345.618a.867.867 0 0 1-.109.527c-.418.782-.763 2.091-1.054 3.928-.273 1.763-.382 3.145-.31 4.127zm6.672-1.69c-.654 1.09-1.49 1.636-2.545 1.636-.182 0-.382-.018-.582-.072a2.58 2.58 0 0 1-1.745-1.255c-.346-.6-.528-1.309-.528-2.145 0-1.128.291-2.146.855-3.073.654-1.091 1.509-1.636 2.545-1.636.182 0 .382.018.582.072a2.58 2.58 0 0 1 1.746 1.255c.345.582.527 1.29.527 2.145-.018 1.11-.291 2.128-.855 3.073zm6.8 0c-.654 1.09-1.49 1.636-2.545 1.636-.182 0-.382-.018-.582-.072a2.58 2.58 0 0 1-1.745-1.255c-.346-.6-.528-1.309-.528-2.145 0-1.128.291-2.146.855-3.073.654-1.091 1.509-1.636 2.545-1.636.182 0 .382.018.582.072a2.58 2.58 0 0 1 1.746 1.255c.345.582.527 1.29.527 2.145 0 1.11-.291 2.128-.855 3.073z"/>
            </g>
        </symbol>
    </defs>
</svg>
