<svg xmlns="http://www.w3.org/2000/svg" width="14" height="14" viewBox="0 0 14 14">
    <path fill="#72777C" fill-rule="nonzero" d="M13.422.578l-1.473 1.473A7 7 0 0 0 .01 6.647.338.338 0 0 0 .347 7h.792c.18 0 .328-.14.338-.319A5.53 5.53 0 0 1 7 1.468c1.529 0 2.912.619 3.912 1.62L9.385 4.615a.339.339 0 0 0 .24.579h4.036a.339.339 0 0 0 .339-.34V.819a.339.339 0 0 0-.578-.24zM13.652 7h-.79c-.18 0-.329.14-.339.319A5.53 5.53 0 0 1 7 12.532a5.514 5.514 0 0 1-3.912-1.62l1.527-1.527a.339.339 0 0 0-.24-.579H.34a.339.339 0 0 0-.339.34v4.036c0 .302.365.453.578.24l1.473-1.473a7 7 0 0 0 11.94-4.596.338.338 0 0 0-.338-.353z"/>
</svg>
