<svg xmlns="http://www.w3.org/2000/svg" xml:space="preserve" style="fill-rule:evenodd;clip-rule:evenodd;stroke-linejoin:round;stroke-miterlimit:2" viewBox="0 0 800 800"><path d="M39.8 79.59C17.972 79.585.011 61.628 0 39.8.005 17.968 17.968.005 39.8 0h29.84c5.486 0 10 4.514 10 10v29.8c-.011 21.832-17.978 39.79-39.81 39.79h-.03Z" style="fill:#20a849;fill-rule:nonzero" transform="scale(10.0452)"/><path d="M39.75 19.9h-.09c-8.992 0-16.39 7.398-16.39 16.39v11.09c0 3.024 2.486 5.515 5.51 5.52h4.59V40H27v-3.62c0-7.038 5.792-12.83 12.83-12.83s12.83 5.792 12.83 12.83V40h-6.39v12.87h4.3v.29c-.032 2.698-2.242 4.908-4.94 4.94h-5a.804.804 0 0 0-.79.79.804.804 0 0 0 .79.79H45.45c3.61 0 6.58-2.97 6.58-6.58v-.37a5.553 5.553 0 0 0 4.08-5.31v-11l.001-.19c0-8.958-7.372-16.33-16.33-16.33h-.031Z" style="fill:#fff;fill-rule:nonzero" transform="scale(10.0452)"/></svg>