<svg xmlns="http://www.w3.org/2000/svg" width="100%" height="100%" viewBox="0 0 500 500" fill-rule="evenodd" stroke-linejoin="round" stroke-miterlimit="2" xmlns:v="https://vecta.io/nano"><path d="M269.093 326.128c-16.267 6.604-31.317 10.157-42.267 9.575-14.168-.794-20.225-7.045-20.243-9.399-.018-1.675 5.272-6.921 21.583-8.103 2.566-.185 5.264-.3 8.041-.3 11.153 0 23.558 1.834 32.886 8.226m30.426 143.756c-59.645 16.452-122.666 1.278-160.587-38.688-26.829-28.275-35.831-63.665-24.687-97.089 22.412-67.254 129.817-107.616 198.463-107.616l2.195.018c25.577.326 43.29 6.507 46.235 16.143 1.64 5.387-2.248 14.821-10.412 25.233-14.406 18.365-36.289 35.011-58.552 47.222-14.116-15.482-36.757-22.527-65.711-20.446-32.234 2.345-43.598 17.986-43.484 31.846.132 15.112 14.777 31.211 42.54 32.754 16.796.917 36.88-4.258 57.035-13.075 2.962 11.612 2.045 26.838-2.795 45-1.675 6.295 2.063 12.767 8.358 14.442a11.81 11.81 0 0 0 14.442-8.367c6.577-24.669 7.071-45.371 1.49-61.814 26.318-14.768 50.652-34.394 65.243-52.997 13.692-17.457 18.541-33.168 14.415-46.693-2.998-9.813-10.051-17.607-20.675-23.126.811-88.669 16.531-149.919 30.682-150.007h.088c2.072 0 4.884.467 8.332 3.888 11.497 11.435 25.198 48.95 25.198 162.782 0 112.325-9.61 207.959-127.815 240.59M186.93 207.905c-.018-.3.018-.591-.018-.882l-.159-1.314c-1.693-24.219 1.208-43.299 8.596-53.535 3.668-5.078 8.27-7.803 14.477-8.561 8.667-1.049 15.711 1.19 21.627 6.868 11.462 11.021 18.154 34.844 17.51 60.897-19.644 4.849-39.763 11.753-58.878 20.64-1.508-8.455-2.548-16.514-3.156-24.114m101.648-41.112c4.347-4.735 9.892-7.027 16.963-7.027 11.232 0 16.117 3.668 18.824 6.436 6.454 6.613 9.936 19.441 10.412 38.115-6.048-.838-12.564-1.323-19.564-1.411l-2.398-.018c-10.651 0-22.262.926-34.385 2.689-.52-17.113 3.059-31.061 10.148-38.785M418.782 49.778c-7.08-7.036-15.72-10.756-25.004-10.756h-.203c-31.096.185-41.818 46.579-47.187 81.448-1.569 10.236-2.786 20.684-3.738 30.797-.458-.52-.917-1.058-1.402-1.552-8.773-8.993-20.79-13.551-35.708-13.551-13.657 0-25.533 5.07-34.341 14.662-2.513 2.733-4.673 5.907-6.621 9.302-3.888-10.236-9.337-19.502-16.769-26.653-11.047-10.624-25.163-15.218-40.856-13.287-12.652 1.552-23.276 7.838-30.744 18.18-.026.044-.053.097-.088.132C163.187 74.015 138.606-3.863 95.713.599c-10.554 1.111-19.882 6.789-26.97 16.417-33.089 44.983-17.563 178.749-3.174 250.693 1.12 5.607 6.048 9.487 11.559 9.487a11.7 11.7 0 0 0 2.328-.229 11.81 11.81 0 0 0 9.258-13.886C64.616 142.618 69.994 55.147 87.76 31.007c4.17-5.678 7.944-6.683 10.421-6.939 23.682-2.469 52.847 80.267 65.164 184.683.987 12.934 2.945 25.039 4.832 34.456.009.035.026.079.035.123-35.461 20.437-64.723 48.386-76.361 83.309-13.983 41.967-3.068 85.998 29.959 120.806 32.251 33.979 79.826 52.556 129.764 52.556 17.968 0 36.245-2.407 54.223-7.371 134.04-36.995 145.14-145.678 145.14-263.337 0-100.66-10.219-157.704-32.154-179.516" fill="#0f1031" fill-rule="nonzero"/></svg>