<svg xmlns="http://www.w3.org/2000/svg" viewBox="0 0 659.22 649.53"><path fill="currentColor" d="M328.86,559.11c-72.5,0-145-.15-217.49.23-7.69,0-8.42-2.49-8.41-9q.27-134.92.1-269.84c0-54.37.15-108.74-.22-163.11,0-7.57,1.87-9.4,9.39-9.39q216.46.28,432.95-.18c8.18,0,9.76,2.45,9.75,10.07q-.36,216,0,432c0,8.65-2.49,10.26-10.61,10.22-71.82-.34-143.64-.2-215.46-.2Zm-1-11.59v-.24c68.49,0,137-.1,205.48.16,6.88,0,9-1.48,9-8.72q-.37-204.47-.08-408.94c0-6.58-1-9.19-8.49-9.19q-204.48,0-408.94-.78c-7.78,0-10.2,1.85-10.18,10q.36,204,0,407.93c0,7.62,1.58,10.08,9.8,10C192.18,547.35,260,547.52,327.82,547.52Z"/><path fill="currentColor" d="M327.77,533.31c-63.77,0-127.54-.11-191.31.17-6.35,0-8-1.68-7.86-7.76.37-14.42.38-28.87-.07-43.29a18.16,18.16,0,0,1,4-12c11.4-14.26,16-32.78,27.54-46.33,10.54-12.37,13-28.45,23.28-40.61,5.08-6,6.57-6.62,10.6.61,7.67,13.81,16.25,27.13,24.77,40.45,3.65,5.71,6.15,6,10.09-1.12,7.52-13.54,14.67-27.28,23.52-40.28,7.82-11.51,18-22.82,23-35,9.45-23,24.85-41.9,36-63.48,4.73-9.11,6.18-8.78,12.44-.51q14.66,19.36,29.55,38.56c4.68,6,10.59,5,15.15-3.49,10.41-19.43,25-36.07,36.25-54.83,7.41-12.34,17.25-22.67,24.89-34.69,2.92-4.6,4.7-5.59,8.16-.08,13.92,22.14,28.28,44,42.48,66,14.74,22.8,29.38,45.65,44.3,68.32a27.39,27.39,0,0,1,4.84,15.91c-.18,48-.39,96,.11,144,.09,9.32-3,10.85-11.43,10.81-63.43-.35-126.87-.19-190.3-.19Z"/><path fill="currentColor" d="M246,203.57a47.65,47.65,0,0,1-95.3,0c-.14-21.43,20.2-47.35,36.64-46.7C226.74,158.45,246.07,173.82,246,203.57Z"/></svg>