<svg xmlns="http://www.w3.org/2000/svg" viewBox="0 0 659.22 649.53">
<path fill="currentColor"
          d="M344.68,155.14c65.82,0,131.65-.2,197.48.1,27.55.12,53.15,5.62,56.24,39.43,3.11,34.15-17.31,49.44-48.64,52.43-30.65,2.93-54.14,14.68-52.48,49.21,1.61,33.38,27.18,38.94,55,40.95,30.49,2.19,47.28,20.35,46.55,50.67-.72,29.68-20.62,42.23-48.11,44.33-11.39.87-23,1.42-34.31.31-46.09-4.5-82.17,2.5-89.3,59.4-2.64,21-22.75,32.14-45.22,32.24-78.71.33-157.42,1.08-236.11.16-29.32-.35-55-11-56.72-45.67-1.63-32.48,20-44.95,48.89-47.93,27.69-2.85,45.27-17.43,49.49-45,6.57-42.87,35.23-50.73,72-48.7,23,1.27,42.84-4.75,50.68-30,7.52-24.24-4.75-39.75-21.64-55.17-9.1-8.31-16.59-6.39-26.72-6.08-40,1.2-80.14,1.65-120.15.26C114,245.1,90,236.58,90.09,202c.11-35.23,20.57-46.73,52.82-46.46,67.25.57,134.51.17,201.77.17Z"/>
</svg>