<svg xmlns="http://www.w3.org/2000/svg" width="268" height="243" viewBox="0 0 268 243">
  <path d="M1195.283,710.15c26.15,0,52.3.167,78.436-.116,5.517-.064,6.9,1.63,6.891,6.982q-.252,114.594.013,229.2c.025,5.635-1.8,6.764-7.019,6.751q-126.931-.211-253.886.039c-5.954.013-7.1-1.912-7.083-7.419q.271-113.9-.013-227.813c-.013-5.917,1.3-7.855,7.544-7.765,25.905.333,51.825.089,77.743.064-.014,22.2.1,44.4-.154,66.6-.064,5.211,1.769,6.623,6.748,6.6q42.553-.27,85.108-.013c4.453.026,5.915-1.245,5.864-5.827C1195.232,755.01,1195.323,732.574,1195.283,710.15ZM1087.311,916.94c7.07-.63,15.833,1.219,24.4-.822,7.109-1.695,11.458-7.393,10.535-13.041-1.1-6.751-6.082-10.794-13.652-10.859-9.624-.077-19.26-.179-28.883.065-4.247.1-5.619-1.437-5.5-5.583.231-8.715.077-17.431.063-26.145,0-4.159-.513-8.331-2.937-11.745a11.44,11.44,0,0,0-13.46-4.4c-5.478,1.771-8.276,6.34-8.3,12.193-.064,14.684-.026,29.355-.026,44.039.014,11.526,4.492,16.07,16.219,16.287C1072.416,917.042,1079.061,916.94,1087.311,916.94ZM1243.6,880.206c0-8.253.078-16.52-.013-24.773-.076-6.148-3.823-9.754-9.277-11.243-6.017-1.643-11.484,1.578-13.716,7.5a24.835,24.835,0,0,0-1.759,9.37c.156,8.253-.254,16.531.156,24.759.268,5.34-1.745,6.687-6.737,6.482-8.7-.347-17.425-.1-26.137-.089-8.943.024-14.922,4.5-15.229,11.4-.322,7.162,5.723,13.079,14.511,13.246,14.435.3,28.894.347,43.33,0,11.035-.257,14.871-4.762,14.883-16.006Q1243.636,890.524,1243.6,880.206Z" transform="translate(-1012.623 -710.007)" fill="currentColor"/>
</svg>
