<svg xmlns="http://www.w3.org/2000/svg" viewBox="0 0 659.22 649.53">
    <path fill="currentColor"
          d="M242.8,322.27l181.66-105a14,14,0,0,0,0-23.7L242.8,88.49c-8.69-5.53-20.54,1.58-20.54,11.84v210.1A13.63,13.63,0,0,0,242.8,322.27Z"/>
    <path fill="currentColor"
          d="M527.92,511.83,499.49,399.68c-1.58-7.11-8.69-12.64-15.8-13.43l-7.11-.79L490,131.93a8.16,8.16,0,0,0-8.69-8.69L364.43,137.45l22.9,13.43,86.89-10.27L461.58,385.46,158.29,367.29,135.38,180.9l60.82-7.11V158l-70.3,7.9c-2.37,0-4,1.58-5.53,3.16s-1.58,3.16-1.58,5.53l23.7,191.92L107,364.13a17.6,17.6,0,0,0-18.17,22.12l38.7,145.33A18.49,18.49,0,0,0,144.86,545l366.48-11A17.52,17.52,0,0,0,527.92,511.83Zm-293-25.27c0,.79,0,2.37-.79,2.37a26.17,26.17,0,0,1-8.69,12.63h0c-1.58,2.37-3.95,3.95-6.32,5.53a38.33,38.33,0,0,1-16.58,6.32,38.46,38.46,0,0,1-9.48.79,38.46,38.46,0,0,1-9.48-.79,52.43,52.43,0,0,1-15.8-4.74h0a24.55,24.55,0,0,1-7.89-3.95,43.42,43.42,0,0,1-7.11-5.53,2.9,2.9,0,0,1-.79-2.37c0-.79.79-1.58.79-2.36a13.87,13.87,0,0,0,4-3.16c1.58-.79,2.37-2.37,3.95-3.16l3.15-3.16c.79-.79,1.58-2.37,2.37-3.16h1.58c.79,0,1.58,0,1.58.79.79.79,1.58.79,2.37,1.58s1.58.79,2.37,1.58c1.58.79,2.37,1.58,3.95,2.37l4.74,2.37a44.54,44.54,0,0,0,9.48,3.16h5.53a7.12,7.12,0,0,0,3.95-.79,4.1,4.1,0,0,0,3.16-1.58l1.58-1.58a11.08,11.08,0,0,0,2.36-3.16c.79-1.58,1.58-2.37,2.37-3.95s.79-3.16,0-5.53-1.58-4.74-3.16-6.32a16.49,16.49,0,0,0-4.73-3.16,12.74,12.74,0,0,0-7.11-2.37c-2.37,0-4.74-.79-6.32-.79h-3.16a2.09,2.09,0,0,1-2.37-2.37V449.44c0-.79,0-.79.79-1.58a10.91,10.91,0,0,1,2.37-3.16l2.37-2.37a21,21,0,0,0,4-4.74,30.08,30.08,0,0,0,3.95-4.74l1.58-1.58c.79-.79.79-1.58,0-3.16-2.37-1.58-3.16-1.58-4.74-1.58H161.45c-.79,0-1.58,0-1.58-.79s-.79-.79-.79-1.58v-15.8a2.09,2.09,0,0,1,2.37-2.37h67.92a2.09,2.09,0,0,1,2.37,2.37v14.22c0,.79,0,1.58-.79,1.58l-1.58,1.58-1.58,1.58c-3.16,3.16-4.74,4.74-7.11,6.32l-4.74,4.74c-.79.79-1.58,2.37-3.16,3.16l-3.95,3.95a2.9,2.9,0,0,0-.79,2.37,1.7,1.7,0,0,0,1.58,1.58,14.63,14.63,0,0,1,5.53,1.57,46.58,46.58,0,0,1,6.32,3.16,22.41,22.41,0,0,1,7.11,7.9c1.58,3.16,3.16,5.53,3.16,8.69.79,3.16.79,5.53,1.58,7.11v3.95C234.9,483.4,234.9,485,234.9,486.56ZM355,506.3c0,2.37-1.58,3.95-3.95,4.74s-7.11,1.58-11.05,2.37H313.09c-15.8,0-29.22-4.74-40.28-15S257,475.5,257,460.49a51.88,51.88,0,0,1,15.8-37.91c11.06-10.27,24.48-15,40.28-15h0c15.8,0,29.22,3.95,40.28,12.64a1.48,1.48,0,0,1,0,2.37l-4.74,4.74-5.53,5.53a12.7,12.7,0,0,1-5.52,3.16c-2.37,0-3.95,0-6.32-1.58h0a34.63,34.63,0,0,0-15-5.53,37.41,37.41,0,0,0-18.17,2.37c-7.1,3.16-11.84,7.11-15.79,13.43a32,32,0,0,0-3.16,15,17.39,17.39,0,0,0,.79,6.32v.79L281.5,470c1.58,3.95,3.16,7.11,5.53,9.48a28.47,28.47,0,0,0,11.05,8.69,32.06,32.06,0,0,0,15,3.16h11.06c2.37-.79,4-.79,5.53-1.58a.77.77,0,0,0,.79-.79h0c1.58-.79,1.58-2.37,1.58-3.95V473.92a4.1,4.1,0,0,0-1.58-3.16,6,6,0,0,0-3.16-1.58h-5.53a4.1,4.1,0,0,1-3.16-1.58,6,6,0,0,1-1.58-3.16V454.17a4.1,4.1,0,0,1,1.58-3.16,6,6,0,0,1,3.16-1.57h28.43a4.1,4.1,0,0,1,3.16,1.57,6,6,0,0,1,1.58,3.16Zm107.42-49.76a29.75,29.75,0,0,1-7.11,11.85c-3.16,3.16-7.11,5.53-12.64,7.9a56.79,56.79,0,0,1-17.37,3.16H411.82c-2.37,0-3.95.79-6.32,2.37s-2.37,3.16-2.37,5.53v25.27a1.7,1.7,0,0,1-1.58,1.58H377.07a1.7,1.7,0,0,1-1.58-1.58V408.36a1.7,1.7,0,0,1,1.58-1.58h48.18a57.77,57.77,0,0,1,17.37,2.37,40.06,40.06,0,0,1,12.64,7.11,33.14,33.14,0,0,1,7.11,11.06,38.27,38.27,0,0,1,2.37,14.22A45.93,45.93,0,0,1,462.37,456.54Z"/>
    <path fill="currentColor"
          d="M430.77,428.9h-22.9a8.16,8.16,0,0,0-8.69,8.69V455a1.7,1.7,0,0,0,1.58,1.58h30q14.22,0,14.22-14.21c0-3.16-1.58-6.32-3.95-9.48A13.65,13.65,0,0,0,430.77,428.9Z"/>
</svg>