<svg xmlns="http://www.w3.org/2000/svg" width="244.222" height="276.386" viewBox="0 0 244.222 276.386">
  <path d="M1087.742,667.408c-.59,15.091-3.4,29.837-7,44.452a16.429,16.429,0,0,0,1.7,12.515c13.038,24.542,28.162,47.6,46.563,68.495,3.209,3.643,6.108,4.664,10.827,3.92,15.235-2.432,30.561-4.687,45.952-.811,14.4,3.643,19.423,15.269,12.138,28.14-8.229,14.536-21.988,19.778-37.912,14.314-10.816-3.721-19.911-10.294-28.162-18-3.165-2.954-6.219-3.442-10.316-2.476a552.8,552.8,0,0,0-82.976,26.307,12.877,12.877,0,0,0-7.241,6.563c-8.162,16.325-16.324,32.66-28.229,46.74a58.085,58.085,0,0,1-11.348,10.672c-7.44,5.1-15.169,6.585-22.9.966-8.318-6.03-13.36-13.959-11.4-24.73,2.087-11.416,9.972-18.957,18.489-25.83,12.093-9.761,25.729-17.013,39.778-23.487a12.78,12.78,0,0,0,6.807-7,729.714,729.714,0,0,0,36.524-102.353,15.189,15.189,0,0,0-.778-10.95c-6.507-14.492-11.926-29.305-13.392-45.319a42.2,42.2,0,0,1,2.254-18.345c3.687-10.238,13.248-16.413,23.631-14.414,9.229,1.766,12.782,9.605,15.558,17.523C1087.775,658.5,1087.852,662.965,1087.742,667.408ZM1005.876,861.22c-4.786.533-8.229,3.787-11.938,6.262-6.817,4.564-13.437,9.529-17.822,16.724-2.054,3.376-1.61,6.508,1.333,9.185,3.354,3.065,5.1-.367,6.9-2.044,9.228-8.562,15.436-19.322,21.422-30.227Zm66.706-117.545c-7.984,27.362-17.4,52.737-28.195,79.189a623.664,623.664,0,0,1,68.606-21.187A373.188,373.188,0,0,1,1072.583,743.675Zm-5.3-55.59c4.376-9.994,5.941-19.334,1.532-29.006-1.565-3.432-3.086-3.7-5.208-.255C1057.847,668.2,1058.99,679.5,1067.286,688.084Zm84.7,124.885c4.288,3.165,7.408,5.963,10.961,8,5.752,3.309,15.024,1.11,18.434-3.82,1.876-2.709,1.566-4.453-1.877-4.853A92.82,92.82,0,0,0,1151.982,812.969Z" transform="translate(-957.017 -636.406)" fill="currentColor"/>
</svg>
