<svg xmlns="http://www.w3.org/2000/svg" viewBox="0 0 659.22 649.53">
    <path fill="currentColor"
          d="M454.76,244.06V140.94h-354V392.1H203.84V495.21h354V244.06ZM203.84,373.94h-85V159.1H436.6v85H203.84ZM539.72,477.05H222V262.21H539.72Z"/>
    <circle fill="currentColor" cx="273.65" cy="300.79" r="12.1"/>
    <rect fill="currentColor" x="304.34" y="296.25" width="184.59" height="9.08"/>
    <circle fill="currentColor" cx="273.65" cy="344.67" r="12.1"/>
    <rect fill="currentColor" x="304.34" y="340.13" width="184.59" height="9.08"/>
    <circle fill="currentColor" cx="273.65" cy="391.89" r="12.1"/>
    <rect fill="currentColor" x="304.34" y="387.34" width="184.59" height="9.08"/>
    <path fill="currentColor" d="M273.65,424.41a12.1,12.1,0,1,1-12.1,12.11A12.11,12.11,0,0,1,273.65,424.41Z"/>
    <rect fill="currentColor" x="304.34" y="431.98" width="184.59" height="9.08"/>
</svg>