<svg xmlns="http://www.w3.org/2000/svg" viewBox="0 0 659.22 649.53">
    <path fill="currentColor"
          d="M456.36,88.1H185.52A106.54,106.54,0,0,0,79.11,194.51V426.65A106.54,106.54,0,0,0,185.52,533.06H456.36a106.53,106.53,0,0,0,106.4-106.41V194.51A106.53,106.53,0,0,0,456.36,88.1ZM288.44,318,172.36,414.74a9.67,9.67,0,0,1-15.86-7.43V213.85a9.67,9.67,0,0,1,15.86-7.43l116.08,96.73a9.67,9.67,0,0,1,0,14.86ZM475.7,475H359.63a9.68,9.68,0,1,1,0-19.35H475.7a9.68,9.68,0,1,1,0,19.35Zm0-38.69H359.63a9.68,9.68,0,1,1,0-19.35H475.7a9.68,9.68,0,1,1,0,19.35Zm0-38.69H359.63a9.68,9.68,0,1,1,0-19.35H475.7a9.68,9.68,0,1,1,0,19.35Zm0-38.7H359.63a9.67,9.67,0,1,1,0-19.34H475.7a9.67,9.67,0,1,1,0,19.34Zm0-38.69H359.63a9.67,9.67,0,1,1,0-19.34H475.7a9.67,9.67,0,1,1,0,19.34Zm0-38.69H359.63a9.67,9.67,0,1,1,0-19.34H475.7a9.67,9.67,0,1,1,0,19.34Zm0-38.69H359.63a9.68,9.68,0,1,1,0-19.35H475.7a9.68,9.68,0,1,1,0,19.35Zm0-38.69H359.63a9.68,9.68,0,1,1,0-19.35H475.7a9.68,9.68,0,1,1,0,19.35Zm0-38.69H359.63a9.68,9.68,0,1,1,0-19.35H475.7a9.68,9.68,0,1,1,0,19.35Z"/>
</svg>