<svg xmlns="http://www.w3.org/2000/svg" viewBox="0 0 659.22 649.53"><path fill="currentColor" d="M588.83,401.51c-7.11,13.59-12.38,28.66-21.79,40.4-11.44,14.28-29,19.88-47.36,19.91q-202.59.24-405.17,0c-33.9-.07-60.11-22.69-67.21-56.07a20.69,20.69,0,0,0-1.94-4.21v-186c7.11-13.59,12.38-28.66,21.79-40.4,11.44-14.28,29-19.88,47.36-19.91q202.59-.24,405.17,0c33.9.07,60.11,22.69,67.21,56.07a21.25,21.25,0,0,0,1.94,4.21ZM317.11,438.32c64.38,0,128.78-1,193.14.39,35.76.75,56.08-23.57,55.28-54.77q-1.95-75.39,0-150.87c.79-31.09-19.47-55-55.31-54.75q-193.12,1.52-386.28,0c-34.73-.27-56.27,22.36-55.3,56q2.16,74.18,0,148.45c-.93,32.53,19.28,56.85,56.54,56C189.13,437.24,253.13,438.32,317.11,438.32Z"/><path fill="currentColor" d="M375.56,226.84V390.65h-23V278.57l-2.43-.66c-5.84,11.54-12.4,22.78-17.27,34.72-3.42,8.4-9.54,7.06-15.76,7.05s-12.38,1.42-15.8-7c-4.8-11.83-11.24-23-18.65-37.77V390.23h-24q0-81.47,0-162.63c19.25-4.93,21.89-3.8,30.52,13.43,8.95,17.89,17.85,35.81,27.82,55.82,9.77-19.38,18.68-37,27.55-54.63C353.62,224.2,353.6,224.19,375.56,226.84Z"/><path fill="currentColor" d="M117.26,389.93c14.14-24.77,27.61-48.87,41.66-72.62,3.67-6.22,4.08-10.74.19-17.24-14.19-23.73-27.57-47.93-41.33-72.08,17.5-5.22,20.76-4,29.09,10.38,9,15.61,18.09,31.23,28.4,49,9.3-16,17.86-30.57,26.31-45.24,9.83-17.06,9.78-17.09,31.53-15.85-1.93,3.94-3.39,7.39-5.23,10.63-11.7,20.61-23.15,41.37-35.4,61.65-4.24,7-4.65,12.19-.23,19.52,14,23.33,27.12,47.24,40.69,71.12-19.18,4.77-20.93,4-30-11.89-8.74-15.27-17.58-30.49-27.53-47.72-9.44,16.27-19.07,30.41-26.12,45.75C142.76,389.5,133.62,394.45,117.26,389.93Z"/><path fill="currentColor" d="M423.1,226.48v141h94v23H401.24V226.48Z"/></svg>