<svg xmlns="http://www.w3.org/2000/svg" viewBox="0 0 659.22 649.53"><path fill="currentColor" d="M385.57,201c-42.47-29.63-102-24.92-139.27,7.5-9.27,8.06-17.46,17.36-26.64,25.55-19.41,17.32-41.39,17.36-57.34.56-14.65-15.43-13.38-37.56,2.78-55.94,72.85-82.87,182-99.9,277.09-36.73,13.53-14.5,26.85-30.46,42.12-44.26,5.81-5.26,17.53-9.42,23.91-7,5.7,2.14,10.76,13.92,10.93,21.56,1,44.6.08,89.25.7,133.87.24,17.26-6,25.92-23.89,25.81-45.39-.27-90.8.45-136.17-.6-7.83-.18-19.47-5.38-22.1-11.42-2.49-5.72,2.48-17.5,7.81-23.23C357.39,223.86,371.56,213.19,385.57,201Z"/><path fill="currentColor" d="M226.45,500.73c-14.15,15.32-26.94,30.79-41.59,44.22-5.79,5.31-17.2,10.06-23.36,7.79-5.86-2.16-11.42-13.75-11.6-21.31-1.06-45.36-.16-90.76-.72-136.13-.22-18.17,8.07-24.39,25.3-24.19,44.61.51,89.24-.33,133.83.64,7.87.17,20.86,5.14,22.18,10.28,1.89,7.41-2.54,19-8.18,25.24-11.16,12.4-25,22.4-38.09,33.69C323.61,474,388.46,464.5,422,434.75c9.77-8.66,18.47-18.55,28.35-27.07,18.86-16.26,40.41-16.13,55.86-.38,14.17,14.44,13.21,39.06-2.19,56.26C428.09,548.35,325.53,563.29,226.45,500.73Z"/></svg>