<svg xmlns="http://www.w3.org/2000/svg" viewBox="0 0 659.22 649.53">
    <polygon fill="currentColor" points="199.78 62.52 199.78 72.81 421.07 200.82 421.07 557.84 430.07 562.99 430.07 195.68 199.78 62.52"/>
    <path fill="currentColor"
          d="M194.63,474.21l173,99.71,2.58-1.29h0L407.56,554h0l1.28-.64V207.25L194.63,83.1Zm175,59.18,23.81,14.16-23.16,11.58ZM204.28,98.54l196.2,113.22V540.47L360,517.31l1.29,42.46-157-90.7Z"/>
    <path fill="currentColor"
          d="M271.83,371.29c5.14,3.22,9,.64,9-5.15s-3.86-12.86-9-16.08-9-.64-9,5.15S266.68,368.07,271.83,371.29ZM300.77,388c5.15,3.22,9,.65,9-5.14s-3.86-12.87-9-16.08-9-.65-9,5.14S295.63,384.8,300.77,388Zm29,16.73c5.15,3.22,9,.64,9-5.15s-3.86-12.86-9-16.08-9-.64-9,5.15S324.57,401.52,329.72,404.74Zm41.81-4.5c-2.57-1.29-3.86-1.93-5.14-1.93s-1.93.64-3.22,1.28a31.65,31.65,0,0,0-1.93,4.51c0,1.28-.64,4.5-.64,9,0,7.08,0,11.58-.65,14.15s-1.28,3.86-3.21,5.15c-1.29.64-3.86.64-6.43,0a37.84,37.84,0,0,1-9-4.5l-2.57-1.29V413.75c3.21,1.93,5.79,3.21,6.43,3.21,1.29,0,1.93,0,2.57-.64s.65-1.93.65-4.5a107.91,107.91,0,0,1,.64-12.23,25,25,0,0,1,1.29-8.36c.64-1.93,1.93-3.22,2.57-4.5a30.37,30.37,0,0,1,4.5-1.93,42.1,42.1,0,0,1-5.14-8.36A54,54,0,0,1,349,365.5c-.64-2.57-.64-8.36-.64-17.37,0-2.57,0-4.5-.65-5.79s-1.28-1.93-1.93-3.21c-1.28-1.29-3.21-2.58-7.07-4.51V321.76L341.3,323c4.5,2.58,7.72,4.51,9.65,7.08,2.57,1.93,3.86,4.5,5.79,7.08a44.15,44.15,0,0,1,3.21,8.36c.65,3.21.65,7.07.65,12.86,0,6.44,0,10.94.64,13.51a32.18,32.18,0,0,0,3.22,8.37c1.28,1.92,3.86,3.85,6.43,5.78h0v14.16ZM231.3,319.83V307c2.57,1.29,3.86,1.93,5.15,1.93s1.93-.64,3.21-1.28a30.54,30.54,0,0,0,1.93-4.51c0-1.28.65-4.5.65-9,0-7.08,0-11.58.64-14.16s1.29-3.86,3.22-5.14c1.28-.65,3.86-.65,6.43,0a37.82,37.82,0,0,1,9,4.5l2.58,1.29v12.86c-3.22-1.93-5.79-3.21-6.44-3.21-1.28,0-1.93,0-1.93.64-.64.64-.64,1.93-.64,4.5a117.35,117.35,0,0,1-.64,12.87,21.1,21.1,0,0,1-1.29,7.72c-.64,1.93-1.29,3.21-2.57,3.86a32.65,32.65,0,0,1-4.5,1.93,43.42,43.42,0,0,1,4.5,7.07,36.63,36.63,0,0,1,2.57,7.72,45,45,0,0,1,1.29,10.29c0,6.44.64,10.3.64,11.58,0,2.58,0,4.51.64,5.15a6.47,6.47,0,0,0,2.58,3.22,34.28,34.28,0,0,0,6.43,4.5v12.86l-2.57-1.28c-4.51-2.57-7.72-4.5-9.65-7.08a20.19,20.19,0,0,1-5.79-7.07,45,45,0,0,1-3.22-8.37c-.64-3.21-.64-7.07-.64-12.86,0-6.43,0-10.94-.64-13.51a32.32,32.32,0,0,0-3.22-8.36c-2.57-1.93-4.5-4.51-7.72-5.79Z"/>
</svg>