<svg xmlns="http://www.w3.org/2000/svg" viewBox="0 0 659.22 649.53"><path fill="currentColor" d="M578,364.77H525V130.9a29.28,29.28,0,0,0-29.27-29.23H105.23A29.27,29.27,0,0,0,76,130.9V453.76A29.29,29.29,0,0,0,105.23,483h62.69v67.43a10,10,0,0,0,10,10h45a10,10,0,1,0,0-20h-35V384.77H568V540.45H312.85a10,10,0,0,0,0,20H578a10,10,0,0,0,10-10V374.77A10,10,0,0,0,578,364.77ZM105.23,121.67H495.68A9.26,9.26,0,0,1,505,130.9v62.58H96V130.9A9.25,9.25,0,0,1,105.23,121.67Zm72.69,243.1a10,10,0,0,0-10,10V463H105.23A9.25,9.25,0,0,1,96,453.76V213.48H505V364.77Z"/><path fill="currentColor" d="M415.33,167.57a10,10,0,0,0,0-20h-.05a10,10,0,0,0,.05,20Z"/><path fill="currentColor" d="M462.38,167.57a10,10,0,0,0,0-20h0a10,10,0,1,0,0,20Z"/><path fill="currentColor" d="M368.29,167.57a10,10,0,0,0,0-20h-.05a10,10,0,0,0,.05,20Z"/><path fill="currentColor" d="M138.54,167.57h131a10,10,0,0,0,0-20h-131a10,10,0,0,0,0,20Z"/><path fill="currentColor" d="M398.93,500.76l6.75-37.4,11.18,37.89c0,.11.07.22.11.33a11.64,11.64,0,0,0,11.07,8h.1a11.6,11.6,0,0,0,11-8.14c0-.09.06-.18.08-.26L450,463.35l7.17,37.51a10,10,0,1,0,19.64-3.76l-13.76-72s0-.07,0-.11a11.66,11.66,0,0,0-22.54-1.22,2.76,2.76,0,0,0-.08.27L427.89,468l-13-44c0-.11-.07-.22-.1-.33a11.68,11.68,0,0,0-22.53,1.43,1.16,1.16,0,0,1,0,.18l-13,72a10,10,0,0,0,19.68,3.55Z"/><path fill="currentColor" d="M508.54,415.67a10,10,0,0,0-10,10v73.82a10,10,0,0,0,8.3,9.86c.71.12,1.24.21,9.52.21,4,0,9.71,0,18.11-.07a10,10,0,0,0-.06-20h-.06c-4.82,0-10.85.06-15.81.06V425.67A10,10,0,0,0,508.54,415.67Z"/><path fill="currentColor" d="M272.62,415.67a10,10,0,0,0-10,10v25.66H231.47V425.67a10,10,0,0,0-20,0v73.88a10,10,0,0,0,20,0V471.33h31.15v28.22a10,10,0,1,0,20,0V425.67A10,10,0,0,0,272.62,415.67Z"/><path fill="currentColor" d="M333.25,509.55a10,10,0,0,0,10-10V435.67h10.49a10,10,0,0,0,0-20H312.91a10,10,0,0,0,0,20h10.34v63.88A10,10,0,0,0,333.25,509.55Z"/><path fill="currentColor" d="M224.35,239.09a10,10,0,0,0-11.93,7.59l-18.28,82.17a10,10,0,0,0,7.59,11.93,10.32,10.32,0,0,0,2.18.24,10,10,0,0,0,9.76-7.83L231.94,251a10,10,0,0,0-7.59-11.93Z"/><path fill="currentColor" d="M166.08,248.35A10,10,0,0,0,152,249.68l-28.06,33.87a10,10,0,0,0,0,12.76L152,330.19a10,10,0,0,0,15.4-12.76l-22.77-27.5,22.77-27.5a10,10,0,0,0-1.32-14.08Z"/><path fill="currentColor" d="M274.05,249.68a10,10,0,1,0-15.4,12.75l22.78,27.5-22.78,27.5a10,10,0,1,0,15.4,12.76l28.06-33.88a10,10,0,0,0,0-12.76Z"/><path fill="currentColor" d="M391.3,276.5h78a10,10,0,0,0,0-20h-78a10,10,0,1,0,0,20Z"/><path fill="currentColor" d="M334.67,276.5h16.6a10,10,0,0,0,0-20h-16.6a10,10,0,0,0,0,20Z"/><path fill="currentColor" d="M412.64,307.77h-78a10,10,0,0,0,0,20h78a10,10,0,0,0,0-20Z"/><path fill="currentColor" d="M469.27,307.77h-16.6a10,10,0,0,0,0,20h16.6a10,10,0,0,0,0-20Z"/><path fill="currentColor" d="M267.88,540.45a10,10,0,0,0,0,20h.06a10,10,0,0,0-.06-20Z"/></svg>