<svg xmlns="http://www.w3.org/2000/svg" viewBox="0 0 659.22 649.53"><title>TIF </title><path fill="currentColor" d="M339.81,515.19q-115.71,0-231.4,0C85.59,515.12,78.08,504,86,482.8Q140,338.57,193.84,194.34c3.65-9.78,7.58-18.9,20-19.53,13-.66,17.71,8.47,22.29,18.37q47.46,102.68,95.25,205.19c9.75,21,25,22.5,39,3.75,19-25.39,37.86-50.9,56.91-76.27,12.49-16.63,24.89-16.84,37.94-.72q61,75.39,122,150.84c6.61,8.17,14,16,8.44,27.92s-16.12,11.3-26.79,11.28q-114.49-.15-229,0Z"/><path fill="currentColor" d="M365.19,269.56a47,47,0,0,1-47.34-47.28c-.06-26.93,21.18-47.85,48.25-47.53a47.41,47.41,0,0,1-.91,94.81Z"/></svg>