<svg version="1.1" xmlns="http://www.w3.org/2000/svg"
	 viewBox="0 0 100 101.8">
<path fill="currentColor" d="M35.8,63.6h1.1h26.3h1.1c8.6,0,15.6-5.9,15.6-13.1l-2.5-21.7c-1-7.8-6.4-13.1-14.3-13.6h-1.3l0,0H37.1h-0.2
	c-0.5,0-0.9,0.1-1.4,0.1c0.3-2.1,1-4.4,2.6-5.5C39,9.1,40.3,9,41.8,9.2c0.4,0.7,1,1.3,1.8,1.6l6.5,1.8c0.3,0.1,0.5,0.1,0.8,0.1
	c1.3,0,2.5-0.8,2.8-2.1c0.4-1.6-0.5-3.2-2-3.7l-6.5-1.8c-0.8-0.2-1.7-0.1-2.4,0.3c-2.8-0.6-5.2-0.3-7.2,1.2
	c-3.2,2.4-4.1,6.9-4.3,9.8c-4.9,2.1-8.1,6.5-8.7,12.3l-2.5,21.4v0.3C20.2,57.7,27.2,63.6,35.8,63.6z M28.7,29.4
	c0.5-4.9,3.6-8,8.6-8.3h0.9h23.7h0.9c4.9,0.4,8.1,3.4,8.6,8.4l2.5,21.2c-0.1,3.8-4.5,7-9.6,7h-1.1H36.9h-1.1c-5.2,0-9.5-3.2-9.6-7
	L28.7,29.4z M74.9,65.1H25.1c-1.6,0-3,1.3-3,3s1.3,3,3,3h22v9.8h-3.5c-3.9,0-7.1,3.2-7.1,7.1s3.2,7.1,7.1,7.1h12.9
	c3.9,0,7.1-3.2,7.1-7.1s-3.2-7.1-7.1-7.1H53V71h22c1.6,0,3-1.3,3-3S76.6,65.1,74.9,65.1z M57.7,87.9c0,0.6-0.5,1.2-1.2,1.2h-13
	c-0.6,0-1.2-0.5-1.2-1.2c0-0.6,0.5-1.2,1.2-1.2h12.9C57.1,86.7,57.7,87.2,57.7,87.9z"/>
</svg>
