<svg xmlns="http://www.w3.org/2000/svg" viewBox="0 0 659.22 649.53"><title>RA </title><path fill="currentColor" d="M205.84,339.7c0,44.33-.13,88.67.09,133,.06,11.26-2.45,20.5-15.59,20.34-13-.16-15.7-9.6-15.69-20.67q.09-132.24,0-264.47c0-11.14,2.71-20.78,15.28-21.18,13.94-.43,16.13,9.76,16.06,21.52C205.67,252.06,205.84,295.88,205.84,339.7Z"/><path fill="currentColor" d="M250.07,339.82c0,29.72-.16,59.44.1,89.15.09,10.54-2.12,19.47-14.32,20-12.87.53-16.78-8.42-16.79-19.65Q219,340.16,219,251c0-11.28,3.94-20.41,16.48-20.12,11.73.28,14.84,9,14.73,19.79C249.87,280.39,250.07,310.11,250.07,339.82Z"/><path fill="currentColor" d="M294.39,340c0,19.3-.18,38.6.07,57.89.15,11.14-3.85,18.72-15.89,18.36-11.23-.33-14.54-8-14.5-18.23.14-38.6.07-77.19,0-115.78,0-10.79,3.37-18.68,15.92-18.29,11.72.38,14.47,8.18,14.44,18.16-.05,19.3,0,38.59,0,57.89Z"/><path fill="currentColor" d="M428,340.2c0,9.86.32,19.73-.06,29.58S421.1,386.42,412,384.43c-5.76-1.27-13.85-9-14.31-14.37a359.62,359.62,0,0,1,.06-60.6c.44-5.13,9.46-13.19,14.6-13.23s13.51,7.43,14.92,13C429.78,319,428,329.83,428,340.2Z"/><path fill="currentColor" d="M308.66,338.22c0-9.38-1.76-19.24.61-28,1.59-5.85,9-14,13.89-14,5.3,0,14.82,7.77,15.24,12.77a372.19,372.19,0,0,1-.07,62.37c-.43,5-10.28,12.85-15.45,12.59-5-.26-12.29-8.67-13.65-14.63-2.28-9.9-.62-20.7-.62-31.13Z"/><path fill="currentColor" d="M472.25,340.53c0,22.77-4.11,31.09-15.9,29.6-18.17-2.3-15-16.9-15.21-29.15-.1-5.22-.21-10.46.13-15.66.66-9.94,6.5-15.75,16.15-15.44s14.93,6.48,14.83,16.55C472.2,331.13,472.24,335.83,472.25,340.53Z"/><path fill="currentColor" d="M352.84,339.2c.5-12-3.87-26.89,14.58-29.41,11.75-1.61,16.58,7.6,16.57,29.36,0,5.22,1.83,11.64-.54,15.38-3.91,6.19-10,14.09-16.17,15-9,1.39-14.74-6.14-14.45-16.28C353,348.6,352.86,343.9,352.84,339.2Z"/><path fill="currentColor" d="M516.39,340c.44,10.45.31,21.78-14.38,22.17-15.27.4-16.66-10.88-16.55-22.66.1-11.15,1.47-21.77,15.85-21.82C516.11,317.6,516.88,328.41,516.39,340Z"/></svg>