<svg xmlns="http://www.w3.org/2000/svg" width="300" height="300" viewBox="0 0 300 300">
  <path d="M1171.861,793.191c-2-8.919-3.745-19.042-10.392-27.2-3.139-3.874-3.495-7.171.916-9.717,4.583-2.672,5.873-12.247,14.649-6.452,26.265,17.356,52.16,9.123,70.209-7.747,7.208-6.734,10.764-16.043,12.146-25.6.855-5.92,3.4-6.92,8.249-6.53a45.875,45.875,0,0,0,7.612,0c4.5-.406,6.057,1.265,6.927,6,5.686,31.087,30.8,43.506,56.153,43.334a40.268,40.268,0,0,0,25.817-9.092c7.3-6.108,9.725,1.187,13.545,4.389,3.651,3.062,6.911,5.7,2.594,11.655-15.767,21.744-9.522,50.628,6.586,68.78,7.394,8.326,17.8,11.889,28.286,13.982,6.959,1.39,5.577,5.873,5.483,10.123-.124,4.687,2.176,10.732-5.515,12.013-28.861,4.8-40.836,24.588-44.036,51.332a41.38,41.38,0,0,0,8.947,30.837c3.247,4.14,3.744,7.592-.917,10.434-4.519,2.75-5.885,12.045-14.725,6.061-21.341-14.418-42.592-11.262-63.158,2.125-11.122,7.249-16.589,18.527-18.8,30.994-1.1,6.248-3.617,7.06-8.806,6.951-7.209-.156-13.872,1.469-15.317-9.733-4.069-31.586-47.189-48.567-72.339-35.007a29.185,29.185,0,0,1-5.312,2.577c-3.369,1.031-5.809,6.279-9.568,3.8-4.381-2.905-8.077-7.045-11.558-11.107-2.657-3.093,1.09-5.265,2.472-7.233,17.023-24.15,8.559-50.145-7.783-68.89-6.339-7.28-15.487-10.982-25.211-12.575-4.583-.766-8.978-1.921-8.016-8.373.855-5.749-2.953-13.2,7.238-14.841C1159.791,843.415,1169.439,815.311,1171.861,793.191Zm99.055,111.195c24.962.031,44.689-19.418,44.8-44.162a44.3,44.3,0,0,0-44.272-44.834c-25.428-.109-45.48,19.652-45.388,44.708A44.445,44.445,0,0,0,1270.917,904.386Z" transform="translate(-1120.871 -709.87)" fill="currentColor"/>
</svg>
