<svg xmlns="http://www.w3.org/2000/svg" viewBox="0 0 659.22 649.53"><title>ICO </title><path fill="currentColor" d="M482.75,576.63H156.32a6.77,6.77,0,0,0-1.68-.71,52.8,52.8,0,0,1-25.33-10.1c-17-12.42-25.14-29.39-25.13-50.37q0-196.7,0-393.4a89.26,89.26,0,0,1,.61-11.68c3.74-28.76,29.1-51,58.08-51q157.13,0,314.26,0a55.89,55.89,0,0,1,35.31,12.49c16.12,12.7,23.09,29.78,23.09,49.93q.06,172.47,0,344.94c0,16.66.29,33.32-.07,50C535,540.8,524.17,559,502.67,570.15,496.54,573.31,489.41,574.52,482.75,576.63ZM136.64,318V513.75c0,1.51,0,3,.05,4.54.79,14.91,12.3,25.84,27.21,25.84q155.8,0,311.62-.08a30,30,0,0,0,10.65-1.95c11.05-4.33,16.91-13.94,16.92-27q0-102.22,0-204.46,0-94.86.05-189.7c0-17.68-13-29.32-29.1-29.27-102.86.28-205.72.13-308.59.14-17.61,0-28.81,11.25-28.81,28.88Z"/><path fill="currentColor" d="M470.73,426.13c0,8.33,0,16.65,0,25-.15,22.25-14.82,37.91-37,39.24-9.19.55-18.52.85-27.09-3.32-14.5-7.06-21.93-18.95-22.18-35-.27-17.65-.13-35.31,0-53,.09-19.64,14.29-35.76,33.84-37.5a83.56,83.56,0,0,1,24,1c16.35,3.41,27.84,18.13,28.31,34.85.27,9.58.05,19.17.05,28.75Zm-32.49-.33c0-8.81.05-17.63,0-26.45,0-3.74-1.8-5.75-5.38-6a82.84,82.84,0,0,0-10.57,0c-3.33.23-5.37,2.21-5.38,5.65q-.09,26.64,0,53.28c0,3.32,2,5.4,5.47,5.52,3.15.11,6.3.1,9.45,0,4.63-.1,6.38-1.83,6.41-6.42C438.28,442.93,438.24,434.37,438.24,425.8Z"/><path fill="currentColor" d="M255.07,425c0-8.33-.07-16.66,0-25,.2-22.25,16-38.44,38.2-39,10.59-.25,21.2-.13,31.79,0,7.8.08,14.46,5.49,15.93,12.61a15.86,15.86,0,0,1-15.4,19.64c-10.09.12-20.18,0-30.27.06-6,0-7.76,1.69-7.77,7.54q0,24.78,0,49.57c0,5.85,1.62,7.46,7.4,7.48,10,0,19.94-.07,29.9,0,8,.08,14.76,5.53,16.17,12.79,1.53,7.84-2.12,15.15-9.38,18.3a16.39,16.39,0,0,1-6.21,1.32c-11,.13-22,.47-32.92,0-22.39-1-37.17-16.74-37.44-39.24C255,442.39,255.06,433.69,255.07,425Z"/><path fill="currentColor" d="M185.13,425.56q0-23.65,0-47.3c0-9.93,6.92-17.25,16.2-17.26s16.25,7.4,16.26,17.27q0,47.49,0,95c0,9.89-7,17.19-16.27,17.17s-16.16-7.27-16.18-17.19Q185.1,449.4,185.13,425.56Z"/></svg>