<svg xmlns="http://www.w3.org/2000/svg" viewBox="0 0 659.22 649.53"><path fill="currentColor" d="M479.19,377.08c.92-5.73,2.23-10.1,2.24-14.47.13-55.93.09-111.86.09-170h-226c0,10.69,0,21.45,0,32.22q.62,117,1.21,233.93c.15,38.33-23.82,66.16-57.76,67.63-31.59,1.38-58-20.21-61.74-50.36C133,441.94,153,412.79,186.7,408.57c14.56-1.82,30,3.44,47.6,5.83V142.87H502.22c0,51.23,0,101.46,0,151.68,0,45.86,1.37,91.79-.74,137.55-1.66,36-34.88,60.78-68.38,54.78-34.3-6.15-55.88-39.76-47.67-74.25,7.45-31.31,40.78-51.23,72.11-42.87C464.47,371.61,471.18,374.34,479.19,377.08Z"/></svg>