<svg xmlns="http://www.w3.org/2000/svg" viewBox="0 0 659.22 649.53"><path fill="currentColor" d="M412.23,82.42l-64.79,8.07c-.43.05.37.12-.05.2-23.74,4.29-41.11,26.56-41.11,50.69V390.73c-11.64-.13-58.63,0-78.7,7.42-48.28,17.94-73.34,65-57.46,109.48,6.72,18.83,19.15,33.07,36.55,41.19a79.15,79.15,0,0,0,33.86,7.23c12.68,0,26.12-2.6,40.1-7.79,42.79-15.91,60.14-55.81,60.83-57.5,5.92-14.86,11.41-38.12,11.41-54.12V141.37c0-1.6.92-4.26,2.56-4.81l63.18-7.94a23.05,23.05,0,0,0,19.92-26A23.61,23.61,0,0,0,412.23,82.42ZM297.17,473.28c-.09.24-9.81,22.74-32.85,31.3-15.29,5.68-28.88,6.39-38.3,2-6-2.8-10.15-7.58-12.66-14.62-6-16.73.62-39.55,29.19-50.18,7.65-2.83,34.85-4.55,56.14-4.55h3.49c.67,0,1.33.06,2,.07C304,447.45,300.71,464.41,297.17,473.28Z"/></svg>