<svg xmlns="http://www.w3.org/2000/svg" viewBox="0 0 659.22 649.53">
    <path fill="currentColor"
          d="M589.27,235.94H247.94l340.55-78.66L571.11,81.91c-4.87-21.12-25.72-34.34-46.56-29.53l-417,96.31a38.9,38.9,0,0,0-30,37.56h-.07l.1,327.15a39.25,39.25,0,0,0,39.21,39.28H550.3a39.25,39.25,0,0,0,39.22-39.28ZM479.9,93.22l67.43,44-52,12-67.44-44ZM375,117.47l67.43,44-52,12L323,129.5ZM272.63,141.13l67.43,44-52,12-67.43-44ZM168,165.28l67.4,44-52,12-67.4-44ZM550.27,513.4H116.76V275.12H550.27Z"/>
    <polygon fill="currentColor" points="292.63 332.13 292.63 459.66 394.65 395.88 292.63 332.13"/>
</svg>