<svg xmlns="http://www.w3.org/2000/svg" viewBox="0 0 659.22 649.53"><title>BMP </title><path fill="currentColor" d="M575.55,44.7H92.74a37,37,0,0,0-37.5,37.5V562.66a37,37,0,0,0,37.5,37.5H573.2c21.1,0,39.85-16.41,37.5-37.5V82.2C613.05,61.1,596.64,44.7,575.55,44.7Zm7,520.3c0,4.69-4.69,7-7,7H92.74c-4.69,0-7-4.69-7-7V82.2c0-4.69,4.69-9.38,7-9.38H573.2c4.69,0,7,4.69,7,7V565Z"/><path fill="currentColor" d="M535.7,101H132.58c-9.37,0-14.06,7-14.06,14.06V323.6h0V438.44c0,9.38,7,16.41,14.06,16.41H533.36a16,16,0,0,0,16.41-16.41V117.35C549.77,108,542.74,101,535.7,101ZM149,330.63,214.61,265,306,356.41h0l46.87,46.88A18,18,0,0,0,364.61,408c4.69,0,7-2.35,11.72-4.69,7-7,7-16.41,0-21.1L338.83,347,352.89,333,442,422H149ZM519.3,422H484.14L362.27,300.16c-7-7-16.41-7-21.09,0L317.74,326,224,232.2c-4.69-4.69-16.41-4.69-21.09,0L149,286.1V131.42H519.3Z"/><path fill="currentColor" d="M416.17,283.76c16.41,0,30.47-7,42.19-16.41,7-7,7-16.4,0-21.09-7-7-16.4-7-21.09,0-11.72,11.72-30.47,11.72-39.85,0-11.71-11.72-11.71-28.13,0-39.84,7-7,7-16.41,0-21.1-7-7-16.4-7-21.09,0a59.42,59.42,0,0,0,0,84.38C385.71,276.73,399.77,283.76,416.17,283.76Z"/><path fill="currentColor" d="M446.64,208.76c4.69,0,7-2.34,11.72-4.69a17.86,17.86,0,0,0,4.69-11.72c0-4.68-2.34-7-4.69-11.72-7-7-16.4-4.68-21.09,0a17.91,17.91,0,0,0-4.69,11.72c0,4.69,2.34,7,4.69,9.38C439.61,206.42,444.3,208.76,446.64,208.76Z"/></svg>