<svg xmlns="http://www.w3.org/2000/svg" viewBox="0 0 659.22 649.53"><title>TXT </title><path fill="currentColor" d="M128.5,152.72H585.7a25.4,25.4,0,0,0,0-50.8H128.5a25.4,25.4,0,1,0,0,50.8Z"/><path fill="currentColor" d="M458.7,508.32H128.5a25.4,25.4,0,0,0,0,50.8H458.7a25.4,25.4,0,1,0,0-50.8Z"/><path fill="currentColor" d="M128.5,355.92H280.9a25.4,25.4,0,1,0,0-50.8H128.5a25.4,25.4,0,0,0,0,50.8Z"/><path fill="currentColor" d="M585.7,305.12h-127a25.4,25.4,0,1,0,0,50.8h127a25.4,25.4,0,0,0,0-50.8Z"/><path fill="currentColor" d="M128.5,254.32h50.8a25.4,25.4,0,0,0,0-50.8H128.5a25.4,25.4,0,0,0,0,50.8Z"/><path fill="currentColor" d="M585.7,203.52H407.9a25.4,25.4,0,1,0,0,50.8H585.7a25.4,25.4,0,0,0,0-50.8Z"/><path fill="currentColor" d="M306.3,203.52H280.9a25.4,25.4,0,1,0,0,50.8h25.4a25.4,25.4,0,0,0,0-50.8Z"/><path fill="currentColor" d="M382.5,305.12H357.1a25.4,25.4,0,1,0,0,50.8h25.4a25.4,25.4,0,0,0,0-50.8Z"/><path fill="currentColor" d="M128.5,457.52h50.8a25.4,25.4,0,1,0,0-50.8H128.5a25.4,25.4,0,0,0,0,50.8Z"/><path fill="currentColor" d="M306.3,406.72H280.9a25.4,25.4,0,0,0,0,50.8h25.4a25.4,25.4,0,1,0,0-50.8Z"/><path fill="currentColor" d="M382.5,432.12a25.44,25.44,0,0,0,25.4,25.4h25.4a25.4,25.4,0,1,0,0-50.8H407.9A25.44,25.44,0,0,0,382.5,432.12Z"/><path fill="currentColor" d="M585.7,406.72H534.9a25.4,25.4,0,0,0,0,50.8h50.8a25.4,25.4,0,1,0,0-50.8Z"/><path fill="currentColor" d="M585.7,508.32H534.9a25.4,25.4,0,0,0,0,50.8h50.8a25.4,25.4,0,0,0,0-50.8Z"/></svg>