<svg xmlns="http://www.w3.org/2000/svg" width="294.997" height="216" viewBox="0 0 294.997 216">
  <path d="M1047.806,855.659q-66.775,0-133.551,0c-10.632,0-13.913-3.28-13.913-13.934q-.017-94.3,0-188.587c0-10.171,3.188-13.451,13.09-13.463q36.449-.018,72.9.012c9.115.012,12.021,2.892,12.067,11.887.048,7.043.353,14.121-.106,21.129-.318,5.068,1.458,6.126,6.258,6.115q88.476-.247,176.963-.106c2.952,0,5.962-.317,8.643,1.411a10.8,10.8,0,0,1,5.176,9.818q-.053,77.32-.059,154.654c-.012,7.407-4.187,11.052-12.245,11.064Q1115.423,855.676,1047.806,855.659Zm39.52-157H1011.64c-12.408,0-12.09.012-12.514,12.58-.188,5.656,1.811,6.6,6.939,6.573,52.126-.176,104.253-.105,156.38-.105,13,0,12.726-.012,13.056-13.122.129-5.185-1.718-6.055-6.375-6.02C1141.862,698.76,1114.587,698.655,1087.325,698.655Zm-.013,39.048h-75.684c-12.4,0-12.1.012-12.5,12.568-.165,5.586,1.776,6.632,6.951,6.62,52.3-.188,104.618-.117,156.932-.117,12.4,0,12.173,0,12.468-12.629.1-4.915-1.048-6.631-6.363-6.573C1141.85,737.856,1114.576,737.7,1087.312,737.7Zm.565,39.918H1011.64c-12.408,0-12.09.012-12.514,12.6-.2,5.656,1.811,6.585,6.939,6.561,52.126-.187,104.253-.117,156.38-.117,13.008,0,12.737,0,13.056-13.1.117-5.162-1.682-6.091-6.363-6.056C1142.051,777.727,1114.963,777.621,1087.877,777.621Zm-1.118,58.108H1163c12.4,0,12.091-.012,12.515-12.581.188-5.655-1.811-6.6-6.939-6.585-52.126.188-104.253.118-156.38.118-13.008,0-12.737,0-13.067,13.122-.117,5.174,1.716,6.055,6.386,6.02C1032.587,835.624,1059.674,835.729,1086.759,835.729ZM949.622,678.712h14.984c15.043,0,14.937,0,14.737-15.2-.06-3.6-1.071-4.809-4.728-4.762-13.138.188-26.276.071-39.4.071-15.5,0-15.4,0-15.019,15.509.083,3.363,1.047,4.527,4.459,4.444C932.968,678.572,941.294,678.7,949.622,678.712Zm.14,137.969H934.191c-14.313,0-14.2,0-14,14.332.048,3.586,1.047,4.833,4.728,4.786,13.35-.188,26.7-.071,40.048-.071,14.76,0,14.655,0,14.29-14.639-.083-3.362-1.07-4.551-4.482-4.468C966.452,816.811,958.1,816.682,949.762,816.682Zm-.269-20.012h16.136c13.89,0,13.749.012,13.643-14.133-.023-3.962-1.329-5.045-5.14-5-13.161.2-26.321.082-39.482.082-15.16,0-15.066-.012-14.456,15.027.142,3.21,1.224,4.127,4.269,4.08C932.8,796.575,941.153,796.669,949.493,796.669Zm.34-58.966H933.708c-13.62,0-13.4.012-13.549,13.7-.059,4.656,1.669,5.527,5.8,5.455,12.984-.223,25.957-.081,38.943-.081,14.784,0,14.643,0,14.383-14.592-.07-3.868-1.564-4.621-4.975-4.538C966.159,737.832,958,737.7,949.833,737.7Zm-.4-20h16.124c13.926,0,13.774,0,13.714-14.075-.012-3.951-1.283-5.032-5.092-4.973-13.338.2-26.687.07-40.023.07-14.644,0-14.55,0-13.95,14.909.13,3.139,1.129,4.174,4.222,4.115C932.756,717.6,941.095,717.7,949.434,717.7Z" transform="translate(-900.333 -639.664)" fill="currentColor"/>
</svg>
