<svg xmlns="http://www.w3.org/2000/svg" viewBox="0 0 659.22 649.53"><title>GIF </title><path fill="currentColor" d="M74.37,60.86H590.93a8.33,8.33,0,0,1,8.33,8.33V585.76a8.33,8.33,0,0,1-8.33,8.33H74.37A8.33,8.33,0,0,1,66,585.76V69.19A8.33,8.33,0,0,1,74.37,60.86ZM582.6,77.53H82.7v499.9H582.6Z"/><path fill="currentColor" d="M271.35,336.05l190,244.6-6.58,5.11,6.58-5.11a8.32,8.32,0,0,1-6.58,13.44H74.37A8.33,8.33,0,0,1,68,580.43L258,335.79h0a8.35,8.35,0,0,1,13.36.27ZM437.76,577.43l-173.19-223-173.19,223Z"/><path fill="currentColor" d="M527.54,440.42l70.81,141.63-7.42,3.71,7.45-3.72a8.33,8.33,0,0,1-7.58,12.05H448.62a8.34,8.34,0,0,1-7.08-12.73l70.82-141.62,0,0a8.34,8.34,0,0,1,15.22.7Zm50,137L519.78,462,462.06,577.43Z"/><path fill="currentColor" d="M460.13,144.18A64.15,64.15,0,1,1,414.78,163,63.94,63.94,0,0,1,460.13,144.18Zm33.58,30.57a47.48,47.48,0,1,0,13.91,33.58A47.34,47.34,0,0,0,493.71,174.75Z"/><path fill="currentColor" d="M468.46,110.85a8.33,8.33,0,1,0-16.66,0v12.5a8.33,8.33,0,1,0,16.66,0Z"/><path fill="currentColor" d="M516.06,128a8.29,8.29,0,1,0-14.38-8.26l-6.25,10.82a8.29,8.29,0,1,0,14.38,8.27Z"/><path fill="currentColor" d="M548.68,166.78a8.29,8.29,0,1,0-8.27-14.38l-10.82,6.25A8.29,8.29,0,1,0,537.86,173Z"/><path fill="currentColor" d="M557.61,216.66a8.34,8.34,0,0,0,0-16.67h-12.5a8.34,8.34,0,0,0,0,16.67Z"/><path fill="currentColor" d="M540.41,264.25a8.29,8.29,0,1,0,8.27-14.38l-10.82-6.25A8.29,8.29,0,1,0,529.59,258Z"/><path fill="currentColor" d="M501.68,296.87a8.29,8.29,0,0,0,14.38-8.26l-6.25-10.83a8.29,8.29,0,1,0-14.38,8.27Z"/><path fill="currentColor" d="M451.8,305.8a8.34,8.34,0,0,0,16.67,0V293.3a8.34,8.34,0,0,0-16.67,0Z"/><path fill="currentColor" d="M404.2,288.6a8.3,8.3,0,1,0,14.39,8.27l6.25-10.82a8.3,8.3,0,1,0-14.39-8.27Z"/><path fill="currentColor" d="M371.59,249.87a8.29,8.29,0,1,0,8.26,14.38L390.68,258a8.3,8.3,0,1,0-8.27-14.39Z"/><path fill="currentColor" d="M362.66,200a8.34,8.34,0,0,0,0,16.67h12.5a8.34,8.34,0,0,0,0-16.67Z"/><path fill="currentColor" d="M379.85,152.4a8.29,8.29,0,1,0-8.26,14.38L382.41,173a8.29,8.29,0,1,0,8.27-14.38Z"/><path fill="currentColor" d="M418.59,119.78a8.3,8.3,0,0,0-14.39,8.27l6.25,10.82a8.3,8.3,0,1,0,14.39-8.27Z"/></svg>