<svg xmlns="http://www.w3.org/2000/svg" viewBox="0 0 659.22 649.53">
    <path fill="currentColor"
          d="M243.21,129.12,511,188.62h1.49a10.52,10.52,0,0,0,4.46-1.49c1.49-1.48,3-3.71,3-5.95V151.43A7.25,7.25,0,0,0,514,144L246.19,84.49A5.77,5.77,0,0,0,240.24,86a6.75,6.75,0,0,0-3,6v29.75A7.25,7.25,0,0,0,243.21,129.12Zm8.93-28.27L505,157.38v14.88l-252.9-56.53Z"/>
    <path fill="currentColor"
          d="M543.72,121.68,216.44,47.3a5.78,5.78,0,0,0-5.95,1.48,6.76,6.76,0,0,0-3,6v299a78.49,78.49,0,0,0-37.19-8.93,81.82,81.82,0,1,0,81.82,81.82V160.36L505,216.89V353.75a78.49,78.49,0,0,0-37.19-8.93,81.82,81.82,0,1,0,81.82,81.82V129.12A7.25,7.25,0,0,0,543.72,121.68Zm-8.93,305a66.95,66.95,0,1,1-66.94-66.94A65.24,65.24,0,0,1,508,373.09c2.23,1.49,5.21,2.23,7.44.74s4.46-3.72,4.46-6.69V210.94A7.24,7.24,0,0,0,514,203.5L246.19,144a5.79,5.79,0,0,0-5.95,1.49,6.78,6.78,0,0,0-3,6V426.64a66.94,66.94,0,1,1-66.94-66.94,65.27,65.27,0,0,1,40.17,13.39c2.23,1.49,5.2,2.23,7.43.74s4.47-3.72,4.47-6.69V64.41l312.4,70.66Z"/>
</svg>