<svg xmlns="http://www.w3.org/2000/svg" viewBox="0 0 659.22 649.53"><defs><style>.cls-1{fill:#231f20;}</style></defs><path fill="currentColor" d="M266.19,71.57V236.65L384.1,165.91Zm30.43,63.34,34.28,27.43L296.62,182.9Z"/><rect fill="currentColor" x="464.03" y="361.96" width="76.09" height="30.44"/><rect fill="currentColor" x="494.47" y="422.84" width="30.44" height="30.44"/><rect fill="currentColor" x="555.35" y="422.84" width="30.44" height="30.44"/><rect fill="currentColor" x="464.03" y="483.71" width="106.53" height="30.44"/><rect fill="currentColor" x="114" y="422.84" width="76.09" height="30.44"/><rect fill="currentColor" x="129.22" y="361.96" width="30.44" height="30.44"/><rect fill="currentColor" x="68.34" y="361.96" width="30.44" height="30.44"/><rect fill="currentColor" x="83.56" y="301.09" width="106.53" height="30.44"/><rect fill="currentColor" x="433.59" y="148.9" width="106.53" height="30.44"/><rect fill="currentColor" x="114" y="148.9" width="106.53" height="30.44"/><rect fill="currentColor" x="479.25" y="209.77" width="30.44" height="30.44"/><rect fill="currentColor" x="540.13" y="209.77" width="45.66" height="30.44"/><rect fill="currentColor" x="68.34" y="209.77" width="30.44" height="30.44"/><rect fill="currentColor" x="129.22" y="209.77" width="45.66" height="30.44"/><path fill="currentColor" d="M251,575H403.16V301.09H251Zm30.43-91.32h15.22V399.48l76.1-50.74v89.32H342.28V405.63l-15.22,10.13v98.39H281.4Z"/></svg>