<svg xmlns="http://www.w3.org/2000/svg" width="42.128" height="209.618" viewBox="0 0 42.128 209.618">
  <g transform="translate(0 -12)">
    <g>
      <path d="M1021.078,639.633c0-18.938.151-37.887-.1-56.826-.061-4.792,1.49-6.212,6.161-6.071,10.16.3,20.338.252,30.5.02,4.238-.1,5.468,1.43,5.456,5.548q-.18,58.008.012,116.037c.009,4.229-1.44,5.538-5.559,5.446-10.36-.221-20.731-.241-31.091,0-4.249.1-5.477-1.429-5.446-5.537C1021.168,678.708,1021.078,659.165,1021.078,639.633Z" transform="translate(-1020.975 -482.175)" fill="currentColor"/>
      <path d="M1021.015,587.85c0-5.448.088-10.906-.03-16.354-.059-2.98,1.14-4.179,4.139-4.16q16.341.132,32.7,0c2.969-.02,4.189,1.151,4.159,4.15q-.118,16.345,0,32.7c.03,2.989-1.16,4.179-4.149,4.15q-16.339-.118-32.7,0c-2.979.029-4.218-1.132-4.149-4.131C1021.1,598.757,1021.015,593.3,1021.015,587.85Z" transform="translate(-1020.903 -555.336)" fill="currentColor"/>
    </g>
  </g>
</svg>
