<svg xmlns="http://www.w3.org/2000/svg" viewBox="0 0 659.22 649.53"><path fill="currentColor" d="M511.36,360.4c-14.85-2.07-27.92-5.4-41-5.47q-132.57-.71-265.15,0c-14.29.08-28.56,3.21-44.32,5.11,4.23-33.42,8.53-69.22,13.37-105C178.6,223,183.8,191,188.12,158.9c3.16-23.51,14.78-34.74,39-34.82q109.56-.31,219.12,0c21.47.07,33,9.28,36.22,30.9,8.91,59.2,16.85,118.54,25.17,177.84C508.94,342.43,510.22,352.05,511.36,360.4Z"/><path fill="currentColor" d="M514.16,416.21c-.07-2.45,0-4.92-.28-7.35-2.92-23.8-14.71-34.32-39-34.38-46-.11-92,0-138,0-46.61,0-93.23-.12-139.84.05-25.54.1-37.75,12.68-38.07,38.54-.07,5.52,0,11,0,16.56,0,39.07,9.5,48.75,48.72,48.8q123.28.19,246.57.05C507.66,478.44,515.78,470,514.16,416.21Zm-65.48,25.24H447a4.88,4.88,0,0,1-1.14.09c-.52,0-1-.05-1.55-.09h-30.5a12.95,12.95,0,0,1,0-25.9h34.83a12.95,12.95,0,0,1,0,25.9Zm31.76,2.19a15.39,15.39,0,0,1-2-30.66l.06-.07,0,0a17,17,0,0,1,1.9-.13,15.41,15.41,0,1,1,0,30.81Z"/></svg>