<svg xmlns="http://www.w3.org/2000/svg" viewBox="0 0 659.22 649.53"><title>WMA </title><path fill="currentColor" d="M537.61,88.7H119.15a34.27,34.27,0,0,0-34.06,34.06V543.65a34.26,34.26,0,0,0,34.06,34.06H537.61a34.26,34.26,0,0,0,34.06-34.06V122.76A34.27,34.27,0,0,0,537.61,88.7ZM119.15,104.92H537.61a18,18,0,0,1,17.84,17.84v279H101.31v-279A18,18,0,0,1,119.15,104.92Zm436.3,313v6.9H101.31V418ZM537.61,561.49H119.15a18,18,0,0,1-17.84-17.84V441.07H555.45V543.65A18,18,0,0,1,537.61,561.49Z"/><rect fill="currentColor" x="289.86" y="474.72" width="76.64" height="16.22"/><rect fill="currentColor" x="289.86" y="512.84" width="76.64" height="16.22"/><path fill="currentColor" d="M546.53,148.31a34.26,34.26,0,0,0-34.06-34.06H144.29a34.26,34.26,0,0,0-34.06,34.06v244.1H546.12V148.31ZM530.31,375.78H126.45V148.31a18,18,0,0,1,17.84-17.84H512.47a18,18,0,0,1,17.84,17.84Z"/><rect fill="currentColor" x="151.59" y="260.22" width="16.22" height="20.68"/><rect fill="currentColor" x="189.7" y="260.22" width="16.22" height="20.68"/><rect fill="currentColor" x="228.22" y="260.22" width="16.22" height="20.68"/><rect fill="currentColor" x="266.74" y="260.22" width="16.22" height="20.68"/><rect fill="currentColor" x="304.86" y="260.22" width="16.22" height="20.68"/><rect fill="currentColor" x="170.64" y="218.05" width="16.22" height="20.68"/><rect fill="currentColor" x="209.17" y="218.05" width="16.22" height="20.68"/><rect fill="currentColor" x="247.28" y="218.05" width="16.22" height="20.68"/><rect fill="currentColor" x="285.8" y="218.05" width="16.22" height="20.68"/><rect fill="currentColor" x="323.92" y="218.05" width="16.22" height="20.68"/><rect fill="currentColor" x="151.59" y="175.88" width="16.22" height="20.68"/><rect fill="currentColor" x="189.7" y="175.88" width="16.22" height="20.68"/><rect fill="currentColor" x="228.22" y="175.88" width="16.22" height="20.68"/><rect fill="currentColor" x="266.74" y="175.88" width="16.22" height="20.68"/><rect fill="currentColor" x="304.86" y="175.88" width="16.22" height="20.68"/><rect fill="currentColor" x="132.53" y="218.05" width="16.22" height="20.68"/><rect fill="currentColor" x="343.38" y="175.88" width="16.22" height="20.68"/><rect fill="currentColor" x="381.5" y="175.88" width="16.22" height="20.68"/><rect fill="currentColor" x="420.02" y="175.88" width="16.22" height="20.68"/><rect fill="currentColor" x="458.13" y="175.88" width="16.22" height="20.68"/><rect fill="currentColor" x="496.65" y="175.88" width="16.22" height="20.68"/><rect fill="currentColor" x="132.53" y="137.76" width="16.22" height="20.68"/><rect fill="currentColor" x="170.64" y="137.76" width="16.22" height="20.68"/><rect fill="currentColor" x="209.17" y="137.76" width="16.22" height="20.68"/><rect fill="currentColor" x="247.28" y="137.76" width="16.22" height="20.68"/><rect fill="currentColor" x="285.8" y="137.76" width="16.22" height="20.68"/><rect fill="currentColor" x="323.92" y="137.76" width="16.22" height="20.68"/><rect fill="currentColor" x="362.44" y="137.76" width="16.22" height="20.68"/><rect fill="currentColor" x="400.96" y="137.76" width="16.22" height="20.68"/><rect fill="currentColor" x="439.07" y="137.76" width="16.22" height="20.68"/><rect fill="currentColor" x="477.6" y="137.76" width="16.22" height="20.68"/><rect fill="currentColor" x="362.44" y="218.05" width="16.22" height="20.68"/><rect fill="currentColor" x="400.96" y="218.05" width="16.22" height="20.68"/><rect fill="currentColor" x="439.07" y="218.05" width="16.22" height="20.68"/><rect fill="currentColor" x="477.6" y="218.05" width="16.22" height="20.68"/><rect fill="currentColor" x="343.38" y="260.22" width="16.22" height="20.68"/><rect fill="currentColor" x="381.5" y="260.22" width="16.22" height="20.68"/><rect fill="currentColor" x="420.02" y="260.22" width="16.22" height="20.68"/><rect fill="currentColor" x="458.13" y="260.22" width="16.22" height="20.68"/><rect fill="currentColor" x="496.65" y="260.22" width="16.22" height="20.68"/><rect fill="currentColor" x="170.64" y="302.39" width="16.22" height="20.68"/><rect fill="currentColor" x="209.17" y="302.39" width="16.22" height="20.68"/><rect fill="currentColor" x="247.28" y="302.39" width="16.22" height="20.68"/><rect fill="currentColor" x="285.8" y="302.39" width="16.22" height="20.68"/><rect fill="currentColor" x="323.92" y="302.39" width="16.22" height="20.68"/><rect fill="currentColor" x="132.53" y="302.39" width="16.22" height="20.68"/><rect fill="currentColor" x="362.44" y="302.39" width="16.22" height="20.68"/><rect fill="currentColor" x="400.96" y="302.39" width="16.22" height="20.68"/><rect fill="currentColor" x="439.07" y="302.39" width="16.22" height="20.68"/><rect fill="currentColor" x="477.6" y="302.39" width="16.22" height="20.68"/><rect fill="currentColor" x="151.59" y="344.56" width="16.22" height="20.68"/><rect fill="currentColor" x="189.7" y="344.56" width="16.22" height="20.68"/><rect fill="currentColor" x="228.22" y="344.56" width="16.22" height="20.68"/><rect fill="currentColor" x="266.74" y="344.56" width="16.22" height="20.68"/><rect fill="currentColor" x="304.86" y="344.56" width="16.22" height="20.68"/><rect fill="currentColor" x="343.38" y="344.56" width="16.22" height="20.68"/><rect fill="currentColor" x="381.5" y="344.56" width="16.22" height="20.68"/><rect fill="currentColor" x="420.02" y="344.56" width="16.22" height="20.68"/><rect fill="currentColor" x="458.13" y="344.56" width="16.22" height="20.68"/><rect fill="currentColor" x="496.65" y="344.56" width="16.22" height="20.68"/></svg>