<svg xmlns="http://www.w3.org/2000/svg" viewBox="0 0 659.22 649.53"><title>ZIP </title><path fill="currentColor" d="M350,294.78v50.67h28.41c15.74,0,24,6,28.66,21.1q21.11,68.7,42,137.45c10.09,33.2.29,61.49-28.3,81.19-26.25,18.09-55.87,22.08-86.77,19.47-23.59-2-45.36-9.21-63.67-24.84-23.29-19.89-30.61-44.76-21.88-74,15.26-51.11,31.09-102.06,46-153.26,2.51-8.61,2.07-18.16,2.4-27.29.38-10.37.09-20.76.09-31.77,17.26,0,34,0,50.68.07.82,0,1.63.9,2.43,1.37ZM349.86,553c13.21.22,27.08-2.15,39.59-9.73,15.4-9.33,15.83-23.38.07-31.83-26.59-14.26-54.07-14.31-80.7-.07-15.89,8.5-15.57,22.38-.23,31.79C320.86,550.73,334.46,553.11,349.86,553Z"/><path fill="currentColor" d="M349.68,137.94H297.54V86c17.49,0,35.09,0,52.7,0l-.16-.13q-.25,26.13-.56,52.21Z"/><path fill="currentColor" d="M349.52,189q.12,26.28.25,52.56l.19-.17H297.43V189.18h52.25Z"/><path fill="currentColor" d="M349.77,241.59h50.78v52.12c-8.24,0-16.43-.13-24.61,0-8.65.18-17.29.65-25.93,1l.15.16c-.39-6.78-1.12-13.58-1.1-20.37,0-11,.56-22.08.89-33.12Z"/><path fill="currentColor" d="M349.52,138.09h51.13V189H349.52l.16.15V137.94Z"/></svg>