<svg xmlns="http://www.w3.org/2000/svg" viewBox="0 0 659.22 649.53"><title>PAGE </title><path fill="currentColor" d="M154.56,538.86H128.47a13,13,0,1,0,0,26.09h26.09a13,13,0,0,0,0-26.09Z"/><path fill="currentColor" d="M519.83,538.86H206.74a13,13,0,1,0,0,26.09H519.83a13,13,0,0,0,0-26.09Z"/><path fill="currentColor" d="M154.56,460.59H128.47a13,13,0,1,0,0,26.09h26.09a13,13,0,0,0,0-26.09Z"/><path fill="currentColor" d="M519.83,460.59H206.74a13,13,0,1,0,0,26.09H519.83a13,13,0,0,0,0-26.09Z"/><path fill="currentColor" d="M154.56,382.32H128.47a13,13,0,1,0,0,26.09h26.09a13,13,0,0,0,0-26.09Z"/><path fill="currentColor" d="M519.83,382.32H206.74a13,13,0,1,0,0,26.09H519.83a13,13,0,0,0,0-26.09Z"/><path fill="currentColor" d="M154.56,304H128.47a13,13,0,1,0,0,26.09h26.09a13,13,0,0,0,0-26.09Z"/><path fill="currentColor" d="M519.83,304H206.74a13,13,0,1,0,0,26.09H519.83a13,13,0,0,0,0-26.09Z"/><path fill="currentColor" d="M154.56,225.77H128.47a13,13,0,1,0,0,26.09h26.09a13,13,0,0,0,0-26.09Z"/><path fill="currentColor" d="M519.83,225.77H206.74a13,13,0,1,0,0,26.09H519.83a13,13,0,0,0,0-26.09Z"/><path fill="currentColor" d="M206.74,95.32H128.47a13,13,0,0,0-13,13v78.28a13,13,0,0,0,13,13h78.27a13,13,0,0,0,13-13V108.36A13,13,0,0,0,206.74,95.32Zm-13.05,78.27H141.51V121.41h52.18Z"/></svg>