<svg xmlns="http://www.w3.org/2000/svg" viewBox="0 0 659.22 649.53"><path fill="currentColor" d="M423.81,297.23l-2.25,10,2.15,1.92c9-12.52,19.36-6.55,29.34-3.35s19.6,6.81,30.09,10.48c-2.89,8.12-5.68,15.32-7.91,22.7-.61,2,.46,4.53.77,6.82,1.82-1.41,4.3-2.45,5.35-4.29,3.8-6.77,7.13-13.8,11.23-21.9,14.09,6.1,28.1,11.89,41.77,18.4,2,.93,2.52,5.32,3.23,8.23.82,3.34,1.1,6.82,1.61,10.19,5.1.29,5.1.29,7.14-13.2,14.18,6.9,28.16,13.6,42,20.56a5.92,5.92,0,0,1,2.62,4.43c.16,27.63.12,55.26.12,83.1H384c-.18-3.57-.45-6.4-.46-9.23,0-25.54-.3-51.09.19-76.62.14-7.34-1.81-10.69-9.08-13.05C318.24,334.12,262,315.29,205.79,296.59a15.26,15.26,0,0,1-5.5-3.06C275.49,279.85,350.34,276.46,423.81,297.23Z"/><path fill="currentColor" d="M375.91,450.18c-25.71,1.3-50.35,2.6-75,3.79-37.58,1.81-75.16,4.32-112.76,5-20.59.37-41.24-2.25-61.84-3.8-17.41-1.31-34.79-3-52.17-4.58-2.09-.19-4.15-.68-7.1-1.18,0-16.67,0-33,0-49.39-.06-21,0-41.94-.37-62.91-.09-5.17,1.43-7.56,6.58-9,33.31-9.29,66.51-19,99.83-28.28a21.43,21.43,0,0,1,11.62.1c61.33,19.49,122.57,39.28,183.88,58.82,5.27,1.68,7.6,3.77,7.51,9.87C375.68,395.5,375.91,422.36,375.91,450.18ZM346.47,393.3,210.83,371.67V396.6l135.64,11.46ZM210.2,429.67H346.7V416.58l-136.5-8.84Zm.55-90.12c0,3.77.36,6.47-.07,9.05-1.22,7.25,1.63,10.19,8.94,11.6,26.57,5.13,53,11,79.49,16.58,15.61,3.29,31.23,6.61,46.73,9.89,3-9,.17-13.41-8.39-14.57-4.22-.58-8.33-2-12.48-3.07Z"/><path fill="currentColor" d="M89.9,312.39c20.95-25.09,40.55-51.49,63.22-74.92,25-25.79,56.68-36.74,93.2-32.15,33.39,4.2,64.95,14.71,95.26,28.42,32,14.48,63,31.1,94.44,46.81a45.81,45.81,0,0,1,4.1,2.62c-3.12,6.18-7.24,6.57-13.29,4.69C370.47,270.31,312.9,268.92,254.55,274c-43.82,3.82-85.06,16.91-126.38,30.43-11.9,3.9-24,7.12-36,10.65Z"/><path fill="currentColor" d="M533.07,250.54a39.11,39.11,0,1,1,39-39.14C572.21,232.42,554.1,250.6,533.07,250.54Z"/><path fill="currentColor" d="M488,205.26v12l-90.88-5.89c0-.45,0-.9-.07-1.35Z"/><path fill="currentColor" d="M541,347.69c-3.69-30.27-7.39-60.53-11.18-91.62l11.76-.53v91.88Z"/><path fill="currentColor" d="M495.53,185.92l-5.18,11-76.5-44.82.71-1.52Z"/><path fill="currentColor" d="M495,236l8.06,9.16L430,299.91l-.88-1Z"/><path fill="currentColor" d="M480.59,332.91c9.76-27.34,19.51-54.69,29.48-82.6L521.28,255l-39.14,78.77Z"/><path fill="currentColor" d="M589.32,311.74l-39-58.68,10.49-6.36c10.45,21.62,22,42.05,31.21,63.58Z"/><path fill="currentColor" d="M510.92,171.89c-3.6,2.71-6.32,4.78-9.75,7.37-9.15-14.2-17.94-27.83-26.72-41.47l.91-1.9c2.77,1,6.45,1.26,8.17,3.21C492.72,149.54,501.42,160.4,510.92,171.89Z"/><path fill="currentColor" d="M568.32,183.55l-9.47-8.83,30.27-28.51,2.11,1.36C590.67,163.37,575,170.05,568.32,183.55Z"/><path fill="currentColor" d="M559.07,137.41c-2.57,10.79-5.15,21.57-7.86,32.92l-11.45-3.72c3.48-9.48,6.44-18.54,10.25-27.22.88-2,4.66-2.72,7.11-4Z"/><path fill="currentColor" d="M531,166.19l-12,2.41c-1.2-10.94-2.3-21.12-3.41-31.27,5.87-2.22,8.85-1,9.95,4.6C527.1,149.78,529,157.55,531,166.19Z"/><path fill="currentColor" d="M567,240.69l6.12-9.24c15.19,7,18.54,11.18,17.22,22.44Z"/><path fill="currentColor" d="M572.64,190.22l17.17-5.32c2.79,10.75,2,11.71-13.23,15.94Z"/><path fill="currentColor" d="M578,210.56c14,1.27,14.15,1.47,12.16,11.85H576.82C577.23,218.2,577.57,214.68,578,210.56Z"/><path fill="currentColor" d="M466.41,300.77,446,293.65C450.52,288.06,454.75,289.36,466.41,300.77Z"/></svg>