<svg xmlns="http://www.w3.org/2000/svg" viewBox="0 0 659.22 649.53">
    <path fill="currentColor"
          d="M160.58,207.21H81.43a19.79,19.79,0,0,1-19.78-19.78V108.28A19.79,19.79,0,0,1,81.43,88.49h79.15a19.79,19.79,0,0,1,19.79,19.79v79.15A19.79,19.79,0,0,1,160.58,207.21Zm-59.36-39.57h39.57V128.07H101.22Z"/>
    <path fill="currentColor"
          d="M160.58,385.3H81.43a19.79,19.79,0,0,1-19.78-19.79V286.36a19.79,19.79,0,0,1,19.78-19.79h79.15a19.79,19.79,0,0,1,19.79,19.79v79.15A19.79,19.79,0,0,1,160.58,385.3Zm-59.36-39.58h39.57V306.15H101.22Z"/>
    <path fill="currentColor"
          d="M160.58,563.38H81.43a19.79,19.79,0,0,1-19.78-19.79V464.44a19.79,19.79,0,0,1,19.78-19.78h79.15a19.79,19.79,0,0,1,19.79,19.78v79.15A19.79,19.79,0,0,1,160.58,563.38ZM101.22,523.8h39.57V484.23H101.22Z"/>
    <path fill="currentColor"
          d="M556.32,207.21H477.17a19.78,19.78,0,0,1-19.78-19.78V108.28a19.78,19.78,0,0,1,19.78-19.79h79.15a19.79,19.79,0,0,1,19.79,19.79v79.15A19.79,19.79,0,0,1,556.32,207.21ZM497,167.64h39.57V128.07H497Z"/>
    <path fill="currentColor"
          d="M556.32,385.3H477.17a19.78,19.78,0,0,1-19.78-19.79V286.36a19.78,19.78,0,0,1,19.78-19.79h79.15a19.79,19.79,0,0,1,19.79,19.79v79.15A19.79,19.79,0,0,1,556.32,385.3ZM497,345.72h39.57V306.15H497Z"/>
    <path fill="currentColor"
          d="M556.32,563.38H477.17a19.78,19.78,0,0,1-19.78-19.79V464.44a19.78,19.78,0,0,1,19.78-19.78h79.15a19.79,19.79,0,0,1,19.79,19.78v79.15A19.79,19.79,0,0,1,556.32,563.38ZM497,523.8h39.57V484.23H497Z"/>
    <path fill="currentColor"
          d="M259.52,424.87a19.91,19.91,0,0,1-19.79-19.79V246.79A19.55,19.55,0,0,1,270,230.36l118.72,79.15a19.79,19.79,0,0,1,0,32.85L270,421.51A19.79,19.79,0,0,1,259.52,424.87ZM279.3,283.79v84.29l63.32-42.14Z"/>
</svg>