<svg xmlns="http://www.w3.org/2000/svg" viewBox="0 0 659.22 649.53"><path fill="currentColor" d="M274.49,480.77a74.12,74.12,0,0,1-11.4-2.27c-15-4.78-18.32-9.63-13.29-24.27,18.62-54.23,37.85-108.26,57-162.3,17.6-49.65,35.44-99.22,53.13-148.84,6.94-19.45,41.28-28.62,56.8-15,8.28,7.28,7.76,16,4.3,25.67q-34.35,96-68.31,192.18Q333.3,400.58,313.81,455.2C306.73,475.11,298.83,480.8,274.49,480.77Z"/><path fill="currentColor" d="M147,306.07c15.36,7.21,28.3,13.27,41.23,19.35,16.53,7.78,33,15.77,49.6,23.28,9.22,4.16,13.69,10.94,13.94,20.83.14,5.53.32,11.06.4,16.59.28,19.16-11,26.55-28,18.07Q165.47,375,106.9,345.44c-3-1.52-6-3.5-9.17-4.43C79.34,335.67,74.16,321.27,74,304.67c-.17-15.92,8.27-26.2,23.11-33.23,42.6-20.16,84.62-41.54,126.92-62.32,16.47-8.1,25.09-3.38,28.26,15.1C256,246.08,250,257.73,230,267.12,203.21,279.72,176.4,292.29,147,306.07Z"/><path fill="currentColor" d="M521.48,306.68,434.6,265.79c-17.39-8.19-25.69-37.46-15.07-53.51,4.9-7.4,11.33-9.81,19.74-5.63,47.52,23.63,95.17,47,142.55,70.92,14,7,12.35,21.17,12.5,33.77s-6.42,21.7-17.7,27.25q-58.87,29-117.79,57.84c-6.49,3.19-13,6.26-19.39,9.68-8.53,4.58-14.54,1.71-19.3-5.85-11.31-18-3.84-44.06,15.3-53.1C463,334.14,490.61,321.19,521.48,306.68Z"/></svg>