<svg xmlns="http://www.w3.org/2000/svg" viewBox="0 0 659.22 649.53"><title>BMP </title><path fill="currentColor" d="M469.89,97l18.48,69.29h57.24a43.52,43.52,0,0,1,43.26,43.33V556.3a43.52,43.52,0,0,1-43.26,43.33H199.47a43.54,43.54,0,0,1-43.27-41.75,42.22,42.22,0,0,1-11-19L56.6,208.06A43.2,43.2,0,0,1,87,155.47L417.61,66.78c22.77-5.07,47.21,13,52.28,30.24Zm75.72,98.17H199.47a14.1,14.1,0,0,0-14.42,14.45v218l83.6-83.73a33.7,33.7,0,0,1,48-.67c26.38,21.58,53.9,44.7,76.62,63.64l19.6-19.63a34.58,34.58,0,0,1,24.79-10.39c8.53.08,16.74,3.6,23.44,9.93C495.33,416.47,530.68,448,560,473.92V209.64c-3-8.4-7.17-14.24-14.42-14.45Zm-86.54,29.12a50.56,50.56,0,1,1-50.48,50.55A50.73,50.73,0,0,1,459.07,224.31ZM288.93,364.46l-103.88,104v87.8a14.09,14.09,0,0,0,14.42,14.44H545.61A14.09,14.09,0,0,0,560,556.3v-44c-39.84-34.33-78.25-70.55-118.31-104.5a6.28,6.28,0,0,0-8.56,0L317.78,523.34,297.5,502.81,373,427.2c-25.16-20.86-50.33-42-75.49-62.74-2.59-1.89-5.39-2.31-8.57,0Z"/></svg>