<svg xmlns="http://www.w3.org/2000/svg" viewBox="0 0 659.22 649.53"><path fill="currentColor" d="M332.28,564.39c-50.86,0-101.72-.29-152.58.09-44,.33-85.78-32.66-92.88-80.31a92.08,92.08,0,0,1-1.11-13.56q-.09-152.88,0-305.75A94.46,94.46,0,0,1,180,70.5q152.88-.09,305.75,0c51.22,0,93.77,42.5,93.81,93.68q.11,152.88,0,305.75a94.63,94.63,0,0,1-80,93.32,81.06,81.06,0,0,1-12.34,1.09c-25.92.1-51.85,0-77.77,0ZM538.86,482.3l1.45-.41c.44-4.28,1.25-8.55,1.26-12.82q.09-151.69,0-303.37c0-32-25.37-57.2-57.43-57.23q-151.39-.15-302.78,0c-32.45,0-57.65,25.17-57.69,57.58q-.18,144.85,0,289.72c0,1.38.27,2.76.55,5.49,1.47-3.11,2.31-4.88,3.14-6.66q38.18-82.2,76.36-164.39c10.57-22.74,28.19-35.63,53.47-35.45,25,.18,42.34,13.12,52.71,35.7q19.14,41.73,38.42,83.39c1,2.1,2.08,4.12,3.5,6.92,3.32-4.55,6.18-8.5,9.07-12.41,24.36-33,69.54-33.06,94-.08q27,36.48,53.82,73.1Q523.72,461.85,538.86,482.3Zm-23.1,34.26c-.64-1.11-.89-1.65-1.24-2.12q-44.83-61.65-89.72-123.28c-9-12.32-23.27-12.33-32.28-.12s-17.69,24.8-26.93,36.9a25.32,25.32,0,0,1-10,7.86c-9.68,3.9-19.15-.81-24.12-11.33Q303.25,364.76,275.17,305c-3.62-7.72-9.45-12.39-17.95-12.3-8.22.1-14,4.59-17.42,12.18-3.25,7.2-6.75,14.28-10.11,21.43q-42.09,89.52-84.31,179c-2.41,5.09-1.42,7.58,2.86,10.5a58.58,58.58,0,0,0,33.34,10.59q151.08.21,302.17,0C495.08,526.33,506,523.56,515.76,516.56Z"/><path fill="currentColor" d="M427.59,260.42a57,57,0,1,1,57-57.24C484.58,235.22,459.53,260.39,427.59,260.42Zm19-56.69c.19-10-8.42-19-18.57-19.27-10.3-.28-19.41,8.63-19.41,19a19.44,19.44,0,0,0,18.85,19C437.51,222.54,446.42,213.82,446.61,203.73Z"/></svg>