<svg xmlns="http://www.w3.org/2000/svg" viewBox="0 0 659.22 649.53"><path fill="currentColor" d="M463.32,102.8l-64.79,8.07c-.43,0,.38.12,0,.2-23.75,4.3-41.12,26.56-41.12,50.7V411.12c-11.64-.13-58.62,0-78.7,7.41-48.28,17.94-73.34,65-57.46,109.49,6.72,18.82,19.16,33.06,36.55,41.18a79.19,79.19,0,0,0,33.86,7.23c12.68,0,26.12-2.6,40.1-7.79,42.79-15.9,60.14-55.81,60.83-57.49C398.47,496.29,404,473,404,457V161.76c0-1.61.92-4.27,2.56-4.81L469.7,149a23.06,23.06,0,0,0,19.92-26A23.61,23.61,0,0,0,463.32,102.8Zm-115,390.87c-.1.23-9.82,22.74-32.86,31.3-15.29,5.68-28.88,6.39-38.3,2-6-2.8-10.15-7.58-12.65-14.61-6-16.74.61-39.56,29.19-50.19,7.65-2.83,34.85-4.55,56.13-4.55h3.49c.67,0,1.33.06,2,.07C355.13,467.83,351.81,484.8,348.27,493.67Z"/></svg>