<svg xmlns="http://www.w3.org/2000/svg" viewBox="0 0 659.22 649.53"><defs><style>.cls-1{fill:#231f20;}</style></defs><title>XLS </title><rect fill="currentColor" x="71.09" y="167.57" width="150.73" height="49.79"/><rect fill="currentColor" x="244.36" y="167.57" width="150.73" height="49.79"/><rect fill="currentColor" x="417.52" y="167.57" width="150.73" height="49.79"/><rect fill="currentColor" x="71.09" y="238.59" width="150.73" height="49.79"/><rect fill="currentColor" x="244.36" y="238.59" width="150.73" height="49.79"/><rect fill="currentColor" x="417.52" y="238.59" width="150.73" height="49.79"/><rect fill="currentColor" x="71.09" y="307.06" width="150.73" height="49.79"/><rect fill="currentColor" x="244.36" y="307.06" width="150.73" height="49.79"/><rect fill="currentColor" x="417.52" y="307.06" width="150.73" height="49.79"/><rect fill="currentColor" x="71.09" y="378.07" width="150.73" height="49.79"/><rect fill="currentColor" x="244.36" y="378.07" width="150.73" height="49.79"/><rect fill="currentColor" x="417.52" y="378.07" width="150.73" height="49.79"/><rect fill="currentColor" x="71.09" y="446.55" width="150.73" height="49.79"/><rect fill="currentColor" x="244.36" y="446.55" width="150.73" height="49.79"/><rect fill="currentColor" x="417.52" y="446.55" width="150.73" height="49.79"/></svg>