<svg xmlns="http://www.w3.org/2000/svg" viewBox="0 0 659.22 649.53"><path fill="currentColor" d="M438.61,195.45a310.24,310.24,0,0,0-72.16-10.94c-39.67-1.35-79.35-2.89-118.35,7.12-35.06,9-68.68,21.28-97,44.67-8.2,6.77-15.12,15.06-22.63,22.66l1.32,2c10.39.48,20.79,1.28,31.19,1.37,44.28.4,88.58.46,132.87.92,15.46.16,31,.7,46.38,1.83a18.81,18.81,0,0,1,17.62,20.5,45.24,45.24,0,0,1-6,17.58c-20.11,35.15-40.7,70-60.9,105.14a24.74,24.74,0,0,0-3.15,11.58c-.28,24.87-.15,49.75-.15,74.62,0,8.93,0,9.77,9.19,10.05,18.49.55,37.1,1.25,55.5-.2,25.34-2,50.86-4.31,75.69-9.42,31.05-6.4,60.4-18.26,86-37.75,26.87-20.45,39.75-47.13,35.48-81.7a9.9,9.9,0,0,0-1.74.63c-1.29.81-2.57,1.63-3.82,2.51-61.65,43.83-132.11,57.13-205.75,59.16a30.33,30.33,0,0,1-13.15-3.1c-9-4.23-14.1-14.47-13-24.37,1-8.93,6.89-14.93,17.77-17.35a103.77,103.77,0,0,1,15.49-2.22c31.78-2.18,63.22-6.34,94.06-14.63,41.63-11.2,78.25-30.42,105.16-65.27,5-6.43,11.43-9.16,19.32-8.9,4.78.16,9.59.35,14.34.91,9.57,1.12,14,5,16.31,14.26a50.39,50.39,0,0,1,1.68,11.61c.14,25.28.35,50.57-.05,75.84-.34,22.28-8,42.21-21.69,59.72-20.58,26.24-47.78,43.68-77.68,57.15C455.24,540.09,411.62,550,366.06,552c-39.78,1.71-79.36,1.23-118.48-6.93-45-9.38-87.41-25.06-124.11-53.62C94,468.45,74,439.92,74,400.82c-.06-43.63.17-87.27.37-130.91a23.83,23.83,0,0,1,1.47-8.25c13.56-35.18,37.73-61.23,69.7-80.47,45.17-27.2,94.9-39.65,146.8-44.33,48.31-4.36,96.23-.34,143.69,9.3,0,0,90.82,11.21,119.25,50.59s-20.78,35-20.78,35S503.52,206.19,438.61,195.45ZM121.38,375.37c-4.6,34.65,7.24,61.43,34.74,81.39,21.9,15.88,46.65,25.85,72,34.61,3.74,1.3,7.73,1.86,12.18,2.9,0-21.4.11-41.86-.21-62.32,0-1.61-2.74-4.07-4.64-4.64-30-8.9-59.86-18.27-86.91-34.59C139.44,387.25,130.65,381.31,121.38,375.37ZM292.7,311.66H129.33l-.87,1.91c3.95,4.52,7.57,9.38,11.9,13.51,29.59,28.22,65.66,43.38,105,52.1,6.18,1.36,8.76-.31,11.6-5.52,9-16.63,18.7-33,28.15-49.36C287.58,320,290.18,315.86,292.7,311.66Z"/></svg>