<svg xmlns="http://www.w3.org/2000/svg" viewBox="0 0 659.22 649.53">
    <path fill="currentColor"
          d="M470.13,333.92,276.82,205a16.11,16.11,0,0,0-25,13.41V476.19a16.11,16.11,0,0,0,25,13.41L470.13,360.72a16.11,16.11,0,0,0,0-26.8ZM284,446.08V248.56L432.2,347.32Z"/>
    <path fill="currentColor"
          d="M333.65,105.68C200.2,105.68,92,213.87,92,347.32S200.2,589,333.65,589,575.29,480.77,575.29,347.32,467,105.83,333.65,105.68Zm0,451.06C218,556.74,124.23,463,124.23,347.32S218,137.9,333.65,137.9s209.42,93.76,209.42,209.42S449.26,556.61,333.65,556.74Z"/>
</svg>