<svg xmlns="http://www.w3.org/2000/svg" viewBox="0 0 659.22 649.53">
    <path fill="currentColor"
          d="M466.24,76.79,237.12,103.63c-.47.06-2.36.12-2.81.21-22.68,4.1-41.89,25.38-41.89,48.44v249.1l2.77-6.94H192c-23.66,0-55.16-.27-71,5.6C74.78,417.2,51.39,461.48,66.58,504c10.34,29,35.68,45.87,67.81,45.87,12.23,0,25.16-2.69,38.42-7.61,40.95-15.21,54.95-53.5,55.59-55.1,5.68-14.24,8.33-36.6,8.33-51.92V245.34c0-1.62,3.8-4.21,5.44-4.72l227.21-28.41v144l-.3-6h-3.21c-23.66,0-55.16-.72-71,5.15-46.19,17.16-69.58,61.2-54.4,103.76,10.33,29,35.68,45.77,67.81,45.77,12.23,0,25.16-2.75,38.42-7.66,40.94-15.21,56.49-53.52,57.13-55.14,5.69-14.23,9.87-36.63,9.87-51.95V117.3C513.69,91.93,492.36,72.52,466.24,76.79ZM188.88,470.67c-.08.22-9.51,21.73-31.5,29.91-8.31,3.08-16,4.64-23,4.64-13.32,0-22.09-5.66-26.07-16.84-5.75-16.1.59-38.08,28.08-48.3,5.81-2.15,26.77-4.34,55.59-4.34l1.63,0c.68,0,1.38.06,2.07.07C195.58,445.47,192.39,461.91,188.88,470.67Zm274-45.4c-.09.22-9.44,21.86-31.59,30.09-8.31,3.08-16,4.64-23,4.64-13.32,0-22.08-5.66-26.07-16.84-5.75-16.11.59-38.09,28.09-48.3,5.8-2.15,26.76-4.34,55.58-4.34l1.62,0c.7,0,1.39.07,2.08.08C469.47,400.26,466.28,416.7,462.85,425.27Zm6.53-257.7c0,.08-3.8.23-5,.44L236.73,196.47v-44.2c0-1.62,3.44-4.2,5.09-4.76L469.38,121Z"/>
</svg>