<svg xmlns="http://www.w3.org/2000/svg" viewBox="0 0 659.22 649.53"><title>AIF </title><path fill="currentColor" d="M447.1,440.61a53.08,53.08,0,0,1,33.62,11.55l-.35-122.62a2.26,2.26,0,0,1,2.24-2.29,2.38,2.38,0,0,1,.91.18,87.38,87.38,0,0,1,52.32,62.72,1.41,1.41,0,0,1-.71,1.87,1.43,1.43,0,0,1-1.88-.71,39.54,39.54,0,0,0-37.36-19.42V479.58c.1,1.11.2,2.23.2,3.36a46.06,46.06,0,0,1-49,42.29,46,46,0,0,1-49-42.29A46,46,0,0,1,447.1,440.61Z"/><path fill="currentColor" d="M224,337a97.68,97.68,0,0,1,61.73,21.29l-.59-225.64a4.21,4.21,0,0,1,5.79-3.89,160.82,160.82,0,0,1,96.31,115.46,2.66,2.66,0,0,1-4.78,2.14,72.84,72.84,0,0,0-68.8-35.76V408.67c.18,2,.37,4.09.37,6.17,0,42.91-40.43,77.84-90.11,77.84s-90.11-34.93-90.11-77.84S174.26,337,224,337Z"/></svg>