<svg version="1.1" viewBox="0 0 659.22 649.53" xmlns="http://www.w3.org/2000/svg">
 <defs>
  <style>.cls-1{fill:#fff;}</style>
 </defs>

 <path fill="currentColor" d="m87.55 523.06v-397.38c8.88-16.35 20.43-30 37.84-37.85h397.38c28.75 14 38.67 36.7 38.31 68.6q-2 172.62 0 345.26a59.22 59.22 0 0 1-60.08 59.76q-171.81-2.38-343.68-0.06c-32.32 0.39-56.12-8.05-69.77-38.33zm19.76-198.94c0 58.31-0.09 116.62 0 174.93 0.07 30.46 11.41 42 41.81 42q174.93 0.21 349.86 0c30.17 0 41.77-11.85 41.8-42.21q0.13-174.14 0-348.28c0-31.36-11.56-42.93-42.77-42.95q-174.15-0.17-348.28 0c-31.11 0-42.38 11.65-42.42 43.13q-0.1 86.7 0 173.38z"/>
 <path fill="currentColor" d="m336.56 428.65c-24.18 4.69-24.55 4.38-30.88-16.3-4.43-14.47-5.14-34.71-15-41.63-10.74-7.52-30.24-1.94-45.81-3.31-11.7-1-17 3.26-19 14.62-1.77 9.71-5.55 19.06-8.34 28.59-6.35 21.38-6.33 21.38-30.21 18.68 0.85-4.4 1.32-8.82 2.57-13 17.61-59.13 35.55-118.16 52.79-177.39 3-10.43 7.87-13.84 18.65-13.52s16.51 2 19.91 14c17 59.85 35.25 119.33 53 179 1.01 3.29 1.56 6.8 2.32 10.26zm-100.65-83.2h51c-8.53-29.77-16.63-58.05-25.83-90.14-9.08 32.45-17.08 61.19-25.17 90.14z"/>
 <path fill="currentColor" d="m362.33 283.9h23.93v69.16c0 8.92-0.19 17.87 0.45 26.75 1.45 20.28 10.62 30.5 26.69 30.53 16.72 0 29.93-12.42 30.69-31.33 1-25.68 0.56-51.43 0.71-77.15v-17.67h26v145.54h-22.17c-0.73-5.2-1.44-10.22-2.29-16.2-7.72 5.23-14.68 11.35-22.73 15.11-27.88 13-57.88-2-60.56-33.64-3.05-36.31-0.72-73.08-0.72-111.1z"/>
</svg>
