<svg xmlns="http://www.w3.org/2000/svg" viewBox="0 0 659.22 649.53"><title>RA </title><path fill="currentColor" d="M181.72,313.24c0-65.92-.31-131.84.13-197.76.24-35.35,8.68-43.72,43.13-43.88,64.85-.3,129.72.55,194.56-.41,30.18-.46,41.88,12.77,41.74,42.23q-.88,199.35-.08,398.71c.11,28.1-11.33,41.24-39.7,41.06-67-.44-134-.28-200.94-.08-26.39.08-38.94-12.2-38.78-38.92.4-67,.13-134,.13-201Zm34-173.78V328.22h212.4V139.46Zm172.1,300.45c-.85-36.73-31.39-64.81-69-63.45-35.91,1.31-64,30.5-63.45,65.94.56,36.44,31.91,67.33,67.43,66.44C358.89,507.93,388.68,476.34,387.83,439.91Zm-113-337.77q.06,4.13.1,8.26h93.58l-.09-8.26Z"/><path fill="currentColor" d="M375.09,237.48,283.3,289.77V185.27Z"/><path fill="currentColor" d="M363.91,443.16c-.64,23.8-19.62,41.76-43.45,41.11s-41.74-19.56-41.31-43.39c.44-24.19,18.43-40.88,43.57-40.4C347.12,400.94,364.57,419,363.91,443.16Z"/></svg>