<svg xmlns="http://www.w3.org/2000/svg" width="200" height="213" viewBox="0 0 200 213">
  <g>
    <path d="M1223.373,833.517q-33.494,0-66.987.011c-9.646.021-19.316-.167-28.94.353-17.367.935-31.665,13.78-33.384,29.441-1.132,10.351-6.174,15.672-14.113,14.892-8.388-.82-12.243-7.14-10.755-17.624,4.109-28.953,29.633-49.26,62.983-49.571,28.259-.27,56.507-.062,84.769-.062h6.738l1.005-1.591c-4.374-3.7-8.886-7.284-13.086-11.141-6.958-6.37-7.49-12.927-1.731-17.833,5.458-4.656,12.611-4.052,19.339,1.892q17.4,15.354,34.608,30.9c6.172,5.55,6.151,12.242-.057,17.833q-17.243,15.51-34.6,30.927c-6.844,6.058-13.721,6.661-19.283,1.911-5.769-4.936-5.215-11.441,1.755-17.812,4.084-3.741,8.411-7.264,12.636-10.89Z" transform="translate(-1068.433 -777.308)" fill="currentColor"/>
    <path d="M1113.717,832.644c31.96,0,63.947.582,95.9-.228,18.149-.458,31.639-13.614,33.634-29.93a41.3,41.3,0,0,1,.959-5c1.673-6.6,6.68-9.976,13.64-9.259,6.357.655,10.845,5.134,10.638,11.483-.646,20.368-10.674,36.081-29.667,47.128-11.272,6.557-23.931,8.542-37.051,8.594-27.082.094-54.175.031-81.268.031h-6.773l-.82,1.415c4.178,3.6,8.435,7.107,12.5,10.8,7.016,6.37,7.822,12.844,2.4,17.864-5.4,5-12.876,4.385-19.823-1.778q-17.359-15.417-34.582-30.958c-5.954-5.363-6.116-12.076-.266-17.376q17.431-15.806,35.147-31.343c6.5-5.706,14.206-6.225,19.4-1.6,5.353,4.749,4.766,11.337-1.6,17.438-2.1,2.017-4.235,4-6.508,5.841s-4.731,3.492-7.108,5.227Z" transform="translate(-1068.838 -675.885)" fill="currentColor"/>
  </g>
</svg>
