<svg xmlns="http://www.w3.org/2000/svg" viewBox="0 0 659.22 649.53">
    <rect fill="currentColor" x="50.23" y="142.65" width="359.87" height="47.66"/>
    <polygon fill="currentColor"
             points="590.03 251.34 590.03 190.3 410.1 190.3 410.1 251.34 470.98 251.34 470.98 267.04 470.98 284.91 470.98 305.24 470.98 323.17 470.98 343.96 470.98 361.86 470.98 386.04 410.1 386.04 410.1 444.33 50.23 444.33 50.23 491.96 410.1 491.96 410.1 447.03 590.03 447.03 590.03 386.04 489.48 386.04 489.48 361.86 529.19 361.86 529.19 343.96 489.48 343.96 489.48 323.17 529.19 323.17 529.19 305.24 489.48 305.24 489.48 284.91 529.19 284.91 529.19 267.04 489.48 267.04 489.48 251.34 590.03 251.34"/>
    <rect fill="currentColor" x="96.53" y="214.82" width="267.29" height="207.76"/>
</svg>