<svg xmlns="http://www.w3.org/2000/svg" viewBox="0 0 659.22 649.53">
    <path fill="currentColor"
          d="M258.39,554.89H203.82c-36.91,0-67.07-22-67.07-76.48V388.33c0-32.51-43.18-36.15-56.13-36.15V292.46c12.95,0,56.13-3.65,56.13-36.13v-90.6c0-54.45,28.63-75.94,67.07-75.94h54.57v59.7H232.93c-31.69,0-33.84,19.36-33.84,33.51v84.34c-.45,48.73-30.09,52.36-52,54.49v1c21.85,1.61,51.5,5.28,52,54v84.82c0,14.15,2.15,33.51,33.84,33.51h25.46Z"/>
    <path fill="currentColor"
          d="M426.83,89.79H483c35.34,0,65.51,22,65.51,76.46v90.08c0,32.48,41.61,36.13,56.2,36.13v59.73c-14.59,0-56.2,3.63-56.2,36.15v90.6c0,54.45-28.59,75.95-67,75.95h-54.6v-59.7H452.3c31.73,0,33.8-19.36,33.8-33.51V377.31c.51-48.7,30.13-52.35,52-54.48v-1c-21.88-1.62-51.49-5.29-52-54V183c0-14.14-2.07-33.5-33.8-33.5H426.83Z"/>
</svg>