<svg xmlns="http://www.w3.org/2000/svg" viewBox="0 0 659.22 649.53"><title>RAR </title><path fill="currentColor" d="M187.71,504.88V470.57c-7.71-.67-15.76.53-21.9-2.35-9.53-4.48-17.75-11.73-26.53-17.81,8.54-5.36,16.6-11.92,25.8-15.67,6.34-2.58,14.27-1.26,27.73-2.05L173.2,418.42c4.31-8.36,39.26-19.3-2.46-27.32,10.28-10.91,33.29-20.16,3.33-29.84,17.75-20.43,17.75-20.43-2-33.19,18.52-9.05,27.12-19.37-2.32-29.22,24-10,23.83-19.42,2.1-29.43,12.22-9,30-18.52,2-28,18.72-19.81,18.72-19.81-.13-31.89,8.66-9.11,30.85-18.49.88-27.07l19-31.17c-14.57,0-22.72,2-29.15-.51-7.57-2.93-13.63-9.72-20.35-14.84,6.06-6,11.1-14.53,18.38-17.43,14-5.57,29.33-11,44-10.83,15.67.12,31.24,9.66,46.94,10,66,1.22,132.06.52,198.09.52h32.14v33h-248c-.52,1.75-1,3.51-1.55,5.26l15.13,10.23c-13.28,8.95-27.54,19.42,1.69,29.75-15.09,8.95-28.86,18.39,0,29-13.75,9.93-32.55,20.64-.35,29.65-10.33,10.74-33.4,20.09.23,30-13.42,10.08-31.86,20.53,1.72,30.29-18.9,9.7-29.25,19.28-1.44,29.67-15.79,10.09-31.53,20.65,0,29.75-14,10.73-31.53,20.14-4.4,28.72l-17.94,31.08H483.45V468.1H235.34c-.72,10.12-1.29,18-2.22,31.11,9.51-2.75,16.51-4,22.85-6.84,6-2.67,11.39-6.92,17-10.48,3.46,7,8.77,13.79,10,21.19,1.61,10.08,2.69,21.78-1.1,30.6-2.2,5.12-17.47,10.64-21.56,7.94-23.7-15.63-75.46-16.46-98,.72-1.5,1.14-3.35,3.46-4.47,3.15-5.75-1.58-16.15-3.77-16.18-5.88-.26-18.23,1.35-36.48,2.41-54.73,6.57.73,13.79,0,19.56,2.57C170.56,490.53,176.29,496.39,187.71,504.88Z"/><path fill="currentColor" d="M293.15,417.56V167.27H531V417.56Zm224.41-11.74V180.06H307.74V405.82Z"/><path fill="currentColor" d="M338.34,284.57v-73H485.72v73Zm13.13-14.79c4.34,1.29,7,2.75,9.68,2.79q38.18.46,76.34.5c42.33,0,45.81-5.05,32.91-48.59H351.47Z"/><path fill="currentColor" d="M338.05,373.51V301H486.3v72.51ZM473.1,360.74V312.8H351.87v47.94Z"/></svg>