<svg xmlns="http://www.w3.org/2000/svg" viewBox="0 0 512 512">
	<path fill="currentColor" d="M407 0H105C47 0 0 47 0 105v302c0 58 47 105 105 105h302c58 0 105-47 105-105V105C512 47 465 0 407 0zm75 407c0 41-34 75-75 75H105c-41 0-75-34-75-75V105c0-41 34-75 75-75h302c41 0 75 34 75 75v302z"/>
	<path fill="currentColor" d="M396 266l-7-74c-2-23-21-41-45-41H191v-25c0-3 2-5 5-5h25v10h60V81h-60v10h-25c-19 0-35 16-35 35v25c-20 4-36 20-38 41l-7 74H90v30h332v-30h-26zm-249 0l6-71c0-8 7-14 15-14h176c8 0 15 6 15 14l6 71H147zM271 401v-75h-30v75h-55v30h140v-30z"/>
</svg>