<svg xmlns="http://www.w3.org/2000/svg" width="300" height="219" viewBox="0 0 300 219">
  <path d="M1051.748,710.907q68.2,0,136.39,0c9.5.013,13.024,3.462,13.024,12.8q.021,96.738,0,193.475c0,8.981-3.7,12.7-12.677,12.7q-137.25.039-274.5,0c-8.922,0-12.78-3.743-12.793-12.647q-.038-96.738,0-193.475c0-9.249,3.718-12.839,13.023-12.852Q982.975,710.888,1051.748,710.907Zm-105.5,39.579h10.166c15.293,0,15.165,0,14.973-15.42-.052-3.667-1.1-4.906-4.819-4.816-9.974.2-19.947.064-29.932.064-16.217,0-16.139,0-15.242,16.3.153,2.9,1.039,3.973,3.961,3.909C932.315,750.384,939.288,750.474,946.248,750.486Zm70.273,0h10.165c15.19,0,15.063,0,14.755-15.089-.09-3.985-1.514-5.211-5.346-5.135-9.78.179-19.562.051-29.356.051-15.69,0-15.573,0-15.164,15.828.1,3.54,1.294,4.5,4.627,4.4C1002.971,750.346,1009.753,750.474,1016.521,750.486Zm139.339,0h10.166c15.358,0,15.229,0,14.96-15.5-.065-3.781-1.346-4.8-4.948-4.739-9.974.192-19.959.064-29.945.064-15.537,0-15.447,0-15.076,15.676.077,3.36.975,4.675,4.5,4.561C1142.285,750.32,1149.079,750.474,1155.86,750.486Zm-70.169,0c6.41,0,12.845-.32,19.229.1,4.922.32,6.332-1.571,5.806-6.094a34.483,34.483,0,0,1,0-7.882c.59-4.8-.909-6.669-6.127-6.414-9.217.435-18.474.116-27.714.116-15.485,0-15.372,0-15.191,15.343.052,3.6.949,5.046,4.756,4.893C1072.86,750.295,1079.269,750.486,1085.691,750.486Zm-69.067,119.606h10.741c14.255,0,14.076,0,14.1-14.142,0-4.4-1.551-5.366-5.6-5.264-9.987.242-19.984.076-29.971.076-14.562,0-14.395,0-14.331,14.475.013,4.14,1.525,5.059,5.281,4.919C1003.433,869.914,1010.035,870.092,1016.624,870.092Zm139.212,0h11.281c14.062,0,13.932,0,13.87-14.258-.026-3.859-1.065-5.25-5.09-5.148-10.14.242-20.292.076-30.444.076-15.318,0-15.242,0-14.42,15.433.153,2.862.987,4,3.935,3.935C1141.928,869.99,1148.874,870.08,1155.835,870.092ZM946.467,909.684H957.2c14.473,0,14.357,0,14.178-14.539-.039-3.615-1-4.931-4.77-4.855-10.344.23-20.69.076-31.047.076-14.5,0-14.382,0-14.177,14.527.038,3.591.988,5.008,4.769,4.867C932.918,909.505,939.7,909.684,946.467,909.684Zm70.182-19.318h-10.742c-14.882,0-14.767,0-14.331,15,.1,3.565,1.41,4.421,4.692,4.37,10.369-.142,20.727-.052,31.1-.052,14.243,0,14.051,0,14.1-14.169.013-4.433-1.578-5.4-5.6-5.225C1029.468,890.584,1023.046,890.367,1016.649,890.367ZM1155.3,909.684h11.28c14.883,0,14.768,0,14.4-14.871-.09-3.424-1.1-4.561-4.551-4.51-10.333.179-20.665.063-31.01.063-15.343,0-15.266,0-14.381,15.421.166,2.874,1.05,3.986,3.973,3.934C1141.773,909.594,1148.541,909.684,1155.3,909.684ZM946.134,870.092h10.728c14.92,0,14.78,0,14.524-14.742-.065-3.859-1.475-4.715-5-4.651-10.152.178-20.318.063-30.484.063-15.343,0-15.229,0-14.536,15.357.154,3.347,1.461,4.075,4.448,4.011C932.584,869.99,939.365,870.092,946.134,870.092Zm210.328-59.79h-11.28c-14.5,0-14.331,0-14.19,14.513.052,4.178,1.7,4.944,5.37,4.881,9.961-.179,19.922-.064,29.882-.064,15.382,0,15.292,0,14.715-15.14-.116-3.091-.974-4.33-4.205-4.241C1170,810.43,1163.219,810.3,1156.463,810.3Zm-139.942,0h-10.742c-14.524,0-14.408,0-14.191,14.539.052,3.616,1.04,4.944,4.808,4.867,10.166-.217,20.344-.076,30.522-.076,15.447,0,15.37.012,14.5-15.445-.155-2.888-1.038-3.987-3.974-3.922C1030.468,810.391,1023.495,810.3,1016.521,810.3Zm-70.311,19.33h10.718c14.882,0,14.78,0,14.447-14.859-.077-3.385-1-4.6-4.5-4.535-10.345.179-20.69.064-31.048.064-14.921,0-14.819,0-14.447,14.807.09,3.348.974,4.7,4.5,4.587C932.648,829.478,939.43,829.632,946.21,829.632Zm210.2-58.858h-10.742c-15.5,0-15.421,0-14.638,15.267.153,2.81.884,4.036,3.9,4.011,13.96-.1,27.933.37,41.866-.192,8.166-.331,3.142-7.218,3.8-10.936.46-2.593,3.2-8.189-3.807-8.151C1169.988,770.812,1163.205,770.787,1156.411,770.774Zm-140.3,19.24H1027.4c14.216,0,14.087,0,14.037-14.168-.015-3.859-1.052-5.251-5.076-5.149-10.166.256-20.331.078-30.5.078-14.575,0-14.459,0-14.281,14.449.039,3.578.949,5.021,4.757,4.867C1002.92,789.822,1009.522,790.014,1016.111,790.014Zm-69.658,0H957.17c14.5,0,14.369,0,14.2-14.475-.039-3.6-.988-4.919-4.757-4.829-10.344.216-20.688.063-31.021.063-14.524,0-14.409,0-14.229,14.475.051,3.6,1.013,4.983,4.781,4.841C932.9,789.836,939.686,790.014,946.453,790.014Zm139.275,119.67h10.756c14.562,0,14.446,0,14.267-14.527-.039-3.615-1-4.944-4.782-4.867-9.985.23-19.984.076-29.983.076-14.613,0-14.5,0-14.279,14.514.051,3.6,1.011,5.021,4.793,4.88C1072.91,909.505,1079.32,909.684,1085.729,909.684Zm.449-39.592h10.178c14.947,0,14.832,0,14.4-14.934-.09-3.513-1.3-4.5-4.653-4.447-9.987.154-19.986.052-29.984.052-14.959,0-14.832,0-14.421,14.986.1,3.565,1.358,4.5,4.679,4.4C1072.962,869.952,1079.577,870.092,1086.178,870.092Zm-.487-40.46h10.756c14.588,0,14.42,0,14.331-14.5-.026-4.191-1.616-4.982-5.32-4.906-9.806.2-19.613.077-29.432.077-14.972,0-14.844-.012-14.331,15.024.127,3.6,1.526,4.446,4.769,4.357C1072.86,829.517,1079.282,829.632,1085.691,829.632Zm.269-39.618H1096.7c14.228,0,14.023,0,14.087-14.13.013-4.5-1.653-5.276-5.627-5.188-9.793.244-19.588.078-29.394.078-14.255,0-14.125,0-14.074,14.129.026,3.82.975,5.379,5.051,5.187C1073.142,789.8,1079.55,790.014,1085.96,790.014Z" transform="translate(-901.172 -710.902)" fill="currentColor"/>
</svg>
