<svg xmlns="http://www.w3.org/2000/svg" viewBox="0 0 659.22 649.53"><defs><style>.cls-1{fill:#231f20;}</style></defs><path fill="currentColor" d="M236.66,120.26c20.26,0,40.57.74,60.79-.23,15.8-.77,23.84,4.4,23.67,21.12-.36,34.62-.21,69.25-.07,103.87.06,14.89-7.1,21.25-21.86,21.14-41.37-.3-82.75-.2-124.13-.06-15,.06-20.7-6.84-20.4-21.87q1.07-51.91,0-103.86c-.3-15.59,6.1-21,21.18-20.32C196.09,120.9,216.39,120.26,236.66,120.26Z"/><path fill="currentColor" d="M320.34,513.88c-50.66,0-101.32.2-152-.18-9.13-.07-23.42,3.85-22.43-12.13.81-13,13.54-10,22.27-10q152-.24,304,0c9.3,0,23.35-3.53,22.44,12.21-.77,13.19-13.71,9.88-22.28,9.94C421.66,514,371,513.88,320.34,513.88Z"/><path fill="currentColor" d="M320.29,305.94c51.44,0,102.89-.15,154.33.15,7.78.05,19.3-2.56,20.08,9.47.92,14.07-11.2,12.07-20.1,12.08q-154.34.18-308.66,0c-8.85,0-21,2.09-20.08-12.08.82-12.06,12.35-9.4,20.1-9.44C217.4,305.78,268.85,305.94,320.29,305.94Z"/><path fill="currentColor" d="M318.83,389.13c-50.74,0-101.48.16-152.22-.15-8.41-.05-21.18,3.85-20.69-11,.42-12.8,12.1-9.31,19.73-9.33q154.77-.35,309.54,0c7.68,0,19.43-3.19,19.5,9.59.08,14.45-12.61,10.73-21.09,10.78C422,389.28,370.42,389.13,318.83,389.13Z"/><path fill="currentColor" d="M318.92,450.62c-50.72,0-101.45.24-152.17-.25-7.92-.08-21.29,5-20.72-10.46.45-12.38,11.72-9.69,19.67-9.7q154.73-.19,309.44,0c8,0,19.34-2.32,19.53,9.94.25,15.13-13,10.16-21,10.23C422.07,450.85,370.5,450.62,318.92,450.62Z"/><path fill="currentColor" d="M426.41,243.34c14.29,0,28.58-.2,42.86.09,7.88.16,16.12,1.65,15.57,12-.45,8.41-7.63,10.43-14.7,10.48-31.09.19-62.19.15-93.28.09-7.48,0-14.34-3.2-14.41-10.94-.08-9.48,7.78-11.73,16.06-11.72Z"/><path fill="currentColor" d="M421.82,202.55c-15.22,0-30.43.1-45.65-.05-7.11-.07-14.22-1.14-13.56-10.68.48-7,5.34-10.17,12.16-10.16,33,0,65.92,0,98.88.24,6.64,0,11.33,3.76,11.21,11-.13,7.95-6.17,9.35-12.34,9.42-16.9.21-33.8.07-50.7.07Z"/><path fill="currentColor" d="M422.14,140.57c-15.16,0-30.32.1-45.49,0-7.08,0-14.09-.87-13.84-10.42.2-7.51,5.46-9.77,12-9.78,32.85,0,65.7-.06,98.55.08,6.57,0,11.73,2.75,11.45,10.32s-5.69,9.68-12.15,9.72C455.83,140.6,439,140.53,422.14,140.57Z"/></svg>