<svg xmlns="http://www.w3.org/2000/svg" viewBox="0 0 659.22 649.53"><defs><style>.cls-1{fill:#231f20;}</style></defs><title>XLSX </title><rect fill="currentColor" x="82.88" y="160.17" width="150.73" height="49.79"/><rect fill="currentColor" x="256.15" y="160.17" width="150.73" height="49.79"/><rect fill="currentColor" x="429.31" y="160.17" width="150.73" height="49.79"/><rect fill="currentColor" x="82.88" y="231.18" width="150.73" height="49.79"/><rect fill="currentColor" x="256.15" y="231.18" width="150.73" height="49.79"/><rect fill="currentColor" x="429.31" y="231.18" width="150.73" height="49.79"/><rect fill="currentColor" x="82.88" y="299.65" width="150.73" height="49.79"/><rect fill="currentColor" x="256.15" y="299.65" width="150.73" height="49.79"/><rect fill="currentColor" x="429.31" y="299.65" width="150.73" height="49.79"/><rect fill="currentColor" x="82.88" y="370.67" width="150.73" height="49.79"/><rect fill="currentColor" x="256.15" y="370.67" width="150.73" height="49.79"/><rect fill="currentColor" x="429.31" y="370.67" width="150.73" height="49.79"/><rect fill="currentColor" x="82.88" y="439.14" width="150.73" height="49.79"/><rect fill="currentColor" x="256.15" y="439.14" width="150.73" height="49.79"/><rect fill="currentColor" x="429.31" y="439.14" width="150.73" height="49.79"/></svg>