<svg xmlns="http://www.w3.org/2000/svg" viewBox="0 0 659.22 649.53"><path fill="currentColor" d="M332.8,361.11c-50.66,0-101.32.2-152-.19-9.13-.07-23.42,3.86-22.43-12.12.81-13,13.54-10,22.27-10q152-.25,304,0c9.31,0,23.36-3.53,22.44,12.22-.76,13.19-13.7,9.88-22.28,9.93C434.13,361.27,383.46,361.11,332.8,361.11Z"/><path fill="currentColor" d="M332.8,434.46c-50.66,0-101.32.2-152-.19-9.13-.07-23.42,3.86-22.43-12.12.81-13,13.54-10,22.27-10q152-.25,304,0c9.31,0,23.36-3.53,22.44,12.22-.76,13.19-13.7,9.88-22.28,9.93C434.13,434.62,383.46,434.46,332.8,434.46Z"/><path fill="currentColor" d="M332.8,510.86c-50.66,0-101.32.21-152-.18-9.13-.07-23.42,3.86-22.43-12.12.81-13,13.54-10,22.27-10q152-.25,304,0c9.31,0,23.36-3.53,22.44,12.22-.76,13.19-13.7,9.87-22.28,9.93C434.13,511,383.46,510.86,332.8,510.86Z"/><path fill="currentColor" d="M332.75,153.17c51.45,0,102.89-.15,154.33.15,7.79.05,19.3-2.56,20.09,9.47.91,14.06-11.21,12.07-20.11,12.08q-154.32.18-308.66,0c-8.85,0-21,2.08-20.08-12.08.82-12.06,12.35-9.4,20.11-9.45C229.87,153,281.31,153.17,332.75,153.17Z"/><path fill="currentColor" d="M331.3,236.36c-50.74,0-101.49.15-152.23-.15-8.4-.05-21.18,3.85-20.68-11,.42-12.81,12.1-9.32,19.73-9.33q154.76-.35,309.53,0c7.68,0,19.43-3.19,19.5,9.58.08,14.46-12.6,10.74-21.08,10.79C434.48,236.5,382.89,236.36,331.3,236.36Z"/><path fill="currentColor" d="M331.39,297.84c-50.73,0-101.46.24-152.18-.25-7.91-.07-21.29,5-20.72-10.45.45-12.38,11.73-9.69,19.68-9.7q154.71-.19,309.43,0c8,0,19.34-2.32,19.54,9.94.24,15.12-13.05,10.16-21,10.23C434.54,298.07,383,297.84,331.39,297.84Z"/></svg>