<svg xmlns="http://www.w3.org/2000/svg" viewBox="0 0 659.22 649.53"><title>RA </title><path fill="currentColor" d="M289.12,354.56c10.42-41.5,19.55-77.84,28.67-114.19,1.15-4.57,1-10.11,3.64-13.53,4.7-6.1,11.05-10.93,16.71-16.29,4.34,5.88,11.67,11.35,12.54,17.7,6.2,45.42,11.06,91,16.4,136.57,1,8.48,2.27,16.92,7.13,25.41,4.24-21.73,7.4-43.75,13.23-65.05,2.34-8.54,10.53-15.49,16.06-23.17,6,6.7,14.17,12.46,17.71,20.29,7.74,17.11,13.15,35.28,20.06,54.54,22.4-34.55,56.54-16.67,85.89-20,2.94-.33,9.32,6.62,9.47,10.39.21,5.08-3.4,10.83-6.71,15.3-1.45,1.95-6.34,2.28-9.47,1.88-32.87-4.2-57.32,5.24-69.09,39.12-1.72,5-10.8,10-16.5,10-3.84,0-9-8.14-11.32-13.61-5.38-12.88-9.37-26.33-16-45.55-7.53,34.2-13.83,62.77-20.1,91.34-1.45,6.58-1.42,14-4.59,19.57-3.78,6.66-10.28,11.78-15.6,17.56-5-6-13.56-11.53-14.55-18.16-5.89-39.31-10.16-78.86-14.71-118.36-1.77-15.39-2.86-30.86-8.52-47.36-3.38,11.43-7.18,22.76-10,34.32-5.82,23.52-10.39,47.39-17.14,70.63-1.78,6.11-9.61,10.47-14.67,15.63-4.69-4.71-11.87-8.64-13.61-14.27-5.94-19.13-9.95-38.86-15-59.56-10.81,9.5-5.51,36.85-26,31.23-12.38-3.38-21.07-20.29-32.17-31.91-22.78,27.18-55.11,15.27-84.9,15.12-4.07,0-11.33-8.89-11.22-13.51s6.73-10.83,12-13.4c5-2.47,12-2.26,17.91-1.38,23.28,3.45,42.5-1.59,59.55-19.55C212,313.52,219.72,335,230.46,346c6-14.61,10.71-28.44,17.32-41.31,2.6-5.06,9.57-11.26,14.19-11s11,7.14,13,12.48C280.17,320,283.42,334.48,289.12,354.56Z"/></svg>