<svg xmlns="http://www.w3.org/2000/svg" viewBox="0 0 659.22 649.53">
    <path fill="currentColor"
          d="M555.06,107.07H109a55.76,55.76,0,0,0-55.76,55.76V494.57A55.75,55.75,0,0,0,109,550.33h446a55.76,55.76,0,0,0,55.76-55.76V162.83a55.77,55.77,0,0,0-55.76-55.76Zm0,398.66H109a11.16,11.16,0,0,1-11.16-11.16V349c19.38-11.88,46.53-23.29,88-23.29,66,0,97.58,27.37,134.12,59.06,37.8,32.8,80.65,70,163.36,70,30.62,0,57.67-5,82.89-15.39v55.27a11.16,11.16,0,0,1-11.15,11.16Zm11.15-115.91c-24.8,14-50.85,20.31-82.89,20.31-66,0-97.57-27.37-134.12-59.06-37.8-32.81-80.65-70-163.36-70-25.82,0-48.89,3.51-70.5,10.74q-8.88,3-17.5,6.83V162.83A11.15,11.15,0,0,1,109,151.68H555a11.15,11.15,0,0,1,11.15,11.15Z"/>
    <path fill="currentColor"
          d="M453.64,179.39a68.27,68.27,0,1,0,68.26,68.27,68.28,68.28,0,0,0-68.26-68.27Zm0,91.92a23.66,23.66,0,1,1,23.65-23.65h0A23.68,23.68,0,0,1,453.64,271.31Zm-110,149.3c-4.67-4-9.28-8-14.15-12.26-36.8-32.24-78.51-68.79-142.62-68.79a209.56,209.56,0,0,0-37.5,3.23,8.36,8.36,0,1,0,2.83,16.48l.18,0a192.52,192.52,0,0,1,34.48-3c57.83,0,95.35,32.87,131.59,64.65,4.7,4.13,9.57,8.37,14.33,12.44a8.38,8.38,0,0,0,10.86-12.76Z"/>
    <path fill="currentColor" d="M113.28,358.71a8.37,8.37,0,1,0,8.36-8.36A8.36,8.36,0,0,0,113.28,358.71Z"/>
</svg>