<svg xmlns="http://www.w3.org/2000/svg" viewBox="0 0 659.22 649.53"><title>TXT </title><path fill="currentColor" d="M416.61,107.84c26.41,0,52.33,0,78.25,0C507,107.85,518.4,111,524.7,122a45.43,45.43,0,0,1,5.68,21.51c.4,79.54.27,159.09.31,238.64,0,48.52.19,97,.07,145.56,0,11,.23,22.9-10.13,29.92-6.21,4.2-14.08,8.37-21.23,8.41-91.4.54-182.81.34-274.21.31q-28.77,0-57.55-.09c-19.49-.08-32.53-12.45-32.63-32-.28-54.44-.21-108.89-.2-163.33q0-114.25.19-228.5c0-21.62,11.27-33.65,33-34.14,24.53-.56,49.08-.41,73.62-.34,4.79,0,7.47-.72,8.84-6.25,2.36-9.5,9.7-14.47,20.32-14.5q61.79-.17,123.56.12C407.18,87.36,412.45,92.53,416.61,107.84ZM467.7,503.32V170.86H416.81c-5.24,16.66-9.71,20.73-24.22,20.8q-60.06.3-120.13.2c-12.34,0-18.48-4.76-22.67-16.29-.67-1.82-2.4-4.61-3.69-4.64-15.95-.32-31.91-.21-48.07-.21v332.6Zm20.45-353.74V524.19H176.9V149.61H249V129.33c-25.35,0-50.13-.1-74.92,0-16.72.08-18.44,1.76-18.46,18.38q-.17,187-.2,374.08c0,22.71,1.11,23.91,23.74,23.92q157,.06,314,0c13.53,0,16.23-2.74,16.23-16.39q0-129.08,0-258.15,0-64.34-.12-128.66c0-9.71-2.85-13.18-11.22-13.21-26.24-.09-52.48,0-78.72.11a8,8,0,0,0-2.61.86v19.25Zm-93.5-40.86H271v61H394.65Z"/><path fill="currentColor" d="M393.7,254.25c14,.09,26,7.6,30.07,18.37,4.55,12.17,3.93,23.89-5.8,33.66C380.39,344,342.3,381.2,305.31,419.48,289.73,435.6,269.23,436,250,440.75c-7.43,1.82-12.56-5.42-10.61-13.1,3.32-13.07,7-26.07,10.79-39a17.68,17.68,0,0,1,4.52-6.84q58.7-59,117.56-117.77C378.71,257.62,386.22,253.48,393.7,254.25ZM265.23,414.65c.64.84,1.29,1.67,1.94,2.51,7.51-3.92,16.45-6.37,22.3-12,29.17-28.12,57.51-57.1,86.2-85.72,7.12-7.1,14.48-14,21.71-20.92l-14.52-14.72a11.76,11.76,0,0,0-2.12,1.35c-34.84,34.78-69.53,69.7-104.58,104.27C268.81,396.67,266.67,405.34,265.23,414.65Z"/></svg>