<svg xmlns="http://www.w3.org/2000/svg" viewBox="0 0 659.22 649.53"><path fill="currentColor" d="M59.59,135.48V330.76L179.5,194.23a16.1,16.1,0,0,1,24.08-.24L354.79,356.76l105-107.15a16.18,16.18,0,0,1,22.63-.48L614.11,373.61V135.48ZM344,192.07c27,0,49.12,22.37,49.12,49.36a49.12,49.12,0,0,1-98.24,0C294.83,214.44,317,192.07,344,192.07Zm0,32.5a16.86,16.86,0,1,0,0,33.71,16.86,16.86,0,1,0,0-33.71ZM192,229.15l-132.43,151V494.25H614.11V417.68A16.06,16.06,0,0,1,611.7,416L471.81,283.56,366.1,391.44a16.19,16.19,0,0,1-22.88.24l-.47-.48L192,229.15Z"/></svg>