<svg xmlns="http://www.w3.org/2000/svg" viewBox="0 0 659.22 649.53">
    <path fill="currentColor"
          d="M599.94,349.26a30.52,30.52,0,0,0-17.72-27.21,36.23,36.23,0,0,0-36.69,1.9l-58.21,39.86V333.44a46.45,46.45,0,0,0-46.19-46.19H134.27a46.45,46.45,0,0,0-46.19,46.19V498.57a46.45,46.45,0,0,0,46.19,46.19H441.13a46.45,46.45,0,0,0,46.19-46.19v-29.1l60.74,39.23a35.55,35.55,0,0,0,19.61,5.69A35.05,35.05,0,0,0,585.39,510c10.75-5.69,17.08-16.45,16.45-27.84Z"/>
    <path fill="currentColor"
          d="M394.94,264.47a84.11,84.11,0,0,0,84.15-84.14c0-46.19-38-84.15-84.15-84.15s-84.15,38-84.15,84.15A84.11,84.11,0,0,0,394.94,264.47Z"/>
    <path fill="currentColor"
          d="M202.6,264.47a84.11,84.11,0,0,0,84.15-84.14c0-46.19-38-84.15-84.15-84.15s-84.15,38-84.15,84.15A84.11,84.11,0,0,0,202.6,264.47Z"/>
</svg>