<svg xmlns="http://www.w3.org/2000/svg" viewBox="0 0 659.22 649.53"><title>RAR </title><path fill="currentColor" d="M280,134.16H381.06V524H280ZM324.9,278.24c-6.59,0-12.75,0-18.92,0-10.64,0-16.25,5.6-16.27,16.21q0,29.51,0,59C289.72,364.61,295,370,306,370q24.74.06,49.48,0c11.41,0,16.53-5.21,16.55-16.71q0-29.05,0-58.12c0-11.59-5.36-16.9-16.93-16.92H336.77V261.76H324.9Z"/><path fill="currentColor" d="M261.07,145.66V246.54c-1.7.09-3.18.24-4.65.24q-68.76,0-137.52,0c-11.85,0-18.83-4.76-21.27-14.37a18.64,18.64,0,0,1-.51-4.47c0-21.33-.08-42.66,0-64a18.24,18.24,0,0,1,18.39-18.48q71.48-.1,143,0C259.21,145.44,260,145.56,261.07,145.66Z"/><path fill="currentColor" d="M400,145.43h4.84c46,0,92,.26,138-.17,13.22-.12,21.67,9.5,21.32,21.39-.58,20.1-.14,40.23-.16,60.35,0,11.36-6.83,18.71-18.17,19.65-1.36.12-2.72.13-4.08.13H400Z"/><path fill="currentColor" d="M261,517h-4.81c-46,0-92-.26-138,.17-13.22.12-21.59-9.37-21.22-21.44.61-20.12.14-40.26.17-60.39,0-11.64,7.52-19.42,19.23-19.44q70.83-.14,141.66,0c.89,0,1.79.17,3,.29Z"/><path fill="currentColor" d="M399.94,381.49V280.91c1.58-.1,3.16-.27,4.74-.28q69,0,138.05,0c14.08,0,21.19,7.15,21.19,21.17q0,30.42,0,60.85c0,11.32-7.78,19.13-19,19.14q-70.39,0-140.77,0C402.77,381.77,401.46,381.6,399.94,381.49Z"/><path fill="currentColor" d="M261.05,280.89v101h-5.12q-68.74,0-137.49,0c-14.34,0-21.34-7.07-21.34-21.44q0-30.18,0-60.35c0-11.43,7.49-19.36,18.8-19.38q71.23-.17,142.48-.05C259.12,280.64,259.87,280.78,261.05,280.89Z"/><path fill="currentColor" d="M399.91,517V416.13c1.78-.09,3.39-.24,5-.24q69,0,138,0c13.81,0,21,7.21,21,20.9q0,30.18,0,60.38c0,12.17-7.6,19.84-19.76,19.85q-69.93,0-139.84,0Z"/><path fill="currentColor" d="M336.92,307.53V287.82c7.44,0,14.5-.17,21.55.07,3.55.11,4.09,2.94,4.09,5.91q0,20.44,0,40.87c0,6.66-.06,13.32,0,20,.05,4.08-1.54,6.16-5.88,6.14q-25.87-.14-51.76,0c-4.07,0-5.9-2-5.91-5.76q-.06-30.88,0-61.76c0-3.34,1.63-5.44,5.26-5.44h20.56v19.7Z"/></svg>