<svg xmlns="http://www.w3.org/2000/svg" viewBox="0 0 659.22 649.53"><path fill="currentColor" d="M312.09,304.67c2.2-6,4-11.11,5.94-16.16C346.44,214.39,388,148.75,444.62,92.9a95.42,95.42,0,0,1,8.57-7.64,27.35,27.35,0,0,1,37,3.8c8.92,10.43,8.11,25.44-2,35.18-52.89,50.8-91.44,111.08-118.49,179q-1.56,3.93-3.1,7.88c-1,2.46-1.91,4.93-3.07,7.92-34.39-18.47-68.79-18.59-103.11.06-4.41-11-8.34-21.64-12.84-32C222.23,228.72,187.79,176.44,143,131.13c-2-2-4.09-3.92-6.16-5.85-11-10.26-12.31-25.45-3.06-36.23s26.44-12.86,37.34-3.32a343.84,343.84,0,0,1,29,28.87A548,548,0,0,1,310.17,300.34C310.59,301.52,311.18,302.63,312.09,304.67Z"/><path fill="currentColor" d="M374.88,518c-1.67-14.22-3.36-28.41-5-42.62-2.08-18.19-3.82-36.43-6.24-54.58-3-22.55-22.51-40.39-44.46-39.18a110.39,110.39,0,0,1-13.49,0c-24.38-1.67-43.87,19.19-46,42.69-2.76,30.51-6.17,61-9.33,91.43-.15,1.45-.52,2.87-.8,4.32a27.88,27.88,0,0,1-21.23-26.77c-.24-33.65-.72-67.34.73-100.93,1-23.12,13.29-41.4,31.61-55.42a80.37,80.37,0,0,1,37-16.16c24.29-3.67,46.86.92,66.84,16,22,16.61,32.66,38.76,32.64,66.21,0,29.33,0,58.65,0,88C397.13,504.63,388,515.79,374.88,518Z"/><path fill="currentColor" d="M312.25,396c4.64.23,9.4-.09,13.91.81,11.34,2.25,21.18,13.59,22.55,25.85,2.79,25,5.35,50,8,74.95,1.14,10.92,2.39,21.83,3.29,32.78,2.18,26.45-17.53,48.56-44.83,50.47-25.89,1.8-50.32-18.61-51.06-44.07-.38-13.21,1.71-26.52,3.06-39.75,2.38-23.33,5.14-46.63,7.55-70,2.14-20.65,13.25-30.84,34-30.85h3.5Zm-.49,98.9c-15.76.07-28.3,12.38-28.16,27.66.14,15,12.77,27.12,28.25,27.17,15.65.06,28.4-12.3,28.4-27.51S327.57,494.8,311.76,494.87Z"/><path fill="currentColor" d="M402.8,639.18l2.15.15,0,.5h-2.16Z"/><path fill="currentColor" d="M410.87,639l1.94.69-2.09.2Z"/></svg>