<svg xmlns="http://www.w3.org/2000/svg" viewBox="0 0 659.22 649.53">
    <path fill="currentColor"
          d="M577,205.62a27.66,27.66,0,1,0,0-55.31H392.62a9.22,9.22,0,0,0-9.22,9.22v55.31H226.68a9.23,9.23,0,0,0-8.64,6l-21.33,56.91L188.26,265a9.21,9.21,0,0,0-7.67-4.11H60.74a9.22,9.22,0,0,0-9.22,9.22v212a9.22,9.22,0,0,0,9.22,9.22H466.37a9.22,9.22,0,0,0,9.22-9.22V445.31h73.75v9.22a9.21,9.21,0,0,0,5.1,8.3l36.87,18.43A9.21,9.21,0,0,0,604.65,473V288.59a9.22,9.22,0,0,0-13.34-8.25l-36.87,18.44a9.21,9.21,0,0,0-5.1,8.25v9.22H475.59V297.81a9.27,9.27,0,0,0-1-4.09l-35.83-71.84V205.62ZM438.71,168.75H577a9.22,9.22,0,1,1,0,18.43H438.71Zm129.07,144,18.43-9.21V458.05l-18.43-9.22Zm-55.32,22h36.88v92.19H512.46Zm-36.87,0H494v92.19H475.59ZM401.84,168.75h18.43v46.09H401.84ZM457.15,473H70V279.37H175.65l15.68,23.56A9.2,9.2,0,0,0,199,307H457.15ZM256.93,288.59l4.61-18.44H396.13l9.22,18.44Zm194.51,0H426l-15.84-31.78a9.23,9.23,0,0,0-8.29-5.1H254.34a9.25,9.25,0,0,0-9,7l-7.46,29.89h-25.6l20.74-55.31H423.8Z"/>
    <path fill="currentColor"
          d="M199,325.47a9.21,9.21,0,0,0-9.22,9.21V445.31a9.22,9.22,0,0,0,9.22,9.22H429.49a9.22,9.22,0,0,0,9.22-9.22V334.68a9.21,9.21,0,0,0-9.22-9.21ZM383.4,436.09H208.24V343.9H383.4Zm36.87,0H401.84V343.9h18.43Z"/>
    <rect fill="currentColor" x="88.4" y="297.81" width="18.44" height="18.44"/>
    <rect fill="currentColor" x="125.27" y="297.81" width="18.44" height="18.44"/>
    <rect fill="currentColor" x="88.4" y="436.09" width="18.44" height="18.44"/>
    <rect fill="currentColor" x="125.27" y="436.09" width="18.44" height="18.44"/>
    <path fill="currentColor"
          d="M162.15,334.68H97.62a9.22,9.22,0,0,0-9.22,9.22v64.53a9.22,9.22,0,0,0,9.22,9.22h64.53a9.22,9.22,0,0,0,9.22-9.22V343.9A9.22,9.22,0,0,0,162.15,334.68Zm-9.22,64.54H106.84v-46.1h46.09Z"/>
    <path fill="currentColor"
          d="M337.31,417.65A27.66,27.66,0,1,0,309.65,390,27.65,27.65,0,0,0,337.31,417.65Zm0-36.87a9.22,9.22,0,1,1-9.22,9.22A9.21,9.21,0,0,1,337.31,380.78Z"/>
    <rect fill="currentColor" x="226.68" y="362.34" width="64.53" height="18.44"/>
    <rect fill="currentColor" x="226.68" y="399.22" width="18.44" height="18.44"/>
    <rect fill="currentColor" x="263.56" y="399.22" width="18.44" height="18.44"/>
</svg>