<svg xmlns="http://www.w3.org/2000/svg" viewBox="0 0 659.22 649.53"><title>GZ </title><path fill="currentColor" d="M558.21,267.7,410.54,309.85,359.7,197.48l65-3.94c-56.08-9.18-110.79-4.73-165.58.46l70,4.72c-19,42-37.59,83.26-56.59,125.33L107.42,277.3c16-29.21,31.21-57.3,46.81-85.19,1.12-2,4.86-3.38,7.49-3.55,62.65-4.11,125.3-8.58,188-11.61,18.74-.91,37.69,2.28,56.53,3.69,33,2.48,65.95,5.31,98.95,7.34,7.35.46,11.47,2.89,14.85,9.32C532.26,220.5,545,243.41,558.21,267.7Z"/><path fill="currentColor" d="M355.1,482.94V229l1.39-.4c1.28,2.91,2.59,5.8,3.84,8.72,12.3,28.81,24.74,57.57,36.79,86.48,2.94,7.05,5.88,9.4,14.23,6.91,35.17-10.5,70.64-20,106-29.82,3.21-.89,6.46-1.62,10.32-2.57.3,2.82.74,5.05.74,7.27,0,38.86,0,77.72.12,116.57,0,5.26-.73,8.62-6.62,10.4-53.82,16.3-107.56,32.89-161.33,49.36A53.73,53.73,0,0,1,355.1,482.94Z"/><path fill="currentColor" d="M172,430.59V314.24L288.32,346.9l54.3-121,1.43.16v257.4Z"/></svg>