<svg xmlns="http://www.w3.org/2000/svg" viewBox="0 0 659.22 649.53"><title>RTF </title><path fill="currentColor" d="M103.62,100.82V553H555.83V100.82Zm263.79,43.07h75.37v21.53H367.41ZM264.26,169.3,175.11,179l-28.42,75.15L114,113.53ZM125.15,326.93V283.86h21.54v43.07Zm21.54,37.68V440H125.15V364.61ZM179,531.5H125.15V477.66h21.54V510H179Zm129.2,0H222.06V510h86.13Zm21.54-366.08H286.66V143.89h43.07ZM437.4,531.5H351.26V510H437.4Zm-10.77-43.07H383.56V466.9h43.07V230H383.56V208.49H491.23V230H448.16V466.9h43.07v21.53ZM534.3,531.5H480.46V510h32.3V477.66H534.3Zm0-93.89H512.76V357.72H534.3Zm0-119.94H512.76V237.78H534.3Zm0-120H512.76v-32.3h-32.3V143.89H534.3Z"/></svg>