<svg xmlns="http://www.w3.org/2000/svg" viewBox="0 0 659.22 649.53"><title>ODS </title><path fill="currentColor" d="M89.62,144h469V461.54h-469Zm282.51,88.8v34.53H530.94V232.75Zm-.79,121.58H530.86V320.79H371.34Zm.44,78.88h159V403.58h-159Zm159.49-154H372.66V310H531.27Zm.19,87H372.08v25.91H531.46ZM117.84,176.44v47.19h79.37V176.44Zm169.23,48.83c23.4,0,44.7.56,65.93-.5,4-.2,10.48-6.52,10.95-10.59,1.45-12.43.53-25.14.53-37.36H287.07ZM116.93,354.56h79.8V320.48h-79.8Zm.19-87.51h80V232.74h-80Zm171,52.65v34.9h74.58V319.7Zm75.15-86.44H287.37v34.1h75.87ZM206,354.89h70.62V320.24H206ZM205.44,268h71.37V233.56H205.44ZM197.8,403.91H117.15V433H197.8Zm-80.65-94h80.11V278.38H117.15Zm170.37,1.85c17.6,0,32.91,0,48.22,0,31.66-.05,32.56-1.18,25.63-33.33H287.52Zm76.15,92.06H287.42v29.3h76.25ZM205.77,433.2h70.68V403.43H205.77Zm71-154.5h-70.6v31.58h70.6Zm-79.1,87.91H115.79c.48,9.76.88,17.81,1.27,25.72h80.56Zm165.87.05h-77.4c.52,9.76.94,17.78,1.36,25.58h76ZM204.57,366c.51,10.52.9,18.48,1.29,26.4h70.91V366Z"/></svg>