<svg xmlns="http://www.w3.org/2000/svg" viewBox="0 0 659.22 649.53">
    <path fill="currentColor"
          d="M396.18,202.78a10.16,10.16,0,0,0-.71-2.72,14.59,14.59,0,0,0-2.89-5,23.89,23.89,0,0,0-4-3.72,27.67,27.67,0,0,0-4.67-2.57A37.6,37.6,0,0,0,379,187a37.59,37.59,0,0,1,4.44,2.63,35.78,35.78,0,0,1,3.92,3.18,22,22,0,0,1,3,3.85,13.75,13.75,0,0,1,1.7,4.19,7.13,7.13,0,0,1,.29,2.32l.05,1.3c-.08,0-.12.61-.18.88a11.36,11.36,0,0,1-1.54,4,15.43,15.43,0,0,1-2.8,3.42,20.2,20.2,0,0,1-3.65,2.73,32.42,32.42,0,0,1-8.67,3.46,34.35,34.35,0,0,1-4.65.87,42.22,42.22,0,0,1-4.65.33,48.64,48.64,0,0,1-9.46-.93,33.59,33.59,0,0,1-4.49-1.16c-1.48-.42-2.82-1.16-4.24-1.69l-1.68-.64-2.08.63a40.25,40.25,0,0,1-4.77,1.55,30.33,30.33,0,0,1-4.89.91,39.13,39.13,0,0,1-5.34.42l-1.43.06-1.06-.05c-.86,0-1.72-.05-2.57-.16-6.76-.58-13.65-2.89-18-6.76a10.42,10.42,0,0,1-2.4-3l-.36-.76a1,1,0,0,0-.14-.43c-.11,0-.11-.81-.17-1.17l0-.4v-.09l0-.19c0-2,1.46-4.26,3.76-6.15,4.67-3.87,11.65-6.06,18.53-6.59l3.21-.25.81-3.37c.31-1.28.62-2.56.87-3.87l1.46-3.71c.63-1.17,1.41-2.26,2.09-3.43s1.78-2,2.66-3,2.11-1.69,3.16-2.58,2.38-1.33,3.56-2,2.43-.87,3.66-1.39a28.47,28.47,0,0,1,4.48-.8c1.13-.33,2.73,0,4.09-.05a21.26,21.26,0,0,1,4.24.61,22.64,22.64,0,0,1,4.11,1.33,27.66,27.66,0,0,1,3.88,2,40.77,40.77,0,0,1,3.56,2.67c1.12,1,2.05,2.18,3.11,3.28.88,1.21,1.68,2.48,2.57,3.76l2,4.29-1.1-4.59c-.64-1.44-1.19-3-2-4.44s-1.71-2.77-2.75-4a38.29,38.29,0,0,0-3.44-3.54,32.31,32.31,0,0,0-4.07-2.9,28.07,28.07,0,0,0-4.56-2.18c-1.61-.44-3.2-1.26-4.9-1.36s-3.26-.67-5.25-.45a32.53,32.53,0,0,0-4.8.34,43.69,43.69,0,0,0-5.3,1.33,49.25,49.25,0,0,0-4.79,2.19c-1.45,1-3,1.9-4.35,3s-2.62,2.4-3.79,3.74-2.18,2.84-3.12,4.35-1.64,3.2-2.35,4.86l-.53,1.88a48.41,48.41,0,0,0-9.25,1.65,34.64,34.64,0,0,0-11.76,5.81,22.06,22.06,0,0,0-4.91,5.36,16,16,0,0,0-2.57,7.59l0,.52v.46l0,.48.06.71a9,9,0,0,0,.19,1.65c.16.78.35,1.57.57,2.34l.79,1.85a20.06,20.06,0,0,0,4.48,6,26.41,26.41,0,0,0,5.56,4,36,36,0,0,0,6,2.64,48.8,48.8,0,0,0,12.4,2.51c1,.11,2.08.12,3.12.15.63,0,.81,0,1.8,0l1.42-.08A48.27,48.27,0,0,0,342,226.87a25.86,25.86,0,0,0,4.2-1.53,27.78,27.78,0,0,0,3.48,1.15,41.37,41.37,0,0,0,5.58,1.19,32.35,32.35,0,0,0,5.64.46,41.92,41.92,0,0,0,5.53-.13,47,47,0,0,0,5.62-.83,41.57,41.57,0,0,0,5.44-1.45,35.25,35.25,0,0,0,10-5.23,25.85,25.85,0,0,0,4.24-3.94,19.79,19.79,0,0,0,3.2-5,16,16,0,0,0,1.35-5.84v-1.7Zm-93,3.89h0C303.16,206.76,303.16,206.81,303.15,206.67Z"/>
    <polygon fill="currentColor" points="244.53 218.12 315.46 304.1 240.74 221.39 244.53 218.12"/>
    <polygon fill="currentColor" points="254.52 203.43 345.17 268.29 251.7 207.57 254.52 203.43"/>
    <polygon fill="currentColor" points="227.34 229.54 282.08 326.63 223.03 232.1 227.34 229.54"/>
    <polygon fill="currentColor" points="209.3 233.59 219.7 344.56 204.33 234.17 209.3 233.59"/>
    <polygon fill="currentColor" points="173.59 227.24 126.74 328.38 169 225.24 173.59 227.24"/>
    <polygon fill="currentColor" points="254.84 149 362.94 121.82 256.18 153.82 254.84 149"/>
    <path fill="currentColor" d="M290.32,194.37l-31.66-9.13-1.28,4.84,31.54,7.58A20.19,20.19,0,0,1,290.32,194.37Z"/>
    <path fill="currentColor" d="M331.59,165.82l-72.44,1.79.23,5,68.74-4.81A37.39,37.39,0,0,1,331.59,165.82Z"/>
    <path fill="currentColor" d="M172.33,323.11l19.41-90-4.92-.94-15.34,90.78C171.76,323,172,323.05,172.33,323.11Z"/>
    <path fill="currentColor"
          d="M333.16,89.42c-123,0-223,100.06-223,223s100.06,223,223,223h223v-223C556.2,189.48,456.14,89.42,333.16,89.42Zm-113.87,49.1a42.62,42.62,0,1,1-56,54.07A209.58,209.58,0,0,1,219.29,138.52Zm160,298.62h-21.5v72.33H340.19V437.14H319.05V422.51h60.26ZM359.25,317.28c-6.94,14.61-13.33,29.65-21.06,43.93-3.94,7.06-8.09,14.07-13.16,20.26s-10.69,11.95-17.51,15.7c-1.58,1.17-3.46,1.68-5.19,2.5a22.88,22.88,0,0,1-5.33,1.69l-2.66.68c-.93.17-2,.17-3,.27l-3,.14c-.4,0-1.22.07-1.26,0l-1.42-.18c-3.76-.63-7.57-.53-11.07-2l-5.28-1.68c-1.71-.7-3.34-1.61-5-2.41-13.07-6.69-23.41-16.91-33.75-26.31s-20.54-18.53-31.15-25.84-21.7-12.41-32.17-15c-5.45-1-10.6-2.12-14.82-1.84l-6.26-.08c-2.62.11-4.22.41-6.2.6a37.56,37.56,0,0,0-10,2.77,23.58,23.58,0,0,0-3.91,2.19c-.65-6.69-1-13.44-1-20.27a207.27,207.27,0,0,1,8.91-60.17l26.23-33.48-4-3-18.95,26.56a207.5,207.5,0,0,1,22.59-44.88,47.62,47.62,0,1,0,64.39-62.2,206.63,206.63,0,0,1,77.7-28.5l-54.69,28.28,2.4,4.39,58.07-33.41a207.18,207.18,0,0,1,197.13,89.24A109.67,109.67,0,0,0,494,192.65c-1.87-.38-3.71-.56-5.71-.81l-3-.35a34.49,34.49,0,0,0-3.46-.11l-7.18,0c-2.47.2-5,.62-7.69.95a82.24,82.24,0,0,0-33.13,13.77C423,213.6,412.9,223.74,404,235.44A176.52,176.52,0,0,0,391.37,254c-4,6.48-7.82,13.21-11.37,20.19C372.77,288,366.07,302.62,359.25,317.28Zm48.5,192.19H390.18v-87h17.57Zm62.88-72.33H440.05v22.28h27.3V474h-27.3v35.47H422.49v-87h48.14Zm58.18,0H498.23v22.28h27.3V474h-27.3v35.47H480.67v-87h48.14v14.63Zm4.43-153a56.36,56.36,0,0,0-8.39-1.59,65.1,65.1,0,0,0-9.55-.26,94.27,94.27,0,0,0-20.48,3.42,169.68,169.68,0,0,0-35.75,15.06c-3.59,2-6.64,3.81-9.07,5.32-1.43-.93-3.05-1.95-4.9-3.05a140.58,140.58,0,0,0-25.66-12.31,72.73,72.73,0,0,0-14.82-3.61,44.71,44.71,0,0,0-7-.36,31.09,31.09,0,0,0-6.25.71c-.37.08-.71.19-1.07.27,1.15-2.06,2.29-4.14,3.44-6.16,3.82-6.59,7.47-13.09,11.31-19.23,1.91-3.08,3.81-6.12,5.79-9s3.79-5.88,5.81-8.61c7.93-11,16.26-20.72,25.21-28a78.14,78.14,0,0,1,27.27-14.88c9-2.87,17.31-3,24.59-3.27a98.43,98.43,0,0,1,14.09,1,206.45,206.45,0,0,1,31.7,86.84A42.87,42.87,0,0,0,533.24,284.18Z"/>
</svg>