<svg xmlns="http://www.w3.org/2000/svg" viewBox="0 0 659.22 649.53"><title>PAC </title><path fill="currentColor" d="M325.46,436.26V424.42q0-154.34.2-308.69c0-5.61,1.56-12.24,4.81-16.59,6.73-9,13.2-7.5,20.88.43,12.54,13,25.54,25.63,39.51,37,17.2,14,35.62,26.5,53.44,39.75q44.58,33.15,52.74,88.15c.17,1.12-.08,2.31-.25,5.7-28.31-40.7-58.5-76.78-105.12-93.83-8.74-3.19-18.12-4.63-29.09-7.35,0,5.79,0,9.45,0,13.11-.19,96.23-1.54,192.48-.06,288.68.65,41.88-28.73,65.75-59.22,73-17.24,4.11-34.51,3.82-51.4-2.81-37.14-14.6-45.56-53.32-17-81.7,22.8-22.66,50.74-29.94,82.22-24.28C319.55,435.46,322,435.75,325.46,436.26Z"/></svg>