<svg xmlns="http://www.w3.org/2000/svg" viewBox="0 0 659.22 649.53">
    <path fill="currentColor"
          d="M551.4,407.43h-20V98.22a15.06,15.06,0,0,0-15.06-15.06H157.78a15.06,15.06,0,0,0-15.06,15.06V407.43h-20a15.06,15.06,0,0,0-15.06,15.06V580.1a15.06,15.06,0,0,0,15.06,15.06H551.4a15.06,15.06,0,0,0,15.06-15.06V422.49A15.06,15.06,0,0,0,551.4,407.43ZM501.28,165.15H466.65L446,113.28h55.33Zm-87.76-51.87,20.7,51.87h-33l-20.7-51.87ZM326,165.15l-20.7-51.87h42.76l20.69,51.87Zm-53.12-51.87,20.69,51.87h-33l-20.7-51.87Zm-100.07,0h34.63l20.7,51.87H172.84Zm0,82H501.28V407.43H172.84Zm363.5,369.78H137.78V437.55H536.34Z"/>
    <path fill="currentColor"
          d="M395.87,282.77l-102.4-60a15.07,15.07,0,0,0-22.67,13V355.72a15.07,15.07,0,0,0,22.67,13l102.4-59.95A15.07,15.07,0,0,0,395.87,282.77Zm-94.95,46.68V262.07l57.54,33.69Z"/>
    <path fill="currentColor"
          d="M267.28,447.09A42.32,42.32,0,0,0,225,489.35v51.1a15.06,15.06,0,0,0,30.12,0V525.63h24.31v14.82a15.06,15.06,0,1,0,30.11,0v-51.1A42.31,42.31,0,0,0,267.28,447.09Zm-12.15,48.42v-6.16a12.16,12.16,0,0,1,24.31,0v6.16Z"/>
    <path fill="currentColor"
          d="M394.17,447.92A15.06,15.06,0,0,0,375,457.2l-13,37.37L349,457.2a15.06,15.06,0,1,0-28.45,9.89l27.21,78.3a15.06,15.06,0,0,0,28.45,0l27.21-78.3A15.06,15.06,0,0,0,394.17,447.92Z"/>
    <path fill="currentColor"
          d="M434.05,447.09A15.05,15.05,0,0,0,419,462.14v78.31a15.06,15.06,0,1,0,30.11,0V462.14A15.05,15.05,0,0,0,434.05,447.09Z"/>
</svg>