<svg xmlns="http://www.w3.org/2000/svg" viewBox="0 0 659.22 649.53"><defs><style>.cls-1{fill:#231f20;}</style></defs><path fill="currentColor" d="M264.33,58.83H108.49A33.42,33.42,0,0,0,75.11,92.22V248a33.44,33.44,0,0,0,33.39,33.4H264.33A33.44,33.44,0,0,0,297.72,248V92.22A33.43,33.43,0,0,0,264.33,58.83ZM275.46,248a11.15,11.15,0,0,1-11.13,11.13H108.5A11.15,11.15,0,0,1,97.37,248V92.22a11.14,11.14,0,0,1,11.12-11.13H264.33a11.15,11.15,0,0,1,11.13,11.13V248Z"/><path fill="currentColor" d="M553.72,58.83H397.9a33.43,33.43,0,0,0-33.39,33.39V248a33.43,33.43,0,0,0,33.39,33.4H553.72A33.44,33.44,0,0,0,587.11,248V92.22A33.43,33.43,0,0,0,553.72,58.83ZM564.85,248a11.13,11.13,0,0,1-11.13,11.13H397.9A11.13,11.13,0,0,1,386.77,248V92.22A11.14,11.14,0,0,1,397.9,81.09H553.72a11.14,11.14,0,0,1,11.13,11.13Z"/><path fill="currentColor" d="M264.33,348.22H108.49a33.42,33.42,0,0,0-33.38,33.39V537.44a33.44,33.44,0,0,0,33.39,33.39H264.33a33.43,33.43,0,0,0,33.39-33.39V381.61A33.43,33.43,0,0,0,264.33,348.22Zm11.13,189.22a11.15,11.15,0,0,1-11.13,11.13H108.5a11.15,11.15,0,0,1-11.13-11.13V381.61a11.14,11.14,0,0,1,11.12-11.13H264.33a11.15,11.15,0,0,1,11.13,11.13V537.44Z"/><path fill="currentColor" d="M553.72,348.22H397.9a33.43,33.43,0,0,0-33.39,33.39V537.44a33.43,33.43,0,0,0,33.39,33.39H553.72a33.44,33.44,0,0,0,33.39-33.39V381.61A33.43,33.43,0,0,0,553.72,348.22Zm11.13,189.22a11.13,11.13,0,0,1-11.13,11.13H397.9a11.13,11.13,0,0,1-11.13-11.13V381.61a11.13,11.13,0,0,1,11.13-11.13H553.72a11.13,11.13,0,0,1,11.13,11.13Z"/></svg>