<svg xmlns="http://www.w3.org/2000/svg" viewBox="0 0 659.22 649.53"><path fill="currentColor" d="M446.56,412.58a53.14,53.14,0,0,1,33.62,11.55l-.35-122.62a2.26,2.26,0,0,1,2.24-2.29,2.38,2.38,0,0,1,.91.18,87.4,87.4,0,0,1,52.32,62.72,1.42,1.42,0,0,1-2.59,1.16,39.55,39.55,0,0,0-37.36-19.42V451.55c.1,1.11.2,2.23.2,3.36a46.06,46.06,0,0,1-49,42.29,46,46,0,0,1-49-42.29A46,46,0,0,1,446.56,412.58Z"/><path fill="currentColor" d="M223.46,309a97.76,97.76,0,0,1,61.73,21.29l-.59-225.64a4.2,4.2,0,0,1,4.2-4.2,4.08,4.08,0,0,1,1.58.31A160.81,160.81,0,0,1,386.7,216.2a2.66,2.66,0,0,1-4.78,2.14,72.84,72.84,0,0,0-68.8-35.76V380.64c.18,2,.37,4.09.37,6.17,0,42.91-40.43,77.84-90.11,77.84s-90.11-34.93-90.11-77.84S173.72,309,223.46,309Z"/></svg>