<svg xmlns="http://www.w3.org/2000/svg" width="300" height="266" viewBox="0 0 300 266">
  <path d="M1366.152,833.4h-37.086c-16.779,0-33.558-.12-50.323.091-3.712.054-5.378-1.094-6.434-4.615-2.563-8.521-5.444-16.948-8.444-25.323-1.254-3.522-1.044-5.144,3.3-4.854,4.561.3,9.144,0,13.715.093,3.172.065,4.347-.581,2.906-4.1-6.8-16.671-13.435-33.434-20.015-50.2-1.043-2.651-2.576-3.482-5.378-3.482q-42.15.138-84.3-.013c-3.211-.013-4.585,1.292-5.669,4.035q-9.668,24.532-19.631,48.958c-1.495,3.666-1,5.275,3.21,4.788a6.022,6.022,0,0,1,1.294,0c5.324.475,12.459-2.348,15.352,1.385,1.823,2.347-2.3,9.417-3.937,14.31-2.047,6.146-2.63,14.177-6.91,17.8-4.387,3.733-12.524,1.042-19.024,1.068-23.953.12-47.907.054-72.626.054,3.66-10.973,7.188-21.406,10.6-31.865a3.5,3.5,0,0,1,3.832-2.743c1.083.013,2.18-.013,3.262-.027,16.991-.105,16.991-.105,23.2-15.655,4.9-12.292,9.725-24.624,14.813-36.85,1.651-3.97,1.122-5.724-3.463-5.2a3.381,3.381,0,0,1-.647,0c-5.417-.289-12.458,2.269-15.813-.963-3.687-3.56-1.07-10.709-1.229-16.288-.212-7.821.2-15.668-.146-23.49-.2-4.419,1.362-5.539,5.562-5.367,7.836.316,15.71-.251,23.518.223,4.677.278,6.25-1.463,7.4-5.711,10.359-38.577,21.021-77.063,31.34-115.641,1.189-4.432,3.064-5.605,7.517-5.565q40.528.336,81.041.013c4.2-.026,5.9,1.147,7.028,5.341,10.265,38.38,20.928,76.642,31.126,115.022,1.387,5.209,3.435,6.885,8.746,6.541,7.808-.513,15.682.027,23.516-.2,3.461-.093,4.467,1.068,4.426,4.471q-.256,18.576,0,37.179c.041,3.417-1.082,4.657-4.491,4.485-4.347-.211-8.706.106-13.067-.093-3.977-.172-5.641.462-3.751,5.026,6.724,16.248,13.171,32.6,19.592,48.971,1,2.571,2.325,4.062,5.2,3.759a16.285,16.285,0,0,1,1.97-.014c17.624.225,17.637.225,23.121,16.724C1362.254,821.223,1364.078,826.974,1366.152,833.4ZM1181.6,695.044h59.176c10.013,0,10.054-.013,7.318-9.535-6.395-22.328-12.934-44.619-19.144-66.987-.989-3.562-2.8-4.92-5.944-4.128-6.343,1.6-16.158-4.642-18.788,3.166C1195.707,642.816,1189.114,668.719,1181.6,695.044Z" transform="translate(-1066.152 -568.258)" fill="currentColor"/>
</svg>
