<svg xmlns="http://www.w3.org/2000/svg" viewBox="0 0 659.22 649.53">
    <title>GIF</title>
    <path fill="currentColor"
          d="M353.16,457l-97.53,43.71A36.81,36.81,0,0,1,207,482.31L90.66,221.66a36.81,36.81,0,0,1,18.4-48.58L272.93,99.47,204.84,349.36a55.2,55.2,0,0,0,38.64,67.81l74.07,20.24A27.6,27.6,0,0,0,344,457h9.2Z"/>
    <polygon fill="currentColor" points="404.59 250.36 398.43 264.26 406.43 267.85 404.59 250.36"/>
    <path fill="currentColor"
          d="M417.56,175.75a49.63,49.63,0,0,0-2.39-8.56,50.6,50.6,0,0,0-93.48-2.58h0a50.51,50.51,0,0,0,44.44,71.58l36.8-26.59Z"/>
    <path fill="currentColor"
          d="M409.19,294.07a26.21,26.21,0,0,0-7.45,9.2,14.12,14.12,0,0,0-1.11,2.48l-61.46-27.6,33-23.55a81.5,81.5,0,0,0,11.32-1.66L374.32,274l34,15Z"/>
    <path fill="currentColor"
          d="M556,111.62,343.13,53.28A36.82,36.82,0,0,0,298,79.13h0l-75.26,275.1a36.81,36.81,0,0,0,25.76,45.18l70.3,19.22a28,28,0,0,1,8.19-10.58,27.62,27.62,0,0,1,13.24-41.22c-.29-1-.54-2.07-.73-3.12a26.93,26.93,0,0,1,25.76-31.93,27.6,27.6,0,0,1,7.73-18.4L302.55,282.2l43.34-31.38a62.5,62.5,0,0,1-5.89-2.3,69,69,0,0,1-34.78-91.08h0A69,69,0,0,1,432.65,161a67.54,67.54,0,0,1,2.76,9.2l96.7,43.25-33.49,74.8h1.75a26.73,26.73,0,0,1,8.46,1.38,27.59,27.59,0,0,1,17.3,16.56,26.39,26.39,0,0,1,7.55-1,25.72,25.72,0,0,1,7.54,1.1l40.85-149.14a36.8,36.8,0,0,0-25.47-45.39Z"/>
    <path fill="currentColor"
          d="M507.82,222.48l-29,64.41a26.94,26.94,0,0,0-15.27-4.69,27.57,27.57,0,0,0-14.91,4.41l-22.82-10L421,229.66a68.49,68.49,0,0,0,16-38.83Z"/>
    <circle fill="currentColor" stroke="currentColor" cx="380.76" cy="512.22" r="46"/>
    <circle fill="currentColor" stroke="currentColor" cx="518.77" cy="429.41" r="36.8"/>
</svg>