<svg xmlns="http://www.w3.org/2000/svg" viewBox="0 0 659.22 649.53">
    <circle fill="currentColor" stroke="none" cx="216.37" cy="206.7" r="41.93"/>
    <path fill="currentColor"
          d="M488.9,60H153.48a83.86,83.86,0,0,0-83.86,83.85V479.23a83.86,83.86,0,0,0,83.86,83.85H488.9a83.85,83.85,0,0,0,83.85-83.85V143.81A83.85,83.85,0,0,0,488.9,60Zm21,410.73L426.43,303.78a23.91,23.91,0,0,0-42.78,0L350.05,371a10.48,10.48,0,0,1-18.75,0l-14-27.94a19.14,19.14,0,0,0-34.22,0L204.57,500.19H153.48a21,21,0,0,1-21-21V143.81a21,21,0,0,1,21-21H488.9a21,21,0,0,1,21,21Z"/>
</svg>