<svg id="Layer_1" data-name="Layer 1" xmlns="http://www.w3.org/2000/svg" viewBox="0 0 32 44"><defs><style>.cls-1{fill:#9fbbe2;}.cls-2{fill:#d9e3f4;}.cls-3{fill:#6d88c5;}</style></defs><path class="cls-1" d="M23.85,11.81a3.66,3.66,0,0,1-3.66-3.66V0H4A4,4,0,0,0,0,4V30H32V11.81Zm-2,14.53a4.37,4.37,0,0,1-3.22,1.31,4.47,4.47,0,0,1-4.53-4.53V10H8.84V5.9h7.07V19.5a4,4,0,0,1,1.19-.67,4.59,4.59,0,0,1,1.53-.24,4.49,4.49,0,0,1,4.53,4.53A4.41,4.41,0,0,1,21.85,26.34Z"/><path class="cls-2" d="M23.85,11.81H32l-.59-.59L20.78.59,20.19,0V8.15A3.66,3.66,0,0,0,23.85,11.81Z"/><path class="cls-3" d="M19.34,34.65a1.61,1.61,0,0,0-1.16-.42H16.36v3h1.78a1.75,1.75,0,0,0,1.21-.37,1.39,1.39,0,0,0,.41-1.07A1.49,1.49,0,0,0,19.34,34.65Zm0,0a1.61,1.61,0,0,0-1.16-.42H16.36v3h1.78a1.75,1.75,0,0,0,1.21-.37,1.39,1.39,0,0,0,.41-1.07A1.49,1.49,0,0,0,19.34,34.65ZM0,30V41a3,3,0,0,0,3,3H29a3,3,0,0,0,3-3V30ZM13.12,41.56H11.65V38.75L11.79,35,9.27,41.56H8.21L5.7,35l.15,3.76v2.81H4.37V33H6.29l2.46,6.54L11.21,33h1.91Zm7.31-3.86a3.45,3.45,0,0,1-2.31.7H16.36v3.16H14.88V33h3.26a3.29,3.29,0,0,1,2.27.75,2.49,2.49,0,0,1,.84,2A2.41,2.41,0,0,1,20.43,37.7ZM27,41a3.05,3.05,0,0,1-2.07.68,3,3,0,0,1-2-.66,2.13,2.13,0,0,1-.79-1.74h1.42a1.19,1.19,0,0,0,.38.91,1.41,1.41,0,0,0,1,.35,1.44,1.44,0,0,0,1-.35,1.29,1.29,0,0,0,.38-1,1.33,1.33,0,0,0-.4-1,1.7,1.7,0,0,0-1.18-.36H24V36.65h.87a1.6,1.6,0,0,0,1-.34,1.22,1.22,0,0,0,.38-1,1.3,1.3,0,0,0-.32-1,1.28,1.28,0,0,0-1-.33,1.35,1.35,0,0,0-.94.33,1.09,1.09,0,0,0-.37.86H22.22a2.15,2.15,0,0,1,.35-1.19,2.34,2.34,0,0,1,1-.84,3.09,3.09,0,0,1,1.4-.31,2.94,2.94,0,0,1,2,.65,2.26,2.26,0,0,1,.73,1.78,1.79,1.79,0,0,1-.37,1.08,2.36,2.36,0,0,1-.94.77,2.1,2.1,0,0,1,1.06.75,2.06,2.06,0,0,1,.37,1.23A2.27,2.27,0,0,1,27,41Zm-8.83-6.77H16.36v3h1.78a1.75,1.75,0,0,0,1.21-.37,1.39,1.39,0,0,0,.41-1.07,1.49,1.49,0,0,0-.42-1.11A1.61,1.61,0,0,0,18.18,34.23Z"/></svg>