<svg id="Layer_1" data-name="Layer 1" xmlns="http://www.w3.org/2000/svg" viewBox="0 0 32 44"><defs><style>.cls-1{fill:#f3757d;}.cls-2{fill:#e8464a;}.cls-3{fill:#f7aeb6;}</style></defs><path class="cls-1" d="M16,12.36a7,7,0,0,0-7,7,6.76,6.76,0,0,0,2,5,6.78,6.78,0,0,0,5,2.06,7,7,0,0,0,7-7,7,7,0,0,0-7-7ZM14,22.9v-7l5.51,3.51Z"/><path class="cls-1" d="M23.85,11.81a3.66,3.66,0,0,1-3.66-3.66V0H4A4,4,0,0,0,0,4V30H32V11.81Zm-.23,10.78a8.7,8.7,0,0,1-1.77,2.63A8.17,8.17,0,0,1,16,27.65,8,8,0,0,1,12.8,27a8.3,8.3,0,0,1-4.41-4.41,8.28,8.28,0,0,1,0-6.43,8.08,8.08,0,0,1,1.77-2.62,8.28,8.28,0,0,1,2.64-1.77,8,8,0,0,1,3.2-.65,8.21,8.21,0,0,1,5.85,2.42,8.41,8.41,0,0,1,1.77,2.62,8.28,8.28,0,0,1,0,6.43Z"/><path class="cls-2" d="M17.9,34.13H16.08v3h1.78a1.8,1.8,0,0,0,1.21-.37,1.4,1.4,0,0,0,.41-1.08,1.46,1.46,0,0,0-.42-1.1A1.62,1.62,0,0,0,17.9,34.13Z"/><polygon class="cls-2" points="23.2 38.43 25.43 38.43 25.43 34.86 25.32 35.05 23.2 38.43"/><path class="cls-2" d="M0,30V41a3,3,0,0,0,3,3H29a3,3,0,0,0,3-3V30ZM12.84,41.47H11.37V38.65l.14-3.76L9,41.47H7.93L5.42,34.9l.15,3.75v2.82H4.09V32.94H6l2.46,6.54,2.46-6.54h1.91Zm7.31-3.86a3.5,3.5,0,0,1-2.31.69H16.08v3.17H14.6V32.94h3.26a3.28,3.28,0,0,1,2.27.74,2.51,2.51,0,0,1,.84,2A2.43,2.43,0,0,1,20.15,37.61Zm6.7,2v1.9H25.43v-1.9H21.74l0-.87,3.68-5.76h1.47v5.49h1.06v1.14Z"/><path class="cls-3" d="M23.85,11.81H32l-.23-.23-9-9L20.19,0V8.15A3.66,3.66,0,0,0,23.85,11.81Z"/></svg>