<svg xmlns="http://www.w3.org/2000/svg" viewBox="0 0 32 44">

  <path fill="#fa713d"
    d="M20.19,0H3.66C1.64,0,0,1.64,0,3.66V30.29H32V11.81L20.19,0Zm2.06,18.58c0,3.78-3.07,6.85-6.85,6.85s-6.85-3.07-6.85-6.85,3.07-6.86,6.85-6.86v6.85h6.85Zm-5.65-1.24v-6.85c3.79,0,6.85,3.07,6.85,6.85h-6.85Z" />
  <path fill="#e25f37"
    d="M8.11,34.39h-1.3v2.38h1.3c.92,0,1.33-.46,1.33-1.18s-.41-1.19-1.33-1.19Zm8.05,0h-1.3v2.38h1.3c.92,0,1.33-.46,1.33-1.18s-.41-1.19-1.33-1.19Zm0,0h-1.3v2.38h1.3c.92,0,1.33-.46,1.33-1.18s-.41-1.19-1.33-1.19Zm-8.05,0h-1.3v2.38h1.3c.92,0,1.33-.46,1.33-1.18s-.41-1.19-1.33-1.19ZM0,30.29v12.17c0,.85,.69,1.54,1.54,1.54H30.46c.85,0,1.54-.69,1.54-1.54v-12.17H0Zm8.18,7.81h-1.37v3.14h-1.64v-8.17h3.01c1.97,0,2.95,1.11,2.95,2.53,0,1.24-.84,2.5-2.95,2.5Zm8.05,0h-1.37v3.14h-1.64v-8.17h3.01c1.96,0,2.95,1.11,2.95,2.53,0,1.24-.84,2.5-2.95,2.5Zm10.6-3.71h-2.18v6.84h-1.64v-6.84h-2.18v-1.32h5.99v1.32Zm-10.67,.01h-1.3v2.38h1.3c.92,0,1.33-.46,1.33-1.18s-.41-1.19-1.33-1.19Zm-8.05,0h-1.3v2.38h1.3c.92,0,1.33-.46,1.33-1.18s-.41-1.19-1.33-1.19Zm8.05,0h-1.3v2.38h1.3c.92,0,1.33-.46,1.33-1.18s-.41-1.19-1.33-1.19Zm0,0h-1.3v2.38h1.3c.92,0,1.33-.46,1.33-1.18s-.41-1.19-1.33-1.19Z" />
  <path fill="#faa987" d="M32,11.81h-8.15c-2.02,0-3.66-1.64-3.66-3.66V0l11.81,11.81Z" />
</svg>