<svg xmlns="http://www.w3.org/2000/svg" viewBox="0 0 32 44">
  <path fill="#a9b1b7"
    d="M.06,30.34v12.15c0,.85,.69,1.54,1.54,1.54H30.46c.85,0,1.54-.69,1.54-1.54v-12.15H.06Zm11.71,4.03l-3.67,5.51h3.67v1.38H6.21v-1.26l3.64-5.51h-3.64v-1.38h5.56v1.26Zm4.78,6.89h-1.63v-8.15h1.63v8.15Zm6.36-3.13h-1.37v3.13h-1.64v-8.15h3c1.96,0,2.94,1.11,2.94,2.52,0,1.24-.84,2.5-2.94,2.5Zm-.07-3.69h-1.3v2.37h1.3c.92,0,1.33-.46,1.33-1.18s-.41-1.19-1.33-1.19Z" />
  <path fill="#bdc7d1"
    d="M20.16,0H3.65C1.63,0,0,1.63,0,3.65V30.38H31.94V11.79L20.16,0Zm-7.66,27.9c-1.08,0-1.9-.99-1.69-2.05l.53-2.72v-2.9h2.32v2.9l.53,2.72c.21,1.06-.61,2.05-1.69,2.05Zm2.93-16.93h-2.32v1.92h2.32v1.92h-2.32v1.92h2.32v1.92h-3.65v-1.92h-2.32v-1.92h2.32v-1.92h-2.32v-1.92h2.32v-1.92h-2.32v-1.92h3.65v1.92h2.32v1.92Zm-2.27,13.88h-1.32l-.17,1.02c-.09,.51,.31,.98,.83,.98s.92-.47,.83-.99l-.18-1.01Z" />
  <path fill="#dee4e9" d="M31.94,11.79h-8.14c-2.02,0-3.65-1.63-3.65-3.65V0l11.79,11.79Z" />
</svg>