<?xml version="1.0" encoding="utf-8"?>
<!-- Generator: Adobe Illustrator 26.0.1, SVG Export Plug-In . SVG Version: 6.00 Build 0)  -->
<svg version="1.1" id="Layer_1" xmlns="http://www.w3.org/2000/svg" xmlns:xlink="http://www.w3.org/1999/xlink" x="0px" y="0px"
	 viewBox="0 0 35 35" style="enable-background:new 0 0 35 35;" xml:space="preserve">
<style type="text/css">
	.st0{fill:#FFFFFF;}
</style>
<g>
	<g>
		<path class="st0" d="M10.4,13.7H22c0.6,0,1.1,0.4,1.3,1l0.1-0.2l2.9-5.1L27,8.2V7.5c0-1.3-1-2.3-2.3-2.3H7.8c-1.3,0-2.3,1-2.3,2.3
			v20c0,1.3,1,2.3,2.3,2.3h16.8c1.3,0,2.3-1,2.3-2.3V15.1l-2.8,5v0L24,20.4l-0.6,1.1l-1.8,3.1l-0.1,0.1l-0.1,0.1l0,0L21.3,25
			l-0.5,0.6l-0.2,0.3L19,27.6l0,0l0,0c-0.2,0.2-0.5,0.3-0.7,0.3c-0.3,0-0.6-0.1-0.8-0.4c-0.1-0.1-0.2-0.4-0.1-0.8l0,0l0,0l0.7-2.2
			l0.1-0.4l0.2-0.7l0.1-0.4l0,0l0,0l0,0l0,0l0,0l0.9-1.6h-9.2C9.6,21.3,9,20.7,9,20c0-0.7,0.6-1.3,1.3-1.3h10.7l0.2-0.4l1.1-2
			c-0.1,0-0.2,0.1-0.4,0.1H10.4C9.6,16.3,9,15.8,9,15C9,14.3,9.6,13.7,10.4,13.7z M10.4,23.6h4.1c0.7,0,1.3,0.6,1.3,1.3
			c0,0.7-0.6,1.3-1.3,1.3h-4.1c-0.7,0-1.3-0.6-1.3-1.3C9,24.2,9.6,23.6,10.4,23.6z M10.4,8.7H22c0.7,0,1.3,0.6,1.3,1.3
			s-0.6,1.3-1.3,1.3H10.4c-0.7,0-1.3-0.6-1.3-1.3S9.6,8.7,10.4,8.7z"/>
	</g>
	<g>
		<path class="st0" d="M29.4,9.2L27,13.6L23.4,20v0l-0.6,1.1L21,24.2l0,0l-0.2,0.3l-0.5,0.6L20,25.4l-1.5,1.8c0,0-0.1,0.1-0.1,0.1
			c-0.1,0-0.1,0-0.2-0.1c0,0,0-0.1,0-0.1l0.7-2.2l0.1-0.4l0.2-0.7l0.1-0.4l0,0l1.1-2l1.5-2.7l1.2-2.2l0.9-1.7L27,9.7l0.8-1.4
			c0.2-0.3,0.5-0.5,0.8-0.5c0.2,0,0.3,0,0.5,0.1c0.2,0.1,0.4,0.3,0.5,0.6C29.6,8.7,29.6,9,29.4,9.2z"/>
	</g>
</g>
</svg>
