<svg width="25" height="25" viewBox="0 0 25 25" fill="none" xmlns="http://www.w3.org/2000/svg">
<path d="M11.9781 23.9972C10.2778 23.9972 8.58266 24.0022 6.88243 23.9972C3.69386 23.9821 1.04009 21.9539 0.227814 18.9217C0.0764584 18.3516 0.00582569 17.7664 0.00582569 17.1761C0.000780495 13.7201 -0.0042647 10.2642 0.00582569 6.80821C0.0209613 3.68019 2.03904 1.05669 5.04598 0.234321C5.6514 0.0678299 6.26691 0.00224231 6.89252 0.00224231C10.298 0.00224231 13.7035 -0.00280289 17.109 0.00224231C20.3178 0.00728751 22.9716 2.03546 23.7788 5.0878C23.9352 5.67809 24.0008 6.27847 24.0008 6.88389C24.0008 10.2995 24.0058 13.71 24.0008 17.1256C23.9957 20.4908 21.7557 23.2152 18.4561 23.8812C17.992 23.972 17.5227 24.0022 17.0535 24.0022C15.3584 23.9972 13.6682 23.9972 11.9781 23.9972ZM14.314 9.22486C15.3987 9.22486 16.4834 9.22991 17.5682 9.21982C18.0172 9.21477 18.3855 8.87674 18.4511 8.43781C18.5167 8.00392 18.2493 7.57508 17.8255 7.42877C17.6892 7.38336 17.5429 7.38336 17.4017 7.38336C15.318 7.38336 13.2293 7.37832 11.1456 7.38841C10.969 7.38841 10.8883 7.33291 10.8177 7.17147C10.2778 5.95053 8.93078 5.29465 7.65434 5.6125C6.36277 5.93539 5.51014 7.05038 5.53536 8.38231C5.56059 9.66379 6.48386 10.7485 7.76534 11.0159C9.01655 11.2783 10.3031 10.6022 10.8328 9.3964C10.8934 9.26018 10.9589 9.21477 11.1053 9.21477C12.1799 9.22991 13.2444 9.22486 14.314 9.22486ZM18.4612 15.6928C18.4612 14.4113 17.5682 13.2862 16.3321 13.0088C15.0506 12.7161 13.754 13.3367 13.2141 14.5173C13.1132 14.7342 12.9972 14.7746 12.7853 14.7746C10.7016 14.7695 8.61798 14.7695 6.52926 14.7695C6.06511 14.7695 5.73212 14.9966 5.5959 15.3951C5.38401 16.0207 5.83303 16.606 6.53431 16.606C8.63816 16.611 10.737 16.611 12.8408 16.6009C13.0275 16.6009 13.1132 16.6514 13.1889 16.828C13.7187 18.0186 15.0153 18.6695 16.2816 18.397C17.548 18.1195 18.4612 16.9894 18.4612 15.6928Z" fill="#675ED5"/>
</svg>
