<svg width="24" height="17" viewBox="0 0 24 17" fill="none" xmlns="http://www.w3.org/2000/svg">
<g clip-path="url(#clip0_2093_16726)">
<path d="M11.9958 16.9913C9.10718 16.9913 6.20917 16.9738 3.32054 17C2.18572 17.0087 1.44481 16.563 0.994635 15.5841C0.488187 14.4653 0.159933 13.3116 0.00987478 12.1054C-0.0276399 11.8344 0.0192535 11.7208 0.356885 11.7296C1.07904 11.7558 1.79182 11.747 2.51398 11.7296C2.78596 11.7208 2.8985 11.782 2.90788 12.0617C2.93602 12.656 3.08608 13.2416 3.28303 13.8098C3.43309 14.2555 3.79886 14.4566 4.21152 14.3342C4.59604 14.2293 4.76486 13.8535 4.6148 13.4077C3.74258 10.7157 4.24903 8.25964 6.30296 6.19691C8.30999 4.18663 10.861 3.46992 13.7215 4.08175C16.6945 4.71105 18.6359 6.46786 19.5081 9.21234C19.9583 10.6195 19.8551 12.0267 19.3862 13.4164C19.1892 13.9933 19.5456 14.4216 20.1271 14.3517C20.4741 14.308 20.6242 14.0807 20.718 13.801C20.9055 13.2329 21.0556 12.656 21.0931 12.053C21.1119 11.8082 21.1869 11.7208 21.4495 11.7296C22.1998 11.747 22.9501 11.747 23.7004 11.7296C23.9536 11.7208 24.0286 11.7907 24.0005 12.0267C23.8317 13.4077 23.4847 14.7362 22.7906 15.9774C22.378 16.7028 21.684 16.9913 20.8118 16.9913C17.8668 16.9825 14.9313 16.9913 11.9958 16.9913ZM11.9583 14.3604C12.6054 14.3779 13.0931 14.1769 13.487 13.7923C13.8528 13.4339 14.2092 13.0668 14.5656 12.6997C15.8598 11.3625 17.1635 10.0252 18.4577 8.68791C18.7297 8.40822 18.8141 8.10231 18.5609 7.78766C18.3076 7.473 17.9606 7.473 17.5949 7.63033C17.3416 7.74396 17.0978 7.85758 16.8446 7.97995C14.922 8.87146 12.9993 9.75424 11.0861 10.6545C10.1295 11.109 9.70741 11.983 9.95126 12.9182C10.167 13.7486 11.0392 14.3604 11.9583 14.3604Z" fill="#675ED5"/>
<path d="M4.00488 2.79682C5.96502 1.20607 8.17839 0.323296 10.6731 0.0348641C11.3015 -0.0350588 11.3015 -0.0437991 11.3015 0.568026C11.3015 1.15363 11.2921 1.73049 11.3109 2.3161C11.3202 2.55209 11.2358 2.62201 10.9732 2.65697C9.23818 2.84052 7.66256 3.43486 6.2839 4.44875C6.13384 4.56237 6.0213 4.66725 5.83372 4.48371C5.23349 3.90684 4.62387 3.36494 4.00488 2.79682Z" fill="#675ED5"/>
<path d="M19.9957 2.79687C19.3767 3.36499 18.7671 3.90689 18.1762 4.46628C18.0168 4.6236 17.9136 4.5799 17.7542 4.46628C16.3567 3.41743 14.7624 2.82309 12.9898 2.63954C12.7178 2.61332 12.6991 2.4997 12.6991 2.30741C12.7084 1.6781 12.7272 1.0488 12.6897 0.428232C12.6615 0.0349154 12.821 -0.0262671 13.1961 0.00869433C15.1281 0.218463 16.9195 0.786586 18.5607 1.76551C19.039 2.07142 19.4986 2.39481 19.9957 2.79687Z" fill="#675ED5"/>
<path d="M1.39809 10.4359C1.25741 10.4359 1.11673 10.4359 0.976048 10.4359C-0.0462266 10.4359 -0.0649839 10.4359 0.0944533 9.47448C0.460221 7.3768 1.36995 5.5151 2.8424 3.89813C2.9737 3.75829 3.03935 3.71458 3.19879 3.86317C3.73337 4.37885 4.27734 4.87705 4.8213 5.37525C4.98074 5.52384 4.96198 5.61998 4.83068 5.76857C3.724 7.0534 3.04873 8.51304 2.87992 10.165C2.86116 10.366 2.77675 10.4447 2.55166 10.4359C2.1859 10.4272 1.79199 10.4359 1.39809 10.4359Z" fill="#675ED5"/>
<path d="M22.5749 10.436C22.1998 10.436 21.8246 10.4273 21.4495 10.436C21.2056 10.4447 21.1306 10.3573 21.1025 10.1388C20.9337 8.50438 20.2678 7.06222 19.1611 5.78612C19.011 5.61132 19.011 5.51517 19.1798 5.35785C19.7238 4.87713 20.249 4.37893 20.7742 3.88073C20.9055 3.74962 20.9899 3.7234 21.1306 3.88947C22.6593 5.60258 23.6441 7.54294 23.9161 9.77173C24.0005 10.4447 23.9817 10.4447 23.2689 10.4447C23.0439 10.436 22.8094 10.436 22.5749 10.436Z" fill="#675ED5"/>
<path d="M14.819 10.4534C14.0688 11.2401 13.3185 12.0442 12.5494 12.8133C12.2399 13.128 11.771 13.1017 11.4802 12.7958C11.2176 12.5249 11.2458 12.0704 11.6022 11.8868C12.6432 11.3624 13.7124 10.873 14.7628 10.3748C14.7815 10.401 14.8003 10.4272 14.819 10.4534Z" fill="#675ED5"/>
</g>
<defs>
<clipPath id="clip0_2093_16726">
<rect width="24" height="17" fill="white"/>
</clipPath>
</defs>
</svg>
