<svg width="18" height="18" viewBox="0 0 18 18" fill="none" xmlns="http://www.w3.org/2000/svg">
<g clip-path="url(#clip0_2093_16747)">
<path d="M17.1408 7.38145H17.1301C16.8455 7.35461 16.5609 7.30629 16.2763 7.29556C16.1259 7.29019 16.0561 7.22577 16.0078 7.09156C15.8628 6.71578 15.7017 6.35073 15.5513 5.97495C15.4493 5.72264 15.2452 5.44349 15.2828 5.21265C15.3204 4.97644 15.5996 4.77781 15.7768 4.56308C15.8144 4.52013 15.8467 4.47182 15.8842 4.42887C16.2118 4.05309 16.1903 3.48942 15.8413 3.13511C15.5191 2.81301 15.1969 2.49091 14.8747 2.16881C14.5257 1.81987 13.9726 1.79302 13.5967 2.10976C13.3819 2.28691 13.1671 2.46406 12.9576 2.64659C12.8234 2.75932 12.716 2.77543 12.5066 2.65196C12.0233 2.36744 11.5024 2.16881 10.96 2.01849C10.8204 1.98092 10.7237 1.86281 10.713 1.71787C10.6915 1.43335 10.6647 1.14346 10.6325 0.858935C10.5841 0.375786 10.176 0.00537109 9.68735 0.00537109H8.31802C7.82935 0.00537109 7.42124 0.375786 7.37291 0.858935C7.34606 1.13272 7.31921 1.41187 7.3031 1.68566C7.28699 1.92723 7.17959 1.99165 6.90036 2.06681C6.42243 2.20102 5.96062 2.39965 5.52566 2.64122C5.30549 2.76469 5.18735 2.76469 5.03162 2.63048C4.83294 2.4587 4.63425 2.29228 4.44093 2.13123C4.06504 1.81987 3.51193 1.84671 3.16289 2.19028C2.83532 2.51238 2.50776 2.83448 2.18556 3.16195C1.83652 3.50552 1.80967 4.06383 2.12112 4.44498C2.28759 4.64897 2.45943 4.85297 2.63126 5.05697C2.73329 5.17507 2.75477 5.26633 2.69033 5.41128C2.44332 5.97495 2.22315 6.54936 1.97076 7.11304C1.93317 7.19356 1.82041 7.27945 1.72912 7.29019C1.43914 7.32777 1.14379 7.35998 0.853819 7.38682C0.370525 7.42977 0 7.83776 0 8.32628V9.68983C0 10.1784 0.370525 10.5863 0.853819 10.6347C1.13842 10.6615 1.42303 10.6883 1.71301 10.7098C1.90632 10.7259 1.96539 10.8064 2.02983 11.0534C2.08353 11.2681 2.15334 11.4775 2.23389 11.6815C2.3574 11.558 2.48091 11.4399 2.59905 11.3164C2.72792 11.1876 2.86217 11.0534 2.99105 10.9245C3.26492 10.6508 3.54415 10.3716 3.81802 10.0925C3.56563 8.73964 3.82876 7.34924 4.56444 6.20579C5.38067 4.94423 6.71241 4.09067 8.22673 3.8652H8.23747C8.45227 3.83299 8.67243 3.81688 8.8926 3.81688C9.11814 3.81688 9.34367 3.83299 9.56921 3.8652C9.78938 3.89741 10.0525 3.94035 10.3156 4.00477C10.96 4.16582 11.4433 4.61676 11.6152 5.20728C11.6742 5.41664 11.6903 5.62601 11.6689 5.83537C11.6527 5.96958 11.7011 6.10379 11.7924 6.19505C11.7977 6.20042 11.8031 6.20579 11.8085 6.21116C11.9051 6.30779 12.0394 6.3561 12.179 6.34537C12.2273 6.34 12.281 6.34 12.3294 6.34C12.4905 6.34 12.6516 6.36147 12.8126 6.40979C13.8007 6.69431 13.9994 7.61229 14.0638 7.91292C14.3968 9.4751 14.0263 11.0802 13.0382 12.3203C12.0609 13.5497 10.6002 14.269 9.02148 14.3012C9 14.3012 8.97852 14.3012 8.95704 14.3012C8.58652 14.3012 8.23747 14.2475 7.92064 14.1778C7.4105 14.6931 6.88962 15.2138 6.37947 15.7238C6.61575 15.8205 6.85203 15.9171 7.0883 16.0137C7.23866 16.0728 7.28162 16.1533 7.29236 16.309C7.31384 16.5881 7.34069 16.8673 7.36754 17.1411C7.41587 17.6296 7.82399 18 8.31265 18H9.68198C10.1706 18 10.5788 17.6296 10.6271 17.1464C10.6539 16.8565 10.6862 16.572 10.7076 16.2821C10.7184 16.1372 10.7721 16.0674 10.9063 16.0137C11.3789 15.8258 11.8622 15.654 12.3132 15.4232C12.6677 15.2407 12.9147 15.2836 13.1993 15.5628C13.3174 15.6809 13.4409 15.7883 13.5644 15.8903C13.9403 16.207 14.4988 16.1748 14.8425 15.8312C15.17 15.5037 15.4922 15.1816 15.8198 14.8542C16.1689 14.5052 16.1903 13.9523 15.8789 13.5765C15.7124 13.3725 15.5406 13.1685 15.3741 12.9591C15.315 12.884 15.2613 12.7444 15.2936 12.6639C15.5298 12.0573 15.7822 11.456 16.04 10.8601C16.0668 10.7957 16.1581 10.7313 16.2333 10.7206C16.4642 10.6883 16.6951 10.6776 16.926 10.6561C17.0012 10.6508 17.071 10.64 17.1462 10.6347C17.6295 10.5863 18 10.1784 18 9.68983V8.32628C18 7.83776 17.6295 7.42977 17.1408 7.38145Z" fill="#675ED5"/>
<path d="M12.8769 8.17062C12.8232 7.91831 12.7695 7.666 12.4795 7.58011C12.2003 7.49958 12.007 7.65526 11.819 7.84316C11.1961 8.47662 10.5678 9.11008 9.92883 9.73281C9.5583 10.0925 9.03742 10.1569 8.59171 9.93144C8.17286 9.7167 7.87751 9.24966 7.98491 8.79335C8.05472 8.48199 8.22119 8.15989 8.43599 7.92905C9.02131 7.29022 9.66033 6.69433 10.2671 6.07161C10.6001 5.72803 10.4873 5.30394 10.0255 5.18583C9.81606 5.13215 9.60663 5.09994 9.39183 5.06773C9.06964 5.01942 8.7367 5.01942 8.41451 5.06773H8.40914C5.94434 5.43278 4.42465 7.82705 5.10663 10.2428C5.13885 10.3502 5.09052 10.5327 5.00997 10.6132C4.5052 11.1447 3.97895 11.6547 3.45806 12.1754C2.56666 13.0665 1.66988 13.9416 0.794579 14.8435C-0.102199 15.7668 0.160927 17.2216 1.29935 17.6457C2.01892 17.9141 2.6472 17.7316 3.18957 17.1894C4.56427 15.8098 5.94971 14.4355 7.31904 13.0504C7.49088 12.8786 7.63587 12.8518 7.86678 12.9055C8.24267 12.9967 8.6293 13.0773 9.01057 13.0719C11.5613 13.0397 13.4139 10.6723 12.8769 8.17062Z" fill="#675ED5"/>
</g>
<defs>
<clipPath id="clip0_2093_16747">
<rect width="18" height="18" fill="white"/>
</clipPath>
</defs>
</svg>
