<svg width="20" height="21" viewBox="0 0 20 21" fill="none" xmlns="http://www.w3.org/2000/svg">
<path d="M19.9994 13.2006C19.9994 15.3968 19.9994 17.593 19.9994 19.7893C19.9994 20.3222 19.7661 20.574 19.2662 20.574C18.6273 20.574 17.9885 20.574 17.3497 20.574C16.8886 20.574 16.6442 20.3164 16.6387 19.8303C16.6387 15.4085 16.6387 10.9868 16.6387 6.56507C16.6387 6.06726 16.8886 5.80957 17.3608 5.80957C17.9996 5.80957 18.6385 5.80957 19.2773 5.80957C19.7439 5.80957 19.9939 6.07312 19.9939 6.57093C19.9994 8.77886 19.9994 10.9868 19.9994 13.2006Z" fill="#675ED5"/>
<path d="M12.7896 7.91192C12.0897 7.91192 11.5064 7.37897 11.4176 6.6469C11.4064 6.52977 11.362 6.48877 11.262 6.45363C10.3232 6.10809 9.38444 5.7567 8.4401 5.41701C8.37344 5.39359 8.2679 5.41702 8.21235 5.46387C7.76795 5.86797 7.27912 5.9851 6.72362 5.7567C6.62363 5.7157 6.56808 5.73327 6.49031 5.80355C5.25711 6.94559 4.0128 8.08762 2.7796 9.23551C2.72961 9.28237 2.71294 9.3995 2.72405 9.47563C2.8296 10.0847 2.67961 10.6001 2.213 10.9749C1.75194 11.3439 1.24088 11.3907 0.729825 11.0979C0.21877 10.8109 -0.0256484 10.3366 0.00212636 9.72161C0.041011 8.75527 0.990908 8.10519 1.86304 8.45073C1.9908 8.50344 2.06857 8.48587 2.16856 8.39216C3.37954 7.2677 4.59052 6.15495 5.8015 5.03634C5.89038 4.95434 5.94037 4.88406 5.90704 4.74351C5.71817 3.92358 6.20701 3.12123 6.96804 2.96896C7.7624 2.8284 8.50121 3.36135 8.61231 4.19299C8.63453 4.33355 8.68452 4.38625 8.80117 4.42725C9.71774 4.76108 10.6288 5.0949 11.5453 5.44044C11.6675 5.48729 11.7453 5.48729 11.8564 5.38188C12.2786 4.97777 12.773 4.89578 13.3062 5.10076C13.4118 5.14176 13.4729 5.14176 13.5618 5.05976C14.6728 4.05243 15.7893 3.05095 16.9059 2.05533C16.9892 1.97919 17.0058 1.91477 16.9836 1.79178C16.8003 0.942578 17.3169 0.157795 18.1502 0.0172365C18.9001 -0.111609 19.6278 0.497477 19.7111 1.32326C19.7944 2.14904 19.1723 2.89868 18.3668 2.91625C18.1724 2.92211 17.978 2.83426 17.778 2.80497C17.7169 2.79326 17.628 2.79912 17.5836 2.83426C16.4559 3.84159 15.3338 4.85478 14.2117 5.87383C14.1561 5.92068 14.1284 6.04953 14.145 6.13152C14.3172 7.06272 13.6784 7.90607 12.7896 7.91192Z" fill="#675ED5"/>
<path d="M8.92355 15.0392C8.92355 16.7084 8.92355 18.3775 8.92355 20.0408C8.92355 20.6089 8.6958 20.849 8.14586 20.849C7.52926 20.849 6.91266 20.849 6.2905 20.849C5.81278 20.849 5.56836 20.5913 5.56836 20.0935C5.56836 16.7259 5.56836 13.3643 5.56836 9.99672C5.56836 9.50476 5.80722 9.25293 6.26828 9.25293C6.91821 9.25293 7.5737 9.25293 8.22363 9.25293C8.67358 9.25293 8.91244 9.51062 8.91244 9.99086C8.92355 11.6776 8.92355 13.3584 8.92355 15.0392Z" fill="#675ED5"/>
<path d="M14.4597 15.9531C14.4597 17.2825 14.4597 18.6178 14.4597 19.9473C14.4597 20.4509 14.2208 20.7028 13.7431 20.7086C13.0987 20.7145 12.4543 20.7145 11.8044 20.7086C11.3545 20.7086 11.1045 20.4451 11.1045 19.9765C11.1045 17.2884 11.1045 14.606 11.1045 11.9179C11.1045 11.4435 11.3489 11.1858 11.7989 11.1858C12.4488 11.1858 13.1043 11.1858 13.7542 11.1858C14.2153 11.1858 14.4486 11.4435 14.4541 11.9354C14.4597 13.2766 14.4597 14.6178 14.4597 15.9531Z" fill="#675ED5"/>
<path d="M0.0407112 17.9677C0.0407112 17.2005 0.0407112 16.4332 0.0407112 15.666C0.0407112 15.1917 0.285129 14.934 0.729526 14.934C1.39057 14.934 2.04605 14.934 2.70709 14.934C3.13482 14.934 3.38479 15.1917 3.38479 15.6368C3.39035 17.1887 3.39035 18.7407 3.38479 20.2869C3.38479 20.7261 3.12371 20.9897 2.70153 20.9955C2.04049 21.0014 1.38501 21.0014 0.723971 20.9955C0.285129 20.9955 0.0351562 20.7261 0.0351562 20.2517C0.0351562 19.4845 0.0407112 18.729 0.0407112 17.9677Z" fill="#675ED5"/>
</svg>
