<svg width="18" height="18" viewBox="0 0 18 18" fill="none" xmlns="http://www.w3.org/2000/svg">
<path d="M9.35576 2.76209C10.6839 1.64302 12.2068 1.69863 13.4167 2.90805C14.0704 3.56142 14.731 4.21478 15.3846 4.8751C16.3999 5.90381 16.4903 7.41906 15.6072 8.56593C15.4959 8.71189 15.4681 8.77445 15.6489 8.88566C16.4416 9.37221 16.9075 10.0951 16.9492 11.0126C17.0118 12.1872 17.0605 13.3758 16.9284 14.5505C16.7684 15.9754 15.635 16.9832 14.1956 16.9902C10.7326 17.011 7.26965 17.011 3.80669 16.9902C2.22819 16.9832 1.0252 15.753 1.01824 14.1821C1.00434 10.7415 1.00434 7.3009 1.01824 3.86725C1.0252 2.40065 2.01263 1.23988 3.48682 1.08697C4.68286 0.961852 5.89281 0.982704 7.0958 1.08001C8.10409 1.16342 8.82728 1.72643 9.28623 2.62307C9.29318 2.66478 9.31404 2.69953 9.35576 2.76209ZM8.43092 9.03163C8.43092 7.3565 8.43092 5.67443 8.43092 3.99931C8.43092 2.8594 7.7425 2.16433 6.60904 2.15737C5.73982 2.15042 4.87061 2.15737 4.00139 2.15737C2.81231 2.15737 2.12389 2.83854 2.12389 4.02016C2.12389 7.3565 2.12389 10.6859 2.12389 14.0222C2.12389 15.19 2.8123 15.885 3.97358 15.885C4.86366 15.885 5.75373 15.8781 6.65076 15.8711C7.75641 15.8642 8.43787 15.1761 8.43787 14.0709C8.43092 12.3888 8.43092 10.7067 8.43092 9.03163ZM9.54351 12.9935C9.58524 13.0005 9.59914 13.0074 9.6061 13.0005C11.2889 11.3254 12.9787 9.65719 14.6406 7.96122C15.2664 7.32175 15.2386 6.34865 14.6197 5.70224C13.9105 4.96546 13.1873 4.25649 12.4571 3.54057C12.1373 3.22778 11.7478 3.08182 11.2959 3.08877C10.8021 3.08877 10.4266 3.31814 10.065 3.63092C9.66868 3.97151 9.52265 4.34685 9.52961 4.88205C9.56438 7.47467 9.54351 10.0673 9.54351 12.6668C9.54351 12.7781 9.54351 12.8893 9.54351 12.9935ZM9.01503 15.8711C10.8091 15.8711 12.5406 15.9059 14.2721 15.8572C15.2178 15.8294 15.8297 15.1135 15.8505 14.1682C15.8714 13.209 15.8645 12.2498 15.8505 11.2906C15.8436 10.5886 15.5168 10.0603 14.884 9.7267C14.6893 9.62244 14.5432 9.64329 14.3694 9.81706C12.8118 11.3879 11.2472 12.9449 9.68259 14.5088C9.59914 14.5922 9.49484 14.6617 9.47398 14.7799C9.41835 15.1622 9.2306 15.4888 9.01503 15.8711Z" fill="#3E3C53"/>
<path d="M6.01042 13.48C6.00346 13.8901 5.65593 14.2307 5.25279 14.2168C4.8566 14.2029 4.53687 13.8693 4.53687 13.4731C4.53687 13.063 4.87745 12.7155 5.28059 12.7155C5.68373 12.7155 6.01737 13.063 6.01042 13.48Z" fill="#3E3C53"/>
</svg>
