<svg width="18" height="18" viewBox="0 0 18 18" fill="none" xmlns="http://www.w3.org/2000/svg">
<g clip-path="url(#clip0_2093_16763)">
<path d="M8.67121 10.1115C8.67121 7.34001 10.9265 5.08316 13.696 5.08316C15.3991 5.08316 16.9082 5.93949 17.8188 7.23877C17.8061 7.17127 17.7935 7.10378 17.7766 7.03628C16.7185 2.21463 11.9298 -0.940749 6.87543 0.253064C3.00564 1.16846 -0.00841327 4.73724 1.76438e-05 8.98098C0.0210949 9.33954 0.0421722 9.69811 0.067465 10.0525C0.0801113 10.2212 0.113835 10.3857 0.143343 10.5502C0.733507 13.6592 2.47449 15.8823 5.32836 17.2111C6.92601 17.9578 8.62063 18.1349 10.3658 17.8945C11.2384 17.7722 11.9803 17.422 12.4946 16.6838C12.8445 16.1818 13.0131 15.6461 13.0173 15.0892C10.564 14.7602 8.67121 12.651 8.67121 10.1115ZM9.88948 2.24838C10.6398 2.24416 11.2426 2.84317 11.2426 3.59405C11.2426 4.34493 10.6483 4.94817 9.90213 4.95238C9.16442 4.95238 8.54475 4.33228 8.54896 3.59827C8.55318 2.86427 9.16442 2.25259 9.88948 2.24838ZM3.61266 11.242C2.86231 11.2463 2.2595 10.6473 2.2595 9.90059C2.2595 9.16237 2.87917 8.54226 3.61266 8.54648C4.34194 8.5507 4.95318 9.16237 4.9574 9.88794C4.9574 10.6388 4.36302 11.242 3.61266 11.242ZM3.60423 5.42063C3.5958 4.42086 4.40517 3.60249 5.40002 3.60249C6.39487 3.60249 7.19159 4.39977 7.1958 5.39532C7.20002 6.39508 6.41594 7.19237 5.41688 7.19658C4.42203 7.2008 3.61266 6.40774 3.60423 5.42063ZM7.20002 15.2917C6.20095 15.2917 5.41266 14.4987 5.41266 13.4989C5.41266 12.5034 6.20939 11.6976 7.20002 11.6976C8.19487 11.6976 9.00845 12.5118 9.00423 13.5073C8.9958 14.5029 8.19487 15.2959 7.20002 15.2917Z" fill="#675ED5"/>
<path d="M13.6879 9.116C13.1483 9.12021 12.7015 9.56737 12.6973 10.1031C12.6931 10.6515 13.1441 11.1071 13.6921 11.1071C14.2402 11.1071 14.687 10.6599 14.6912 10.1158C14.6912 9.56737 14.2359 9.11178 13.6879 9.116Z" fill="#675ED5"/>
<path d="M13.6959 5.80029C11.3184 5.80029 9.3877 7.73233 9.3877 10.1115C9.3877 12.4907 11.3184 14.4227 13.6959 14.4227C16.0734 14.4227 18.0041 12.4907 18.0041 10.1115C18.0041 7.73233 16.0734 5.80029 13.6959 5.80029ZM16.0355 10.9763C16.0017 11.0564 15.9638 11.1408 15.9301 11.2252C15.8458 11.4234 15.6181 11.512 15.42 11.4277C15.361 11.4024 15.302 11.377 15.243 11.3475C15.1418 11.3011 15.0828 11.3306 14.9858 11.4319C14.8973 11.5205 14.8003 11.6048 14.695 11.6681C14.4884 11.7989 14.4125 11.8073 14.4294 11.9339C14.442 12.0056 14.4505 12.0773 14.4589 12.149C14.4842 12.3599 14.3324 12.5498 14.1217 12.5751C14.0331 12.5877 13.9446 12.5962 13.8519 12.6088C13.6411 12.6341 13.4472 12.4823 13.4219 12.2713C13.4135 12.2039 13.405 12.1321 13.4008 12.0646C13.3924 11.9761 13.3544 11.9423 13.2533 11.9128C13.072 11.8622 12.8992 11.7905 12.739 11.6934C12.621 11.6259 12.5619 11.6048 12.4776 11.6723C12.427 11.7145 12.3722 11.7567 12.3174 11.7947C12.1446 11.9212 11.9043 11.8875 11.7779 11.7187C11.7231 11.647 11.6683 11.5753 11.6177 11.5036C11.4912 11.3306 11.5249 11.0902 11.6978 10.9636C11.7484 10.9257 11.7989 10.8877 11.8495 10.854C11.917 10.8076 11.9465 10.7612 11.9296 10.6641C11.8875 10.4532 11.8706 10.2339 11.858 10.0187C11.8537 9.92591 11.8242 9.87529 11.7315 9.84154C11.6725 9.82045 11.6135 9.79514 11.5587 9.76983C11.3647 9.68546 11.272 9.45766 11.3563 9.26362C11.39 9.17925 11.428 9.0991 11.4617 9.01473C11.546 8.82068 11.7694 8.72788 11.9676 8.81224C12.035 8.84177 12.1067 8.8713 12.1741 8.89661C12.2121 8.91349 12.2795 8.90505 12.3132 8.88396C12.5156 8.74475 12.7095 8.59289 12.9076 8.44946C12.9624 8.4115 12.9708 8.36931 12.9624 8.30603C12.954 8.23854 12.9455 8.16683 12.9371 8.09933C12.9118 7.88841 13.0636 7.69436 13.2743 7.66905C13.3629 7.66062 13.4514 7.64796 13.5399 7.63952C13.7507 7.61421 13.9446 7.76608 13.9699 7.977C13.9783 8.04027 13.9825 8.10777 13.991 8.17105C13.9994 8.2512 14.0247 8.28916 14.1006 8.31869C14.3198 8.40728 14.5348 8.50852 14.7582 8.59711C14.8003 8.61398 14.8678 8.60554 14.9057 8.58023C14.9647 8.53805 15.0238 8.49586 15.0828 8.45368C15.2556 8.32713 15.4959 8.36087 15.6224 8.53383C15.6772 8.60554 15.7277 8.67726 15.7825 8.74897C15.9132 8.92192 15.8753 9.16659 15.6982 9.29315C15.6561 9.32267 15.6181 9.3522 15.576 9.37751C15.4748 9.44501 15.4495 9.52094 15.479 9.64749C15.5254 9.84576 15.5507 10.0482 15.5549 10.2507C15.5549 10.3351 15.5802 10.3688 15.6434 10.3984C15.7109 10.4279 15.7783 10.4532 15.8458 10.4827C16.027 10.5545 16.1198 10.7822 16.0355 10.9763Z" fill="#675ED5"/>
</g>
<defs>
<clipPath id="clip0_2093_16763">
<rect width="18" height="18" fill="white"/>
</clipPath>
</defs>
</svg>
