<svg width="18" height="18" viewBox="0 0 18 18" fill="none" xmlns="http://www.w3.org/2000/svg">
<g clip-path="url(#clip0_2093_16827)">
<path d="M14.9919 0H3.00806C1.35411 0 0 1.35411 0 3.00806V14.9919C0 16.6459 1.35411 18 3.00806 18H14.9919C16.6459 18 18 16.6459 18 14.9919V3.00806C18 1.35411 16.6459 0 14.9919 0ZM6.92531 13.8941C6.92531 14.0199 6.81891 14.1263 6.69317 14.1214C6.12251 14.1118 5.55185 14.1263 5.05373 13.7587C4.75873 13.5411 4.56529 13.2413 4.53627 12.8737C4.48307 12.1773 4.45889 11.4809 4.41537 10.7797C4.41053 10.6733 4.39119 10.5621 4.36217 10.4605C4.22676 9.95755 4.01397 9.7496 3.47716 9.65771C3.37077 9.63837 3.28855 9.54648 3.28855 9.44009C3.28855 9.10156 3.28855 8.76303 3.29339 8.4245C3.29339 8.39065 3.3756 8.33745 3.41913 8.33262C4.1252 8.31811 4.37668 7.74745 4.41053 7.2058C4.44922 6.57711 4.46373 5.94841 4.49758 5.31972C4.53143 4.67168 4.98603 4.11553 5.61956 3.98012C5.96292 3.90274 6.31596 3.89307 6.67867 3.86889C6.80924 3.85922 6.92047 3.96561 6.92047 4.09618V4.93283C6.92047 5.0489 6.82859 5.15046 6.71252 5.15529L6.46588 5.1698C6.03546 5.19398 5.87104 5.36325 5.85653 5.78882C5.83718 6.28694 5.80817 6.78506 5.78399 7.28318C5.75497 7.89737 5.58087 8.43417 5.09726 8.81623C4.98603 8.90811 4.98119 9.07738 5.09726 9.16443C5.12628 9.18861 5.15046 9.20795 5.17947 9.23213C5.57603 9.58033 5.72595 10.0446 5.76948 10.5427C5.81784 11.0844 5.83235 11.6308 5.85653 12.1773C5.87587 12.5836 6.02096 12.7577 6.42235 12.806C6.51908 12.8205 6.6158 12.8254 6.71252 12.835C6.83342 12.8447 6.92531 12.9463 6.92531 13.0623V13.8941ZM14.6824 9.6432C13.9522 9.66738 13.6717 10.1123 13.6185 10.7894C13.5701 11.3745 13.575 11.9597 13.5363 12.5449C13.4686 13.5121 13.0478 13.957 12.0854 14.0779C11.834 14.1069 11.5825 14.1166 11.3165 14.1263C11.2004 14.1311 11.1037 14.0392 11.1037 13.9232V13.0382C11.1037 12.9318 11.1859 12.8399 11.2923 12.835C11.3939 12.8254 11.4906 12.8205 11.5922 12.8109C11.9984 12.7722 12.1531 12.6029 12.1725 12.1967C12.1967 11.6647 12.216 11.1327 12.2547 10.6008C12.2982 10.0107 12.4917 9.50296 12.9608 9.14508C13.0623 9.06771 13.0623 8.91295 12.9608 8.83557C12.9076 8.79205 12.8592 8.75336 12.8109 8.70983C12.4481 8.38581 12.2982 7.95056 12.2595 7.4863C12.2112 6.92047 12.1967 6.35465 12.1725 5.78882C12.1531 5.35357 11.9984 5.19398 11.5631 5.1698L11.2923 5.15529C11.1859 5.15046 11.1037 5.06341 11.1037 4.95701V4.06233C11.1037 3.94143 11.2053 3.84954 11.3262 3.85922C11.7276 3.89307 12.1193 3.90758 12.4965 4.0043C13.1832 4.1784 13.4927 4.69586 13.5314 5.38259C13.5701 6.00161 13.575 6.62063 13.6185 7.23966C13.633 7.44761 13.7007 7.65556 13.7829 7.84901C13.9135 8.16335 14.194 8.28426 14.5132 8.33262C14.5277 8.33262 14.5422 8.33745 14.5615 8.33745C14.6582 8.35196 14.7308 8.43417 14.7308 8.5309V9.62386C14.7066 9.63353 14.6969 9.6432 14.6824 9.6432Z" fill="#675ED5"/>
<path d="M10.5432 5.8227C10.2966 6.70287 10.0548 7.57337 9.80811 8.44387C9.44057 9.73995 9.06335 11.036 8.70548 12.3321C8.65228 12.5255 8.58458 12.5884 8.37179 12.5159C8.13482 12.4337 7.88818 12.3708 7.6367 12.3321C7.42875 12.2982 7.41907 12.216 7.46744 12.0564C7.95105 10.3783 8.42499 8.70018 8.90376 7.02205C9.03917 6.55295 9.17458 6.07901 9.30032 5.60991C9.34385 5.45515 9.41155 5.40196 9.58565 5.45032C9.85647 5.53253 10.1321 5.59056 10.403 5.66311C10.4755 5.68729 10.6109 5.68729 10.5432 5.8227Z" fill="white"/>
</g>
<defs>
<clipPath id="clip0_2093_16827">
<rect width="18" height="18" fill="white"/>
</clipPath>
</defs>
</svg>
