<svg width="16" height="16" viewBox="0 0 16 16" fill="none" xmlns="http://www.w3.org/2000/svg">
<g clip-path="url(#clip0_2415_14768)">
<path d="M9.925 12.6667C10.0167 13.2667 10.1083 13.8417 10.1833 14.4167C10.2083 14.6167 10.3083 14.6833 10.5167 14.675C10.875 14.6583 11.2417 14.6667 11.6 14.675C12.05 14.6833 12.3333 14.95 12.3333 15.35C12.325 15.7333 12.05 16.0083 11.625 16.0083C9.20833 16.0167 6.79167 16.0167 4.375 16.0083C3.95 16.0083 3.675 15.7417 3.66667 15.3583C3.65833 14.9583 3.94167 14.6833 4.39167 14.675C4.75 14.6667 5.11667 14.6583 5.475 14.6833C5.70833 14.7 5.79167 14.6 5.81667 14.3917C5.89167 13.8333 5.98333 13.2667 6.075 12.675C4.775 12.675 3.48333 12.675 2.19167 12.675C0.816667 12.6667 0 11.85 0 10.475C0 7.69167 0 4.91667 0 2.14167C0 0.841667 0.833333 0 2.125 0C6.04167 0 9.95833 0 13.875 0C15.1667 0 16 0.841667 16 2.13333C16 4.94167 16 7.74167 16 10.55C16 11.8167 15.1583 12.6667 13.9 12.6667C12.575 12.6667 11.2583 12.6667 9.925 12.6667ZM8.00833 8.80833C10.0917 8.80833 12.175 8.8 14.2583 8.81667C14.5583 8.81667 14.6833 8.775 14.6833 8.425C14.6667 6.34167 14.675 4.25833 14.675 2.175C14.675 1.58333 14.4333 1.34167 13.85 1.34167C9.95 1.34167 6.05 1.34167 2.15 1.34167C1.58333 1.33333 1.33333 1.58333 1.33333 2.14167C1.33333 4.24167 1.34167 6.33333 1.325 8.43333C1.325 8.75833 1.41667 8.81667 1.71667 8.81667C3.81667 8.8 5.90833 8.80833 8.00833 8.80833ZM8.00833 10.1417C5.95833 10.1417 3.9 10.1417 1.85 10.1417C1.34167 10.1417 1.18333 10.375 1.375 10.875C1.51667 11.2333 1.80833 11.3333 2.175 11.3333C4.85 11.325 7.525 11.3333 10.2083 11.3333C11.4417 11.3333 12.675 11.3333 13.9083 11.3333C14.3667 11.3333 14.6333 11.1 14.6667 10.6833C14.7167 10.1417 14.7167 10.1417 14.1667 10.1417C12.1083 10.1417 10.0583 10.1417 8.00833 10.1417ZM7.11667 14.6667C7.45 14.6667 7.75 14.6667 8.05 14.6667C8.30833 14.6667 8.65833 14.6917 8.80833 14.6167C8.88333 14.5833 8.79167 14.1333 8.75 13.8833C8.73333 13.75 8.70833 13.6083 8.68333 13.475C8.53333 12.6167 8.79167 12.65 7.65833 12.6583C7.49167 12.6583 7.425 12.6917 7.4 12.875C7.325 13.4667 7.21667 14.05 7.11667 14.6667Z" fill="#3E3C53"/>
</g>
<defs>
<clipPath id="clip0_2415_14768">
<rect width="16" height="16" fill="white"/>
</clipPath>
</defs>
</svg>
