<svg width="18" height="18" viewBox="0 0 18 18" fill="none" xmlns="http://www.w3.org/2000/svg">
<g clip-path="url(#clip0_2093_16796)">
<path d="M14.3889 1.49061C14.5294 1.49061 14.6629 1.49061 14.8104 1.49061C14.6067 0.674989 13.7284 0.00702036 12.8291 0.00702036C9.26709 -1.08944e-05 5.71205 -0.00704214 2.14999 0.00702036C1.01885 0.0140516 0.0141618 1.02655 0.00713609 2.15858C-0.00691543 5.72343 0.000110327 9.28124 0.00713609 12.8461C0.00713609 13.725 0.611352 14.5266 1.48957 14.843C1.48957 14.6742 1.48957 14.5336 1.48957 14.393C1.48957 11.4047 1.48255 8.4164 1.4966 5.42811C1.4966 4.94296 1.57388 4.44374 1.72845 3.98671C2.24835 2.4539 3.66053 1.50468 5.35374 1.49765C8.36779 1.49061 11.3748 1.49061 14.3889 1.49061Z" fill="#675ED5"/>
<path d="M9.28086 9.28822C8.69772 9.86479 8.59936 10.8351 9.08413 11.4538C9.2106 11.3132 9.35111 11.1867 9.46352 11.039C9.50568 10.9898 9.52676 10.8984 9.5127 10.8351C9.39327 10.4343 9.47055 10.0757 9.76563 9.78041C10.0607 9.4851 10.419 9.40776 10.8195 9.53432C10.8687 9.54838 10.953 9.54838 10.9951 9.51322C11.1497 9.38666 11.2902 9.24604 11.4378 9.10541C10.8265 8.62025 9.86399 8.71869 9.28086 9.28822Z" fill="#675ED5"/>
<path d="M18.0004 5.42113C18.0144 4.14145 17.0449 2.98129 15.5765 3.00238C12.1901 3.04457 8.81067 3.04457 5.42426 3.00238C4.06828 2.98129 2.95119 4.04301 2.99334 5.44926C3.04955 7.13676 3.00739 8.82426 3.00739 10.5118C3.00739 12.2344 3.00037 13.9571 3.00739 15.6797C3.01442 17.0579 3.97695 18.0071 5.36102 18.0071C8.78257 18.0071 12.1971 18.0071 15.6186 18.0071C17.0308 18.0071 17.9863 17.0438 17.9863 15.6164C17.9863 12.2133 17.9652 8.81723 18.0004 5.42113ZM7.41957 13.0993C7.62332 12.9094 7.84112 12.7196 8.03081 12.5508C7.63035 12.136 7.25798 11.7704 6.92074 11.3836C6.73105 11.1657 6.59053 10.8985 6.44299 10.6454C6.40084 10.575 6.40084 10.4625 6.44299 10.3922C7.16664 9.07035 8.21348 8.14926 9.72402 7.84692C10.5601 7.67816 11.3751 7.7766 12.1549 8.12817C12.2884 8.19145 12.3657 8.17035 12.4641 8.06488C12.5132 8.01567 12.5624 7.95941 12.6116 7.9102C12.8575 7.65707 13.258 7.6641 13.4969 7.92426C11.7896 9.63285 10.0542 11.3696 8.29779 13.1204C8.05189 13.3524 7.65845 13.3454 7.41957 13.0993ZM14.5437 10.6313C13.813 11.9602 12.7662 12.8743 11.2486 13.1907C10.6866 13.3102 9.87156 13.268 9.37273 13.0852C9.66079 12.7969 9.93479 12.5297 10.2088 12.2625C10.2439 12.2274 10.3142 12.2204 10.3704 12.2204C11.3821 12.3188 12.3095 11.3977 12.2041 10.3993C12.1971 10.343 12.2111 10.2586 12.2463 10.2235C12.6467 9.80863 13.0542 9.40785 13.4758 8.98598C13.9325 9.41488 14.2908 9.90004 14.5718 10.4485C14.5929 10.4907 14.5718 10.575 14.5437 10.6313Z" fill="#675ED5"/>
</g>
<defs>
<clipPath id="clip0_2093_16796">
<rect width="18" height="18" fill="white"/>
</clipPath>
</defs>
</svg>
