<svg width="20" height="16" viewBox="0 0 20 16" fill="none" xmlns="http://www.w3.org/2000/svg">
<g clip-path="url(#clip0_2240_5284)">
<path d="M0 1.9516V13.2943C0 14.3716 0.874317 15.2459 1.9516 15.2459H18.0484C19.1257 15.2459 20 14.3716 20 13.2943V1.9516C20 0.874317 19.1257 0 18.0484 0H1.9516C0.874317 0 0 0.874317 0 1.9516ZM18.4778 12.8962C15.644 12.8806 12.8103 12.8884 9.96877 12.8884C7.21311 12.8884 4.45746 12.8884 1.69399 12.8806C1.53005 12.8806 1.37393 12.904 1.35051 12.7244C1.31148 12.4434 1.26464 12.1546 1.4598 11.8423C1.53005 11.733 1.56128 11.655 1.7018 11.5379C3.80172 9.84387 3.96565 9.75019 5.71429 8.67291C6.01873 8.48556 6.0968 8.36846 6.37002 8.6573C6.9477 9.28962 7.58782 9.86729 8.1733 10.4918C8.38407 10.7104 8.48556 10.6792 8.68852 10.484C10.8509 8.30601 13.0289 6.14364 15.1913 3.96565C15.4098 3.74707 15.5191 3.76269 15.7299 3.97346C16.6745 4.94145 17.6347 5.89383 18.5948 6.84621C18.7588 7.00234 18.8212 7.16628 18.8212 7.39266C18.8134 9.50039 18.8212 10.4372 18.8368 12.5449C18.8447 12.8259 18.7744 12.8962 18.4778 12.8962ZM7.42389 4.27791C7.43169 5.57377 6.39344 6.63544 5.08977 6.63544C3.80952 6.64325 2.74785 5.605 2.74005 4.33255C2.73224 3.03669 3.77049 1.98283 5.07416 1.97502C6.35441 1.96721 7.40827 3.00546 7.42389 4.27791Z" fill="white"/>
</g>
<defs>
<clipPath id="clip0_2240_5284">
<rect width="20" height="15.2459" fill="white"/>
</clipPath>
</defs>
</svg>
