<svg width="18" height="18" viewBox="0 0 18 18" fill="none" xmlns="http://www.w3.org/2000/svg">
<g clip-path="url(#clip0_2477_17200)">
<path d="M0.0425534 13.1555C0.133853 13.0922 0.190037 13.057 0.246221 13.0078C1.3699 12.0727 2.50061 11.1375 3.61727 10.2023C4.50217 9.46406 5.07806 9.46406 5.96998 10.2164C6.46862 10.6383 6.97427 11.0531 7.52207 11.5102C7.61337 11.3977 7.69062 11.2922 7.78192 11.2008C9.2708 9.71016 10.7527 8.2125 12.2486 6.72187C12.9438 6.02578 13.8217 6.05391 14.4538 6.77813C15.0929 7.50938 15.725 8.24766 16.357 8.98594C16.8838 9.59062 17.4035 10.1953 17.9934 10.8773C17.9934 10.6805 17.9934 10.582 17.9934 10.4766C17.9934 7.76953 17.9934 5.0625 17.9934 2.35547C18.0004 1.00547 16.9961 0 15.6477 0C11.2232 0 6.7987 0 2.3742 0C1.02578 0 0.0214844 1.00547 0.0214844 2.35547C0.0214844 5.85 0.0214844 9.3375 0.0214844 12.832C0.0214844 12.9234 0.0355304 13.0219 0.0425534 13.1555ZM5.66799 2.22187C7.07962 2.20781 8.23842 3.36094 8.23842 4.77422C8.23842 6.17344 7.09367 7.3125 5.69608 7.31953C4.27743 7.31953 3.11864 6.18047 3.11864 4.77422C3.12566 3.375 4.26339 2.23594 5.66799 2.22187Z" fill="#675ED5"/>
<path d="M5.70257 6.25784C6.51022 6.25081 7.17741 5.58284 7.17741 4.78127C7.18443 3.96565 6.5032 3.29065 5.6815 3.29065C4.85279 3.29065 4.17858 3.97268 4.1856 4.78127C4.19262 5.60393 4.87386 6.26487 5.70257 6.25784Z" fill="#675ED5"/>
<path d="M17.9933 12.7266C17.9933 12.6 17.9441 12.4453 17.8669 12.3539C16.5114 10.7719 15.149 9.19689 13.7865 7.62189C13.3932 7.16485 13.3089 7.16485 12.8735 7.60079C11.2723 9.21095 9.664 10.8211 8.06275 12.4313C7.66244 12.832 7.47282 12.8461 7.04441 12.4875C6.44043 11.9883 5.83645 11.482 5.23247 10.9828C4.81109 10.6383 4.75491 10.6383 4.34055 10.9899C3.16068 11.9742 2.00891 12.9867 0.793924 13.9219C0.203991 14.3719 -0.0277691 14.8359 0.00734599 15.5813C0.0705532 17.0156 0.997592 18 2.44433 18C4.63552 18 6.81968 18 9.01086 18C11.2442 18 13.4845 18.007 15.7178 18C16.975 17.993 17.9863 16.9805 18.0003 15.7219C18.0073 14.7164 18.0003 13.725 17.9933 12.7266ZM13.1474 17.5711C11.0826 17.5711 9.40415 15.8906 9.40415 13.8234C9.40415 11.7563 11.0826 10.0758 13.1474 10.0758C15.2122 10.0758 16.8907 11.7563 16.8907 13.8234C16.8907 15.8906 15.2122 17.5711 13.1474 17.5711Z" fill="#675ED5"/>
<path d="M13 10C10.7857 10 9 11.7946 9 14C9 16.2143 10.7946 18 13 18C15.2143 18 17 16.2054 17 14C17 11.7946 15.2143 10 13 10ZM15.3929 14.4554C15.3661 14.4732 15.3393 14.4821 15.3036 14.4911C14.9464 14.6518 14.8393 14.9196 14.9821 15.2857C15.0268 15.4107 15.0536 15.5357 15.0179 15.6607C14.9554 15.8929 14.7589 16.0357 14.5089 16.0357C14.4464 16.0357 14.375 16.0179 14.3125 15.9911C14.2232 15.9464 14.1339 15.9375 14.0446 15.9286C13.8661 15.9107 13.7232 15.9821 13.6071 16.125C13.5446 16.2054 13.5 16.2946 13.4554 16.3839C13.3571 16.5714 13.2054 16.6696 13 16.6696C12.7946 16.6696 12.6339 16.5625 12.5357 16.3839C12.5179 16.3571 12.5089 16.3214 12.4911 16.2857C12.3304 15.9464 12.0714 15.8393 11.7143 15.9732C11.5804 16.0268 11.4554 16.0446 11.3214 16.0089C11.0357 15.9196 10.8839 15.625 10.9821 15.3393C11.0089 15.2768 11.0357 15.2054 11.0446 15.1429C11.0982 14.8214 10.9911 14.625 10.6607 14.4821C10.5357 14.4286 10.4375 14.3482 10.375 14.2232C10.2411 13.9732 10.3482 13.6518 10.6071 13.5357C10.6429 13.5179 10.6786 13.5089 10.7143 13.4911C11.0357 13.3304 11.1518 13.0714 11.0179 12.7411C10.9286 12.5 10.9196 12.2857 11.1071 12.1071C11.2857 11.9286 11.5 11.9375 11.7321 12.0268C12.0804 12.1607 12.3482 12.0357 12.5 11.6696C12.5536 11.5357 12.6429 11.4375 12.7679 11.375C13.0179 11.25 13.3304 11.3571 13.4464 11.6071C13.4554 11.6339 13.4732 11.6607 13.4821 11.6786C13.6429 12.0357 13.9107 12.1429 14.2768 12C14.375 11.9643 14.4732 11.9375 14.5804 11.9554C14.9196 12.0089 15.1161 12.3304 14.9911 12.6518C14.9375 12.7768 14.9018 12.9107 14.9196 13.0446C14.9464 13.2946 15.125 13.4107 15.3304 13.5C15.4732 13.5625 15.5714 13.6607 15.625 13.8036C15.7321 14.0536 15.625 14.3393 15.3929 14.4554Z" fill="#675ED5"/>
<path d="M13 12C11.9091 12 11 12.9132 11 14.009C11 15.1048 11.9091 16.018 13 15.9997C14.0909 15.9997 15 15.0865 15 13.9907C15 12.8949 14.0909 12 13 12Z" fill="#675ED5"/>
<path d="M15.6187 13.4433C15.3883 13.3431 15.188 13.2028 15.158 12.9323C15.138 12.782 15.188 12.6317 15.2381 12.4915C15.3783 12.1308 15.158 11.7701 14.7774 11.71C14.6573 11.69 14.5471 11.72 14.4369 11.7601C14.0263 11.9204 13.7359 11.8002 13.5456 11.3994C13.5356 11.3694 13.5156 11.3393 13.5056 11.3193C13.3654 11.0387 13.0249 10.9185 12.7445 11.0588C12.6042 11.1289 12.5041 11.2391 12.444 11.3894C12.2738 11.7902 11.9733 11.9404 11.5828 11.7902C11.3224 11.69 11.082 11.6799 10.8817 11.8803C10.6714 12.0807 10.6814 12.3312 10.7816 12.5917C10.9318 12.9624 10.8016 13.2529 10.4411 13.4333C10.401 13.4533 10.361 13.4633 10.3209 13.4834C10.0305 13.6236 9.92032 13.9743 10.0605 14.2548C10.1306 14.3951 10.2408 14.4852 10.381 14.5454C10.7515 14.7057 10.8717 14.9261 10.8116 15.2868C10.8016 15.3669 10.7716 15.437 10.7415 15.5072C10.6314 15.8278 10.7916 16.1584 11.1221 16.2586C11.2723 16.3087 11.4225 16.2786 11.5627 16.2185C11.9533 16.0682 12.2537 16.1885 12.434 16.5692C12.454 16.5992 12.464 16.6393 12.4841 16.6794C12.5942 16.8898 12.7745 17 13.0048 17C13.2352 17 13.4154 16.8798 13.5156 16.6794C13.5657 16.5792 13.6157 16.479 13.6858 16.3888C13.816 16.2285 13.9763 16.1484 14.1765 16.1684C14.2767 16.1784 14.3869 16.1985 14.477 16.2386C14.5471 16.2686 14.6272 16.2887 14.6973 16.2887C14.9777 16.2887 15.198 16.1183 15.2681 15.8679C15.3082 15.7276 15.2882 15.5873 15.2281 15.4471C15.0679 15.0363 15.188 14.7457 15.5886 14.5554C15.6187 14.5454 15.6487 14.5253 15.6888 14.5153C15.9491 14.3851 16.0693 14.0645 15.9592 13.7939C15.8891 13.6236 15.7789 13.5134 15.6187 13.4433ZM12.9948 15.0864C12.3939 15.0864 11.8932 14.5955 11.8932 13.9943C11.8932 13.3932 12.3839 12.8922 12.9948 12.8922C13.5957 12.8922 14.0964 13.3832 14.0964 13.9943C14.0964 14.5854 13.6057 15.0864 12.9948 15.0864Z" fill="#675ED5"/>
</g>
<defs>
<clipPath id="clip0_2477_17200">
<rect width="18" height="18" fill="white"/>
</clipPath>
</defs>
</svg>
