<svg width="24" height="24" viewBox="0 0 24 24" fill="none" xmlns="http://www.w3.org/2000/svg">
<path d="M4.9238 13.5469C5.22333 13.3031 5.5603 13.0781 5.916 12.9656C6.65547 12.7219 7.27325 13.0406 7.83487 13.5281C8.54626 14.1281 9.25765 14.7188 10.0252 15.3563C10.1656 15.1875 10.2592 15.0469 10.3809 14.925C12.3372 12.9563 14.3029 10.9875 16.2686 9.01875C17.2889 7.99687 18.4402 8.05312 19.3669 9.15937C19.7787 9.64687 20.1999 10.1344 20.6211 10.6125C21.7069 11.8781 22.8021 13.1344 23.9815 14.5031C23.9815 14.2125 23.9815 14.0531 23.9815 13.9031C23.9815 10.3594 23.9815 6.80625 23.9815 3.2625C23.9815 1.30312 22.6898 0.009375 20.7335 0C14.9207 0.009375 9.10788 0.009375 3.28573 0.009375C1.32941 0.009375 0.0283203 1.30312 0.0283203 3.2625C0.0283203 7.85625 0.0283203 12.45 0.0283203 17.0438C0.0283203 17.1938 0.0283203 17.3438 0.0283203 17.5781C0.178086 17.475 0.26233 17.4188 0.346573 17.3531C1.87231 16.0781 3.38869 14.8031 4.9238 13.5469ZM7.56342 2.97188C9.44486 2.9625 10.9893 4.5 10.98 6.38437C10.98 8.25 9.45422 9.76875 7.58214 9.76875C5.69135 9.76875 4.14689 8.23125 4.15625 6.36563C4.17497 4.5 5.70071 2.98125 7.56342 2.97188Z" fill="#675ED5"/>
<path d="M7.56317 8.3529C8.66769 8.3529 9.56629 7.46228 9.56629 6.3654C9.56629 5.2779 8.65833 4.3779 7.55381 4.38728C6.468 4.39665 5.58813 5.25915 5.56941 6.34665C5.56005 7.43415 6.468 8.3529 7.56317 8.3529Z" fill="#675ED5"/>
<path d="M23.9813 16.9408C23.9813 16.7721 23.897 16.5752 23.7847 16.4533C21.9781 14.344 20.1622 12.244 18.3463 10.144C17.8596 9.58147 17.7192 9.58147 17.195 10.1065C15.0327 12.2721 12.8798 14.4471 10.7176 16.6127C10.2121 17.119 9.95005 17.1283 9.39779 16.669C8.60216 16.0127 7.81589 15.3471 7.02025 14.6908C6.41183 14.1846 6.34631 14.194 5.7566 14.6908C4.20278 15.994 2.67704 17.3346 1.06706 18.5721C0.280784 19.1533 -0.0468291 19.7721 -2.72086e-05 20.7658C0.0935765 22.6971 1.32915 24.0096 3.24802 24.0096C6.16846 24.0096 9.07954 24.0096 12 24.0096C14.9766 24.0096 17.9625 24.019 20.9391 24.0096C22.5772 24.0096 23.9532 22.6783 23.9813 21.0658C24.0093 19.6877 24 18.3096 23.9813 16.9408ZM17.6256 22.9502C15.0608 22.9502 12.9828 20.869 12.9828 18.3002C12.9828 15.7315 15.0608 13.6502 17.6256 13.6502C20.1903 13.6502 22.2683 15.7315 22.2683 18.3002C22.2683 20.869 20.1809 22.9502 17.6256 22.9502Z" fill="#675ED5"/>
<circle cx="17.5" cy="18.5093" r="5.5" fill="#675ED5"/>
</svg>
