<svg width="15" height="15" viewBox="0 0 15 15" fill="none" xmlns="http://www.w3.org/2000/svg">
<g clip-path="url(#clip0_3786_17747)">
<path d="M3.07725 8.46094C3.26446 8.30859 3.47507 8.16797 3.69738 8.09766C4.15954 7.94531 4.54566 8.14453 4.89667 8.44922C5.34129 8.82422 5.78591 9.19336 6.26563 9.5918C6.35338 9.48633 6.41188 9.39844 6.48794 9.32227C7.71064 8.0918 8.93919 6.86133 10.1677 5.63086C10.8054 4.99219 11.525 5.02734 12.1042 5.71875C12.3616 6.02344 12.6248 6.32812 12.8881 6.62695C13.5667 7.41797 14.2512 8.20313 14.9883 9.05859C14.9883 8.87695 14.9883 8.77734 14.9883 8.68359C14.9883 6.46875 14.9883 4.24805 14.9883 2.0332C14.9883 0.808594 14.181 0 12.9583 -0.00585938C9.3253 0 5.69231 0 2.05346 0C0.830761 0 0.0175781 0.808594 0.0175781 2.0332C0.0175781 4.9043 0.0175781 7.77539 0.0175781 10.6465C0.0175781 10.7402 0.0175781 10.834 0.0175781 10.9805C0.111182 10.916 0.163834 10.8809 0.216486 10.8398C1.17007 10.043 2.11781 9.24609 3.07725 8.46094ZM4.72702 1.85156C5.90291 1.8457 6.8682 2.80664 6.86235 3.98438C6.86235 5.15039 5.90876 6.09961 4.73872 6.09961C3.55697 6.09961 2.59168 5.13867 2.59753 3.97266C2.60923 2.80664 3.56282 1.85742 4.72702 1.85156Z" fill="white"/>
<path d="M4.72661 5.21489C5.41694 5.21489 5.97856 4.65825 5.97856 3.9727C5.97856 3.29301 5.41109 2.73051 4.72076 2.73637C4.04214 2.74223 3.49221 3.2813 3.48051 3.96098C3.47466 4.64067 4.04214 5.21489 4.72661 5.21489Z" fill="white"/>
<path d="M14.9881 10.5821C14.9881 10.4766 14.9354 10.3536 14.8652 10.2774C13.7362 8.95906 12.6012 7.64656 11.4663 6.33406C11.162 5.9825 11.0743 5.9825 10.7467 6.31062C9.39528 7.66414 8.04972 9.02351 6.69832 10.377C6.38241 10.6934 6.2186 10.6993 5.87344 10.4122C5.37616 10.002 4.88475 9.58601 4.38748 9.17586C4.00721 8.85945 3.96626 8.86531 3.59769 9.17586C2.62655 9.99031 1.67297 10.8282 0.666727 11.6016C0.175307 11.9649 -0.0294513 12.3516 -0.000200111 12.9727C0.0583022 14.1798 0.830533 15.0001 2.02983 15.0001C3.8551 15.0001 5.67453 15.0001 7.4998 15.0001C9.36018 15.0001 11.2264 15.0059 13.0868 15.0001C14.1106 15.0001 14.9706 14.168 14.9881 13.1602C15.0057 12.2989 14.9998 11.4376 14.9881 10.5821ZM11.0158 14.338C9.41283 14.338 8.11407 13.0372 8.11407 11.4317C8.11407 9.82625 9.41283 8.52547 11.0158 8.52547C12.6188 8.52547 13.9175 9.82625 13.9175 11.4317C13.9175 13.0372 12.6129 14.338 11.0158 14.338Z" fill="white"/>
<path d="M11.0156 9.22852C9.79875 9.22852 8.81006 10.2187 8.81006 11.4375C8.81006 12.6562 9.79875 13.6465 11.0156 13.6465C12.2324 13.6465 13.2211 12.6562 13.2211 11.4375C13.2153 10.2187 12.2324 9.22852 11.0156 9.22852ZM10.0737 11.6484C10.0679 11.6777 10.0562 11.7012 10.0211 11.7012C9.98596 11.7012 9.98011 11.6719 9.97425 11.6426C9.86895 11.0801 10.2024 10.5469 10.7523 10.4004C10.8225 10.3828 10.8927 10.377 10.9629 10.3652C10.9629 10.3301 10.9571 10.3008 10.9629 10.2656C10.9629 10.248 10.9746 10.2188 10.9922 10.2129C11.0097 10.207 11.039 10.2129 11.0507 10.2246C11.1911 10.3477 11.3374 10.4648 11.4778 10.5879C11.5129 10.6172 11.5129 10.6465 11.4778 10.6758C11.3374 10.793 11.2028 10.916 11.0624 11.0332C11.0448 11.0508 11.0214 11.0625 10.998 11.0508C10.9688 11.0391 10.9688 11.0156 10.9688 10.9863C10.9688 10.957 10.9688 10.9277 10.9688 10.8867C10.8986 10.8984 10.8342 10.9043 10.7699 10.9277C10.4013 11.0449 10.1732 11.2852 10.0737 11.6484ZM11.2438 12.4746C11.1853 12.4863 11.1268 12.4922 11.0624 12.5039C11.0624 12.5332 11.0624 12.5684 11.0624 12.5977C11.0624 12.6211 11.0565 12.6504 11.0331 12.6563C11.0156 12.6621 10.9863 12.6504 10.9688 12.6387C10.8284 12.5215 10.6938 12.4043 10.5534 12.2813C10.5125 12.2461 10.5125 12.2168 10.5534 12.1816C10.688 12.0645 10.8225 11.9473 10.9571 11.8301C10.9629 11.8242 10.9688 11.8184 10.9746 11.8125C11.0156 11.7832 11.0565 11.8008 11.0565 11.8535C11.0565 11.8887 11.0565 11.9238 11.0565 11.9648C11.2847 11.9473 11.4778 11.8711 11.6416 11.7246C11.7937 11.5898 11.899 11.4199 11.9458 11.2207C11.9516 11.1914 11.9633 11.168 11.9984 11.168C12.0335 11.168 12.0452 11.1914 12.0511 11.2207C12.1681 11.8008 11.8112 12.3457 11.2438 12.4746Z" fill="white"/>
</g>
<defs>
<clipPath id="clip0_3786_17747">
<rect width="15" height="15" fill="white"/>
</clipPath>
</defs>
</svg>
