<svg width="14" height="14" viewBox="0 0 14 14" fill="none" xmlns="http://www.w3.org/2000/svg">
<g clip-path="url(#clip0_2232_6484)">
<path d="M6.96951 14C5.52439 14 4.08537 14 2.64024 14C1.03049 14 0 12.9634 0 11.3476C0 8.42073 0 5.4939 0 2.56707C0 1.33537 0.713415 0.384146 1.85366 0.0914634C2.06098 0.0365854 2.27439 0.00609756 2.48171 0.00609756C3.73171 0 4.98171 0 6.23171 0C6.31098 0 6.39634 0.00609756 6.46951 0.0304878C6.73171 0.103659 6.85366 0.292683 6.82317 0.554878C6.79268 0.810976 6.63415 0.957317 6.37805 0.963415C5.95122 0.97561 5.52439 0.969512 5.09756 0.969512C4.2561 0.969512 3.40854 0.963415 2.56707 0.969512C1.60366 0.97561 0.981707 1.59146 0.981707 2.54878C0.97561 5.51829 0.97561 8.47561 0.97561 11.4268C0.97561 12.4085 1.59756 13.0183 2.57927 13.0183C5.52439 13.0244 8.46951 13.0244 11.4207 13.0183C12.4024 13.0183 13.0183 12.4024 13.0244 11.4207C13.0305 10.1707 13.0244 8.92073 13.0305 7.67073C13.0305 7.36585 13.2134 7.17683 13.4878 7.17073C13.7622 7.15854 13.9573 7.32927 14 7.62805C14.0122 7.69512 14.0061 7.76829 14.0061 7.84146C14.0061 9.04268 14.0122 10.2378 14 11.439C14 11.6707 13.9756 11.9085 13.9207 12.1341C13.6402 13.2622 12.689 13.9939 11.4878 14C9.97561 14.0061 8.47561 14 6.96951 14Z" fill="white"/>
<path d="M6.72249 8.00217C7.6907 8.00217 8.57147 7.99593 9.45223 8.00217C9.78955 8.00217 9.98319 8.18331 9.98944 8.47688C9.99568 8.77045 9.81453 8.98907 9.48971 8.99532C8.17169 9.00156 6.84742 9.00156 5.52939 8.99531C5.20457 8.99531 5.00468 8.78919 5.00468 8.4519C4.99844 7.1527 4.99844 5.85349 5.00468 4.54804C5.00468 4.19826 5.21082 3.99838 5.51066 4.00463C5.81049 4.00463 5.99164 4.2045 5.99789 4.56678C6.00413 5.44125 5.99789 6.31571 5.99789 7.26513C6.12282 7.1527 6.20402 7.08399 6.27274 7.01528C7.84062 5.44749 9.40851 3.8797 10.9764 2.31192C11.0576 2.23072 11.1326 2.14327 11.2325 2.08705C11.4511 1.95588 11.6698 1.96838 11.8572 2.15576C12.0321 2.3369 12.0383 2.54927 11.9196 2.75539C11.8634 2.84909 11.776 2.93029 11.6947 3.01149C10.1331 4.57303 8.57771 6.12832 7.01607 7.68987C6.93487 7.77107 6.85991 7.85851 6.72249 8.00217Z" fill="white"/>
</g>
<defs>
<clipPath id="clip0_2232_6484">
<rect width="14" height="14" fill="white"/>
</clipPath>
</defs>
</svg>
