<svg width="14" height="14" viewBox="0 0 14 14" fill="none" xmlns="http://www.w3.org/2000/svg">
<g clip-path="url(#clip0_2419_9602)">
<path d="M0.00334573 7.17807C0.00334573 7.23339 0.00334573 7.29217 0.00334573 7.35787C4.67548 7.35787 9.32138 7.35787 13.9738 7.35787C13.9771 7.31983 13.9804 7.28871 13.9804 7.26105C13.9804 5.31786 13.987 3.37812 13.9771 1.43492C13.9738 0.618918 13.3542 0 12.5738 0C8.85253 0 5.13122 0 1.41318 0.00345764C1.28531 0.00345764 1.15089 0.0242035 1.0263 0.0587799C0.468919 0.207459 -0.00649034 0.77797 6.70385e-05 1.54557C0.0131818 3.42307 0.00334573 5.30057 0.00334573 7.17807ZM10.2656 0.795258C10.5607 0.7918 10.8558 0.795258 11.1509 0.795258C11.4427 0.795258 11.7345 0.7918 12.0296 0.795258C12.5574 0.798716 12.9738 1.1514 13.0951 1.69079C13.2361 2.32008 12.7968 2.98049 12.187 3.04964C12.1115 3.06001 12.0329 3.06347 11.9574 3.06347C11.3968 3.06347 10.8394 3.06693 10.2788 3.06347C9.84269 3.06001 9.50499 2.85947 9.30171 2.44801C8.92794 1.68733 9.44597 0.802173 10.2656 0.795258Z" fill="#675ED5"/>
<path d="M0.0038986 8.86182C0.0038986 9.10385 0.000619913 9.33206 0.0038986 9.56372C0.0170134 10.4454 0.613735 11.0609 1.45308 11.0643C2.5416 11.0643 3.62685 11.0643 4.71537 11.0643C4.77111 11.0643 4.82685 11.0643 4.8957 11.0643C4.65964 12.0567 4.43341 13.0248 4.20062 13.9999C6.07275 13.9999 7.92193 13.9999 9.78751 13.9999C9.55472 13.0179 9.32521 12.0463 9.09242 11.0643C9.17439 11.0643 9.23341 11.0643 9.29242 11.0643C10.3908 11.0643 11.4891 11.0643 12.5875 11.0643C13.2465 11.0643 13.817 10.601 13.9416 9.9164C14.0039 9.57755 13.9809 9.22141 13.9973 8.86527C9.31865 8.86182 4.66619 8.86182 0.0038986 8.86182Z" fill="#675ED5"/>
<path d="M12.0496 2.68301C12.443 2.67956 12.7643 2.34071 12.7643 1.92925C12.7676 1.51433 12.4365 1.16857 12.043 1.17202C11.6496 1.17548 11.3315 1.50741 11.3315 1.92579C11.3315 2.34762 11.6529 2.68647 12.0496 2.68301Z" fill="#675ED5"/>
<circle cx="2" cy="2" r="1" fill="white"/>
<circle cx="5" cy="2" r="1" fill="white"/>
</g>
<defs>
<clipPath id="clip0_2419_9602">
<rect width="14" height="14" fill="white"/>
</clipPath>
</defs>
</svg>
