<svg width="10" height="16" viewBox="0 0 10 16" fill="none" xmlns="http://www.w3.org/2000/svg">
<g clip-path="url(#clip0_2415_17217)">
<path d="M0 8C0 6.04375 0 4.0875 0 2.125C0 0.84375 0.87013 0 2.20779 0C4.07792 0 5.94805 0 7.82468 0C9.11039 0 10 0.85 10 2.09375C10 6.03125 10 9.9625 10 13.9C10 15.1437 9.11688 16 7.83117 16C5.93506 16 4.04545 16 2.14935 16C0.909091 16 0.00649351 15.1313 0 13.9375C0 11.9563 0 9.98125 0 8ZM9.04545 7.3125C9.04545 5.85625 9.03896 4.4 9.05195 2.9375C9.05195 2.74375 9.01948 2.66875 8.79221 2.675C6.25974 2.68125 3.73377 2.68125 1.2013 2.675C0.993506 2.675 0.954545 2.7375 0.954545 2.91875C0.961039 5.83125 0.961039 8.75 0.954545 11.6625C0.954545 11.8875 1.02597 11.9312 1.24675 11.9312C3.74675 11.925 6.24675 11.925 8.74026 11.9312C9.01299 11.9312 9.05195 11.8438 9.05195 11.6187C9.03896 10.1875 9.04545 8.75 9.04545 7.3125ZM5 14.6938C5.53247 14.7 5.95455 14.3063 5.96104 13.8C5.96753 13.3063 5.52597 12.8813 5.01299 12.8813C4.50649 12.8813 4.09091 13.2812 4.08442 13.775C4.07143 14.3062 4.45455 14.6938 5 14.6938Z" fill="#3E3C53"/>
</g>
<defs>
<clipPath id="clip0_2415_17217">
<rect width="10" height="16" fill="white"/>
</clipPath>
</defs>
</svg>
