<svg width="18" height="18" viewBox="0 0 18 18" fill="none" xmlns="http://www.w3.org/2000/svg">
<path d="M3.8252 14.4375H12.6752C13.8002 14.4375 14.2502 13.9575 14.2502 12.765V11.985C14.2502 10.7925 13.8002 10.3125 12.6752 10.3125H3.8252" fill="#3E3C53"/>
<path d="M3.8252 14.4375H12.6752C13.8002 14.4375 14.2502 13.9575 14.2502 12.765V11.985C14.2502 10.7925 13.8002 10.3125 12.6752 10.3125H3.8252" stroke="#3E3C53" stroke-width="1.5" stroke-linecap="round" stroke-linejoin="round"/>
<path d="M3.8252 3.9375H8.9252C10.0502 3.9375 10.5002 4.4175 10.5002 5.61V6.39C10.5002 7.5825 10.0502 8.0625 8.9252 8.0625H3.8252" fill="#3E3C53"/>
<path d="M3.8252 3.9375H8.9252C10.0502 3.9375 10.5002 4.4175 10.5002 5.61V6.39C10.5002 7.5825 10.0502 8.0625 8.9252 8.0625H3.8252" stroke="#3E3C53" stroke-width="1.5" stroke-linecap="round" stroke-linejoin="round"/>
<path d="M3.75 1.49249V16.4925" stroke="#3E3C53" stroke-width="1.5" stroke-linecap="round" stroke-linejoin="round"/>
</svg>
