<svg width="18" height="18" viewBox="0 0 18 18" fill="none" xmlns="http://www.w3.org/2000/svg">
<path d="M16.5 8.25V6.75C16.5 3 15 1.5 11.25 1.5H6.75C3 1.5 1.5 3 1.5 6.75V11.25C1.5 15 3 16.5 6.75 16.5H7.5" stroke="#3E3C53" stroke-width="1.5" stroke-linecap="round" stroke-linejoin="round"/>
<path d="M1.52246 6.375H16.4999" stroke="#3E3C53" stroke-width="1.5" stroke-linecap="round" stroke-linejoin="round"/>
<path d="M1.52246 11.625H8.99994" stroke="#3E3C53" stroke-width="1.5" stroke-linecap="round" stroke-linejoin="round"/>
<path d="M6.38232 16.4925V1.50751" stroke="#3E3C53" stroke-width="1.5" stroke-linecap="round" stroke-linejoin="round"/>
<path d="M11.6323 8.99249V1.50751" stroke="#3E3C53" stroke-width="1.5" stroke-linecap="round" stroke-linejoin="round"/>
<path d="M14.0473 11.0026L10.9348 14.115C10.8148 14.235 10.7023 14.4675 10.6723 14.6325L10.4998 15.825C10.4398 16.2525 10.7398 16.56 11.1673 16.4925L12.3598 16.32C12.5248 16.2975 12.7573 16.1776 12.8773 16.0576L15.9898 12.945C16.5223 12.4125 16.7773 11.7826 15.9898 10.9951C15.2098 10.2151 14.5873 10.4626 14.0473 11.0026Z" stroke="#3E3C53" stroke-width="1.5" stroke-miterlimit="10" stroke-linecap="round" stroke-linejoin="round"/>
<path d="M13.605 11.445C13.8675 12.39 14.61 13.125 15.555 13.395" stroke="#3E3C53" stroke-width="1.5" stroke-miterlimit="10" stroke-linecap="round" stroke-linejoin="round"/>
</svg>
