<svg width="23" height="12" viewBox="0 0 23 12" fill="none" xmlns="http://www.w3.org/2000/svg">
<path d="M0 5.33301C0.0617755 5.07306 0.112319 4.80759 0.185326 4.55318C0.848009 2.2358 2.3587 0.759093 4.72863 0.167305C5.21722 0.0456286 5.73389 0.0124441 6.23932 0.00691337C9.74368 -0.00414809 13.248 0.00138273 16.7524 0.00138273C18.6618 0.00138273 20.2792 0.670601 21.5259 2.10306C22.7221 3.47468 23.1995 5.0786 22.9243 6.87055C22.6323 8.78419 21.6102 10.2222 19.9254 11.2011C18.9651 11.7597 17.9093 11.9975 16.7973 11.9975C13.2705 11.9975 9.74368 12.0031 6.21686 11.9975C4.08841 11.992 2.38116 11.1513 1.12319 9.45894C0.567211 8.71229 0.224638 7.87162 0.0842393 6.94798C0.0673914 6.85396 0.0280798 6.75994 0 6.66592C0 6.21793 0 5.77547 0 5.33301ZM16.9265 1.32876C14.3375 1.31217 12.2035 3.39172 12.1754 5.96351C12.1473 8.52977 14.2758 10.6425 16.904 10.6591C19.493 10.6757 21.627 8.59614 21.6551 6.02435C21.6832 3.46362 19.5548 1.35088 16.9265 1.32876Z" fill="#3E3C53"/>
</svg>
