<svg width="14" height="12" viewBox="0 0 14 12" fill="none" xmlns="http://www.w3.org/2000/svg">
<g clip-path="url(#clip0_2232_6495)">
<path d="M12.4696 4.35482C12.7144 4.03127 12.9156 3.76894 13.1167 3.5066C13.3003 3.26175 13.5452 3.18305 13.7988 3.37543C14.0523 3.56781 14.0436 3.8214 13.86 4.06625C13.414 4.66088 12.9768 5.25551 12.5221 5.85014C12.3122 6.12122 12.0586 6.12996 11.7963 5.93758C11.2016 5.50036 10.607 5.05438 10.0124 4.59967C9.78501 4.42478 9.70631 4.19742 9.88995 3.95257C10.0823 3.69024 10.3359 3.69898 10.5808 3.86513C10.8781 4.06625 11.1666 4.29361 11.5427 4.57343C11.1142 2.99942 10.2485 1.9151 8.84935 1.33796C7.07421 0.585926 5.404 0.865752 3.90868 2.09873C3.87371 2.12496 3.83873 2.15994 3.81249 2.18618C3.57639 2.43977 3.29657 2.57094 3.02549 2.27362C2.74566 1.96756 2.94679 1.71397 3.19163 1.49536C3.87371 0.865752 4.65197 0.428525 5.54391 0.192422C8.48208 -0.585841 11.4377 1.05813 12.3472 3.96132C12.3734 4.075 12.4171 4.17993 12.4696 4.35482Z" fill="white"/>
<path d="M2.54438 6.68957C2.96412 8.38601 3.97849 9.54029 5.6312 10.0387C7.30141 10.5459 8.81421 10.1874 10.1434 9.04185C10.2745 8.92817 10.4232 8.77951 10.5719 8.77077C10.7293 8.77077 10.9741 8.90194 11.0091 9.01562C11.0616 9.18176 11.0091 9.46159 10.8867 9.58401C10.0734 10.3973 9.09404 10.9219 7.95725 11.0881C5.01034 11.5253 2.53564 9.96003 1.61746 7.11805C1.59123 7.03935 1.56499 6.96065 1.51253 6.83823C1.28517 7.13554 1.08404 7.38913 0.88292 7.65147C0.690541 7.9138 0.445694 8.00125 0.174613 7.79138C-0.0789783 7.59026 -0.0440002 7.34541 0.139635 7.10056C0.576862 6.52342 1.01409 5.93754 1.45132 5.35166C1.66993 5.06309 1.93226 5.0456 2.21209 5.24672C2.79797 5.6752 3.37511 6.11243 3.961 6.54966C4.1971 6.73329 4.30203 6.96065 4.10965 7.22299C3.91727 7.47658 3.66368 7.46783 3.41884 7.29294C3.12152 7.1268 2.83295 6.90818 2.54438 6.68957Z" fill="white"/>
</g>
<defs>
<clipPath id="clip0_2232_6495">
<rect width="14" height="11.1755" fill="white"/>
</clipPath>
</defs>
</svg>
