<svg width="20" height="20" viewBox="0 0 20 20" fill="none" xmlns="http://www.w3.org/2000/svg">
<path d="M10.5191 12.9897C10.5191 11.5528 10.5191 10.1158 10.5191 8.67891C10.5191 8.5727 10.5126 8.46649 10.5387 8.36653C10.617 8.02292 10.9695 7.89797 11.2633 8.10414C11.3351 8.15412 11.3938 8.21659 11.4526 8.27282C13.5415 10.272 15.637 12.2775 17.7259 14.2767C17.7782 14.3267 17.8369 14.3766 17.8826 14.4391C18.1241 14.7515 17.9805 15.1014 17.5693 15.1513C17.3408 15.1763 17.1123 15.1638 16.8838 15.1638C16.0222 15.1638 15.167 15.1513 14.3053 15.1701C14.1421 15.1763 13.9463 15.2513 13.8288 15.3637C13.0324 16.1384 12.249 16.9319 11.4591 17.7191C11.2829 17.894 11.1066 18.0814 10.8129 17.9627C10.5256 17.8503 10.5126 17.6066 10.5126 17.363C10.5191 15.901 10.5191 14.4454 10.5191 12.9897Z" fill="#675ED5"/>
<path d="M13.5543 2.00657C14.7163 2.00657 15.5192 2.45014 15.7868 3.34978C15.9239 3.80585 15.9109 4.3119 15.9043 4.79296C15.8978 5.12408 15.5388 5.34274 15.1797 5.324C14.8338 5.30525 14.5726 5.06785 14.5531 4.73048C14.54 4.51182 14.5531 4.29316 14.5465 4.07449C14.5269 3.60593 14.2593 3.34978 13.7762 3.33104C13.5477 3.32479 13.3193 3.33729 13.0908 3.32479C12.7187 3.2998 12.4706 3.04365 12.4641 2.69379C12.4576 2.33769 12.7122 2.04405 13.0777 2.01281C13.2279 1.99407 13.3911 2.00657 13.5543 2.00657Z" fill="#675ED5"/>
<path d="M2.00699 4.24306C1.9156 2.91858 2.86215 2.15639 3.74342 2.03768C4.11551 1.9877 4.50066 1.99395 4.87928 2.01894C5.22526 2.03768 5.48638 2.35631 5.47985 2.68742C5.47332 3.03729 5.19915 3.31218 4.82053 3.33092C4.59205 3.34341 4.36357 3.33092 4.1351 3.33717C3.66508 3.35591 3.39744 3.6183 3.39091 4.06812C3.38438 4.27429 3.39744 4.48671 3.39091 4.69288C3.37133 5.06773 3.07757 5.33012 2.69242 5.33012C2.30074 5.33012 2.02657 5.08022 2.00699 4.68663C2.00046 4.53044 2.00699 4.37425 2.00699 4.24306Z" fill="#675ED5"/>
<path d="M4.32416 15.3263C3.10997 15.3263 2.29397 14.8015 2.0655 13.8019C1.9741 13.3833 2.00022 12.9335 2.02633 12.5024C2.04591 12.2088 2.39842 11.9901 2.71829 12.0026C3.06427 12.0151 3.35803 12.2775 3.37761 12.6148C3.39067 12.8398 3.37761 13.0709 3.38414 13.3021C3.39719 13.7269 3.6779 13.9893 4.12832 14.0018C4.34375 14.008 4.5657 13.9955 4.78112 14.0018C5.18585 14.0143 5.48613 14.3079 5.47308 14.6765C5.46655 15.0389 5.17932 15.3013 4.78112 15.32C4.63097 15.3263 4.48083 15.3263 4.32416 15.3263Z" fill="#675ED5"/>
<path d="M8.95885 3.33104C8.50189 3.33104 8.04494 3.33729 7.58798 3.33104C7.17019 3.3248 6.86991 3.04991 6.86338 2.68755C6.85685 2.3127 7.17019 2.01907 7.60104 2.01282C8.50189 2.00657 9.40275 2.00657 10.3036 2.01282C10.741 2.01282 11.0347 2.28771 11.0347 2.6813C11.0347 3.06865 10.7671 3.3248 10.3297 3.33104C9.87276 3.33729 9.41581 3.33104 8.95885 3.33104Z" fill="#675ED5"/>
<path d="M2.00653 8.65392C2.00653 8.22908 2 7.80425 2.00653 7.37318C2.01306 6.93585 2.28083 6.67345 2.69881 6.67345C3.10372 6.67345 3.38455 6.95459 3.38455 7.38567C3.39108 8.23533 3.39108 9.09124 3.38455 9.9409C3.38455 10.3595 3.09719 10.6594 2.69881 10.6656C2.31348 10.6719 2.00653 10.372 2 9.95965C2 9.52857 2.00653 9.09124 2.00653 8.65392Z" fill="#675ED5"/>
<path d="M14.5403 7.99794C14.5403 7.76678 14.5337 7.54187 14.5403 7.31071C14.5598 6.93586 14.8276 6.68596 15.2064 6.67971C15.5787 6.67346 15.8987 6.92336 15.9117 7.27322C15.9313 7.76053 15.9313 8.25408 15.9117 8.74139C15.8922 9.09125 15.5656 9.3349 15.1933 9.32241C14.8276 9.30991 14.5598 9.07251 14.5403 8.71015C14.5337 8.47275 14.5403 8.23534 14.5403 7.99794Z" fill="#675ED5"/>
<path d="M8.24715 15.32C8.00562 15.32 7.77061 15.3263 7.52908 15.32C7.15699 15.3013 6.87629 15.0264 6.86323 14.6828C6.85017 14.3454 7.13088 14.0205 7.48991 14.008C7.99909 13.9893 8.50827 13.9893 9.01745 14.008C9.38302 14.0205 9.65719 14.3329 9.65066 14.6765C9.64413 15.0264 9.36996 15.3013 8.99134 15.32C8.7498 15.3325 8.50174 15.32 8.24715 15.32Z" fill="#675ED5"/>
</svg>
