<svg width="14" height="15" viewBox="0 0 14 15" fill="none" xmlns="http://www.w3.org/2000/svg">
<path d="M11.4879 14.0047H2.5121C1.12903 14.0047 0 12.8757 0 11.4879V2.5168C0 1.12903 1.12903 0 2.5121 0H11.4879C12.8757 0 14 1.12903 14 2.5121V11.4879C14 12.8757 12.8757 14.0047 11.4879 14.0047ZM2.5121 0.658602C1.49126 0.658602 0.658602 1.49126 0.658602 2.5168V11.4926C0.658602 12.5134 1.49126 13.3461 2.5121 13.3461H11.4879C12.5087 13.3461 13.3414 12.5134 13.3414 11.4926V2.5168C13.3414 1.49597 12.5087 0.663306 11.4879 0.663306H2.5121V0.658602Z" fill="#3E3C53"/>
<path d="M5.46171 12.1276H2.98254C2.46977 12.1276 2.04639 11.7089 2.04639 11.1914V8.71228C2.04639 8.19951 2.46507 7.77612 2.98254 7.77612H5.46171C5.97448 7.77612 6.39787 8.19481 6.39787 8.71228V11.1914C6.39787 11.7089 5.97448 12.1276 5.46171 12.1276Z" fill="#3E3C53"/>
</svg>
