<svg width="14" height="14" viewBox="0 0 14 14" fill="none" xmlns="http://www.w3.org/2000/svg">
<path d="M11.4879 14H2.5121C1.12433 14 0 12.871 0 11.4879V2.5121C0 1.12433 1.12903 0 2.5121 0H11.4879C12.8757 0 14 1.12903 14 2.5121V11.4879C14 12.871 12.871 14 11.4879 14ZM2.5121 0.653898C1.49126 0.653898 0.658602 1.48656 0.658602 2.50739V11.4832C0.658602 12.504 1.49126 13.3367 2.5121 13.3367H11.4879C12.5087 13.3367 13.3414 12.504 13.3414 11.4832V2.5121C13.3414 1.49126 12.5087 0.658602 11.4879 0.658602H2.5121V0.653898Z" fill="#3E3C53"/>
<path d="M9.17772 12.0759H3.51845C2.75165 12.0759 2.12598 11.4502 2.12598 10.6834V5.02413C2.12598 4.25732 2.75165 3.63165 3.51845 3.63165H9.17772C9.94453 3.63165 10.5702 4.25732 10.5702 5.02413V10.6834C10.5702 11.4455 9.93982 12.0759 9.17772 12.0759Z" fill="#3E3C53"/>
</svg>
