<svg width="14" height="14" viewBox="0 0 14 14" fill="none" xmlns="http://www.w3.org/2000/svg">
<path d="M5.67802 11.8501H3.19885C2.68608 11.8501 2.2627 11.4314 2.2627 10.9139V8.43475C2.2627 7.92198 2.68138 7.4986 3.19885 7.4986H5.67802C6.19079 7.4986 6.61417 7.91728 6.61417 8.43475V10.9139C6.61417 11.4314 6.19079 11.8501 5.67802 11.8501Z" fill="white"/>
<path d="M10.8059 11.8501H8.32678C7.81401 11.8501 7.39062 11.4314 7.39062 10.9139V8.43475C7.39062 7.92198 7.80931 7.4986 8.32678 7.4986H10.8059C11.3187 7.4986 11.7421 7.91728 11.7421 8.43475V10.9139C11.7374 11.4314 11.3187 11.8501 10.8059 11.8501Z" fill="white"/>
<path d="M10.8057 6.49656H3.19885C2.68608 6.49656 2.2627 6.07787 2.2627 5.5604V3.08594C2.2627 2.57317 2.68138 2.14978 3.19885 2.14978H10.8057C11.3185 2.14978 11.7419 2.56846 11.7419 3.08594V5.5651C11.7372 6.07787 11.3185 6.49656 10.8057 6.49656Z" fill="white"/>
<path d="M11.4879 14H2.5121C1.12433 14 0 12.871 0 11.4879V2.5121C0 1.12433 1.12903 0 2.5121 0H11.4879C12.8757 0 14 1.12903 14 2.5121V11.4879C14 12.8757 12.8757 14 11.4879 14ZM2.5121 0.658602C1.49126 0.658602 0.658602 1.49126 0.658602 2.5121V11.4879C0.658602 12.5087 1.49126 13.3414 2.5121 13.3414H11.4879C12.5087 13.3414 13.3414 12.5087 13.3414 11.4879V2.5121C13.3414 1.49126 12.5087 0.658602 11.4879 0.658602H2.5121Z" fill="white"/>
</svg>
