<svg width="16" height="13" viewBox="0 0 16 13" fill="none" xmlns="http://www.w3.org/2000/svg">
<g clip-path="url(#clip0_2415_9410)">
<path d="M8 12.9937C5.8625 12.9937 3.73125 12.9937 1.59375 12.9937C0.74375 12.9937 0.2 12.5874 0.03125 11.8384C0 11.7051 0 11.5654 0 11.4321C0 8.14404 0 4.85596 0 1.56787C0 0.615723 0.5625 0.00634766 1.5 0.00634766C5.83125 1.16415e-10 10.1687 1.16415e-10 14.5 0.00634766C15.4375 0.00634766 16 0.615723 16 1.56787C16 4.84961 16 8.125 16 11.4067C16 12.416 15.4375 13 14.4375 13C12.2937 13 10.1438 12.9937 8 12.9937ZM7.29375 11.7305C9.15 11.7305 11 11.7305 12.8562 11.7305C13.325 11.7305 13.3813 11.6733 13.3813 11.2036C13.3813 8.07422 13.3813 4.93848 13.3813 1.80908C13.3813 1.32031 13.3313 1.26318 12.8438 1.26318C9.14375 1.26318 5.45 1.26318 1.75 1.26318C1.28125 1.26318 1.2125 1.33301 1.2125 1.82178C1.2125 4.93213 1.2125 8.04248 1.2125 11.1528C1.2125 11.667 1.275 11.7305 1.79375 11.7305C3.625 11.7305 5.45625 11.7305 7.29375 11.7305ZM14 6.49365C13.9937 6.82373 14.2875 7.12207 14.6125 7.12207C14.9313 7.12207 15.2 6.84912 15.2125 6.51904C15.225 6.17627 14.9563 5.88428 14.625 5.87158C14.3 5.86523 14.0063 6.15723 14 6.49365Z" fill="#3E3C53"/>
</g>
<defs>
<clipPath id="clip0_2415_9410">
<rect width="16" height="13" fill="white"/>
</clipPath>
</defs>
</svg>
