<svg width="18" height="18" viewBox="0 0 18 18" fill="none" xmlns="http://www.w3.org/2000/svg">
<g clip-path="url(#clip0_2093_16753)">
<path d="M8.71027 17.9999C7.42218 17.9999 6.13884 18.0047 4.85075 17.9999C2.47349 17.9905 0.593454 15.9589 0.7592 13.5816C0.896532 11.6448 2.40719 10.0441 4.33457 9.79789C4.53821 9.76948 4.74184 9.76001 4.94547 9.76001C7.46954 9.76001 9.99361 9.76001 12.5177 9.76001C14.9234 9.76001 16.7987 11.7537 16.6566 14.1546C16.5429 16.0868 15.0323 17.6969 13.1002 17.9621C12.8965 17.9905 12.6929 17.9999 12.4893 17.9999C11.2343 17.9999 9.96993 17.9999 8.71027 17.9999ZM15.1507 13.9226C15.1459 12.4593 13.9478 11.2707 12.4845 11.2754C11.0354 11.2801 9.84681 12.4782 9.85154 13.9321C9.85154 15.3954 11.0544 16.584 12.5224 16.5793C13.9668 16.5698 15.1554 15.3717 15.1507 13.9226Z" fill="#675ED5"/>
<path d="M8.71462 -3.68041e-05C9.98376 -3.68041e-05 11.2529 -3.68041e-05 12.5268 -3.68041e-05C14.6341 0.00469879 16.3437 1.50115 16.6278 3.59428C16.9309 5.83422 15.335 7.91314 13.0808 8.20201C12.8819 8.22569 12.6878 8.2399 12.4936 8.2399C9.96955 8.2399 7.44548 8.2399 4.92141 8.2399C2.97981 8.2399 1.36024 6.98023 0.877208 5.10494C0.275788 2.76555 1.90957 0.350397 4.29157 0.0425836C4.75566 -0.0189792 5.21975 0.00943439 5.68384 0.00469879C6.69726 -0.0047724 7.70594 -3.68041e-05 8.71462 -3.68041e-05ZM7.57334 4.07731C7.57334 2.62348 6.38471 1.43011 4.93561 1.42538C3.47232 1.42064 2.27421 2.60928 2.26947 4.07258C2.26947 5.52167 3.45811 6.71977 4.9072 6.72451C6.37524 6.73398 7.57334 5.54061 7.57334 4.07731Z" fill="#675ED5"/>
<path d="M15.1505 13.9226C15.1553 15.3717 13.9619 16.5746 12.5176 16.5793C11.0543 16.5841 9.85142 15.3954 9.84668 13.9321C9.84668 12.4783 11.0306 11.2849 12.4797 11.2754C13.9477 11.266 15.1458 12.4546 15.1505 13.9226Z" fill="white"/>
<path d="M7.57341 4.07736C7.57341 5.54066 6.37531 6.73403 4.90727 6.7293C3.45818 6.72456 2.26481 5.52645 2.26955 4.07736C2.26955 2.61406 3.46765 1.42069 4.93569 1.42543C6.38478 1.43016 7.57815 2.62353 7.57341 4.07736Z" fill="white"/>
</g>
<defs>
<clipPath id="clip0_2093_16753">
<rect width="18" height="18" fill="white"/>
</clipPath>
</defs>
</svg>
