<svg width="25" height="23" viewBox="0 0 25 23" fill="none" xmlns="http://www.w3.org/2000/svg">
<path d="M9.0203 16.5515C7.82691 16.5515 6.64331 16.5621 5.44992 16.541C5.1369 16.5304 4.99995 16.6572 4.89235 16.9634C4.46195 18.2308 4.08045 19.5194 3.53267 20.734C3.03379 21.8429 2.20233 22.2443 1.23393 21.8535C0.275302 21.4627 -0.213792 20.4699 0.0894461 19.3293C0.500285 17.8084 1.10676 16.372 1.64476 14.9039C3.10226 10.8905 4.56955 6.87703 6.03683 2.86359C6.18356 2.45168 6.34985 2.0609 6.5357 1.67012C7.03458 0.603386 7.82691 0.0330548 8.95183 0.00136972C10.1257 -0.0303153 11.006 0.487207 11.5538 1.60675C12.2385 3.00089 12.6885 4.51121 13.2363 5.96872C14.7818 10.0455 16.298 14.1329 17.824 18.2097C17.9707 18.6111 18.0979 19.0335 18.1859 19.4666C18.4011 20.5439 17.8925 21.5155 16.973 21.8641C16.0046 22.2337 15.1633 21.8535 14.6644 20.7973C14.0873 19.5722 13.6765 18.2731 13.2363 16.9951C13.1091 16.636 12.9526 16.5304 12.6103 16.541C11.4071 16.5621 10.2137 16.5515 9.0203 16.5515ZM9.01052 4.53233C8.02255 7.53185 7.06393 10.3941 6.1053 13.288C8.08124 13.288 9.99849 13.288 11.9744 13.288C10.9962 10.3941 10.0278 7.53185 9.01052 4.53233Z" fill="#675ED5"/>
<path d="M17.9324 8.85207C17.6096 9.83431 17.2966 10.7849 16.9738 11.746C16.7977 11.6615 16.7977 11.4714 16.739 11.3235C16.4162 10.4786 16.1717 9.59139 15.7706 8.79926C15.3402 7.95433 15.7413 7.32063 16.0347 6.63412C16.3184 5.95817 16.7781 5.49345 17.4727 5.33503C18.578 5.08155 19.4975 5.55682 20.0062 6.77142C20.5246 7.99657 20.9648 9.26398 21.4343 10.5208C22.5103 13.3619 23.5863 16.203 24.6526 19.0441C24.7699 19.3715 24.8775 19.7095 24.9558 20.0475C25.1319 20.8079 24.7699 21.5472 24.1048 21.8535C23.4298 22.1598 22.7157 21.9063 22.344 21.1881C21.8647 20.2481 21.5419 19.2342 21.1996 18.2309C21.1017 17.9351 20.955 17.8401 20.6713 17.8506C20.1725 17.8612 19.5562 18.0724 19.204 17.7661C18.8715 17.481 18.803 16.8367 18.6171 16.3509C18.265 15.4109 18.265 15.4109 19.1845 15.4003C20.2311 15.3898 20.2214 15.3898 19.8594 14.3125C19.2921 12.6543 18.7247 10.9855 18.1574 9.32735C18.1183 9.16892 18.0987 8.97881 17.9324 8.85207Z" fill="#675ED5"/>
</svg>
