<svg width="24" height="24" viewBox="0 0 24 24" fill="none" xmlns="http://www.w3.org/2000/svg">
<ellipse cx="11.999" cy="12" rx="11.999" ry="12" fill="#675ED5"/>
<path d="M14.5883 12.764C14.5588 12.7942 14.4475 12.9236 14.3439 13.0301C13.736 13.6995 12.1503 14.7951 11.3204 15.1295C11.1944 15.1833 10.8757 15.297 10.7054 15.3043C10.5423 15.3043 10.3868 15.2668 10.2384 15.1906C10.0534 15.0842 9.90499 14.9167 9.82367 14.7189C9.77132 14.5817 9.69001 14.1711 9.69001 14.1638C9.60869 13.7146 9.56396 12.9847 9.56396 12.1781C9.56396 11.4095 9.60869 10.7094 9.67527 10.2534C9.68289 10.2461 9.76421 9.7358 9.85315 9.56102C10.0163 9.24172 10.3349 9.04346 10.676 9.04346H10.7054C10.9275 9.05128 11.3946 9.24954 11.3946 9.25685C12.1798 9.5918 13.7289 10.6337 14.3515 11.3261C14.3515 11.3261 14.5268 11.504 14.6031 11.6151C14.722 11.7748 14.7809 11.9725 14.7809 12.1702C14.7809 12.3909 14.7144 12.5965 14.5883 12.764Z" fill="white"/>
</svg>
