<svg width="20" height="19" viewBox="0 0 20 19" fill="none" xmlns="http://www.w3.org/2000/svg">
<g clip-path="url(#clip0_2240_10074)">
<path d="M9.92314 18.0422C7.94617 18.0422 5.95001 18.0422 3.97304 18.0422C1.72736 18.023 0.0766911 16.4875 0.0383034 14.2226C-0.0192782 10.7486 -0.0192782 7.25528 0.0383034 3.762C0.0766911 1.5547 1.74656 0.0191939 3.93466 0C7.96537 0 11.9961 0 16.0268 0C18.2917 0 19.9423 1.5547 19.9615 3.81958C19.9999 7.27447 19.9999 10.7294 19.9615 14.1843C19.9423 16.4491 18.3109 18.023 16.0652 18.0422C14.0114 18.0614 11.9769 18.0422 9.92314 18.0422ZM1.18993 5.56622C1.18993 8.38772 1.17074 11.0941 1.18993 13.8004C1.20913 15.8157 2.30318 16.8906 4.29934 16.8906C8.08053 16.8906 11.8425 16.8906 15.6237 16.8906C17.7734 16.8906 18.8099 15.8733 18.8099 13.7236C18.8099 11.2668 18.7331 8.79079 18.7331 6.33397C18.7331 6.08445 18.7523 5.85413 18.7331 5.56622C12.8982 5.56622 7.12084 5.56622 1.18993 5.56622ZM10.1727 1.15163C8.7907 1.15163 7.60068 1.13244 6.39147 1.17083C6.21873 1.17083 5.96921 1.32438 5.89243 1.47793C5.45097 2.36084 5.06709 3.24376 4.60644 4.26104C5.93082 4.26104 7.14003 4.28023 8.33005 4.24184C8.5028 4.24184 8.77151 4.08829 8.84828 3.93474C9.28974 3.07102 9.69281 2.16891 10.1727 1.15163ZM9.76959 4.24184C11.0556 4.24184 12.188 4.26104 13.3205 4.22265C13.5124 4.22265 13.8003 4.0499 13.8963 3.87716C14.3569 3.01344 14.7408 2.13052 15.2206 1.13244C13.9539 1.13244 12.8214 1.11324 11.689 1.15163C11.497 1.15163 11.2091 1.32438 11.1132 1.47793C10.6525 2.36084 10.2494 3.24376 9.76959 4.24184ZM18.7331 4.20345C18.7523 2.39923 17.8694 1.36276 16.2763 1.34357C15.8349 2.26488 15.3934 3.18618 14.9135 4.20345C16.2763 4.20345 17.5047 4.20345 18.7331 4.20345ZM4.91354 1.22841C2.68706 0.729367 0.882833 2.43762 1.3051 4.24184C1.82333 4.24184 2.36076 4.28023 2.87899 4.22265C3.14771 4.18426 3.51239 4.0499 3.62755 3.83877C4.1074 3.01344 4.49128 2.14971 4.91354 1.22841Z" fill="white"/>
<path d="M7.86929 11.0365C7.86929 10.1728 7.8501 9.30908 7.86929 8.44536C7.88849 7.65841 8.27236 7.40889 8.88657 7.81196C10.2109 8.69488 11.5161 9.61618 12.8021 10.5567C13.282 10.9022 13.2052 11.3628 12.7637 11.6699C11.4585 12.5912 10.1534 13.5125 8.82898 14.3763C8.25317 14.7601 7.8501 14.5298 7.8501 13.8004C7.86929 12.8983 7.86929 11.9578 7.86929 11.0365Z" fill="white"/>
</g>
<defs>
<clipPath id="clip0_2240_10074">
<rect width="20" height="18.0422" fill="white"/>
</clipPath>
</defs>
</svg>
