<svg width="20" height="15" viewBox="0 0 20 15" fill="none" xmlns="http://www.w3.org/2000/svg">
<g clip-path="url(#clip0_3786_17805)">
<path d="M3.07249 2.02124C2.92884 2.02124 2.7772 2.03644 2.63355 2.05164C1.91527 2.14282 1.22094 2.70513 1.11719 3.28264C4.70857 3.28264 8.29995 3.28264 11.8993 3.28264C11.9312 2.84191 12.035 2.41638 12.1946 2.02124C9.1539 2.02124 6.1132 2.02124 3.07249 2.02124Z" fill="#675ED5"/>
<path d="M13.8543 0.00765221C10.5742 5.34292e-05 7.29403 5.34292e-05 4.0139 0.00765221C3.19187 0.00765221 2.4736 0.539567 2.29004 1.24625C5.72978 1.24625 9.16953 1.24625 12.6173 1.24625C12.9365 0.759932 13.3595 0.3344 13.8543 0.00765221Z" fill="#675ED5"/>
<path d="M16.4963 6.9225C14.5809 6.9149 13.0087 5.41034 13.0166 3.58663C13.0246 1.76292 14.6048 0.273558 16.5122 0.281157C18.4356 0.288756 19.9999 1.79332 19.9919 3.61702C19.9839 5.44073 18.4117 6.93009 16.4963 6.9225ZM15.2832 3.90578C15.4268 3.97417 15.5785 4.04256 15.7221 4.10335C15.8738 4.16414 16.0254 4.11854 16.0893 3.98936C16.1611 3.85259 16.1052 3.70821 15.9536 3.63222C15.6264 3.48025 15.2992 3.33587 14.964 3.19149C14.7804 3.1155 14.6447 3.1611 14.5569 3.32827C14.3973 3.63982 14.2457 3.94377 14.102 4.25532C14.0222 4.4149 14.0781 4.55927 14.2297 4.62006C14.3734 4.68085 14.509 4.62766 14.5889 4.46809C14.6447 4.3617 14.7006 4.25532 14.7565 4.13374C14.7884 4.19453 14.8123 4.23253 14.8363 4.27052C15.3391 5.13678 16.1052 5.6155 17.1347 5.69909C17.3023 5.71429 17.43 5.60031 17.438 5.45593C17.446 5.31915 17.3343 5.20517 17.1667 5.18997C17.0789 5.18237 16.9831 5.17478 16.8953 5.15958C16.1371 5.0152 15.5944 4.59727 15.2832 3.90578ZM17.7253 3.29787C17.5897 3.23708 17.446 3.1687 17.3103 3.1155C17.1427 3.03952 16.9831 3.08511 16.9193 3.22189C16.8474 3.36626 16.9113 3.50304 17.0789 3.57903C17.3981 3.72341 17.7173 3.86778 18.0366 4.01216C18.2281 4.09575 18.3638 4.05015 18.4596 3.86778C18.6192 3.55623 18.7708 3.25228 18.9145 2.94073C18.9863 2.78876 18.9384 2.64438 18.7948 2.58359C18.6511 2.5152 18.5154 2.56839 18.4276 2.72037C18.3718 2.82675 18.3159 2.94073 18.2521 3.06231C18.2361 3.03952 18.2361 3.03952 18.2281 3.02432C18.2042 2.98632 18.1882 2.95593 18.1723 2.91794C17.6774 2.06687 16.9193 1.58815 15.8977 1.49696C15.7142 1.48177 15.5865 1.58815 15.5705 1.73252C15.5625 1.8769 15.6822 1.99848 15.8658 2.00608C16.185 2.02888 16.4803 2.11246 16.7596 2.25684C17.2146 2.4848 17.5498 2.82675 17.7253 3.29787Z" fill="#675ED5"/>
<path fill-rule="evenodd" clip-rule="evenodd" d="M16.5039 8.00139C17.302 8.00139 18.0602 7.80382 18.7146 7.46188C18.7087 8.89229 18.7161 10.3227 18.7236 11.7531C18.7261 12.23 18.7286 12.7069 18.7306 13.1838C18.7306 14.3616 18.0762 14.9847 16.8391 14.9847H9.37705C8.67018 14.9847 7.9633 14.9822 7.25643 14.9797C5.48924 14.9735 3.72205 14.9673 1.95486 14.9999C0.765714 15.0227 -0.0243896 14.2476 -0.000447091 13.1534C0.047438 10.7294 0.047438 8.31294 -0.000447091 5.89653C-0.0243896 4.70352 0.837542 4.03482 1.9389 4.04242C5.25893 4.05002 8.58694 4.05762 11.907 4.05002C12.0107 5.04546 12.4656 5.96491 13.2238 6.6944C14.1017 7.53026 15.2589 8.00139 16.488 8.00139H16.5039ZM6.66313 8.16872V9.50611C6.66313 9.62033 6.66263 9.73455 6.66213 9.84853C6.66063 10.1895 6.65915 10.5284 6.67111 10.8587C6.67909 11.5122 7.33352 11.8845 7.93208 11.5654C8.76209 11.1247 9.58412 10.6687 10.3982 10.2052C10.9808 9.87085 10.9887 9.16417 10.4061 8.82982C9.57614 8.35869 8.74613 7.90277 7.90814 7.46204C7.31756 7.15049 6.67111 7.53043 6.66313 8.16872Z" fill="#675ED5"/>
</g>
<defs>
<clipPath id="clip0_3786_17805">
<rect width="20" height="15" fill="white"/>
</clipPath>
</defs>
</svg>
