<svg width="24" height="18" viewBox="0 0 24 18" fill="none" xmlns="http://www.w3.org/2000/svg">
<g clip-path="url(#clip0_3804_18382)">
<path d="M3.68719 2.42554C3.5148 2.42554 3.33284 2.44377 3.16045 2.46201C2.29852 2.57143 1.46532 3.24621 1.34082 3.93921C5.65048 3.93921 9.96013 3.93921 14.2794 3.93921C14.3177 3.41034 14.4422 2.8997 14.6337 2.42554C10.9849 2.42554 7.33603 2.42554 3.68719 2.42554Z" fill="#675ED5"/>
<path d="M16.6251 0.00928031C12.689 0.000161771 8.75283 0.000161771 4.81668 0.00928031C3.83025 0.00928031 2.96832 0.647578 2.74805 1.4956C6.87574 1.4956 11.0034 1.4956 15.1407 1.4956C15.5238 0.912016 16.0314 0.401378 16.6251 0.00928031Z" fill="#675ED5"/>
<path fill-rule="evenodd" clip-rule="evenodd" d="M19.8049 9.60191C20.7626 9.60191 21.6724 9.36483 22.4578 8.95449C22.4506 10.6711 22.4596 12.3876 22.4685 14.1042C22.4715 14.6764 22.4745 15.2486 22.4769 15.8208C22.4769 17.2341 21.6916 17.9819 20.2072 17.9819H11.2527C10.4044 17.9819 9.55614 17.9789 8.70788 17.9759C6.58727 17.9685 4.46665 17.961 2.34603 18.0001C0.919052 18.0274 -0.0290722 17.0974 -0.000341197 15.7843C0.0571209 12.8755 0.0571209 9.97577 -0.000341197 7.07608C-0.0290722 5.64446 1.00525 4.84203 2.32687 4.85115C6.31091 4.86027 10.3045 4.86939 14.2886 4.86027C14.4131 6.0548 14.959 7.15814 15.8688 8.03352C16.9222 9.03656 18.3109 9.60191 19.7858 9.60191H19.8049ZM7.99653 9.80257V11.4074C7.99653 11.5445 7.99593 11.6816 7.99533 11.8183C7.99354 12.2275 7.99176 12.6341 8.00611 13.0305C8.01569 13.8147 8.801 14.2615 9.51928 13.8786C10.5153 13.3497 11.5017 12.8026 12.4786 12.2463C13.1777 11.8451 13.1873 10.9971 12.4882 10.5959C11.4921 10.0305 10.4961 9.48342 9.49055 8.95454C8.78185 8.58068 8.00611 9.03661 7.99653 9.80257Z" fill="#675ED5"/>
<path fill-rule="evenodd" clip-rule="evenodd" d="M20 8C22.2091 8 24 6.20914 24 4C24 1.79086 22.2091 0 20 0C17.7909 0 16 1.79086 16 4C16 6.20914 17.7909 8 20 8ZM19.8814 6.82827L19.8813 6.82826L19.8813 6.82825C19.823 6.82478 19.7593 6.82098 19.6962 6.81397C19.5805 6.80147 19.4961 6.72176 19.4696 6.60767C19.4622 6.57457 19.4565 6.5404 19.4508 6.50642L19.4508 6.50625C19.4468 6.48251 19.4428 6.45886 19.4383 6.43575C19.4258 6.36229 19.382 6.31384 19.3148 6.28414L18.9069 6.11066C18.835 6.08097 18.7663 6.08565 18.7022 6.13254C18.6584 6.16536 18.6147 6.19662 18.5693 6.22788C18.4599 6.3029 18.338 6.30446 18.2411 6.21538C18.0989 6.08565 17.9598 5.95124 17.8269 5.81215C17.7347 5.71525 17.7332 5.59178 17.8082 5.47925C17.8426 5.42767 17.8785 5.37609 17.9145 5.32608C17.9614 5.25888 17.9645 5.18855 17.9348 5.11509L17.89 5.0055C17.8498 4.90707 17.8094 4.80827 17.7707 4.7103C17.7394 4.63371 17.6894 4.5837 17.605 4.5712C17.5753 4.56651 17.5456 4.56104 17.5159 4.55557C17.4862 4.5501 17.4565 4.54463 17.4268 4.53994C17.2877 4.51806 17.2002 4.43523 17.1846 4.29456C17.1611 4.08982 17.1596 3.88508 17.1893 3.6819C17.2049 3.57406 17.2737 3.50217 17.3784 3.47404C17.4423 3.45729 17.5093 3.44796 17.5748 3.43882L17.58 3.43809C17.6816 3.42402 17.7425 3.36932 17.7769 3.27242C17.8207 3.15052 17.8707 3.03017 17.9254 2.91139C17.966 2.82074 17.966 2.73947 17.9051 2.65976C17.8707 2.61444 17.8395 2.56755 17.8082 2.52066C17.7347 2.40813 17.7363 2.28935 17.8269 2.19245C17.9614 2.05023 18.1005 1.91426 18.2442 1.78297C18.3349 1.70014 18.4568 1.70014 18.5584 1.76734C18.6068 1.80016 18.6537 1.83455 18.7006 1.87049C18.7663 1.91894 18.8366 1.92363 18.9116 1.89238C18.9788 1.86346 19.046 1.83494 19.1132 1.80642C19.1804 1.77789 19.2476 1.74937 19.3148 1.72046C19.3852 1.69076 19.4289 1.64231 19.443 1.56573C19.4524 1.5079 19.4633 1.45007 19.4758 1.39381C19.4993 1.2844 19.5868 1.20313 19.6977 1.19063C19.9025 1.16562 20.1072 1.16562 20.312 1.19063C20.4229 1.2047 20.5105 1.2844 20.5339 1.39381C20.5418 1.43015 20.5484 1.46648 20.5549 1.50243L20.5549 1.50245L20.5549 1.50247C20.5588 1.52372 20.5627 1.54483 20.5667 1.56573C20.5792 1.64231 20.6246 1.69076 20.6949 1.72046C20.8292 1.77669 20.9635 1.83448 21.0979 1.89227L21.0979 1.89228L21.0981 1.89238C21.17 1.92207 21.2388 1.92051 21.3029 1.87362C21.321 1.86093 21.3389 1.84801 21.3567 1.83512L21.3568 1.83504C21.3851 1.81462 21.4132 1.7943 21.442 1.77516C21.5498 1.7017 21.6701 1.70014 21.7655 1.78766C21.9077 1.91738 22.0468 2.05179 22.1796 2.19245C22.2734 2.29248 22.275 2.4097 22.1984 2.52535C22.1641 2.57687 22.1282 2.62838 22.0923 2.67989L22.0921 2.68008C22.0452 2.74729 22.0437 2.81762 22.0734 2.89107C22.1296 3.02548 22.1859 3.15989 22.2375 3.29587C22.2703 3.38183 22.3312 3.42715 22.4188 3.44122C22.4347 3.44374 22.4506 3.4461 22.4666 3.44847C22.52 3.45635 22.5738 3.4643 22.6266 3.47873C22.7329 3.50686 22.8017 3.57875 22.8173 3.68503C22.8486 3.8929 22.847 4.10233 22.822 4.31019C22.8064 4.43679 22.7204 4.52118 22.5938 4.54307C22.5266 4.55556 22.4594 4.5665 22.3923 4.57744L22.3922 4.57745C22.3187 4.59152 22.2703 4.63528 22.2437 4.70248L22.0702 5.12916C22.0437 5.19636 22.0468 5.262 22.089 5.32452C22.107 5.35109 22.1253 5.37766 22.1437 5.40423C22.1621 5.4308 22.1804 5.45737 22.1984 5.48394C22.2734 5.59646 22.2734 5.71993 22.1812 5.81683C22.0468 5.9575 21.9061 6.09347 21.7623 6.22475C21.6733 6.30602 21.556 6.30759 21.4529 6.24195C21.4147 6.21728 21.3774 6.18969 21.3403 6.16225L21.3107 6.14036C21.2403 6.09034 21.1684 6.08565 21.0903 6.12004C20.9621 6.1763 20.8324 6.23101 20.7027 6.28414C20.6277 6.3154 20.5808 6.36542 20.5667 6.44669C20.5573 6.50451 20.548 6.56234 20.5355 6.61861C20.5105 6.72801 20.4214 6.80459 20.3104 6.81866L20.2848 6.82195C20.2662 6.82444 20.2473 6.82697 20.2291 6.82804C20.1463 6.82804 20.0697 6.8296 19.9728 6.83429C19.9448 6.83205 19.914 6.83021 19.8814 6.82827ZM21.6264 4.0023C21.6295 3.10832 20.8965 2.37375 20.001 2.37375C19.1085 2.37219 18.3787 3.09894 18.374 3.99605C18.3693 4.89003 19.0992 5.6246 19.9963 5.62772C20.8902 5.63085 21.6232 4.89941 21.6264 4.0023ZM20.758 4.64352C20.6714 4.38866 20.5019 4.21402 20.2419 4.12087C20.3622 4.01738 20.4178 3.88801 20.3932 3.73147C20.3764 3.62669 20.3234 3.5413 20.238 3.47791C20.0724 3.35501 19.8408 3.37959 19.7024 3.53095C19.5847 3.65903 19.529 3.91906 19.7554 4.12087C19.5006 4.21272 19.3285 4.38607 19.2418 4.64093C18.9637 4.35115 18.8744 3.76252 19.2522 3.3382C19.6351 2.9074 20.2936 2.88541 20.6998 3.28774C21.1099 3.69525 21.0646 4.30845 20.758 4.64352ZM20.6534 4.70686C20.5745 4.40673 20.308 4.20104 19.9988 4.20104C19.6909 4.20104 19.4257 4.40544 19.3455 4.70298C19.3365 4.73533 19.3403 4.75473 19.3675 4.77672C19.7362 5.07427 20.2614 5.07427 20.6301 4.77672C20.656 4.75602 20.6612 4.73791 20.6534 4.70686ZM20.2811 3.79746C20.2824 3.95529 20.1582 4.08077 20.0017 4.08336C19.8438 4.08595 19.7158 3.95787 19.7158 3.79875C19.7158 3.64222 19.8413 3.51544 19.9978 3.51544C20.153 3.51544 20.2798 3.64092 20.2811 3.79746Z" fill="#675ED5"/>
</g>
<defs>
<clipPath id="clip0_3804_18382">
<rect width="24" height="18" fill="white"/>
</clipPath>
</defs>
</svg>
