<svg width="18" height="15" viewBox="0 0 18 15" fill="none" xmlns="http://www.w3.org/2000/svg">
<g clip-path="url(#clip0_2477_12985)">
<path d="M8.98081 15C6.60128 15 4.22175 15 1.84222 15C0.629424 15 0 14.3766 0 13.1753C0 10.7425 0 8.30966 0 5.87682C0 4.69081 0.652452 4.05219 1.84989 4.05219C6.61663 4.05219 11.391 4.05219 16.1578 4.05219C17.3552 4.05219 18 4.69841 18 5.88442C18 8.31726 18 10.7501 18 13.1829C18 14.3766 17.3629 15 16.1501 15C13.7629 15 11.368 15 8.98081 15ZM6.30959 9.54129C6.30959 10.2255 6.30192 10.9098 6.30959 11.594C6.32495 12.5975 7.27676 13.1677 8.16716 12.6812C9.38763 12.0045 10.6004 11.3051 11.8055 10.5981C12.6652 10.0887 12.6729 8.9939 11.8209 8.48452C10.6081 7.76227 9.37996 7.06283 8.14414 6.38619C7.27676 5.90723 6.32495 6.47743 6.30959 7.45817C6.30192 8.15001 6.30959 8.84945 6.30959 9.54129Z" fill="#675ED5"/>
<path d="M1.00586 3.29192C1.3129 2.59248 1.81183 2.18193 2.54872 2.05269C2.70991 2.02228 2.87878 2.02228 3.04765 2.02228C7.03912 2.02228 11.0229 2.02228 15.0144 2.02228C16.0583 2.02228 16.7491 2.46323 17.0408 3.29192C11.7061 3.29192 6.37132 3.29192 1.00586 3.29192Z" fill="#675ED5"/>
<path d="M2.1875 1.24679C2.37172 0.51694 3.07791 0.00756362 3.95296 -3.90199e-05C6.52439 -3.90199e-05 9.08814 -3.90199e-05 11.6596 -3.90199e-05C12.4809 -3.90199e-05 13.2945 -0.00764165 14.1159 -3.90199e-05C14.9218 0.00756362 15.5436 0.456119 15.8353 1.23919C11.2758 1.24679 6.73164 1.24679 2.1875 1.24679Z" fill="#675ED5"/>
<path d="M6.31005 9.54132C6.31005 8.84188 6.30238 8.15004 6.31005 7.4506C6.3254 6.46986 7.27722 5.89966 8.14459 6.37863C9.38041 7.06287 10.6086 7.76231 11.8214 8.47695C12.6734 8.98633 12.6657 10.0811 11.806 10.5905C10.6009 11.3051 9.38809 11.997 8.16762 12.6736C7.28489 13.1678 6.3254 12.5976 6.31005 11.5864C6.30238 10.9098 6.31005 10.2256 6.31005 9.54132Z" fill="#F6F8F9"/>
</g>
<defs>
<clipPath id="clip0_2477_12985">
<rect width="18" height="15" fill="white"/>
</clipPath>
</defs>
</svg>
