<svg xmlns="http://www.w3.org/2000/svg" viewBox="0 0 24 24">
    <title><?php echo $data['title'] ?> </title>
    <style type="text/css">.st1{fill:none;stroke-width:0.5;stroke-linecap:round;stroke-miterlimit:10;}</style>
    <rect x="16" y="12.5" stroke="none" width="5.9" height="0.8"/>
    <rect x="16" y="14.1" stroke="none" width="3.5" height="0.8"/>
    <polygon stroke="none" points="16,11.8 21.9,11.8 21.9,11 16.2,11 16,11.5 "/>
    <polygon stroke="none" points="21.9,9.4 16.9,9.4 16.5,10.2 21.9,10.2 "/>
    <line class="st1" x1="11.9" y1="8.4" x2="8.8" y2="15.8"/>
    <line class="st1" x1="17.2" y1="8.6" x2="14" y2="15.9"/>
    <path stroke="none" d="M8,11.4V10c0-0.3-0.2-0.4-0.4-0.4H2.5c-0.2,0-0.4,0.2-0.4,0.4v4.2c0,0.2,0.2,0.4,0.4,0.4h5.1
	c0.2,0,0.4-0.2,0.4-0.4v-1.5l1.5,1.5l0.2-0.4V9.7L8,11.4z"/>
    <path stroke="none" d="M14.9,9.2c0-0.1,0-0.2-0.1-0.2c-0.1-0.1-0.1-0.1-0.2-0.1c-0.1,0-0.2,0-0.2,0.1l-1.8,1.8h-1.4c0,0-0.1,0-0.1,0
	l-0.2,0.5v1.8c0,0.1,0,0.2,0.1,0.2c0.1,0.1,0.1,0.1,0.2,0.1h1.4l1.8,1.8c0,0,0,0,0,0l0.6-1.3V9.2z"/>
</svg>
