<svg xmlns="http://www.w3.org/2000/svg" width="81" height="70" viewBox="0 0 81 70">
    <path fill="#93A3B0"
          d="M13.607 0c1.55 0 2.888 1.036 3.256 2.492l.04.185 1.165 6.073h59.077c2.065 0 3.623 1.802 3.317 3.771l-.034.18-6.055 28.437c-.311 1.46-1.587 2.524-3.095 2.607l-.19.005H24.777l1.677 8.75h41.375c1.598 0 2.892 1.079 3.254 2.479 1.67 1.59 2.71 3.811 2.71 6.271 0 4.832-4.005 8.75-8.945 8.75s-8.944-3.918-8.944-8.75c-.002-1.418.35-2.813 1.024-4.065l.175-.31H36.814c.788 1.33 1.202 2.839 1.2 4.375 0 4.832-4.005 8.75-8.945 8.75s-8.944-3.918-8.944-8.75c0-2.159.8-4.135 2.124-5.66l.203-.226-9.773-50.989H1.677c-.877 0-1.597-.66-1.67-1.5L0 2.736V1.64C0 .782.674.078 1.532.006L1.677 0h11.93zm15.462 56.875c-2.466 0-4.472 1.963-4.472 4.375s2.006 4.375 4.472 4.375c2.466 0 4.473-1.963 4.473-4.375s-2.007-4.375-4.473-4.375zm35.778 0c-2.466 0-4.472 1.963-4.472 4.375s2.006 4.375 4.472 4.375c2.466 0 4.472-1.963 4.472-4.375s-2.006-4.375-4.472-4.375zm10.923-43.75H18.906l5.032 26.25H70.18l5.59-26.25zM46.51 28.712c4.081 0 7.924 1.725 10.532 4.73.697.783.587 1.969-.236 2.629-.82.662-2.024.535-2.686-.23-1.89-2.163-4.67-3.407-7.619-3.407-2.95 0-5.729 1.244-7.617 3.405-.673.782-1.874.884-2.683.236-.827-.652-.938-1.838-.244-2.63 2.631-3.01 6.474-4.733 10.553-4.733zM39.417 16.5c1.84 0 3.337 1.431 3.337 3.214 0 1.782-1.496 3.213-3.337 3.213-1.84 0-3.336-1.431-3.336-3.213 0-1.783 1.496-3.214 3.336-3.214zm14.183 0c1.84 0 3.337 1.431 3.337 3.214 0 1.782-1.496 3.213-3.337 3.213-1.84 0-3.336-1.431-3.336-3.213 0-1.783 1.496-3.214 3.336-3.214z"/>
</svg>
