<svg id="WishList_Member" data-name="WishList Member" xmlns="http://www.w3.org/2000/svg" viewBox="0 0 532.46 217.17"><defs><style>.cls-1{fill:#1e7fc0;}.cls-2{fill:#333;}</style></defs><title>WishListMember-logo-dark</title><g id="member"><path class="cls-1" d="M238.05,219.81c-.11-3-.22-6.52-.21-10.12h-.1c-.78,3.15-1.82,6.64-2.74,9.53l-3,9.58h-4.31L225,219.31c-.79-2.89-1.6-6.38-2.21-9.62h-.08c-.12,3.34-.26,7.14-.4,10.19l-.46,9.32h-5.14l1.57-24.55h7.4l2.4,8.2c.78,2.82,1.53,5.9,2.08,8.78h.12c.67-2.84,1.5-6.08,2.34-8.82l2.6-8.16h7.27l1.31,24.55h-5.39Z" transform="translate(-39.77 -12.28)"/><path class="cls-1" d="M270.09,218.81h-9v5.84h10.1v4.55H255.5V204.65h15.13v4.55h-9.57v5.11h9Z" transform="translate(-39.77 -12.28)"/><path class="cls-1" d="M303.08,219.81c-.11-3-.22-6.52-.21-10.12h-.1c-.78,3.15-1.82,6.64-2.74,9.53l-3,9.58h-4.31l-2.65-9.49c-.79-2.89-1.6-6.38-2.21-9.62h-.08c-.12,3.34-.26,7.14-.41,10.19l-.45,9.32h-5.14l1.57-24.55h7.4l2.4,8.2c.77,2.82,1.53,5.9,2.08,8.78h.12c.67-2.84,1.5-6.08,2.33-8.82l2.61-8.16h7.26l1.32,24.55h-5.39Z" transform="translate(-39.77 -12.28)"/><path class="cls-1" d="M320.53,205a45.06,45.06,0,0,1,7.16-.52c3.39,0,5.47.33,7.27,1.37a5.35,5.35,0,0,1,2.92,4.84c0,2.16-1.26,4.2-4,5.23V216a6.11,6.11,0,0,1,4.89,6,6.5,6.5,0,0,1-2.56,5.21c-1.8,1.45-4.76,2.24-9.65,2.24a41.31,41.31,0,0,1-6-.37Zm5.5,9.4h1.8c2.94,0,4.48-1.22,4.48-3s-1.42-2.85-3.93-2.85a12.1,12.1,0,0,0-2.35.17Zm0,10.87a13.63,13.63,0,0,0,2.13.1c2.52,0,4.74-1,4.74-3.56s-2.2-3.44-5-3.44H326Z" transform="translate(-39.77 -12.28)"/><path class="cls-1" d="M364.49,218.81h-9v5.84h10.1v4.55H349.91V204.65H365v4.55h-9.57v5.11h9Z" transform="translate(-39.77 -12.28)"/><path class="cls-1" d="M376.73,205a47.35,47.35,0,0,1,7.38-.52c3.65,0,6.2.55,7.95,1.94a6.22,6.22,0,0,1,2.27,5.15,6.5,6.5,0,0,1-4.33,6v.12c1.7.69,2.66,2.31,3.28,4.57a71.49,71.49,0,0,0,2,6.93h-5.68a30.77,30.77,0,0,1-1.69-5.72c-.69-3.07-1.72-3.89-4-3.92h-1.65v9.64h-5.51Zm5.51,10.56h2.17c2.76,0,4.4-1.4,4.4-3.54s-1.54-3.39-4.07-3.41a11.35,11.35,0,0,0-2.5.19Z" transform="translate(-39.77 -12.28)"/></g><g id="WishList"><path class="cls-2" d="M64.62,180,39.77,75H65.18l8,43.21c2.24,12.5,4.42,26.12,6.1,36.71h.32c1.69-11.4,4.2-24,6.85-37L95.4,75h25.21l8.39,44.3c2.24,12.24,4,23.45,5.54,35.07h.32c1.64-11.7,3.85-23.87,6.17-36.46L149.51,75h24.12L146.57,180H120.94L112,134.77c-2.1-10.5-3.74-20.4-5.06-32.29h-.31c-1.78,11.81-3.47,21.77-6,32.36L90.63,180Z" transform="translate(-39.77 -12.28)"/><path class="cls-2" d="M180.94,180V103.74h23.73V180Z" transform="translate(-39.77 -12.28)"/><path class="cls-2" d="M218.57,159.31A46.05,46.05,0,0,0,238.88,165c7.15,0,10.21-2.4,10.21-6.29s-2.43-5.86-11.18-8.81c-15.85-5.21-21.81-13.83-21.72-22.78,0-14.31,12.07-25.06,31-25.06,8.92,0,16.8,2.1,21.46,4.44l-4.12,16.32a38.83,38.83,0,0,0-16.51-4.3c-5.78,0-9.09,2.3-9.09,6.14,0,3.65,3,5.57,12.36,8.8,14.46,4.91,20.51,12.34,20.61,23.45,0,14.22-11.1,24.71-32.93,24.71-9.93,0-18.86-2.25-24.67-5.37Z" transform="translate(-39.77 -12.28)"/><path class="cls-2" d="M279.32,69.41h23.73v43.51h.31a26.93,26.93,0,0,1,9.28-7.87A26.39,26.39,0,0,1,325,102c15.12,0,26.7,10.48,26.7,33.46V180H327.94V138.09c0-10-3.45-16.89-12.24-16.89a12.46,12.46,0,0,0-11.88,8.37,14.45,14.45,0,0,0-.77,5.18V180H279.32Z" transform="translate(-39.77 -12.28)"/><path class="cls-2" d="M359.57,75h23.72v85.05H425V180H359.57Z" transform="translate(-39.77 -12.28)"/><path class="cls-2" d="M432.35,180V103.74h23.72V180Z" transform="translate(-39.77 -12.28)"/><path class="cls-2" d="M468,159.31c4.31,2.65,13.42,5.66,20.31,5.66,7.15,0,10.21-2.4,10.21-6.29s-2.43-5.86-11.18-8.81c-15.85-5.21-21.81-13.83-21.72-22.78,0-14.31,12.08-25.06,31-25.06,8.92,0,16.81,2.1,21.47,4.44l-4.13,16.32a38.79,38.79,0,0,0-16.51-4.3c-5.78,0-9.09,2.3-9.09,6.14,0,3.65,3,5.57,12.36,8.8,14.46,4.91,20.52,12.34,20.61,23.45,0,14.22-11.09,24.71-32.93,24.71-9.93,0-18.86-2.25-24.67-5.37Z" transform="translate(-39.77 -12.28)"/><path class="cls-2" d="M555.18,82v21.73h17.05v17.48H555.18v27.61c0,9.19,2.28,13.43,9.35,13.43a30.89,30.89,0,0,0,7-.71l.19,18c-3.06,1.1-8.72,2-15.35,2-7.66,0-14-2.67-17.86-6.62-4.4-4.51-6.55-11.76-6.55-22.58V121.22H521.88V103.74H532V87.37Z" transform="translate(-39.77 -12.28)"/></g><path id="bounce" class="cls-1" d="M456.86,82a13.41,13.41,0,0,1-13.4,13.5c-7.93,0-13.59-7-13.53-13.13.08-8,6.8-14.15,13.72-13.64C450.45,68.17,456.89,74.58,456.86,82ZM423.54,75S302.47-38.88,195.48,88.11c0,0-36.78-75.63-119.47-74.84,0,0,71.11-13.4,120.07,58.58,0,0,106.11-125.65,242.11-10.49C438.19,61.36,424.67,60.51,423.54,75Z" transform="translate(-39.77 -12.28)"/></svg>