<?xml version="1.0" encoding="utf-8"?>
<!-- Generator: Adobe Illustrator 23.0.6, SVG Export Plug-In . SVG Version: 6.00 Build 0)  -->
<svg version="1.1" id="Layer_1" xmlns="http://www.w3.org/2000/svg" xmlns:xlink="http://www.w3.org/1999/xlink" x="0px" y="0px"
	 viewBox="0 0 16 16" style="enable-background:new 0 0 32 32;" xml:space="preserve" width="32px" height="32px">
<style type="text/css">
	.st0{fill:#1E7FC0;}
	.st1{fill:#FFFFFF;}
</style>
<title>WishListMember-logomark-16px</title>
<g>
	<g id="wlm_logomark">
		<path class="st0" d="M0.6,0h14.9C15.8,0,16,0.2,16,0.6v14.9c0,0.3-0.2,0.5-0.5,0.5H0.6C0.3,16,0,15.8,0,15.5V0.6
			C0,0.2,0.2,0,0.6,0z"/>
		<path id="bounce" class="st1" d="M0,8.1c1.7,1.6,3.1,3.4,4.2,5.5c3.1-3.5,7.2-6.1,11.8-7.3V3.7c0,0-6.2,1.2-11.7,7.5
			C3.1,9.4,1.6,7.8,0,6.4V8.1z"/>
	</g>
</g>
</svg>
