<svg width="23" height="28" viewBox="0 0 23 28" fill="none" xmlns="http://www.w3.org/2000/svg">
<g clip-path="url(#clip0_823_1766)">
<path d="M11.4393 28C10.9278 27.908 10.4163 27.8068 9.90477 27.7332C8.34229 27.4847 6.77982 27.2455 5.22664 26.997C3.98968 26.8038 2.76202 26.6106 1.52507 26.4174C1.42276 26.399 1.32976 26.3805 1.21815 26.3529C1.21815 25.2212 1.21815 24.1078 1.21815 22.9852C1.21815 22.3871 1.22745 21.7798 1.20885 21.1817C1.20885 21.0805 1.15305 20.9517 1.07864 20.8873C0.185801 20.1696 -0.0932119 19.2218 0.0276939 18.1545C0.111398 17.3631 0.427613 16.6638 1.12515 16.1853C1.19955 16.1393 1.21815 15.9829 1.21815 15.8725C1.21815 13.931 1.21815 11.9895 1.21815 10.048C1.21815 9.89155 1.21815 9.74433 1.21815 9.5603C1.81338 9.65232 2.38071 9.74433 2.93873 9.82714C4.51051 10.0756 6.08228 10.3148 7.64476 10.5633C8.84451 10.7473 10.035 10.9681 11.2347 11.1153C11.7091 11.1706 12.202 11.1061 12.6763 11.0325C14.3597 10.7841 16.0338 10.5081 17.7078 10.2412C19.0564 10.0296 20.4143 9.80874 21.7628 9.59711C21.8465 9.58791 21.9302 9.57871 22.0232 9.57871C22.0325 9.66152 22.0418 9.73513 22.0418 9.79954C22.0418 11.8883 22.0418 13.977 22.0511 16.0565C22.0511 16.1945 22.107 16.3602 22.2 16.4614C23.2695 17.6024 23.2602 19.5439 22.1721 20.6664C22.0884 20.7493 22.0511 20.9057 22.0511 21.0253C22.0418 22.6816 22.0511 24.347 22.0511 26.0033C22.0511 26.1137 22.0511 26.2241 22.0511 26.3621C21.4838 26.4542 20.9258 26.5554 20.3585 26.6382C18.7588 26.8866 17.1684 27.1443 15.5687 27.3927C14.369 27.5767 13.1692 27.77 11.9788 27.954C11.923 27.9632 11.8765 27.9908 11.83 28.0092C11.6998 28 11.5695 28 11.4393 28ZM11.151 26.9694C11.151 26.8314 11.151 26.721 11.151 26.6198C11.151 23.0956 11.151 19.5623 11.151 16.0381C11.151 14.7959 11.151 13.5629 11.151 12.3207C11.151 12.2011 11.1882 12.0631 10.9929 12.0355C10.0536 11.8975 9.12353 11.741 8.18418 11.5938C6.72401 11.3638 5.26384 11.1337 3.80367 10.9037C3.26425 10.8209 2.72482 10.7289 2.1668 10.6461C2.1668 12.4128 2.1668 14.1518 2.1668 15.8817C3.43166 16.0749 4.07339 17.3171 4.09199 18.4489C4.11059 19.9027 3.45956 20.8505 2.1575 21.2093C2.1575 22.6172 2.1575 24.025 2.1668 25.4328C2.1668 25.488 2.2784 25.5708 2.3435 25.58C3.03174 25.6996 3.71997 25.8101 4.4082 25.9205C6.22179 26.2057 8.03538 26.491 9.84896 26.7762C10.2675 26.8406 10.6953 26.905 11.151 26.9694ZM21.0839 10.6553C20.6468 10.7197 20.2283 10.7749 19.8097 10.8393C17.3265 11.235 14.8433 11.6398 12.3508 12.0171C12.0997 12.0539 12.0904 12.1643 12.0904 12.3575C12.0904 17.1239 12.0904 21.8902 12.0904 26.6566C12.0904 26.7578 12.0904 26.8498 12.0904 26.951C12.1648 26.951 12.2113 26.9602 12.2578 26.951C13.2157 26.8038 14.183 26.6474 15.1409 26.5002C17.0382 26.1965 18.9355 25.8929 20.8328 25.6076C21.056 25.5708 21.0932 25.488 21.0932 25.2948C21.0839 24.025 21.0932 22.7644 21.0932 21.4946C21.0932 21.4026 21.0839 21.3198 21.0746 21.2277C20.1725 21.2093 19.6051 20.7309 19.2238 19.9947C18.9355 19.4335 18.8611 18.8354 18.9076 18.2189C19.0006 16.9123 19.819 16.0289 21.0839 15.8817C21.0839 14.1426 21.0839 12.4128 21.0839 10.6553Z" fill="white"/>
<path d="M12.6577 -2.97222e-05C13.0949 0.0735819 13.532 0.119589 13.9598 0.211604C15.9222 0.625669 17.3731 1.72984 18.3868 3.41371C19.2145 4.77552 19.6331 6.27536 19.847 7.8396C19.9028 8.25367 19.9586 8.66773 20.0237 9.1186C19.5401 9.21062 19.0657 9.30263 18.5635 9.39465C18.6007 9.02659 18.6379 8.68614 18.6751 8.29967C18.1729 8.37329 17.6986 8.4469 17.2056 8.52051C17.2056 8.87016 17.2056 9.20142 17.2056 9.54187C15.6711 9.54187 14.1644 9.54187 12.6205 9.54187C12.6205 9.30263 12.6205 9.0634 12.6205 8.81496C12.3415 8.81496 12.109 8.81496 11.8393 8.81496C11.8393 9.04499 11.8393 9.27503 11.8393 9.53267C10.2954 9.53267 8.77945 9.53267 7.22627 9.53267C7.22627 9.19221 7.22627 8.84256 7.22627 8.49291C6.62174 8.41009 6.06372 8.32728 5.45919 8.24447C5.55219 8.73214 5.6359 9.18301 5.7196 9.67989C5.34758 9.61548 4.97556 9.56027 4.59425 9.49586C4.45474 9.47746 4.32453 9.42225 4.18503 9.42225C3.91531 9.42225 3.85021 9.28423 3.82231 9.03579C3.6456 7.2047 3.98042 5.48403 4.89186 3.88298C5.56149 2.7144 6.51944 1.84946 7.7378 1.26057C7.97961 1.14095 8.29582 1.15015 8.56554 1.07654C8.71434 1.03973 8.90035 0.984525 8.96546 0.883309C9.41188 0.183999 10.1187 0.119589 10.8441 0.0367761C10.9558 0.0275746 11.0581 -2.97222e-05 11.1604 -0.0184326C11.6626 -2.97222e-05 12.1555 -2.97222e-05 12.6577 -2.97222e-05ZM18.7123 7.52675C18.5821 7.05748 18.4891 6.61581 18.3403 6.18334C18.2566 5.9165 18.052 5.76928 17.7451 5.74167C16.5267 5.62205 15.3084 5.53004 14.0993 5.34601C12.5089 5.10677 11.0023 4.6375 9.71879 3.62534C9.68159 3.59774 9.62579 3.57933 9.60719 3.57013C9.12356 5.77848 7.56109 6.73543 5.47779 7.12189C5.46849 7.22311 5.45919 7.34272 5.44989 7.47154C6.04512 7.56356 6.61244 7.63717 7.21697 7.72919C7.21697 7.37953 7.21697 7.07588 7.21697 6.76303C7.28207 6.75383 7.31928 6.73543 7.35648 6.73543C8.77015 6.73543 10.1931 6.73543 11.6068 6.72623C11.7835 6.72623 11.8207 6.80904 11.8207 6.95626C11.8114 7.22311 11.8207 7.49915 11.8207 7.78439C12.0997 7.78439 12.3415 7.78439 12.6205 7.78439C12.6205 7.52675 12.6391 7.27831 12.6205 7.03908C12.6019 6.79984 12.667 6.72623 12.9181 6.72623C14.1365 6.73543 15.3456 6.73543 16.5639 6.73543C16.7685 6.73543 16.9824 6.73543 17.2336 6.73543C17.2336 7.08508 17.2336 7.40713 17.2336 7.74759C17.7172 7.67398 18.1636 7.60957 18.7123 7.52675ZM7.7471 7.26911C7.7471 7.87641 7.7471 8.4469 7.7471 9.03579C8.92825 9.03579 10.1001 9.03579 11.272 9.03579C11.272 8.4377 11.272 7.85801 11.272 7.26911C10.0815 7.26911 8.92825 7.26911 7.7471 7.26911ZM16.6755 9.03579C16.6755 8.4285 16.6755 7.8488 16.6755 7.26911C15.4944 7.26911 14.3225 7.26911 13.1507 7.26911C13.1507 7.86721 13.1507 8.4377 13.1507 9.03579C14.3318 9.03579 15.4851 9.03579 16.6755 9.03579Z" fill="white"/>
</g>
<defs>
<clipPath id="clip0_823_1766">
<rect width="23" height="28" fill="white"/>
</clipPath>
</defs>
</svg>
