<svg width="24" height="26" viewBox="0 0 24 26" fill="none" xmlns="http://www.w3.org/2000/svg">
<path d="M16.0077 11.6782C16.2711 11.8192 16.4838 11.94 16.7067 12.0508C17.74 12.6148 18.6214 13.3501 19.4015 14.2263C19.8877 14.7702 20.4044 15.2939 20.9312 15.7975C21.6606 16.4924 21.6404 17.3384 21.4884 18.2247C21.4175 18.6477 21.3668 19.0808 21.3263 19.383C21.9544 19.7959 22.5927 20.0779 23.0485 20.5311C24.0312 21.4879 24.244 22.6965 23.7273 23.9555C23.2005 25.2346 22.1874 25.9698 20.7894 25.9799C14.9338 26.0101 9.07825 26 3.22268 25.9899C1.70307 25.9899 0.375939 24.8619 0.0618864 23.3612C-0.242036 21.8908 0.598815 20.3599 2.02725 19.7657C2.19947 19.6952 2.3717 19.6347 2.55405 19.5743C2.473 18.97 2.40209 18.3959 2.32104 17.8118C2.16908 16.714 2.56418 15.9284 3.54686 15.4047C3.67856 15.3342 3.81026 15.2435 3.90144 15.1327C5.58314 13.0681 5.58314 13.0681 7.99426 11.6278C6.1302 10.0566 5.22856 8.08261 5.52236 5.64528C5.72497 3.99354 6.51517 2.63387 7.77138 1.55621C10.4459 -0.730048 14.407 -0.468186 16.8384 2.15043C19.1381 4.61798 19.3204 8.89841 16.0077 11.6782ZM4.52954 17.3586C4.51941 17.4492 4.50928 17.5096 4.51941 17.5801C4.78281 19.5542 5.06647 21.5282 5.31974 23.5022C5.36026 23.8145 5.54262 23.8245 5.77562 23.8245C9.89884 23.8245 14.0119 23.8245 18.1351 23.8245C18.4593 23.8245 18.5606 23.7037 18.6011 23.3915C18.743 22.2433 18.9152 21.1052 19.0672 19.957C19.1887 19.1009 19.29 18.2449 19.4015 17.3586C14.4171 17.3586 9.48347 17.3586 4.52954 17.3586ZM11.9858 10.812C14.407 10.8221 16.342 8.91855 16.3521 6.52151C16.3622 4.1144 14.4577 2.21086 12.0364 2.19072C9.59491 2.17058 7.64981 4.08418 7.64981 6.50137C7.64981 8.89841 9.56452 10.8019 11.9858 10.812ZM17.2132 15.1227C13.9613 12.0005 9.01746 12.6551 6.76844 15.1227C10.2433 15.1227 13.6776 15.1227 17.2132 15.1227ZM21.0224 21.7599C20.9211 22.4548 20.8299 23.0994 20.7286 23.7641C21.3263 23.744 21.6708 23.4418 21.7721 22.9181C21.8734 22.4246 21.6302 22.0419 21.0224 21.7599ZM3.14163 23.7742C3.05045 23.0792 2.96941 22.4548 2.87823 21.8001C2.38183 22.0016 2.18934 22.3641 2.21973 22.8073C2.25013 23.3008 2.55405 23.6231 3.14163 23.7742Z" fill="white"/>
</svg>
