<svg width="24" height="24" viewBox="0 0 24 24" fill="none" xmlns="http://www.w3.org/2000/svg">
<g clip-path="url(#clip0_823_1770)">
<path d="M4.12687 14.0147C1.99218 10.3997 2.56143 5.64529 5.60082 2.65177C9.17896 -0.880388 14.4649 -0.745731 17.9007 2.18565C21.2755 5.06523 22.1497 10.2029 19.9541 13.8904C18.6224 13.8076 17.3518 13.6936 16.071 13.6522C14.8105 13.6108 13.5907 13.8904 12.3912 14.2737C12.1675 14.3462 11.8829 14.3566 11.6694 14.2944C9.17896 13.4865 6.68849 13.414 4.12687 14.0147ZM9.89053 10.7933C9.89053 10.1615 9.34161 9.60213 8.72153 9.61249C8.11162 9.61249 7.54237 10.1926 7.54237 10.8037C7.54237 11.3941 8.13195 11.9949 8.72153 11.9949C9.33144 11.9949 9.90069 11.4148 9.89053 10.7933ZM16.4471 10.8037C16.4471 10.2029 15.8677 9.61249 15.2781 9.61249C14.658 9.61249 14.1091 10.1615 14.1091 10.7933C14.0989 11.4045 14.658 11.9742 15.2679 11.9949C15.8168 12.0052 16.4369 11.3837 16.4471 10.8037Z" fill="white"/>
<path d="M1.0167 18.8415C1.0167 18.0957 1.00654 17.381 1.02687 16.6559C1.02687 16.542 1.15901 16.3866 1.27083 16.3245C4.42204 14.5636 7.71556 14.1493 11.1412 15.4026C11.2734 15.4544 11.4563 15.6408 11.4563 15.7651C11.4767 18.4894 11.4665 21.2136 11.4665 23.9689C9.12852 23.9689 6.82102 23.9689 4.44237 23.9689C5.31657 22.7155 5.50971 21.3689 4.63551 20.0845C3.7918 18.8312 2.54148 18.4168 1.0167 18.8415Z" fill="white"/>
<path d="M22.9736 18.8312C21.1642 18.3444 19.9138 19.173 19.3344 20.0949C18.5314 21.3897 18.6534 22.6741 19.5581 23.9585C17.1997 23.9585 14.8821 23.9585 12.5136 23.9585C12.5136 23.8032 12.5136 23.6582 12.5136 23.5028C12.5136 21.0064 12.5237 18.4998 12.5034 16.0034C12.5034 15.6409 12.5949 15.4648 12.9507 15.3405C16.3255 14.1597 19.5377 14.5947 22.6381 16.2831C22.8007 16.366 22.9431 16.6353 22.9532 16.8321C23.0041 17.4743 22.9736 18.1372 22.9736 18.8312Z" fill="white"/>
<path d="M0 21.835C0 20.6128 0.874206 19.753 2.10419 19.7634C3.23253 19.7738 4.15756 20.7267 4.15756 21.8765C4.15756 23.0159 3.16137 24.0206 2.0432 24.0103C0.894536 23.9896 0 23.0366 0 21.835Z" fill="white"/>
<path d="M23.9999 21.8661C23.9999 23.047 23.0647 24.0103 21.9161 23.9999C20.8081 23.9896 19.8525 23.0055 19.8424 21.8765C19.8322 20.7164 20.7776 19.7531 21.9364 19.7531C23.1461 19.7531 23.9999 20.6335 23.9999 21.8661Z" fill="white"/>
</g>
<defs>
<clipPath id="clip0_823_1770">
<rect width="24" height="24" fill="white"/>
</clipPath>
</defs>
</svg>
