<svg width="24" height="31" viewBox="0 0 24 31" fill="none" xmlns="http://www.w3.org/2000/svg">
<g clip-path="url(#clip0_823_1649)">
<path d="M23.6574 2.6949C23.3319 1.89512 22.7666 1.21705 22.0814 0.747616C21.7388 0.504206 21.3448 0.312956 20.9336 0.191251C20.5225 0.0695457 20.0771 0 19.6317 0H4.35118C3.76874 0 3.1863 0.121705 2.65525 0.347729C1.88437 0.695457 1.21627 1.25182 0.753747 1.94728C0.513919 2.29501 0.325482 2.6949 0.205567 3.11217C0.0685225 3.52944 0 3.98149 0 4.43354V26.5665C0 27.175 0.119914 27.7661 0.342612 28.2877C0.668094 29.0875 1.2334 29.7656 1.91863 30.235C2.26124 30.4784 2.65525 30.6697 3.06638 30.7914C3.47752 30.9131 3.90578 30.9826 4.36831 30.9826H19.6317C20.2313 30.9826 20.8137 30.8609 21.3276 30.6349C22.1156 30.3045 22.7837 29.7308 23.2463 29.0353C23.4861 28.6876 23.6745 28.2877 23.7944 27.8704C23.9143 27.4532 23.9829 27.0185 23.9829 26.5491V4.41615C24 3.82501 23.8801 3.23388 23.6574 2.6949ZM21.7901 26.5665C21.7901 26.8794 21.7388 27.1576 21.6188 27.4184C21.4475 27.8183 21.1734 28.1486 20.8308 28.392C20.6595 28.5137 20.4711 28.6007 20.2655 28.6702C20.06 28.7398 19.8373 28.7745 19.6146 28.7745H4.36831C4.05996 28.7745 3.78587 28.7224 3.52891 28.6007C3.1349 28.4268 2.80942 28.1486 2.56959 27.8009C2.44968 27.627 2.36403 27.4358 2.2955 27.2271C2.22698 27.0185 2.19272 26.7925 2.19272 26.5665V4.41615C2.19272 4.1032 2.24411 3.82501 2.36403 3.56422C2.53533 3.16433 2.80942 2.83399 3.15203 2.59058C3.32334 2.46887 3.51178 2.38194 3.71734 2.31239C3.92291 2.24285 4.14561 2.20808 4.36831 2.20808H19.6146C19.9229 2.20808 20.197 2.26024 20.454 2.38194C20.848 2.5558 21.1734 2.83399 21.4133 3.18172C21.5332 3.35558 21.6188 3.54683 21.6874 3.75547C21.7559 3.96411 21.7901 4.19013 21.7901 4.41615V26.5665Z" fill="white"/>
<path d="M17.4387 4.19006H6.54363C5.94405 4.19006 5.44727 4.69427 5.44727 5.30279C5.44727 5.91132 5.94405 6.41553 6.54363 6.41553H17.4558C18.0554 6.41553 18.5522 5.91132 18.5522 5.30279C18.5522 4.69427 18.0383 4.19006 17.4387 4.19006Z" fill="white"/>
<path d="M17.4387 9.31909H6.54363C5.94405 9.31909 5.44727 9.8233 5.44727 10.4318C5.44727 11.0403 5.94405 11.5446 6.54363 11.5446H17.4558C18.0554 11.5446 18.5522 11.0403 18.5522 10.4318C18.5351 9.8233 18.0383 9.31909 17.4387 9.31909Z" fill="white"/>
<path d="M17.4387 14.4481H6.54363C5.94405 14.4481 5.44727 14.9523 5.44727 15.5609C5.44727 16.1694 5.94405 16.6736 6.54363 16.6736H17.4558C18.0554 16.6736 18.5522 16.1694 18.5522 15.5609C18.5522 14.9523 18.0383 14.4481 17.4387 14.4481Z" fill="white"/>
<path d="M17.4387 19.5771H6.54363C5.94405 19.5771 5.44727 20.0814 5.44727 20.6899C5.44727 21.2984 5.94405 21.8026 6.54363 21.8026H17.4558C18.0554 21.8026 18.5522 21.2984 18.5522 20.6899C18.5351 20.064 18.0383 19.5771 17.4387 19.5771Z" fill="white"/>
<path d="M17.4387 24.7061H6.54363C5.94405 24.7061 5.44727 25.2103 5.44727 25.8188C5.44727 26.4273 5.94405 26.9315 6.54363 26.9315H17.4558C18.0554 26.9315 18.5522 26.4273 18.5522 25.8188C18.5522 25.2103 18.0383 24.7061 17.4387 24.7061Z" fill="white"/>
</g>
<defs>
<clipPath id="clip0_823_1649">
<rect width="24" height="31" fill="white"/>
</clipPath>
</defs>
</svg>
