<svg width="22" height="24" viewBox="0 0 22 24" fill="none" xmlns="http://www.w3.org/2000/svg">
<g clip-path="url(#clip0_823_1868)">
<path d="M20.8432 6.36094C20.9725 6.48281 21.0969 6.64219 21.2262 6.83906H14.5604V0.520313C14.7743 0.642188 14.9434 0.759375 15.0678 0.88125L20.8432 6.36094ZM14.0928 8.55938H21.8182V22.7203C21.8182 23.0813 21.6888 23.4 21.4351 23.6391C21.1814 23.8781 20.8432 24 20.4601 24H1.35804C0.975003 24 0.636737 23.8781 0.383037 23.6391C0.129337 23.4 0 23.0813 0 22.7203V1.27969C0 0.91875 0.129337 0.6 0.383037 0.360937C0.636737 0.121875 0.975003 0 1.35804 0H12.7347V7.27969C12.7347 7.64062 12.8641 7.95937 13.1178 8.19844C13.3715 8.44219 13.7097 8.55938 14.0928 8.55938ZM16.386 18.4406V17.6016C16.386 17.4797 16.3413 17.3625 16.2567 17.2828C16.1721 17.2031 16.0428 17.1609 15.9184 17.1609H5.89976C5.77043 17.1609 5.64606 17.2031 5.5615 17.2828C5.47693 17.3625 5.43216 17.4844 5.43216 17.6016V18.4406C5.43216 18.5625 5.47693 18.6797 5.5615 18.7594C5.64606 18.8391 5.7754 18.8812 5.89976 18.8812H15.9184C16.0478 18.8812 16.1721 18.8391 16.2567 18.7594C16.3413 18.6422 16.386 18.5578 16.386 18.4406ZM16.386 15V14.1609C16.386 14.0391 16.3413 13.9219 16.2567 13.8422C16.1721 13.7625 16.0428 13.7203 15.9184 13.7203H5.89976C5.77043 13.7203 5.64606 13.7625 5.5615 13.8422C5.47693 13.9219 5.43216 14.0438 5.43216 14.1609V15C5.43216 15.1219 5.47693 15.2391 5.5615 15.3187C5.64606 15.3984 5.7754 15.4406 5.89976 15.4406H15.9184C16.0478 15.4406 16.1721 15.3984 16.2567 15.3187C16.3413 15.2391 16.386 15.1219 16.386 15ZM16.386 11.5594V10.7203C16.386 10.5984 16.3413 10.4812 16.2567 10.4016C16.1721 10.3219 16.0428 10.2797 15.9184 10.2797H5.89976C5.77043 10.2797 5.64606 10.3219 5.5615 10.4016C5.47693 10.4812 5.43216 10.6031 5.43216 10.7203V11.5594C5.43216 11.6813 5.47693 11.7984 5.5615 11.8781C5.64606 11.9578 5.7754 12 5.89976 12H15.9184C16.0478 12 16.1721 11.9578 16.2567 11.8781C16.3413 11.7984 16.386 11.6813 16.386 11.5594Z" fill="white"/>
</g>
<defs>
<clipPath id="clip0_823_1868">
<rect width="21.8182" height="24" fill="white"/>
</clipPath>
</defs>
</svg>
