<svg width="32" height="24" viewBox="0 0 32 24" fill="none" xmlns="http://www.w3.org/2000/svg">
<g clip-path="url(#clip0_823_1806)">
<path d="M15.7695 1.8328C16.9798 0.397644 18.4841 -0.0346324 20.2133 0.0172408C22.8934 0.069114 25.5735 0.0345318 28.2536 0.0345318C30.3631 0.0345318 31.4352 1.10658 31.4352 3.23338C31.4352 9.07776 31.4352 14.9394 31.4352 20.7838C31.4352 22.9625 30.3804 24.0345 28.2017 24.0345C19.9366 24.0345 11.6542 24.0345 3.38905 24.0345C1.17579 24 0 22.8933 0 20.6801C0 14.7146 0.0518732 8.74923 0.103746 2.78381C0.121037 1.14116 1.26225 0.0345318 2.9049 0.0172408C5.96542 -5.03054e-05 9.00865 -5.03054e-05 12.0692 0.0172408C13.5389 0.0172408 14.732 0.65701 15.7695 1.8328ZM14.8012 19.4005C14.8184 19.0028 14.8357 18.778 14.8357 18.5533C14.8357 14.0057 14.8357 9.45816 14.8357 4.91061C14.8357 2.95672 13.7464 1.86738 11.7752 1.86738C8.95677 1.86738 6.13833 1.86738 3.31988 1.86738C2.14409 1.86738 1.91931 2.09217 1.91931 3.30254C1.91931 7.88468 1.91931 12.4495 1.91931 17.0316C1.91931 18.2074 2.17867 18.4495 3.33718 18.4668C5.70605 18.4841 8.05764 18.4668 10.4265 18.4668C11.8963 18.4668 13.4179 18.3112 14.8012 19.4005ZM16.6859 19.4005C18.1729 18.2766 19.7464 18.4668 21.2853 18.4668C23.6196 18.4668 25.9539 18.4668 28.2882 18.4668C29.2911 18.4668 29.5677 18.1902 29.5677 17.1873C29.5677 12.5187 29.5677 7.85009 29.5677 3.1988C29.5677 2.10946 29.3429 1.88468 28.2363 1.88468C25.4697 1.88468 22.7032 1.88468 19.9366 1.88468C17.6715 1.88468 16.6686 2.88756 16.6686 5.15269C16.6686 9.56191 16.6686 13.9711 16.6686 18.3804C16.6859 18.6397 16.6859 18.9164 16.6859 19.4005ZM1.98847 20.2997C1.78098 21.8559 2.04035 22.1498 3.51009 22.1498C6.48415 22.1498 9.44092 22.1498 12.415 22.1498C13.1239 22.1498 13.8329 22.1498 14.5764 22.1498C14.1268 20.8703 13.2622 20.2997 11.8098 20.2997C8.54179 20.2824 5.29107 20.2997 1.98847 20.2997ZM16.9625 22.1152C17.1873 22.1325 17.4121 22.1498 17.6369 22.1498C21.1124 22.1498 24.6052 22.1498 28.0807 22.1498C29.4813 22.1498 29.8098 21.6657 29.4467 20.2997C28.8934 20.2997 28.3573 20.2997 27.804 20.2997C25.1066 20.2997 22.3919 20.2997 19.6945 20.317C18.2421 20.317 17.3775 20.8876 16.9625 22.1152Z" fill="white"/>
<path d="M8.35146 7.40056C7.22754 7.40056 6.10362 7.40056 4.9797 7.40056C4.32264 7.40056 3.78662 7.19307 3.78662 6.46684C3.78662 5.74062 4.32264 5.55042 4.9797 5.55042C7.22754 5.56771 9.47538 5.56771 11.7232 5.55042C12.363 5.55042 12.9163 5.68874 12.9509 6.43226C12.9682 7.24494 12.3976 7.40056 11.7232 7.40056C10.5993 7.40056 9.47538 7.40056 8.35146 7.40056Z" fill="white"/>
<path d="M8.48967 9.23336C9.57901 9.23336 10.6856 9.23336 11.775 9.23336C12.432 9.23336 12.9681 9.42356 12.9508 10.1671C12.9508 10.9106 12.4147 11.0835 11.7577 11.0835C9.50985 11.0835 7.26201 11.0835 5.01417 11.0835C4.3744 11.0835 3.8038 10.9279 3.7865 10.1844C3.76921 9.38898 4.35711 9.21606 5.03146 9.21606C6.18996 9.23336 7.33117 9.23336 8.48967 9.23336Z" fill="white"/>
<path d="M8.33415 14.7665C7.17565 14.7665 6.03444 14.7665 4.87594 14.7665C4.23617 14.7665 3.76931 14.5244 3.7866 13.8328C3.80389 13.2103 4.23617 12.9509 4.84135 12.9509C7.21023 12.9509 9.56181 12.9509 11.9307 12.9509C12.5359 12.9509 12.9509 13.193 12.9682 13.8501C12.9854 14.4898 12.5705 14.7665 11.9653 14.7665C10.7549 14.7665 9.54452 14.7665 8.33415 14.7665Z" fill="white"/>
<path d="M23.1183 7.40052C21.9943 7.40052 20.8704 7.40052 19.7465 7.40052C19.0894 7.40052 18.5534 7.19302 18.5361 6.4668C18.5361 5.74057 19.0549 5.53308 19.7292 5.53308C22.0116 5.55037 24.2768 5.55037 26.5592 5.53308C27.2335 5.53308 27.735 5.77516 27.7177 6.48409C27.7004 7.15844 27.199 7.38323 26.5765 7.38323C25.418 7.40052 24.2768 7.40052 23.1183 7.40052Z" fill="white"/>
<path d="M23.1355 11.0835C22.0116 11.0835 20.8876 11.0663 19.7637 11.0835C19.1067 11.1008 18.5706 10.9106 18.5361 10.1844C18.5188 9.45818 19.0548 9.2334 19.7118 9.2334C21.9943 9.2334 24.2594 9.2334 26.5418 9.2334C27.1989 9.2334 27.7349 9.45818 27.7176 10.1844C27.7003 10.9106 27.1643 11.1008 26.5072 11.1008C25.3833 11.0663 24.2594 11.0835 23.1355 11.0835Z" fill="white"/>
<path d="M23.101 14.7666C21.9425 14.7666 20.8013 14.7666 19.6428 14.7666C19.003 14.7666 18.5361 14.5245 18.5361 13.8501C18.5361 13.1758 19.0203 12.9337 19.6601 12.9337C21.9598 12.9337 24.2595 12.9337 26.5765 12.9337C27.199 12.9337 27.7004 13.1412 27.735 13.8156C27.7523 14.5418 27.2508 14.7666 26.5765 14.7666C25.418 14.7493 24.2595 14.7666 23.101 14.7666Z" fill="white"/>
</g>
<defs>
<clipPath id="clip0_823_1806">
<rect width="31.4352" height="24" fill="white"/>
</clipPath>
</defs>
</svg>
