<svg width="30" height="30" viewBox="0 0 30 30" fill="none" xmlns="http://www.w3.org/2000/svg">
<g clip-path="url(#clip0_823_1677)">
<path d="M11.3366 18.7595V21.0217L4.66732 18.361V16.0989L11.3366 18.7595ZM11.3366 11.8383V14.1004L4.66732 11.4397V9.17759L11.3366 11.8383ZM29.2661 0.328203C29.7534 0.591927 30 1.06077 30 1.72301V23.0143C30 23.7703 29.6419 24.2801 28.9315 24.5439L15.6634 29.8652C15.4873 29.9121 15.3757 29.9297 15.3288 29.9297C15.2818 29.9297 15.229 29.9414 15.1644 29.9648C15.0998 29.9883 15.0411 30 15 30C14.9589 30 14.9002 29.9883 14.8356 29.9648C14.771 29.9414 14.7123 29.9297 14.6712 29.9297L14.3366 29.8652L1.06849 24.5439C0.358121 24.2801 0 23.7703 0 23.0143V1.72301C0 1.06077 0.246575 0.591927 0.733855 0.328203C1.22114 -0.0292884 1.7319 -0.0937541 2.26614 0.128946L15 5.25104L27.7339 0.128946C28.2681 -0.0937541 28.7789 -0.0292884 29.2661 0.328203ZM13.3327 26.5482V7.91172L2.66536 3.65698V22.2876L13.3327 26.5482ZM27.3346 22.2876V3.65698L16.6673 7.91172V26.5482L27.3346 22.2876ZM25.3327 16.0989V18.361L18.6693 21.0217V18.7595L25.3327 16.0989ZM25.3327 9.17759V11.4397L18.6693 14.1004V11.8383L25.3327 9.17759Z" fill="white"/>
</g>
<defs>
<clipPath id="clip0_823_1677">
<rect width="30" height="30" fill="white"/>
</clipPath>
</defs>
</svg>
