<svg width="24" height="24" viewBox="0 0 24 24" fill="none" xmlns="http://www.w3.org/2000/svg">
<path d="M0.553123 1.54689C0.632812 1.54689 2.41406 1.19064 4.75312 1.19064C7.725 1.19064 10.1766 1.70626 12 2.73751C14.1375 1.66876 16.6359 1.11564 19.3266 1.11564C21.7031 1.11095 23.3672 1.54689 23.4469 1.54689L24 1.70158V21.3469L23.1281 21.1078C23.1281 21.1078 21.5437 20.7141 19.3641 20.7141C17.3062 20.7141 15.4453 21.0703 13.7812 21.7031V22.8891H10.2562V21.661C8.43281 20.986 6.375 20.7891 4.79063 20.7891C2.57344 20.7891 0.871876 21.1078 0.829689 21.1078L0 21.2672V1.66408L0.553123 1.54689ZM22.6125 19.5656V2.81251C21.9797 2.69533 20.7891 2.53595 19.3641 2.53595C16.8703 2.53595 14.6531 3.05158 12.7125 4.00314V20.6391C14.6906 19.7672 16.9125 19.2938 19.3641 19.2938C20.7516 19.3266 21.8625 19.4438 22.6125 19.5656ZM1.3875 19.6031C2.14219 19.5235 3.36563 19.4063 4.75312 19.4063C7.36875 19.4063 9.54375 19.8422 11.2875 20.6344V3.99845C9.26719 2.88751 6.65156 2.65314 4.75312 2.65314C3.28594 2.65314 2.05781 2.77033 1.3875 2.8922V19.6031Z" fill="white"/>
</svg>
