<svg width="39" height="24" viewBox="0 0 39 24" fill="none" xmlns="http://www.w3.org/2000/svg">
<g clip-path="url(#clip0_823_1684)">
<path d="M4.19707 0V20.4224C13.5434 20.4224 15.2801 21.5737 18.5783 23.2814V2.80489C16.8949 1.0895 14.4346 0 4.19707 0ZM34.7496 0C24.5045 0 21.9908 1.15132 20.3684 2.85898V23.2814C23.6666 21.5815 25.4033 20.4224 34.7496 20.4224V0ZM0 2.12492V24H17.0701C14.3203 22.6632 12.3398 21.8751 4.19707 21.8751H2.81836V20.4765V2.12492H0ZM36.1816 2.12492V20.4147V21.8133H34.8029C26.6525 21.8133 24.6797 22.6014 21.9223 23.9382H39V2.0631H36.1816V2.12492Z" fill="white"/>
</g>
<defs>
<clipPath id="clip0_823_1684">
<rect width="39" height="24" fill="white"/>
</clipPath>
</defs>
</svg>
