<svg width="24" height="24" viewBox="0 0 24 24" fill="none" xmlns="http://www.w3.org/2000/svg">
<g clip-path="url(#clip0_823_1664)">
<path d="M22.8 7.19995C22.5562 7.19995 16.9781 7.23745 12 9.60933C7.01719 7.23745 1.43906 7.19995 1.2 7.19995C0.534375 7.19995 0 7.73901 0 8.39995V20.2593C0 20.5828 0.13125 20.8968 0.365625 21.1218C0.6 21.3468 0.942187 21.4875 1.24219 21.4546H1.39687C2.21719 21.4546 6.55312 21.5718 11.4937 23.8875L11.5547 23.9015C11.6953 23.9625 11.8453 24 12.0047 24C12.1594 24 12.3094 23.9578 12.4547 23.9015L12.5156 23.8875C17.4609 21.5718 21.7922 21.4546 22.6125 21.4546H22.7672C23.0531 21.4828 23.4094 21.3421 23.6437 21.1218C23.8781 20.8921 24.0094 20.5828 24.0094 20.2593V8.39995C24 7.73901 23.4609 7.19995 22.8 7.19995ZM2.4 9.66089C4.18125 9.79214 7.65937 10.2375 10.8 11.6906V20.9812C7.2 19.5703 4.09219 19.1859 2.4 19.0875V9.66089ZM21.6 19.0875C19.9078 19.1859 16.8 19.5703 13.2 20.9812V11.6906C16.3406 10.2375 19.8187 9.79214 21.6 9.66089V19.0875Z" fill="white"/>
<path d="M11.9999 0C13.9874 0 15.5999 1.6125 15.5999 3.6C15.5999 5.5875 13.9874 7.2 11.9999 7.2C10.0124 7.2 8.3999 5.5875 8.3999 3.6C8.3999 1.6125 10.0124 0 11.9999 0Z" fill="white"/>
</g>
<defs>
<clipPath id="clip0_823_1664">
<rect width="24" height="24" fill="white"/>
</clipPath>
</defs>
</svg>
