<svg width="22" height="22" viewBox="0 0 22 22" fill="none" xmlns="http://www.w3.org/2000/svg">
<rect x="4" y="1" width="16" height="20" rx="2" stroke="#6C45A6" stroke-width="1.5" stroke-linecap="round" stroke-linejoin="round" fill="white"/>
<path d="M0 4C0 3.44772 0.447715 3 1 3H7.5C8.05228 3 8.5 3.44772 8.5 4V6.5C8.5 7.05228 8.05228 7.5 7.5 7.5H1C0.447715 7.5 0 7.05228 0 6.5V4Z" fill="#ED1C24"/>
<path d="M12.8764 17.16C9.96438 17.16 8.50838 16.2213 8.50838 14.344V9.416C8.50838 7.432 9.96438 6.44 12.8764 6.44C13.8684 6.44 14.8177 6.54133 15.7244 6.744V7.896C14.7004 7.64 13.7617 7.512 12.9084 7.512C12.4924 7.512 12.1297 7.53867 11.8204 7.592C11.511 7.63467 11.2124 7.71467 10.9244 7.832C10.3057 8.09867 9.99638 8.62133 9.99638 9.4V14.264C9.99638 15.4587 10.9884 16.056 12.9724 16.056C13.8257 16.056 14.7644 15.928 15.7884 15.672V16.856C14.8817 17.0587 13.911 17.16 12.8764 17.16Z" fill="#6C45A6"/>
</svg>
