<svg width="22" height="22" viewBox="0 0 22 22" fill="none" xmlns="http://www.w3.org/2000/svg">
<rect x="4" y="1" width="16" height="20" rx="2" stroke="#6C45A6" stroke-width="1.5" stroke-linecap="round" stroke-linejoin="round" fill="white"/>
<path d="M0 4C0 3.44772 0.447715 3 1 3H7.5C8.05228 3 8.5 3.44772 8.5 4V6.5C8.5 7.05228 8.05228 7.5 7.5 7.5H1C0.447715 7.5 0 7.05228 0 6.5V4Z" fill="#ED1C24"/>
<path d="M8.7815 6.616H12.1735C12.6535 6.616 13.0375 6.62667 13.3255 6.648C13.6242 6.66933 13.9388 6.71733 14.2695 6.792C14.6108 6.86667 14.8828 6.97867 15.0855 7.128C15.2988 7.27733 15.4802 7.48 15.6295 7.736C15.7682 7.98133 15.8375 8.29067 15.8375 8.664V10.824C15.8375 11.688 15.5015 12.312 14.8295 12.696C14.1682 13.0693 13.1868 13.256 11.8855 13.256H10.3335V17H8.7815V6.616ZM12.0935 12.28C12.7655 12.28 13.3042 12.1573 13.7095 11.912C14.1148 11.6667 14.3175 11.2773 14.3175 10.744V8.856C14.3175 8.568 14.2428 8.33333 14.0935 8.152C13.9442 7.96 13.7308 7.82667 13.4535 7.752C13.1868 7.688 12.9628 7.64533 12.7815 7.624C12.6002 7.60267 12.3602 7.592 12.0615 7.592H10.3175V12.28H12.0935Z" fill="#6C45A6"/>
</svg>
