<svg width="18" height="18" viewBox="0 0 18 18" fill="none" xmlns="http://www.w3.org/2000/svg">
<path d="M2 8.98931C2 7.41549 2 5.8362 2 4.26237C2 2.94539 2.94576 2 4.26872 2C7.42307 2 10.5719 2 13.7263 2C15.0493 2 15.995 2.94539 15.995 4.26784C15.995 6.4537 15.995 8.63957 15.995 10.8254C15.995 11.3173 15.5686 11.6124 15.1805 11.3883C14.9727 11.2681 14.9017 11.0768 14.9017 10.8364C14.9071 9.10407 14.9017 7.37723 14.9017 5.64493C14.9017 5.18044 14.9071 4.71594 14.9017 4.25144C14.8962 3.56836 14.437 3.0984 13.7536 3.0984C10.5829 3.09293 7.41213 3.09293 4.24139 3.09293C3.55804 3.09293 3.09336 3.55743 3.09336 4.24598C3.08789 7.41549 3.08789 10.585 3.09336 13.7545C3.09336 14.4376 3.56351 14.8966 4.24686 14.8966C6.42264 14.9021 8.6039 14.8966 10.7797 14.8966C11.1405 14.8966 11.3537 15.0442 11.4084 15.3283C11.4794 15.6999 11.2389 15.9841 10.8453 15.9841C9.91593 15.9895 8.98657 15.9841 8.05722 15.9841C6.78892 15.9841 5.52609 15.9841 4.25779 15.9841C2.95669 15.9895 2 15.0387 2 13.7436C2 12.1588 2 10.5741 2 8.98931Z" fill="white"/>
<path d="M15.9999 14.4157C15.9561 15.0441 15.6554 15.5632 15.0213 15.8419C14.3653 16.1316 13.7421 16.0277 13.2337 15.5359C12.2223 14.5577 11.2328 13.5468 10.2378 12.5468C10.1394 12.4484 10.0793 12.3282 10.041 12.1915C9.8497 11.503 9.66383 10.8145 9.47796 10.1259C9.34676 9.62315 9.69663 9.27341 10.1886 9.4155C10.872 9.61769 11.5553 9.82535 12.2442 10.0275C12.3863 10.0713 12.5011 10.1532 12.605 10.2625C13.5617 11.2243 14.5184 12.1806 15.4805 13.1424C15.814 13.4812 15.9889 13.8856 15.9999 14.4157ZM10.79 10.7817C10.8447 10.9893 10.9157 11.2024 10.9595 11.421C11.0141 11.7216 11.1617 11.9511 11.3804 12.1533C11.7522 12.503 12.102 12.8746 12.4628 13.2298C12.6706 13.432 12.8674 13.8091 13.0806 13.7818C13.3211 13.749 13.5125 13.4047 13.7366 13.2025C13.8405 13.1041 13.835 13.0495 13.7366 12.9511C13.3539 12.5795 12.9822 12.2407 12.6268 11.8363C12.0856 11.2789 12.266 11.1095 10.79 10.7817ZM14.901 14.3883C14.901 14.2025 14.83 14.0769 14.737 13.9621C14.6714 13.8801 14.6222 13.8747 14.5457 13.9512C14.3489 14.1534 14.1521 14.3501 13.9498 14.5523C13.8897 14.6124 13.8678 14.6616 13.9498 14.7272C14.1302 14.8747 14.3161 14.9621 14.5512 14.8638C14.7753 14.7599 14.8792 14.5905 14.901 14.3883Z" fill="white"/>
<path d="M8.33544 10.3229C8.28624 10.0659 8.12223 9.891 7.85436 9.88007C7.41701 9.86366 6.98514 9.8746 6.54779 9.8746C6.14872 9.8746 5.74964 9.8582 5.35056 9.86366C4.97335 9.8746 4.73828 10.0878 4.73828 10.4103C4.73828 10.7329 4.97335 10.957 5.35056 10.9625C6.14872 10.968 6.94687 10.968 7.75049 10.9625C7.86529 10.9625 7.98556 10.9461 8.08943 10.8805C8.28077 10.7493 8.37917 10.5579 8.33544 10.3229Z" fill="white"/>
<path d="M10.8782 7.82042H7.4724C7.07879 7.82042 6.76172 7.49788 6.76172 7.10973C6.76172 6.71612 7.08426 6.39905 7.4724 6.39905H10.8782C11.2718 6.39905 11.5889 6.72159 11.5889 7.10973C11.5889 7.50334 11.2664 7.82042 10.8782 7.82042Z" fill="white"/>
<path d="M5.44408 7.82048C5.05047 7.82048 4.7334 7.49794 4.7334 7.10979C4.7334 6.71618 5.05594 6.39911 5.44408 6.39911C5.83769 6.39911 6.15477 6.72165 6.15477 7.10979C6.15477 7.5034 5.83769 7.82048 5.44408 7.82048Z" fill="white"/>
<path d="M12.8787 7.82042C12.485 7.82042 12.168 7.49788 12.168 7.10973C12.168 6.71612 12.4905 6.39905 12.8787 6.39905C13.2723 6.39905 13.5893 6.72159 13.5893 7.10973C13.5893 7.50334 13.2723 7.82042 12.8787 7.82042Z" fill="white"/>
</svg>
