<svg width="18" height="18" viewBox="0 0 18 18" fill="none" xmlns="http://www.w3.org/2000/svg">
<path d="M9.00003 16C7.63967 16 6.27932 16 4.92797 16C3.50456 16 2.35141 15.0643 2.05411 13.6877C2.00907 13.4807 2.00006 13.2648 2.00006 13.0488C2.00006 10.3496 2.00006 7.64139 2.00006 4.94216C1.99105 3.43059 3.03609 2.23393 4.53158 2.01799C4.66671 2 4.80185 2 4.93698 2C7.63967 2 10.3514 2 13.0541 2C14.4865 2 15.6396 2.92674 15.9459 4.31234C15.991 4.51928 16 4.73522 16 4.95116C16 7.65039 16 10.3586 16 13.0578C16 14.4884 15.0721 15.6401 13.6847 15.946C13.4685 15.991 13.2433 16 13.018 16C11.6847 16 10.3424 16 9.00003 16ZM9.69372 8.98201C9.69372 10.7995 9.69372 12.617 9.69372 14.4255C9.69372 14.5604 9.72075 14.5964 9.86489 14.5964C10.9189 14.5874 11.982 14.5964 13.036 14.5964C13.1802 14.5964 13.3243 14.5874 13.4595 14.5514C14.1712 14.3805 14.6126 13.8136 14.6126 13.0398C14.6126 10.3406 14.6126 7.63239 14.6126 4.93316C14.6126 4.8072 14.6036 4.67224 14.5676 4.54627C14.4054 3.83548 13.8288 3.3946 13.0631 3.3856C12 3.3856 10.937 3.3856 9.8739 3.37661C9.72976 3.37661 9.69372 3.4126 9.69372 3.55656C9.70273 5.37404 9.69372 7.18252 9.69372 8.98201ZM5.83788 8.2982C6.60364 8.2982 7.36941 8.2982 8.13517 8.2982C8.26129 8.2982 8.29733 8.27121 8.29733 8.13625C8.28832 6.60668 8.28832 5.07712 8.29733 3.53856C8.29733 3.42159 8.27931 3.37661 8.14418 3.37661C7.07211 3.3856 6.00004 3.37661 4.92797 3.37661C4.00906 3.37661 3.38744 4.01542 3.38744 4.93316C3.38744 6.00386 3.38744 7.06555 3.38744 8.13625C3.38744 8.26221 3.41447 8.2892 3.54059 8.2892C4.30635 8.2982 5.07212 8.2982 5.83788 8.2982ZM8.29733 12.1581C8.29733 11.3843 8.29733 10.6195 8.29733 9.84576C8.29733 9.73779 8.27931 9.6928 8.15319 9.6928C6.61265 9.6928 5.06311 9.6928 3.52257 9.6928C3.40546 9.6928 3.37843 9.72879 3.37843 9.84576C3.37843 10.9165 3.37843 11.9871 3.37843 13.0578C3.37843 13.9756 4.01807 14.5964 4.93698 14.6054C6.00905 14.6054 7.07211 14.6054 8.14418 14.6144C8.28832 14.6144 8.29733 14.5604 8.29733 14.4434C8.29733 13.6787 8.29733 12.9139 8.29733 12.1581Z" fill="#3E3C53"/>
</svg>
