<svg width="24" height="24" viewBox="0 0 24 24" fill="none" xmlns="http://www.w3.org/2000/svg">
<g clip-path="url(#clip0_2093_18939)">
<path d="M0.0542542 19.3309C-0.261679 16.7564 1.50319 14.3127 4.13959 13.7127C4.62983 13.6036 5.14186 13.5818 5.65389 13.5818C6.71063 13.5709 7.76737 13.5709 8.83501 13.5709C7.76737 13.5709 6.71063 13.5709 5.643 13.5818C5.14186 13.5818 4.61894 13.6036 4.1287 13.7127C1.49229 14.3127 -0.272573 16.7564 0.04336 19.3309C0.370187 22.0473 2.57082 23.9891 5.31617 23.9891C7.53859 23.9891 9.76102 23.9891 11.9834 23.9891C9.76102 23.9891 7.54949 23.9891 5.32706 23.9891C2.58172 24 0.381081 22.0473 0.0542542 19.3309Z" fill="#675ED5"/>
<path d="M23.9997 18.4582C23.8908 16.0254 21.8863 13.8218 19.4786 13.6582C21.8754 13.8327 23.8799 16.0364 23.9888 18.4582C24.1087 21.0764 22.3111 23.4436 19.8381 23.8909C19.446 23.9564 19.0429 24 18.6507 24C16.4282 24 14.2058 24 11.9834 24.0109C14.2058 24.0109 16.4391 24.0109 18.6616 24C19.0538 24 19.4568 23.9564 19.849 23.8909C22.3111 23.4436 24.1196 21.0764 23.9997 18.4582Z" fill="#675ED5"/>
<path d="M19.8274 23.88C22.2895 23.4436 24.098 21.0764 23.9781 18.4473C23.8692 16.0255 21.8647 13.8218 19.4679 13.6473C20.0453 14.1818 20.6336 14.7164 21.211 15.2618C21.9627 15.9709 22.3876 16.9091 22.3985 17.9236C22.4094 18.9491 21.9954 19.9309 21.2328 20.6618C20.5356 21.3382 19.6096 21.72 18.6509 21.72C17.605 21.72 16.6245 21.2836 15.8837 20.4982C15.6441 20.2364 15.4044 19.9745 15.1647 19.7127C15.0558 19.5927 14.9468 19.4836 14.8379 19.3636L13.487 17.8909C12.1797 16.4727 10.8397 15.0109 9.5106 13.56C9.28182 13.56 9.05304 13.56 8.81337 13.56C7.75663 13.56 6.69989 13.56 5.63225 13.5709C5.13112 13.5709 4.6082 13.5927 4.11796 13.7018C1.48155 14.3018 -0.283315 16.7455 0.0326178 19.32C0.359445 22.0364 2.56008 23.9782 5.30543 23.9782C7.52785 23.9782 9.73938 23.9782 11.9618 23.9782C14.1842 23.9782 16.4067 23.9782 18.6291 23.9673C19.0431 23.9891 19.4461 23.9564 19.8274 23.88ZM5.21827 22.4836C5.21827 22.4836 5.20738 22.4836 5.21827 22.4836C5.20738 22.4836 5.20738 22.4836 5.20738 22.4836C3.13747 22.4727 1.52513 20.8364 1.53602 18.7636C1.54692 16.7236 3.21373 15.0545 5.25096 15.0655H5.26185C7.28818 15.0873 8.96589 16.7891 8.955 18.8073C8.93321 20.8473 7.26639 22.4945 5.21827 22.4836Z" fill="#675ED5"/>
<path d="M23.9672 4.68C23.6512 1.97455 21.4397 0 18.7052 0C14.2386 0 9.78286 0 5.31622 0C4.92403 0 4.52094 0.0327273 4.12875 0.109091C1.64487 0.6 -0.120001 2.96727 0.0216243 5.58545C0.0760955 6.51273 0.392028 7.39636 0.893163 8.13818C0.762432 7.10182 0.882269 6.04364 1.26357 5.05091C1.71023 3.90545 2.45104 3.73091 2.85413 3.73091C3.33347 3.73091 3.80192 3.96 4.24859 4.40727C4.53184 4.69091 4.80419 4.96364 5.08744 5.24727C5.57768 5.73818 6.08971 6.25091 6.59085 6.75273C6.85231 6.50182 7.11377 6.22909 7.36434 5.97818L7.4297 5.91273C7.13556 5.61818 6.83052 5.31273 6.53638 5.01818C6.03524 4.51636 5.51232 3.99273 5.00029 3.46909C4.54273 3 4.34664 2.44364 4.46647 1.89818C4.57541 1.35273 4.9785 0.905455 5.59947 0.654545C6.2967 0.370909 7.04841 0.218182 7.84368 0.207273C7.88726 0.207273 7.93084 0.207273 7.97442 0.207273C10.8069 0.207273 13.2254 1.90909 13.988 4.44C14.3693 5.70545 14.3693 7.02545 13.9989 8.47636C13.9771 8.55273 13.9771 8.59636 13.9662 8.62909C14.1188 8.74909 14.2604 8.86909 14.3693 8.98909C14.4129 9.02182 14.4456 9.06545 14.4892 9.09818C14.9685 9.54545 15.4588 9.98182 15.949 10.4291C16.7552 10.4291 17.5613 10.4291 18.3566 10.4182C18.8469 10.4182 19.348 10.4073 19.8165 10.3091C22.4637 9.74182 24.2722 7.27636 23.9672 4.68ZM18.8033 8.93455C16.7879 8.94545 15.0884 7.26545 15.0666 5.23636C15.0448 3.20727 16.7225 1.52727 18.7597 1.51636C20.8296 1.51636 22.4637 3.13091 22.4746 5.19273C22.4746 7.25455 20.8405 8.91273 18.8033 8.93455Z" fill="#675ED5"/>
<path d="M20.5793 15.9491C19.7405 15.1636 18.8907 14.3891 18.0518 13.6145C16.8971 12.5564 15.7314 11.4982 14.5766 10.4291C14.3369 10.2109 14.1081 10.0036 13.8685 9.78545C13.7159 9.64363 13.5743 9.50182 13.4109 9.37091C13.0187 9.07636 12.9751 8.70545 13.095 8.24727C13.4 7.06909 13.4436 5.88 13.095 4.70182C12.4413 2.53091 10.2952 1.08 7.85484 1.13454C7.19029 1.14545 6.55843 1.26545 5.93746 1.51636C5.2838 1.77818 5.16397 2.31273 5.65421 2.81454C6.46038 3.64363 7.28834 4.45091 8.09452 5.26909C8.56297 5.74909 8.57386 6.06545 8.10541 6.53454C7.78948 6.86182 7.47354 7.17818 7.14672 7.49454C6.75452 7.86545 6.39501 7.86545 6.00282 7.48363C5.19665 6.67636 4.40137 5.86909 3.5952 5.06182C2.96333 4.42909 2.4513 4.53818 2.12447 5.37818C1.57976 6.79636 1.67781 8.25818 2.23342 9.49091C3.05048 11.3018 4.83714 12.6327 6.95062 12.6109C7.73501 12.5891 8.35598 12.5564 8.94427 12.3709C9.36914 12.24 9.66329 12.36 9.94654 12.6655C10.2189 12.96 10.4912 13.2655 10.7745 13.56C12.3542 15.2836 13.9447 17.0073 15.5244 18.7309C15.873 19.1018 16.2107 19.4836 16.5593 19.8545C17.6705 21.0327 19.4463 21.0873 20.5902 19.9855C21.7559 18.8727 21.7777 17.0618 20.5793 15.9491ZM18.651 19.3855C17.8884 19.3855 17.2348 18.7309 17.2457 17.9564C17.2566 17.1927 17.8775 16.5818 18.651 16.5818C19.4245 16.5818 20.0455 17.1818 20.0564 17.9455C20.0673 18.7309 19.4245 19.3855 18.651 19.3855Z" fill="#675ED5"/>
</g>
<defs>
<clipPath id="clip0_2093_18939">
<rect width="24" height="24" fill="white"/>
</clipPath>
</defs>
</svg>
