<svg width="16" height="16" viewBox="0 0 16 16" fill="none" xmlns="http://www.w3.org/2000/svg">
<path d="M14.9344 3.50847C14.9312 3.96045 14.7913 4.32789 14.515 4.64006C12.281 7.18287 10.0439 9.72244 7.80673 12.262C7.31572 12.818 6.68165 12.8636 6.11585 12.3921C5.83296 12.158 5.55006 11.9206 5.26391 11.6865C5.09482 11.5466 4.955 11.3808 4.88346 11.1727C4.73714 10.7532 4.82168 10.376 5.09482 10.0313C5.67362 9.29647 6.24917 8.55834 6.82797 7.8202C8.31399 5.92447 9.80001 4.02874 11.2795 2.12976C11.5819 1.74281 11.9461 1.47292 12.4436 1.40138C12.8826 1.33635 13.2858 1.43715 13.637 1.69728C13.9069 1.89889 14.1638 2.1135 14.4109 2.34112C14.7621 2.66303 14.9247 3.07274 14.9344 3.50847ZM14.154 3.51497C14.1508 3.28085 14.0532 3.05649 13.8549 2.88415C13.65 2.70856 13.4419 2.53297 13.2305 2.36388C12.8273 2.04196 12.2973 2.10374 11.9786 2.5102C9.88781 5.17658 7.80022 7.84622 5.71264 10.5159C5.5403 10.737 5.55981 10.9093 5.77768 11.0914C6.05407 11.3255 6.33371 11.5564 6.61336 11.7873C6.86374 11.9921 7.01982 11.9791 7.23768 11.732C8.0506 10.8085 8.86353 9.88502 9.67645 8.96154C11.0877 7.35521 12.5022 5.74563 13.9199 4.13279C14.0695 3.96371 14.1508 3.77186 14.154 3.51497Z" fill="#3E3C53"/>
<path d="M3.32937 0.933167C3.67405 0.942922 3.94719 1.05348 4.19106 1.25508C5.49174 2.32489 6.79892 3.38819 8.10284 4.45474C8.21015 4.54254 8.40525 4.68886 8.39224 4.76365C8.37923 4.82868 8.25567 4.94574 8.17438 5.05305C7.95326 5.3392 7.95326 5.3392 7.67687 5.11483C7.20212 4.72788 6.72738 4.34418 6.25914 3.95073C6.16484 3.87269 6.12257 3.88244 6.04778 3.97349C5.21534 5.00102 4.38291 6.0253 3.54398 7.04633C3.46919 7.13738 3.45618 7.1829 3.56024 7.26745C4.11953 7.71293 4.66906 8.17141 5.2251 8.62015C5.29989 8.67868 5.3194 8.71445 5.25111 8.79574C5.13405 8.92906 5.0235 9.07213 4.92269 9.21846C4.86091 9.3095 4.81864 9.29975 4.7406 9.23472C3.75859 8.4283 2.77008 7.62188 1.78482 6.81871C1.38486 6.49355 1.00116 6.14887 0.584946 5.84646C-0.162941 5.30668 -0.101159 4.42222 0.256526 3.86293C0.454879 3.55077 0.70851 3.28088 0.93938 2.99473C1.32308 2.51674 1.71003 2.04199 2.10023 1.5705C2.4254 1.17704 2.84162 0.952677 3.32937 0.933167ZM0.776796 4.76365C0.767041 4.89697 0.832074 5.04004 0.975148 5.15385C1.56045 5.6286 2.1425 6.10334 2.7213 6.58459C2.81885 6.66589 2.86113 6.64963 2.93266 6.55858C3.76835 5.5278 4.60403 4.50026 5.44621 3.47273C5.521 3.38168 5.51125 3.34266 5.4267 3.27438C4.84465 2.80614 4.26585 2.33464 3.6903 1.85664C3.51146 1.70707 3.32612 1.68756 3.11801 1.76235C2.95217 1.82413 2.81235 1.92818 2.70179 2.0615C2.136 2.75736 1.56695 3.45647 1.00116 4.15233C0.867843 4.31492 0.783299 4.50026 0.776796 4.76365Z" fill="#3E3C53"/>
<path d="M13.4615 14.5675C12.7689 14.5447 12.0763 14.5187 11.3837 14.4992C11.2406 14.4959 11.1236 14.4504 11.013 14.3594C10.2326 13.722 9.45544 13.0814 8.67179 12.4474C8.61001 12.3953 8.597 12.3758 8.62626 12.3205C8.63927 12.2945 8.65878 12.2718 8.67829 12.249C8.76934 12.1417 8.85713 12.0507 8.94818 11.9499C9.09451 11.7808 9.09451 11.784 9.26034 11.9173C9.88792 12.4311 10.5187 12.9449 11.1463 13.4619C11.2374 13.5367 11.2764 13.5432 11.3544 13.4424C12.1804 12.3986 13.0128 11.3581 13.8452 10.3175C13.9103 10.2395 13.9103 10.1972 13.8257 10.1289C13.2209 9.64441 12.6258 9.15016 12.0243 8.6624C11.9365 8.59412 11.9332 8.5616 12.008 8.46405C12.1153 8.32423 12.2161 8.20717 12.3494 8.0771C12.4177 8.00882 12.4437 7.98605 12.5153 8.04784C13.2339 8.63964 13.9558 9.2282 14.6776 9.81675C14.7719 9.89479 14.8337 9.99234 14.8662 10.1127C15.2337 11.4328 15.6076 12.7563 15.9751 14.0765C16.0694 14.4179 15.8938 14.6455 15.5393 14.6325C14.85 14.6162 14.1574 14.5935 13.4615 14.5675ZM15.1004 13.8423C14.8305 12.8863 14.5703 11.9564 14.3005 11.0004C13.5688 11.9206 12.8502 12.8181 12.1121 13.7448C13.1201 13.7773 14.0988 13.8066 15.1004 13.8423Z" fill="#3E3C53"/>
<path d="M4.26924 11.4231C4.10015 11.4263 3.93757 11.4328 3.78149 11.4751C3.0336 11.6735 2.6434 12.197 2.47756 12.9221C2.42553 13.1562 2.42879 13.3969 2.39952 13.631C2.34424 14.0634 2.22068 14.4732 1.94428 14.8471C2.94255 15.1072 3.91806 15.2633 4.86755 14.7626C5.46586 14.4471 5.8398 13.9301 6.08043 13.3123C6.12595 13.1985 6.16172 13.179 6.27228 13.231C6.42836 13.3058 6.6007 13.3481 6.77629 13.3481C6.8966 13.3481 6.8901 13.3936 6.85758 13.4846C6.33081 15.0129 5.00087 15.9267 3.38803 15.8746C2.5491 15.8454 1.75244 15.6373 0.975283 15.3446C0.806196 15.2796 0.711897 15.156 0.705393 14.9772C0.69889 14.8081 0.793189 14.665 0.972031 14.6097C1.28744 14.5089 1.43702 14.2716 1.53132 13.9854C1.62887 13.696 1.64188 13.3903 1.66464 13.0879C1.74593 12.0084 2.44504 11.0882 3.42055 10.7695C3.63191 10.7012 3.84977 10.6622 4.07414 10.6492C4.11966 10.6459 4.17169 10.6329 4.16844 10.7142C4.16518 10.8345 4.16193 10.9516 4.18795 11.0686C4.21071 11.1857 4.23997 11.2995 4.26924 11.4231Z" fill="#3E3C53"/>
</svg>
