<svg width="20" height="20" viewBox="0 0 20 20" fill="none" xmlns="http://www.w3.org/2000/svg">
<path d="M9.87512 17.9991C8.19106 17.9991 6.50699 17.9991 4.82293 17.9991C3.75263 17.9991 2.90553 17.513 2.32219 16.4588C2.04828 15.961 1.91639 15.4046 1.90625 14.8131C1.8961 13.8936 1.90118 12.9741 1.90625 12.0487C1.91132 11.463 2.32219 11.0003 2.81422 11.0003C3.31133 11.0003 3.71713 11.463 3.7222 12.0487C3.72727 12.9272 3.7222 13.8116 3.7222 14.6901C3.7222 15.4105 4.128 15.8849 4.75191 15.8907C8.19106 15.8966 11.6302 15.8966 15.0643 15.8907C15.6628 15.8907 16.0686 15.4105 16.0737 14.7194C16.0788 13.8467 16.0737 12.9682 16.0737 12.0956C16.0788 11.4513 16.4846 10.9886 17.0172 11.0003C17.4433 11.0121 17.8288 11.4045 17.8795 11.9023C17.8998 12.078 17.8947 12.2537 17.8947 12.4352C17.8947 13.2318 17.9099 14.0283 17.8896 14.8189C17.844 16.6287 16.6672 17.9699 15.0896 17.9874C13.3548 18.0109 11.615 17.9933 9.87512 17.9991C9.87512 17.9933 9.87512 17.9933 9.87512 17.9991Z" fill="#675ED5"/>
<path d="M8.91336 5.41681C8.85819 5.47225 8.80302 5.52214 8.74785 5.57204C8.21267 6.10978 7.68301 6.64752 7.14784 7.17972C6.60163 7.71193 5.71887 7.49018 5.50369 6.77503C5.38232 6.37588 5.49266 6.03217 5.78508 5.73835C6.82784 4.69058 7.8706 3.64281 8.91888 2.59504C9.03474 2.47862 9.14509 2.35111 9.26647 2.24024C9.64716 1.89653 10.2375 1.92979 10.6016 2.29013C11.7437 3.44323 12.8913 4.59633 14.0279 5.74944C14.4417 6.16522 14.4472 6.79721 14.0555 7.19081C13.6582 7.58442 13.0403 7.56779 12.621 7.15201C12.0968 6.63089 11.5782 6.10424 11.0541 5.57758C11.0154 5.53877 10.9713 5.49997 10.8941 5.42235C10.8941 5.53323 10.8941 5.59975 10.8941 5.66628C10.8941 8.0889 10.8941 10.506 10.8941 12.9286C10.8941 13.4054 10.6458 13.7879 10.243 13.9376C9.59751 14.1759 8.91888 13.7047 8.91888 13.0007C8.91336 11.842 8.91888 10.6834 8.91888 9.52473C8.91888 8.24413 8.91888 6.95797 8.91888 5.67737C8.91336 5.58312 8.91336 5.49997 8.91336 5.41681Z" fill="#675ED5"/>
</svg>
