<svg xmlns="http://www.w3.org/2000/svg" viewBox="0 0 1800 415.63"><defs><style>.cls-1{fill:#f1470d;fill-rule:evenodd;}</style></defs><g id="Layer_2" data-name="Layer 2"><g id="RafflePress"><g id="RafflePress-2" data-name="RafflePress"><path id="TM" class="cls-1" d="M1753.56,143.11V116.67h-9.87v-3.51h23.72v3.51h-9.87v26.44Zm17.86,0v-30h5.95l7.08,21.2c.65,2,1.13,3.46,1.43,4.44.34-1.09.88-2.69,1.6-4.81l7.21-20.83H1800v30h-3.81V118.05l-8.74,25.06h-3.58l-8.64-25.52v25.52Z"/><path id="Press" class="cls-1" d="M1247.92,233.31V209.48q0-30.6-13.68-46.78t-42.81-16.18a63.73,63.73,0,0,0-19.71,3.24,62.05,62.05,0,0,0-17.36,8.53,45.32,45.32,0,0,0-5.59-5.3,29.52,29.52,0,0,0-9-4.85,30.08,30.08,0,0,0-9.56-1.62q-8.54,0-14.12,4T1110.53,163a14.72,14.72,0,0,0,1.46,6.91,13.57,13.57,0,0,0,3.83,4.56,39,39,0,0,1,5.59,6.18q2.07,2.94,2.06,10.59V335.41a18.8,18.8,0,0,0,5.89,14,19.48,19.48,0,0,0,14.12,5.74,19.6,19.6,0,0,0,19.71-19.71V294.22a46.8,46.8,0,0,0,14.12,6.47,61.14,61.14,0,0,0,16.77,2.36q15,0,25.3-4.72A40.15,40.15,0,0,0,1236,284.51a60.7,60.7,0,0,0,9.12-21.92,138.3,138.3,0,0,0,2.79-29.28Zm499.86,21.19q0-12.06-3.53-19.86a36.67,36.67,0,0,0-9.27-12.8,40.81,40.81,0,0,0-13-7.65,130.54,130.54,0,0,0-14.55-4.41q-7.37-1.47-13.84-2.65a76.64,76.64,0,0,1-11.47-2.94,22.24,22.24,0,0,1-8-4.56,10.3,10.3,0,0,1-2.94-7.8q0-5.29,4.72-9t15.29-3.68a68.61,68.61,0,0,1,14,1.32,127.82,127.82,0,0,1,14.86,4.27,15.75,15.75,0,0,0,12.65-1.18,16.32,16.32,0,0,0,7.94-9.71,15,15,0,0,0-.74-12.5,16.8,16.8,0,0,0-9.85-8.39,114.79,114.79,0,0,0-41.19-6.47,69.93,69.93,0,0,0-21,3.09,54,54,0,0,0-17.5,9.12,43.43,43.43,0,0,0-12.07,14.86,45.51,45.51,0,0,0-4.41,20.59q0,10.89,2.94,18.24a35.7,35.7,0,0,0,7.8,12.21,34.26,34.26,0,0,0,11.18,7.5,97.74,97.74,0,0,0,13.09,4.42,131.24,131.24,0,0,0,14.86,3.24,95,95,0,0,1,13.24,2.94,26.67,26.67,0,0,1,9.41,4.85,10.73,10.73,0,0,1,3.68,8.68q0,6.76-6.32,10.59t-17.51,3.82q-11.47,0-18.1-1.61a126.08,126.08,0,0,1-13.09-4,16.25,16.25,0,0,0-12.65.44,15.57,15.57,0,0,0-8.82,10.15,19,19,0,0,0,.73,12.51,14.64,14.64,0,0,0,9,8.68,119.68,119.68,0,0,0,17.22,4.41,144.48,144.48,0,0,0,25.15,1.77,102.05,102.05,0,0,0,23.1-2.65,57.75,57.75,0,0,0,19.86-8.54,46.28,46.28,0,0,0,13.83-15q5.29-9.12,5.29-22.35Zm-122.9,0q0-12.06-3.53-19.86a36.92,36.92,0,0,0-9.27-12.8,40.81,40.81,0,0,0-12.95-7.65,130.06,130.06,0,0,0-14.56-4.41c-4.9-1-9.52-1.87-13.83-2.65a76.79,76.79,0,0,1-11.48-2.94,22.11,22.11,0,0,1-7.94-4.56,10.27,10.27,0,0,1-2.94-7.8,11,11,0,0,1,4.71-9c3.13-2.46,8.24-3.68,15.29-3.68a68.54,68.54,0,0,1,14,1.32,127.26,127.26,0,0,1,14.86,4.27,15.74,15.74,0,0,0,12.65-1.18,16.37,16.37,0,0,0,8-9.71,15.08,15.08,0,0,0-.74-12.5,16.79,16.79,0,0,0-9.86-8.39,114.79,114.79,0,0,0-41.19-6.47,69.91,69.91,0,0,0-21,3.09,54.19,54.19,0,0,0-17.51,9.12,43.29,43.29,0,0,0-12.06,14.86,45.51,45.51,0,0,0-4.42,20.59q0,10.89,3,18.24a35.83,35.83,0,0,0,7.79,12.21,34.47,34.47,0,0,0,11.18,7.5,98.23,98.23,0,0,0,13.09,4.42,131.72,131.72,0,0,0,14.86,3.24,94.34,94.34,0,0,1,13.24,2.94,26.64,26.64,0,0,1,9.42,4.85q3.68,3.09,3.67,8.68,0,6.76-6.32,10.59t-17.5,3.82q-11.49,0-18.1-1.61a125.35,125.35,0,0,1-13.09-4,16.25,16.25,0,0,0-12.65.44,15.55,15.55,0,0,0-8.83,10.15,19.09,19.09,0,0,0,.73,12.51,14.65,14.65,0,0,0,9,8.68,119.52,119.52,0,0,0,17.21,4.41q9.55,1.75,25.16,1.77a102,102,0,0,0,23.09-2.65,57.75,57.75,0,0,0,19.86-8.54,46.07,46.07,0,0,0,13.83-15q5.3-9.12,5.3-22.35ZM1500.21,223V210.36a86.25,86.25,0,0,0-3.39-24.27,57.4,57.4,0,0,0-10.59-20.45,49.7,49.7,0,0,0-19-14q-11.76-5.14-28.53-5.15-16.2,0-27.81,5.3a55.45,55.45,0,0,0-19.27,14.12,57,57,0,0,0-11.33,20.59,82.49,82.49,0,0,0-3.68,24.72v27.36a91.12,91.12,0,0,0,3.24,24.57,54.37,54.37,0,0,0,10.59,20.45,52.45,52.45,0,0,0,19.13,14.12q11.76,5.29,28.83,5.3a136.38,136.38,0,0,0,22.21-1.92,96.29,96.29,0,0,0,24-7.5,14.55,14.55,0,0,0,8-7.51q2.34-5.14.29-11.91a14.35,14.35,0,0,0-7.5-9.42,13.44,13.44,0,0,0-11.62-.58,88.23,88.23,0,0,1-14.86,4.85,84.59,84.59,0,0,1-18.1,1.61q-12.35,0-18.38-7.35t-6-20.59v-5.59h70.32a12.84,12.84,0,0,0,9.57-4.12,13.9,13.9,0,0,0,4-10ZM1462,203.6v3.82h-45.61V203.6q0-12.66,5.74-19.42t17.51-6.77q11.76,0,17.06,6.77t5.3,19.42Zm-89.07-31.19a20.77,20.77,0,0,0,.14-11.77,15.87,15.87,0,0,0-7.2-9.41A27,27,0,0,0,1358,148a42.16,42.16,0,0,0-10.45-1.18,75.43,75.43,0,0,0-8.53.59,49,49,0,0,0-10.44,2.5,54.25,54.25,0,0,0-11.18,5.59,46,46,0,0,0-10.74,9.86,32.31,32.31,0,0,0-8.09-9.86,33.38,33.38,0,0,0-13.39-6.32,8.67,8.67,0,0,0-3.23-.59H1279q-9.12,0-14.42,3.82t-5.3,12.36a14.76,14.76,0,0,0,1.47,6.92,13.33,13.33,0,0,0,3.83,4.55q3.53,3.24,6.18,6.18t2.64,10.6v90.32a19.06,19.06,0,0,0,5.74,14,19.4,19.4,0,0,0,14.27,5.74,19.58,19.58,0,0,0,19.71-19.72V201.54q2.65-9.42,9.56-13.24a32,32,0,0,1,15.74-3.83,71.59,71.59,0,0,1,8.1.3,40.53,40.53,0,0,1,4.56.88q8.52,1.77,14.12-2.35a20.67,20.67,0,0,0,7.65-10.89ZM1208.5,241q0,13.83-5.3,21.34T1185,269.79a28.55,28.55,0,0,1-11.18-2.5,39.11,39.11,0,0,1-10.59-6.62V188.3a44.15,44.15,0,0,1,10.59-6,29.37,29.37,0,0,1,10.89-2.21q12.94,0,18.38,6.62t5.45,19.86Z"/><path id="Raffle" class="cls-1" d="M573.54,172.41a21,21,0,0,0,.14-11.77,15.87,15.87,0,0,0-7.2-9.41,27,27,0,0,0-7.8-3.24,42.14,42.14,0,0,0-10.44-1.18,75.44,75.44,0,0,0-8.54.59,49,49,0,0,0-10.44,2.5,54.25,54.25,0,0,0-11.18,5.59,45.62,45.62,0,0,0-10.74,9.86,32.31,32.31,0,0,0-8.09-9.86,33.38,33.38,0,0,0-13.39-6.32,8.69,8.69,0,0,0-3.24-.59h-2.94q-9.12,0-14.41,3.82T460,164.76a14.76,14.76,0,0,0,1.47,6.92,13.33,13.33,0,0,0,3.83,4.55q3.53,3.24,6.17,6.18t2.65,10.6v90.32a19.06,19.06,0,0,0,5.74,14,19.38,19.38,0,0,0,14.27,5.74,19.6,19.6,0,0,0,19.71-19.72V201.54q2.66-9.42,9.56-13.24a32,32,0,0,1,15.74-3.83,71.47,71.47,0,0,1,8.1.3,40.53,40.53,0,0,1,4.56.88q8.52,1.77,14.12-2.35a20.67,20.67,0,0,0,7.65-10.89ZM1096.93,223V210.36a86.61,86.61,0,0,0-3.38-24.27,57.26,57.26,0,0,0-10.6-20.45,49.59,49.59,0,0,0-19-14q-11.77-5.14-28.54-5.15-16.18,0-27.8,5.3a55.35,55.35,0,0,0-19.27,14.12A57,57,0,0,0,977,186.53a82.49,82.49,0,0,0-3.68,24.72v27.36a91.12,91.12,0,0,0,3.24,24.57,54.08,54.08,0,0,0,10.59,20.45,52.41,52.41,0,0,0,19.12,14.12q11.78,5.29,28.83,5.3a136.41,136.41,0,0,0,22.22-1.92,96.29,96.29,0,0,0,24-7.5,14.57,14.57,0,0,0,7.94-7.51q2.35-5.14.29-11.91a14.3,14.3,0,0,0-7.5-9.42,13.44,13.44,0,0,0-11.62-.58,87.94,87.94,0,0,1-14.86,4.85,84.42,84.42,0,0,1-18.09,1.61q-12.36,0-18.39-7.35t-6-20.59v-5.59h70.32A12.82,12.82,0,0,0,1093,233a13.86,13.86,0,0,0,4-10Zm-38.25-19.42v3.82h-45.6V203.6q0-12.66,5.73-19.42t17.52-6.77q11.76,0,17.06,6.77t5.29,19.42Zm-96.13,83a13.61,13.61,0,0,0-1.62-6.91,14.94,14.94,0,0,0-4-4.56,52.18,52.18,0,0,1-6.18-6q-2.64-3.09-2.65-10.44V108a19.56,19.56,0,0,0-5.73-14.13,18.79,18.79,0,0,0-14-5.88,19.14,19.14,0,0,0-14.27,5.88A19.56,19.56,0,0,0,908.42,108V262.15q0,12.35,4.41,20.88A38.34,38.34,0,0,0,924,296.57a29.86,29.86,0,0,0,9,4.85,30.16,30.16,0,0,0,9.57,1.63q8.52,0,14.27-3.83t5.73-12.66ZM900.18,103a17.08,17.08,0,0,0-17.36-17.36H871.64q-12.95,0-21.77,4.26a41.37,41.37,0,0,0-14.42,11.18A41.81,41.81,0,0,0,827.51,117,71,71,0,0,0,825.15,135v13.25h-4.41a16.07,16.07,0,0,0-16.18,16.18,16.11,16.11,0,0,0,4.71,11.62,15.38,15.38,0,0,0,11.47,4.85h4.41V283a19.61,19.61,0,0,0,20,20,19,19,0,0,0,14-5.74A19.38,19.38,0,0,0,864.87,283V180.94h13.24a15.41,15.41,0,0,0,11.48-4.85,16.14,16.14,0,0,0,4.7-11.62,16,16,0,0,0-16.18-16.18H864.87v-9.71q0-9.72,3.09-14.13T879.58,120h3.24a16.82,16.82,0,0,0,12.36-5,16.45,16.45,0,0,0,5-12.06Zm-85.25-.3A16.55,16.55,0,0,1,809.79,115a17,17,0,0,1-12.22,5h-9.12q-11.18,0-16.62,5.59t-5.44,18.53v4.13h18.83a16.07,16.07,0,0,1,16.18,16.18,16.11,16.11,0,0,1-4.71,11.62,15.39,15.39,0,0,1-11.47,4.85H766.39V283.33a19.6,19.6,0,0,1-19.72,19.72,19.41,19.41,0,0,1-14.27-5.74,19.05,19.05,0,0,1-5.73-14V180.94h-4.41a15.4,15.4,0,0,1-11.48-4.85,16.1,16.1,0,0,1-4.7-11.62,16,16,0,0,1,16.18-16.18h4.41v-4.13q0-27.64,14.12-43.24t42.66-15.6h14.12a17.57,17.57,0,0,1,17.36,17.36ZM710,286.86q0,8.53-5.45,12.36T690,303.05a27.79,27.79,0,0,1-10.59-1.92,30.86,30.86,0,0,1-7.65-4.26,25.88,25.88,0,0,1-5.89-6.18,44.6,44.6,0,0,1-19.56,9.85,94,94,0,0,1-20.75,2.51q-26.76,0-39.86-12.51t-13.09-33.4v-2.06q0-20.88,14.85-32.8t43.4-11.92H657v-5.59q0-12.95-4.41-19.85t-18-6.92a52.3,52.3,0,0,0-15.45,1.91,67.22,67.22,0,0,0-11,4.56q-7.36,3.83-13.39,1.62a17.53,17.53,0,0,1-9.12-7.06,15.73,15.73,0,0,1-2.21-11q.88-6.18,7.65-10.6a59.87,59.87,0,0,1,22.22-8.53,135.72,135.72,0,0,1,24.56-2.35q15.9,0,27.07,3.68a42.24,42.24,0,0,1,18.24,11.32q7.06,7.65,10.3,19.57t3.23,28.39v49.14q0,7.63,2.21,10.59a42.87,42.87,0,0,0,5.44,5.88,19.29,19.29,0,0,1,4,4.85,13.63,13.63,0,0,1,1.62,6.92Zm-53-35V238.9H635.54q-13.24,0-18.39,4.71A15.63,15.63,0,0,0,612,255.68v2.05q0,8.24,5.3,12.65t16.77,4.42q10.29,0,16.62-5.59T657,251.85Z"/></g><g id="Bunny_Icon" data-name="Bunny Icon"><path id="Orange" class="cls-1" d="M1.33,120.18a40.65,40.65,0,0,1,18.31-29.9c50.65-33.64,105-61.54,160.3-86.57a40.87,40.87,0,0,1,34,0c55.34,25,109.65,52.93,160.3,86.57a40.63,40.63,0,0,1,18.43,31.4c1.56,28.73,1.2,58.49,1.08,87.28-.12,28-.37,56-1,84-.32,13.43-7.42,25-18.47,32.37-50.65,33.64-105,61.54-160.3,86.57a41,41,0,0,1-34,0c-55.34-25-109.65-52.93-160.3-86.57C8.6,318,1.49,306.41,1.17,293c-.66-28-.92-56-1-84C.05,189-.46,137.62,1.33,120.18Zm31.28,3.2c-1.9,34.9-.88,131.69,0,168.86.07,3,2,5.28,4.43,6.91,21,13.93,42.66,26.87,64.8,39-3.07-30.1-3.58-64.83,5.89-86,3.74-8.35,11.85-15.11,22.65-20.27C111,204.55,98.75,172.39,95.7,143.09c-4.46-42.78,63.49-62.63,65.39-30a939.69,939.69,0,0,0,12.12,107.55,212.67,212.67,0,0,1,47.85,0,939.69,939.69,0,0,0,12.12-107.55c1.9-32.67,69.85-12.82,65.39,30-3.05,29.3-15.32,61.46-34.68,88.81,10.8,5.16,18.92,11.92,22.65,20.27,9.45,21.12,9,55.74,5.92,85.79,22-12.08,43.56-24.95,64.42-38.81,2.48-1.63,4.36-3.91,4.44-6.91.88-37.17,1.89-134,0-168.86a9.28,9.28,0,0,0-4.44-6.91C307.74,83.83,254.72,56.65,201,32.36a9.44,9.44,0,0,0-8.13,0C139.2,56.65,86.19,83.83,37,116.47a9.27,9.27,0,0,0-4.43,6.91ZM233,280.85a17.83,17.83,0,1,0,17.83,17.83A17.83,17.83,0,0,0,233,280.85Zm-71.69,0a17.83,17.83,0,1,0,17.83,17.83A17.83,17.83,0,0,0,161.29,280.85Z"/></g></g></g></svg>