<svg width="512" height="512" xmlns="http://www.w3.org/2000/svg">
 <g>
  <title>background</title>
  <rect fill="none" id="canvas_background" height="514" width="514" y="-1" x="-1"/>
 </g>
 <g>
  <title>Layer 1</title>
  <g id="svg_1">
   <path stroke="null" d="m509.000002,249.45809c0,136.668934 -111.641467,247.45809 -249.382845,247.45809c-43.727511,0 -84.807778,-11.176 -120.5484,-30.790445l-138.068756,43.874267l45.014445,-132.768623c-22.7076,-37.2872 -35.785778,-81.020356 -35.785778,-127.773289c0,-136.668934 111.652756,-247.45809 249.38849,-247.45809c137.752667,0 249.382845,110.789156 249.382845,247.45809zm-249.382845,-208.048579c-115.6208,0 -209.668534,93.330889 -209.668534,208.048579c0,45.522445 14.839245,87.6808 39.940089,121.976445l-26.195867,77.2668l80.574445,-25.608845c33.104667,21.736756 72.762534,34.414178 115.355512,34.414178c115.603867,0 209.668534,-93.3196 209.668534,-208.03729s-94.059023,-208.059867 -209.674179,-208.059867zm125.9332,265.040534c-1.540933,-2.523067 -5.610578,-4.047067 -11.717867,-7.078133c-6.118578,-3.031067 -36.180889,-17.712267 -41.768889,-19.727333c-5.604933,-2.020711 -9.691511,-3.036711 -13.761156,3.031067c-4.069644,6.073422 -15.787511,19.727333 -19.360445,23.7744c-3.567289,4.058356 -7.128933,4.566356 -13.247511,1.529644c-6.107289,-3.031067 -25.800756,-9.443156 -49.151822,-30.101822c-18.169467,-16.075378 -30.440489,-35.921245 -34.007778,-42.000311c-3.561644,-6.067778 -0.372533,-9.3472 2.681111,-12.366978c2.754489,-2.720622 6.118578,-7.083778 9.172222,-10.622844c3.064933,-3.544711 4.080933,-6.067778 6.107289,-10.120489c2.048933,-4.047067 1.027289,-7.586133 -0.508,-10.628489c-1.524,-3.031067 -13.761156,-32.878889 -18.852445,-45.025734c-5.091289,-12.135556 -10.176933,-10.114844 -13.749867,-10.114844c-3.561644,0 -7.642578,-0.508 -11.717867,-0.508c-4.075289,0 -10.701867,1.518356 -16.3068,7.586133c-5.599289,6.073422 -21.3868,20.748978 -21.3868,50.591156c0,29.847822 21.8948,58.685289 24.959733,62.726711c3.053644,4.041422 42.276889,67.281778 104.422223,91.569823c62.150978,24.276756 62.150978,16.176978 73.360845,15.160978c11.198578,-1.010356 36.158311,-14.669911 41.272178,-28.826178c5.08,-14.178844 5.08,-26.320045 3.561644,-28.848756z" id="WhatsApp"/>
  </g>
  <g id="svg_2"/>
  <g id="svg_3"/>
  <g id="svg_4"/>
  <g id="svg_5"/>
  <g id="svg_6"/>
  <g id="svg_7"/>
  <g id="svg_8"/>
  <g id="svg_9"/>
  <g id="svg_10"/>
  <g id="svg_11"/>
  <g id="svg_12"/>
  <g id="svg_13"/>
  <g id="svg_14"/>
  <g id="svg_15"/>
  <g id="svg_16"/>
 </g>
</svg>