<svg width="512" height="512" xmlns="http://www.w3.org/2000/svg">
 <g>
  <title>background</title>
  <rect fill="none" id="canvas_background" height="514" width="514" y="-1" x="-1"/>
 </g>
 <g>
  <title>Layer 1</title>
  <g stroke="null" id="svg_22">
   <g stroke="null" id="svg_5">
    <path stroke="null" id="svg_6" d="m371.705311,3.449914l-65.472852,-0.105051c-73.556503,0 -121.091947,48.76979 -121.091947,124.253974l0,57.289402l-65.830024,0c-5.688496,0 -10.294969,4.611726 -10.294969,10.300222l0,83.005814c0,5.688496 4.611726,10.294969 10.294969,10.294969l65.830024,0l0,209.450095c0,5.688496 4.606473,10.294969 10.294969,10.294969l85.889456,0c5.688496,0 10.294969,-4.611726 10.294969,-10.294969l0,-209.450095l76.970651,0c5.688496,0 10.294969,-4.606473 10.294969,-10.294969l0.031515,-83.005814c0,-2.731318 -1.087275,-5.347081 -3.014955,-7.280014c-1.92768,-1.932933 -4.553948,-3.020208 -7.285266,-3.020208l-76.996914,0l0,-48.564941c0,-23.342267 5.562435,-35.191986 35.969361,-35.191986l44.105538,-0.015758c5.683243,0 10.289717,-4.611726 10.289717,-10.294969l0,-77.075702c0,-5.677991 -4.601221,-10.284464 -10.279211,-10.294969z"/>
   </g>
   <g stroke="null" id="svg_7"/>
   <g stroke="null" id="svg_8"/>
   <g stroke="null" id="svg_9"/>
   <g stroke="null" id="svg_10"/>
   <g stroke="null" id="svg_11"/>
   <g stroke="null" id="svg_12"/>
   <g stroke="null" id="svg_13"/>
   <g stroke="null" id="svg_14"/>
   <g stroke="null" id="svg_15"/>
   <g stroke="null" id="svg_16"/>
   <g stroke="null" id="svg_17"/>
   <g stroke="null" id="svg_18"/>
   <g stroke="null" id="svg_19"/>
   <g stroke="null" id="svg_20"/>
   <g stroke="null" id="svg_21"/>
  </g>
 </g>
</svg>