<svg width="48" height="27" viewBox="0 0 48 27" fill="none" xmlns="http://www.w3.org/2000/svg">
<path d="M45.3261 5.46574C45.9836 6.74638 46.8126 7.97134 47.2843 9.32158C50.0144 17.1586 44.64 25.6358 36.2496 26.8469C35.4778 26.9582 34.6916 26.9861 33.9055 26.9861C30.6751 27 27.4448 27 24.2144 27C24.1429 27 24.0715 26.9861 24 26.9722C24 17.9937 24 9.00142 24 0.0230106C24.9434 0.0230106 25.8868 0.00909075 26.8301 0.00909075C29.3315 0.00909075 31.8186 -0.0187495 34.32 0.0230106C38.4794 0.0786906 41.8956 1.70733 44.6543 4.71406C44.7543 4.82542 44.8687 4.93678 44.983 5.06206C45.0259 5.10382 45.0545 5.14558 45.0974 5.18734L45.0831 5.17342C45.126 5.24302 45.1831 5.2987 45.226 5.3683C45.2689 5.38222 45.2975 5.42398 45.3261 5.46574ZM40.5091 8.59774C40.5234 8.62558 40.5377 8.6395 40.552 8.66734C40.5663 8.65342 40.5806 8.65342 40.5949 8.6395C40.552 8.62558 40.5377 8.61166 40.5091 8.59774C40.4377 8.5003 40.3805 8.38894 40.2947 8.31934C38.5938 6.8299 36.5927 6.23134 34.3629 6.5515C30.2892 7.15006 27.602 10.8528 28.3167 14.7504C29.0314 18.6202 32.8477 21.1536 36.8643 20.388C38.2936 20.1235 39.5514 19.525 40.5091 18.4114C40.5377 18.3974 40.552 18.3835 40.5806 18.3696C40.5663 18.3557 40.552 18.3557 40.5377 18.3418C40.5234 18.3696 40.5091 18.3835 40.5091 18.4114C40.1947 18.4114 39.8659 18.4253 39.5514 18.4253C36.9786 18.4113 34.9346 16.6435 34.5344 14.1101C34.1771 11.8133 35.7351 9.46078 38.1364 8.82046C38.8939 8.59774 39.7087 8.65342 40.5091 8.59774Z" fill="#675ED5"/>
<path d="M23.9984 0.0223C23.9984 9.00071 23.9984 17.993 23.9984 26.9714C20.2535 26.9714 16.5086 27.041 12.7636 26.9297C10.348 26.8601 8.1325 26.011 6.13139 24.7025C5.98845 24.605 5.83123 24.5354 5.674 24.4519V24.4658C5.63111 24.438 5.58823 24.3962 5.55965 24.3684C5.48818 24.3266 5.431 24.271 5.35954 24.2292L5.37383 24.2431C5.33095 24.2014 5.28807 24.1596 5.24519 24.1039C2.94392 22.2247 1.30015 19.914 0.499709 17.0743C-1.73009 9.15383 3.74436 1.16374 12.1061 0.119741C12.5635 0.0640606 13.0352 0.0223 13.4926 0.0223C16.9945 0.00837994 20.4965 0.0223 23.9984 0.0223ZM12.7493 6.46727C8.74712 6.46727 5.54535 9.61319 5.54535 13.5108C5.54535 17.3945 8.79 20.5404 12.7779 20.5265C16.7801 20.5126 20.0105 17.3666 19.9962 13.483C19.9819 9.59927 16.7515 6.46727 12.7493 6.46727Z" fill="#B5B2E6"/>
<path d="M45.2191 5.35259C45.1762 5.28299 45.1191 5.22731 45.0762 5.15771C45.1333 5.22731 45.1762 5.28299 45.2191 5.35259Z" fill="#60B6FD"/>
<path d="M5.36133 24.2168C5.4328 24.2586 5.48997 24.3142 5.56144 24.356C5.50426 24.3142 5.4328 24.2725 5.36133 24.2168Z" fill="#60B6FD"/>
<path d="M45.3275 5.46536C45.2992 5.4236 45.2568 5.38184 45.2285 5.354C45.2709 5.38184 45.2992 5.4236 45.3275 5.46536Z" fill="#60B6FD"/>
<path d="M5.56055 24.3545C5.60297 24.3823 5.64539 24.4241 5.67367 24.4519C5.63125 24.4241 5.60297 24.3823 5.56055 24.3545Z" fill="#60B6FD"/>
<path d="M40.5117 8.58252C40.5396 8.59644 40.5535 8.61036 40.5813 8.62428C40.5674 8.6382 40.5535 8.6382 40.5396 8.65212C40.5256 8.6382 40.5256 8.61036 40.5117 8.58252Z" fill="#F2E270"/>
<path d="M40.5117 18.3977C40.5256 18.3699 40.5396 18.356 40.5396 18.3281C40.5535 18.342 40.5674 18.342 40.5813 18.356C40.5535 18.3699 40.5396 18.3838 40.5117 18.3977Z" fill="#F2E270"/>
<path d="M12.7469 6.46875C16.7492 6.46875 19.9795 9.58683 19.9938 13.4844C20.0081 17.3681 16.7777 20.514 12.7755 20.528C8.78762 20.5419 5.55726 17.396 5.54297 13.5123C5.54297 9.61467 8.75903 6.46875 12.7469 6.46875Z" fill="white"/>
</svg>
