<svg width="48" height="48" viewBox="0 0 48 48" fill="none" xmlns="http://www.w3.org/2000/svg">
<g clip-path="url(#clip0_2129_25960)">
<path d="M24.6934 25.0498C24.6934 28.8373 24.6934 32.6248 24.6934 36.4123C26.9809 36.2811 29.7934 34.1061 29.7559 30.6748C29.7371 27.2061 26.8309 25.1436 24.6934 25.0498Z" fill="#B5B2E6"/>
<path d="M48 11.8875C48 9.58125 47.2125 7.6125 45.6 5.98125C44.4188 4.78125 43.2188 3.58125 42.0188 2.4C40.3875 0.80625 38.4375 0 36.1312 0C26.0062 0.01875 15.8813 0 5.775 0C2.34375 0 0 2.34375 0 5.775C0 17.925 0 30.075 0 42.225C0 45.6375 2.34375 48 5.75625 48C11.8125 48 17.8687 48 23.9437 48C30 48 36.0562 48 42.1312 48C45.6937 48 48 45.6937 48 42.1687C48 32.0625 47.9813 21.975 48 11.8875ZM32.1188 23.3625C31.8 23.9812 30.9375 24.8438 30.6 24.8063C30.3937 24.7875 30.0938 24.6187 30 24.45C29.9062 24.2625 29.925 23.925 30.0563 23.7562C30.3938 23.3438 30.7688 22.95 31.1813 22.6312C31.3313 22.5 31.6688 22.5 31.875 22.575C31.9312 22.5938 31.9688 22.6313 32.0062 22.6688C32.2125 22.8563 32.2313 23.1375 32.1188 23.3625ZM8.025 12.2062C8.00625 10.7062 8.00625 9.20625 8.025 7.70625C8.04375 6.525 8.56875 6 9.75 6C13.1812 6 16.6313 6 20.0625 6C23.4 6 26.7563 6 30.0938 6C31.4813 6 32.0063 6.54375 32.025 7.93125C32.0438 9.3 32.0438 10.6875 32.025 12.0563C32.0063 13.4625 31.4813 14.025 30.1125 14.025C23.3625 14.025 16.6125 14.025 9.8625 14.025C8.56875 14.025 8.04375 13.4812 8.025 12.2062ZM23.3625 19.8563C23.4 19.5 23.6437 19.2938 24 19.2938C24.3563 19.2938 24.6187 19.5 24.6375 19.8563C24.675 20.4 24.675 20.9625 24.6375 21.5062C24.6187 21.8625 24.3563 22.0687 24 22.0687C23.6437 22.0687 23.4 21.8625 23.3625 21.5062C23.325 21.225 23.3625 20.9437 23.3625 20.6625C23.3438 20.3812 23.325 20.1187 23.3625 19.8563ZM14.7375 31.3688C14.2125 31.4062 13.6687 31.4062 13.1437 31.3688C12.7687 31.35 12.5625 31.0875 12.5625 30.7125C12.5625 30.3563 12.7875 30.1312 13.1437 30.075C13.4062 30.0375 13.6688 30.075 13.95 30.075C14.2125 30.075 14.4937 30.0562 14.7562 30.075C15.1312 30.1125 15.3375 30.3563 15.3375 30.75C15.3 31.1063 15.0938 31.35 14.7375 31.3688ZM15.8625 22.8375C15.8812 22.7812 15.9187 22.7437 15.9562 22.7062C16.1437 22.5375 16.425 22.5 16.65 22.6125C17.2688 22.9312 18.1125 23.8125 18.075 24.1312C18.0562 24.3375 17.9062 24.6187 17.7375 24.6937C17.55 24.7875 17.1938 24.7875 17.0438 24.675C16.6125 24.3375 16.2188 23.9438 15.8812 23.5125C15.7687 23.3813 15.7687 23.025 15.8625 22.8375ZM18 37.5938C17.6063 38.0625 17.1562 38.475 16.725 38.8875C16.7062 38.9062 16.6687 38.925 16.6125 38.9437C16.425 39 16.2375 38.9625 16.0875 38.8688C15.9938 38.8125 15.9 38.7375 15.8625 38.6438C15.7875 38.4188 15.7875 38.0812 15.9188 37.9125C16.2375 37.5 16.6312 37.1437 17.0062 36.8063C17.2687 36.5625 17.5875 36.5812 17.85 36.8063C18.1125 37.0312 18.225 37.35 18 37.5938ZM24.6562 41.5875C24.6187 41.9625 24.375 42.1687 24 42.1687C23.6437 42.1687 23.4 41.9625 23.3812 41.5875C23.3438 41.0625 23.3438 40.5187 23.3812 39.9938C23.4 39.6188 23.6625 39.4125 24.0375 39.4125C24.3937 39.4125 24.6188 39.6187 24.675 39.975C24.7125 40.2375 24.675 40.5 24.675 40.7812C24.6563 41.0625 24.675 41.325 24.6562 41.5875ZM24 37.8375C20.0812 37.8375 16.9125 34.6688 16.8937 30.75C16.875 26.8125 20.0813 23.6063 24.0188 23.625C27.9563 23.6437 31.1062 26.8125 31.1062 30.7312C31.0875 34.6687 27.9188 37.8375 24 37.8375ZM32.1 38.7188C32.0438 38.7938 31.9875 38.85 31.9125 38.8875C31.6875 38.9625 31.35 38.9437 31.1813 38.8125C30.7688 38.4938 30.4125 38.1 30.075 37.725C29.8312 37.4437 29.8687 37.1063 30.1312 36.8438C30.3937 36.6 30.7125 36.5625 30.975 36.7875C31.3875 37.1437 31.7438 37.5187 32.1188 37.9125C32.1562 37.95 32.175 37.9875 32.1937 38.025C32.2687 38.25 32.2313 38.5125 32.1 38.7188ZM34.875 31.3688C34.3312 31.4062 33.7687 31.4062 33.225 31.3688C32.8687 31.35 32.6625 31.0875 32.6813 30.7312C32.6813 30.375 32.8875 30.1313 33.2438 30.0938C33.525 30.0562 33.8063 30.0938 34.0875 30.0938C34.35 30.0938 34.6313 30.075 34.8938 30.0938C35.25 30.15 35.4562 30.3937 35.4375 30.7312C35.4375 31.0875 35.2313 31.35 34.875 31.3688Z" fill="#675ED5"/>
</g>
<defs>
<clipPath id="clip0_2129_25960">
<rect width="48" height="48" fill="white"/>
</clipPath>
</defs>
</svg>
