<svg width="48" height="42" viewBox="0 0 48 42" fill="none" xmlns="http://www.w3.org/2000/svg">
<g clip-path="url(#clip0_2129_25971)">
<path d="M46.0049 0H1.99511C0.899756 0 0 0.887868 0 1.96875V9.86305C0 10.9439 0.899756 11.8318 1.99511 11.8318H46.0245C47.1198 11.8318 48.0196 10.9439 48.0196 9.86305V1.96875C48 0.887868 47.1198 0 46.0049 0ZM41.3301 8.87868H33.4866C31.824 8.87868 30.4743 7.54688 30.4743 5.90625C30.4743 4.26562 31.824 2.93382 33.4866 2.93382H41.3301C42.9927 2.93382 44.3423 4.26562 44.3423 5.90625C44.3423 7.54688 42.9927 8.87868 41.3301 8.87868Z" fill="#B5B2E6"/>
<path d="M46.0049 14.2637H1.99511C0.899756 14.2637 0 15.1322 0 16.2324V40.0504C0 41.1313 0.899756 42.0192 1.99511 42.0192H46.0245C47.1198 42.0192 48.0196 41.1313 48.0196 40.0504V16.2324C48 15.1322 47.1198 14.2637 46.0049 14.2637ZM4.45966 18.6837H13.2616C14.0636 18.6837 14.7286 19.34 14.7286 20.1313C14.7286 20.9227 14.0636 21.5789 13.2616 21.5789H4.45966C3.6577 21.5789 2.99267 20.9227 2.99267 20.1313C2.99267 19.34 3.6577 18.6837 4.45966 18.6837ZM13.868 39.2591H6.00489C4.3423 39.2591 2.99267 37.9273 2.99267 36.2866C2.99267 34.646 4.3423 33.3142 6.00489 33.3142H13.8484C15.511 33.3142 16.8606 34.646 16.8606 36.2866C16.8606 37.9273 15.5306 39.2591 13.868 39.2591ZM29.6724 28.5275H4.45966C3.6577 28.5275 2.99267 27.8712 2.99267 27.0798C2.99267 26.2885 3.6577 25.6322 4.45966 25.6322H29.6724C30.4743 25.6322 31.1394 26.2885 31.1394 27.0798C31.1394 27.8712 30.4743 28.5275 29.6724 28.5275ZM43.5403 28.5275H34.7384C33.9364 28.5275 33.2714 27.8712 33.2714 27.0798C33.2714 26.2885 33.9364 25.6322 34.7384 25.6322H43.5403C44.3423 25.6322 45.0073 26.2885 45.0073 27.0798C45.0073 27.8712 44.3423 28.5275 43.5403 28.5275ZM43.5403 21.5789H18.8166C18.0147 21.5789 17.3496 20.9227 17.3496 20.1313C17.3496 19.34 18.0147 18.6837 18.8166 18.6837H43.5403C44.3423 18.6837 45.0073 19.34 45.0073 20.1313C45.0073 20.9227 44.3423 21.5789 43.5403 21.5789Z" fill="#675ED5"/>
<path d="M41.3683 7.91372C42.5242 7.91372 43.4612 6.98907 43.4612 5.84846C43.4612 4.70785 42.5242 3.7832 41.3683 3.7832C40.2124 3.7832 39.2754 4.70785 39.2754 5.84846C39.2754 6.98907 40.2124 7.91372 41.3683 7.91372Z" fill="#675ED5"/>
<path d="M13.9074 38.2941C15.0632 38.2941 16.0003 37.3694 16.0003 36.2288C16.0003 35.0882 15.0632 34.1636 13.9074 34.1636C12.7515 34.1636 11.8145 35.0882 11.8145 36.2288C11.8145 37.3694 12.7515 38.2941 13.9074 38.2941Z" fill="#B5B2E6"/>
</g>
<defs>
<clipPath id="clip0_2129_25971">
<rect width="48" height="42" fill="white"/>
</clipPath>
</defs>
</svg>
