<svg width="48" height="48" viewBox="0 0 48 48" fill="none" xmlns="http://www.w3.org/2000/svg">
<g clip-path="url(#clip0_2134_33983)">
<path d="M23.9726 33.3C22.309 33.3 20.6181 33.3546 18.9544 33.3C14.3453 33.1637 10.5817 29.5637 10.0908 24.8727C9.62716 20.4546 12.5999 16.1455 16.909 15.0546C17.6726 14.8637 18.4908 14.7273 19.2817 14.7273C22.5817 14.7 25.8544 14.6727 29.1544 14.7273C33.4362 14.8091 37.2544 18.2727 37.8817 22.5C38.6181 27.4909 35.5635 31.9909 30.6272 33.0818C29.9181 33.2455 29.1544 33.2727 28.4181 33.2727C26.9181 33.3273 25.4453 33.3 23.9726 33.3ZM21.709 23.9727C21.709 27.8182 24.8181 30.9546 28.6362 30.9818C32.4817 31.0091 35.6726 27.8455 35.6453 24C35.6453 20.1546 32.4817 17.0182 28.6635 17.0182C24.8453 17.0182 21.709 20.1273 21.709 23.9727Z" fill="#B5B2E6"/>
<path d="M48 41.7545C48 40.9091 47.6455 40.4727 46.7727 40.5C46.2545 40.5273 45.7364 40.5 45.2455 40.5C45.2455 29.4273 45.2455 18.5182 45.2455 7.5C45.7909 7.5 46.2818 7.5 46.7727 7.5C47.5636 7.52727 48 7.17273 48 6.32727C48 4.60909 48 2.89091 48 1.17273C48 0.409091 47.6727 0 46.8818 0C45.1364 0 43.3909 0 41.6455 0C40.8818 0 40.5 0.381818 40.5 1.17273C40.5 1.69091 40.5 2.20909 40.5 2.75455C29.4545 2.75455 18.5182 2.75455 7.5 2.75455C7.5 2.15455 7.5 1.63636 7.5 1.11818C7.5 0.409091 7.14545 0 6.40909 0C4.63636 0 2.86364 0 1.06364 0C0.381818 0 0.0272727 0.354545 0 1.03636C0 2.86364 0 4.66364 0 6.49091C0 7.17273 0.409091 7.5 1.09091 7.5C1.60909 7.5 2.15455 7.5 2.75455 7.5C2.75455 18.5727 2.75455 29.5091 2.75455 40.4455C2.64545 40.4727 2.61818 40.4727 2.59091 40.4727C2.15455 40.4727 1.71818 40.4727 1.28182 40.5C0.3 40.5273 0.0272727 40.8 0 41.8091C0 43.4727 0 45.1091 0 46.7727C0 47.5091 0.272727 48 1.06364 48C2.83636 48 4.63636 48 6.40909 48C7.14545 48 7.5 47.6182 7.5 46.8818C7.5 46.3364 7.5 45.7909 7.5 45.2182C18.5455 45.2182 29.4818 45.2182 40.5 45.2182C40.5 45.7364 40.5 46.2545 40.5 46.7455C40.4727 47.6182 40.8545 48 41.7273 48C43.4182 47.9727 45.1091 48 46.8 48C47.6182 48 48 47.6455 48 46.8C48 45.1364 48 43.4455 48 41.7545ZM42.4636 1.93636C43.6364 1.93636 44.8091 1.93636 46.0636 1.93636C46.0636 3.13636 46.0636 4.30909 46.0636 5.59091C44.8364 5.59091 43.6909 5.59091 42.4636 5.59091C42.4636 4.39091 42.4636 3.21818 42.4636 1.93636ZM1.93636 5.56364C1.93636 4.36364 1.93636 3.19091 1.93636 1.90909C3.16364 1.90909 4.33636 1.90909 5.56364 1.90909C5.56364 3.10909 5.56364 4.30909 5.56364 5.56364C4.36364 5.56364 3.16364 5.56364 1.93636 5.56364ZM5.56364 46.0636C4.39091 46.0636 3.19091 46.0636 1.93636 46.0636C1.93636 44.8636 1.93636 43.6909 1.93636 42.4091C3.13636 42.4091 4.30909 42.4091 5.56364 42.4091C5.56364 43.6091 5.56364 44.8091 5.56364 46.0636ZM40.9091 40.8C40.4182 41.2636 40.5 42.3273 40.3091 43.2273C31.7727 43.2273 23.1273 43.2273 14.3455 43.2273V43.2545H11.8091C11.5909 43.2545 11.3727 43.2545 11.1545 43.2545C9.95455 43.2545 8.78182 43.2545 7.63636 43.2545C7.5 42.4636 7.66364 41.4 7.2 40.9091C6.73636 40.4182 5.67273 40.5 4.77273 40.3091C4.77273 29.5091 4.77273 18.5727 4.77273 7.60909C5.56364 7.47273 6.62727 7.60909 7.11818 7.14545C7.60909 6.68182 7.5 5.61818 7.69091 4.71818C18.5182 4.71818 29.4545 4.71818 40.3636 4.71818C40.5 5.53636 40.3636 6.6 40.8545 7.09091C41.3182 7.58182 42.3818 7.47273 43.2545 7.63636C43.2545 8.15455 43.2545 8.7 43.2545 9.24545V13.7182C43.2545 14.2364 43.2545 14.7273 43.2545 15.2455C43.2545 23.6182 43.2545 31.9636 43.2545 40.3364C42.4636 40.5 41.4 40.3364 40.9091 40.8ZM46.0636 46.0636C44.8909 46.0636 43.6909 46.0636 42.4364 46.0636C42.4364 44.8636 42.4364 43.6909 42.4364 42.4091C43.6364 42.4091 44.8091 42.4091 46.0636 42.4091C46.0636 43.6091 46.0636 44.8091 46.0636 46.0636Z" fill="#675ED5"/>
</g>
<defs>
<clipPath id="clip0_2134_33983">
<rect width="48" height="48" fill="white"/>
</clipPath>
</defs>
</svg>
