<svg width="48" height="48" viewBox="0 0 48 48" fill="none" xmlns="http://www.w3.org/2000/svg">
<g clip-path="url(#clip0_2129_25880)">
<path d="M36.7308 28.3261C36.9146 34.283 33.117 40.1387 25.3586 40.7465C18.764 41.2531 13.0064 36.0863 12.5777 29.4C12.1489 22.8554 17.294 17.0808 24.1949 16.8174C30.9324 16.554 36.3837 21.1332 36.7308 28.3261ZM14.8235 29.8862C15.1706 34.1412 18.6211 38.6596 24.7257 38.6393C31.0754 38.619 34.342 33.7765 34.5462 29.8862C27.9924 29.8862 21.4386 29.8862 14.8235 29.8862Z" fill="#B5B2E6"/>
<path d="M16.087 47.6958C15.8624 47.4729 15.8012 47.1082 15.9441 46.8246L15.9849 46.7233C16.5362 45.5278 17.1078 44.3526 17.6591 43.1572C17.9449 42.5696 18.3328 42.3873 18.7616 42.5899C19.2108 42.7925 19.3333 43.218 19.0678 43.7853C18.4962 45.0213 17.9245 46.237 17.3324 47.4729C17.1487 47.8579 16.8424 48.1213 16.4137 47.939C16.2912 47.8984 16.1891 47.7971 16.087 47.6958Z" fill="#B5B2E6"/>
<path d="M31.8709 47.7971C31.5238 48.101 30.9725 47.9997 30.6867 47.635C30.6459 47.5945 30.605 47.5337 30.5846 47.4729C30.0538 46.1762 29.5842 44.8592 29.0942 43.5624C28.9309 43.1369 29.0942 42.7925 29.4821 42.6101C29.9109 42.4075 30.3192 42.5291 30.503 42.9748C31.0542 44.3526 31.5851 45.7304 32.0751 47.1285C32.1567 47.3716 32.0751 47.635 31.8709 47.7971Z" fill="#B5B2E6"/>
<path d="M14.4954 39.9762C14.475 40.037 14.4342 40.2193 14.3321 40.3409C13.8829 40.8272 13.4337 41.3337 12.9233 41.7187C12.7192 41.8808 12.2291 41.8403 11.9637 41.6984C11.6166 41.5161 11.5554 41.0703 11.8412 40.7461C12.3108 40.1991 12.8212 39.6723 13.3929 39.2468C13.8217 38.8618 14.475 39.267 14.4954 39.9762Z" fill="#B5B2E6"/>
<path d="M37.7085 40.8883C37.7697 41.0909 37.7289 41.3138 37.6064 41.4759C37.5247 41.5974 37.5043 41.638 37.341 41.7595C37.096 41.9216 36.7081 41.8406 36.5243 41.6988C35.9935 41.2733 35.5035 40.787 35.0951 40.2602C34.9522 40.0576 34.8706 39.6321 35.1156 39.3687C35.4218 39.0647 35.8301 39.0647 35.9731 39.1863C36.5856 39.6726 37.1164 40.2602 37.6677 40.8072C37.6881 40.8275 37.7085 40.8478 37.7085 40.8883Z" fill="#B5B2E6"/>
<path d="M23.8049 45.3458C23.8049 45.0013 23.8049 44.6366 23.8662 44.3327C23.9683 43.8059 24.2949 43.7248 24.5604 43.7046C24.785 43.6843 25.2137 43.7046 25.2545 44.2314C25.3362 44.9608 25.3158 45.4673 25.2954 46.2575C25.275 46.683 24.9687 46.8654 24.5399 46.8451C24.2541 46.8249 23.9683 46.602 23.8662 46.3386C23.7641 46.0347 23.8049 45.6699 23.8049 45.3458Z" fill="#B5B2E6"/>
<path d="M47.9796 4.94386C31.9524 4.94386 16.0068 4.94386 0 4.94386C0 3.30266 0 1.68172 0 0C15.966 0 31.9319 0 47.9796 0C47.9796 1.60068 47.9796 3.24187 47.9796 4.94386ZM8.39132 3.44449C10.0655 3.44449 11.7193 3.44449 13.3934 3.44449C14.0876 3.44449 14.6389 3.26214 14.6593 2.47193C14.6797 1.6412 14.1285 1.3778 13.373 1.3778C10.1063 1.3778 6.83964 1.3778 3.57295 1.3778C2.81752 1.3778 2.24585 1.6412 2.24585 2.43141C2.24585 3.22161 2.83794 3.46475 3.59336 3.44449C5.18588 3.42423 6.77839 3.44449 8.39132 3.44449Z" fill="#B5B2E6"/>
<path d="M0.0195312 36.7552C2.91872 36.7552 5.73625 36.7552 8.63544 36.7552C8.63544 36.7348 8.63544 36.7348 8.63544 36.7144H0.0195312C0.0195312 36.7144 0.0195312 36.7348 0.0195312 36.7552Z" fill="#675ED5"/>
<path d="M0.0195312 7.13208C0.0195312 10.0903 0.0195312 13.0282 0.0195312 15.9864C0.0195312 22.8957 0.0195312 29.8049 0.0195312 36.7142H8.63544H12.6984C11.3305 34.6475 10.4525 32.1958 10.2892 29.5415C10.0442 25.7323 11.3305 22.065 13.9234 19.2283C16.5368 16.3309 20.171 14.6694 24.1114 14.5073C24.3156 14.5073 24.5197 14.4871 24.7443 14.4871C28.5214 14.4871 32.0331 15.8244 34.6261 18.2558C37.2803 20.748 38.8524 24.2735 39.0361 28.2043V28.2448C39.1382 31.3043 38.3215 34.2625 36.7494 36.6939H39.3832C42.262 36.6939 45.1203 36.6939 47.9787 36.6939C47.9787 29.7442 47.9787 22.8552 47.9787 15.9662C47.9787 13.008 47.9787 10.07 47.9787 7.11182C31.9311 7.13208 15.9651 7.13208 0.0195312 7.13208ZM8.43127 15.9662C8.24752 16.0472 8.04335 16.0878 7.79835 16.108C7.16543 16.1283 6.51209 16.108 5.85875 16.108C5.18499 16.108 4.51124 16.1485 3.83748 16.0878C3.63331 16.0675 3.44956 16.027 3.28623 15.9662C2.91872 15.8041 2.7758 15.5002 2.79622 15.0341C2.81664 14.5479 2.75539 14.1629 3.81706 14.0616C5.16458 13.94 6.5325 13.9805 7.88002 14.0211C8.53335 14.0413 8.98253 14.3858 8.96211 15.0949C8.94169 15.561 8.73752 15.8244 8.43127 15.9662ZM10.82 11.8936C8.53336 11.8936 6.26709 11.8936 3.9804 11.8936C3.28623 11.8936 2.7758 11.6099 2.75539 10.84C2.73497 10.0498 3.28623 9.82689 3.9804 9.82689C5.14416 9.82689 6.2875 9.82689 7.45126 9.82689C8.57419 9.82689 9.69712 9.82689 10.82 9.82689C11.5346 9.82689 12.0655 10.1106 12.0655 10.84C12.0451 11.5897 11.5346 11.8936 10.82 11.8936ZM35.9532 10.84C35.9532 10.0903 36.484 9.82689 37.1986 9.82689C38.3624 9.84715 39.5057 9.82689 40.6695 9.82689C41.7924 9.82689 42.9153 9.82689 44.0382 9.82689C44.7324 9.82689 45.2633 10.07 45.2428 10.8602C45.2224 11.6302 44.6916 11.8936 44.0178 11.8936C41.7311 11.8936 39.4649 11.8936 37.1782 11.8936C36.4636 11.8936 35.9532 11.5897 35.9532 10.84ZM44.6916 15.9662C44.5282 16.0472 44.3241 16.0878 44.1199 16.108C43.4462 16.1485 42.7724 16.108 42.0782 16.108C41.4249 16.108 40.792 16.1283 40.1386 16.108C39.914 16.0878 39.7303 16.0472 39.5465 15.9662C39.2199 15.8041 39.0157 15.5204 39.0157 15.0544C39.0157 14.3452 39.4853 14.0211 40.1386 14.0211C41.4657 14.0008 42.7724 13.9805 44.0995 14.0211C44.7324 14.0413 45.2224 14.325 45.2224 15.0544C45.2428 15.5407 45.0183 15.8244 44.6916 15.9662Z" fill="#675ED5"/>
</g>
<defs>
<clipPath id="clip0_2129_25880">
<rect width="48" height="48" fill="white"/>
</clipPath>
</defs>
</svg>
