<svg width="48" height="48" viewBox="0 0 48 48" fill="none" xmlns="http://www.w3.org/2000/svg">
<g clip-path="url(#clip0_2129_26040)">
<path d="M22.7775 15.859C17.4392 16.593 15.0592 21.3307 15.9934 25.8238C16.7942 29.6273 19.8414 32.0963 23.7562 32.1852C24.6014 32.2075 25.024 31.7849 25.024 30.9619C25.024 28.6264 25.024 26.3131 25.024 23.9776C25.024 21.909 24.9573 19.8405 25.0463 17.7719C25.113 15.5031 24.3122 15.6588 22.7775 15.859Z" fill="#B5B2E6"/>
<path d="M24 0C10.7433 0 0 10.7433 0 24C0 37.2567 10.7433 48 24 48C37.2567 48 48 37.2567 48 24C48 10.7433 37.2567 0 24 0ZM39.1251 26.7804C38.4133 27.4921 37.7016 28.1817 37.012 28.9157C36.8341 29.1158 36.7006 29.4272 36.7006 29.6942C36.6562 30.7396 36.7006 31.785 36.6784 32.8304C36.6562 35.0324 35.0324 36.6562 32.8304 36.6784C31.8072 36.7006 30.7841 36.6562 29.7609 36.7006C29.4495 36.7229 29.0936 36.8563 28.8712 37.0565C28.1372 37.7238 27.4699 38.4356 26.7804 39.1251C25.0677 40.8156 22.8879 40.7933 21.1752 39.1029C20.5079 38.4356 19.8184 37.7905 19.1956 37.101C18.8842 36.7674 18.5728 36.6784 18.1279 36.6784C16.8823 36.6784 15.5922 36.7451 14.3689 36.5672C12.5672 36.3225 11.3438 34.7433 11.3216 32.9194C11.3216 32.4078 11.3216 31.8962 11.3216 31.3846C11.722 29.7831 11.0102 28.6487 9.80908 27.6923C9.38647 27.3587 9.03058 26.9583 8.6747 26.5579C7.25116 25.0454 7.25116 22.8656 8.6747 21.3531C9.40871 20.5746 10.165 19.8184 10.9435 19.0843C11.2549 18.7952 11.3661 18.4838 11.3438 18.0834C11.3216 17.0602 11.3216 16.0371 11.3438 15.0139C11.3661 12.9676 12.9231 11.3438 14.9472 11.2771C16.0371 11.2326 17.127 11.2994 18.2169 11.2549C18.5283 11.2326 18.8842 11.0992 19.1066 10.899C19.8628 10.2095 20.5524 9.4532 21.2864 8.74143C22.8434 7.22892 25.2011 7.20667 26.7359 8.71918C27.4921 9.4532 28.2039 10.2095 28.9601 10.9212C29.1603 11.1214 29.494 11.2549 29.7831 11.2549C30.7841 11.2994 31.785 11.2549 32.7859 11.2771C35.0992 11.2994 36.6784 12.8786 36.6784 15.1696C36.6784 16.3485 36.3892 17.6386 36.7896 18.6395C37.19 19.6182 38.3244 20.3077 39.1251 21.1307C40.8156 22.8656 40.8156 25.0677 39.1251 26.7804Z" fill="#675ED5"/>
</g>
<defs>
<clipPath id="clip0_2129_26040">
<rect width="48" height="48" fill="white"/>
</clipPath>
</defs>
</svg>
