<svg width="48" height="48" viewBox="0 0 48 48" fill="none" xmlns="http://www.w3.org/2000/svg">
<g clip-path="url(#clip0_2129_25984)">
<path d="M1.69442 11.4286C9.12299 11.4286 16.5325 11.4286 23.9611 11.4286C31.4468 11.4286 38.9325 11.4286 46.4182 11.4286C47.6563 11.4286 47.9992 11.0857 47.9992 9.84762C47.9992 8.19048 48.0182 6.55238 47.9992 4.89524C47.9611 2.17143 45.8087 0 43.0849 0C30.3611 0 17.6373 0 4.91347 0.0190476C2.18966 0.0190476 0.0372789 2.19048 0.0182312 4.91429C-0.000816385 6.53333 0.0182312 8.15238 0.0182312 9.77143C-0.000816385 11.1238 0.322993 11.4286 1.69442 11.4286ZM28.9706 4.57143C33.0278 4.57143 37.0849 4.57143 41.142 4.57143C42.1516 4.57143 42.6658 4.97143 42.6658 5.71429C42.6658 6.45714 42.1516 6.85714 41.123 6.85714C39.0658 6.85714 37.0087 6.85714 34.9516 6.85714C32.9516 6.85714 30.9516 6.85714 28.9706 6.85714C27.9611 6.85714 27.4468 6.45714 27.4468 5.71429C27.4468 4.97143 27.9611 4.57143 28.9706 4.57143ZM13.3135 4.57143C14.6849 4.57143 15.2182 4.87619 15.2373 5.69524C15.2563 6.51429 14.6849 6.85714 13.3516 6.85714C11.9801 6.85714 11.4468 6.55238 11.4278 5.73333C11.4087 4.91429 11.9801 4.57143 13.3135 4.57143ZM7.21823 4.57143C8.58966 4.57143 9.12299 4.87619 9.12299 5.69524C9.12299 6.51429 8.58966 6.85714 7.23728 6.85714C5.86585 6.85714 5.33252 6.53333 5.31347 5.73333C5.29442 4.93333 5.8849 4.57143 7.21823 4.57143Z" fill="#B5B2E6"/>
<path d="M20.7813 27.5427C19.1623 29.1046 18.8766 31.7332 20.2099 33.4475C20.5908 33.0475 20.9718 32.6475 21.3146 32.2284C21.4099 32.1141 21.4289 31.9046 21.3718 31.7522C21.0289 30.6665 21.2385 29.6951 22.0385 28.9141C22.8385 28.1141 23.7908 27.9046 24.8766 28.2475C25.0099 28.2855 25.2385 28.2855 25.3527 28.1903C25.7718 27.8475 26.1527 27.4665 26.5337 27.0855C24.9527 25.7903 22.3432 26.0379 20.7813 27.5427Z" fill="#675ED5"/>
<path d="M46.3238 13.7144C38.8952 13.7144 31.4667 13.7144 24.0571 13.7144C16.6095 13.7144 9.14286 13.7144 1.69524 13.7144C0.304762 13.7144 0 14.0382 0 15.4096C0 24.5525 0 33.6953 0 42.8191C0 45.9048 2.11429 48.0001 5.21905 48.0001C17.7524 48.0001 30.2857 48.0001 42.819 48.0001C45.9048 48.0001 48 45.8858 48 42.8001C48 33.6572 48 24.5144 48 15.3905C48 14.0191 47.6952 13.7144 46.3238 13.7144ZM15.6381 37.8858C16.2286 37.3524 16.819 36.8191 17.4667 36.2477C16.0571 35.2382 14.9333 34.1334 14.0381 32.8382C13.6762 32.3048 13.3333 31.7524 13.0286 31.181C12.9524 31.0286 12.9333 30.7429 13.0286 30.5905C14.9905 26.9715 17.8476 24.4763 21.9619 23.6572C24.1905 23.2191 26.4 23.4858 28.4762 24.4191C28.8381 24.5905 29.0476 24.5334 29.3143 24.2477C29.8476 23.6763 30.4 23.1429 30.9333 22.6096C31.3524 23.0477 31.7714 23.4858 32.1143 23.8477C27.1048 28.8572 22 33.962 16.8571 39.0858C16.5143 38.762 16.1143 38.3429 15.6381 37.8858ZM34.9524 31.2001C32.9714 34.781 30.1524 37.2763 26.0571 38.0953C24.4 38.4382 22.7238 38.362 20.9524 37.8477C21.7714 37.0286 22.4952 36.3048 23.2381 35.6001C23.3333 35.5048 23.5619 35.4858 23.7143 35.5048C26.3429 35.8096 28.9143 33.2191 28.6095 30.5905C28.5905 30.4382 28.6286 30.2096 28.7238 30.1144C29.8095 29.0096 30.9143 27.9048 32.0381 26.781C33.2762 27.9429 34.2476 29.2382 34.9905 30.7239C35.0667 30.8382 35.0286 31.0667 34.9524 31.2001Z" fill="#675ED5"/>
</g>
<defs>
<clipPath id="clip0_2129_25984">
<rect width="48" height="48" fill="white"/>
</clipPath>
</defs>
</svg>
