<svg width="48" height="51" viewBox="0 0 48 51" fill="none" xmlns="http://www.w3.org/2000/svg">
<g clip-path="url(#clip0_2140_10474)">
<path d="M0.974327 14.4262C8.61835 14.3888 16.2624 14.4075 23.9064 14.4075C31.6441 14.4075 39.3818 14.4075 47.1195 14.4262C47.794 14.4262 48.0188 14.2951 48.0001 13.5644C47.9439 10.7166 48.0001 7.88759 47.9813 5.03981C47.9626 2.04215 45.9017 0 42.9041 0C30.2952 0 17.705 0 5.09611 0C2.09845 0 0.0375586 2.06089 0.0188232 5.03981C0.0188232 7.85012 0.0562939 10.6604 8.78469e-05 13.4707C-0.0186475 14.2576 0.206177 14.4262 0.974327 14.4262ZM40.8057 4.81499C42.1359 4.81499 43.1851 5.84543 43.2038 7.17564C43.2226 8.54332 42.1359 9.62998 40.787 9.62998C39.4568 9.62998 38.4076 8.5808 38.4076 7.26932C38.3888 5.8829 39.438 4.81499 40.8057 4.81499ZM31.1945 4.83372C32.5809 4.83372 33.6113 5.8829 33.5926 7.26932C33.5739 8.59953 32.5434 9.62998 31.2132 9.64871C29.8455 9.64871 28.7963 8.5808 28.7963 7.21311C28.8338 5.86417 29.8643 4.83372 31.1945 4.83372ZM21.602 4.83372C22.9322 4.83372 23.9814 5.86417 24.0001 7.19438C24.0188 8.54332 22.9322 9.64871 21.5832 9.62998C20.2717 9.62998 19.1851 8.5808 19.1664 7.26932C19.1476 5.92037 20.2343 4.83372 21.602 4.83372Z" fill="#675ED5"/>
<path d="M18.6605 23.4006C21.6019 26.3233 24.5246 29.2648 27.4661 32.1875C28.1031 32.8245 28.7401 33.4427 29.3584 34.0797C29.527 34.2671 29.7331 34.3982 29.9954 34.3795C30.3139 34.3795 30.5574 34.2296 30.7073 33.9299C30.8572 33.6114 30.801 33.3116 30.5574 33.0493C30.2389 32.7121 29.9204 32.3936 29.5832 32.0751C29.4333 31.9439 29.4146 31.869 29.5832 31.7191C30.6511 30.8198 31.4005 29.7144 31.8876 28.4029C31.9626 28.1968 31.9626 28.0282 31.8876 27.8221C30.3326 23.513 25.4052 21.4521 21.246 23.3819C21.0586 23.4755 20.9462 23.4568 20.815 23.3069C20.4216 22.8947 20.0282 22.5013 19.616 22.1079C19.3537 21.8643 18.979 21.8268 18.6792 21.9767C18.3794 22.1453 18.2296 22.5013 18.3045 22.8385C18.3607 23.1008 18.5106 23.2507 18.6605 23.4006ZM23.1944 25.3303C23.6253 25.143 24.075 25.0306 24.5434 25.0306C26.8291 25.0306 28.3279 27.4287 27.3537 29.4896C27.26 29.6957 27.2038 29.7331 27.0352 29.5645C26.7729 29.2648 26.4919 29.0025 26.1921 28.7214C26.0797 28.609 26.0422 28.4966 26.0609 28.3467C26.1921 27.335 25.349 26.4919 24.3373 26.6231C24.1874 26.6418 24.075 26.6231 23.9626 26.4919C23.7003 26.2109 23.4193 25.9111 23.1195 25.6488C22.9321 25.4802 22.9883 25.424 23.1944 25.3303Z" fill="#675ED5"/>
<path d="M48 20.3091C48 19.4286 47.8501 19.1288 46.9508 19.1475C39.3068 19.185 31.644 19.1663 24 19.1663C16.3185 19.1663 8.637 19.185 0.955503 19.1475C0.149883 19.1475 0 19.3724 0 20.1967C0.0374707 28.2717 0.0187354 36.3466 0.0187354 44.4028C0.0187354 47.8876 2.00468 50.0422 5.2459 50.0422C17.7424 50.0422 30.2201 50.0422 42.7166 50.0422C45.9766 50.0422 47.9625 47.9063 47.9625 44.4216C47.9813 36.3841 47.9625 28.3466 48 20.3091ZM8.20609 25.5176C8.20609 24.5246 9.01171 23.719 10.0047 23.719H17.6862C17.555 23.5504 17.4426 23.3443 17.3864 23.082C17.2178 22.3326 17.555 21.5831 18.2108 21.2084C18.4731 21.0586 18.7541 20.9836 19.0539 20.9836C19.5035 20.9836 19.9344 21.1522 20.2529 21.4707C20.5902 21.808 20.9087 22.1077 21.2084 22.4262C22.2576 21.9953 23.3817 21.7705 24.5246 21.7705C26.5667 21.7705 28.5152 22.5012 30.0328 23.7377H37.9766C38.9696 23.7377 39.7752 24.5433 39.7752 25.5363V30.8009C39.7752 31.7939 38.9696 32.5995 37.9766 32.5995H31.363C31.7564 33.1054 31.8126 33.7424 31.5504 34.3419C31.2693 34.9602 30.7073 35.3162 30.014 35.3349H29.9766C29.2834 35.3349 28.8337 34.904 28.7026 34.7541C28.459 34.4918 28.1967 34.2483 27.9344 33.986L26.6792 34.2857C25.9297 34.4731 25.1991 34.548 24.4871 34.548C23.6253 34.548 22.7822 34.4169 21.9578 34.1546C20.8337 33.7986 19.8407 33.274 18.9977 32.5808H10.0234C9.03045 32.5808 8.22482 31.7752 8.22482 30.7822V25.5176H8.20609ZM39.7939 43.3724C39.7939 44.3653 38.9883 45.171 37.9953 45.171H10.0234C9.03045 45.171 8.22482 44.3653 8.22482 43.3724V38.1077C8.22482 37.1148 9.03045 36.3091 10.0234 36.3091H37.9953C38.9883 36.3091 39.7939 37.1148 39.7939 38.1077V43.3724Z" fill="#B5B2E6"/>
<path d="M22.2388 33.2741C23.6065 33.7238 25.0116 33.7425 26.4542 33.3865C25.7423 32.6933 25.0678 32.0188 24.4121 31.3444C24.3371 31.2694 24.2435 31.2882 24.1685 31.2694C22.7259 31.0633 21.658 29.9954 21.4519 28.5528C21.4332 28.4029 21.377 28.3092 21.2833 28.2156C20.4402 27.3725 19.5784 26.5294 18.7353 25.6675C18.5854 25.5177 18.5104 25.5177 18.398 25.6863C17.8734 26.3608 17.48 27.0914 17.1802 27.8783C17.1053 28.0657 17.1053 28.2343 17.1802 28.4404C18.0983 30.8572 19.7657 32.4872 22.2388 33.2741Z" fill="#675ED5"/>
</g>
<defs>
<clipPath id="clip0_2140_10474">
<rect width="48" height="50.0609" fill="white"/>
</clipPath>
</defs>
</svg>
