<svg width="48" height="37" viewBox="0 0 48 37" fill="none" xmlns="http://www.w3.org/2000/svg">
<path d="M7.0445 31.3238C6.2014 31.3238 5.39578 31.3428 4.59016 31.3238C1.68618 31.2858 0 29.5574 0 26.6324C0 21.1814 0 15.7493 0 10.2983C0 7.48726 1.66745 5.73988 4.45902 5.6829C5.99532 5.64491 7.51288 5.6829 9.04918 5.6829C9.76112 5.6829 10.4356 5.72089 10.829 6.44263C11.2412 7.18336 10.8478 7.75316 10.4543 8.34195C9.70492 9.46255 9.76112 10.7541 10.5855 11.7607C11.3349 12.6914 12.6089 13.0333 13.7143 12.6154C14.8759 12.1786 15.6815 11.039 15.5316 9.82342C15.4567 9.19665 15.1382 8.56987 14.8009 8.01907C14.1827 6.93645 14.6136 5.75887 15.8126 5.72089C18.0047 5.66391 20.2342 5.70189 22.5199 5.70189C22.5386 6.10075 22.5574 6.44263 22.5574 6.76551C22.5574 9.19665 22.5386 11.6468 22.5574 14.0779C22.5761 15.5784 23.2131 16.0722 24.6557 15.7493C25.8173 15.4834 27.0351 15.9582 27.6909 16.9459C28.3279 17.8955 28.3091 19.1111 27.6721 20.0608C27.0164 21.0294 25.8361 21.5043 24.637 21.2384C23.2318 20.9345 22.5761 21.4663 22.5574 22.9478C22.5386 25.3599 22.5574 27.753 22.5574 30.1652C22.5574 30.5071 22.5574 30.8489 22.5574 31.2858C21.1335 31.2858 19.8033 31.2858 18.4169 31.2858C18.2295 33.2801 17.4988 34.8945 15.9063 36.0151C14.8384 36.7558 13.6581 37.0787 12.3653 36.9838C9.48009 36.7748 7.53161 34.7615 7.0445 31.3238Z" fill="#675ED5"/>
<path d="M25.4425 31.2497C25.4425 28.8945 25.4425 26.5964 25.4425 24.3172C29.1334 23.5384 31.0818 21.4492 31.0069 18.4103C30.932 15.3903 28.8898 13.2821 25.405 12.7313C25.405 11.5917 25.405 10.4331 25.405 9.27453C25.405 8.13493 25.405 6.99534 25.405 5.72279C26.8102 5.72279 28.1591 5.72279 29.5643 5.72279C29.7329 3.76649 30.4448 2.20904 31.9437 1.08844C32.9741 0.309719 34.1544 -0.0511522 35.4472 0.00582747C38.4074 0.13878 40.3933 2.15206 40.9554 5.6848C41.761 5.6848 42.5854 5.66581 43.4284 5.6848C46.3324 5.72279 47.9999 7.45118 47.9999 10.3761C47.9999 15.8462 47.9999 21.3162 47.9999 26.7863C47.9999 29.4263 46.3512 31.2687 43.7469 31.2877C37.7891 31.3447 31.8313 31.3067 25.8734 31.3067C25.7235 31.3257 25.6299 31.2877 25.4425 31.2497Z" fill="#B5B2E6"/>
</svg>
