<svg width="48" height="43" viewBox="0 0 48 43" fill="none" xmlns="http://www.w3.org/2000/svg">
<g clip-path="url(#clip0_2605_35096)">
<path d="M24.0241 0C29.1595 0 34.2948 0 39.4301 0C44.4359 0 47.9674 3.50131 47.9674 8.50319C47.9836 17.1677 47.9836 25.8323 47.9674 34.4807C47.9512 39.4826 44.4359 42.9839 39.414 42.9839C29.0947 42.9839 18.7916 43 8.47234 42.9839C3.5476 42.9839 -0.000157624 39.4503 -0.0163574 34.5291C-0.000157624 25.8484 -0.000157624 17.1516 0.0160422 8.45478C0.0160422 3.53358 3.58 0.0161351 8.50474 0C13.6725 0 18.8564 0 24.0241 0ZM23.8621 38.1917C29.0299 38.1917 34.2138 38.1917 39.3816 38.1917C41.9087 38.1917 43.1561 36.9493 43.1561 34.4161C43.1561 25.8 43.1561 17.1839 43.1561 8.56773C43.1561 6.09906 41.8925 4.84053 39.4626 4.82439C29.1595 4.82439 18.8402 4.82439 8.53714 4.82439C6.09097 4.82439 4.82738 6.08293 4.82738 8.55159C4.82738 17.2 4.82738 25.8645 4.82738 34.5129C4.82738 36.9493 6.10717 38.1917 8.58573 38.1917C13.6887 38.1917 18.7754 38.1917 23.8621 38.1917Z" fill="#675ED5"/>
<path d="M24.0892 33.416C22.1938 33.416 20.2985 33.4321 18.3869 33.416C16.6697 33.3998 15.6167 32.5124 15.6005 31.0764C15.5843 29.6403 16.6373 28.6884 18.3221 28.6884C22.1128 28.6722 25.9198 28.6722 29.7105 28.6884C31.3305 28.6884 32.3673 29.6242 32.3835 31.0118C32.3997 32.4317 31.3305 33.3998 29.662 33.416C27.799 33.416 25.9522 33.416 24.0892 33.416Z" fill="#B5B2E6"/>
<path d="M8.44019 21.5082C8.44019 19.1686 8.52118 19.0879 10.8702 19.0879C13.0733 19.0879 13.2515 19.2815 13.2515 21.605C13.2515 23.7832 13.0895 23.9123 10.53 23.8961C8.56978 23.9123 8.44019 23.7671 8.44019 21.5082Z" fill="#675ED5"/>
<path d="M17.2041 21.5081C17.2041 19.1685 17.2851 19.104 19.7961 19.104C21.8696 19.104 22.0478 19.2976 22.0478 21.6372C22.0478 23.7993 21.902 23.9284 19.3101 23.9284C17.3823 23.9123 17.2041 23.7025 17.2041 21.5081Z" fill="#675ED5"/>
<path d="M28.4793 19.0879C30.6987 19.0879 30.7959 19.2008 30.7959 21.7663C30.7959 23.7671 30.6339 23.9123 28.1715 23.9123C26.0817 23.9123 25.9521 23.7509 25.9521 21.2339C25.9521 19.2815 26.1789 19.0879 28.4793 19.0879Z" fill="#675ED5"/>
<path d="M39.5438 21.492C39.5438 23.8639 39.4952 23.9123 37.0004 23.9123C34.9268 23.9123 34.7324 23.7025 34.7324 21.3952C34.7324 19.217 34.8944 19.0879 37.454 19.0879C39.4142 19.0879 39.5438 19.2492 39.5438 21.492Z" fill="#675ED5"/>
<path d="M19.456 14.3282C18.7918 14.2152 17.755 14.667 17.3986 13.6989C16.9774 12.5695 17.0584 11.3432 17.3986 10.1653C17.5282 9.74582 17.9494 9.60061 18.3868 9.60061C18.8242 9.58447 19.2778 9.58447 19.7152 9.58447C21.9022 9.58447 22.0318 9.71355 22.0318 11.9079C22.0318 14.2636 21.967 14.3282 19.456 14.3282Z" fill="#675ED5"/>
<path d="M8.44019 12.0047C8.44019 9.58447 8.44019 9.58447 10.854 9.58447C13.1057 9.58447 13.2515 9.72969 13.2353 11.9725C13.2353 14.2152 13.1057 14.3282 10.692 14.3282C8.48879 14.3282 8.44019 14.2798 8.44019 12.0047Z" fill="#675ED5"/>
<path d="M28.4469 9.60059C30.7635 9.60059 30.7959 9.64899 30.7959 12.1177C30.7959 14.2959 30.7473 14.3443 28.2687 14.3443C26.0493 14.3443 25.9521 14.2475 25.9521 11.7627C25.9521 9.6974 26.0817 9.60059 28.4469 9.60059Z" fill="#675ED5"/>
<path d="M39.5438 12.0208C39.5438 14.3282 39.5276 14.3443 37.1462 14.3443C34.8296 14.3443 34.7324 14.2314 34.7324 11.8595C34.7324 9.71353 34.862 9.60059 37.373 9.60059C39.5114 9.60059 39.5438 9.63286 39.5438 12.0208Z" fill="#675ED5"/>
</g>
<defs>
<clipPath id="clip0_2605_35096">
<rect width="48" height="43" fill="white"/>
</clipPath>
</defs>
</svg>
