<svg width="48" height="45" viewBox="0 0 48 45" fill="none" xmlns="http://www.w3.org/2000/svg">
<g clip-path="url(#clip0_2129_25996)">
<path d="M0 41.5611C0 43.4599 1.55733 44.9999 3.47733 44.9999H44.5227C46.4427 44.9999 48 43.4599 48 41.5611V11.6455H0V41.5611ZM15.2533 39.7679C15.2533 39.9999 15.0613 40.1687 14.848 40.1687H4.288C4.05333 40.1687 3.88267 39.9788 3.88267 39.7679V38.3333C3.88267 38.1012 4.07467 37.9324 4.288 37.9324H14.848C15.0827 37.9324 15.2533 38.1223 15.2533 38.3333V39.7679ZM37.0133 28.1012V26.5822V21.4134V19.8945V19.8101C37.0133 19.5358 37.248 19.3037 37.5253 19.3037H37.6107H39.1467H42.9653H44.416H44.5867C44.864 19.3037 45.0987 19.5358 45.0987 19.8101V28.2067C45.0987 28.481 44.864 28.713 44.5867 28.713H42.9653H39.1467H37.6107H37.5253C37.248 28.713 37.0133 28.481 37.0133 28.2067V28.1012ZM37.952 30.7805V31.8776C37.952 32.1518 37.7173 32.3839 37.44 32.3839H31.7013C31.424 32.3839 31.1893 32.1518 31.1893 31.8776V30.7805C31.1893 30.5063 31.424 30.2742 31.7013 30.2742H37.44C37.7173 30.2742 37.952 30.5063 37.952 30.7805ZM35.0933 25.5063V26.6033C35.0933 26.8776 34.8587 27.1096 34.5813 27.1096H31.7013C31.424 27.1096 31.1893 26.8776 31.1893 26.6033V25.5063C31.1893 25.232 31.424 24.9999 31.7013 24.9999H34.56C34.8587 24.9788 35.0933 25.2109 35.0933 25.5063ZM26.8587 39.4514V38.0379V22.9113V21.3501V21.308C26.8587 21.0126 27.0933 20.7805 27.392 20.7805H27.4347H29.0133H34.4107C34.688 20.7805 34.9227 21.0126 34.9227 21.2869V22.3839C34.9227 22.6582 34.688 22.8902 34.4107 22.8902H29.0133V38.0168H39.552V31.6455C39.552 31.3712 39.7867 31.1392 40.064 31.1392H41.1733C41.4507 31.1392 41.6853 31.3712 41.6853 31.6455V38.059V39.5147V39.5569C41.6853 39.8945 41.408 40.1687 41.0667 40.1687H41.024H39.552H29.0133H27.584H27.392C27.1147 40.1687 26.88 39.9366 26.88 39.6624V39.4514H26.8587ZM11.0507 15.7594C15.0827 15.7383 18.3467 18.9873 18.3253 22.9324C18.3253 26.8776 15.0827 30.0843 11.072 30.0843C7.08267 30.0843 3.84 26.8776 3.84 22.9113C3.86133 18.9873 7.104 15.7805 11.0507 15.7594ZM3.69067 33.6919C3.69067 33.4599 3.88267 33.2911 4.096 33.2911H20.9493C21.184 33.2911 21.3547 33.481 21.3547 33.6919V35.1265C21.3547 35.3586 21.1627 35.5274 20.9493 35.5274H4.096C3.86133 35.5274 3.69067 35.3375 3.69067 35.1265V33.6919Z" fill="#675ED5"/>
<path d="M42.9654 21.3923H39.1467V26.5611H42.9654V21.3923Z" fill="#B5B2E6"/>
<path d="M11.0934 29.6625C14.8481 29.6625 17.8988 26.6667 17.9201 22.9326C17.9201 19.2406 14.8908 16.1604 11.0508 16.1815C7.36009 16.2026 4.28809 19.1773 4.28809 22.9115C4.28809 26.6456 7.31742 29.6625 11.0934 29.6625ZM9.17342 28.7132C9.85609 27.0887 10.5601 25.4853 11.2641 23.8186C11.9041 25.4642 12.5228 27.0676 13.1414 28.6499C12.0748 29.0929 10.4534 29.1562 9.17342 28.7132ZM16.9388 21.0338C17.8988 23.6077 16.7254 26.8355 14.1654 28.2068C15.1041 25.8018 16.0214 23.4178 16.9388 21.0338ZM9.64275 17.0043C12.0748 16.3925 14.4641 17.384 15.7868 18.9663C15.7014 18.9874 15.6374 19.0085 15.5734 19.0296C15.1894 19.1351 14.9974 19.4094 14.9761 19.8102C14.9548 20.1688 15.0828 20.5064 15.2108 20.844C15.4454 21.498 15.5308 22.152 15.4881 22.8482C15.4454 23.6077 15.2321 24.3461 14.9334 25.0634C14.8054 25.3587 14.6988 25.6541 14.5708 25.9494C14.5281 26.0549 14.4854 26.1393 14.4214 26.287C14.3361 26.0971 14.2721 25.9494 14.2294 25.7807C13.6961 24.4094 13.1628 23.0169 12.6294 21.6456C12.3948 21.0549 12.5654 20.8229 13.2054 20.7807C13.2694 20.7807 13.3548 20.7807 13.4401 20.7807C13.4401 20.6963 13.4401 20.633 13.4401 20.5486C12.0321 20.5486 10.6241 20.5486 9.19475 20.5486C9.19475 20.6119 9.19475 20.6963 9.19475 20.7807C9.25875 20.7807 9.32275 20.7807 9.38675 20.7807C9.77075 20.8018 10.0481 20.9916 10.2188 21.3292C10.4748 21.8988 10.7094 22.4684 10.9441 23.0591C10.9654 23.1435 10.9654 23.249 10.9441 23.3334C10.6241 24.0929 10.3041 24.8524 9.98409 25.633C9.85609 25.9072 9.74942 26.2026 9.62142 26.5191C9.49342 26.2237 9.38675 25.9494 9.28009 25.6963C8.81075 24.5359 8.34142 23.3967 7.87209 22.2364C7.76542 21.9832 7.68009 21.7089 7.59475 21.4347C7.48809 21.0971 7.63742 20.8861 7.97875 20.8229C8.08542 20.8018 8.19209 20.8018 8.32009 20.7807C8.32009 20.7174 8.32009 20.6541 8.32009 20.5486C7.38142 20.5486 6.42142 20.5486 5.41875 20.5486C6.29342 18.6921 7.68009 17.4895 9.64275 17.0043ZM5.18409 21.2448C5.35475 21.4136 8.00009 27.7849 8.08542 28.2279C5.76009 27.0465 4.30942 24.0296 5.18409 21.2448Z" fill="white"/>
<path d="M45.3547 0H2.64533C1.19467 0 0 1.18143 0 2.61603V8.77637H48V2.61603C48 1.18143 46.8053 0 45.3547 0ZM3.86133 5.56962C3.2 5.56962 2.66667 5.04219 2.66667 4.38819C2.66667 3.73418 3.2 3.20675 3.86133 3.20675C4.52267 3.20675 5.056 3.73418 5.056 4.38819C5.056 5.04219 4.52267 5.56962 3.86133 5.56962ZM7.78667 5.56962C7.12533 5.56962 6.592 5.04219 6.592 4.38819C6.592 3.73418 7.12533 3.20675 7.78667 3.20675C8.448 3.20675 8.98133 3.73418 8.98133 4.38819C8.98133 5.04219 8.448 5.56962 7.78667 5.56962ZM11.6907 5.56962C11.0293 5.56962 10.496 5.04219 10.496 4.38819C10.496 3.73418 11.0293 3.20675 11.6907 3.20675C12.352 3.20675 12.8853 3.73418 12.8853 4.38819C12.8853 5.04219 12.352 5.56962 11.6907 5.56962Z" fill="#B5B2E6"/>
<path d="M3.86141 5.56966C4.52121 5.56966 5.05608 5.04071 5.05608 4.38822C5.05608 3.73573 4.52121 3.20679 3.86141 3.20679C3.20162 3.20679 2.66675 3.73573 2.66675 4.38822C2.66675 5.04071 3.20162 5.56966 3.86141 5.56966Z" fill="white"/>
<path d="M7.78671 5.56966C8.4465 5.56966 8.98137 5.04071 8.98137 4.38822C8.98137 3.73573 8.4465 3.20679 7.78671 3.20679C7.12691 3.20679 6.59204 3.73573 6.59204 4.38822C6.59204 5.04071 7.12691 5.56966 7.78671 5.56966Z" fill="white"/>
<path d="M11.6908 5.56966C12.3506 5.56966 12.8854 5.04071 12.8854 4.38822C12.8854 3.73573 12.3506 3.20679 11.6908 3.20679C11.031 3.20679 10.4961 3.73573 10.4961 4.38822C10.4961 5.04071 11.031 5.56966 11.6908 5.56966Z" fill="white"/>
<path d="M11.0933 30.0844C15.104 30.0844 18.3253 26.8988 18.3467 22.9325C18.368 19.0085 15.104 15.7595 11.072 15.7595C7.104 15.7806 3.86133 18.9874 3.86133 22.9114C3.86133 26.8777 7.10399 30.0844 11.0933 30.0844ZM11.0507 16.1815C14.8907 16.1604 17.92 19.2405 17.92 22.9325C17.92 26.6667 14.848 29.6625 11.0933 29.6625C7.31733 29.6625 4.28799 26.6456 4.28799 22.9114C4.28799 19.1772 7.35999 16.2026 11.0507 16.1815Z" fill="white"/>
<path d="M8.29855 20.7594C8.17055 20.7805 8.06388 20.7805 7.95722 20.8016C7.61588 20.8649 7.48788 21.0759 7.57322 21.4134C7.65855 21.6877 7.74388 21.9409 7.85055 22.2151C8.31988 23.3755 8.78922 24.5147 9.25855 25.675C9.36522 25.9282 9.47188 26.2025 9.59988 26.4978C9.72788 26.1814 9.85588 25.886 9.96255 25.6118C10.2826 24.8523 10.6026 24.0928 10.9226 23.3122C10.9439 23.2278 10.9439 23.1223 10.9226 23.0379C10.6879 22.4683 10.4532 21.8776 10.1972 21.308C10.0479 20.9704 9.74922 20.7805 9.36522 20.7594C9.30122 20.7594 9.23722 20.7594 9.17322 20.7594C9.17322 20.675 9.17322 20.6118 9.17322 20.5274C10.5812 20.5274 11.9892 20.5274 13.4186 20.5274C13.4186 20.6118 13.4186 20.675 13.4186 20.7594C13.3332 20.7594 13.2692 20.7594 13.1839 20.7594C12.5439 20.7805 12.3732 21.0337 12.6079 21.6244C13.1412 22.9957 13.6746 24.3881 14.2079 25.7594C14.2719 25.9071 14.3359 26.0759 14.3999 26.2658C14.4639 26.1181 14.5065 26.0337 14.5492 25.9282C14.6772 25.6328 14.7839 25.3375 14.9119 25.0421C15.1892 24.3248 15.4239 23.6075 15.4665 22.8269C15.5092 22.1518 15.4239 21.4767 15.1892 20.8227C15.0612 20.4852 14.9545 20.1476 14.9545 19.789C14.9759 19.3881 15.1679 19.135 15.5519 19.0084C15.6159 18.9873 15.7012 18.9662 15.7652 18.9451C14.4426 17.3417 12.0532 16.3712 9.62122 16.9831C7.65855 17.4683 6.27188 18.6708 5.39722 20.5274C6.39988 20.5274 7.33855 20.5274 8.29855 20.5274C8.29855 20.6328 8.29855 20.6961 8.29855 20.7594Z" fill="#675ED5"/>
<path d="M9.17334 28.713C10.4533 29.1772 12.0747 29.0928 13.1413 28.6708C12.5227 27.0674 11.904 25.4641 11.264 23.8396C10.56 25.4852 9.85601 27.0885 9.17334 28.713Z" fill="#675ED5"/>
<path d="M16.9386 21.0337C16.0213 23.4388 15.1039 25.8016 14.1653 28.2067C16.7253 26.8354 17.8986 23.6075 16.9386 21.0337Z" fill="#675ED5"/>
<path d="M8.08522 28.2278C7.97855 27.7847 5.33321 21.4134 5.18388 21.2446C4.30921 24.0294 5.75988 27.0463 8.08522 28.2278Z" fill="#675ED5"/>
<path d="M4.09601 35.5485H20.9493C21.184 35.5485 21.3547 35.3587 21.3547 35.1477V33.7131C21.3547 33.481 21.1627 33.3123 20.9493 33.3123H4.09601C3.86134 33.3123 3.69067 33.5021 3.69067 33.7131V35.1477C3.69067 35.3587 3.86134 35.5485 4.09601 35.5485Z" fill="#B5B2E6"/>
<path d="M14.8266 37.9114H4.2879C4.05323 37.9114 3.88257 38.1013 3.88257 38.3122V39.7468C3.88257 39.9789 4.07457 40.1477 4.2879 40.1477H14.8479C15.0826 40.1477 15.2532 39.9578 15.2532 39.7468V38.3122C15.2532 38.1013 15.0612 37.9114 14.8266 37.9114Z" fill="#B5B2E6"/>
<path d="M41.6853 31.6455C41.6853 31.3712 41.4507 31.1392 41.1733 31.1392H40.064C39.7867 31.1392 39.552 31.3712 39.552 31.6455V38.059H41.7067V31.6455H41.6853Z" fill="#B5B2E6"/>
<path d="M29.0133 22.9324H26.8586V38.059H29.0133V22.9324Z" fill="#B5B2E6"/>
<path d="M27.4346 20.8018H27.392C27.0933 20.8018 26.8586 21.0338 26.8586 21.3292V21.3714C26.8586 21.0549 27.1146 20.8018 27.4346 20.8018Z" fill="white"/>
<path d="M27.392 40.1687H27.584C27.1786 40.1687 26.8586 39.8523 26.8586 39.4514V39.6413C26.8586 39.9366 27.0933 40.1687 27.392 40.1687Z" fill="white"/>
<path d="M41.0239 40.1687H41.0666C41.4079 40.1687 41.6853 39.8944 41.6853 39.5568V39.5146C41.6853 39.8733 41.3866 40.1687 41.0239 40.1687Z" fill="white"/>
<path d="M39.5521 38.0591H29.0134V40.1899H39.5521V38.0591Z" fill="#B5B2E6"/>
<path d="M41.0241 40.1688C41.3868 40.1688 41.6854 39.8734 41.6854 39.5148V38.0591H39.5308V40.1899H41.0241V40.1688Z" fill="#B5B2E6"/>
<path d="M27.584 40.1689H29.0133V38.0381H26.8586V39.4516C26.8586 39.8524 27.1786 40.1689 27.584 40.1689Z" fill="#B5B2E6"/>
<path d="M34.4108 22.9326C34.6881 22.9326 34.9228 22.7005 34.9228 22.4262V21.3081C34.9228 21.0338 34.6881 20.8018 34.4108 20.8018H29.0134V22.9326H34.4108Z" fill="#B5B2E6"/>
<path d="M29.0133 20.8018H27.4346C27.1146 20.8018 26.8586 21.0549 26.8586 21.3714V22.9326H29.0133V20.8018Z" fill="#B5B2E6"/>
<path d="M31.7015 24.979C31.4241 24.979 31.1895 25.2111 31.1895 25.4853V26.5824C31.1895 26.8566 31.4241 27.0887 31.7015 27.0887H34.5601C34.8375 27.0887 35.0721 26.8566 35.0721 26.5824V25.4853C35.0721 25.2111 34.8375 24.979 34.5601 24.979H31.7015Z" fill="#B5B2E6"/>
<path d="M31.7015 30.2742C31.4241 30.2742 31.1895 30.5062 31.1895 30.7805V31.8775C31.1895 32.1518 31.4241 32.3839 31.7015 32.3839H37.4401C37.7175 32.3839 37.9521 32.1518 37.9521 31.8775V30.7805C37.9521 30.5062 37.7175 30.2742 37.4401 30.2742H31.7015Z" fill="#B5B2E6"/>
<path d="M42.9654 26.5823H39.1467V28.7131H42.9654V26.5823Z" fill="white"/>
<path d="M42.9654 19.2827H39.1467V21.4135H42.9654V19.2827Z" fill="white"/>
<path d="M39.1681 21.3923H37.0134V26.5611H39.1681V21.3923Z" fill="white"/>
<path d="M37.5254 28.692H37.6108C37.2694 28.692 37.0134 28.4178 37.0134 28.1013V28.1857C37.0134 28.46 37.2481 28.692 37.5254 28.692Z" fill="white"/>
<path d="M37.6108 19.2827H37.5254C37.2481 19.2827 37.0134 19.5148 37.0134 19.789V19.8734C37.0134 19.5359 37.2694 19.2827 37.6108 19.2827Z" fill="white"/>
<path d="M37.6106 28.692H39.1466V26.5823H36.9919V28.1013C37.0133 28.4177 37.2693 28.692 37.6106 28.692Z" fill="white"/>
<path d="M39.1468 19.2827H37.6108C37.2694 19.2827 37.0134 19.557 37.0134 19.8734V21.3924H39.1681V19.2827H39.1468Z" fill="white"/>
<path d="M45.0987 19.9578V21.4135H42.9653V26.5823H45.0987V28.1857C45.0987 28.4599 44.864 28.692 44.5867 28.692H44.608C44.8853 28.692 45.12 28.4599 45.12 28.1857V19.789C45.12 19.5148 44.8853 19.2827 44.608 19.2827H44.4373C44.8 19.2827 45.0987 19.5781 45.0987 19.9578Z" fill="white"/>
<path d="M45.0987 28.1857V26.5823H42.9653V28.692H44.5867C44.864 28.692 45.0987 28.4599 45.0987 28.1857Z" fill="white"/>
<path d="M45.0987 21.3925V19.9368C45.0987 19.5571 44.8 19.2617 44.416 19.2617H42.9653V21.3925H45.0987Z" fill="white"/>
</g>
<defs>
<clipPath id="clip0_2129_25996">
<rect width="48" height="45" fill="white"/>
</clipPath>
</defs>
</svg>
