<svg width="48" height="44" viewBox="0 0 48 44" fill="none" xmlns="http://www.w3.org/2000/svg">
<g clip-path="url(#clip0_2129_26064)">
<path d="M0.0255801 19.6849C0.0255801 14.2787 0.0255801 8.84661 -1.98781e-05 3.44038C-1.98781e-05 2.89717 0.15358 2.7937 0.63998 2.7937C3.96798 2.81957 7.27038 2.81957 10.5984 2.7937C11.0336 2.7937 11.1616 2.89717 11.1616 3.33691C11.136 4.86307 11.136 6.36337 11.1616 7.88953C11.1616 8.35514 11.008 8.43274 10.5984 8.43274C9.08798 8.40687 7.55198 8.43274 6.04158 8.40687C5.65758 8.40687 5.55518 8.51034 5.55518 8.89835C5.55518 16.0894 5.55518 23.2805 5.55518 30.4715C5.55518 30.8854 5.68318 30.9371 6.04158 30.9371C7.55198 30.9113 9.08798 30.9371 10.5984 30.9113C10.9824 30.9113 11.1616 30.963 11.1616 31.4286C11.136 32.9806 11.136 34.5585 11.1616 36.1106C11.1616 36.4727 11.0848 36.5762 10.7008 36.5762C7.27038 36.5503 3.86558 36.5503 0.43518 36.5762C-0.10242 36.5762 -1.98781e-05 36.2658 -1.98781e-05 35.9812C0.0255801 30.575 0.0255801 25.117 0.0255801 19.6849Z" fill="#675ED5"/>
<path d="M44.5188 3.36253C44.5188 3.02626 44.5444 2.79346 44.058 2.79346C40.6532 2.81932 37.2484 2.81932 33.8692 2.79346C33.4852 2.79346 33.3828 2.89693 33.3828 3.28493C33.4084 4.81109 33.4084 6.36312 33.3828 7.88928C33.3828 8.30316 33.4852 8.43249 33.8948 8.43249C35.4052 8.40663 36.9412 8.43249 38.4516 8.40663C38.8356 8.40663 38.9892 8.48423 38.9892 8.8981C38.9892 10.6053 38.9892 12.2867 38.9892 13.9939C40.986 14.4595 42.8548 15.2614 44.5188 16.3737C44.5188 12.0539 44.5188 7.70821 44.5188 3.36253Z" fill="#675ED5"/>
<path d="M26.1112 16.167C26.4952 14.7184 26.8792 13.244 27.2376 11.7954C28.2616 7.88948 29.2856 3.98354 30.3352 0C28.4152 0 26.5464 0 24.6776 0C24.396 0 24.4216 0.232804 24.3704 0.388007C24.2168 0.982951 24.0888 1.5779 23.9352 2.14697C22.7832 6.54439 21.6056 10.9418 20.4792 15.3133C19.404 19.4004 18.3544 23.4874 17.2792 27.6002C16.2552 31.5062 15.2312 35.4121 14.1816 39.3957C16.1016 39.3957 17.9704 39.3957 19.8392 39.3957C19.9416 39.3957 19.9928 39.3698 20.0184 39.3439C18.6616 36.8607 17.8936 34.0153 17.8936 30.9888C17.9192 24.729 21.196 19.2451 26.1112 16.167Z" fill="#B5B2E6"/>
<path d="M35.1227 17.9775C28.0315 17.9775 22.2715 23.7976 22.2715 30.9887C22.2715 38.1798 28.0315 43.9999 35.1483 43.9999C42.2651 43.9999 48.0251 38.1798 48.0251 30.9887C47.9995 23.7976 42.2395 17.9775 35.1227 17.9775ZM43.6731 30.9887C43.6731 33.5496 41.6251 35.6448 39.0651 35.6448H31.1803C28.6459 35.6448 26.5723 33.5754 26.5723 30.9887C26.5723 28.4279 28.6203 26.3326 31.1803 26.3326H39.0651C41.6251 26.3326 43.6731 28.4279 43.6731 30.9887Z" fill="#675ED5"/>
<path d="M38.8604 34.7398C40.9105 34.7398 42.5724 33.0605 42.5724 30.989C42.5724 28.9175 40.9105 27.2383 38.8604 27.2383C36.8104 27.2383 35.1484 28.9175 35.1484 30.989C35.1484 33.0605 36.8104 34.7398 38.8604 34.7398Z" fill="#B5B2E6"/>
</g>
<defs>
<clipPath id="clip0_2129_26064">
<rect width="48" height="44" fill="white"/>
</clipPath>
</defs>
</svg>
