<svg width="40" height="48" viewBox="0 0 40 48" fill="none" xmlns="http://www.w3.org/2000/svg">
<path d="M12.3635 0C18.9471 0 25.5308 0 32.1144 0C33.5562 0.451169 34.3345 1.36604 34.3281 2.90753C34.3153 15.1518 34.3217 27.396 34.3217 39.6465C34.3217 39.941 34.309 40.2418 34.2388 40.5238C33.9071 41.8209 32.8863 42.554 31.4127 42.554C21.9646 42.554 12.523 42.554 3.07492 42.554C1.06538 42.554 0 41.5013 0 39.5149C0 30.5667 0 21.6123 0 12.6641C0 12.5011 0 12.3382 0 12.144C0.293457 12.144 0.51674 12.144 0.733643 12.144C3.22803 12.1502 5.72879 12.1565 8.22318 12.1502C8.63147 12.1502 9.05251 12.1252 9.44804 12.0249C11.2662 11.5549 12.3507 10.1638 12.3635 8.29023C12.3762 5.52682 12.3635 2.76341 12.3635 0ZM17.7414 24.6514C14.9918 24.6514 12.2423 24.6514 9.4927 24.6514C9.06527 24.6514 8.63147 24.6326 8.20404 24.6576C7.66178 24.689 7.29177 24.996 7.08763 25.4785C6.88986 25.9422 7.01745 26.3746 7.34281 26.738C7.67454 27.1015 8.12111 27.1704 8.59957 27.1704C14.6665 27.1641 20.7398 27.1641 26.8067 27.1641C26.9981 27.1641 27.1894 27.1579 27.3744 27.1203C28.0188 26.9949 28.4398 26.4373 28.3952 25.7981C28.3505 25.1401 27.7827 24.6514 27.0236 24.6514C23.9359 24.6451 20.8418 24.6514 17.7414 24.6514ZM17.6712 20.3527C19.5659 20.3527 21.4543 20.3527 23.349 20.3527C24.6185 20.3527 25.8944 20.3527 27.1639 20.3465C27.7189 20.3465 28.0953 20.052 28.3122 19.5757C28.5228 19.1246 28.4334 18.6922 28.1081 18.3099C27.77 17.9089 27.3106 17.8462 26.8194 17.8525C20.7461 17.8588 14.6665 17.8525 8.59319 17.8588C8.42094 17.8588 8.24232 17.865 8.07007 17.8901C7.47678 17.9778 7.01745 18.5042 7.00469 19.0932C6.99831 19.8264 7.57247 20.3527 8.40818 20.359C11.5022 20.359 14.5835 20.3527 17.6712 20.3527ZM12.9823 31.0367C11.4703 31.0367 9.96478 31.0304 8.45284 31.0367C7.61075 31.0367 7.02383 31.5505 7.01107 32.2711C6.99831 33.0168 7.59161 33.5432 8.45922 33.5494C9.93927 33.5557 11.4193 33.5494 12.893 33.5494C14.4687 33.5494 16.0381 33.5557 17.6138 33.5494C18.5006 33.5432 19.0747 32.9103 18.9599 32.1082C18.8706 31.4878 18.3283 31.0429 17.6074 31.0429C16.07 31.0304 14.5261 31.0367 12.9823 31.0367Z" fill="#675ED5"/>
<path d="M7.78135 47.9935C7.60272 47.9121 7.41772 47.8369 7.23909 47.7491C6.28216 47.2792 5.73353 46.5272 5.67611 45.4682C5.65059 45.0171 5.66973 44.5659 5.66973 44.0646C5.85474 44.0646 6.02698 44.0646 6.19285 44.0646C14.5883 44.0646 22.9837 44.0646 31.3791 44.0646C33.21 44.0646 34.588 43.3126 35.4365 41.7022C35.7937 41.0192 35.8575 40.2735 35.8575 39.5216C35.8512 28.3677 35.8575 17.22 35.8575 6.06612C35.8575 5.87814 35.8575 5.69642 35.8575 5.47083C37.1653 5.40817 38.4604 5.28911 39.3982 6.45463C39.883 7.04992 39.9915 7.74548 39.9915 8.47236C39.9915 15.2838 39.9915 22.0889 39.9915 28.9003C39.9915 34.2705 39.9851 39.6469 39.9978 45.0171C39.9978 46.2264 39.5768 47.1789 38.4349 47.7366C38.2116 47.8431 37.9755 47.9121 37.7459 47.9998C27.7556 47.9935 17.7716 47.9935 7.78135 47.9935Z" fill="#B5B2E6"/>
<path d="M9.6877 0C9.82805 0.0438637 9.97478 0.0751948 10.1087 0.125325C10.5426 0.281981 10.8296 0.714351 10.8296 1.23445C10.836 3.60935 10.8424 5.98426 10.8296 8.35916C10.8233 9.7064 9.87909 10.6338 8.46922 10.6526C6.08328 10.6777 3.69735 10.6651 1.31142 10.6589C0.781917 10.6589 0.348111 10.4709 0.131207 9.95705C-0.0856956 9.43695 0.0929306 9.01712 0.475701 8.64741C3.2444 5.92786 6.00673 3.20831 8.78181 0.501299C9.0051 0.288247 9.32407 0.169188 9.59839 0.00626624C9.62391 0 9.6558 0 9.6877 0Z" fill="#675ED5"/>
</svg>
