<svg xmlns="http://www.w3.org/2000/svg" viewBox="0 0 500 500" xmlns:v="https://vecta.io/nano"><path d="M0-.008h500v500H0z" fill-rule="evenodd" fill="#42a5de"/><path d="M286.066 420.316c135.398-28.736 186.294-195.304 89.251-292.591-97.409-97.652-262.638-51.627-294.174 81.945-7.184 30.197-3.166 80.727 8.158 105.688l9.254 20.334-19.482 40.303c-10.715 22.16-18.264 40.79-16.803 41.155 1.461.487 22.039-4.627 45.66-11.202l43.103-12.054 14.368 8.158c37.137 21.186 78.049 27.396 120.665 18.264z" fill="#fff"/><path d="M188.297 353.467l4.485-4.485v-86.339-86.339l-4.485-4.485-4.485-4.485h75.126 75.126l4.485-4.485 4.485-4.485v24.668 24.668l-4.485-4.485-4.485-4.485h-53.822-53.822l1.121 22.426 1.121 22.426h33.638 33.638l8.97-10.092v24.668 24.668l-4.485-4.485-4.485-4.485h-32.517-37.002v37.002 37.002l4.485 4.485 4.485 4.485H208.48h-26.911l6.728-3.364z" fill="#464545"/></svg>