<svg width="600" height="322" viewBox="0 0 600 322" fill="none" xmlns="http://www.w3.org/2000/svg">
<g clip-path="url(#clip0_5053_1102)">
<rect width="600" height="322" fill="white"/>
<g clip-path="url(#clip1_5053_1102)">
<rect width="600" height="153" fill="white"/>
<rect x="0.5" y="0.5" width="599" height="152" rx="8.5" fill="white" stroke="#CFCFCF"/>
<path d="M5.99219 147V6H195.676V147H5.99219Z" fill="#EDEDED"/>
<path d="M75.8756 47L12.9805 141H188.688L142.265 78L120.302 103L75.8756 47Z" fill="white"/>
<ellipse cx="156.241" cy="38.5" rx="19.4676" ry="19.5" fill="white"/>
<path d="M213.76 33.1685L211.642 39H210.776L213.215 32.6016H213.773L213.76 33.1685ZM215.535 39L213.413 33.1685L213.399 32.6016H213.958L216.405 39H215.535ZM215.425 36.6313V37.3257H211.831V36.6313H215.425ZM219.543 36.0073H217.921L217.913 35.3262H219.385C219.628 35.3262 219.84 35.2852 220.022 35.2031C220.204 35.1211 220.344 35.0039 220.444 34.8516C220.546 34.6963 220.598 34.5117 220.598 34.2979C220.598 34.0635 220.552 33.873 220.461 33.7266C220.374 33.5771 220.237 33.4688 220.053 33.4014C219.871 33.3311 219.64 33.2959 219.358 33.2959H218.11V39H217.262V32.6016H219.358C219.687 32.6016 219.979 32.6353 220.237 32.7026C220.495 32.7671 220.713 32.8696 220.892 33.0103C221.074 33.1479 221.211 33.3237 221.305 33.5376C221.399 33.7515 221.446 34.0078 221.446 34.3066C221.446 34.5703 221.378 34.8091 221.244 35.0229C221.109 35.2339 220.921 35.4067 220.681 35.5415C220.444 35.6763 220.166 35.7627 219.846 35.8008L219.543 36.0073ZM219.503 39H217.587L218.066 38.3101H219.503C219.773 38.3101 220.001 38.2632 220.189 38.1694C220.379 38.0757 220.524 37.9438 220.624 37.7739C220.724 37.6011 220.773 37.3975 220.773 37.1631C220.773 36.9258 220.731 36.7207 220.646 36.5479C220.561 36.375 220.428 36.2417 220.246 36.1479C220.064 36.0542 219.83 36.0073 219.543 36.0073H218.334L218.343 35.3262H219.996L220.176 35.5723C220.483 35.5986 220.744 35.6865 220.958 35.8359C221.172 35.9824 221.334 36.1699 221.446 36.3984C221.56 36.627 221.617 36.8789 221.617 37.1543C221.617 37.5527 221.529 37.8896 221.354 38.165C221.181 38.4375 220.936 38.6455 220.62 38.7891C220.303 38.9297 219.931 39 219.503 39ZM227.796 35.5986V36.0029C227.796 36.4834 227.736 36.9141 227.616 37.2949C227.496 37.6758 227.323 37.9995 227.097 38.2661C226.872 38.5327 226.601 38.7363 226.284 38.877C225.971 39.0176 225.619 39.0879 225.229 39.0879C224.852 39.0879 224.504 39.0176 224.188 38.877C223.875 38.7363 223.602 38.5327 223.371 38.2661C223.142 37.9995 222.965 37.6758 222.839 37.2949C222.713 36.9141 222.65 36.4834 222.65 36.0029V35.5986C222.65 35.1182 222.711 34.689 222.834 34.311C222.96 33.9302 223.138 33.6064 223.366 33.3398C223.595 33.0703 223.866 32.8652 224.179 32.7246C224.496 32.584 224.843 32.5137 225.221 32.5137C225.61 32.5137 225.962 32.584 226.275 32.7246C226.592 32.8652 226.863 33.0703 227.088 33.3398C227.317 33.6064 227.491 33.9302 227.611 34.311C227.734 34.689 227.796 35.1182 227.796 35.5986ZM226.957 36.0029V35.5898C226.957 35.209 226.917 34.8721 226.838 34.5791C226.762 34.2861 226.649 34.04 226.5 33.8408C226.35 33.6416 226.167 33.4907 225.95 33.3882C225.736 33.2856 225.493 33.2344 225.221 33.2344C224.957 33.2344 224.718 33.2856 224.504 33.3882C224.293 33.4907 224.112 33.6416 223.959 33.8408C223.81 34.04 223.694 34.2861 223.612 34.5791C223.53 34.8721 223.489 35.209 223.489 35.5898V36.0029C223.489 36.3867 223.53 36.7266 223.612 37.0225C223.694 37.3154 223.812 37.563 223.964 37.7651C224.119 37.9644 224.302 38.1152 224.513 38.2178C224.727 38.3203 224.966 38.3716 225.229 38.3716C225.505 38.3716 225.75 38.3203 225.963 38.2178C226.177 38.1152 226.357 37.9644 226.504 37.7651C226.653 37.563 226.766 37.3154 226.842 37.0225C226.918 36.7266 226.957 36.3867 226.957 36.0029ZM232.727 32.6016H233.57V36.9302C233.57 37.4106 233.463 37.8105 233.25 38.1299C233.036 38.4492 232.751 38.6895 232.397 38.8506C232.045 39.0088 231.663 39.0879 231.25 39.0879C230.816 39.0879 230.424 39.0088 230.072 38.8506C229.724 38.6895 229.447 38.4492 229.242 38.1299C229.04 37.8105 228.938 37.4106 228.938 36.9302V32.6016H229.778V36.9302C229.778 37.2642 229.839 37.5396 229.962 37.7563C230.085 37.9731 230.257 38.1343 230.477 38.2397C230.699 38.3452 230.957 38.3979 231.25 38.3979C231.546 38.3979 231.804 38.3452 232.023 38.2397C232.246 38.1343 232.419 37.9731 232.542 37.7563C232.665 37.5396 232.727 37.2642 232.727 36.9302V32.6016ZM237.266 32.6016V39H236.431V32.6016H237.266ZM239.323 32.6016V33.2959H234.379V32.6016H239.323Z" fill="#CDCDCD"/>
<path d="M215.197 122.291V123.267C215.197 123.791 215.15 124.233 215.056 124.594C214.962 124.954 214.828 125.244 214.652 125.464C214.476 125.684 214.264 125.843 214.015 125.943C213.769 126.04 213.49 126.088 213.18 126.088C212.934 126.088 212.707 126.057 212.499 125.996C212.291 125.934 212.103 125.836 211.936 125.701C211.772 125.563 211.631 125.385 211.514 125.165C211.397 124.945 211.308 124.679 211.246 124.365C211.185 124.052 211.154 123.686 211.154 123.267V122.291C211.154 121.767 211.201 121.327 211.294 120.973C211.391 120.618 211.527 120.334 211.703 120.12C211.879 119.903 212.09 119.748 212.336 119.654C212.585 119.561 212.863 119.514 213.171 119.514C213.42 119.514 213.648 119.544 213.856 119.606C214.067 119.665 214.255 119.76 214.419 119.892C214.583 120.021 214.722 120.193 214.836 120.41C214.954 120.624 215.043 120.886 215.104 121.197C215.166 121.507 215.197 121.872 215.197 122.291ZM214.379 123.398V122.155C214.379 121.868 214.362 121.616 214.327 121.399C214.294 121.179 214.246 120.992 214.182 120.836C214.117 120.681 214.035 120.555 213.936 120.458C213.839 120.362 213.726 120.292 213.597 120.248C213.471 120.201 213.329 120.177 213.171 120.177C212.978 120.177 212.806 120.214 212.657 120.287C212.507 120.357 212.381 120.47 212.279 120.625C212.179 120.781 212.103 120.984 212.05 121.236C211.998 121.488 211.971 121.794 211.971 122.155V123.398C211.971 123.686 211.987 123.939 212.02 124.159C212.055 124.378 212.106 124.569 212.173 124.73C212.241 124.888 212.323 125.019 212.419 125.121C212.516 125.224 212.627 125.3 212.753 125.35C212.882 125.396 213.024 125.42 213.18 125.42C213.379 125.42 213.553 125.382 213.703 125.306C213.852 125.229 213.977 125.111 214.076 124.95C214.179 124.786 214.255 124.576 214.305 124.321C214.354 124.063 214.379 123.756 214.379 123.398ZM218.915 119.566V126H218.102V120.582L216.462 121.179V120.445L218.787 119.566H218.915ZM224.223 119.602L221.556 126.549H220.857L223.529 119.602H224.223ZM229.04 122.291V123.267C229.04 123.791 228.993 124.233 228.899 124.594C228.805 124.954 228.67 125.244 228.495 125.464C228.319 125.684 228.106 125.843 227.857 125.943C227.611 126.04 227.333 126.088 227.022 126.088C226.776 126.088 226.549 126.057 226.341 125.996C226.133 125.934 225.946 125.836 225.779 125.701C225.615 125.563 225.474 125.385 225.357 125.165C225.24 124.945 225.15 124.679 225.089 124.365C225.027 124.052 224.997 123.686 224.997 123.267V122.291C224.997 121.767 225.043 121.327 225.137 120.973C225.234 120.618 225.37 120.334 225.546 120.12C225.722 119.903 225.933 119.748 226.179 119.654C226.428 119.561 226.706 119.514 227.014 119.514C227.263 119.514 227.491 119.544 227.699 119.606C227.91 119.665 228.098 119.76 228.262 119.892C228.426 120.021 228.565 120.193 228.679 120.41C228.796 120.624 228.886 120.886 228.947 121.197C229.009 121.507 229.04 121.872 229.04 122.291ZM228.222 123.398V122.155C228.222 121.868 228.205 121.616 228.169 121.399C228.137 121.179 228.089 120.992 228.024 120.836C227.96 120.681 227.878 120.555 227.778 120.458C227.682 120.362 227.569 120.292 227.44 120.248C227.314 120.201 227.172 120.177 227.014 120.177C226.82 120.177 226.649 120.214 226.5 120.287C226.35 120.357 226.224 120.47 226.122 120.625C226.022 120.781 225.946 120.984 225.893 121.236C225.84 121.488 225.814 121.794 225.814 122.155V123.398C225.814 123.686 225.83 123.939 225.862 124.159C225.897 124.378 225.949 124.569 226.016 124.73C226.083 124.888 226.166 125.019 226.262 125.121C226.359 125.224 226.47 125.3 226.596 125.35C226.725 125.396 226.867 125.42 227.022 125.42C227.222 125.42 227.396 125.382 227.545 125.306C227.695 125.229 227.819 125.111 227.919 124.95C228.021 124.786 228.098 124.576 228.147 124.321C228.197 124.063 228.222 123.756 228.222 123.398ZM232.757 119.566V126H231.944V120.582L230.305 121.179V120.445L232.63 119.566H232.757ZM238.066 119.602L235.398 126.549H234.7L237.372 119.602H238.066ZM243.058 125.332V126H238.87V125.416L240.966 123.082C241.224 122.795 241.423 122.552 241.564 122.353C241.708 122.15 241.807 121.97 241.863 121.812C241.921 121.651 241.951 121.487 241.951 121.32C241.951 121.109 241.907 120.918 241.819 120.749C241.734 120.576 241.608 120.438 241.441 120.335C241.274 120.233 241.072 120.182 240.834 120.182C240.55 120.182 240.313 120.237 240.123 120.349C239.935 120.457 239.794 120.609 239.701 120.806C239.607 121.002 239.56 121.228 239.56 121.482H238.747C238.747 121.122 238.826 120.792 238.984 120.494C239.143 120.195 239.377 119.958 239.688 119.782C239.998 119.603 240.38 119.514 240.834 119.514C241.239 119.514 241.584 119.585 241.872 119.729C242.159 119.87 242.378 120.069 242.531 120.327C242.686 120.582 242.764 120.88 242.764 121.223C242.764 121.411 242.731 121.601 242.667 121.794C242.605 121.985 242.519 122.175 242.408 122.366C242.299 122.556 242.172 122.744 242.025 122.928C241.882 123.113 241.728 123.294 241.564 123.473L239.85 125.332H243.058ZM247.945 122.291V123.267C247.945 123.791 247.898 124.233 247.804 124.594C247.71 124.954 247.576 125.244 247.4 125.464C247.224 125.684 247.012 125.843 246.763 125.943C246.517 126.04 246.238 126.088 245.928 126.088C245.682 126.088 245.455 126.057 245.247 125.996C245.039 125.934 244.851 125.836 244.684 125.701C244.52 125.563 244.379 125.385 244.262 125.165C244.145 124.945 244.056 124.679 243.994 124.365C243.933 124.052 243.902 123.686 243.902 123.267V122.291C243.902 121.767 243.949 121.327 244.042 120.973C244.139 120.618 244.275 120.334 244.451 120.12C244.627 119.903 244.838 119.748 245.084 119.654C245.333 119.561 245.611 119.514 245.919 119.514C246.168 119.514 246.396 119.544 246.604 119.606C246.815 119.665 247.003 119.76 247.167 119.892C247.331 120.021 247.47 120.193 247.584 120.41C247.702 120.624 247.791 120.886 247.853 121.197C247.914 121.507 247.945 121.872 247.945 122.291ZM247.127 123.398V122.155C247.127 121.868 247.11 121.616 247.075 121.399C247.042 121.179 246.994 120.992 246.93 120.836C246.865 120.681 246.783 120.555 246.684 120.458C246.587 120.362 246.474 120.292 246.345 120.248C246.219 120.201 246.077 120.177 245.919 120.177C245.726 120.177 245.554 120.214 245.405 120.287C245.255 120.357 245.129 120.47 245.027 120.625C244.927 120.781 244.851 120.984 244.798 121.236C244.746 121.488 244.719 121.794 244.719 122.155V123.398C244.719 123.686 244.735 123.939 244.768 124.159C244.803 124.378 244.854 124.569 244.921 124.73C244.989 124.888 245.071 125.019 245.167 125.121C245.264 125.224 245.375 125.3 245.501 125.35C245.63 125.396 245.772 125.42 245.928 125.42C246.127 125.42 246.301 125.382 246.451 125.306C246.6 125.229 246.725 125.111 246.824 124.95C246.927 124.786 247.003 124.576 247.053 124.321C247.103 124.063 247.127 123.756 247.127 123.398ZM253.183 125.332V126H248.995V125.416L251.091 123.082C251.349 122.795 251.548 122.552 251.689 122.353C251.833 122.15 251.932 121.97 251.988 121.812C252.046 121.651 252.076 121.487 252.076 121.32C252.076 121.109 252.032 120.918 251.944 120.749C251.859 120.576 251.733 120.438 251.566 120.335C251.399 120.233 251.197 120.182 250.959 120.182C250.675 120.182 250.438 120.237 250.248 120.349C250.06 120.457 249.919 120.609 249.826 120.806C249.732 121.002 249.685 121.228 249.685 121.482H248.872C248.872 121.122 248.951 120.792 249.109 120.494C249.268 120.195 249.502 119.958 249.812 119.782C250.123 119.603 250.505 119.514 250.959 119.514C251.364 119.514 251.709 119.585 251.997 119.729C252.284 119.87 252.503 120.069 252.656 120.327C252.811 120.582 252.889 120.88 252.889 121.223C252.889 121.411 252.856 121.601 252.792 121.794C252.73 121.985 252.644 122.175 252.533 122.366C252.424 122.556 252.297 122.744 252.15 122.928C252.007 123.113 251.853 123.294 251.689 123.473L249.975 125.332H253.183ZM258.246 125.332V126H254.058V125.416L256.154 123.082C256.412 122.795 256.611 122.552 256.751 122.353C256.895 122.15 256.995 121.97 257.05 121.812C257.109 121.651 257.138 121.487 257.138 121.32C257.138 121.109 257.094 120.918 257.006 120.749C256.921 120.576 256.795 120.438 256.628 120.335C256.461 120.233 256.259 120.182 256.022 120.182C255.738 120.182 255.5 120.237 255.31 120.349C255.123 120.457 254.982 120.609 254.888 120.806C254.794 121.002 254.748 121.228 254.748 121.482H253.935C253.935 121.122 254.014 120.792 254.172 120.494C254.33 120.195 254.564 119.958 254.875 119.782C255.186 119.603 255.568 119.514 256.022 119.514C256.426 119.514 256.772 119.585 257.059 119.729C257.346 119.87 257.566 120.069 257.718 120.327C257.874 120.582 257.951 120.88 257.951 121.223C257.951 121.411 257.919 121.601 257.854 121.794C257.793 121.985 257.707 122.175 257.595 122.366C257.487 122.556 257.359 122.744 257.213 122.928C257.069 123.113 256.916 123.294 256.751 123.473L255.038 125.332H258.246Z" fill="#CDCDCD"/>
<path d="M540.226 124.921L542.32 118.891H543.341L540.709 126H539.981L540.226 124.921ZM538.268 118.891L540.343 124.921L540.602 126H539.874L537.247 118.891H538.268ZM545.309 118.891V126H544.366V118.891H545.309ZM551.539 125.233V126H547.774V125.233H551.539ZM547.965 118.891V126H547.022V118.891H547.965ZM551.041 121.947V122.714H547.774V121.947H551.041ZM551.49 118.891V119.662H547.774V118.891H551.49ZM554.576 123.852L555.987 118.891H556.671L556.275 120.819L554.757 126H554.078L554.576 123.852ZM553.116 118.891L554.239 123.754L554.576 126H553.902L552.179 118.891H553.116ZM558.497 123.749L559.596 118.891H560.538L558.819 126H558.146L558.497 123.749ZM556.773 118.891L558.146 123.852L558.644 126H557.965L556.5 120.819L556.1 118.891H556.773Z" fill="#CDCDCD"/>
<path d="M534.109 130.5H575.041M571.048 119L574.043 122M574.043 122L571.048 125M574.043 122H567.054" stroke="#C6C6C6"/>
<path d="M216.75 53.625V65H214.414V53.625H216.75ZM220.25 53.625V55.4609H210.969V53.625H220.25ZM224.078 53.625V65H221.742V53.625H224.078ZM231.125 53.625V65H228.789V53.625H231.125ZM234.625 53.625V55.4609H225.344V53.625H234.625ZM243.273 63.1719V65H237.547V63.1719H243.273ZM238.305 53.625V65H235.961V53.625H238.305ZM252.25 63.1719V65H246.195V63.1719H252.25ZM246.961 53.625V65H244.617V53.625H246.961ZM251.461 58.2578V60.0391H246.195V58.2578H251.461ZM252.242 53.625V55.4609H246.195V53.625H252.242Z" fill="#9D9D9C"/>
<rect x="210.648" y="81" width="331.448" height="7" fill="#C6C6C6"/>
<rect x="210.648" y="98" width="331.448" height="7" fill="#C6C6C6"/>
</g>
<g clip-path="url(#clip2_5053_1102)">
<rect width="600" height="153" transform="translate(0 169)" fill="white"/>
<rect x="-0.5" y="0.5" width="599" height="152" rx="8.5" transform="matrix(-1 0 0 1 599 169)" fill="white" stroke="#CFCFCF"/>
<path d="M404 316V175H594V316H404Z" fill="#EDEDED"/>
<path d="M474 216L411 310H587L540.5 247L518.5 272L474 216Z" fill="white"/>
<circle cx="554.5" cy="207.5" r="19.5" fill="white"/>
<path d="M36.1113 202.168L33.9932 208H33.1274L35.5664 201.602H36.1245L36.1113 202.168ZM37.8867 208L35.7642 202.168L35.751 201.602H36.3091L38.7568 208H37.8867ZM37.7769 205.631V206.326H34.1821V205.631H37.7769ZM41.8945 205.007H40.2729L40.2642 204.326H41.7363C41.9795 204.326 42.1919 204.285 42.3735 204.203C42.5552 204.121 42.6958 204.004 42.7954 203.852C42.8979 203.696 42.9492 203.512 42.9492 203.298C42.9492 203.063 42.9038 202.873 42.813 202.727C42.7251 202.577 42.5889 202.469 42.4043 202.401C42.2227 202.331 41.9912 202.296 41.71 202.296H40.4619V208H39.6138V201.602H41.71C42.0381 201.602 42.3311 201.635 42.5889 201.703C42.8467 201.767 43.0649 201.87 43.2437 202.01C43.4253 202.148 43.563 202.324 43.6567 202.538C43.7505 202.751 43.7974 203.008 43.7974 203.307C43.7974 203.57 43.73 203.809 43.5952 204.023C43.4604 204.234 43.2729 204.407 43.0327 204.542C42.7954 204.676 42.5171 204.763 42.1978 204.801L41.8945 205.007ZM41.855 208H39.939L40.418 207.31H41.855C42.1245 207.31 42.353 207.263 42.5405 207.169C42.731 207.076 42.876 206.944 42.9756 206.774C43.0752 206.601 43.125 206.397 43.125 206.163C43.125 205.926 43.0825 205.721 42.9976 205.548C42.9126 205.375 42.7793 205.242 42.5977 205.148C42.416 205.054 42.1816 205.007 41.8945 205.007H40.686L40.6948 204.326H42.3472L42.5273 204.572C42.835 204.599 43.0957 204.687 43.3096 204.836C43.5234 204.982 43.686 205.17 43.7974 205.398C43.9116 205.627 43.9688 205.879 43.9688 206.154C43.9688 206.553 43.8809 206.89 43.7051 207.165C43.5322 207.438 43.2876 207.646 42.9712 207.789C42.6548 207.93 42.2827 208 41.855 208ZM50.1475 204.599V205.003C50.1475 205.483 50.0874 205.914 49.9673 206.295C49.8472 206.676 49.6743 207 49.4487 207.266C49.2231 207.533 48.9521 207.736 48.6357 207.877C48.3223 208.018 47.9707 208.088 47.5811 208.088C47.2031 208.088 46.856 208.018 46.5396 207.877C46.2261 207.736 45.9536 207.533 45.7222 207.266C45.4937 207 45.3164 206.676 45.1904 206.295C45.0645 205.914 45.0015 205.483 45.0015 205.003V204.599C45.0015 204.118 45.063 203.689 45.186 203.311C45.312 202.93 45.4893 202.606 45.7178 202.34C45.9463 202.07 46.2173 201.865 46.5308 201.725C46.8472 201.584 47.1943 201.514 47.5723 201.514C47.9619 201.514 48.3135 201.584 48.627 201.725C48.9434 201.865 49.2144 202.07 49.4399 202.34C49.6685 202.606 49.8428 202.93 49.9629 203.311C50.0859 203.689 50.1475 204.118 50.1475 204.599ZM49.3081 205.003V204.59C49.3081 204.209 49.2686 203.872 49.1895 203.579C49.1133 203.286 49.0005 203.04 48.8511 202.841C48.7017 202.642 48.5186 202.491 48.3018 202.388C48.0879 202.286 47.8447 202.234 47.5723 202.234C47.3086 202.234 47.0698 202.286 46.856 202.388C46.645 202.491 46.4634 202.642 46.311 202.841C46.1616 203.04 46.0459 203.286 45.9639 203.579C45.8818 203.872 45.8408 204.209 45.8408 204.59V205.003C45.8408 205.387 45.8818 205.727 45.9639 206.022C46.0459 206.315 46.1631 206.563 46.3154 206.765C46.4707 206.964 46.6538 207.115 46.8647 207.218C47.0786 207.32 47.3174 207.372 47.5811 207.372C47.8564 207.372 48.1011 207.32 48.3149 207.218C48.5288 207.115 48.709 206.964 48.8555 206.765C49.0049 206.563 49.1177 206.315 49.1938 206.022C49.27 205.727 49.3081 205.387 49.3081 205.003ZM55.0781 201.602H55.9219V205.93C55.9219 206.411 55.8149 206.811 55.6011 207.13C55.3872 207.449 55.103 207.689 54.7485 207.851C54.397 208.009 54.0146 208.088 53.6016 208.088C53.168 208.088 52.7754 208.009 52.4238 207.851C52.0752 207.689 51.7983 207.449 51.5933 207.13C51.3911 206.811 51.29 206.411 51.29 205.93V201.602H52.1294V205.93C52.1294 206.264 52.1909 206.54 52.314 206.756C52.437 206.973 52.6084 207.134 52.8281 207.24C53.0508 207.345 53.3086 207.398 53.6016 207.398C53.8975 207.398 54.1553 207.345 54.375 207.24C54.5977 207.134 54.7705 206.973 54.8936 206.756C55.0166 206.54 55.0781 206.264 55.0781 205.93V201.602ZM59.6177 201.602V208H58.7827V201.602H59.6177ZM61.6743 201.602V202.296H56.7305V201.602H61.6743Z" fill="#CDCDCD"/>
<path d="M37.5483 291.291V292.267C37.5483 292.791 37.5015 293.233 37.4077 293.594C37.314 293.954 37.1792 294.244 37.0034 294.464C36.8276 294.684 36.6152 294.843 36.3662 294.943C36.1201 295.04 35.8418 295.088 35.5312 295.088C35.2852 295.088 35.0581 295.057 34.8501 294.996C34.6421 294.934 34.4546 294.836 34.2876 294.701C34.1235 294.563 33.9829 294.385 33.8657 294.165C33.7485 293.945 33.6592 293.679 33.5977 293.365C33.5361 293.052 33.5054 292.686 33.5054 292.267V291.291C33.5054 290.767 33.5522 290.327 33.646 289.973C33.7427 289.618 33.8789 289.334 34.0547 289.12C34.2305 288.903 34.4414 288.748 34.6875 288.654C34.9365 288.561 35.2148 288.514 35.5225 288.514C35.7715 288.514 36 288.544 36.208 288.606C36.4189 288.665 36.6064 288.76 36.7705 288.892C36.9346 289.021 37.0737 289.193 37.188 289.41C37.3052 289.624 37.3945 289.886 37.4561 290.197C37.5176 290.507 37.5483 290.872 37.5483 291.291ZM36.731 292.398V291.155C36.731 290.868 36.7134 290.616 36.6782 290.399C36.646 290.179 36.5977 289.992 36.5332 289.836C36.4688 289.681 36.3867 289.555 36.2871 289.458C36.1904 289.362 36.0776 289.292 35.9487 289.248C35.8228 289.201 35.6807 289.177 35.5225 289.177C35.3291 289.177 35.1577 289.214 35.0083 289.287C34.8589 289.357 34.7329 289.47 34.6304 289.625C34.5308 289.781 34.4546 289.984 34.4019 290.236C34.3491 290.488 34.3228 290.794 34.3228 291.155V292.398C34.3228 292.686 34.3389 292.939 34.3711 293.159C34.4062 293.378 34.4575 293.569 34.5249 293.73C34.5923 293.888 34.6743 294.019 34.771 294.121C34.8677 294.224 34.979 294.3 35.105 294.35C35.2339 294.396 35.376 294.42 35.5312 294.42C35.7305 294.42 35.9048 294.382 36.0542 294.306C36.2036 294.229 36.3281 294.111 36.4277 293.95C36.5303 293.786 36.6064 293.576 36.6562 293.321C36.7061 293.063 36.731 292.756 36.731 292.398ZM41.2661 288.566V295H40.4531V289.582L38.814 290.179V289.445L41.1387 288.566H41.2661ZM46.5747 288.602L43.9072 295.549H43.2085L45.8804 288.602H46.5747ZM51.3911 291.291V292.267C51.3911 292.791 51.3442 293.233 51.2505 293.594C51.1567 293.954 51.022 294.244 50.8462 294.464C50.6704 294.684 50.458 294.843 50.209 294.943C49.9629 295.04 49.6846 295.088 49.374 295.088C49.1279 295.088 48.9009 295.057 48.6929 294.996C48.4849 294.934 48.2974 294.836 48.1304 294.701C47.9663 294.563 47.8257 294.385 47.7085 294.165C47.5913 293.945 47.502 293.679 47.4404 293.365C47.3789 293.052 47.3481 292.686 47.3481 292.267V291.291C47.3481 290.767 47.395 290.327 47.4888 289.973C47.5854 289.618 47.7217 289.334 47.8975 289.12C48.0732 288.903 48.2842 288.748 48.5303 288.654C48.7793 288.561 49.0576 288.514 49.3652 288.514C49.6143 288.514 49.8428 288.544 50.0508 288.606C50.2617 288.665 50.4492 288.76 50.6133 288.892C50.7773 289.021 50.9165 289.193 51.0308 289.41C51.1479 289.624 51.2373 289.886 51.2988 290.197C51.3604 290.507 51.3911 290.872 51.3911 291.291ZM50.5737 292.398V291.155C50.5737 290.868 50.5562 290.616 50.521 290.399C50.4888 290.179 50.4404 289.992 50.376 289.836C50.3115 289.681 50.2295 289.555 50.1299 289.458C50.0332 289.362 49.9204 289.292 49.7915 289.248C49.6655 289.201 49.5234 289.177 49.3652 289.177C49.1719 289.177 49.0005 289.214 48.8511 289.287C48.7017 289.357 48.5757 289.47 48.4731 289.625C48.3735 289.781 48.2974 289.984 48.2446 290.236C48.1919 290.488 48.1655 290.794 48.1655 291.155V292.398C48.1655 292.686 48.1816 292.939 48.2139 293.159C48.249 293.378 48.3003 293.569 48.3677 293.73C48.4351 293.888 48.5171 294.019 48.6138 294.121C48.7104 294.224 48.8218 294.3 48.9478 294.35C49.0767 294.396 49.2188 294.42 49.374 294.42C49.5732 294.42 49.7476 294.382 49.897 294.306C50.0464 294.229 50.1709 294.111 50.2705 293.95C50.373 293.786 50.4492 293.576 50.499 293.321C50.5488 293.063 50.5737 292.756 50.5737 292.398ZM55.1089 288.566V295H54.2959V289.582L52.6567 290.179V289.445L54.9814 288.566H55.1089ZM60.4175 288.602L57.75 295.549H57.0513L59.7231 288.602H60.4175ZM65.4097 294.332V295H61.2217V294.416L63.3179 292.082C63.5757 291.795 63.7749 291.552 63.9155 291.353C64.0591 291.15 64.1587 290.97 64.2144 290.812C64.2729 290.651 64.3022 290.487 64.3022 290.32C64.3022 290.109 64.2583 289.918 64.1704 289.749C64.0854 289.576 63.9595 289.438 63.7925 289.335C63.6255 289.233 63.4233 289.182 63.186 289.182C62.9019 289.182 62.6646 289.237 62.4741 289.349C62.2866 289.457 62.146 289.609 62.0522 289.806C61.9585 290.002 61.9116 290.228 61.9116 290.482H61.0986C61.0986 290.122 61.1777 289.792 61.3359 289.494C61.4941 289.195 61.7285 288.958 62.0391 288.782C62.3496 288.603 62.7319 288.514 63.186 288.514C63.5903 288.514 63.936 288.585 64.2231 288.729C64.5103 288.87 64.73 289.069 64.8823 289.327C65.0376 289.582 65.1152 289.88 65.1152 290.223C65.1152 290.411 65.083 290.601 65.0186 290.794C64.957 290.985 64.8706 291.175 64.7593 291.366C64.6509 291.556 64.5234 291.744 64.377 291.928C64.2334 292.113 64.0796 292.294 63.9155 292.473L62.2017 294.332H65.4097ZM70.2964 291.291V292.267C70.2964 292.791 70.2495 293.233 70.1558 293.594C70.062 293.954 69.9272 294.244 69.7515 294.464C69.5757 294.684 69.3633 294.843 69.1143 294.943C68.8682 295.04 68.5898 295.088 68.2793 295.088C68.0332 295.088 67.8062 295.057 67.5981 294.996C67.3901 294.934 67.2026 294.836 67.0356 294.701C66.8716 294.563 66.731 294.385 66.6138 294.165C66.4966 293.945 66.4072 293.679 66.3457 293.365C66.2842 293.052 66.2534 292.686 66.2534 292.267V291.291C66.2534 290.767 66.3003 290.327 66.394 289.973C66.4907 289.618 66.627 289.334 66.8027 289.12C66.9785 288.903 67.1895 288.748 67.4355 288.654C67.6846 288.561 67.9629 288.514 68.2705 288.514C68.5195 288.514 68.748 288.544 68.9561 288.606C69.167 288.665 69.3545 288.76 69.5186 288.892C69.6826 289.021 69.8218 289.193 69.936 289.41C70.0532 289.624 70.1426 289.886 70.2041 290.197C70.2656 290.507 70.2964 290.872 70.2964 291.291ZM69.479 292.398V291.155C69.479 290.868 69.4614 290.616 69.4263 290.399C69.394 290.179 69.3457 289.992 69.2812 289.836C69.2168 289.681 69.1348 289.555 69.0352 289.458C68.9385 289.362 68.8257 289.292 68.6968 289.248C68.5708 289.201 68.4287 289.177 68.2705 289.177C68.0771 289.177 67.9058 289.214 67.7563 289.287C67.6069 289.357 67.481 289.47 67.3784 289.625C67.2788 289.781 67.2026 289.984 67.1499 290.236C67.0972 290.488 67.0708 290.794 67.0708 291.155V292.398C67.0708 292.686 67.0869 292.939 67.1191 293.159C67.1543 293.378 67.2056 293.569 67.2729 293.73C67.3403 293.888 67.4224 294.019 67.519 294.121C67.6157 294.224 67.7271 294.3 67.853 294.35C67.9819 294.396 68.124 294.42 68.2793 294.42C68.4785 294.42 68.6528 294.382 68.8022 294.306C68.9517 294.229 69.0762 294.111 69.1758 293.95C69.2783 293.786 69.3545 293.576 69.4043 293.321C69.4541 293.063 69.479 292.756 69.479 292.398ZM75.5347 294.332V295H71.3467V294.416L73.4429 292.082C73.7007 291.795 73.8999 291.552 74.0405 291.353C74.1841 291.15 74.2837 290.97 74.3394 290.812C74.3979 290.651 74.4272 290.487 74.4272 290.32C74.4272 290.109 74.3833 289.918 74.2954 289.749C74.2104 289.576 74.0845 289.438 73.9175 289.335C73.7505 289.233 73.5483 289.182 73.311 289.182C73.0269 289.182 72.7896 289.237 72.5991 289.349C72.4116 289.457 72.271 289.609 72.1772 289.806C72.0835 290.002 72.0366 290.228 72.0366 290.482H71.2236C71.2236 290.122 71.3027 289.792 71.4609 289.494C71.6191 289.195 71.8535 288.958 72.1641 288.782C72.4746 288.603 72.8569 288.514 73.311 288.514C73.7153 288.514 74.061 288.585 74.3481 288.729C74.6353 288.87 74.855 289.069 75.0073 289.327C75.1626 289.582 75.2402 289.88 75.2402 290.223C75.2402 290.411 75.208 290.601 75.1436 290.794C75.082 290.985 74.9956 291.175 74.8843 291.366C74.7759 291.556 74.6484 291.744 74.502 291.928C74.3584 292.113 74.2046 292.294 74.0405 292.473L72.3267 294.332H75.5347ZM80.5972 294.332V295H76.4092V294.416L78.5054 292.082C78.7632 291.795 78.9624 291.552 79.103 291.353C79.2466 291.15 79.3462 290.97 79.4019 290.812C79.4604 290.651 79.4897 290.487 79.4897 290.32C79.4897 290.109 79.4458 289.918 79.3579 289.749C79.2729 289.576 79.147 289.438 78.98 289.335C78.813 289.233 78.6108 289.182 78.3735 289.182C78.0894 289.182 77.8521 289.237 77.6616 289.349C77.4741 289.457 77.3335 289.609 77.2397 289.806C77.146 290.002 77.0991 290.228 77.0991 290.482H76.2861C76.2861 290.122 76.3652 289.792 76.5234 289.494C76.6816 289.195 76.916 288.958 77.2266 288.782C77.5371 288.603 77.9194 288.514 78.3735 288.514C78.7778 288.514 79.1235 288.585 79.4106 288.729C79.6978 288.87 79.9175 289.069 80.0698 289.327C80.2251 289.582 80.3027 289.88 80.3027 290.223C80.3027 290.411 80.2705 290.601 80.2061 290.794C80.1445 290.985 80.0581 291.175 79.9468 291.366C79.8384 291.556 79.7109 291.744 79.5645 291.928C79.4209 292.113 79.2671 292.294 79.103 292.473L77.3892 294.332H80.5972Z" fill="#CDCDCD"/>
<path d="M363.12 293.921L365.215 287.891H366.235L363.604 295H362.876L363.12 293.921ZM361.162 287.891L363.237 293.921L363.496 295H362.769L360.142 287.891H361.162ZM368.203 287.891V295H367.261V287.891H368.203ZM374.434 294.233V295H370.669V294.233H374.434ZM370.859 287.891V295H369.917V287.891H370.859ZM373.936 290.947V291.714H370.669V290.947H373.936ZM374.385 287.891V288.662H370.669V287.891H374.385ZM377.471 292.852L378.882 287.891H379.565L379.17 289.819L377.651 295H376.973L377.471 292.852ZM376.011 287.891L377.134 292.754L377.471 295H376.797L375.073 287.891H376.011ZM381.392 292.749L382.49 287.891H383.433L381.714 295H381.04L381.392 292.749ZM379.668 287.891L381.04 292.852L381.538 295H380.859L379.395 289.819L378.994 287.891H379.668Z" fill="#CDCDCD"/>
<path d="M357 299.5H398M394 288L397 291M397 291L394 294M397 291H390" stroke="#C6C6C6"/>
<path d="M39.1016 222.625V234H36.7656V222.625H39.1016ZM42.6016 222.625V224.461H33.3203V222.625H42.6016ZM46.4297 222.625V234H44.0938V222.625H46.4297ZM53.4766 222.625V234H51.1406V222.625H53.4766ZM56.9766 222.625V224.461H47.6953V222.625H56.9766ZM65.625 232.172V234H59.8984V232.172H65.625ZM60.6562 222.625V234H58.3125V222.625H60.6562ZM74.6016 232.172V234H68.5469V232.172H74.6016ZM69.3125 222.625V234H66.9688V222.625H69.3125ZM73.8125 227.258V229.039H68.5469V227.258H73.8125ZM74.5938 222.625V224.461H68.5469V222.625H74.5938Z" fill="#9D9D9C"/>
<rect x="33" y="250" width="332" height="7" fill="#C6C6C6"/>
<rect x="33" y="267" width="332" height="7" fill="#C6C6C6"/>
</g>
</g>
<defs>
<clipPath id="clip0_5053_1102">
<rect width="600" height="322" fill="white"/>
</clipPath>
<clipPath id="clip1_5053_1102">
<rect width="600" height="153" fill="white"/>
</clipPath>
<clipPath id="clip2_5053_1102">
<rect width="600" height="153" fill="white" transform="translate(0 169)"/>
</clipPath>
</defs>
</svg>
