<svg width="8" height="8" viewBox="0 0 8 8" fill="none" xmlns="http://www.w3.org/2000/svg">
<g clip-path="url(#clip0_4014_11909)">
<path d="M3.99984 7.33335C3.53873 7.33335 3.10539 7.2458 2.69984 7.07069C2.29428 6.89558 1.9415 6.65813 1.6415 6.35835C1.3415 6.05835 1.10406 5.70558 0.929171 5.30002C0.754282 4.89446 0.666726 4.46113 0.666504 4.00002C0.666504 3.53891 0.754059 3.10558 0.929171 2.70002C1.10428 2.29446 1.34173 1.94169 1.6415 1.64169C1.9415 1.34169 2.29428 1.10424 2.69984 0.929354C3.10539 0.754465 3.53873 0.666909 3.99984 0.666687C4.46095 0.666687 4.89428 0.754243 5.29984 0.929354C5.70539 1.10446 6.05817 1.34191 6.35817 1.64169C6.65817 1.94169 6.89573 2.29446 7.07084 2.70002C7.24595 3.10558 7.33339 3.53891 7.33317 4.00002C7.33317 4.46113 7.24561 4.89446 7.0705 5.30002C6.89539 5.70558 6.65795 6.05835 6.35817 6.35835C6.05817 6.65835 5.70539 6.89591 5.29984 7.07102C4.89428 7.24613 4.46095 7.33358 3.99984 7.33335ZM4.33317 6.64169C4.99428 6.55835 5.5485 6.26802 5.99584 5.77069C6.44317 5.27335 6.66673 4.68313 6.6665 4.00002C6.6665 3.31669 6.44284 2.72646 5.9955 2.22935C5.54817 1.73224 4.99406 1.44191 4.33317 1.35835V6.64169Z" fill="#6D6A7E"/>
</g>
<defs>
<clipPath id="clip0_4014_11909">
<rect width="8" height="8" fill="white"/>
</clipPath>
</defs>
</svg>
