<svg id="e9dc84bb-e34b-4983-9a2d-6e5ca2f978d2" data-name="Layer 1" xmlns="http://www.w3.org/2000/svg" viewBox="0 0 100 100"><defs><style>.b75e3a70-7209-414a-b917-7915d3712a07{fill:#5fd7aa}</style></defs><path d="M50 88.89V100a49.672 49.672 0 0 1-35.356-14.644 50.173 50.173 0 0 1-7.962-10.344l9.647-5.57A38.91 38.91 0 0 0 50 88.89Z" style="fill:#ffcb60"/><path d="m93.32 24.992-9.644 5.57a38.914 38.914 0 0 0-33.674-19.451V0a49.672 49.672 0 0 1 35.356 14.644 50.281 50.281 0 0 1 7.963 10.348Z" style="fill:#7e61ff"/><path d="M50.002 0v11.11a38.914 38.914 0 0 0-33.674 19.445l-9.644-5.57a50.24 50.24 0 0 1 7.963-10.34A49.672 49.672 0 0 1 50.002 0Z" style="fill:#ff5f7d"/><path d="M100 50a49.858 49.858 0 0 1-4.17 20.052v.007l-9.719-5.615a38.878 38.878 0 0 0-2.437-33.881l9.644-5.57A49.657 49.657 0 0 1 100 50Z" style="fill:#5a3dbe"/><path class="b75e3a70-7209-414a-b917-7915d3712a07" d="M95.83 70.06a49.668 49.668 0 0 1-5.57 9.607L72.91 69.652a12.523 12.523 0 0 1-6.244-10.83v-8.578a16.663 16.663 0 0 0-31.09-8.577l-9.629-5.563A27.778 27.778 0 0 1 77.778 50v6.74a5.02 5.02 0 0 0 2.496 4.334l5.837 3.37Z"/><path d="M65.23 73.23a27.778 27.778 0 0 1-39.282-37.126l9.63 5.563a16.55 16.55 0 0 0-2.193 9.718 16.718 16.718 0 0 0 16.882 15.282 14.479 14.479 0 0 0 3.252-.319 17.04 17.04 0 0 0 4.814-1.926Z" style="fill:#3fb3a3"/><path class="b75e3a70-7209-414a-b917-7915d3712a07" d="M95.83 70.052v.007l-9.719-5.615 9.719 5.608z"/><path d="M11.111 50.001a38.643 38.643 0 0 0 5.218 19.442l-9.647 5.569a50.145 50.145 0 0 1 .005-50.028l9.644 5.57a38.639 38.639 0 0 0-5.22 19.447Z" style="fill:#ff9c5b"/></svg>