<svg style="position: absolute; width: 0; height: 0; overflow: hidden;" version="1.1"
     xmlns="http://www.w3.org/2000/svg" id="tve-automator-icons">
    <defs>
        <symbol id="tap-architect-logo" viewBox="0 0 43 44">
            <g fill="none" fill-rule="evenodd">
                <g>
                    <g>
                        <g>
                            <g>
                                <path fill="#434343" fill-rule="nonzero" d="M42.82 41.754h-.485c-5.318 0-10.06-3.348-11.84-8.36l-7.19-20.217-4.313 12.11c-1.165.204-2.232.42-2.876.575-1.515.317-3.508.762-4.987 1.349-.862.35-1.725.699-2.548 1.09L18.627.01h9.358L42.82 41.755z" transform="translate(-692 -149) translate(599 109) translate(93 40)"/>
                                <path fill="#58A245"
                                      d="M24.861 27.289c-.319-.006-.635.06-.926.192-.371.155-.713.372-1.012.642l-.69.67c-.042.043-.08.09-.112.14-1.286 1.617-1.573 1.876-2.588 3.926-.47.944-1 1.857-1.588 2.732-.4.601-.762 1.208-1.216 1.769-.044.057-.075.083-.121.135-.295.35-.62.676-.97.972-.236.21-.488.402-.753.575-.218.144-.431.288-.676.429l-.36.195c-.057.04-.116.076-.177.11l-.176.086c-.069.034-.132.051-.207.086-1.557.734-3.224 1.207-4.935 1.398l-1.003.123c-.288.043-1.09.084-1.82.095-.453.018-.907.007-1.358-.031l.112-.288c.236-.54.5-1.069.79-1.582.053-.08.076-.152.133-.241l.575-.987 1.47-2.053 1.337-1.406.095-.104c.057-.052.066-.046.118-.089l.31-.273.118-.084c.08-.063.118-.1.205-.166l1.42-.99c.478-.319.99-.61 1.478-.897l1.542-.843c.575-.287 1.576-.82 2.122-1.058l1.608-.753c-.259.054-.511.134-.754.238l-.742.253-1.463.53c-.717.247-1.424.575-2.117.862l-1.349.61c-.612.274-1.21.58-1.791.915-.576.319-1.11.695-1.671 1.032l-1.864 1.326c-.043.034-.089.066-.135.097l-1.035.903c-.314.328-.685.642-.978.99-.035.05-.073.097-.115.14-.267.29-.517.596-.748.915-.346.474-.669.964-.966 1.47l-.492.937c-.195.394-.992 2.3-1.03 2.816H.3C.174 43.2.078 42.642.012 42.079v-.613-.063c.051-.4.04-.664.123-1.17.234-1.431.772-2.796 1.579-4l.797-1.15c.413-.525.863-1.02 1.345-1.482.248-.198.472-.5.74-.702.115-.089.23-.212.359-.31.13-.098.23-.199.365-.288l.762-.575c.781-.57 1.608-1.076 2.47-1.513.92-.463 1.835-.845 2.793-1.228 1.375-.496 2.788-.88 4.225-1.15 1.357-.288 4.794-.955 6.45-.98h.354c.851-.02 2.174-.003 2.487.434z"
                                      transform="translate(-692 -149) translate(599 109) translate(93 40)"/>
                            </g>
                        </g>
                    </g>
                </g>
            </g>
        </symbol>
    </defs>
</svg>
