<svg width="30" height="30" viewBox="0 0 30 30" xmlns="http://www.w3.org/2000/svg">
    <circle fill="none" stroke="#444" stroke-width="2" cx="15.01" cy="11.56" r="2.15" />
    <circle fill="none" stroke="#444" stroke-width="2" cx="11.03" cy="18.45" r="2.15" />
    <circle fill="none" stroke="#444" stroke-width="2" cx="18.98" cy="18.45" r="2.15" />
    <line fill="none" stroke="#444" stroke-width="2" x1="17.92" y1="16.6" x2="16.09" y2="13.43" />
    <line fill="none" stroke="#444" stroke-width="2" x1="13.18" y1="18.46" x2="16.84" y2="18.46" />
    <line fill="none" stroke="#444" stroke-width="2" x1="13.94" y1="13.41" x2="12.1" y2="16.59" />
    <polyline fill="none" stroke="#444" stroke-width="2" points="6 13 3 13 3 3 13 3 13 6" />
    <polyline fill="none" stroke="#444" stroke-width="2" points="17 6 17 3 27 3 27 13 24 13" />
    <polyline fill="none" stroke="#444" stroke-width="2" points="24 17 27 17 27 27 17 27 17 24" />
    <polyline fill="none" stroke="#444" stroke-width="2" points="13 24 13 27 3 27 3 17 6 17" />
</svg>
