<svg width="46" height="46" viewBox="0 0 46 46" fill="none" xmlns="http://www.w3.org/2000/svg">
<g clip-path="url(#clip0_32_2)">
<path d="M23.0308 46C16.6949 45.9138 11.2324 43.6606 6.74194 39.2034C4.09685 36.5685 2.22683 33.4411 1.10728 29.8704C0.295301 27.2601 -0.122993 24.5883 0.0246401 21.8795C0.135365 19.9587 0.479842 18.0749 1.05807 16.2157C2.26374 12.3865 4.25679 9.04975 7.17254 6.27941C9.84224 3.73069 12.9425 1.89611 16.4857 0.898787C17.9005 0.504783 19.3523 0.20928 20.804 0.0245902C22.2188 -0.160099 23.2891 0.751036 23.3753 2.13005C23.3999 2.54868 23.2522 3.01656 23.0677 3.41056C22.391 4.81421 21.5545 6.13166 21.0008 7.57224C20.2627 9.48069 20.1519 11.5 20.4103 13.5562C20.6933 15.7109 21.3699 17.6932 22.5879 19.4909C24.3226 22.0273 26.5617 23.9727 29.5266 24.8961C30.9784 25.3517 32.5285 25.7211 34.0295 25.7334C36.7607 25.758 39.3811 25.0685 41.6818 23.4678C42.1493 23.1477 42.666 22.8522 43.195 22.7045C44.7575 22.2735 46.1231 23.4802 45.9754 25.1177C45.7417 27.6665 45.1019 30.1167 44.0193 32.4561C41.6695 37.5781 37.954 41.3458 32.8853 43.7837C29.7973 45.2858 26.4879 46 23.0308 46ZM4.52745 23.197C4.61357 24.0096 4.68738 25.1424 4.89653 26.2382C5.09337 27.2601 5.38864 28.2698 5.73312 29.2548C6.87727 32.5299 8.82111 35.2757 11.5523 37.3934C16.9409 41.5674 22.9447 42.5155 29.3544 40.2992C34.3124 38.5754 37.831 35.1525 39.9717 30.3383C40.0824 30.0797 40.107 29.7719 40.1685 29.4887C39.8733 29.5133 39.578 29.501 39.295 29.5749C36.5884 30.3137 33.8326 30.5476 31.0768 30.0551C25.8358 29.1193 21.6898 26.4352 18.7371 21.978C16.781 19.0353 15.8091 15.7724 15.7107 12.251C15.6491 10.2441 15.9813 8.29868 16.5472 6.37791C16.5964 6.20553 16.5226 6.00853 16.5103 5.81153C16.3381 5.83615 16.1412 5.81153 15.9936 5.8854C15.1078 6.31635 14.1974 6.71035 13.3731 7.23979C7.70156 10.8966 4.85962 16.1665 4.52745 23.197Z" fill="white"/>
</g>
<defs>
<clipPath id="clip0_32_2">
<rect width="46" height="46" fill="white"/>
</clipPath>
</defs>
</svg>
