<svg style="position: absolute; width: 0; height: 0; overflow: hidden;" version="1.1" xmlns="http://www.w3.org/2000/svg"
     xmlns:xlink="http://www.w3.org/1999/xlink">
    <!--    Different formatting? -->
    <defs>
        <symbol id="icon-sidebar" viewBox="0 0 32 32">
            <g>
                <path d="M29.3,32h-2.2v-1.5h2.2c0.6,0,1.2-0.5,1.2-1.2v-3.2H32v3.2C32,30.8,30.8,32,29.3,32z M25.9,32h-5.2v-1.5h5.2
		V32z M19.5,32h-5.2v-1.5h5.2V32z M13.1,32H7.9v-1.5h5.2V32z M6.7,32h-4c-0.6,0-1.1-0.2-1.5-0.5L2,30.3c0.2,0.1,0.4,0.2,0.7,0.2h4
		V32z M0.1,30.1C0,29.9,0,29.6,0,29.3v-4.6h1.5v4.6c0,0.1,0,0.2,0.1,0.3L0.1,30.1z M32,24.9h-1.5v-5.2H32V24.9z M1.5,23.5H0v-5.2
		h1.5V23.5z M32,18.5h-1.5v-5.2H32V18.5z M1.5,17.1H0v-5.2h1.5V17.1z M32,12.1h-1.5V6.9H32V12.1z M1.5,10.7H0V5.5h1.5V10.7z M32,5.7
		h-1.5v-3c0-0.5-0.3-0.9-0.7-1.1l0.6-1.4C31.4,0.7,32,1.6,32,2.7V5.7z M1.5,4.3H0V2.7C0,1.2,1.2,0,2.7,0h0.6v1.5H2.7
		C2,1.5,1.5,2,1.5,2.7V4.3z M28.9,1.5h-5.2V0h5.2V1.5z M22.5,1.5h-5.2V0h5.2V1.5z M16.1,1.5h-5.2V0h5.2V1.5z M9.7,1.5H4.5V0h5.2V1.5
		z"/>
            </g>
            <g>
                <path d="M26.8,26.9H19V5.1h7.8V26.9z M20.5,25.4h4.8V6.6h-4.8V25.4z"/>
            </g>
        </symbol>

        <symbol id="icon-woo" viewBox="0 0 27 16">
            <g fill="#B7C4C7" fill-rule="nonzero">
                <path d="M22.927 4.49c-.4-.072-.763.146-1.127.674-.29.418-.473.854-.582 1.29a3.853 3.853 0 0 0-.073.8c0 .31.073.655.2.982.164.419.382.655.637.71.273.054.563-.073.873-.346.4-.364.672-.89.818-1.6.054-.255.072-.527.072-.8 0-.31-.072-.655-.2-.982-.145-.454-.363-.673-.618-.727zM16.745 5.2c-.163-.418-.381-.655-.636-.71-.4-.072-.764.146-1.127.674-.291.418-.473.854-.582 1.29a3.853 3.853 0 0 0-.073.8c0 .31.073.655.2.982.164.419.382.655.637.71.272.054.563-.073.872-.346.4-.364.673-.89.819-1.6.054-.255.09-.527.072-.8a2.168 2.168 0 0 0-.182-1z"/>
                <path d="M24.418 0H2.655C1.29 0 .164 1.127.182 2.49v8.31c0 1.382 1.109 2.49 2.49 2.49h10.31l4.709 2.62-1.073-2.62h7.8c1.382 0 2.491-1.108 2.491-2.49V2.49C26.91 1.11 25.8 0 24.42 0zM11.255 10.89c.018.274-.019.51-.128.71a.746.746 0 0 1-.582.4c-.29.018-.581-.11-.854-.4-1.018-1.036-1.818-2.582-2.4-4.636a121.708 121.708 0 0 0-1.564 3.127C5.091 11.327 4.545 11.964 4.091 12c-.291.018-.546-.236-.764-.745C2.782 9.836 2.182 7.09 1.527 3c-.036-.29.018-.527.182-.727.146-.2.382-.31.691-.346.545-.036.873.218.945.782.346 2.273.71 4.2 1.091 5.764l2.382-4.528c.218-.418.491-.636.818-.654.473-.036.764.273.891.909.273 1.436.618 2.673 1.037 3.71.29-2.765.763-4.746 1.436-5.983.164-.309.4-.454.71-.472.235 0 .472.072.672.236.2.164.309.364.345.618a.867.867 0 0 1-.109.527c-.418.782-.763 2.091-1.054 3.928-.273 1.763-.382 3.145-.31 4.127zm6.672-1.69c-.654 1.09-1.49 1.636-2.545 1.636-.182 0-.382-.018-.582-.072a2.58 2.58 0 0 1-1.745-1.255c-.346-.6-.528-1.309-.528-2.145 0-1.128.291-2.146.855-3.073.654-1.091 1.509-1.636 2.545-1.636.182 0 .382.018.582.072a2.58 2.58 0 0 1 1.746 1.255c.345.582.527 1.29.527 2.145-.018 1.11-.291 2.128-.855 3.073zm6.8 0c-.654 1.09-1.49 1.636-2.545 1.636-.182 0-.382-.018-.582-.072a2.58 2.58 0 0 1-1.745-1.255c-.346-.6-.528-1.309-.528-2.145 0-1.128.291-2.146.855-3.073.654-1.091 1.509-1.636 2.545-1.636.182 0 .382.018.582.072a2.58 2.58 0 0 1 1.746 1.255c.345.582.527 1.29.527 2.145 0 1.11-.291 2.128-.855 3.073z"/>
            </g>
        </symbol>

        <symbol id="icon-business-social-links" viewBox="0 0 32 32">
            <g>
                <path class="st0" d="M30.5,7.1h-7V3.2c0-0.4-0.3-0.8-0.8-0.8H9.3c-0.4,0-0.8,0.3-0.8,0.8v3.8H1.8c-1,0-1.8,0.8-1.8,1.8v19.7
                    c0,1,0.8,1.8,1.8,1.8h28.7c1,0,1.8-0.8,1.8-1.8V8.8C32.2,7.9,31.5,7.1,30.5,7.1z M10,4H22v3.1H10V4z M30.7,28.6
                    c0,0.1-0.1,0.3-0.3,0.3H1.8c-0.1,0-0.3-0.1-0.3-0.3V8.8c0-0.1,0.1-0.3,0.3-0.3h28.7c0.1,0,0.3,0.1,0.3,0.3V28.6z"/>
                <path class="st0" d="M19.3,16.5c1.5,0,2.7-1.2,2.7-2.7s-1.2-2.7-2.7-2.7s-2.7,1.2-2.7,2.7c0,0.2,0,0.3,0,0.5l-4.5,2.6
                    c-0.5-0.4-1.1-0.6-1.7-0.6c-1.5,0-2.7,1.2-2.7,2.7s1.2,2.7,2.7,2.7c0.7,0,1.4-0.3,1.9-0.8l4.3,2.5c-0.1,0.2-0.1,0.4-0.1,0.7
                    c0,1.5,1.2,2.7,2.7,2.7s2.7-1.2,2.7-2.7s-1.2-2.7-2.7-2.7c-0.7,0-1.3,0.3-1.8,0.7l-4.4-2.5c0-0.2,0.1-0.4,0.1-0.5
                    c0-0.3-0.1-0.5-0.1-0.8l4.3-2.5C17.8,16.1,18.5,16.5,19.3,16.5z M19.3,12.6c0.6,0,1.2,0.5,1.2,1.2S19.9,15,19.3,15
                    s-1.2-0.5-1.2-1.2S18.6,12.6,19.3,12.6z M10.5,20c-0.6,0-1.2-0.5-1.2-1.2s0.5-1.2,1.2-1.2s1.2,0.5,1.2,1.2S11.1,20,10.5,20z
                     M19.3,22.7c0.6,0,1.2,0.5,1.2,1.2S19.9,25,19.3,25s-1.2-0.5-1.2-1.2S18.6,22.7,19.3,22.7z"/>
            </g>
        </symbol>

        <symbol id="icon-archive" viewBox="0 0 32 32">
            <g>
                <path class="st0" d="M29.2,23.1c-1.7,0-3,1.3-3,3s1.3,3,3,3s3-1.3,3-3S30.8,23.1,29.2,23.1z M29.2,27.6c-0.8,0-1.5-0.7-1.5-1.5
                    s0.7-1.5,1.5-1.5s1.5,0.7,1.5,1.5S30,27.6,29.2,27.6z"/>
                <path class="st0" d="M19.9,23.1c-1.7,0-3,1.3-3,3s1.3,3,3,3s3-1.3,3-3S21.6,23.1,19.9,23.1z M19.9,27.6c-0.8,0-1.5-0.7-1.5-1.5
                    s0.7-1.5,1.5-1.5s1.5,0.7,1.5,1.5S20.7,27.6,19.9,27.6z"/>
                <path class="st0" d="M19.3,19.6c0,0.4,0.3,0.8,0.8,0.8s0.8-0.3,0.8-0.8v-4.7h7.8v4.7c0,0.4,0.3,0.8,0.8,0.8s0.8-0.3,0.8-0.8v-5.5
                    c0-0.4-0.3-0.8-0.8-0.8h-8.6V8.7c0,0,0,0,0,0h2.2c1.5,0,2.8-1.2,2.8-2.8V5.7c0-1.5-1.2-2.8-2.8-2.8h-6.1c-1.5,0-2.8,1.2-2.8,2.8
                    v0.2c0,1.5,1.2,2.8,2.8,2.8h2.4c0,0,0,0,0,0v4.7h-5.6V7.6c0-0.4-0.3-0.8-0.8-0.8H0.6c-0.4,0-0.8,0.3-0.8,0.8v20.2
                    c0,0.4,0.3,0.8,0.8,0.8H13c0.4,0,0.8-0.3,0.8-0.8V14.9h5.6V19.6z M15.6,5.9V5.7c0-0.7,0.6-1.3,1.3-1.3h6.1c0.7,0,1.3,0.6,1.3,1.3
                    v0.2c0,0.7-0.6,1.3-1.3,1.3h-6.1C16.2,7.2,15.6,6.6,15.6,5.9z M12.2,27H1.3V8.3h10.9V27z"/>
                <path class="st0"
                      d="M3.9,20.1h5.6c0.4,0,0.8-0.3,0.8-0.8s-0.3-0.8-0.8-0.8H3.9c-0.4,0-0.8,0.3-0.8,0.8S3.5,20.1,3.9,20.1z"/>
                <path class="st0"
                      d="M3.9,23.5h3.2c0.4,0,0.8-0.3,0.8-0.8S7.6,22,7.2,22H3.9c-0.4,0-0.8,0.3-0.8,0.8S3.5,23.5,3.9,23.5z"/>
                <path class="st0"
                      d="M3.9,16.6h5.6c0.4,0,0.8-0.3,0.8-0.8s-0.3-0.8-0.8-0.8H3.9c-0.4,0-0.8,0.3-0.8,0.8S3.5,16.6,3.9,16.6z"/>
                <path class="st0"
                      d="M3.9,13.2h5.6c0.4,0,0.8-0.3,0.8-0.8s-0.3-0.8-0.8-0.8H3.9c-0.4,0-0.8,0.3-0.8,0.8S3.5,13.2,3.9,13.2z"/>
            </g>
        </symbol>

        <symbol id="icon-search" viewBox="0 0 32 32">
            <g>
                <path d="M31.4,1.8H0.8C0.4,1.8,0.1,1.4,0.1,1s0.3-0.8,0.8-0.8h30.6c0.4,0,0.8,0.3,0.8,0.8S31.8,1.8,31.4,1.8z"/>
            </g>
            <g>
                <path d="M14.4,7.8H0.8C0.4,7.8,0.1,7.4,0.1,7s0.3-0.8,0.8-0.8h13.6c0.4,0,0.8,0.3,0.8,0.8S14.8,7.8,14.4,7.8z"/>
            </g>
            <g>
                <path d="M12.4,13.8H0.8c-0.4,0-0.8-0.3-0.8-0.8s0.3-0.8,0.8-0.8h11.6c0.4,0,0.8,0.3,0.8,0.8S12.8,13.8,12.4,13.8z"/>
            </g>
            <g>
                <path d="M15.4,19.8H0.8c-0.4,0-0.8-0.3-0.8-0.8s0.3-0.8,0.8-0.8h14.6c0.4,0,0.8,0.3,0.8,0.8S15.8,19.8,15.4,19.8z"/>
            </g>
            <path d="M31.4,21.4l-4-4.4c1.2-1.2,2-2.9,2-4.8c0-3.7-3-6.7-6.7-6.7c-3.7,0-6.7,3-6.7,6.7s3,6.7,6.7,6.7
	c1.3,0,2.5-0.4,3.5-1l4,4.5c0.1,0.2,0.4,0.2,0.6,0.2c0.2,0,0.4-0.1,0.5-0.2C31.6,22.2,31.7,21.7,31.4,21.4z M17.6,12.3
	c0-2.9,2.3-5.2,5.2-5.2c2.9,0,5.2,2.3,5.2,5.2s-2.3,5.2-5.2,5.2C19.9,17.4,17.6,15.1,17.6,12.3z"/>
            <g>
                <path d="M31.4,31.8H0.8c-0.4,0-0.8-0.3-0.8-0.8s0.3-0.8,0.8-0.8h30.6c0.4,0,0.8,0.3,0.8,0.8S31.8,31.8,31.4,31.8z"/>
            </g>
            <g>
                <path d="M25.4,25.8H0.8c-0.4,0-0.8-0.3-0.8-0.8s0.3-0.8,0.8-0.8h24.6c0.4,0,0.8,0.3,0.8,0.8S25.8,25.8,25.4,25.8z"/>
            </g>
        </symbol>

        <symbol id="icon-related-posts" viewBox="0 0 32 32">
            <g>
                <path d="M1.6,19.7h11.7c0.9,0,1.6-0.7,1.6-1.6V6.4c0-0.9-0.7-1.6-1.6-1.6H1.6C0.7,4.8,0,5.5,0,6.4v11.7
		C0,19,0.7,19.7,1.6,19.7z M13.3,18.2H6.2l4.1-4.3l3,3.1c0,0,0.1,0.1,0.1,0.1L13.3,18.2C13.4,18.2,13.4,18.2,13.3,18.2z M1.5,6.4
		C1.5,6.3,1.6,6.3,1.5,6.4l11.8-0.1c0,0,0.1,0,0.1,0.1v8.5l-2.6-2.6c-0.1-0.1-0.3-0.2-0.5-0.2c0,0,0,0,0,0c-0.2,0-0.4,0.1-0.5,0.2
		l-5.6,5.9H1.6c0,0-0.1,0-0.1-0.1V6.4z"/>
                <circle cx="5.8" cy="9.1" r="1.2"/>
                <path d="M14.2,22.7H0.8c-0.4,0-0.8,0.3-0.8,0.8s0.3,0.8,0.8,0.8h13.4c0.4,0,0.8-0.3,0.8-0.8S14.6,22.7,14.2,22.7z"/>
                <path d="M9.2,25.7H0.8c-0.4,0-0.8,0.3-0.8,0.8s0.3,0.8,0.8,0.8h8.4c0.4,0,0.8-0.3,0.8-0.8S9.6,25.7,9.2,25.7z"/>
                <path d="M30.4,4.8H18.7c-0.9,0-1.6,0.7-1.6,1.6v11.7c0,0.9,0.7,1.6,1.6,1.6h11.7c0.9,0,1.6-0.7,1.6-1.6V6.4
		C32,5.5,31.3,4.8,30.4,4.8z M18.6,18.1V6.4c0,0,0-0.1,0.1-0.1h11.7c0,0,0.1,0,0.1,0.1v8.5l-2.6-2.6c-0.1-0.1-0.3-0.2-0.5-0.2
		c-0.2,0-0.4,0.1-0.5,0.2l-5.6,5.9L18.6,18.1C18.6,18.2,18.6,18.2,18.6,18.1z M30.4,18.2h-7.1l4.1-4.3l3,3.1c0,0,0.1,0.1,0.1,0.1
		L30.4,18.2C30.5,18.2,30.4,18.2,30.4,18.2z"/>
                <circle cx="22.9" cy="9.1" r="1.2"/>
                <path d="M31.2,22.7H17.8c-0.4,0-0.8,0.3-0.8,0.8s0.3,0.8,0.8,0.8h13.4c0.4,0,0.8-0.3,0.8-0.8S31.6,22.7,31.2,22.7z"/>
                <path d="M26.2,25.7h-8.4c-0.4,0-0.8,0.3-0.8,0.8s0.3,0.8,0.8,0.8h8.4c0.4,0,0.8-0.3,0.8-0.8S26.6,25.7,26.2,25.7z"/>
            </g>
        </symbol>

        <symbol id="icon-post-content" viewBox="0 0 32 32">
            <g>
                <path d="M29.3,0H2.7C1.2,0,0,1.2,0,2.7v26.7C0,30.8,1.2,32,2.7,32h26.7c1.5,0,2.7-1.2,2.7-2.7V2.7
		C32,1.2,30.8,0,29.3,0z M2.7,1.5h26.7c0.6,0,1.2,0.5,1.2,1.2v1.6h-29V2.7C1.5,2,2,1.5,2.7,1.5z M1.5,29.3V5.8h23.3v24.7H2.7
		C2,30.5,1.5,30,1.5,29.3z M29.3,30.5h-3.1V5.8h4.2v23.5C30.5,30,30,30.5,29.3,30.5z"/>
                <polygon points="20.4,26.5 18.3,26.5 18.3,28 21.9,28 21.9,24.5 20.4,24.5 	"/>
                <rect x="9.9" y="26.5" width="6.9" height="1.5"/>
                <polygon points="6.2,24.5 4.7,24.5 4.7,28 8.2,28 8.2,26.5 6.2,26.5 	"/>
                <rect x="4.7" y="13.3" width="1.5" height="4.5"/>
                <rect x="4.7" y="18.9" width="1.5" height="4.5"/>
                <polygon points="4.7,12.2 6.2,12.2 6.2,10.2 8.2,10.2 8.2,8.7 4.7,8.7 	"/>
                <rect x="9.9" y="8.7" width="6.9" height="1.5"/>
                <polygon points="18.3,8.7 18.3,10.2 20.4,10.2 20.4,12.2 21.9,12.2 21.9,8.7 	"/>
                <rect x="20.4" y="18.9" width="1.5" height="4.5"/>
                <rect x="20.4" y="13.3" width="1.5" height="4.5"/>
            </g>
        </symbol>

        <symbol id="icon-header" viewBox="0 0 32 32">
            <g>
                <g>
                    <polygon points="32,32.1 28.7,32.1 28.7,30.6 30.5,30.6 30.5,28.7 32,28.7 		"/>
                </g>
                <g>
                    <path d="M27.5,32.1h-4.9v-1.5h4.9V32.1z M21.5,32.1h-4.9v-1.5h4.9V32.1z M15.4,32.1h-4.9v-1.5h4.9V32.1z M9.4,32.1
			H4.5v-1.5h4.9V32.1z"/>
                </g>
                <g>
                    <polygon points="3.3,32.1 0,32.1 0,28.7 1.5,28.7 1.5,30.6 3.3,30.6 		"/>
                </g>
                <g>
                    <path d="M1.5,27.5H0v-5.3h1.5V27.5z M1.5,20.9H0v-5.3h1.5V20.9z"/>
                </g>
                <g>
                    <polygon points="1.5,14.4 0,14.4 0,11.1 3.3,11.1 3.3,12.6 1.5,12.6 		"/>
                </g>
                <g>
                    <polygon points="32,14.4 30.5,14.4 30.5,12.6 28.7,12.6 28.7,11.1 32,11.1 		"/>
                </g>
                <g>
                    <path d="M32,27.5h-1.5v-5.3H32V27.5z M32,20.9h-1.5v-5.3H32V20.9z"/>
                </g>
            </g>
            <g>
                <path d="M32,9H0V0h32V9z M1.5,7.5h29v-6h-29V7.5z"/>
            </g>
            <g>
                <rect x="4.5" y="11.1" width="4.9" height="1.5"/>
                <rect x="22.6" y="11.1" width="4.9" height="1.5"/>
            </g>
            <path d="M19.5,16.1l-3.7-5.6L12.5,16h2.6v4.6c0,0.5,0.4,0.9,0.9,0.9l0,0c0.5,0,0.9-0.4,0.9-0.9V16L19.5,16.1z"/>
        </symbol>

        <symbol id="icon-footer" viewBox="0 0 32 32">
            <g>
                <g>
                    <polygon points="0,0 3.3,0 3.3,1.5 1.5,1.5 1.5,3.4 0,3.4 		"/>
                </g>
                <g>
                    <path d="M4.5,0h4.9v1.5H4.5V0z M10.5,0h4.9v1.5h-4.9V0z M16.6,0h4.9v1.5h-4.9V0z M22.6,0h4.9v1.5h-4.9V0z"/>
                </g>
                <g>
                    <polygon points="28.7,0 32,0 32,3.4 30.5,3.4 30.5,1.5 28.7,1.5 		"/>
                </g>
                <g>
                    <path d="M30.5,4.6H32v5.3h-1.5V4.6z M30.5,11.2H32v5.3h-1.5V11.2z"/>
                </g>
                <g>
                    <polygon points="30.5,17.7 32,17.7 32,21 28.7,21 28.7,19.5 30.5,19.5 		"/>
                </g>
                <g>
                    <polygon points="0,17.7 1.5,17.7 1.5,19.5 3.3,19.5 3.3,21 0,21 		"/>
                </g>
                <g>
                    <path d="M0,4.6h1.5v5.3H0V4.6z M0,11.2h1.5v5.3H0V11.2z"/>
                </g>
            </g>
            <g>
                <path d="M0,23.1h32v9H0V23.1z M30.5,24.6h-29v6h29V24.6z"/>
            </g>
            <g>
                <rect x="22.6" y="19.5" width="4.9" height="1.5"/>
                <rect x="4.5" y="19.5" width="4.9" height="1.5"/>
            </g>
            <path d="M12.5,16.1l3.7,5.5l3.3-5.5h-2.6v-4.6c0-0.5-0.4-0.9-0.9-0.9l0,0c-0.5,0-0.9,0.4-0.9,0.9v4.6L12.5,16.1z"/>
        </symbol>

        <symbol id="icon-featured-image" viewBox="0 0 32 32">
            <path d="M8.3,19h15.4c1,0,1.8-0.8,1.8-1.8V1.9c0-1-0.8-1.8-1.8-1.8H8.3c-1,0-1.8,0.8-1.8,1.8v15.4
		C6.5,18.2,7.3,19,8.3,19z M8,17.2v-0.4l5.8-5.7l2.6,2.5l-3.9,3.9H8.3C8.1,17.5,8,17.4,8,17.2z M23.7,17.5h-9.1l2.8-2.8l0,0l2.5-2.5
		l4.2,4.4v0.5C24,17.4,23.9,17.5,23.7,17.5z M8.3,1.5h15.4c0.2,0,0.3,0.2,0.3,0.3v12.7l-4.2-4.4l-0.9,1l-1.5,1.5L13.7,9L8,14.7V1.9
		C8,1.7,8.1,1.5,8.3,1.5z"/>
            <path d="M19.2,7.9c1.3,0,2.3-1,2.3-2.3c0-1.3-1-2.3-2.3-2.3s-2.3,1-2.3,2.3C16.9,6.8,17.9,7.9,19.2,7.9z M19.2,4.7
		c0.4,0,0.8,0.4,0.8,0.8c0,0.4-0.4,0.8-0.8,0.8S18.4,6,18.4,5.6C18.4,5.1,18.8,4.7,19.2,4.7z"/>
            <path d="M5.4,23.4h21.2c0.4,0,0.8-0.3,0.8-0.8s-0.3-0.8-0.8-0.8H5.4c-0.4,0-0.8,0.3-0.8,0.8S5,23.4,5.4,23.4z"/>
            <path d="M20.8,30.5h-9.7c-0.4,0-0.8,0.3-0.8,0.8s0.3,0.8,0.8,0.8h9.7c0.4,0,0.8-0.3,0.8-0.8S21.3,30.5,20.8,30.5z"/>
            <path d="M26.6,26.2H5.4c-0.4,0-0.8,0.3-0.8,0.8s0.3,0.8,0.8,0.8h21.2c0.4,0,0.8-0.3,0.8-0.8S27,26.2,26.6,26.2z"/>
        </symbol>

        <symbol id="icon-comments" viewBox="0 0 32 32">
            <g>
                <g>
                    <g>
                        <rect x="10.2" y="3.9" width="21.8" height="1.5"/>
                    </g>
                    <g>
                        <rect x="10.2" y="6.8" width="21.8" height="1.5"/>
                    </g>
                    <g>
                        <path d="M7.9,10.1h-8v-8h8V10.1z M1.4,8.6h5v-5h-5V8.6z"/>
                    </g>
                </g>
                <g>
                    <g>
                        <g>
                            <rect x="19.7" y="12.1" width="12.3" height="1.5"/>
                        </g>
                        <g>
                            <rect x="19.7" y="14.9" width="9.5" height="1.5"/>
                        </g>
                    </g>
                    <g>
                        <path d="M18.1,19.1h-7.9v-7.9h7.9V19.1z M11.7,17.6h4.9v-4.9h-4.9V17.6z"/>
                    </g>
                </g>
                <g>
                    <g>
                        <rect x="10.2" y="23.7" width="21.8" height="1.5"/>
                    </g>
                    <g>
                        <rect x="10.2" y="26.6" width="21.8" height="1.5"/>
                    </g>
                    <g>
                        <path d="M7.9,29.9h-8v-8h8V29.9z M1.4,28.4h5v-5h-5V28.4z"/>
                    </g>
                </g>
            </g>
        </symbol>

        <symbol id="icon-post-meta" viewBox="0 0 32 32">
            <g>
                <g>
                    <path d="M4.1,22.7h-9.9c-0.4,0-0.7-0.3-0.7-0.7c0-2.3,1.3-4.7,3-5.9c-0.8-0.7-1.3-1.8-1.3-2.9c0-2.1,1.7-3.9,3.9-3.9
			c2.2,0,3.9,1.7,3.9,3.9c0,1.1-0.5,2.2-1.3,2.9c1.8,1.2,3,3.6,3,5.9C4.8,22.4,4.5,22.7,4.1,22.7z M-5,21.3h8.4
			c-0.3-2-1.6-3.9-3.2-4.5c-0.3-0.1-0.5-0.4-0.5-0.6c0-0.3,0.2-0.6,0.4-0.7c1-0.4,1.6-1.3,1.6-2.3c0-1.4-1.1-2.5-2.5-2.5
			c-1.4,0-2.5,1.1-2.5,2.5c0,1,0.6,1.9,1.6,2.3c0.3,0.1,0.4,0.4,0.4,0.7c0,0.3-0.2,0.5-0.5,0.6C-3.4,17.4-4.7,19.3-5,21.3z"/>
                </g>
            </g>
            <g>
                <g>
                    <path d="M33.6,23.3c-4,0-7.3-3.3-7.3-7.3c0-4,3.3-7.3,7.3-7.3s7.3,3.3,7.3,7.3C40.9,20,37.6,23.3,33.6,23.3z
			 M33.6,10.2c-3.2,0-5.8,2.6-5.8,5.8c0,3.2,2.6,5.8,5.8,5.8s5.8-2.6,5.8-5.8C39.4,12.8,36.8,10.2,33.6,10.2z"/>
                </g>
                <g>
                    <path d="M36.4,17.8h-2.8c-0.4,0-0.8-0.3-0.8-0.8v-3.8c0-0.4,0.3-0.8,0.8-0.8s0.8,0.3,0.8,0.8v3.1h2.1
			c0.4,0,0.8,0.3,0.8,0.8S36.8,17.8,36.4,17.8z"/>
                </g>
            </g>
            <g>
                <g>
                    <path d="M18.8,22.7c-0.2,0-0.3-0.1-0.5-0.2L15.4,20H7.6c-0.4,0-0.7-0.3-0.7-0.7V10c0-0.4,0.3-0.7,0.7-0.7h14.9
			c0.4,0,0.7,0.3,0.7,0.7v9.3c0,0.4-0.3,0.7-0.7,0.7h-3v2c0,0.3-0.2,0.5-0.4,0.6C19,22.7,18.9,22.7,18.8,22.7z M8.2,18.6h7.4
			c0.2,0,0.3,0.1,0.5,0.2l2,1.7v-1.1c0-0.4,0.3-0.7,0.7-0.7h3v-7.9H8.2V18.6z"/>
                </g>
                <g>
                    <circle cx="11.7" cy="14.4" r="1"/>
                </g>
                <g>
                    <circle cx="14.9" cy="14.4" r="1"/>
                </g>
                <g>
                    <circle cx="18" cy="14.4" r="1"/>
                </g>
            </g>
            <g>
                <path d="M41,5.8H-5c-0.4,0-0.8-0.3-0.8-0.8S-5.4,4.3-5,4.3h46c0.4,0,0.8,0.3,0.8,0.8S41.4,5.8,41,5.8z"/>
            </g>
            <g>
                <path d="M41,27.8H-5c-0.4,0-0.8-0.3-0.8-0.8s0.3-0.8,0.8-0.8h46c0.4,0,0.8,0.3,0.8,0.8S41.4,27.8,41,27.8z"/>
            </g>
        </symbol>

        <symbol id="icon-breadcrumbs" viewBox="0 0 32 32">
            <path d="M24.4,7.1H-0.1v17.9h24.5l7.6-9.3L24.4,7.1z M15.8,8.6L15.8,8.6l6.7,7.5l-6.7,7.4h-5l6.7-7.4l-6.8-7.4H15.8z
	 M1.4,8.6h7.4l0,0l6.8,7.4l-6.7,7.4H1.4V8.6z M23.8,23.4h-5.8l6.7-7.4l-6.8-7.4h6l6.3,7.1L23.8,23.4z"/>
        </symbol>

        <symbol id="icon-author-follow" viewBox="0 0 32 32">
            <path d="M24.3,19c-1,0-2,0.2-2.9,0.6c-1.3-1.9-3-3.5-4.8-4.5c2.3-1.5,3.7-4,3.7-6.9C20.2,3.7,16.6,0,12,0
		C7.4,0,3.8,3.7,3.8,8.2c0,2.8,1.4,5.4,3.7,6.9c-4.4,2.4-7.7,8-7.7,13.7c0,0.4,0.3,0.8,0.8,0.8H17c1.1,2.9,3.9,5,7.3,5
		c4.3,0,7.8-3.5,7.8-7.8S28.5,19,24.3,19z M5.3,8.2c0-3.7,3-6.7,6.8-6.7c3.7,0,6.7,3,6.7,6.7c0,2.8-1.7,5.2-4.2,6.2
		c-0.3,0.1-0.5,0.4-0.5,0.7c0,0.3,0.2,0.6,0.5,0.7c0.6,0.2,1.1,0.5,1.6,0.8l-4.6,2.9l-4-2.8c0.6-0.4,1.2-0.7,1.9-0.9
		c0.3-0.1,0.5-0.4,0.5-0.7c0-0.3-0.2-0.6-0.5-0.7C6.9,13.4,5.3,11,5.3,8.2z M1.3,28c0.2-4,2.2-7.9,5-10.3l4.8,3.3
		c0.1,0.1,0.3,0.1,0.4,0.1c0.1,0,0.3,0,0.4-0.1l5.6-3.5c0.9,0.8,1.8,1.7,2.5,2.8c-2.1,1.4-3.5,3.8-3.5,6.5c0,0.4,0,0.8,0.1,1.2H1.3z
		 M24.3,33c-3.4,0-6.3-2.8-6.3-6.3s2.8-6.3,6.3-6.3s6.3,2.8,6.3,6.3S27.7,33,24.3,33z"/>
            <path d="M25.7,24.4c-0.2-0.2-0.6-0.2-0.8,0c-0.2,0.2-0.2,0.6,0,0.8l1.1,1.1h-4.9c-0.3,0-0.5,0.2-0.5,0.5
		s0.2,0.5,0.5,0.5h5l-1.2,1.1c-0.2,0.2-0.2,0.5,0,0.8c0.1,0.1,0.3,0.2,0.4,0.2c0.1,0,0.3,0,0.4-0.1l2.2-1.9c0.1-0.1,0.2-0.2,0.2-0.4
		c0-0.2-0.1-0.3-0.2-0.4L25.7,24.4z"/>
        </symbol>

        <symbol id="icon-business-follow" viewBox="0 0 32 32">
            <g>
                <path class="st0" d="M27.1,13.8c-0.3,0-0.7,0-1,0.1V7.2h-6.5V4.5c0-1-0.8-1.8-1.8-1.8H7.8C6.8,2.7,6,3.5,6,4.5v2.7H0v18.4h20.5
		c1.4,2.2,3.8,3.7,6.6,3.7c4.3,0,7.8-3.5,7.8-7.8C34.9,17.3,31.4,13.8,27.1,13.8z M7.5,4.5c0-0.1,0.1-0.3,0.3-0.3h10.1
		c0.1,0,0.3,0.1,0.3,0.3v2.7H7.5V4.5z M1.5,8.7h23.1v5.5c-0.3,0.1-0.7,0.3-1,0.4h-8v-1.9H9.6v1.9H1.5V8.7z M14.1,14.2v2.2h-2.9v-2.2
		H14.1z M1.5,24.1v-8h8.1v1.8h5.9v-1.8h6c-1.4,1.4-2.2,3.3-2.2,5.4c0,0.9,0.2,1.8,0.5,2.6H1.5z M27.1,27.8c-3.4,0-6.3-2.8-6.3-6.3
		s2.8-6.2,6.3-6.2s6.3,2.8,6.3,6.2S30.6,27.8,27.1,27.8z"/>
                <path class="st0" d="M28.5,19.1c-0.2-0.2-0.6-0.2-0.8,0c-0.2,0.2-0.2,0.6,0,0.8l1.1,1.1h-4.9c-0.3,0-0.5,0.2-0.5,0.5
		s0.2,0.5,0.5,0.5h5l-1.2,1.1c-0.2,0.2-0.2,0.5,0,0.8c0.1,0.1,0.3,0.2,0.4,0.2c0.1,0,0.3,0,0.4-0.1l2.2-1.9c0.1-0.1,0.2-0.2,0.2-0.4
		c0-0.2-0.1-0.3-0.2-0.4L28.5,19.1z"/>
            </g>
        </symbol>

        <symbol id="icon-author-box" viewBox="0 0 32 32">
            <path d="M28.7,12.8H16.3c-0.4,0-0.8,0.3-0.8,0.8s0.3,0.8,0.8,0.8h12.4c0.4,0,0.8-0.3,0.8-0.8S29.1,12.8,28.7,12.8z"/>
            <path d="M11.6,15.2c0.6-0.6,0.9-1.4,0.9-2.3c0-1.8-1.5-3.3-3.3-3.3c-1.8,0-3.3,1.5-3.3,3.3c0,0.9,0.3,1.7,0.9,2.3
		c-1.4,1-2.3,2.9-2.3,4.7c0,0.4,0.3,0.8,0.8,0.8h7.9c0.4,0,0.8-0.3,0.8-0.8C13.9,18.1,12.9,16.3,11.6,15.2z M6.1,19.2
		c0.3-1.4,1.3-2.8,2.4-3.2C8.8,15.9,9,15.6,9,15.3c0-0.3-0.2-0.6-0.5-0.7c-0.7-0.3-1.1-0.9-1.1-1.7c0-1,0.8-1.8,1.8-1.8
		c1,0,1.8,0.8,1.8,1.8c0,0.7-0.4,1.4-1.1,1.7c-0.3,0.1-0.5,0.4-0.5,0.7c0,0.3,0.2,0.6,0.5,0.7c1.1,0.4,2.1,1.8,2.4,3.2H6.1z"/>
            <path d="M30.5,6H1.8C0.8,6,0,6.8,0,7.8v15.7c0,1,0.8,1.8,1.8,1.8h28.7c1,0,1.8-0.8,1.8-1.8V7.8C32.3,6.8,31.5,6,30.5,6
		z M30.8,23.5c0,0.2-0.1,0.3-0.3,0.3H1.8c-0.2,0-0.3-0.1-0.3-0.3V7.8c0-0.2,0.1-0.3,0.3-0.3h28.7c0.2,0,0.3,0.1,0.3,0.3V23.5z"/>
            <path d="M24.7,15.8h-8.4c-0.4,0-0.8,0.3-0.8,0.8s0.3,0.7,0.8,0.7h8.4c0.4,0,0.8-0.3,0.8-0.7S25.1,15.8,24.7,15.8z"/>
        </symbol>

        <symbol id="icon-theme-logo" viewBox="0 0 32 32">
            <path d="M16,32c-1.5,0-3-0.6-4.1-1.7L1.7,20.1C0.6,19,0,17.5,0,16s0.6-3,1.7-4.1L11.9,1.7C13,0.6,14.5,0,16,0
		s3,0.6,4.1,1.7l10.2,10.2C31.4,13,32,14.5,32,16s-0.6,3-1.7,4.1L20.1,30.3C19,31.4,17.5,32,16,32z M16,1.5c-1.1,0-2.2,0.4-3,1.2
		L2.8,13c-0.8,0.8-1.2,1.9-1.2,3c0,1.1,0.4,2.2,1.2,3L13,29.2c0.8,0.8,1.9,1.2,3,1.2c1.1,0,2.2-0.4,3-1.2L29.2,19
		c0.8-0.8,1.2-1.9,1.2-3c0-1.1-0.4-2.2-1.2-3L19,2.8C18.2,2,17.1,1.5,16,1.5z"/>
        </symbol>

        <symbol id="icon-post-list" viewBox="0 0 32 32">
            <path class="st0" d="M10.8,4.2H4.2v6.6h6.6V4.2z M9.3,9.3H5.7V5.7h3.6V9.3z"/>
            <path class="st0" d="M31.4,0.1H0.7c-0.4,0-0.8,0.3-0.8,0.8v13.3c0,0.4,0.3,0.8,0.8,0.8h30.7c0.4,0,0.8-0.3,0.8-0.8V0.8
                    C32.1,0.4,31.8,0.1,31.4,0.1z M30.6,13.4H1.4V1.6h29.2V13.4z"/>
            <path class="st0"
                  d="M13.1,6.7h13.7c0.4,0,0.8-0.3,0.8-0.8s-0.3-0.8-0.8-0.8H13.1c-0.4,0-0.8,0.3-0.8,0.8S12.7,6.7,13.1,6.7z"/>
            <path class="st0"
                  d="M13.1,9.6h8.7c0.4,0,0.8-0.3,0.8-0.8s-0.3-0.8-0.8-0.8h-8.7c-0.4,0-0.8,0.3-0.8,0.8S12.7,9.6,13.1,9.6z"/>
            <path class="st0" d="M10.8,21.4H4.2V28h6.6V21.4z M9.3,26.5H5.7v-3.6h3.6V26.5z"/>
            <path class="st0" d="M31.4,17.3H0.7c-0.4,0-0.8,0.3-0.8,0.8v13.3c0,0.4,0.3,0.8,0.8,0.8h30.7c0.4,0,0.8-0.3,0.8-0.8V18
                    C32.1,17.6,31.8,17.3,31.4,17.3z M30.6,30.6H1.4V18.8h29.2V30.6z"/>
            <path class="st0"
                  d="M13.1,23.8h13.7c0.4,0,0.8-0.3,0.8-0.8s-0.3-0.8-0.8-0.8H13.1c-0.4,0-0.8,0.3-0.8,0.8S12.7,23.8,13.1,23.8z"/>
            <path class="st0"
                  d="M13.1,26.8h8.7c0.4,0,0.8-0.3,0.8-0.8s-0.3-0.8-0.8-0.8h-8.7c-0.4,0-0.8,0.3-0.8,0.8S12.7,26.8,13.1,26.8z"/>
        </symbol>

        <symbol id="icon-dynamic-styled-list" viewBox="0 0 32 32">
            <path class="st0"
                  d="M13.1,10.3h13c0.4,0,0.8-0.3,0.8-0.8s-0.3-0.8-0.8-0.8h-13c-0.4,0-0.8,0.3-0.8,0.8S12.7,10.3,13.1,10.3z"/>
            <path class="st0" d="M6.8,11.3c0.1,0.1,0.3,0.2,0.5,0.2c0,0,0,0,0,0c0.2,0,0.4-0.1,0.5-0.3l2.4-2.8c0.3-0.3,0.2-0.8-0.1-1.1
                    C9.9,7.2,9.4,7.2,9.2,7.5L7.3,9.7L6.8,9.2c-0.3-0.3-0.8-0.3-1.1,0c-0.3,0.3-0.3,0.8,0,1.1L6.8,11.3z"/>
            <path class="st0" d="M5.3,14.8h21.5c2.9,0,5.3-2.4,5.3-5.3s-2.4-5.3-5.3-5.3H5.3C2.3,4.2,0,6.6,0,9.5S2.3,14.8,5.3,14.8z M5.3,5.8
                    h21.5c2,0,3.7,1.7,3.7,3.7s-1.7,3.7-3.7,3.7H5.3c-2,0-3.7-1.7-3.7-3.7S3.2,5.8,5.3,5.8z"/>
            <path class="st0"
                  d="M26.1,21.8h-13c-0.4,0-0.8,0.3-0.8,0.8s0.3,0.8,0.8,0.8h13c0.4,0,0.8-0.3,0.8-0.8S26.5,21.8,26.1,21.8z"/>
            <path class="st0" d="M9.2,20.5l-1.9,2.2l-0.5-0.5c-0.3-0.3-0.8-0.3-1.1,0c-0.3,0.3-0.3,0.8,0,1.1l1,1.1c0.1,0.1,0.3,0.2,0.5,0.2
                    c0,0,0,0,0,0c0.2,0,0.4-0.1,0.5-0.3l2.4-2.8c0.3-0.3,0.2-0.8-0.1-1.1C9.9,20.2,9.4,20.2,9.2,20.5z"/>
            <path class="st0" d="M26.7,17.2H5.3c-2.9,0-5.3,2.4-5.3,5.3s2.4,5.3,5.3,5.3h21.5c2.9,0,5.3-2.4,5.3-5.3S29.7,17.2,26.7,17.2z
                     M26.7,26.2H5.3c-2,0-3.7-1.7-3.7-3.7s1.7-3.7,3.7-3.7h21.5c2,0,3.7,1.7,3.7,3.7S28.8,26.2,26.7,26.2z"/>
        </symbol>


        <symbol id="icon-prev-next" viewBox="0 0 32 32">
            <g>
                <path class="st0" d="M10.21,18.63L6.98,16.1l3.23-2.46c0.33-0.25,0.39-0.72,0.14-1.05c-0.25-0.33-0.72-0.39-1.05-0.14l-4,3.05
		C5.11,15.64,5,15.86,5,16.09c0,0.23,0.1,0.45,0.29,0.6l4,3.13c0.14,0.11,0.3,0.16,0.46,0.16c0.22,0,0.44-0.1,0.59-0.29
		C10.6,19.36,10.54,18.89,10.21,18.63z"/>
                <path class="st0" d="M22.73,12.2c-0.32-0.26-0.79-0.22-1.06,0.1c-0.26,0.32-0.22,0.79,0.1,1.06l3.28,2.71l-3.27,2.56
		c-0.33,0.26-0.38,0.73-0.13,1.05c0.15,0.19,0.37,0.29,0.59,0.29c0.16,0,0.32-0.05,0.46-0.16l4-3.13c0.18-0.14,0.29-0.35,0.29-0.58
		s-0.1-0.44-0.27-0.59L22.73,12.2z"/>
                <path class="st0" d="M29.73,4.84H2.27c-1.24,0-2.25,1.01-2.25,2.25v17.82c0,1.24,1.01,2.25,2.25,2.25h27.47
		c1.24,0,2.25-1.01,2.25-2.25V7.09C31.98,5.85,30.97,4.84,29.73,4.84z M1.52,24.91V7.09c0-0.41,0.34-0.75,0.75-0.75h12.98v19.32
		H2.27C1.85,25.66,1.52,25.32,1.52,24.91z M30.48,24.91c0,0.41-0.34,0.75-0.75,0.75H16.75V6.34h12.98c0.41,0,0.75,0.34,0.75,0.75
		V24.91z"/>
            </g>
        </symbol>


        <symbol id="icon-theme-calendar" viewBox="0 0 32 32">
            <path class="st0" d="M12.8,19.6H19v-6.2h-6.2V19.6z M14.3,14.8h3.2v3.2h-3.2V14.8z"/>
            <path class="st0" d="M5.1,19.6h6.2v-6.2H5.1V19.6z M6.6,14.8h3.2v3.2H6.6V14.8z"/>
            <path class="st0" d="M20.7,19.6h6.2v-6.2h-6.2V19.6z M22.2,14.8h3.2v3.2h-3.2V14.8z"/>
            <path class="st0" d="M12.8,27.4H19v-6.2h-6.2V27.4z M14.3,22.7h3.2v3.2h-3.2V22.7z"/>
            <path class="st0" d="M5.1,27.4h6.2v-6.2H5.1V27.4z M6.6,22.7h3.2v3.2H6.6V22.7z"/>
            <path class="st0" d="M20.7,27.4h6.2v-6.2h-6.2V27.4z M22.2,22.7h3.2v3.2h-3.2V22.7z"/>
            <path class="st0" d="M30.2,3.1h-4.8V0.8c0-0.4-0.3-0.8-0.8-0.8s-0.8,0.3-0.8,0.8v2.4H8.1V0.8C8.1,0.3,7.7,0,7.3,0S6.6,0.3,6.6,0.8
		v2.4H1.8C0.8,3.1,0,3.9,0,4.9V32H32V4.9C32,3.9,31.2,3.1,30.2,3.1z M1.8,4.6h4.8v1.3c0,0.4,0.3,0.8,0.8,0.8s0.8-0.3,0.8-0.8V4.6
		h15.8v1.3c0,0.4,0.3,0.8,0.8,0.8s0.8-0.3,0.8-0.8V4.6h4.8c0.2,0,0.3,0.1,0.3,0.3v3.4h-29V4.9C1.5,4.7,1.6,4.6,1.8,4.6z M1.5,30.6
		V9.8h29v20.8H1.5z"/>
        </symbol>

        <symbol id="icon-switch" viewBox="0 0 576 512">
            <path d="M384 96c42.738 0 82.917 16.643 113.137 46.863S544 213.262 544 256s-16.643 82.917-46.863 113.137S426.738 416 384 416H192c-42.738 0-82.917-16.643-113.137-46.863S32 298.738 32 256s16.643-82.917 46.863-113.137S149.262 96 192 96h192m0-32H192C85.961 64 0 149.961 0 256s85.961 192 192 192h192c106.039 0 192-85.961 192-192S490.039 64 384 64zm-192 96c52.935 0 96 43.065 96 96s-43.065 96-96 96-96-43.065-96-96 43.065-96 96-96m0-32c-70.692 0-128 57.307-128 128s57.308 128 128 128 128-57.307 128-128-57.308-128-128-128z"/>
        </symbol>

        <symbol id="icon-ttb" viewBox="0 0 21 22">
            <g fill="" fill-rule="nonzero">
                <path d="M1 1v3.25h17.25V1H1zM0 0h19.25v5.25H0V0zM7.125 7.125v3.25h5v-3.25h-5zm-1-1h7v5.25h-7v-5.25zM6.125 12.13v5.291l1-1.05v-3.235h5l1-1.006zM9.291 17.598c.85-.679 1.998-1.3 3.446-1.868.492-.193.908.409.554.8-1.29 1.428-2.19 2.388-2.71 2.887-.316.302-.596.704-.839 1.206 2.9-.145 4.919-1.186 6.11-3.116 1.044-1.69 2.109-2.984 3.202-3.88-2.155-.035-4.392.428-6.713 1.392-1.715.713-2.985 1.811-3.818 3.31a6.7 6.7 0 0 1 .768-.73zm1.497.177a8.265 8.265 0 0 0-.873.604c-.747.598-1.58 1.687-2.48 3.264-.276.482-1.014.224-.929-.325.548-3.517 2.375-5.944 5.451-7.222 2.988-1.242 5.869-1.699 8.636-1.366a.5.5 0 0 1 .176.938c-1.355.726-2.716 2.179-4.066 4.364-1.491 2.416-4.087 3.616-7.718 3.609a.5.5 0 0 1-.47-.669c.348-.97.803-1.731 1.373-2.277.222-.213.523-.52.9-.92z"/>
            </g>
        </symbol>

        <symbol id="icon-ttb-strong" viewBox="0 0 18 20">
            <g fill="#FFF" fill-rule="evenodd">
                <path d="M5.37 10.742v3.452c.384-.383.922-.843 1.535-1.227v-.69h.998c1.61-1.075 2.915-1.382 3.529-1.535H5.371zM0 4.604h16.88V0H0v4.604zm1.534-1.535h13.811V1.535H1.535v1.534zM5.37 9.975h6.139V5.37H5.37v4.604zM6.906 8.44h3.07V6.905h-3.07V8.44z"/>
                <path d="M4.22 19.872s-.537-1.304.384-3.453c.92-2.148 3.529-3.99 5.754-4.68 2.225-.69 4.22-.92 5.14-1.074.921-.153 1.535 0 1.765 0 .23 0 .46.23.46.23s-.613 0-.92.307c-.307.307-1.381 1.458-1.611 2.072-.23.614-1.381 2.455-2.149 3.299-.767.844-1.61 1.458-3.529 1.918-1.918.46-3.222.154-3.222.154s1.074-2.456 2.838-3.837c1.688-1.304 4.527-2.532 4.527-2.532s-2.915.92-4.527 1.842c-1.688.92-2.992 1.918-3.99 3.53-.997 1.61-.92 2.224-.92 2.224"/>
            </g>
        </symbol>

        <symbol id="icon-tar" viewBox="0 0 21 21">
            <g fill="" fill-rule="nonzero">
                <path d="M5.53 15.877c.494-.19.906.417.547.806-1.027 1.113-1.746 1.86-2.162 2.251-.203.19-.388.435-.553.734 2.178-.145 3.694-.936 4.596-2.366.76-1.204 1.537-2.154 2.333-2.847-1.61.017-3.278.375-5.006 1.077-1.028.418-1.85 1.007-2.472 1.774.68-.52 1.585-.994 2.717-1.429zm-4.098 4.765c-.28.478-1.013.216-.926-.33.442-2.777 1.921-4.698 4.402-5.706 2.392-.972 4.7-1.33 6.917-1.069a.5.5 0 0 1 .174.94c-1.06.555-2.13 1.673-3.195 3.359-1.208 1.914-3.305 2.862-6.225 2.856a.5.5 0 0 1-.468-.672c.196-.536.436-.994.721-1.37-.436.479-.904 1.143-1.4 1.992z"/>
                <path d="M11.083 8.328l-1.691 4.16a.5.5 0 0 1-.338.297L4.58 13.944a.5.5 0 0 1-.596-.653L8.458.83A.5.5 0 0 1 8.928.5h4.037a.5.5 0 0 1 .468.326l7.036 18.926a.5.5 0 0 1-.4.67c-2.738.378-4.616-.622-5.488-2.955a908.785 908.785 0 0 0-3.498-9.139zm-5.838 4.41l3.315-.858 2.07-5.095a.5.5 0 0 1 .93.007c1.852 4.777 3.172 8.218 3.958 10.325.634 1.697 1.86 2.478 3.787 2.375L12.617 1.5H9.28L5.245 12.738z"/>
            </g>
        </symbol>

        <symbol id="icon-tar-strong" viewBox="0 0 18 20">
            <g fill="" fill-rule="evenodd">
                <path d="M17.455 19h-.208c-2.26 0-4.274-1.524-5.03-3.804l-3.05-9.2-1.829 5.511c-.495.094-.948.192-1.227.256-.645.145-1.491.347-2.119.615-.37.159-.728.317-1.083.495L7.178 0h3.976l6.3 19z"/>
                <path d="M10.667 12.209c-.19.003-.262.032-.397.091-.155.065-.314.185-.435.304l-.296.316c-.028.031-.028.037-.048.067-.551.766-.675.888-1.108 1.858-.201.453-.432.876-.681 1.293-.171.284-.328.57-.522.837-.02.028-.033.04-.052.064-.119.167-.273.316-.416.46-.095.096-.214.188-.323.271-.095.067-.185.141-.29.203l-.154.093c-.034.021-.044.033-.077.051l-.075.041c-.03.015-.058.025-.089.04-.612.344-1.419.568-2.118.662l-.43.058c-.125.021-.467.04-.782.046-.262.004-.504 0-.581-.016l.047-.136c.102-.256.216-.506.34-.748.021-.039.032-.072.056-.114l.252-.468.63-.971.575-.666c.016-.018.024-.03.04-.049.025-.024.028-.02.05-.042l.135-.129c.019-.014.027-.024.05-.04.035-.03.05-.048.087-.078l.61-.47c.204-.15.425-.288.635-.424l.66-.398c.249-.138.676-.388.911-.5l.69-.358c-.1.012-.229.077-.323.114l-.319.12-.627.25c-.307.117-.611.272-.91.406l-.577.29c-.215.099-.552.294-.77.432-.245.151-.476.329-.716.488l-.8.628c-.019.016-.038.03-.057.047l-.453.429c-.134.155-.293.304-.419.468-.022.03-.022.036-.049.067-.117.134-.22.285-.322.433-.149.224-.287.457-.414.695l-.21.444C.51 18.855.167 19.75.152 20H.127c0-.032-.095-.44-.123-.791L0 18.918l.002-.03c.022-.189.018-.314.053-.554.087-.662.343-1.33.677-1.893l.343-.544c.095-.142.466-.606.576-.7.107-.095.203-.238.318-.333.05-.042.099-.1.154-.147.057-.048.098-.094.156-.14l.327-.27c.333-.268.69-.508 1.06-.715.395-.22.787-.4 1.199-.582.536-.236 1.26-.414 1.812-.542.582-.14 2.058-.45 2.768-.464l.152-.002c.368-.007.936 0 1.07.207"/>
            </g>
        </symbol>

        <symbol id="icon-template-settings-page" viewBox="0 0 17 20">
            <g fill="none" fill-rule="evenodd" stroke-linecap="round" stroke-linejoin="round" stroke-width="1.5">
                <path d="M3.25 11.125h8.08M15.34 7.545H8.875V1M3.25 14.5h8.08"/>
                <path d="M13.93 19H2.615A1.627 1.627 0 0 1 1 17.364V2.636C1 1.733 1.724 1 2.616 1h6.465l6.464 6.545v9.819c0 .903-.724 1.636-1.616 1.636z"/>
            </g>
        </symbol>

        <symbol id="icon-template-settings-standard" viewBox="0 0 22 22">
            <path fill="none" stroke="#94A3B0" opacity=".8" stroke-linecap="round" stroke-linejoin="round"
                  stroke-width="2"
                  d="M1.907 17.364c6.35 0 10.59-1.52 13.43-3.628l-.727-3.645 3.63.727C21.54 6.262 20.96 1 20.96 1 1.908 1 1 21 1 21"/>
        </symbol>

        <symbol id="icon-template-settings-image" viewBox="0 0 29 27">
            <defs>
                <path id="prefix__a"
                      d="M20.811 11.294C22.925 10.297 25.321 9.866 28 10l-.307 15.861h-15.47c.107-1.824.386-3.508.836-5.05h7.752zm0-10.705v10.705C19.418 11.95 18.148 12.852 17 14c-1.839 1.839-3.152 4.109-3.94 6.81l-12.471.001V.59H20.81z"/>
            </defs>
            <g fill="none" fill-rule="evenodd">
                <mask id="prefix__b" fill="#fff">
                    <use xlink:href="#prefix__a"/>
                </mask>
                <path stroke="#94A3B0" stroke-linecap="round" stroke-linejoin="round" stroke-width="1.8"
                      d="M2.378 17.308L8.241 9.854 15.758 19.41M12.572 6.668c0 1.055.857 1.911 1.912 1.911s1.91-.856 1.91-1.911c0-1.055-.855-1.911-1.91-1.911s-1.912.856-1.912 1.91z"
                      mask="url(#prefix__b)"/>
                <path stroke="#94A3B0" stroke-linecap="round" stroke-linejoin="round" stroke-width="1.8"
                      d="M16.013 19.41H5.309c-1.97 0-3.568-1.597-3.568-3.568V5.14c0-1.97 1.598-3.568 3.568-3.568h10.704c1.97 0 3.568 1.597 3.568 3.568v10.703c0 1.97-1.598 3.568-3.568 3.568z"
                      mask="url(#prefix__b)"/>
                <path stroke="#94A3B0" stroke-linecap="round" stroke-linejoin="round" stroke-width="1.8"
                      d="M14.458 22.712c4.248 0 7.085-1.016 8.985-2.427l-.487-2.438 2.428.486c2.208-3.048 1.82-6.568 1.82-6.568-12.746 0-13.353 13.38-13.353 13.38"/>
            </g>
        </symbol>

        <symbol id="icon-template-settings-audio" viewBox="0 0 28 26">
            <g fill="none" fill-rule="evenodd">
                <g stroke-linecap="round" stroke-linejoin="round" stroke-width="1.8">
                    <path d="M3.763.796c1.126 1.501 1.796 3.368 1.796 5.389 0 2.023-.67 3.89-1.796 5.391M.97 3.388c.737 1.118 1.176 2.507 1.176 4.011 0 1.506-.439 2.896-1.177 4.013"
                          transform="translate(1 1) translate(16.517 1.319)"/>
                </g>
                <path fill="#FFF" fill-rule="nonzero" stroke="#FFF"
                      d="M26.242 10.747c.114 1.85-.174 3.805-1.175 5.705-.21.397-.446.78-.712 1.147-.293.404-.775.619-1.264.573-.14.551-.296 1.034-.637 1.362-2.023 1.516-4.546 2.36-7.766 2.53-.23.726-.446 1.204-.652 1.514-.397.6-.794.713-1.2.694-.386-.017-.728-.19-.97-.454-.241-.265-.382-.622-.365-1.008.058-.744.14-1.353.29-2.087.312-1.525.818-3.051 1.565-4.484 1.125-2.156 2.668-3.874 4.655-5.037 1.872-1.096 4.141-1.702 6.84-1.702.356 0 .685.134.934.357.248.223.418.535.457.89z"
                      transform="translate(1 1)"/>
                <path stroke-linecap="round" stroke-linejoin="round" stroke-width="1.8"
                      d="M4.11 3.912h1.797L13.093.319V14.69l-7.186-3.593H4.11c-1.983 0-3.593-1.61-3.593-3.592 0-1.984 1.61-3.593 3.593-3.593zM13.657 20.39c3.801 0 6.34-.91 8.04-2.172l-.435-2.182 2.173.435c1.976-2.728 1.63-5.878 1.63-5.878-11.408 0-11.951 11.974-11.951 11.974"
                      transform="translate(1 1)"/>
            </g>
        </symbol>

        <symbol id="icon-template-settings-video" viewBox="0 0 30 25">
            <g fill="none" fill-rule="evenodd">
                <g stroke-linecap="round" stroke-linejoin="round" stroke-width="1.8">
                    <path d="M13.45 14.984H2.387c-1.012 0-1.834-.821-1.834-1.835V2.086c0-1.014.822-1.835 1.834-1.835H13.45c1.013 0 1.834.821 1.834 1.835V13.15c0 1.014-.821 1.835-1.834 1.835zM15.285 4.801L20.774 1.984 20.774 13.251 15.285 10.434" transform="translate(1 1)"/>
                </g>
                <path d="M28.143 9.758c.113 1.828-.172 3.765-1.164 5.647-.208.393-.442.772-.705 1.136-.271.373-.716.572-1.169.532-.26.636-.403 1.084-.72 1.389-2.014 1.508-4.541 2.346-7.771 2.506-.235.75-.453 1.24-.661 1.555-.368.555-.735.666-1.112.65-.359-.017-.677-.177-.9-.423-.225-.245-.356-.577-.34-.935.057-.736.14-1.342.288-2.072.31-1.516.813-3.033 1.556-4.457 1.116-2.14 2.646-3.844 4.617-4.998C21.92 9.2 24.172 8.6 26.85 8.6c.332 0 .637.125.868.332.23.207.388.496.425.826z" transform="translate(1 1)"/>
                <path stroke="#94A3B0" stroke-linecap="round" stroke-linejoin="round" stroke-width="1.8" d="M15.546 19.852c3.823 0 6.376-.914 8.086-2.184l-.438-2.195 2.185.438C27.367 13.168 27.02 10 27.02 10 15.545 10 15 22.042 15 22.042" transform="translate(1 1)"/>
            </g>
        </symbol>

        <symbol id="icon-filter-video" viewBox="0 0 17 13">
            <g fill="none" fill-rule="evenodd" stroke="#FFF" stroke-linecap="round" stroke-linejoin="round">
                <path d="M9.825 10.945H1.743c-.74 0-1.34-.6-1.34-1.34V1.523c0-.74.6-1.34 1.34-1.34h8.082c.74 0 1.34.6 1.34 1.34v8.08c0 .741-.6 1.341-1.34 1.341z"
                      transform="translate(1 1)"/>
                <path d="M11.165 3.507L15.174 1.449 15.174 9.679 11.165 7.621" transform="translate(1 1)"/>
            </g>
        </symbol>

        <symbol id="icon-filter-sound" viewBox="0 0 17 13">
            <g fill="none" fill-rule="evenodd" stroke="#FFF" stroke-linecap="round" stroke-linejoin="round">
                <g>
                    <path d="M2 0c.826 1.101 1.317 2.47 1.317 3.952 0 1.484-.491 2.852-1.317 3.954M0 1c.541.82.863 1.839.863 2.942C.863 5.046.541 6.065 0 6.885"
                          transform="translate(1 1) translate(12.112 1.967)"/>
                </g>
                <path d="M2.635 2.635h1.317L9.222 0v10.54l-5.27-2.636H2.635C1.18 7.904 0 6.724 0 5.27c0-1.455 1.18-2.635 2.635-2.635z"
                      transform="translate(1 1)"/>
            </g>
        </symbol>

        <symbol id="icon-filter-image" viewBox="0 0 15 16">
            <g fill="none" fill-rule="evenodd" stroke="#FFF" stroke-linecap="round" stroke-linejoin="round">
                <path d="M1.016 12.016L5.335 6.524 10.874 13.566M8.527 4.176c0 .778.63 1.409 1.408 1.409.778 0 1.409-.631 1.409-1.409 0-.777-.631-1.408-1.409-1.408-.777 0-1.408.63-1.408 1.408z"
                      transform="translate(0 1)"/>
                <path d="M11.062 13.566H3.175c-1.452 0-2.629-1.178-2.629-2.63V3.05c0-1.452 1.177-2.63 2.63-2.63h7.886c1.452 0 2.629 1.178 2.629 2.63v7.887c0 1.451-1.177 2.629-2.629 2.629z"
                      transform="translate(0 1)"/>
            </g>
        </symbol>

        <symbol id="icon-filter-blog" viewBox="0 0 16 15">
            <path fill="none" fill-rule="evenodd" stroke="#FFF" stroke-linecap="round" stroke-linejoin="round"
                  d="M1.635 12.455c4.444 0 7.413-1.064 9.401-2.54l-.509-2.551 2.54.509C15.378 4.683 14.973 1 14.973 1 1.635 1 1 15 1 15"/>
        </symbol>

        <symbol id="ttd-lock" viewBox="0 0 448 512">
            <path d="M400 224h-24v-72C376 68.2 307.8 0 224 0S72 68.2 72 152v72H48c-26.5 0-48 21.5-48 48v192c0 26.5 21.5 48 48 48h352c26.5 0 48-21.5 48-48V272c0-26.5-21.5-48-48-48zm-104 0H152v-72c0-39.7 32.3-72 72-72s72 32.3 72 72v72z"/>
        </symbol>

        <symbol id="ttd-question-circle-light" viewBox="0 0 512 512">
            <path d="M256 340c-15.464 0-28 12.536-28 28s12.536 28 28 28 28-12.536 28-28-12.536-28-28-28zm7.67-24h-16c-6.627 0-12-5.373-12-12v-.381c0-70.343 77.44-63.619 77.44-107.408 0-20.016-17.761-40.211-57.44-40.211-29.144 0-44.265 9.649-59.211 28.692-3.908 4.98-11.054 5.995-16.248 2.376l-13.134-9.15c-5.625-3.919-6.86-11.771-2.645-17.177C185.658 133.514 210.842 116 255.67 116c52.32 0 97.44 29.751 97.44 80.211 0 67.414-77.44 63.849-77.44 107.408V304c0 6.627-5.373 12-12 12zM256 40c118.621 0 216 96.075 216 216 0 119.291-96.61 216-216 216-119.244 0-216-96.562-216-216 0-119.203 96.602-216 216-216m0-32C119.043 8 8 119.083 8 256c0 136.997 111.043 248 248 248s248-111.003 248-248C504 119.083 392.957 8 256 8z"/>
        </symbol>

        <symbol id="ttd-icon-three-dots" viewBox="0 0 4 13">
            <path d="M1.56 4.94a1.56 1.56 0 1 1 0 3.12 1.56 1.56 0 0 1 0-3.12zM0 1.56a1.56 1.56 0 1 0 3.12 0 1.56 1.56 0 0 0-3.12 0zm0 9.88a1.56 1.56 0 1 0 3.12 0 1.56 1.56 0 0 0-3.12 0z"/>
        </symbol>

        <symbol id="ttd-no-sections" viewBox="0 0 121 80">
            <path fill="#94A3B0" fill-rule="nonzero"
                  d="M110.288 33.333H100.27v-10c0-5.523-4.49-10-10.027-10H56.82L43.45 0H10.028C4.49 0 0 4.477 0 10v60c0 5.523 4.49 10 10.027 10h80.438c5.863 0 11.308-3.07 14.33-8.092l14.09-23.43c3.997-6.642-.798-15.145-8.597-15.145zM10.028 6.667h30.654L54.052 20h36.192a3.338 3.338 0 0 1 3.342 3.333v10H35.76a16.726 16.726 0 0 0-14.33 8.092L6.684 65.931V10a3.338 3.338 0 0 1 3.342-3.333zm103.131 38.381l-14.096 23.43a10.032 10.032 0 0 1-8.598 4.855H9.363l17.134-28.478A10.033 10.033 0 0 1 35.095 40h75.198c2.598 0 4.203 2.827 2.866 5.048z"
                  opacity=".5"/>
        </symbol>
        <symbol id="ttd-del-close" viewBox="0 0 320 512">
            <path d="M193.94 256L296.5 153.44l21.15-21.15c3.12-3.12 3.12-8.19 0-11.31l-22.63-22.63c-3.12-3.12-8.19-3.12-11.31 0L160 222.06 36.29 98.34c-3.12-3.12-8.19-3.12-11.31 0L2.34 120.97c-3.12 3.12-3.12 8.19 0 11.31L126.06 256 2.34 379.71c-3.12 3.12-3.12 8.19 0 11.31l22.63 22.63c3.12 3.12 8.19 3.12 11.31 0L160 289.94 262.56 392.5l21.15 21.15c3.12 3.12 8.19 3.12 11.31 0l22.63-22.63c3.12-3.12 3.12-8.19 0-11.31L193.94 256z"/>
        </symbol>
        <symbol id="ttd-edit-check" viewBox="0 0 12 9">
            <path fill="#FFF" fill-rule="evenodd"
                  d="M10.265.445a.253.253 0 0 1 .187-.07c.078 0 .149.023.211.07l.656.68c.063.047.094.11.094.188a.291.291 0 0 1-.094.21L4.29 8.555a.253.253 0 0 1-.188.07.343.343 0 0 1-.211-.07L.772 5.415a.223.223 0 0 1-.093-.188c0-.079.031-.149.093-.211l.657-.657a.291.291 0 0 1 .21-.093c.079 0 .141.03.188.093l2.274 2.274L10.265.445z"/>
        </symbol>

        <symbol id="icon-arrow-alt-right-light" viewBox="0 0 448.012 512">
            <path d="M32 212.573C32 201.211 41.211 192 52.572 192h171.437V75.021c0-7.125 8.612-10.695 13.653-5.66l172.303 172.083c8.046 8.036 8.047 21.076 0 29.112L237.662 442.64c-5.041 5.035-13.653 1.464-13.653-5.66V320H52.572C41.211 320 32 310.789 32 299.427v-86.854m-32 0v86.855C0 328.416 23.584 352 52.572 352h139.437v84.979c0 35.507 43.04 53.497 68.266 28.302l172.303-172.083c20.576-20.55 20.58-53.842 0-74.396L260.276 46.719c-25.122-25.091-68.266-7.351-68.266 28.302V160H52.572C23.584 160 0 183.584 0 212.573z"/>
        </symbol>
        <svg id="icon-ttb-skin-colored" viewBox="0 0 21 16">
            <g fill="none" fill-rule="evenodd">
                <path fill="#1EA9EB"
                      d="M0 5h17V0H0zM6 10h1.565c.255-.244.464-.439.626-.584.225-.2.494-.31.809-.328.392-.02.715.078.968.294.142.12.372.327.693.618H12V6H6M6 16h4.18l-2.689-2.786a7.88 7.88 0 0 1-.466-.492 1.455 1.455 0 0 1-.33-.722H6v4z"/>
                <path fill="#29A428" fill-rule="nonzero"
                      d="M18.63 5.984l-6.761 7.002-2.392-2.478a.507.507 0 0 0-.733 0L8 11.277a.535.535 0 0 0 0 .739l3.502 3.627a.507.507 0 0 0 .733 0l7.869-8.151a.535.535 0 0 0 0-.74l-.743-.768a.507.507 0 0 0-.733 0z"/>
            </g>
        </svg>
        <symbol id="icon-ttb-skin" viewBox="0 0 21 16">
            <path d="M0 5h17V0H0zM6 10h1.565c.255-.244.464-.439.626-.584.225-.2.494-.31.809-.328.392-.02.715.078.968.294.142.12.372.327.693.618H12V6H6M6 16h4.18l-2.689-2.786a7.88 7.88 0 0 1-.466-.492 1.455 1.455 0 0 1-.33-.722H6v4z"/>
            <path d="M18.63 5.984l-6.761 7.002-2.392-2.478a.507.507 0 0 0-.733 0L8 11.277a.535.535 0 0 0 0 .739l3.502 3.627a.507.507 0 0 0 .733 0l7.869-8.151a.535.535 0 0 0 0-.74l-.743-.768a.507.507 0 0 0-.733 0z"/>
        </symbol>
        <symbol id="icon-shape-filter" viewBox="0 0 14 14">
            <path fill="#94A3B0"
                  d="M13.124 0H.876C.099 0-.294.943.257 1.494L5.25 6.487v5.107c0 .252.109.492.299.658l1.75 1.531c.559.489 1.451.1 1.451-.658V6.487l4.993-4.993c.55-.55.16-1.494-.619-1.494zM7.875 6.125v7l-1.75-1.531V6.125L.875.875h12.25l-5.25 5.25z"/>
        </symbol>
        <symbol id="icon-no-templates-filter" viewBox="0 0 44 45">
            <path fill="#94A3B0"
                  d="M43.54 1.576L42.428.462c-.614-.616-1.61-.616-2.223 0L33.55 7.136C30.357 4.647 26.357 3.151 22 3.151c-10.415 0-18.857 8.466-18.857 18.909 0 4.369 1.492 8.38 3.974 11.581L.46 40.317c-.614.615-.614 1.613 0 2.228l1.11 1.113c.614.616 1.61.616 2.223 0l6.656-6.674c3.192 2.489 7.193 3.984 11.55 3.984 10.415 0 18.857-8.465 18.857-18.908 0-4.369-1.492-8.38-3.974-11.582l6.656-6.674c.614-.615.614-1.614 0-2.228zM7.856 22.06c0-7.82 6.345-14.181 14.143-14.181 3.049 0 5.858.995 8.17 2.647L10.495 30.252c-1.647-2.319-2.639-5.134-2.639-8.192zm28.286 0c0 7.82-6.345 14.181-14.143 14.181-3.05 0-5.858-.994-8.17-2.647l19.673-19.726c1.648 2.318 2.64 5.135 2.64 8.192z"/>
        </symbol>

        <symbol id="icon-sticky-sidebar" viewBox="0 0 10 13">
            <g fill="none" fill-rule="evenodd">
                <g fill="#99A7B4" fill-rule="nonzero">
                    <path d="M219 186.5c.078 0 .133-.031.164-.094l.563-1.125c.015-.031.023-.062.023-.094v-2.437h3.187c.157 0 .29-.055.399-.164.11-.11.164-.242.164-.398 0-.579-.195-1.11-.586-1.594-.36-.438-.836-.797-1.43-1.078l-.28-2.766h.983c.157 0 .29-.055.399-.164.11-.11.164-.242.164-.398v-1.125c0-.157-.055-.29-.164-.399-.11-.11-.242-.164-.399-.164h-6.375c-.156 0-.289.055-.398.164-.11.11-.164.242-.164.399v1.125c0 .156.055.289.164.398.11.11.242.164.398.164h.985l-.281 2.766c-.594.28-1.07.648-1.43 1.101-.39.485-.586 1.008-.586 1.57 0 .157.055.29.164.399.11.11.242.164.398.164h3.188v2.438c0 .03.008.062.023.093l.563 1.125c.031.063.086.094.164.094z" transform="translate(-214 -174)"/>
                </g>
            </g>
        </symbol>


    </defs>
</svg>
