<svg style="position: absolute; width: 0; height: 0; overflow: hidden;" version="1.1" xmlns="http://www.w3.org/2000/svg" xmlns:xlink="http://www.w3.org/1999/xlink">
    <defs>
        <symbol id="icon-g" viewBox="0 0 640 512">
            <path d="M386.061 228.496c1.834 9.692 3.143 19.384 3.143 31.956C389.204 370.205 315.599 448 204.8 448c-106.084 0-192-85.915-192-192s85.916-192 192-192c51.864 0 95.083 18.859 128.611 50.292l-52.126 50.03c-14.145-13.621-39.028-29.599-76.485-29.599-65.484 0-118.92 54.221-118.92 121.277 0 67.056 53.436 121.277 118.92 121.277 75.961 0 104.513-54.745 108.965-82.773H204.8v-66.009h181.261zm185.406 6.437V179.2h-56.001v55.733h-55.733v56.001h55.733v55.733h56.001v-55.733H627.2v-56.001h-55.733z"/>
        </symbol>

        <symbol id="icon-fb" viewBox="0 0 264 512">
            <path d="M76.7 512V283H0v-91h76.7v-71.7C76.7 42.4 124.3 0 193.8 0c33.3 0 61.9 2.5 70.2 3.6V85h-48.2c-37.8 0-45.1 18-45.1 44.3V192H256l-11.7 91h-73.6v229"/>
        </symbol>

        <symbol id="icon-t" viewBox="0 0 512 512">
            <path d="M459.37 151.716c.325 4.548.325 9.097.325 13.645 0 138.72-105.583 298.558-298.558 298.558-59.452 0-114.68-17.219-161.137-47.106 8.447.974 16.568 1.299 25.34 1.299 49.055 0 94.213-16.568 130.274-44.832-46.132-.975-84.792-31.188-98.112-72.772 6.498.974 12.995 1.624 19.818 1.624 9.421 0 18.843-1.3 27.614-3.573-48.081-9.747-84.143-51.98-84.143-102.985v-1.299c13.969 7.797 30.214 12.67 47.431 13.319-28.264-18.843-46.781-51.005-46.781-87.391 0-19.492 5.197-37.36 14.294-52.954 51.655 63.675 129.3 105.258 216.365 109.807-1.624-7.797-2.599-15.918-2.599-24.04 0-57.828 46.782-104.934 104.934-104.934 30.213 0 57.502 12.67 76.67 33.137 23.715-4.548 46.456-13.32 66.599-25.34-7.798 24.366-24.366 44.833-46.132 57.827 21.117-2.273 41.584-8.122 60.426-16.243-14.292 20.791-32.161 39.308-52.628 54.253z"/>
        </symbol>

        <symbol id="icon-pin" viewBox="0 0 384 512">
            <path d="M204 6.5C101.4 6.5 0 74.9 0 185.6 0 256 39.6 296 63.6 296c9.9 0 15.6-27.6 15.6-35.4 0-9.3-23.7-29.1-23.7-67.8 0-80.4 61.2-137.4 140.4-137.4 68.1 0 118.5 38.7 118.5 109.8 0 53.1-21.3 152.7-90.3 152.7-24.9 0-46.2-18-46.2-43.8 0-37.8 26.4-74.4 26.4-113.4 0-66.2-93.9-54.2-93.9 25.8 0 16.8 2.1 35.4 9.6 50.7-13.8 59.4-42 147.9-42 209.1 0 18.9 2.7 37.5 4.5 56.4 3.4 3.8 1.7 3.4 6.9 1.5 50.4-69 48.6-82.5 71.4-172.8 12.3 23.4 44.1 36 69.3 36 106.2 0 153.9-103.5 153.9-196.8C384 71.3 298.2 6.5 204 6.5z"/>
        </symbol>

        <symbol id="icon-in" viewBox="0 0 448 512">
            <path d="M100.3 480H7.4V180.9h92.9V480zM53.8 140.1C24.1 140.1 0 115.5 0 85.8 0 56.1 24.1 32 53.8 32c29.7 0 53.8 24.1 53.8 53.8 0 29.7-24.1 54.3-53.8 54.3zM448 480h-92.7V334.4c0-34.7-.7-79.2-48.3-79.2-48.3 0-55.7 37.7-55.7 76.7V480h-92.8V180.9h89.1v40.8h1.3c12.4-23.5 42.7-48.3 87.9-48.3 94 0 111.3 61.9 111.3 142.3V480z"/>
        </symbol>

        <symbol id="icon-xing" viewBox="0 0 384 512">
            <path d="M162.7 210c-1.8 3.3-25.2 44.4-70.1 123.5-4.9 8.3-10.8 12.5-17.7 12.5H9.8c-7.7 0-12.1-7.5-8.5-14.4l69-121.3c.2 0 .2-.1 0-.3l-43.9-75.6c-4.3-7.8.3-14.1 8.5-14.1H100c7.3 0 13.3 4.1 18 12.2l44.7 77.5zM382.6 46.1l-144 253v.3L330.2 466c3.9 7.1.2 14.1-8.5 14.1h-65.2c-7.6 0-13.6-4-18-12.2l-92.4-168.5c3.3-5.8 51.5-90.8 144.8-255.2 4.6-8.1 10.4-12.2 17.5-12.2h65.7c8 0 12.3 6.7 8.5 14.1z"/>
        </symbol>

        <symbol id="icon-yt" viewBox="0 0 576 512">
            <path d="M549.655 124.083c-6.281-23.65-24.787-42.276-48.284-48.597C458.781 64 288 64 288 64S117.22 64 74.629 75.486c-23.497 6.322-42.003 24.947-48.284 48.597-11.412 42.867-11.412 132.305-11.412 132.305s0 89.438 11.412 132.305c6.281 23.65 24.787 41.5 48.284 47.821C117.22 448 288 448 288 448s170.78 0 213.371-11.486c23.497-6.321 42.003-24.171 48.284-47.821 11.412-42.867 11.412-132.305 11.412-132.305s0-89.438-11.412-132.305zm-317.51 213.508V175.185l142.739 81.205-142.739 81.201z"/>
        </symbol>

        <symbol id="icon-ig" viewBox="0 0 448 512">
            <path d="M224.1 141c-63.6 0-114.9 51.3-114.9 114.9s51.3 114.9 114.9 114.9S339 319.5 339 255.9 287.7 141 224.1 141zm0 189.6c-41.1 0-74.7-33.5-74.7-74.7s33.5-74.7 74.7-74.7 74.7 33.5 74.7 74.7-33.6 74.7-74.7 74.7zm146.4-194.3c0 14.9-12 26.8-26.8 26.8-14.9 0-26.8-12-26.8-26.8s12-26.8 26.8-26.8 26.8 12 26.8 26.8zm76.1 27.2c-1.7-35.9-9.9-67.7-36.2-93.9-26.2-26.2-58-34.4-93.9-36.2-37-2.1-147.9-2.1-184.9 0-35.8 1.7-67.6 9.9-93.9 36.1s-34.4 58-36.2 93.9c-2.1 37-2.1 147.9 0 184.9 1.7 35.9 9.9 67.7 36.2 93.9s58 34.4 93.9 36.2c37 2.1 147.9 2.1 184.9 0 35.9-1.7 67.7-9.9 93.9-36.2 26.2-26.2 34.4-58 36.2-93.9 2.1-37 2.1-147.8 0-184.8zM398.8 388c-7.8 19.6-22.9 34.7-42.6 42.6-29.5 11.7-99.5 9-132.1 9s-102.7 2.6-132.1-9c-19.6-7.8-34.7-22.9-42.6-42.6-11.7-29.5-9-99.5-9-132.1s-2.6-102.7 9-132.1c7.8-19.6 22.9-34.7 42.6-42.6 29.5-11.7 99.5-9 132.1-9s102.7-2.6 132.1 9c19.6 7.8 34.7 22.9 42.6 42.6 11.7 29.5 9 99.5 9 132.1s2.7 102.7-9 132.1z"/>
        </symbol>

        <symbol id="tcb-icon-link" viewBox="0 0 14 15">
            <path d="M8.586 5.664c.456.456.775.989.957 1.6.182.61.214 1.226.096 1.845a3.703 3.703 0 0 1-.78 1.668c-.09.11-.483.51-1.175 1.203L6.535 13.13a3.755 3.755 0 0 1-1.723.998 3.795 3.795 0 0 1-1.968 0 3.755 3.755 0 0 1-1.723-.998 3.755 3.755 0 0 1-.998-1.723 3.795 3.795 0 0 1 0-1.968c.173-.657.506-1.231.998-1.723l1.723-1.723c.11-.11.232-.137.369-.082a.3.3 0 0 1 .205.301c0 .346.046.693.137 1.039.018.11-.019.21-.11.3L2.215 8.81a2.149 2.149 0 0 0-.684 1.613c0 .638.224 1.18.67 1.627.447.446.99.67 1.627.67.638 0 1.176-.228 1.613-.684l2.079-2.05c.437-.438.656-.976.656-1.614 0-.638-.219-1.185-.656-1.64a2.165 2.165 0 0 0-.63-.438c-.145-.073-.209-.182-.19-.328.036-.328.172-.61.41-.848l.109-.11c.127-.109.255-.127.383-.054.364.182.692.42.984.711zm4.293-4.293c.492.492.825 1.067.998 1.723a3.795 3.795 0 0 1 0 1.969 3.755 3.755 0 0 1-.998 1.722l-1.723 1.723c-.11.11-.232.137-.369.082a.3.3 0 0 1-.205-.3c0-.347-.046-.694-.137-1.04-.018-.11.019-.21.11-.3l1.23-1.259c.456-.437.684-.975.684-1.613s-.224-1.18-.67-1.627a2.215 2.215 0 0 0-1.627-.67c-.638 0-1.176.228-1.613.684L6.48 4.515c-.437.438-.656.976-.656 1.614 0 .638.219 1.185.656 1.64.183.183.392.329.63.438.145.073.209.182.19.328-.036.328-.172.61-.41.848l-.109.11c-.127.109-.255.127-.383.054a3.766 3.766 0 0 1-.984-.711 3.745 3.745 0 0 1-.957-1.6 3.841 3.841 0 0 1-.096-1.845c.119-.62.379-1.176.78-1.668.09-.11.483-.51 1.175-1.203L7.465 1.37A3.755 3.755 0 0 1 9.187.373a3.795 3.795 0 0 1 1.97 0c.655.173 1.23.506 1.722.998z"/>
        </symbol>

        <symbol id="tcb-icon-unlink" viewBox="0 0 14 15">
            <path d="M8.312 11.387a.26.26 0 0 1 .11.218.34.34 0 0 1-.11.247l-1.777 1.777a3.755 3.755 0 0 1-1.723.998 3.795 3.795 0 0 1-1.968 0 3.755 3.755 0 0 1-1.723-.998 3.755 3.755 0 0 1-.998-1.723 3.795 3.795 0 0 1 0-1.968c.173-.657.506-1.231.998-1.723l1.777-1.777a.34.34 0 0 1 .247-.11.26.26 0 0 1 .218.11l.63.628a.296.296 0 0 1 .081.22.4.4 0 0 1-.082.245l-1.777 1.75a2.253 2.253 0 0 0-.684 1.655c0 .647.233 1.189.698 1.627a2.3 2.3 0 0 0 1.626.656c.62 0 1.149-.228 1.586-.684l1.778-1.777a.4.4 0 0 1 .246-.082c.091 0 .164.027.219.082l.628.629zm-1.53-6.645a.4.4 0 0 1-.247.082.296.296 0 0 1-.219-.082l-.629-.629a.26.26 0 0 1-.109-.218.34.34 0 0 1 .11-.247l1.777-1.777A3.755 3.755 0 0 1 9.187.873a3.795 3.795 0 0 1 1.97 0c.655.173 1.23.506 1.722.998s.825 1.067.998 1.723a3.795 3.795 0 0 1 0 1.969 3.755 3.755 0 0 1-.998 1.722l-1.777 1.778a.34.34 0 0 1-.247.109.26.26 0 0 1-.218-.11l-.63-.628a.296.296 0 0 1-.081-.22.4.4 0 0 1 .082-.245l1.777-1.778c.456-.437.684-.966.684-1.586a2.3 2.3 0 0 0-.657-1.626 2.144 2.144 0 0 0-1.626-.698c-.648 0-1.199.228-1.655.684l-1.75 1.777zm6.507 9.899a.34.34 0 0 1-.246.109.26.26 0 0 1-.219-.11L.11 1.927A.26.26 0 0 1 0 1.707a.34.34 0 0 1 .11-.246l.6-.602A.34.34 0 0 1 .958.75a.26.26 0 0 1 .219.11L13.89 13.573a.26.26 0 0 1 .109.219.34.34 0 0 1-.11.246l-.601.602z"/>
        </symbol>

        <symbol id="tcb-icon-sync" viewBox="0 0 12 12">
            <path fill="#FFF" fill-rule="evenodd" d="M2.812 5.994c.094.094.211.113.352.056.14-.056.211-.159.211-.309V3.716h8.287a.325.325 0 0 0 .24-.098.325.325 0 0 0 .098-.24v-.674a.325.325 0 0 0-.098-.24.325.325 0 0 0-.24-.098H3.375V.341c0-.15-.07-.253-.21-.31-.142-.056-.259-.037-.353.057l-2.7 2.728A.267.267 0 0 0 0 3.041c0 .094.038.169.113.225l2.7 2.728zm9.075 2.672A.267.267 0 0 0 12 8.441a.267.267 0 0 0-.113-.225l-2.7-2.728c-.093-.094-.21-.113-.351-.056a.308.308 0 0 0-.211.309v2.025H.338a.325.325 0 0 0-.24.098.325.325 0 0 0-.098.24v.674c0 .094.033.174.098.24a.325.325 0 0 0 .24.098h8.287v2.025c0 .15.07.253.21.31.142.056.259.037.352-.057l2.7-2.728z"/>
        </symbol>

        <symbol id="tcb-icon-unsync" viewBox="0 0 12 15">
            <g fill="#FFF" fill-rule="evenodd">
                <path d="M3.375 6.33l-.64 1.067L.111 4.748A.267.267 0 0 1 0 4.523c0-.094.037-.169.112-.225l2.7-2.728c.094-.094.211-.113.352-.056.14.056.211.159.211.309v2.025h1.489l-.81 1.35h-.679v1.131zm6.51-1.132l.81-1.35h.967c.094 0 .174.033.24.098a.325.325 0 0 1 .098.24v.675a.325.325 0 0 1-.098.239.325.325 0 0 1-.24.098H9.885zm-3.24 5.4l.81-1.35h1.17v-1.95l.236-.394c.13-.044.238-.022.326.066l2.7 2.728a.267.267 0 0 1 .113.225.267.267 0 0 1-.113.225l-2.7 2.728c-.093.094-.21.113-.351.056a.308.308 0 0 1-.211-.309v-2.025h-1.98zm-5.831 0H.337a.325.325 0 0 1-.239-.098.325.325 0 0 1-.098-.24v-.674c0-.094.033-.174.098-.24a.325.325 0 0 1 .24-.098h1.286l-.81 1.35z"/>
                <path fill-rule="nonzero" d="M2.286 14.558L1 13.786 9.272 0l1.286.772z"/>
            </g>
        </symbol>

        <symbol id="tcb-icon-eye-regular" viewBox="0 0 576 512">
            <path d="M569.354 231.631C512.97 135.949 407.81 72 288 72 168.14 72 63.004 135.994 6.646 231.631a47.999 47.999 0 0 0 0 48.739C63.031 376.051 168.19 440 288 440c119.86 0 224.996-63.994 281.354-159.631a47.997 47.997 0 0 0 0-48.738zM288 392c-102.556 0-192.091-54.701-240-136 44.157-74.933 123.677-127.27 216.162-135.007C273.958 131.078 280 144.83 280 160c0 30.928-25.072 56-56 56s-56-25.072-56-56l.001-.042C157.794 179.043 152 200.844 152 224c0 75.111 60.889 136 136 136s136-60.889 136-136c0-31.031-10.4-59.629-27.895-82.515C451.704 164.638 498.009 205.106 528 256c-47.908 81.299-137.444 136-240 136z"/>
        </symbol>

        <symbol id="tcb-icon-eye-slash-regular2" viewBox="0 0 576 512">
            <path d="M272.702 359.139c-80.483-9.011-136.212-86.886-116.93-167.042l116.93 167.042zM288 392c-102.556 0-192.092-54.701-240-136 21.755-36.917 52.1-68.342 88.344-91.658l-27.541-39.343C67.001 152.234 31.921 188.741 6.646 231.631a47.999 47.999 0 0 0 0 48.739C63.004 376.006 168.14 440 288 440a332.89 332.89 0 0 0 39.648-2.367l-32.021-45.744A284.16 284.16 0 0 1 288 392zm281.354-111.631c-33.232 56.394-83.421 101.742-143.554 129.492l48.116 68.74c3.801 5.429 2.48 12.912-2.949 16.712L450.23 509.83c-5.429 3.801-12.912 2.48-16.712-2.949L102.084 33.399c-3.801-5.429-2.48-12.912 2.949-16.712L125.77 2.17c5.429-3.801 12.912-2.48 16.712 2.949l55.526 79.325C226.612 76.343 256.808 72 288 72c119.86 0 224.996 63.994 281.354 159.631a48.002 48.002 0 0 1 0 48.738zM528 256c-44.157-74.933-123.677-127.27-216.162-135.007C302.042 131.078 296 144.83 296 160c0 30.928 25.072 56 56 56s56-25.072 56-56l-.001-.042c30.632 57.277 16.739 130.26-36.928 171.719l26.695 38.135C452.626 346.551 498.308 306.386 528 256z"/>
        </symbol>

        <symbol id="tcb-icon-exclamation-circle" viewBox="0 0 17 17">
            <path fill="#FF6700" fill-rule="evenodd" d="M16.734 8.625c0 1.483-.37 2.855-1.112 4.117a8.32 8.32 0 0 1-3.005 3.005A7.982 7.982 0 0 1 8.5 16.86a7.982 7.982 0 0 1-4.117-1.112 8.32 8.32 0 0 1-3.005-3.005A7.982 7.982 0 0 1 .266 8.625c0-1.483.37-2.855 1.112-4.117a8.32 8.32 0 0 1 3.005-3.005A7.982 7.982 0 0 1 8.5.391c1.483 0 2.855.37 4.117 1.112a8.32 8.32 0 0 1 3.005 3.005 7.982 7.982 0 0 1 1.112 4.117zM8.5 10.285c-.42 0-.78.15-1.08.448a1.471 1.471 0 0 0-.447 1.08c0 .42.149.78.448 1.079.299.298.658.448 1.079.448.42 0 .78-.15 1.08-.448.298-.3.447-.659.447-1.08 0-.42-.15-.78-.448-1.079a1.471 1.471 0 0 0-1.079-.448zM7.04 4.807l.265 4.515c0 .089.038.172.116.25a.384.384 0 0 0 .282.116h1.594c.11 0 .205-.04.282-.117a.349.349 0 0 0 .116-.249l.266-4.515a.426.426 0 0 0-.116-.316.384.384 0 0 0-.283-.116H7.437a.384.384 0 0 0-.282.116.426.426 0 0 0-.116.316z" opacity=".789"/>
        </symbol>

        <symbol id="tcb-icon-dynamic-styled-list" viewBox="0 0 32 32">
            <path class="st0" d="M13.1,10.3h13c0.4,0,0.8-0.3,0.8-0.8s-0.3-0.8-0.8-0.8h-13c-0.4,0-0.8,0.3-0.8,0.8S12.7,10.3,13.1,10.3z"/>
            <path class="st0" d="M6.8,11.3c0.1,0.1,0.3,0.2,0.5,0.2c0,0,0,0,0,0c0.2,0,0.4-0.1,0.5-0.3l2.4-2.8c0.3-0.3,0.2-0.8-0.1-1.1
                    C9.9,7.2,9.4,7.2,9.2,7.5L7.3,9.7L6.8,9.2c-0.3-0.3-0.8-0.3-1.1,0c-0.3,0.3-0.3,0.8,0,1.1L6.8,11.3z"/>
            <path class="st0" d="M5.3,14.8h21.5c2.9,0,5.3-2.4,5.3-5.3s-2.4-5.3-5.3-5.3H5.3C2.3,4.2,0,6.6,0,9.5S2.3,14.8,5.3,14.8z M5.3,5.8
                    h21.5c2,0,3.7,1.7,3.7,3.7s-1.7,3.7-3.7,3.7H5.3c-2,0-3.7-1.7-3.7-3.7S3.2,5.8,5.3,5.8z"/>
            <path class="st0" d="M26.1,21.8h-13c-0.4,0-0.8,0.3-0.8,0.8s0.3,0.8,0.8,0.8h13c0.4,0,0.8-0.3,0.8-0.8S26.5,21.8,26.1,21.8z"/>
            <path class="st0" d="M9.2,20.5l-1.9,2.2l-0.5-0.5c-0.3-0.3-0.8-0.3-1.1,0c-0.3,0.3-0.3,0.8,0,1.1l1,1.1c0.1,0.1,0.3,0.2,0.5,0.2
                    c0,0,0,0,0,0c0.2,0,0.4-0.1,0.5-0.3l2.4-2.8c0.3-0.3,0.2-0.8-0.1-1.1C9.9,20.2,9.4,20.2,9.2,20.5z"/>
            <path class="st0" d="M26.7,17.2H5.3c-2.9,0-5.3,2.4-5.3,5.3s2.4,5.3,5.3,5.3h21.5c2.9,0,5.3-2.4,5.3-5.3S29.7,17.2,26.7,17.2z
                     M26.7,26.2H5.3c-2,0-3.7-1.7-3.7-3.7s1.7-3.7,3.7-3.7h21.5c2,0,3.7,1.7,3.7,3.7S28.8,26.2,26.7,26.2z"/>
        </symbol>
    </defs>
</svg>
