<svg width="28" height="28" viewBox="0 0 28 28" fill="none" xmlns="http://www.w3.org/2000/svg">
	<path d="M23.9832 6.52695L21.0711 3.61758C20.7156 3.26211 20.2398 3.0625 19.7367 3.0625C19.2336 3.0625 18.7578 3.25938 18.4023 3.61758L15.266 6.74844C14.9105 7.10391 14.7109 7.58242 14.7109 8.08555C14.7109 8.59141 14.9078 9.06445 15.266 9.42266L17.716 11.8754C17.1579 13.1758 16.356 14.3574 15.3535 15.3562C14.35 16.3652 13.177 17.1609 11.8754 17.7242L9.42539 15.2715C9.06992 14.916 8.59414 14.7164 8.09102 14.7164C7.84285 14.7155 7.597 14.7641 7.36787 14.8594C7.13874 14.9547 6.93094 15.0948 6.75664 15.2715L3.61758 18.4023C3.26211 18.7578 3.0625 19.2363 3.0625 19.7395C3.0625 20.2453 3.25938 20.7184 3.61758 21.0766L6.52695 23.9859C7.13398 24.593 7.9707 24.9402 8.8293 24.9402C9.00703 24.9402 9.1793 24.9266 9.3543 24.8965C12.9746 24.3004 16.5676 22.3727 19.4688 19.4742C22.3672 16.5703 24.2922 12.9773 24.8938 9.3543C25.066 8.32617 24.7215 7.26797 23.9832 6.52695V6.52695ZM22.9551 9.02891C22.4219 12.2527 20.6883 15.4684 18.077 18.0797C15.4656 20.691 12.2527 22.4246 9.02891 22.9578C8.62422 23.0262 8.20859 22.8895 7.91328 22.5969L5.05586 19.7395L8.08555 16.707L11.3613 19.9883L11.3859 20.0129L11.9766 19.7941C13.7674 19.1357 15.3936 18.0958 16.7426 16.7464C18.0915 15.3969 19.1309 13.7703 19.7887 11.9793L20.0074 11.3887L16.7043 8.08828L19.734 5.05586L22.5914 7.91328C22.8867 8.20859 23.0234 8.62422 22.9551 9.02891Z" fill="#25D366"/>
</svg>
