<?xml version="1.0" encoding="UTF-8"?>
<svg width="16px" height="16px" viewBox="0 0 16 16" version="1.1" xmlns="http://www.w3.org/2000/svg" xmlns:xlink="http://www.w3.org/1999/xlink">
    <!-- Generator: Sketch 53.2 (72643) - https://sketchapp.com -->
    <title>layout (1)</title>
    <desc>Created with Sketch.</desc>
    <g id="Page-1" stroke="none" stroke-width="1" fill="none" fill-rule="evenodd">
        <g id="layout-(1)" fill="#2B87DA" fill-rule="nonzero">
            <path d="M0.972631579,16 L15.0273684,16 C15.2853264,16 15.532719,15.8918336 15.7151228,15.6992963 C15.8975266,15.5067589 16,15.2456223 16,14.9733333 L16,1.02666667 C16,0.754377737 15.8975266,0.493241053 15.7151228,0.300703705 C15.532719,0.108166356 15.2853264,0 15.0273684,0 L0.972631579,0 C0.435461991,0 0,0.459654324 0,1.02666667 L0,14.9733333 C0,15.5403457 0.435461991,16 0.972631579,16 L0.972631579,16 Z M0.842105263,1.02666667 C0.842105263,0.950574101 0.900543885,0.888888889 0.972631579,0.888888889 L15.0273684,0.888888889 C15.0619862,0.888888889 15.095186,0.90340472 15.1196645,0.929243066 C15.1441429,0.955081411 15.1578947,0.990125728 15.1578947,1.02666667 L15.1578947,14.9733333 C15.1578947,15.0494259 15.0994561,15.1111111 15.0273684,15.1111111 L0.972631579,15.1111111 C0.900543885,15.1111111 0.842105263,15.0494259 0.842105263,14.9733333 L0.842105263,1.02666667 Z" id="Shape"></path>
            <path d="M2.55238095,7.46666667 L13.447619,7.46666667 C13.6790527,7.46666667 13.8666667,7.26199684 13.8666667,7.00952381 L13.8666667,4.72380952 C13.8666667,4.4713365 13.6790527,4.26666667 13.447619,4.26666667 L2.55238095,4.26666667 C2.32094734,4.26666667 2.13333333,4.4713365 2.13333333,4.72380952 L2.13333333,7.00952381 C2.13333333,7.26199684 2.32094734,7.46666667 2.55238095,7.46666667 Z M2.97142857,5.18095238 L13.0285714,5.18095238 L13.0285714,6.55238095 L2.97142857,6.55238095 L2.97142857,5.18095238 Z" id="Shape"></path>
            <path d="M2.55238095,11.7333333 L13.447619,11.7333333 C13.6790527,11.7333333 13.8666667,11.5286635 13.8666667,11.2761905 L13.8666667,8.99047619 C13.8666667,8.73800316 13.6790527,8.53333333 13.447619,8.53333333 L2.55238095,8.53333333 C2.32094734,8.53333333 2.13333333,8.73800316 2.13333333,8.99047619 L2.13333333,11.2761905 C2.13333333,11.5286635 2.32094734,11.7333333 2.55238095,11.7333333 Z M2.97142857,9.44761905 L13.0285714,9.44761905 L13.0285714,10.8190476 L2.97142857,10.8190476 L2.97142857,9.44761905 Z" id="Shape"></path>
            <path d="M6.3030303,3.2 L10.230303,3.2 C10.4713,3.2 10.6666667,2.96121853 10.6666667,2.66666667 C10.6666667,2.3721148 10.4713,2.13333333 10.230303,2.13333333 L6.3030303,2.13333333 C6.06203332,2.13333333 5.86666667,2.3721148 5.86666667,2.66666667 C5.86666667,2.96121853 6.06203332,3.2 6.3030303,3.2 Z" id="Path"></path>
            <path d="M13.4518519,12.8 L10.5481481,12.8 C10.3190523,12.8 10.1333333,13.0387815 10.1333333,13.3333333 C10.1333333,13.6278852 10.3190523,13.8666667 10.5481481,13.8666667 L13.4518519,13.8666667 C13.6809477,13.8666667 13.8666667,13.6278852 13.8666667,13.3333333 C13.8666667,13.0387815 13.6809477,12.8 13.4518519,12.8 Z" id="Path"></path>
        </g>
    </g>
</svg>