<?xml version="1.0" encoding="UTF-8"?>
<svg width="57px" height="42px" viewBox="0 0 57 42" version="1.1" xmlns="http://www.w3.org/2000/svg" xmlns:xlink="http://www.w3.org/1999/xlink">
    <title>vendor</title>
    <g id="Page-1" stroke="none" stroke-width="1" fill="none" fill-rule="evenodd">
        <g id="vendor" transform="translate(1.000000, 1.000000)" stroke="#333333">
            <g id="Group" stroke-width="1.5">
                <path d="M9.19016083,10.3078058 C9.19016083,12.6418718 11.2537199,14.5340061 13.7992489,14.5340061 C16.3447779,14.5340061 18.408337,12.6418718 18.408337,10.3078058" id="Path"></path>
                <path d="M18.408337,10.3078058 C18.4081493,12.6218919 20.4376655,14.5057857 22.9612167,14.5340062 C24.1836229,14.5340062 25.3559625,14.0887471 26.2203342,13.2961808 C27.0847058,12.5036145 27.5703048,11.4286639 27.5703048,10.3078058" id="Path"></path>
                <path d="M27.5703048,10.3078058 C27.5703048,12.6418719 29.6338638,14.5340062 32.1793929,14.5340062 C34.7029441,14.5057857 36.7324603,12.6218919 36.7322726,10.3078058" id="Path"></path>
                <path d="M36.7322726,10.3078058 C36.7322726,12.6418719 38.7958316,14.5340062 41.3413607,14.5340062 C43.8868898,14.5340062 45.9504488,12.6418719 45.9504488,10.3078058" id="Path"></path>
                <path d="M45.9504488,10.3078058 C45.9502611,12.6218919 47.9797772,14.5057857 50.5033285,14.5340062 C53.0048503,14.4780454 55.0007442,12.6022028 55,10.3078058 L55,10.3078058 L43.7583215,0 L12.0005804,0 L0.0281930352,10.3078058 C-0.166815447,11.919573 0.661189802,13.4915194 2.15922175,14.3535083 C3.65725369,15.2154972 5.56110017,15.2154972 7.05913211,14.3535083 C8.55716406,13.4915194 9.38516931,11.919573 9.19016083,10.3078058" id="Path"></path>
            </g>
            <polyline id="Path" stroke-width="1.5" points="50 19 50 40 5 40 5 19"></polyline>
            <rect id="Rectangle" stroke-width="1.5" x="23" y="20" width="21" height="15"></rect>
            <g id="user" transform="translate(28.000000, 24.000000)" stroke-width="1.2">
                <circle id="Oval" cx="5.5" cy="2.5" r="2.5"></circle>
                <path d="M11,11 C11,7.68629149 8.53756609,5 5.5,5 C2.46243391,5 0,7.68629149 0,11 L11,11 Z" id="Path"></path>
            </g>
        </g>
    </g>
</svg>