<svg width="30" height="30" viewBox="0 0 30 30" fill="none" xmlns="http://www.w3.org/2000/svg">
<mask id="mask0_7090_327" style="mask-type:alpha" maskUnits="userSpaceOnUse" x="0" y="0" width="30" height="30">
<path d="M14.6482 29.3286C6.55823 29.3286 2.67029e-05 22.7632 2.67029e-05 14.6643C2.67029e-05 6.56542 6.55823 0 14.6482 0C22.7381 0 29.2962 6.56542 29.2962 14.6643C29.2962 22.7632 22.7381 29.3286 14.6482 29.3286Z" fill="#FFC401"/>
</mask>
<g mask="url(#mask0_7090_327)">
<path d="M14.6853 29.3286C6.59534 29.3286 0.0371361 22.7632 0.0371361 14.6643C0.0371361 6.56542 6.59534 0 14.6853 0C22.7752 0 29.3333 6.56542 29.3333 14.6643C29.3333 22.7632 22.7752 29.3286 14.6853 29.3286Z" fill="#703DE8"/>
<path fill-rule="evenodd" clip-rule="evenodd" d="M3.92395 24.6133C6.60008 27.5129 10.4309 29.3286 14.6853 29.3286C18.9206 29.3286 22.7362 27.5291 25.4106 24.6521C22.6739 21.8617 18.8629 20.1309 14.6481 20.1309C10.4529 20.1309 6.6578 21.8456 3.92395 24.6133Z" fill="#1F1147"/>
</g>
<path d="M2.53876 15.9054C2.53876 15.5372 2.83723 15.2388 3.20542 15.2388H4.40826C4.77645 15.2388 5.07493 15.5372 5.07493 15.9054C5.07493 16.2736 4.77646 16.5721 4.40827 16.5721H3.20542C2.83723 16.5721 2.53876 16.2736 2.53876 15.9054Z" fill="white"/>
<path d="M5.86813 6.91574C6.12848 6.65539 6.55059 6.65539 6.81094 6.91574L7.66148 7.76628C7.92183 8.02663 7.92183 8.44874 7.66148 8.70909C7.40113 8.96944 6.97902 8.96944 6.71867 8.70909L5.86813 7.85855C5.60778 7.5982 5.60778 7.17609 5.86813 6.91574Z" fill="white"/>
<path d="M23.6615 6.91574C23.4012 6.65539 22.9791 6.65539 22.7187 6.91574L21.8682 7.76628C21.6078 8.02663 21.6078 8.44874 21.8682 8.70909C22.1285 8.96944 22.5506 8.96944 22.811 8.70909L23.6615 7.85855C23.9219 7.5982 23.9219 7.17609 23.6615 6.91574Z" fill="white"/>
<path d="M27.1917 15.9054C27.1917 15.5372 26.8932 15.2388 26.525 15.2388H25.3222C24.954 15.2388 24.6555 15.5372 24.6555 15.9054C24.6555 16.2736 24.954 16.5721 25.3222 16.5721H26.525C26.8932 16.5721 27.1917 16.2736 27.1917 15.9054Z" fill="white"/>
<path d="M14.8692 3.19336C15.2374 3.19336 15.5358 3.49184 15.5358 3.86003L15.5358 5.06287C15.5358 5.43106 15.2374 5.72953 14.8692 5.72953C14.501 5.72953 14.2025 5.43106 14.2025 5.06287L14.2025 3.86003C14.2025 3.49184 14.501 3.19336 14.8692 3.19336Z" fill="white"/>
<path fill-rule="evenodd" clip-rule="evenodd" d="M22.5305 7.93122C22.9154 8.3273 22.9063 8.9604 22.5103 9.34529L16.3636 15.3181C15.9675 15.703 15.3344 15.6939 14.9496 15.2978C14.5647 14.9017 14.5738 14.2686 14.9698 13.8837L21.1165 7.91094C21.5126 7.52605 22.1457 7.53513 22.5305 7.93122Z" fill="#F56F8E"/>
<path d="M17.7929 15.0981C17.7929 16.6864 16.5053 17.974 14.917 17.974C13.3287 17.974 12.0411 16.6864 12.0411 15.0981C12.0411 13.5097 13.3287 12.2222 14.917 12.2222C16.5053 12.2222 17.7929 13.5097 17.7929 15.0981Z" fill="#FFD147"/>
<path fill-rule="evenodd" clip-rule="evenodd" d="M14.917 17.255C16.1083 17.255 17.0739 16.2893 17.0739 15.0981C17.0739 13.9068 16.1083 12.9411 14.917 12.9411C13.7258 12.9411 12.7601 13.9068 12.7601 15.0981C12.7601 16.2893 13.7258 17.255 14.917 17.255ZM14.917 17.974C16.5053 17.974 17.7929 16.6864 17.7929 15.0981C17.7929 13.5097 16.5053 12.2222 14.917 12.2222C13.3287 12.2222 12.0411 13.5097 12.0411 15.0981C12.0411 16.6864 13.3287 17.974 14.917 17.974Z" fill="#703DE8"/>
</svg>
