<svg width="42" height="32" viewBox="0 0 42 32" fill="none" xmlns="http://www.w3.org/2000/svg">
<g clip-path="url(#clip0_5717_19854)">
<path d="M24.9715 12.5581C25.4474 13.2946 26.5159 13.3223 27.3666 13.1096C27.5829 13.0555 27.8081 13.0284 28.0415 13.0284C29.2095 13.0284 31.0624 13.8351 31.0624 15.9995C31.0624 18.164 29.2095 18.9706 28.0416 18.9706C27.2239 18.9706 26.5085 18.6376 25.915 17.9809L24.4166 15.8432L20.9999 10.6013V21.3977L21.5099 21.962C22.797 23.3862 24.4317 24.3401 26.2373 24.7209C27.9141 25.0744 29.6655 24.9284 31.3019 24.2986C32.9383 23.6687 34.3355 22.6027 35.3426 21.216C36.4268 19.7229 36.9999 17.9191 36.9999 15.9995C36.9999 14.0799 36.4268 12.2761 35.3425 10.7831C34.3354 9.39631 32.9382 8.33044 31.3018 7.70056C29.6654 7.07063 27.9141 6.92469 26.2372 7.27819C25.3239 7.47076 24.4547 7.81071 23.652 8.2837C23.0596 8.63278 22.9373 9.41001 23.3105 9.98757L24.9715 12.5581Z" fill="#703DE8"/>
<path d="M17.0284 19.4409C16.5525 18.7044 15.4841 18.6767 14.6334 18.8894C14.417 18.9435 14.1919 18.9707 13.9584 18.9707C12.7904 18.9706 10.9375 18.164 10.9375 15.9996C10.9375 13.8351 12.7904 13.0284 13.9584 13.0284C14.7759 13.0284 15.4914 13.3614 16.0849 14.0181L17.5833 16.1557L21 21.3978V10.6013L20.4901 10.0371C19.203 8.61286 17.5683 7.65893 15.7627 7.27818C14.0859 6.92468 12.3345 7.07068 10.6981 7.70049C9.06175 8.33036 7.6645 9.3963 6.65744 10.7831C5.57313 12.2761 5 14.08 5 15.9996C5 17.9191 5.57313 19.7229 6.65744 21.216C7.6645 22.6027 9.06175 23.6686 10.6981 24.2985C12.3345 24.9284 14.0859 25.0744 15.7627 24.7209C16.676 24.5283 17.5452 24.1883 18.3479 23.7154C18.9404 23.3663 19.0627 22.589 18.6895 22.0115L17.0284 19.4409Z" fill="#F56F8E"/>
<path fill-rule="evenodd" clip-rule="evenodd" d="M18.1656 17.0495V8.17822C19.0212 8.65433 19.8049 9.27924 20.4901 10.0374L21 10.6017V21.3982L18.1656 17.0495Z" fill="#FFD147"/>
<path fill-rule="evenodd" clip-rule="evenodd" d="M23.7962 14.8912V23.7996C22.9556 23.3263 22.185 22.7087 21.51 21.9618L21 21.3976V10.6011L23.7962 14.8912Z" fill="#FFD147"/>
</g>
<defs>
<clipPath id="clip0_5717_19854">
<rect width="32" height="18.6667" fill="white" transform="translate(5 6.6665)"/>
</clipPath>
</defs>
</svg>
