<svg width="42" height="32" viewBox="0 0 42 32" fill="none" xmlns="http://www.w3.org/2000/svg">
<circle cx="13.692" cy="18.7584" r="9.48674" transform="rotate(180 13.692 18.7584)" fill="#703DE8"/>
<path fill-rule="evenodd" clip-rule="evenodd" d="M19.5138 20.419C14.9118 20.419 11.181 16.6883 11.181 12.0862C11.181 7.48415 14.9118 3.75342 19.5138 3.75342C24.1159 3.75342 27.8467 7.48415 27.8467 12.0862C27.8467 16.6883 24.1159 20.419 19.5138 20.419Z" fill="#1F1147"/>
<path d="M13.6925 9.27197C18.9316 9.27222 23.1787 13.5192 23.1788 18.7583C23.1788 19.0383 23.1635 19.3155 23.1398 19.5894C22.0434 20.1202 20.8137 20.4194 19.5138 20.4194C14.9118 20.4194 11.1808 16.6885 11.1808 12.0864C11.1808 11.1867 11.3261 10.321 11.59 9.50928C12.2664 9.3562 12.9698 9.27197 13.6925 9.27197Z" fill="#F56F8E"/>
<path d="M27.3737 9.31885C27.6786 10.1849 27.8463 11.1161 27.8463 12.0864C27.8462 16.6884 24.1153 20.4194 19.5133 20.4194C19.3295 20.4194 19.1473 20.4097 18.9664 20.3979C18.8736 19.8651 18.8209 19.3177 18.8209 18.7583C18.8209 13.8343 22.573 9.78831 27.3737 9.31885Z" fill="#FFD147"/>
<path d="M28.3817 28.2464H13.7751L19.1327 22.2373L28.3817 28.2464Z" fill="#703DE8"/>
<circle cx="28.3084" cy="18.7584" r="9.48674" transform="rotate(180 28.3084 18.7584)" fill="#FFD147"/>
</svg>
