<svg width="14" height="14" viewBox="0 0 14 14" fill="none" xmlns="http://www.w3.org/2000/svg">
<g clip-path="url(#clip0_5243_21292)">
<path d="M1.44531 3.88909C1.44527 3.7327 1.48649 3.57906 1.56481 3.4437C1.64313 3.30833 1.75579 3.19602 1.89139 3.11812C2.027 3.04022 2.18077 2.99947 2.33716 3.00001C2.49355 3.00054 2.64704 3.04232 2.78211 3.12114L8.11376 6.23116C8.24831 6.30924 8.36002 6.42126 8.43771 6.55603C8.51541 6.6908 8.55637 6.84361 8.5565 6.99917C8.55664 7.15474 8.51594 7.30761 8.43848 7.44252C8.36102 7.57743 8.24951 7.68964 8.11509 7.76795L2.78211 10.8789C2.64704 10.9577 2.49355 10.9995 2.33716 11C2.18077 11.0005 2.027 10.9598 1.89139 10.8819C1.75579 10.804 1.64313 10.6917 1.56481 10.5563C1.48649 10.4209 1.44527 10.2673 1.44531 10.1109V3.88909Z" stroke="#0C0F1F" stroke-width="0.888889" stroke-linecap="round" stroke-linejoin="round"/>
</g>
<defs>
<clipPath id="clip0_5243_21292">
<rect width="14" height="14" fill="white"/>
</clipPath>
</defs>
</svg>
