<svg width="14" height="14" viewBox="0 0 14 14" fill="none" xmlns="http://www.w3.org/2000/svg">
<g clip-path="url(#clip0_5243_20857)">
<path d="M9.6684 2.99995H8.33507C8.08961 2.99995 7.89062 3.19894 7.89062 3.4444V10.5555C7.89062 10.801 8.08961 11 8.33507 11H9.6684C9.91386 11 10.1128 10.801 10.1128 10.5555V3.4444C10.1128 3.19894 9.91386 2.99995 9.6684 2.99995Z" stroke="#0C0F1F" stroke-width="0.888889" stroke-linecap="round" stroke-linejoin="round"/>
<path d="M5.6684 2.99995H4.33507C4.08961 2.99995 3.89062 3.19894 3.89062 3.4444V10.5555C3.89062 10.801 4.08961 11 4.33507 11H5.6684C5.91386 11 6.11285 10.801 6.11285 10.5555V3.4444C6.11285 3.19894 5.91386 2.99995 5.6684 2.99995Z" stroke="#0C0F1F" stroke-width="0.888889" stroke-linecap="round" stroke-linejoin="round"/>
</g>
<defs>
<clipPath id="clip0_5243_20857">
<rect width="14" height="14" fill="white"/>
</clipPath>
</defs>
</svg>
