<svg preserveAspectRatio="none" width="100%" height="100%" overflow="visible" style="display: block;" viewBox="0 0 16 16" fill="none" xmlns="http://www.w3.org/2000/svg">
<g id="Frame" clip-path="url(#clip0_5283_13114)">
<g id="Vector">
</g>
<path id="Vector_2" d="M13.3318 7.3336C13.1688 6.16041 12.6246 5.07338 11.7829 4.23993C10.9413 3.40649 9.84902 2.87288 8.67429 2.7213C7.49957 2.56973 6.30759 2.80859 5.28198 3.4011C4.25637 3.99361 3.45401 4.90689 2.99851 6.00027M2.66518 3.3336V6.00027H5.33185" stroke=" #0C0F1F" stroke-width="1.33333" stroke-linecap="round" stroke-linejoin="round"/>
<path id="Vector_3" d="M2.66518 8.66657C2.82822 9.83976 3.37247 10.9268 4.21409 11.7602C5.05571 12.5937 6.14801 13.1273 7.32273 13.2789C8.49745 13.4304 9.68943 13.1916 10.715 12.5991C11.7407 12.0066 12.543 11.0933 12.9985 9.99991M13.3318 12.6666V9.99991H10.6652" stroke=" #0C0F1F" stroke-width="1.33333" stroke-linecap="round" stroke-linejoin="round"/>
</g>
<defs>
<clipPath id="clip0_5283_13114">
<rect width="16" height="16" fill="white"/>
</clipPath>
</defs>
</svg>
