<svg width="14" height="14" viewBox="0 0 14 14" fill="none" xmlns="http://www.w3.org/2000/svg">
<path d="M6.78125 0C3.03516 0 0 3.0625 0 6.78125C0 10.5273 3.03516 13.5625 6.78125 13.5625C10.5 13.5625 13.5625 10.5273 13.5625 6.78125C13.5625 3.0625 10.5 0 6.78125 0ZM6.78125 12.25C3.74609 12.25 1.3125 9.81641 1.3125 6.78125C1.3125 3.77344 3.74609 1.3125 6.78125 1.3125C9.78906 1.3125 12.25 3.77344 12.25 6.78125C12.25 9.81641 9.78906 12.25 6.78125 12.25ZM6.78125 3.00781C6.125 3.00781 5.63281 3.52734 5.63281 4.15625C5.63281 4.8125 6.125 5.30469 6.78125 5.30469C7.41016 5.30469 7.92969 4.8125 7.92969 4.15625C7.92969 3.52734 7.41016 3.00781 6.78125 3.00781ZM8.3125 9.95312V9.29688C8.3125 9.13281 8.14844 8.96875 7.98438 8.96875H7.65625V6.23438C7.65625 6.07031 7.49219 5.90625 7.32812 5.90625H5.57812C5.38672 5.90625 5.25 6.07031 5.25 6.23438V6.89062C5.25 7.08203 5.38672 7.21875 5.57812 7.21875H5.90625V8.96875H5.57812C5.38672 8.96875 5.25 9.13281 5.25 9.29688V9.95312C5.25 10.1445 5.38672 10.2812 5.57812 10.2812H7.98438C8.14844 10.2812 8.3125 10.1445 8.3125 9.95312Z" fill="#121116"/>
</svg>
