<?xml version="1.0" encoding="UTF-8" standalone="no"?>
<!-- Created with Inkscape (http://www.inkscape.org/) -->

<svg
   width="24"
   height="24"
   viewBox="0 0 24 24"
   version="1.1"
   id="svg1"
   xmlns="http://www.w3.org/2000/svg"
   xmlns:svg="http://www.w3.org/2000/svg">
  <defs
     id="defs1" />
  <g
     id="layer1">
    <g
       fill="none"
       fill-rule="evenodd"
       id="Page-2"
       stroke="none"
       stroke-width="1"
       transform="matrix(0.27272726,0,0,0.27272726,-1.6363636,-1.6363636)">
      <g
         fill="#000000"
         id="g2">
        <path
           d="m 45.5,14 h 33 7.5 v 7.5 33 7.5 h -8 v 8 h 8 c 4.418278,0 8,-3.590712 8,-8 V 54.5 21.5 14 C 94,9.581722 90.409288,6 86,6 H 78.5 45.5 38 c -4.418278,0 -8,3.5907123 -8,8 v 8 h 8 V 14 Z M 6,38.008515 C 6,33.585535 9.578055,30 14.008515,30 h 47.98297 C 66.414466,30 70,33.578055 70,38.008515 v 47.98297 C 70,90.414466 66.421945,94 61.991485,94 H 14.008515 C 9.5855345,94 6,90.421945 6,85.991485 Z M 42,46 H 34 V 58 H 22 v 8 h 12 v 12 h 8 V 66 H 54 V 58 H 42 Z"
           id="path1" />
      </g>
    </g>
  </g>
</svg>
