<?xml version="1.0" ?><!DOCTYPE svg  PUBLIC '-//W3C//DTD SVG 1.1//EN'  'http://www.w3.org/Graphics/SVG/1.1/DTD/svg11.dtd'><svg enable-background="new 0 0 56.693 56.693" height="56.693px" id="Layer_1" version="1.1" viewBox="0 0 56.693 56.693" width="56.693px" xml:space="preserve" xmlns="http://www.w3.org/2000/svg" xmlns:xlink="http://www.w3.org/1999/xlink"><g><path d="M34.66,26.426L9.078,7.846C8.144,7.167,6.9,7.069,5.872,7.595C4.841,8.121,4.19,9.18,4.19,10.338v37.161   c0,1.156,0.65,2.217,1.682,2.742c0.441,0.227,0.92,0.336,1.398,0.336c0.637,0,1.273-0.201,1.808-0.588L34.66,31.405   c0.798-0.578,1.269-1.504,1.269-2.488C35.929,27.931,35.456,27.004,34.66,26.426z" fill="#474A56"/><path d="M50.744,7.456h-7.767c-0.948,0-1.717,0.769-1.717,1.716v39.919c0,0.947,0.769,1.715,1.717,1.715h7.767   c0.948,0,1.716-0.768,1.716-1.715V9.171C52.46,8.224,51.692,7.456,50.744,7.456z" fill="#474A56"/></g></svg>