<?xml version="1.0" encoding="UTF-8" standalone="no"?>
<!-- Created with Inkscape (http://www.inkscape.org/) -->

<svg
   width="24"
   height="24"
   viewBox="0 0 24 24"
   version="1.1"
   id="svg1"
   inkscape:version="1.3 (0e150ed6c4, 2023-07-21)"
   sodipodi:docname="outbound-8-1.svg"
   xmlns:inkscape="http://www.inkscape.org/namespaces/inkscape"
   xmlns:sodipodi="http://sodipodi.sourceforge.net/DTD/sodipodi-0.dtd"
   xmlns="http://www.w3.org/2000/svg"
   xmlns:svg="http://www.w3.org/2000/svg">
  <sodipodi:namedview
     id="namedview1"
     pagecolor="#ffffff"
     bordercolor="#000000"
     borderopacity="0.25"
     inkscape:showpageshadow="2"
     inkscape:pageopacity="0.0"
     inkscape:pagecheckerboard="0"
     inkscape:deskcolor="#d1d1d1"
     inkscape:document-units="mm"
     inkscape:zoom="8.1941057"
     inkscape:cx="46.679896"
     inkscape:cy="39.845715"
     inkscape:window-width="1920"
     inkscape:window-height="1009"
     inkscape:window-x="-8"
     inkscape:window-y="-8"
     inkscape:window-maximized="1"
     inkscape:current-layer="layer1" />
  <defs
     id="defs1" />
  <g
     inkscape:label="Layer 1"
     inkscape:groupmode="layer"
     id="layer1">
    <path
       d="M 19.318245,10.90244 H 17.12283 V 8.429854 L 13.552391,12.000586 12.000586,10.44761 15.569855,6.87922 H 13.097562 V 4.6840981 h 5.488683 c 0.402439,0 0.732,0.3286829 0.732,0.7308291 z"
       stroke="#000000"
       stroke-linecap="round"
       stroke-linejoin="round"
       stroke-miterlimit="10"
       stroke-width="0.585367"
       id="path1" />
    <path
       d="M 21.512196,0.29268351 H 9.8054636 c -1.211999,0 -2.195122,0.98312199 -2.195122,2.19512209 V 14.195708 c 0,1.212 0.983123,2.195122 2.195122,2.195122 H 21.512196 c 1.212293,0 2.195122,-0.983122 2.195122,-2.195122 V 2.4878056 c 0,-1.2120001 -0.982829,-2.19512209 -2.195122,-2.19512209 z m 0,13.53687849 c 0,0.201073 -0.164488,0.366146 -0.364976,0.366146 H 10.171611 c -0.2016594,0 -0.3661474,-0.165073 -0.3661474,-0.366146 V 2.8539517 c 0,-0.2007804 0.164488,-0.3661461 0.3661474,-0.3661461 H 21.14722 c 0.200781,0 0.364976,0.1653657 0.364976,0.3661461 z"
       stroke="#000000"
       stroke-linecap="round"
       stroke-linejoin="round"
       stroke-miterlimit="10"
       stroke-width="0.585367"
       id="path2" />
    <path
       d="m 14.195708,16.39083 v 4.75639 c 0,0.200781 -0.164487,0.364976 -0.365853,0.364976 H 2.8539517 c -0.2007804,0 -0.3661461,-0.164488 -0.3661461,-0.364976 V 10.17161 c 0,-0.2007804 0.1653657,-0.3661464 0.3661461,-0.3661464 H 7.6100496 V 7.610342 h -5.122244 c -1.2120001,0 -2.19512209,0.9831219 -2.19512209,2.1951216 V 21.512196 c 0,1.212293 0.98312199,2.195122 2.19512209,2.195122 H 14.195708 c 1.212,0 2.195122,-0.982829 2.195122,-2.195122 V 16.39083 Z"
       stroke="#000000"
       stroke-linecap="round"
       stroke-linejoin="round"
       stroke-miterlimit="10"
       stroke-width="0.585367"
       id="path3" />
  </g>
</svg>
