<?xml version="1.0" encoding="UTF-8" standalone="no"?>
<svg
   enable-background="new 0 0 24 24"
   height="24px"
   version="1.1"
   viewBox="0 0 24 24"
   width="24px"
   xml:space="preserve"
   id="svg1"
   sodipodi:docname="outbound-2-1.svg"
   inkscape:version="1.3 (0e150ed6c4, 2023-07-21)"
   xmlns:inkscape="http://www.inkscape.org/namespaces/inkscape"
   xmlns:sodipodi="http://sodipodi.sourceforge.net/DTD/sodipodi-0.dtd"
   xmlns="http://www.w3.org/2000/svg"
   xmlns:svg="http://www.w3.org/2000/svg"><defs
     id="defs1" /><sodipodi:namedview
     id="namedview1"
     pagecolor="#ffffff"
     bordercolor="#000000"
     borderopacity="0.25"
     inkscape:showpageshadow="2"
     inkscape:pageopacity="0.0"
     inkscape:pagecheckerboard="0"
     inkscape:deskcolor="#d1d1d1"
     inkscape:zoom="16.9375"
     inkscape:cx="9.7121771"
     inkscape:cy="14.376384"
     inkscape:window-width="1920"
     inkscape:window-height="1009"
     inkscape:window-x="-8"
     inkscape:window-y="-8"
     inkscape:window-maximized="1"
     inkscape:current-layer="svg1" /><g
     id="g1"
     transform="matrix(1.2,0,0,1.2,-2.4,-2.4)"><path
       d="m 20,18 c 0,1.103 -0.897,2 -2,2 H 6 C 4.897,20 4,19.103 4,18 V 6 C 4,4.897 4.897,4 6,4 h 7 V 2 H 6 C 3.794,2 2,3.794 2,6 v 12 c 0,2.206 1.794,4 4,4 h 12 c 2.206,0 4,-1.794 4,-4 v -7 h -2 z"
       id="path1" /><polygon
       points="22,9 21.999,2 15,2 15,4 18.586,4 13.465,9.121 14.879,10.535 20,5.415 20,9 "
       id="polygon1" /></g></svg>
