<?xml version="1.0" ?><!DOCTYPE svg  PUBLIC '-//W3C//DTD SVG 1.1//EN'  'http://www.w3.org/Graphics/SVG/1.1/DTD/svg11.dtd'><svg enable-background="new 0 0 56.693 56.693" height="56.693px" id="Layer_1" version="1.1" viewBox="0 0 56.693 56.693" width="56.693px" xml:space="preserve" xmlns="http://www.w3.org/2000/svg" xmlns:xlink="http://www.w3.org/1999/xlink"><g><path d="M21.765,8.138h-7.768c-0.947,0-1.716,0.768-1.716,1.716v39.918c0,0.947,0.769,1.717,1.716,1.717h7.768   c0.947,0,1.717-0.77,1.717-1.717V9.854C23.481,8.906,22.712,8.138,21.765,8.138z" fill="#474A56"/><path d="M43.044,8.138h-7.767c-0.948,0-1.717,0.768-1.717,1.716v39.918c0,0.947,0.769,1.717,1.717,1.717h7.767   c0.948,0,1.717-0.77,1.717-1.717V9.854C44.761,8.906,43.992,8.138,43.044,8.138z" fill="#474A56"/></g></svg>