<svg clip-rule="evenodd" fill-rule="evenodd" stroke-linejoin="round" stroke-miterlimit="2" viewBox="0 0 800 800" xmlns="http://www.w3.org/2000/svg"><g transform="matrix(3.26027 0 0 3.26027 -107.134999 213.023516)"><g fill="#171e25"><path d="m47.1 85.1h6.7c.3 0 .5.1.6.4l2.5 4c.2.4.1.8-.2 1.1-.1.1-.3.1-.4.1h-19.1c-.4 0-.8-.3-.8-.8v-3.4c0-.2.1-.4.2-.5l9.8-11.3c.3-.3.2-.8-.1-1.1-.1-.1-.3-.2-.5-.2h-8.2c-.4 0-.8-.3-.8-.8v-4c0-.4.3-.8.8-.8h18.2c.4 0 .8.3.8.8v3.3c0 .2-.1.4-.2.5l-9.8 11.3c-.3.3-.2.8.1 1.1.1.2.2.3.4.3"/><path d="m72.3 77.3c.4 0 .8-.3.8-.8v-.1c-.2-2.2-2.1-3.8-4.3-3.7-2.2 0-4 1.5-4.5 3.6-.1.4.1.8.5 1zm7 3.9h-14c-.4 0-.8.3-.8.7 0 .1 0 .2.1.3.8 2 2.8 3.3 5 3.2 1.8 0 3.5-.7 4.9-1.8.3-.3.7-.3 1 0l2.8 2.8c.3.3.3.8 0 1.1-2.6 2.3-5.8 3.6-9.3 3.5-6.5 0-10.9-3.7-11.8-9.3-1.4-8.8 5.3-14.9 14-13.6 6.1 1 9.2 5.6 9 12.6-.2.1-.5.4-.9.5z"/><path d="m90.4 70.7c1.3-1.6 3.1-2.7 5.1-3.1.4-.1.8.2.9.7v5c0 .4-.3.8-.8.8-3.8-.1-6.2 1.9-6.6 4.8v10.8c0 .4-.3.8-.8.8h-5.7c-.4 0-.8-.3-.8-.8v-21c0-.4.3-.8.8-.8h5.7c.4 0 .8.3.8.8v1.6c0 .4.4.8.8.8.3-.1.5-.2.6-.4"/><path d="m103 79.3c0 3.5 2.1 5.8 5.1 5.8s5.1-2.4 5.1-5.8c0-3.5-2.1-5.8-5.1-5.8s-5.1 2.3-5.1 5.8m17.5-.1c0 6.9-5 11.5-12.3 11.5s-12.4-4.6-12.4-11.5 5-11.5 12.4-11.5 12.3 4.6 12.3 11.5"/><path d="m147.4 79c0-3.5-2.1-5.8-5.1-5.8s-5 2.5-5 5.8c0 3.4 2.1 5.9 5 5.9s5.1-2.4 5.1-5.9m7.3.2c0 6.8-4.1 11.4-10.4 11.4-2.1 0-4.1-.7-5.6-2-.3-.3-.8-.2-1.1.1-.1.1-.2.3-.2.5v.4c0 .4-.3.8-.8.8h-5.7c-.4 0-.8-.3-.8-.8v-29.5c0-.4.3-.8.8-.8h5.7c.4 0 .8.3.8.8v8.8c0 .4.3.8.8.8.2 0 .4-.1.5-.2 1.6-1.3 3.5-2 5.4-2 6.4.1 10.6 4.7 10.6 11.7"/><path d="m161.8 79.3c0 3.5 2.1 5.8 5.1 5.8s5.1-2.4 5.1-5.8c0-3.5-2.1-5.8-5.1-5.8s-5.1 2.3-5.1 5.8m17.3-.1c0 6.9-5 11.5-12.3 11.5-7 0-12.4-5-12.4-11.5 0-6.9 5-11.5 12.4-11.5 7.5 0 12.3 4.6 12.3 11.5"/><path d="m202.7 85.4-5.7 4.2c-.3.2-.8.2-1.1-.2-.1-.1-.1-.3-.1-.4 0-.4-.4-.8-.8-.8-.2 0-.4.1-.6.2-1.6 1.6-3.8 2.4-6 2.3-4.9 0-8-3.4-8-8.6v-13.6c0-.4.3-.8.7-.8h5.7c.4 0 .8.3.8.8v11.4c0 2.7 1.5 4.3 3.8 4.3 2.8 0 4.4-2.3 4.4-5.4v-10.3c0-.4.3-.8.7-.8h5.7c.4 0 .8.3.8.8v16.2c0 .3-.1.5-.3.7"/><path d="m229.6 76.3v13.5c0 .4-.3.8-.8.8h-5.6c-.4 0-.8-.3-.8-.8v-11.5c0-2.7-1.6-4.3-4-4.3-2.7 0-4.3 1.9-4.6 4.6v10.4c0 .4-.3.8-.8.8-.2 0-.3-.1-.5-.1l-5.7-4.2c-.2-.1-.3-.4-.3-.6v-16.2c0-.4.3-.8.8-.8h5.7c.4 0 .8.3.8.8v.7c0 .4.3.8.8.8.2 0 .4-.1.5-.2 1.7-1.6 4-2.4 6.2-2.4 5 .1 8.3 3.4 8.3 8.7"/><path d="m251.8 73.2-4 2.4c-.3.2-.7.1-1-.1-1.1-1.2-2.6-1.9-4.2-1.9-2.8 0-4.8 2.3-4.8 5.6s2 5.7 4.8 5.7c1.7.1 3.3-.7 4.3-2 .2-.3.7-.4 1-.2l4 2.4c.4.2.5.7.3 1-2 2.9-5.4 4.6-9.8 4.6-6.9 0-11.6-4.6-11.6-11.5s4.8-11.6 11.7-11.6c4.2 0 7.5 1.6 9.6 4.4.1.5 0 .9-.3 1.2"/><path d="m266.9 77.3c.4 0 .8-.3.8-.8v-.1c-.2-2.2-2.1-3.8-4.3-3.7-2.2 0-4 1.5-4.5 3.6-.1.4.1.8.5 1zm7 3.9h-14.1c-.4 0-.8.3-.8.7 0 .1 0 .2.1.3.8 2 2.8 3.3 5 3.2 1.8 0 3.5-.7 4.9-1.8.3-.3.7-.3 1 0l2.8 2.8c.3.3.3.8 0 1.1-2.6 2.3-5.8 3.6-9.3 3.5-6.5 0-10.9-3.7-11.8-9.3-1.4-8.8 5.3-14.9 14-13.6 6.1 1 9.2 5.6 9 12.6-.1.1-.4.5-.8.5z"/></g><path d="m53.6 39.1c20.8-5.4 56.1-9.2 69.2 20.4.2.4.6.6 1 .4.2-.1.4-.3.4-.5 1-3.8 5-10.5 19.6-15.9.4-.2.8 0 1 .4s0 .8-.4 1c-6.9 4-16.6 10.7-20 18.8 0 0-.2 1-.7.1 0 0-15.9-32.2-69.8-23.4-.4 0-.7-.4-.7-.8 0-.1.2-.3.4-.5" fill="#fbdd46"/><path d="m104.2 27.8-8.3 8.5c-.2.2-.5.3-.8.2l-11-4.6c-.4-.2-.6-.6-.4-1 .1-.2.3-.4.6-.5l19.2-4c.4-.1.8.1.9.5s0 .7-.2.9m-21.2 20-3-14.5c-.1-.4.2-.8.6-.9h.4l14.3 5.9c.3.1.6.1.8-.2l10.9-11c.3-.3.8-.3 1.1 0 .1.1.2.2.2.4l2.3 10.6-1.3-14.3c0-.4-.4-.7-.8-.7h-.1l-30 6.1c-.4.1-.7.5-.6.9l4 19.4c.1.4.5.7.9.6l28.2-5.7-27 3.9c-.4.1-.8-.1-.9-.5" fill="#171e25" transform="translate(77.6087 .525261)"/></g></svg>