<?xml version="1.0" standalone="no"?><!DOCTYPE svg PUBLIC "-//W3C//DTD SVG 1.1//EN" "http://www.w3.org/Graphics/SVG/1.1/DTD/svg11.dtd"><svg t="1783874733108" class="icon" viewBox="0 0 1024 1024" version="1.1" xmlns="http://www.w3.org/2000/svg" p-id="8344" xmlns:xlink="http://www.w3.org/1999/xlink" width="128" height="128"><path d="M1023.06176 191.712c-49.088 3.648-106.56 38.112-144.672 57.44l-39.168 18.784c9.92-15.648 28.192-21.92 43.36-31.84 25.088-17.216 49.632-34.464 74.688-51.68 11.488-8.352 22.976-17.216 34.464-25.6-20.384 4.192-39.712 17.216-55.904 27.136-46.496 27.68-89.856 59.008-139.456 81.984 9.92-13.056 25.088-24.544 38.144-34.976 27.68-22.464 56.928-48.544 79.392-76.736 7.328-8.864 17.248-17.216 21.952-28.192-16.192 8.864-28.736 21.92-42.816 32.896-42.304 32.896-78.336 74.656-124.32 103.392 24.032-32.384 51.2-62.144 62.144-108.064-21.952 16.704-37.088 45.44-53.28 68.384a1379.456 1379.456 0 0 1-57.984 75.712c-25.088 30.816-66.848 48.032-100.8 69.44-10.976 7.84-21.952 15.648-33.44 23.488-4.192 3.648-8.352 7.84-12.544 11.488-6.784 3.648-13.056 3.648-18.816 7.84-20.384 14.624-26.112 49.6-49.088 60.032l-1.568 1.568a707.36 707.36 0 0 0-18.816-19.84c-16.704-13.568-40.224-29.76-61.12-38.112l1.568-11.488a55.584 55.584 0 0 0-29.248-9.408l-0.512-0.512c1.056-4.704 2.624-7.296 2.08-12.544h-1.568c-4.704-4.192-20.384-7.296-29.248-4.704h0.512v-15.648c-8.864-2.08-20.896-3.648-31.328-2.08 2.08-10.432-3.136-15.136-4.704-23.488-24.544-1.056-36.576 6.272-51.712 15.136l-0.512-0.512c-2.08-12 7.328-19.84 10.976-28.704-3.136-2.08-7.84-2.08-13.056-2.08-16.704 0-32.384 7.296-42.304 15.136-6.784 5.216-10.976 14.624-20.896 17.216h-3.648c2.624-13.056 7.328-27.68 12.544-38.624-21.952-16.704-50.144 16.192-61.632 25.056 0-14.624 5.76-30.272 2.08-44.384v-2.08c-35.52-4.192-31.872 21.408-41.28 46.976v1.568h-0.512c-8.352-27.68-16.704-55.872-36.032-73.088-0.512 0-1.568-0.512-2.08-0.512-16.704 25.6-3.136 62.656 2.624 91.904-6.784-5.728-9.408-16.192-13.568-24.032-13.568-26.624-24.032-57.952-50.656-72.576-17.248 28.704 16.192 69.44 19.84 94.496-13.568-9.92-16.192-30.816-40.224-28.192-3.648 13.568 6.784 25.6 12 33.952 16.704 27.68 40.736 43.872 68.416 60.576 27.68 15.648 54.848 31.328 82.528 46.976 49.088 34.464 101.344 93.984 117.536 159.776-18.272 21.408-52.768 26.624-69.984 49.6-6.784 8.864-10.432 20.352-12.544 33.952v12.544c-6.784 17.216-20.896 40.736 7.84 49.088-2.624-19.84 6.784-13.568 17.76-20.896 3.136-3.648 6.272-6.784 9.92-10.432 12.544-8.352 39.168-13.056 60.064-8.864 48.576 8.864 80.448 34.976 128.48 44.384 52.768 9.92 113.344-7.296 168.192-6.784 2.08 27.68 23.52 48.032 44.928 56.384 18.816 7.296 41.28-0.512 47.008-14.624l1.568-1.568-0.512-0.512c-4.192 0-8.352-0.512-12.544-0.512-0.512 0-1.568-0.512-2.08-0.512 2.624-12.544 1.568-19.84-2.624-30.816 0.512-2.624 0-2.08 1.568-3.648 3.136-2.08 6.784 0 10.976 0.512h0.512c0-6.784-0.512-13.568-0.512-19.84 8.864 1.568 17.76 3.136 27.168 4.704a11.776 11.776 0 0 0 2.624-1.568c0-1.056 0.512-2.08 0.512-2.624-2.624-3.648-6.272-5.728-6.784-10.976 7.328-7.84 36.576 12.544 50.656-2.624 22.464 5.216 46.496 29.76 76.768 19.84v-7.84c2.08-3.136 4.704-3.648 8.864-2.08 3.648-5.216-6.784-9.92-12.544-10.432 2.08-3.648 5.216-4.704 10.432-5.728-4.192-4.704-14.112-6.784-21.408-8.352-0.512-1.056-1.568-2.08-2.08-2.624 3.648-1.568 6.784-2.624 10.432-4.192-6.272-6.272-23.52-7.84-33.44-10.432 2.624-4.192 7.328-5.216 13.568-5.728v-0.512c-11.488-2.08-22.464-3.648-33.952-5.728-35.52-5.728-73.12 0-98.208-15.136-6.784-4.192-10.432-10.432-15.68-15.648-3.648-3.136-21.952-2.08-27.68-6.272 0-0.512-0.512-1.568-0.512-2.08 16.704 2.624 30.816-1.568 46.496-2.624 0.512-8.352-2.08-10.976-5.76-16.704v-6.784c30.816 5.216 31.872-37.6 12-45.44 0-0.512-0.512-1.056-0.512-1.568 7.328-2.08 15.68-1.056 25.088-1.568 0-3.648 0.512-6.784 0.512-10.432 4.192-7.296 12-6.272 12.544-18.784h13.056c3.648-14.624 20.384-8.352 20.896-27.68 7.328 3.648 19.84 0 15.136-10.976 5.216 1.056 10.432 0 15.136-0.512 2.624-3.136 3.648-4.704 3.648-10.976 8.352 2.624 14.112-0.512 19.84-3.648 0.512-7.296 0-13.056-4.704-15.136 0-1.056 0.512-2.08 0.512-2.624h17.248c1.568-1.568 5.216-14.112 7.84-17.216 8.864-11.488 27.168-16.704 30.304-34.464 14.624 0 26.112-5.728 26.112-20.896 19.84 0 33.44-13.568 33.952-32.896 18.272-5.216 28.736-10.432 28.192-33.952 32.384-0.512 35.52-23.488 49.632-41.248 5.216-3.136 9.92-6.272 15.136-9.408h1.568v-2.624c-17.248-4.192-40.736-2.624-57.984 0V293.12c16.704-6.784 40.224-13.056 61.12-16.704-10.432-11.488-50.144-5.728-68.416-5.728v-0.512c20.896-5.728 59.008-15.136 74.688-27.136h1.568c-13.056-5.216-37.088 1.056-47.52 3.648a760.32 760.32 0 0 0-104.48 30.816c51.2-28.192 101.856-56.384 153.056-84.576q-1.056-0.512-1.056-1.056zM218.16576 720.096c-3.648 0-6.784-3.136-6.784-6.784s3.136-6.784 6.784-6.784 6.784 3.136 6.784 6.784a6.56 6.56 0 0 1-6.784 6.784z" p-id="8345"></path></svg>