<svg width="20" height="19" viewBox="0 0 20 19" fill="none" xmlns="http://www.w3.org/2000/svg">
<g clip-path="url(#clip0_2391_6896)">
<path d="M11.4077 11.5262C10.0976 10.7039 8.78747 9.88158 7.47039 9.05928C7.11499 8.83628 6.98259 8.91294 6.98259 9.33106C6.97562 10.1464 6.98259 10.9617 6.98259 11.777C6.98259 12.5924 6.98259 13.4077 6.98259 14.223C6.98259 14.6481 7.10803 14.7248 7.45646 14.5088C8.77353 13.6934 10.0836 12.8711 11.3937 12.0488C11.7213 11.8467 11.7282 11.7283 11.4077 11.5262Z" fill="white"/>
<path d="M19.2403 2.66899C18.7386 2.66202 18.2368 2.64112 17.7421 2.67596C17.3727 2.70383 17.31 2.57143 17.3239 2.23693C17.3518 1.74216 17.3379 1.24042 17.3309 0.738676C17.3239 0.285714 17.0661 0 16.6689 0C16.2717 0 16.0069 0.285714 15.9999 0.738676C15.9929 1.25436 15.972 1.77003 16.0069 2.27875C16.0278 2.62718 15.9023 2.6899 15.5957 2.67596C15.094 2.65505 14.5992 2.66899 14.0975 2.66899C13.6166 2.67596 13.3239 2.94077 13.3379 3.35192C13.3518 3.74216 13.6375 3.99303 14.0975 4C14.6131 4.00697 15.1288 4.02787 15.6375 3.99303C15.9651 3.97213 16.0278 4.09059 16.0138 4.38328C15.9929 4.92683 15.9999 5.46341 16.0138 6.00697C16.0208 6.39721 16.3065 6.66202 16.6759 6.66202C17.0382 6.66202 17.3239 6.39721 17.3379 6.00697C17.3518 5.70035 17.3309 5.39373 17.3448 5.09408C17.3588 4.73868 17.1846 4.25087 17.4145 4.06272C17.6306 3.8885 18.0975 4.02787 18.4529 4.02787C18.4598 4.02787 18.4598 4.02787 18.4529 4.02787C18.7177 4.02787 18.9755 4.00697 19.2403 4C19.7212 3.99303 20.0138 3.72822 19.9999 3.31707C19.986 2.91986 19.7002 2.66899 19.2403 2.66899Z" fill="white"/>
<path d="M17.0174 8.20911C16.878 8.20911 16.7387 8.20214 16.5993 8.1882C16.5923 10.4391 16.5993 12.6899 16.5993 14.9408C16.5993 16.2509 15.7352 17.115 14.4321 17.122C10.7666 17.129 7.09408 17.122 3.42857 17.122C2.11847 17.122 1.25436 16.2579 1.25436 14.9478C1.25436 12.1255 1.26132 9.30318 1.24739 6.48785C1.24739 6.19517 1.34495 6.16033 1.59582 6.16033C4.04878 6.16729 6.49477 6.16729 8.94773 6.16729C10.2927 6.16729 10.8223 6.16729 12.1742 6.16729V4.91991H8.96167C8.77352 4.91991 8.58537 4.91991 8.39721 4.91991C8.25784 4.91991 8.18815 4.85719 8.11847 4.75963C7.4007 3.78402 6.67596 2.80144 5.95819 1.82583C6.02091 1.7213 6.1115 1.77008 6.18118 1.77008C7.24739 1.76311 8.31359 1.77008 9.38676 1.76311C9.42857 1.76311 9.47038 1.76311 9.50523 1.77008H12.1045C12.4111 1.77008 11.8885 1.77008 12.1882 1.76311V0.529663C9.00348 0.529663 6.64112 0.529663 3.45645 0.529663C1.44251 0.529663 0 1.9652 0 3.9443C0 5.77705 0 7.61677 0 9.44952C0 11.3102 0 13.1638 0 15.0244C0 16.899 1.47735 18.3694 3.35889 18.3694C7.0662 18.3694 10.7666 18.3694 14.4739 18.3694C16.3763 18.3694 17.8467 16.906 17.8467 15.0035C17.8467 12.7108 17.8467 10.4251 17.8467 8.13245C17.5749 8.18123 17.3031 8.20911 17.0174 8.20911ZM1.32404 3.26137C1.57491 2.39726 2.34146 1.84674 3.23345 1.75614C4.02091 1.67949 4.56446 1.86764 4.99652 2.59238C5.47038 3.39377 6.08362 4.10458 6.68293 4.91294C4.89199 4.91294 3.1777 4.91294 1.46341 4.91294C1.37282 4.91294 1.24042 4.95475 1.24739 4.78053C1.26829 4.27879 1.1777 3.76311 1.32404 3.26137Z" fill="white"/>
</g>
<defs>
<clipPath id="clip0_2391_6896">
<rect width="20" height="18.3693" fill="white"/>
</clipPath>
</defs>
</svg>
