<svg width="16" height="16" viewBox="0 0 16 16" fill="none" xmlns="http://www.w3.org/2000/svg">
<g clip-path="url(#clip0_2319_30655)">
<path d="M1.67251 11.5661C2.5088 10.7929 3.39243 9.98029 4.26028 9.16767C4.67054 8.78897 5.09657 8.44972 5.66462 8.34715C6.49302 8.18936 7.22675 8.39449 7.84214 8.96254C8.3234 9.40435 8.79677 9.86195 9.25436 10.3353C9.42793 10.5168 9.5305 10.5326 9.71196 10.3432C10.1143 9.91717 10.5719 9.57003 11.1636 9.45958C11.9131 9.31757 12.5916 9.46747 13.1991 9.94084C13.2701 9.99607 13.3096 10.0907 13.4674 10.075C13.4674 9.80672 13.4595 9.53848 13.4674 9.27023C13.4832 8.7653 13.8461 8.42605 14.3195 8.43394C14.7692 8.44183 15.14 8.79686 15.14 9.27023C15.1163 10.572 15.211 11.8738 15.069 13.1677C14.9191 14.5562 13.7041 15.7791 12.3155 15.9369C11.8342 15.9921 11.3451 16.0079 10.8638 16.0079C8.4733 16.0079 6.08277 16.0079 3.68434 16C2.8086 16 1.96442 15.8501 1.25436 15.2663C0.386514 14.5562 0.0157055 13.6253 0.00781596 12.5365C-7.35854e-05 9.79883 -0.0158527 7.06116 0.0157055 4.33138C0.0314846 2.69824 0.891445 1.49114 2.24056 1.05721C2.68237 0.915202 3.13997 0.867864 3.59756 0.859975C4.6232 0.844196 5.64884 0.852085 6.67448 0.852085C7.20308 0.852085 7.57389 1.20711 7.57389 1.68838C7.57389 2.17753 7.22675 2.51678 6.68237 2.52467C5.52261 2.54834 4.37074 2.49311 3.21097 2.5799C2.36679 2.6509 1.78296 3.21106 1.73563 4.07102C1.60939 6.61145 1.71985 9.15978 1.67251 11.5661ZM10.7692 14.3353C10.6903 14.2249 10.6666 14.1775 10.635 14.146C9.38849 12.8521 8.14194 11.5503 6.83227 10.3195C6.31945 9.83828 5.9802 9.83828 5.47527 10.3432C4.35496 11.4714 3.25831 12.6154 2.14588 13.7515C2.41413 14.0829 2.76127 14.2406 3.17152 14.2643C5.67251 14.3984 8.18139 14.2801 10.7692 14.3353ZM13.42 12.789C13.4753 12.5996 13.3885 12.4576 13.2465 12.3235C12.9782 12.071 12.7337 11.8028 12.4733 11.5424C11.8579 10.927 11.5423 10.927 10.9112 11.5188C10.7218 11.6923 10.6824 11.8028 10.8954 12C11.4161 12.4971 11.9053 13.0257 12.4023 13.5464C12.8441 14.0118 13.0256 13.9803 13.2938 13.3728C13.3727 13.1913 13.4279 13.002 13.42 12.789Z" fill="#675ED5"/>
<path d="M14.422 4.26036C14.1222 4.26036 13.7198 4.14202 13.5463 4.29192C13.3411 4.47338 13.4989 4.88364 13.4831 5.19133C13.4674 5.42802 13.491 5.6647 13.4753 5.90139C13.4437 6.39054 13.065 6.76135 12.6153 6.76135C12.1656 6.75346 11.7948 6.39054 11.7711 5.8935C11.7553 5.45957 11.7396 5.02565 11.7711 4.59172C11.7948 4.27614 11.6764 4.22091 11.4003 4.23669C11.0058 4.26036 10.6113 4.24458 10.2169 4.24458C9.63304 4.23669 9.23856 3.87377 9.24645 3.38462C9.25434 2.88758 9.64882 2.54833 10.2326 2.54044C10.6429 2.53255 11.0453 2.52466 11.4555 2.54833C11.7317 2.56411 11.779 2.46155 11.7711 2.21697C11.7553 1.80671 11.7632 1.40435 11.7711 0.99409C11.779 0.394485 12.1419 -0.00788238 12.6311 7.17009e-06C13.1281 0.00789672 13.4674 0.402374 13.4753 0.986201C13.4831 1.39646 13.491 1.79882 13.4674 2.20908C13.4516 2.47732 13.5541 2.54044 13.7987 2.52466C14.209 2.50888 14.6113 2.51677 15.0216 2.52466C15.6054 2.53255 15.9999 2.88758 15.9999 3.38462C15.992 3.88166 15.5975 4.22091 15.0137 4.2288C14.8165 4.2288 14.6192 4.2288 14.422 4.2288C14.422 4.23669 14.422 4.24458 14.422 4.26036Z" fill="#675ED5"/>
<path d="M5.50687 6.99014C6.29553 6.99014 6.93487 6.3508 6.93487 5.56213C6.93487 4.77347 6.29553 4.13412 5.50687 4.13412C4.7182 4.13412 4.07886 4.77347 4.07886 5.56213C4.07886 6.3508 4.7182 6.99014 5.50687 6.99014Z" fill="#675ED5"/>
</g>
<defs>
<clipPath id="clip0_2319_30655">
<rect width="16" height="16" fill="white"/>
</clipPath>
</defs>
</svg>
