<svg width="19" height="18" viewBox="0 0 19 18" fill="none" xmlns="http://www.w3.org/2000/svg">
<path d="M0 12.8672C0 8.57812 0 4.28906 0 0C6 0 12 0 18 0C18 4.28906 18 8.57812 18 12.8672C17.9484 12.8672 17.8969 12.8625 17.8406 12.8625C11.9438 12.8625 6.05156 12.8625 0.154687 12.8625C0.103125 12.8625 0.0515625 12.8672 0 12.8672ZM6.45 9.95156C6.23906 9.58125 6.05625 9.18281 5.80781 8.83594C4.7625 7.37344 2.80312 7.31719 1.67812 8.70938C1.0125 9.53438 0.740625 10.5141 0.646875 11.55C0.632812 11.7234 0.759375 11.8641 0.91875 11.8828C1.09688 11.9062 1.23281 11.8078 1.27969 11.625C1.29375 11.5688 1.29375 11.5078 1.30312 11.4516C1.41094 10.6687 1.60781 9.91406 2.06719 9.25312C2.62031 8.45156 3.52031 8.14688 4.37344 8.475C4.95938 8.7 5.325 9.15938 5.59219 9.70312C5.8875 10.2984 6.03281 10.9312 6.1125 11.5875C6.13594 11.7844 6.25781 11.8875 6.43594 11.8875C6.60938 11.8828 6.72656 11.7656 6.75469 11.5781C6.7875 11.3531 6.81562 11.1234 6.8625 10.9031C7.01719 10.2141 7.24219 9.55313 7.72969 9.01406C8.2125 8.475 8.82187 8.26875 9.53437 8.4C10.2141 8.52187 10.6453 8.96719 10.9688 9.53906C11.3203 10.1672 11.4891 10.8516 11.5734 11.5594C11.5969 11.7609 11.7 11.8781 11.8687 11.8922C12.0562 11.9062 12.1734 11.8078 12.2156 11.5969C12.2578 11.3859 12.2906 11.1703 12.3469 10.9641C12.5344 10.2516 12.7969 9.57187 13.3125 9.02344C13.6359 8.67656 14.025 8.45156 14.5031 8.39062C14.8828 9.15469 15.4031 9.45 16.0734 9.29062C16.6406 9.15 17.0578 8.60625 17.0438 8.025C17.025 7.41562 16.5984 6.90469 16.0125 6.79219C15.3375 6.66094 14.8219 6.97969 14.4938 7.73906C13.8609 7.80469 13.3266 8.08125 12.8812 8.53594C12.45 8.98125 12.1641 9.51562 11.9344 10.1156C11.9016 10.0359 11.8828 9.97969 11.8594 9.93281C11.6812 9.58594 11.5312 9.22031 11.3156 8.89688C10.6031 7.85156 9.38906 7.45781 8.26406 7.88906C7.51406 8.175 7.04531 8.75156 6.69375 9.44062C6.59063 9.60938 6.51563 9.79688 6.45 9.95156ZM7.39219 4.18125C7.39219 4.64531 7.3875 5.10469 7.39219 5.56875C7.39687 5.92031 7.55625 6.19219 7.875 6.34687C8.18437 6.49687 8.475 6.43594 8.74688 6.23438C9.3375 5.79375 9.93281 5.35781 10.5234 4.92188C11.0672 4.51406 11.0719 3.85313 10.5281 3.44531C9.9375 3.00469 9.34688 2.56875 8.75156 2.13281C8.6625 2.06719 8.56406 2.01094 8.46094 1.97344C7.92656 1.8 7.40156 2.20312 7.39219 2.79844C7.38281 3.25781 7.3875 3.72187 7.39219 4.18125Z" fill="#675ED5"/>
<path d="M18.0002 14.5547C17.9158 14.7375 17.7658 14.7891 17.5736 14.7891C11.8596 14.7891 6.14551 14.7891 0.431445 14.7891C0.248633 14.7891 0.112695 14.7235 0.00488281 14.5875C0.00488281 14.2219 0.00488281 13.861 0.00488281 13.4954C6.00488 13.4954 12.0049 13.4954 18.0049 13.4954C18.0002 13.8516 18.0002 14.2032 18.0002 14.5547Z" fill="#675ED5"/>
<path d="M4.07803 18C3.95616 17.9156 3.84366 17.8266 3.86241 17.6531C3.88116 17.4938 3.96553 17.3953 4.12491 17.3672C4.18116 17.3578 4.24209 17.3625 4.29834 17.3625C7.42959 17.3625 10.5655 17.3625 13.6968 17.3625C13.7437 17.3625 13.7905 17.3625 13.8374 17.3625C13.9827 17.3672 14.0812 17.4516 14.1233 17.5828C14.1655 17.7141 14.128 17.8406 14.0155 17.9297C13.9827 17.9531 13.9499 17.9766 13.9218 18C10.6405 18 7.35928 18 4.07803 18Z" fill="#675ED5"/>
<path d="M12.009 16.7015C9.98867 16.7015 8.00117 16.7015 5.99023 16.7015C6.20117 16.2843 6.39805 15.8812 6.6043 15.4875C6.62305 15.4546 6.68867 15.4359 6.73086 15.4359C8.24023 15.4312 9.74961 15.4312 11.259 15.4359C11.3059 15.4359 11.3809 15.464 11.3996 15.4968C11.6059 15.8859 11.798 16.2843 12.009 16.7015Z" fill="#675ED5"/>
<path d="M16.3871 8.02971C16.3871 8.39065 16.1012 8.68127 15.7449 8.68127C15.3934 8.68127 15.1121 8.39534 15.1074 8.04377C15.1074 7.68284 15.3934 7.39221 15.7496 7.39221C16.1012 7.39221 16.3871 7.67815 16.3871 8.02971Z" fill="#675ED5"/>
<path d="M8.03437 4.18599C8.03437 3.74068 8.02969 3.29536 8.03906 2.85005C8.03906 2.76568 8.08594 2.64849 8.15156 2.6063C8.19844 2.57349 8.325 2.62505 8.39063 2.67193C8.97188 3.0938 9.54844 3.52505 10.1297 3.95161C10.3359 4.1063 10.3359 4.2563 10.125 4.41099C9.54375 4.84224 8.9625 5.27349 8.37188 5.70005C8.31094 5.74224 8.19844 5.77974 8.14219 5.75161C8.08594 5.72349 8.03906 5.61099 8.03906 5.53599C8.02969 5.08599 8.03437 4.63599 8.03437 4.18599Z" fill="#675ED5"/>
</svg>
