<svg width="18" height="18" viewBox="0 0 18 18" fill="none" xmlns="http://www.w3.org/2000/svg">
<path d="M1.00722 14.0101C1.05217 12.4232 1.5466 11.0834 2.30324 9.86334C2.70778 9.21214 2.69279 8.77052 2.29575 8.13429C1.59904 7.0265 1.16454 5.79895 1.0222 4.46661C0.797461 2.33337 2.30324 0.813903 4.43081 1.02348C6.00401 1.18067 7.39742 1.80942 8.7234 2.6178C8.93316 2.74505 9.06801 2.75253 9.27777 2.6178C10.424 1.90672 11.6301 1.33786 12.971 1.09085C13.6528 0.963604 14.3345 0.956119 15.0087 1.15822C16.3347 1.56241 17.1138 2.84235 16.9865 4.34685C16.8516 5.94117 16.2148 7.34087 15.4058 8.6807C15.2709 8.91273 15.241 9.05495 15.3908 9.30196C16.095 10.4397 16.6643 11.6373 16.8966 12.9621C17.0014 13.5535 17.0389 14.1523 16.8966 14.7436C16.5445 16.2331 15.2409 17.1089 13.6902 16.9891C12.0646 16.8544 10.6487 16.2107 9.28526 15.3873C9.06801 15.2601 8.91818 15.2451 8.70093 15.3798C7.54724 16.0834 6.34861 16.6747 5.00016 16.8918C4.31844 17.0041 3.63671 17.0565 2.96998 16.8319C1.71891 16.4128 0.99973 15.3424 1.00722 14.0101ZM13.2782 8.99507C13.2258 8.9277 13.1883 8.88279 13.1508 8.8304C12.0196 7.31093 10.6862 5.98608 9.17289 4.84835C9.03055 4.74356 8.95563 4.76601 8.82828 4.85583C7.3225 5.98608 6.00401 7.30345 4.8728 8.80794C4.76792 8.95016 4.76043 9.0325 4.8728 9.1822C6.00401 10.6867 7.3225 12.0041 8.82828 13.1343C8.95563 13.2316 9.03055 13.2616 9.17289 13.1493C10.6862 12.0115 12.0196 10.6867 13.1508 9.16723C13.1883 9.11483 13.2332 9.05495 13.2782 8.99507ZM7.57721 3.79296C6.446 3.1717 5.32978 2.62529 4.02627 2.6178C3.14977 2.6178 2.65534 3.08188 2.63286 3.95763C2.59541 5.29745 3.17225 6.4277 3.79404 7.58039C4.91026 6.15075 6.16133 4.90823 7.57721 3.79296ZM10.424 3.80044C11.8623 4.9232 13.0984 6.1732 14.2146 7.58039C14.8214 6.43518 15.3908 5.31991 15.3758 4.01751C15.3608 3.07439 14.8589 2.61032 13.915 2.63277C12.6414 2.64774 11.5477 3.18667 10.424 3.80044ZM3.78654 10.4172C3.16475 11.5849 2.58042 12.7301 2.62537 14.0774C2.65534 14.8858 3.10482 15.3424 3.9139 15.3649C5.26236 15.4098 6.40855 14.8334 7.57721 14.2122C6.15384 13.0894 4.90277 11.8394 3.78654 10.4172ZM14.2146 10.4247C13.0909 11.8693 11.8398 13.0969 10.4389 14.1972C11.7275 14.9906 13.046 15.4098 14.1023 15.3649C14.8889 15.3349 15.3383 14.8858 15.3683 14.0999C15.4357 12.7526 14.8439 11.6074 14.2146 10.4247Z" fill="#3E3C53"/>
<path d="M9.03374 7.8839C9.65734 7.89232 10.1461 8.38928 10.1377 9.01259C10.1292 9.64431 9.64048 10.116 9.00004 10.1076C8.36801 10.0992 7.8961 9.61904 7.90453 8.97889C7.90453 8.34717 8.39329 7.87548 9.03374 7.8839Z" fill="#3E3C53"/>
</svg>
