<svg width="14" height="14" viewBox="0 0 14 14" fill="none" xmlns="http://www.w3.org/2000/svg">
<g clip-path="url(#clip0_2232_6472)">
<path d="M6.96951 14C5.52439 14 4.08537 14 2.64024 14C1.03049 14 0 12.9634 0 11.3476C0 8.42073 0 5.4939 0 2.56707C0 1.33537 0.713415 0.384146 1.85366 0.0914634C2.06098 0.0365854 2.27439 0.00609756 2.48171 0.00609756C3.73171 0 4.98171 0 6.23171 0C6.31098 0 6.39634 0.00609756 6.46951 0.0304878C6.73171 0.103659 6.85366 0.292683 6.82317 0.554878C6.79268 0.810976 6.63415 0.957317 6.37805 0.963415C5.95122 0.97561 5.52439 0.969512 5.09756 0.969512C4.2561 0.969512 3.40854 0.963415 2.56707 0.969512C1.60366 0.97561 0.981707 1.59146 0.981707 2.54878C0.97561 5.51829 0.97561 8.47561 0.97561 11.4268C0.97561 12.4085 1.59756 13.0183 2.57927 13.0183C5.52439 13.0244 8.46951 13.0244 11.4207 13.0183C12.4024 13.0183 13.0183 12.4024 13.0244 11.4207C13.0305 10.1707 13.0244 8.92073 13.0305 7.67073C13.0305 7.36585 13.2134 7.17683 13.4878 7.17073C13.7622 7.15854 13.9573 7.32927 14 7.62805C14.0122 7.69512 14.0061 7.76829 14.0061 7.84146C14.0061 9.04268 14.0122 10.2378 14 11.439C14 11.6707 13.9756 11.9085 13.9207 12.1341C13.6402 13.2622 12.689 13.9939 11.4878 14C9.97561 14.0061 8.47561 14 6.96951 14Z" fill="white"/>
<path d="M12.3167 0.97555C11.3715 0.97555 10.5118 0.981648 9.65204 0.97555C9.32277 0.97555 9.13374 0.798721 9.12765 0.512136C9.12155 0.22555 9.29838 0.0121356 9.61545 0.00603801C10.902 -5.95464e-05 12.1947 -5.95464e-05 13.4813 0.00603801C13.7984 0.00603801 13.9935 0.207258 13.9935 0.536526C13.9996 1.80482 13.9996 3.07311 13.9935 4.3475C13.9935 4.68896 13.7923 4.88409 13.4996 4.87799C13.2069 4.87799 13.0301 4.68287 13.024 4.32921C13.0179 3.47555 13.024 2.62189 13.024 1.69506C12.902 1.80482 12.8228 1.87189 12.7557 1.93896C11.2252 3.46945 9.69472 4.99994 8.16423 6.53043C8.08496 6.6097 8.01179 6.69506 7.91423 6.74994C7.70082 6.87799 7.4874 6.86579 7.30448 6.68287C7.13375 6.50604 7.12765 6.29872 7.2435 6.0975C7.29838 6.00604 7.38374 5.92677 7.46301 5.8475C8.9874 4.32311 10.5057 2.80482 12.0301 1.28043C12.1094 1.20116 12.1825 1.11579 12.3167 0.97555Z" fill="white"/>
</g>
<defs>
<clipPath id="clip0_2232_6472">
<rect width="14" height="14" fill="white"/>
</clipPath>
</defs>
</svg>
