<svg width="16" height="16" viewBox="0 0 16 16" fill="none" xmlns="http://www.w3.org/2000/svg">
<path d="M8.00065 12C11.6827 12 14.6673 8 14.6673 8C14.6673 8 11.6827 4 8.00065 4C4.31865 4 1.33398 8 1.33398 8C1.33398 8 4.31865 12 8.00065 12Z" stroke="#0E0B28" stroke-width="1.3" stroke-linejoin="round"/>
<path d="M8.00065 9.66671C8.44268 9.66671 8.8666 9.49111 9.17916 9.17855C9.49172 8.86599 9.66732 8.44207 9.66732 8.00004C9.66732 7.55801 9.49172 7.13409 9.17916 6.82153C8.8666 6.50897 8.44268 6.33337 8.00065 6.33337C7.55862 6.33337 7.1347 6.50897 6.82214 6.82153C6.50958 7.13409 6.33398 7.55801 6.33398 8.00004C6.33398 8.44207 6.50958 8.86599 6.82214 9.17855C7.1347 9.49111 7.55862 9.66671 8.00065 9.66671Z" stroke="#0E0B28" stroke-width="1.3" stroke-linejoin="round"/>
</svg>
