<svg width="27" height="14" viewBox="0 0 27 14" fill="none" xmlns="http://www.w3.org/2000/svg">
<g clip-path="url(#clip0_2419_21656)">
<path d="M7.8662 10.6544C8.54094 11.0662 9.23676 10.9735 9.90095 10.5824C12.3258 9.13088 14.7612 9.13088 17.186 10.5721C17.9134 11.0044 18.6093 10.9838 19.3683 10.6029C20.2329 10.1706 21.1395 9.82059 22.1727 9.37794C22.3941 6.05294 21.129 3.25294 18.0927 1.4C15.0036 -0.494118 11.7776 -0.442647 8.73071 1.51324C5.82091 3.38676 4.60849 6.14559 4.85097 9.56324C5.97905 9.69706 6.94898 10.0985 7.8662 10.6544ZM15.5624 4.97206C15.8365 3.68529 17.07 2.78971 18.5671 3.01618C17.6077 3.57206 17.2914 4.65294 17.6604 5.49706C17.8818 5.99118 18.2403 6.35147 18.7569 6.55735C19.2629 6.76324 19.7795 6.75294 20.2961 6.55735C19.9271 7.43235 18.7885 8.18382 17.4707 7.875C16.1317 7.56618 15.2778 6.28971 15.5624 4.97206Z" fill="#675ED5"/>
<path d="M26.4608 12.178C26.2394 12.0647 26.0285 11.9618 25.8177 11.8382C23.9727 10.778 22.1277 10.7677 20.2933 11.8485C18.9438 12.6515 17.6365 12.6618 16.287 11.8485C14.4737 10.7677 12.6392 10.7574 10.8259 11.8382C9.46587 12.6515 8.12694 12.6721 6.77746 11.828C5.94459 11.303 5.01682 11.0765 4.03635 11.0456C3.93092 11.0456 3.82549 11.0456 3.72006 11.0456C2.43385 11.0971 1.39012 11.7456 0.33584 12.3427C-0.0120712 12.5382 -0.0964132 12.9191 0.114442 13.2897C0.325297 13.6706 0.683751 13.8044 1.09492 13.65C1.46391 13.5059 1.81183 13.3 2.15974 13.1044C3.37215 12.4353 4.6162 12.353 5.80753 13.0735C7.8212 14.2985 9.77161 14.3088 11.7853 13.0838C12.9344 12.3838 14.1785 12.3838 15.3276 13.0838C17.3202 14.2985 19.2601 14.3088 21.2527 13.0941C22.4545 12.3632 23.7197 12.425 24.9426 13.1147C25.2273 13.2794 25.5119 13.4544 25.8177 13.5882C26.3026 13.7941 26.7244 13.65 26.9247 13.2382C27.1144 12.8162 26.9458 12.425 26.4608 12.178Z" fill="#675ED5"/>
</g>
<defs>
<clipPath id="clip0_2419_21656">
<rect width="27" height="14" fill="white"/>
</clipPath>
</defs>
</svg>
