<svg width="18" height="18" viewBox="0 0 18 18" fill="none" xmlns="http://www.w3.org/2000/svg">
<g clip-path="url(#clip0_2093_13619)">
<path d="M3.29121 2.03521C3.51058 1.82803 3.82743 1.79147 4.09555 1.92552C4.11992 1.93771 4.14429 1.9499 4.16867 1.96209C4.65614 2.24238 5.13143 2.54706 5.6189 2.81517C5.72859 2.8761 5.9967 2.85173 6.11857 2.81517C6.21606 2.79079 6.24043 2.77861 6.28918 2.76642C6.9229 2.66892 7.02039 2.2302 7.09351 1.65741C7.15445 1.25525 7.27632 0.865267 7.37381 0.463101C7.44693 0.19499 7.69067 0 7.97097 0C8.62906 0 9.28715 0 9.94524 0C10.2743 0 10.4693 0.158429 10.5424 0.475288C10.6765 1.06026 10.8227 1.63304 10.9568 2.21801C11.0055 2.413 11.1152 2.51049 11.2858 2.60799C11.8951 2.98578 12.4192 2.86391 12.9554 2.44956C13.2235 2.2302 13.5526 2.08395 13.8572 1.90115C14.1253 1.74272 14.3691 1.7671 14.6006 1.98646C15.0637 2.44956 15.5268 2.91266 15.9899 3.37576C16.2337 3.6195 16.2337 3.88761 16.063 4.16791C15.7706 4.65538 15.4781 5.15504 15.1734 5.64252C15.0759 5.80095 15.1125 6.05687 15.1734 6.2153C15.2222 6.34936 15.2465 6.41029 15.2953 6.50779C15.5756 7.06838 15.7949 7.09276 16.3312 7.16588C16.7211 7.22681 17.0989 7.34868 17.4889 7.44617C17.8545 7.53148 18.0251 7.75085 17.9886 8.1652C17.9398 8.75017 17.952 9.33514 17.9886 9.9323C18.0129 10.3223 17.8545 10.5416 17.5011 10.6269C16.9161 10.761 16.3433 10.8707 15.7584 11.0047C15.5512 11.0535 15.4903 11.2241 15.3806 11.3947C15.0028 11.9919 15.1247 12.5037 15.539 13.0278C15.7462 13.2837 15.8924 13.6005 16.063 13.8808C16.2337 14.1611 16.1849 14.5146 15.9534 14.7461C15.5146 15.1726 15.0881 15.5992 14.6616 16.0379C14.4056 16.306 14.1253 16.3426 13.8085 16.1476C13.321 15.8551 12.736 15.5383 12.2242 15.2823C12.1511 15.2458 11.883 15.2336 11.7367 15.258C11.0177 15.392 10.6643 15.7942 10.5911 16.501C10.5546 16.8422 10.6277 17.22 10.5302 17.5613C10.4449 17.8903 10.2134 18.0487 9.82337 18C9.2384 17.9391 8.64125 17.9634 8.05628 18C7.67848 18.0244 7.44693 17.8781 7.36163 17.5369C7.22757 17.0129 7.09351 16.501 6.97165 15.977C6.9229 15.7576 6.78884 15.5748 6.59385 15.4529C5.98451 15.0752 5.47266 15.197 4.94863 15.6114C4.68052 15.8307 4.35147 15.977 4.0468 16.1598C3.7665 16.3182 3.49839 16.2938 3.26684 16.0501C2.82811 15.5992 2.38938 15.1483 1.93847 14.7217C1.68255 14.478 1.64599 14.2099 1.82879 13.9052C2.13346 13.4056 2.49907 12.7596 2.73062 12.2234C2.77936 12.1016 2.75499 11.9309 2.73062 11.7847C2.59656 11.0657 2.14565 10.9316 1.451 10.8585C1.10976 10.8219 0.768532 10.7001 0.427299 10.6026C0.0738802 10.5051 -0.0723622 10.2613 0.000758991 9.82261C0.0860671 9.29858 0.0860671 8.75017 0.000758991 8.22613C-0.0723622 7.78741 0.0982539 7.53148 0.46386 7.44617C1.02446 7.29993 1.59724 7.17806 2.15783 7.00745C2.29189 6.97089 2.40157 6.86121 2.48688 6.72715C2.51125 6.69059 2.53563 6.65403 2.56 6.61747C2.92561 6.09343 2.77936 5.58158 2.42595 5.11848C2.20658 4.826 2.04815 4.49695 1.86535 4.19228C1.67036 3.87542 1.69473 3.60731 1.96284 3.3392C2.41376 2.91266 2.8403 2.46175 3.29121 2.03521ZM8.94592 6.3981C7.50787 6.3981 6.31356 7.6046 6.32574 9.04265C6.32574 10.4807 7.53224 11.675 8.97029 11.6628C10.4083 11.6628 11.6027 10.4563 11.5905 9.01828C11.5905 7.58023 10.3962 6.38592 8.94592 6.3981Z" fill="#675ED5"/>
<path d="M8.94439 6.39819C10.3946 6.39819 11.5889 7.58032 11.5889 9.01837C11.5889 10.4686 10.4068 11.6629 8.96877 11.6629C7.51853 11.6629 6.32422 10.4808 6.32422 9.04274C6.32422 7.59251 7.50634 6.39819 8.94439 6.39819Z" fill="white"/>
</g>
<defs>
<clipPath id="clip0_2093_13619">
<rect width="18" height="18" fill="white"/>
</clipPath>
</defs>
</svg>
