<svg width="15" height="15" viewBox="0 0 15 15" fill="none" xmlns="http://www.w3.org/2000/svg">
<g clip-path="url(#clip0_3884_11261)">
<path d="M11.05 10C11.0786 10.0066 11.1077 10.0117 11.1357 10.0194C11.3679 10.0816 11.5561 10.3071 11.5332 10.5903C11.5123 10.8444 11.3163 11.0439 11.0776 11.0796C10.7776 11.125 10.499 10.9224 10.4546 10.6281C10.4092 10.326 10.6112 10.0531 10.9153 10.0051C10.9194 10.0046 10.9235 10.0015 10.9276 10C10.9684 10 11.0092 10 11.05 10Z" fill="#675ED5"/>
<path d="M11.865 12.5C11.838 12.4847 11.8268 12.4612 11.8253 12.4306C11.8242 12.403 11.8196 12.3755 11.815 12.3484C11.8135 12.3403 11.8069 12.3316 11.7997 12.327C11.7839 12.3158 11.7645 12.3097 11.7497 12.2969C11.7309 12.2806 11.7145 12.2811 11.6936 12.2923C11.6691 12.3051 11.6431 12.3142 11.6176 12.3244C11.5834 12.3382 11.5594 12.3306 11.5411 12.2994C11.513 12.252 11.4855 12.204 11.4584 12.1561C11.4411 12.1255 11.4467 12.1005 11.4737 12.079C11.5008 12.0581 11.5288 12.0382 11.5548 12.0168C11.5615 12.0117 11.5645 12 11.5656 11.9908C11.5671 11.9683 11.5645 11.9454 11.5666 11.9229C11.5681 11.9097 11.5645 11.902 11.5538 11.8949C11.5268 11.8755 11.5003 11.8551 11.4737 11.8347C11.4462 11.8132 11.4411 11.7872 11.4579 11.7576C11.4849 11.7097 11.5125 11.6617 11.5406 11.6142C11.5589 11.5831 11.5834 11.575 11.6171 11.5882C11.6477 11.601 11.6783 11.6148 11.7094 11.626C11.7176 11.629 11.7293 11.627 11.7375 11.6234C11.7497 11.6178 11.7599 11.6061 11.7727 11.602C11.8074 11.5903 11.8207 11.5663 11.8207 11.5311C11.8207 11.5107 11.8247 11.4908 11.8273 11.4704C11.8319 11.4316 11.8513 11.4132 11.8895 11.4132C11.9431 11.4127 11.9967 11.4127 12.0508 11.4132C12.0885 11.4137 12.1079 11.4306 12.1135 11.4678C12.1176 11.4984 12.1217 11.529 12.1242 11.5597C12.1253 11.5739 12.1298 11.5826 12.1441 11.5892C12.164 11.5984 12.1829 11.6097 12.2003 11.6229C12.2125 11.6321 12.2227 11.6321 12.2355 11.6265C12.265 11.6132 12.2946 11.6005 12.3247 11.5882C12.3559 11.5755 12.3809 11.5836 12.3977 11.6122C12.4268 11.6612 12.4554 11.7102 12.4829 11.7597C12.4982 11.7872 12.4931 11.8137 12.4681 11.8336C12.4406 11.8556 12.412 11.8755 12.3849 11.8974C12.3783 11.9025 12.3747 11.9142 12.3742 11.9234C12.3727 11.9459 12.3727 11.9688 12.3742 11.9913C12.3747 12.001 12.3793 12.0127 12.3865 12.0188C12.412 12.0403 12.4395 12.0591 12.4656 12.0801C12.4931 12.102 12.4982 12.127 12.4814 12.1571C12.4538 12.2061 12.4258 12.2546 12.3972 12.3025C12.3798 12.3316 12.3559 12.3392 12.3242 12.3265C12.2936 12.3142 12.2625 12.3015 12.2324 12.2872C12.2196 12.2816 12.2105 12.2826 12.1997 12.2913C12.1895 12.2994 12.1788 12.3086 12.1671 12.3122C12.1298 12.3234 12.1191 12.3505 12.1191 12.3857C12.1191 12.4005 12.1145 12.4148 12.1145 12.429C12.1135 12.4602 12.1028 12.4852 12.0747 12.501C12.0048 12.5 11.9349 12.5 11.865 12.5ZM11.9691 12.1734C12.089 12.1739 12.1865 12.0775 12.1875 11.9576C12.188 11.8372 12.09 11.7382 11.9696 11.7387C11.8503 11.7387 11.7528 11.8367 11.7528 11.9561C11.7528 12.076 11.8492 12.1729 11.9691 12.1734Z" fill="#675ED5"/>
<path d="M11.6417 11.3413C11.6366 11.3515 11.6331 11.3587 11.629 11.3668C11.5713 11.3592 11.5157 11.3684 11.4642 11.3954C11.4167 11.4204 11.38 11.4561 11.3535 11.5025C11.3274 11.5474 11.3014 11.5923 11.2754 11.6372C11.2116 11.7479 11.2152 11.849 11.2882 11.9556C11.2147 12.0602 11.2111 12.1684 11.2785 12.2821C11.2657 12.2821 11.2575 12.2821 11.2489 12.2821C10.8698 12.2821 10.4907 12.2821 10.1116 12.2821C10.0428 12.2821 10.0137 12.2531 10.0137 12.1847C10.0137 12.0668 10.0137 11.949 10.0137 11.8306C10.0142 11.5653 10.1882 11.3571 10.4494 11.3107C10.4774 11.3056 10.506 11.3046 10.5346 11.3046C10.8397 11.3041 11.1448 11.3041 11.4499 11.3046C11.5152 11.3041 11.5785 11.3163 11.6417 11.3413Z" fill="#675ED5"/>
</g>
<path d="M3.08018 8.4668C3.26739 8.31445 3.478 8.17383 3.70031 8.10352C4.16247 7.95117 4.54859 8.15039 4.8996 8.45508C5.34422 8.83008 5.78884 9.19922 6.26856 9.59766C6.35631 9.49219 6.41481 9.4043 6.49087 9.32813C7.71357 8.09766 8.94211 6.86719 10.1707 5.63672C10.8083 4.99805 11.5279 5.0332 12.1071 5.72461C12.3645 6.0293 12.6278 6.33398 12.891 6.63281C13.5697 7.42383 14.2541 8.20899 14.9913 9.06445C14.9913 8.88281 14.9913 8.7832 14.9913 8.68945C14.9913 6.47461 14.9913 4.25391 14.9913 2.03906C14.9913 0.814453 14.1839 0.00585938 12.9612 0C9.32823 0.00585938 5.69524 0.00585938 2.05639 0.00585938C0.83369 0.00585938 0.0205078 0.814453 0.0205078 2.03906C0.0205078 4.91016 0.0205078 7.78125 0.0205078 10.6523C0.0205078 10.7461 0.0205078 10.8398 0.0205078 10.9863C0.114112 10.9219 0.166764 10.8867 0.219416 10.8457C1.173 10.0488 2.12074 9.25195 3.08018 8.4668ZM4.72995 1.85742C5.90584 1.85156 6.87113 2.8125 6.86528 3.99023C6.86528 5.15625 5.91169 6.10547 4.74165 6.10547C3.5599 6.10547 2.59461 5.14453 2.60046 3.97852C2.61216 2.8125 3.56575 1.86328 4.72995 1.85742Z" fill="#675ED5"/>
<path d="M4.72954 5.22075C5.41987 5.22075 5.98149 4.66411 5.98149 3.97856C5.98149 3.29887 5.41402 2.73637 4.72369 2.74223C4.04507 2.74809 3.49514 3.28715 3.48344 3.96684C3.47759 4.64653 4.04507 5.22075 4.72954 5.22075Z" fill="#675ED5"/>
<path d="M14.991 10.5878C14.991 10.4824 14.9384 10.3593 14.8682 10.2832C13.7391 8.9648 12.6041 7.6523 11.4692 6.3398C11.165 5.98824 11.0772 5.98823 10.7496 6.31636C9.39821 7.66988 8.05265 9.02925 6.70125 10.3828C6.38533 10.6992 6.22153 10.705 5.87636 10.4179C5.37909 10.0078 4.88767 9.59175 4.39041 9.18159C4.01014 8.86519 3.96919 8.87105 3.60062 9.18159C2.62948 9.99605 1.6759 10.8339 0.669656 11.6074C0.178237 11.9707 -0.0265216 12.3574 0.00272958 12.9785C0.0612319 14.1855 0.833463 15.0058 2.03276 15.0058C3.85803 15.0058 5.67746 15.0058 7.50273 15.0058C9.3631 15.0058 11.2293 15.0117 13.0897 15.0058C14.1135 15.0058 14.9735 14.1738 14.991 13.166C15.0086 12.3046 15.0027 11.4433 14.991 10.5878ZM11.0187 14.3437C9.41576 14.3437 8.117 13.0429 8.117 11.4375C8.117 9.83199 9.41576 8.5312 11.0187 8.5312C12.6217 8.5312 13.9204 9.83199 13.9204 11.4375C13.9204 13.0429 12.6158 14.3437 11.0187 14.3437Z" fill="#675ED5"/>
<defs>
<clipPath id="clip0_3884_11261">
<rect width="2.5" height="2.5" fill="white" transform="translate(10 10)"/>
</clipPath>
</defs>
</svg>
