<svg width="16" height="16" viewBox="0 0 16 16" fill="none" xmlns="http://www.w3.org/2000/svg">
<g clip-path="url(#clip0_2251_14631)">
<path d="M8.75889 0H7.00707C4.08736 0 3.73699 0.592593 3.62021 2.13333C3.50342 2.48889 3.50342 2.96296 3.50342 3.55556V12.4444C3.50342 13.037 3.50342 13.5111 3.62021 13.7481C3.73699 15.4074 4.08736 16 7.00707 16H8.75889C11.6786 16 12.029 15.4074 12.1458 13.8667C12.1458 13.5111 12.2625 13.037 12.2625 12.4444V3.55556C12.2625 2.96296 12.2625 2.60741 12.1458 2.25185C12.029 0.592593 11.6786 0 8.75889 0Z" fill="white"/>
<path d="M1.75182 13.0371C1.75182 12.8 1.75182 12.6815 1.75182 12.4445V3.55561C1.75182 3.31857 1.75182 3.20005 1.75182 2.96301C0.116788 2.96301 0 3.20005 0 5.09635V11.0223C0 12.8001 0.116788 13.0371 1.75182 13.0371Z" fill="white"/>
<path d="M14.248 13.0371C15.8831 13.0371 15.9999 12.8 15.9999 10.9037V4.97782C15.9999 3.20004 15.8831 2.963 14.248 2.84448C14.248 3.08152 14.248 3.20004 14.248 3.43708V12.326C14.248 12.6815 14.248 12.8 14.248 13.0371Z" fill="white"/>
</g>
<defs>
<clipPath id="clip0_2251_14631">
<rect width="16" height="16" fill="white"/>
</clipPath>
</defs>
</svg>
