<svg width="18" height="18" viewBox="0 0 18 18" fill="none" xmlns="http://www.w3.org/2000/svg">
<path d="M14.175 14.4375H5.325C4.2 14.4375 3.75 13.9575 3.75 12.765V11.985C3.75 10.7925 4.2 10.3125 5.325 10.3125H14.175" fill="#3E3C53"/>
<path d="M14.175 14.4375H5.325C4.2 14.4375 3.75 13.9575 3.75 12.765V11.985C3.75 10.7925 4.2 10.3125 5.325 10.3125H14.175" stroke="#3E3C53" stroke-width="1.5" stroke-linecap="round" stroke-linejoin="round"/>
<path d="M14.175 3.9375H9.075C7.95 3.9375 7.5 4.4175 7.5 5.61V6.39C7.5 7.5825 7.95 8.0625 9.075 8.0625H14.175" fill="#3E3C53"/>
<path d="M14.175 3.9375H9.075C7.95 3.9375 7.5 4.4175 7.5 5.61V6.39C7.5 7.5825 7.95 8.0625 9.075 8.0625H14.175" stroke="#3E3C53" stroke-width="1.5" stroke-linecap="round" stroke-linejoin="round"/>
<path d="M14.25 1.49249V16.4925" stroke="#3E3C53" stroke-width="1.5" stroke-linecap="round" stroke-linejoin="round"/>
</svg>
