<svg width="18" height="14" viewBox="0 0 18 14" fill="none" xmlns="http://www.w3.org/2000/svg">
<path d="M2.4082 3.48024H7.2V4.64111H2.4082V3.48024ZM2.4082 6.98682H7.2V5.82595H2.4082V6.98682ZM2.4082 9.33596H7.2V8.17507H2.4082V9.33596ZM15.5918 3.48024H10.8V4.64111H15.5918V3.48024ZM15.5918 5.82938H10.8V6.99026H15.5918V5.82938ZM15.5918 8.14771H10.8V9.30854H15.5918V8.14771ZM18 1.13452V11.6543C18 12.3015 17.4727 12.8151 16.8082 12.8151H10.1918L9 14L7.80822 12.8391H1.1918C0.527344 12.8425 0 12.3289 0 11.6817V1.16192C0 0.514707 0.527344 0.00104703 1.1918 0.00104703H7.78362L8.9754 1.16192L10.1672 0.00104703H16.759C17.4727 -0.0263482 18 0.487312 18 1.13452ZM8.39178 1.72695L7.78362 1.13452H1.1918V11.6543H8.39178V1.72695ZM16.8082 1.13452H10.1918L9.58008 1.72695V11.6543H16.7801V1.13452H16.8082Z" fill="white"/>
</svg>
