<svg width="14" height="14" viewBox="0 0 14 14" fill="none" xmlns="http://www.w3.org/2000/svg">
<path d="M4.66667 5.44444V14H1.55556C1.16311 14.0001 0.785115 13.8519 0.497352 13.5851C0.209588 13.3182 0.0333226 12.9525 0.00388898 12.5611L0 12.4444V5.44444H4.66667ZM14 5.44444V12.4444C14.0001 12.8369 13.8519 13.2149 13.5851 13.5026C13.3182 13.7904 12.9525 13.9667 12.5611 13.9961L12.4444 14H6.22222V5.44444H14ZM12.4444 0C12.857 0 13.2527 0.163888 13.5444 0.455612C13.8361 0.747335 14 1.143 14 1.55556V3.88889H0V1.55556C0 1.143 0.163888 0.747335 0.455612 0.455612C0.747335 0.163888 1.143 0 1.55556 0H12.4444Z" fill="#3E3C53"/>
</svg>
