<svg width="14" height="14" viewBox="0 0 14 14" fill="none" xmlns="http://www.w3.org/2000/svg">
<path d="M11.4832 14H2.5121C1.12433 14 0 12.871 0 11.4879V2.5121C0 1.12433 1.12903 0 2.5121 0H11.4879C12.8757 0 14 1.12903 14 2.5121V11.4879C14 12.871 12.871 14 11.4832 14ZM2.5121 0.653898C1.49126 0.653898 0.658602 1.48656 0.658602 2.50739V11.4832C0.658602 12.504 1.49126 13.3367 2.5121 13.3367H11.4879C12.5087 13.3367 13.3414 12.504 13.3414 11.4832V2.5121C13.3414 1.49126 12.5087 0.658602 11.4879 0.658602H2.5121V0.653898Z" fill="#3E3C53"/>
<path d="M7.35246 12.076H3.51845C2.75165 12.076 2.12598 11.4503 2.12598 10.6835V6.8495C2.12598 6.0827 2.75165 5.45703 3.51845 5.45703H7.35246C8.11926 5.45703 8.74493 6.0827 8.74493 6.8495V10.6835C8.74022 11.4456 8.11455 12.076 7.35246 12.076Z" fill="#3E3C53"/>
</svg>
