<svg width="18" height="18" viewBox="0 0 18 18" fill="none" xmlns="http://www.w3.org/2000/svg">
<g clip-path="url(#clip0_2093_16835)">
<path d="M14.7929 13.5791C14.1193 13.5179 13.5474 14.1136 13.571 14.7894C13.5724 14.8289 13.574 14.8682 13.576 14.9075C13.583 15.0199 13.6604 15.1464 13.7448 15.2308C14.3005 15.8001 14.8843 16.3483 15.4259 16.9317C15.5525 17.0722 15.6651 17.3393 15.6158 17.508C15.5666 17.6767 15.3345 17.8594 15.1516 17.9016C13.1258 18.3725 11.1493 17.1003 10.7131 15.0761C10.5865 14.4787 10.6287 13.8953 10.7694 13.305C10.7976 13.1855 10.7553 13.0027 10.678 12.9184C8.821 11.0488 6.95699 9.18625 5.08594 7.33073C5.00154 7.24638 4.81865 7.20421 4.69907 7.23233C1.92768 7.92112 -0.442778 5.70011 0.0847714 2.88168C0.119941 2.68488 0.302825 2.44592 0.478675 2.37563C0.626389 2.3194 0.914783 2.43186 1.04843 2.5654C1.63225 3.1066 2.1809 3.68996 2.75066 4.23818C2.85617 4.33658 3.02498 4.40687 3.1727 4.4139C3.85943 4.45066 4.42819 3.86333 4.41521 3.17573C4.41402 3.11294 4.41253 3.05009 4.41068 2.98711C4.41068 2.90277 4.30517 2.8114 4.23483 2.74111C3.67914 2.18586 3.11642 1.64467 2.57481 1.06833C2.44116 0.927759 2.34268 0.681761 2.35675 0.491992C2.37082 0.21788 2.63108 0.112453 2.89134 0.0702816C5.19849 -0.351429 7.18208 1.15267 7.34386 3.48613C7.37199 3.88676 7.24538 4.29441 7.21725 4.70207C7.21021 4.82155 7.23131 4.98321 7.30165 5.06052C9.16566 6.93713 11.0367 8.81374 12.9218 10.6763C13.0062 10.7606 13.2172 10.7817 13.3439 10.7536C15.4119 10.2405 17.3954 11.4002 17.8597 13.4596C17.9793 14.0008 17.93 14.5982 17.8878 15.1605C17.8738 15.3292 17.6627 15.5611 17.4939 15.6244C17.3462 15.6736 17.0789 15.5681 16.9453 15.4416C16.3614 14.9004 15.8198 14.3171 15.243 13.7688C15.1305 13.6634 14.9476 13.5931 14.7929 13.5791Z" fill="#675ED5"/>
<path d="M1.50536 17.747C1.34508 17.6402 1.31114 17.4146 1.44765 17.2788C2.66754 16.0647 3.85949 14.868 5.05753 13.6775C5.14194 13.5931 5.23338 13.5158 5.29669 13.4244C5.45847 13.1925 5.43737 12.9535 5.23338 12.7567C5.03643 12.5599 4.79727 12.5388 4.56515 12.7075C4.48074 12.7638 4.4104 12.8481 4.33303 12.9254C3.13022 14.1273 1.9274 15.3292 0.731623 16.531C0.590279 16.6723 0.365877 16.6837 0.272284 16.5072C-0.175796 15.662 -0.0636841 14.5285 0.555773 13.7548C0.689419 13.5931 0.837133 13.4385 0.984847 13.2909C1.77017 12.5023 2.55766 11.7158 3.34009 10.9352C4.37055 9.90704 6.03956 9.90745 7.06925 10.9363C7.66435 11.531 8.26026 12.1264 8.86088 12.7266C8.90086 12.7665 8.90994 12.8363 8.86996 12.8762C7.43502 14.31 6.00712 15.7438 4.56515 17.1777C3.6859 18.0492 2.54639 18.253 1.50536 17.747Z" fill="#675ED5"/>
<path d="M11.4605 7.25434C11.3595 7.39539 11.1444 7.37919 11.0242 7.25403C10.9268 7.1525 10.83 7.05107 10.7311 6.94822C10.6183 6.83076 10.6106 6.64296 10.7202 6.52246C11.2407 6.00236 11.7401 5.4471 12.2958 4.96916C12.753 4.57557 12.964 4.11169 13.0062 3.52129C13.0414 3.00821 13.1188 2.50216 13.2243 1.99611C13.2595 1.82039 13.4072 1.60251 13.5619 1.51817C14.5115 1.01212 15.4752 0.548236 16.4388 0.0632688C16.6921 -0.0632443 16.9171 -0.0351303 17.1141 0.161668C17.3462 0.393608 17.5783 0.625549 17.8105 0.85749C18.0215 1.06834 18.0426 1.30029 17.9089 1.56034C17.4306 2.50919 16.9664 3.46506 16.467 4.39986C16.3755 4.56151 16.1504 4.71614 15.9605 4.75831C15.3064 4.88482 14.6381 4.94105 13.984 5.06054C13.7589 5.10271 13.5197 5.21516 13.3509 5.36979C12.72 5.96559 12.1164 6.58871 11.5064 7.19875C11.4888 7.2164 11.4751 7.23404 11.4605 7.25434Z" fill="#675ED5"/>
</g>
<defs>
<clipPath id="clip0_2093_16835">
<rect width="18" height="18" fill="white"/>
</clipPath>
</defs>
</svg>
