<svg style="position: absolute; width: 0; height: 0; overflow: hidden;" version="1.1" xmlns="http://www.w3.org/2000/svg" xmlns:xlink="http://www.w3.org/1999/xlink">
    <defs>
        <symbol id="icon-tva" viewBox="0 0 22 18">
            <g fill="none" fill-rule="evenodd">
                <g fill="currentColor" fill-rule="nonzero">
                    <g>
                        <path d="M21.75 10.792l-.17.085c-.202.11-.525.315-.866.647-.34.328-.698.781-.976 1.388l-.18.423c-.274.603-1.015 1.98-2.029 2.665-.756.51-2.672.993-4.262.885l-.249-.022c-.826-.091-1.367.22-1.622.935-.21-.715-.163-1.484.143-2.308.392-1.058 1.264-2.192 2.739-3.115 2.871-1.798 6.845-1.784 7.472-1.583zm-2.523.979l-.039.005c-1.43.21-3.175.693-4.38 1.447-1.11.695-1.87 1.544-2.25 2.414l-.091.225.11-.009c.117-.007.238-.007.363 0l.188.016c1.293.144 3.175-.248 3.842-.698.38-.257.774-.703 1.137-1.265.229-.355.43-.735.55-1.003l.052-.124c.117-.297.254-.574.408-.833l.11-.175z" transform="translate(-5 -267) translate(5 267)"/>
                        <path d="M18.645 0C19.385 0 20 .6 20 1.358v8.318l-.962.037c-3.825.146-6.369 1.58-7.78 4.325l-.058.113-.162.181c-.546.642-1.53.642-2.076 0-1.801-2.116-5.196-3.377-7.73-3.609C.536 10.656 0 10.076 0 9.373V1.358C0 .556.69-.07 1.49.006 4.538.303 7.6 1.265 9.77 3.304l.23.223.23-.223c2.086-1.96 4.998-2.925 7.929-3.26l.351-.038zm-.038 1.002c-1.348.13-5.844.778-8.33 3.7-.147.172-.407.172-.554 0-2.348-2.76-6.488-3.49-8.077-3.673l-.253-.027C1.18.982 1 1.146 1 1.358v8.015l.008.077c.034.148.161.263.32.278 1.264.116 5.868.985 8.395 3.956.147.173.407.173.554 0l.092-.103.148-.277c1.614-2.906 4.442-4.436 8.483-4.59V1.358l-.008-.077c-.038-.173-.2-.297-.385-.28z" transform="translate(-5 -267) translate(5 267)"/>
                        <path d="M2.31 6.5c1.144.02 2.28.292 3.406.815 1.102.511 2.008 1.064 2.717 1.662.21.178.237.493.06.704-.179.212-.494.238-.705.06-.636-.535-1.466-1.043-2.493-1.52-1.002-.464-2.001-.704-3.002-.721-.276-.005-.496-.232-.491-.509.004-.276.232-.496.508-.49zM2.31 3.5c1.144.02 2.28.292 3.406.815 1.102.511 2.008 1.064 2.717 1.662.21.178.237.493.06.704-.179.212-.494.238-.705.06-.636-.535-1.466-1.043-2.493-1.52-1.002-.464-2.001-.704-3.002-.721-.276-.005-.496-.232-.491-.509.004-.276.232-.496.508-.49z" transform="translate(-5 -267) translate(5 267)"/>
                    </g>
                </g>
            </g>
        </symbol>
        <symbol id="icon-course-structure" viewBox="0 0 32 32">
            <g>
                <path class="st0" d="M31.41,2.51H18.54c-1.04,0-1.96,0.51-2.54,1.29c-0.58-0.78-1.49-1.29-2.54-1.29H0.59
		c-0.41,0-0.75,0.34-0.75,0.75v22.48c0,0.41,0.33,0.75,0.75,0.75l11.73,0.04c0.01,0,0.67,0.03,1.27,0.48
		c0.43,0.33,1.25,1.48,1.66,2.13c0.14,0.22,0.38,0.35,0.63,0.35c0.04,0,0.08-0.01,0.12-0.02c0.04,0.01,0.08,0.02,0.12,0.02
		c0.25,0,0.49-0.13,0.63-0.35c0.41-0.65,1.23-1.8,1.67-2.13c0.59-0.45,1.26-0.48,1.25-0.48l11.74-0.04c0.41,0,0.75-0.34,0.75-0.75
		V3.26C32.16,2.85,31.83,2.51,31.41,2.51z M15.13,26.45c-0.22-0.25-0.44-0.48-0.64-0.63c-0.98-0.75-2.04-0.78-2.16-0.78L1.34,24.99
		V4.01h12.13c0.92,0,1.66,0.75,1.66,1.66V26.45z M30.66,24.99l-11,0.04c-0.12,0-1.17,0.04-2.15,0.78c-0.2,0.15-0.42,0.38-0.64,0.63
		V5.67c0-0.92,0.75-1.66,1.66-1.66h12.13V24.99z"/>
                <path class="st0" d="M11.74,13.31H4.11c-0.41,0-0.75,0.34-0.75,0.75s0.34,0.75,0.75,0.75h7.63c0.41,0,0.75-0.34,0.75-0.75
		S12.15,13.31,11.74,13.31z"/>
                <path class="st0" d="M11.74,16.83H4.11c-0.41,0-0.75,0.34-0.75,0.75s0.34,0.75,0.75,0.75h7.63c0.41,0,0.75-0.34,0.75-0.75
		S12.15,16.83,11.74,16.83z"/>
                <path class="st0" d="M11.74,9.78H4.11c-0.41,0-0.75,0.34-0.75,0.75s0.34,0.75,0.75,0.75h7.63c0.41,0,0.75-0.34,0.75-0.75
		S12.15,9.78,11.74,9.78z"/>
                <path class="st0" d="M19.78,14.81h7.63c0.41,0,0.75-0.34,0.75-0.75s-0.34-0.75-0.75-0.75h-7.63c-0.41,0-0.75,0.34-0.75,0.75
		S19.37,14.81,19.78,14.81z"/>
                <path class="st0" d="M19.78,18.33h7.63c0.41,0,0.75-0.34,0.75-0.75s-0.34-0.75-0.75-0.75h-7.63c-0.41,0-0.75,0.34-0.75,0.75
		S19.37,18.33,19.78,18.33z"/>
                <path class="st0" d="M19.78,11.28h7.63c0.41,0,0.75-0.34,0.75-0.75s-0.34-0.75-0.75-0.75h-7.63c-0.41,0-0.75,0.34-0.75,0.75
		S19.37,11.28,19.78,11.28z"/>
            </g>
        </symbol>
        <symbol id="icon-course-list" viewBox="0 0 32 32">
            <g stroke="none" stroke-width="1" fill="none" fill-rule="evenodd">
                <g transform="translate(-101.000000, -112.000000)" stroke="currentColor" stroke-width="1.5">
                    <g transform="translate(101.000000, 112.000000)">
                        <g transform="translate(17.000000, 0.000000)">
                            <rect id="Rectangle-Copy" x="0.75" y="0.75" width="13.5" height="30.5"></rect>
                            <line x1="1.5" y1="11.5" x2="13.5" y2="11.5" id="Line-3-Copy" stroke-linecap="square"></line>
                            <line x1="3.5" y1="14.538176" x2="11.5" y2="14.538176" id="Line-3-Copy-2" stroke-linecap="square"></line>
                            <line x1="3.5" y1="20.538176" x2="8.5" y2="20.5" id="Line-3-Copy-4" stroke-linecap="square"></line>
                            <rect id="Rectangle" x="3.75" y="25.75" width="7.5" height="2.5"></rect>
                            <line x1="3.5" y1="17.538176" x2="11.5" y2="17.538176" id="Line-3-Copy-3" stroke-linecap="square"></line>
                        </g>
                        <g>
                            <rect id="Rectangle-Copy" x="0.75" y="0.75" width="13.5" height="30.5"></rect>
                            <line x1="1.5" y1="11.5" x2="13.5" y2="11.5" id="Line-3-Copy" stroke-linecap="square"></line>
                            <line x1="3.5" y1="14.538176" x2="11.5" y2="14.538176" id="Line-3-Copy-2" stroke-linecap="square"></line>
                            <line x1="3.5" y1="20.538176" x2="8.5" y2="20.5" id="Line-3-Copy-4" stroke-linecap="square"></line>
                            <rect id="Rectangle" x="3.75" y="25.75" width="7.5" height="2.5"></rect>
                            <line x1="3.5" y1="17.538176" x2="11.5" y2="17.538176" id="Line-3-Copy-3" stroke-linecap="square"></line>
                        </g>
                    </g>
                </g>
            </g>
        </symbol>

        <symbol id="icon-topic-i" viewBox="0 0 32 32">
            <path class="st0" d="M16,0.15C7.26,0.15,0.15,7.26,0.15,16c0,8.74,7.11,15.85,15.85,15.85S31.85,24.74,31.85,16
                C31.85,7.26,24.74,0.15,16,0.15z M16,1.65c7.91,0,14.35,6.44,14.35,14.35c0,3.57-1.32,6.84-3.49,9.35L18.52,7.51h-5.27L5.15,25.36
                c-2.17-2.52-3.5-5.78-3.5-9.36C1.65,8.09,8.09,1.65,16,1.65z M24.95,24.79H22.2l-1.76-3.91h-9.04l-1.67,3.91H7.05L14.22,9h3.35
                L24.95,24.79z M6.01,26.28h4.7l1.67-3.91h7.09l1.76,3.91h4.76c-2.59,2.51-6.11,4.07-9.99,4.07C12.12,30.35,8.59,28.8,6.01,26.28z"
            />
            <path class="st0" d="M11.99,19.44h7.78l-3.93-9.06L11.99,19.44z M17.5,17.95h-3.24l1.6-3.77L17.5,17.95z"/>
        </symbol>

        <symbol id="icon-course-progress" viewBox="0 0 32 32">
                <path class="st0" d="M1.72,16.84H0.81v1.38H0.09v-4.45h1.63c1.01,0,1.51,0.5,1.51,1.5c0,0.51-0.13,0.9-0.38,1.17
            S2.23,16.84,1.72,16.84z M0.81,16.22h0.9c0.52,0,0.78-0.32,0.78-0.95c0-0.3-0.06-0.52-0.19-0.66S1.99,14.4,1.72,14.4h-0.9V16.22z"
                />
                <path class="st0" d="M4.91,16.64v1.59H4.19v-4.45h1.69c1.01,0,1.51,0.47,1.51,1.42c0,0.63-0.24,1.06-0.73,1.29l0.73,1.75H6.6
            l-0.64-1.59H4.91z M6.65,15.2c0-0.53-0.26-0.8-0.77-0.8H4.91v1.62H5.9c0.26,0,0.45-0.08,0.57-0.22C6.59,15.65,6.65,15.45,6.65,15.2
            z"/>
                <path class="st0" d="M11.5,17.75c-0.27,0.36-0.74,0.55-1.41,0.55c-0.67,0-1.14-0.18-1.41-0.55c-0.27-0.37-0.4-0.94-0.4-1.73
            s0.14-1.37,0.41-1.75c0.27-0.38,0.74-0.57,1.41-0.57c0.67,0,1.14,0.19,1.4,0.57s0.4,0.96,0.4,1.75
            C11.9,16.81,11.76,17.39,11.5,17.75z M9.24,17.29c0.15,0.26,0.43,0.38,0.84,0.38s0.7-0.13,0.84-0.38c0.15-0.25,0.22-0.67,0.22-1.26
            s-0.07-1.02-0.22-1.29c-0.15-0.27-0.43-0.4-0.84-0.4s-0.69,0.13-0.84,0.4s-0.23,0.7-0.23,1.28C9.02,16.61,9.1,17.03,9.24,17.29z"/>
                <path class="st0" d="M14.81,16.53v-0.64h1.27v2.26c-0.12,0.03-0.35,0.06-0.71,0.1s-0.62,0.05-0.78,0.05c-0.68,0-1.14-0.19-1.4-0.56
            c-0.26-0.37-0.38-0.96-0.38-1.75s0.13-1.38,0.39-1.74c0.26-0.36,0.72-0.55,1.36-0.55c0.38,0,0.81,0.04,1.29,0.13l0.23,0.04
            l-0.03,0.57c-0.52-0.07-0.99-0.1-1.41-0.1s-0.7,0.12-0.85,0.35c-0.15,0.23-0.23,0.67-0.23,1.3s0.07,1.07,0.22,1.31
            s0.44,0.36,0.88,0.36c0.32,0,0.55-0.02,0.71-0.06v-1.09H14.81z"/>
                <path class="st0" d="M17.96,16.64v1.59h-0.72v-4.45h1.69c1.01,0,1.51,0.47,1.51,1.42c0,0.63-0.24,1.06-0.73,1.29l0.73,1.75h-0.79
            l-0.64-1.59H17.96z M19.7,15.2c0-0.53-0.26-0.8-0.77-0.8h-0.97v1.62h0.98c0.26,0,0.45-0.08,0.57-0.22
            C19.64,15.65,19.7,15.45,19.7,15.2z"/>
                <path class="st0" d="M21.51,18.23v-4.45h2.81v0.63h-2.09v1.26h1.7v0.62h-1.7v1.3h2.09v0.64H21.51z"/>
                <path class="st0" d="M26.68,14.34c-0.55,0-0.83,0.19-0.83,0.58c0,0.2,0.07,0.34,0.2,0.43c0.13,0.08,0.42,0.19,0.86,0.31
            c0.44,0.12,0.76,0.27,0.94,0.44c0.18,0.17,0.27,0.44,0.27,0.81c0,0.47-0.13,0.82-0.4,1.05c-0.27,0.23-0.63,0.35-1.09,0.35
            c-0.37,0-0.78-0.04-1.22-0.13l-0.23-0.04l0.07-0.58c0.58,0.08,1.03,0.12,1.34,0.12c0.54,0,0.81-0.24,0.81-0.71
            c0-0.19-0.06-0.32-0.18-0.41c-0.12-0.09-0.39-0.19-0.82-0.29c-0.42-0.11-0.74-0.25-0.95-0.44c-0.21-0.19-0.31-0.48-0.31-0.88
            s0.13-0.71,0.39-0.91c0.26-0.21,0.63-0.31,1.09-0.31c0.33,0,0.73,0.04,1.18,0.12l0.23,0.04l-0.06,0.58
            C27.36,14.37,26.93,14.34,26.68,14.34z"/>
                <path class="st0" d="M30.47,14.34c-0.55,0-0.83,0.19-0.83,0.58c0,0.2,0.07,0.34,0.2,0.43c0.13,0.08,0.42,0.19,0.86,0.31
            c0.44,0.12,0.76,0.27,0.94,0.44c0.18,0.17,0.27,0.44,0.27,0.81c0,0.47-0.13,0.82-0.4,1.05c-0.27,0.23-0.63,0.35-1.09,0.35
            c-0.37,0-0.78-0.04-1.22-0.13l-0.23-0.04l0.07-0.58c0.58,0.08,1.03,0.12,1.34,0.12c0.54,0,0.81-0.24,0.81-0.71
            c0-0.19-0.06-0.32-0.18-0.41c-0.12-0.09-0.39-0.19-0.82-0.29c-0.42-0.11-0.74-0.25-0.95-0.44c-0.21-0.19-0.31-0.48-0.31-0.88
            s0.13-0.71,0.39-0.91c0.26-0.21,0.63-0.31,1.09-0.31c0.33,0,0.73,0.04,1.18,0.12l0.23,0.04l-0.06,0.58
            C31.15,14.37,30.72,14.34,30.47,14.34z"/>
        </symbol>

        <symbol id="icon-course-type" viewBox="0 0 32 32">
                <path class="st0" d="M6.8,12.57c-0.43-0.21-0.92-0.16-1.3,0.14l-2.71,2.12H1.24c-0.68,0-1.23,0.55-1.23,1.23v3.24
            c0,0.68,0.55,1.23,1.23,1.23h1.55l2.71,2.12c0.22,0.17,0.49,0.26,0.76,0.26c0.18,0,0.37-0.04,0.54-0.13
            c0.43-0.21,0.69-0.63,0.69-1.11v-8C7.49,13.2,7.23,12.78,6.8,12.57z M5.99,21.13l-2.35-1.84c-0.22-0.17-0.49-0.26-0.76-0.26H1.51
            v-2.71h1.37c0.27,0,0.54-0.09,0.76-0.26l2.35-1.84V21.13z"/>
                <path class="st0" d="M8.19,20.17c-0.35,0.22-0.46,0.68-0.24,1.03c0.14,0.23,0.39,0.36,0.64,0.36c0.13,0,0.27-0.04,0.39-0.11
            c1.25-0.77,2.02-2.22,2.02-3.78c0-1.56-0.77-3-2.02-3.78c-0.35-0.22-0.81-0.11-1.03,0.24c-0.22,0.35-0.11,0.81,0.24,1.03
            c0.81,0.5,1.31,1.46,1.31,2.5C9.5,18.71,9,19.67,8.19,20.17z"/>
                <path class="st0" d="M9.96,13.64c1.3,0.81,2.11,2.36,2.11,4.03c0,1.68-0.81,3.22-2.12,4.03c-0.35,0.22-0.46,0.68-0.24,1.03
            c0.14,0.23,0.39,0.36,0.64,0.36c0.13,0,0.27-0.04,0.39-0.11c1.75-1.08,2.83-3.12,2.83-5.31c0-2.19-1.08-4.22-2.82-5.3
            c-0.35-0.22-0.81-0.11-1.03,0.24S9.61,13.43,9.96,13.64z"/>
                <path class="st0" d="M31.64,5.64c-0.31-0.28-0.78-0.26-1.06,0.05L7.84,30.78c-0.28,0.31-0.25,0.78,0.05,1.06
            c0.14,0.13,0.32,0.19,0.5,0.19c0.2,0,0.41-0.08,0.56-0.25L31.69,6.7C31.97,6.39,31.95,5.92,31.64,5.64z"/>
                <path class="st0" d="M12.24,9.68h8.08c0.96,0,1.75-0.78,1.75-1.75v-0.4l2.63,1.58c0.23,0.14,0.52,0.14,0.75,0.01
            c0.23-0.13,0.38-0.38,0.38-0.65l0.08-7.28c0-0.27-0.14-0.52-0.37-0.66c-0.23-0.14-0.52-0.14-0.75,0L22.07,2.1V1.72
            c0-0.96-0.78-1.75-1.75-1.75h-8.08c-0.96,0-1.75,0.78-1.75,1.75v6.21C10.49,8.9,11.28,9.68,12.24,9.68z M11.99,1.72
            c0-0.14,0.11-0.25,0.25-0.25h8.08c0.14,0,0.25,0.11,0.25,0.25V3.4c0,0.27,0.14,0.52,0.37,0.65c0.23,0.13,0.52,0.13,0.75,0
            l2.71-1.56l-0.05,4.66l-2.65-1.59c-0.23-0.14-0.52-0.14-0.76-0.01c-0.23,0.13-0.38,0.38-0.38,0.65v1.73c0,0.14-0.11,0.25-0.25,0.25
            h-8.08c-0.14,0-0.25-0.11-0.25-0.25V1.72z"/>
                <path class="st0" d="M31.24,23.89H20.89c-0.41,0-0.75,0.34-0.75,0.75s0.34,0.75,0.75,0.75h10.35c0.41,0,0.75-0.34,0.75-0.75
            S31.65,23.89,31.24,23.89z"/>
                <path class="st0" d="M27.08,29.65H20.8c-0.41,0-0.75,0.34-0.75,0.75s0.34,0.75,0.75,0.75h6.27c0.41,0,0.75-0.34,0.75-0.75
            S27.49,29.65,27.08,29.65z"/>
                <path class="st0" d="M31.24,21.02H20.89c-0.41,0-0.75,0.34-0.75,0.75s0.34,0.75,0.75,0.75h10.35c0.41,0,0.75-0.34,0.75-0.75
            S31.65,21.02,31.24,21.02z"/>
                <path class="st0" d="M31.24,26.77H20.89c-0.41,0-0.75,0.34-0.75,0.75s0.34,0.75,0.75,0.75h10.35c0.41,0,0.75-0.34,0.75-0.75
            S31.65,26.77,31.24,26.77z"/>
        </symbol>

        <symbol id="icon-course-label" viewBox="0 0 32 32">
            <path class="st0" d="M9.81,15.32h12.38c0.41,0,0.75-0.33,0.75-0.75s-0.33-0.75-0.75-0.75H9.81c-0.41,0-0.75,0.33-0.75,0.75
                    S9.4,15.32,9.81,15.32z"/>
            <path class="st0" d="M9.81,18.17h8.59c0.41,0,0.75-0.33,0.75-0.75s-0.33-0.75-0.75-0.75H9.81c-0.41,0-0.75,0.33-0.75,0.75
                    S9.4,18.17,9.81,18.17z"/>
            <path class="st0" d="M25.75,9.77H6.25c-0.43,0-0.78,0.35-0.78,0.78v10.9c0,0.43,0.35,0.78,0.78,0.78h19.49
                    c0.43,0,0.78-0.35,0.78-0.78v-10.9C26.53,10.12,26.18,9.77,25.75,9.77z M24.96,20.67H7.04v-9.33h17.93V20.67z"/>
            <path class="st0" d="M29.94,20.02v-8.04c1.25-0.81,2.01-2.18,2.01-3.68c0-2.43-1.98-4.4-4.4-4.4c-1.37,0-2.63,0.63-3.46,1.7H7.91
                    C7.08,4.52,5.81,3.9,4.45,3.9c-2.43,0-4.4,1.98-4.4,4.4c0,1.44,0.71,2.77,1.88,3.59v8.22c-1.17,0.82-1.88,2.16-1.88,3.59
                    c0,2.43,1.98,4.4,4.4,4.4c1.37,0,2.63-0.63,3.46-1.69h16.18c0.83,1.07,2.09,1.69,3.46,1.69c2.43,0,4.4-1.98,4.4-4.4
                    C31.95,22.19,31.2,20.83,29.94,20.02z M27.55,26.45c-0.95,0-1.82-0.49-2.33-1.31c-0.15-0.24-0.42-0.39-0.7-0.39H7.48
                    c-0.29,0-0.55,0.15-0.7,0.39c-0.51,0.82-1.38,1.31-2.33,1.31c-1.52,0-2.75-1.24-2.75-2.75c0-1,0.56-1.92,1.45-2.41
                    c0.27-0.14,0.43-0.42,0.43-0.73v-9.14c0-0.3-0.17-0.58-0.43-0.73C2.25,10.22,1.7,9.3,1.7,8.3c0-1.52,1.23-2.75,2.75-2.75
                    c0.95,0,1.82,0.49,2.33,1.31c0.15,0.24,0.42,0.39,0.7,0.39h17.04c0.29,0,0.55-0.15,0.7-0.39c0.51-0.82,1.38-1.31,2.33-1.31
                    c1.52,0,2.75,1.24,2.75,2.75c0,1.05-0.59,1.99-1.55,2.46c-0.28,0.14-0.46,0.43-0.46,0.74v9c0,0.31,0.18,0.6,0.46,0.74
                    c0.96,0.47,1.55,1.41,1.55,2.46C30.3,25.22,29.07,26.45,27.55,26.45z"/>
        </symbol>

        <symbol id="icon-nr-lessons" viewBox="0 0 32 32">
            <path class="st0" d="M31.28,0.55c-0.41,0-0.75,0.34-0.75,0.75v3.62h-3.85V4.29c0-0.96-0.79-1.75-1.75-1.75h-1.34
            c-0.96,0-1.75,0.79-1.75,1.75v0.63h-6.62V4.29c0-0.96-0.79-1.75-1.75-1.75h-1.34c-0.96,0-1.75,0.79-1.75,1.75v0.63H8.54V4.29
            c0-0.96-0.79-1.75-1.75-1.75H5.44c-0.96,0-1.75,0.79-1.75,1.75v0.63H1.47V1.3c0-0.41-0.34-0.75-0.75-0.75S-0.03,0.89-0.03,1.3v29.4
            c0,0.41,0.34,0.75,0.75,0.75s0.75-0.34,0.75-0.75v-5.28h2.23v0.86c0,0.96,0.79,1.75,1.75,1.75h1.34c0.96,0,1.75-0.79,1.75-1.75
            v-0.86h1.84v0.86c0,0.96,0.79,1.75,1.75,1.75h1.34c0.96,0,1.75-0.79,1.75-1.75v-0.86h6.62v0.86c0,0.96,0.79,1.75,1.75,1.75h1.34
            c0.96,0,1.75-0.79,1.75-1.75v-0.86h3.85v5.28c0,0.41,0.34,0.75,0.75,0.75s0.75-0.34,0.75-0.75V1.3C32.03,0.89,31.7,0.55,31.28,0.55z
             M23.34,4.29c0-0.14,0.11-0.25,0.25-0.25h1.34c0.14,0,0.25,0.11,0.25,0.25v2.97c0,0.14-0.11,0.25-0.25,0.25h-1.34
            c-0.14,0-0.25-0.11-0.25-0.25V4.29z M11.88,4.29c0-0.14,0.11-0.25,0.25-0.25h1.34c0.14,0,0.25,0.11,0.25,0.25v2.97
            c0,0.14-0.11,0.25-0.25,0.25h-1.34c-0.14,0-0.25-0.11-0.25-0.25V4.29z M5.19,4.29c0-0.14,0.11-0.25,0.25-0.25h1.34
            c0.14,0,0.25,0.11,0.25,0.25v2.97c0,0.14-0.11,0.25-0.25,0.25H5.44c-0.14,0-0.25-0.11-0.25-0.25V4.29z M7.04,26.28
            c0,0.14-0.11,0.25-0.25,0.25H5.44c-0.14,0-0.25-0.11-0.25-0.25v-2.97c0-0.14,0.11-0.25,0.25-0.25h1.34c0.14,0,0.25,0.11,0.25,0.25
            V26.28z M13.72,26.28c0,0.14-0.11,0.25-0.25,0.25h-1.34c-0.14,0-0.25-0.11-0.25-0.25v-2.97c0-0.14,0.11-0.25,0.25-0.25h1.34
            c0.14,0,0.25,0.11,0.25,0.25V26.28z M25.19,26.28c0,0.14-0.11,0.25-0.25,0.25h-1.34c-0.14,0-0.25-0.11-0.25-0.25v-2.97
            c0-0.14,0.11-0.25,0.25-0.25h1.34c0.14,0,0.25,0.11,0.25,0.25V26.28z M30.53,23.92h-3.85v-0.6c0-0.96-0.79-1.75-1.75-1.75h-1.34
            c-0.96,0-1.75,0.79-1.75,1.75v0.6h-6.62v-0.6c0-0.96-0.79-1.75-1.75-1.75h-1.34c-0.96,0-1.75,0.79-1.75,1.75v0.6H8.54v-0.6
            c0-0.96-0.79-1.75-1.75-1.75H5.44c-0.96,0-1.75,0.79-1.75,1.75v0.6H1.47v-7.76h2.23v0.65c0,0.96,0.79,1.75,1.75,1.75h1.34
            c0.96,0,1.75-0.79,1.75-1.75v-0.65h1.84v0.65c0,0.96,0.79,1.75,1.75,1.75h1.34c0.96,0,1.75-0.79,1.75-1.75v-0.65h1.84v0.65
            c0,0.96,0.79,1.75,1.75,1.75h1.34c0.96,0,1.75-0.79,1.75-1.75v-0.65h8.62V23.92z M5.19,16.81v-2.97c0-0.14,0.11-0.25,0.25-0.25h1.34
            c0.14,0,0.25,0.11,0.25,0.25v2.97c0,0.14-0.11,0.25-0.25,0.25H5.44C5.31,17.06,5.19,16.94,5.19,16.81z M11.88,16.81v-2.97
            c0-0.14,0.11-0.25,0.25-0.25h1.34c0.14,0,0.25,0.11,0.25,0.25v2.97c0,0.14-0.11,0.25-0.25,0.25h-1.34
            C11.99,17.06,11.88,16.94,11.88,16.81z M18.57,16.81v-2.97c0-0.14,0.11-0.25,0.25-0.25h1.34c0.14,0,0.25,0.11,0.25,0.25v2.97
            c0,0.14-0.11,0.25-0.25,0.25h-1.34C18.68,17.06,18.57,16.94,18.57,16.81z M30.53,14.66h-8.62v-0.82c0-0.96-0.79-1.75-1.75-1.75
            h-1.34c-0.96,0-1.75,0.79-1.75,1.75v0.82h-1.84v-0.82c0-0.96-0.79-1.75-1.75-1.75h-1.34c-0.96,0-1.75,0.79-1.75,1.75v0.82H8.54
            v-0.82c0-0.96-0.79-1.75-1.75-1.75H5.44c-0.96,0-1.75,0.79-1.75,1.75v0.82H1.47V6.42h2.23v0.83C3.69,8.22,4.48,9,5.44,9h1.34
            c0.96,0,1.75-0.79,1.75-1.75V6.42h1.84v0.83c0,0.96,0.79,1.75,1.75,1.75h1.34c0.96,0,1.75-0.79,1.75-1.75V6.42h6.62v0.83
            c0,0.96,0.79,1.75,1.75,1.75h1.34c0.96,0,1.75-0.79,1.75-1.75V6.42h3.85V14.66z"/>
        </symbol>

        <symbol id="icon-course-difficulty" viewBox="0 0 32 32">
            <path class="st0" d="M26.24,0.09v31.83h5.85V0.09H26.24z M30.59,30.41h-2.85V1.59h2.85V30.41z"/>
            <path class="st0" d="M17.46,31.91h5.85V7.11h-5.85V31.91z M18.96,8.61h2.85v21.81h-2.85V8.61z"/>
            <path class="st0" d="M8.69,31.91h5.85V14.13H8.69V31.91z M10.19,15.63h2.85v14.79h-2.85V15.63z"/>
            <path class="st0" d="M-0.09,31.91h5.85V21.15h-5.85V31.91z M1.41,22.65h2.85v7.77H1.41V22.65z"/>
        </symbol>

        <symbol id="icon-sync_light" viewBox="0 0 512 512"><path d="M492 8h-10c-6.627 0-12 5.373-12 12v110.627C426.929 57.261 347.224 8 256 8 123.228 8 14.824 112.338 8.31 243.493 7.971 250.311 13.475 256 20.301 256h10.016c6.353 0 11.646-4.949 11.977-11.293C48.157 132.216 141.097 42 256 42c82.862 0 154.737 47.077 190.289 116H332c-6.627 0-12 5.373-12 12v10c0 6.627 5.373 12 12 12h160c6.627 0 12-5.373 12-12V20c0-6.627-5.373-12-12-12zm-.301 248h-10.015c-6.352 0-11.647 4.949-11.977 11.293C463.841 380.158 370.546 470 256 470c-82.608 0-154.672-46.952-190.299-116H180c6.627 0 12-5.373 12-12v-10c0-6.627-5.373-12-12-12H20c-6.627 0-12 5.373-12 12v160c0 6.627 5.373 12 12 12h10c6.627 0 12-5.373 12-12V381.373C85.071 454.739 164.777 504 256 504c132.773 0 241.176-104.338 247.69-235.493.339-6.818-5.165-12.507-11.991-12.507z"/></symbol>

        <symbol id="icon-topic-title" viewBox="0 0 32 32">
            <path class="st0" d="M26.96,31.95H5.04c-0.44,0-0.8-0.36-0.8-0.8V0.85c0-0.44,0.36-0.8,0.8-0.8h21.93c0.44,0,0.8,0.36,0.8,0.8
			v30.3C27.77,31.59,27.41,31.95,26.96,31.95z M5.84,30.35h20.32V1.65H5.84V30.35z"/>
            <path class="st0" d="M22.18,5.8H9.82c-0.44,0-0.8-0.36-0.8-0.8s0.36-0.8,0.8-0.8h12.36c0.44,0,0.8,0.36,0.8,0.8
			    S22.62,5.8,22.18,5.8z"/>
        </symbol>

        <symbol id="icon-course-type-i" viewBox="0 0 32 32">
            <path class="st0" d="M32,5.75l-5.18-5.59H9.75v3.9H0v27.78h22.25v-3.9H32V5.75z M27.42,2.96l2.17,2.35h-2.17V2.96z M1.46,30.38
                V5.52h14.75v5.15h4.58v19.71H1.46z M17.67,6.86l2.17,2.35h-2.17V6.86z M22.25,26.48V9.65l-5.18-5.59h-5.86V1.62h14.75v5.15h4.58
                v19.71H22.25z"/>
            <path class="st0" d="M18.85,24.28l-4.21-2.43c-0.23-0.13-0.5-0.13-0.73,0c-0.23,0.13-0.37,0.37-0.37,0.63v4.87
                c0,0.26,0.14,0.5,0.37,0.63c0.11,0.07,0.24,0.1,0.37,0.1c0.13,0,0.25-0.03,0.37-0.1l4.21-2.43c0.23-0.13,0.37-0.37,0.37-0.63
                S19.08,24.41,18.85,24.28z M15,26.07v-2.33l2.02,1.17L15,26.07z"/>
            <path class="st0" d="M3.64,14.51h10.09c0.4,0,0.73-0.33,0.73-0.73s-0.33-0.73-0.73-0.73H3.64c-0.4,0-0.73,0.33-0.73,0.73
                S3.24,14.51,3.64,14.51z"/>
            <path class="st0" d="M9.68,18.66H3.56c-0.4,0-0.73,0.33-0.73,0.73s0.33,0.73,0.73,0.73h6.12c0.4,0,0.73-0.33,0.73-0.73
                S10.08,18.66,9.68,18.66z"/>
            <path class="st0" d="M3.64,11.71h10.09c0.4,0,0.73-0.33,0.73-0.73s-0.33-0.73-0.73-0.73H3.64c-0.4,0-0.73,0.33-0.73,0.73
                S3.24,11.71,3.64,11.71z"/>
            <path class="st0" d="M3.64,17.32h10.09c0.4,0,0.73-0.33,0.73-0.73s-0.33-0.73-0.73-0.73H3.64c-0.4,0-0.73,0.33-0.73,0.73
                S3.24,17.32,3.64,17.32z"/>
            <path class="st0" d="M28.71,16.05c-0.25-0.12-0.55-0.09-0.77,0.08l-2.32,1.81h-1.63c-0.4,0-0.73,0.33-0.73,0.73v2.87
                c0,0.4,0.33,0.73,0.73,0.73h1.63l2.32,1.81c0.13,0.1,0.29,0.16,0.45,0.16c0.11,0,0.22-0.02,0.32-0.07
                c0.25-0.12,0.41-0.38,0.41-0.66V16.7C29.12,16.42,28.96,16.17,28.71,16.05z M27.66,22l-1.33-1.04c-0.13-0.1-0.29-0.16-0.45-0.16
                h-1.15v-1.4h1.15c0.16,0,0.32-0.05,0.45-0.16l1.33-1.04V22z"/>
        </symbol>

        <symbol id="icon-course" viewBox="0 0 15 13">
            <g fill="none" fill-rule="evenodd">
                <g fill="currentColor" stroke="none" fill-rule="nonzero">
                    <path d="M31.25 41.5c.219 0 .422-.055.61-.164.609-.297 1.413-.524 2.413-.68.641-.11 1.305-.18 1.993-.21.484-.032.894-.22 1.23-.563.336-.344.504-.758.504-1.242v-7.336c0-.5-.18-.926-.54-1.278-.358-.351-.788-.527-1.288-.527-.25 0-.633.031-1.149.094-.796.078-1.539.203-2.226.375-.922.219-1.688.508-2.297.867-.61-.36-1.375-.648-2.297-.867-.687-.172-1.43-.297-2.226-.375-.516-.063-.899-.094-1.149-.094-.5 0-.93.176-1.289.527-.36.352-.539.778-.539 1.278v7.336c0 .484.168.898.504 1.242.336.344.746.531 1.23.562.688.032 1.352.102 1.993.211 1 .156 1.804.383 2.414.68.187.11.39.164.609.164h1.5zm-1.477-1.43c-.109.078-.218.094-.328.047-1.156-.437-2.71-.703-4.664-.797-.187-.015-.344-.086-.469-.21-.125-.126-.187-.282-.187-.47v-7.335c0-.188.07-.348.21-.48.142-.134.306-.2.493-.2.469 0 1.094.063 1.875.188 1.125.171 2.055.421 2.79.75.124.062.23.156.316.28.086.126.128.266.128.423v7.5c0 .125-.054.226-.164.304zm1.782.047c-.11.047-.22.031-.328-.047-.11-.078-.165-.18-.165-.304v-7.5c0-.157.043-.297.13-.422.085-.125.19-.219.316-.281.734-.329 1.664-.579 2.789-.75.781-.125 1.406-.188 1.875-.188.187 0 .351.066.492.2.14.132.211.292.211.48v7.336c0 .187-.063.343-.188.468s-.28.196-.468.211c-1.953.094-3.508.36-4.664.797z"
                          transform="translate(-1170 -265) translate(1147 236)"/>
                </g>
            </g>
        </symbol>

        <symbol id="icon-bundle" viewBox="0 0 14 14">
            <g fill="none" fill-rule="evenodd">
                <g fill="currentColor" fill-rule="nonzero" stroke="currentColor" stroke-width=".4">
                    <g>
                        <path d="M12.345 7.343L11.192 5.06c-.024-.047-.071-.083-.13-.083h-.832V.998c0-.071-.048-.13-.12-.143L6.799.12c-.048-.012-.082 0-.178.047L2.53 1.521c-.047.024-.082.071-.082.13v3.34H1.402c-.048 0-.107.023-.13.07L.023 7.32C0 7.366 0 7.414.024 7.46c.024.048.071.072.13.072h1.117v3.433c0 .57.464 1.034 1.034 1.034h7.913c.57 0 1.033-.463 1.033-1.034V7.545h.963c.047 0 .095-.024.119-.072.035-.035.035-.095.012-.13zm-2.41-2.365h-2.99V.416l3 .689v3.873h-.01zM4.789 1.042l1.83-.634V5h-1.83V1.042zm-2.12.66l1.781-.565V5H2.67V1.702zM1.486 5.275h6.713L7.176 7.248H.392l1.093-1.973zm.06 5.691V7.533h5.714c.06 0 .107-.036.131-.083l.867-1.676v5.917H5.81l-2.091.012-1.426.012c-.416 0-.748-.333-.748-.749zm9.421 0c0 .404-.332.737-.736.737H8.554V5.917l.76 1.544c.025.048.072.084.132.084l1.52.011v3.41zM9.53 7.248l-.975-1.973h2.412l1.01 1.984-2.447-.011z" transform="translate(-79 -285) translate(80 286)"/>
                    </g>
                </g>
            </g>
        </symbol>

        <symbol id="icon-filter-courses" viewBox="0 0 14 12">
            <g fill="none" fill-rule="evenodd">
                <g fill="#879198" fill-rule="nonzero">
                    <path d="M218.484 168.698l-4.132-10.51c-.04-.115-.15-.188-.266-.188-.071 0-.117.024-.27.078-.151.053-.23.193-.147.43-.385.227-1.386.565-1.77.62-.03-.089-.045-.156-.15-.217v-.161c0-.414-.335-.75-.75-.75h-2.25c-.139 0-.262.049-.374.115-.112-.066-.235-.115-.375-.115h-2.25c-.414 0-.75.336-.75.75v10.5c0 .414.336.75.75.75H208c.14 0 .263-.049.375-.115.112.067.235.115.375.115H211c.414 0 .75-.336.75-.75v-8.464l3.55 9.026c.04.115.15.188.265.188.07 0 .116-.024.27-.078.15-.052.23-.192.146-.43.386-.227 1.387-.565 1.77-.62.085.244.237.297.384.246l.177-.062c.146-.052.223-.213.172-.358zM208 169.25h-2.25v-1.5H208v1.5zm0-2.25h-2.25v-6H208v6zm0-6.75h-2.25v-1.5H208v1.5zm3 9h-2.25v-1.5H211v1.5zm0-2.25h-2.25v-6H211v6zm0-6.75h-2.25v-1.5H211v1.5zm4.761 8.614l-3.64-9.109c.59-.111 1.5-.476 1.769-.62l3.64 9.11c-.59.111-1.5.476-1.769.62z"
                          transform="translate(-205 -158)"/>
                </g>
            </g>
        </symbol>
        <symbol id="icon-filter-authors" viewBox="0 0 11 12">
            <g fill="none" fill-rule="evenodd">
                <g fill="#879198" fill-rule="nonzero">
                    <path d="M722.35 166.75c-.673 0-.996.375-2.1.375s-1.425-.375-2.1-.375c-1.74 0-3.15 1.41-3.15 3.15v.975c0 .621.504 1.125 1.125 1.125h8.25c.621 0 1.125-.504 1.125-1.125v-.975c0-1.74-1.41-3.15-3.15-3.15zm2.4 4.125c0 .206-.169.375-.375.375h-8.25c-.206 0-.375-.169-.375-.375v-.975c0-1.324 1.076-2.4 2.4-2.4.46 0 .916.375 2.1.375 1.181 0 1.64-.375 2.1-.375 1.324 0 2.4 1.076 2.4 2.4v.975zm-4.5-4.875c1.657 0 3-1.343 3-3s-1.343-3-3-3-3 1.343-3 3 1.343 3 3 3zm0-5.25c1.24 0 2.25 1.01 2.25 2.25s-1.01 2.25-2.25 2.25S718 164.24 718 163s1.01-2.25 2.25-2.25z"
                          transform="translate(-715 -160)"/>
                </g>
            </g>
        </symbol>
        <symbol id="icon-filter-topics" viewBox="0 0 15 12">
            <g fill="none" fill-rule="evenodd">
                <g fill="#879198" fill-rule="nonzero">
                    <path d="M219.67 274.886l-4.784 4.784c-.439.44-1.151.44-1.59 0l-.042-.041.53-.53.042.041c.146.147.384.146.53 0l4.784-4.784c.146-.146.146-.384 0-.53l-4.966-4.966c-.07-.07-.165-.11-.265-.11h-.458l-.75-.75h1.208c.298 0 .585.119.795.33l4.966 4.965c.44.44.44 1.152 0 1.591zm-8.761-6.136h-4.784c-.207 0-.375.168-.375.375v4.784c0 .1.039.194.11.265l4.966 4.966c.146.147.384.146.53 0l4.784-4.784c.146-.146.146-.384 0-.53l-4.966-4.966c-.07-.07-.165-.11-.265-.11m0-.75c.298 0 .585.119.796.33l4.965 4.965c.44.44.44 1.152 0 1.591l-4.784 4.784c-.439.44-1.151.44-1.59 0l-4.966-4.965c-.211-.211-.33-.498-.33-.796v-4.784c0-.621.504-1.125 1.125-1.125h4.784zm-2.534 2.906c-.258 0-.469.21-.469.469 0 .258.21.469.469.469.258 0 .469-.21.469-.469 0-.258-.21-.469-.469-.469m0-.656c.621 0 1.125.504 1.125 1.125s-.504 1.125-1.125 1.125-1.125-.504-1.125-1.125.504-1.125 1.125-1.125z"
                          transform="translate(-205 -268)"/>
                </g>
            </g>
        </symbol>
        <symbol id="icon-filter-restricted" viewBox="0 0 11 12">
            <g fill="none" fill-rule="evenodd">
                <g fill="#879198" fill-rule="nonzero">
                    <path d="M211.25 379.844c-.258 0-.469-.211-.469-.469v-1.5c0-.258.211-.469.469-.469s.469.211.469.469v1.5c0 .258-.211.469-.469.469zm5.25-3.469v4.5c0 .621-.504 1.125-1.125 1.125h-8.25c-.621 0-1.125-.504-1.125-1.125v-4.5c0-.621.504-1.125 1.125-1.125h.375v-1.5c0-2.072 1.688-3.757 3.762-3.75 2.072.007 3.738 1.713 3.738 3.785v1.465h.375c.621 0 1.125.504 1.125 1.125zm-8.25-1.125h6v-1.5c0-1.655-1.345-3-3-3s-3 1.345-3 3v1.5zm7.5 5.625v-4.5c0-.206-.169-.375-.375-.375h-8.25c-.206 0-.375.169-.375.375v4.5c0 .206.169.375.375.375h8.25c.206 0 .375-.169.375-.375z"
                          transform="translate(-206 -370)"/>
                </g>
            </g>
        </symbol>
        <symbol id="icon-filter-difficulty" viewBox="0 0 13 12">
            <g fill="none" fill-rule="evenodd">
                <g fill="#879198" fill-rule="nonzero">
                    <path d="M490.846 375.538h-.923c-.127 0-.23.104-.23.231v6c0 .128.103.231.23.231h.923c.128 0 .23-.103.23-.23v-6c0-.128-.102-.232-.23-.232zm-3.692 2.77h-.923c-.128 0-.231.103-.231.23v3.231c0 .128.103.231.23.231h.924c.127 0 .23-.103.23-.23v-3.232c0-.127-.103-.23-.23-.23zm7.384-5.539h-.923c-.127 0-.23.103-.23.231v8.77c0 .127.103.23.23.23h.923c.128 0 .231-.103.231-.23V373c0-.127-.103-.23-.23-.23zm3.693-2.769h-.923c-.128 0-.231.103-.231.23v11.54c0 .127.103.23.23.23h.924c.127 0 .23-.103.23-.23v-11.54c0-.127-.103-.23-.23-.23z"
                          transform="translate(-486 -370)"/>
                </g>
            </g>
        </symbol>
        <symbol id="icon-filter-progress" viewBox="0 0 12 12">
            <g fill="none" fill-rule="evenodd">
                <g fill="#879198" fill-rule="nonzero">
                    <path d="M768.125 378.25H765.5c-.621 0-1.125-.504-1.125-1.125S764.879 376 765.5 376h2.25s2.25-2.508 2.25-3.75-1.008-2.25-2.25-2.25-2.25 1.008-2.25 2.25c0 .81.959 2.16 1.624 3H765.5c-1.034 0-1.875.841-1.875 1.875S764.466 379 765.5 379h2.625c.621 0 1.125.504 1.125 1.125s-.504 1.125-1.125 1.125h-7.25c.666-.84 1.625-2.19 1.625-3 0-1.242-1.008-2.25-2.25-2.25s-2.25 1.008-2.25 2.25 2.25 3.75 2.25 3.75h7.875c1.034 0 1.875-.841 1.875-1.875s-.841-1.875-1.875-1.875zm-1.875-6c0-.827.673-1.5 1.5-1.5s1.5.673 1.5 1.5c0 .478-.705 1.594-1.5 2.587-.797-.998-1.5-2.123-1.5-2.587zm-7.5 6c0-.827.673-1.5 1.5-1.5s1.5.673 1.5 1.5c0 .478-.705 1.594-1.5 2.587-.797-.998-1.5-2.123-1.5-2.587zm1.5-.375c-.497 0-.495.75 0 .75.497 0 .495-.75 0-.75zm7.5-6c-.497 0-.495.75 0 .75.497 0 .495-.75 0-.75z"
                          transform="translate(-758 -370)"/>
                </g>
            </g>
        </symbol>
        <symbol id="icon-resources" viewBox="0 0 32 32">
            <g>
                <path class="st0" d="M15.19,30.61H3.74c-1.17,0-2.13-0.91-2.22-2.06c0.09-1.15,1.05-2.06,2.22-2.06h9.51
		c0.41,0,0.75-0.33,0.75-0.75S13.65,25,13.24,25H6.72V1.59h18.44v9.07c0,0.41,0.33,0.75,0.75,0.75s0.75-0.33,0.75-0.75V0.84
		c0-0.41-0.33-0.75-0.75-0.75H3.74C1.68,0.09,0,1.77,0,3.83v24.54c0,0.06,0.02,0.12,0.02,0.18c0,0.06-0.02,0.12-0.02,0.18
		c0,0.11,0.03,0.21,0.07,0.3c0.32,1.74,1.84,3.07,3.67,3.07h11.46c0.41,0,0.75-0.33,0.75-0.75C15.94,30.94,15.6,30.61,15.19,30.61z
		 M3.74,1.59h1.49V25H3.74c-0.84,0-1.62,0.29-2.24,0.77V3.83C1.49,2.59,2.5,1.59,3.74,1.59z"/>
                <path class="st0" d="M21.55,6.23H10.59c-0.41,0-0.75,0.33-0.75,0.75s0.33,0.75,0.75,0.75h10.96c0.41,0,0.75-0.33,0.75-0.75
		S21.96,6.23,21.55,6.23z"/>
                <path class="st0" d="M21.55,10.22H10.59c-0.41,0-0.75,0.33-0.75,0.75s0.33,0.75,0.75,0.75h10.96c0.41,0,0.75-0.33,0.75-0.75
		S21.96,10.22,21.55,10.22z"/>
                <path class="st0" d="M30,22.09l-6.05,6.72c-0.73,0.81-1.72,1.28-2.8,1.34c-1.08,0.06-2.12-0.31-2.93-1.04
		c-0.81-0.72-1.28-1.72-1.34-2.8c-0.06-1.08,0.31-2.12,1.04-2.93l7.88-8.74c1.01-1.08,2.71-1.16,3.81-0.16
		c1.12,1.01,1.21,2.74,0.2,3.86l-1.2,1.33l-5.04,5.59c-0.38,0.42-0.87,0.71-1.34,0.81c-0.23,0.04-0.67,0.08-0.98-0.2
		c-0.31-0.28-0.32-0.71-0.3-0.95c0.04-0.48,0.29-0.99,0.66-1.41l4.13-4.58c0.28-0.31,0.25-0.78-0.05-1.05
		c-0.31-0.28-0.78-0.25-1.06,0.05l-4.13,4.58c-0.6,0.66-0.97,1.47-1.04,2.28c-0.08,0.87,0.21,1.67,0.79,2.19
		c0.45,0.4,1.04,0.61,1.68,0.61c0.19,0,0.39-0.02,0.59-0.06c0.79-0.16,1.56-0.61,2.16-1.27l2.12-2.35c0,0,0,0,0,0l2.92-3.24
		l0.38-0.42c0,0,0,0,0,0l0.82-0.91c0.76-0.84,1.14-1.92,1.08-3.05c-0.06-1.13-0.55-2.16-1.39-2.92c-0.84-0.75-1.91-1.14-3.05-1.08
		c-0.95,0.05-1.82,0.42-2.52,1.03c-0.07,0.04-0.13,0.08-0.19,0.14l-0.16,0.18c-0.01,0.01-0.03,0.03-0.04,0.04l-4.48,4.97
		c-0.01,0.01-0.01,0.03-0.02,0.04l-3.34,3.7c-0.99,1.1-1.5,2.52-1.42,4.01c0.08,1.48,0.73,2.84,1.83,3.84
		c1.03,0.93,2.34,1.43,3.71,1.43c0.1,0,0.2,0,0.3-0.01c1.48-0.08,2.84-0.73,3.84-1.83l6.05-6.72c0.28-0.31,0.25-0.78-0.05-1.06
		C30.75,21.75,30.28,21.78,30,22.09z"/>
            </g>
        </symbol>
        <symbol id="icon-lesson-audio" viewBox="0 0 24 24">
            <g>
                <path class="st0" d="M16.4,5.1c-0.1-0.1-0.3-0.2-0.5-0.2S15.5,5,15.4,5.1L11.5,9H8.5C8.3,9,8.1,9.1,7.9,9.2
		C7.8,9.4,7.7,9.6,7.7,9.8v4.5c0,0.2,0.1,0.4,0.2,0.5C8.1,14.9,8.3,15,8.5,15h3.1l3.9,3.9c0.1,0.1,0.3,0.2,0.5,0.2s0.4-0.1,0.5-0.2
		c0.1-0.1,0.2-0.3,0.2-0.5V5.7C16.7,5.5,16.6,5.3,16.4,5.1L16.4,5.1z M16.4,5.1"/>
            </g>
        </symbol>
        <symbol id="icon-lesson-video" viewBox="-285 408.9 24 24">
            <path class="st0" d="M-570,817.8h24v24h-24V817.8z"/>
            <path class="st1" d="M-268,419.4v-3.5c0-0.6-0.5-1-1-1h-12c-0.5,0-1,0.4-1,1v10c0,0.5,0.5,1,1,1h12c0.5,0,1-0.5,1-1v-3.5l4,4v-11
	L-268,419.4z"/>
        </symbol>
        <symbol id="icon-lesson-text" viewBox="-285 408.9 24 24">
            <path d="M-271,425.9h-10v2h10V425.9z M-265,417.9h-16v2h16V417.9z M-281,423.9h16v-2h-16V423.9z M-281,413.9v2h16v-2
	H-281z"/>
            <path fill="none" d="M-285,408.9h24v24h-24V408.9z"/>
        </symbol>
    </defs>
</svg>
