<svg style="position: absolute; width: 0; height: 0; overflow: hidden;" version="1.1" xmlns="http://www.w3.org/2000/svg" xmlns:xlink="http://www.w3.org/1999/xlink">
    <defs>
        <symbol id="icon-tva-strong" viewBox="0 0 21 16">
            <g fill="none" fill-rule="evenodd">
                <g fill="#FEFEFE">
                    <g>
                        <path d="M17.38 10.29l.023-.013-.022.014zm1.723-1.123c-.654 0-2.022.248-2.56.356-.513.101-1.183.243-1.68.437-.384.15-.748.297-1.116.481-.343.172-.677.372-.988.598l-.306.226c-.054.04-.094.076-.147.119-.051.04-.096.087-.144.121-.108.081-.197.2-.299.28-.102.079-.45.475-.538.596l-.327.46c-.315.478-.56 1.048-.653 1.615-.033.207-.03.316-.054.477l-.004.024v.25c.022.304.104.655.105.684h.023c.018-.214.344-.978.424-1.138l.202-.378c.121-.202.251-.402.392-.59.094-.126.193-.254.304-.368.025-.026.025-.03.046-.057.116-.139.267-.265.393-.393l.424-.364c.017-.014.033-.024.053-.039l.746-.527c.226-.132.44-.28.668-.408.205-.114.517-.278.716-.36l.538-.238c.278-.11.56-.24.846-.334l.582-.205.294-.098c.088-.03.21-.085.303-.09l-.642.295c-.22.089-.617.298-.848.414l-.617.331c-.195.114-.4.229-.592.355l-.567.393c-.035.027-.05.041-.085.067l-.046.034-.124.108c-.022.018-.025.016-.046.034-.016.015-.026.025-.04.042l-.538.562-.598.824-.238.4-.053.096c-.119.206-.226.419-.323.637l-.047.115c.16.038 1.045.028 1.258-.002l.397-.043c.648-.07 1.396-.25 1.966-.534.028-.013.053-.021.082-.034l.07-.035c.028-.014.04-.024.072-.042l.143-.077c.097-.051.183-.111.27-.17.103-.068.211-.145.304-.228.133-.12.277-.247.39-.387.016-.022.031-.032.048-.054.182-.226.33-.472.492-.712.236-.354.457-.715.648-1.098.413-.828.529-.932 1.047-1.58.021-.026.022-.032.048-.057l.276-.266c.114-.1.262-.203.405-.256.128-.047.193-.071.369-.071-.123-.182-.646-.196-.984-.198h-.14zm-1.722 1.124c-.014.012.02.012-.035.012.012-.012-.02-.012.035-.012z"
                              transform="translate(-6 -7) translate(6 7)"/>
                        <path d="M7.397 6.331c0 .3-.343.471-.586.293-2.294-1.674-4.2-1.999-4.942-2.06-.19-.016-.333-.176-.333-.366V2.962c0-.214.184-.388.398-.367 3.04.284 4.88 1.796 5.345 2.225.076.07.118.166.118.27V6.33zm-.027 3.37c0 .3-.343.471-.585.294-2.294-1.675-4.201-2-4.943-2.061-.19-.016-.333-.176-.333-.367V6.332c0-.214.184-.388.398-.368 3.04.285 4.88 1.798 5.346 2.226.076.07.117.166.117.27V9.7zm11.017-1.344V.369c0-.218-.185-.388-.402-.367-1.377.135-5.969.802-8.509 3.816-.15.178-.415.178-.565 0C6.37.804 1.779.137.4.002.185-.02 0 .15 0 .369v9.3c0 .19.146.347.335.366 1.291.12 5.994.758 8.576 3.823.15.178.415.178.565 0 .03-.037.063-.071.094-.107.273-1.015 1.771-4.844 8.817-5.394z"
                              transform="translate(-6 -7) translate(6 7)"/>
                    </g>
                </g>
            </g>
        </symbol>
        <symbol id="icon-previous-lesson" viewBox="0 0 32 32">
            <g>
                <path class="st0" d="M8.35,8.09c4.51,0,8.18,3.67,8.18,8.18s-3.67,8.18-8.18,8.18s-8.18-3.67-8.18-8.18S3.84,8.09,8.35,8.09z
		 M8.35,22.95c3.68,0,6.68-3,6.68-6.68s-3-6.68-6.68-6.68s-6.68,3-6.68,6.68S4.67,22.95,8.35,22.95z"/>
                <path class="st0" d="M9.44,13.46c0.33-0.25,0.8-0.17,1.05,0.16c0.25,0.33,0.17,0.8-0.16,1.05l-2.23,1.64l2.16,1.56
		c0.33,0.24,0.41,0.71,0.17,1.05c-0.15,0.2-0.38,0.31-0.61,0.31c-0.15,0-0.31-0.05-0.44-0.14l-2.99-2.16
		c-0.19-0.14-0.31-0.36-0.31-0.6s0.11-0.47,0.31-0.61L9.44,13.46z"/>
                <path class="st0" d="M21.8,15.07c0.66,0,1.2,0.54,1.2,1.2c0,0.66-0.54,1.2-1.2,1.2c-0.66,0-1.2-0.54-1.2-1.2
		C20.6,15.61,21.14,15.07,21.8,15.07z"/>
                <path class="st0" d="M26.27,15.07c0.66,0,1.2,0.54,1.2,1.2c0,0.66-0.54,1.2-1.2,1.2c-0.66,0-1.2-0.54-1.2-1.2
		C25.07,15.61,25.61,15.07,26.27,15.07z"/>
                <circle class="st0" cx="30.74" cy="16.27" r="1.2"/>
            </g>
        </symbol>
        <symbol id="icon-next-lesson" viewBox="0 0 32 32">
            <g>
                <path class="st0" d="M23.76,8.09c-4.51,0-8.18,3.67-8.18,8.18s3.67,8.18,8.18,8.18s8.18-3.67,8.18-8.18S28.27,8.09,23.76,8.09z
		 M23.76,22.95c-3.68,0-6.68-3-6.68-6.68s3-6.68,6.68-6.68s6.68,3,6.68,6.68S27.44,22.95,23.76,22.95z"/>
                <path class="st0" d="M22.67,13.46c-0.33-0.25-0.8-0.17-1.05,0.16c-0.25,0.33-0.17,0.8,0.16,1.05l2.23,1.64l-2.16,1.56
		c-0.33,0.24-0.41,0.71-0.17,1.05c0.15,0.2,0.38,0.31,0.61,0.31c0.15,0,0.31-0.05,0.44-0.14l2.99-2.16c0.19-0.14,0.31-0.36,0.31-0.6
		s-0.11-0.47-0.31-0.61L22.67,13.46z"/>
                <path class="st0" d="M10.31,15.07c-0.66,0-1.2,0.54-1.2,1.2c0,0.66,0.54,1.2,1.2,1.2c0.66,0,1.2-0.54,1.2-1.2
		C11.51,15.61,10.97,15.07,10.31,15.07z"/>
                <path class="st0" d="M5.84,15.07c-0.66,0-1.2,0.54-1.2,1.2c0,0.66,0.54,1.2,1.2,1.2c0.66,0,1.2-0.54,1.2-1.2
		C7.04,15.61,6.51,15.07,5.84,15.07z"/>
                <circle class="st0" cx="1.37" cy="16.27" r="1.2"/>
            </g>
        </symbol>
        <symbol id="icon-mark-complete" viewBox="0 0 32 32">
            <g>
                <path class="st0" d="M25.66,17.93V6.04c0-0.19-0.07-0.37-0.2-0.51l-4.81-5.2c-0.14-0.15-0.34-0.24-0.55-0.24H2.94
		c-0.41,0-0.75,0.34-0.75,0.75v26.57c0,0.41,0.34,0.75,0.75,0.75h12.83c1.29,2.23,3.73,3.75,6.52,3.75c4.14,0,7.51-3.32,7.51-7.39
		C29.81,21.69,28.19,19.18,25.66,17.93z M23.97,6.13H20.3V2.16L23.97,6.13z M3.69,26.66V1.59H18.8v5.29c0,0.41,0.34,0.75,0.75,0.75
		h4.61v9.73c-0.61-0.15-1.23-0.24-1.87-0.24c-4.14,0-7.51,3.32-7.51,7.39c0,0.75,0.12,1.47,0.33,2.15H3.69z M22.3,30.41
		c-3.31,0-6.01-2.64-6.01-5.89c0-3.25,2.7-5.89,6.01-5.89c0.79,0,1.56,0.15,2.29,0.44c2.26,0.91,3.72,3.05,3.72,5.45
		C28.31,27.76,25.61,30.41,22.3,30.41z"/>
                <path class="st0" d="M24.47,21.86l-2.6,3.64l-2.26-1.48c-0.35-0.23-0.81-0.13-1.04,0.22c-0.23,0.35-0.13,0.81,0.22,1.04l2.86,1.88
		c0.13,0.08,0.27,0.12,0.41,0.12c0.23,0,0.46-0.11,0.61-0.31l3.02-4.22c0.24-0.34,0.16-0.81-0.17-1.05
		C25.18,21.45,24.71,21.53,24.47,21.86z"/>
                <path class="st0" d="M8.04,10.83h9.37c0.41,0,0.75-0.34,0.75-0.75s-0.34-0.75-0.75-0.75H8.04c-0.41,0-0.75,0.34-0.75,0.75
		S7.62,10.83,8.04,10.83z"/>
                <path class="st0" d="M13.25,15.71H7.96c-0.41,0-0.75,0.34-0.75,0.75s0.34,0.75,0.75,0.75h5.29c0.41,0,0.75-0.34,0.75-0.75
		S13.66,15.71,13.25,15.71z"/>
                <path class="st0" d="M8.04,14.02h9.37c0.41,0,0.75-0.34,0.75-0.75s-0.34-0.75-0.75-0.75H8.04c-0.41,0-0.75,0.34-0.75,0.75
		S7.62,14.02,8.04,14.02z"/>
            </g>
        </symbol>
        <symbol id="icon-download-certificate" viewBox="0 0 33 34">
            <g stroke="none" stroke-width="1" fill="none" fill-rule="evenodd">
                <g transform="translate(-79.000000, -15.000000)" fill="#50565F" fill-rule="nonzero">
                    <g transform="translate(79.250000, 15.250000)">
                        <path d="M12.8200397,23.5 C11.2489198,23.5 8.89223989,23.5 5.75,23.5 C5.33578644,23.5 5,23.1642136 5,22.75 C5,22.3357864 5.33578644,22 5.75,22 C9.01491419,22 11.4635998,22 13.0960569,22 C12.9625354,22.5474188 13.0043876,22.3707666 12.9298053,22.75 C12.8552229,23.1292334 12.9054177,22.8782902 12.8200397,23.5 Z"></path>
                        <path d="M13.0929198,27.5 C11.4611599,27.5 9.01351992,27.5 5.75,27.5 C5.33578644,27.5 5,27.1642136 5,26.75 C5,26.3357864 5.33578644,26 5.75,26 C8.89352587,26 11.2511703,26 12.8229332,26 C12.8653989,26.4439793 12.8855374,26.5335901 12.9292333,26.75 C12.9729292,26.9664099 12.9871631,27.0382528 13.0929198,27.5 Z"></path>
                        <path d="M23.75,11 C24.1642136,11 24.5,11.3357864 24.5,11.75 C24.5,12.1642136 24.1642136,12.5 23.75,12.5 L18.75,12.5 C18.3357864,12.5 18,12.1642136 18,11.75 C18,11.3357864 18.3357864,11 18.75,11 L23.75,11 Z"></path>
                        <path d="M23.75,7 C24.1642136,7 24.5,7.33578644 24.5,7.75 C24.5,8.16421356 24.1642136,8.5 23.75,8.5 L18.75,8.5 C18.3357864,8.5 18,8.16421356 18,7.75 C18,7.33578644 18.3357864,7 18.75,7 L23.75,7 Z"></path>
                        <path d="M26.75,0 C28.2687831,0 29.5,1.23121694 29.5,2.75 L29.5011043,15.3713516 C29.0238873,15.0780916 28.5225785,14.8202341 28.000836,14.6014374 L28,2.75 C28,2.05964406 27.4403559,1.5 26.75,1.5 L2.75,1.5 C2.05964406,1.5 1.5,2.05964406 1.5,2.75 L1.5,28.75 C1.5,29.4403559 2.05964406,30 2.75,30 L14.0816413,30.0006111 C14.3688926,30.5284319 14.6981064,31.0301156 15.0648027,31.5011823 L2.75,31.5 C1.23121694,31.5 0,30.2687831 0,28.75 L0,2.75 C0,1.23121694 1.23121694,0 2.75,0 Z"></path>
                        <path d="M23.75,15.75 C28.7205627,15.75 32.75,19.7794373 32.75,24.75 C32.75,29.7205627 28.7205627,33.75 23.75,33.75 C18.7794373,33.75 14.75,29.7205627 14.75,24.75 C14.75,19.7794373 18.7794373,15.75 23.75,15.75 Z M23.75,17.15 C19.5526359,17.15 16.15,20.5526359 16.15,24.75 C16.15,28.9473641 19.5526359,32.35 23.75,32.35 C27.9473641,32.35 31.35,28.9473641 31.35,24.75 C31.35,20.5526359 27.9473641,17.15 23.75,17.15 Z"></path>
                        <path d="M24.1637034,20.8 C24.3638472,20.8 24.5274068,20.9601267 24.5274068,21.1550203 L24.5274068,25.8633815 L26.4917069,24.0153573 C26.6337715,23.8733269 26.8678648,23.8723973 27.0108454,24.012377 L27.5934912,24.5827938 C27.7355029,24.7218249 27.7355029,24.9460848 27.5934912,25.085116 L24.0080615,28.595292 C23.8654578,28.7349027 23.6345422,28.7349027 23.4919385,28.595292 L19.9065088,25.085116 C19.7644971,24.9460848 19.7644971,24.7218249 19.9065088,24.5827938 L20.4891546,24.012377 C20.6352602,23.8723394 20.8661615,23.87326 21.008339,24.0154032 L22.8871962,25.8986951 L22.9725932,21.1550203 C22.9725932,20.9601267 23.1361528,20.8 23.3362966,20.8 L24.1637034,20.8 Z"></path>
                        <path d="M14.4,14.0635014 L12.75,14.9671249 L10.75,14.7472248 L8.77246857,14.9671249 L7.1,14.0635014 L7.1,18.4450537 C7.1,18.5615827 7.1239603,18.676867 7.17039254,18.7837456 L7.21895158,18.8788991 C7.43405968,19.242406 7.891247,19.3973268 8.28869191,19.2246612 L10.75,18.155 L13.2113081,19.2246612 C13.3181867,19.2710934 13.4334711,19.2950537 13.55,19.2950537 C14.019442,19.2950537 14.4,18.9144958 14.4,18.4450537 M13.1,15.2513905 L13.1,17.759 L11.0886919,16.8851339 L10.9785039,16.846027 C10.7916964,16.7938843 10.5913424,16.80692 10.4113081,16.8851339 L8.4,17.758 L8.4,15.2513905 L13.1,15.2513905 Z"></path>
                        <path d="M11.2815222,3.93493297 C12.1865384,3.67269501 13.1599663,3.9889809 13.7380001,4.73309102 L14.077,5.169 L14.5980212,5.35793288 C15.4289397,5.65774556 16.0096322,6.40425971 16.1039083,7.27238711 L16.116208,7.44753778 L16.133,7.999 L16.4447068,8.45855315 C16.9385041,9.18625965 16.9714239,10.1263754 16.5434662,10.8824031 L16.4447068,11.0414469 L16.133,11.5 L16.116208,12.0524622 C16.0878371,12.9353599 15.5573038,13.7183169 14.7607985,14.0762449 L14.5980212,14.1420671 L14.077,14.33 L13.7380001,14.766909 C13.1960934,15.4645122 12.3066724,15.7860981 11.4519012,15.6074939 L11.2815222,15.565067 L10.75,15.41 L10.2184778,15.565067 C9.37002511,15.8109151 8.46144498,15.548295 7.87490151,14.9013793 L7.76199988,14.766909 L7.422,14.33 L6.90197884,14.1420671 C6.07106034,13.8422544 5.49036782,13.0957403 5.3960917,12.2276129 L5.38379201,12.0524622 L5.367,11.5 L5.0552932,11.0414469 C4.56149594,10.3137404 4.52857613,9.37362465 4.95653375,8.61759692 L5.0552932,8.45855315 L5.367,7.999 L5.38379201,7.44753778 C5.41216287,6.56464012 5.94269617,5.78168315 6.73920147,5.42375511 L6.90197884,5.35793288 L7.422,5.169 L7.76199988,4.73309102 C8.30390661,4.03548778 9.19332763,3.71390193 10.0480988,3.89250614 L10.2184778,3.93493297 L10.75,4.09 Z M12.7113621,5.53059605 C12.460043,5.20706991 12.0368135,5.0695543 11.6433282,5.18357081 L11.0283123,5.36177814 C10.8465099,5.41445728 10.6534901,5.41445728 10.4716877,5.36177814 L9.85667181,5.18357081 C9.46318652,5.0695543 9.03995701,5.20706991 8.78863795,5.53059605 L8.39582726,6.03626609 C8.27971011,6.18574514 8.12355375,6.29919938 7.94550855,6.36344179 L7.34320258,6.58076631 C6.95784908,6.71980987 6.69627885,7.0798304 6.68312135,7.48929018 L6.66255623,8.12927417 C6.65647705,8.31845722 6.59683063,8.50203002 6.49054978,8.65865557 L6.13101417,9.18850137 C5.90098439,9.52749508 5.90098439,9.97250492 6.13101417,10.3114986 L6.49054978,10.8413444 C6.59683063,10.99797 6.65647705,11.1815428 6.66255623,11.3707258 L6.68312135,12.0107098 C6.69627885,12.4201696 6.95784908,12.7801901 7.34320258,12.9192337 L7.94550855,13.1365582 C8.12355375,13.2008006 8.27971011,13.3142549 8.39582726,13.4637339 L8.78863795,13.969404 C9.03995701,14.2929301 9.46318652,14.4304457 9.85667181,14.3164292 L10.4716877,14.1382219 C10.6534901,14.0855427 10.8465099,14.0855427 11.0283123,14.1382219 L11.6433282,14.3164292 C12.0368135,14.4304457 12.460043,14.2929301 12.7113621,13.969404 L13.1041727,13.4637339 C13.2202899,13.3142549 13.3764463,13.2008006 13.5544915,13.1365582 L14.1567974,12.9192337 C14.5421509,12.7801901 14.8037211,12.4201696 14.8168786,12.0107098 L14.8374438,11.3707258 C14.8435229,11.1815428 14.9031694,10.99797 15.0094502,10.8413444 L15.3689858,10.3114986 C15.5990156,9.97250492 15.5990156,9.52749508 15.3689858,9.18850137 L15.0094502,8.65865557 C14.9031694,8.50203002 14.8435229,8.31845722 14.8374438,8.12927417 L14.8168786,7.48929018 C14.8037211,7.0798304 14.5421509,6.71980987 14.1567974,6.58076631 L13.5544915,6.36344179 C13.3764463,6.29919938 13.2202899,6.18574514 13.1041727,6.03626609 Z"></path>
                        <path d="M10.75,6.75 C12.4068542,6.75 13.75,8.09314575 13.75,9.75 C13.75,11.4068542 12.4068542,12.75 10.75,12.75 C9.09314575,12.75 7.75,11.4068542 7.75,9.75 C7.75,8.09314575 9.09314575,6.75 10.75,6.75 Z M10.75,8.05 C9.81111593,8.05 9.05,8.81111593 9.05,9.75 C9.05,10.6888841 9.81111593,11.45 10.75,11.45 C11.6888841,11.45 12.45,10.6888841 12.45,9.75 C12.45,8.81111593 11.6888841,8.05 10.75,8.05 Z"></path>
                    </g>
                </g>
            </g>
        </symbol>
        <symbol id="icon-completion-page" viewBox="0 0 32 33">
            <path d="M3.06 0a2.745 2.745 0 0 1 2.661 3.117l-.058.422.397-.155a12.76 12.76 0 0 1 4.721-.883c1.806 0 3.193.302 5.605 1.073l.566.18c.526.168.74.235.944.295l.742.207c1.06.277 1.963.414 2.887.414 2.545 0 5.218-.828 8.45-2.33a1.248 1.248 0 0 1 1.775 1.13v16.35c0 .418-.203.803-.547 1.037-2.619 1.774-5.087 2.644-7.984 2.644-1.806 0-3.194-.301-5.605-1.072l-1.461-.462-.805-.225c-1.051-.274-1.95-.41-2.867-.41-3.444 0-5.933.617-8.586 1.842l-.145.067-.001 7.51H6v1.5H0v-1.5h2.249L2.25 5.406l-.166-.059a2.755 2.755 0 0 1-1.828-2.75A2.762 2.762 0 0 1 2.89 0L3.06 0zm27.19 3.856-.357.17c-2.56 1.214-5.897 2.144-8.374 2.144-1.468 0-2.556-.218-4.61-.857l-1.379-.435C13.434 4.227 12.31 4 10.781 4c-2.499 0-5.153.934-6.927 2.217l-.104.074v15.31l.357-.168c2.005-.95 5.465-1.601 8.374-1.601 1.468 0 2.556.218 4.61.856l1.378.436c2.096.65 3.22.876 4.75.876 2.498 0 5.153-.933 6.927-2.216l.104-.075V3.856zm-1.5 11.185v3.868l-.166.102a11.425 11.425 0 0 1-4.047 1.397l-.087.01v-4.002l.15-.021c1.47-.24 2.986-.736 4.065-1.307l.085-.047zm-13.9-.325.46.11c.382.097.785.212 1.283.365l2.182.685.375.108v3.78l-1.34-.425c-1.199-.38-1.954-.59-2.76-.747l-.2-.039v-3.837zm-5.3-.178v3.978l-.297.036a24.245 24.245 0 0 0-3.9.812l-.103.032v-3.918l.412-.13a22.713 22.713 0 0 1 3.567-.771l.32-.039zm10.1-2.694.13.027c1.426.268 2.73.306 4.06.13l.11-.017v3.994l-.165.02-.353.03c-1.167.081-2.25-.035-3.564-.367l-.218-.059v-3.758zm-9.445-1.819c1.335-.158 2.495-.087 3.932.256l.213.052v3.778l-.366-.062c-1.156-.18-2.32-.212-3.796-.08l-.138.012-.001-3.936zM28.75 6.133v3.91l-.894.345c-1.303.49-2.24.78-3.208.972l-.198.036V7.363l.393-.075A25.964 25.964 0 0 0 28.5 6.23l.25-.096zm-13.9.097 1.846.583c.993.307 1.684.488 2.433.626l.02.003v3.782l-.27-.065c-.383-.097-.778-.21-1.271-.362l-2.246-.703-.512-.147V6.23zm-5.3-.647v4.035l-.119.019-.35.063c-1.404.268-2.813.732-3.784 1.238l-.047.025V7.091l.166-.1a11.425 11.425 0 0 1 4.047-1.396l.087-.012zM3 1.251c-.826 0-1.5.675-1.5 1.5 0 .826.674 1.5 1.5 1.5s1.5-.674 1.5-1.5c0-.825-.674-1.5-1.5-1.5z"
                  fill="#50565F" fill-rule="nonzero"/>
        </symbol>
    </defs>
</svg>
