<svg style="position: absolute; width: 0; height: 0; overflow: hidden;" version="1.1" xmlns="http://www.w3.org/2000/svg" xmlns:xlink="http://www.w3.org/1999/xlink">
    <defs>
        <symbol id="tcb-icon-course-structure" viewBox="0 0 32 32">
            <g>
                <path class="st0" d="M31.41,2.51H18.54c-1.04,0-1.96,0.51-2.54,1.29c-0.58-0.78-1.49-1.29-2.54-1.29H0.59
		c-0.41,0-0.75,0.34-0.75,0.75v22.48c0,0.41,0.33,0.75,0.75,0.75l11.73,0.04c0.01,0,0.67,0.03,1.27,0.48
		c0.43,0.33,1.25,1.48,1.66,2.13c0.14,0.22,0.38,0.35,0.63,0.35c0.04,0,0.08-0.01,0.12-0.02c0.04,0.01,0.08,0.02,0.12,0.02
		c0.25,0,0.49-0.13,0.63-0.35c0.41-0.65,1.23-1.8,1.67-2.13c0.59-0.45,1.26-0.48,1.25-0.48l11.74-0.04c0.41,0,0.75-0.34,0.75-0.75
		V3.26C32.16,2.85,31.83,2.51,31.41,2.51z M15.13,26.45c-0.22-0.25-0.44-0.48-0.64-0.63c-0.98-0.75-2.04-0.78-2.16-0.78L1.34,24.99
		V4.01h12.13c0.92,0,1.66,0.75,1.66,1.66V26.45z M30.66,24.99l-11,0.04c-0.12,0-1.17,0.04-2.15,0.78c-0.2,0.15-0.42,0.38-0.64,0.63
		V5.67c0-0.92,0.75-1.66,1.66-1.66h12.13V24.99z"/>
                <path class="st0" d="M11.74,13.31H4.11c-0.41,0-0.75,0.34-0.75,0.75s0.34,0.75,0.75,0.75h7.63c0.41,0,0.75-0.34,0.75-0.75
		S12.15,13.31,11.74,13.31z"/>
                <path class="st0" d="M11.74,16.83H4.11c-0.41,0-0.75,0.34-0.75,0.75s0.34,0.75,0.75,0.75h7.63c0.41,0,0.75-0.34,0.75-0.75
		S12.15,16.83,11.74,16.83z"/>
                <path class="st0" d="M11.74,9.78H4.11c-0.41,0-0.75,0.34-0.75,0.75s0.34,0.75,0.75,0.75h7.63c0.41,0,0.75-0.34,0.75-0.75
		S12.15,9.78,11.74,9.78z"/>
                <path class="st0" d="M19.78,14.81h7.63c0.41,0,0.75-0.34,0.75-0.75s-0.34-0.75-0.75-0.75h-7.63c-0.41,0-0.75,0.34-0.75,0.75
		S19.37,14.81,19.78,14.81z"/>
                <path class="st0" d="M19.78,18.33h7.63c0.41,0,0.75-0.34,0.75-0.75s-0.34-0.75-0.75-0.75h-7.63c-0.41,0-0.75,0.34-0.75,0.75
		S19.37,18.33,19.78,18.33z"/>
                <path class="st0" d="M19.78,11.28h7.63c0.41,0,0.75-0.34,0.75-0.75s-0.34-0.75-0.75-0.75h-7.63c-0.41,0-0.75,0.34-0.75,0.75
		S19.37,11.28,19.78,11.28z"/>
            </g>
        </symbol>
        <symbol id="tcb-icon-course-list" viewBox="0 0 32 32">
            <g stroke="none" stroke-width="1" fill="none" fill-rule="evenodd">
                <g transform="translate(-101.000000, -112.000000)" stroke="currentColor" stroke-width="1.5">
                    <g transform="translate(101.000000, 112.000000)">
                        <g transform="translate(17.000000, 0.000000)">
                            <rect id="Rectangle-Copy" x="0.75" y="0.75" width="13.5" height="30.5"></rect>
                            <line x1="1.5" y1="11.5" x2="13.5" y2="11.5" id="Line-3-Copy" stroke-linecap="square"></line>
                            <line x1="3.5" y1="14.538176" x2="11.5" y2="14.538176" id="Line-3-Copy-2" stroke-linecap="square"></line>
                            <line x1="3.5" y1="20.538176" x2="8.5" y2="20.5" id="Line-3-Copy-4" stroke-linecap="square"></line>
                            <rect id="Rectangle" x="3.75" y="25.75" width="7.5" height="2.5"></rect>
                            <line x1="3.5" y1="17.538176" x2="11.5" y2="17.538176" id="Line-3-Copy-3" stroke-linecap="square"></line>
                        </g>
                        <g>
                            <rect id="Rectangle-Copy" x="0.75" y="0.75" width="13.5" height="30.5"></rect>
                            <line x1="1.5" y1="11.5" x2="13.5" y2="11.5" id="Line-3-Copy" stroke-linecap="square"></line>
                            <line x1="3.5" y1="14.538176" x2="11.5" y2="14.538176" id="Line-3-Copy-2" stroke-linecap="square"></line>
                            <line x1="3.5" y1="20.538176" x2="8.5" y2="20.5" id="Line-3-Copy-4" stroke-linecap="square"></line>
                            <rect id="Rectangle" x="3.75" y="25.75" width="7.5" height="2.5"></rect>
                            <line x1="3.5" y1="17.538176" x2="11.5" y2="17.538176" id="Line-3-Copy-3" stroke-linecap="square"></line>
                        </g>
                    </g>
                </g>
            </g>
        </symbol>
        <symbol id="tcb-icon-resources" viewBox="0 0 32 32">
            <g>
                <path class="st0" d="M15.19,30.61H3.74c-1.17,0-2.13-0.91-2.22-2.06c0.09-1.15,1.05-2.06,2.22-2.06h9.51
		c0.41,0,0.75-0.33,0.75-0.75S13.65,25,13.24,25H6.72V1.59h18.44v9.07c0,0.41,0.33,0.75,0.75,0.75s0.75-0.33,0.75-0.75V0.84
		c0-0.41-0.33-0.75-0.75-0.75H3.74C1.68,0.09,0,1.77,0,3.83v24.54c0,0.06,0.02,0.12,0.02,0.18c0,0.06-0.02,0.12-0.02,0.18
		c0,0.11,0.03,0.21,0.07,0.3c0.32,1.74,1.84,3.07,3.67,3.07h11.46c0.41,0,0.75-0.33,0.75-0.75C15.94,30.94,15.6,30.61,15.19,30.61z
		 M3.74,1.59h1.49V25H3.74c-0.84,0-1.62,0.29-2.24,0.77V3.83C1.49,2.59,2.5,1.59,3.74,1.59z"/>
                <path class="st0" d="M21.55,6.23H10.59c-0.41,0-0.75,0.33-0.75,0.75s0.33,0.75,0.75,0.75h10.96c0.41,0,0.75-0.33,0.75-0.75
		S21.96,6.23,21.55,6.23z"/>
                <path class="st0" d="M21.55,10.22H10.59c-0.41,0-0.75,0.33-0.75,0.75s0.33,0.75,0.75,0.75h10.96c0.41,0,0.75-0.33,0.75-0.75
		S21.96,10.22,21.55,10.22z"/>
                <path class="st0" d="M30,22.09l-6.05,6.72c-0.73,0.81-1.72,1.28-2.8,1.34c-1.08,0.06-2.12-0.31-2.93-1.04
		c-0.81-0.72-1.28-1.72-1.34-2.8c-0.06-1.08,0.31-2.12,1.04-2.93l7.88-8.74c1.01-1.08,2.71-1.16,3.81-0.16
		c1.12,1.01,1.21,2.74,0.2,3.86l-1.2,1.33l-5.04,5.59c-0.38,0.42-0.87,0.71-1.34,0.81c-0.23,0.04-0.67,0.08-0.98-0.2
		c-0.31-0.28-0.32-0.71-0.3-0.95c0.04-0.48,0.29-0.99,0.66-1.41l4.13-4.58c0.28-0.31,0.25-0.78-0.05-1.05
		c-0.31-0.28-0.78-0.25-1.06,0.05l-4.13,4.58c-0.6,0.66-0.97,1.47-1.04,2.28c-0.08,0.87,0.21,1.67,0.79,2.19
		c0.45,0.4,1.04,0.61,1.68,0.61c0.19,0,0.39-0.02,0.59-0.06c0.79-0.16,1.56-0.61,2.16-1.27l2.12-2.35c0,0,0,0,0,0l2.92-3.24
		l0.38-0.42c0,0,0,0,0,0l0.82-0.91c0.76-0.84,1.14-1.92,1.08-3.05c-0.06-1.13-0.55-2.16-1.39-2.92c-0.84-0.75-1.91-1.14-3.05-1.08
		c-0.95,0.05-1.82,0.42-2.52,1.03c-0.07,0.04-0.13,0.08-0.19,0.14l-0.16,0.18c-0.01,0.01-0.03,0.03-0.04,0.04l-4.48,4.97
		c-0.01,0.01-0.01,0.03-0.02,0.04l-3.34,3.7c-0.99,1.1-1.5,2.52-1.42,4.01c0.08,1.48,0.73,2.84,1.83,3.84
		c1.03,0.93,2.34,1.43,3.71,1.43c0.1,0,0.2,0,0.3-0.01c1.48-0.08,2.84-0.73,3.84-1.83l6.05-6.72c0.28-0.31,0.25-0.78-0.05-1.06
		C30.75,21.75,30.28,21.78,30,22.09z"/>
            </g>
        </symbol>
    </defs>
</svg>
