<svg style="position: absolute; width: 0; height: 0; overflow: hidden;" version="1.1" xmlns="http://www.w3.org/2000/svg" xmlns:xlink="http://www.w3.org/1999/xlink">
    <defs>
        <symbol id="icon-shopping-cart-light" viewBox="0 0 576 512">
            <path d="M551.991 64H129.28l-8.329-44.423C118.822 8.226 108.911 0 97.362 0H12C5.373 0 0 5.373 0 12v8c0 6.627 5.373 12 12 12h78.72l69.927 372.946C150.305 416.314 144 431.42 144 448c0 35.346 28.654 64 64 64s64-28.654 64-64a63.681 63.681 0 0 0-8.583-32h145.167a63.681 63.681 0 0 0-8.583 32c0 35.346 28.654 64 64 64 35.346 0 64-28.654 64-64 0-17.993-7.435-34.24-19.388-45.868C506.022 391.891 496.76 384 485.328 384H189.28l-12-64h331.381c11.368 0 21.177-7.976 23.496-19.105l43.331-208C578.592 77.991 567.215 64 551.991 64zM240 448c0 17.645-14.355 32-32 32s-32-14.355-32-32 14.355-32 32-32 32 14.355 32 32zm224 32c-17.645 0-32-14.355-32-32s14.355-32 32-32 32 14.355 32 32-14.355 32-32 32zm38.156-192H171.28l-36-192h406.876l-40 192z"></path>
        </symbol>
        <symbol id="icon-resources" viewBox="0 0 32 32">
            <g>
                <path class="" d="M15.19,30.61H3.74c-1.17,0-2.13-0.91-2.22-2.06c0.09-1.15,1.05-2.06,2.22-2.06h9.51
		c0.41,0,0.75-0.33,0.75-0.75S13.65,25,13.24,25H6.72V1.59h18.44v9.07c0,0.41,0.33,0.75,0.75,0.75s0.75-0.33,0.75-0.75V0.84
		c0-0.41-0.33-0.75-0.75-0.75H3.74C1.68,0.09,0,1.77,0,3.83v24.54c0,0.06,0.02,0.12,0.02,0.18c0,0.06-0.02,0.12-0.02,0.18
		c0,0.11,0.03,0.21,0.07,0.3c0.32,1.74,1.84,3.07,3.67,3.07h11.46c0.41,0,0.75-0.33,0.75-0.75C15.94,30.94,15.6,30.61,15.19,30.61z
		 M3.74,1.59h1.49V25H3.74c-0.84,0-1.62,0.29-2.24,0.77V3.83C1.49,2.59,2.5,1.59,3.74,1.59z"/>
                <path class="" d="M21.55,6.23H10.59c-0.41,0-0.75,0.33-0.75,0.75s0.33,0.75,0.75,0.75h10.96c0.41,0,0.75-0.33,0.75-0.75
		S21.96,6.23,21.55,6.23z"/>
                <path class="" d="M21.55,10.22H10.59c-0.41,0-0.75,0.33-0.75,0.75s0.33,0.75,0.75,0.75h10.96c0.41,0,0.75-0.33,0.75-0.75
		S21.96,10.22,21.55,10.22z"/>
                <path class="" d="M30,22.09l-6.05,6.72c-0.73,0.81-1.72,1.28-2.8,1.34c-1.08,0.06-2.12-0.31-2.93-1.04
		c-0.81-0.72-1.28-1.72-1.34-2.8c-0.06-1.08,0.31-2.12,1.04-2.93l7.88-8.74c1.01-1.08,2.71-1.16,3.81-0.16
		c1.12,1.01,1.21,2.74,0.2,3.86l-1.2,1.33l-5.04,5.59c-0.38,0.42-0.87,0.71-1.34,0.81c-0.23,0.04-0.67,0.08-0.98-0.2
		c-0.31-0.28-0.32-0.71-0.3-0.95c0.04-0.48,0.29-0.99,0.66-1.41l4.13-4.58c0.28-0.31,0.25-0.78-0.05-1.05
		c-0.31-0.28-0.78-0.25-1.06,0.05l-4.13,4.58c-0.6,0.66-0.97,1.47-1.04,2.28c-0.08,0.87,0.21,1.67,0.79,2.19
		c0.45,0.4,1.04,0.61,1.68,0.61c0.19,0,0.39-0.02,0.59-0.06c0.79-0.16,1.56-0.61,2.16-1.27l2.12-2.35c0,0,0,0,0,0l2.92-3.24
		l0.38-0.42c0,0,0,0,0,0l0.82-0.91c0.76-0.84,1.14-1.92,1.08-3.05c-0.06-1.13-0.55-2.16-1.39-2.92c-0.84-0.75-1.91-1.14-3.05-1.08
		c-0.95,0.05-1.82,0.42-2.52,1.03c-0.07,0.04-0.13,0.08-0.19,0.14l-0.16,0.18c-0.01,0.01-0.03,0.03-0.04,0.04l-4.48,4.97
		c-0.01,0.01-0.01,0.03-0.02,0.04l-3.34,3.7c-0.99,1.1-1.5,2.52-1.42,4.01c0.08,1.48,0.73,2.84,1.83,3.84
		c1.03,0.93,2.34,1.43,3.71,1.43c0.1,0,0.2,0,0.3-0.01c1.48-0.08,2.84-0.73,3.84-1.83l6.05-6.72c0.28-0.31,0.25-0.78-0.05-1.06
		C30.75,21.75,30.28,21.78,30,22.09z"/>
            </g>
        </symbol>
        <symbol id="icon-certificates-qr" viewBox="0 0 34 34" xmlns="http://www.w3.org/2000/svg">
            <g fill-rule="evenodd">
                <path d="M28 26v2h-2v-2h2zm-6 0v2h-3v-2h3zm-1-7v3h-2v-3h2zm4 3h3v2h-4v2h-2v-2h-1v-2h2v-3h5v2h-3v1z"/>
                <path d="M15 6v9H6V6h9zm-2 2H8v5h5V8zM28 6v9h-9V6h9zm-2 2h-5v5h5V8zM15 19v9H6v-9h9zm-2 2H8v5h5v-5z" fill-rule="nonzero"/>
                <path d="M0 0h9v1.556H1.456L1.472 9H0zM34 0h-9v1.556h7.544L32.528 9H34zM34 34h-9v-1.556h7.544L32.528 25H34zM0 34h9v-1.556H1.456L1.472 25H0z"/>
            </g>
        </symbol>

    </defs>
</svg>
