<svg style="position: absolute; width: 0; height: 0; overflow: hidden;" version="1.1" xmlns="http://www.w3.org/2000/svg" xmlns:xlink="http://www.w3.org/1999/xlink">
    <defs>
        <symbol id="icon-tva-strong" viewBox="0 0 21 16">
            <g fill="none" fill-rule="evenodd">
                <g fill="#FEFEFE">
                    <g>
                        <path d="M17.38 10.29l.023-.013-.022.014zm1.723-1.123c-.654 0-2.022.248-2.56.356-.513.101-1.183.243-1.68.437-.384.15-.748.297-1.116.481-.343.172-.677.372-.988.598l-.306.226c-.054.04-.094.076-.147.119-.051.04-.096.087-.144.121-.108.081-.197.2-.299.28-.102.079-.45.475-.538.596l-.327.46c-.315.478-.56 1.048-.653 1.615-.033.207-.03.316-.054.477l-.004.024v.25c.022.304.104.655.105.684h.023c.018-.214.344-.978.424-1.138l.202-.378c.121-.202.251-.402.392-.59.094-.126.193-.254.304-.368.025-.026.025-.03.046-.057.116-.139.267-.265.393-.393l.424-.364c.017-.014.033-.024.053-.039l.746-.527c.226-.132.44-.28.668-.408.205-.114.517-.278.716-.36l.538-.238c.278-.11.56-.24.846-.334l.582-.205.294-.098c.088-.03.21-.085.303-.09l-.642.295c-.22.089-.617.298-.848.414l-.617.331c-.195.114-.4.229-.592.355l-.567.393c-.035.027-.05.041-.085.067l-.046.034-.124.108c-.022.018-.025.016-.046.034-.016.015-.026.025-.04.042l-.538.562-.598.824-.238.4-.053.096c-.119.206-.226.419-.323.637l-.047.115c.16.038 1.045.028 1.258-.002l.397-.043c.648-.07 1.396-.25 1.966-.534.028-.013.053-.021.082-.034l.07-.035c.028-.014.04-.024.072-.042l.143-.077c.097-.051.183-.111.27-.17.103-.068.211-.145.304-.228.133-.12.277-.247.39-.387.016-.022.031-.032.048-.054.182-.226.33-.472.492-.712.236-.354.457-.715.648-1.098.413-.828.529-.932 1.047-1.58.021-.026.022-.032.048-.057l.276-.266c.114-.1.262-.203.405-.256.128-.047.193-.071.369-.071-.123-.182-.646-.196-.984-.198h-.14zm-1.722 1.124c-.014.012.02.012-.035.012.012-.012-.02-.012.035-.012z" transform="translate(-6 -7) translate(6 7)"/>
                        <path d="M7.397 6.331c0 .3-.343.471-.586.293-2.294-1.674-4.2-1.999-4.942-2.06-.19-.016-.333-.176-.333-.366V2.962c0-.214.184-.388.398-.367 3.04.284 4.88 1.796 5.345 2.225.076.07.118.166.118.27V6.33zm-.027 3.37c0 .3-.343.471-.585.294-2.294-1.675-4.201-2-4.943-2.061-.19-.016-.333-.176-.333-.367V6.332c0-.214.184-.388.398-.368 3.04.285 4.88 1.798 5.346 2.226.076.07.117.166.117.27V9.7zm11.017-1.344V.369c0-.218-.185-.388-.402-.367-1.377.135-5.969.802-8.509 3.816-.15.178-.415.178-.565 0C6.37.804 1.779.137.4.002.185-.02 0 .15 0 .369v9.3c0 .19.146.347.335.366 1.291.12 5.994.758 8.576 3.823.15.178.415.178.565 0 .03-.037.063-.071.094-.107.273-1.015 1.771-4.844 8.817-5.394z" transform="translate(-6 -7) translate(6 7)"/>
                    </g>
                </g>
            </g>
        </symbol>
        <symbol id="icon-previous-lesson" viewBox="0 0 32 32">
            <g>
                <path class="st0" d="M8.35,8.09c4.51,0,8.18,3.67,8.18,8.18s-3.67,8.18-8.18,8.18s-8.18-3.67-8.18-8.18S3.84,8.09,8.35,8.09z
		 M8.35,22.95c3.68,0,6.68-3,6.68-6.68s-3-6.68-6.68-6.68s-6.68,3-6.68,6.68S4.67,22.95,8.35,22.95z"/>
                <path class="st0" d="M9.44,13.46c0.33-0.25,0.8-0.17,1.05,0.16c0.25,0.33,0.17,0.8-0.16,1.05l-2.23,1.64l2.16,1.56
		c0.33,0.24,0.41,0.71,0.17,1.05c-0.15,0.2-0.38,0.31-0.61,0.31c-0.15,0-0.31-0.05-0.44-0.14l-2.99-2.16
		c-0.19-0.14-0.31-0.36-0.31-0.6s0.11-0.47,0.31-0.61L9.44,13.46z"/>
                <path class="st0" d="M21.8,15.07c0.66,0,1.2,0.54,1.2,1.2c0,0.66-0.54,1.2-1.2,1.2c-0.66,0-1.2-0.54-1.2-1.2
		C20.6,15.61,21.14,15.07,21.8,15.07z"/>
                <path class="st0" d="M26.27,15.07c0.66,0,1.2,0.54,1.2,1.2c0,0.66-0.54,1.2-1.2,1.2c-0.66,0-1.2-0.54-1.2-1.2
		C25.07,15.61,25.61,15.07,26.27,15.07z"/>
                <circle class="st0" cx="30.74" cy="16.27" r="1.2"/>
            </g>
        </symbol>
        <symbol id="icon-next-lesson" viewBox="0 0 32 32">
            <g>
                <path class="st0" d="M23.76,8.09c-4.51,0-8.18,3.67-8.18,8.18s3.67,8.18,8.18,8.18s8.18-3.67,8.18-8.18S28.27,8.09,23.76,8.09z
		 M23.76,22.95c-3.68,0-6.68-3-6.68-6.68s3-6.68,6.68-6.68s6.68,3,6.68,6.68S27.44,22.95,23.76,22.95z"/>
                <path class="st0" d="M22.67,13.46c-0.33-0.25-0.8-0.17-1.05,0.16c-0.25,0.33-0.17,0.8,0.16,1.05l2.23,1.64l-2.16,1.56
		c-0.33,0.24-0.41,0.71-0.17,1.05c0.15,0.2,0.38,0.31,0.61,0.31c0.15,0,0.31-0.05,0.44-0.14l2.99-2.16c0.19-0.14,0.31-0.36,0.31-0.6
		s-0.11-0.47-0.31-0.61L22.67,13.46z"/>
                <path class="st0" d="M10.31,15.07c-0.66,0-1.2,0.54-1.2,1.2c0,0.66,0.54,1.2,1.2,1.2c0.66,0,1.2-0.54,1.2-1.2
		C11.51,15.61,10.97,15.07,10.31,15.07z"/>
                <path class="st0" d="M5.84,15.07c-0.66,0-1.2,0.54-1.2,1.2c0,0.66,0.54,1.2,1.2,1.2c0.66,0,1.2-0.54,1.2-1.2
		C7.04,15.61,6.51,15.07,5.84,15.07z"/>
                <circle class="st0" cx="1.37" cy="16.27" r="1.2"/>
            </g>
        </symbol>
        <symbol id="icon-mark-complete" viewBox="0 0 32 32">
            <g>
                <path class="st0" d="M25.66,17.93V6.04c0-0.19-0.07-0.37-0.2-0.51l-4.81-5.2c-0.14-0.15-0.34-0.24-0.55-0.24H2.94
		c-0.41,0-0.75,0.34-0.75,0.75v26.57c0,0.41,0.34,0.75,0.75,0.75h12.83c1.29,2.23,3.73,3.75,6.52,3.75c4.14,0,7.51-3.32,7.51-7.39
		C29.81,21.69,28.19,19.18,25.66,17.93z M23.97,6.13H20.3V2.16L23.97,6.13z M3.69,26.66V1.59H18.8v5.29c0,0.41,0.34,0.75,0.75,0.75
		h4.61v9.73c-0.61-0.15-1.23-0.24-1.87-0.24c-4.14,0-7.51,3.32-7.51,7.39c0,0.75,0.12,1.47,0.33,2.15H3.69z M22.3,30.41
		c-3.31,0-6.01-2.64-6.01-5.89c0-3.25,2.7-5.89,6.01-5.89c0.79,0,1.56,0.15,2.29,0.44c2.26,0.91,3.72,3.05,3.72,5.45
		C28.31,27.76,25.61,30.41,22.3,30.41z"/>
                <path class="st0" d="M24.47,21.86l-2.6,3.64l-2.26-1.48c-0.35-0.23-0.81-0.13-1.04,0.22c-0.23,0.35-0.13,0.81,0.22,1.04l2.86,1.88
		c0.13,0.08,0.27,0.12,0.41,0.12c0.23,0,0.46-0.11,0.61-0.31l3.02-4.22c0.24-0.34,0.16-0.81-0.17-1.05
		C25.18,21.45,24.71,21.53,24.47,21.86z"/>
                <path class="st0" d="M8.04,10.83h9.37c0.41,0,0.75-0.34,0.75-0.75s-0.34-0.75-0.75-0.75H8.04c-0.41,0-0.75,0.34-0.75,0.75
		S7.62,10.83,8.04,10.83z"/>
                <path class="st0" d="M13.25,15.71H7.96c-0.41,0-0.75,0.34-0.75,0.75s0.34,0.75,0.75,0.75h5.29c0.41,0,0.75-0.34,0.75-0.75
		S13.66,15.71,13.25,15.71z"/>
                <path class="st0" d="M8.04,14.02h9.37c0.41,0,0.75-0.34,0.75-0.75s-0.34-0.75-0.75-0.75H8.04c-0.41,0-0.75,0.34-0.75,0.75
		S7.62,14.02,8.04,14.02z"/>
            </g>
        </symbol>
    </defs>
</svg>
