<svg width="10" height="10" viewBox="0 0 10 10" fill="none" xmlns="http://www.w3.org/2000/svg">
<path d="M1.83733 1.13013C1.95914 1.01508 2.13509 0.994782 2.28397 1.06922C2.2975 1.07599 2.31104 1.08276 2.32457 1.08952C2.59526 1.24517 2.85918 1.41435 3.12987 1.56323C3.19078 1.59706 3.33966 1.58353 3.40733 1.56323C3.46147 1.54969 3.475 1.54293 3.50207 1.53616C3.85397 1.48202 3.9081 1.2384 3.94871 0.920342C3.98254 0.697024 4.05022 0.480473 4.10435 0.257154C4.14496 0.108276 4.2803 0 4.43595 0C4.80138 0 5.16681 0 5.53224 0C5.71495 0 5.82323 0.0879739 5.86383 0.263922C5.93827 0.588749 6.01948 0.906808 6.09392 1.23163C6.12099 1.33991 6.18189 1.39405 6.27663 1.44819C6.61499 1.65797 6.90598 1.5903 7.20374 1.36021C7.35262 1.2384 7.53534 1.1572 7.70452 1.05569C7.85339 0.967713 7.98874 0.981247 8.11732 1.10306C8.37447 1.36021 8.63163 1.61737 8.88878 1.87452C9.02412 2.00987 9.02413 2.15874 8.92938 2.31439C8.76697 2.58508 8.60456 2.86254 8.43538 3.13322C8.38124 3.2212 8.40154 3.36331 8.43538 3.45128C8.46245 3.52572 8.47598 3.55956 8.50305 3.6137C8.65869 3.92499 8.7805 3.93852 9.07826 3.97913C9.29481 4.01296 9.5046 4.08064 9.72115 4.13477C9.92417 4.18214 10.0189 4.30395 9.9986 4.53404C9.97154 4.85887 9.9783 5.18369 9.9986 5.51529C10.0121 5.73184 9.92417 5.85365 9.72792 5.90102C9.40309 5.97546 9.08503 6.03636 8.7602 6.1108C8.64516 6.13787 8.61132 6.23261 8.55042 6.32735C8.34063 6.65895 8.40831 6.94317 8.63839 7.23416C8.75344 7.37627 8.83464 7.55222 8.92938 7.70787C9.02413 7.86351 8.99706 8.05976 8.86848 8.18834C8.62486 8.42519 8.38801 8.66205 8.15115 8.90567C8.00904 9.05455 7.85339 9.07485 7.67745 8.96657C7.40676 8.80416 7.08193 8.62821 6.79771 8.4861C6.7571 8.4658 6.60823 8.45903 6.52702 8.47256C6.12775 8.547 5.9315 8.77032 5.8909 9.16282C5.8706 9.3523 5.9112 9.56209 5.85706 9.75157C5.80969 9.93429 5.68112 10.0223 5.46456 9.99519C5.13974 9.96135 4.80814 9.97489 4.48332 9.99519C4.27353 10.0087 4.14496 9.92752 4.09759 9.73803C4.02315 9.44704 3.94871 9.16282 3.88103 8.87183C3.85397 8.75002 3.77953 8.64851 3.67125 8.58084C3.33289 8.37106 3.04867 8.43873 2.75768 8.66881C2.6088 8.79062 2.42608 8.87183 2.2569 8.97334C2.10125 9.06131 1.95238 9.04778 1.8238 8.91243C1.58018 8.66205 1.33656 8.41166 1.08617 8.17481C0.944059 8.03946 0.923758 7.89058 1.02527 7.7214C1.19445 7.44395 1.39746 7.08528 1.52604 6.78753C1.55311 6.71985 1.53957 6.62511 1.52604 6.54391C1.4516 6.14464 1.20121 6.0702 0.815482 6.0296C0.626 6.00929 0.436517 5.94162 0.247035 5.88748C0.0507857 5.83335 -0.030421 5.698 0.0101824 5.45438C0.057553 5.16339 0.057553 4.85887 0.0101824 4.56788C-0.030421 4.32426 0.0643202 4.18214 0.267337 4.13477C0.578629 4.05357 0.896689 3.98589 1.20798 3.89115C1.28242 3.87085 1.34333 3.80995 1.3907 3.73551C1.40423 3.71521 1.41777 3.6949 1.4313 3.6746C1.63432 3.38361 1.55311 3.09939 1.35686 2.84223C1.23505 2.67982 1.14708 2.49711 1.04557 2.32792C0.937292 2.15198 0.950827 2.0031 1.09971 1.85422C1.35009 1.61737 1.58695 1.36698 1.83733 1.13013ZM4.97732 3.55279C4.17879 3.55279 3.5156 4.22275 3.52237 5.02128C3.52237 5.81981 4.19233 6.483 4.99086 6.47623C5.78939 6.47623 6.45258 5.80628 6.44581 5.00775C6.44581 4.20921 5.78262 3.54603 4.97732 3.55279Z" fill="white"/>
</svg>
