<svg xmlns="http://www.w3.org/2000/svg" width="16" height="16" fill="#fff"><defs><clipPath id="A"><path d="M0 0h16v16H0z"/></clipPath></defs><g clip-path="url(#A)"><rect width="16" height="16" rx="2" fill="#e54040"/><path d="M8.845 14.507l-1.5-.03c-.175 0-.487-.154-.494-.421l-.019-2.132-1.965.387a.43.43 0 0 1-.552-.4l-.2-1.468c-.052-.378.079-.693.374-.753l2.356-.463.014-2.131-3.242-.389a.46.46 0 0 1-.42-.542l.127-1.471a.55.55 0 0 1 .666-.527l2.87.35-.02-2.689c-.008-.289.136-.446.36-.442l1.92.032c.255 0 .433.2.442.542l-.019 2.885 2.824.345c.3.036.451.332.429.7l-.079 1.437c.004.131-.053.255-.154.338s-.234.115-.362.086L9.479 7.42l-.038 1.306 1.6-.317a.56.56 0 0 1 .712.49l.247 1.5a.47.47 0 0 1-.378.588l-2.249.443-.007 2.487a.5.5 0 0 1-.505.589z" fill="#fff"/></g></svg>