<?xml version="1.0" encoding="utf-8"?>
<!-- Generator: Adobe Illustrator 21.0.2, SVG Export Plug-In . SVG Version: 6.00 Build 0)  -->
<svg version="1.1" id="Layer_1" xmlns="http://www.w3.org/2000/svg" xmlns:xlink="http://www.w3.org/1999/xlink" x="0px" y="0px"
	 viewBox="0 0 164 47" style="enable-background:new 0 0 164 47;" xml:space="preserve">
<style type="text/css">
	.st0{fill:#F0305C;}
	.st1{fill:#FCE05B;}
	.st2{fill:#F7941D;}
	.st3{fill:#685C80;}
	.st4{fill:#E1F7AD;}
	.st5{fill:#5E9FAB;}
	.st6{fill:#FFFFFF;}
</style>
<g>
	<g>
		<polygon class="st0" points="6.6,34.4 28,34.4 10.7,21.8 		"/>
		<polygon class="st1" points="34.7,14 17.4,1.4 13.2,14 		"/>
		<polygon class="st2" points="13.2,14 10.7,21.8 28,34.4 34.7,14 		"/>
		<polygon class="st0" points="0,14 6.6,34.4 10.7,21.8 		"/>
		<polygon class="st3" points="0,14 6.6,34.4 10.7,21.8 		"/>
		<polygon class="st1" points="17.4,1.4 0,14 13.2,14 		"/>
		<polygon class="st4" points="17.4,1.4 0,14 13.2,14 		"/>
		<polygon class="st2" points="13.2,14 0,14 10.7,21.8 		"/>
		<polygon class="st5" points="13.2,14 0,14 10.7,21.8 		"/>
	</g>
	<g>
		<polygon class="st6" points="39.3,15.7 46,15.7 46,33 48,33 48,15.7 54.7,15.7 54.7,14 39.3,14 		"/>
		<polygon class="st6" points="73.2,22.4 61.3,22.4 61.3,14 59.3,14 59.3,33 61.3,33 61.3,24.2 73.2,24.2 73.2,33 75.2,33 75.2,14 
			73.2,14 		"/>
		<polygon class="st6" points="84.8,24.2 94.6,24.2 94.6,22.5 84.8,22.5 84.8,15.7 95.8,15.7 95.8,14 82.7,14 82.7,33 96.2,33 
			96.2,31.3 84.8,31.3 		"/>
		<path class="st6" d="M114.2,28.5c-1,0.5-2.2,0.9-3.7,0.9s-2.7-0.5-3.8-1.6c-1.1-1.1-1.6-2.5-1.6-4.3s0.5-3.2,1.7-4.3
			c1.1-1.1,2.5-1.6,4.1-1.6c0.8,0,1.6,0.1,2.3,0.4c0.7,0.3,1.5,0.8,2.4,1.5l2.2-3.2c-2-1.8-4.4-2.7-7.1-2.7s-5,1-7,2.8
			c-1.9,1.9-2.9,4.2-2.9,7.1s1,5.1,2.8,7c1.9,1.8,4.2,2.8,7,2.8c3.3,0,5.9-1.1,7.8-3.2v-6.8h-4.3L114.2,28.5L114.2,28.5z"/>
		<polygon class="st6" points="127.8,25.3 136.3,25.3 136.3,21.7 127.8,21.7 127.8,17.8 137.3,17.8 137.3,14 123.6,14 123.6,33 
			137.6,33 137.6,29.3 127.8,29.3 		"/>
		<polygon class="st6" points="158.3,14 153.4,24.5 148.4,14 142.7,14 142.7,33 146.9,33 146.9,21 152.1,31.4 154.6,31.4 159.7,21 
			159.7,33 164,33 164,14 		"/>
	</g>
</g>
</svg>
