<svg width="16" height="15" viewBox="0 0 16 15" fill="none" xmlns="http://www.w3.org/2000/svg">
<g clip-path="url(#clip0_1_3208)">
<path d="M15.169 3.89247C15.0829 3.57451 14.9151 3.28463 14.6822 3.05171C14.4493 2.81879 14.1594 2.65094 13.8414 2.56489C12.6774 2.24742 7.99252 2.24742 7.99252 2.24742C7.99252 2.24742 3.3074 2.25703 2.14336 2.5745C1.82539 2.66056 1.53552 2.82841 1.30261 3.06134C1.0697 3.29428 0.901867 3.58416 0.815837 3.90214C0.463741 5.97041 0.327157 9.12199 0.825505 11.1075C0.911544 11.4255 1.07938 11.7154 1.31229 11.9483C1.5452 12.1812 1.83507 12.3491 2.15303 12.4351C3.31707 12.7526 8.00207 12.7526 8.00207 12.7526C8.00207 12.7526 12.687 12.7526 13.851 12.4351C14.169 12.3491 14.4588 12.1812 14.6918 11.9483C14.9247 11.7154 15.0925 11.4255 15.1786 11.1075C15.55 9.03633 15.6644 5.88668 15.169 3.89247Z" fill="#FF0000"/>
<path d="M6.50122 9.75107L10.3877 7.49998L6.50122 5.24888V9.75107Z" fill="white"/>
</g>
<defs>
<clipPath id="clip0_1_3208">
<rect width="15" height="15" fill="white" transform="translate(0.5)"/>
</clipPath>
</defs>
</svg>
