<svg xmlns="http://www.w3.org/2000/svg" viewBox="0 0 28 28">
    <path d="M21 18L21 26 5 26 5 3 21 3 21 6" fill="none" stroke="#71D7F7" stroke-linecap="round" stroke-linejoin="round" stroke-width="1.08px"/>
    <path d="M5 24L3 24 3 2 18 2" fill="none" stroke="#71D7F7" stroke-linecap="round" stroke-linejoin="round" stroke-width="1.08px"/>
    <circle cx="17.3" cy="12.1" r="4.7" fill="none" stroke="#71D7F7" stroke-linecap="round" stroke-linejoin="round" stroke-width="1.08px"/>
    <path fill="none" stroke="#71D7F7" stroke-linecap="round" stroke-linejoin="round" stroke-width="1.8" d="M22 14.6L26.4 17.9"/>
    <path d="M8.4 19.9L16.7 19.9M8.4 17L11.3 17M8.4 22.8L16.7 22.8" fill="none" stroke="#71D7F7" stroke-linecap="round" stroke-linejoin="round" stroke-width="1.08px"/>
    <path fill="#71D7F7" d="M18.74,12.13l-1.07,1.06v-3.1a.32.32,0,0,0-.32-.32.32.32,0,0,0-.32.32v3.1L16,12.13a.31.31,0,0,0-.45,0,.33.33,0,0,0,0,.45l1.61,1.61.1.07h0l.11,0h0l.11,0h0l.1-.07h0l1.61-1.61a.33.33,0,0,0,0-.45A.31.31,0,0,0,18.74,12.13Z"/>
</svg>