<svg style="position: absolute; width: 0; height: 0; overflow: hidden;" version="1.1"
     xmlns="http://www.w3.org/2000/svg" id="td-automator-icons">
    <defs>
        <symbol id="tap-tag-user" viewBox="0 0 30 30">
            <g>
                <path d="M7.875 16.875c1.688 0 2.49.938 5.25.938L13 17.81l-.002 1.877c-2.753-.025-3.9-.867-4.99-.933l-.133-.004c-3.31 0-6 2.69-6 6v2.438c0 .515.422.937.938.937h20.625c.515 0 .937-.422.937-.938V27h1.875v.188c0 1.495-1.168 2.718-2.641 2.807l-.172.005H2.813C1.26 30 0 28.74 0 27.187V24.75c0-4.348 3.527-7.875 7.875-7.875zM13.125 0c4.143 0 7.5 3.357 7.5 7.5s-3.357 7.5-7.5 7.5-7.5-3.357-7.5-7.5S8.982 0 13.125 0zm0 1.875C10.025 1.875 7.5 4.4 7.5 7.5s2.525 5.625 5.625 5.625S18.75 10.6 18.75 7.5s-2.525-5.625-5.625-5.625z"
                      transform="translate(-98.000000, -608.000000) translate(98.000000, 608.000000)"/>
            </g>
            <g>
                <path d="M7.69 0c.48 0 .96.181 1.322.55l5.41 5.41c.736.736.736 1.923.005 2.654l-5.275 5.28c-.702.702-1.655 1.094-2.643 1.094H1.87C.836 14.988 0 14.152 0 13.117V8.48c0-.995.392-1.948 1.094-2.65L6.368.55C6.731.187 7.211 0 7.69 0zm.006 1.871L2.42 7.152c-.35.35-.55.825-.55 1.322v4.637H6.51c.497 0 .97-.193 1.321-.55l5.275-5.28-5.41-5.41z" transform="translate(-98.000000, -608.000000) translate(98.000000, 608.000000) translate(15.000000, 11.000000)"/>
                <path d="M4.678 9.112c-.514 0-.935.42-.935.935 0 .515.42.936.935.936.515 0 .936-.421.936-.936 0-.514-.421-.935-.936-.935z" transform="translate(-98.000000, -608.000000) translate(98.000000, 608.000000) translate(15.000000, 11.000000)"/>
            </g>
        </symbol>

        <symbol id="tap-add-user" viewBox="0 0 31 28">
            <path d="M28.375 5.25h-16.25C10.677 5.25 9.5 6.427 9.5 7.875v.875h1.75v-.875c0-.483.392-.875.875-.875h16.25c.483 0 .875.392.875.875v12.25c0 .483-.392.875-.875.875H22.75v1.75h5.625c1.448 0 2.625-1.177 2.625-2.625V7.875c0-1.448-1.177-2.625-2.625-2.625zM6.25 2.625c0-.483.392-.875.875-.875h16.75c.483 0 .875.392.875.875V3.5h1.75v-.875C26.5 1.177 25.323 0 23.875 0H7.125C5.677 0 4.5 1.177 4.5 2.625V8.75h1.75V2.625zM26.625 14c.483 0 .875-.392.875-.875v-3.5c0-.483-.392-.875-.875-.875h-3.5c-.483 0-.875.392-.875.875v3.5c0 .483.392.875.875.875h3.5zM24 10.5h1.75v1.75H24V10.5zm-5.625 0H2.625C1.177 10.5 0 11.677 0 13.125v12.25C0 26.823 1.177 28 2.625 28h15.75C19.823 28 21 26.823 21 25.375v-12.25c0-1.448-1.177-2.625-2.625-2.625zm.875 14.875c0 .483-.392.875-.875.875H2.625c-.483 0-.875-.392-.875-.875V17.15c.7.525 1.75 1.4 5.25 3.85.7.525 2.1 1.75 3.5 1.75S13.3 21.525 14 21c3.5-2.45 4.55-3.325 5.25-3.85v8.225zm0-10.325c-1.4 1.05-1.225 1.05-6.3 4.725C12.425 19.95 11.375 21 10.5 21c-.875 0-1.925-1.05-2.45-1.4-5.075-3.675-4.9-3.675-6.3-4.725v-1.75c0-.483.392-.875.875-.875h15.75c.483 0 .875.392.875.875v1.925z"
                  transform="translate(-98.000000, -667.000000) translate(98.000000, 667.000000)"/>
        </symbol>
        <symbol id="woo-update-order-status" viewBox="0 0 27 28">

            <path d="M106.24 396.625h1.784c.986 0 1.783-.788 1.783-1.75v-1.75c0-.962-.797-1.75-1.783-1.75h-1.783c-.987 0-1.783.788-1.783 1.75v1.75c0 .962.796 1.75 1.783 1.75zm0-3.5h1.784v1.75h-1.783v-1.75zM125.218 373h-23.434c-.986 0-1.783.788-1.783 1.75v24.5c0 .962.797 1.75 1.783 1.75h23.434c.986 0 1.783-.788 1.783-1.75v-24.5c0-.962-.797-1.75-1.783-1.75zm0 26.25h-23.434v-24.5h23.434v24.5zm-11.144-18.375h7.132c.245 0 .446-.197.446-.438v-.875c0-.24-.2-.437-.446-.437h-7.132c-.245 0-.446.197-.446.438v.875c0 .24.2.437.446.437zm0 7h7.132c.245 0 .446-.197.446-.438v-.875c0-.24-.2-.437-.446-.437h-7.132c-.245 0-.446.197-.446.438v.875c0 .24.2.437.446.437zm0 7h7.132c.245 0 .446-.197.446-.438v-.875c0-.24-.2-.437-.446-.437h-7.132c-.245 0-.446.197-.446.438v.875c0 .24.2.437.446.437zm-7.465-6.212c.117.114.307.114.424 0l3.577-3.479c.117-.114.117-.3 0-.415l-.702-.695c-.117-.115-.307-.115-.424 0l-2.652 2.581-1.148-1.142c-.117-.115-.306-.115-.423 0l-.708.689c-.117.114-.117.3 0 .415l2.056 2.046zm0-6.989c.117.115.307.115.424 0l3.577-3.478c.117-.115.117-.3 0-.415l-.702-.695c-.117-.115-.307-.115-.424 0l-2.652 2.581-1.148-1.143c-.117-.114-.306-.114-.423 0l-.708.69c-.117.114-.117.3 0 .415l2.056 2.045z"
                  transform="translate(-100.000000, -373.000000)"/>

        </symbol>
        <symbol id="tap-woocommerce-logo" viewBox="0 0 23 20">

            <path d="M21.562 2.5H5.05L4.725.765C4.64.32 4.255 0 3.803 0H.47C.209 0 0 .21 0 .469V.78c0 .26.21.469.469.469h3.075l2.731 14.568c-.404.444-.65 1.034-.65 1.682 0 1.38 1.12 2.5 2.5 2.5s2.5-1.12 2.5-2.5c0-.439-.115-.87-.335-1.25h5.67c-.22.38-.335.811-.335 1.25 0 1.38 1.12 2.5 2.5 2.5s2.5-1.12 2.5-2.5c0-.703-.29-1.337-.757-1.792-.102-.4-.463-.708-.91-.708H7.394l-.469-2.5H19.87c.444 0 .827-.312.917-.746l1.693-8.125c.121-.582-.323-1.129-.918-1.129zm-12.187 15c0 .69-.56 1.25-1.25 1.25s-1.25-.56-1.25-1.25.56-1.25 1.25-1.25 1.25.56 1.25 1.25zm8.75 1.25c-.69 0-1.25-.56-1.25-1.25s.56-1.25 1.25-1.25 1.25.56 1.25 1.25-.56 1.25-1.25 1.25zm1.49-7.5H6.691l-1.407-7.5h15.894l-1.563 7.5z"
                  transform="translate(-153.000000, -82.000000) translate(153.000000, 82.000000)"/>

            <path d="M15.884 5.198l-3.648 3.614-1.532-1.532c-.163-.163-.428-.163-.591 0l-.193.192c-.163.164-.163.429 0 .592l2.02 2.02c.164.164.429.164.592 0l4.135-4.101c.164-.164.164-.43 0-.593l-.192-.192c-.163-.164-.428-.164-.591 0z" transform="translate(-153.000000, -82.000000) translate(153.000000, 82.000000)"/>
        </symbol>

        <symbol id="woo-refund-order" viewBox="0 0 27 29">
            <path d="M17.438 0c.876 0 1.656.526 1.988 1.322l.057.152L21.6 7.821c.057.163.092.333.106.508l.007.177v2.58c-.526-.199-1.073-.352-1.638-.455l-.001-.629H1.638v9.552c0 .254.185.467.426.511l.093.009h17.397c.254 0 .467-.185.511-.427l.009-.093v-5.3c.59.175 1.141.44 1.638.78v4.52c0 1.14-.884 2.073-2.004 2.152l-.154.006H2.157c-1.139 0-2.073-.884-2.152-2.004L0 19.554V8.506c0-.171.022-.343.064-.513l.048-.17 2.116-6.349C2.503.645 3.248.071 4.11.006L4.273 0h13.165zm-7.402 1.638H4.273c-.191 0-.364.105-.455.268l-.038.086-2.114 6.343-.008.028h8.378V1.638zm1.639 0v6.725h8.378l-.005-.023-2.116-6.348c-.061-.181-.216-.312-.4-.345l-.094-.009h-5.763z"
                  transform="translate(-100.000000, -233.000000) translate(100.000000, 233.000000)"/>
            <path d="M10.88 11.48h-.332c-.33 0-.598.267-.598.598v5.313c0 .33.268.598.598.598h5.314c.33 0 .598-.267.598-.598v-.332l-.008-.097c-.046-.285-.293-.502-.59-.502h-3.457l.099-.168c1.242-2.015 3.449-3.284 5.881-3.284 3.82 0 6.907 3.096 6.907 6.907 0 3.82-3.096 6.906-6.907 6.906-1.73 0-3.36-.637-4.618-1.77-.236-.213-.598-.203-.823.022l-.234.235c-.243.242-.232.638.023.868 1.54 1.39 3.535 2.174 5.652 2.174 4.654 0 8.428-3.769 8.436-8.422.007-4.64-3.77-8.434-8.409-8.449l-.293.005c-2.629.082-5.023 1.376-6.54 3.447l-.1.141v-2.994c0-.33-.268-.599-.598-.599z"
                  transform="translate(-100.000000, -233.000000) translate(100.000000, 233.000000)"/>

        </symbol>
        <symbol id="woo-add-product-to-order" viewBox="0 0 32 28">
            <path d="M30.187 3.5H7.07l-.455-2.43C6.498.45 5.956 0 5.325 0H.655C.294 0 0 .294 0 .656v.438c0 .362.294.656.656.656h4.305l3.824 20.395c-.565.622-.91 1.448-.91 2.355 0 1.933 1.567 3.5 3.5 3.5s3.5-1.567 3.5-3.5c0-.615-.161-1.218-.47-1.75h7.94c-.309.532-.47 1.135-.47 1.75 0 1.933 1.567 3.5 3.5 3.5s3.5-1.567 3.5-3.5c0-.984-.407-1.872-1.06-2.508-.142-.56-.648-.992-1.274-.992h-16.19l-.656-3.5h18.122c.622 0 1.159-.436 1.285-1.045l2.37-11.375c.17-.815-.452-1.58-1.285-1.58zm-17.062 21c0 .965-.785 1.75-1.75 1.75s-1.75-.785-1.75-1.75.785-1.75 1.75-1.75 1.75.785 1.75 1.75zm12.25 1.75c-.965 0-1.75-.785-1.75-1.75s.785-1.75 1.75-1.75 1.75.785 1.75 1.75-.785 1.75-1.75 1.75zm2.087-10.5H9.367L7.398 5.25H29.65l-2.187 10.5zm-5.832-4.13l-2.79 2.79c-.257.257-.673.257-.929 0l-2.79-2.79c-.414-.413-.121-1.12.463-1.12H17.5V7.656c0-.362.294-.656.656-.656h.438c.362 0 .656.294.656.656V10.5h1.916c.584 0 .877.707.464 1.12z"/>
        </symbol>
        <symbol id="woo-purchase-product" viewBox="0 0 32 28">
            <path d="M30.187 3.5H7.07l-.455-2.43C6.498.45 5.956 0 5.325 0H.655C.294 0 0 .294 0 .656v.438c0 .362.294.656.656.656h4.305l3.824 20.395c-.565.622-.91 1.448-.91 2.355 0 1.933 1.567 3.5 3.5 3.5s3.5-1.567 3.5-3.5c0-.615-.161-1.218-.47-1.75h7.94c-.309.532-.47 1.135-.47 1.75 0 1.933 1.567 3.5 3.5 3.5s3.5-1.567 3.5-3.5c0-.984-.407-1.872-1.06-2.508-.142-.56-.648-.992-1.274-.992h-16.19l-.656-3.5h18.122c.622 0 1.159-.436 1.285-1.045l2.37-11.375c.17-.815-.452-1.58-1.285-1.58zm-17.062 21c0 .965-.785 1.75-1.75 1.75s-1.75-.785-1.75-1.75.785-1.75 1.75-1.75 1.75.785 1.75 1.75zm12.25 1.75c-.965 0-1.75-.785-1.75-1.75s.785-1.75 1.75-1.75 1.75.785 1.75 1.75-.785 1.75-1.75 1.75zm2.087-10.5H9.367L7.398 5.25H29.65l-2.187 10.5zm-5.832-4.13l-2.79 2.79c-.257.257-.673.257-.929 0l-2.79-2.79c-.414-.413-.121-1.12.463-1.12H17.5V7.656c0-.362.294-.656.656-.656h.438c.362 0 .656.294.656.656V10.5h1.916c.584 0 .877.707.464 1.12z"
                  transform="translate(-97.000000, -548.000000) translate(73.000000, 503.000000) translate(0.000000, 18.000000) translate(24.000000, 27.000000)"/>
        </symbol>
        <symbol id="tap-slack-logo" viewBox="0 0 30 30">
            <defs>
                <clipPath id="z0jgkf3k4a">
                    <path d="M1250 0v745H0V0h1250z"/>
                </clipPath>
                <clipPath id="tmr3f6yedb">
                    <path d="M11.026 0c1.742 0 3.15 1.41 3.15 3.153v7.882a3.149 3.149 0 0 1-3.15 3.153 3.149 3.149 0 0 1-3.15-3.153V3.153A3.149 3.149 0 0 1 11.026 0zM6.301 0v3.153a3.149 3.149 0 0 1-3.15 3.153A3.149 3.149 0 0 1 0 3.153 3.149 3.149 0 0 1 3.15 0H6.3z"/>
                </clipPath>
                <clipPath id="yvh6jftpgc">
                    <path d="M11.05 7.906c1.742 0 3.15 1.41 3.15 3.153a3.149 3.149 0 0 1-3.15 3.153h-7.9A3.149 3.149 0 0 1 0 11.059a3.149 3.149 0 0 1 3.15-3.153h7.9zm0-7.906c1.742 0 3.15 1.41 3.15 3.153v3.153h-3.15A3.149 3.149 0 0 1 7.9 3.153 3.149 3.149 0 0 1 11.05 0z"/>
                </clipPath>
                <clipPath id="zwzqz3ps3d">
                    <path d="M11.026 7.906c1.742 0 3.15 1.41 3.15 3.153a3.149 3.149 0 0 1-3.15 3.153h-3.15v-3.153a3.149 3.149 0 0 1 3.15-3.153zM3.15 0C4.893 0 6.3 1.41 6.3 3.153v7.906a3.149 3.149 0 0 1-3.15 3.153A3.149 3.149 0 0 1 0 11.059V3.153A3.149 3.149 0 0 1 3.15 0z"/>
                </clipPath>
                <clipPath id="9j38rhdnxe">
                    <path d="M3.15 7.882c1.743 0 3.15 1.41 3.15 3.153a3.149 3.149 0 0 1-3.15 3.153A3.149 3.149 0 0 1 0 11.035V7.882h3.15zM11.05 0c1.742 0 3.15 1.41 3.15 3.153a3.149 3.149 0 0 1-3.15 3.153h-7.9A3.149 3.149 0 0 1 0 3.153 3.149 3.149 0 0 1 3.15 0h7.9z"/>
                </clipPath>
            </defs>
            <g clip-path="url(#z0jgkf3k4a)" transform="translate(-418 -400)">
                <g clip-path="url(#tmr3f6yedb)" transform="translate(418.024 415.812)">
                    <path fill="#E01D59" d="M0 0h14.177v14.188H0V0z"/>
                </g>
                <g clip-path="url(#yvh6jftpgc)" transform="translate(418 400)">
                    <path fill="#35C5F0" d="M0 0h14.2v14.212H0V0z"/>
                </g>
                <g clip-path="url(#zwzqz3ps3d)" transform="translate(433.8 400)">
                    <path fill="#2EB67C" d="M0 0h14.177v14.212H0V0z"/>
                </g>
                <g clip-path="url(#9j38rhdnxe)" transform="translate(433.8 415.812)">
                    <path fill="#ECB22E" d="M0 0h14.2v14.188H0V0z"/>
                </g>
            </g>
        </symbol>
        <symbol id="tap-facebook-logo" viewBox="0 0 36 36">
            <path fill-rule="evenodd" clip-rule="evenodd" d="M34 0H2C.8 0 0 .8 0 2v32c0 1 .8 2 2 2h17.2V22h-4.6v-5.4h4.6v-4c0-4.6 2.8-7.2 7-7.2 2 0 3.6.2 4.2.2v4.8h-2.8c-2.2 0-2.6 1-2.6 2.6v3.4h5.4l-.8 5.6H25v14h9c1 0 2-.8 2-2V2c0-1.2-.8-2-2-2z" fill="#3B5997"/>
        </symbol>
        <symbol id="tap-elementor-logo" viewBox="0 0 30 30">
            <defs>
                <clipPath id="5ozthgd0ta">
                    <path d="M1250 0v745H0V0h1250z"/>
                </clipPath>
                <clipPath id="qwi1ccl77b">
                    <path d="M15 0c8.282 0 14.997 6.715 15 15 0 8.285-6.715 15-15 15S0 23.282 0 15C0 6.715 6.715 0 15 0zm-3.75 8.75H8.753v12.498h2.499V8.749zm9.998 10h-7.499v2.498h7.499v-2.499zm0-5h-7.499v2.498h7.499v-2.499zm0-5h-7.499v2.498h7.499V8.749z"/>
                </clipPath>
            </defs>
            <g clip-path="url(#5ozthgd0ta)" transform="translate(-418 -185)">
                <g clip-path="url(#qwi1ccl77b)" transform="translate(418 185)">
                    <path fill="#92003B" d="M0 0h30v30H0V0z"/>
                </g>
            </g>
        </symbol>
    </defs>
</svg>
