<svg width="25" height="25" viewBox="0 0 25 25" fill="none" xmlns="http://www.w3.org/2000/svg">
<g clip-path="url(#clip0_16_91)">
<path d="M5.99996 12.2622C5.99996 15.7206 8.79402 18.5245 12.2524 18.5342C15.7206 18.544 18.5537 15.7109 18.5439 12.2427C18.5342 8.78432 15.7206 5.99026 12.2622 6.00003C8.79402 6.00979 5.99996 8.80386 5.99996 12.2622Z" fill="white"/>
<path d="M11.6257 2.15904C11.6257 2.53028 11.6159 2.90152 11.6257 3.28253C11.6354 3.86869 11.9969 4.26924 12.4854 4.27901C12.9738 4.28878 13.3549 3.88823 13.3646 3.31184C13.3744 2.53028 13.3744 1.7585 13.3646 0.97694C13.3549 0.400543 12.9836 0.00976562 12.4854 0.00976562C11.9871 0.0195351 11.6452 0.410313 11.6257 0.996479C11.6159 1.37749 11.6257 1.76827 11.6257 2.15904Z" fill="white"/>
<path d="M22.8897 13.3743C23.2805 13.3743 23.6713 13.3841 24.0621 13.3743C24.6189 13.3548 24.9999 13.0031 25.0097 12.5244C25.0195 12.0262 24.6287 11.6451 24.0523 11.6354C23.2707 11.6256 22.499 11.6256 21.7174 11.6354C21.141 11.6451 20.7405 12.0164 20.7405 12.5049C20.7405 12.9933 21.1508 13.3548 21.7272 13.3646C22.1082 13.3841 22.499 13.3743 22.8897 13.3743Z" fill="white"/>
<path d="M2.14927 13.3743C2.52051 13.3743 2.89175 13.3841 3.27276 13.3743C3.84915 13.3646 4.25947 13.0031 4.26924 12.5146C4.27901 12.0262 3.86869 11.6451 3.30206 11.6354C2.52051 11.6256 1.74872 11.6256 0.967167 11.6354C0.39077 11.6451 -8.2262e-06 12.0164 0.00976122 12.5146C0.0195307 13.0129 0.410309 13.3548 0.996475 13.3743C1.01601 13.3743 1.02578 13.3743 1.04532 13.3743C1.40679 13.3743 1.77803 13.3743 2.14927 13.3743Z" fill="white"/>
<path d="M11.6256 22.8898C11.6256 23.2806 11.6158 23.6714 11.6256 24.0621C11.6452 24.619 11.9871 25 12.4658 25.0098C12.964 25.0293 13.345 24.6288 13.3548 24.0621C13.3646 23.2708 13.3743 22.4697 13.3548 21.6784C13.345 21.1313 12.964 20.7503 12.4853 20.7503C12.0164 20.7503 11.6452 21.1411 11.6158 21.6882C11.6158 21.7175 11.6158 21.7566 11.6158 21.7859C11.6256 22.1376 11.6256 22.5088 11.6256 22.8898Z" fill="white"/>
<path d="M3.35098 20.8382C3.51706 21.0336 3.6636 21.3462 3.89806 21.4635C4.12276 21.5709 4.53308 21.5612 4.69916 21.4146C5.4221 20.7698 6.11573 20.0762 6.77028 19.363C7.05359 19.0504 6.97544 18.6596 6.68236 18.347C6.38927 18.0442 5.98872 17.9269 5.6761 18.2103C4.93363 18.8843 4.24 19.6171 3.5366 20.34C3.44867 20.4279 3.4389 20.6038 3.35098 20.8382Z" fill="white"/>
<path d="M20.8284 3.31183C20.5353 3.48768 20.3009 3.5756 20.1348 3.73191C19.5486 4.28877 18.9722 4.86517 18.4154 5.45134C18.0344 5.84211 18.0246 6.32082 18.3568 6.66275C18.6889 7.01445 19.1872 7.02422 19.5682 6.65298C20.1739 6.06681 20.7991 5.49041 21.3462 4.8554C21.5318 4.64047 21.6002 4.21062 21.5123 3.93707C21.4244 3.69284 21.0727 3.52676 20.8284 3.31183Z" fill="white"/>
<path d="M3.28255 4.21061C3.4584 4.51346 3.54633 4.74793 3.70264 4.91401C4.24973 5.4904 4.81636 6.04726 5.38298 6.60412C5.80307 7.01444 6.29154 7.03398 6.63347 6.68228C6.98517 6.33058 6.9754 5.8421 6.57486 5.43179C5.99846 4.83585 5.41229 4.25945 4.81636 3.67329C4.55258 3.40951 4.21065 3.29228 3.88826 3.50721C3.65379 3.68306 3.49748 3.9566 3.28255 4.21061Z" fill="white"/>
<path d="M18.0051 18.8648C18.1711 19.1481 18.2395 19.3728 18.3861 19.5291C18.9527 20.125 19.5389 20.7112 20.1348 21.2876C20.5256 21.6686 20.9945 21.6784 21.3462 21.3364C21.6784 21.014 21.6881 20.4865 21.3267 20.1153C20.7503 19.5193 20.1641 18.9332 19.5682 18.3568C19.2946 18.093 18.9429 17.9269 18.601 18.1614C18.3665 18.3372 18.2102 18.6205 18.0051 18.8648Z" fill="white"/>
</g>
<defs>
<clipPath id="clip0_16_91">
<rect width="25" height="25" fill="white" transform="matrix(-1 0 0 1 25 0)"/>
</clipPath>
</defs>
</svg>
