<svg xmlns="http://www.w3.org/2000/svg" xmlns:xlink="http://www.w3.org/1999/xlink" width="121" height="110" viewBox="0 0 121 110">
    <defs>
        <circle id="wnr1rgivza" cx="54" cy="54.077" r="54"/>
    </defs>
    <g fill="none" fill-rule="evenodd">
        <g>
            <g>
                <g>
                    <g transform="translate(-625 -280) translate(278 153) translate(347 127)">
                        <mask id="qwxlx2zogb" fill="#fff">
                            <use xlink:href="#wnr1rgivza"/>
                        </mask>
                        <use fill="#EAEFEF" xlink:href="#wnr1rgivza"/>
                        <g stroke="#247BA0" stroke-width="2" mask="url(#qwxlx2zogb)">
                            <g transform="translate(9.342 -16)">
                                <circle cx="15.701" cy="92.214" r="2.821" fill="#A8E095" stroke-linecap="round"/>
                                <path fill="#D6ECF6" stroke-linejoin="round" d="M26.043 70.245c18.91 7.384 28.94 11.076 30.085 11.076 1.146 0 11.175-3.692 30.086-11.076v11.808c-4.731.494-10.456 2.445-17.173 5.853-10.076 5.112-11.484 9.603-12.913 9.603-10.028 0-20.057-2.84-30.085-8.52V70.245z"/>
                                <path fill="#D6ECF6" stroke-linejoin="round" d="M41.022 41.307L94.212 17 70.057 69.666 16.868 93.973z" transform="rotate(45 55.54 55.486)"/>
                                <path fill="#A8E095" stroke-linecap="round" d="M15.7 95.63c2.597 0 4.702 2.104 4.702 4.7v6.581h0H11v-6.581c0-2.596 2.105-4.7 4.7-4.7z"/>
                                <path stroke-linecap="round" d="M32.444 62.723L52.368 55.228 15.701 41.099" transform="matrix(-1 0 0 1 68.068 0)"/>
                                <path stroke-linecap="round" d="M15.701 61.188L15.701 89.393"/>
                            </g>
                        </g>
                    </g>
                    <path fill="#81C9A6" stroke="#368A79" stroke-linejoin="round" stroke-width="2" d="M102.274 93.69c-.095.137-1.617 1.896-2.326 2.61-.476.48-1.066.942-1.61 1.354-.47.335-.92.705-1.442 1.013l-.767.461c-.166.108-.217.17-.384.258-.123.062-.248.14-.37.203-.15.076-.287.123-.442.202-3.044 1.714-7.059 2.832-10.536 3.296l-2.141.294c-.623.103-2.325.196-3.888.225-1.304.024-2.507 0-2.895-.079-.201-.04 1.908-6.336 6.783-12.5 3.25-4.11 6.461-6.955 9.635-8.538-3.608.938-5.55 1.465-8.823 3.633l-3.978 3.13c-.096.08-.193.152-.288.233l-2.251 2.14c-.668.772-1.458 1.516-2.084 2.333-.109.151-.108.182-.245.334-.584.67-1.096 1.42-1.6 2.162-.742 1.117-1.43 2.277-2.063 3.464l-1.046 2.213c-.415.933-2.119 5.404-2.197 6.641l-.126.002c-.003-.161-2.222-2.478.84-13.035 3.063-10.556 12.624-17.219 23.465-21.153 5.053-1.833 14.554-2.973 28.505-3.418-3.154 1.693-6.194 4.352-9.122 7.977-4.39 5.437-6.167 11.01-8.604 14.545z" transform="translate(-625 -280) translate(278 153) translate(347 127)"/>
                </g>
            </g>
        </g>
    </g>
</svg>
