<svg width="267" height="139" viewBox="0 0 267 139" fill="none" xmlns="http://www.w3.org/2000/svg">
<path d="M49.4957 101.875L48.9294 101.658C30.2086 94.5004 -4.77209 78.1755 4.88074 48.2491C18.0893 7.29885 58.497 40.6154 124.166 20.188C225.124 -11.2165 266.419 16.3137 260.362 73.0267C254.449 128.397 201.448 121.133 168.844 121.133C99.8569 121.133 74.6066 111.477 49.4957 101.875Z" fill="#F5E9F6" fill-opacity="0.4"/>
<path d="M52.4356 34.4839H31.1077C30.0031 34.4839 29.1077 35.3793 29.1077 36.4839V62.2167C29.1077 63.3212 30.0031 64.2167 31.1077 64.2167H52.4356C53.5402 64.2167 54.4356 63.3212 54.4356 62.2167V36.4839C54.4356 35.3793 53.5402 34.4839 52.4356 34.4839Z" fill="#D7D7D9"/>
<path d="M109.699 63.1155H88.3707C87.2662 63.1155 86.3707 64.0109 86.3707 65.1155V90.8483C86.3707 91.9528 87.2662 92.8483 88.3707 92.8483H109.699C110.803 92.8483 111.699 91.9528 111.699 90.8483V65.1155C111.699 64.0109 110.803 63.1155 109.699 63.1155Z" fill="#D7D7D9"/>
<path d="M160.355 39.9902H139.027C137.922 39.9902 137.027 40.8857 137.027 41.9902V67.723C137.027 68.8276 137.922 69.723 139.027 69.723H160.355C161.459 69.723 162.355 68.8276 162.355 67.723V41.9902C162.355 40.8857 161.459 39.9902 160.355 39.9902Z" fill="#D7D7D9"/>
<path d="M84.7742 45.3239L99.2012 59.7509C99.5917 60.1414 100.225 60.1414 100.615 59.7509L115.042 45.3239C115.672 44.6939 115.226 43.6168 114.335 43.6168L85.4813 43.6168C84.5904 43.6168 84.1442 44.6939 84.7742 45.3239Z" fill="#B398CC"/>
<path d="M97.2062 53.1541H102.664V68.6175L97.2062 72.256V53.1541Z" fill="#B398CC"/>
<path d="M30.9972 28.8272L40.813 10.495C41.3341 9.52177 42.8159 9.98657 42.6878 11.0831L41.684 19.6761C41.6145 20.2703 42.0789 20.7921 42.6772 20.7921H51.6314C52.3947 20.7921 52.8765 21.6128 52.5046 22.2794L41.1733 42.5869C40.6499 43.525 39.2172 43.0904 39.3032 42.0196L40.1578 31.3793C40.2046 30.7973 39.7449 30.2993 39.161 30.2993H31.8788C31.1231 30.2993 30.6405 29.4934 30.9972 28.8272Z" fill="#B398CC"/>
<path d="M148.726 45.6475V39.2157C148.726 38.9345 148.845 38.6663 149.052 38.4768L166.166 22.8734C166.873 22.2287 167.995 22.8498 167.823 23.7913L163.986 44.8979C163.863 45.5739 163.111 45.9274 162.512 45.5906L155.254 41.5079C154.82 41.2642 154.274 41.3757 153.971 41.7697L150.519 46.2572C149.937 47.014 148.726 46.6023 148.726 45.6475Z" fill="#B398CC"/>
<path d="M162.117 20.6029L137.358 30.5063C136.584 30.8161 136.507 31.8822 137.229 32.3002L145.782 37.2518C146.16 37.4708 146.636 37.4188 146.958 37.1236L163.164 22.2686C163.983 21.5173 163.149 20.19 162.117 20.6029Z" fill="#B398CC"/>
<line x1="40.0188" y1="50.0022" x2="57.8407" y2="50.0022" stroke="#40464D" stroke-width="2" stroke-linecap="round"/>
<line x1="97.2817" y1="78.6338" x2="115.104" y2="78.6338" stroke="#40464D" stroke-width="2" stroke-linecap="round"/>
<line x1="147.938" y1="55.5085" x2="165.759" y2="55.5085" stroke="#40464D" stroke-width="2" stroke-linecap="round"/>
<line x1="40.0188" y1="56.6094" x2="57.8407" y2="56.6094" stroke="#40464D" stroke-width="2" stroke-linecap="round"/>
<line x1="97.2817" y1="85.241" x2="115.104" y2="85.241" stroke="#40464D" stroke-width="2" stroke-linecap="round"/>
<line x1="147.938" y1="62.1157" x2="165.759" y2="62.1157" stroke="#40464D" stroke-width="2" stroke-linecap="round"/>
<path d="M225.418 12.3072C221.812 6.21394 214.677 5.92997 214.677 5.92997C214.677 5.92997 207.725 5.04094 203.265 14.321C199.109 22.9708 193.372 31.3223 202.342 33.3471L203.962 28.3041L204.966 33.7226C206.243 33.8144 207.524 33.8363 208.804 33.7882C218.41 33.478 227.558 33.8789 227.264 30.4318C226.872 25.8493 228.888 18.1701 225.418 12.3072Z" fill="#2A2839"/>
<path d="M226.85 117.129C226.85 117.129 229.749 116.734 232.218 115.424L239.99 111.019C241.587 109.844 244.808 107.715 246.047 106.063C247.286 104.411 239.99 101.712 241.338 88.7469C241.001 75.5716 232.218 70.1665 232.218 70.1665L204.853 84.017C204.853 84.017 198.507 113.249 194.915 120.983L211.984 120.433L221.745 97.8675C221.745 97.8675 222.445 106.063 226.85 117.129Z" fill="#2A2839"/>
<path d="M212.454 28.7837C217.305 28.7837 221.238 24.8513 221.238 20.0004C221.238 15.1495 217.305 11.217 212.454 11.217C207.604 11.217 203.671 15.1495 203.671 20.0004C203.671 24.8513 207.604 28.7837 212.454 28.7837Z" fill="#FFC1B8"/>
<path d="M212.286 27.2635C212.286 27.2635 214.313 33.6821 212.286 36.0469C210.259 38.4116 223.434 32.6686 223.434 32.6686C223.434 32.6686 218.704 25.9122 220.055 22.8718L212.286 27.2635Z" fill="#FFC1B8"/>
<path d="M226.775 29.7973C226.528 30.1975 224.249 29.4425 223.941 29.7973C223.603 30.1351 221.576 30.4729 221.238 31.1486C220.9 31.8242 215.919 32.7873 215.919 32.7873L214.144 33.5133C214.144 33.5133 205.698 35.5403 205.698 37.2294C205.698 38.9185 205.023 43.9858 205.023 43.9858C205.023 43.9858 202.32 47.0262 204.009 54.4582C204.66 57.3219 205.567 62.8771 205.058 68.7648C204.247 78.1575 201.855 88.293 204.347 88.916C208.401 89.9295 217.415 88.916 223.603 85.2C227.369 82.9379 235.386 78.8709 239.44 78.5331C243.493 78.1952 231.035 61.2147 231.035 61.2147L234.484 33.5133C234.484 33.5133 231.035 29.7974 226.775 29.7973Z" fill="#B398CC"/>
<path d="M184.27 50.3039L169.657 52.6877C169.657 52.6877 160.053 56.3395 164.627 58.522C169.2 60.7046 173.794 55.7849 173.794 55.7849L190.728 56.3805L184.27 50.3039Z" fill="#FFC1B8"/>
<path d="M221.459 11.7196L214.41 8.02759L209.988 8.71378C208.422 8.95686 206.964 9.66529 205.805 10.7471C204.647 11.8289 203.84 13.2341 203.49 14.7802L202.663 18.4325L207.676 18.2396L209.076 14.9719V18.1858L211.39 18.0968L212.732 12.8944L213.571 18.4325L221.794 18.2646L221.459 11.7196Z" fill="#2A2839"/>
<path d="M208.272 35.1563L210.999 41.2731C210.999 41.2731 195.808 60.9672 194.343 62.6834C189.231 68.6757 185.271 69.4155 184.826 65.372C184.382 61.3285 183.175 49.955 183.175 49.955L193.569 46.1449L200.421 37.2911L208.272 35.1563Z" fill="#B398CC"/>
<path d="M221.238 21.3517C221.984 21.3517 222.589 20.7467 222.589 20.0005C222.589 19.2542 221.984 18.6492 221.238 18.6492C220.492 18.6492 219.887 19.2542 219.887 20.0005C219.887 20.7467 220.492 21.3517 221.238 21.3517Z" fill="#FFC1B8"/>
<path d="M231.169 56.2959L216.9 60.2467C216.9 60.2467 207.748 64.9159 212.53 66.591C217.312 68.266 221.347 62.8782 221.347 62.8782L238.247 61.6382L231.169 56.2959Z" fill="#FFC1B8"/>
<path d="M229.928 30.1035C240.739 31.2047 244.117 61.9398 240.739 63.6289C237.36 65.318 229.928 66.3315 229.928 66.3315C229.928 66.3315 219.118 29.0022 229.928 30.1035Z" fill="#B398CC"/>
</svg>
