<svg width="42" height="42" viewBox="0 0 42 42" fill="none" xmlns="http://www.w3.org/2000/svg">
<circle cx="21" cy="21" r="21" fill="url(#paint0_linear_3323_8756)"/>
<path d="M30.9994 23.2006C30.9994 25.3968 30.9994 27.593 30.9994 29.7893C30.9994 30.3222 30.7661 30.574 30.2662 30.574C29.6273 30.574 28.9885 30.574 28.3497 30.574C27.8886 30.574 27.6442 30.3164 27.6387 29.8303C27.6387 25.4085 27.6387 20.9868 27.6387 16.5651C27.6387 16.0673 27.8886 15.8096 28.3608 15.8096C28.9996 15.8096 29.6385 15.8096 30.2773 15.8096C30.7439 15.8096 30.9939 16.0731 30.9939 16.5709C30.9994 18.7789 30.9994 20.9868 30.9994 23.2006Z" fill="white"/>
<path d="M23.7896 17.9119C23.0897 17.9119 22.5064 17.379 22.4176 16.6469C22.4064 16.5298 22.362 16.4888 22.262 16.4536C21.3232 16.1081 20.3844 15.7567 19.4401 15.417C19.3734 15.3936 19.2679 15.417 19.2123 15.4639C18.768 15.868 18.2791 15.9851 17.7236 15.7567C17.6236 15.7157 17.5681 15.7333 17.4903 15.8036C16.2571 16.9456 15.0128 18.0876 13.7796 19.2355C13.7296 19.2824 13.7129 19.3995 13.7241 19.4756C13.8296 20.0847 13.6796 20.6001 13.213 20.9749C12.7519 21.3439 12.2409 21.3907 11.7298 21.0979C11.2188 20.8109 10.9744 20.3366 11.0021 19.7216C11.041 18.7553 11.9909 18.1052 12.863 18.4507C12.9908 18.5034 13.0686 18.4859 13.1686 18.3922C14.3795 17.2677 15.5905 16.1549 16.8015 15.0363C16.8904 14.9543 16.9404 14.8841 16.907 14.7435C16.7182 13.9236 17.207 13.1212 17.968 12.969C18.7624 12.8284 19.5012 13.3614 19.6123 14.193C19.6345 14.3335 19.6845 14.3863 19.8012 14.4273C20.7177 14.7611 21.6288 15.0949 22.5453 15.4404C22.6675 15.4873 22.7453 15.4873 22.8564 15.3819C23.2786 14.9778 23.773 14.8958 24.3062 15.1008C24.4118 15.1418 24.4729 15.1418 24.5618 15.0598C25.6728 14.0524 26.7893 13.051 27.9059 12.0553C27.9892 11.9792 28.0058 11.9148 27.9836 11.7918C27.8003 10.9426 28.3169 10.1578 29.1502 10.0172C29.9001 9.88839 30.6278 10.4975 30.7111 11.3233C30.7944 12.149 30.1723 12.8987 29.3668 12.9162C29.1724 12.9221 28.978 12.8343 28.778 12.805C28.7169 12.7933 28.628 12.7991 28.5836 12.8343C27.4559 13.8416 26.3338 14.8548 25.2117 15.8738C25.1561 15.9207 25.1284 16.0495 25.145 16.1315C25.3172 17.0627 24.6784 17.9061 23.7896 17.9119Z" fill="white"/>
<path d="M19.9236 25.0392C19.9236 26.7084 19.9236 28.3775 19.9236 30.0408C19.9236 30.6089 19.6958 30.849 19.1459 30.849C18.5293 30.849 17.9127 30.849 17.2905 30.849C16.8128 30.849 16.5684 30.5913 16.5684 30.0935C16.5684 26.7259 16.5684 23.3643 16.5684 19.9967C16.5684 19.5048 16.8072 19.2529 17.2683 19.2529C17.9182 19.2529 18.5737 19.2529 19.2236 19.2529C19.6736 19.2529 19.9124 19.5106 19.9124 19.9909C19.9236 21.6776 19.9236 23.3584 19.9236 25.0392Z" fill="white"/>
<path d="M25.4597 25.9531C25.4597 27.2825 25.4597 28.6178 25.4597 29.9473C25.4597 30.4509 25.2208 30.7028 24.7431 30.7086C24.0987 30.7145 23.4543 30.7145 22.8044 30.7086C22.3545 30.7086 22.1045 30.4451 22.1045 29.9765C22.1045 27.2884 22.1045 24.606 22.1045 21.9179C22.1045 21.4435 22.3489 21.1858 22.7989 21.1858C23.4488 21.1858 24.1043 21.1858 24.7542 21.1858C25.2153 21.1858 25.4486 21.4435 25.4541 21.9354C25.4597 23.2766 25.4597 24.6178 25.4597 25.9531Z" fill="white"/>
<path d="M11.0407 27.9677C11.0407 27.2005 11.0407 26.4332 11.0407 25.666C11.0407 25.1917 11.2851 24.934 11.7295 24.934C12.3906 24.934 13.046 24.934 13.7071 24.934C14.1348 24.934 14.3848 25.1917 14.3848 25.6368C14.3903 27.1887 14.3903 28.7407 14.3848 30.2869C14.3848 30.7261 14.1237 30.9897 13.7015 30.9955C13.0405 31.0014 12.385 31.0014 11.724 30.9955C11.2851 30.9955 11.0352 30.7261 11.0352 30.2517C11.0352 29.4845 11.0407 28.729 11.0407 27.9677Z" fill="white"/>
<defs>
<linearGradient id="paint0_linear_3323_8756" x1="21" y1="0" x2="21" y2="42" gradientUnits="userSpaceOnUse">
<stop stop-color="#8F87F3"/>
<stop offset="1" stop-color="#7469FA"/>
</linearGradient>
</defs>
</svg>
