<svg width="72" height="72" viewBox="0 0 72 72" fill="none" xmlns="http://www.w3.org/2000/svg">
<ellipse cx="36" cy="35.9471" rx="36" ry="35.9471" fill="#685DDD"/>
<g clip-path="url(#clip0_3323_8774)">
<path d="M34.4453 39.7241C34.4453 39.8177 34.411 39.7943 34.3652 39.7475C34.3995 39.7358 34.4224 39.7241 34.4453 39.7241Z" fill="url(#paint0_linear_3323_8774)"/>
<path d="M38.1741 39.7358C38.1626 39.7475 38.1398 39.7709 38.1283 39.7826C38.1169 39.7592 38.1169 39.7475 38.1055 39.7241C38.1283 39.7241 38.1512 39.7358 38.1741 39.7358Z" fill="url(#paint1_linear_3323_8774)"/>
</g>
<path d="M39.3909 50C39.1704 50 39.0549 50 38.9394 50C33.2483 50 27.5573 50 21.8558 49.9891C21.6143 49.9891 21.3413 49.9133 21.1313 49.7724C21.0263 49.7074 20.9842 49.4256 21.0053 49.263C21.6563 43.9198 24.4283 40.1156 29.0693 37.7854C32.1983 36.203 35.5163 35.9212 38.9184 36.7124C38.9604 36.7232 39.0129 36.7449 39.1074 36.7774C36.9548 38.479 35.7893 40.6575 35.8418 43.4429C35.8943 46.1958 37.1228 48.3309 39.3909 50Z" fill="white"/>
<path d="M35.4753 20C39.5073 20 42.7938 23.3923 42.7728 27.5434C42.7623 31.7052 39.4653 35.0867 35.4543 35.065C31.4433 35.0542 28.1778 31.6727 28.1778 27.5325C28.1673 23.3815 31.4433 20 35.4753 20Z" fill="white"/>
<g clip-path="url(#clip1_3323_8774)">
<path d="M45 50C48.866 50 52 46.866 52 43C52 39.134 48.866 36 45 36C41.134 36 38 39.134 38 43C38 46.866 41.134 50 45 50Z" fill="white"/>
<path d="M48.334 40.2821C48.334 40.2301 48.3312 40.1751 48.3138 40.1259C48.2182 39.8192 47.8765 39.7006 47.6014 39.8915C47.2047 40.1635 46.8167 40.45 46.42 40.7219C46.3591 40.7653 46.2723 40.7943 46.197 40.7943C45.7887 40.7972 45.3833 40.7972 44.975 40.7972C44.5725 40.7972 44.1671 40.7972 43.7645 40.7914C43.6806 40.7914 43.585 40.7567 43.5184 40.7075C43.1362 40.4384 42.7568 40.1635 42.3804 39.8858C42.2182 39.7671 42.0474 39.7353 41.8649 39.825C41.6825 39.9147 41.6101 40.0738 41.6101 40.2764C41.613 40.7827 41.6101 41.289 41.6101 41.7954C41.6101 42.2381 41.6072 42.6836 41.613 43.1263C41.6159 43.3028 41.6217 43.4851 41.6477 43.6587C41.917 45.3311 43.3389 46.4971 44.9721 46.5C45.1922 46.5 45.4122 46.4797 45.6381 46.4363C47.1468 46.147 48.3167 44.7611 48.3312 43.2305C48.3398 42.2496 48.334 41.2659 48.334 40.2821Z" fill="#665CE0"/>
<path d="M45.6824 43.9773C46.024 43.974 46.2973 43.8536 46.5283 43.6192C46.5608 43.5866 46.6129 43.5736 46.6584 43.5508C46.6747 43.5964 46.704 43.6452 46.704 43.6908C46.6617 44.5014 46.0077 45.1948 45.2041 45.2925C44.3029 45.3999 43.509 44.853 43.291 43.9773C43.0437 42.9909 43.7465 41.9719 44.7519 41.8579C44.8039 41.8514 44.8592 41.8384 44.9113 41.8449C44.9438 41.8482 44.9861 41.871 44.9991 41.897C45.0089 41.9165 44.9894 41.9621 44.9698 41.9849C44.921 42.0435 44.856 42.0956 44.8104 42.1574C44.2833 42.8411 44.6803 43.8308 45.5295 43.9675C45.5815 43.9773 45.6401 43.974 45.6824 43.9773Z" fill="white"/>
</g>
<defs>
<linearGradient id="paint0_linear_3323_8774" x1="34.4053" y1="39.7241" x2="34.4053" y2="39.7884" gradientUnits="userSpaceOnUse">
<stop stop-color="#FF7A93"/>
<stop offset="1" stop-color="#FF7A93" stop-opacity="0"/>
</linearGradient>
<linearGradient id="paint1_linear_3323_8774" x1="38.1398" y1="39.7241" x2="38.1398" y2="39.7826" gradientUnits="userSpaceOnUse">
<stop stop-color="#FF7A93"/>
<stop offset="1" stop-color="#FF7A93" stop-opacity="0"/>
</linearGradient>
<clipPath id="clip0_3323_8774">
<rect width="36.5625" height="33.7004" fill="white" transform="translate(18 19.0969)"/>
</clipPath>
<clipPath id="clip1_3323_8774">
<rect width="14" height="14" fill="white" transform="translate(38 36)"/>
</clipPath>
</defs>
</svg>
