<svg width="72" height="73" viewBox="0 0 72 73" fill="none" xmlns="http://www.w3.org/2000/svg">
<ellipse cx="36" cy="36.507" rx="36" ry="35.9471" fill="#877EF6"/>
<g clip-path="url(#clip0_3323_8776)">
<path d="M34.4453 40.284C34.4453 40.3775 34.411 40.3542 34.3652 40.3074C34.3995 40.2957 34.4224 40.284 34.4453 40.284Z" fill="url(#paint0_linear_3323_8776)"/>
<path d="M38.1741 40.2957C38.1626 40.3074 38.1398 40.3308 38.1283 40.3425C38.1169 40.3191 38.1169 40.3074 38.1055 40.284C38.1283 40.284 38.1512 40.2957 38.1741 40.2957Z" fill="url(#paint1_linear_3323_8776)"/>
</g>
<path d="M51 35.8257C51 36.6239 51 37.4312 51 38.2294C50.9816 38.2752 50.9449 38.3211 50.9358 38.3761C50.8532 38.9266 50.7981 39.4771 50.688 40.0275C49.4215 46.3119 44.1539 51.1376 37.7482 51.8899C37.5372 51.9174 37.3261 51.9633 37.115 52C36.335 52 35.5549 52 34.7749 52C34.729 51.9817 34.6831 51.945 34.628 51.9358C34.0132 51.8349 33.3891 51.7706 32.7834 51.6422C26.7082 50.3211 22.0462 45.3028 21.1652 39.156C21.1193 38.844 21.0551 38.5413 21 38.2294C21 37.4128 21 36.5872 21 35.7706C21.0184 35.7248 21.0551 35.6789 21.0642 35.6239C21.1652 35.0092 21.2294 34.3853 21.3579 33.7798C22.6794 27.6972 27.6993 23.0367 33.8388 22.1651C34.1508 22.1193 34.4537 22.055 34.7657 22C35.5457 22 36.3258 22 37.1058 22C37.1426 22.0183 37.1793 22.055 37.216 22.055C38.5925 22.156 39.9416 22.4312 41.2172 22.945C46.6133 25.1468 49.8345 29.1009 50.8256 34.8624C50.8899 35.1835 50.9449 35.5046 51 35.8257ZM33.6736 39.4771C33.1046 38.9541 32.554 38.4495 31.9942 37.945C31.1682 37.1927 30.3698 36.422 29.5164 35.7064C28.7271 35.0459 27.5066 35.4587 27.2404 36.4404C27.0661 37.0917 27.2771 37.6239 27.7635 38.0642C29.3787 39.5229 30.9847 40.9908 32.5907 42.4587C33.3891 43.1835 34.1692 43.1743 34.9309 42.4128C38.0144 39.3578 41.0979 36.2936 44.1814 33.2385C44.2824 33.1376 44.3925 33.0275 44.4842 32.9174C45.1542 32.1009 44.7963 30.8624 43.7868 30.5321C43.126 30.3211 42.5938 30.5321 42.1166 31.0092C39.3175 33.8349 36.5093 36.6422 33.6736 39.4771Z" fill="white"/>
<defs>
<linearGradient id="paint0_linear_3323_8776" x1="34.4053" y1="40.284" x2="34.4053" y2="40.3483" gradientUnits="userSpaceOnUse">
<stop stop-color="#FF7A93"/>
<stop offset="1" stop-color="#FF7A93" stop-opacity="0"/>
</linearGradient>
<linearGradient id="paint1_linear_3323_8776" x1="38.1398" y1="40.284" x2="38.1398" y2="40.3425" gradientUnits="userSpaceOnUse">
<stop stop-color="#FF7A93"/>
<stop offset="1" stop-color="#FF7A93" stop-opacity="0"/>
</linearGradient>
<clipPath id="clip0_3323_8776">
<rect width="36.5625" height="33.7004" fill="white" transform="translate(18 19.6569)"/>
</clipPath>
</defs>
</svg>
