<svg width="72" height="72" viewBox="0 0 72 72" fill="none" xmlns="http://www.w3.org/2000/svg">
<ellipse cx="36" cy="35.9471" rx="36" ry="35.9471" fill="#FCA31D"/>
<g clip-path="url(#clip0_3306_34750)">
<path d="M34.4453 39.724C34.4453 39.8175 34.411 39.7942 34.3652 39.7474C34.3995 39.7357 34.4224 39.724 34.4453 39.724Z" fill="url(#paint0_linear_3306_34750)"/>
<path d="M38.1741 39.7357C38.1626 39.7474 38.1398 39.7708 38.1283 39.7825C38.1169 39.7591 38.1169 39.7474 38.1055 39.724C38.1283 39.724 38.1512 39.7357 38.1741 39.7357Z" fill="url(#paint1_linear_3306_34750)"/>
</g>
<path d="M16.0102 35.5426C17.2574 33.708 18.7193 32.0691 20.3448 30.5746C23.6775 27.5031 27.4702 25.2974 31.9478 24.411C36.814 23.4525 41.4552 24.1843 45.8613 26.4621C49.8176 28.5029 52.9765 31.4816 55.6447 35.017C56.1252 35.6457 56.115 36.3878 55.6345 37.0165C52.9254 40.5931 49.7154 43.5924 45.6977 45.6332C43.2851 46.8597 40.7498 47.6431 38.051 47.9007C32.2648 48.447 27.1533 46.7154 22.5427 43.2832C20.1812 41.5207 18.1775 39.4077 16.3987 37.0577C16.2454 36.8516 16.1329 36.6248 16 36.3981C16.0102 36.1198 16.0102 35.8312 16.0102 35.5426ZM35.9041 27.5444C31.2016 27.6165 27.5315 31.4198 27.6133 36.2435C27.6951 40.861 31.4878 44.52 36.0473 44.4788C40.8009 44.4273 44.4812 40.5827 44.4096 35.7591C44.3381 31.2137 40.4636 27.4825 35.9041 27.5444Z" fill="white"/>
<path d="M40.0576 35.5662C40.0371 38.0914 37.9823 40.1425 35.4573 40.1219C32.9935 40.1116 30.9898 38.0295 31 35.5146C31.0205 33.01 33.106 30.9795 35.6413 31.0002C38.0743 31.0208 40.078 33.0925 40.0576 35.5662Z" fill="white"/>
<defs>
<linearGradient id="paint0_linear_3306_34750" x1="34.4053" y1="39.724" x2="34.4053" y2="39.7883" gradientUnits="userSpaceOnUse">
<stop stop-color="#FF7A93"/>
<stop offset="1" stop-color="#FF7A93" stop-opacity="0"/>
</linearGradient>
<linearGradient id="paint1_linear_3306_34750" x1="38.1398" y1="39.724" x2="38.1398" y2="39.7825" gradientUnits="userSpaceOnUse">
<stop stop-color="#FF7A93"/>
<stop offset="1" stop-color="#FF7A93" stop-opacity="0"/>
</linearGradient>
<clipPath id="clip0_3306_34750">
<rect width="36.5625" height="33.7004" fill="white" transform="translate(18 19.0969)"/>
</clipPath>
</defs>
</svg>
