<svg width="72" height="72" viewBox="0 0 72 72" fill="none" xmlns="http://www.w3.org/2000/svg">
<ellipse cx="36" cy="35.9471" rx="36" ry="35.9471" fill="#FCA31D"/>
<g clip-path="url(#clip0_3306_34749)">
<path d="M34.4453 39.724C34.4453 39.8175 34.411 39.7942 34.3652 39.7474C34.3995 39.7357 34.4224 39.724 34.4453 39.724Z" fill="url(#paint0_linear_3306_34749)"/>
<path d="M38.1741 39.7357C38.1626 39.7474 38.1398 39.7708 38.1283 39.7825C38.1169 39.7591 38.1169 39.7474 38.1055 39.724C38.1283 39.724 38.1512 39.7357 38.1741 39.7357Z" fill="url(#paint1_linear_3306_34749)"/>
</g>
<path d="M21 35.9958C21 27.7102 27.7333 20.9917 36.025 21C44.2917 21.0083 51 27.7269 51 36.0042C51 44.2898 44.2583 51.0166 35.975 51C27.7083 50.9916 20.9917 44.2648 21 35.9958ZM36.0333 38.3798C36.1083 38.4882 36.1667 38.5799 36.2333 38.6549C37.775 40.2053 39.325 41.7474 40.875 43.2978C41.3833 43.8063 41.9833 43.9897 42.675 43.773C43.9083 43.3812 44.2667 41.8641 43.3417 40.9222C41.7917 39.3551 40.225 37.7963 38.6583 36.2376C38.5833 36.1625 38.4917 36.1209 38.3583 36.0292C38.5083 35.9041 38.5917 35.8458 38.6583 35.7708C40.2083 34.2287 41.75 32.6782 43.3 31.1278C43.8083 30.6193 43.9917 30.0275 43.775 29.3273C43.3833 28.0936 41.8667 27.7269 40.925 28.6521C39.3583 30.2026 37.8 31.7697 36.2417 33.3368C36.1667 33.4118 36.1333 33.5368 36.0667 33.6702C35.8833 33.4701 35.8167 33.3784 35.7333 33.2951C34.2 31.7613 32.6667 30.2276 31.1417 28.6938C30.6333 28.1853 30.0417 27.9936 29.35 28.2103C28.1 28.5938 27.7417 30.1275 28.6833 31.0778C30.2333 32.6366 31.7917 34.187 33.3417 35.7458C33.4167 35.8208 33.4917 35.9041 33.5833 35.9958C33.125 36.4543 32.6833 36.8961 32.2417 37.3295C31.05 38.5215 29.85 39.7052 28.6667 40.9138C27.7417 41.8558 28.1167 43.3729 29.35 43.7563C30.0417 43.973 30.6417 43.7813 31.1417 43.2728C32.7417 41.6724 34.3583 40.0636 36.0333 38.3798Z" fill="white"/>
<defs>
<linearGradient id="paint0_linear_3306_34749" x1="34.4053" y1="39.724" x2="34.4053" y2="39.7883" gradientUnits="userSpaceOnUse">
<stop stop-color="#FF7A93"/>
<stop offset="1" stop-color="#FF7A93" stop-opacity="0"/>
</linearGradient>
<linearGradient id="paint1_linear_3306_34749" x1="38.1398" y1="39.724" x2="38.1398" y2="39.7825" gradientUnits="userSpaceOnUse">
<stop stop-color="#FF7A93"/>
<stop offset="1" stop-color="#FF7A93" stop-opacity="0"/>
</linearGradient>
<clipPath id="clip0_3306_34749">
<rect width="36.5625" height="33.7004" fill="white" transform="translate(18 19.0969)"/>
</clipPath>
</defs>
</svg>
