<svg width="72" height="72" viewBox="0 0 72 72" fill="none" xmlns="http://www.w3.org/2000/svg">
<ellipse cx="36" cy="35.9471" rx="36" ry="35.9471" fill="#FCA31D"/>
<g clip-path="url(#clip0_3323_8773)">
<path d="M34.4453 39.7241C34.4453 39.8177 34.411 39.7943 34.3652 39.7475C34.3995 39.7358 34.4224 39.7241 34.4453 39.7241Z" fill="url(#paint0_linear_3323_8773)"/>
<path d="M38.1741 39.7358C38.1626 39.7475 38.1398 39.7709 38.1283 39.7826C38.1169 39.7592 38.1169 39.7475 38.1055 39.7241C38.1283 39.7241 38.1512 39.7358 38.1741 39.7358Z" fill="url(#paint1_linear_3323_8773)"/>
</g>
<path d="M30.8471 49.9955C27.0444 49.9955 23.2417 49.9955 19.439 49.9955C18.4524 49.9955 17.9899 49.5145 18.0002 48.5321C18.0618 42.5046 22.6148 37.1831 28.5552 36.17C35.5851 34.9727 42.0291 39.3424 43.4783 46.3114C43.6324 47.0687 43.6838 47.8567 43.7147 48.6345C43.7558 49.4838 43.2213 49.9955 42.358 49.9955C38.5245 50.0058 34.691 49.9955 30.8471 49.9955Z" fill="white"/>
<path d="M23.8082 27.0006C23.8699 23.0096 27.0457 19.9395 31.0437 20.0009C34.8772 20.0623 37.9605 23.2859 37.8988 27.1746C37.8371 31.0531 34.61 34.1129 30.6634 34.0413C26.9018 33.9594 23.7569 30.7359 23.8082 27.0006Z" fill="white"/>
<path d="M41.0938 37.377C46.6128 34.1023 53.8071 37.4282 54.8554 43.7218C54.9376 44.2028 54.9788 44.6837 54.9993 45.1647C55.0301 46.0141 54.506 46.5258 53.6529 46.5258C52.1421 46.536 50.6211 46.5258 49.1103 46.5258C48.1853 46.5258 47.2603 46.5258 46.3353 46.5258C46.1503 46.5258 46.0373 46.5258 45.9962 46.2802C45.3898 42.811 43.8173 39.8535 41.1862 37.4691C41.1451 37.4589 41.1246 37.4282 41.0938 37.377Z" fill="white"/>
<path d="M45.742 34.6453C42.854 34.6453 40.5107 32.3018 40.5107 29.4262C40.5107 26.5301 42.8643 24.1968 45.7831 24.2071C48.6711 24.2173 51.0041 26.5608 50.9939 29.4466C50.9836 32.3223 48.63 34.6555 45.742 34.6453Z" fill="white"/>
<defs>
<linearGradient id="paint0_linear_3323_8773" x1="34.4053" y1="39.7241" x2="34.4053" y2="39.7884" gradientUnits="userSpaceOnUse">
<stop stop-color="#FF7A93"/>
<stop offset="1" stop-color="#FF7A93" stop-opacity="0"/>
</linearGradient>
<linearGradient id="paint1_linear_3323_8773" x1="38.1398" y1="39.7241" x2="38.1398" y2="39.7826" gradientUnits="userSpaceOnUse">
<stop stop-color="#FF7A93"/>
<stop offset="1" stop-color="#FF7A93" stop-opacity="0"/>
</linearGradient>
<clipPath id="clip0_3323_8773">
<rect width="36.5625" height="33.7004" fill="white" transform="translate(18 19.0969)"/>
</clipPath>
</defs>
</svg>
