<svg style="position: absolute; width: 0; height: 0; overflow: hidden;" version="1.1"
     xmlns="http://www.w3.org/2000/svg" id="tqb-automator-icons">
    <defs>
        <symbol id="tap-quiz-builder-logo" viewBox="0 0 56 44">
            <defs>
                <path id="yj94b05lba" d="M0.719 0.702L11.632 0.702 11.632 11.614 0.719 11.614z"/>
                <path id="svu7o1t3zc" d="M0.368 0.919L26.197 0.919 26.197 18.4 0.368 18.4z"/>
            </defs>
            <g fill="none" fill-rule="evenodd">
                <g>
                    <g>
                        <g>
                            <g transform="translate(-436 -397) translate(349 358) translate(87 37) translate(0 1.6)">
                                <mask id="qzvcsgq8wb" fill="#fff">
                                    <use xlink:href="#yj94b05lba"/>
                                </mask>
                                <path fill="#434343" d="M6.177 3C4.436 3 3.019 4.419 3.019 6.157c0 1.742 1.417 3.158 3.158 3.158 1.738 0 3.155-1.416 3.155-3.158 0-1.738-1.417-3.155-3.155-3.155m0 8.613c-3.009 0-5.458-2.45-5.458-5.458S3.169.701 6.177.701s5.455 2.447 5.455 5.455c0 3.009-2.447 5.458-5.455 5.458" mask="url(#qzvcsgq8wb)"/>
                            </g>
                            <path fill="#434343" d="M6.177 30.218c-1.741 0-3.158 1.414-3.158 3.155 0 1.742 1.417 3.156 3.158 3.156 1.738 0 3.155-1.414 3.155-3.156 0-1.74-1.417-3.155-3.155-3.155m0 8.611c-3.009 0-5.458-2.447-5.458-5.456 0-3.008 2.45-5.455 5.458-5.455s5.455 2.447 5.455 5.455c0 3.009-2.447 5.456-5.455 5.456" transform="translate(-436 -397) translate(349 358) translate(87 37)"/>
                            <path fill="#58A21D"
                                  d="M9.66 19.63l-4.14 4.14c-.23.208-.437.415-.644.647-.184.159-.368.25-.598.159-.092-.046-.184-.115-.253-.184-.85-.828-1.702-1.68-2.553-2.53-.115-.115-.23-.23-.345-.368-.184-.207-.16-.506.023-.69.253-.253.506-.53.782-.782.207-.207.53-.184.76.023.574.575 1.126 1.15 1.701 1.725.046.046.07.023.115-.023.99-.99 1.978-1.978 2.99-2.967.414-.437.851-.874 1.288-1.311.207-.207.437-.23.667-.115.046.023.092.069.138.115l.76.759c.091.092.137.207.137.368 0 .115-.046.253-.16.345-.208.23-.438.46-.668.69m-3.772-4.9C2.645 14.732 0 17.355 0 20.62c0 3.243 2.645 5.888 5.888 5.888s5.888-2.645 5.888-5.888c0-3.266-2.645-5.888-5.888-5.888"
                                  transform="translate(-436 -397) translate(349 358) translate(87 37)"/>
                            <path fill="#434343"
                                  d="M42.09 11.157H16.268c-1.787 0-3.236-1.449-3.236-3.236 0-1.785 1.45-3.234 3.236-3.234H42.09c1.788 0 3.237 1.45 3.237 3.234 0 1.787-1.45 3.236-3.237 3.236M42.09 23.748H16.268c-1.787 0-3.236-1.447-3.236-3.234s1.45-3.236 3.236-3.236H42.09c1.788 0 3.237 1.45 3.237 3.236 0 1.787-1.45 3.234-3.237 3.234M16.26 30.096h20.174c-.37.23-.739.46-1.107.713l-.805.598c-.112.092-.23.182-.322.274l-.115.092c-.092.071-.207.163-.299.255-.276.207-.506.414-.71.644-.049.046-.092.115-.14.16-.553.415-1.634 1.703-1.818 1.956l-.874 1.242c-.115.184-.23.343-.322.53H16.26c-1.77 0-3.22-1.45-3.22-3.246 0-1.769 1.45-3.218 3.22-3.218"
                                  transform="translate(-436 -397) translate(349 358) translate(87 37)"/>
                            <g transform="translate(-436 -397) translate(349 358) translate(87 37) translate(29.9 26.9)">
                                <mask id="iec8cjrh1d" fill="#fff">
                                    <use xlink:href="#svu7o1t3zc"/>
                                </mask>
                                <path fill="#58A21D"
                                      d="M26.197 1.425c-.46 0-.623.07-.966.184-.368.14-.736.416-1.035.667l-.736.69c-.046.07-.069.092-.115.161-1.357 1.681-1.656 1.957-2.714 4.096-.506 1.01-1.081 1.93-1.702 2.852-.414.642-.805 1.265-1.265 1.861l-.069.071c-.023.021-.046.021-.071.07-.274.365-.667.69-1.01 1.01-.232.206-.506.413-.782.597-.23.14-.46.3-.69.44l-.393.183c-.067.044-.113.092-.182.113-.046.023-.115.071-.184.092-.069.023-.138.071-.21.092-1.469.738-3.424 1.196-5.103 1.38l-1.035.117c-.299.044-1.127.067-1.863.067-.644 0-1.219-.023-1.403-.067l.113-.3c.255-.55.531-1.103.853-1.657.046-.069.069-.16.138-.253l.621-1.033 1.541-2.14 1.403-1.45c.044-.044.069-.067.092-.115.069-.044.069-.044.138-.092l.322-.276c.046-.044.067-.044.115-.092.092-.067.115-.115.207-.184l1.495-1.01c.483-.324 1.012-.623 1.518-.922l1.61-.874c.598-.299 1.633-.828 2.208-1.058l1.679-.78c-.253.021-.575.161-.805.251-.253.07-.485.161-.759.253L15.64 4.9c-.736.228-1.472.575-2.185.874l-1.403.62c-.529.206-1.334.622-1.863.921-.598.343-1.15.711-1.725 1.058L6.507 9.751c-.044.025-.09.07-.136.092l-1.104.943c-.322.347-.713.667-1.012 1.037-.048.07-.048.07-.115.136-.299.3-.552.644-.805.966-.368.483-.69 1.012-1.012 1.541l-.529.968C1.587 15.848.736 17.85.69 18.401H.644c0-.069-.23-.99-.276-1.773V15.917c.069-.439.069-.715.138-1.242.253-1.474.897-2.967 1.702-4.209l.849-1.198c.232-.32 1.129-1.334 1.405-1.54.253-.208.506-.528.782-.737.113-.09.23-.207.368-.322.138-.092.23-.207.391-.299l.782-.596c.805-.575 1.679-1.106 2.576-1.54.943-.484 1.909-.875 2.896-1.243 1.29-.508 3.038-.874 4.372-1.15 1.403-.276 4.945-.922 6.645-.922h.37c.874 0 2.231.048 2.553.506"
                                      mask="url(#iec8cjrh1d)"/>
                            </g>
                        </g>
                    </g>
                </g>
            </g>
        </symbol>
    </defs>
</svg>
