<svg width="100" height="100" viewBox="0 0 100 100" fill="none" xmlns="http://www.w3.org/2000/svg">
<rect width="100" height="100" fill="transparent"/>
<path d="M15 46.6C15 42.9549 17.9381 40 21.5625 40H78.4375C82.0619 40 85 42.9549 85 46.6V88.4C85 92.0451 82.0619 95 78.4375 95H21.5625C17.9381 95 15 92.0451 15 88.4V46.6Z" fill="black"/>
<path fill-rule="evenodd" clip-rule="evenodd" d="M70 57.1562L45.0312 82L31 68.0391L37.1872 61.8828L45.0312 69.6875L63.8128 51L70 57.1562Z" fill="white"/>
<path fill-rule="evenodd" clip-rule="evenodd" d="M50 14.7273C40.4271 14.7273 32.6667 22.5419 32.6667 32.1818V40.9091H24V32.1818C24 17.722 35.6406 6 50 6C64.3594 6 76 17.722 76 32.1818V42H67.3333V32.1818C67.3333 22.5419 59.5729 14.7273 50 14.7273Z" fill="black"/>
</svg>
