<?xml version="1.0" encoding="utf-8"?>
<!-- Generator: Adobe Illustrator 28.0.0, SVG Export Plug-In . SVG Version: 6.00 Build 0)  -->
<svg version="1.1" id="Layer_1" xmlns="http://www.w3.org/2000/svg" xmlns:xlink="http://www.w3.org/1999/xlink" x="0px" y="0px"
	 viewBox="0 0 500 500" enable-background="new 0 0 500 500" xml:space="preserve">
<g>
	<g>
		<path fill="#FFE226" d="M220.983,101.689c0-0.012,33.693-2.129,57.72-0.77c0,0,196.713-4.479,207.289,185.876
			c2.964,39.268,7.93,71.083,14.008,98.692V111.512C500,49.926,450.075,0,388.489,0H111.511C49.925,0,0,49.926,0,111.512V388.49
			c0,4.061,0.223,8.07,0.646,12.019c6.297-30.83,11.362-66.907,14.144-113.714C26.226,94.343,220.983,101.689,220.983,101.689z"/>
		<path fill="#00A7FF" d="M111.511,500h276.978C450.075,500,500,450.076,500,388.49v-3.003
			c-6.078-27.61-11.044-59.424-14.008-98.692C475.416,96.439,278.703,100.918,278.703,100.918c-24.027-1.358-57.72,0.758-57.72,0.77
			c0,0-194.757-7.346-206.193,185.105c-2.781,46.807-7.846,82.883-14.144,113.714C6.641,456.44,53.986,500,111.511,500z"/>
	</g>
	<g>
		<path fill="#10316B" d="M331.212,184.763c0,0,24.4-4.648,41.247,8.714c0,0-9.876-18.59-25.561-18.59
			C331.212,174.887,324.821,181.278,331.212,184.763z"/>
		<path fill="#10316B" d="M169.58,184.763c0,0-24.4-4.648-41.247,8.714c0,0,9.876-18.59,25.561-18.59S175.97,181.278,169.58,184.763
			z"/>
	</g>
	<g>
		<circle fill="#FFFFFF" cx="161.175" cy="305.647" r="72.606"/>
		<radialGradient id="SVGID_1_" cx="161.175" cy="305.647" r="72.6057" gradientUnits="userSpaceOnUse">
			<stop  offset="0" style="stop-color:#FFFFFF"/>
			<stop  offset="0.4497" style="stop-color:#FDFFFF;stop-opacity:0.5503"/>
			<stop  offset="0.6117" style="stop-color:#F6FDFF;stop-opacity:0.3883"/>
			<stop  offset="0.7272" style="stop-color:#EBFBFF;stop-opacity:0.2728"/>
			<stop  offset="0.8205" style="stop-color:#DAF7FF;stop-opacity:0.1795"/>
			<stop  offset="0.9005" style="stop-color:#C4F3FF;stop-opacity:0.0995"/>
			<stop  offset="0.9701" style="stop-color:#A9EDFF;stop-opacity:0.0299"/>
			<stop  offset="1" style="stop-color:#9BEAFF;stop-opacity:0"/>
		</radialGradient>
		<circle opacity="0.48" fill="url(#SVGID_1_)" cx="161.175" cy="305.647" r="72.606"/>
		<g>
			<circle fill="#10316B" cx="161.175" cy="305.647" r="14.521"/>
			<circle fill="#FFFFFF" cx="168.436" cy="298.387" r="5.528"/>
		</g>
	</g>
	<g>
		<circle fill="#FFFFFF" cx="337.71" cy="293.658" r="91.037"/>
		
			<radialGradient id="SVGID_00000010273415986838754370000016907478461475420603_" cx="337.7101" cy="293.6576" r="91.0365" gradientUnits="userSpaceOnUse">
			<stop  offset="0" style="stop-color:#FFFFFF"/>
			<stop  offset="0.4497" style="stop-color:#FDFFFF;stop-opacity:0.5503"/>
			<stop  offset="0.6117" style="stop-color:#F6FDFF;stop-opacity:0.3883"/>
			<stop  offset="0.7272" style="stop-color:#EBFBFF;stop-opacity:0.2728"/>
			<stop  offset="0.8205" style="stop-color:#DAF7FF;stop-opacity:0.1795"/>
			<stop  offset="0.9005" style="stop-color:#C4F3FF;stop-opacity:0.0995"/>
			<stop  offset="0.9701" style="stop-color:#A9EDFF;stop-opacity:0.0299"/>
			<stop  offset="1" style="stop-color:#9BEAFF;stop-opacity:0"/>
		</radialGradient>
		
			<circle opacity="0.48" fill="url(#SVGID_00000010273415986838754370000016907478461475420603_)" cx="337.71" cy="293.658" r="91.037"/>
		<g>
			<circle fill="#10316B" cx="337.71" cy="293.658" r="18.207"/>
			<circle fill="#FFFFFF" cx="346.814" cy="284.554" r="6.931"/>
		</g>
	</g>
	<g>
		<path fill="#FFE226" d="M305.717,393.467c0,10.146-25.904,29.44-57.857,29.44s-56.124-19.993-56.124-29.44
			c0-8.512,24.17-29.44,56.124-29.44S305.717,381.924,305.717,393.467z"/>
		<path fill="#10316B" d="M197.567,396.85c0,0,49.676,14.227,102.617,0C264.951,413.519,225.087,413.409,197.567,396.85z"/>
	</g>
	<g>
		<path fill="#0083FF" d="M316.299,104.149l6.98,1.281c0,0-0.346,18.954-6.833,26.375L316.299,104.149z"/>
		<path fill="#0083FF" d="M290.346,122.993c0,0-16.95-2.212-32.235,1.199s-77.76,6.818-102.047-13.977
			C156.065,110.215,275.759,105.801,290.346,122.993z"/>
		<path fill="#00A7FF" d="M316.446,131.806c0,0,11.05-44.723-28.458-66.34c-18.403-10.069-40.555-10.721-59.803-2.38
			c-26.899,11.656-54.499,29.509-115.971-12.164c0,0,4.227,59.463,76.827,68.421S255.95,108.006,316.446,131.806z"/>
	</g>
</g>
</svg>
