<svg width="90" height="90" viewBox="0 0 90 90" fill="none" xmlns="http://www.w3.org/2000/svg">
<path d="M88.5 7.5V13.5H1.5V7.5C1.5 4.18629 4.18629 1.5 7.5 1.5H82.5C85.8137 1.5 88.5 4.18629 88.5 7.5Z" fill="#EBF2F6"></path>
<path d="M82.4999 1.5H77.9999C81.3136 1.5 83.9999 4.18629 83.9999 7.5V13.5H88.4999V7.5C88.4999 4.18629 85.8136 1.5 82.4999 1.5Z" fill="#A8D3E6"></path>
<path d="M88.5 13.5V82.5C88.5 85.8137 85.8137 88.5 82.5 88.5H7.5C4.18629 88.5 1.5 85.8137 1.5 82.5V13.5H88.5Z" fill="#EBF2F6"></path>
<path d="M83.9999 13.5V82.5C83.9999 85.8137 81.3136 88.5 77.9999 88.5H82.4999C85.8136 88.5 88.4999 85.8137 88.4999 82.5V13.5H83.9999Z" fill="#A8D3E6"></path>
<path d="M81 22.5V28.5H33V22.5C33.0049 20.8452 34.3452 19.5049 36 19.5H78C79.6548 19.5049 80.9951 20.8452 81 22.5Z" fill="#EBF2F6"></path>
<path d="M78 19.5H73.5C75.1548 19.5049 76.4951 20.8452 76.5 22.5V28.5H81V22.5C80.9951 20.8452 79.6548 19.5049 78 19.5Z" fill="#A8D3E6"></path>
<path d="M33 28.5H81V88.5H33V28.5Z" fill="#EBF2F6"></path>
<path d="M72 82.5C73.6569 82.5 75 81.1569 75 79.5C75 77.8431 73.6569 76.5 72 76.5C70.3431 76.5 69 77.8431 69 79.5C69 81.1569 70.3431 82.5 72 82.5Z" fill="#E8EDFC"></path>
<path d="M61.5 61.5H40.5C39.6716 61.5 39 62.1716 39 63V81C39 81.8284 39.6716 82.5 40.5 82.5H61.5C62.3284 82.5 63 81.8284 63 81V63C63 62.1716 62.3284 61.5 61.5 61.5Z" fill="#EBF2F6"></path>
<path d="M61.5001 61.5H57.0001C57.8285 61.5 58.5001 62.1716 58.5001 63V81C58.5001 81.8284 57.8285 82.5 57.0001 82.5H61.5001C62.3285 82.5 63.0001 81.8284 63.0001 81V63C63.0001 62.1716 62.3285 61.5 61.5001 61.5Z" fill="#A8D3E6"></path>
<path d="M42 55.5C43.6569 55.5 45 54.1569 45 52.5C45 50.8431 43.6569 49.5 42 49.5C40.3431 49.5 39 50.8431 39 52.5C39 54.1569 40.3431 55.5 42 55.5Z" fill="#E8EDFC"></path>
<path d="M52.4999 55.5H73.4999C74.3284 55.5 74.9999 54.8284 74.9999 54V36C74.9999 35.1716 74.3284 34.5 73.4999 34.5H52.4999C51.6715 34.5 50.9999 35.1716 50.9999 36V54C50.9999 54.8284 51.6715 55.5 52.4999 55.5Z" fill="#EBF2F6"></path>
<path d="M73.5 34.5H69C69.8284 34.5 70.5 35.1716 70.5 36V54C70.5 54.8284 69.8284 55.5 69 55.5H73.5C74.3284 55.5 75 54.8284 75 54V36C75 35.1716 74.3284 34.5 73.5 34.5Z" fill="#A8D3E6"></path>
<path d="M25.5 19.5H9C8.17157 19.5 7.5 20.1716 7.5 21V27C7.5 27.8284 8.17157 28.5 9 28.5H25.5C26.3284 28.5 27 27.8284 27 27V21C27 20.1716 26.3284 19.5 25.5 19.5Z" fill="#EBF2F6"></path>
<path d="M7.5 88.5H12C8.68629 88.5 6 85.8137 6 82.5V7.5C6 4.18629 8.68629 1.5 12 1.5H7.5C4.18629 1.5 1.5 4.18629 1.5 7.5V82.5C1.5 85.8137 4.18629 88.5 7.5 88.5Z" fill="white"></path>
<path d="M0 70.5H3V82.5H0V70.5Z" fill="white"></path>
<path d="M1.5 78C2.32843 78 3 77.3284 3 76.5C3 75.6716 2.32843 75 1.5 75C0.671573 75 0 75.6716 0 76.5C0 77.3284 0.671573 78 1.5 78Z" fill="#0073AA"></path>
<path d="M82.5 0H7.5C3.35992 0.00495918 0.00495918 3.35992 0 7.5V70.5C0 71.3284 0.671573 72 1.5 72C2.32843 72 3 71.3284 3 70.5V15H87V82.5C87 84.9853 84.9853 87 82.5 87V22.5C82.5 20.0147 80.4853 18 78 18H36C33.5147 18 31.5 20.0147 31.5 22.5V87H7.5C5.01472 87 3 84.9853 3 82.5C3 81.6716 2.32843 81 1.5 81C0.671573 81 0 81.6716 0 82.5C0.00495918 86.6401 3.35992 89.995 7.5 90H82.5C86.6401 89.995 89.995 86.6401 90 82.5V7.5C89.995 3.35992 86.6401 0.00495918 82.5 0ZM36 21H78C78.8284 21 79.5 21.6716 79.5 22.5V27H34.5V22.5C34.5 21.6716 35.1716 21 36 21ZM34.5 87V30H79.5V87H34.5ZM3 12V7.5C3 5.01472 5.01472 3 7.5 3H82.5C84.9853 3 87 5.01472 87 7.5V12H3Z" fill="#0073AA"></path>
<path d="M70.5 9C71.3284 9 72 8.32843 72 7.5C72 6.67157 71.3284 6 70.5 6C69.6716 6 69 6.67157 69 7.5C69 8.32843 69.6716 9 70.5 9Z" fill="#0073AA"></path>
<path d="M76.4999 9C77.3284 9 77.9999 8.32843 77.9999 7.5C77.9999 6.67157 77.3284 6 76.4999 6C75.6715 6 74.9999 6.67157 74.9999 7.5C74.9999 8.32843 75.6715 9 76.4999 9Z" fill="#0073AA"></path>
<path d="M82.5 9C83.3284 9 84 8.32843 84 7.5C84 6.67157 83.3284 6 82.5 6C81.6716 6 81 6.67157 81 7.5C81 8.32843 81.6716 9 82.5 9Z" fill="#0073AA"></path>
<path d="M11.5605 4.93952C10.9747 4.35394 10.0252 4.35394 9.43947 4.93952L8.99997 5.37902L8.56047 4.93952C7.97191 4.37106 7.03635 4.37919 6.45775 4.95779C5.87915 5.53639 5.87102 6.47195 6.43948 7.06052L6.87898 7.50002L6.43948 7.93952C6.04954 8.31613 5.89316 8.87383 6.03043 9.39828C6.1677 9.92272 6.57727 10.3323 7.10171 10.4696C7.62616 10.6068 8.18386 10.4505 8.56047 10.0605L8.99997 9.62102L9.43947 10.0605C10.028 10.629 10.9636 10.6208 11.5422 10.0422C12.1208 9.46364 12.1289 8.52808 11.5605 7.93952L11.121 7.50002L11.5605 7.06052C12.146 6.47477 12.146 5.52527 11.5605 4.93952V4.93952Z" fill="#0073AA"></path>
<path d="M72 75C69.5147 75 67.5 77.0147 67.5 79.5C67.5 81.9853 69.5147 84 72 84C74.4853 84 76.5 81.9853 76.5 79.5C76.5 77.0147 74.4853 75 72 75ZM72 81C71.1716 81 70.5 80.3284 70.5 79.5C70.5 78.6716 71.1716 78 72 78C72.8284 78 73.5 78.6716 73.5 79.5C73.5 80.3284 72.8284 81 72 81Z" fill="#0073AA"></path>
<path d="M61.5 60H40.5C38.8431 60 37.5 61.3431 37.5 63V81C37.5 82.6568 38.8431 84 40.5 84H61.5C63.1569 84 64.5 82.6568 64.5 81V63C64.5 61.3431 63.1569 60 61.5 60ZM61.5 81H40.5V63H61.5V81Z" fill="#0073AA"></path>
<path d="M42 57C44.4853 57 46.5 54.9853 46.5 52.5C46.5 50.0147 44.4853 48 42 48C39.5147 48 37.5 50.0147 37.5 52.5C37.5 54.9853 39.5147 57 42 57ZM42 51C42.8284 51 43.5 51.6716 43.5 52.5C43.5 53.3284 42.8284 54 42 54C41.1716 54 40.5 53.3284 40.5 52.5C40.5 51.6716 41.1716 51 42 51Z" fill="#0073AA"></path>
<path d="M73.5 33H52.5C50.8431 33 49.5 34.3431 49.5 36V54C49.5 55.6569 50.8431 57 52.5 57H73.5C75.1569 57 76.5 55.6569 76.5 54V36C76.5 34.3431 75.1569 33 73.5 33ZM73.5 54H52.5V36H73.5V54Z" fill="#0073AA"></path>
<path d="M9 30H25.5C27.1569 30 28.5 28.6569 28.5 27V21C28.5 19.3431 27.1569 18 25.5 18H9C7.34315 18 6 19.3431 6 21V27C6 28.6569 7.34315 30 9 30ZM9 21H25.5V27H9V21Z" fill="#0073AA"></path>
<path d="M7.5 37.5H27C27.8284 37.5 28.5 36.8284 28.5 36C28.5 35.1716 27.8284 34.5 27 34.5H7.5C6.67157 34.5 6 35.1716 6 36C6 36.8284 6.67157 37.5 7.5 37.5Z" fill="#0073AA"></path>
<path d="M7.5 46.5H13.5C14.3284 46.5 15 45.8284 15 45C15 44.1716 14.3284 43.5 13.5 43.5H7.5C6.67157 43.5 6 44.1716 6 45C6 45.8284 6.67157 46.5 7.5 46.5Z" fill="#0073AA"></path>
<path d="M27 43.5H19.5C18.6716 43.5 18 44.1716 18 45C18 45.8284 18.6716 46.5 19.5 46.5H27C27.8284 46.5 28.5 45.8284 28.5 45C28.5 44.1716 27.8284 43.5 27 43.5Z" fill="#0073AA"></path>
<path d="M7.5 55.5H27C27.8284 55.5 28.5 54.8284 28.5 54C28.5 53.1716 27.8284 52.5 27 52.5H7.5C6.67157 52.5 6 53.1716 6 54C6 54.8284 6.67157 55.5 7.5 55.5Z" fill="#0073AA"></path>
</svg>