<svg width="90" height="90" viewBox="0 0 90 90" fill="none" xmlns="http://www.w3.org/2000/svg">
<g clip-path="url(#clip0)">
<path d="M88.5 7.49997V13.5H1.49994V7.49997C1.49994 4.18626 4.18623 1.49997 7.49994 1.49997H82.5C85.8137 1.49997 88.5 4.18626 88.5 7.49997Z" fill="#EBF2F6"/>
<path d="M82.5001 1.49997H78.0001C81.3138 1.49997 84.0001 4.18626 84.0001 7.49997V13.5H88.5001V7.49997C88.5001 4.18626 85.8138 1.49997 82.5001 1.49997Z" fill="#A8D3E6"/>
<path d="M88.5 13.5V82.5C88.5 85.8137 85.8137 88.5 82.5 88.5H7.49994C4.18623 88.5 1.49994 85.8137 1.49994 82.5V13.5H88.5Z" fill="#EBF2F6"/>
<path d="M84.0001 13.5V82.5C84.0001 85.8137 81.3138 88.5 78.0001 88.5H82.5001C85.8138 88.5 88.5001 85.8137 88.5001 82.5V13.5H84.0001Z" fill="#A8D3E6"/>
<path d="M63.2857 23V73.6C63.2857 76.0301 60.4715 78 57 78H61.7143C65.1858 78 68 76.0301 68 73.6V23H63.2857Z" fill="#A8D3E6"/>
<path d="M7.49994 88.5H11.9999C8.68623 88.5 5.99994 85.8137 5.99994 82.5V7.49997C5.99994 4.18626 8.68623 1.49997 11.9999 1.49997H7.49994C4.18623 1.49997 1.49994 4.18626 1.49994 7.49997V82.5C1.49994 85.8137 4.18623 88.5 7.49994 88.5Z" fill="white"/>
<path d="M0 70.5002H3V82.5002H0V70.5002Z" fill="white"/>
<path d="M1.5 77.9999C2.32843 77.9999 3 77.3284 3 76.5C3 75.6716 2.32843 75 1.5 75C0.671573 75 0 75.6716 0 76.5C0 77.3284 0.671573 77.9999 1.5 77.9999Z" fill="#0073AA"/>
<path d="M82.5 0H7.5C3.35992 0.00495918 0.00495918 3.35992 0 7.5V70.5C0 71.3284 0.671573 72 1.5 72C2.32843 72 3 71.3284 3 70.5V15H87V82.5C87 84.9853 84.9853 87 82.5 87H7.5C5.01472 87 3 84.9853 3 82.5C3 81.6716 2.32843 81 1.5 81C0.671573 81 0 81.6716 0 82.5C0.00495918 86.6401 3.35992 89.995 7.5 90H82.5C86.6401 89.995 89.995 86.6401 90 82.5V7.5C89.995 3.35992 86.6401 0.00495918 82.5 0ZM3 12V7.5C3 5.01472 5.01472 3 7.5 3H82.5C84.9853 3 87 5.01472 87 7.5V12H3Z" fill="#0073AA"/>
<path d="M70.5 8.99998C71.3284 8.99998 72 8.3284 72 7.49997C72 6.67154 71.3284 5.99997 70.5 5.99997C69.6716 5.99997 69.0001 6.67154 69.0001 7.49997C69.0001 8.3284 69.6716 8.99998 70.5 8.99998Z" fill="#0073AA"/>
<path d="M76.5 8.99998C77.3284 8.99998 77.9999 8.3284 77.9999 7.49997C77.9999 6.67154 77.3284 5.99997 76.5 5.99997C75.6716 5.99997 75 6.67154 75 7.49997C75 8.3284 75.6716 8.99998 76.5 8.99998Z" fill="#0073AA"/>
<path d="M82.4999 8.99998C83.3283 8.99998 83.9998 8.3284 83.9998 7.49997C83.9998 6.67154 83.3283 5.99997 82.4999 5.99997C81.6714 5.99997 80.9999 6.67154 80.9999 7.49997C80.9999 8.3284 81.6714 8.99998 82.4999 8.99998Z" fill="#0073AA"/>
<path d="M11.5605 4.93952C10.9747 4.35394 10.0252 4.35394 9.43947 4.93952L8.99997 5.37902L8.56047 4.93952C7.9719 4.37106 7.03635 4.37919 6.45775 4.95779C5.87915 5.53639 5.87102 6.47195 6.43947 7.06052L6.87897 7.50002L6.43947 7.93952C6.04954 8.31613 5.89316 8.87383 6.03043 9.39828C6.1677 9.92272 6.57727 10.3323 7.10171 10.4696C7.62615 10.6068 8.18386 10.4505 8.56047 10.0605L8.99997 9.62102L9.43947 10.0605C10.028 10.629 10.9636 10.6208 11.5422 10.0422C12.1208 9.46364 12.1289 8.52808 11.5605 7.93952L11.121 7.50002L11.5605 7.06052C12.146 6.47477 12.146 5.52527 11.5605 4.93952V4.93952Z" fill="#0073AA"/>
<g clip-path="url(#clip1)">
<path d="M68.2422 20H34.0234C33.0527 20 32.2656 20.787 32.2656 21.7578V40.0762C31.5198 40.0002 30.7694 39.9612 30.0196 39.961C28.5391 39.961 27.0557 40.1102 25.6108 40.4045C24.792 40.5712 24.2037 41.2912 24.2037 42.1269V45.1168C24.0082 45.1933 23.8144 45.2738 23.6222 45.3582L21.5076 43.2436C20.9168 42.6527 19.9915 42.5593 19.2947 43.0205C18.0659 43.8334 16.9116 44.7768 15.8638 45.8246C14.8157 46.8727 13.8721 48.0271 13.0595 49.2559C12.5986 49.9527 12.6919 50.8777 13.2828 51.4685L15.3973 53.5831C15.313 53.7753 15.2325 53.9691 15.156 54.1646H12.1656C11.3301 54.1646 10.61 54.7529 10.4432 55.5716C10.1492 57.0151 10 58.4986 10 59.9806C10 61.4626 10.1492 62.9459 10.4432 64.3896C10.61 65.2082 11.3301 65.7965 12.1656 65.7965H15.1559C15.2325 65.992 15.313 66.1858 15.3972 66.378L13.2827 68.4927C12.6919 69.0834 12.5985 70.0085 13.0594 70.7053C13.8721 71.934 14.8156 73.0884 15.8638 74.1366C16.9115 75.1843 18.0659 76.1277 19.2947 76.9406C19.9916 77.4016 20.9167 77.3084 21.5076 76.7176L23.6222 74.6029C23.8144 74.6873 24.0082 74.7677 24.2037 74.8443V77.8343C24.2037 78.6699 24.792 79.3899 25.6108 79.5567C27.0557 79.8509 28.5391 80.0001 30.0198 80.0001H68.2422C69.213 80.0001 70 79.2131 70 78.2423V21.7578C70 20.787 69.213 20 68.2422 20V20ZM32.2656 63.6772C31.5916 64.0884 30.8157 64.31 30.0196 64.31C27.6323 64.31 25.6901 62.3679 25.6901 59.9806C25.6901 57.5933 27.6324 55.6511 30.0196 55.6511C30.8157 55.6511 31.5916 55.8728 32.2656 56.2839V63.6772ZM30.0196 76.4844C29.2509 76.4844 28.4814 76.4366 27.7193 76.3419V73.5925C27.7193 72.8155 27.2091 72.1306 26.4646 71.9082C25.6461 71.6638 24.8521 71.3341 24.1047 70.9284C23.4205 70.557 22.5736 70.6798 22.0231 71.2303L20.077 73.1764C19.4714 72.7048 18.8937 72.1945 18.3497 71.6506C17.8056 71.1065 17.2953 70.5288 16.8238 69.9234L18.77 67.9773C19.3205 67.427 19.4433 66.5797 19.0718 65.8955C18.6661 65.1482 18.3366 64.3544 18.0921 63.5359C17.8698 62.7913 17.1849 62.2809 16.4078 62.2809H13.6579C13.5633 61.5193 13.5156 60.7496 13.5156 59.9804C13.5156 59.2112 13.5633 58.4416 13.6579 57.6801H16.4078C17.1849 57.6801 17.8698 57.1698 18.0921 56.4252C18.3366 55.6067 18.6661 54.8128 19.0718 54.0655C19.4433 53.3813 19.3205 52.5344 18.77 51.9838L16.8238 50.0376C17.2954 49.4322 17.8057 48.8544 18.3497 48.3106C18.8937 47.7665 19.4714 47.2563 20.077 46.7847L22.0231 48.7307C22.5735 49.2813 23.4204 49.4041 24.1047 49.0326C24.852 48.6269 25.6461 48.2973 26.4646 48.0528C27.2092 47.8304 27.7193 47.1455 27.7193 46.3685V43.6191C29.2255 43.432 30.7591 43.4299 32.2656 43.6129V52.4671C31.5421 52.2501 30.7864 52.1355 30.0196 52.1355C25.6937 52.1355 22.1745 55.6548 22.1745 59.9806C22.1745 64.3064 25.6939 67.8256 30.0196 67.8256C30.7864 67.8256 31.5421 67.711 32.2656 67.494V76.4843L30.0196 76.4844ZM66.4844 76.4844H35.7812V23.5156H66.4844V76.4844Z" fill="#0073AA"/>
<path d="M43.9844 46.781V69.6875C43.9844 70.6583 44.7714 71.4453 45.7422 71.4453C46.713 71.4453 47.5 70.6583 47.5 69.6875V46.781C49.6773 46.0456 51.25 43.985 51.25 41.5625C51.25 39.14 49.6773 37.0794 47.5 36.344V30.3125C47.5 29.3417 46.713 28.5547 45.7422 28.5547C44.7714 28.5547 43.9844 29.3417 43.9844 30.3125V36.344C41.807 37.0794 40.2344 39.14 40.2344 41.5625C40.2344 43.985 41.807 46.0456 43.9844 46.781ZM45.7422 39.5703C46.8407 39.5703 47.7344 40.4641 47.7344 41.5625C47.7344 42.6607 46.8413 43.554 45.7434 43.5547L45.7422 43.5546L45.741 43.5547C44.6431 43.554 43.75 42.6607 43.75 41.5625C43.75 40.4641 44.6437 39.5703 45.7422 39.5703Z" fill="#0073AA"/>
<path d="M55.1172 63.6162V69.6875C55.1172 70.6583 55.9042 71.4453 56.875 71.4453C57.8458 71.4453 58.6328 70.6583 58.6328 69.6875V63.6957C60.8711 62.9959 62.5 60.9035 62.5 58.4375C62.5 56.015 60.9273 53.9544 58.75 53.219V30.3125C58.75 29.3417 57.963 28.5547 56.9922 28.5547C56.0214 28.5547 55.2344 29.3417 55.2344 30.3125V53.219C53.057 53.9544 51.4844 56.015 51.4844 58.4375C51.4844 60.8165 53.0005 62.8476 55.1172 63.6162ZM56.9922 56.4453C58.0907 56.4453 58.9844 57.3391 58.9844 58.4375C58.9844 59.536 58.0907 60.4297 56.9922 60.4297C55.8937 60.4297 55 59.536 55 58.4375C55 57.3391 55.8937 56.4453 56.9922 56.4453Z" fill="#0073AA"/>
</g>
</g>
<defs>
<clipPath id="clip0">
<rect width="90" height="90" fill="white"/>
</clipPath>
<clipPath id="clip1">
<rect width="60" height="60" fill="white" transform="translate(10 20)"/>
</clipPath>
</defs>
</svg>