<?xml version="1.0" encoding="utf-8"?>
<!-- Generator: Adobe Illustrator 25.0.0, SVG Export Plug-In . SVG Version: 6.00 Build 0)  -->
<svg version="1.1" id="Layer_1" xmlns="http://www.w3.org/2000/svg" xmlns:xlink="http://www.w3.org/1999/xlink" x="0px" y="0px"
	 viewBox="0 0 88.5 109.4" style="enable-background:new 0 0 88.5 109.4;" xml:space="preserve">
<style type="text/css">
	.st0{fill:#FFFFFF;}
	.st1{font-family:'Arial-Black';}
	.st2{font-size:123.8236px;}
	.st3{fill:#0D0F11;}
	.st4{fill:#FFCD34;}
	.st5{fill:#E2B15A;}
</style>
<text transform="matrix(0.8402 0 0 1 13.7448 105.4099)" class="st0 st1 st2">S</text>
<polygon class="st3" points="19.6,44.5 25,58.8 58.2,14.8 46.9,14.8 "/>
<polygon class="st4" points="39.7,15.5 22.1,16.4 21.3,33.9 3.7,34.8 20.5,51.6 24.9,47.1 34.4,37.6 38.9,33.2 43.3,28.7 52.8,19.2 
	57.3,14.8 40.5,-2 "/>
<path class="st5" d="M17.8,40.8c-4.8-1.4-9.5-3.4-13.8-6l16.8,16.8l10.7-10.7C27,42.1,22.2,42.1,17.8,40.8"/>
<rect x="-833" y="-231" style="fill:none;" width="4" height="0"/>
</svg>
