<svg xmlns="http://www.w3.org/2000/svg"><symbol viewBox="0 0 359 192" id="wpfd-wpfd-svg-icon-1"> <g id="wpfd-svg-icon-1-Group_1020"> <path id="wpfd-svg-icon-1-Path_1198" d="M1377.735,839.809c-4.257,17.473-10.081,34.286-20.386,49.268a135.461,135.461,0,0,1-46.792,42.6c-1.712.937-3.926,1.318-4.479,3.69q-57.974.91-115.932,0c-7.036-6.6-16.075-10.225-23.534-16.354-24.548-20.173-40.11-45.564-46.988-76.532-4.243-19.132-2.121-38.5-2.7-57.781-.092-3.148,1.147-4.611,4.337-4.4,1.343.093,2.7.012,4.058.012q127.033,0,254.078.014C1379.039,800.16,1380.316,820.043,1377.735,839.809Z" transform="translate(-1116.89 -780.168)" fill="currentColor"/> <path id="wpfd-svg-icon-1-Path_1199" d="M1183.541,792.942q62.341.987,124.693,0,25.4.217,50.8.448c9.486.079,15.021,4.849,14.876,12.82-.145,8.1-4.836,12.019-14.679,12.031q-113.3.02-226.6-.013c-10.118,0-14.929-4.217-14.731-12.7.158-7.5,5.745-12.057,14.851-12.136Q1158.143,793.173,1183.541,792.942Z" transform="translate(-1104.751 -626.25)" fill="currentColor"/> <path id="wpfd-svg-icon-1-Path_1200" d="M1138.182,844.422c2.78-21.268,1.424-42.653,1.792-63.987,23.218,0,46.422.21,69.628-.159,6.324-.091,8.051,2,7.233,7.932-4.507,32.561-31.2,56.055-64.146,56.24C1147.854,844.474,1143.018,844.435,1138.182,844.422Z" transform="translate(-858.024 -780.273)" fill="currentColor"/> </g> </symbol><symbol viewBox="0 0 300 198" id="wpfd-wpfd-svg-icon-10"> <g id="wpfd-svg-icon-10-Group_1038"> <path id="wpfd-svg-icon-10-Path_1255" d="M1089.374,845.986c.435,31.441-25.405,62.3-63.391,62.426a62.839,62.839,0,0,1-62.919-63.4c.2-34.789,28.79-62.679,63.927-62.4A63.011,63.011,0,0,1,1089.374,845.986Zm-80.992,26.343,44.96-26.823-44.96-26.8Z" transform="translate(-876.28 -746.52)" fill="currentColor"/> <path id="wpfd-svg-icon-10-Path_1256" d="M1021.553,881.119c-.435,31.306-8.493,62.751-27.513,90.992-3.678,5.48-8.9,7.146-13.4,4.285-4.738-3.04-5.53-8.456-1.635-14.306a129.417,129.417,0,0,0,16.771-34.713c13.691-45.788,9.683-89.492-15.928-130.563-.536-.864-1.163-1.678-1.648-2.569-2.822-5.111-1.825-10.427,2.428-13.058,4.381-2.721,9.388-1.45,12.837,3.434a143.54,143.54,0,0,1,16.808,31.9C1017.912,836.564,1021.426,857.38,1021.553,881.119Z" transform="translate(-721.553 -779.782)" fill="currentColor"/> <path id="wpfd-svg-icon-10-Path_1257" d="M955.98,878.749c.294-33.3,8.188-64.443,26.887-92.467,1.622-2.429,3.193-4.895,6.105-5.9a8.483,8.483,0,0,1,9.745,2.466c3.181,3.6,2.9,7.592.5,11.3-5.174,8.011-10.168,16.11-13.539,25.049C967.3,867.852,969.8,914.873,997.1,959.873c.7,1.158,1.521,2.252,2.173,3.446,2.847,5.138,1.877,10.238-2.441,13.022-4.228,2.733-9.438,1.386-12.811-3.421a144.457,144.457,0,0,1-17-32.387A171.833,171.833,0,0,1,955.98,878.749Z" transform="translate(-955.977 -779.738)" fill="currentColor"/> <path id="wpfd-svg-icon-10-Path_1258" d="M1018.739,861.9c-.152,28.911-9.426,54.519-28.176,76.685-2.759,3.265-6.041,5.069-10.32,3.938a8.68,8.68,0,0,1-6.31-6.732c-1.01-3.964,1.161-6.873,3.474-9.642a96.1,96.1,0,0,0,22.034-49.032c4-28.442-2.556-54.191-20.259-77-1.25-1.614-2.618-3.152-3.717-4.865-2.784-4.345-1.992-9.426,1.776-12.246a9.167,9.167,0,0,1,12.466,1.474,106.9,106.9,0,0,1,12.606,17.276C1013.121,820.351,1018.906,840.32,1018.739,861.9Z" transform="translate(-755.029 -763.057)" fill="currentColor"/> <path id="wpfd-svg-icon-10-Path_1259" d="M958.808,861.829c.332-28.505,9.414-53.847,27.807-75.809,4.3-5.145,9.464-6.237,13.782-2.947,4.521,3.441,4.788,8.891.217,14.341-12.454,14.837-20.207,31.731-22.659,50.9-3.475,27.12,2.656,51.865,19.108,73.929,1.622,2.173,3.474,4.193,4.956,6.466,2.962,4.559,2.3,9.082-1.6,12.258-3.666,2.973-8.75,2.6-12.377-1.321A104.786,104.786,0,0,1,970.3,913.02,116.725,116.725,0,0,1,958.808,861.829Z" transform="translate(-922.657 -763.073)" fill="currentColor"/> </g> </symbol><symbol viewBox="0 0 136.049 136.174" id="wpfd-wpfd-svg-icon-11"> <path id="wpfd-svg-icon-11-Path_1262" d="M1136.936,739.029c-.007-4.939.038-9.886-.015-14.833-.074-6.447-3.572-10.309-9.937-11.1-3.632-.446-5.615-2.333-5.615-5.326s1.931-4.8,5.645-5.31c6.432-.884,9.864-4.665,9.9-11.119.059-9.893-.044-19.786.037-29.672.1-10.614,5.948-18.5,15.634-21.22a13.43,13.43,0,0,1,6.127-.624c2.637.5,4.226,2.094,4.331,4.857s-1.33,4.464-3.907,5.221a13.357,13.357,0,0,1-2.05.3c-5.7.72-9.507,4.843-9.551,10.614q-.113,14.383-.007,28.781c.044,6.357-1.308,12.166-5.935,16.83-.981.988-.943,1.753.022,2.733,4.523,4.59,5.949,10.287,5.9,16.541-.052,9.3-.022,18.6-.007,27.89.015,7.086,3.268,10.829,10.205,11.788,3.8.527,5.742,2.785,5.281,6.128-.409,3.008-3.074,4.716-6.655,4.27-11.713-1.456-19.163-9.722-19.393-21.614C1136.854,749.123,1136.936,744.073,1136.936,739.029Z" transform="translate(-1121.369 -639.682)" fill="currentColor"/> <path id="wpfd-svg-icon-11-Path_1263" d="M1160.212,676.357c0,5.043-.045,10.086.015,15.136.066,6.217,3.632,10.146,9.812,10.933,3.75.476,5.667,2.221,5.727,5.207q.089,4.746-5.771,5.452c-6.084.728-9.73,4.753-9.767,10.978-.052,10,.051,19.987-.038,29.977-.1,11.869-7.672,20.3-19.3,21.718-3.707.453-6.469-1.382-6.781-4.5-.326-3.32,1.649-5.437,5.556-5.919,6.343-.787,9.923-4.723,9.952-11.1.052-9.3.075-18.606,0-27.9-.059-6.551,1.233-12.582,6.09-17.365.921-.906.87-1.56-.021-2.444-4.761-4.709-6.113-10.628-6.069-17.083.067-9.2.038-18.406.007-27.607-.015-7.027-3.32-10.756-10.3-11.7-3.617-.491-5.556-2.7-5.214-5.92.327-3.008,3.03-4.865,6.529-4.471,11.7,1.33,19.341,9.678,19.549,21.473C1160.278,666.263,1160.2,671.306,1160.212,676.357Z" transform="translate(-1039.717 -639.652)" fill="currentColor"/> </symbol><symbol viewBox="0 0 300 266" id="wpfd-wpfd-svg-icon-12"> <path id="wpfd-svg-icon-12-Path_1182" d="M1366.152,833.4h-37.086c-16.779,0-33.558-.12-50.323.091-3.712.054-5.378-1.094-6.434-4.615-2.563-8.521-5.444-16.948-8.444-25.323-1.254-3.522-1.044-5.144,3.3-4.854,4.561.3,9.144,0,13.715.093,3.172.065,4.347-.581,2.906-4.1-6.8-16.671-13.435-33.434-20.015-50.2-1.043-2.651-2.576-3.482-5.378-3.482q-42.15.138-84.3-.013c-3.211-.013-4.585,1.292-5.669,4.035q-9.668,24.532-19.631,48.958c-1.495,3.666-1,5.275,3.21,4.788a6.022,6.022,0,0,1,1.294,0c5.324.475,12.459-2.348,15.352,1.385,1.823,2.347-2.3,9.417-3.937,14.31-2.047,6.146-2.63,14.177-6.91,17.8-4.387,3.733-12.524,1.042-19.024,1.068-23.953.12-47.907.054-72.626.054,3.66-10.973,7.188-21.406,10.6-31.865a3.5,3.5,0,0,1,3.832-2.743c1.083.013,2.18-.013,3.262-.027,16.991-.105,16.991-.105,23.2-15.655,4.9-12.292,9.725-24.624,14.813-36.85,1.651-3.97,1.122-5.724-3.463-5.2a3.381,3.381,0,0,1-.647,0c-5.417-.289-12.458,2.269-15.813-.963-3.687-3.56-1.07-10.709-1.229-16.288-.212-7.821.2-15.668-.146-23.49-.2-4.419,1.362-5.539,5.562-5.367,7.836.316,15.71-.251,23.518.223,4.677.278,6.25-1.463,7.4-5.711,10.359-38.577,21.021-77.063,31.34-115.641,1.189-4.432,3.064-5.605,7.517-5.565q40.528.336,81.041.013c4.2-.026,5.9,1.147,7.028,5.341,10.265,38.38,20.928,76.642,31.126,115.022,1.387,5.209,3.435,6.885,8.746,6.541,7.808-.513,15.682.027,23.516-.2,3.461-.093,4.467,1.068,4.426,4.471q-.256,18.576,0,37.179c.041,3.417-1.082,4.657-4.491,4.485-4.347-.211-8.706.106-13.067-.093-3.977-.172-5.641.462-3.751,5.026,6.724,16.248,13.171,32.6,19.592,48.971,1,2.571,2.325,4.062,5.2,3.759a16.285,16.285,0,0,1,1.97-.014c17.624.225,17.637.225,23.121,16.724C1362.254,821.223,1364.078,826.974,1366.152,833.4ZM1181.6,695.044h59.176c10.013,0,10.054-.013,7.318-9.535-6.395-22.328-12.934-44.619-19.144-66.987-.989-3.562-2.8-4.92-5.944-4.128-6.343,1.6-16.158-4.642-18.788,3.166C1195.707,642.816,1189.114,668.719,1181.6,695.044Z" transform="translate(-1066.152 -568.258)" fill="currentColor"/> </symbol><symbol viewBox="0 0 294.997 216" id="wpfd-wpfd-svg-icon-13"> <path id="wpfd-svg-icon-13-Path_1222" d="M1047.806,855.659q-66.775,0-133.551,0c-10.632,0-13.913-3.28-13.913-13.934q-.017-94.3,0-188.587c0-10.171,3.188-13.451,13.09-13.463q36.449-.018,72.9.012c9.115.012,12.021,2.892,12.067,11.887.048,7.043.353,14.121-.106,21.129-.318,5.068,1.458,6.126,6.258,6.115q88.476-.247,176.963-.106c2.952,0,5.962-.317,8.643,1.411a10.8,10.8,0,0,1,5.176,9.818q-.053,77.32-.059,154.654c-.012,7.407-4.187,11.052-12.245,11.064Q1115.423,855.676,1047.806,855.659Zm39.52-157H1011.64c-12.408,0-12.09.012-12.514,12.58-.188,5.656,1.811,6.6,6.939,6.573,52.126-.176,104.253-.105,156.38-.105,13,0,12.726-.012,13.056-13.122.129-5.185-1.718-6.055-6.375-6.02C1141.862,698.76,1114.587,698.655,1087.325,698.655Zm-.013,39.048h-75.684c-12.4,0-12.1.012-12.5,12.568-.165,5.586,1.776,6.632,6.951,6.62,52.3-.188,104.618-.117,156.932-.117,12.4,0,12.173,0,12.468-12.629.1-4.915-1.048-6.631-6.363-6.573C1141.85,737.856,1114.576,737.7,1087.312,737.7Zm.565,39.918H1011.64c-12.408,0-12.09.012-12.514,12.6-.2,5.656,1.811,6.585,6.939,6.561,52.126-.187,104.253-.117,156.38-.117,13.008,0,12.737,0,13.056-13.1.117-5.162-1.682-6.091-6.363-6.056C1142.051,777.727,1114.963,777.621,1087.877,777.621Zm-1.118,58.108H1163c12.4,0,12.091-.012,12.515-12.581.188-5.655-1.811-6.6-6.939-6.585-52.126.188-104.253.118-156.38.118-13.008,0-12.737,0-13.067,13.122-.117,5.174,1.716,6.055,6.386,6.02C1032.587,835.624,1059.674,835.729,1086.759,835.729ZM949.622,678.712h14.984c15.043,0,14.937,0,14.737-15.2-.06-3.6-1.071-4.809-4.728-4.762-13.138.188-26.276.071-39.4.071-15.5,0-15.4,0-15.019,15.509.083,3.363,1.047,4.527,4.459,4.444C932.968,678.572,941.294,678.7,949.622,678.712Zm.14,137.969H934.191c-14.313,0-14.2,0-14,14.332.048,3.586,1.047,4.833,4.728,4.786,13.35-.188,26.7-.071,40.048-.071,14.76,0,14.655,0,14.29-14.639-.083-3.362-1.07-4.551-4.482-4.468C966.452,816.811,958.1,816.682,949.762,816.682Zm-.269-20.012h16.136c13.89,0,13.749.012,13.643-14.133-.023-3.962-1.329-5.045-5.14-5-13.161.2-26.321.082-39.482.082-15.16,0-15.066-.012-14.456,15.027.142,3.21,1.224,4.127,4.269,4.08C932.8,796.575,941.153,796.669,949.493,796.669Zm.34-58.966H933.708c-13.62,0-13.4.012-13.549,13.7-.059,4.656,1.669,5.527,5.8,5.455,12.984-.223,25.957-.081,38.943-.081,14.784,0,14.643,0,14.383-14.592-.07-3.868-1.564-4.621-4.975-4.538C966.159,737.832,958,737.7,949.833,737.7Zm-.4-20h16.124c13.926,0,13.774,0,13.714-14.075-.012-3.951-1.283-5.032-5.092-4.973-13.338.2-26.687.07-40.023.07-14.644,0-14.55,0-13.95,14.909.13,3.139,1.129,4.174,4.222,4.115C932.756,717.6,941.095,717.7,949.434,717.7Z" transform="translate(-900.333 -639.664)" fill="currentColor"/> </symbol><symbol viewBox="0 0 244.222 276.386" id="wpfd-wpfd-svg-icon-14"> <path id="wpfd-svg-icon-14-Path_1223" d="M1087.742,667.408c-.59,15.091-3.4,29.837-7,44.452a16.429,16.429,0,0,0,1.7,12.515c13.038,24.542,28.162,47.6,46.563,68.495,3.209,3.643,6.108,4.664,10.827,3.92,15.235-2.432,30.561-4.687,45.952-.811,14.4,3.643,19.423,15.269,12.138,28.14-8.229,14.536-21.988,19.778-37.912,14.314-10.816-3.721-19.911-10.294-28.162-18-3.165-2.954-6.219-3.442-10.316-2.476a552.8,552.8,0,0,0-82.976,26.307,12.877,12.877,0,0,0-7.241,6.563c-8.162,16.325-16.324,32.66-28.229,46.74a58.085,58.085,0,0,1-11.348,10.672c-7.44,5.1-15.169,6.585-22.9.966-8.318-6.03-13.36-13.959-11.4-24.73,2.087-11.416,9.972-18.957,18.489-25.83,12.093-9.761,25.729-17.013,39.778-23.487a12.78,12.78,0,0,0,6.807-7,729.714,729.714,0,0,0,36.524-102.353,15.189,15.189,0,0,0-.778-10.95c-6.507-14.492-11.926-29.305-13.392-45.319a42.2,42.2,0,0,1,2.254-18.345c3.687-10.238,13.248-16.413,23.631-14.414,9.229,1.766,12.782,9.605,15.558,17.523C1087.775,658.5,1087.852,662.965,1087.742,667.408ZM1005.876,861.22c-4.786.533-8.229,3.787-11.938,6.262-6.817,4.564-13.437,9.529-17.822,16.724-2.054,3.376-1.61,6.508,1.333,9.185,3.354,3.065,5.1-.367,6.9-2.044,9.228-8.562,15.436-19.322,21.422-30.227Zm66.706-117.545c-7.984,27.362-17.4,52.737-28.195,79.189a623.664,623.664,0,0,1,68.606-21.187A373.188,373.188,0,0,1,1072.583,743.675Zm-5.3-55.59c4.376-9.994,5.941-19.334,1.532-29.006-1.565-3.432-3.086-3.7-5.208-.255C1057.847,668.2,1058.99,679.5,1067.286,688.084Zm84.7,124.885c4.288,3.165,7.408,5.963,10.961,8,5.752,3.309,15.024,1.11,18.434-3.82,1.876-2.709,1.566-4.453-1.877-4.853A92.82,92.82,0,0,0,1151.982,812.969Z" transform="translate(-957.017 -636.406)" fill="currentColor"/> </symbol><symbol viewBox="0 0 300 274" id="wpfd-wpfd-svg-icon-15"> <path id="wpfd-svg-icon-15-Path_1228" d="M1218.582,640.432c47.377,0,94.77.1,142.149-.128,5.854-.031,7.477,1.492,7.416,7.375-.322,28.2-.372,56.393.03,84.589.081,6.475-1.928,7.871-7.96,7.63-12.016-.465-24.059-.336-36.073-.033-4.808.128-6.545-1.122-6.4-6.2.353-12.68-.033-25.375.192-38.055.08-4.12-.788-5.723-5.371-5.658q-32.179.384-64.361,0c-4.615-.049-5.373,1.618-5.373,5.706q.195,81.44-.03,162.847c-.016,5.258,1.93,6.14,6.577,6.091,20.73-.208,41.492.065,62.238-.192,4.824-.064,6.513,1.09,6.354,6.155-.355,12.68-.259,25.376-.033,38.071.063,4.04-.66,5.69-5.322,5.675q-94.758-.241-189.543-.016c-4.215.016-5.018-1.491-4.972-5.274.21-12.92.291-25.856-.031-38.777-.111-4.681,1.367-5.882,5.936-5.834,20.985.24,41.974-.048,62.943.224,4.972.065,6.306-1.362,6.288-6.3q-.24-81.054.018-162.142c.016-4.922-1.239-6.316-6.24-6.252q-31.122.433-62.238,0c-5.1-.064-6.932.962-6.736,6.461.465,12.439,0,24.91.223,37.365.081,4.281-.676,6.252-5.66,6.124-12.962-.353-25.94-.305-38.9-.017-4.5.1-5.484-1.506-5.467-5.675.16-29.366.241-58.749-.05-88.115-.062-5.723,2.623-5.707,6.82-5.707Q1146.789,640.512,1218.582,640.432Z" transform="translate(-1068.179 -640.303)" fill="currentColor"/> </symbol><symbol viewBox="0 0 300 219" id="wpfd-wpfd-svg-icon-16"> <path id="wpfd-svg-icon-16-Path_1231" d="M1051.748,710.907q68.2,0,136.39,0c9.5.013,13.024,3.462,13.024,12.8q.021,96.738,0,193.475c0,8.981-3.7,12.7-12.677,12.7q-137.25.039-274.5,0c-8.922,0-12.78-3.743-12.793-12.647q-.038-96.738,0-193.475c0-9.249,3.718-12.839,13.023-12.852Q982.975,710.888,1051.748,710.907Zm-105.5,39.579h10.166c15.293,0,15.165,0,14.973-15.42-.052-3.667-1.1-4.906-4.819-4.816-9.974.2-19.947.064-29.932.064-16.217,0-16.139,0-15.242,16.3.153,2.9,1.039,3.973,3.961,3.909C932.315,750.384,939.288,750.474,946.248,750.486Zm70.273,0h10.165c15.19,0,15.063,0,14.755-15.089-.09-3.985-1.514-5.211-5.346-5.135-9.78.179-19.562.051-29.356.051-15.69,0-15.573,0-15.164,15.828.1,3.54,1.294,4.5,4.627,4.4C1002.971,750.346,1009.753,750.474,1016.521,750.486Zm139.339,0h10.166c15.358,0,15.229,0,14.96-15.5-.065-3.781-1.346-4.8-4.948-4.739-9.974.192-19.959.064-29.945.064-15.537,0-15.447,0-15.076,15.676.077,3.36.975,4.675,4.5,4.561C1142.285,750.32,1149.079,750.474,1155.86,750.486Zm-70.169,0c6.41,0,12.845-.32,19.229.1,4.922.32,6.332-1.571,5.806-6.094a34.483,34.483,0,0,1,0-7.882c.59-4.8-.909-6.669-6.127-6.414-9.217.435-18.474.116-27.714.116-15.485,0-15.372,0-15.191,15.343.052,3.6.949,5.046,4.756,4.893C1072.86,750.295,1079.269,750.486,1085.691,750.486Zm-69.067,119.606h10.741c14.255,0,14.076,0,14.1-14.142,0-4.4-1.551-5.366-5.6-5.264-9.987.242-19.984.076-29.971.076-14.562,0-14.395,0-14.331,14.475.013,4.14,1.525,5.059,5.281,4.919C1003.433,869.914,1010.035,870.092,1016.624,870.092Zm139.212,0h11.281c14.062,0,13.932,0,13.87-14.258-.026-3.859-1.065-5.25-5.09-5.148-10.14.242-20.292.076-30.444.076-15.318,0-15.242,0-14.42,15.433.153,2.862.987,4,3.935,3.935C1141.928,869.99,1148.874,870.08,1155.835,870.092ZM946.467,909.684H957.2c14.473,0,14.357,0,14.178-14.539-.039-3.615-1-4.931-4.77-4.855-10.344.23-20.69.076-31.047.076-14.5,0-14.382,0-14.177,14.527.038,3.591.988,5.008,4.769,4.867C932.918,909.505,939.7,909.684,946.467,909.684Zm70.182-19.318h-10.742c-14.882,0-14.767,0-14.331,15,.1,3.565,1.41,4.421,4.692,4.37,10.369-.142,20.727-.052,31.1-.052,14.243,0,14.051,0,14.1-14.169.013-4.433-1.578-5.4-5.6-5.225C1029.468,890.584,1023.046,890.367,1016.649,890.367ZM1155.3,909.684h11.28c14.883,0,14.768,0,14.4-14.871-.09-3.424-1.1-4.561-4.551-4.51-10.333.179-20.665.063-31.01.063-15.343,0-15.266,0-14.381,15.421.166,2.874,1.05,3.986,3.973,3.934C1141.773,909.594,1148.541,909.684,1155.3,909.684ZM946.134,870.092h10.728c14.92,0,14.78,0,14.524-14.742-.065-3.859-1.475-4.715-5-4.651-10.152.178-20.318.063-30.484.063-15.343,0-15.229,0-14.536,15.357.154,3.347,1.461,4.075,4.448,4.011C932.584,869.99,939.365,870.092,946.134,870.092Zm210.328-59.79h-11.28c-14.5,0-14.331,0-14.19,14.513.052,4.178,1.7,4.944,5.37,4.881,9.961-.179,19.922-.064,29.882-.064,15.382,0,15.292,0,14.715-15.14-.116-3.091-.974-4.33-4.205-4.241C1170,810.43,1163.219,810.3,1156.463,810.3Zm-139.942,0h-10.742c-14.524,0-14.408,0-14.191,14.539.052,3.616,1.04,4.944,4.808,4.867,10.166-.217,20.344-.076,30.522-.076,15.447,0,15.37.012,14.5-15.445-.155-2.888-1.038-3.987-3.974-3.922C1030.468,810.391,1023.495,810.3,1016.521,810.3Zm-70.311,19.33h10.718c14.882,0,14.78,0,14.447-14.859-.077-3.385-1-4.6-4.5-4.535-10.345.179-20.69.064-31.048.064-14.921,0-14.819,0-14.447,14.807.09,3.348.974,4.7,4.5,4.587C932.648,829.478,939.43,829.632,946.21,829.632Zm210.2-58.858h-10.742c-15.5,0-15.421,0-14.638,15.267.153,2.81.884,4.036,3.9,4.011,13.96-.1,27.933.37,41.866-.192,8.166-.331,3.142-7.218,3.8-10.936.46-2.593,3.2-8.189-3.807-8.151C1169.988,770.812,1163.205,770.787,1156.411,770.774Zm-140.3,19.24H1027.4c14.216,0,14.087,0,14.037-14.168-.015-3.859-1.052-5.251-5.076-5.149-10.166.256-20.331.078-30.5.078-14.575,0-14.459,0-14.281,14.449.039,3.578.949,5.021,4.757,4.867C1002.92,789.822,1009.522,790.014,1016.111,790.014Zm-69.658,0H957.17c14.5,0,14.369,0,14.2-14.475-.039-3.6-.988-4.919-4.757-4.829-10.344.216-20.688.063-31.021.063-14.524,0-14.409,0-14.229,14.475.051,3.6,1.013,4.983,4.781,4.841C932.9,789.836,939.686,790.014,946.453,790.014Zm139.275,119.67h10.756c14.562,0,14.446,0,14.267-14.527-.039-3.615-1-4.944-4.782-4.867-9.985.23-19.984.076-29.983.076-14.613,0-14.5,0-14.279,14.514.051,3.6,1.011,5.021,4.793,4.88C1072.91,909.505,1079.32,909.684,1085.729,909.684Zm.449-39.592h10.178c14.947,0,14.832,0,14.4-14.934-.09-3.513-1.3-4.5-4.653-4.447-9.987.154-19.986.052-29.984.052-14.959,0-14.832,0-14.421,14.986.1,3.565,1.358,4.5,4.679,4.4C1072.962,869.952,1079.577,870.092,1086.178,870.092Zm-.487-40.46h10.756c14.588,0,14.42,0,14.331-14.5-.026-4.191-1.616-4.982-5.32-4.906-9.806.2-19.613.077-29.432.077-14.972,0-14.844-.012-14.331,15.024.127,3.6,1.526,4.446,4.769,4.357C1072.86,829.517,1079.282,829.632,1085.691,829.632Zm.269-39.618H1096.7c14.228,0,14.023,0,14.087-14.13.013-4.5-1.653-5.276-5.627-5.188-9.793.244-19.588.078-29.394.078-14.255,0-14.125,0-14.074,14.129.026,3.82.975,5.379,5.051,5.187C1073.142,789.8,1079.55,790.014,1085.96,790.014Z" transform="translate(-901.172 -710.902)" fill="currentColor"/> </symbol><symbol viewBox="0 0 268 243" id="wpfd-wpfd-svg-icon-17"> <path id="wpfd-svg-icon-17-Path_1239" d="M1195.283,710.15c26.15,0,52.3.167,78.436-.116,5.517-.064,6.9,1.63,6.891,6.982q-.252,114.594.013,229.2c.025,5.635-1.8,6.764-7.019,6.751q-126.931-.211-253.886.039c-5.954.013-7.1-1.912-7.083-7.419q.271-113.9-.013-227.813c-.013-5.917,1.3-7.855,7.544-7.765,25.905.333,51.825.089,77.743.064-.014,22.2.1,44.4-.154,66.6-.064,5.211,1.769,6.623,6.748,6.6q42.553-.27,85.108-.013c4.453.026,5.915-1.245,5.864-5.827C1195.232,755.01,1195.323,732.574,1195.283,710.15ZM1087.311,916.94c7.07-.63,15.833,1.219,24.4-.822,7.109-1.695,11.458-7.393,10.535-13.041-1.1-6.751-6.082-10.794-13.652-10.859-9.624-.077-19.26-.179-28.883.065-4.247.1-5.619-1.437-5.5-5.583.231-8.715.077-17.431.063-26.145,0-4.159-.513-8.331-2.937-11.745a11.44,11.44,0,0,0-13.46-4.4c-5.478,1.771-8.276,6.34-8.3,12.193-.064,14.684-.026,29.355-.026,44.039.014,11.526,4.492,16.07,16.219,16.287C1072.416,917.042,1079.061,916.94,1087.311,916.94ZM1243.6,880.206c0-8.253.078-16.52-.013-24.773-.076-6.148-3.823-9.754-9.277-11.243-6.017-1.643-11.484,1.578-13.716,7.5a24.835,24.835,0,0,0-1.759,9.37c.156,8.253-.254,16.531.156,24.759.268,5.34-1.745,6.687-6.737,6.482-8.7-.347-17.425-.1-26.137-.089-8.943.024-14.922,4.5-15.229,11.4-.322,7.162,5.723,13.079,14.511,13.246,14.435.3,28.894.347,43.33,0,11.035-.257,14.871-4.762,14.883-16.006Q1243.636,890.524,1243.6,880.206Z" transform="translate(-1012.623 -710.007)" fill="currentColor"/> </symbol><symbol viewBox="0 0 300 300" id="wpfd-wpfd-svg-icon-18"> <path id="wpfd-svg-icon-18-Path_1249" d="M1171.861,793.191c-2-8.919-3.745-19.042-10.392-27.2-3.139-3.874-3.495-7.171.916-9.717,4.583-2.672,5.873-12.247,14.649-6.452,26.265,17.356,52.16,9.123,70.209-7.747,7.208-6.734,10.764-16.043,12.146-25.6.855-5.92,3.4-6.92,8.249-6.53a45.875,45.875,0,0,0,7.612,0c4.5-.406,6.057,1.265,6.927,6,5.686,31.087,30.8,43.506,56.153,43.334a40.268,40.268,0,0,0,25.817-9.092c7.3-6.108,9.725,1.187,13.545,4.389,3.651,3.062,6.911,5.7,2.594,11.655-15.767,21.744-9.522,50.628,6.586,68.78,7.394,8.326,17.8,11.889,28.286,13.982,6.959,1.39,5.577,5.873,5.483,10.123-.124,4.687,2.176,10.732-5.515,12.013-28.861,4.8-40.836,24.588-44.036,51.332a41.38,41.38,0,0,0,8.947,30.837c3.247,4.14,3.744,7.592-.917,10.434-4.519,2.75-5.885,12.045-14.725,6.061-21.341-14.418-42.592-11.262-63.158,2.125-11.122,7.249-16.589,18.527-18.8,30.994-1.1,6.248-3.617,7.06-8.806,6.951-7.209-.156-13.872,1.469-15.317-9.733-4.069-31.586-47.189-48.567-72.339-35.007a29.185,29.185,0,0,1-5.312,2.577c-3.369,1.031-5.809,6.279-9.568,3.8-4.381-2.905-8.077-7.045-11.558-11.107-2.657-3.093,1.09-5.265,2.472-7.233,17.023-24.15,8.559-50.145-7.783-68.89-6.339-7.28-15.487-10.982-25.211-12.575-4.583-.766-8.978-1.921-8.016-8.373.855-5.749-2.953-13.2,7.238-14.841C1159.791,843.415,1169.439,815.311,1171.861,793.191Zm99.055,111.195c24.962.031,44.689-19.418,44.8-44.162a44.3,44.3,0,0,0-44.272-44.834c-25.428-.109-45.48,19.652-45.388,44.708A44.445,44.445,0,0,0,1270.917,904.386Z" transform="translate(-1120.871 -709.87)" fill="currentColor"/> </symbol><symbol viewBox="0 0 300 179" id="wpfd-wpfd-svg-icon-2"> <g id="wpfd-svg-icon-2-Group_1022"> <path id="wpfd-svg-icon-2-Path_1201" d="M1027.76,591.748c-17.8-.014-35.591.013-53.386-.027-4.981-.013-8.924-2.182-10.37-7.031-1.328-4.456-.118-8.6,4.141-11.224a14.135,14.135,0,0,1,7.517-1.893q52.261.021,104.537-.039c5.178,0,8.911,2.5,12.065,6.072,2.615,3,.749,8.556-3.733,11.855-2.522,1.866-5.4,2.326-8.5,2.313C1062.613,591.708,1045.187,591.748,1027.76,591.748Z" transform="translate(-872.915 -571.49)" fill="currentColor"/> <path id="wpfd-svg-icon-2-Path_1202" d="M1026.93,600.806c-17.231,0-34.461.04-51.69-.013-7.309-.026-11.907-3.352-12.435-8.714-.67-6.689,3.707-11.237,11.422-11.381,9.739-.171,19.477-.04,29.216-.04q37.91,0,75.833.013c7.006.014,11.067,2.787,11.868,7.873,1.184,7.544-3.036,12.2-11.407,12.236C1062.125,600.858,1044.527,600.806,1026.93,600.806Z" transform="translate(-882.047 -461.314)" fill="currentColor"/> <path id="wpfd-svg-icon-2-Path_1203" d="M1026.014,577.618c16.126,0,32.252-.027,48.392.013,6.9.014,11.185,3.286,11.684,8.714.552,5.94-3.1,10.055-10.094,11.21a30.73,30.73,0,0,1-5.047.185q-45.006.019-90.027,0a23.483,23.483,0,0,1-6.677-.6c-5.966-1.735-9.135-5.664-8.4-10.816.763-5.349,4.625-8.635,10.646-8.661C993,577.578,1009.507,577.63,1026.014,577.618Z" transform="translate(-845.651 -497.755)" fill="currentColor"/> <path id="wpfd-svg-icon-2-Path_1204" d="M1025.987,603.774c-16.14,0-32.266.027-48.393-.013-7.241-.026-11.328-3.286-11.814-9.252-.461-5.652,3.613-9.832,10.619-10.765a34.161,34.161,0,0,1,4.5-.1q45.028,0,90.027-.013a24.206,24.206,0,0,1,7.767.92c5.362,1.761,8.109,5.848,7.334,11.053-.7,4.612-4.705,8.083-9.962,8.108-16.691.092-33.382.04-50.073.04Z" transform="translate(-845.624 -424.801)" fill="currentColor"/> <path id="wpfd-svg-icon-2-Path_1205" d="M1021.323,574.613c16.112,0,32.212-.026,48.312.013,7.491.026,11.8,3.732,11.671,9.83-.118,5.455-4.98,9.5-11.617,9.515q-48.6.021-97.191.027c-5.506,0-9.37-2.09-10.961-7.636-1.354-4.718.843-7.873,4.43-10.5,2.169-1.59,4.651-1.223,7.044-1.223C989.11,574.587,1005.224,574.613,1021.323,574.613Z" transform="translate(-901.471 -534.246)" fill="currentColor"/> <path id="wpfd-svg-icon-2-Path_1206" d="M1006.531,577.618c12.933,0,25.864-.027,38.8.013,7.464.027,11.184,3.168,11.381,9.424s-3.863,10.566-11.092,10.619q-38.521.257-77.043.013c-5.375-.039-9.884-2.063-11.592-7.9-1.313-4.456.815-7.531,3.877-10.356,2.011-1.853,4.43-1.8,6.86-1.8Q987.12,577.611,1006.531,577.618Z" transform="translate(-956.526 -497.755)" fill="currentColor"/> <path id="wpfd-svg-icon-2-Path_1207" d="M1007.154,603.749c-13.116.013-26.233.04-39.363-.012-6.031-.026-10.592-3.72-11.157-8.819-.539-4.955,3.352-9.594,9.227-10.869a21.045,21.045,0,0,1,4.454-.408q36.826-.02,73.665,0c8,.014,12.525,3.5,12.775,9.556.263,6.584-3.352,10.461-10.226,10.527C1033.4,603.827,1020.283,603.749,1007.154,603.749Z" transform="translate(-956.584 -424.788)" fill="currentColor"/> <path id="wpfd-svg-icon-2-Path_1208" d="M1021.391,574.63c13.117-.013,26.221-.053,39.336.013,6.94.026,11.343,3.917,11.277,9.739-.053,5.27-4.823,9.555-11.08,9.567q-39.328.1-78.658,0c-6.414-.025-10.527-4.113-10.448-9.909.092-5.822,3.731-9.332,10.237-9.384C995.172,574.551,1008.288,574.63,1021.391,574.63Z" transform="translate(-772.037 -534.25)" fill="currentColor"/> <path id="wpfd-svg-icon-2-Path_1209" d="M991.4,591.775c-7.859,0-15.706.065-23.566-.027-6.61-.092-11.21-4.271-11.25-10-.052-5.335,4.456-9.962,10.712-10.054q24.13-.316,48.247.012c6.36.093,10.658,4.574,10.632,10.028-.025,5.691-4.652,9.923-11.224,10.015C1007.109,591.854,999.25,591.775,991.4,591.775Z" transform="translate(-956.538 -571.518)" fill="currentColor"/> <path id="wpfd-svg-icon-2-Path_1210" d="M1008.712,600.795c-7.5,0-15.008.079-22.514-.026-7.294-.092-11.905-3.957-12.051-9.871-.133-6.072,4.665-10.2,12.275-10.238q22.493-.1,45,0c7.647.04,12.379,4.062,12.314,10.172-.079,6.073-4.785,9.884-12.525,9.949C1023.708,600.847,1016.217,600.795,1008.712,600.795Z" transform="translate(-743.771 -461.303)" fill="currentColor"/> <path id="wpfd-svg-icon-2-Path_1211" d="M1004.676,591.789c-6.177,0-12.367.079-18.544-.026-6.585-.105-11.21-4.324-11.225-10.041-.013-5.481,4.285-9.884,10.685-10.015q19.1-.355,38.206.013c6.4.119,10.7,4.547,10.673,10.028-.026,5.7-4.652,9.91-11.25,10.015C1017.043,591.867,1010.865,591.789,1004.676,591.789Z" transform="translate(-734.503 -571.53)" fill="currentColor"/> <path id="wpfd-svg-icon-2-Path_1212" d="M986.2,600.826c-5.994,0-11.973.1-17.953-.026-7.123-.159-11.8-4.364-11.657-10.226.131-5.689,4.639-9.778,11.447-9.856q18.236-.218,36.471,0c7.15.078,11.7,4.271,11.592,10.211-.1,5.7-4.534,9.673-11.394,9.856C998.541,600.944,992.365,600.826,986.2,600.826Z" transform="translate(-956.54 -461.333)" fill="currentColor"/> <path id="wpfd-svg-icon-2-Path_1213" d="M996.338,577.672c3.352,0,6.73-.118,10.081.039a9.611,9.611,0,0,1,9.424,8.622c.551,5.139-1.749,9.057-6.69,10.265a54.709,54.709,0,0,1-26.562-.105c-4.876-1.235-6.756-5.56-5.993-10.645.723-4.89,3.667-7.716,8.543-8.1,3.706-.289,7.466-.053,11.2-.053Z" transform="translate(-715.967 -497.771)" fill="currentColor"/> <path id="wpfd-svg-icon-2-Path_1214" d="M996.057,604c-3.549,0-7.1.171-10.633-.039-5.309-.315-8.621-3.746-8.95-8.9-.355-5.468,2.037-9.147,7.334-10.212a59.29,59.29,0,0,1,24.379.013c5.429,1.156,8.149,5.283,7.65,10.121-.553,5.348-4.469,8.844-10.265,9.015-3.169.092-6.335.014-9.516.014Z" transform="translate(-715.895 -425.07)" fill="currentColor"/> <path id="wpfd-svg-icon-2-Path_1215" d="M976.832,594.877c-3.549,0-7.109.184-10.646-.04-5.165-.329-9.4-4.573-9.594-9.292a9.848,9.848,0,0,1,8.214-9.87,61.182,61.182,0,0,1,23.894.053c5.19,1.064,7.636,4.863,7.268,10.277-.354,5.166-3.666,8.412-9.042,8.871-.367.027-.749.039-1.116.039h-8.978Z" transform="translate(-956.569 -535.191)" fill="currentColor"/> </g> </symbol><symbol viewBox="0 0 300 300" id="wpfd-wpfd-svg-icon-3"> <g id="wpfd-svg-icon-3-Group_1024"> <path id="wpfd-svg-icon-3-Path_1216" d="M1004.05,759.658c-31.384-.015-62.77-.152-94.153.077-5.347.03-7.028-1.383-7.013-6.979q.291-86.742,0-173.466c-.015-5.308,1.576-6.69,6.668-6.66,39.448.182,78.9.122,118.345.06,2.506-.015,5.284.973,7.417-1.338a94.913,94.913,0,0,0,35.154.017c2.147,2.31,4.926,1.306,7.418,1.322,39.224.062,78.446.152,117.654-.09,5.722-.032,7.374,1.443,7.343,7.343q-.313,86.377-.015,172.752c.015,5.519-1.532,7.086-6.953,7.041-31.384-.228-62.753-.107-94.122-.092h-71.959Zm48.909-82.2c15.242,0,30.484.091,45.725-.031,6.7-.06,11.322-4.166,11.744-10.842.39-5.96-3.049-9.716-8.426-11.844a20.349,20.349,0,0,0-7.687-1.1q-41.468.046-82.937.015a28.433,28.433,0,0,0-4.565.167c-6.578,1.079-12.043,6.857-11.742,12.211.4,6.72,5.841,11.388,13.484,11.419Q1030.764,677.5,1052.958,677.456ZM995.55,607.22c-14.612,0-29.222-.03-43.817.015-5.182.015-10.017.821-12.614,6.325-4.506,9.535,1.5,17.4,13.664,17.442q42.5.135,85.024,0c9.4-.017,14.6-4.562,14.477-12.256-.12-7.892-4.506-11.5-14.222-11.511C1023.886,607.19,1009.711,607.22,995.55,607.22Zm115.373,116.673c15.031,0,30.079-.456,45.079.214,6.938.3,12.269-5.961,12.448-11.678.181-5.976-5.556-11.132-12.1-11.145q-45.41-.047-90.82.013c-7.989.015-12.118,4.076-12.043,11.45.059,7.254,4.234,11.1,12.359,11.132C1080.875,723.94,1095.891,723.893,1110.923,723.893Z" transform="translate(-902.884 -527.095)" fill="currentColor"/> <path id="wpfd-svg-icon-3-Path_1217" d="M974.376,614.182a97.285,97.285,0,0,1-35.6-.016c-8.165-8.332-16.437-16.559-24.481-25.028-3.041-3.209-5.549-6.918-4.059-11.846a11.724,11.724,0,0,1,9.746-8.727c4.958-.958,8.409,1.764,11.572,4.866,7.237,7.1,14.521,14.156,21.455,21.546,2.874,3.071,4.471,2.828,7.224-.077,7.284-7.663,14.7-15.221,22.428-22.428,7.5-7.01,16.879-4.805,20.072,4.3,1.794,5.078-.411,8.956-3.832,12.438Q986.633,601.714,974.376,614.182Z" transform="translate(-806.57 -568.336)" fill="currentColor"/> <path id="wpfd-svg-icon-3-Path_1218" d="M914.455,583.733h25.469c9.837,16.682,19.63,33.377,29.53,50.011,2.918,4.912,4.1,9.915.532,14.826-5.6,7.694-14.385,7.041-20.042-1.779-6.781-10.568-13.046-21.456-19.494-32.221-4.424-7.36-8.758-14.78-13.183-22.139A17.824,17.824,0,0,1,914.455,583.733Z" transform="translate(-741.212 -353.907)" fill="currentColor"/> <path id="wpfd-svg-icon-3-Path_1219" d="M939.563,583.749l26.109-.016c-1.658,8.5-7.391,14.887-11.572,22.064-7.771,13.334-15.739,26.534-23.8,39.7-4.911,8-10.842,10.249-16.772,6.782-6.706-3.939-7.952-10.462-3.011-18.947,8.562-14.659,17.427-29.134,26.108-43.7C937.754,587.748,938.59,585.71,939.563,583.749Z" transform="translate(-838.205 -353.907)" fill="currentColor"/> </g> </symbol><symbol viewBox="0 0 42.128 209.618" id="wpfd-wpfd-svg-icon-4"> <g id="wpfd-svg-icon-4-Group_1027" transform="translate(0 -12)"> <g id="wpfd-svg-icon-4-Group_1026"> <path id="wpfd-svg-icon-4-Path_1220" d="M1021.078,639.633c0-18.938.151-37.887-.1-56.826-.061-4.792,1.49-6.212,6.161-6.071,10.16.3,20.338.252,30.5.02,4.238-.1,5.468,1.43,5.456,5.548q-.18,58.008.012,116.037c.009,4.229-1.44,5.538-5.559,5.446-10.36-.221-20.731-.241-31.091,0-4.249.1-5.477-1.429-5.446-5.537C1021.168,678.708,1021.078,659.165,1021.078,639.633Z" transform="translate(-1020.975 -482.175)" fill="currentColor"/> <path id="wpfd-svg-icon-4-Path_1221" d="M1021.015,587.85c0-5.448.088-10.906-.03-16.354-.059-2.98,1.14-4.179,4.139-4.16q16.341.132,32.7,0c2.969-.02,4.189,1.151,4.159,4.15q-.118,16.345,0,32.7c.03,2.989-1.16,4.179-4.149,4.15q-16.339-.118-32.7,0c-2.979.029-4.218-1.132-4.149-4.131C1021.1,598.757,1021.015,593.3,1021.015,587.85Z" transform="translate(-1020.903 -555.336)" fill="currentColor"/> </g> </g> </symbol><symbol viewBox="0 0 302 276" id="wpfd-wpfd-svg-icon-5"> <g id="wpfd-svg-icon-5-Group_1028"> <path id="wpfd-svg-icon-5-Path_1224" d="M1013.163,761.245c-.144-18.992-.334-37.984-.434-56.976-.059-13.575-.117-27.151.015-40.728.159-15.55,9.695-24.146,27.272-24.161q123.491-.13,247,0c16.636.014,26.9,8.072,27.114,22.418.495,32.35.159,64.714.131,97.093a9.582,9.582,0,0,1-.654,2.425c-2.828-.1-5.661-.262-8.489-.262q-139.234-.023-278.465-.015C1022.149,761.041,1017.663,761.172,1013.163,761.245Z" transform="translate(-1012.664 -639.316)" fill="currentColor"/> <path id="wpfd-svg-icon-5-Path_1225" d="M1012.928,649.088c4.5-.088,8.985-.233,13.484-.233q139.231-.022,278.464,0c2.829.015,5.663.2,8.491.305l.465,2.584c0,2.541,0,5.082.016,7.638,1.247,11.963,1.3,23.478-8.405,32.771-5.166,4.952-11.017,6.911-17.939,6.9-28.87-.059-57.74-.014-86.611-.014q-37.751.021-75.5.014c-28.361-.014-56.753-.683-85.086.246-15.168.479-29.2-12.689-27.477-27.354.451-3.732.073-7.551.073-11.34l.029-10.148A10.606,10.606,0,0,0,1012.928,649.088Z" transform="translate(-1012.428 -511.014)" fill="currentColor"/> <path id="wpfd-svg-icon-5-Path_1226" d="M1020.459,652.969h75.53q0,21.627.017,43.269h-75.561Z" transform="translate(-907.513 -455.58)" fill="currentColor"/> <path id="wpfd-svg-icon-5-Path_1227" d="M1066.9,656.63h75.515c10.913,0,21.825.014,32.738-.014,2.859,0,5.674.043,8.387,1.176,5.166,2.134,8.693,5.241,8.75,11.5.073,6.257-3.278,9.5-8.46,11.731-3.161,1.351-6.472,1.249-9.793,1.249H1035.263c-3.322,0-6.632.1-9.795-1.249-5.181-2.222-8.533-5.488-8.46-11.731.073-6.259,3.584-9.366,8.765-11.5a21.4,21.4,0,0,1,8.387-1.176C1045.071,656.644,1055.985,656.63,1066.9,656.63Z" transform="translate(-953.942 -406.274)" fill="currentColor"/> </g> </symbol><symbol viewBox="0 0 200 213" id="wpfd-wpfd-svg-icon-6"> <g id="wpfd-svg-icon-6-Group_1030"> <path id="wpfd-svg-icon-6-Path_1229" d="M1223.373,833.517q-33.494,0-66.987.011c-9.646.021-19.316-.167-28.94.353-17.367.935-31.665,13.78-33.384,29.441-1.132,10.351-6.174,15.672-14.113,14.892-8.388-.82-12.243-7.14-10.755-17.624,4.109-28.953,29.633-49.26,62.983-49.571,28.259-.27,56.507-.062,84.769-.062h6.738l1.005-1.591c-4.374-3.7-8.886-7.284-13.086-11.141-6.958-6.37-7.49-12.927-1.731-17.833,5.458-4.656,12.611-4.052,19.339,1.892q17.4,15.354,34.608,30.9c6.172,5.55,6.151,12.242-.057,17.833q-17.243,15.51-34.6,30.927c-6.844,6.058-13.721,6.661-19.283,1.911-5.769-4.936-5.215-11.441,1.755-17.812,4.084-3.741,8.411-7.264,12.636-10.89Z" transform="translate(-1068.433 -777.308)" fill="currentColor"/> <path id="wpfd-svg-icon-6-Path_1230" d="M1113.717,832.644c31.96,0,63.947.582,95.9-.228,18.149-.458,31.639-13.614,33.634-29.93a41.3,41.3,0,0,1,.959-5c1.673-6.6,6.68-9.976,13.64-9.259,6.357.655,10.845,5.134,10.638,11.483-.646,20.368-10.674,36.081-29.667,47.128-11.272,6.557-23.931,8.542-37.051,8.594-27.082.094-54.175.031-81.268.031h-6.773l-.82,1.415c4.178,3.6,8.435,7.107,12.5,10.8,7.016,6.37,7.822,12.844,2.4,17.864-5.4,5-12.876,4.385-19.823-1.778q-17.359-15.417-34.582-30.958c-5.954-5.363-6.116-12.076-.266-17.376q17.431-15.806,35.147-31.343c6.5-5.706,14.206-6.225,19.4-1.6,5.353,4.749,4.766,11.337-1.6,17.438-2.1,2.017-4.235,4-6.508,5.841s-4.731,3.492-7.108,5.227Z" transform="translate(-1068.838 -675.885)" fill="currentColor"/> </g> </symbol><symbol viewBox="0 0 298 209" id="wpfd-wpfd-svg-icon-7"> <g id="wpfd-svg-icon-7-Group_1032"> <path id="wpfd-svg-icon-7-Path_1232" d="M1095.976,711.241c44.427,0,88.852.063,133.278-.1,4.585-.025,6.064,1.029,5.975,5.835-.313,16.326-.225,32.665-.049,49,.049,3.777-.852,5.183-4.923,5.17q-134.125-.151-268.237,0c-3.883,0-5.111-1.029-5.048-5.021.2-16.513.289-33.041-.049-49.554-.088-4.794,1.692-5.421,5.788-5.407C1007.136,711.29,1051.563,711.241,1095.976,711.241Z" transform="translate(-946.905 -711.14)" fill="currentColor"/> <path id="wpfd-svg-icon-7-Path_1233" d="M986.828,778.837c-8.445,0-16.89-.112-25.336.062-3.364.076-4.606-.928-4.568-4.442q.225-25.355.012-50.684c-.025-3.2.641-4.731,4.3-4.692,17.08.15,34.171.125,51.249.013,3.1-.013,4.292.889,4.266,4.14q-.188,25.9-.012,51.814c.025,3.012-1.18,3.878-4,3.84C1004.107,778.762,995.474,778.837,986.828,778.837Z" transform="translate(-946.845 -619.531)" fill="currentColor"/> <path id="wpfd-svg-icon-7-Path_1234" d="M995.546,719.145c8.445,0,16.89.1,25.336-.062,3.162-.063,4.68.465,4.63,4.217q-.283,25.619,0,51.237c.025,3.551-1.167,4.4-4.543,4.366-16.89-.151-33.782-.125-50.66-.013-3.2.025-4.705-.552-4.668-4.253q.264-25.619,0-51.237c-.037-3.614,1.293-4.392,4.567-4.317C978.641,719.271,987.1,719.145,995.546,719.145Z" transform="translate(-846.4 -619.547)" fill="currentColor"/> <path id="wpfd-svg-icon-7-Path_1235" d="M1004.661,719.148c8.445,0,16.89.1,25.336-.05,3.177-.063,4.23,1.03,4.2,4.2-.112,17.078-.137,34.158.026,51.237.025,3.6-1.406,4.379-4.669,4.366q-25.336-.189-50.672,0c-3.438.025-4.543-1.091-4.518-4.518.139-16.89.176-33.781-.011-50.672-.038-3.89,1.468-4.718,4.969-4.63C987.758,719.273,996.216,719.148,1004.661,719.148Z" transform="translate(-745.976 -619.536)" fill="currentColor"/> <path id="wpfd-svg-icon-7-Path_1236" d="M1025.336,746.362c-15.775,0-31.535.025-47.31-.012-7.654-.013-12.373-3.9-12.385-10.027s4.656-10.077,12.4-10.089q47.039-.093,94.053-.012c3.828.012,7.6.627,10.214,3.765,2.585,3.1,3.389,6.663,1.518,10.49-2.045,4.179-5.534,5.885-10.064,5.885Q1049.554,746.344,1025.336,746.362Z" transform="translate(-846.473 -537.407)" fill="currentColor"/> <path id="wpfd-svg-icon-7-Path_1237" d="M1005.878,746.487c-12.573,0-25.159.038-37.745-.011-7.128-.025-11.885-4.016-12.01-9.889-.112-5.6,4.141-9.763,11.256-10.19,6.175-.389,12.385-.126,18.585-.126q27.331,0,54.662.013a30.979,30.979,0,0,1,5.61.251c6,1.066,9.424,5.32,9.048,10.967-.339,4.881-4.781,8.873-10.528,8.935C1031.8,746.575,1018.841,746.476,1005.878,746.487Z" transform="translate(-956.12 -537.533)" fill="currentColor"/> <path id="wpfd-svg-icon-7-Path_1238" d="M996.531,746.625c-3.2,0-6.4.15-9.588-.038-6.274-.351-9.826-3.628-10.151-9.136-.339-5.673,2.572-9.763,8.608-10.553a77.389,77.389,0,0,1,21.873.1c5.5.879,9.123,5.421,8.872,10-.315,5.421-4.581,9.348-10.6,9.6C1002.541,746.724,999.529,746.625,996.531,746.625Z" transform="translate(-718.157 -537.681)" fill="currentColor"/> </g> </symbol><symbol viewBox="0 0 300 345" id="wpfd-wpfd-svg-icon-8"> <g id="wpfd-svg-icon-8-Group_1034"> <path id="wpfd-svg-icon-8-Path_1240" d="M1070.587,810.561q.062-41.752.094-83.49c.961-3.647-1.057-7.644,1.27-11.131,15.541,8.98,31.923,16.315,47.905,24.439,12.722,6.468,25.644,12.508,38.472,18.736V867.259c-4.129.12-6.936-3.474-10.864-3.915-17.037-9.7-34.942-17.706-52.382-26.66-5.065-2.6-10.3-4.851-15.474-7.256-7.831-2.886-10.209-8.646-8.766-16.476A8.759,8.759,0,0,0,1070.587,810.561Z" transform="translate(-1014.204 -590.685)" fill="currentColor"/> <path id="wpfd-svg-icon-8-Path_1241" d="M1078.07,867.408V759.264c14.125-8.285,28.984-15.1,43.709-22.2,13.978-6.748,28.183-13.055,41.465-21.14,2.513,3.982.335,8.525,1.484,12.667q0,41.711-.015,83.424c.937,8.592-.88,15.621-10.354,18.333q-27.382,13.449-54.747,26.925c-4,1.978-7.871,4.209-11.8,6.321C1084.3,864.188,1081.732,867.194,1078.07,867.408Z" transform="translate(-921.145 -590.834)" fill="currentColor"/> <path id="wpfd-svg-icon-8-Path_1242" d="M1243.155,753.744c-13.282,8.1-27.487,14.405-41.464,21.14-14.726,7.109-29.584,13.911-43.709,22.208-12.828-6.227-25.75-12.279-38.471-18.734-15.971-8.124-32.363-15.46-47.906-24.44,3.649-3.38,8.739-4.208,12.614-7.175,21.126-10.343,42.359-20.485,63.02-31.763,6.774-4.316,13.59-4.316,20.4-.067q26.118,13.329,52.248,26.619c4.718,2.392,9.582,4.476,14.38,6.708C1237.235,750.069,1240.19,751.913,1243.155,753.744Z" transform="translate(-1000.579 -642.586)" fill="currentColor"/> <path id="wpfd-svg-icon-8-Path_1243" d="M1097.938,764.908c-6.815-4.235-13.63-4.235-20.4.081-.12-16.169-.36-32.338-.268-48.507.041-6.374,4.249-9.915,10.784-9.929,5.96,0,10.063,3.635,10.1,9.849C1098.26,732.571,1098.032,748.74,1097.938,764.908Z" transform="translate(-930.801 -706.553)" fill="currentColor"/> <path id="wpfd-svg-icon-8-Path_1244" d="M1088.3,731.924c3.661-.214,6.227-3.22,9.741-3.794.081,15.967.255,31.936.161,47.918-.041,6.667-3.89,10.3-10.21,10.369-6.748.053-10.7-3.541-10.729-10.478-.082-15.967.105-31.949.173-47.918C1081.378,728.451,1084.169,732.044,1088.3,731.924Z" transform="translate(-930.823 -441.418)" fill="currentColor"/> <path id="wpfd-svg-icon-8-Path_1245" d="M1109.185,724.071a8.723,8.723,0,0,1,.253,2.392c-1.444,7.831.937,13.59,8.766,16.476-11.584,9.728-24.1,18.174-36.681,26.486-4.329,2.859-10.637.667-13.455-3.608-2.926-4.437-2.565-11.238,1.978-14.459C1083.02,742.164,1095.354,732.035,1109.185,724.071Z" transform="translate(-1066.141 -490.202)" fill="currentColor"/> <path id="wpfd-svg-icon-8-Path_1246" d="M1084.829,742.5c9.474-2.712,11.291-9.741,10.356-18.333,12.813,8.405,25.683,16.716,38.391,25.256,4.717,3.167,6,10.436,3.128,14.792-3.289,5-9.462,7.015-14.405,3.755C1109.7,759.66,1096.748,751.83,1084.829,742.5Z" transform="translate(-838.273 -488.991)" fill="currentColor"/> <path id="wpfd-svg-icon-8-Path_1247" d="M1093.715,744.7c-2.953-1.831-5.919-3.675-8.886-5.505,11.72-9.3,24.32-17.291,37.082-25.015a10.716,10.716,0,0,1,15.072,3.541c2.778,4.73.948,11.453-4.356,14.993-12.428,8.3-24.948,16.45-37.429,24.668C1094.05,753.225,1096.24,748.695,1093.715,744.7Z" transform="translate(-838.273 -633.542)" fill="currentColor"/> <path id="wpfd-svg-icon-8-Path_1248" d="M1123.189,737.736c-3.86,2.967-8.951,3.795-12.6,7.176-2.325,3.487-.319,7.483-1.268,11.131q-18.523-11.506-37.029-22.984c-5.852-3.622-7.724-9.608-4.639-15.233,2.914-5.292,9.662-7.042,15.476-3.555,11.586,6.949,23.023,14.125,34.475,21.287C1119.367,736.653,1121.024,737.776,1123.189,737.736Z" transform="translate(-1066.182 -633.58)" fill="currentColor"/> </g> </symbol><symbol viewBox="0 0 300 300" id="wpfd-wpfd-svg-icon-9"> <g id="wpfd-svg-icon-9-Group_1036"> <path id="wpfd-svg-icon-9-Path_1250" d="M1010.679,925.945c-1.1-80.5,67.087-150.044,150.9-149.319,78.923.7,148.878,63.028,149.083,150.017.207,83.5-66.538,150.21-151.211,149.977C1076.656,1076.387,1009.349,1007.921,1010.679,925.945Zm150.031-123.9c-67.513-.946-125.259,53.435-125.342,124.49-.068,70.6,56.663,124.478,124.464,124.889a124.573,124.573,0,0,0,125.7-124.341C1285.82,856.479,1228.348,801.234,1160.71,802.044Z" transform="translate(-1010.659 -776.62)" fill="currentColor"/> <path id="wpfd-svg-icon-9-Path_1251" d="M1066.74,783.97a48.836,48.836,0,0,1,49.219,48.481c.175,26.4-22.38,48.789-49.057,48.869-26.865.082-48.99-20.876-48.962-48.694C1017.979,803.586,1041.138,783.245,1066.74,783.97Zm-.255,72.486c14.138.081,24.476-9.68,24.623-23.253.161-14.056-11.023-25.59-24.555-25.335a24.87,24.87,0,0,0-24.046,24.556C1042.4,845.984,1052.778,856.375,1066.485,856.456Z" transform="translate(-917.043 -682.504)" fill="currentColor"/> <path id="wpfd-svg-icon-9-Path_1252" d="M1014.29,875.881c.5-38.907,26.717-75.169,62.631-88.837a102.528,102.528,0,0,1,32.289-6.765c8.619-.363,14.337,4.321,14.769,11.2.495,7.935-4.458,13.385-13.091,13.492-34.961.416-64.471,26.678-70.834,59.772-.859,4.485-.671,9.183-1.477,13.694-1.4,7.787-6.672,12.593-12.659,12.084-7.439-.645-11.6-5.813-11.628-14.473Z" transform="translate(-963.877 -729.81)" fill="currentColor"/> <path id="wpfd-svg-icon-9-Path_1253" d="M1038.271,896.458c-1.852,0-3.7.067-5.544-.013-7.479-.322-11.9-4.565-12.031-11.507-.132-6.887,4.78-11.922,12.151-12.3,15.05-.779,29.173-4.377,41.5-13.467,18.863-13.907,30.114-32.045,31.27-55.917.215-4.578.509-9.572,4.2-12.834,3.53-3.115,7.841-5.075,12.767-2.753,5.062,2.39,7.841,6.284,7.841,12a92.4,92.4,0,0,1-15.185,51.716C1097.088,879.1,1071.339,894.067,1038.271,896.458Z" transform="translate(-881.331 -647.569)" fill="currentColor"/> </g> </symbol></svg>