<svg xmlns="http://www.w3.org/2000/svg" width="72" height="36" viewBox="0 0 72 36">
    <path fill="white" d="M18 6.31a1 1 0 0 0 1-1v-3.4a1 1 0 0 0-2 0v3.4a1 1 0 0 0 1 1Z"
        class="clr-i-outline clr-i-outline-path-1" />
    <path fill="white" d="M18 29.69a1 1 0 0 0-1 1v3.4a1 1 0 0 0 2 0v-3.4a1 1 0 0 0-1-1Z"
        class="clr-i-outline clr-i-outline-path-2" />
    <path fill="white"
        d="M8.32 9.74A1 1 0 0 0 9 10a1 1 0 0 0 .71-.29a1 1 0 0 0 0-1.42L7.33 5.92a1 1 0 0 0-1.41 1.41Z"
        class="clr-i-outline clr-i-outline-path-3" />
    <path fill="white"
        d="M27.68 26.26a1 1 0 1 0-1.42 1.42l2.41 2.4a1 1 0 0 0 .71.3a1 1 0 0 0 .7-.3a1 1 0 0 0 0-1.41Z"
        class="clr-i-outline clr-i-outline-path-4" />
    <path fill="white" d="M6.31 18a1 1 0 0 0-1-1h-3.4a1 1 0 0 0 0 2h3.4a1 1 0 0 0 1-1Z"
        class="clr-i-outline clr-i-outline-path-5" />
    <path fill="white" d="M34.09 17h-3.4a1 1 0 1 0 0 2h3.4a1 1 0 0 0 0-2Z"
        class="clr-i-outline clr-i-outline-path-6" />
    <path fill="white" d="m8.32 26.26l-2.4 2.41a1 1 0 0 0 .7 1.71a1 1 0 0 0 .71-.3l2.41-2.4a1 1 0 1 0-1.42-1.42Z"
        class="clr-i-outline clr-i-outline-path-7" />
    <path fill="white"
        d="M27 10a1 1 0 0 0 .71-.29l2.4-2.41a1 1 0 0 0 0-1.41a1 1 0 0 0-1.41 0l-2.41 2.4a1 1 0 0 0 0 1.42A1 1 0 0 0 27 10Z"
        class="clr-i-outline clr-i-outline-path-8" />
    <path fill="white"
        d="M18.13 7.75a10.13 10.13 0 1 0 10 10.13a10.08 10.08 0 0 0-10-10.13Zm0 18.25a8.13 8.13 0 1 1 8-8.12a8.08 8.08 0 0 1-8 8.12Z"
        class="clr-i-outline clr-i-outline-path-9" />
    <path fill="white" transform="translate(36)"
        d="M31 27.19a1 1 0 0 0-1-.56h-.85a11 11 0 0 1-4.23-21.02a1 1 0 0 0 .61-1a1 1 0 0 0-.67-.91a14.7 14.7 0 0 0-5-.87a15.12 15.12 0 0 0 0 30.24a14.78 14.78 0 0 0 11-4.81a1 1 0 0 0 .14-1.07Zm-11.11 3.93a13.12 13.12 0 0 1 0-26.24a11.81 11.81 0 0 1 2 .16a13 13 0 0 0 5.72 23.53a12.75 12.75 0 0 1-7.72 2.55Z"
        class="clr-i-outline clr-i-outline-path-1" />
</svg>