<svg width="97" height="57" viewBox="0 0 97 57" fill="none" xmlns="http://www.w3.org/2000/svg">
	<path d="M59.6073 43.7316C67.1725 43.2831 74.5764 41.3552 81.3997 38.0571L84.3517 46.6835C75.6499 51.9124 65.8085 54.9501 55.6734 55.5352L46.0629 46.6092C48.2421 36.9281 52.3633 27.7899 58.1769 19.748C64.2491 11.1509 72.5753 4.39553 82.2391 0.225321L96.6166 10.5923C94.8582 15.831 92.4696 20.8366 89.5033 25.4989C88.5455 27.0574 87.6373 28.4446 86.7787 29.6602L78.0014 24.8167C80.8775 20.1374 83.1889 15.1336 84.8872 9.91015C78.2562 13.3149 72.5259 18.2418 68.1656 24.2875C63.7865 29.9838 60.8502 36.6549 59.6073 43.7316Z" fill="#263238"/>
	<path d="M35.1029 44.4116C45.9489 35.5337 55.0542 22.8466 62.4189 6.35029L70.667 13.9162C66.8122 22.7588 61.6889 30.9922 55.4587 38.3567C49.5757 45.506 42.6046 51.6852 34.8012 56.668L24.8124 47.8142C25.2658 46.1494 25.9742 43.728 26.9377 40.55C23.4269 44.6706 19.5797 48.4922 15.4358 51.9754C14.1238 53.0848 12.7615 54.1949 11.3489 55.3057L0 45.0917C2.22688 33.6608 6.48066 22.7205 12.5603 12.7877C10.0893 13.9481 7.31516 15.3855 4.23778 17.0999L0.529175 8.39909C4.20301 6.2287 7.99149 4.25852 11.8781 2.49722C14.3504 1.43742 16.4941 0.604991 18.3091 0L26.7847 8.47342C19.928 18.9299 14.7459 30.3928 11.4254 42.4479C22.0191 33.57 32.0326 20.4798 41.466 3.17732L49.3294 10.4415L47.9671 12.9386C45.0753 18.1116 42.4735 23.4415 40.1738 28.9036C38.2256 33.985 36.5331 39.1608 35.1029 44.4116Z" fill="#263238"/>
</svg>
