<?xml version="1.0" encoding="UTF-8"?>
<svg width="16px" height="16px" viewBox="0 0 16 16" version="1.1" xmlns="http://www.w3.org/2000/svg" xmlns:xlink="http://www.w3.org/1999/xlink">
    <!-- Generator: Sketch 53.2 (72643) - https://sketchapp.com -->
    <title>invoices</title>
    <desc>Created with Sketch.</desc>
    <defs>
        <linearGradient x1="6.25019531%" y1="12.5%" x2="6.25019531%" y2="0%" id="linearGradient-1">
            <stop stop-color="#FEDBB8" offset="0%"></stop>
            <stop stop-color="#20F6A8" offset="100%"></stop>
        </linearGradient>
    </defs>
    <g id="Page-1" stroke="none" stroke-width="1" fill="none" fill-rule="evenodd">
        <g id="invoices" fill="#2B87DA" fill-rule="nonzero">
            <g id="Group" transform="translate(4.148148, 1.777778)">
                <path d="M7.35353535,8.47863248 L0.35016835,8.47863248 C0.156875421,8.47863248 0,8.63690028 0,8.83190883 C0,9.02691738 0.156875421,9.18518519 0.35016835,9.18518519 L7.35353535,9.18518519 C7.54717845,9.18518519 7.7037037,9.02691738 7.7037037,8.83190883 C7.7037037,8.63690028 7.54717845,8.47863248 7.35353535,8.47863248 Z" id="Path"></path>
                <path d="M7.35353535,6.35897436 L0.35016835,6.35897436 C0.156875421,6.35897436 0,6.51724217 0,6.71225071 C0,6.90725926 0.156875421,7.06552707 0.35016835,7.06552707 L7.35353535,7.06552707 C7.54717845,7.06552707 7.7037037,6.90725926 7.7037037,6.71225071 C7.7037037,6.51724217 7.54717845,6.35897436 7.35353535,6.35897436 Z" id="Path"></path>
                <path d="M7.35353535,4.23931624 L0.35016835,4.23931624 C0.156875421,4.23931624 0,4.39758405 0,4.59259259 C0,4.78760114 0.156875421,4.94586895 0.35016835,4.94586895 L7.35353535,4.94586895 C7.54717845,4.94586895 7.7037037,4.78760114 7.7037037,4.59259259 C7.7037037,4.39758405 7.54717845,4.23931624 7.35353535,4.23931624 Z" id="Path"></path>
                <path d="M7.35353535,2.11965812 L0.35016835,2.11965812 C0.156875421,2.11965812 0,2.27792593 0,2.47293447 C0,2.66794302 0.156875421,2.82621083 0.35016835,2.82621083 L7.35353535,2.82621083 C7.54717845,2.82621083 7.7037037,2.66794302 7.7037037,2.47293447 C7.7037037,2.27792593 7.54717845,2.11965812 7.35353535,2.11965812 Z" id="Path"></path>
                <path d="M5.95286195,0.706552707 C6.14650505,0.706552707 6.3030303,0.5482849 6.3030303,0.353276353 C6.3030303,0.158267806 6.14650505,0 5.95286195,0 L1.75084175,0 C1.55754882,0 1.4006734,0.158267806 1.4006734,0.353276353 C1.4006734,0.5482849 1.55754882,0.706552707 1.75084175,0.706552707 L5.95286195,0.706552707 Z" id="Path"></path>
            </g>
            <path d="M2.37037037,13.3333333 C2.53392593,13.3333333 2.66666667,13.176795 2.66666667,12.9839175 L2.66666667,1.23830471 C2.66666667,1.04542718 2.53392593,0.888888889 2.37037037,0.888888889 C2.20681481,0.888888889 2.07407407,1.04542718 2.07407407,1.23830471 L2.07407407,12.9839175 C2.07407407,13.176795 2.20681481,13.3333333 2.37037037,13.3333333 Z" id="Path"></path>
            <path d="M1.23747277,16 L12.3921569,16 C12.5849237,16 12.7407407,15.8672593 12.7407407,15.7037037 C12.7407407,15.5401481 12.5849237,15.4074074 12.3921569,15.4074074 L1.23747277,15.4074074 C1.04505447,15.4074074 0.888888889,15.5401481 0.888888889,15.7037037 C0.888888889,15.8672593 1.04505447,16 1.23747277,16 Z" id="Path"></path>
            <path d="M0.296296296,14.8148148 C0.459851852,14.8148148 0.592592593,14.6692886 0.592592593,14.4899794 L0.592592593,13.0655761 C0.592592593,12.886267 0.459851852,12.7407407 0.296296296,12.7407407 C0.132740741,12.7407407 0,12.886267 0,13.0655761 L0,14.4899794 C0,14.6692886 0.132740741,14.8148148 0.296296296,14.8148148 Z" id="Path"></path>
            <path d="M11.5555556,12.7407407 C11.3917037,12.7407407 11.2592593,12.886267 11.2592593,13.0655761 L11.2592593,14.4899794 C11.2592593,14.6692886 11.3917037,14.8148148 11.5555556,14.8148148 C11.7194074,14.8148148 11.8518519,14.6692886 11.8518519,14.4899794 L11.8518519,13.0655761 C11.8518519,12.886267 11.7194074,12.7407407 11.5555556,12.7407407 Z" id="Path"></path>
            <path d="M13.6296296,1.18518519 C13.4657778,1.18518519 13.3333333,1.34115556 13.3333333,1.53333333 L13.3333333,14.762963 C13.3333333,14.9551407 13.4657778,15.1111111 13.6296296,15.1111111 C13.7934815,15.1111111 13.9259259,14.9551407 13.9259259,14.762963 L13.9259259,1.53333333 C13.9259259,1.34115556 13.7934815,1.18518519 13.6296296,1.18518519 Z" id="Path"></path>
            <path d="M15.7037037,3.25925926 C15.8675556,3.25925926 16,3.113733 16,2.93442385 L16,1.51002059 C16,1.33071145 15.8675556,1.18518519 15.7037037,1.18518519 C15.5398519,1.18518519 15.4074074,1.33071145 15.4074074,1.51002059 L15.4074074,2.93442385 C15.4074074,3.11405783 15.5398519,3.25925926 15.7037037,3.25925926 Z" id="Path"></path>
            <path d="M3.60784314,0.592592593 L14.7625272,0.592592593 C14.9552941,0.592592593 15.1111111,0.459851852 15.1111111,0.296296296 C15.1111111,0.132740741 14.9552941,0 14.7625272,0 L3.60784314,0 C3.41542484,0 3.25925926,0.132740741 3.25925926,0.296296296 C3.25925926,0.459851852 3.41542484,0.592592593 3.60784314,0.592592593 Z" id="Path"></path>
            <path d="M1.42222222,16 C1.61848889,16 1.77777778,15.8407111 1.77777778,15.6444444 C1.77777778,15.4481778 1.61848889,15.2888889 1.42222222,15.2888889 C1.03004444,15.2888889 0.711111111,14.9699556 0.711111111,14.5777778 C0.711111111,14.3815111 0.551822222,14.2222222 0.355555556,14.2222222 C0.159288889,14.2222222 0,14.3815111 0,14.5777778 C0,15.3621333 0.637866667,16 1.42222222,16 Z" id="Path"></path>
            <path d="M0.348583878,13.3333333 L11.503268,13.3333333 C11.6960349,13.3333333 11.8518519,13.2005926 11.8518519,13.037037 C11.8518519,12.8734815 11.6960349,12.7407407 11.503268,12.7407407 L0.348583878,12.7407407 C0.156165577,12.7407407 0,12.8734815 0,13.037037 C0,13.2005926 0.156165577,13.3333333 0.348583878,13.3333333 Z" id="Path"></path>
            <path d="M11.5925926,14.2222222 C11.4082593,14.2222222 11.2592593,14.3846956 11.2592593,14.584886 C11.2592593,15.0128292 11.4115926,15.3907249 11.6875926,15.6493041 C11.9295926,15.8756063 12.2505926,16 12.5925926,16 C13.2549259,16 13.9259259,15.5140306 13.9259259,14.584886 C13.9259259,14.3846956 13.7769259,14.2222222 13.5925926,14.2222222 C13.4082593,14.2222222 13.2592593,14.3846956 13.2592593,14.584886 C13.2592593,15.0940659 12.9002593,15.2746725 12.5925926,15.2746725 C12.2849259,15.2746725 11.9259259,15.0940659 11.9259259,14.584886 C11.9259259,14.3846956 11.7769259,14.2222222 11.5925926,14.2222222 Z" id="Path"></path>
            <path d="M13.6666667,3.25925926 L15.6666667,3.25925926 C15.851,3.25925926 16,3.12651852 16,2.96296296 C16,2.79940741 15.851,2.66666667 15.6666667,2.66666667 L13.6666667,2.66666667 C13.4823333,2.66666667 13.3333333,2.79940741 13.3333333,2.96296296 C13.3333333,3.12651852 13.4823333,3.25925926 13.6666667,3.25925926 Z" id="Path"></path>
            <path d="M13.6666667,1.77777778 C13.851,1.77777778 14,1.61530441 14,1.41511401 C14,0.905934086 14.359,0.725327531 14.6666667,0.725327531 C14.8463333,0.725327531 15.0176667,0.789156353 15.1366667,0.900856793 C15.2673333,1.02271182 15.3333333,1.1960651 15.3333333,1.41511401 C15.3333333,1.61530441 15.4823333,1.77777778 15.6666667,1.77777778 C15.851,1.77777778 16,1.61530441 16,1.41511401 C16,0.485969446 15.329,0 14.6666667,0 C14.0043333,0 13.3333333,0.485969446 13.3333333,1.41511401 C13.3333333,1.61530441 13.4823333,1.77777778 13.6666667,1.77777778 Z" id="Path"></path>
            <path d="M2.42962963,1.77777778 C2.6258963,1.77777778 2.78518519,1.61848889 2.78518519,1.42222222 C2.78518519,1.03004444 3.10411852,0.711111111 3.4962963,0.711111111 C3.69256296,0.711111111 3.85185185,0.551822222 3.85185185,0.355555556 C3.85185185,0.159288889 3.69256296,0 3.4962963,0 C2.71194074,0 2.07407407,0.637866667 2.07407407,1.42222222 C2.07407407,1.61848889 2.23336296,1.77777778 2.42962963,1.77777778 Z" id="Path"></path>
        </g>
    </g>
</svg>