<svg width="36" height="36" viewBox="0 0 36 36" fill="none" xmlns="http://www.w3.org/2000/svg"><path fill-rule="evenodd" clip-rule="evenodd" d="M10 4L10 15H26V4H23C22.4477 4 22 3.55228 22 3C22 2.44772 22.4477 2 23 2H26H28H31C31.5523 2 32 2.44772 32 3C32 3.55228 31.5523 4 31 4H28V15V17L28 28H31C31.5523 28 32 28.4477 32 29C32 29.5523 31.5523 30 31 30H28H26H23C22.4477 30 22 29.5523 22 29C22 28.4477 22.4477 28 23 28H26V17H10L10 28H13C13.5523 28 14 28.4477 14 29C14 29.5523 13.5523 30 13 30H10H8H5C4.44772 30 4 29.5523 4 29C4 28.4477 4.44772 28 5 28H8V17V15L8 4H5C4.44772 4 4 3.55228 4 3C4 2.44772 4.44772 2 5 2H8H10H13C13.5523 2 14 2.44772 14 3C14 3.55228 13.5523 4 13 4H10Z" fill="#5900E7"/><rect x="4" y="32" width="28" height="2" rx="1" fill="#1DD8A7"/></svg>
