<svg width="36" height="36" viewBox="0 0 36 36" fill="none" xmlns="http://www.w3.org/2000/svg">
<path fill-rule="evenodd" clip-rule="evenodd" d="M33 7C33.5523 7 34 7.44772 34 8V29C34 30.6569 32.6569 32 31 32H6C5.44772 32 5 31.5523 5 31C5 30.4477 5.44772 30 6 30H31C31.5523 30 32 29.5523 32 29V8C32 7.44772 32.4477 7 33 7Z" fill="#1DD8A7"/>
<path fill-rule="evenodd" clip-rule="evenodd" d="M28 6H4V24.5347L9.13005 16.284C9.71066 15.3502 11.0654 15.3378 11.663 16.2608L14.4402 20.5502L20.1054 11.2701C20.7273 10.2513 22.2322 10.3318 22.742 11.411L28 22.5418V6ZM27.4217 26H5.44401L10.4124 18.0092L13.1935 22.3046C13.7941 23.2321 15.1572 23.214 15.733 22.2709L21.3295 13.1033L27.4217 26ZM4 4C2.89543 4 2 4.89543 2 6V26C2 27.1046 2.89543 28 4 28H28C29.1046 28 30 27.1046 30 26V6C30 4.89543 29.1046 4 28 4H4ZM10 11C10 11.5523 9.55228 12 9 12C8.44772 12 8 11.5523 8 11C8 10.4477 8.44772 10 9 10C9.55228 10 10 10.4477 10 11ZM12 11C12 12.6569 10.6569 14 9 14C7.34315 14 6 12.6569 6 11C6 9.34315 7.34315 8 9 8C10.6569 8 12 9.34315 12 11Z" fill="#5900E7"/>
</svg>
