<svg xmlns="http://www.w3.org/2000/svg" width="36" height="36" viewBox="0 0 36 36" fill="none"><path fill="#5900E7" fill-rule="evenodd" d="M17.5 19.46 7 15.353v10.075l10.5 4.107V19.46ZM30 25.428l-10.5 4.107V19.46L30 15.353v10.075Zm-1.745-11.54L18.5 17.704l-9.755-3.816 3.87-1.513-.73-1.862-6.25 2.444-.635.249V26.793l.636.249 12.5 4.889.364.142.364-.142 12.5-4.89.636-.248V13.206l-.636-.249-6.25-2.444-.728 1.862 3.869 1.513ZM21.5 13.5c0 .553-1.343 1-3 1s-3-.447-3-1c0-.552 1.343-1 3-1s3 .448 3 1Z" clip-rule="evenodd"/><path fill="#1DD8A7" d="M18.5 11a4 4 0 1 0 0-8 4 4 0 0 0 0 8Z"/></svg>