<?xml version="1.0" encoding="utf-8"?>
<!-- Generator: Adobe Illustrator 22.0.0, SVG Export Plug-In . SVG Version: 6.00 Build 0)  -->
<svg version="1.1" id="Layer_1" xmlns="http://www.w3.org/2000/svg" xmlns:xlink="http://www.w3.org/1999/xlink" x="0px" y="0px"
	 viewBox="0 0 408.2 183.4" style="enable-background:new 0 0 408.2 183.4;" xml:space="preserve">
<style type="text/css">
	.st0{fill:#FFFFFF;}
	.st1{fill:none;stroke:#C6C6C6;stroke-miterlimit:10;}
	.st2{fill:#C6C6C6;}
	.st3{opacity:0.3;}
	.st4{fill:#3C3C3B;}
	.st5{fill:none;stroke:#FFFFFF;stroke-width:0.4365;stroke-miterlimit:10;}
	.st6{fill:none;stroke:#FFFFFF;stroke-width:0.4358;stroke-miterlimit:10;}
	.st7{fill:none;stroke:#FFFFFF;stroke-width:0.4352;stroke-miterlimit:10;}
	.st8{fill:none;}
	.st9{fill:none;stroke:#FFFFFF;stroke-width:0.4374;stroke-miterlimit:10;}
	.st10{opacity:0.62;fill:#ECECEC;}
	.st11{fill:none;stroke:#FFFFFF;stroke-width:0.3171;stroke-miterlimit:10;}
	.st12{fill:none;stroke:#FFFFFF;stroke-width:0.348;stroke-miterlimit:10;}
	.st13{fill:#575756;}
	.st14{fill:#868686;}
	.st15{fill:#6F6F6E;}
	.st16{fill:#F9BA24;}
	.st17{fill:#6941E0;}
	.st18{fill:none;stroke:#FFFFFF;stroke-width:0.3365;stroke-miterlimit:10;}
	.st19{fill:none;stroke:#FFFFFF;stroke-width:0.336;stroke-miterlimit:10;}
	.st20{fill:none;stroke:#FFFFFF;stroke-width:0.3355;stroke-miterlimit:10;}
	.st21{fill:none;stroke:#FFFFFF;stroke-width:0.3372;stroke-miterlimit:10;}
	.st22{fill:none;stroke:#FFFFFF;stroke-width:0.5824;stroke-miterlimit:10;}
	.st23{opacity:0.62;fill:#C4C2C2;}
	.st24{fill:none;stroke:#FFFFFF;stroke-width:0.4871;stroke-miterlimit:10;}
	.st25{fill:none;stroke:#FFFFFF;stroke-width:0.6078;stroke-miterlimit:10;}
	.st26{fill:none;stroke:#FFFFFF;stroke-width:0.2234;stroke-miterlimit:10;}
	.st27{fill:#E8E8E8;}
	.st28{fill:none;stroke:#FFFFFF;stroke-width:0.3824;stroke-miterlimit:10;}
	.st29{fill:none;stroke:#FFFFFF;stroke-width:0.3818;stroke-miterlimit:10;}
	.st30{fill:none;stroke:#FFFFFF;stroke-width:0.3813;stroke-miterlimit:10;}
	.st31{fill:none;stroke:#FFFFFF;stroke-width:0.3832;stroke-miterlimit:10;}
	.st32{fill:none;stroke:#FFFFFF;stroke-width:0.257;stroke-miterlimit:10;}
	.st33{fill:none;stroke:#FFFFFF;stroke-width:0.6653;stroke-miterlimit:10;}
	.st34{fill:#7B6CEA;}
	.st35{fill:#DADADA;}
	.st36{fill:none;stroke:#C6C6C6;stroke-width:0.5;stroke-miterlimit:10;}
	.st37{fill:none;stroke:#7B6CEA;stroke-miterlimit:10;}
	.st38{fill:#878787;}
	.st39{fill:#9D9D9C;}
	.st40{fill:#A6CE39;}
	.st41{filter:url(#Adobe_OpacityMaskFilter);}
	.st42{opacity:0.7;mask:url(#SVGID_1_);}
	.st43{fill:#FFCB08;}
	.st44{fill:#ED1651;}
	.st45{filter:url(#Adobe_OpacityMaskFilter_1_);}
	.st46{mask:url(#SVGID_2_);}
	.st47{fill:#00AEEF;}
	.st48{fill:#42ABED;}
	.st49{fill:#58585A;}
	.st50{fill:none;stroke:#7B6CEA;stroke-width:0.348;stroke-miterlimit:10;}
	.st51{fill:#ACACAD;}
	.st52{fill:none;stroke:#FFFFFF;stroke-width:0.5;stroke-miterlimit:10;}
	.st53{filter:url(#Adobe_OpacityMaskFilter_2_);}
	.st54{opacity:0.7;mask:url(#SVGID_3_);}
	.st55{filter:url(#Adobe_OpacityMaskFilter_3_);}
	.st56{mask:url(#SVGID_4_);}
	.st57{fill:#B2B2B2;}
	.st58{filter:url(#Adobe_OpacityMaskFilter_4_);}
	.st59{opacity:0.7;mask:url(#SVGID_5_);}
	.st60{filter:url(#Adobe_OpacityMaskFilter_5_);}
	.st61{mask:url(#SVGID_6_);}
	.st62{filter:url(#Adobe_OpacityMaskFilter_6_);}
	.st63{opacity:0.7;mask:url(#SVGID_7_);}
	.st64{filter:url(#Adobe_OpacityMaskFilter_7_);}
	.st65{mask:url(#SVGID_8_);}
	.st66{fill:none;stroke:#C6C6C6;stroke-width:0.9721;stroke-miterlimit:10;}
	.st67{fill:none;stroke:#FFFFFF;stroke-width:0.4243;stroke-miterlimit:10;}
	.st68{fill:none;stroke:#FFFFFF;stroke-width:0.4237;stroke-miterlimit:10;}
	.st69{fill:none;stroke:#FFFFFF;stroke-width:0.423;stroke-miterlimit:10;}
	.st70{fill:none;stroke:#FFFFFF;stroke-width:0.4252;stroke-miterlimit:10;}
	.st71{fill:none;stroke:#FFFFFF;stroke-width:2;stroke-miterlimit:10;}
	.st72{fill:none;stroke:#7B6CEA;stroke-width:0.75;stroke-miterlimit:10;}
	.st73{fill:none;stroke:#C6C6C6;stroke-width:1.622;stroke-miterlimit:10;}
	.st74{fill:none;stroke:#C6C6C6;stroke-width:0.811;stroke-miterlimit:10;}
	.st75{fill:none;stroke:#7B6CEA;stroke-width:1.622;stroke-miterlimit:10;}
	.st76{fill:none;stroke:#C6C6C6;stroke-width:1.5767;stroke-miterlimit:10;}
	.st77{fill:none;stroke:#FFFFFF;stroke-width:0.6882;stroke-miterlimit:10;}
	.st78{fill:none;stroke:#FFFFFF;stroke-width:0.6872;stroke-miterlimit:10;}
	.st79{fill:none;stroke:#FFFFFF;stroke-width:0.6862;stroke-miterlimit:10;}
	.st80{fill:none;stroke:#FFFFFF;stroke-width:0.6897;stroke-miterlimit:10;}
	.st81{fill:none;stroke:#FFFFFF;stroke-width:3.244;stroke-miterlimit:10;}
	.st82{fill:none;stroke:#FFFFFF;stroke-width:0.811;stroke-miterlimit:10;}
	.st83{fill:none;stroke:#7B6CEA;stroke-width:1.2165;stroke-miterlimit:10;}
	.st84{fill:none;stroke:#C6C6C6;stroke-width:1.584;stroke-miterlimit:10;}
	.st85{fill:none;stroke:#C6C6C6;stroke-width:0.396;stroke-miterlimit:10;}
	.st86{fill:none;stroke:#7B6CEA;stroke-width:1.188;stroke-miterlimit:10;}
	.st87{fill:none;stroke:#7B6CEA;stroke-width:1.584;stroke-miterlimit:10;}
	.st88{fill:none;stroke:#FFFFFF;stroke-width:0.792;stroke-miterlimit:10;}
	.st89{fill:none;stroke:#C6C6C6;stroke-width:1.5398;stroke-miterlimit:10;}
	.st90{fill:none;stroke:#FFFFFF;stroke-width:0.6721;stroke-miterlimit:10;}
	.st91{fill:none;stroke:#FFFFFF;stroke-width:0.6711;stroke-miterlimit:10;}
	.st92{fill:none;stroke:#FFFFFF;stroke-width:0.6701;stroke-miterlimit:10;}
	.st93{fill:none;stroke:#FFFFFF;stroke-width:0.6735;stroke-miterlimit:10;}
	.st94{fill:none;stroke:#FFFFFF;stroke-width:3.1681;stroke-miterlimit:10;}
	.st95{fill:#F5F6F8;}
	.st96{fill:none;stroke:#C6C6C6;stroke-width:3.229;stroke-miterlimit:10;}
	.st97{fill:none;stroke:#BE1622;stroke-width:10;stroke-miterlimit:10;}
</style>
<g>
	<path class="st0" d="M164.6,84.9c0,0-1,1.1-1,1.3c0,0.3,1.4-0.9,1.4-0.9l0.5,0.4l0.4-0.4c0,0-0.1-0.6,0-0.7
		c0.1-0.2,0.5-0.4,0.9-0.3l0.1,0.1l0.4-0.4l-1.4-1.4l-0.4,0.4c0,0,0.3,0.5-0.2,0.9c-0.4,0.4-0.9,0.1-0.9,0.1l-0.3,0.5L164.6,84.9z"
		/>
	<g>
		<g>
			<path class="st0" d="M380,173.2H35c-2.7,0-4.9-2.2-4.9-4.9V15.1c0-2.7,2.2-4.9,4.9-4.9h345c2.7,0,4.9,2.2,4.9,4.9v153.2
				C384.9,171,382.7,173.2,380,173.2z"/>
			<path class="st84" d="M380,173.2H35c-2.7,0-4.9-2.2-4.9-4.9V15.1c0-2.7,2.2-4.9,4.9-4.9h345c2.7,0,4.9,2.2,4.9,4.9v153.2
				C384.9,171,382.7,173.2,380,173.2z"/>
		</g>
		<g>
			<rect x="42.7" y="21.5" class="st2" width="107.5" height="134.5"/>
			<rect x="152.6" y="21.5" class="st2" width="107.5" height="134.5"/>
			<rect x="262.4" y="21.5" class="st2" width="107.5" height="134.5"/>
		</g>
		<polygon class="st34" points="36.5,115.1 9.1,88.3 35.6,61.2 36.5,115.1 		"/>
		<polygon class="st34" points="376.3,61.2 403.7,88 377.2,115.1 376.3,61.2 		"/>
	</g>
	<polygon class="st34" points="36.5,115.1 9.1,88.3 35.6,61.2 36.5,115.1 	"/>
	<polygon class="st34" points="376.3,61.2 403.7,88 377.2,115.1 376.3,61.2 	"/>
	<line class="st88" x1="48.1" y1="105.2" x2="141.5" y2="105.2"/>
	<line class="st88" x1="157.8" y1="105.2" x2="251.2" y2="105.2"/>
	<line class="st88" x1="269.8" y1="105.2" x2="363.2" y2="105.2"/>
	<g>
		<rect x="48.1" y="89.9" class="st0" width="87" height="5"/>
		<rect x="48.1" y="83.4" class="st0" width="64.6" height="5"/>
		<rect x="157.7" y="89.9" class="st0" width="87" height="5"/>
		<rect x="157.7" y="83.4" class="st0" width="84.9" height="5"/>
		<rect x="268.8" y="89.9" class="st0" width="87" height="5"/>
		<rect x="268.8" y="83.4" class="st0" width="84.9" height="5"/>
	</g>
	<g>
		<path class="st0" d="M48.6,74.4v-4.7h0.7l1.5,2.4c0.3,0.5,0.6,1,0.8,1.5l0,0c-0.1-0.6-0.1-1.2-0.1-1.9v-2h0.6v4.7h-0.6L50,72
			c-0.3-0.5-0.6-1.1-0.9-1.6l0,0c0,0.6,0,1.2,0,1.9v2H48.6z"/>
		<path class="st0" d="M55.6,72.2h-1.8v1.7h2v0.5h-2.6v-4.7h2.5v0.5h-1.9v1.5h1.8V72.2z"/>
		<path class="st0" d="M57.4,74.4l-1.2-4.7h0.6l0.6,2.4c0.1,0.6,0.3,1.2,0.3,1.6h0c0.1-0.5,0.2-1,0.4-1.6l0.6-2.4h0.6l0.6,2.4
			c0.1,0.6,0.3,1.1,0.3,1.6h0c0.1-0.5,0.2-1,0.4-1.6l0.6-2.4h0.6l-1.3,4.7h-0.6L59.3,72c-0.1-0.6-0.2-1.1-0.3-1.5h0
			c-0.1,0.5-0.2,0.9-0.4,1.5L58,74.4H57.4z"/>
		<path class="st0" d="M62.4,73.7c0.3,0.2,0.7,0.3,1.1,0.3c0.6,0,1-0.3,1-0.8c0-0.4-0.2-0.7-0.9-0.9c-0.8-0.3-1.2-0.7-1.2-1.3
			c0-0.7,0.6-1.3,1.5-1.3c0.5,0,0.8,0.1,1,0.2l-0.2,0.5c-0.2-0.1-0.5-0.2-0.9-0.2c-0.6,0-0.9,0.4-0.9,0.7c0,0.4,0.3,0.7,0.9,0.9
			c0.8,0.3,1.2,0.7,1.2,1.4c0,0.7-0.5,1.3-1.6,1.3c-0.5,0-0.9-0.1-1.2-0.3L62.4,73.7z"/>
		<path class="st0" d="M67.9,70.2h-1.4v-0.5H70v0.5h-1.4v4.2h-0.6V70.2z"/>
		<path class="st0" d="M71.1,69.7v4.7h-0.6v-4.7H71.1z"/>
		<path class="st0" d="M73,70.2h-1.4v-0.5h3.5v0.5h-1.4v4.2H73V70.2z"/>
		<path class="st0" d="M75.6,69.7h0.6v4.2h2v0.5h-2.6V69.7z"/>
		<path class="st0" d="M81.3,72.2h-1.8v1.7h2v0.5h-2.6v-4.7h2.5v0.5h-1.9v1.5h1.8V72.2z"/>
	</g>
	<g>
		<path class="st0" d="M116.2,116.3c0.2,0,0.5-0.1,0.8-0.1c0.5,0,0.8,0.1,1,0.3c0.2,0.1,0.3,0.4,0.3,0.6c0,0.4-0.3,0.7-0.6,0.9v0
			c0.3,0.1,0.4,0.3,0.5,0.7c0.1,0.5,0.2,0.8,0.3,0.9h-0.4c-0.1-0.1-0.1-0.4-0.2-0.8c-0.1-0.5-0.3-0.6-0.7-0.6h-0.4v1.4h-0.4V116.3z
			 M116.6,117.8h0.4c0.5,0,0.8-0.3,0.8-0.6c0-0.4-0.3-0.6-0.8-0.6c-0.2,0-0.4,0-0.4,0V117.8z"/>
		<path class="st0" d="M120.6,118h-1.3v1.2h1.4v0.4h-1.9v-3.3h1.8v0.4h-1.4v1.1h1.3V118z"/>
		<path class="st0" d="M121.8,118.5l-0.3,1.1H121l1.1-3.3h0.5l1.1,3.3h-0.5l-0.4-1.1H121.8z M122.9,118.2l-0.3-1
			c-0.1-0.2-0.1-0.4-0.2-0.6h0c0,0.2-0.1,0.4-0.2,0.6l-0.3,1H122.9z"/>
		<path class="st0" d="M124.3,116.3c0.3,0,0.6-0.1,0.9-0.1c0.6,0,1.1,0.1,1.4,0.4c0.3,0.3,0.5,0.7,0.5,1.2c0,0.5-0.2,1-0.5,1.3
			c-0.3,0.3-0.8,0.5-1.5,0.5c-0.3,0-0.6,0-0.8,0V116.3z M124.7,119.2c0.1,0,0.3,0,0.4,0c0.9,0,1.4-0.5,1.4-1.4
			c0-0.8-0.4-1.3-1.4-1.3c-0.2,0-0.4,0-0.5,0V119.2z"/>
		<path class="st0" d="M131.5,118.1c0-0.5-0.1-1,0-1.4h0c-0.1,0.4-0.3,0.8-0.4,1.3l-0.6,1.6h-0.3l-0.5-1.6c-0.2-0.5-0.3-0.9-0.4-1.3
			h0c0,0.4,0,1-0.1,1.5l-0.1,1.4h-0.4l0.2-3.3h0.6l0.6,1.6c0.1,0.4,0.3,0.8,0.3,1.1h0c0.1-0.3,0.2-0.7,0.4-1.1l0.6-1.6h0.6l0.2,3.3
			h-0.4L131.5,118.1z"/>
		<path class="st0" d="M135.5,117.9c0,1.2-0.7,1.8-1.6,1.8c-0.9,0-1.5-0.7-1.5-1.7c0-1.1,0.7-1.8,1.6-1.8
			C134.9,116.2,135.5,116.9,135.5,117.9z M132.9,117.9c0,0.7,0.4,1.4,1.1,1.4c0.7,0,1.1-0.6,1.1-1.4c0-0.7-0.3-1.4-1.1-1.4
			C133.3,116.5,132.9,117.2,132.9,117.9z"/>
		<path class="st0" d="M136.1,116.3c0.2,0,0.5-0.1,0.8-0.1c0.5,0,0.8,0.1,1,0.3c0.2,0.1,0.3,0.4,0.3,0.6c0,0.4-0.3,0.7-0.6,0.9v0
			c0.3,0.1,0.4,0.3,0.5,0.7c0.1,0.5,0.2,0.8,0.3,0.9h-0.4c-0.1-0.1-0.1-0.4-0.2-0.8c-0.1-0.5-0.3-0.6-0.7-0.6h-0.4v1.4h-0.4V116.3z
			 M136.5,117.8h0.4c0.5,0,0.8-0.3,0.8-0.6c0-0.4-0.3-0.6-0.8-0.6c-0.2,0-0.4,0-0.4,0V117.8z"/>
		<path class="st0" d="M140.5,118h-1.3v1.2h1.4v0.4h-1.9v-3.3h1.8v0.4h-1.4v1.1h1.3V118z"/>
	</g>
	<g>
		<path class="st0" d="M158.2,74.4v-4.7h0.7l1.5,2.4c0.3,0.5,0.6,1,0.8,1.5l0,0c-0.1-0.6-0.1-1.2-0.1-1.9v-2h0.6v4.7h-0.6l-1.5-2.4
			c-0.3-0.5-0.6-1.1-0.9-1.6l0,0c0,0.6,0,1.2,0,1.9v2H158.2z"/>
		<path class="st0" d="M165.1,72.2h-1.8v1.7h2v0.5h-2.6v-4.7h2.5v0.5h-1.9v1.5h1.8V72.2z"/>
		<path class="st0" d="M166.9,74.4l-1.2-4.7h0.6l0.6,2.4c0.1,0.6,0.3,1.2,0.3,1.6h0c0.1-0.5,0.2-1,0.4-1.6l0.6-2.4h0.6l0.6,2.4
			c0.1,0.6,0.3,1.1,0.3,1.6h0c0.1-0.5,0.2-1,0.4-1.6l0.6-2.4h0.6l-1.3,4.7h-0.6l-0.6-2.4c-0.1-0.6-0.2-1.1-0.3-1.5h0
			c-0.1,0.5-0.2,0.9-0.4,1.5l-0.7,2.4H166.9z"/>
		<path class="st0" d="M172,73.7c0.3,0.2,0.7,0.3,1.1,0.3c0.6,0,1-0.3,1-0.8c0-0.4-0.2-0.7-0.9-0.9c-0.8-0.3-1.2-0.7-1.2-1.3
			c0-0.7,0.6-1.3,1.5-1.3c0.5,0,0.8,0.1,1,0.2l-0.2,0.5c-0.2-0.1-0.5-0.2-0.9-0.2c-0.6,0-0.9,0.4-0.9,0.7c0,0.4,0.3,0.7,0.9,0.9
			c0.8,0.3,1.2,0.7,1.2,1.4c0,0.7-0.5,1.3-1.6,1.3c-0.5,0-0.9-0.1-1.2-0.3L172,73.7z"/>
		<path class="st0" d="M177.5,70.2h-1.4v-0.5h3.5v0.5h-1.4v4.2h-0.6V70.2z"/>
		<path class="st0" d="M180.7,69.7v4.7h-0.6v-4.7H180.7z"/>
		<path class="st0" d="M182.6,70.2h-1.4v-0.5h3.5v0.5h-1.4v4.2h-0.6V70.2z"/>
		<path class="st0" d="M185.2,69.7h0.6v4.2h2v0.5h-2.6V69.7z"/>
		<path class="st0" d="M190.8,72.2H189v1.7h2v0.5h-2.6v-4.7h2.5v0.5H189v1.5h1.8V72.2z"/>
	</g>
	<g>
		<path class="st0" d="M225.8,116.3c0.2,0,0.5-0.1,0.8-0.1c0.5,0,0.8,0.1,1,0.3c0.2,0.1,0.3,0.4,0.3,0.6c0,0.4-0.3,0.7-0.6,0.9v0
			c0.3,0.1,0.4,0.3,0.5,0.7c0.1,0.5,0.2,0.8,0.3,0.9h-0.4c-0.1-0.1-0.1-0.4-0.2-0.8c-0.1-0.5-0.3-0.6-0.7-0.6h-0.4v1.4h-0.4V116.3z
			 M226.2,117.8h0.4c0.5,0,0.8-0.3,0.8-0.6c0-0.4-0.3-0.6-0.8-0.6c-0.2,0-0.4,0-0.4,0V117.8z"/>
		<path class="st0" d="M230.2,118h-1.3v1.2h1.4v0.4h-1.9v-3.3h1.8v0.4h-1.4v1.1h1.3V118z"/>
		<path class="st0" d="M231.4,118.5l-0.3,1.1h-0.4l1.1-3.3h0.5l1.1,3.3h-0.5l-0.4-1.1H231.4z M232.5,118.2l-0.3-1
			c-0.1-0.2-0.1-0.4-0.2-0.6h0c0,0.2-0.1,0.4-0.2,0.6l-0.3,1H232.5z"/>
		<path class="st0" d="M233.9,116.3c0.3,0,0.6-0.1,0.9-0.1c0.6,0,1.1,0.1,1.4,0.4c0.3,0.3,0.5,0.7,0.5,1.2c0,0.5-0.2,1-0.5,1.3
			c-0.3,0.3-0.8,0.5-1.5,0.5c-0.3,0-0.6,0-0.8,0V116.3z M234.3,119.2c0.1,0,0.3,0,0.4,0c0.9,0,1.4-0.5,1.4-1.4
			c0-0.8-0.4-1.3-1.4-1.3c-0.2,0-0.4,0-0.5,0V119.2z"/>
		<path class="st0" d="M241.1,118.1c0-0.5-0.1-1,0-1.4h0c-0.1,0.4-0.3,0.8-0.4,1.3l-0.6,1.6h-0.3l-0.5-1.6c-0.2-0.5-0.3-0.9-0.4-1.3
			h0c0,0.4,0,1-0.1,1.5l-0.1,1.4h-0.4l0.2-3.3h0.6l0.6,1.6c0.1,0.4,0.3,0.8,0.3,1.1h0c0.1-0.3,0.2-0.7,0.4-1.1l0.6-1.6h0.6l0.2,3.3
			h-0.4L241.1,118.1z"/>
		<path class="st0" d="M245.1,117.9c0,1.2-0.7,1.8-1.6,1.8c-0.9,0-1.5-0.7-1.5-1.7c0-1.1,0.7-1.8,1.6-1.8
			C244.5,116.2,245.1,116.9,245.1,117.9z M242.5,117.9c0,0.7,0.4,1.4,1.1,1.4c0.7,0,1.1-0.6,1.1-1.4c0-0.7-0.3-1.4-1.1-1.4
			C242.9,116.5,242.5,117.2,242.5,117.9z"/>
		<path class="st0" d="M245.6,116.3c0.2,0,0.5-0.1,0.8-0.1c0.5,0,0.8,0.1,1,0.3c0.2,0.1,0.3,0.4,0.3,0.6c0,0.4-0.3,0.7-0.6,0.9v0
			c0.3,0.1,0.4,0.3,0.5,0.7c0.1,0.5,0.2,0.8,0.3,0.9h-0.4c-0.1-0.1-0.1-0.4-0.2-0.8c-0.1-0.5-0.3-0.6-0.7-0.6h-0.4v1.4h-0.4V116.3z
			 M246.1,117.8h0.4c0.5,0,0.8-0.3,0.8-0.6c0-0.4-0.3-0.6-0.8-0.6c-0.2,0-0.4,0-0.4,0V117.8z"/>
		<path class="st0" d="M250,118h-1.3v1.2h1.4v0.4h-1.9v-3.3h1.8v0.4h-1.4v1.1h1.3V118z"/>
	</g>
	<g>
		<path class="st0" d="M269.8,74.4v-4.7h0.7l1.5,2.4c0.3,0.5,0.6,1,0.8,1.5l0,0c-0.1-0.6-0.1-1.2-0.1-1.9v-2h0.6v4.7h-0.6l-1.5-2.4
			c-0.3-0.5-0.6-1.1-0.9-1.6l0,0c0,0.6,0,1.2,0,1.9v2H269.8z"/>
		<path class="st0" d="M276.8,72.2H275v1.7h2v0.5h-2.6v-4.7h2.5v0.5H275v1.5h1.8V72.2z"/>
		<path class="st0" d="M278.6,74.4l-1.2-4.7h0.6l0.6,2.4c0.1,0.6,0.3,1.2,0.3,1.6h0c0.1-0.5,0.2-1,0.4-1.6l0.6-2.4h0.6l0.6,2.4
			c0.1,0.6,0.3,1.1,0.3,1.6h0c0.1-0.5,0.2-1,0.4-1.6l0.6-2.4h0.6l-1.3,4.7h-0.6l-0.6-2.4c-0.1-0.6-0.2-1.1-0.3-1.5h0
			c-0.1,0.5-0.2,0.9-0.4,1.5l-0.7,2.4H278.6z"/>
		<path class="st0" d="M283.6,73.7c0.3,0.2,0.7,0.3,1.1,0.3c0.6,0,1-0.3,1-0.8c0-0.4-0.2-0.7-0.9-0.9c-0.8-0.3-1.2-0.7-1.2-1.3
			c0-0.7,0.6-1.3,1.5-1.3c0.5,0,0.8,0.1,1,0.2l-0.2,0.5c-0.2-0.1-0.5-0.2-0.9-0.2c-0.6,0-0.9,0.4-0.9,0.7c0,0.4,0.3,0.7,0.9,0.9
			c0.8,0.3,1.2,0.7,1.2,1.4c0,0.7-0.5,1.3-1.6,1.3c-0.5,0-0.9-0.1-1.2-0.3L283.6,73.7z"/>
		<path class="st0" d="M289.2,70.2h-1.4v-0.5h3.5v0.5h-1.4v4.2h-0.6V70.2z"/>
		<path class="st0" d="M292.3,69.7v4.7h-0.6v-4.7H292.3z"/>
		<path class="st0" d="M294.3,70.2h-1.4v-0.5h3.5v0.5h-1.4v4.2h-0.6V70.2z"/>
		<path class="st0" d="M296.8,69.7h0.6v4.2h2v0.5h-2.6V69.7z"/>
		<path class="st0" d="M302.5,72.2h-1.8v1.7h2v0.5h-2.6v-4.7h2.5v0.5h-1.9v1.5h1.8V72.2z"/>
	</g>
	<g>
		<path class="st0" d="M337.4,116.3c0.2,0,0.5-0.1,0.8-0.1c0.5,0,0.8,0.1,1,0.3c0.2,0.1,0.3,0.4,0.3,0.6c0,0.4-0.3,0.7-0.6,0.9v0
			c0.3,0.1,0.4,0.3,0.5,0.7c0.1,0.5,0.2,0.8,0.3,0.9h-0.4c-0.1-0.1-0.1-0.4-0.2-0.8c-0.1-0.5-0.3-0.6-0.7-0.6h-0.4v1.4h-0.4V116.3z
			 M337.8,117.8h0.4c0.5,0,0.8-0.3,0.8-0.6c0-0.4-0.3-0.6-0.8-0.6c-0.2,0-0.4,0-0.4,0V117.8z"/>
		<path class="st0" d="M341.8,118h-1.3v1.2h1.4v0.4h-1.9v-3.3h1.8v0.4h-1.4v1.1h1.3V118z"/>
		<path class="st0" d="M343,118.5l-0.3,1.1h-0.4l1.1-3.3h0.5l1.1,3.3h-0.5l-0.4-1.1H343z M344.1,118.2l-0.3-1
			c-0.1-0.2-0.1-0.4-0.2-0.6h0c0,0.2-0.1,0.4-0.2,0.6l-0.3,1H344.1z"/>
		<path class="st0" d="M345.5,116.3c0.3,0,0.6-0.1,0.9-0.1c0.6,0,1.1,0.1,1.4,0.4c0.3,0.3,0.5,0.7,0.5,1.2c0,0.5-0.2,1-0.5,1.3
			c-0.3,0.3-0.8,0.5-1.5,0.5c-0.3,0-0.6,0-0.8,0V116.3z M346,119.2c0.1,0,0.3,0,0.4,0c0.9,0,1.4-0.5,1.4-1.4c0-0.8-0.4-1.3-1.4-1.3
			c-0.2,0-0.4,0-0.5,0V119.2z"/>
		<path class="st0" d="M352.7,118.1c0-0.5-0.1-1,0-1.4h0c-0.1,0.4-0.3,0.8-0.4,1.3l-0.6,1.6h-0.3l-0.5-1.6c-0.2-0.5-0.3-0.9-0.4-1.3
			h0c0,0.4,0,1-0.1,1.5l-0.1,1.4h-0.4l0.2-3.3h0.6l0.6,1.6c0.1,0.4,0.3,0.8,0.3,1.1h0c0.1-0.3,0.2-0.7,0.4-1.1l0.6-1.6h0.6l0.2,3.3
			h-0.4L352.7,118.1z"/>
		<path class="st0" d="M356.7,117.9c0,1.2-0.7,1.8-1.6,1.8c-0.9,0-1.5-0.7-1.5-1.7c0-1.1,0.7-1.8,1.6-1.8
			C356.1,116.2,356.7,116.9,356.7,117.9z M354.1,117.9c0,0.7,0.4,1.4,1.1,1.4c0.7,0,1.1-0.6,1.1-1.4c0-0.7-0.3-1.4-1.1-1.4
			C354.5,116.5,354.1,117.2,354.1,117.9z"/>
		<path class="st0" d="M357.3,116.3c0.2,0,0.5-0.1,0.8-0.1c0.5,0,0.8,0.1,1,0.3c0.2,0.1,0.3,0.4,0.3,0.6c0,0.4-0.3,0.7-0.6,0.9v0
			c0.3,0.1,0.4,0.3,0.5,0.7c0.1,0.5,0.2,0.8,0.3,0.9H359c-0.1-0.1-0.1-0.4-0.2-0.8c-0.1-0.5-0.3-0.6-0.7-0.6h-0.4v1.4h-0.4V116.3z
			 M357.7,117.8h0.4c0.5,0,0.8-0.3,0.8-0.6c0-0.4-0.3-0.6-0.8-0.6c-0.2,0-0.4,0-0.4,0V117.8z"/>
		<path class="st0" d="M361.7,118h-1.3v1.2h1.4v0.4H360v-3.3h1.8v0.4h-1.4v1.1h1.3V118z"/>
	</g>
</g>
</svg>
