<svg id="Layer_1" data-name="Layer 1" xmlns="http://www.w3.org/2000/svg" xmlns:xlink="http://www.w3.org/1999/xlink"
     viewBox="0 0 28 28">
    <title>ICON REQ NEW</title>

    <rect stroke-width="1.2" stroke="#2b87da" fill="#2b87da" x="7.69" y="1.68" width="12.91" height="1.38"/>
    <rect stroke-width="1.2" stroke="#2b87da" fill="#2b87da" x="5.45" y="4.47" width="17.42" height="1.38"/>
    <polygon stroke-width="1.2" stroke="#2b87da" fill="#2b87da" points="24.84 7.26 24.8 7.26 3.52 7.26 3.52 8.64 24.84 8.64 24.84 7.26"/>
    <path stroke-width="1.2" stroke="#2b87da" fill="#2b87da" d="M2.81,10.09v16h22.7v-16ZM24.1,24.66H4.19V11.47H24.1Z"/>
    <path stroke-width="1.2" stroke="#2b87da" fill="#2b87da"
          d="M13.75,19.4h0a.5.5,0,0,0,.17.11.59.59,0,0,0,.22.05.78.78,0,0,0,.22,0,.63.63,0,0,0,.2-.13l1.75-1.75a.59.59,0,0,0,0-.83.59.59,0,0,0-.83,0l-.75.75V14.3a.58.58,0,0,0-1.16,0v3.27l-.76-.75a.58.58,0,0,0-.82.82Z"/>
    <path stroke-width="1.2" stroke="#2b87da" fill="#2b87da" d="M12.41,21.32h3.5a.59.59,0,1,0,0-1.17h-3.5a.59.59,0,1,0,0,1.17Z"/>
</svg>