<svg width="60" height="50" viewBox="0 0 60 50" xmlns="http://www.w3.org/2000/svg">
    <g fill="#B0B9C1" fill-rule="nonzero">
        <path d="M14.613 37.095 2.894 48.863a1.698 1.698 0 0 1-2.393-2.41l11.755-11.819a23.14 23.14 0 0 0 2.357 2.461zM30 0c11.046 0 20 8.954 20 20 0 1.291-.122 2.554-.356 3.777a14.37 14.37 0 0 0-3.42.192c.312-1.272.476-2.601.476-3.969 0-9.223-7.477-16.7-16.7-16.7-9.223 0-16.7 7.477-16.7 16.7 0 9.223 7.477 16.7 16.7 16.7 1.562 0 3.074-.214 4.508-.615a14.217 14.217 0 0 0-.08 3.423A20.046 20.046 0 0 1 30 40c-11.046 0-20-8.954-20-20S18.954 0 30 0zM45.702 32.624l2.596 2.745 2.564-2.71a5.525 5.525 0 0 1 2.285 2.335l-2.584 2.74 2.405 2.594a5.523 5.523 0 0 1-2.472 2.194l-2.198-2.324-2.226 2.354a5.522 5.522 0 0 1-2.5-2.16l2.443-2.608-2.645-2.822a5.525 5.525 0 0 1 2.332-2.338z"/>
        <path d="M48.25 26a11.501 11.501 0 1 1 0 23.002 11.501 11.501 0 0 1 0-23.002zm0 2.862a8.637 8.637 0 1 0 0 17.274 8.637 8.637 0 0 0 0-17.274z"/>
    </g>
</svg>
