<svg width="118" height="32" viewBox="0 0 118 32" fill="none" xmlns="http://www.w3.org/2000/svg">
<path d="M22.4581 14.9795C22.6894 14.9516 22.9112 14.9509 23.1146 14.9795C23.2325 14.7087 23.2528 14.2427 23.147 13.7355C22.9892 12.9811 22.7762 12.5246 22.3358 12.5956C21.8953 12.6666 21.8788 13.2131 22.0366 13.9676C22.1254 14.3917 22.2832 14.755 22.4587 14.9795H22.4581Z" fill="black"/>
<path d="M18.6752 15.5767C18.9908 15.7149 19.1841 15.8068 19.2602 15.7269C19.309 15.6768 19.2944 15.5817 19.219 15.4587C19.0637 15.2045 18.743 14.9471 18.404 14.8019C17.7094 14.5027 16.8811 14.6022 16.2422 15.0619C16.0312 15.2166 15.8316 15.4309 15.8601 15.5608C15.8696 15.6027 15.9007 15.6344 15.9748 15.6451C16.1484 15.6648 16.7562 15.3579 17.4565 15.3148C17.9508 15.2844 18.3602 15.4391 18.6752 15.5773V15.5767Z" fill="black"/>
<path d="M18.0408 15.9387C17.6302 16.0034 17.4039 16.139 17.2582 16.2652C17.1339 16.3736 17.0573 16.4935 17.0579 16.5778L17.0896 16.6526L17.1574 16.6786C17.2499 16.6786 17.4578 16.5955 17.4578 16.5955C18.0294 16.3907 18.4065 16.4155 18.7798 16.4579C18.9864 16.4814 19.084 16.4941 19.129 16.4231C19.1423 16.4028 19.1588 16.359 19.1176 16.2918C19.0213 16.1359 18.6068 15.8721 18.0415 15.9393L18.0408 15.9387Z" fill="black"/>
<path d="M21.1811 17.2676C21.4599 17.4045 21.7666 17.3506 21.8668 17.1471C21.9669 16.9436 21.8218 16.6678 21.5429 16.5309C21.2641 16.3939 20.9573 16.4478 20.8572 16.6513C20.7571 16.8548 20.9022 17.1306 21.1811 17.2676Z" fill="black"/>
<path d="M22.9733 15.7009C22.7471 15.6971 22.5589 15.9457 22.5538 16.257C22.5487 16.5676 22.7281 16.8225 22.9543 16.8263C23.1806 16.8301 23.3688 16.5816 23.3739 16.2709C23.3789 15.9602 23.1996 15.7054 22.9733 15.7009Z" fill="black"/>
<path d="M7.75887 21.3042C7.70247 21.2339 7.60994 21.2554 7.52058 21.2757C7.45784 21.2903 7.38686 21.3068 7.30954 21.3055C7.14287 21.3023 7.00154 21.2313 6.92232 21.1096C6.81902 20.9511 6.82536 20.7146 6.9388 20.4439L6.99204 20.3228C7.17392 19.9151 7.47749 19.2323 7.13653 18.5825C6.87986 18.093 6.46032 17.7881 5.95649 17.7241C5.47294 17.6626 4.97481 17.842 4.6573 18.1926C4.156 18.7454 4.07805 19.498 4.17501 19.7643C4.2105 19.8619 4.26627 19.8885 4.3062 19.8942C4.39176 19.9056 4.51724 19.8435 4.59646 19.6311L4.61927 19.562C4.65476 19.4498 4.72004 19.2406 4.82714 19.0726C4.95643 18.8703 5.15796 18.7308 5.39498 18.6801C5.63581 18.6288 5.88234 18.6744 6.08831 18.8095C6.43941 19.0396 6.57439 19.4694 6.42483 19.8803C6.34751 20.0927 6.2214 20.4984 6.24928 20.8319C6.30568 21.5071 6.72079 21.7785 7.09344 21.807C7.45594 21.8209 7.70944 21.6168 7.77345 21.4678C7.81147 21.3797 7.77915 21.3264 7.75887 21.303V21.3042Z" fill="black"/>
<path d="M28.6891 20.0692C28.6752 20.0204 28.5852 19.6913 28.4616 19.2951L28.21 18.6199C28.7056 17.8775 28.7145 17.2137 28.6486 16.8377C28.5782 16.3717 28.3843 15.9742 27.9933 15.564C27.6022 15.1532 26.8031 14.7328 25.6794 14.4177L25.09 14.2542C25.0869 14.2301 25.059 12.8638 25.0336 12.2774C25.0153 11.8532 24.9785 11.192 24.7732 10.5396C24.5285 9.65705 24.1027 8.88548 23.5703 8.39159C25.0387 6.86936 25.9551 5.19181 25.9526 3.75326C25.9481 0.986499 22.5519 0.148988 18.366 1.88297L17.4793 2.25957C17.4755 2.25576 15.8759 0.685984 15.8519 0.665062C11.0797 -3.49904 -3.84194 13.0927 0.928938 17.1224L1.97146 18.0062C1.70085 18.7067 1.59501 19.51 1.68183 20.3735C1.79337 21.4824 2.36502 22.5456 3.29219 23.3672C4.17184 24.1471 5.32907 24.641 6.45144 24.6397C8.3077 28.9198 12.5494 31.5452 17.5231 31.6929C22.858 31.8514 27.3367 29.3471 29.2132 24.8483C29.3362 24.5325 29.8571 23.1098 29.8571 21.8539C29.8571 20.5916 29.1441 20.0686 28.6897 20.0686L28.6891 20.0692ZM6.86148 23.4376C6.69924 23.4655 6.53383 23.4763 6.36715 23.4725C4.75552 23.4294 3.01524 21.9782 2.84223 20.2569C2.65084 18.3549 3.62238 16.8903 5.34301 16.5435C5.54835 16.5023 5.79741 16.4782 6.06549 16.4922C7.02942 16.5448 8.44966 17.2853 8.77414 19.3857C9.06122 21.2459 8.60492 23.1403 6.86148 23.4376ZM5.06226 15.4055C3.99122 15.6141 3.04757 16.2208 2.47022 17.0596C2.12546 16.7718 1.4822 16.2145 1.36876 15.9977C0.447287 14.2472 2.37452 10.8439 3.72061 8.92225C7.0478 4.17234 12.2585 0.577571 14.6712 1.22932C15.0635 1.34027 16.362 2.84665 16.362 2.84665C16.362 2.84665 13.9506 4.18502 11.7147 6.05087C8.70189 8.37194 6.42546 11.7448 5.06226 15.4055ZM21.9758 22.7263C22.0106 22.7117 22.0347 22.6711 22.0309 22.6318C22.0259 22.583 21.9821 22.5475 21.9333 22.5526C21.9333 22.5526 19.4091 22.9266 17.0243 22.053C17.2841 21.2085 17.9749 21.5134 19.0187 21.5978C20.9003 21.71 22.5867 21.4348 23.8327 21.0772C24.9126 20.7672 26.3309 20.1561 27.433 19.2862C27.8044 20.1028 27.9356 21.0012 27.9356 21.0012C27.9356 21.0012 28.2233 20.9498 28.4635 21.0975C28.6904 21.2377 28.8571 21.528 28.7436 22.2799C28.5117 23.6842 27.9153 24.8235 26.9127 25.8722C26.3024 26.5296 25.5616 27.1009 24.7136 27.5161C24.2636 27.7526 23.7839 27.9574 23.2775 28.1229C19.4978 29.3579 15.6281 27.9999 14.3809 25.0841C14.2814 24.8648 14.1971 24.6352 14.1306 24.3956C13.5989 22.4739 14.0501 20.1687 15.4608 18.7175V18.7169C15.5477 18.6243 15.6364 18.5159 15.6364 18.379C15.6364 18.2642 15.5635 18.1437 15.5008 18.0582C15.0071 17.3424 13.2978 16.1219 13.6413 13.7603C13.8879 12.0637 15.3708 10.8693 16.7537 10.9403L17.1042 10.9606C17.703 10.9961 18.2259 11.0728 18.7196 11.0937C19.5454 11.1292 20.2875 11.0094 21.1665 10.2765C21.4631 10.0292 21.7007 9.81492 22.1032 9.74644C22.1456 9.73947 22.2508 9.70143 22.4606 9.71158C22.6755 9.72299 22.8795 9.78195 23.0633 9.90431C23.768 10.3735 23.8682 11.5102 23.9049 12.3414C23.9258 12.8163 23.9829 13.9644 24.0025 14.2935C24.0475 15.0473 24.2453 15.1532 24.6458 15.2857C24.8714 15.3599 25.0805 15.415 25.3885 15.5019C26.3214 15.7637 26.8747 16.03 27.2239 16.3711C27.4318 16.5847 27.5287 16.8111 27.5585 17.0279C27.6688 17.8312 26.9355 18.8228 24.9943 19.7243C22.8726 20.7095 20.2989 20.9587 18.5206 20.7609L17.8976 20.6905C16.4748 20.499 15.6636 22.3383 16.5173 23.598C17.0674 24.4102 18.5662 24.9383 20.0657 24.9389C23.5038 24.9396 26.1465 23.4706 27.1295 22.202L27.208 22.0897C27.2562 22.0168 27.2163 21.9769 27.1561 22.0181C26.3531 22.5678 22.7857 24.7506 18.9699 24.0938C18.9699 24.0938 18.506 24.0177 18.0833 23.8529C17.7468 23.7223 17.0433 23.3983 16.9578 22.6756C20.0372 23.6285 21.9758 22.7275 21.9758 22.7275V22.7263ZM17.0978 22.15L17.0984 22.1506L17.0991 22.1519L17.0978 22.1493V22.15ZM11.2071 8.90196C12.3897 7.53443 13.846 6.34568 15.1503 5.67808C15.1953 5.65526 15.2435 5.70408 15.2187 5.74846C15.1154 5.93612 14.9158 6.33807 14.8524 6.64239C14.8423 6.68994 14.8943 6.72545 14.9342 6.69818C15.7454 6.1447 17.1574 5.55192 18.3957 5.47584C18.449 5.47267 18.4743 5.5405 18.4325 5.57347C18.2443 5.71802 18.0383 5.91773 17.8881 6.11998C17.8628 6.15421 17.8868 6.20367 17.9293 6.2043C18.7988 6.21064 20.0245 6.51496 20.823 6.9632C20.8769 6.99363 20.8388 7.09824 20.778 7.08429C19.5694 6.80723 17.5909 6.59674 15.5356 7.09824C13.7009 7.54584 12.3003 8.2369 11.2787 8.98058C11.2274 9.01798 11.1653 8.95014 11.2071 8.90133V8.90196Z" fill="black"/>
<path d="M114.064 12.1169C112.295 12.1169 111.485 13.4433 111.133 14.1983C110.9 14.6973 110.912 14.8438 110.742 14.8438C110.496 14.8438 110.7 14.4431 110.811 13.9714C111.029 13.0432 110.862 12.3344 110.862 12.3344H108.343V24.4304H111.782V20.5954C112.189 21.2858 112.943 22.0238 114.105 22.0238C116.592 22.0238 117.844 19.9183 117.844 17.0742C117.844 13.8503 116.346 12.1157 114.063 12.1157L114.064 12.1169ZM113.119 19.7788C112.33 19.7788 111.75 18.7783 111.75 17.3835C111.75 16.0293 112.347 14.9889 113.092 14.9889C114.049 14.9889 114.457 15.867 114.457 17.3835C114.457 18.9609 114.081 19.7788 113.119 19.7788Z" fill="black"/>
<path d="M45.699 12.117C44.1862 12.117 43.4378 13.3082 43.0943 14.076C42.9022 14.5052 42.849 14.8444 42.6931 14.8444C42.4738 14.8444 42.631 14.5496 42.4516 13.896C42.2153 13.0356 41.5042 12.117 39.9921 12.117C38.4026 12.117 37.722 13.4604 37.3994 14.1984C37.1788 14.703 37.1782 14.8438 37.0084 14.8438C36.7625 14.8438 36.9665 14.4431 37.0768 13.9714C37.2948 13.0432 37.1288 12.3344 37.1288 12.3344H34.609V21.8127H38.0483V17.097C38.0483 16.1669 38.4375 14.9864 39.1042 14.9864C39.8742 14.9864 40.0288 15.5786 40.0288 16.6741V21.8152H43.4821V17.097C43.4821 16.269 43.8199 14.9864 44.543 14.9864C45.3238 14.9864 45.4626 15.8176 45.4626 16.6741V21.8127H48.8538V16.2386C48.8538 13.7647 47.9824 12.1157 45.6996 12.1157L45.699 12.117ZM104.076 12.117C102.564 12.117 101.815 13.3082 101.472 14.076C101.28 14.5052 101.226 14.8444 101.07 14.8444C100.851 14.8444 100.998 14.4697 100.829 13.896C100.577 13.0401 99.9499 12.117 98.3693 12.117C96.7799 12.117 96.0992 13.4604 95.7767 14.1984C95.5561 14.703 95.5555 14.8438 95.3856 14.8438C95.1397 14.8438 95.3438 14.4431 95.4541 13.9714C95.6721 13.0432 95.5061 12.3344 95.5061 12.3344H92.9863V21.8127H96.4256V17.097C96.4256 16.1669 96.8148 14.9864 97.4815 14.9864C98.2515 14.9864 98.4061 15.5786 98.4061 16.6741V21.8152H101.859V17.097C101.859 16.269 102.197 14.9864 102.92 14.9864C103.701 14.9864 103.84 15.8176 103.84 16.6741V21.8127H107.231V16.2386C107.231 13.7647 106.36 12.1157 104.077 12.1157L104.076 12.117ZM54.7255 12.1189C52.091 12.1189 50.2005 13.0876 50.2005 13.0876V15.9362C50.2005 15.9362 52.2881 14.7354 53.9815 14.7354C55.3333 14.7354 55.4993 15.4645 55.4378 16.0699C55.4378 16.0699 55.0481 15.9666 53.8585 15.9666C51.0554 15.9666 49.6403 17.2409 49.6403 19.2849C49.6403 21.2237 51.2304 22.0339 52.5707 22.0339C54.5259 22.0339 55.3852 20.7197 55.6495 20.0958C55.8326 19.6634 55.8662 19.3718 56.031 19.3718C56.2186 19.3718 56.1552 19.581 56.1464 20.0115C56.1305 20.7653 56.166 21.3359 56.2858 21.8158H58.8778V17.1509C58.8778 14.2383 57.848 12.1189 54.7261 12.1189H54.7255ZM53.8883 19.5981C53.0657 19.7883 52.6398 19.5347 52.6398 18.9895C52.6398 18.2426 53.4124 17.9434 54.5144 17.9434C55.0005 17.9434 55.4575 17.9852 55.4575 17.9852C55.4575 18.3054 54.7635 19.3965 53.8883 19.5981ZM64.5429 9.46558H67.9823V21.8158H64.5429V9.46558ZM71.7677 17.0761C71.7677 16.224 72.5592 15.4486 74.0118 15.4486C75.5949 15.4486 76.8681 16.2113 77.1539 16.3844V13.0876C77.1539 13.0876 76.1481 12.1189 73.6753 12.1189C71.0686 12.1189 68.898 13.6449 68.898 16.929C68.898 20.2131 70.8677 22.0339 73.6683 22.0339C75.8554 22.0339 77.1596 20.8319 77.1596 20.8319V17.7006C76.747 17.9313 75.5974 18.7295 74.0276 18.7295C72.3653 18.7295 71.767 17.9643 71.767 17.0767L71.7677 17.0761ZM84.1214 12.1189C82.1301 12.1189 81.3728 14.0063 81.2201 14.334C81.0673 14.6618 80.9913 14.8501 80.8664 14.8463C80.649 14.8393 80.8005 14.4437 80.8854 14.1882C81.0458 13.7045 81.3848 12.4365 81.3848 10.8769C81.3848 9.81935 81.2416 9.46558 81.2416 9.46558H78.2725V21.8158H81.7118V17.1002C81.7118 16.3318 82.0179 14.9896 82.8849 14.9896C83.6023 14.9896 83.8273 15.5215 83.8273 16.593V21.8165H87.2667V16.7997C87.2667 14.3664 86.8636 12.1201 84.1214 12.1201V12.1189ZM88.3846 12.3477V21.8152H91.824V12.3477C91.824 12.3477 91.246 12.6863 90.1078 12.6863C88.9696 12.6863 88.3846 12.3477 88.3846 12.3477Z" fill="black"/>
<path d="M92.1998 10.7444C92.1998 11.5035 91.2574 12.1189 90.0944 12.1189C88.9315 12.1189 87.9891 11.5035 87.9891 10.7444C87.9891 9.98523 88.9315 9.36987 90.0944 9.36987C91.2574 9.36987 92.1998 9.98523 92.1998 10.7444Z" fill="black"/>
<path d="M59.9901 12.3477V21.8152H63.4294V12.3477C63.4294 12.3477 62.8514 12.6863 61.7132 12.6863L59.9901 12.3477Z" fill="black"/>
<path d="M63.8052 10.7444C63.8052 11.5035 62.8627 12.1189 61.6999 12.1189C60.5372 12.1189 59.5946 11.5035 59.5946 10.7444C59.5946 9.98523 60.5372 9.36987 61.6999 9.36987C62.8627 9.36987 63.8052 9.98523 63.8052 10.7444Z" fill="black"/>
</svg>
