<?xml version="1.0" encoding="iso-8859-1"?>
<!-- Generator: Adobe Illustrator 19.0.0, SVG Export Plug-In . SVG Version: 6.00 Build 0)  -->
<svg xmlns:xlink="http://www.w3.org/1999/xlink" version="1.1" id="Capa_1" xmlns="http://www.w3.org/2000/svg" x="0px"
     y="0px"
     viewBox="0 0 397.061 397.061" style="enable-background:new 0 0 397.061 397.061;" xml:space="preserve">
<g>
	<g>
		<g>
			<rect x="104.49" y="208.98" width="83.592" height="83.592"/>
            <rect x="104.49" y="0" width="83.592" height="83.592"/>
            <rect x="104.49" y="313.469" width="83.592" height="83.592"/>
            <rect x="104.49" y="104.49" width="83.592" height="83.592"/>
            <rect x="5.224" y="208.98" width="78.367" height="83.592"/>
            <rect x="5.224" y="313.469" width="78.367" height="83.592"/>
            <rect x="5.224" y="0" width="78.367" height="83.592"/>
            <rect x="5.224" y="104.49" width="78.367" height="83.592"/>
            <rect x="208.98" y="208.98" width="83.592" height="83.592"/>
            <rect x="313.469" y="104.49" width="78.367" height="83.592"/>
            <rect x="313.469" y="208.98" width="78.367" height="83.592"/>
            <rect x="313.469" y="0" width="78.367" height="83.592"/>
            <rect x="208.98" y="313.469" width="83.592" height="83.592"/>
            <rect x="208.98" y="104.49" width="83.592" height="83.592"/>
            <rect x="208.98" y="0" width="83.592" height="83.592"/>
            <rect x="313.469" y="313.469" width="78.367" height="83.592"/>
		</g>
	</g>
</g>
    <g>
</g>
    <g>
</g>
    <g>
</g>
    <g>
</g>
    <g>
</g>
    <g>
</g>
    <g>
</g>
    <g>
</g>
    <g>
</g>
    <g>
</g>
    <g>
</g>
    <g>
</g>
    <g>
</g>
    <g>
</g>
    <g>
</g>
</svg>
