<svg xmlns="http://www.w3.org/2000/svg" style="display: none;">
    <symbol id="shopping-bag" viewBox="0 0 512 512">
        <title>shopping-bag</title>
        <path d="m452 120h-60.946c-7.945-67.478-65.477-120-135.054-120s-127.109 52.522-135.054 120h-60.946c-11.046 0-20 8.954-20 20v352c0 11.046 8.954 20 20 20h392c11.046 0 20-8.954 20-20v-352c0-11.046-8.954-20-20-20zm-196-80c47.484 0 87.019 34.655 94.659 80h-189.318c7.64-45.345 47.175-80 94.659-80zm176 432h-352v-312h40v60c0 11.046 8.954 20 20 20s20-8.954 20-20v-60h192v60c0 11.046 8.954 20 20 20s20-8.954 20-20v-60h40z"/>
    </symbol>
    <symbol id="heart" viewBox="0 0 512 512">
        <title>heart</title>
        <path d="M374,39.221c-42.59,0-79.926,18.991-107.971,54.921c-3.74,4.792-7.074,9.586-10.029,14.229 c-2.955-4.644-6.289-9.437-10.029-14.229C217.926,58.212,180.59,39.221,138,39.221c-80.456,0-138,67.367-138,148.204 c0,92.433,75.757,179.547,245.637,282.46c3.185,1.929,6.774,2.894,10.363,2.894s7.178-0.964,10.363-2.893 C436.243,366.973,512,279.859,512,187.426C512,106.631,454.503,39.221,374,39.221z M419.157,302.52 C383.79,341.982,330.345,383.534,256,429.343c-74.345-45.809-127.79-87.361-163.157-126.822C57.285,262.845,40,225.197,40,187.426 c0-58.204,39.334-108.205,98-108.205c29.876,0,55.35,12.99,75.715,38.61c16.284,20.489,23.145,41.646,23.193,41.797 c2.605,8.355,10.341,14.046,19.093,14.046c8.752,0,16.488-5.69,19.093-14.046c0.063-0.202,6.718-20.699,22.467-40.875 C318.036,92.521,343.754,79.22,374,79.22c58.728,0,98,50.049,98,108.205C472,225.196,454.715,262.844,419.157,302.52z"/>
    </symbol>
    <symbol id="shuffle" viewBox="0 0 512 512">
        <title>shuffle</title>
        <path d="M507.734,418.093c0.227-0.303,0.462-0.6,0.673-0.915c0.203-0.304,0.379-0.619,0.565-0.931 c0.171-0.286,0.35-0.565,0.507-0.859c0.17-0.318,0.314-0.645,0.467-0.97c0.145-0.306,0.298-0.608,0.428-0.922 c0.13-0.315,0.236-0.637,0.35-0.957c0.121-0.337,0.25-0.669,0.354-1.013c0.097-0.32,0.168-0.646,0.249-0.969 c0.089-0.351,0.187-0.698,0.258-1.055c0.074-0.375,0.118-0.753,0.173-1.13c0.044-0.311,0.104-0.617,0.135-0.932 c0.138-1.4,0.138-2.811,0-4.211c-0.031-0.316-0.09-0.622-0.135-0.933c-0.054-0.377-0.098-0.755-0.172-1.13 c-0.071-0.358-0.169-0.705-0.258-1.056c-0.081-0.323-0.152-0.648-0.249-0.968c-0.104-0.345-0.234-0.677-0.355-1.014 c-0.115-0.32-0.22-0.642-0.35-0.957c-0.13-0.314-0.283-0.615-0.428-0.921c-0.153-0.325-0.297-0.653-0.468-0.971 c-0.157-0.293-0.336-0.572-0.506-0.857c-0.186-0.312-0.363-0.628-0.566-0.932c-0.211-0.315-0.445-0.611-0.671-0.913 c-0.191-0.255-0.368-0.516-0.571-0.764c-0.439-0.535-0.903-1.05-1.392-1.54c-0.007-0.008-0.014-0.016-0.021-0.023l-64-64 c-8.331-8.331-21.839-8.331-30.17,0c-8.331,8.331-8.331,21.839,0,30.17L439.164,384h-76.497c-70.693,0-128-57.307-128-128 s57.307-128,128-128h76.497l-27.582,27.582c-8.331,8.331-8.331,21.839,0,30.17c8.331,8.331,21.839,8.331,30.17,0l64-64 c0.004-0.004,0.007-0.008,0.011-0.012c0.492-0.493,0.959-1.012,1.402-1.551c0.203-0.247,0.379-0.507,0.568-0.76 c0.227-0.304,0.463-0.601,0.674-0.917c0.203-0.303,0.379-0.618,0.565-0.93c0.171-0.286,0.35-0.565,0.508-0.86 c0.17-0.318,0.314-0.645,0.467-0.969c0.145-0.307,0.298-0.609,0.428-0.923c0.13-0.315,0.235-0.636,0.35-0.956 c0.121-0.337,0.25-0.67,0.355-1.015c0.097-0.32,0.168-0.645,0.249-0.968c0.089-0.351,0.187-0.698,0.258-1.056 c0.074-0.375,0.118-0.753,0.172-1.13c0.044-0.311,0.104-0.618,0.135-0.933c0.138-1.4,0.138-2.811,0-4.211 c-0.031-0.315-0.09-0.621-0.135-0.932c-0.054-0.378-0.098-0.756-0.173-1.13c-0.071-0.358-0.169-0.704-0.258-1.055 c-0.081-0.324-0.152-0.649-0.249-0.969c-0.104-0.344-0.233-0.677-0.354-1.013c-0.115-0.32-0.22-0.642-0.35-0.957 c-0.13-0.314-0.283-0.616-0.428-0.922c-0.153-0.325-0.297-0.652-0.467-0.97c-0.157-0.294-0.337-0.573-0.507-0.859 c-0.186-0.312-0.362-0.627-0.565-0.931c-0.211-0.315-0.446-0.612-0.673-0.915c-0.19-0.254-0.367-0.515-0.57-0.762 c-0.443-0.539-0.909-1.058-1.402-1.551c-0.004-0.004-0.007-0.008-0.011-0.012l-64-64c-8.331-8.331-21.839-8.331-30.17,0 c-8.331,8.331-8.331,21.839,0,30.17l27.582,27.582h-76.497c-64.264,0-120.222,35.525-149.333,88.002 C184.222,120.858,128.264,85.333,64,85.333H21.333C9.551,85.333,0,94.885,0,106.667C0,118.449,9.551,128,21.333,128H64 c70.693,0,128,57.307,128,128S134.693,384,64,384H21.333C9.551,384,0,393.551,0,405.333c0,11.782,9.551,21.333,21.333,21.333H64 c64.264,0,120.222-35.525,149.333-88.002c29.111,52.477,85.069,88.002,149.333,88.002h76.497l-27.582,27.582 c-8.331,8.331-8.331,21.839,0,30.17c8.331,8.331,21.839,8.331,30.17,0l64-64c0.004-0.004,0.007-0.008,0.011-0.012 c0.492-0.493,0.959-1.012,1.402-1.551C507.368,418.608,507.544,418.347,507.734,418.093z"/>
    </symbol>
    <symbol id="loupe" viewBox="0 0 512 512">
        <title>loupe</title>
        <g>
            <g>
                <path d="M225.474,0C101.151,0,0,101.151,0,225.474c0,124.33,101.151,225.474,225.474,225.474 c124.33,0,225.474-101.144,225.474-225.474C450.948,101.151,349.804,0,225.474,0z M225.474,409.323 c-101.373,0-183.848-82.475-183.848-183.848S124.101,41.626,225.474,41.626s183.848,82.475,183.848,183.848 S326.847,409.323,225.474,409.323z"/>
            </g>
        </g>
        <g>
            <g>
                <path d="M505.902,476.472L386.574,357.144c-8.131-8.131-21.299-8.131-29.43,0c-8.131,8.124-8.131,21.306,0,29.43l119.328,119.328 c4.065,4.065,9.387,6.098,14.715,6.098c5.321,0,10.649-2.033,14.715-6.098C514.033,497.778,514.033,484.596,505.902,476.472z"/>
            </g>
        </g>
    </symbol>
</svg>
