<svg width="20" height="20" viewBox="0 0 20 20" xmlns="http://www.w3.org/2000/svg">
    <circle fill="none" stroke="#444" cx="9.95" cy="7.14" r="1.7" />
    <circle fill="none" stroke="#444" cx="6.79" cy="12.6" r="1.7" />
    <circle fill="none" stroke="#444" cx="13.11" cy="12.6" r="1.7" />
    <line fill="none" stroke="#444" x1="12.26" y1="11.13" x2="10.8" y2="8.62" />
    <line fill="none" stroke="#444" x1="8.5" y1="12.6" x2="11.39" y2="12.6" />
    <line fill="none" stroke="#444" x1="9.1" y1="8.61" x2="7.64" y2="11.12" />
    <polyline fill="none" stroke="#444" points="3.5 8.5 1.5 8.5 1.5 1.5 8.5 1.5 8.5 3.5" />
    <polyline fill="none" stroke="#444" points="11.5 3.5 11.5 1.5 18.5 1.5 18.5 8.5 16.5 8.5" />
    <polyline fill="none" stroke="#444" points="16.5 11.5 18.5 11.5 18.5 18.5 11.5 18.5 11.5 16.5" />
    <polyline fill="none" stroke="#444" points="8.5 16.5 8.5 18.5 1.5 18.5 1.5 11.5 3.5 11.5" />
</svg>
