<?xml version="1.0" encoding="utf-8"?>
<!-- Generated by IcoMoon.io -->
<!DOCTYPE svg PUBLIC "-//W3C//DTD SVG 1.1//EN" "http://www.w3.org/Graphics/SVG/1.1/DTD/svg11.dtd">
<svg version="1.1" xmlns="http://www.w3.org/2000/svg" xmlns:xlink="http://www.w3.org/1999/xlink" width="16" height="16" viewBox="0 0 16 16">
<path fill="#000" d="M8 0c-4.418 0-8 3.582-8 8s3.582 8 8 8c4.418 0 8-3.582 8-8s-3.582-8-8-8zM8.776 10.689c-0.727-0.056-1.032-0.416-1.602-0.763-0.313 1.643-0.696 3.219-1.83 4.042-0.35-2.484 0.514-4.349 0.915-6.33-0.684-1.152 0.082-3.469 1.525-2.898 1.775 0.702-1.538 4.281 0.686 4.728 2.322 0.467 3.27-4.029 1.83-5.491-2.081-2.111-6.056-0.048-5.567 2.974 0.119 0.739 0.882 0.963 0.305 1.983-1.332-0.295-1.729-1.345-1.678-2.745 0.082-2.292 2.059-3.896 4.042-4.118 2.508-0.281 4.861 0.92 5.186 3.279 0.366 2.662-1.132 5.546-3.813 5.338z"></path>
</svg>
