<?xml version="1.0" encoding="utf-8"?>
<!-- Generated by IcoMoon.io -->
<!DOCTYPE svg PUBLIC "-//W3C//DTD SVG 1.1//EN" "http://www.w3.org/Graphics/SVG/1.1/DTD/svg11.dtd">
<svg version="1.1" xmlns="http://www.w3.org/2000/svg" xmlns:xlink="http://www.w3.org/1999/xlink" width="16" height="16" viewBox="0 0 16 16">
<path fill="#000" d="M15.239 9.030c0.044-0.325 0.069-0.655 0.069-0.992 0-4.036-3.29-7.309-7.347-7.309-0.403 0-0.799 0.033-1.183 0.096-0.69-0.45-1.511-0.711-2.394-0.711-2.423 0-4.384 1.963-4.384 4.385 0 0.881 0.259 1.7 0.706 2.387-0.060 0.376-0.091 0.76-0.091 1.152 0 4.037 3.288 7.309 7.346 7.309 0.458 0 0.904-0.045 1.337-0.123 0.673 0.418 1.467 0.661 2.317 0.661 2.422 0 4.384-1.963 4.384-4.385-0-0.915-0.28-1.767-0.761-2.47zM8.648 13.425c-2.335 0.122-3.427-0.395-4.428-1.334-1.118-1.049-0.669-2.245 0.242-2.306s1.456 1.032 1.942 1.335c0.485 0.303 2.331 0.992 3.306-0.122 1.062-1.213-0.706-1.841-2.002-2.031-1.85-0.274-4.186-1.275-4.004-3.247 0.182-1.971 1.674-2.982 3.245-3.124 2.002-0.182 3.306 0.303 4.337 1.183 1.192 1.017 0.547 2.153-0.212 2.244-0.757 0.091-1.606-1.672-3.275-1.699-1.72-0.027-2.882 1.789-0.759 2.306 2.124 0.516 4.398 0.728 5.218 2.669s-1.274 4.004-3.61 4.126z"></path>
</svg>
