<?xml version="1.0" encoding="UTF-8"?>
<svg width="50px" height="36px" viewBox="0 0 50 36" version="1.1" xmlns="http://www.w3.org/2000/svg" xmlns:xlink="http://www.w3.org/1999/xlink">
    <title>BLACKFRIDAY</title>
    <g id="Page-1" stroke="none" stroke-width="1" fill="none" fill-rule="evenodd">
        <g id="Add-rule" transform="translate(-855.000000, -458.000000)" fill="#929292" fill-rule="nonzero">
            <path d="M860.958097,475 C861.56321,475 862.172585,474.8125 862.786222,474.4375 C863.331676,474.105114 863.753551,473.661932 864.051847,473.107955 C864.435369,472.400568 864.627131,471.539773 864.627131,470.525568 C864.627131,470.116477 864.597301,469.745739 864.537642,469.413352 C864.418324,468.765625 864.235085,468.237216 863.987926,467.828125 C863.612926,467.223011 863.15696,466.818182 862.620028,466.613636 C862.943892,466.46875 863.225142,466.259943 863.463778,465.987216 C864.034801,465.339489 864.320312,464.478693 864.320312,463.40483 C864.320312,462.74858 864.243608,462.181818 864.090199,461.704545 C863.808949,460.809659 863.340199,460.149148 862.683949,459.723011 C861.916903,459.22017 861.056108,458.96875 860.101562,458.96875 L860.101562,458.96875 L856.483665,458.96875 L856.483665,475 L860.958097,475 Z M860.101562,465.514205 L859.091619,465.514205 L859.091619,461.423295 L860.101562,461.423295 C860.578835,461.423295 860.966619,461.580966 861.264915,461.896307 C861.588778,462.237216 861.75071,462.740057 861.75071,463.40483 C861.75071,463.805398 861.703835,464.142045 861.610085,464.414773 C861.354403,465.147727 860.851562,465.514205 860.101562,465.514205 L860.101562,465.514205 Z M860.101562,472.609375 L859.091619,472.609375 L859.091619,467.828125 L860.101562,467.828125 C860.698153,467.828125 861.149858,468.015625 861.456676,468.390625 C861.797585,468.799716 861.96804,469.451705 861.96804,470.346591 C861.96804,470.721591 861.912642,471.053977 861.801847,471.34375 C861.486506,472.1875 860.919744,472.609375 860.101562,472.609375 L860.101562,472.609375 Z M873.307528,475 L873.307528,472.596591 L869.139915,472.596591 L869.139915,458.981534 L866.723722,458.981534 L866.723722,475 L873.307528,475 Z M877.487926,475 L878.075994,471.318182 L880.59446,471.318182 L881.169744,475 L883.700994,475 L881.016335,458.981534 L877.692472,458.981534 L874.96946,475 L877.487926,475 Z M880.236506,468.965909 L878.446733,468.965909 L879.341619,462.650568 L880.236506,468.965909 Z M889.198153,475.204545 C890.246449,475.204545 891.145597,474.833807 891.895597,474.09233 C892.645597,473.350852 893.020597,472.447443 893.020597,471.382102 L893.020597,471.382102 L893.020597,469.144886 L890.514915,469.144886 L890.514915,471.356534 C890.514915,471.740057 890.378551,472.066051 890.105824,472.334517 C889.833097,472.602983 889.504972,472.737216 889.121449,472.737216 C888.737926,472.737216 888.411932,472.602983 888.143466,472.334517 C887.875,472.066051 887.740767,471.740057 887.740767,471.356534 L887.740767,471.356534 L887.740767,462.586648 C887.740767,462.203125 887.875,461.875 888.143466,461.602273 C888.411932,461.329545 888.737926,461.193182 889.121449,461.193182 C889.504972,461.193182 889.833097,461.329545 890.105824,461.602273 C890.378551,461.875 890.514915,462.203125 890.514915,462.586648 L890.514915,462.586648 L890.514915,464.465909 L893.020597,464.465909 L893.020597,462.637784 C893.020597,461.580966 892.649858,460.677557 891.908381,459.927557 C891.166903,459.177557 890.263494,458.802557 889.198153,458.802557 C888.141335,458.802557 887.237926,459.175426 886.487926,459.921165 C885.737926,460.666903 885.362926,461.572443 885.362926,462.637784 L885.362926,462.637784 L885.362926,471.382102 C885.362926,472.43892 885.735795,473.340199 886.481534,474.085938 C887.227273,474.831676 888.132812,475.204545 889.198153,475.204545 Z M897.431108,475 L897.431108,469.9375 L898.147017,468.505682 L900.678267,475 L903.516335,475 L899.642756,465.526989 L902.953835,458.96875 L900.371449,458.96875 L897.431108,464.683239 L897.431108,458.96875 L895.002131,458.96875 L895.002131,475 L897.431108,475 Z M857.615057,494 L857.615057,487.198864 L860.875,487.198864 L860.875,484.769886 L857.615057,484.769886 L857.615057,480.384943 L862.076705,480.384943 L862.076705,477.96875 L855.198864,477.96875 L855.198864,494 L857.615057,494 Z M866.15483,494 L866.15483,487.965909 L867.548295,487.965909 C867.625,487.965909 867.697443,487.961648 867.765625,487.953125 L867.765625,487.953125 L869.235795,494 L871.84375,494 L870.053977,487.007102 C870.914773,486.223011 871.34517,485.264205 871.34517,484.130682 L871.34517,484.130682 L871.34517,481.803977 C871.34517,480.644886 871.068182,479.741477 870.514205,479.09375 C869.883523,478.352273 868.894886,477.981534 867.548295,477.981534 L867.548295,477.981534 L863.738636,477.981534 L863.738636,494 L866.15483,494 Z M867.612216,485.575284 L866.15483,485.575284 L866.15483,480.448864 L867.612216,480.448864 C868.53267,480.448864 868.992898,480.913352 868.992898,481.84233 L868.992898,481.84233 L868.992898,484.181818 C868.992898,484.565341 868.858665,484.893466 868.590199,485.166193 C868.321733,485.43892 867.995739,485.575284 867.612216,485.575284 L867.612216,485.575284 Z M876.330966,494 L876.330966,477.981534 L873.914773,477.981534 L873.914773,494 L876.330966,494 Z M882.288352,494 C883.336648,494 884.231534,493.625 884.973011,492.875 C885.714489,492.125 886.085227,491.221591 886.085227,490.164773 L886.085227,490.164773 L886.085227,481.791193 C886.085227,480.742898 885.716619,479.84375 884.979403,479.09375 C884.242188,478.34375 883.34517,477.96875 882.288352,477.96875 L882.288352,477.96875 L878.491477,477.96875 L878.491477,494 L882.288352,494 Z M882.365057,491.609375 L880.90767,491.609375 L880.90767,480.43608 L882.365057,480.43608 C882.740057,480.43608 883.06179,480.572443 883.330256,480.84517 C883.598722,481.117898 883.732955,481.446023 883.732955,481.829545 L883.732955,481.829545 L883.732955,490.215909 C883.732955,490.590909 883.600852,490.916903 883.336648,491.193892 C883.072443,491.470881 882.74858,491.609375 882.365057,491.609375 L882.365057,491.609375 Z M890.265625,494 L890.853693,490.318182 L893.372159,490.318182 L893.947443,494 L896.478693,494 L893.794034,477.981534 L890.47017,477.981534 L887.747159,494 L890.265625,494 Z M893.014205,487.965909 L891.224432,487.965909 L892.119318,481.650568 L893.014205,487.965909 Z M901.553977,494 L901.553977,487.288352 L904.801136,477.96875 L902.129261,477.96875 L900.352273,483.721591 L898.5625,477.96875 L895.903409,477.96875 L899.137784,487.288352 L899.137784,494 L901.553977,494 Z" id="BLACKFRIDAY"></path>
        </g>
    </g>
</svg>