<?xml version="1.0" encoding="UTF-8"?>
<svg width="84px" height="84px" viewBox="0 0 84 84" version="1.1" xmlns="http://www.w3.org/2000/svg" xmlns:xlink="http://www.w3.org/1999/xlink">
    <title>Group 3</title>
    <defs>
        <filter color-interpolation-filters="auto" id="filter-1">
            <feColorMatrix in="SourceGraphic" type="matrix" values="0 0 0 0 0.588235 0 0 0 0 0.588235 0 0 0 0 0.588235 0 0 0 1.000000 0"></feColorMatrix>
        </filter>
    </defs>
    <g id="Page-1" stroke="none" stroke-width="1" fill="none" fill-rule="evenodd">
        <g id="Add-rule" transform="translate(-834.000000, -302.000000)">
            <g id="Group-3" transform="translate(836.330952, 303.694913)">
                <g filter="url(#filter-1)" id="sconto">
                    <g transform="translate(40.305087, 40.305087) rotate(-45.000000) translate(-40.305087, -40.305087) translate(11.805087, 11.805087)">
                        <path d="M20.187387,1.08717451 C21.5715412,-0.295388127 23.8141387,-0.295388127 25.1982929,1.08717451 L52.49166,28.3781607 C53.6104916,29.4966716 54.3893108,30.9093981 54.7378022,32.4525142 L56.0440952,53.1468702 C56.1512283,54.8511112 54.8473701,56.1512037 53.1454152,56.04408 L32.4492539,54.7379009 C30.9058119,54.3899437 29.4928295,53.6111194 28.3745449,52.4919547 L1.08726497,25.1960992 C-0.29541828,23.8120658 -0.29541828,21.5696638 1.08726497,20.1856304 L20.187387,1.08717451 Z" id="Path" stroke="#000000" stroke-width="2"></path>
                    </g>
                </g>
                <path d="M26.9940476,46.3050865 C27.5240476,46.3050865 28.0215476,46.2500865 28.4865476,46.1400865 C28.9515476,46.0300865 29.3815476,45.8600865 29.7765476,45.6300865 C30.1715476,45.4000865 30.4815476,45.0775865 30.7065476,44.6625865 C30.9315476,44.2475865 31.0440476,43.7650865 31.0440476,43.2150865 C31.0440476,42.5450865 30.8415476,41.9925865 30.4365476,41.5575865 C30.0315476,41.1225865 29.5090476,40.8500865 28.8690476,40.7400865 L28.8690476,40.7400865 L28.8690476,40.7100865 C29.4090476,40.5300865 29.8340476,40.2450865 30.1440476,39.8550865 C30.4540476,39.4650865 30.6090476,38.9850865 30.6090476,38.4150865 C30.6090476,37.9050865 30.5015476,37.4625865 30.2865476,37.0875865 C30.0715476,36.7125865 29.7790476,36.4275865 29.4090476,36.2325865 C29.0390476,36.0375865 28.6565476,35.8975865 28.2615476,35.8125865 C27.8665476,35.7275865 27.4440476,35.6850865 26.9940476,35.6850865 L26.9940476,35.6850865 L22.7640476,35.6850865 L22.7640476,46.3050865 L26.9940476,46.3050865 Z M26.6190476,39.9150865 L25.2390476,39.9150865 L25.2390476,37.7250865 L26.4990476,37.7250865 C27.5890476,37.7250865 28.1340476,38.0700865 28.1340476,38.7600865 C28.1340476,39.1300865 28.0015476,39.4150865 27.7365476,39.6150865 C27.4715476,39.8150865 27.0990476,39.9150865 26.6190476,39.9150865 L26.6190476,39.9150865 Z M26.6790476,44.2350865 L25.2390476,44.2350865 L25.2390476,41.8050865 L26.6640476,41.8050865 C27.8740476,41.8050865 28.4790476,42.1950865 28.4790476,42.9750865 C28.4790476,43.8150865 27.8790476,44.2350865 26.6790476,44.2350865 L26.6790476,44.2350865 Z M37.5190476,46.5900865 C39.1990476,46.5900865 40.5840476,46.0675865 41.6740476,45.0225865 C42.7640476,43.9775865 43.3090476,42.6200865 43.3090476,40.9500865 C43.3090476,39.2700865 42.7665476,37.9250865 41.6815476,36.9150865 C40.5965476,35.9050865 39.2090476,35.4000865 37.5190476,35.4000865 C35.8390476,35.4000865 34.4565476,35.9050865 33.3715476,36.9150865 C32.2865476,37.9250865 31.7440476,39.2700865 31.7440476,40.9500865 C31.7440476,42.6200865 32.2890476,43.9775865 33.3790476,45.0225865 C34.4690476,46.0675865 35.8490476,46.5900865 37.5190476,46.5900865 Z M37.5190476,44.2500865 C36.6290476,44.2500865 35.9015476,43.9400865 35.3365476,43.3200865 C34.7715476,42.7000865 34.4890476,41.9100865 34.4890476,40.9500865 C34.4890476,40.0100865 34.7715476,39.2350865 35.3365476,38.6250865 C35.9015476,38.0150865 36.6290476,37.7100865 37.5190476,37.7100865 C38.4090476,37.7100865 39.1390476,38.0150865 39.7090476,38.6250865 C40.2790476,39.2350865 40.5640476,40.0100865 40.5640476,40.9500865 C40.5640476,41.9100865 40.2790476,42.7000865 39.7090476,43.3200865 C39.1390476,43.9400865 38.4090476,44.2500865 37.5190476,44.2500865 Z M49.8440476,46.5750865 C51.4040476,46.5750865 52.7690476,46.2700865 53.9390476,45.6600865 L53.9390476,45.6600865 L53.9390476,40.0350865 L49.5590476,40.0350865 L49.5590476,42.1050865 L51.5840476,42.1050865 L51.5840476,44.0400865 C51.1440476,44.2300865 50.6090476,44.3250865 49.9790476,44.3250865 C48.9590476,44.3250865 48.1640476,44.0175865 47.5940476,43.4025865 C47.0240476,42.7875865 46.7390476,41.9800865 46.7390476,40.9800865 C46.7390476,40.0300865 47.0340476,39.2400865 47.6240476,38.6100865 C48.2140476,37.9800865 48.9590476,37.6650865 49.8590476,37.6650865 C50.8790476,37.6650865 51.6740476,37.9950865 52.2440476,38.6550865 L52.2440476,38.6550865 L53.8640476,36.8100865 C53.4140476,36.3800865 52.8240476,36.0375865 52.0940476,35.7825865 C51.3640476,35.5275865 50.5890476,35.4000865 49.7690476,35.4000865 C48.1190476,35.4000865 46.7465476,35.9125865 45.6515476,36.9375865 C44.5565476,37.9625865 44.0090476,39.3100865 44.0090476,40.9800865 C44.0090476,42.6400865 44.5540476,43.9875865 45.6440476,45.0225865 C46.7340476,46.0575865 48.1340476,46.5750865 49.8440476,46.5750865 Z M60.8190476,46.5900865 C62.4990476,46.5900865 63.8840476,46.0675865 64.9740476,45.0225865 C66.0640476,43.9775865 66.6090476,42.6200865 66.6090476,40.9500865 C66.6090476,39.2700865 66.0665476,37.9250865 64.9815476,36.9150865 C63.8965476,35.9050865 62.5090476,35.4000865 60.8190476,35.4000865 C59.1390476,35.4000865 57.7565476,35.9050865 56.6715476,36.9150865 C55.5865476,37.9250865 55.0440476,39.2700865 55.0440476,40.9500865 C55.0440476,42.6200865 55.5890476,43.9775865 56.6790476,45.0225865 C57.7690476,46.0675865 59.1490476,46.5900865 60.8190476,46.5900865 Z M60.8190476,44.2500865 C59.9290476,44.2500865 59.2015476,43.9400865 58.6365476,43.3200865 C58.0715476,42.7000865 57.7890476,41.9100865 57.7890476,40.9500865 C57.7890476,40.0100865 58.0715476,39.2350865 58.6365476,38.6250865 C59.2015476,38.0150865 59.9290476,37.7100865 60.8190476,37.7100865 C61.7090476,37.7100865 62.4390476,38.0150865 63.0090476,38.6250865 C63.5790476,39.2350865 63.8640476,40.0100865 63.8640476,40.9500865 C63.8640476,41.9100865 63.5790476,42.7000865 63.0090476,43.3200865 C62.4390476,43.9400865 61.7090476,44.2500865 60.8190476,44.2500865 Z" id="BOGO" fill="#888888" fill-rule="nonzero"></path>
            </g>
        </g>
    </g>
</svg>