<?xml version="1.0" encoding="UTF-8"?>
<svg width="97px" height="73px" viewBox="0 0 97 73" version="1.1" xmlns="http://www.w3.org/2000/svg" xmlns:xlink="http://www.w3.org/1999/xlink">
    <title>Group 2</title>
    <g id="Page-1" stroke="none" stroke-width="1" fill="none" fill-rule="evenodd">
        <g id="Add-rule" transform="translate(-829.000000, -578.000000)">
            <g id="Group" transform="translate(657.000000, 213.000000)">
                <g id="date" transform="translate(0.000000, 228.000000)">
                    <g id="Group-2" transform="translate(173.485281, 139.192388)">
                        <g id="sconto" stroke="#8F8F8F" stroke-width="2">
                            <path d="M23.0148445,8.92862593 C23.9858199,7.95877017 25.5612575,7.96104234 26.5350345,8.9337029 L45.7364319,28.1334301 C46.5235508,28.920324 47.0721071,29.9135616 47.3184877,30.9979625 L48.2571333,45.5371895 C48.3341216,46.7345372 47.419471,47.6465385 46.2237294,47.5695591 L31.6832342,46.6309918 C30.5986048,46.3849861 29.6051876,45.8364259 28.8184523,45.0490733 L9.62132623,25.8459315 C8.64858106,24.8722392 8.64630909,23.296939 9.6162497,22.3260485 L23.0148445,8.92862593 Z" id="Path" transform="translate(28.575968, 27.888407) rotate(-45.000000) translate(-28.575968, -27.888407) "></path>
                        </g>
                        <path d="M18.55,31 C18.9033333,31 19.235,30.9633333 19.545,30.89 C19.855,30.8166667 20.1416667,30.7033333 20.405,30.55 C20.6683333,30.3966667 20.875,30.1816667 21.025,29.905 C21.175,29.6283333 21.25,29.3066667 21.25,28.94 C21.25,28.4933333 21.115,28.125 20.845,27.835 C20.575,27.545 20.2266667,27.3633333 19.8,27.29 L19.8,27.29 L19.8,27.27 C20.16,27.15 20.4433333,26.96 20.65,26.7 C20.8566667,26.44 20.96,26.12 20.96,25.74 C20.96,25.4 20.8883333,25.105 20.745,24.855 C20.6016667,24.605 20.4066667,24.415 20.16,24.285 C19.9133333,24.155 19.6583333,24.0616667 19.395,24.005 C19.1316667,23.9483333 18.85,23.92 18.55,23.92 L18.55,23.92 L15.73,23.92 L15.73,31 L18.55,31 Z M18.3,26.74 L17.38,26.74 L17.38,25.28 L18.22,25.28 C18.9466667,25.28 19.31,25.51 19.31,25.97 C19.31,26.2166667 19.2216667,26.4066667 19.045,26.54 C18.8683333,26.6733333 18.62,26.74 18.3,26.74 L18.3,26.74 Z M18.34,29.62 L17.38,29.62 L17.38,28 L18.33,28 C19.1366667,28 19.54,28.26 19.54,28.78 C19.54,29.34 19.14,29.62 18.34,29.62 L18.34,29.62 Z M25.33,31.19 C26.25,31.19 26.9883333,30.9266667 27.545,30.4 C28.1016667,29.8733333 28.38,29.1833333 28.38,28.33 L28.38,28.33 L28.38,23.92 L26.67,23.92 L26.67,28.19 C26.67,28.61 26.5616667,28.9583333 26.345,29.235 C26.1283333,29.5116667 25.7933333,29.65 25.34,29.65 C24.8933333,29.65 24.56,29.5116667 24.34,29.235 C24.12,28.9583333 24.01,28.61 24.01,28.19 L24.01,28.19 L24.01,23.92 L22.31,23.92 L22.31,28.33 C22.31,29.19 22.5833333,29.8816667 23.13,30.405 C23.6766667,30.9283333 24.41,31.19 25.33,31.19 Z M33.2,31 L33.2,28 L35.92,23.92 L33.92,23.92 L32.41,26.54 L30.9,23.92 L28.83,23.92 L31.49,28 L31.49,31 L33.2,31 Z M39.82,31 L41.31,28.5 L42.86,31 L44.97,31 L42.41,27.26 L44.65,23.92 L42.66,23.92 L41.36,26.12 L40.04,23.92 L37.98,23.92 L40.26,27.26 L37.78,31 L39.82,31 Z" id="BUYX" fill="#767676" fill-rule="nonzero"></path>
                        <g id="sconto" transform="translate(37.000000, 13.000000)" fill="#FFFFFF" stroke="#8C8C8C" stroke-width="2">
                            <path d="M23.1086161,9.36942869 C24.0969203,8.38224409 25.6864041,8.37047013 26.6601911,9.34312073 L45.8616033,28.5428331 C46.6487242,29.3297249 47.1933102,30.3269328 47.4322085,31.4188161 L48.2494203,46.0794769 C48.3164054,47.2868278 47.3854454,48.2151385 46.1797148,48.148148 L31.5177739,47.3310265 C30.4256568,47.0925085 29.4282676,46.5479202 28.6415378,45.7605621 L9.44446548,26.5573666 C8.47172876,25.5836659 8.48350168,23.9943208 9.47077114,23.0061015 L23.1086161,9.36942869 Z" id="Path" transform="translate(28.487683, 28.386412) rotate(-45.000000) translate(-28.487683, -28.386412) "></path>
                        </g>
                        <path d="M57.29,44.18 C58.33,44.18 59.24,43.9766667 60.02,43.57 L60.02,43.57 L60.02,39.82 L57.1,39.82 L57.1,41.2 L58.45,41.2 L58.45,42.49 C58.1566667,42.6166667 57.8,42.68 57.38,42.68 C56.7,42.68 56.17,42.475 55.79,42.065 C55.41,41.655 55.22,41.1166667 55.22,40.45 C55.22,39.8166667 55.4166667,39.29 55.81,38.87 C56.2033333,38.45 56.7,38.24 57.3,38.24 C57.98,38.24 58.51,38.46 58.89,38.9 L58.89,38.9 L59.97,37.67 C59.67,37.3833333 59.2766667,37.155 58.79,36.985 C58.3033333,36.815 57.7866667,36.73 57.24,36.73 C56.14,36.73 55.225,37.0716667 54.495,37.755 C53.765,38.4383333 53.4,39.3366667 53.4,40.45 C53.4,41.5566667 53.7633333,42.455 54.49,43.145 C55.2166667,43.835 56.15,44.18 57.29,44.18 Z M66.36,44 L66.36,42.54 L63.07,42.54 L63.07,41.07 L66.01,41.07 L66.01,39.7 L63.07,39.7 L63.07,38.37 L66.18,38.37 L66.18,36.92 L61.42,36.92 L61.42,44 L66.36,44 Z M70.52,44 L70.52,38.38 L72.52,38.38 L72.52,36.92 L66.81,36.92 L66.81,38.38 L68.81,38.38 L68.81,44 L70.52,44 Z M78.76,44 L78.76,41 L81.48,36.92 L79.48,36.92 L77.97,39.54 L76.46,36.92 L74.39,36.92 L77.05,41 L77.05,44 L78.76,44 Z" id="GETY" fill="#696969" fill-rule="nonzero"></path>
                    </g>
                </g>
            </g>
        </g>
    </g>
</svg>