<?xml version="1.0" encoding="UTF-8"?>
<svg width="44px" height="38px" viewBox="0 0 44 38" version="1.1" xmlns="http://www.w3.org/2000/svg" xmlns:xlink="http://www.w3.org/1999/xlink">
    <title>Group 7</title>
    <defs>
        <filter color-interpolation-filters="auto" id="filter-1">
            <feColorMatrix in="SourceGraphic" type="matrix" values="0 0 0 0 0.270588 0 0 0 0 0.537255 0 0 0 0 0.650980 0 0 0 1.000000 0"></feColorMatrix>
        </filter>
        <filter color-interpolation-filters="auto" id="filter-2">
            <feColorMatrix in="SourceGraphic" type="matrix" values="0 0 0 0 0.490716 0 0 0 0 0.490716 0 0 0 0 0.490716 0 0 0 1.000000 0"></feColorMatrix>
        </filter>
    </defs>
    <g id="Page-1" stroke="none" stroke-width="1" fill="none" fill-rule="evenodd">
        <g id="Group-7" transform="translate(-694.000000, -738.000000)" filter="url(#filter-1)">
            <g transform="translate(694.000000, 738.000000)">
                <g filter="url(#filter-2)" id="cart-gift">
                    <g id="Group" fill="#333333" fill-rule="nonzero">
                        <path d="M38.3220444,28.0455694 L14.2755556,28.0455694 L10.8112889,8.32474227 L12.3522667,8.05345361 L15.5848,26.4824742 L38.3220444,26.4824742 C39.0323082,26.4828625 39.639045,25.9695195 39.7574222,25.2680412 L42.3162667,10.6752577 C42.3915187,10.2505163 42.2750382,9.81420615 41.9981799,9.48377528 C41.7213216,9.15334441 41.3125377,8.96275066 40.8818667,8.96329897 L40.8818667,7.39628859 C41.774536,7.39628859 42.6215699,7.79142743 43.1955995,8.47617771 C43.7696291,9.160928 44.0118505,10.0649461 43.8572444,10.945567 L41.2974222,25.5383505 C41.0478049,26.9884924 39.791172,28.0474001 38.3220444,28.0455694 L38.3220444,28.0455694 Z" id="Path"></path>
                        <path d="M40.3822222,33.8640772 L18.4633778,33.8640772 C16.6285183,33.8670513 15.0579409,32.5465121 14.7429333,30.7359278 L9.95182222,3.42097938 C9.7669594,2.3607797 8.84781903,1.58723715 7.77333333,1.58757732 L0,1.58757732 L0,0.0205670103 L7.77333333,0.0205670103 C9.6065119,0.0205670103 11.1742495,1.34075371 11.4888889,3.14969072 L16.28,30.4646392 C16.4646099,31.52524 17.3846312,32.2987632 18.4594667,32.2970619 L40.3822222,32.2970619 L40.3822222,33.8640772 Z" id="Path"></path>
                        <path d="M21.9608889,37.9177321 C20.3088718,37.9139567 18.9710392,36.572616 18.9688889,34.9178866 L20.5333333,34.9178866 C20.5536128,35.6948996 21.1883054,36.3142309 21.9643111,36.3142309 C22.7403168,36.3142309 23.3750094,35.6948996 23.3952889,34.9178866 L24.9597333,34.9178866 C24.9581141,36.5755131 23.6158018,37.9182734 21.9608889,37.9177321 L21.9608889,37.9177321 Z" id="Path"></path>
                        <path d="M33.3089778,37.917732 C31.6546697,37.9171931 30.3132686,36.5749066 30.3111111,34.9178866 L31.8755556,34.9178866 C31.8755556,35.7097604 32.516445,36.351701 33.3070222,36.351701 C34.0975994,36.351701 34.7384889,35.7097604 34.7384889,34.9178866 L36.3029333,34.9178866 C36.30078,36.573379 34.9617586,37.9150345 33.3089778,37.917732 Z" id="Path"></path>
                    </g>
                </g>
                <text id="%" font-family="AvenirNextCyr-Medium, Avenir Next Cyr" font-size="21" font-weight="400" line-spacing="14" letter-spacing="-1.2" fill="#878787">
                    <tspan x="18" y="28">%</tspan>
                </text>
            </g>
        </g>
    </g>
</svg>