<?xml version="1.0" encoding="UTF-8"?>
<svg width="12px" height="14px" viewBox="0 0 12 14" version="1.1" xmlns="http://www.w3.org/2000/svg" xmlns:xlink="http://www.w3.org/1999/xlink">
    <title>basic / trash_full</title>
    <defs>
        <filter id="filter-1">
            <feColorMatrix in="SourceGraphic" type="matrix" values="0 0 0 0 1.000000 0 0 0 0 1.000000 0 0 0 0 1.000000 0 0 0 1.000000 0"></feColorMatrix>
        </filter>
        <rect id="path-2" x="0" y="0" width="16" height="16"></rect>
    </defs>
    <g id="💙-coolicons" stroke="none" stroke-width="1" fill="none" fill-rule="evenodd">
        <g id="Basic" transform="translate(-378.000000, -441.000000)">
            <g id="basic-/-trash_full" transform="translate(376.000000, 440.000000)" filter="url(#filter-1)">
                <g>
                    <mask id="mask-3" fill="white">
                        <use xlink:href="#path-2"></use>
                    </mask>
                    <g id="basic-/-trash_full-(Background/Mask)"></g>
                    <path d="M6,1.33333333 C5.26466664,1.33333333 4.66666667,1.9313333 4.66666667,2.66666667 L4.66666667,3.33333333 L2,3.33333333 L2,4.66666667 L3.33333333,4.66666667 L3.33333333,13.3333333 C3.33333333,14.0686667 3.9313333,14.6666667 4.66666667,14.6666667 L11.3333333,14.6666667 C12.0686667,14.6666667 12.6666667,14.0686667 12.6666667,13.3333333 L12.6666667,4.66666667 L14,4.66666667 L14,3.33333333 L11.3333333,3.33333333 L11.3333333,2.66666667 C11.3333333,1.9313333 10.7353334,1.33333333 10,1.33333333 L6,1.33333333 Z M10,2.66666667 L10,3.33333333 L6,3.33333333 L6,2.66666667 L10,2.66666667 Z M4.66666667,13.3333333 L4.66666667,4.66666667 L11.3333333,4.66666667 L11.3333333,13.3333333 L4.66666667,13.3333333 Z M7.33333333,6 L7.33333333,12 L6,12 L6,6 L7.33333333,6 Z M10,6 L10,12 L8.66666667,12 L8.66666667,6 L10,6 Z" fill="#2E3A59" mask="url(#mask-3)"></path>
                </g>
            </g>
        </g>
    </g>
</svg>