<?xml version="1.0" encoding="UTF-8"?>
<svg width="40px" height="31px" viewBox="0 0 40 31" version="1.1" xmlns="http://www.w3.org/2000/svg" xmlns:xlink="http://www.w3.org/1999/xlink">
    <title>Group 6</title>
    <defs>
        <filter color-interpolation-filters="auto" id="filter-1">
            <feColorMatrix in="SourceGraphic" type="matrix" values="0 0 0 0 0.270588 0 0 0 0 0.537255 0 0 0 0 0.650980 0 0 0 1.000000 0"></feColorMatrix>
        </filter>
        <filter color-interpolation-filters="auto" id="filter-2">
            <feColorMatrix in="SourceGraphic" type="matrix" values="0 0 0 0 0.526155 0 0 0 0 0.526155 0 0 0 0 0.526155 0 0 0 1.000000 0"></feColorMatrix>
        </filter>
    </defs>
    <g id="Page-1" stroke="none" stroke-width="1" fill="none" fill-rule="evenodd">
        <g id="Group-6" transform="translate(-699.000000, -601.000000)" filter="url(#filter-1)">
            <g transform="translate(699.000000, 602.000000)">
                <g filter="url(#filter-2)" id="icon-user" stroke-linecap="round" stroke-linejoin="round">
                    <g transform="translate(20.000000, 0.000000)">
                        <path d="M0,29 L0,23.9021559 C0,18.6185738 1.16319806,15 9.5,15 L9.5,15 C17.8400971,15 19,18.6185738 19,23.9021559 L19,29 L0,29 Z" id="Path" stroke="#000000" stroke-width="2"></path>
                        <path d="M17,6 C17,9.3137085 13.6421356,12 9.5,12 L9.5,12 C5.35786438,12 2,9.3137085 2,6 L2,6 C2,2.6862915 5.35786438,0 9.5,0 L9.5,0 C11.4891237,0 13.396778,0.632141042 14.8033009,1.75735931 C16.2098237,2.88257758 17,4.40870106 17,6 L17,6 Z" id="Path" stroke="#0B0B0B" stroke-width="2"></path>
                    </g>
                </g>
                <text id="%" font-family="AvenirNextCyr-Demi, Avenir Next Cyr" font-size="21" font-weight="400" line-spacing="14" letter-spacing="-1.2" fill="#878787">
                    <tspan x="0" y="21">%</tspan>
                </text>
            </g>
        </g>
    </g>
</svg>