<svg width="256" height="256" viewBox="0 0 256 256" fill="none" xmlns="http://www.w3.org/2000/svg">
<g clip-path="url(#clip0_4144_4126)">
<path d="M128 256C198.692 256 256 198.692 256 128C256 57.3076 198.692 0 128 0C57.3076 0 0 57.3076 0 128C0 198.692 57.3076 256 128 256Z" fill="url(#paint0_linear_4144_4126)"/>
<path d="M188.965 78.302C188.965 77.3497 188.912 76.3445 188.595 75.445C186.847 69.8369 180.599 67.6676 175.569 71.1595C168.315 76.1328 161.219 81.3707 153.965 86.344C152.853 87.1376 151.264 87.6666 149.888 87.6666C142.421 87.7195 135.008 87.7195 127.542 87.7195C120.182 87.7195 112.769 87.7195 105.409 87.6137C103.873 87.6137 102.126 86.9788 100.908 86.0794C93.9184 81.159 86.9818 76.1328 80.0982 71.0537C77.1329 68.8845 74.0088 68.3025 70.6729 69.9427C67.337 71.5828 66.0132 74.4927 66.0132 78.1962C66.0662 87.455 66.0132 96.7138 66.0132 105.973C66.0132 114.067 65.9603 122.215 66.0662 130.31C66.1191 133.537 66.225 136.871 66.7016 140.045C71.626 170.625 97.625 191.947 127.489 192C131.514 192 135.538 191.63 139.668 190.836C167.256 185.545 188.648 160.203 188.912 132.215C189.071 114.279 188.965 96.2905 188.965 78.302Z" fill="white"/>
<path d="M140.479 145.871C146.726 145.811 151.724 143.608 155.948 139.322C156.543 138.727 157.495 138.489 158.327 138.072C158.625 138.906 159.16 139.799 159.16 140.632C158.387 155.455 146.429 168.135 131.734 169.921C115.254 171.885 100.738 161.884 96.7514 145.871C92.2299 127.833 105.081 109.2 123.464 107.117C124.416 106.998 125.427 106.76 126.379 106.879C126.974 106.938 127.748 107.355 127.986 107.831C128.164 108.188 127.807 109.022 127.45 109.439C126.558 110.51 125.368 111.463 124.535 112.594C114.897 125.095 122.155 143.192 137.683 145.692C138.635 145.871 139.706 145.811 140.479 145.871Z" fill="url(#paint1_linear_4144_4126)"/>
</g>
<defs>
<linearGradient id="paint0_linear_4144_4126" x1="34.5" y1="30.5" x2="215" y2="240.5" gradientUnits="userSpaceOnUse">
<stop stop-color="#9B73E4"/>
<stop offset="1" stop-color="#4C3EF1"/>
</linearGradient>
<linearGradient id="paint1_linear_4144_4126" x1="113" y1="110.5" x2="146" y2="167.5" gradientUnits="userSpaceOnUse">
<stop stop-color="#9871E4"/>
<stop offset="1" stop-color="#5242F0"/>
</linearGradient>
<clipPath id="clip0_4144_4126">
<rect width="256" height="256" fill="white"/>
</clipPath>
</defs>
</svg>
