<svg width="20" height="20" viewBox="0 0 30 30" fill="none" xmlns="http://www.w3.org/2000/svg">
<path d="M29.9916 2.26879C29.9916 2.03651 29.9786 1.79133 29.9012 1.57196C29.475 0.20411 27.951 -0.324963 26.7241 0.526716C24.9548 1.73971 23.2242 3.01723 21.4548 4.23023C21.1836 4.4238 20.7962 4.55284 20.4604 4.55284C18.6394 4.56574 16.8313 4.56574 15.0103 4.56574C13.2151 4.56574 11.4071 4.56574 9.61189 4.53993C9.23736 4.53993 8.81117 4.38508 8.51413 4.16571C6.80937 2.96562 5.11752 1.73972 3.43859 0.500908C2.71535 -0.0281659 1.95338 -0.170113 1.13974 0.229919C0.326101 0.62995 0.00322882 1.33968 0.00322882 2.24298C0.0161437 4.50122 0.00322882 6.75947 0.00322882 9.01771C0.00322882 10.9921 -0.00968625 12.9793 0.0161435 14.9537C0.0290584 15.7408 0.0548887 16.5538 0.171123 17.328C1.37221 24.7867 7.71341 29.9871 14.9974 30C15.9789 30 16.9605 29.9097 17.9678 29.7161C24.6965 28.4257 29.9141 22.2446 29.9787 15.4182C30.0174 11.0437 29.9916 6.65623 29.9916 2.26879Z" fill="white"/>
<path d="M18.1658 18.749C19.6894 18.7344 20.9083 18.1972 21.9385 17.1518C22.0836 17.0066 22.3158 16.9486 22.519 16.8469C22.5915 17.0502 22.7221 17.268 22.7221 17.4712C22.5335 21.0866 19.6168 24.1792 16.0327 24.6148C12.0132 25.0939 8.47264 22.6547 7.50042 18.749C6.39761 14.3496 9.53192 9.80501 14.0157 9.29683C14.2479 9.26779 14.4946 9.20971 14.7267 9.23875C14.8718 9.25327 15.0605 9.35491 15.1185 9.47106C15.1621 9.55818 15.075 9.76145 14.9879 9.86308C14.7703 10.1244 14.4801 10.3567 14.2769 10.6326C11.9262 13.6817 13.6965 18.0956 17.4838 18.7054C17.7159 18.749 17.9771 18.7344 18.1658 18.749Z" fill="#665CE0"/>
</svg>
