<?xml version="1.0" encoding="utf-8"?>
<!-- Generator: Adobe Illustrator 22.0.0, SVG Export Plug-In . SVG Version: 6.00 Build 0)  -->
<svg version="1.1" id="Layer_1" xmlns="http://www.w3.org/2000/svg" xmlns:xlink="http://www.w3.org/1999/xlink" x="0px" y="0px"
	 viewBox="0 0 357.5 200.8" style="enable-background:new 0 0 357.5 200.8;" xml:space="preserve">
<style type="text/css">
	.st0{fill:#FFFFFF;}
	.st1{fill:none;stroke:#C6C6C6;stroke-miterlimit:10;}
	.st2{fill:#C6C6C6;}
	.st3{opacity:0.3;}
	.st4{fill:#3C3C3B;}
	.st5{fill:none;stroke:#FFFFFF;stroke-width:0.4365;stroke-miterlimit:10;}
	.st6{fill:none;stroke:#FFFFFF;stroke-width:0.4358;stroke-miterlimit:10;}
	.st7{fill:none;stroke:#FFFFFF;stroke-width:0.4352;stroke-miterlimit:10;}
	.st8{fill:none;}
	.st9{fill:none;stroke:#FFFFFF;stroke-width:0.4374;stroke-miterlimit:10;}
	.st10{opacity:0.62;fill:#ECECEC;}
	.st11{fill:none;stroke:#FFFFFF;stroke-width:0.3171;stroke-miterlimit:10;}
	.st12{fill:none;stroke:#FFFFFF;stroke-width:0.348;stroke-miterlimit:10;}
	.st13{fill:#575756;}
	.st14{fill:#868686;}
	.st15{fill:#6F6F6E;}
	.st16{fill:#F9BA24;}
	.st17{fill:#6941E0;}
	.st18{fill:none;stroke:#FFFFFF;stroke-width:0.3365;stroke-miterlimit:10;}
	.st19{fill:none;stroke:#FFFFFF;stroke-width:0.336;stroke-miterlimit:10;}
	.st20{fill:none;stroke:#FFFFFF;stroke-width:0.3355;stroke-miterlimit:10;}
	.st21{fill:none;stroke:#FFFFFF;stroke-width:0.3372;stroke-miterlimit:10;}
	.st22{fill:none;stroke:#FFFFFF;stroke-width:0.5824;stroke-miterlimit:10;}
	.st23{opacity:0.62;fill:#C4C2C2;}
	.st24{fill:none;stroke:#FFFFFF;stroke-width:0.4871;stroke-miterlimit:10;}
	.st25{fill:none;stroke:#FFFFFF;stroke-width:0.6078;stroke-miterlimit:10;}
	.st26{fill:none;stroke:#FFFFFF;stroke-width:0.2234;stroke-miterlimit:10;}
	.st27{fill:#E8E8E8;}
	.st28{fill:none;stroke:#FFFFFF;stroke-width:0.3824;stroke-miterlimit:10;}
	.st29{fill:none;stroke:#FFFFFF;stroke-width:0.3818;stroke-miterlimit:10;}
	.st30{fill:none;stroke:#FFFFFF;stroke-width:0.3813;stroke-miterlimit:10;}
	.st31{fill:none;stroke:#FFFFFF;stroke-width:0.3832;stroke-miterlimit:10;}
	.st32{fill:none;stroke:#FFFFFF;stroke-width:0.257;stroke-miterlimit:10;}
	.st33{fill:none;stroke:#FFFFFF;stroke-width:0.6653;stroke-miterlimit:10;}
	.st34{fill:#7B6CEA;}
	.st35{fill:#DADADA;}
	.st36{fill:none;stroke:#C6C6C6;stroke-width:0.5;stroke-miterlimit:10;}
	.st37{fill:none;stroke:#7B6CEA;stroke-miterlimit:10;}
	.st38{fill:#878787;}
	.st39{fill:#9D9D9C;}
	.st40{fill:#A6CE39;}
	.st41{filter:url(#Adobe_OpacityMaskFilter);}
	.st42{opacity:0.7;mask:url(#SVGID_1_);}
	.st43{fill:#FFCB08;}
	.st44{fill:#ED1651;}
	.st45{filter:url(#Adobe_OpacityMaskFilter_1_);}
	.st46{mask:url(#SVGID_2_);}
	.st47{fill:#00AEEF;}
	.st48{fill:#42ABED;}
	.st49{fill:#58585A;}
	.st50{fill:none;stroke:#7B6CEA;stroke-width:0.348;stroke-miterlimit:10;}
	.st51{fill:#ACACAD;}
	.st52{fill:none;stroke:#FFFFFF;stroke-width:0.5;stroke-miterlimit:10;}
	.st53{filter:url(#Adobe_OpacityMaskFilter_2_);}
	.st54{opacity:0.7;mask:url(#SVGID_3_);}
	.st55{filter:url(#Adobe_OpacityMaskFilter_3_);}
	.st56{mask:url(#SVGID_4_);}
	.st57{fill:#B2B2B2;}
	.st58{filter:url(#Adobe_OpacityMaskFilter_4_);}
	.st59{opacity:0.7;mask:url(#SVGID_5_);}
	.st60{filter:url(#Adobe_OpacityMaskFilter_5_);}
	.st61{mask:url(#SVGID_6_);}
	.st62{filter:url(#Adobe_OpacityMaskFilter_6_);}
	.st63{opacity:0.7;mask:url(#SVGID_7_);}
	.st64{filter:url(#Adobe_OpacityMaskFilter_7_);}
	.st65{mask:url(#SVGID_8_);}
	.st66{fill:none;stroke:#C6C6C6;stroke-width:0.9721;stroke-miterlimit:10;}
	.st67{fill:none;stroke:#FFFFFF;stroke-width:0.4243;stroke-miterlimit:10;}
	.st68{fill:none;stroke:#FFFFFF;stroke-width:0.4237;stroke-miterlimit:10;}
	.st69{fill:none;stroke:#FFFFFF;stroke-width:0.423;stroke-miterlimit:10;}
	.st70{fill:none;stroke:#FFFFFF;stroke-width:0.4252;stroke-miterlimit:10;}
	.st71{fill:none;stroke:#FFFFFF;stroke-width:2;stroke-miterlimit:10;}
	.st72{fill:none;stroke:#7B6CEA;stroke-width:0.75;stroke-miterlimit:10;}
	.st73{fill:none;stroke:#C6C6C6;stroke-width:1.622;stroke-miterlimit:10;}
	.st74{fill:none;stroke:#C6C6C6;stroke-width:0.811;stroke-miterlimit:10;}
	.st75{fill:none;stroke:#7B6CEA;stroke-width:1.622;stroke-miterlimit:10;}
	.st76{fill:none;stroke:#C6C6C6;stroke-width:1.5767;stroke-miterlimit:10;}
	.st77{fill:none;stroke:#FFFFFF;stroke-width:0.6882;stroke-miterlimit:10;}
	.st78{fill:none;stroke:#FFFFFF;stroke-width:0.6872;stroke-miterlimit:10;}
	.st79{fill:none;stroke:#FFFFFF;stroke-width:0.6862;stroke-miterlimit:10;}
	.st80{fill:none;stroke:#FFFFFF;stroke-width:0.6897;stroke-miterlimit:10;}
	.st81{fill:none;stroke:#FFFFFF;stroke-width:3.244;stroke-miterlimit:10;}
	.st82{fill:none;stroke:#FFFFFF;stroke-width:0.811;stroke-miterlimit:10;}
	.st83{fill:none;stroke:#7B6CEA;stroke-width:1.2165;stroke-miterlimit:10;}
	.st84{fill:none;stroke:#C6C6C6;stroke-width:1.584;stroke-miterlimit:10;}
	.st85{fill:none;stroke:#C6C6C6;stroke-width:0.396;stroke-miterlimit:10;}
	.st86{fill:none;stroke:#7B6CEA;stroke-width:1.188;stroke-miterlimit:10;}
	.st87{fill:none;stroke:#7B6CEA;stroke-width:1.584;stroke-miterlimit:10;}
	.st88{fill:none;stroke:#FFFFFF;stroke-width:0.792;stroke-miterlimit:10;}
	.st89{fill:none;stroke:#C6C6C6;stroke-width:1.5398;stroke-miterlimit:10;}
	.st90{fill:none;stroke:#FFFFFF;stroke-width:0.6721;stroke-miterlimit:10;}
	.st91{fill:none;stroke:#FFFFFF;stroke-width:0.6711;stroke-miterlimit:10;}
	.st92{fill:none;stroke:#FFFFFF;stroke-width:0.6701;stroke-miterlimit:10;}
	.st93{fill:none;stroke:#FFFFFF;stroke-width:0.6735;stroke-miterlimit:10;}
	.st94{fill:none;stroke:#FFFFFF;stroke-width:3.1681;stroke-miterlimit:10;}
	.st95{fill:#F5F6F8;}
	.st96{fill:none;stroke:#C6C6C6;stroke-width:3.229;stroke-miterlimit:10;}
	.st97{fill:none;stroke:#BE1622;stroke-width:10;stroke-miterlimit:10;}
</style>
<g>
	<g>
		<path class="st0" d="M336.8,194.3H21.4c-3.9,0-7.1-3.2-7.1-7.1V12.9c0-3.9,3.2-7.1,7.1-7.1h315.4c3.9,0,7.1,3.2,7.1,7.1v174.3
			C343.9,191.1,340.7,194.3,336.8,194.3z"/>
		<path class="st84" d="M336.8,194.3H21.4c-3.9,0-7.1-3.2-7.1-7.1V12.9c0-3.9,3.2-7.1,7.1-7.1h315.4c3.9,0,7.1,3.2,7.1,7.1v174.3
			C343.9,191.1,340.7,194.3,336.8,194.3z"/>
	</g>
	<g>
		<path class="st57" d="M57.2,87.9v-4.7h0.7l1.5,2.4c0.3,0.5,0.6,1,0.8,1.5l0,0c-0.1-0.6-0.1-1.2-0.1-1.9v-2h0.6v4.7h-0.6l-1.5-2.4
			c-0.3-0.5-0.6-1.1-0.9-1.6l0,0c0,0.6,0,1.2,0,1.9v2H57.2z"/>
		<path class="st57" d="M64.2,85.7h-1.8v1.7h2v0.5h-2.6v-4.7h2.5v0.5h-1.9v1.5h1.8V85.7z"/>
		<path class="st57" d="M66,87.9l-1.2-4.7h0.6l0.6,2.4c0.1,0.6,0.3,1.2,0.3,1.6h0c0.1-0.5,0.2-1,0.4-1.6l0.6-2.4H68l0.6,2.4
			c0.1,0.6,0.3,1.1,0.3,1.6h0c0.1-0.5,0.2-1,0.4-1.6l0.6-2.4h0.6l-1.3,4.7h-0.6L68,85.4c-0.1-0.6-0.2-1.1-0.3-1.5h0
			c-0.1,0.5-0.2,0.9-0.4,1.5l-0.7,2.4H66z"/>
		<path class="st57" d="M71,87.1c0.3,0.2,0.7,0.3,1.1,0.3c0.6,0,1-0.3,1-0.8c0-0.4-0.2-0.7-0.9-0.9c-0.8-0.3-1.2-0.7-1.2-1.3
			c0-0.7,0.6-1.3,1.5-1.3c0.5,0,0.8,0.1,1,0.2l-0.2,0.5c-0.2-0.1-0.5-0.2-0.9-0.2c-0.6,0-0.9,0.4-0.9,0.7c0,0.4,0.3,0.7,0.9,0.9
			c0.8,0.3,1.2,0.7,1.2,1.4c0,0.7-0.5,1.3-1.6,1.3c-0.5,0-0.9-0.1-1.2-0.3L71,87.1z"/>
		<path class="st57" d="M76.6,83.7h-1.4v-0.5h3.5v0.5h-1.4v4.2h-0.6V83.7z"/>
		<path class="st57" d="M79.7,83.2v4.7h-0.6v-4.7H79.7z"/>
		<path class="st57" d="M81.6,83.7h-1.4v-0.5h3.5v0.5h-1.4v4.2h-0.6V83.7z"/>
		<path class="st57" d="M84.2,83.2h0.6v4.2h2v0.5h-2.6V83.2z"/>
		<path class="st57" d="M89.9,85.7h-1.8v1.7h2v0.5h-2.6v-4.7H90v0.5h-1.9v1.5h1.8V85.7z"/>
	</g>
	<g>
		<path class="st57" d="M63.8,95.5c-0.2,0.1-0.5,0.2-1,0.2c-1.1,0-1.9-0.7-1.9-1.9c0-1.2,0.8-2,2-2c0.5,0,0.8,0.1,0.9,0.2l-0.1,0.4
			c-0.2-0.1-0.5-0.2-0.8-0.2c-0.9,0-1.5,0.6-1.5,1.6c0,0.9,0.5,1.5,1.5,1.5c0.3,0,0.6-0.1,0.8-0.2L63.8,95.5z"/>
		<path class="st57" d="M65,94.4l-0.4,1.2h-0.5l1.3-3.8H66l1.3,3.8h-0.5l-0.4-1.2H65z M66.3,94l-0.4-1.1c-0.1-0.3-0.1-0.5-0.2-0.7h0
			c-0.1,0.2-0.1,0.5-0.2,0.7L65.1,94H66.3z"/>
		<path class="st57" d="M68.2,92.2H67v-0.4h2.8v0.4h-1.2v3.4h-0.5V92.2z"/>
		<path class="st57" d="M72.3,93.8h-1.5v1.4h1.7v0.4h-2.2v-3.8h2.1v0.4h-1.6v1.2h1.5V93.8z"/>
		<path class="st57" d="M76,95.5c-0.2,0.1-0.7,0.2-1.2,0.2c-0.6,0-1.1-0.1-1.4-0.5c-0.3-0.3-0.5-0.8-0.5-1.4c0-1.1,0.8-2,2.1-2
			c0.4,0,0.8,0.1,1,0.2l-0.1,0.4c-0.2-0.1-0.5-0.2-0.8-0.2c-0.9,0-1.5,0.6-1.5,1.5c0,1,0.6,1.6,1.5,1.6c0.3,0,0.5,0,0.7-0.1V94h-0.8
			v-0.4H76V95.5z"/>
		<path class="st57" d="M80.1,93.7c0,1.3-0.8,2-1.8,2c-1,0-1.7-0.8-1.7-2c0-1.2,0.8-2,1.8-2C79.4,91.7,80.1,92.5,80.1,93.7z
			 M77.1,93.7c0,0.8,0.4,1.6,1.2,1.6c0.8,0,1.2-0.7,1.2-1.6c0-0.8-0.4-1.6-1.2-1.6C77.5,92.1,77.1,92.9,77.1,93.7z"/>
		<path class="st57" d="M80.7,91.9c0.3-0.1,0.6-0.1,1-0.1c0.5,0,0.9,0.1,1.1,0.3c0.2,0.2,0.3,0.4,0.3,0.7c0,0.5-0.3,0.8-0.7,1v0
			c0.3,0.1,0.5,0.4,0.6,0.8c0.1,0.5,0.2,0.9,0.3,1.1h-0.5c-0.1-0.1-0.1-0.4-0.3-0.9c-0.1-0.5-0.3-0.7-0.8-0.7h-0.5v1.7h-0.5V91.9z
			 M81.2,93.6h0.5c0.5,0,0.9-0.3,0.9-0.7c0-0.5-0.4-0.7-0.9-0.7c-0.2,0-0.4,0-0.5,0V93.6z"/>
		<path class="st57" d="M84.6,95.6V94l-1.2-2.2h0.6l0.5,1.1c0.1,0.3,0.3,0.5,0.4,0.8h0c0.1-0.3,0.2-0.5,0.4-0.8l0.6-1.1h0.6L85.1,94
			v1.6H84.6z"/>
	</g>
	<rect x="23.6" y="11.5" class="st35" width="101.3" height="66.8"/>
	<g>
		<path class="st34" d="M84.4,61.1h-22c-2.2,0-4-1.8-4-4V32.6c0-2.2,1.8-4,4-4h22c2.2,0,4,1.8,4,4v24.5
			C88.4,59.3,86.6,61.1,84.4,61.1z"/>
		<path class="st0" d="M69.4,47.2c0,0-5,5.6-5.1,7c-0.1,1.4,6.9-5,6.9-5l2.6,2.3l1.9-2c0,0-0.6-2.9,0.1-3.8c0.7-0.9,2.5-2.3,4.2-1.4
			l0.4,0.5l2-2.3l-6.8-7.4l-2.1,2c0,0,1.3,2.6-0.8,4.6c-2.1,2-4.2,0.6-4.2,0.6l-1.6,2.4L69.4,47.2z"/>
	</g>
	<rect x="128" y="11.5" class="st35" width="101.3" height="66.8"/>
	<rect x="233.3" y="11.5" class="st35" width="101.3" height="66.8"/>
	<line class="st85" x1="58.4" y1="90.1" x2="88.4" y2="90.1"/>
	<g>
		<path class="st57" d="M160.8,87.9v-4.7h0.7l1.5,2.4c0.3,0.5,0.6,1,0.8,1.5l0,0c-0.1-0.6-0.1-1.2-0.1-1.9v-2h0.6v4.7h-0.6l-1.5-2.4
			c-0.3-0.5-0.6-1.1-0.9-1.6l0,0c0,0.6,0,1.2,0,1.9v2H160.8z"/>
		<path class="st57" d="M167.8,85.7h-1.8v1.7h2v0.5h-2.6v-4.7h2.5v0.5h-1.9v1.5h1.8V85.7z"/>
		<path class="st57" d="M169.6,87.9l-1.2-4.7h0.6l0.6,2.4c0.1,0.6,0.3,1.2,0.3,1.6h0c0.1-0.5,0.2-1,0.4-1.6l0.6-2.4h0.6l0.6,2.4
			c0.1,0.6,0.3,1.1,0.3,1.6h0c0.1-0.5,0.2-1,0.4-1.6l0.6-2.4h0.6l-1.3,4.7h-0.6l-0.6-2.4c-0.1-0.6-0.2-1.1-0.3-1.5h0
			c-0.1,0.5-0.2,0.9-0.4,1.5l-0.7,2.4H169.6z"/>
		<path class="st57" d="M174.6,87.1c0.3,0.2,0.7,0.3,1.1,0.3c0.6,0,1-0.3,1-0.8c0-0.4-0.2-0.7-0.9-0.9c-0.8-0.3-1.2-0.7-1.2-1.3
			c0-0.7,0.6-1.3,1.5-1.3c0.5,0,0.8,0.1,1,0.2l-0.2,0.5c-0.2-0.1-0.5-0.2-0.9-0.2c-0.6,0-0.9,0.4-0.9,0.7c0,0.4,0.3,0.7,0.9,0.9
			c0.8,0.3,1.2,0.7,1.2,1.4c0,0.7-0.5,1.3-1.6,1.3c-0.5,0-0.9-0.1-1.2-0.3L174.6,87.1z"/>
		<path class="st57" d="M180.1,83.7h-1.4v-0.5h3.5v0.5h-1.4v4.2h-0.6V83.7z"/>
		<path class="st57" d="M183.3,83.2v4.7h-0.6v-4.7H183.3z"/>
		<path class="st57" d="M185.2,83.7h-1.4v-0.5h3.5v0.5h-1.4v4.2h-0.6V83.7z"/>
		<path class="st57" d="M187.8,83.2h0.6v4.2h2v0.5h-2.6V83.2z"/>
		<path class="st57" d="M193.5,85.7h-1.8v1.7h2v0.5h-2.6v-4.7h2.5v0.5h-1.9v1.5h1.8V85.7z"/>
	</g>
	<g>
		<path class="st57" d="M167.4,95.5c-0.2,0.1-0.5,0.2-1,0.2c-1.1,0-1.9-0.7-1.9-1.9c0-1.2,0.8-2,2-2c0.5,0,0.8,0.1,0.9,0.2l-0.1,0.4
			c-0.2-0.1-0.5-0.2-0.8-0.2c-0.9,0-1.5,0.6-1.5,1.6c0,0.9,0.5,1.5,1.5,1.5c0.3,0,0.6-0.1,0.8-0.2L167.4,95.5z"/>
		<path class="st57" d="M168.6,94.4l-0.4,1.2h-0.5l1.3-3.8h0.6l1.3,3.8h-0.5l-0.4-1.2H168.6z M169.9,94l-0.4-1.1
			c-0.1-0.3-0.1-0.5-0.2-0.7h0c-0.1,0.2-0.1,0.5-0.2,0.7l-0.4,1.1H169.9z"/>
		<path class="st57" d="M171.8,92.2h-1.2v-0.4h2.8v0.4h-1.2v3.4h-0.5V92.2z"/>
		<path class="st57" d="M175.9,93.8h-1.5v1.4h1.7v0.4h-2.2v-3.8h2.1v0.4h-1.6v1.2h1.5V93.8z"/>
		<path class="st57" d="M179.6,95.5c-0.2,0.1-0.7,0.2-1.2,0.2c-0.6,0-1.1-0.1-1.4-0.5c-0.3-0.3-0.5-0.8-0.5-1.4c0-1.1,0.8-2,2.1-2
			c0.4,0,0.8,0.1,1,0.2l-0.1,0.4c-0.2-0.1-0.5-0.2-0.8-0.2c-0.9,0-1.5,0.6-1.5,1.5c0,1,0.6,1.6,1.5,1.6c0.3,0,0.5,0,0.7-0.1V94h-0.8
			v-0.4h1.3V95.5z"/>
		<path class="st57" d="M183.7,93.7c0,1.3-0.8,2-1.8,2c-1,0-1.7-0.8-1.7-2c0-1.2,0.8-2,1.8-2C183,91.7,183.7,92.5,183.7,93.7z
			 M180.7,93.7c0,0.8,0.4,1.6,1.2,1.6c0.8,0,1.2-0.7,1.2-1.6c0-0.8-0.4-1.6-1.2-1.6C181.1,92.1,180.7,92.9,180.7,93.7z"/>
		<path class="st57" d="M184.3,91.9c0.3-0.1,0.6-0.1,1-0.1c0.5,0,0.9,0.1,1.1,0.3c0.2,0.2,0.3,0.4,0.3,0.7c0,0.5-0.3,0.8-0.7,1v0
			c0.3,0.1,0.5,0.4,0.6,0.8c0.1,0.5,0.2,0.9,0.3,1.1h-0.5c-0.1-0.1-0.1-0.4-0.3-0.9c-0.1-0.5-0.3-0.7-0.8-0.7h-0.5v1.7h-0.5V91.9z
			 M184.8,93.6h0.5c0.5,0,0.9-0.3,0.9-0.7c0-0.5-0.4-0.7-0.9-0.7c-0.2,0-0.4,0-0.5,0V93.6z"/>
		<path class="st57" d="M188.2,95.6V94l-1.2-2.2h0.6l0.5,1.1c0.1,0.3,0.3,0.5,0.4,0.8h0c0.1-0.3,0.2-0.5,0.4-0.8l0.6-1.1h0.6
			l-1.3,2.2v1.6H188.2z"/>
	</g>
	<line class="st85" x1="162" y1="90.1" x2="192" y2="90.1"/>
	<g>
		<path class="st57" d="M269.7,87.9v-4.7h0.7l1.5,2.4c0.3,0.5,0.6,1,0.8,1.5l0,0c-0.1-0.6-0.1-1.2-0.1-1.9v-2h0.6v4.7h-0.6l-1.5-2.4
			c-0.3-0.5-0.6-1.1-0.9-1.6l0,0c0,0.6,0,1.2,0,1.9v2H269.7z"/>
		<path class="st57" d="M276.7,85.7h-1.8v1.7h2v0.5h-2.6v-4.7h2.5v0.5h-1.9v1.5h1.8V85.7z"/>
		<path class="st57" d="M278.5,87.9l-1.2-4.7h0.6l0.6,2.4c0.1,0.6,0.3,1.2,0.3,1.6h0c0.1-0.5,0.2-1,0.4-1.6l0.6-2.4h0.6l0.6,2.4
			c0.1,0.6,0.3,1.1,0.3,1.6h0c0.1-0.5,0.2-1,0.4-1.6l0.6-2.4h0.6l-1.3,4.7H281l-0.6-2.4c-0.1-0.6-0.2-1.1-0.3-1.5h0
			c-0.1,0.5-0.2,0.9-0.4,1.5l-0.7,2.4H278.5z"/>
		<path class="st57" d="M283.5,87.1c0.3,0.2,0.7,0.3,1.1,0.3c0.6,0,1-0.3,1-0.8c0-0.4-0.2-0.7-0.9-0.9c-0.8-0.3-1.2-0.7-1.2-1.3
			c0-0.7,0.6-1.3,1.5-1.3c0.5,0,0.8,0.1,1,0.2l-0.2,0.5c-0.2-0.1-0.5-0.2-0.9-0.2c-0.6,0-0.9,0.4-0.9,0.7c0,0.4,0.3,0.7,0.9,0.9
			c0.8,0.3,1.2,0.7,1.2,1.4c0,0.7-0.5,1.3-1.6,1.3c-0.5,0-0.9-0.1-1.2-0.3L283.5,87.1z"/>
		<path class="st57" d="M289,83.7h-1.4v-0.5h3.5v0.5h-1.4v4.2H289V83.7z"/>
		<path class="st57" d="M292.2,83.2v4.7h-0.6v-4.7H292.2z"/>
		<path class="st57" d="M294.1,83.7h-1.4v-0.5h3.5v0.5h-1.4v4.2h-0.6V83.7z"/>
		<path class="st57" d="M296.7,83.2h0.6v4.2h2v0.5h-2.6V83.2z"/>
		<path class="st57" d="M302.4,85.7h-1.8v1.7h2v0.5H300v-4.7h2.5v0.5h-1.9v1.5h1.8V85.7z"/>
	</g>
	<g>
		<path class="st57" d="M276.3,95.5c-0.2,0.1-0.5,0.2-1,0.2c-1.1,0-1.9-0.7-1.9-1.9c0-1.2,0.8-2,2-2c0.5,0,0.8,0.1,0.9,0.2l-0.1,0.4
			c-0.2-0.1-0.5-0.2-0.8-0.2c-0.9,0-1.5,0.6-1.5,1.6c0,0.9,0.5,1.5,1.5,1.5c0.3,0,0.6-0.1,0.8-0.2L276.3,95.5z"/>
		<path class="st57" d="M277.5,94.4l-0.4,1.2h-0.5l1.3-3.8h0.6l1.3,3.8h-0.5l-0.4-1.2H277.5z M278.8,94l-0.4-1.1
			c-0.1-0.3-0.1-0.5-0.2-0.7h0c-0.1,0.2-0.1,0.5-0.2,0.7l-0.4,1.1H278.8z"/>
		<path class="st57" d="M280.7,92.2h-1.2v-0.4h2.8v0.4h-1.2v3.4h-0.5V92.2z"/>
		<path class="st57" d="M284.8,93.8h-1.5v1.4h1.7v0.4h-2.2v-3.8h2.1v0.4h-1.6v1.2h1.5V93.8z"/>
		<path class="st57" d="M288.5,95.5c-0.2,0.1-0.7,0.2-1.2,0.2c-0.6,0-1.1-0.1-1.4-0.5c-0.3-0.3-0.5-0.8-0.5-1.4c0-1.1,0.8-2,2.1-2
			c0.4,0,0.8,0.1,1,0.2l-0.1,0.4c-0.2-0.1-0.5-0.2-0.8-0.2c-0.9,0-1.5,0.6-1.5,1.5c0,1,0.6,1.6,1.5,1.6c0.3,0,0.5,0,0.7-0.1V94h-0.8
			v-0.4h1.3V95.5z"/>
		<path class="st57" d="M292.6,93.7c0,1.3-0.8,2-1.8,2c-1,0-1.7-0.8-1.7-2c0-1.2,0.8-2,1.8-2C291.9,91.7,292.6,92.5,292.6,93.7z
			 M289.6,93.7c0,0.8,0.4,1.6,1.2,1.6c0.8,0,1.2-0.7,1.2-1.6c0-0.8-0.4-1.6-1.2-1.6C290,92.1,289.6,92.9,289.6,93.7z"/>
		<path class="st57" d="M293.2,91.9c0.3-0.1,0.6-0.1,1-0.1c0.5,0,0.9,0.1,1.1,0.3c0.2,0.2,0.3,0.4,0.3,0.7c0,0.5-0.3,0.8-0.7,1v0
			c0.3,0.1,0.5,0.4,0.6,0.8c0.1,0.5,0.2,0.9,0.3,1.1h-0.5c-0.1-0.1-0.1-0.4-0.3-0.9c-0.1-0.5-0.3-0.7-0.8-0.7h-0.5v1.7h-0.5V91.9z
			 M293.7,93.6h0.5c0.5,0,0.9-0.3,0.9-0.7c0-0.5-0.4-0.7-0.9-0.7c-0.2,0-0.4,0-0.5,0V93.6z"/>
		<path class="st57" d="M297.1,95.6V94l-1.2-2.2h0.6l0.5,1.1c0.1,0.3,0.3,0.5,0.4,0.8h0c0.1-0.3,0.2-0.5,0.4-0.8l0.6-1.1h0.6
			l-1.3,2.2v1.6H297.1z"/>
	</g>
	<line class="st85" x1="270.9" y1="90.1" x2="300.9" y2="90.1"/>
	<g>
		<path class="st57" d="M57.2,177.5v-4.7h0.7l1.5,2.4c0.3,0.5,0.6,1,0.8,1.5l0,0c-0.1-0.6-0.1-1.2-0.1-1.9v-2h0.6v4.7h-0.6l-1.5-2.4
			c-0.3-0.5-0.6-1.1-0.9-1.6l0,0c0,0.6,0,1.1,0,1.9v2H57.2z"/>
		<path class="st57" d="M64.2,175.3h-1.8v1.7h2v0.5h-2.6v-4.7h2.5v0.5h-1.9v1.5h1.8V175.3z"/>
		<path class="st57" d="M66,177.5l-1.2-4.7h0.6l0.6,2.4c0.1,0.6,0.3,1.2,0.3,1.6h0c0.1-0.5,0.2-1,0.4-1.6l0.6-2.4H68l0.6,2.4
			c0.1,0.6,0.3,1.1,0.3,1.6h0c0.1-0.5,0.2-1,0.4-1.6l0.6-2.4h0.6l-1.3,4.7h-0.6L68,175c-0.1-0.6-0.2-1.1-0.3-1.5h0
			c-0.1,0.5-0.2,0.9-0.4,1.5l-0.7,2.4H66z"/>
		<path class="st57" d="M71,176.7c0.3,0.2,0.7,0.3,1.1,0.3c0.6,0,1-0.3,1-0.8c0-0.4-0.2-0.7-0.9-0.9c-0.8-0.3-1.2-0.7-1.2-1.3
			c0-0.7,0.6-1.3,1.5-1.3c0.5,0,0.8,0.1,1,0.2l-0.2,0.5c-0.2-0.1-0.5-0.2-0.9-0.2c-0.6,0-0.9,0.4-0.9,0.7c0,0.4,0.3,0.7,0.9,0.9
			c0.8,0.3,1.2,0.7,1.2,1.4c0,0.7-0.5,1.3-1.6,1.3c-0.5,0-0.9-0.1-1.2-0.3L71,176.7z"/>
		<path class="st57" d="M76.6,173.3h-1.4v-0.5h3.5v0.5h-1.4v4.2h-0.6V173.3z"/>
		<path class="st57" d="M79.7,172.8v4.7h-0.6v-4.7H79.7z"/>
		<path class="st57" d="M81.6,173.3h-1.4v-0.5h3.5v0.5h-1.4v4.2h-0.6V173.3z"/>
		<path class="st57" d="M84.2,172.8h0.6v4.2h2v0.5h-2.6V172.8z"/>
		<path class="st57" d="M89.9,175.3h-1.8v1.7h2v0.5h-2.6v-4.7H90v0.5h-1.9v1.5h1.8V175.3z"/>
	</g>
	<g>
		<path class="st57" d="M63.8,185.1c-0.2,0.1-0.5,0.2-1,0.2c-1.1,0-1.9-0.7-1.9-1.9c0-1.2,0.8-2,2-2c0.5,0,0.8,0.1,0.9,0.2l-0.1,0.4
			c-0.2-0.1-0.5-0.2-0.8-0.2c-0.9,0-1.5,0.6-1.5,1.6c0,0.9,0.5,1.5,1.5,1.5c0.3,0,0.6-0.1,0.8-0.2L63.8,185.1z"/>
		<path class="st57" d="M65,184l-0.4,1.2h-0.5l1.3-3.8H66l1.3,3.8h-0.5l-0.4-1.2H65z M66.3,183.6l-0.4-1.1c-0.1-0.3-0.1-0.5-0.2-0.7
			h0c-0.1,0.2-0.1,0.5-0.2,0.7l-0.4,1.1H66.3z"/>
		<path class="st57" d="M68.2,181.8H67v-0.4h2.8v0.4h-1.2v3.4h-0.5V181.8z"/>
		<path class="st57" d="M72.3,183.4h-1.5v1.4h1.7v0.4h-2.2v-3.8h2.1v0.4h-1.6v1.2h1.5V183.4z"/>
		<path class="st57" d="M76,185.1c-0.2,0.1-0.7,0.2-1.2,0.2c-0.6,0-1.1-0.1-1.4-0.5c-0.3-0.3-0.5-0.8-0.5-1.4c0-1.1,0.8-2,2.1-2
			c0.4,0,0.8,0.1,1,0.2l-0.1,0.4c-0.2-0.1-0.5-0.2-0.8-0.2c-0.9,0-1.5,0.6-1.5,1.5c0,1,0.6,1.6,1.5,1.6c0.3,0,0.5,0,0.7-0.1v-1.1
			h-0.8v-0.4H76V185.1z"/>
		<path class="st57" d="M80.1,183.3c0,1.3-0.8,2-1.8,2c-1,0-1.7-0.8-1.7-2c0-1.2,0.8-2,1.8-2C79.4,181.3,80.1,182.1,80.1,183.3z
			 M77.1,183.3c0,0.8,0.4,1.6,1.2,1.6c0.8,0,1.2-0.7,1.2-1.6c0-0.8-0.4-1.6-1.2-1.6C77.5,181.7,77.1,182.5,77.1,183.3z"/>
		<path class="st57" d="M80.7,181.5c0.3-0.1,0.6-0.1,1-0.1c0.5,0,0.9,0.1,1.1,0.3c0.2,0.2,0.3,0.4,0.3,0.7c0,0.5-0.3,0.8-0.7,1v0
			c0.3,0.1,0.5,0.4,0.6,0.8c0.1,0.5,0.2,0.9,0.3,1.1h-0.5c-0.1-0.1-0.1-0.4-0.3-0.9c-0.1-0.5-0.3-0.7-0.8-0.7h-0.5v1.7h-0.5V181.5z
			 M81.2,183.2h0.5c0.5,0,0.9-0.3,0.9-0.7c0-0.5-0.4-0.7-0.9-0.7c-0.2,0-0.4,0-0.5,0V183.2z"/>
		<path class="st57" d="M84.6,185.2v-1.6l-1.2-2.2h0.6l0.5,1.1c0.1,0.3,0.3,0.5,0.4,0.8h0c0.1-0.3,0.2-0.5,0.4-0.8l0.6-1.1h0.6
			l-1.3,2.2v1.6H84.6z"/>
	</g>
	<line class="st85" x1="58.4" y1="179.7" x2="88.4" y2="179.7"/>
	<g>
		<path class="st57" d="M160.8,177.5v-4.7h0.7l1.5,2.4c0.3,0.5,0.6,1,0.8,1.5l0,0c-0.1-0.6-0.1-1.2-0.1-1.9v-2h0.6v4.7h-0.6
			l-1.5-2.4c-0.3-0.5-0.6-1.1-0.9-1.6l0,0c0,0.6,0,1.1,0,1.9v2H160.8z"/>
		<path class="st57" d="M167.8,175.3h-1.8v1.7h2v0.5h-2.6v-4.7h2.5v0.5h-1.9v1.5h1.8V175.3z"/>
		<path class="st57" d="M169.6,177.5l-1.2-4.7h0.6l0.6,2.4c0.1,0.6,0.3,1.2,0.3,1.6h0c0.1-0.5,0.2-1,0.4-1.6l0.6-2.4h0.6l0.6,2.4
			c0.1,0.6,0.3,1.1,0.3,1.6h0c0.1-0.5,0.2-1,0.4-1.6l0.6-2.4h0.6l-1.3,4.7h-0.6l-0.6-2.4c-0.1-0.6-0.2-1.1-0.3-1.5h0
			c-0.1,0.5-0.2,0.9-0.4,1.5l-0.7,2.4H169.6z"/>
		<path class="st57" d="M174.6,176.7c0.3,0.2,0.7,0.3,1.1,0.3c0.6,0,1-0.3,1-0.8c0-0.4-0.2-0.7-0.9-0.9c-0.8-0.3-1.2-0.7-1.2-1.3
			c0-0.7,0.6-1.3,1.5-1.3c0.5,0,0.8,0.1,1,0.2l-0.2,0.5c-0.2-0.1-0.5-0.2-0.9-0.2c-0.6,0-0.9,0.4-0.9,0.7c0,0.4,0.3,0.7,0.9,0.9
			c0.8,0.3,1.2,0.7,1.2,1.4c0,0.7-0.5,1.3-1.6,1.3c-0.5,0-0.9-0.1-1.2-0.3L174.6,176.7z"/>
		<path class="st57" d="M180.1,173.3h-1.4v-0.5h3.5v0.5h-1.4v4.2h-0.6V173.3z"/>
		<path class="st57" d="M183.3,172.8v4.7h-0.6v-4.7H183.3z"/>
		<path class="st57" d="M185.2,173.3h-1.4v-0.5h3.5v0.5h-1.4v4.2h-0.6V173.3z"/>
		<path class="st57" d="M187.8,172.8h0.6v4.2h2v0.5h-2.6V172.8z"/>
		<path class="st57" d="M193.5,175.3h-1.8v1.7h2v0.5h-2.6v-4.7h2.5v0.5h-1.9v1.5h1.8V175.3z"/>
	</g>
	<g>
		<path class="st57" d="M167.4,185.1c-0.2,0.1-0.5,0.2-1,0.2c-1.1,0-1.9-0.7-1.9-1.9c0-1.2,0.8-2,2-2c0.5,0,0.8,0.1,0.9,0.2
			l-0.1,0.4c-0.2-0.1-0.5-0.2-0.8-0.2c-0.9,0-1.5,0.6-1.5,1.6c0,0.9,0.5,1.5,1.5,1.5c0.3,0,0.6-0.1,0.8-0.2L167.4,185.1z"/>
		<path class="st57" d="M168.6,184l-0.4,1.2h-0.5l1.3-3.8h0.6l1.3,3.8h-0.5L170,184H168.6z M169.9,183.6l-0.4-1.1
			c-0.1-0.3-0.1-0.5-0.2-0.7h0c-0.1,0.2-0.1,0.5-0.2,0.7l-0.4,1.1H169.9z"/>
		<path class="st57" d="M171.8,181.8h-1.2v-0.4h2.8v0.4h-1.2v3.4h-0.5V181.8z"/>
		<path class="st57" d="M175.9,183.4h-1.5v1.4h1.7v0.4h-2.2v-3.8h2.1v0.4h-1.6v1.2h1.5V183.4z"/>
		<path class="st57" d="M179.6,185.1c-0.2,0.1-0.7,0.2-1.2,0.2c-0.6,0-1.1-0.1-1.4-0.5c-0.3-0.3-0.5-0.8-0.5-1.4c0-1.1,0.8-2,2.1-2
			c0.4,0,0.8,0.1,1,0.2l-0.1,0.4c-0.2-0.1-0.5-0.2-0.8-0.2c-0.9,0-1.5,0.6-1.5,1.5c0,1,0.6,1.6,1.5,1.6c0.3,0,0.5,0,0.7-0.1v-1.1
			h-0.8v-0.4h1.3V185.1z"/>
		<path class="st57" d="M183.7,183.3c0,1.3-0.8,2-1.8,2c-1,0-1.7-0.8-1.7-2c0-1.2,0.8-2,1.8-2C183,181.3,183.7,182.1,183.7,183.3z
			 M180.7,183.3c0,0.8,0.4,1.6,1.2,1.6c0.8,0,1.2-0.7,1.2-1.6c0-0.8-0.4-1.6-1.2-1.6C181.1,181.7,180.7,182.5,180.7,183.3z"/>
		<path class="st57" d="M184.3,181.5c0.3-0.1,0.6-0.1,1-0.1c0.5,0,0.9,0.1,1.1,0.3c0.2,0.2,0.3,0.4,0.3,0.7c0,0.5-0.3,0.8-0.7,1v0
			c0.3,0.1,0.5,0.4,0.6,0.8c0.1,0.5,0.2,0.9,0.3,1.1h-0.5c-0.1-0.1-0.1-0.4-0.3-0.9c-0.1-0.5-0.3-0.7-0.8-0.7h-0.5v1.7h-0.5V181.5z
			 M184.8,183.2h0.5c0.5,0,0.9-0.3,0.9-0.7c0-0.5-0.4-0.7-0.9-0.7c-0.2,0-0.4,0-0.5,0V183.2z"/>
		<path class="st57" d="M188.2,185.2v-1.6l-1.2-2.2h0.6l0.5,1.1c0.1,0.3,0.3,0.5,0.4,0.8h0c0.1-0.3,0.2-0.5,0.4-0.8l0.6-1.1h0.6
			l-1.3,2.2v1.6H188.2z"/>
	</g>
	<line class="st85" x1="162" y1="179.7" x2="192" y2="179.7"/>
	<g>
		<path class="st57" d="M269.7,177.5v-4.7h0.7l1.5,2.4c0.3,0.5,0.6,1,0.8,1.5l0,0c-0.1-0.6-0.1-1.2-0.1-1.9v-2h0.6v4.7h-0.6
			l-1.5-2.4c-0.3-0.5-0.6-1.1-0.9-1.6l0,0c0,0.6,0,1.1,0,1.9v2H269.7z"/>
		<path class="st57" d="M276.7,175.3h-1.8v1.7h2v0.5h-2.6v-4.7h2.5v0.5h-1.9v1.5h1.8V175.3z"/>
		<path class="st57" d="M278.5,177.5l-1.2-4.7h0.6l0.6,2.4c0.1,0.6,0.3,1.2,0.3,1.6h0c0.1-0.5,0.2-1,0.4-1.6l0.6-2.4h0.6l0.6,2.4
			c0.1,0.6,0.3,1.1,0.3,1.6h0c0.1-0.5,0.2-1,0.4-1.6l0.6-2.4h0.6l-1.3,4.7H281l-0.6-2.4c-0.1-0.6-0.2-1.1-0.3-1.5h0
			c-0.1,0.5-0.2,0.9-0.4,1.5l-0.7,2.4H278.5z"/>
		<path class="st57" d="M283.5,176.7c0.3,0.2,0.7,0.3,1.1,0.3c0.6,0,1-0.3,1-0.8c0-0.4-0.2-0.7-0.9-0.9c-0.8-0.3-1.2-0.7-1.2-1.3
			c0-0.7,0.6-1.3,1.5-1.3c0.5,0,0.8,0.1,1,0.2l-0.2,0.5c-0.2-0.1-0.5-0.2-0.9-0.2c-0.6,0-0.9,0.4-0.9,0.7c0,0.4,0.3,0.7,0.9,0.9
			c0.8,0.3,1.2,0.7,1.2,1.4c0,0.7-0.5,1.3-1.6,1.3c-0.5,0-0.9-0.1-1.2-0.3L283.5,176.7z"/>
		<path class="st57" d="M289,173.3h-1.4v-0.5h3.5v0.5h-1.4v4.2H289V173.3z"/>
		<path class="st57" d="M292.2,172.8v4.7h-0.6v-4.7H292.2z"/>
		<path class="st57" d="M294.1,173.3h-1.4v-0.5h3.5v0.5h-1.4v4.2h-0.6V173.3z"/>
		<path class="st57" d="M296.7,172.8h0.6v4.2h2v0.5h-2.6V172.8z"/>
		<path class="st57" d="M302.4,175.3h-1.8v1.7h2v0.5H300v-4.7h2.5v0.5h-1.9v1.5h1.8V175.3z"/>
	</g>
	<g>
		<path class="st57" d="M276.3,185.1c-0.2,0.1-0.5,0.2-1,0.2c-1.1,0-1.9-0.7-1.9-1.9c0-1.2,0.8-2,2-2c0.5,0,0.8,0.1,0.9,0.2
			l-0.1,0.4c-0.2-0.1-0.5-0.2-0.8-0.2c-0.9,0-1.5,0.6-1.5,1.6c0,0.9,0.5,1.5,1.5,1.5c0.3,0,0.6-0.1,0.8-0.2L276.3,185.1z"/>
		<path class="st57" d="M277.5,184l-0.4,1.2h-0.5l1.3-3.8h0.6l1.3,3.8h-0.5l-0.4-1.2H277.5z M278.8,183.6l-0.4-1.1
			c-0.1-0.3-0.1-0.5-0.2-0.7h0c-0.1,0.2-0.1,0.5-0.2,0.7l-0.4,1.1H278.8z"/>
		<path class="st57" d="M280.7,181.8h-1.2v-0.4h2.8v0.4h-1.2v3.4h-0.5V181.8z"/>
		<path class="st57" d="M284.8,183.4h-1.5v1.4h1.7v0.4h-2.2v-3.8h2.1v0.4h-1.6v1.2h1.5V183.4z"/>
		<path class="st57" d="M288.5,185.1c-0.2,0.1-0.7,0.2-1.2,0.2c-0.6,0-1.1-0.1-1.4-0.5c-0.3-0.3-0.5-0.8-0.5-1.4c0-1.1,0.8-2,2.1-2
			c0.4,0,0.8,0.1,1,0.2l-0.1,0.4c-0.2-0.1-0.5-0.2-0.8-0.2c-0.9,0-1.5,0.6-1.5,1.5c0,1,0.6,1.6,1.5,1.6c0.3,0,0.5,0,0.7-0.1v-1.1
			h-0.8v-0.4h1.3V185.1z"/>
		<path class="st57" d="M292.6,183.3c0,1.3-0.8,2-1.8,2c-1,0-1.7-0.8-1.7-2c0-1.2,0.8-2,1.8-2C291.9,181.3,292.6,182.1,292.6,183.3z
			 M289.6,183.3c0,0.8,0.4,1.6,1.2,1.6c0.8,0,1.2-0.7,1.2-1.6c0-0.8-0.4-1.6-1.2-1.6C290,181.7,289.6,182.5,289.6,183.3z"/>
		<path class="st57" d="M293.2,181.5c0.3-0.1,0.6-0.1,1-0.1c0.5,0,0.9,0.1,1.1,0.3c0.2,0.2,0.3,0.4,0.3,0.7c0,0.5-0.3,0.8-0.7,1v0
			c0.3,0.1,0.5,0.4,0.6,0.8c0.1,0.5,0.2,0.9,0.3,1.1h-0.5c-0.1-0.1-0.1-0.4-0.3-0.9c-0.1-0.5-0.3-0.7-0.8-0.7h-0.5v1.7h-0.5V181.5z
			 M293.7,183.2h0.5c0.5,0,0.9-0.3,0.9-0.7c0-0.5-0.4-0.7-0.9-0.7c-0.2,0-0.4,0-0.5,0V183.2z"/>
		<path class="st57" d="M297.1,185.2v-1.6l-1.2-2.2h0.6l0.5,1.1c0.1,0.3,0.3,0.5,0.4,0.8h0c0.1-0.3,0.2-0.5,0.4-0.8l0.6-1.1h0.6
			l-1.3,2.2v1.6H297.1z"/>
	</g>
	<line class="st85" x1="270.9" y1="179.7" x2="300.9" y2="179.7"/>
	<rect x="23.6" y="101.7" class="st35" width="101.3" height="66.8"/>
	<rect x="128" y="101.7" class="st35" width="101.3" height="66.8"/>
	<rect x="233.3" y="101.7" class="st35" width="101.3" height="66.8"/>
</g>
</svg>
