<?xml version="1.0" encoding="utf-8"?>
<!-- Generator: Adobe Illustrator 24.2.1, SVG Export Plug-In . SVG Version: 6.00 Build 0)  -->
<svg version="1.1" id="Capa_1" xmlns="http://www.w3.org/2000/svg" xmlns:xlink="http://www.w3.org/1999/xlink" x="0px" y="0px"
	 viewBox="0 0 100 100" style="enable-background:new 0 0 100 100;" xml:space="preserve">
<style type="text/css">
	.st0{fill:#FFFFFF;}
</style>
<g>
	<g>
		<g>
			<path class="st0" d="M93.7,88.7L68.4,63.5c11.5-14,10.7-34.7-2.3-47.8c-13.9-13.9-36.5-13.9-50.4,0s-13.9,36.5,0,50.4
				c13,13,33.8,13.8,47.8,2.3l25.2,25.2c1.4,1.4,3.6,1.4,4.9,0C95,92.3,95,90.1,93.7,88.7z M61.2,61.2c-11.2,11.2-29.3,11.2-40.5,0
				C9.5,50,9.5,31.8,20.7,20.7C31.8,9.5,50,9.5,61.2,20.7C72.3,31.8,72.3,50,61.2,61.2z"/>
		</g>
	</g>
	<g>
		<g>
			<path class="st0" d="M58,37.4H44.4V23.8c0-1.9-1.6-3.5-3.5-3.5s-3.5,1.6-3.5,3.5v13.6H23.8c-1.9,0-3.5,1.6-3.5,3.5
				s1.6,3.5,3.5,3.5h13.6V58c0,1.9,1.6,3.5,3.5,3.5s3.5-1.6,3.5-3.5V44.4H58c1.9,0,3.5-1.6,3.5-3.5S59.9,37.4,58,37.4z"/>
		</g>
	</g>
</g>
</svg>
