<svg width="24" height="20" viewBox="0 0 24 20" fill="none" xmlns="http://www.w3.org/2000/svg">
<path fill-rule="evenodd" clip-rule="evenodd" d="M10.2188 0.132517C9.12187 0.477647 7.59769 1.56356 6.89906 2.49753C5.98106 3.72478 5.625 4.81637 5.625 6.40313C5.625 12.3345 12.8203 15.1343 16.7445 10.7297C17.9741 9.3496 18.4318 8.01317 18.3351 6.08487C18.2108 3.60368 17.1169 1.85381 14.9674 0.697705C13.9491 0.149925 13.569 0.0522899 12.2812 0.00744575C11.4563 -0.0211259 10.5281 0.0350711 10.2188 0.132517ZM14.1562 1.71928C17.9979 3.55524 18.1344 9.15187 14.3827 11.0001C13.0331 11.6652 11.9181 11.7873 10.6346 11.4107C8.31375 10.7299 6.87544 8.81564 6.89044 6.42792C6.9 4.91552 7.23638 4.02374 8.20744 2.9367C9.67988 1.28825 12.1824 0.776041 14.1562 1.71928ZM10.7411 3.55979C10.5996 3.70264 10.6631 4.07559 10.959 4.83775C11.4819 6.18421 11.4004 6.37645 9.78131 7.61203C8.54475 8.55584 8.10806 9.21469 8.71931 9.21469C8.88937 9.21469 9.53569 8.82094 10.1554 8.33957C10.7753 7.85839 11.5914 7.39387 11.9692 7.3074C12.5991 7.16321 12.7776 7.23039 14.1141 8.11459C14.9156 8.64515 15.6201 9.03059 15.6789 8.97098C15.738 8.91138 15.105 8.40977 14.2723 7.85612C13.3686 7.25517 12.7568 6.71894 12.7543 6.52575C12.7519 6.34769 12.5934 6.04968 12.402 5.86349C12.2106 5.6773 11.9042 5.12176 11.7214 4.62886C11.3359 3.59063 11.0353 3.26291 10.7411 3.55979ZM1.43756 4.23207C1.36875 4.30132 1.3125 7.40655 1.3125 11.1326V17.9069L6.46894 17.9601L11.6252 18.0132V16.0738L11.625 14.1343H11.0625H10.5V15.4588V16.7833H6.46875H2.4375V11.0122V5.24116H3.35494C4.0185 5.24116 4.30388 5.15828 4.38619 4.94182C4.67494 4.1825 4.55062 4.10586 3.03131 4.10586C2.22337 4.10586 1.50619 4.16263 1.43756 4.23207ZM19.5 4.3666C19.5 5.07011 19.7239 5.24116 20.6451 5.24116H21.5625V11.0122V16.7833H17.5312H13.5V15.4588V14.1343H12.9375H12.375L12.3748 16.0738V18.0132L17.5335 17.9601L22.6922 17.9069L22.6429 11.0537L22.5938 4.20047L21.0469 4.1456C19.7916 4.10094 19.5 4.14257 19.5 4.3666ZM0 12.0529V19.4324H5.13619C9.52875 19.4324 10.2879 19.4734 10.3804 19.7162C10.4636 19.9355 10.8263 20 11.9741 20C13.1218 20 13.4844 19.9355 13.5679 19.7162C13.6601 19.4734 14.4223 19.4324 18.8379 19.4324H24V12.0529C24 5.64684 23.9632 4.67351 23.721 4.67351C23.4801 4.67351 23.4354 5.62016 23.3929 11.6272L23.3438 18.5809H12H0.65625L0.607125 11.6272C0.564562 5.62016 0.519937 4.67351 0.279 4.67351C0.0367498 4.67351 0 5.64684 0 12.0529ZM3.375 6.64703C3.375 6.84022 3.54431 6.9441 3.85931 6.9441C4.44675 6.9441 4.38244 6.49982 3.78225 6.41051C3.51169 6.3704 3.375 6.44987 3.375 6.64703ZM19.8126 6.50266C19.5576 6.75981 19.701 6.9441 20.1562 6.9441C20.448 6.9441 20.625 6.83682 20.625 6.66028C20.625 6.37645 20.0484 6.26463 19.8126 6.50266ZM3.375 8.35073C3.375 8.55565 3.55331 8.64705 3.95306 8.64705C4.67044 8.64705 4.60612 8.20125 3.87619 8.11421C3.52106 8.07164 3.375 8.14051 3.375 8.35073ZM19.6251 8.2056C19.3562 8.47675 19.5249 8.64705 20.0625 8.64705C20.4375 8.64705 20.625 8.55244 20.625 8.36322C20.625 8.07675 19.8705 7.95792 19.6251 8.2056ZM3.50006 9.90855C3.19556 10.2158 3.44063 10.35 4.30669 10.35C5.05763 10.35 5.21737 10.2949 5.13037 10.0662C5.0205 9.77742 3.7515 9.65481 3.50006 9.90855ZM18.8734 10.0565C18.7817 10.2978 18.9302 10.35 19.7091 10.35C20.3829 10.35 20.634 10.2817 20.5793 10.1135C20.4594 9.7462 19.0099 9.69776 18.8734 10.0565ZM3.375 11.8637C3.375 11.9752 4.035 12.0529 4.97981 12.0529C6.00187 12.0529 6.54262 11.9842 6.46875 11.8637C6.405 11.7596 5.68294 11.6745 4.86394 11.6745C3.99638 11.6745 3.375 11.7534 3.375 11.8637ZM17.5312 11.8637C17.4574 11.9842 17.9981 12.0529 19.0202 12.0529C19.965 12.0529 20.625 11.9752 20.625 11.8637C20.625 11.7534 20.0036 11.6745 19.1361 11.6745C18.3171 11.6745 17.595 11.7596 17.5312 11.8637ZM3.375 13.5667C3.375 13.6847 4.45125 13.7547 6.23438 13.753C8.14987 13.751 9.00094 13.6895 8.8125 13.5667C8.43262 13.319 3.375 13.319 3.375 13.5667ZM15.1875 13.5667C14.9991 13.6895 15.8501 13.751 17.7656 13.753C19.5487 13.7547 20.625 13.6847 20.625 13.5667C20.625 13.319 15.5674 13.319 15.1875 13.5667ZM3.375 15.2696C3.375 15.3871 4.40625 15.4588 6.09375 15.4588C7.78125 15.4588 8.8125 15.3871 8.8125 15.2696C8.8125 15.1521 7.78125 15.0804 6.09375 15.0804C4.40625 15.0804 3.375 15.1521 3.375 15.2696ZM14.4375 15.2696C14.4375 15.3871 15.4688 15.4588 17.1562 15.4588C18.8438 15.4588 19.875 15.3871 19.875 15.2696C19.875 15.1521 18.8438 15.0804 17.1562 15.0804C15.4688 15.0804 14.4375 15.1521 14.4375 15.2696Z" fill="white"/>
</svg>
