<svg width="24" height="27" viewBox="0 0 24 27" fill="none" xmlns="http://www.w3.org/2000/svg">
<g clip-path="url(#clip0_839_1011)">
<path d="M13.8872 0.0237092C13.8872 1.83973 13.8872 3.59641 13.8872 5.35309C13.8872 6.04151 13.8872 6.74181 13.8872 7.43024C13.8872 9.05635 14.9555 10.1365 16.5935 10.1483C18.8843 10.1602 21.1869 10.1483 23.4777 10.1483C23.6202 10.1483 23.7507 10.1483 23.9644 10.1483C23.9762 10.3739 23.9881 10.5875 23.9881 10.7893C23.9881 14.7062 23.9881 18.6231 23.9881 22.54C23.9881 24.2848 22.9792 25.3056 21.2344 25.3056C18.6469 25.3175 16.0475 25.3056 13.4599 25.3056C13.3294 25.3056 13.1869 25.2937 12.9733 25.2819C13.0682 25.1276 13.1276 25.0089 13.2107 24.9139C14.089 23.8694 14.6944 22.6825 14.9555 21.3293C15.0267 20.9733 15.181 20.8546 15.549 20.8546C16.5222 20.8783 17.4837 20.8664 18.457 20.8546C19.1573 20.8427 19.5727 20.4866 19.5846 19.905C19.5846 19.3353 19.1573 18.9436 18.4688 18.9317C17.4955 18.9199 16.5341 18.9199 15.5608 18.9317C15.2522 18.9317 15.086 18.8605 15.0742 18.5163C15.0504 18.1483 14.9673 17.7923 14.8961 17.3768C16.0949 17.3768 17.2581 17.3768 18.4214 17.3768C19.1573 17.3768 19.5846 17.0089 19.5727 16.4035C19.5608 15.8219 19.1454 15.4777 18.4451 15.4658C17.1632 15.4658 15.8694 15.454 14.5875 15.4777C14.2196 15.4777 13.9703 15.4065 13.7685 15.0623C13.5668 14.6943 13.27 14.362 12.9733 13.9584C13.2107 13.9466 13.4006 13.9228 13.5786 13.9228C15.2047 13.9228 16.819 13.9228 18.4451 13.9228C18.9673 13.9228 19.3828 13.721 19.5371 13.1869C19.6676 12.7359 19.5015 12.3442 19.086 12.1305C18.8487 12.0118 18.5519 12 18.2789 12C15.8219 11.9881 13.3768 12.0118 10.9199 11.9881C10.4332 11.9881 9.93471 11.905 9.4718 11.7626C7.77447 11.2285 6.08901 11.2166 4.40355 11.7388C4.23738 11.7863 4.0712 11.8457 3.89316 11.8931C3.88129 11.8931 3.85755 11.8813 3.79821 11.8694C3.78634 11.7388 3.7626 11.5845 3.7626 11.4421C3.7626 8.49849 3.75073 5.543 3.7626 2.59938C3.79821 1.17504 4.67655 0.0949258 6.10088 0.0474481C8.66468 -0.035638 11.2403 0.0237092 13.8872 0.0237092Z" fill="white"/>
<path d="M6.89618 26.5519C3.05048 26.54 -0.011835 23.4421 3.43875e-05 19.5845C0.0119038 15.7269 3.14544 12.629 7.01487 12.6646C10.8131 12.6883 13.9229 15.8575 13.8991 19.6794C13.8754 23.4895 10.73 26.5756 6.89618 26.5519ZM5.67362 18.3026C5.67362 18.9198 5.67362 19.5251 5.67362 20.1424C5.67362 20.629 5.89914 20.8783 6.38579 20.8901C7.37095 20.8901 8.36799 20.8901 9.35315 20.8901C9.79232 20.8901 10.1009 20.7121 10.0891 20.2373C10.0772 19.7625 9.73297 19.6201 9.30567 19.6201C8.68846 19.6201 8.08312 19.5964 7.46591 19.632C7.06235 19.6438 6.90805 19.5251 6.91992 19.0978C6.94365 18.267 6.93179 17.4361 6.93179 16.6053C6.93179 16.178 6.80122 15.8456 6.31457 15.8456C5.82793 15.8338 5.67362 16.1542 5.67362 16.5934C5.67362 17.1513 5.67362 17.7329 5.67362 18.3026Z" fill="white"/>
<path d="M15.8102 0.759644C18.3028 3.25223 20.7479 5.69733 23.2286 8.17804C23.0624 8.18991 22.9081 8.21365 22.742 8.21365C20.7598 8.21365 18.7894 8.21365 16.8072 8.21365C15.9764 8.21365 15.7983 8.03561 15.7983 7.20475C15.7983 5.08012 15.8102 2.94362 15.8102 0.759644Z" fill="white"/>
</g>
<defs>
<clipPath id="clip0_839_1011">
<rect width="24" height="26.5519" fill="white"/>
</clipPath>
</defs>
</svg>
