<svg width="24" height="24" viewBox="0 0 24 24" fill="none" xmlns="http://www.w3.org/2000/svg">
<g clip-path="url(#clip0_839_730)">
<path d="M0 11.98C0 5.357 5.37035 0.0266262 11.9933 -2.56763e-05C18.603 -0.0266775 24.04 5.47693 24 12.0866C23.96 18.643 18.5897 23.9866 11.9933 24C5.47696 24 0 18.7229 0 11.98ZM11.6202 21.1082C11.6202 20.7751 11.6335 20.4419 11.6202 20.1088C11.6069 19.8423 11.6202 19.6291 11.9933 19.6291C12.3398 19.6291 12.3931 19.789 12.3798 20.0821C12.3665 20.7218 12.4064 21.3748 12.3665 22.0144C12.3398 22.4808 12.513 22.5474 12.9262 22.5208C14.0589 22.4408 15.1383 22.0677 16.2177 21.7612C16.9239 21.5613 16.9639 21.2948 16.5775 20.6951C16.2576 20.1888 16.0178 19.6424 15.6846 19.1627C15.4581 18.8428 15.6979 18.7096 15.8579 18.5896C16.111 18.3764 16.2443 18.5896 16.3509 18.8029C16.6841 19.4025 17.0572 19.9755 17.337 20.6019C17.5103 20.9617 17.6302 20.935 17.91 20.7484C18.643 20.2287 19.3093 19.6557 19.8956 18.9894C21.0683 17.6568 21.0683 17.6702 19.5225 16.7906C19.2293 16.6174 18.8695 16.5241 18.683 16.1777C18.5763 15.9778 18.6163 15.8179 18.7363 15.6579C18.8562 15.5114 18.9761 15.6313 19.0827 15.6846C19.6957 16.0444 20.322 16.3775 20.8951 16.7906C21.1882 16.9905 21.3082 16.9639 21.4414 16.6974C22.0411 15.4714 22.4009 14.1654 22.5075 12.8062C22.5341 12.473 22.4275 12.3798 22.1077 12.3931C21.4148 12.4197 20.7351 12.3931 20.0422 12.4064C19.7357 12.4197 19.6024 12.3265 19.6024 11.9933C19.6024 11.6735 19.7757 11.6335 20.0289 11.6468C20.6685 11.6602 21.3215 11.6335 21.9611 11.6602C22.3742 11.6735 22.5608 11.5935 22.4942 11.1271C22.3476 9.86116 22.0278 8.6485 21.4947 7.48915C21.3082 7.08937 21.1616 7.14267 20.8551 7.32924C20.2821 7.67571 19.6957 7.99553 19.0961 8.30203C18.9361 8.38198 18.7363 8.67515 18.5497 8.26205C18.4164 7.96888 18.4431 7.83562 18.7229 7.68904C19.3226 7.36921 19.9089 7.00941 20.5086 6.68959C20.8151 6.52968 20.8817 6.40975 20.6552 6.08992C19.8956 5.01052 18.9761 4.09103 17.8967 3.33146C17.5636 3.10492 17.457 3.21152 17.3104 3.49137C16.9772 4.09103 16.6174 4.67738 16.2843 5.27704C16.151 5.53024 16.0178 5.58354 15.7646 5.42363C15.5247 5.27704 15.4581 5.17043 15.6313 4.90392C15.9778 4.35755 16.2443 3.77121 16.6174 3.23818C16.9506 2.77177 16.7773 2.46527 16.3509 2.33201C15.1649 1.98554 13.9922 1.55911 12.7396 1.49248C12.4198 1.47915 12.3132 1.55911 12.3265 1.87893C12.3531 2.54523 12.3265 3.21152 12.3398 3.87782C12.3398 4.17099 12.3531 4.39753 11.94 4.38421C11.5669 4.37088 11.5802 4.15766 11.5802 3.90447C11.5802 3.23818 11.5669 2.57188 11.5936 1.90558C11.6069 1.53246 11.4603 1.4525 11.1272 1.49248C9.80788 1.61241 8.55525 1.94556 7.35591 2.51857C7.03609 2.66516 7.04942 2.81175 7.20933 3.06494C7.56913 3.65128 7.88895 4.26427 8.24875 4.85061C8.40866 5.11713 8.40866 5.25039 8.11549 5.42363C7.83565 5.58354 7.72904 5.47693 7.60911 5.25039C7.27596 4.65072 6.92948 4.05106 6.58301 3.46472C6.44975 3.23818 6.32982 3.09159 6.02332 3.3048C4.91727 4.07771 3.98445 5.01052 3.22487 6.11658C3.01166 6.42307 3.13159 6.51635 3.38479 6.66294C3.97113 6.98276 4.54414 7.32924 5.11716 7.66238C5.33037 7.78232 5.57024 7.8756 5.35702 8.20875C5.18379 8.50192 5.01055 8.47527 4.75736 8.31535C4.18434 7.96888 3.598 7.64906 3.03831 7.30258C2.75847 7.12935 2.61188 7.10269 2.45197 7.4625C1.89228 8.66183 1.55913 9.91447 1.4392 11.2337C1.39922 11.6069 1.54581 11.6735 1.87896 11.6735C2.54525 11.6468 3.21155 11.6735 3.87785 11.6602C4.15769 11.6602 4.34425 11.6868 4.34425 12.0466C4.34425 12.4197 4.14436 12.4197 3.87785 12.4197C3.1849 12.4064 2.50527 12.4331 1.81233 12.4064C1.51916 12.3931 1.41255 12.4864 1.45253 12.7795C1.58579 14.1121 1.87896 15.3914 2.4653 16.5908C2.62521 16.9239 2.74514 16.9639 3.05164 16.7773C3.598 16.4308 4.15769 16.1243 4.71738 15.8045C4.93059 15.6846 5.11716 15.4447 5.35702 15.8312C5.62354 16.2576 5.29039 16.3242 5.05053 16.4575C4.51749 16.7773 3.98445 17.0971 3.43809 17.377C3.09162 17.5502 3.06496 17.6968 3.2915 18.0166C4.05108 19.0827 4.94392 19.9755 6.00999 20.7351C6.28984 20.935 6.43642 20.9483 6.60966 20.6152C6.92948 20.0022 7.28928 19.4292 7.63576 18.8295C7.75569 18.603 7.8623 18.483 8.14214 18.6429C8.43531 18.8029 8.43531 18.9494 8.2754 19.216C7.96891 19.6957 7.70239 20.2154 7.40922 20.7085C7.03609 21.3481 7.08939 21.5747 7.80899 21.8145C8.54192 22.0544 9.28817 22.2543 10.0478 22.4142C11.6069 22.6807 11.6202 22.6674 11.6202 21.1082Z" fill="white"/>
<path d="M17.8699 6.51636C16.4041 8.28871 14.8849 9.80786 13.2858 11.2604C12.5929 11.8867 12.6062 12.0333 13.2059 12.7795C13.7122 13.4059 14.2453 14.0055 14.6051 14.7518C13.9654 14.4853 13.5523 13.9389 13.0593 13.5125C12.6728 13.166 12.393 12.7396 11.7533 12.7529C11.3802 12.7529 11.167 12.3798 11.167 11.98C11.167 11.5402 11.3935 11.2204 11.82 11.1938C12.2064 11.1671 12.4196 10.9672 12.6595 10.7407C14.112 9.35478 15.6312 8.04884 17.1903 6.7962C17.3769 6.66294 17.5501 6.60964 17.8699 6.51636Z" fill="white"/>
</g>
<defs>
<clipPath id="clip0_839_730">
<rect width="24" height="23.9867" fill="white"/>
</clipPath>
</defs>
</svg>
