<svg width="24" height="22" viewBox="0 0 24 22" fill="none" xmlns="http://www.w3.org/2000/svg">
<g clip-path="url(#clip0_839_912)">
<path d="M12.0026 3.11683C17.2611 3.12174 21.5145 7.36934 21.5046 12.6002C21.4947 17.7868 17.2314 22 11.9927 21.995C6.71933 21.9901 2.48084 17.7622 2.49074 12.5215C2.50559 7.34476 6.7837 3.11191 12.0026 3.11683ZM11.9977 19.9106C16.0727 19.9155 19.3804 16.6265 19.3853 12.5658C19.3903 8.51973 16.0975 5.23079 12.0274 5.22096C7.93246 5.21113 4.61494 8.49515 4.61494 12.5608C4.61494 16.6216 7.9176 19.9057 11.9977 19.9106Z" fill="white"/>
<path d="M7.47685 1.8733C7.4719 1.97654 7.36792 1.98146 7.30355 2.01096C6.55587 2.33542 5.85276 2.74347 5.19421 3.21542C3.84244 4.18392 2.76301 5.38838 1.94106 6.82883C1.84203 7.0009 1.77766 7.05498 1.58455 6.93699C1.10425 6.64202 0.609102 6.36671 0.108998 6.09632C-0.029644 6.02258 -0.029644 5.9685 0.0446288 5.84068C1.57465 3.25475 3.68399 1.32269 6.42713 0.0739718C6.61034 -0.00960359 6.68461 0.0198936 6.75888 0.206709C6.96685 0.72291 7.19462 1.22436 7.41248 1.73565C7.43724 1.77989 7.45705 1.82414 7.47685 1.8733Z" fill="white"/>
<path d="M17.3947 0C17.464 0.0294972 17.5284 0.0540782 17.5878 0.0786592C20.3112 1.31754 22.4106 3.24469 23.9555 5.78637C24.0496 5.93877 23.9951 5.98302 23.8713 6.05184C23.3712 6.33207 22.8661 6.60737 22.3759 6.90235C22.2224 6.99084 22.1729 6.96134 22.0888 6.81877C20.8855 4.77363 19.2268 3.21028 17.0828 2.16804C17.063 2.15821 17.0382 2.14346 17.0184 2.12872C16.86 2.04514 16.6074 2.03039 16.5678 1.87799C16.5332 1.73542 16.6767 1.5486 16.7461 1.38637C16.9194 0.973408 17.0927 0.560447 17.2709 0.147486C17.2957 0.0934078 17.3006 0.0049162 17.3947 0Z" fill="white"/>
<path d="M11.1261 16.253C11.0915 16.2088 11.0618 16.1645 11.0271 16.1301C9.77436 14.8863 8.52163 13.6376 7.26394 12.3987C7.1451 12.2807 7.17481 12.2365 7.27384 12.1381C7.61055 11.8137 7.94725 11.4843 8.2691 11.15C8.37803 11.0418 8.4325 11.032 8.55133 11.1451C9.35348 11.9366 10.1655 12.7133 10.9627 13.5048C11.1014 13.6425 11.1657 13.6573 11.3192 13.5098C12.6859 12.1578 14.0624 10.8157 15.429 9.46373C15.5726 9.32116 15.6419 9.34083 15.7657 9.47356C16.0727 9.79312 16.3846 10.1078 16.7114 10.4126C16.8451 10.5355 16.8451 10.5994 16.7114 10.7272C15.5033 11.912 14.305 13.1066 13.1067 14.3013C12.5026 14.9011 11.8936 15.5057 11.2895 16.1055C11.24 16.1498 11.1905 16.194 11.1261 16.253Z" fill="white"/>
</g>
<defs>
<clipPath id="clip0_839_912">
<rect width="24" height="22" fill="white"/>
</clipPath>
</defs>
</svg>
