<svg style="position: absolute; width: 0; height: 0; overflow: hidden;" version="1.1"
     xmlns="http://www.w3.org/2000/svg" id="tap-suite-dashboard-icons">
    <defs>
        <svg id="tap-plugin-download" viewBox="0 0 58 38">
            <g fill="none" fill-rule="evenodd">
                <path d="M0 36.238c1.083-13.202 6.497-22.55 16.24-28.044C25.986 2.7 39.216-.03 55.934 0 50.78 2.804 45.888 8.844 41.261 18.12c-4.628 9.275-14.994 13.872-31.098 13.79 1.035-5.62 3.06-10.217 6.078-13.79 3.017-3.573 8.256-7.351 15.718-11.334-12.963 4.302-21.244 9.49-24.846 15.562C3.512 28.42 1.141 33.05 0 36.238z" fill="#747474" opacity=".08"/>
                <path d="m8.23 4.388 4.03-1.196V19h2.21V.54L8.23 2.1z" fill="#A32566" fill-rule="nonzero" opacity=".397"/>
                <g transform="translate(22 8.5)">
                    <circle fill="#E8A3C7" cx="22" cy="21.5" r="2"/>
                    <circle fill="#E8A3C7" cx="28" cy="21.5" r="2"/>
                    <rect stroke="#E8A3C7" stroke-width="2" y="15.5" width="35" height="13" rx="3"/>
                    <path d="m18 19.5 8.616-6.616c.788-.788.23-2.134-.884-2.134H22.5V2a2 2 0 0 0-2-2h-5a2 2 0 0 0-2 2v8.75h-3.232c-1.114 0-1.672 1.346-.884 2.134L18 19.5z" fill="#A32666"/>
                </g>
            </g>
        </svg>
        <svg id="tap-plugin-upload" viewBox="0 0 56 42">
            <g fill="none" fill-rule="evenodd">
                <path d="M0 41.238c1.083-13.202 6.497-22.55 16.24-28.044C25.986 7.7 39.216 4.97 55.934 5 50.78 7.804 45.888 13.844 41.261 23.12c-4.628 9.275-14.994 13.872-31.098 13.79 1.035-5.62 3.06-10.217 6.078-13.79 3.017-3.573 8.256-7.351 15.718-11.334-12.963 4.302-21.244 9.49-24.846 15.562C3.512 33.42 1.141 38.05 0 41.238z" fill="#747474" opacity=".08"/>
                <path d="M45.234 15.86c.51.51.766 1.13.766 1.859v18.156c0 .73-.255 1.349-.766 1.86-.51.51-1.13.765-1.859.765h-15.75c-.73 0-1.349-.255-1.86-.766A2.531 2.531 0 0 1 25 35.875v-22.75c0-.73.255-1.349.766-1.86.51-.51 1.13-.765 1.859-.765h11.156c.73 0 1.35.255 1.86.766l4.593 4.593zM39 12.304V17.5h5.25a1.46 1.46 0 0 0-.273-.383l-4.594-4.594a.811.811 0 0 0-.383-.218zm5.25 23.57V19.25h-5.688c-.364 0-.674-.128-.93-.383a1.266 1.266 0 0 1-.382-.93V12.25h-9.625a.852.852 0 0 0-.629.246.852.852 0 0 0-.246.63v22.749c0 .255.082.465.246.629a.852.852 0 0 0 .629.246h15.75a.852.852 0 0 0 .629-.246.852.852 0 0 0 .246-.629zm-11.977-8.75h6.454l-3.227-3.39-3.227 3.39z"
                      fill="#E8A3C7" fill-rule="nonzero"/>
                <path d="M34.406 22.367a1.403 1.403 0 0 1 1.094-.492c.437 0 .802.164 1.094.492l3.718 3.883c.22.255.356.529.41.82.055.292.019.584-.109.875-.127.292-.31.52-.547.684a1.361 1.361 0 0 1-.793.246h-2.898v4.813c0 .109-.046.21-.137.3a.418.418 0 0 1-.3.137h-.876a.418.418 0 0 1-.3-.137.418.418 0 0 1-.137-.3v-4.813h-2.898c-.292 0-.556-.082-.793-.246a1.577 1.577 0 0 1-.547-.684 1.466 1.466 0 0 1-.11-.875c.055-.291.192-.565.41-.82l3.72-3.883z" fill="#A32666"/>
                <path d="M4.123 19h12.844v-2.08H8.673l5.798-5.902a9.507 9.507 0 0 0 1.742-2.47c.45-.919.676-1.846.676-2.782a5 5 0 0 0-.338-1.742 5.401 5.401 0 0 0-1.04-1.703c-.468-.529-1.066-.962-1.794-1.3-.728-.338-1.595-.507-2.6-.507-1.248 0-2.318.273-3.211.819-.893.546-1.573 1.309-2.041 2.288-.468.98-.702 2.119-.702 3.419h2.21c0-.919.147-1.712.442-2.379.295-.667.724-1.179 1.287-1.534s1.235-.533 2.015-.533c.555 0 1.049.095 1.482.286.433.19.802.442 1.105.754.303.312.533.659.689 1.04.156.381.234.771.234 1.17 0 .485-.074.949-.221 1.391a5.365 5.365 0 0 1-.65 1.3c-.286.425-.628.854-1.027 1.287L4.123 19z"
                      fill="#A32566" fill-rule="nonzero" opacity=".397"/>
            </g>
        </svg>
        <svg id="tap-plugin-activate" viewBox="0 0 54 40">
            <defs>
                <clipPath id="32556h3oua">
                    <path d="M1250 0v903H0V0h1250z"/>
                </clipPath>
                <clipPath id="yd4sixankb">
                    <path d="M32 0c-2.95 1.625-5.747 5.125-8.394 10.5-2.648 5.375-8.578 8.039-17.792 7.991.592-3.257 1.752-5.92 3.478-7.991 1.726-2.07 4.723-4.26 8.992-6.568C10.868 6.425 6.13 9.43 4.07 12.95 2.01 16.47.653 19.153 0 21 .62 13.35 3.717 7.932 9.292 4.748 14.866 1.564 22.436-.018 32 0z"/>
                </clipPath>
                <clipPath id="6l621cl01c">
                    <path d="M27.453 0a5 5 0 0 1 5 5v10.882h-2V5a3 3 0 0 0-3-3H5a3 3 0 0 0-3 3v22.424a3 3 0 0 0 3 3h13.433v2H5a5 5 0 0 1-5-5V5a5 5 0 0 1 5-5h22.453z"/>
                </clipPath>
                <clipPath id="cb3mei6gwd">
                    <path d="M20.536 0a7 7 0 0 1 7 7v9.09h-2V7a5 5 0 0 0-5-5H0V0h20.536z"/>
                </clipPath>
                <clipPath id="phq10riohe">
                    <path d="M1 0a1 1 0 0 1 1 1v15.385a1 1 0 0 1-2 0V1a1 1 0 0 1 1-1z"/>
                </clipPath>
                <clipPath id="4mrox88xhf">
                    <path d="M1.707.293 9.51 8.095a1 1 0 0 1-1.414 1.414L.293 1.707A1 1 0 1 1 1.707.293z"/>
                </clipPath>
            </defs>
            <g clip-path="url(#32556h3oua)" transform="translate(-595 -483)">
                <g clip-path="url(#yd4sixankb)" transform="translate(617 502)">
                    <path fill="#A32465" opacity="41.846%" d="M0 0h32v21H0V0z"/>
                </g>
                <g clip-path="url(#6l621cl01c)" transform="translate(595.99 487.043)">
                    <path fill="#A32465" d="M0 0h32.453v32.424H0V0z"/>
                </g>
                <g clip-path="url(#cb3mei6gwd)" transform="translate(604.704 483.467)">
                    <path fill="#A32465" d="M0 0h27.536v16.09H0V0z"/>
                </g>
                <g clip-path="url(#phq10riohe)" transform="translate(611.233 493.687)">
                    <path fill="#A32465" d="M0 0h2v17.385H0V0z"/>
                </g>
                <g clip-path="url(#4mrox88xhf)" transform="translate(603.415 502.072)">
                    <path fill="#A32465" d="M0 0h9.802v9.802H0V0z"/>
                </g>
                <g clip-path="url(#4mrox88xhf)" transform="matrix(-1 0 0 1 621.223 502.072)">
                    <path fill="#A32465" d="M0 0h9.802v9.802H0V0z"/>
                </g>
            </g>
        </svg>
        <symbol id="tap-3-steps" viewBox="0 0 123 72">
            <g fill-rule="nonzero" fill="none">
                <g fill="#434343">
                    <path d="M5.13 54.93c-.125-.109-.239-.301-.342-.578-.103-.277-.112-.418-.03-.424.133-.026.276-.182.432-.469.155-.286.218-.52.188-.702a.283.283 0 0 1 .062-.192.335.335 0 0 1 .167-.125.688.688 0 0 1 .34-.149c.283-.02.555.162.815.545.115.209.178.396.19.563a.99.99 0 0 1-.092.47 3.549 3.549 0 0 1-.407.642c-.255.402-.508.612-.757.63-.167.011-.355-.06-.567-.211zM3.417 65.224c-.249-.217-.388-.54-.419-.973a1.329 1.329 0 0 1 .083-.607 1.12 1.12 0 0 1 .03-.303c.024-.119.036-.195.033-.228-.023-.099.024-.378.142-.837.253-.686.57-1.886.952-3.6a.272.272 0 0 1 .085-.22.553.553 0 0 1 .291-.132c.13-.043.22-.066.27-.07a.36.36 0 0 1 .27.095c.08.07.194.199.341.39.107.092.167.238.181.438.022.316-.06.706-.244 1.17-.182.497-.295.922-.337 1.276-.168.463-.297.89-.386 1.28a7.415 7.415 0 0 0-.108.61c-.046.303-.12.55-.224.742-.067.472-.136.803-.206.991-.07.19-.156.287-.255.294-.117.008-.283-.097-.499-.316zM16.612 63.95c-.333.024-.612-.028-.838-.154-.226-.126-.426-.35-.598-.672a5.886 5.886 0 0 1-.337-1.58c-.017-.25-.004-.426.039-.53.061-.07.08-.218.056-.442s-.04-.386-.046-.486c-.043-.38-.173-.564-.39-.549-.149.01-.311.08-.486.21-.89.647-1.637 1.2-2.24 1.66-.602.46-1.177.968-1.722 1.524a4.742 4.742 0 0 0-.475.735c-.103.207-.176.35-.22.429a.23.23 0 0 1-.193.126.818.818 0 0 1-.196.064c-.083.005-.186-.033-.308-.117a3.126 3.126 0 0 1-.238-.17 19.765 19.765 0 0 1-.348-.315c-.16-.147-.251-.254-.273-.32-.009-.132.024-.444.098-.933.074-.49.14-.804.197-.941.05-.004.118-.113.203-.328a3.38 3.38 0 0 1 .24-.505c.033-.253.209-.842.528-1.766a5.91 5.91 0 0 0 .417-1.032c.073-.272.112-.61.117-1.01l-.003-.05a.202.202 0 0 1 .063-.168.235.235 0 0 1 .145-.073.571.571 0 0 1 .316-.147c.216-.015.441.103.676.354.272.298.42.622.444.971.03.432-.196 1.133-.68 2.103l-.177.513c-.076.223-.112.376-.106.459l1.33-1.046c.123-.159.462-.45 1.017-.873.555-.423.947-.667 1.177-.733.386-.211.629-.32.729-.327.2-.014.48.117.842.392.361.276.583.51.663.706.013.182.039.314.078.395.106.327.175.715.206 1.164.021.299.02.57-.005.814s-.07.385-.134.423a.192.192 0 0 0 .03.073c.02.032.054.047.104.043l.009.125c-.133.01-.14.152-.02.427.119.276.267.483.444.62.178.155.272.316.284.482.014.2-.126.351-.42.456zM27.724 52.272c-.285-.247-.437-.513-.456-.795-.014-.2.046-.404.182-.614.192-.365.277-.705.255-1.02.353-.21.629-.32.828-.334.233-.017.474.084.723.3.23.184.356.426.377.726.03.432-.18.906-.628 1.422-.294.338-.549.514-.765.53-.166.011-.338-.06-.516-.215zm-5.687 17.94c-.46-.118-.88-.444-1.259-.977-.38-.533-.587-1.049-.622-1.548a1.179 1.179 0 0 1 .063-.53c.07-.189.156-.287.255-.294.05-.003.162.168.337.515.175.347.265.563.27.646.011.15.171.351.482.605.31.254.565.382.766.385.351.009.676-.127.974-.406.298-.28.58-.772.849-1.476.206-.398.34-.696.401-.892.062-.197.114-.464.157-.8l.083-.608c.05-.237.106-.575.167-1.014.061-.439.102-.76.121-.96l.092-.834c.041-.37.088-.658.14-.862-.012-.183.01-.41.065-.681.057-.272.137-.495.242-.669.024-.37.134-.953.329-1.752.194-.799.354-1.387.478-1.763l.122-.397c.055-.179.128-.322.22-.429.14-.16.343-.25.609-.268a2.37 2.37 0 0 1 .579.035c.136.04.303.154.5.34.196.188.352.377.465.57.114.192.13.308.05.347.003.05-.02.077-.07.08a.333.333 0 0 1-.152-.027.387.387 0 0 0-.177-.025.41.41 0 0 0-.258-.107c-.183.013-.407.458-.671 1.337a24.695 24.695 0 0 0-.6 2.36l-.165.864c-.14.628-.22 1.035-.24 1.22l-.06.58c-.04.387-.078.674-.115.86-.085.224-.162.555-.231.994-.039.404-.093.708-.162.914-.144.812-.426 1.675-.846 2.59-.414 1.015-.903 1.667-1.467 1.957-.144.094-.407.154-.79.18-.399.028-.71.008-.931-.06zM36.066 63.693c-.112.074-.267.06-.467-.043a2.175 2.175 0 0 1-.597-.484 1.604 1.604 0 0 1-.284-.657c-.041-.231-.088-.712-.139-1.444-.011-.166-.05-.247-.117-.242-.05.003-.16.09-.333.261-.171.17-.381.399-.628.683-.404.446-.78.798-1.13 1.056-.349.259-.64.388-.875.387-.183.013-.387-.098-.612-.333a2.794 2.794 0 0 1-.547-.839 2.906 2.906 0 0 1-.124-.693c-.049-.698.037-1.556.259-2.574.22-1.018.502-1.902.842-2.653.34-.75.66-1.136.959-1.157.25-.017.501.24.756.774a.59.59 0 0 1 .092.245c.008.116-.05.237-.175.363-.228.333-.479.919-.755 1.757a20.155 20.155 0 0 0-.626 2.324c-.143.712-.156 1.063-.04 1.055.233-.016.501-.127.804-.332a5.14 5.14 0 0 0 .898-.79c.293-.337.552-.694.777-1.069.224-.374.498-.882.82-1.523.621-1.163.958-1.838 1.012-2.025.217-.483.374-.8.472-.948a.797.797 0 0 1 .392-.316l.349-.024c.1.01.222.076.365.2.12.042.194.09.223.147a.615.615 0 0 1 .054.234l-.334.951-.188.54c-.012.067-.09.265-.235.592a43.152 43.152 0 0 0-.73 2.106 8.765 8.765 0 0 0-.337 1.628c-.01.084-.009.226.005.426.035.498.11.844.223 1.036.17.29.335.495.494.618.088.06.134.124.139.19.008.117-.08.24-.263.37s-.316.197-.399.203zM41.706 62.998c-.831.058-1.459-.199-1.883-.77a.732.732 0 0 1-.21-.487.532.532 0 0 1 .045-.267c.036-.077.087-.118.154-.123.083-.006.178.046.286.155.242.117.58.16 1.012.13a3.93 3.93 0 0 0 1.354-.345c.516-.27.653-.464.41-.58l.026-.002c-.66-.121-1.327-.396-2-.825-.674-.43-1.057-.833-1.15-1.21a2.568 2.568 0 0 1-.118-.619c-.03-.415.033-.837.187-1.266a4.27 4.27 0 0 1 .668-1.2c.476-.35.788-.547.936-.591l.001.025a3.84 3.84 0 0 1 .985-.796c.393-.228.907-.472 1.54-.734l.37-.076.496-.085c.017.016.06.03.128.042l.203.035a.59.59 0 0 0 .255.058c.319.028.61.2.875.515.264.316.39.624.378.926-.01.335-.085.628-.227.88-.14.252-.318.403-.532.451.016-.018-.02-.049-.107-.093a5.175 5.175 0 0 1-.208-.11l-.071.055a.394.394 0 0 0-.09-.22.835.835 0 0 1-.102-.368v-.376l.032-.253c-.004-.05-.04-.085-.108-.105a.808.808 0 0 0-.277-.019l-.201-.01c-.266.018-.586.107-.959.267-.373.16-.677.348-.913.565-.54.405-.937.755-1.192 1.048a3.25 3.25 0 0 0-.594 1.007c-.18.296-.265.511-.255.644.012.183.154.357.424.522.271.164.706.36 1.307.585.48.167.872.348 1.178.544.306.196.519.423.637.682a.52.52 0 0 1 .039.198c.008.116-.003.192-.034.228.035.03.054.055.055.071l-.002-.025a.779.779 0 0 1 .122.318c.019.266-.13.522-.447.77s-.73.44-1.238.575l.025-.001c-.39.144-.794.23-1.21.26zM49.899 62.6c-.27-.031-.553-.19-.848-.48-.296-.288-.495-.562-.597-.822-.002-.033-.021-.07-.058-.109a1.179 1.179 0 0 0-.08-.082c-.07-.045-.123-.317-.158-.816a13.071 13.071 0 0 1-.025-1.251 7.41 7.41 0 0 1 .09-1.059l.356-1.353.28-1.022.571-1.494-1.016-.204a.424.424 0 0 1-.3-.155.473.473 0 0 1-.13-.266c-.01-.133.05-.3.177-.501.128-.202.234-.305.317-.31.05.012.184.011.4-.004.5-.035.872-.086 1.118-.153.161-.078.268-.22.32-.423.058-.138.125-.31.203-.516a18.078 18.078 0 0 1 .428-1.045c.094-.215.214-.462.362-.74.03-.051.096-.177.199-.377.103-.199.233-.37.39-.516a.579.579 0 0 1 .412-.204c.166-.011.39.082.67.28l.152.189c.064.08.098.152.103.218.005.067-.052.213-.17.438-.086.207-.169.392-.25.557-.08.164-.15.307-.207.428-.177.346-.3.605-.372.777-.151.228-.223.4-.215.517.009.116.12.167.337.152.233-.017.62-.094 1.161-.232.23-.05.388-.077.47-.083.583-.04.916.178 1 .657.023.098.04.214.048.347.017.233-.052.38-.207.44-.154.062-.506.111-1.054.15-.527.12-1.072.2-1.638.24-.1.007-.211.019-.336.036a2.202 2.202 0 0 0-.382.089.55.55 0 0 0-.276.17c-.054.07-.108.183-.164.337-.047.053-.15.253-.31.598-.199.498-.328.8-.387.904a24.528 24.528 0 0 0-.712 4.16c-.015.268-.02.436-.015.502.018.25.113.418.286.507.173.088.46.118.858.09.566-.04 1.052-.132 1.46-.278.483-.25.845-.46 1.084-.627a14.356 14.356 0 0 0 .645-.446c.043-.103.098-.157.164-.162.133-.009.259.116.377.375.019.266-.023.503-.126.71-.102.208-.377.461-.824.76-.92.682-1.864 1.057-2.828 1.125a3.576 3.576 0 0 1-.753-.023zM65.77 61.265c-.666.046-1.26-.016-1.78-.189-.523-.172-.777-.4-.763-.686.004-.184.024-.306.062-.368.037-.06.123-.096.256-.105l.527.013c.37.041.672.053.905.037a6.737 6.737 0 0 0 2.264-.584c.762-.338 1.328-.72 1.7-1.147.372-.41.543-.823.514-1.239-.032-.465-.318-.854-.858-1.168-.331-.194-.827-.36-1.488-.497-.662-.137-1.166-.177-1.513-.12a.65.65 0 0 1-.197.04c-.167.01-.38-.05-.64-.182a3.183 3.183 0 0 1-.497-.667c-.023-.082.017-.168.12-.259.102-.09.352-.27.751-.54.399-.271.919-.604 1.56-1a58.86 58.86 0 0 0 2.093-1.412c.422-.305.75-.566.986-.783.121-.175.219-.332.292-.471.074-.14.109-.242.104-.308-.004-.067-.058-.121-.162-.164a2.299 2.299 0 0 0-.509-.115c-.486-.016-.928-.01-1.327.018-.3.02-.447.056-.444.106l-.1.007c-.12-.042-.437.014-.953.167-.515.153-.779.263-.79.33-.014.052-.183.147-.507.287-.325.14-.528.212-.611.218-.136-.024-.292-.172-.47-.444-.178-.271-.246-.467-.204-.587.04-.153.533-.496 1.482-1.03.31-.106.833-.205 1.57-.298.737-.094 1.281-.136 1.633-.127 1.508.062 2.4.626 2.675 1.692.061.163.096.311.106.444a.811.811 0 0 1-.152.524c-.113.167-.349.438-.707.814l-.57.441c-.525.388-1.043.75-1.554 1.086-.03.036-.229.192-.593.468-.414.296-.62.469-.616.519.036.03.119.08.248.145.13.067.266.153.407.26.443.12.876.336 1.298.649.423.313.753.611.99.895.231.435.361.86.39 1.276a2.613 2.613 0 0 1-.357 1.516c-.276.48-.708.923-1.298 1.332-.432.28-.948.534-1.55.76a7.818 7.818 0 0 1-1.724.446zM81.017 60.7a3.38 3.38 0 0 1-.909-.45c-.298-.205-.503-.387-.614-.546l-.013-.175c-.005-.083.016-.139.064-.167a.687.687 0 0 1 .272-.057c.282-.02.733-.018 1.353.006.366-.026.779-.1 1.238-.224.459-.124.71-.246.751-.366.05-.004.074-.014.073-.03-.002-.034-.075-.112-.217-.236a.734.734 0 0 1-.23-.071.734.734 0 0 0-.231-.072c-.005-.067-.086-.149-.243-.246a2.902 2.902 0 0 0-.519-.252c-.51-.365-.871-.637-1.084-.814-.213-.177-.297-.31-.253-.396l-.009-.125c-.116.009-.257-.144-.42-.459a2.293 2.293 0 0 1-.276-.895c-.021-.3.079-.724.3-1.274.22-.55.485-1.003.794-1.359.435-.465 1.006-.964 1.712-1.498s1.27-.883 1.694-1.046c.274-.136.553-.214.835-.234.266-.018.495.024.686.128.225.118.45.294.676.529.225.235.378.45.459.645.025.365.012.721-.038 1.067-.051.346-.152.525-.301.535a.192.192 0 0 0-.073.03c-.033.02-.046.062-.042.128a.548.548 0 0 1-.081.27 1.347 1.347 0 0 1-.253.33c-.347.292-.637.446-.87.462-.182.013-.305-.07-.368-.25a.582.582 0 0 1-.11-.143c-.038-.064-.082-.094-.132-.09-.016 0-.048-.026-.093-.082a.401.401 0 0 1-.08-.232.286.286 0 0 1 .052-.167c.037-.06.064-.1.08-.118.1-.007.252-.214.457-.621.206-.407.304-.677.294-.81-.007-.1-.023-.157-.05-.172-.025-.015-.105-.018-.238-.008-1.256.672-2.032 1.17-2.327 1.49a1.528 1.528 0 0 1-.098.208c-.022.035-.067.055-.133.06-.011-.15-.412.446-1.204 1.788-.03.035-.061.138-.091.307-.03.169-.04.312-.033.428a2.07 2.07 0 0 0-.034.228.305.305 0 0 0 .101.193c.063.063.147.128.252.196.105.068.21.14.316.216.91.588 1.547 1.032 1.91 1.332.364.3.586.557.668.768.24.318.368.61.387.875a.72.72 0 0 1-.188.54c-.14.16-.354.317-.644.47-.177.097-.48.189-.908.277-.428.089-.85.147-1.266.177a6.065 6.065 0 0 1-.751.002zM91.107 59.844a2.757 2.757 0 0 1-.59-.184c-.155-.073-.366-.217-.631-.432-.327-.378-.549-.735-.664-1.07-.115-.334-.199-.875-.251-1.623-.028-.399.12-1.512.443-3.34-.025.12.016-.126.124-.735.037-.186-.038-.298-.224-.335-.186-.037-.446-.044-.778-.02-.283.02-.45.014-.503-.015-.05-.014-.082-.036-.092-.07a.342.342 0 0 1-.018-.073.633.633 0 0 0-.12-.292c-.018-.016-.028-.04-.03-.073-.007-.084.033-.178.117-.284a.535.535 0 0 1 .325-.199c.082-.022.271-.06.568-.114.297-.055.575-.14.834-.26.26-.118.457-.273.594-.467a27.95 27.95 0 0 1 .693-1.915c.284-.714.48-1.14.587-1.282.257-.152.435-.23.535-.238a.34.34 0 0 1 .256.083c.071.061.17.171.299.33.019.032.064.087.137.165a.4.4 0 0 1 .117.243c.01.133-.04.337-.145.611-.106.275-.32.758-.638 1.448l-.281.647c.051.013.168.013.35 0 .184-.013.333-.031.448-.056.361-.092.7-.15 1.016-.171.166-.012.283-.012.35 0 .383-.027.666.024.85.154.185.129.306.358.362.689.046.18.02.29-.077.33-.097.041-.379.077-.844.11-1.923.218-2.89.36-2.902.428-.064.055-.168.355-.314.9a25.857 25.857 0 0 0-.367 1.554c-.146 1.013-.193 1.901-.14 2.666.05.698.182 1.157.398 1.376.089.077.25.108.482.091.233-.016.483-.08.751-.19s.488-.247.66-.41c.283-.27.523-.412.723-.426a.32.32 0 0 1 .243.07.29.29 0 0 1 .102.207c.013.182-.07.422-.25.719-.223.4-.534.739-.932 1.017-.398.279-.788.431-1.17.458a1.163 1.163 0 0 1-.403-.022zM100.576 58.355c-.39.395-.876.612-1.458.653a2.488 2.488 0 0 1-1.206-.216 2.7 2.7 0 0 1-.992-.758 2.596 2.596 0 0 1-.537-.865c-.123-.325-.201-.729-.235-1.211-.012-.166-.018-.5-.02-1.001.007-.619.166-1.273.477-1.963a7.426 7.426 0 0 1 1.21-1.877c.495-.56.993-.959 1.495-1.194.254-.185.49-.285.705-.3.117-.008.234-.008.351 0 .118.009.244.017.378.024.37.024.653.075.85.154.198.078.37.203.515.377.445.387.686.854.725 1.403-.039.404-.264.879-.677 1.426-.413.546-.924 1-1.534 1.36-.292.12-.63.194-1.012.221-.516.036-.939-.043-1.27-.237a1.2 1.2 0 0 0-.354-.05c-.15.01-.255.118-.316.322-.06.205-.106.576-.135 1.113a3.78 3.78 0 0 0 .01.5c.059.848.374 1.294.945 1.337.389.057.666.08.832.068.2-.014.42-.097.66-.247l.454-.308c.096-.056.183-.13.26-.218.078-.09.147-.17.21-.24.03-.036.076-.093.138-.173a.567.567 0 0 1 .176-.163.415.415 0 0 1 .16-.048c.066-.005.144.027.232.096.088.07.159.119.21.148.15-.01.19.091.122.305s-.23.467-.485.76a5.16 5.16 0 0 1-.884.802zm-.395-5.285c.275-.137.547-.364.817-.684.27-.32.398-.58.384-.779a.641.641 0 0 0-.26-.483c-.158-.122-.37-.174-.637-.156-.2.014-.348.041-.445.081-.228.083-.49.281-.786.594-.295.313-.549.628-.76.943-.212.316-.292.497-.238.543.093.144.423.196.988.156.382-.026.695-.098.937-.215zM103.644 64.606c-.187-.054-.38-.186-.579-.398-.198-.212-.303-.392-.313-.542-.018-.25.091-1.08.327-2.491.235-1.412.48-2.561.736-3.448.012-.067.1-.35.267-.845.165-.496.316-1.092.451-1.786.1-.492.383-1.455.85-2.891l.598-1.847.464-1.61a.898.898 0 0 1 .237-.38c.117-.118.224-.196.321-.236a.429.429 0 0 1 .173-.038c.233-.016.442.103.627.358a.666.666 0 0 1 .095.294c.012.166-.065.497-.23.993l-.14.511.883-.262c.233-.016.425-.021.576-.015.598-.042.973-.052 1.125-.029.367-.009.634.04.8.145.166.105.333.277.5.516.319.262.502.5.55.713.048.198.076.354.084.47.037.533-.083 1.088-.36 1.667-.277.58-.621 1.025-1.034 1.338a3.44 3.44 0 0 0-.41.23 6.276 6.276 0 0 1-.216.14c-.024.135-.387.374-1.09.715-.703.342-1.285.562-1.746.661a2.954 2.954 0 0 1-.57.09.97.97 0 0 1-.429-.045 3.148 3.148 0 0 0-.39-.023c-.058.004-.085.04-.08.106a51.344 51.344 0 0 0-.787 3.438c-.46 1.803-.77 2.982-.931 3.536-.162.554-.281.876-.359.965zm2.474-9.42c.022.065.115.092.282.08.349-.024.874-.224 1.574-.599.7-.374 1.247-.751 1.638-1.13.32-.44.566-.803.738-1.09.172-.289.253-.507.242-.657-.004-.066-.042-.13-.113-.192-.184-.238-.492-.342-.924-.312-.549.039-1.191.292-1.927.762-.324.14-.55.31-.678.51-.128.202-.24.448-.337.738-.097.291-.173.514-.23.668-.221.65-.31 1.058-.265 1.222zM115.308 58.302a3.38 3.38 0 0 1-.909-.45c-.298-.205-.503-.387-.614-.546l-.012-.175c-.006-.083.015-.139.063-.167a.687.687 0 0 1 .272-.057c.283-.02.734-.017 1.354.006.365-.026.778-.1 1.237-.224.46-.124.71-.246.751-.366.05-.004.074-.014.073-.03-.002-.034-.074-.112-.217-.236a.734.734 0 0 1-.23-.071.734.734 0 0 0-.23-.072c-.005-.066-.086-.149-.244-.246a2.902 2.902 0 0 0-.518-.252c-.51-.365-.872-.637-1.085-.814-.213-.177-.297-.31-.253-.396l-.009-.124c-.116.008-.256-.145-.42-.46a2.293 2.293 0 0 1-.276-.895c-.02-.3.079-.724.3-1.274.22-.55.485-1.003.794-1.359.435-.465 1.006-.964 1.712-1.498s1.271-.882 1.694-1.046c.274-.136.553-.214.836-.233.266-.02.494.023.685.127.226.118.451.294.676.53.226.234.378.449.459.644.025.365.013.721-.038 1.067-.051.347-.152.525-.301.535a.192.192 0 0 0-.073.03c-.032.02-.046.062-.041.129a.548.548 0 0 1-.082.268 1.347 1.347 0 0 1-.252.331c-.348.292-.637.446-.87.462-.183.013-.306-.07-.369-.25a.582.582 0 0 1-.11-.142c-.038-.065-.082-.095-.131-.091-.017 0-.048-.026-.094-.082a.401.401 0 0 1-.079-.232.286.286 0 0 1 .051-.167c.038-.06.064-.1.08-.118.1-.007.252-.214.457-.62.206-.408.304-.678.295-.81-.007-.1-.024-.158-.05-.173-.026-.015-.106-.018-.239-.008-1.256.672-2.031 1.17-2.326 1.49a1.528 1.528 0 0 1-.099.208c-.022.035-.067.055-.133.06-.01-.15-.412.446-1.203 1.788-.031.035-.062.138-.092.307-.03.17-.04.312-.032.428a2.07 2.07 0 0 0-.035.228.305.305 0 0 0 .102.194c.062.062.146.127.251.195.105.068.21.14.316.216.91.588 1.547 1.032 1.91 1.333.364.3.586.556.668.767.24.318.368.61.387.875a.72.72 0 0 1-.188.54c-.139.16-.354.317-.644.47-.177.097-.48.189-.907.277-.429.089-.85.148-1.266.177a6.065 6.065 0 0 1-.752.002z"/>
                </g>
                <path d="m17.62.253 8.114 4.292.785.416-.763.455-7.881 4.705-.513-.858 6.243-3.728-6.025.155C6.477 6.918 1 12.647 1 23c0 12.356 5.542 19.785 16.703 22.414l.406.093-.218.976C5.991 43.835 0 35.963 0 23 0 12.252 5.735 6.126 17.1 4.74l.412-.047 6.066-.157-6.425-3.4.467-.883z" fill="#979797"/>
            </g>
        </symbol>
        <svg id="tap-success-box" viewBox="0 0 163 134" version="1.1">
            <title>EB5BE170-966D-4428-965F-E29B2CED5C2E</title>
            <g id="Automator-to-WP-Repository" stroke="none" stroke-width="1" fill="none" fill-rule="evenodd">
                <g id="Aut-04-06" transform="translate(-575.000000, -185.000000)">
                    <g id="Group-2" transform="translate(575.000000, 185.000000)">
                        <g id="Group" transform="translate(-0.000000, 0.000000)" fill="#FFF6F7">
                            <path d="M60.7004189,0 C30.6632336,0 -4.7248691,44.4624414 0.52104141,78.8076789 C5.76695192,113.152916 46.5902973,138.060791 90.3416275,133.079216 C134.092958,128.097641 162.596154,107.087955 162.596154,78.8076789 C162.596154,50.5274029 129.97769,50.5371665 110.159659,39.8574813 C90.3416275,29.177796 90.7376042,0 60.7004189,0 Z" id="Path"/>
                        </g>
                        <g id="Group-87" transform="translate(47.000000, 6.000000)" stroke="#505050" stroke-linecap="round" stroke-linejoin="round" stroke-width="3">
                            <polyline id="Stroke-1" points="67 74 67 86.9454397 42.757131 98 17 86.9454397 17 74.1416938"/>
                            <polyline id="Stroke-3" points="17 60 42.757131 71 67 60"/>
                            <line x1="42.5" y1="71" x2="42.5" y2="98" id="Stroke-4"/>
                            <polyline id="Stroke-6" points="42 71.6209008 34.4995597 83 9 70.8627025 16.5004403 61"/>
                            <line x1="53" y1="56" x2="67" y2="61" id="Stroke-7"/>
                            <line x1="17" y1="61" x2="28" y2="57" id="Stroke-8"/>
                            <polyline id="Stroke-9" points="66.1954792 61 73 70.7504325 50.3170434 82 42 71.5"/>
                            <line x1="57" y1="16.5" x2="49" y2="16.5" id="Stroke-10"/>
                            <line x1="82" y1="16.5" x2="74" y2="16.5" id="Stroke-11"/>
                            <line x1="65.5" y1="25" x2="65.5" y2="33" id="Stroke-13"/>
                            <line x1="65.5" y1="0" x2="65.5" y2="8" id="Stroke-14"/>
                            <line x1="60" y1="11" x2="57" y2="8" id="Stroke-16"/>
                            <line x1="74" y1="25" x2="71" y2="22" id="Stroke-17"/>
                            <line x1="60" y1="22" x2="57" y2="25" id="Stroke-18"/>
                            <line x1="74" y1="8" x2="71" y2="11" id="Stroke-19"/>
                            <g id="Group-86" transform="translate(0.000000, 3.000000)">
                                <path d="M47.5484501,59.9840701 C46.9459075,51.3980625 48.0003571,38.3664029 57.2026034,27.4195168" id="Stroke-20"/>
                                <path d="M42.1763908,62 C41.2897224,52.5479721 42.3343746,37.9582057 52.4024697,23.4961529" id="Stroke-22"/>
                                <path d="M34.8717863,59.671719 C33.8063146,54.198276 31.7366052,47.1265876 27.7196545,40.4137138" id="Stroke-24"/>
                                <line x1="42.3422125" y1="23.1510827" x2="42.3789529" y2="23.1510827" id="Stroke-26"/>
                                <line x1="59.4431557" y1="41.1073815" x2="59.4786714" y2="41.1073815" id="Stroke-28"/>
                                <line x1="66.8181793" y1="50.0329858" x2="66.8549197" y2="50.0329858" id="Stroke-30"/>
                                <line x1="82.3692897" y1="24.2366489" x2="82.4060301" y2="24.2366489" id="Stroke-32"/>
                                <line x1="37.007261" y1="44.5887345" x2="37.0440014" y2="44.5887345" id="Stroke-34"/>
                                <line x1="25.9262329" y1="9.86837449" x2="25.9629733" y2="9.86837449" id="Stroke-36"/>
                                <line x1="49.6389791" y1="0.938756292" x2="49.6757195" y2="0.938756292" id="Stroke-38"/>
                                <line x1="37.9410796" y1="12.3682784" x2="37.97782" y2="12.3682784" id="Stroke-40"/>
                                <line x1="3.5837814" y1="13.2825866" x2="3.61929712" y2="13.2825866" id="Stroke-42"/>
                                <line x1="12.4572011" y1="3.84187047" x2="12.4939415" y2="3.84187047" id="Stroke-44"/>
                                <line x1="35.7861325" y1="0.608160335" x2="35.8228729" y2="0.608160335" id="Stroke-46"/>
                                <line x1="11.3811972" y1="53.8552735" x2="11.4167129" y2="53.8552735" id="Stroke-48"/>
                                <line x1="21.6612845" y1="48.3675996" x2="21.6980249" y2="48.3675996" id="Stroke-50"/>
                                <line x1="7.69074614" y1="27.7686009" x2="0.146716677" y2="27.7686009" id="Stroke-52"/>
                                <line x1="32.7529673" y1="27.7686009" x2="25.2089378" y2="27.7686009" id="Stroke-54"/>
                                <line x1="16.4497807" y1="36.4678479" x2="16.4497807" y2="43.9603833" id="Stroke-56"/>
                                <line x1="16.4497807" y1="11.5768185" x2="16.4497807" y2="19.0693538" id="Stroke-58"/>
                                <line x1="11.2899585" y1="22.6439986" x2="8.02251198" y2="19.3988551" id="Stroke-60"/>
                                <line x1="24.8765596" y1="36.1377385" x2="21.6103378" y2="32.8938113" id="Stroke-62"/>
                                <line x1="11.2899585" y1="32.8932031" x2="8.02251198" y2="36.1371303" id="Stroke-64"/>
                                <line x1="24.8765596" y1="19.3993416" x2="21.6103378" y2="22.6444852" id="Stroke-66"/>
                                <line x1="34.3340293" y1="34.7261984" x2="34.3707697" y2="34.7261984" id="Stroke-68"/>
                                <line x1="73.044208" y1="36.4227224" x2="72.6927248" y2="36.0736384" id="Stroke-70"/>
                                <line x1="78.0721322" y1="41.4164486" x2="77.720649" y2="41.0673645" id="Stroke-72"/>
                                <line x1="73.044208" y1="41.0672429" x2="72.6927248" y2="41.4163269" id="Stroke-74"/>
                                <line x1="78.0721322" y1="36.0735168" x2="77.720649" y2="36.4226008" id="Stroke-76"/>
                                <line x1="0.788081649" y1="43.7206465" x2="0.436598458" y2="43.3715624" id="Stroke-78"/>
                                <line x1="5.81600583" y1="48.7143726" x2="5.46452264" y2="48.3652886" id="Stroke-80"/>
                                <line x1="0.788081649" y1="48.3651669" x2="0.436598458" y2="48.714251" id="Stroke-82"/>
                                <line x1="5.81600583" y1="43.3714408" x2="5.46452264" y2="43.7205248" id="Stroke-84"/>
                            </g>
                        </g>
                    </g>
                </g>
            </g>
        </svg>

        <symbol id="tap-thrive-suite" viewBox="0 0 26 18">
            <g stroke="none" stroke-width="1" fill="none" fill-rule="evenodd">
                <g transform="translate(-398.000000, -80.000000)" fill="#58A245">
                    <path d="M424,80.4527444 C423.538615,80.4604108 423.362362,80.5211525 423.033016,80.6505972 C422.655847,80.7915415 422.266647,81.0516103 421.972793,81.3084356 L421.251841,81.9936963 C421.183866,82.060925 421.184167,82.0733092 421.133637,82.1387687 C419.790687,83.7979606 419.489313,84.0633369 418.434203,86.1651175 C417.943342,87.1452408 417.380897,88.0619686 416.773637,88.9654276 C416.355864,89.5811007 415.974484,90.2026711 415.501369,90.7791275 C415.454749,90.8389846 415.421965,90.8658171 415.375345,90.9188923 C415.084498,91.2789196 414.709134,91.6032684 414.361441,91.913169 C414.128643,92.1222266 413.8393,92.3224383 413.572514,92.5017148 C413.342724,92.6473769 413.122258,92.808077 412.8663,92.9416498 L412.490334,93.1421563 C412.409126,93.1890395 412.383861,93.2155771 412.302051,93.2542041 C412.241896,93.2810366 412.180539,93.3152407 412.120685,93.3423681 C412.047597,93.3753927 411.980224,93.3957382 411.904129,93.4299422 C410.412898,94.1747652 408.445544,94.6604039 406.741667,94.8623848 L405.692572,94.9897654 C405.387589,95.0348794 404.553547,95.0749807 403.78778,95.0876598 C403.148938,95.0982748 402.559123,95.0873649 402.369336,95.0534557 L402.485735,94.7597726 C402.732669,94.2048412 403.010282,93.6619991 403.31286,93.1380283 C403.365796,93.0542873 403.39076,92.9823408 403.451215,92.8906385 L404.065393,91.8780804 L405.602341,89.773646 L407.000633,88.3308833 C407.040335,88.2916666 407.060186,88.265129 407.101091,88.2247328 C407.160944,88.1725421 407.168163,88.1793239 407.222302,88.1330305 L407.549242,87.8549751 C407.596162,87.8228351 407.615713,87.8030793 407.670152,87.7691701 C407.757076,87.702826 407.795274,87.6639041 407.8834,87.59756 L409.371623,86.5814635 C409.869402,86.2553455 410.406582,85.9572394 410.917594,85.6623768 L412.529134,84.7999037 C413.134289,84.4994387 414.176165,83.9589555 414.748836,83.715399 L416.431358,82.9410899 C416.188033,82.9670378 415.871921,83.105918 415.642431,83.1867104 C415.371435,83.2769384 415.136231,83.3580256 414.865235,83.4461895 L413.335806,83.9893264 C412.587484,84.2429082 411.84638,84.5784619 411.120315,84.8689015 L409.711797,85.4951897 C409.187851,85.7104394 408.36614,86.1344518 407.836179,86.432263 C407.238845,86.7604451 406.675798,87.1455357 406.090495,87.4911146 L404.141187,88.8507261 C404.094267,88.8861096 404.047046,88.9170702 404.000125,88.9521588 L402.897192,89.8821554 C402.569951,90.2177091 402.183158,90.5408785 401.87637,90.8955982 C401.822832,90.9613526 401.823133,90.9749162 401.756361,91.0406706 C401.470026,91.3319948 401.219181,91.6581129 400.971946,91.9803977 C400.608613,92.4654467 400.271146,92.9693669 399.96135,93.4853764 L399.448533,94.4466285 C399.245211,94.8520646 398.410567,96.7946194 398.372369,97.3324487 L398.310409,97.3333333 C398.308906,97.263156 398.077311,96.3803374 398.01084,95.6190022 L398,94.9882911 C397.999711,94.9705993 398.005125,94.9499589 398.004524,94.9251905 C398.058061,94.5150366 398.047835,94.2440579 398.133856,93.7236254 C398.3456,92.2897086 398.970906,90.8419332 399.784797,89.6223815 L400.619742,88.4441105 C400.852239,88.1359791 401.756361,87.1296131 402.025252,86.9255682 C402.286022,86.7200489 402.518519,86.4119175 402.79914,86.204924 C402.920051,86.1149909 403.040059,85.9876102 403.174203,85.8876518 C403.313762,85.7832705 403.414521,85.6839018 403.555282,85.5836485 L404.352931,85.0004103 C405.163213,84.417172 406.03425,83.8988036 406.936568,83.4488433 C407.89874,82.972935 408.855197,82.5825369 409.857972,82.1886005 C411.165732,81.676719 412.92856,81.2910388 414.275119,81.0150474 C415.694766,80.7119286 419.291405,80.0381676 421.02175,80.0095659 L421.393505,80.0033738 C422.290108,79.9883358 423.673662,80.005143 424,80.4527444"></path>
                </g>
            </g>
        </symbol>
        <symbol id="tap-architect-logo" viewBox="0 0 43 44">
            <g fill="none" fill-rule="evenodd">
                <g>
                    <g>
                        <g>
                            <g>
                                <path fill="#434343" fill-rule="nonzero" d="M42.82 41.754h-.485c-5.318 0-10.06-3.348-11.84-8.36l-7.19-20.217-4.313 12.11c-1.165.204-2.232.42-2.876.575-1.515.317-3.508.762-4.987 1.349-.862.35-1.725.699-2.548 1.09L18.627.01h9.358L42.82 41.755z" transform="translate(-692 -149) translate(599 109) translate(93 40)"/>
                                <path fill="#58A245"
                                      d="M24.861 27.289c-.319-.006-.635.06-.926.192-.371.155-.713.372-1.012.642l-.69.67c-.042.043-.08.09-.112.14-1.286 1.617-1.573 1.876-2.588 3.926-.47.944-1 1.857-1.588 2.732-.4.601-.762 1.208-1.216 1.769-.044.057-.075.083-.121.135-.295.35-.62.676-.97.972-.236.21-.488.402-.753.575-.218.144-.431.288-.676.429l-.36.195c-.057.04-.116.076-.177.11l-.176.086c-.069.034-.132.051-.207.086-1.557.734-3.224 1.207-4.935 1.398l-1.003.123c-.288.043-1.09.084-1.82.095-.453.018-.907.007-1.358-.031l.112-.288c.236-.54.5-1.069.79-1.582.053-.08.076-.152.133-.241l.575-.987 1.47-2.053 1.337-1.406.095-.104c.057-.052.066-.046.118-.089l.31-.273.118-.084c.08-.063.118-.1.205-.166l1.42-.99c.478-.319.99-.61 1.478-.897l1.542-.843c.575-.287 1.576-.82 2.122-1.058l1.608-.753c-.259.054-.511.134-.754.238l-.742.253-1.463.53c-.717.247-1.424.575-2.117.862l-1.349.61c-.612.274-1.21.58-1.791.915-.576.319-1.11.695-1.671 1.032l-1.864 1.326c-.043.034-.089.066-.135.097l-1.035.903c-.314.328-.685.642-.978.99-.035.05-.073.097-.115.14-.267.29-.517.596-.748.915-.346.474-.669.964-.966 1.47l-.492.937c-.195.394-.992 2.3-1.03 2.816H.3C.174 43.2.078 42.642.012 42.079v-.613-.063c.051-.4.04-.664.123-1.17.234-1.431.772-2.796 1.579-4l.797-1.15c.413-.525.863-1.02 1.345-1.482.248-.198.472-.5.74-.702.115-.089.23-.212.359-.31.13-.098.23-.199.365-.288l.762-.575c.781-.57 1.608-1.076 2.47-1.513.92-.463 1.835-.845 2.793-1.228 1.375-.496 2.788-.88 4.225-1.15 1.357-.288 4.794-.955 6.45-.98h.354c.851-.02 2.174-.003 2.487.434z"
                                      transform="translate(-692 -149) translate(599 109) translate(93 40)"/>
                            </g>
                        </g>
                    </g>
                </g>
            </g>
        </symbol>
        <symbol id="tap-apprentice-logo" viewBox="0 0 21 19">
            <defs>
                <path id="lroj72ai4a" d="M0.284 0.562L10.622 0.562 10.622 7.555 0.284 7.555z"/>
                <path id="04huvw8fcc" d="M0 0L21.111 0 21.111 18.889 0 18.889z"/>
            </defs>
            <g fill="none" fill-rule="evenodd">
                <g>
                    <g>
                        <g>
                            <g>
                                <g transform="translate(-538 -132) translate(538 108) translate(0 24) translate(10.302 11.323)">
                                    <mask id="1nqnc9olub" fill="#fff">
                                        <use xlink:href="#lroj72ai4a"/>
                                    </mask>
                                    <path fill="#4F9542"
                                          d="M9.453.562c-.68 0-2.104.257-2.664.369-.532.106-1.23.253-1.747.455-.4.156-.777.309-1.16.5-.357.18-.704.387-1.028.621l-.318.235c-.057.042-.097.08-.153.125-.053.04-.1.09-.15.127-.111.084-.204.208-.31.29-.106.083-.468.494-.56.62l-.34.478C.695 4.88.44 5.473.344 6.062c-.035.215-.032.329-.057.496l-.003.025v.26c.022.316.107.682.108.712h.024c.019-.223.358-1.018.442-1.184l.21-.392c.126-.211.26-.419.408-.614.097-.132.2-.265.316-.383.026-.027.026-.032.048-.06.12-.144.277-.275.409-.409l.44-.378.054-.041.777-.547c.235-.14.458-.292.695-.425.213-.119.538-.29.744-.374l.56-.248c.29-.115.583-.25.88-.348l.605-.213.306-.102c.091-.03.219-.088.315-.095l-.667.308c-.228.093-.642.31-.882.43l-.642.345c-.203.12-.418.238-.615.37l-.591.409c-.036.027-.053.043-.088.069-.02.015-.029.02-.047.035l-.13.112c-.023.02-.026.017-.048.037-.017.015-.026.025-.042.043l-.56.583-.62.859-.248.415c-.022.037-.036.066-.056.1-.123.214-.234.436-.336.663l-.048.12c.166.04 1.087.029 1.308-.003l.413-.044c.674-.073 1.453-.26 2.045-.556l.085-.035.073-.036c.03-.015.042-.026.075-.044l.148-.08c.1-.054.19-.116.281-.177.108-.071.22-.151.316-.237.14-.125.288-.257.406-.403.017-.022.032-.033.05-.056.19-.235.344-.491.511-.741.246-.368.476-.743.675-1.142.43-.86.55-.97 1.09-1.642.02-.028.022-.033.049-.06l.287-.277c.118-.104.272-.211.42-.266.134-.05.202-.074.385-.074-.128-.19-.672-.204-1.024-.205H9.453z"
                                          mask="url(#1nqnc9olub)"/>
                                </g>
                                <g>
                                    <g transform="translate(-538 -132) translate(538 108) translate(0 24) translate(0 .08) translate(0 .118)">
                                        <mask id="oje207toud" fill="#fff">
                                            <use xlink:href="#04huvw8fcc"/>
                                        </mask>
                                        <path fill="#434242"
                                              d="M7.693 6.584c0 .314-.356.49-.61.306-2.385-1.742-4.368-2.08-5.14-2.144-.196-.016-.345-.183-.345-.38V3.081c0-.223.191-.403.414-.383 3.161.296 5.075 1.869 5.559 2.314.08.073.122.174.122.282v1.29zm-.028 3.506c0 .312-.356.49-.609.305-2.385-1.742-4.369-2.08-5.14-2.144-.197-.016-.347-.183-.347-.38V6.586c0-.223.192-.403.415-.383 3.162.296 5.074 1.869 5.56 2.315.078.073.12.173.12.28v1.292zm11.459-1.398V.383c0-.226-.193-.404-.418-.381-1.433.14-6.208.834-8.85 3.97-.156.184-.432.184-.588 0C6.626.836 1.85.142.418.002.192-.021 0 .157 0 .383v9.673c0 .197.152.362.349.38 1.343.125 6.233.79 8.919 3.977.156.184.432.184.587 0 .032-.038.066-.074.099-.112.284-1.054 1.843-5.037 9.17-5.61z"
                                              mask="url(#oje207toud)"/>
                                    </g>
                                </g>
                            </g>
                        </g>
                    </g>
                </g>
            </g>
        </symbol>
        <symbol id="tap-quiz-builder-logo" viewBox="0 0 56 44">
            <defs>
                <path id="yj94b05lba" d="M0.719 0.702L11.632 0.702 11.632 11.614 0.719 11.614z"/>
                <path id="svu7o1t3zc" d="M0.368 0.919L26.197 0.919 26.197 18.4 0.368 18.4z"/>
            </defs>
            <g fill="none" fill-rule="evenodd">
                <g>
                    <g>
                        <g>
                            <g transform="translate(-436 -397) translate(349 358) translate(87 37) translate(0 1.6)">
                                <mask id="qzvcsgq8wb" fill="#fff">
                                    <use xlink:href="#yj94b05lba"/>
                                </mask>
                                <path fill="#434343" d="M6.177 3C4.436 3 3.019 4.419 3.019 6.157c0 1.742 1.417 3.158 3.158 3.158 1.738 0 3.155-1.416 3.155-3.158 0-1.738-1.417-3.155-3.155-3.155m0 8.613c-3.009 0-5.458-2.45-5.458-5.458S3.169.701 6.177.701s5.455 2.447 5.455 5.455c0 3.009-2.447 5.458-5.455 5.458" mask="url(#qzvcsgq8wb)"/>
                            </g>
                            <path fill="#434343" d="M6.177 30.218c-1.741 0-3.158 1.414-3.158 3.155 0 1.742 1.417 3.156 3.158 3.156 1.738 0 3.155-1.414 3.155-3.156 0-1.74-1.417-3.155-3.155-3.155m0 8.611c-3.009 0-5.458-2.447-5.458-5.456 0-3.008 2.45-5.455 5.458-5.455s5.455 2.447 5.455 5.455c0 3.009-2.447 5.456-5.455 5.456" transform="translate(-436 -397) translate(349 358) translate(87 37)"/>
                            <path fill="#58A21D"
                                  d="M9.66 19.63l-4.14 4.14c-.23.208-.437.415-.644.647-.184.159-.368.25-.598.159-.092-.046-.184-.115-.253-.184-.85-.828-1.702-1.68-2.553-2.53-.115-.115-.23-.23-.345-.368-.184-.207-.16-.506.023-.69.253-.253.506-.53.782-.782.207-.207.53-.184.76.023.574.575 1.126 1.15 1.701 1.725.046.046.07.023.115-.023.99-.99 1.978-1.978 2.99-2.967.414-.437.851-.874 1.288-1.311.207-.207.437-.23.667-.115.046.023.092.069.138.115l.76.759c.091.092.137.207.137.368 0 .115-.046.253-.16.345-.208.23-.438.46-.668.69m-3.772-4.9C2.645 14.732 0 17.355 0 20.62c0 3.243 2.645 5.888 5.888 5.888s5.888-2.645 5.888-5.888c0-3.266-2.645-5.888-5.888-5.888"
                                  transform="translate(-436 -397) translate(349 358) translate(87 37)"/>
                            <path fill="#434343"
                                  d="M42.09 11.157H16.268c-1.787 0-3.236-1.449-3.236-3.236 0-1.785 1.45-3.234 3.236-3.234H42.09c1.788 0 3.237 1.45 3.237 3.234 0 1.787-1.45 3.236-3.237 3.236M42.09 23.748H16.268c-1.787 0-3.236-1.447-3.236-3.234s1.45-3.236 3.236-3.236H42.09c1.788 0 3.237 1.45 3.237 3.236 0 1.787-1.45 3.234-3.237 3.234M16.26 30.096h20.174c-.37.23-.739.46-1.107.713l-.805.598c-.112.092-.23.182-.322.274l-.115.092c-.092.071-.207.163-.299.255-.276.207-.506.414-.71.644-.049.046-.092.115-.14.16-.553.415-1.634 1.703-1.818 1.956l-.874 1.242c-.115.184-.23.343-.322.53H16.26c-1.77 0-3.22-1.45-3.22-3.246 0-1.769 1.45-3.218 3.22-3.218"
                                  transform="translate(-436 -397) translate(349 358) translate(87 37)"/>
                            <g transform="translate(-436 -397) translate(349 358) translate(87 37) translate(29.9 26.9)">
                                <mask id="iec8cjrh1d" fill="#fff">
                                    <use xlink:href="#svu7o1t3zc"/>
                                </mask>
                                <path fill="#58A21D"
                                      d="M26.197 1.425c-.46 0-.623.07-.966.184-.368.14-.736.416-1.035.667l-.736.69c-.046.07-.069.092-.115.161-1.357 1.681-1.656 1.957-2.714 4.096-.506 1.01-1.081 1.93-1.702 2.852-.414.642-.805 1.265-1.265 1.861l-.069.071c-.023.021-.046.021-.071.07-.274.365-.667.69-1.01 1.01-.232.206-.506.413-.782.597-.23.14-.46.3-.69.44l-.393.183c-.067.044-.113.092-.182.113-.046.023-.115.071-.184.092-.069.023-.138.071-.21.092-1.469.738-3.424 1.196-5.103 1.38l-1.035.117c-.299.044-1.127.067-1.863.067-.644 0-1.219-.023-1.403-.067l.113-.3c.255-.55.531-1.103.853-1.657.046-.069.069-.16.138-.253l.621-1.033 1.541-2.14 1.403-1.45c.044-.044.069-.067.092-.115.069-.044.069-.044.138-.092l.322-.276c.046-.044.067-.044.115-.092.092-.067.115-.115.207-.184l1.495-1.01c.483-.324 1.012-.623 1.518-.922l1.61-.874c.598-.299 1.633-.828 2.208-1.058l1.679-.78c-.253.021-.575.161-.805.251-.253.07-.485.161-.759.253L15.64 4.9c-.736.228-1.472.575-2.185.874l-1.403.62c-.529.206-1.334.622-1.863.921-.598.343-1.15.711-1.725 1.058L6.507 9.751c-.044.025-.09.07-.136.092l-1.104.943c-.322.347-.713.667-1.012 1.037-.048.07-.048.07-.115.136-.299.3-.552.644-.805.966-.368.483-.69 1.012-1.012 1.541l-.529.968C1.587 15.848.736 17.85.69 18.401H.644c0-.069-.23-.99-.276-1.773V15.917c.069-.439.069-.715.138-1.242.253-1.474.897-2.967 1.702-4.209l.849-1.198c.232-.32 1.129-1.334 1.405-1.54.253-.208.506-.528.782-.737.113-.09.23-.207.368-.322.138-.092.23-.207.391-.299l.782-.596c.805-.575 1.679-1.106 2.576-1.54.943-.484 1.909-.875 2.896-1.243 1.29-.508 3.038-.874 4.372-1.15 1.403-.276 4.945-.922 6.645-.922h.37c.874 0 2.231.048 2.553.506"
                                      mask="url(#iec8cjrh1d)"/>
                            </g>
                        </g>
                    </g>
                </g>
            </g>
        </symbol>
        <symbol id="tap-ultimatum-logo" viewBox="0 0 19 20">
            <defs>
                <path id="bd1u6txnua" d="M0 0.165L17.254 0.165 17.254 18.99 0 18.99z"/>
                <path id="c3o78o0c3c" d="M0.769 0.054L12.769 0.054 12.769 8.054 0.769 8.054z"/>
            </defs>
            <g fill="none" fill-rule="evenodd">
                <g>
                    <g>
                        <g transform="translate(-779 -236) translate(779 236) translate(0 .1)">
                            <mask id="06ae0xzukb" fill="#fff">
                                <use xlink:href="#bd1u6txnua"/>
                            </mask>
                            <path fill="#424242"
                                  d="M9.5 1.373L7.86.165V1.77c-2.075.18-3.94 1.102-5.337 2.494C.965 5.822 0 7.979 0 10.36c0 2.383.965 4.539 2.523 6.101.111.11.227.218.342.324l.986-1.148c-.09-.081-.175-.162-.256-.243-1.29-1.29-2.084-3.066-2.084-5.034 0-1.964.795-3.74 2.084-5.03 1.119-1.118 2.609-1.866 4.266-2.04v1.703L9.5 3.786l1.64-1.204L9.5 1.373zm2.664 7.067c.15-.141.158-.385.013-.538l-.295-.308c-.145-.153-.384-.158-.537-.017L8.907 9.883c-.039 0-.073.004-.107.004-.09.013-.171.038-.248.072L6.038 7.34l-.466.443 2.536 2.639c-.038.09-.06.179-.064.273l-.183.175c-.15.14-.159.384-.013.538l.294.307c.146.154.385.158.538.017l.124-.12c.072.01.145.01.218 0 .064-.008.124-.025.18-.046l.17.18.465-.445-.153-.158c.068-.136.102-.29.093-.448l2.387-2.254zm.086-5.91l-.602 1.388c.277.132.546.282.802.444l.914-1.213c-.354-.23-.726-.44-1.114-.618zm2.476 1.734c-.239-.24-.486-.461-.751-.67l-.91 1.208c.205.166.406.341.594.53.076.076.149.157.222.238l1.2-.935c-.116-.128-.235-.252-.355-.371zm.829.96l-1.192.931c.359.491.658 1.029.888 1.606l1.448-.444c-.282-.752-.67-1.456-1.144-2.093zm1.378 2.81l-1.447.44c.154.559.24 1.144.252 1.746l1.516.09c-.004-.79-.115-1.55-.32-2.276zm-1.22 2.941c-.103 1.222-.517 2.358-1.162 3.326l.26.206c.449-.15.944-.257 1.418-.35.034-.009.09-.018.158-.03h.004c.453-.935.743-1.969.833-3.062l-1.512-.09zM9.55 17.418c-.303.04-.61.06-.926.06-1.567 0-3.014-.508-4.189-1.366l-.986 1.153c1.443 1.084 3.232 1.725 5.175 1.725.222 0 .44-.009.653-.022.111-.354.243-.657.376-.913l-.103-.637z"
                                  mask="url(#06ae0xzukb)"/>
                        </g>
                        <path fill="#424242" d="M9.297 18.042c-.004.009-.004.017-.012.025H9.3l-.004-.025z" transform="translate(-779 -236) translate(779 236)"/>
                        <g transform="translate(-779 -236) translate(779 236) translate(7.23 11.946)">
                            <mask id="9jzbtna6od" fill="#fff">
                                <use xlink:href="#c3o78o0c3c"/>
                            </mask>
                            <path fill="#59A31D"
                                  d="M10.639 1.054c-.659 0-2.035.257-2.577.37-.515.106-1.189.253-1.69.455-.385.156-.752.31-1.122.501-.345.18-.681.387-.994.622l-.308.235c-.055.042-.094.08-.147.124-.053.042-.097.09-.145.128-.109.083-.198.207-.3.29-.103.083-.453.495-.543.62l-.328.48c-.317.497-.565 1.092-.657 1.681-.034.216-.031.329-.055.497l-.004.024v.261c.022.316.105.682.106.712h.023c.017-.223.346-1.019.426-1.185l.204-.393c.122-.21.252-.418.394-.614.095-.132.194-.265.306-.383.025-.027.025-.033.047-.06.116-.144.268-.276.395-.41l.426-.378.053-.04.751-.549c.227-.139.443-.292.672-.425.207-.119.52-.29.72-.375l.542-.248c.28-.114.563-.25.85-.347l.586-.214.296-.102c.088-.03.211-.088.305-.095l-.646.308c-.22.093-.62.31-.853.431l-.62.345c-.197.119-.405.238-.596.37l-.571.41c-.036.027-.051.042-.085.068l-.046.036-.126.111c-.021.02-.024.018-.046.038-.016.014-.025.025-.04.042L4.7 4.98l-.6.859-.24.415c-.021.037-.035.066-.054.101-.119.214-.227.436-.325.663l-.047.12c.16.04 1.052.03 1.266-.002L5.1 7.09c.653-.073 1.405-.26 1.978-.556L7.16 6.5c.022-.01.048-.025.07-.036.03-.015.042-.026.074-.044l.143-.08c.097-.055.184-.117.272-.177.104-.071.213-.152.306-.238.134-.125.278-.257.391-.403.017-.023.033-.033.05-.056.182-.236.332-.491.494-.742.238-.368.46-.744.652-1.143.417-.862.532-.97 1.053-1.645.022-.027.023-.032.049-.059l.278-.277c.114-.104.263-.211.407-.266.129-.05.195-.074.371-.074-.123-.19-.65-.204-.99-.206h-.14zm-1.734 1.17c-.013.012.02.012-.034.012.012-.013-.021-.013.034-.013z"
                                  mask="url(#9jzbtna6od)"/>
                        </g>
                    </g>
                </g>
            </g>
        </symbol>
        <symbol id="tap-ovation-logo" viewBox="0 0 21 19">
        <defs>
            <path id="kj8mvum4ia" d="M0 0.021L20.112 0.021 20.112 16.829 0 16.829z"/>
            <path id="9ruj1m9ufc" d="M0.216 0.128L10.034 0.128 10.034 6.769 0.216 6.769z"/>
        </defs>
        <g fill="none" fill-rule="evenodd">
            <g>
                <g>
                    <g>
                        <g>
                            <path fill="#59A31D"
                                  d="M6.952 5.236c.057.06.108.122.152.187.043.066.08.14.108.224.028.083.043.177.043.282 0 .128-.025.248-.073.362-.048.113-.115.213-.2.298-.086.086-.186.154-.302.204-.116.05-.243.076-.378.076-.136 0-.26-.029-.374-.085-.115-.057-.212-.133-.292-.227-.082-.094-.144-.204-.188-.328-.044-.126-.065-.256-.065-.392 0-.294.048-.563.147-.809.099-.244.227-.463.384-.656.158-.193.333-.362.526-.51.193-.145.38-.267.565-.363.061-.036.108-.032.14.01.033.041.02.094-.041.16-.092.092-.176.202-.25.329-.074.127-.13.256-.167.387-.038.132-.051.258-.04.378.011.12.055.22.135.298l.17.175m-2.233 0c.057.06.107.122.151.187.043.066.08.14.108.224.029.083.043.177.043.282 0 .128-.024.248-.072.362-.049.113-.116.213-.2.298-.086.086-.187.154-.303.204-.116.05-.242.076-.378.076s-.26-.029-.374-.085c-.114-.057-.212-.133-.292-.227-.082-.094-.144-.204-.188-.328-.043-.126-.065-.256-.065-.392 0-.294.049-.563.147-.809.098-.244.227-.463.384-.656.159-.193.333-.362.527-.51.192-.145.38-.267.564-.363.061-.036.108-.032.141.01.033.041.02.094-.042.16-.093.092-.176.202-.25.329-.074.127-.13.256-.168.387-.037.132-.05.258-.039.378.01.12.055.22.135.298l.17.175"
                                  transform="translate(-65 -782) translate(45 167) translate(20 615)"/>
                            <g transform="translate(-65 -782) translate(45 167) translate(20 615) translate(0 .286)">
                                <mask id="ecjwrjhuqb" fill="#fff">
                                    <use xlink:href="#kj8mvum4ia"/>
                                </mask>
                                <path fill="#424242"
                                      d="M17.438 7.047l-.206.207-3.725 3.72-.716.716-2.76 2.76L6.3 10.66l-.391-.379-3.233-3.238c-.582-.577-.9-1.346-.9-2.17 0-.822.318-1.596.904-2.178.577-.58 1.346-.898 2.169-.898s1.592.318 2.174.903l3.028 3.028 1.256-1.252 1.78-1.776c.582-.581 1.355-.903 2.178-.903.819 0 1.592.322 2.174.903.578.577.9 1.351.9 2.174 0 .818-.322 1.592-.9 2.173m1.252-5.604C17.778.527 16.557.021 15.264.021c-1.301 0-2.513.506-3.43 1.422l-1.78 1.776-1.776-1.776C7.362.527 6.145.021 4.848.021c-1.297 0-2.513.506-3.43 1.422C.501 2.356 0 3.577 0 4.873 0 6.168.5 7.388 1.418 8.3l8.524 8.53c.121-.3.278-.6.461-.877l.004-.01.005-.003.326-.465c.086-.112.466-.555.627-.685.022-.018.058-.048.09-.084.057-.059.129-.134.214-.198.013-.008.026-.017.035-.026.036-.031.068-.062.099-.09l.053-.04c.032-.027.068-.053.104-.084l.308-.23c.317-.227.671-.442 1.047-.63.165-.084.335-.16.496-.228l4.88-4.88c.916-.912 1.421-2.132 1.421-3.425 0-1.297-.505-2.518-1.422-3.43"
                                      mask="url(#ecjwrjhuqb)"/>
                            </g>
                            <g transform="translate(-65 -782) translate(45 167) translate(20 615) translate(10.462 13.21)">
                                <mask id="n26lehvtgd" fill="#fff">
                                    <use xlink:href="#9ruj1m9ufc"/>
                                </mask>
                                <path fill="#59A31D"
                                      d="M8.924.128c-.646 0-1.997.244-2.53.35-.505.1-1.167.24-1.659.433-.378.148-.737.293-1.102.475-.338.17-.669.367-.975.59l-.302.223c-.054.039-.092.076-.146.117-.05.04-.095.086-.142.121-.106.08-.194.197-.295.276-.1.079-.444.469-.532.588l-.323.455c-.31.472-.554 1.036-.644 1.595-.033.205-.031.312-.054.472l-.004.023v.247c.022.3.103.647.103.676h.023c.018-.212.34-.967.42-1.125l.198-.372c.12-.2.249-.397.388-.583.093-.125.19-.251.3-.363.025-.026.025-.031.047-.057.113-.137.263-.262.387-.39l.419-.358.051-.039.738-.52c.222-.13.435-.277.66-.403.202-.113.51-.275.707-.355l.531-.236c.276-.108.554-.237.836-.33l.575-.202.29-.097c.087-.029.208-.083.3-.09l-.634.292c-.217.088-.61.294-.838.409l-.61.327c-.192.113-.396.226-.583.351l-.562.388-.083.066-.046.034-.123.106c-.021.018-.023.016-.045.035l-.04.04-.53.555-.59.815-.236.394c-.021.035-.034.063-.053.096-.117.202-.223.414-.319.63l-.046.113c.158.037 1.032.028 1.243-.002l.391-.043c.641-.069 1.38-.247 1.943-.527l.08-.033c.022-.01.047-.023.069-.035.029-.015.041-.025.072-.042l.141-.076c.095-.051.18-.11.267-.167.101-.068.209-.145.3-.226.132-.119.273-.244.384-.382.017-.022.032-.032.049-.054.18-.223.326-.466.486-.703.233-.35.45-.706.64-1.085.408-.818.522-.92 1.034-1.56.02-.026.022-.031.047-.057L9.27.646c.113-.1.258-.201.4-.253.126-.047.19-.07.364-.07-.121-.18-.638-.194-.971-.195h-.139zm-1.701 1.11c-.013.01.019.01-.035.01.013-.01-.02-.01.035-.01z"
                                      mask="url(#n26lehvtgd)"/>
                            </g>
                        </g>
                    </g>
                </g>
            </g>
        </g>
    </defs>
</svg>
