<svg width="15" height="12" viewBox="0 0 15 12" xmlns="http://www.w3.org/2000/svg">
    <polygon fill="#000" points="15 7 15 12 14 12 14 8.38 12.5 10.71 11 8.38 11 12 10 12 10 7 11.15 7 12.5 9.14 13.85 7 15 7" />
    <line fill="none" stroke="#000" x1="10.79" y1="0.42" x2="2.79" y2="10.42" />
    <path fill="#000" d="M13.24,5.21c-.09-.16-2.39-3.92-6.56-3.92S.21,5.06.12,5.22L0,5.47l.14.25c.09.16,2.27,3.93,6.56,3.93A6.87,6.87,0,0,0,8,9.52v-1a5.61,5.61,0,0,1-1.32.16A7,7,0,0,1,1.14,5.47,7,7,0,0,1,6.68,2.29c3,0,5,2.38,5.53,3.18H13.4Z" />
</svg>
