<svg width="17" height="12" viewBox="0 0 17 12" xmlns="http://www.w3.org/2000/svg">
    <line fill="none" stroke="#000" x1="10.79" y1="0.42" x2="2.79" y2="10.42" />
    <polygon fill="#000" points="17 11 17 12 14 12 14 7 15 7 15 11 17 11" />
    <polygon fill="#000" points="13 12 11.92 12 10.5 10.17 9.09 12 8 12 9.96 9.46 8.07 7 9.16 7 10.5 8.75 11.86 7 12.94 7 11.05 9.46 13 12" />
    <path fill="#000" d="M13.24,5.21c-.09-.16-2.39-3.92-6.56-3.92S.21,5.06.12,5.22L0,5.47l.14.25c.09.16,2.27,3.93,6.56,3.93H7v-1H6.68A7,7,0,0,1,1.14,5.47,7,7,0,0,1,6.68,2.29c3,0,5,2.38,5.53,3.18H13.4Z" />
</svg>
