<svg width="17" height="11" viewBox="0 0 17 11" xmlns="http://www.w3.org/2000/svg">
    <polygon fill="#000" points="17 10 17 11 14 11 14 6 15 6 15 10 17 10" />
    <polygon fill="#000" points="13 11.04 11.92 11.04 10.5 9.21 9.09 11.04 8 11.04 9.96 8.5 8.07 6.04 9.16 6.04 10.5 7.79 11.86 6.04 12.94 6.04 11.05 8.5 13 11.04" />
    <path fill="#000" d="M13.24,4.21C13.15,4.05,10.85.29,6.68.29S.21,4.06.12,4.22L0,4.47l.14.25c.09.16,2.27,3.93,6.56,3.93H7v-1H6.68A7,7,0,0,1,1.14,4.47,7,7,0,0,1,6.68,1.29c3,0,5,2.38,5.53,3.18H13.4Z" />
    <circle fill="#000" cx="6.69" cy="4.5" r="1.45" />
</svg>
