<svg xmlns="http://www.w3.org/2000/svg" viewBox="0 0 250 250" fill-rule="evenodd" stroke-linejoin="round" stroke-miterlimit="2" xmlns:v="https://vecta.io/nano"><g fill="#d99b21"><path d="M129.958 211.283l-.304 7.331c3.243 10.506 24.006 11.678 29.823-.279 1.368-1.838 3.404-5.254 4.759-10.582-9.906 7.218-27.572 6.966-34.278 3.53zm71.647-44.781c-4.325 5.015-17.679 13.304-24.767 13.318.878 2.444 1.519 4.967 1.914 7.534 4.881 8.067 25.561.197 23.482-13.063a48.25 48.25 0 0 0-.629-7.789zm-118.648 3.232l2.704 8.18c-5.335 13.746-21.811 14.819-29.309 7.202-1.257-2.355-2.357-4.791-3.29-7.292 7.004 1.257 23.519-2.514 29.896-8.09zm57.755-41.669l-25.452 21.322c-1.484-1.712-13.058-14.917-18.308-30.476l29.024-16.856c6.14 13.73 11.017 20.347 14.735 26.01h.001z"/><path d="M114.834 148.725l.22.178c.005-.008-.055-.082-.172-.216l-.048.039zm8.973-84.231a20.11 20.11 0 0 0 .083-10.15 20.5 20.5 0 0 0-6.073-9.992c-2.951-2.67-6.521-12.066-18.41-12.066a30.27 30.27 0 0 0-19.312 7.256c-4.595 8.671-6.157 18.165-3.8 27.379 2.22 8.679 7.627 15.921 15.104 21.286 0 0 15.273 1.043 23.915-5.352 8.372-6.196 8.492-18.361 8.492-18.361zm57.632 3.087l1.618-6.485a214.71 214.71 0 0 0-26.479-2.508 29.97 29.97 0 0 1-2.605 6.095c4.131 10.214 20.801 11.132 27.465 2.899z"/></g><path d="M159.477 218.334c4.652 6.281 7.188 12.913 7.188 16.929 0 7.617-4.743 14.735-13.211 14.735-12.405 0-23.882-12.469-23.882-27.437a107.89 107.89 0 0 1 .08-3.95c1.131 1.806 4.444 4.458 14.15 4.458 8.283 0 13.082-2.583 15.675-4.734zm-73.816-40.42c1.342 4.688 2.246 9.279 2.246 13.145 0 6.448-1.749 10.362-5.711 11.683-1.174 7.092-4.133 11.181-10.041 11.181-8.38 0-16.26-8.739-16.26-24.389a20.43 20.43 0 0 1 .457-4.418c1.561 1.026 4.079 1.877 8.187 1.877 13.012 0 19.164-6.465 21.122-9.08zm135.373 7.047c0 11.252-12.209 20.832-25.406 20.832-8.826 0-15.052-6.116-16.768-17.784-.033-.224-.073-.437-.108-.656.662.598 1.78 1.165 3.666 1.165 8.235 0 19.816-8.786 19.816-14.227 0 0 1.143-.508 4.065-.508 7.591 0 14.735 3.907 14.735 11.178zm-19.429-18.459c-3.595-22.016-22.133-36.924-41.038-36.924-3.156.001-6.302.347-9.383 1.031a84.03 84.03 0 0 1-9.773-13.234c16.826-6.976 33.409-27.364 40.027-49.794-1.318 1.051-4.164 2.55-9.691 2.55-11.632 0-16.344-3.881-17.774-5.449-4.916 8.781-14.264 16.119-23.893 16.119-2.399.003-4.792-.235-7.144-.712 3.906-7.339 4.585-13.598 2.183-16.362a1.01 1.01 0 0 0-.759-.343c-.466 0-.875.323-.983.776-3.635 14.666-20.755 23.746-36.061 23.746-15.461 0-28.394-8.808-28.394-22.259 0-15.013 17.366-28.538 36.726-28.538 8.716 0 16.584 2.808 21.809 7.659.186.176.433.274.69.274a1.01 1.01 0 0 0 .996-.871c1.269-8.616-15.211-20.193-35.117-20.193-2.304.002-4.605.16-6.887.474l-1.228-4.583c-.337-1.257-.136-1.925.737-2.89a10.17 10.17 0 0 0 2.623-6.814C79.271 4.588 74.683 0 69.107 0S58.944 4.588 58.944 10.163c0 4.426 2.891 8.367 7.113 9.695 1.22.383 1.681.918 2.012 2.153l1.121 4.182C50.069 32.02 36.063 48.609 36.063 66.848c0 23.813 20.435 34.654 32.695 37.261a36.14 36.14 0 0 0-11.515 10.184l-2.069-3.583c-.372-.519-.419-1.207-.122-1.773a4.58 4.58 0 0 0 .336-1.72 4.6 4.6 0 0 0-4.574-4.574 4.6 4.6 0 0 0-4.574 4.574 4.59 4.59 0 0 0 3.951 4.531 1.68 1.68 0 0 1 1.46.99l3.081 5.336a46.72 46.72 0 0 0-3.776 8.04L40.619 108.21a1.71 1.71 0 0 1-.066-1.902 6.1 6.1 0 0 0 .606-2.648c0-3.342-2.75-6.092-6.092-6.092a5.82 5.82 0 0 0-.231.005c-3.257.12-5.872 2.833-5.872 6.093 0 3.191 2.505 5.87 5.689 6.083.677-.016 1.3.384 1.567 1.006l12.804 22.177a59.78 59.78 0 0 0-1.26 12.399c0 14.296 2.46 24.953 5.296 32.495.977.889 3.245 2.056 8.429 2.056 11.381 0 20.905-4.837 21.466-10.147 9.937 15.209 20.459 19.398 37.977 23.865 5.542 1.414 9.054 5.523 9.054 15.775a71.89 71.89 0 0 1-.03 1.908c1.477 1.656 5.29 4.165 14.86 4.165 12.157 0 17.497-5.116 19.418-7.695a49.05 49.05 0 0 0 1.413-12.121c0-12.561-9.203-24.324-21.747-31.118a40.13 40.13 0 0 1 8.536-.892c10.85 0 20.065 4.38 24.4 16.199.825.528 2.238 1.077 4.564 1.077 7.561 0 17.624-7.933 20.204-14.394zm-64.308-38.05c-13.001 12.769-27.699 21.282-31.619 23.447-.59.329-1.332.224-1.808-.256-8.605-8.775-13.585-20.668-15.02-24.43-.255-.665.041-1.424.678-1.741a295.05 295.05 0 0 0 34.471-20.599c.169-.119.371-.183.578-.183.392 0 .75.229.914.586a147.63 147.63 0 0 0 11.983 21.216c.423.608.348 1.439-.177 1.961h0zm10.567-82.202c0-2.567 2.192-4.065 5.081-4.065a12.11 12.11 0 0 1 4.016.754c-.306-1.759-.46-3.541-.458-5.326 0-9.085 3.224-16.259 11.178-16.259 9.005 0 16.768 11.138 16.768 26.421-.016 4.475-.482 8.937-1.389 13.319-1.334.752-4.365 1.924-10.296 1.924-12.852 0-16.186-4.431-16.186-4.431-3.829-3.198-8.714-8.106-8.714-12.337h-.001z" fill="#001950"/></svg>