<svg xmlns="http://www.w3.org/2000/svg" viewBox="0 0 659.22 649.53"><path fill="currentColor" d="M155.45,340.56c0,116.86,94.74,211.6,211.6,211.6s211.6-94.74,211.6-211.6S483.91,129,367.05,129a21.16,21.16,0,0,0-21.16,21.16V319.4H176.61A21.17,21.17,0,0,0,155.45,340.56Zm211.6,21.16a21.16,21.16,0,0,0,21.16-21.16V172.61A169.28,169.28,0,1,1,199.09,361.72Z"/><path fill="currentColor" d="M92,277.08H282.41a21.16,21.16,0,0,0,21.16-21.16V65.49a21.16,21.16,0,0,0-21.16-21.16C165.6,44.46,71,139.12,70.81,255.92A21.16,21.16,0,0,0,92,277.08ZM261.25,88V234.76H114.46A169.63,169.63,0,0,1,261.25,88Z"/></svg>