<svg xmlns="http://www.w3.org/2000/svg" width="298" height="209" viewBox="0 0 298 209">
  <g>
    <path d="M1095.976,711.241c44.427,0,88.852.063,133.278-.1,4.585-.025,6.064,1.029,5.975,5.835-.313,16.326-.225,32.665-.049,49,.049,3.777-.852,5.183-4.923,5.17q-134.125-.151-268.237,0c-3.883,0-5.111-1.029-5.048-5.021.2-16.513.289-33.041-.049-49.554-.088-4.794,1.692-5.421,5.788-5.407C1007.136,711.29,1051.563,711.241,1095.976,711.241Z" transform="translate(-946.905 -711.14)" fill="currentColor"/>
    <path d="M986.828,778.837c-8.445,0-16.89-.112-25.336.062-3.364.076-4.606-.928-4.568-4.442q.225-25.355.012-50.684c-.025-3.2.641-4.731,4.3-4.692,17.08.15,34.171.125,51.249.013,3.1-.013,4.292.889,4.266,4.14q-.188,25.9-.012,51.814c.025,3.012-1.18,3.878-4,3.84C1004.107,778.762,995.474,778.837,986.828,778.837Z" transform="translate(-946.845 -619.531)" fill="currentColor"/>
    <path d="M995.546,719.145c8.445,0,16.89.1,25.336-.062,3.162-.063,4.68.465,4.63,4.217q-.283,25.619,0,51.237c.025,3.551-1.167,4.4-4.543,4.366-16.89-.151-33.782-.125-50.66-.013-3.2.025-4.705-.552-4.668-4.253q.264-25.619,0-51.237c-.037-3.614,1.293-4.392,4.567-4.317C978.641,719.271,987.1,719.145,995.546,719.145Z" transform="translate(-846.4 -619.547)" fill="currentColor"/>
    <path d="M1004.661,719.148c8.445,0,16.89.1,25.336-.05,3.177-.063,4.23,1.03,4.2,4.2-.112,17.078-.137,34.158.026,51.237.025,3.6-1.406,4.379-4.669,4.366q-25.336-.189-50.672,0c-3.438.025-4.543-1.091-4.518-4.518.139-16.89.176-33.781-.011-50.672-.038-3.89,1.468-4.718,4.969-4.63C987.758,719.273,996.216,719.148,1004.661,719.148Z" transform="translate(-745.976 -619.536)" fill="currentColor"/>
    <path d="M1025.336,746.362c-15.775,0-31.535.025-47.31-.012-7.654-.013-12.373-3.9-12.385-10.027s4.656-10.077,12.4-10.089q47.039-.093,94.053-.012c3.828.012,7.6.627,10.214,3.765,2.585,3.1,3.389,6.663,1.518,10.49-2.045,4.179-5.534,5.885-10.064,5.885Q1049.554,746.344,1025.336,746.362Z" transform="translate(-846.473 -537.407)" fill="currentColor"/>
    <path d="M1005.878,746.487c-12.573,0-25.159.038-37.745-.011-7.128-.025-11.885-4.016-12.01-9.889-.112-5.6,4.141-9.763,11.256-10.19,6.175-.389,12.385-.126,18.585-.126q27.331,0,54.662.013a30.979,30.979,0,0,1,5.61.251c6,1.066,9.424,5.32,9.048,10.967-.339,4.881-4.781,8.873-10.528,8.935C1031.8,746.575,1018.841,746.476,1005.878,746.487Z" transform="translate(-956.12 -537.533)" fill="currentColor"/>
    <path d="M996.531,746.625c-3.2,0-6.4.15-9.588-.038-6.274-.351-9.826-3.628-10.151-9.136-.339-5.673,2.572-9.763,8.608-10.553a77.389,77.389,0,0,1,21.873.1c5.5.879,9.123,5.421,8.872,10-.315,5.421-4.581,9.348-10.6,9.6C1002.541,746.724,999.529,746.625,996.531,746.625Z" transform="translate(-718.157 -537.681)" fill="currentColor"/>
  </g>
</svg>
