<svg xmlns="http://www.w3.org/2000/svg" viewBox="0 0 659.22 649.53"><title>PSD </title><path fill="currentColor" d="M218,359.07v6.05q0,43.23,0,86.47c0,7,0,7-7.25,7H180.29c-6.58,0-6.6,0-6.6-6.72V205c0-5.49.22-11-.07-16.49-.23-4.11,1.63-5.8,5.39-6.08,2-.15,4-.31,6-.35,20.48-.36,41-1.14,61.44-.92,19.26.2,38.11,3.11,55.3,12.76,23.59,13.24,34.91,34.24,38.11,60.33,2,16.4.94,32.59-4.54,48.23-10.42,29.81-33,45.68-62.45,53.16-16.12,4.1-32.57,4.59-49.09,3.75Zm.84-39.5c13.07-.63,25.82-.17,38.19-2.11,18.23-2.85,31.65-12.7,36.45-31.6a66.7,66.7,0,0,0,.75-29.19c-3-15.77-12.21-26.24-27.22-31.61-15.67-5.6-31.83-3-48.17-3.28Z"/><path fill="currentColor" d="M364.93,407l6,3.48c16.91,9.75,35,14.13,54.55,12.41a20.58,20.58,0,0,0,2.49-.24c8-1.69,15.26-4.71,17.65-13.4,2.45-8.89-.91-16.47-8.24-21.37-9.91-6.62-20.63-12-30.7-18.42-8.52-5.42-17.15-10.9-24.79-17.45-26-22.28-24.66-75.42,17.29-93.86a86,86,0,0,1,45.35-6.5c10.34,1.22,20.58,3.29,30.84,5.16,4.86.89,6.66,4,6.5,9-.31,9.49-.08,19-.09,28.49,0,7.11-.79,7.48-7,4.37-16.63-8.4-34.12-11.92-52.58-8-7.13,1.53-12.48,5.87-14.16,13.23s1.18,13.71,7.31,17.82c8.54,5.71,17.61,10.61,26.32,16.08,10,6.25,20.43,11.95,29.57,19.28,30.64,24.57,26.24,84.54-20.21,100-27.12,9-54,6.85-80.48-3.42-4.19-1.63-6-4.13-5.82-9,.44-10.31.13-20.66.13-31Z"/></svg>