<svg xmlns="http://www.w3.org/2000/svg" viewBox="0 0 659.22 649.53">
    <path fill="currentColor"
          d="M555.25,181.82H514.7v-80a8.9,8.9,0,0,0-8.89-8.9H328a8.91,8.91,0,0,0-8.9,8.9v80H100.69A30.61,30.61,0,0,0,70.1,212.41V524.7a30.61,30.61,0,0,0,30.59,30.59H555.25a30.62,30.62,0,0,0,30.58-30.59V212.41A30.61,30.61,0,0,0,555.25,181.82ZM336.86,110.69H496.91V235.18h-160Zm231.19,414a12.81,12.81,0,0,1-12.8,12.8H100.69a12.83,12.83,0,0,1-12.81-12.8V212.41a12.82,12.82,0,0,1,12.81-12.8H319.07v44.46A8.9,8.9,0,0,0,328,253H505.81a8.9,8.9,0,0,0,8.89-8.89V199.61h40.55a12.82,12.82,0,0,1,12.8,12.8Z"/>
    <path fill="currentColor"
          d="M207.92,236.37a8.89,8.89,0,0,0-13.33,7.7V490.48a8.88,8.88,0,0,0,8.89,8.89,8.78,8.78,0,0,0,4.44-1.19L421.33,375a8.9,8.9,0,0,0,0-15.41Zm4.45,238.71V259.47L399.1,367.28Z"/>
    <path fill="currentColor"
          d="M406.52,125.5c-27,0-48.91,20.61-48.91,45.94s21.93,45.95,48.91,45.95,48.9-20.61,48.9-45.93S433.5,125.5,406.52,125.5Zm0,74.11c-17.16,0-31.12-12.63-31.12-28.15s14-28.16,31.12-28.16,31.12,12.63,31.12,28.16S423.68,199.61,406.52,199.61Z"/>
</svg>