<svg xmlns="http://www.w3.org/2000/svg" viewBox="0 0 659.22 649.53">
    <path fill="currentColor"
          d="M293.82,546C314.1,494.5,334.39,443,355.37,389.8c-20,0-38.75,1-57.35-.18-63.85-4.09-124-20.12-175.65-59.8-28.69-22-49.41-49.88-52.79-87.17-3.75-41.48,16.63-72.48,46.64-98.06,41.36-35.27,91.07-52.12,143.58-60.65,74-12,146.39-5.26,215.87,24.55,25.91,11.12,49.19,26.28,68.69,46.8,40.62,42.73,47.4,99,16.17,149.2a211.66,211.66,0,0,1-38.31,45.92c-73.77,65.58-148.49,130.1-222.9,195a18.72,18.72,0,0,1-2.9,1.74Zm77.44-107.51c3.1-1.93,4.43-2.53,5.49-3.45,43.28-37.75,87.19-74.82,129.42-113.72,13.25-12.2,24.06-28.25,32.31-44.41,17.26-33.79,10.62-68.93-15.07-97-22.14-24.19-50.09-39.15-80.49-49.46-79-26.79-158.31-26.22-237,.53-35.72,12.13-68.61,29.84-90.9,62.13-18.16,26.3-18.23,56.17-.2,82.7,20.31,29.88,50.06,47.2,82.8,59.75,48.4,18.54,98.58,25.17,150.36,22C380,355.62,394.66,377,383.39,407.3,379.75,417.07,375.83,426.74,371.26,438.45Z"/>
    <path fill="currentColor"
          d="M290.86,152.49l132.88,84.88c-4.55,3.74-7.4,6.6-10.73,8.74Q357.56,281.69,301.9,317c-3,1.91-6.9,2.46-10.38,3.65-.84-3.27-2.4-6.53-2.41-9.8q-.24-73-.05-146.09C289.07,161.44,290,158.14,290.86,152.49Z"/>
    <path fill="currentColor"
          d="M517.73,439.06c-33.72,0-66.57.71-99.36-.34-13.43-.43-19.92,3.87-25.17,16.29-17.58,41.61-33.72,84.1-66.31,117.48-44.24,45.31-95.69,73.35-162,70.55V546.21c57.07-1.07,92.69-31.61,115.11-81.5,30.23-67.26,59.36-135.12,92.37-201,26-51.86,64.35-94,121.09-113.83,21.2-7.39,44.33-9.43,66.69-13.22,9.15-1.56,13.57,2.49,13.3,13-.71,27.63-.24,55.28-.24,85.9-71.34-3.28-108.34,37.31-127.11,101.5h71.67Z"/>
</svg>