<svg xmlns="http://www.w3.org/2000/svg" viewBox="0 0 659.22 649.53">
    <path fill="currentColor"
          d="M145.35,478.39a15.56,15.56,0,0,1-21.66-3.73C91.81,429.5,74.26,371.16,74.26,310.38S91.81,191.26,123.69,146.1A15.54,15.54,0,1,1,149.07,164C120.87,204,105.32,256,105.32,310.39s15.53,106.42,43.75,146.37A15.49,15.49,0,0,1,145.35,478.39Z"/>
    <path fill="currentColor"
          d="M210.17,424.35a15.53,15.53,0,0,1-23.28,20.57,204.56,204.56,0,0,1,0-269.08,15.53,15.53,0,1,1,23.28,20.56,173.43,173.43,0,0,0,0,228Z"/>
    <path fill="currentColor"
          d="M478.09,450.16a15.53,15.53,0,0,1-11.64-25.81,173.43,173.43,0,0,0,0-227.95,15.53,15.53,0,1,1,23.28-20.56,204.53,204.53,0,0,1,0,269.08A15.42,15.42,0,0,1,478.09,450.16Z"/>
    <path fill="currentColor"
          d="M552.92,474.66a15.54,15.54,0,1,1-25.38-17.94c28.21-40,43.75-91.93,43.75-146.35S555.76,204,527.54,164a15.54,15.54,0,0,1,25.38-17.95c31.89,45.16,49.44,103.52,49.44,164.29S584.79,429.51,552.92,474.66Z"/>
    <path fill="currentColor"
          d="M392.87,297.07l-77.65-46.59a15.51,15.51,0,0,0-23.51,13.3V357a15.52,15.52,0,0,0,23.52,13.31l77.67-46.6a15.53,15.53,0,0,0,0-26.62Z"/>
    <path fill="currentColor"
          d="M338.32,186.12A124.26,124.26,0,1,0,462.57,310.38,124.41,124.41,0,0,0,338.32,186.12Zm0,217.45a93.19,93.19,0,1,1,93.19-93.19A93.3,93.3,0,0,1,338.32,403.57Z"/>
</svg>