<svg xmlns="http://www.w3.org/2000/svg" width="300" height="300" viewBox="0 0 300 300">
  <g>
    <path d="M1004.05,759.658c-31.384-.015-62.77-.152-94.153.077-5.347.03-7.028-1.383-7.013-6.979q.291-86.742,0-173.466c-.015-5.308,1.576-6.69,6.668-6.66,39.448.182,78.9.122,118.345.06,2.506-.015,5.284.973,7.417-1.338a94.913,94.913,0,0,0,35.154.017c2.147,2.31,4.926,1.306,7.418,1.322,39.224.062,78.446.152,117.654-.09,5.722-.032,7.374,1.443,7.343,7.343q-.313,86.377-.015,172.752c.015,5.519-1.532,7.086-6.953,7.041-31.384-.228-62.753-.107-94.122-.092h-71.959Zm48.909-82.2c15.242,0,30.484.091,45.725-.031,6.7-.06,11.322-4.166,11.744-10.842.39-5.96-3.049-9.716-8.426-11.844a20.349,20.349,0,0,0-7.687-1.1q-41.468.046-82.937.015a28.433,28.433,0,0,0-4.565.167c-6.578,1.079-12.043,6.857-11.742,12.211.4,6.72,5.841,11.388,13.484,11.419Q1030.764,677.5,1052.958,677.456ZM995.55,607.22c-14.612,0-29.222-.03-43.817.015-5.182.015-10.017.821-12.614,6.325-4.506,9.535,1.5,17.4,13.664,17.442q42.5.135,85.024,0c9.4-.017,14.6-4.562,14.477-12.256-.12-7.892-4.506-11.5-14.222-11.511C1023.886,607.19,1009.711,607.22,995.55,607.22Zm115.373,116.673c15.031,0,30.079-.456,45.079.214,6.938.3,12.269-5.961,12.448-11.678.181-5.976-5.556-11.132-12.1-11.145q-45.41-.047-90.82.013c-7.989.015-12.118,4.076-12.043,11.45.059,7.254,4.234,11.1,12.359,11.132C1080.875,723.94,1095.891,723.893,1110.923,723.893Z" transform="translate(-902.884 -527.095)" fill="currentColor"/>
    <path d="M974.376,614.182a97.285,97.285,0,0,1-35.6-.016c-8.165-8.332-16.437-16.559-24.481-25.028-3.041-3.209-5.549-6.918-4.059-11.846a11.724,11.724,0,0,1,9.746-8.727c4.958-.958,8.409,1.764,11.572,4.866,7.237,7.1,14.521,14.156,21.455,21.546,2.874,3.071,4.471,2.828,7.224-.077,7.284-7.663,14.7-15.221,22.428-22.428,7.5-7.01,16.879-4.805,20.072,4.3,1.794,5.078-.411,8.956-3.832,12.438Q986.633,601.714,974.376,614.182Z" transform="translate(-806.57 -568.336)" fill="currentColor"/>
    <path d="M914.455,583.733h25.469c9.837,16.682,19.63,33.377,29.53,50.011,2.918,4.912,4.1,9.915.532,14.826-5.6,7.694-14.385,7.041-20.042-1.779-6.781-10.568-13.046-21.456-19.494-32.221-4.424-7.36-8.758-14.78-13.183-22.139A17.824,17.824,0,0,1,914.455,583.733Z" transform="translate(-741.212 -353.907)" fill="currentColor"/>
    <path d="M939.563,583.749l26.109-.016c-1.658,8.5-7.391,14.887-11.572,22.064-7.771,13.334-15.739,26.534-23.8,39.7-4.911,8-10.842,10.249-16.772,6.782-6.706-3.939-7.952-10.462-3.011-18.947,8.562-14.659,17.427-29.134,26.108-43.7C937.754,587.748,938.59,585.71,939.563,583.749Z" transform="translate(-838.205 -353.907)" fill="currentColor"/>
  </g>
</svg>
