<svg xmlns="http://www.w3.org/2000/svg" viewBox="0 0 659.22 649.53"><defs><style>.cls-1{fill:#231f20;}</style></defs><title>PDF </title><path fill="currentColor" d="M239.06,108.05c20.27,0,40.57.73,60.79-.24,15.81-.76,23.84,4.41,23.67,21.13-.36,34.62-.21,69.24-.07,103.87.06,14.88-7.1,21.24-21.85,21.13-41.38-.29-82.76-.2-124.14-.05-15,.05-20.7-6.84-20.39-21.88q1.05-51.91,0-103.86c-.29-15.59,6.1-20.94,21.19-20.31C198.5,108.69,218.79,108.05,239.06,108.05Z"/><path fill="currentColor" d="M322.74,501.67c-50.66,0-101.32.2-152-.19-9.13-.07-23.42,3.86-22.43-12.12.81-13,13.54-10,22.27-10q152-.25,304,0c9.31,0,23.36-3.53,22.44,12.22-.76,13.19-13.7,9.88-22.28,9.93C424.07,501.83,373.4,501.67,322.74,501.67Z"/><path fill="currentColor" d="M322.69,293.72c51.45,0,102.89-.15,154.33.16,7.79,0,19.3-2.57,20.09,9.47.91,14.06-11.21,12.06-20.11,12.07q-154.32.18-308.66,0c-8.85,0-21,2.09-20.08-12.08.82-12.05,12.35-9.39,20.1-9.44C219.81,293.57,271.25,293.72,322.69,293.72Z"/><path fill="currentColor" d="M321.24,376.92c-50.74,0-101.49.15-152.23-.15-8.4-.06-21.18,3.84-20.68-11,.42-12.81,12.1-9.32,19.73-9.34q154.76-.33,309.53,0c7.68,0,19.43-3.19,19.5,9.59.08,14.46-12.6,10.74-21.08,10.78C424.42,377.06,372.83,376.92,321.24,376.92Z"/><path fill="currentColor" d="M321.33,438.4c-50.73,0-101.46.24-152.18-.25-7.91-.08-21.29,5-20.72-10.45.45-12.38,11.73-9.69,19.68-9.7q154.71-.19,309.43,0c8,0,19.34-2.32,19.54,9.93.24,15.13-13.05,10.17-21,10.24C424.47,438.63,372.9,438.4,321.33,438.4Z"/><path fill="currentColor" d="M428.82,231.12c14.28,0,28.58-.2,42.86.09,7.87.17,16.12,1.65,15.57,12-.45,8.41-7.64,10.44-14.7,10.48-31.1.19-62.19.15-93.29.09-7.48,0-14.34-3.19-14.41-10.94-.08-9.48,7.78-11.72,16.06-11.72Z"/><path fill="currentColor" d="M424.22,190.33c-15.21,0-30.43.1-45.64-.05-7.11-.07-14.23-1.14-13.57-10.68.48-7,5.34-10.16,12.16-10.16,33,0,65.93-.05,98.89.24,6.63.06,11.32,3.77,11.2,11-.13,8-6.16,9.35-12.33,9.43-16.9.2-33.81.07-50.71.07Z"/><path fill="currentColor" d="M424.55,128.35c-15.17,0-30.33.11-45.49,0-7.08,0-14.09-.87-13.85-10.41.2-7.51,5.47-9.78,12-9.79,32.85,0,65.7-.06,98.55.08,6.57,0,11.73,2.76,11.45,10.32s-5.69,9.68-12.15,9.73C458.24,128.39,441.39,128.31,424.55,128.35Z"/></svg>