<svg xmlns="http://www.w3.org/2000/svg" viewBox="0 0 659.22 649.53">
    <path fill="currentColor"
          d="M97,57.45a65.36,65.36,0,0,0-65.13,65.14v378.1A65.36,65.36,0,0,0,97,565.83H553.37a65.36,65.36,0,0,0,65.13-65.14V122.59a65.36,65.36,0,0,0-65.13-65.14Zm0,26.1H553.37a38.56,38.56,0,0,1,39,39v378.1a38.55,38.55,0,0,1-39,39H97a38.55,38.55,0,0,1-39-39V122.59A38.56,38.56,0,0,1,97,83.55Zm39.27,52.2a26.38,26.38,0,0,0-26.1,26.1V383.59a26.37,26.37,0,0,0,26.1,26.1H514.1a26.37,26.37,0,0,0,26.1-26.1V161.85a26.38,26.38,0,0,0-26.1-26.1Zm0,26.1H514.1V383.59H136.23Zm110.64,32.34v156.6c0,9,11.54,15.71,19.4,11.32L409.7,284c8.09-4.39,8.09-18.25,0-22.87L266.27,182.64C257.26,178.72,247.1,186.34,246.87,194.19ZM273,216.36l103,56.36-103,55.9ZM376,442c-6.24.46-11.78,6.46-11.78,12.93v6.47H121.91a13.82,13.82,0,0,0-12.47,13.86c.23,6.69,6.93,12.7,13.62,12.24H364.2v6.7c0,6.69,6.24,12.93,13.17,12.93h45.5c6.93,0,13.16-6.24,13.16-12.93v-6.7h91.24c6.93.23,13.16-6,13.16-12.94a13.62,13.62,0,0,0-13.16-13.16H436V455c0-6.7-6.23-12.93-13.16-12.93Z"/>
</svg>