<svg xmlns="http://www.w3.org/2000/svg" viewBox="0 0 659.22 649.53">
    <path fill="currentColor" d="M368.48,150.41H280.65a9.86,9.86,0,1,1,0-19.72h87.83a9.86,9.86,0,0,1,0,19.72Z"/>
    <path fill="currentColor" d="M368.48,199.7H280.65a9.86,9.86,0,1,1,0-19.72h87.83a9.86,9.86,0,0,1,0,19.72Z"/>
    <path fill="currentColor"
          d="M324.56,407a9.86,9.86,0,0,1-9.86-9.85h0V78.51a9.86,9.86,0,0,1,19.72,0V397.13A9.85,9.85,0,0,1,324.56,407Z"/>
    <path fill="currentColor" d="M368.48,249H280.65a9.86,9.86,0,1,1,0-19.72h87.83a9.86,9.86,0,0,1,0,19.72Z"/>
    <path fill="currentColor" d="M368.48,298.27H280.65a9.86,9.86,0,0,1,0-19.72h87.83a9.86,9.86,0,0,1,0,19.72Z"/>
    <path fill="currentColor" d="M368.48,347.55H280.65a9.86,9.86,0,1,1,0-19.71h87.83a9.86,9.86,0,1,1,0,19.71Z"/>
    <path fill="currentColor"
          d="M324.56,585.28a74.32,74.32,0,0,1-54.82-24.72c-12.06-13.6-17.58-30.47-15.52-47.49L267.7,396a9.85,9.85,0,0,1,9.79-8.73h94.15a9.85,9.85,0,0,1,9.79,8.73l13.49,117.12c2.05,17-3.47,33.84-15.55,47.44a74.3,74.3,0,0,1-54.81,24.72ZM286.28,407,273.8,515.37c-1.38,11.4,2.42,22.79,10.69,32.11a53.45,53.45,0,0,0,80.14,0c8.28-9.33,12.07-20.72,10.71-32.06L362.86,407Z"/>
    <path fill="currentColor"
          d="M324.56,547.88a40.61,40.61,0,0,1-30.27-14c-6.23-7.39-8.81-16.38-7.28-25.32l3.43-20.82a9.85,9.85,0,0,1,9.73-8.25h48.51a9.86,9.86,0,0,1,9.71,8.12l3.72,20.88a31.42,31.42,0,0,1-7.65,25.69,39.89,39.89,0,0,1-29.9,13.73Zm-16-48.7-2.08,12.62a11.49,11.49,0,0,0,2.91,9.34,19.84,19.84,0,0,0,30.14.17,12,12,0,0,0,3.17-9.63l-2.24-12.5Z"/>
</svg>