<svg xmlns="http://www.w3.org/2000/svg" viewBox="0 0 100 125">
	<path fill="currentColor" d="M68 5H27c-3 0-6 3-6 6v78c0 3 3 6 6 6h41c4 0 6-3 6-6V11c0-3-2-6-6-6zm4 84c0 2-2 4-4 4H27c-2 0-4-2-4-4V11c0-2 2-4 4-4h41c3 0 4 2 4 4v78z"/>
	<path fill="currentColor" d="M33 73a5 5 0 105 5c0-3-3-5-5-5zm0 8c-2 0-4-1-4-3s2-3 4-3 3 2 3 3c0 2-2 3-3 3zM55 65c-7 0-13 6-13 13 0 8 6 14 13 14a13 13 0 100-27zm0 24c-6 0-11-5-11-11s5-11 11-11a11 11 0 110 22z"/>
	<path fill="currentColor" d="M55 72l1-1v-2l-1-1-1 1v2l1 1zM61 78l1 1h3l1-1-1-1h-3l-1 1zM55 76l-2 2c0 2 1 3 2 3 2 0 3-1 3-3 0-1-1-2-3-2zm0 3v-1h1l-1 1zM65 11H31c-3 0-5 2-5 4v43c0 2 2 4 5 4h34c2 0 4-2 4-4V15c0-2-2-4-4-4zm2 47l-2 2H31c-2 0-3-1-3-2V15c0-1 1-2 3-2h34l2 2v43z"/>
</svg>