<svg xmlns="http://www.w3.org/2000/svg" viewBox="0 0 659.22 649.53">
    <title>RAR</title>
    <rect fill="currentColor" x="126.34" y="198.57" width="281.97" height="37.34"/>
    <polygon fill="currentColor"
             points="549.3 283.73 549.3 235.9 408.31 235.9 408.31 283.73 456.02 283.73 456.02 296.03 456.02 310.03 456.02 325.96 456.02 340.01 456.02 356.3 456.02 370.33 456.02 389.27 408.31 389.27 408.31 434.95 126.34 434.95 126.34 472.26 408.31 472.26 408.31 437.06 549.3 437.06 549.3 389.27 470.51 389.27 470.51 370.33 501.63 370.33 501.63 356.3 470.51 356.3 470.51 340.01 501.63 340.01 501.63 325.96 470.51 325.96 470.51 310.03 501.63 310.03 501.63 296.03 470.51 296.03 470.51 283.73 549.3 283.73"/>
    <rect fill="currentColor" x="162.62" y="255.11" width="209.44" height="162.79"/>
</svg>