<svg xmlns="http://www.w3.org/2000/svg" viewBox="0 0 659.22 649.53">
    <path fill="currentColor"
          d="M583.42,226a55.52,55.52,0,0,0-51.63-6.3l-72.17,28.5a55.52,55.52,0,0,0-55.52-48.48H388.37V169a55.52,55.52,0,0,0-55.52-55.52H171.12a18.51,18.51,0,1,0,0,37H332.48A18.51,18.51,0,0,1,351,169v30.72H108A55.51,55.51,0,0,0,52.5,255.27V430.33A55.51,55.51,0,0,0,108,485.84h163a18.51,18.51,0,0,0,0-37H108a18.5,18.5,0,0,1-18.5-18.5V255.64A18.5,18.5,0,0,1,108,237.13H404.1a18.51,18.51,0,0,1,18.51,18.51V430.7a18.51,18.51,0,0,1-18.51,18.5H381a18.51,18.51,0,1,0,0,37H404.1a55.51,55.51,0,0,0,55.52-47.93l71.43,29.61a54.28,54.28,0,0,0,21.47,4.45,57.55,57.55,0,0,0,31.08-9.63,55.51,55.51,0,0,0,24.06-46.08v-144A55.5,55.5,0,0,0,583.42,226Zm-12.77,190.6a18.5,18.5,0,0,1-26.09,17.58l-84.94-35.16V288l85.31-32.75a18.5,18.5,0,0,1,25.72,18.5Z"/>
</svg>