<svg xmlns="http://www.w3.org/2000/svg" viewBox="0 0 659.22 649.53">
<path fill="currentColor"
      d="M196.22,50.26A29.77,29.77,0,0,0,166.6,79.88V573.52a29.77,29.77,0,0,0,29.62,29.62H492.4A29.77,29.77,0,0,0,522,573.52V79.88A29.77,29.77,0,0,0,492.4,50.26Zm0,19.75H492.4a9.64,9.64,0,0,1,9.87,9.87v49.36H186.34V79.88A9.65,9.65,0,0,1,196.22,70Zm108.6,19.74a9.88,9.88,0,1,0-.28,19.75H383.8a9.88,9.88,0,0,0,.28-19.75H304.82ZM186.34,149H502.27V464.92H186.34V149Zm158,39.49A118.48,118.48,0,1,0,462.78,307,118.63,118.63,0,0,0,344.31,188.48Zm0,19.75A98.73,98.73,0,1,1,245.58,307a98.58,98.58,0,0,1,98.73-98.73Zm-30,39.49a9.86,9.86,0,0,0-9.46,9.87v98.73a9.88,9.88,0,0,0,15.1,8.37l79-49.37A9.88,9.88,0,0,0,402,301.71a10,10,0,0,0-3.13-3.12l-79-49.37A9.93,9.93,0,0,0,314.28,247.72Zm10.28,27.67L375.06,307l-50.5,31.56V275.39ZM186.34,484.67H502.27v88.85a9.64,9.64,0,0,1-9.87,9.87H196.22a9.65,9.65,0,0,1-9.88-9.87Zm158,9.87A39.49,39.49,0,1,0,383.8,534,39.64,39.64,0,0,0,344.31,494.54Zm0,19.74A19.75,19.75,0,1,1,324.56,534,19.6,19.6,0,0,1,344.31,514.28Z"/>
</svg>