<svg xmlns="http://www.w3.org/2000/svg" viewBox="0 0 659.22 649.53"><title>PDF </title><path fill="currentColor" d="M385.83,141.38c-6,23.33-14.51,50.77-19.53,78.84-2.05,11.43,2.33,24.59,6,36.25,2,6.38,9.21,10.94,13.21,16.89C413,314.2,446.61,340,500.41,337.2c23.43-1.23,49,10.26,71.21,20.91,30,14.39,40.64,44.16,30.84,72.21s-36.19,43.56-68.66,40.46C493.26,466.91,463,443.62,438,415c-17.63-20.2-36.8-22.62-59.86-18.73-11.51,1.94-22.9,5.11-34.48,6.12-44.64,3.86-75.48,24-94.3,66.77-11,24.94-29.67,47.3-48.13,67.92-27.35,30.57-62.83,33.82-88.61,11.69s-28.89-58.17-6-90.35c27-38,65.57-61.59,107.89-78.26,18.49-7.28,30-18.09,36.87-35.78,3.57-9.22,7.3-18.5,12.12-27.1,22.55-40.36,35.19-78.63,8.44-125.08-12.65-22-10.23-54.37-9.42-81.89,1-34.75,24.68-58.84,53.72-61.57,27.24-2.57,51.78,16.92,61.62,50.23C381.34,110.85,382.54,123.46,385.83,141.38ZM333.5,302c-7.08,16.71-12.41,29.31-19.58,46.24l51-8.52Z"/></svg>