<svg xmlns="http://www.w3.org/2000/svg" viewBox="0 0 659.22 649.53"><title>ext </title><path fill="currentColor" d="M458.4,386.39c.93-5.74,2.23-10.1,2.24-14.47.14-55.93.09-111.86.09-170h-226c0,10.68-.05,21.45,0,32.22q.6,117,1.21,233.93c.14,38.33-23.82,66.15-57.77,67.63-31.59,1.38-58-20.21-61.73-50.36-4.18-34.09,15.79-63.24,49.49-67.46,14.55-1.82,30,3.44,47.6,5.83V152.17H481.44c0,51.24,0,101.47,0,151.69,0,45.86,1.37,91.78-.74,137.55-1.66,36-34.88,60.78-68.38,54.78-34.3-6.15-55.88-39.76-47.68-74.25,7.45-31.31,40.78-51.23,72.11-42.88C443.69,380.92,450.4,383.65,458.4,386.39Z"/></svg>