<svg xmlns="http://www.w3.org/2000/svg" viewBox="0 0 659.22 649.53"><title>ext </title><path fill="currentColor" d="M180.09,574.25a4.65,4.65,0,0,0,8.86,0l3.31-10.46a4.57,4.57,0,0,0,3.61,1.84H213.7a4.65,4.65,0,0,0,0-9.29H195.87a4.27,4.27,0,0,0-1.33.28l129.75-409.7a4.64,4.64,0,0,0-4.43-6H49.16a4.64,4.64,0,0,0-4.42,6ZM313.52,150.16l-129,407.3-129-407.3Z"/><path fill="currentColor" d="M241.13,234.78a56.62,56.62,0,1,0-56.62,56.61A56.69,56.69,0,0,0,241.13,234.78Zm-56.62,47.31a47.33,47.33,0,1,1,47.33-47.31A47.38,47.38,0,0,1,184.51,282.09Z"/><path fill="currentColor" d="M267.44,541a4.65,4.65,0,0,0-4.65-4.64H215a4.65,4.65,0,1,0,0,9.29h47.83A4.65,4.65,0,0,0,267.44,541Z"/><path fill="currentColor" d="M365.63,501.14A4.65,4.65,0,0,0,361,496.5H253.15a4.64,4.64,0,1,0,0,9.28H361A4.64,4.64,0,0,0,365.63,501.14Z"/><path fill="currentColor" d="M316.54,521.08a4.65,4.65,0,0,0-4.65-4.64H234.05a4.65,4.65,0,0,0,0,9.29h77.84A4.65,4.65,0,0,0,316.54,521.08Z"/><path fill="currentColor" d="M414.73,481.19a4.65,4.65,0,0,0-4.65-4.65H272.24a4.65,4.65,0,1,0,0,9.29H410.08A4.65,4.65,0,0,0,414.73,481.19Z"/><path fill="currentColor" d="M606.47,396.74H348.61a4.65,4.65,0,0,0,0,9.29H606.47a4.65,4.65,0,1,0,0-9.29Z"/><path fill="currentColor" d="M329.52,426H557.37a4.65,4.65,0,1,0,0-9.29H329.52a4.65,4.65,0,0,0,0,9.29Z"/><path fill="currentColor" d="M512.93,441.28a4.65,4.65,0,0,0-4.65-4.64H310.42a4.65,4.65,0,0,0,0,9.29H508.28A4.65,4.65,0,0,0,512.93,441.28Z"/><path fill="currentColor" d="M463.83,461.24a4.65,4.65,0,0,0-4.65-4.65H291.33a4.65,4.65,0,0,0,0,9.29H459.18A4.64,4.64,0,0,0,463.83,461.24Z"/></svg>