<svg xmlns="http://www.w3.org/2000/svg" viewBox="0 0 659.22 649.53"><path fill="currentColor" d="M560,483.75a19.91,19.91,0,0,0-2,3.41c-6.7,18.82-20.07,28.94-39.91,29q-153.42.21-306.84,0c-25.38,0-41.47-16.77-41.63-42.21-.08-12,0-24,0-36h31.84c0,10.42.43,21.55-.13,32.64-.51,10.14,3.76,14.11,13.67,14.1q149.7-.18,299.39,0c9.83,0,13.8-4.3,13.77-14.29-.23-74.94-.11-149.87-.14-224.81,0-12.44-2.89-15.17-16-15.18q-87.36-.06-174.73,0H323.82v-32h11.69c57.17,0,114.36.58,171.53-.25,26.05-.38,44.57,8.23,53,34Z"/><path fill="currentColor" d="M80.26,142.6c5.41-6.73,12.12-9.17,21-9.11,56.09.38,112.19.17,168.29.21,16.29,0,19.93,3.72,20,20.1,0,23.43.13,46.86-.14,70.29,0,3.08-2.12,6.13-3.26,9.19-2.61-2.36-6.23-4.22-7.64-7.16-5.35-11.14-10.33-22.49-14.72-34-2.14-5.6-5.15-7.36-11-7.14-12,.44-24.1.13-37.74.13v13q0,87.87,0,175.74c0,12.47-4.72,22.23-15.64,28.12-10.37,5.59-21.15,5.32-31.37-.91-10-6.12-14-15.61-14.17-26.93-.16-14.2-.1-28.41-.1-42.61,0-48.27,0-96.54,0-146.31-13.79,0-27.14-.27-40.46.27-2.13.09-4.88,3.5-6,6-5.33,11.55-10.42,23.23-15.14,35-2.39,6-5.71,8.48-11.94,5.74Z"/></svg>