<svg xmlns="http://www.w3.org/2000/svg" viewBox="0 0 659.22 649.53"><path fill="currentColor" d="M561.32,359.61,531.17,167.3a2.85,2.85,0,0,0-2.82-2.43H132.05a2.87,2.87,0,0,0-2.84,2.43L99,359.86a3.2,3.2,0,0,0-.36,1.4v122a2.87,2.87,0,0,0,2.88,2.87H559.14a2.87,2.87,0,0,0,2.87-2.87v-122A2.6,2.6,0,0,0,561.32,359.61ZM336.41,204.83c68.15,0,123.39,28.51,123.39,63.68s-55.24,63.67-123.39,63.67S213,303.67,213,268.51,268.24,204.83,336.41,204.83ZM541,465.17H119.66V379.4H541Z"/><path fill="currentColor" d="M484,438.49h36.24a2.86,2.86,0,0,0,2.87-2.87V399.39a2.86,2.86,0,0,0-2.87-2.87H484a2.86,2.86,0,0,0-2.86,2.87v36.23A2.85,2.85,0,0,0,484,438.49Z"/><path fill="currentColor" d="M156.08,438.49h36.23a2.86,2.86,0,0,0,2.87-2.87V399.39a2.86,2.86,0,0,0-2.87-2.87H156.08a2.88,2.88,0,0,0-2.88,2.87v36.23A2.87,2.87,0,0,0,156.08,438.49Z"/><path fill="currentColor" d="M215.86,438.49h36.2a2.86,2.86,0,0,0,2.86-2.87V399.39a2.86,2.86,0,0,0-2.86-2.87h-36.2a2.86,2.86,0,0,0-2.86,2.87v36.23A2.86,2.86,0,0,0,215.86,438.49Z"/><path fill="currentColor" d="M279.39,438.49h36.25a2.86,2.86,0,0,0,2.86-2.87V399.39a2.86,2.86,0,0,0-2.86-2.87H279.39a2.86,2.86,0,0,0-2.86,2.87v36.23A2.86,2.86,0,0,0,279.39,438.49Z"/><path fill="currentColor" d="M335.94,215.36c55.49,0,100.49,23.11,100.49,51.63s-45,51.63-100.49,51.63S235.44,295.5,235.44,267,280.43,215.36,335.94,215.36Z"/></svg>