<svg xmlns="http://www.w3.org/2000/svg" width="302" height="276" viewBox="0 0 302 276">
  <g>
    <path d="M1013.163,761.245c-.144-18.992-.334-37.984-.434-56.976-.059-13.575-.117-27.151.015-40.728.159-15.55,9.695-24.146,27.272-24.161q123.491-.13,247,0c16.636.014,26.9,8.072,27.114,22.418.495,32.35.159,64.714.131,97.093a9.582,9.582,0,0,1-.654,2.425c-2.828-.1-5.661-.262-8.489-.262q-139.234-.023-278.465-.015C1022.149,761.041,1017.663,761.172,1013.163,761.245Z" transform="translate(-1012.664 -639.316)" fill="currentColor"/>
    <path d="M1012.928,649.088c4.5-.088,8.985-.233,13.484-.233q139.231-.022,278.464,0c2.829.015,5.663.2,8.491.305l.465,2.584c0,2.541,0,5.082.016,7.638,1.247,11.963,1.3,23.478-8.405,32.771-5.166,4.952-11.017,6.911-17.939,6.9-28.87-.059-57.74-.014-86.611-.014q-37.751.021-75.5.014c-28.361-.014-56.753-.683-85.086.246-15.168.479-29.2-12.689-27.477-27.354.451-3.732.073-7.551.073-11.34l.029-10.148A10.606,10.606,0,0,0,1012.928,649.088Z" transform="translate(-1012.428 -511.014)" fill="currentColor"/>
    <path d="M1020.459,652.969h75.53q0,21.627.017,43.269h-75.561Z" transform="translate(-907.513 -455.58)" fill="currentColor"/>
    <path d="M1066.9,656.63h75.515c10.913,0,21.825.014,32.738-.014,2.859,0,5.674.043,8.387,1.176,5.166,2.134,8.693,5.241,8.75,11.5.073,6.257-3.278,9.5-8.46,11.731-3.161,1.351-6.472,1.249-9.793,1.249H1035.263c-3.322,0-6.632.1-9.795-1.249-5.181-2.222-8.533-5.488-8.46-11.731.073-6.259,3.584-9.366,8.765-11.5a21.4,21.4,0,0,1,8.387-1.176C1045.071,656.644,1055.985,656.63,1066.9,656.63Z" transform="translate(-953.942 -406.274)" fill="currentColor"/>
  </g>
</svg>
