<svg xmlns="http://www.w3.org/2000/svg" viewBox="0 0 659.22 649.53">
    <path fill="currentColor"
          d="M71.64,310.11c0,127.27,103.55,230.82,230.82,230.82H490V512.08H414C485,472.68,533.28,397,533.28,310.11c0-127.26-103.55-230.81-230.82-230.81S71.64,182.85,71.64,310.11Zm230.82-202c111.37,0,202,90.59,202,202s-90.59,202-202,202-202-90.6-202-202S191.09,108.15,302.46,108.15Z"/>
    <path fill="currentColor"
          d="M302.46,252.41a57.71,57.71,0,1,0-57.71-57.7A57.76,57.76,0,0,0,302.46,252.41Zm0-86.56a28.86,28.86,0,1,1-28.85,28.86A28.88,28.88,0,0,1,302.46,165.85Z"/>
    <path fill="currentColor"
          d="M141.27,300.65a57.7,57.7,0,1,0-3.46-44A57.4,57.4,0,0,0,141.27,300.65Zm24-35.11A28.84,28.84,0,0,1,201.59,247h0a28.86,28.86,0,1,1-36.35,18.53Z"/>
    <path fill="currentColor"
          d="M268.54,356.8a57.69,57.69,0,1,0,12.75,80.6A57.78,57.78,0,0,0,268.54,356.8ZM258,420.43a28.86,28.86,0,0,1-46.7-33.91h0A28.85,28.85,0,1,1,258,420.43Z"/>
    <path fill="currentColor"
          d="M336.37,356.8A57.7,57.7,0,1,0,417,369.55,57.78,57.78,0,0,0,336.37,356.8ZM398.8,408a28.87,28.87,0,1,1-5.17-21.47A28.72,28.72,0,0,1,398.8,408Z"/>
    <path fill="currentColor"
          d="M357.33,292.3a57.71,57.71,0,1,0,37.07-72.71,57.7,57.7,0,0,0-37.07,72.71Zm29.17-30.95a28.86,28.86,0,1,1,34.63,40.54h0a28.84,28.84,0,0,1-34.61-40.54Z"/>
    <circle fill="currentColor" cx="302.46" cy="310.11" r="14.43"/>
</svg>