<svg xmlns="http://www.w3.org/2000/svg" viewBox="0 0 659.22 649.53">
    <path fill="currentColor"
          d="M333.52,68.11c.5.57,1,1.16,1.52,1.7L581.59,316.36c.67.66,1.38,1.27,2.08,1.9v5.14c-.32,3.83-.73,7.65-.95,11.49a249.13,249.13,0,0,1-17.06,77.86c-14.17,36-36,66.54-64.3,92.76-20.08,18.64-42.31,34-67.32,45.21a249,249,0,0,1-63.42,19.11c-16,2.5-32.1,2.71-48.23,2.52-29.38-.34-57.56-6.66-84.71-17.57C200.88,540,169.43,517.48,143,487.9A252.85,252.85,0,0,1,87.24,385.3c-7.37-26.75-9.22-54-7.61-81.5,3.08-52.79,22-99.63,55-140.63C171,118,217.71,88.48,274.22,74.94a226.09,226.09,0,0,1,51.64-6.45,25.69,25.69,0,0,0,3-.38ZM325,81.64c-63.91-1.12-158.77,33.9-207.47,129.3C69.27,305.42,88.65,421.12,165,494.15c78.2,74.78,196.88,86.26,286.82,33.66,44.26-25.88,77.3-62,98-109,12.63-28.61,20-58.57,20.69-90.26h-3.9q-106,0-212-.1c-8.31,0-16.61-.54-24.93-.73-3-.07-3.77-1.83-3.86-4.33-.18-5.06-.5-10.11-.51-15.17Q325.1,196.7,325,85.15C325,84,325,82.8,325,81.64ZM337.53,316.2c74.7-.11,149,.55,223.24-.12l.41-1L338.42,92.36l-.89.51Z"/>
</svg>