<svg xmlns="http://www.w3.org/2000/svg" viewBox="0 0 659.22 649.53"><path fill="currentColor" d="M401.1,96.76l-64.78,8.07c-.43,0,.37.12-.05.2-23.74,4.3-41.11,26.56-41.11,50.7V405.07c-11.64-.12-58.63,0-78.7,7.42C168.17,430.43,143.12,477.5,159,522c6.72,18.82,19.15,33.06,36.55,41.18a79.15,79.15,0,0,0,33.86,7.23c12.68,0,26.11-2.6,40.1-7.79,42.79-15.9,60.14-55.81,60.82-57.5,5.93-14.85,11.42-38.12,11.42-54.11V155.72c0-1.61.92-4.27,2.56-4.81L407.49,143a23.07,23.07,0,0,0,19.92-26A23.62,23.62,0,0,0,401.1,96.76Zm-115,390.87c-.09.23-9.81,22.74-32.85,31.3-15.29,5.68-28.88,6.39-38.3,2-6-2.8-10.15-7.58-12.66-14.61-6-16.74.62-39.56,29.19-50.19,7.65-2.83,34.85-4.55,56.14-4.55h3.49c.66,0,1.33.06,2,.07C292.91,461.79,289.59,478.76,286.05,487.63Z"/></svg>