<svg xmlns="http://www.w3.org/2000/svg" viewBox="0 0 659.22 649.53">
    <path fill="currentColor"
          d="M423.52,253.1c-14.76.24-23.24-4.2-30.6-17.25-24.83-44-51-87.29-78.86-134.49-24.89,42.24-48.89,80-69.74,119.44-12.94,24.48-26.72,35.54-57.28,33.14-52.75-4.13-99.86,31.88-117.13,81.21C51.7,387.18,68,443.8,111,477.45c40.35,31.63,100.46,35.36,143.51,7.66,38.23-24.58,59.13-59.61,59.18-105.9,0-8.27,0-16.55,0-26.93L341,355.17V502.4H590.52V252.76C532.29,252.76,477.9,252.24,423.52,253.1ZM234,288.16,271,319.24l-2.55,5.94h-55Zm-55,189c-57.18-4.27-97.25-55.9-89.12-114.86,7.58-54.91,60.39-92.23,116.91-80-12.93,22.64-25.49,44.63-40.24,70.48,35.31,0,66.23,1.08,97-.39,20.25-1,25,7.64,24.91,25.93C288.3,436.78,239.24,481.62,179,477.13ZM340.21,253.54v70.35c-23.42,6.91-38.54,3.38-49.59-17.83-8.68-16.66-22.39-30.7-37.25-50.4l60.68-103.27,58.41,99.4Zm26.3,25.62c34.67-4.79,32.49,27.22,50.84,46.29H366.51Zm196.2,197h-196V353.77H462l-41.78-73.34H562.71Z"/>
    <circle stroke="currentColor" cx="440.21" cy="445.55" r="5.87"/>
    <circle stroke="currentColor" cx="459.38" cy="445.55" r="5.87"/>
    <circle stroke="currentColor" cx="480.82" cy="445.55" r="5.87"/>
</svg>