<svg xmlns="http://www.w3.org/2000/svg" viewBox="0 0 659.22 649.53"><path fill="currentColor" d="M583.62,329.47c-.09,7.6-2.83,10.74-9.41,10.79q-43.83.33-87.65.42c-7.25,0-10.57-3.05-11-10.47-.72-13.29-1.19-26.6-1.48-39.91-.15-6.73,3.08-9.94,9.76-10q43.53-.45,87.06-.68c7.34,0,10.08,2.61,11,10.58-5.92,0-11.76-.05-17.6,0-15.28.13-17.38,2.3-17.23,17.77,0,3.18,0,6.37.28,9.53.62,7.92,4.79,11.87,12.66,12S575.47,329.47,583.62,329.47Zm-67.38-4.14V295.14h-25.1v30.19Z"/><path fill="currentColor" d="M91.67,313.19c.22,4.56.56,9.12.64,13.69.09,5.3-2.89,8.21-8,8.49a168.81,168.81,0,0,1-17.28,0c-5.05-.24-8.05-3.12-8.28-8.33-.42-9.12-.83-18.26-1-27.39-.14-6.36,2.45-9.14,8.8-9.48,5.15-.28,10.33-.33,15.49-.16,5.87.2,8.94,3.45,9.14,9.47.15,4.57,0,9.14,0,13.71Z"/><path fill="currentColor" d="M574.53,295.85c4.76,0,9.52.12,14.27,0s7.5,2,7.76,6.87.42,9.51.59,14.26c.16,4.4-1.89,6.64-6.38,6.63q-15.16,0-30.34.1c-4.66.05-7-2.31-7.26-6.77-.26-4.75-.2-9.52-.42-14.27-.21-4.5,1.88-6.65,6.32-6.65h15.46Z"/><path fill="currentColor" d="M425.51,303.7c-2.8,5.19,4.4,13.79-6.24,14.43-3.48.21-8.44-.72-10.29-3.05s-.85-7.17-1.11-11.32c-4.08-.49-8.4-.27-8.76-6.27-.5-8.09.22-9.31,8.52-9.42,5.94-.09,11.89,0,17.83-.1,3.93,0,7.19.5,7.13,5.63,0,4.7,1.31,10.13-6.39,9.78A1.14,1.14,0,0,0,425.51,303.7Z"/><path fill="currentColor" d="M150.35,319.23c7.81,1.16,10.58,4.88,8.53,11.88-.5,1.71-3.57,3.59-5.58,3.75-6.9.53-13.86.31-20.79.42-4.07.07-7.15-1-6.94-5.89.19-4.29-1.65-9.83,5.92-9.61a5.45,5.45,0,0,0,1.64-.48c2.23-5-5.18-15.08,7.54-14.45,3.33.17,7.74-1.46,8.88,3.49C150.34,311.75,150.11,315.4,150.35,319.23Z"/><path fill="currentColor" d="M225.79,304.57c-3.39,5.24,4.35,15.09-7.91,15.08-8.58,0-8.58.15-10.48-14.89-3.52-.51-7.9.24-8.11-5.81-.32-8.92-.1-9.52,8.82-9.58,5.56,0,11.13-.18,16.69-.18,6.82,0,7.36.91,8,8.7C233.25,303.62,230,304.67,225.79,304.57Z"/><path fill="currentColor" d="M350.92,318.14c7.24,1,10,5,7.53,12.17-.59,1.68-3.77,3.31-5.86,3.47-6.33.47-12.71.25-19.08.22-7.05,0-7.53-.85-8.26-8.45-.57-5.88,2.49-7.36,7.16-7.12.79-4.77.88-9.6,2.66-13.68.61-1.39,5.51-1.31,8.42-1.2C354.23,304,348.11,312.92,350.92,318.14Z"/><path fill="currentColor" d="M282,318.64c4.12-4.63-4.49-14.44,7.53-14.61,9.07-.13,9.07-.2,11.12,14.4,3.87.57,8.17.41,8.14,6.64,0,8.47-.24,9.11-8.8,9.15-5.75,0-11.5-.14-17.24.08-4.52.17-7.2-1.08-7.2-6.21,0-4.4-1.23-9.2,5.69-9.2C281.76,318.89,282.29,318.53,282,318.64Z"/><path fill="currentColor" d="M257,304.7c-6.84-1-10.15-6.32-7.32-12.92.61-1.43,3.3-2.68,5.11-2.78,6.53-.36,13.08-.14,19.63-.25,4.28-.08,7.86.12,8.1,6,.35,8.28.27,8.75-6.8,9.86-.79,4.6-.92,9.41-2.7,13.5-.59,1.33-5.5,1.07-8.42,1C253.65,318.92,260.32,309.63,257,304.7Z"/><path fill="currentColor" d="M126.05,305.22c-4.18,4.87,4.48,14.21-7,14.8-9.67.5-9.68.36-11.47-13.83-8.47-2.81-8.72-3.34-8.36-11.25.18-4,2.26-5.07,5.75-5.05,7.15,0,14.3.17,21.44-.09,5.31-.19,6.3,2.84,6.43,7.13.13,3.9.77,7.91-5,8A7.91,7.91,0,0,0,126.05,305.22Z"/><path fill="currentColor" d="M451.16,317.62c7.13,1.15,9.82,5.44,7.38,12.49a5.25,5.25,0,0,1-3.79,2.85q-12.21.44-24.44.16c-5.74-.13-4.55-4.85-5.08-8.41-.85-5.79,2.87-6.62,7.22-6.67.83-4.85.94-9.86,2.83-14.05.63-1.4,5.92-1.2,9-.88C454.17,304.15,447.76,312.84,451.16,317.62Z"/><path fill="currentColor" d="M182.57,319.13c3.07-5-4.3-13.66,6.13-14.53,3.51-.3,8.69.57,10.45,2.91,2,2.66,1,7.55,1.33,11.65,4,.68,8.3.2,8.6,6.11.42,8.14-.28,9.27-8.57,9.33-5.37,0-10.73.16-16.1,0-3.73-.08-8.32,1.31-8.78-5C175,321.38,175.43,320.56,182.57,319.13Z"/><path fill="currentColor" d="M325.91,304.18c-3.61,4.77,4.4,14-6.8,14.64-9.19.56-9.19.44-11.62-14.34-3.3-1.15-7.94-.1-8.18-6.24-.34-8.82-.19-9.46,8.74-9.53,5.35,0,10.7-.1,16.05,0,3.87,0,8.16-.88,8.45,5.39C332.92,302.2,332.79,302.76,325.91,304.18Z"/><path fill="currentColor" d="M156.87,304.93c-3.87,0-7.65-.53-7.56-6.63.12-8.26.08-8.61,8.6-8.63,5.36,0,10.74.07,16.1-.13,4.78-.17,8.67.07,8.87,6.51.22,7.2,0,7.87-7.61,9.11-2.11,5.41,4.39,15.65-9.25,15C154,319.63,160.3,310.18,156.87,304.93Z"/><path fill="currentColor" d="M401.15,318c7,1,9.8,5.34,7.39,12.28a5.24,5.24,0,0,1-3.82,2.82c-8.14.31-16.3.42-24.45.22-6.26-.16-4.56-5.34-5-9-.62-5.51,3.15-6.08,7.09-6,.85-4.83,1.05-9.78,2.86-14.05.57-1.33,5.51-1.23,8.4-1.05C404.2,303.89,397.91,312.93,401.15,318Z"/><path fill="currentColor" d="M357.67,303.88c-4.55-.29-8.49-.59-8.56-6.68-.09-7.57.39-8.52,8.12-8.64,6.15-.09,12.31,0,18.47-.2,4.15-.11,7,.82,6.86,5.84-.12,4.48,1.46,9.77-6.08,9.35a.89.89,0,0,0-.61.31c-.9,4.79-1.18,9.54-2.94,13.65-.55,1.28-5.09,1.12-7.8,1.15C359.44,318.74,359.44,318.62,357.67,303.88Z"/><path fill="currentColor" d="M251,319c3.62.44,7.55.32,7.72,6.25.24,8.47.11,9.06-8.61,9.12-5.95,0-11.91-.06-17.86.14-4.28.15-7-1-6.75-5.89.17-4.16-1.62-9.37,5.6-9.24a3.54,3.54,0,0,0,1.37-.51c.63-4.6.55-9.26,2.18-13.22.57-1.36,5.36-1.3,8.24-1.34C254.41,304.09,247.76,313.69,251,319Z"/></svg>