<svg xmlns="http://www.w3.org/2000/svg" viewBox="0 0 659.22 649.53"><title>BZ2 </title><path fill="currentColor" d="M171.28,500.85V466.54c-7.72-.67-15.77.54-21.9-2.35-9.53-4.47-17.76-11.73-26.53-17.81,8.54-5.36,16.59-11.92,25.79-15.67,6.35-2.58,14.28-1.26,27.73-2l-19.61-14.27c4.31-8.36,39.27-19.3-2.45-27.32,10.27-10.91,33.29-20.16,3.32-29.83,17.75-20.44,17.75-20.44-2-33.19,18.53-9.06,27.13-19.38-2.32-29.23,24-9.95,23.84-19.42,2.11-29.43,12.21-9,30-18.52,2-28,18.72-19.82,18.72-19.82-.13-31.9,8.66-9.1,30.85-18.49.88-27.07,5.42-8.9,10.73-17.62,19-31.17-14.56,0-22.72,2-29.15-.51-7.56-2.92-13.63-9.72-20.34-14.84,6-6,11.09-14.53,18.38-17.42,14-5.58,29.32-11,44.05-10.84,15.67.12,31.24,9.66,46.94,10,66,1.22,132.06.52,198.09.52h32.14v33h-248q-.76,2.64-1.55,5.26l15.14,10.23c-13.28,8.95-27.55,19.42,1.68,29.76-15.09,8.94-28.86,18.39,0,29-13.74,9.93-32.54,20.64-.35,29.66-10.33,10.73-33.4,20.08.24,30-13.42,10.09-31.86,20.53,1.72,30.29-18.91,9.7-29.26,19.28-1.44,29.67-15.79,10.09-31.53,20.65,0,29.76-14,10.72-31.53,20.13-4.4,28.71-5,8.67-10.09,17.47-17.94,31.09H467v33.56H218.91c-.73,10.13-1.29,18.05-2.22,31.12,9.5-2.76,16.51-4.05,22.85-6.85,6-2.67,11.39-6.92,17-10.47,3.47,7,8.77,13.78,10,21.18,1.61,10.08,2.69,21.79-1.1,30.6-2.2,5.12-17.47,10.64-21.56,8-23.71-15.63-75.46-16.47-98,.72-1.49,1.13-3.34,3.45-4.46,3.15-5.75-1.59-16.15-3.78-16.18-5.89-.27-18.23,1.35-36.48,2.41-54.73,6.57.73,13.79,0,19.55,2.57C154.12,486.5,159.85,492.36,171.28,500.85Z"/><path fill="currentColor" d="M276.72,413.53V163.25H514.57V413.53ZM501.13,401.8V176H291.31V401.8Z"/><path fill="currentColor" d="M321.91,280.54v-73H469.29v73ZM335,265.75c4.35,1.3,7,2.76,9.69,2.79q38.16.46,76.34.5c42.33,0,45.8-5.05,32.9-48.59H335Z"/><path fill="currentColor" d="M321.61,369.48V297H469.87v72.51Zm135.05-12.76v-48H335.44v48Z"/></svg>