<svg xmlns="http://www.w3.org/2000/svg" viewBox="0 0 659.22 649.53"><title>ODT </title><path fill="currentColor" d="M227.83,260A13.09,13.09,0,0,0,240.92,273h288a13.09,13.09,0,1,0,0-26.18h-288A13.09,13.09,0,0,0,227.83,260Z"/><path fill="currentColor" d="M136.21,325.4h235.6a13.09,13.09,0,0,0,0-26.18H136.21a13.09,13.09,0,0,0,0,26.18Z"/><path fill="currentColor" d="M528.88,351.58H319.45a13.09,13.09,0,0,0,0,26.18H528.88a13.09,13.09,0,1,0,0-26.18Z"/><path fill="currentColor" d="M136.21,430.11h301a13.09,13.09,0,1,0,0-26.18h-301a13.09,13.09,0,0,0,0,26.18Z"/><path fill="currentColor" d="M136.21,273h52.35a13.09,13.09,0,0,0,0-26.18H136.21a13.09,13.09,0,0,0,0,26.18Z"/><path fill="currentColor" d="M528.88,299.22H424.17a13.09,13.09,0,0,0,0,26.18H528.88a13.09,13.09,0,1,0,0-26.18Z"/><path fill="currentColor" d="M136.21,377.76H267.1a13.09,13.09,0,0,0,0-26.18H136.21a13.09,13.09,0,0,0,0,26.18Z"/><path fill="currentColor" d="M528.88,403.93H489.61a13.09,13.09,0,0,0,0,26.18h39.27a13.09,13.09,0,1,0,0-26.18Z"/><path fill="currentColor" d="M136.21,482.47h78.53a13.09,13.09,0,1,0,0-26.18H136.21a13.09,13.09,0,1,0,0,26.18Z"/><path fill="currentColor" d="M136.21,220.68H267.1a13.09,13.09,0,1,0,0-26.17H136.21a13.09,13.09,0,1,0,0,26.17Z"/><path fill="currentColor" d="M398,456.29H267.1a13.09,13.09,0,0,0,0,26.18H398a13.09,13.09,0,0,0,0-26.18Z"/><path fill="currentColor" d="M528.88,456.29H450.35a13.09,13.09,0,0,0,0,26.18h78.53a13.09,13.09,0,1,0,0-26.18Z"/></svg>