<svg xmlns="http://www.w3.org/2000/svg" viewBox="0 0 659.22 649.53"><title>RTF </title><path fill="currentColor" d="M544.17,601.19H229.8a67.37,67.37,0,0,1-67.37-67.37V219.46a67.37,67.37,0,0,1,67.37-67.37H544.17a67.36,67.36,0,0,1,67.36,67.37V533.82A67.36,67.36,0,0,1,544.17,601.19ZM229.8,197a22.46,22.46,0,0,0-22.46,22.46V533.82a22.46,22.46,0,0,0,22.46,22.46H544.17a22.45,22.45,0,0,0,22.45-22.46V219.46A22.45,22.45,0,0,0,544.17,197Z"/><path fill="currentColor" d="M184.89,511.37H140A67.37,67.37,0,0,1,72.61,444V129.64A67.37,67.37,0,0,1,140,62.27H454.35a67.36,67.36,0,0,1,67.36,67.37v44.91a22.46,22.46,0,0,1-44.91,0V129.64a22.45,22.45,0,0,0-22.45-22.46H140a22.46,22.46,0,0,0-22.46,22.46V444A22.46,22.46,0,0,0,140,466.46h44.91a22.46,22.46,0,0,1,0,44.91Z"/><path fill="currentColor" d="M476.8,331.73a22.45,22.45,0,0,1-22.45-22.45V286.82H319.62v22.46a22.46,22.46,0,0,1-44.91,0V264.37a22.45,22.45,0,0,1,22.45-22.46H476.8a22.46,22.46,0,0,1,22.46,22.46v44.91A22.46,22.46,0,0,1,476.8,331.73Z"/><path fill="currentColor" d="M387,511.37a22.45,22.45,0,0,1-22.45-22.46V264.37a22.46,22.46,0,1,1,44.91,0V488.91A22.46,22.46,0,0,1,387,511.37Z"/><path fill="currentColor" d="M431.89,511.37H342.07a22.46,22.46,0,0,1,0-44.91h89.82a22.46,22.46,0,1,1,0,44.91Z"/></svg>