<svg version="1.1" viewBox="0 0 659.22 649.53" xmlns="http://www.w3.org/2000/svg">
 <path fill="currentColor" d="M353.9,182.72V135h-301v47.75h.41V436.26h.44q0,24.9.07,49.8v11.56H353.4V199.74l-.19,0v-17Zm-128.6,0h60.05c.21.19.41.38.6.58.08-.2.16-.39.23-.58h23.31v21.44a17.65,17.65,0,0,0-.2,3.37c.07,3,.15,6,.2,9v16.81c-.06,2.61-.16,5.21-.32,7.82s-4.17,6.83-6.48,6.88c-23.76.48-47.53.4-71.29,0-2.06,0-5.79-3.56-5.83-5.52C225.18,222.92,225.28,203.31,225.3,182.72ZM186.41,450.6c-27.57,0-53.53.15-79.49-.29-2.14,0-6-4-6-6.3-.1-3-.15-6-.21-9V407.52c.07-3.63.17-7.27.3-10.9.08-2.23,4-6.17,6.19-6.21q36.53-.65,73.08,0c2.09,0,5.85,3.53,5.9,5.5C186.6,413.6,186.41,431.32,186.41,450.6Zm-8.28-99c-11.86-.4-23.76-.12-35.64-.12-11.22,0-22.45-.23-33.66.08-5.22.14-7.73-1.4-8.16-6V337q.17-16.59,0-33.18v-11c.45-4.19,2.62-6,7.88-5.93q35.14.39,70.3.08c6.27-.05,7.8,2.67,7.71,8.38q-.39,23.76,0,47.52C186.7,349.16,184.74,351.78,178.13,351.56ZM178,248.49c-23.1-.27-46.21-.34-69.32-.06-5.31.06-7.41-1.76-8-5.36v-9c.15-5.88.17-11.77,0-17.64V182.72H183c2.64,1,3.69,3.53,3.62,7.68-.26,16.5-.32,33,0,49.51C186.72,246.41,184.34,248.56,178,248.49Zm47.26,46.15c-.06-5.48,1.8-7.62,7.4-7.58q34.62.27,69.26-.05c5.59-.06,7.32,2.15,7.59,6.57v5.13q-.24,18.68,0,37.35v9.48c-.51,4.44-2.87,6.21-8.39,6-11.2-.37-22.42-.1-33.64-.1v0c-11.54,0-23.09-.16-34.63.07-5.37.11-7.77-1.72-7.69-7.38Q225.52,319.38,225.24,294.64Zm84.19,155.77h-84c0-18.93-.14-37.6.29-56.25,0-1.39,4.23-3.81,6.51-3.84,23.43-.28,46.87-.34,70.3.09,2.34,0,6.56,3.68,6.62,5.74C309.66,413.9,309.43,431.67,309.43,450.41Z"/>
 <path fill="currentColor" d="M597.24,290.5v57.42H518V290.5Z"/>
 <path fill="currentColor" d="M597.24,188.09v57.42H518V188.09Z"/>
 <path fill="currentColor" d="m597.36 393.33v54.56h-79.54v-54.56z"/>
 <path fill="currentColor" d="M481.33,290.5v57.42H402.09V290.5Z"/>
 <path fill="currentColor" d="m481.33 188.09v57.42h-79.24v-57.42z"/>
 <path fill="currentColor" d="m481.45 393.33v54.56h-79.54v-54.56z"/>
</svg>
