<svg xmlns="http://www.w3.org/2000/svg" viewBox="0 0 659.22 649.53">
    <polygon fill="none" stroke="currentColor" stroke-miterlimit="10" stroke-width="18.46px"
             points="197.65 124.55 197.65 219.57 310.94 219.57 429.72 219.57 554.97 219.57 554.97 124.55 197.65 124.55"/>
    <rect fill="none" stroke="currentColor" stroke-miterlimit="10" stroke-width="18.46px" x="73.39" y="124.55" width="124.26" height="95.02"/>
    <rect fill="none" stroke="currentColor" stroke-miterlimit="10" stroke-width="18.46px" x="429.72" y="219.57" width="125.25" height="91.37"/>
    <rect fill="none" stroke="currentColor" stroke-miterlimit="10" stroke-width="18.46px" x="310.94" y="219.57" width="118.78" height="91.37"/>
    <rect fill="none" stroke="currentColor" stroke-miterlimit="10" stroke-width="18.46px" x="310.94" y="310.94" width="118.78" height="91.37"/>
    <rect fill="none" stroke="currentColor" stroke-miterlimit="10" stroke-width="18.46px" x="310.94" y="402.3" width="118.78" height="91.71"/>
    <rect fill="none" stroke="currentColor" stroke-miterlimit="10" stroke-width="18.46px" x="429.72" y="310.94" width="125.25" height="91.37"/>
    <rect fill="none" stroke="currentColor" stroke-miterlimit="10" stroke-width="18.46px" x="73.39" y="219.57" width="124.26" height="274.45"/>
    <rect fill="none" stroke="currentColor" stroke-miterlimit="10" stroke-width="18.46px" x="429.72" y="402.3" width="125.25" height="91.71"/>
    <polygon fill="none" stroke="currentColor" stroke-miterlimit="10" stroke-width="18.46px"
             points="198.59 402.3 310.94 402.3 310.94 310.94 198.59 310.94 310.94 310.94 310.94 219.57 197.65 219.57 197.65 494.01 310.94 494.01 310.94 402.3 198.59 402.3"/>
</svg>