<svg xmlns="http://www.w3.org/2000/svg" viewBox="0 0 659.22 649.53">
    <path fill="currentColor"
          d="M491.7,310.59,298.39,181.72a16.1,16.1,0,0,0-25.05,13.4V452.87a16.11,16.11,0,0,0,25.05,13.4L491.7,337.4a16.13,16.13,0,0,0,0-26.81ZM305.55,422.76V225.23L453.76,324Z"/>
    <path fill="currentColor"
          d="M355.22,82.36C221.77,82.36,113.58,190.54,113.58,324S221.77,565.63,355.22,565.63,596.86,457.44,596.86,324,488.61,82.51,355.22,82.36Zm0,451.05C239.56,533.41,145.8,439.65,145.8,324s93.76-209.42,209.42-209.42S564.64,208.33,564.64,324,470.82,533.28,355.22,533.41Z"/>
</svg>