<svg xmlns="http://www.w3.org/2000/svg" width="136.049" height="136.174" viewBox="0 0 136.049 136.174">
  <path d="M1136.936,739.029c-.007-4.939.038-9.886-.015-14.833-.074-6.447-3.572-10.309-9.937-11.1-3.632-.446-5.615-2.333-5.615-5.326s1.931-4.8,5.645-5.31c6.432-.884,9.864-4.665,9.9-11.119.059-9.893-.044-19.786.037-29.672.1-10.614,5.948-18.5,15.634-21.22a13.43,13.43,0,0,1,6.127-.624c2.637.5,4.226,2.094,4.331,4.857s-1.33,4.464-3.907,5.221a13.357,13.357,0,0,1-2.05.3c-5.7.72-9.507,4.843-9.551,10.614q-.113,14.383-.007,28.781c.044,6.357-1.308,12.166-5.935,16.83-.981.988-.943,1.753.022,2.733,4.523,4.59,5.949,10.287,5.9,16.541-.052,9.3-.022,18.6-.007,27.89.015,7.086,3.268,10.829,10.205,11.788,3.8.527,5.742,2.785,5.281,6.128-.409,3.008-3.074,4.716-6.655,4.27-11.713-1.456-19.163-9.722-19.393-21.614C1136.854,749.123,1136.936,744.073,1136.936,739.029Z" transform="translate(-1121.369 -639.682)" fill="currentColor"/>
  <path d="M1160.212,676.357c0,5.043-.045,10.086.015,15.136.066,6.217,3.632,10.146,9.812,10.933,3.75.476,5.667,2.221,5.727,5.207q.089,4.746-5.771,5.452c-6.084.728-9.73,4.753-9.767,10.978-.052,10,.051,19.987-.038,29.977-.1,11.869-7.672,20.3-19.3,21.718-3.707.453-6.469-1.382-6.781-4.5-.326-3.32,1.649-5.437,5.556-5.919,6.343-.787,9.923-4.723,9.952-11.1.052-9.3.075-18.606,0-27.9-.059-6.551,1.233-12.582,6.09-17.365.921-.906.87-1.56-.021-2.444-4.761-4.709-6.113-10.628-6.069-17.083.067-9.2.038-18.406.007-27.607-.015-7.027-3.32-10.756-10.3-11.7-3.617-.491-5.556-2.7-5.214-5.92.327-3.008,3.03-4.865,6.529-4.471,11.7,1.33,19.341,9.678,19.549,21.473C1160.278,666.263,1160.2,671.306,1160.212,676.357Z" transform="translate(-1039.717 -639.652)" fill="currentColor"/>
</svg>
