<svg xmlns="http://www.w3.org/2000/svg" viewBox="0 0 659.22 649.53"><title>AIF </title><path fill="currentColor" d="M431.25,480.06c-7.48,7.69-14.92,20.53-25.9,25.37-15.1,6.67-30.88,1.94-40.29-14.26-.4-.68-1.11-1.29-1.21-2-5.76-41.38-34.58-42.06-67-39.5-23.36,1.84-47,1.23-70.47,0-13.39-.7-20.27,4.08-23.88,16.38a120.94,120.94,0,0,1-8.8,21.61c-9.19,17.65-28.53,25-45.5,17.91-16.51-6.93-24.74-26.32-17.34-45.18C159.66,387.12,189,314.05,218.16,240.9q13-32.6,26-65.18C250.44,160,260.64,149,278.76,149s28.16,11.07,34.44,26.84Q368.58,314.94,424,454C426.55,460.44,427.78,467.39,431.25,480.06ZM278.58,277.11,238,379h81.33Z"/><path fill="currentColor" d="M431.72,230.37c-48.09-4.14-60.93-12.11-60.76-36.8.17-24,12.3-31.55,56.2-36.45,7-19,12.14-37.23,20.88-53.52,2.72-5.07,15.56-7.36,23.36-6.63,38.11,3.58,30.1,34.67,32.49,60.35,27.6,1.69,62-1.68,62.31,36.45.32,39-34.38,34.53-60.55,36-8,52.21-14.31,62.45-37.78,62S436.83,278.62,431.72,230.37Z"/></svg>