<svg xmlns="http://www.w3.org/2000/svg" viewBox="0 0 659.22 649.53"><title>ODS </title><path fill="currentColor" d="M346.46,274c64.77,0,125.25-.05,185.74,0,31,0,32.65,1.61,32.69,31.66.07,55.26-.44,110.53.28,165.78.23,18.3-6.06,25.83-24.95,25.77q-220.29-.64-440.58,0c-17.69.05-24-7-24-24.37q.56-182.8,0-365.63c-.07-18.77,7.43-25.33,25.71-25.2q110.14.83,220.29,0c18.91-.14,25.32,7.81,25.06,26-.67,46.17-.22,92.35-.22,138.53Zm-237.6-97.28H313.57V115.53H108.86Zm0,95.87H313.56V211.27H108.87Zm-.09,95.15h206.5c0-16.49-.77-30.85.22-45.1,1-14.65-5.74-17.65-18.83-17.49-47.61.58-95.24.23-142.86.22h-45Zm0,96.67H315.3c0-14-1-26.7.24-39.21,1.88-18.38-4.11-25-23.57-24.53-53.65,1.29-107.34.44-161,.44H108.83ZM532,307H347.79v61.16H532Zm-.14,95.69H348.24v61.18H531.86Z"/></svg>