<svg xmlns="http://www.w3.org/2000/svg" viewBox="0 0 659.22 649.53"><title>PAC </title><path fill="currentColor" d="M395.26,336.26q0-97.42.06-194.86c0-9.79-2.16-21.92,12.88-22.5,16-.62,15.26,11.58,15.26,22.54q0,195.87.06,391.73c0,10.7-.34,21.68-14.26,21.7-14.08,0-14.09-11.13-14.07-21.74Q395.37,434.7,395.26,336.26Z"/><path fill="currentColor" d="M439.73,336.28q0-89.31,0-178.61c0-5.35-1.67-11.74.66-15.8,3.16-5.49,9-11.66,14.55-12.75,3.35-.65,9.83,7.19,12.38,12.43,2.12,4.35.62,10.5.62,15.85q0,178.62,0,357.23c0,4,1.39,8.8-.32,11.88-3.68,6.64-9,12.39-13.58,18.51-4.77-6-13.14-11.76-13.67-18.14-1.74-21.26-.68-42.76-.68-64.16Q439.72,399.5,439.73,336.28Z"/><path fill="currentColor" d="M350.82,336q0-84.37,0-168.76c0-10.24-.92-22.36,13-22.73,14.78-.4,15.24,11.67,15.23,23Q378.91,336.27,379,505c0,2,.79,4.61-.17,5.92-4.55,6.24-9.58,12.13-14.43,18.15-4.52-6.12-12.85-12.17-13-18.36C350.42,452.5,350.83,394.23,350.82,336Z"/><path fill="currentColor" d="M216.08,336.11q0-81.26,0-162.51c0-5.33-1.31-11.8,1.18-15.7,3-4.73,9.26-9.56,14.48-10,3.56-.31,10.23,6.28,11.17,10.7,1.9,9,1,18.59,1,27.95q.09,151.47.09,303c0,8,1.37,16.5-.81,23.91-1.46,5-8,11.64-12.4,11.73-4.66.09-10.9-5.85-13.75-10.74-2.36-4.07-1-10.42-1-15.76Q216.05,417.37,216.08,336.11Z"/><path fill="currentColor" d="M484.21,336.33q0-61.29,0-122.58c0-11.08-.35-23.18,15.32-22.69,14.95.47,12.88,12.69,12.89,22.52q.1,123.59,0,247.17c0,10.46.52,21.86-13.81,21.82-13.72-.05-14.59-10.87-14.55-21.65C484.27,419.39,484.19,377.86,484.21,336.33Z"/><path fill="currentColor" d="M199.12,338c0,41.51-.06,83,.09,124.52,0,10.09-1.07,21.33-13.44,19.35-5.76-.93-14-12.26-14.05-19-1-84.34-.65-168.7-.63-253,0-10.33,2.8-20.71,15-18.17,5.32,1.11,12.24,11.47,12.4,17.78C199.61,252.29,199.09,295.15,199.12,338Z"/><path fill="currentColor" d="M261.22,334.31c0-40.81-.62-81.63.57-122.4.2-7.14,6.92-19,12.37-20.11,13.89-2.81,15,9.29,15,19.9,0,83.62.4,167.25-.5,250.86-.07,6.82-8,18.32-13.68,19.35-12.36,2.21-13.77-9.17-13.77-19.16Q261.27,398.54,261.22,334.31Z"/><path fill="currentColor" d="M306.25,336.34q0-49.26,0-98.51c0-10.52.32-22.85,14.26-20.57,5.52.9,13,13,13.14,20.08q1.5,99.5,0,199c-.11,6.88-7.87,18.33-13.69,19.47-12.68,2.49-13.66-9-13.65-19Q306.33,386.6,306.25,336.34Z"/><path fill="currentColor" d="M154.6,338.38c0,29.45.73,58.93-.61,88.32-.29,6.36-8.08,12.38-12.42,18.55-5-6.36-14.24-12.65-14.36-19.1q-1.67-89.32,0-178.67c.12-6.65,8.3-17.76,14.1-18.73,12.71-2.13,13.37,9.4,13.34,19.28C154.56,278.15,154.61,308.26,154.6,338.38Z"/><path fill="currentColor" d="M557,336.38c0,30.09.73,60.21-.59,90.24-.28,6.36-8,12.38-12.31,18.56-5.1-6.36-14.52-12.64-14.64-19.1q-1.68-89.24,0-178.5c.13-6.67,8.44-17.81,14.33-18.81,12.89-2.19,13.18,9.66,13.18,19.35Q557,292.25,557,336.38Z"/></svg>