<svg xmlns="http://www.w3.org/2000/svg" viewBox="0 0 659.22 649.53">
    <path fill="currentColor"
          d="M409.2,316.1V514.81c0,4.93,1.12,10.31-.48,14.67s-6,8-9.2,12c-3.8-4.13-8.3-7.84-11.13-12.56-1.56-2.6-.33-6.88-.33-10.4q0-204,0-408c0-4.93-1-10.44.83-14.61,1.69-3.79,6.65-8.42,10.18-8.44,3.24,0,8.1,5.12,9.37,8.94,1.7,5.1.73,11.13.73,16.77Q409.21,214.63,409.2,316.1Z"/>
    <path fill="currentColor"
          d="M375.31,314.69c0,55.6.33,111.2-.42,166.79-.09,6.76-6,13.45-9.17,20.16-3.77-7-10.77-14-10.81-21q-1-166.8-.06-333.6c0-6.67,6.19-13.3,9.5-20,3.65,6.93,10.37,13.8,10.47,20.78C375.69,203.48,375.31,259.09,375.31,314.69Z"/>
    <path fill="currentColor"
          d="M341.69,316.1c0,40.78.4,81.57-.45,122.33-.12,6-6.18,11.93-9.5,17.89-3.72-5.76-10.63-11.49-10.68-17.28Q320,314.6,321,190.15c.05-6,6.62-11.91,10.16-17.86,3.51,5.75,10,11.44,10.08,17.27C342.11,231.72,341.7,273.92,341.69,316.1Z"/>
    <path fill="currentColor"
          d="M421.81,313.9c0-35.9-.46-71.81.44-107.69.15-6.15,6.12-12.16,9.4-18.23,3.75,6.24,10.69,12.44,10.76,18.72q1.15,107.7.07,215.4c-.06,6.07-6.06,12.08-9.3,18.12-3.79-6.2-10.68-12.32-10.86-18.63C421.26,385.72,421.8,349.81,421.81,313.9Z"/>
    <path fill="currentColor"
          d="M308,313.8c0,21.82.64,43.67-.45,65.43-.27,5.31-6.21,10.34-9.55,15.49-3.7-5-10.52-9.86-10.62-14.89q-1.26-65.43,0-130.89c.1-5.25,6.54-10.37,10-15.55,3.52,5.68,9.75,11.21,10.09,17.09C308.74,271.52,308,292.68,308,313.8Z"/>
    <path fill="currentColor"
          d="M240.65,314.26c0,16.83.73,33.72-.46,50.46-.33,4.54-6.42,8.66-9.87,13-3.47-4.41-9.83-8.74-9.95-13.23q-1.27-50.48,0-101c.11-4.42,6.68-8.68,10.25-13,3.34,4.43,9.23,8.67,9.55,13.31C241.34,280.55,240.63,297.43,240.65,314.26Z"/>
    <path fill="currentColor"
          d="M274.15,314.39c0,9.86,1.12,19.89-.45,29.49-.76,4.68-6.47,8.56-9.95,12.81-3.42-3.76-9.63-7.4-9.8-11.31-1-21.06-.94-42.22.09-63.28.18-3.72,6.72-7.13,10.33-10.68,3.25,3.77,8.77,7.24,9.31,11.36C275,293.16,274.13,303.83,274.15,314.39Z"/>
    <path fill="currentColor"
          d="M206.88,315c0,7.68,1,15.56-.39,22.95-.86,4.46-5.56,8.18-8.54,12.22-3.85-4.09-10.67-7.94-11-12.32a312.05,312.05,0,0,1,.11-48.05c.28-3.82,6.47-7.2,9.94-10.78,3.26,3.62,8.6,6.87,9.34,10.95,1.49,8.1.44,16.66.44,25Z"/>
    <path fill="currentColor"
          d="M178.2,313.66c-6,8.33-10.57,14.74-15.16,21.15-3.51-6.62-10-13.35-9.75-19.83.27-7.36,6.53-14.51,10.19-21.75Z"/>
</svg>