<svg xmlns="http://www.w3.org/2000/svg" viewBox="0 0 659.22 649.53">
    <path fill="currentColor" d="M84.61,166.81v0Z"/>
    <path fill="currentColor"
          d="M571.61,446.15c0-73.36,0-211.9,0-280.14A46.64,46.64,0,0,0,525,119.43H502V95.52a22,22,0,0,0-22-22H176.18a22,22,0,0,0-22,22v23.91h-23A46.64,46.64,0,0,0,84.61,166v3.88c0,14.08,0,72.31,0,276.26,0,23.48,19.72,42.65,44,42.65H253.09l-25.16,52.47H214.59a21.73,21.73,0,0,0,0,43.45h227a21.73,21.73,0,0,0,0-43.45H428.25L403.09,488.8H527.6C551.88,488.8,571.61,469.63,571.61,446.15ZM166.19,95.52a10,10,0,0,1,10-10H480a10,10,0,0,1,10,10V321.39a10,10,0,0,1-10,10H176.18a10,10,0,0,1-10-10ZM96.59,166a34.64,34.64,0,0,1,34.61-34.6h23v190a22,22,0,0,0,22,22H480a22,22,0,0,0,22-22v-190H525A34.65,34.65,0,0,1,559.64,166V392.89h-463Zm345,387.24a9.65,9.65,0,0,1,9.51,10,9.52,9.52,0,0,1-9.51,9.5h-227a9.64,9.64,0,0,1-9.5-10,9.53,9.53,0,0,1,9.5-9.51Zm-26.59-12H241.19l24.92-51.91h124ZM128.57,476.82c-17.65,0-32-13.82-32-30.67V404.93H559.63v41.22c0,16.85-14.37,30.67-32,30.67Z"/>
    <path fill="currentColor"
          d="M192.63,255.1H463.47a6,6,0,0,0,6-6V107.42a5.93,5.93,0,0,0-6-6H192.63a6,6,0,0,0-6,6V249.11A6,6,0,0,0,192.63,255.1Zm6-141.69H457.48V243.12H198.62Z"/>
    <path fill="currentColor"
          d="M463.47,286.49H428.73v-8.95a14.16,14.16,0,0,0-14.14-14.14H394.22a14.15,14.15,0,0,0-14.06,14.14v8.95H244.39a6,6,0,1,0,0,12H380.16v8.86a14.15,14.15,0,0,0,14.06,14.14h20.37a14.16,14.16,0,0,0,14.14-14.14v-8.86h34.74a6,6,0,0,0,0-12Zm-46.72,20.84a2.2,2.2,0,0,1-2.16,2.16H394.22a2.18,2.18,0,0,1-2.07-2.16V277.54a2.12,2.12,0,0,1,2.07-2.15h20.37a2.14,2.14,0,0,1,2.16,2.15Z"/>
    <path fill="currentColor" d="M192.66,274.47a6,6,0,0,0-6,6v23.93a6,6,0,0,0,12,0V280.46A6,6,0,0,0,192.66,274.47Z"/>
    <path fill="currentColor" d="M220.06,274.47a6,6,0,0,0-6,6v23.93a6,6,0,0,0,12,0V280.46A6,6,0,0,0,220.06,274.47Z"/>
    <path fill="currentColor"
          d="M307.48,140.8a5.9,5.9,0,0,0-6.15-.39,6.15,6.15,0,0,0-3.19,5.35v65a6,6,0,0,0,3.19,5.27,5.84,5.84,0,0,0,2.8.72,5.53,5.53,0,0,0,3.35-1l47.93-32.5a6,6,0,0,0,0-9.91Zm2.64,58.63V157l31.23,21.24Z"/>
    <path fill="currentColor"
          d="M279.37,421.31a19.57,19.57,0,1,0,19.57,19.57A19.57,19.57,0,0,0,279.37,421.31Zm0,27.15a7.59,7.59,0,1,1,7.59-7.58A7.65,7.65,0,0,1,279.37,448.46Z"/>
    <path fill="currentColor"
          d="M328.09,421.31a19.57,19.57,0,1,0,19.57,19.57A19.55,19.55,0,0,0,328.09,421.31Zm0,27.15a7.59,7.59,0,1,1,7.59-7.58A7.58,7.58,0,0,1,328.09,448.46Z"/>
    <path fill="currentColor"
          d="M376.81,421.31a19.57,19.57,0,1,0,19.57,19.57A19.55,19.55,0,0,0,376.81,421.31Zm0,27.15a7.59,7.59,0,1,1,0-15.17,7.59,7.59,0,1,1,0,15.17Z"/>
</svg>