<svg height="512" viewBox="0 0 512 512" width="512" xmlns="http://www.w3.org/2000/svg">
    <g>
        <circle fill="currentColor" cx="136" cy="286" r="15"/>
        <path fill="currentColor"
              d="m15 421h166c0 49.916 40.424 91 90 91 49.55 0 90-41.067 90-91v-90h15c8.284 0 15-6.716 15-15v-90c0-8.284-6.716-15-15-15h-15v-15c0-24.813 20.187-45 45-45h16v45c0 8.284 6.716 15 15 15h60c8.284 0 15-6.716 15-15v-30c0-24.813-20.187-45-45-45-21.407 0-39.627 0-61 0-16.871 0-32.456 5.603-45 15.041v-46.041h45c8.284 0 15-6.716 15-15v-60c0-8.284-6.716-15-15-15h-30c-24.813 0-45 20.187-45 45v166h-15c-8.284 0-15 6.716-15 15v90c0 8.284 6.716 15 15 15h15v90c0 33.635-26.916 61-60 61s-60-27.365-60-61h45c8.284 0 15-6.716 15-15v-391c0-8.284-6.716-15-15-15h-241c-8.284 0-15 6.716-15 15v391c0 8.284 6.716 15 15 15zm437-270h15c8.271 0 15 6.729 15 15v15h-30zm-91-106c0-8.271 6.729-15 15-15h15v30h-30zm-30 196h30v60h-30zm-301-211h211v121h-211zm0 151h211v210h-211z"/>
        <path fill="currentColor"
              d="m136 211c-41.355 0-75 33.645-75 75s33.645 75 75 75 75-33.645 75-75-33.645-75-75-75zm0 120c-24.813 0-45-20.187-45-45s20.187-45 45-45 45 20.187 45 45-20.187 45-45 45z"/>
    </g>
</svg>