<svg xmlns="http://www.w3.org/2000/svg" viewBox="0 0 659.22 649.53"><path fill="currentColor" d="M643.17,324.28c-53.67,40.63-105.59,81-158.86,119.52C470,454.17,448.83,468,435.47,464.11c-24.12-7-12.73-34.28-14.19-53.29C420,393.7,421,376.41,421,353.08c-40.53,30.45-76.73,57.68-113,84.87-9.53,7.15-18.67,15-28.81,21.11-24.67,15-40.47,6.27-41-22.46-.47-26.18-.1-52.38-.1-85L88.67,463.7,61.94,426.93c61.26-46.19,121.49-92.33,182.62-137.25,18.53-13.61,36.54-3.78,37.52,19.75,1.16,27.95.27,56,.27,90.38,47.43-35.71,89.13-68,132-98.74,10.83-7.76,25.34-10.38,38.16-15.37,5,13.6,12.71,26.9,14.23,40.87,2.4,22.19.64,44.83.64,73.11l148.1-111.2Z"/></svg>