<svg xmlns="http://www.w3.org/2000/svg" viewBox="0 0 659.22 649.53">
    <title>ZIP</title>
    <path fill="currentColor" d="M357.65,157.38H269.82a9.86,9.86,0,0,1,0-19.72h87.83a9.86,9.86,0,0,1,0,19.72Z"/>
    <path fill="currentColor" d="M357.65,206.67H269.82a9.86,9.86,0,0,1,0-19.72h87.83a9.86,9.86,0,0,1,0,19.72Z"/>
    <path fill="currentColor"
          d="M313.73,414a9.86,9.86,0,0,1-9.85-9.86h0V85.48a9.86,9.86,0,1,1,19.71,0V404.1A9.86,9.86,0,0,1,313.73,414Z"/>
    <path fill="currentColor" d="M357.65,256H269.82a9.86,9.86,0,1,1,0-19.71h87.83a9.86,9.86,0,0,1,0,19.71Z"/>
    <path fill="currentColor" d="M357.65,305.24H269.82a9.86,9.86,0,0,1,0-19.72h87.83a9.86,9.86,0,0,1,0,19.72Z"/>
    <path fill="currentColor" d="M357.65,354.52H269.82a9.86,9.86,0,1,1,0-19.71h87.83a9.86,9.86,0,1,1,0,19.71Z"/>
    <path fill="currentColor"
          d="M313.73,592.25a74.33,74.33,0,0,1-54.81-24.71c-12.07-13.61-17.59-30.48-15.53-47.5L256.87,403a9.85,9.85,0,0,1,9.79-8.73h94.16A9.84,9.84,0,0,1,370.6,403l13.49,117.12c2.05,17-3.47,33.84-15.54,47.44a74.34,74.34,0,0,1-54.82,24.72ZM275.45,414,263,522.34c-1.38,11.4,2.42,22.79,10.7,32.11a53.45,53.45,0,0,0,80.13,0c8.28-9.34,12.08-20.73,10.71-32.07L352,414Z"/>
    <path fill="currentColor"
          d="M313.73,554.85a40.61,40.61,0,0,1-30.27-14c-6.23-7.39-8.81-16.38-7.28-25.32l3.43-20.81a9.86,9.86,0,0,1,9.73-8.26h48.51a9.86,9.86,0,0,1,9.71,8.13l3.72,20.87a31.42,31.42,0,0,1-7.65,25.69,39.89,39.89,0,0,1-29.9,13.73Zm-16-48.7-2.08,12.62a11.49,11.49,0,0,0,2.91,9.34,19.84,19.84,0,0,0,30.14.17,12,12,0,0,0,3.17-9.63l-2.23-12.5Z"/>
</svg>