<svg xmlns="http://www.w3.org/2000/svg" viewBox="0 0 659.22 649.53"><path fill="currentColor" d="M321.6,515.4c-112,.43-204.39-91.66-204.35-203.65,0-111.76,93-204.59,204.34-204A204.18,204.18,0,0,1,524.88,311.2C525.46,423.56,434.45,515,321.6,515.4ZM257.68,315.51c0,37.19-.09,74.38.12,111.57,0,4,1.82,7.95,2.79,11.93,3.85-1.28,8.17-1.82,11.49-3.93q87.3-55.45,174.36-111.24c12-7.67,12-9.83.23-17.38q-87.1-55.72-174.32-111.29c-3.36-2.13-7.67-2.75-11.54-4.07-1,3.92-3,7.83-3,11.76C257.59,240.41,257.68,278,257.68,315.51Z"/></svg>