<svg xmlns="http://www.w3.org/2000/svg" viewBox="0 0 659.22 649.53"><path fill="currentColor" d="M200.11,322.41,103.33,437.26c-4.79,5.68-9.68,11.27-14.38,17-8.57,10.49-18.46,17.49-30.71,6.36S52.43,439,61,428.89c14.47-16.94,28.77-34,43.1-51.1,19.55-23.28,39-46.62,58.59-69.87,22.64-26.88,50.66-27.1,74.06-.48,8.48,9.64,16.5,19.67,24.78,29.48,7.81,9.26,15.69,18.47,25.06,29.49,31.23-37.1,61.95-73.51,92.55-110,30.88-36.82,66.16-36.85,96.76-.23,47.63,57,95.69,113.65,142.82,171.06,5.68,6.92,10.69,18.45,9.06,26.43-3.25,15.92-21.37,16.35-34.47,1-34.6-40.59-68.67-81.63-103-122.46-14.78-17.57-29.39-35.31-44.57-52.53-15.39-17.46-22.3-17.31-37.17.34-32.65,38.72-65,77.67-97.63,116.43-20.88,24.82-28,24.77-48.53.29C242.5,372.92,222.55,349.15,200.11,322.41Z"/><path fill="currentColor" d="M202.57,149.93c23.08.82,41.73,21.14,40.49,44.13-1.16,21.76-21.34,40.79-42.76,40.33-22.64-.48-42.28-21.09-41.58-43.63C159.43,167.66,179.35,149.11,202.57,149.93Z"/></svg>