<svg version="1.1" viewBox="0 0 659.22 649.53" xmlns="http://www.w3.org/2000/svg">
 <defs>
  <style>.cls-1{fill:#fff;}</style>
 </defs>

 <path fill="currentColor" d="m352.27 486.61c-42 8.14-42.65 7.61-53.65-28.33-7.7-25.14-8.93-60.3-26.11-72.32-18.66-13.06-52.54-3.36-79.6-5.75-20.32-1.8-29.48 5.66-33.08 25.4-3.07 16.88-9.63 33.11-14.49 49.67-10.9 37.19-10.86 37.2-52.37 32.46 1.48-7.65 2.31-15.32 4.47-22.6 30.56-102.72 61.77-205.27 91.72-308.14 5.28-18.12 13.67-24.05 32.41-23.48 18.46 0.56 28.67 3.38 34.59 24.26 29.48 104 61.23 207.32 92.09 310.92 1.75 5.81 2.69 11.89 4.02 17.91zm-174.88-144.55h88.55l-44.88-156.61c-15.72 56.38-29.64 106.32-43.67 156.61z"/>
 <path fill="currentColor" d="M397,235.13h41.58c0,40.52-.06,80.33,0,120.14,0,15.5-.33,31.05.78,46.49,2.53,35.23,18.45,53,46.38,53,29,.07,52-21.57,53.32-54.44,1.8-44.62,1-89.35,1.23-134,.06-9.8,0-19.61,0-30.71h45.11V488.48H547c-1.27-9-2.51-17.75-4-28.13-13.42,9.07-25.5,19.71-39.5,26.24-48.43,22.59-100.56-3.5-105.22-58.44C392.93,365.07,397,301.18,397,235.13Z"/>
</svg>
