<svg xmlns="http://www.w3.org/2000/svg" viewBox="0 0 659.22 649.53">
    <path fill="currentColor"
          d="M399.17,353.76V147.84h-272v272h272ZM438,192.91l126.75-68.44a19.42,19.42,0,0,1,28.65,17.09V426.09a19.43,19.43,0,0,1-28.65,17.09L438,374.73v64.5a19.42,19.42,0,0,1-19.43,19.42H107.78a19.41,19.41,0,0,1-19.42-19.42V128.42A19.42,19.42,0,0,1,107.78,109H418.59A19.43,19.43,0,0,1,438,128.42Zm0,44.16v93.51l116.55,62.94V174.13ZM107.78,536.36a19.43,19.43,0,0,1,0-38.86H281.3a19.43,19.43,0,0,1,0,38.86Zm235,0a19.43,19.43,0,0,1,0-38.86h17.58a19.43,19.43,0,0,1,0,38.86Z"/>
</svg>