<svg version="1.1" viewBox="0 0 659.22 649.53" xmlns="http://www.w3.org/2000/svg">
 <path fill="currentColor" d="m345.7 413.39c51.4 1 94.28 45.38 92.33 95.48-1.95 49.94-48.47 93.94-97.07 91.83-50.81-2.22-92.82-47.63-90.51-97.83 2.3-50.04 45.37-90.49 95.25-89.48zm-1.83 46.9c-24.28-0.72-45.58 19-46.81 43.41-1.34 26.57 17.88 48.13 43.85 49.2s49.44-19.81 49.36-44.16c-0.09-25.42-21.44-47.74-46.4-48.45z"/>
 <path fill="currentColor" d="M340.29,112.79H300.51V69.62h39.78Z"/>
 <path fill="currentColor" d="M299.48,203.56V161h41.36v42.61Z"/>
 <path fill="currentColor" d="M347.72,346.6V303h41.1V346.6Z"/>
 <path fill="currentColor" d="m347.41 155.77v-39.69h41.4v39.69z"/>
 <path fill="currentColor" d="m347.63 208.22h40.72v42.36h-40.72z"/>
 <path fill="currentColor" d="m341.08 298.82h-40.83v-41.13h40.83z"/>
 <path fill="currentColor" d="M340.47,391.54H300.34V351h40.13Z"/>
</svg>
