<svg xmlns="http://www.w3.org/2000/svg" viewBox="0 0 659.22 649.53"><path fill="currentColor" d="M332.3,530.34q-111.78,0-223.56,0c-24.29,0-30-5.78-30-30q-.08-151.23,0-302.46c0-24.57,5-28.59,30.11-28.61,45.14-.05,90.28-1.31,135.42-1.3,54.95,0,109.9,1.17,164.86,1.22,49.1.05,98.2-.84,147.3-1.11,24.06-.14,31.52,7.22,31.54,31q.12,150.4,0,300.81c0,22.76-7.74,30.46-30.47,30.49Q444.9,530.44,332.3,530.34Zm220.5-34V478.84c0-85.51-.4-171,.39-256.51.15-16.12-4.83-20.09-20.39-20q-199.78.85-399.56-.1c-17.45-.1-20.8,5.7-20.67,21.61q1.05,125.78,0,251.57c-.14,16,3.13,21.45,20.55,21.34,133.18-.8,266.37-.42,399.55-.41Z"/><path fill="currentColor" d="M371,406c16.54-30.38,31.84-59.25,48-87.62,3.4-6,10-14,15.19-14s11.72,8.15,14.84,14.2c20.31,39.29,40,78.94,59.53,118.61,2.7,5.47,3.81,11.72,6.5,20.3H496q-163.47,0-326.95,0c-20.16,0-21.33-2.07-11.56-20.31,32.49-60.68,64.91-121.4,97.78-181.87,3.08-5.68,9.7-14,13.72-13.51,5.86.73,12.56,7.39,15.94,13.23,25.71,44.45,50.68,89.33,75.93,134.06C363.73,394.12,366.83,399,371,406Z"/></svg>