<svg xmlns="http://www.w3.org/2000/svg" viewBox="0 0 659.22 649.53"><title>XLS </title><path fill="currentColor" d="M322.22,551h-208c-7.47,0-7.48,0-7.48-7.37q0-208,0-415.92c0-7.41,0-7.43,7.43-7.43q207.72,0,415.43,0c7.66,0,7.72,0,7.72,7.88q0,207.47,0,414.93c0,7.9,0,7.91-8.17,7.91Zm67.43-294.85c34,0,68-.09,102,.1,4.76,0,6.27-1.25,6.23-6.14q-.33-42,0-84c0-4.82-1.36-6.19-6.18-6.18q-102,.23-204,0c-4.75,0-6.28,1.23-6.25,6.12q.33,42,0,84c0,4.81,1.35,6.23,6.19,6.2C321.66,256.07,355.65,256.16,389.65,256.16Zm.28,31.63c-34.15,0-68.3.07-102.45-.08-4.53,0-6,1.28-6,6q.3,42,0,84c0,4.63,1.42,6,6,6q102.21-.18,204.41,0c4.55,0,6-1.32,6-6q-.3-41.73,0-83.46c0-5.08-1.42-6.53-6.48-6.5C457.57,287.89,423.75,287.79,389.93,287.79Zm-.18,135.26c-34,0-68,.08-101.95-.09-4.62,0-6.38,1-6.33,6q.36,38.24,0,76.46c0,4.58,1.28,6,5.91,6q102.2-.19,204.39,0c5,0,6.1-1.69,6.06-6.34q-.3-38,0-76c0-4.81-1.32-6.23-6.16-6.2C457.71,423.14,423.73,423.05,389.75,423.05Zm-196-263c-14.33,0-28.66.12-43-.07-4-.06-5.13,1.33-5.11,5.21q.19,43,0,86c0,4.06,1.44,5.08,5.26,5.06q43-.18,86,0c4,0,5.13-1.37,5.11-5.22q-.18-43,0-86c0-4-1.47-5.09-5.28-5.05C222.36,160.16,208,160.05,193.7,160.05Zm-48,175.59c0,14.16.13,28.32-.08,42.48-.06,4.15,1.34,5.5,5.45,5.48q42.72-.18,85.44,0c4.11,0,5.5-1.32,5.48-5.47q-.21-42.48,0-84.95c0-4.15-1.37-5.47-5.47-5.45q-42.72.18-85.44,0c-4.1,0-5.52,1.26-5.46,5.44C145.81,307.33,145.68,321.49,145.68,335.64Zm47.77,175.7c14.15,0,28.31-.14,42.46.08,4.42.07,6.13-1,6.09-5.82q-.33-38.48,0-76.94c0-4.36-1.24-5.73-5.67-5.7q-42.46.27-84.93,0c-4.22,0-5.84,1-5.8,5.53q.3,38.72,0,77.44c0,4.1,1.2,5.54,5.38,5.48C165.14,511.21,179.29,511.34,193.45,511.34Z"/></svg>