<svg xmlns="http://www.w3.org/2000/svg" viewBox="0 0 659.22 649.53"><title>PAC </title><path fill="currentColor" d="M370.06,519.24c0-36.76.47-71.74-.23-106.7-.3-15,4.95-23,19.63-27.83,36.2-11.95,72.07-25,107.66-38.67,18.84-7.23,24.65-.62,24.49,17.71-.37,44.6.1,89.21-.18,133.81-.17,27.37-15.7,44.95-38.71,44.89-21.6-.06-38.91-18.15-38.47-40.21.47-24.1,15.81-36.69,45.23-37.27,2.27,0,4.53-.72,7.39-1.2V406.26c-33.43,12.28-65.06,23.29-96,36-3.87,1.59-5.44,12.26-5.6,18.79-.77,33.43.41,66.94-1.37,100.3-1.27,23.84-19.81,38.64-41.5,36.83-19.57-1.63-35.8-18.73-36.18-38.13C315.75,535.87,334.57,520.85,370.06,519.24Z"/><path fill="currentColor" d="M537.45,394.82c1.36-20.94,1.48-42.06,4.29-62.81,11.18-82.59-16.08-149.82-83.75-197.34-67-47-140.14-51-211.75-11.31C174.79,162.93,139.1,226.25,142.45,308.5c4.35,106.58,86.23,186.55,193.84,191.77,2.89.14,5.76.49,9.21.79C323.44,521,300.68,519.61,274.72,511,166.34,475,101.64,364,125.61,252.47c24.3-112.95,127.53-185.3,247.28-173.29C479.71,89.89,566.32,188.16,564,299.84,563.38,332,553.82,364,548.33,396.1Z"/><path fill="currentColor" d="M352.28,467.07c5.84,20.32-6.88,18.53-18.27,18.35-77.37-1.2-152.93-62-170.92-139.57C146,272.09,164.6,207.63,222.57,158.36,281.13,108.59,348.66,98.51,418.92,130s105.62,89.17,110.46,165.56c.64,10.07-1.62,20.33-2.53,30.54-20.53,5-19.37-6.87-19.14-19.7,1.48-82.15-47.67-147.87-125-167.78-89.32-23-182.43,35.35-201.3,126.15-19.33,93,41.82,182.94,134.35,197.37C327.53,464,339.34,465.34,352.28,467.07Z"/><path fill="currentColor" d="M351.6,428.71c5.83,15.41-.17,18.92-13.75,19.13C270.34,448.89,203.5,389.15,196,320.29,186.66,235,242.22,162.11,324.65,151.43,405.13,141,477.93,197.62,490.56,281.09c1.76,11.64,2.45,24.25-.23,35.49-2,8.57-10.2,15.67-19.38,22.05,5.25-51.57-2.25-96.86-40.64-132.75-25-23.36-55-35.06-88.82-34.77-68.32.57-124.94,56.87-126.29,124.18C213.69,370.85,266.29,422.87,351.6,428.71Z"/><path fill="currentColor" d="M418,353.52c24.76-48.12,20.77-88.83-11.77-120.12a91,91,0,0,0-108.17-13.71A92.59,92.59,0,0,0,254.1,322c10,41.47,43.6,65.64,96.77,69.54,3.1,19.67,2.78,20.18-12.54,19.92-45.76-.79-89.65-34.65-102.92-79.42-13.82-46.58,3.78-97.15,43.34-124.51,39.81-27.54,94.36-26.63,131.77,2.21,38.52,29.7,55.32,80.1,38.57,123.49-4,10.34-16.46,17.42-25,26Z"/><path fill="currentColor" d="M417,300c-.35,41-33.43,74.2-74,74.37s-75.82-35.94-74.73-76.73c1.08-40.34,36-73.78,76-72.85C385.48,225.73,417.3,258.62,417,300ZM342.38,352.7c29.51.39,53.49-22.25,54.5-51.44A53.3,53.3,0,0,0,343.79,246c-29.66-.25-53.6,22.26-54.66,51.42C288,327.62,311.8,352.3,342.38,352.7Z"/><path fill="currentColor" d="M382.22,298.39c.64,21.65-16.52,39.13-38.65,39.36-21.47.23-37.82-15-38.95-36.24-1.18-22.06,15.13-40.09,36.94-40.84C363.18,259.92,381.59,277,382.22,298.39Zm-40.61-25.51c-7.75,13-16.3,20.9-15.29,27.34s11.44,11.7,17.74,17.46c5.66-6.44,15.48-12.68,15.8-19.38C360.17,291.8,350.73,284.83,341.61,272.88Z"/></svg>