<svg xmlns="http://www.w3.org/2000/svg" width="300" height="198" viewBox="0 0 300 198">
  <g>
    <path d="M1089.374,845.986c.435,31.441-25.405,62.3-63.391,62.426a62.839,62.839,0,0,1-62.919-63.4c.2-34.789,28.79-62.679,63.927-62.4A63.011,63.011,0,0,1,1089.374,845.986Zm-80.992,26.343,44.96-26.823-44.96-26.8Z" transform="translate(-876.28 -746.52)" fill="currentColor"/>
    <path d="M1021.553,881.119c-.435,31.306-8.493,62.751-27.513,90.992-3.678,5.48-8.9,7.146-13.4,4.285-4.738-3.04-5.53-8.456-1.635-14.306a129.417,129.417,0,0,0,16.771-34.713c13.691-45.788,9.683-89.492-15.928-130.563-.536-.864-1.163-1.678-1.648-2.569-2.822-5.111-1.825-10.427,2.428-13.058,4.381-2.721,9.388-1.45,12.837,3.434a143.54,143.54,0,0,1,16.808,31.9C1017.912,836.564,1021.426,857.38,1021.553,881.119Z" transform="translate(-721.553 -779.782)" fill="currentColor"/>
    <path d="M955.98,878.749c.294-33.3,8.188-64.443,26.887-92.467,1.622-2.429,3.193-4.895,6.105-5.9a8.483,8.483,0,0,1,9.745,2.466c3.181,3.6,2.9,7.592.5,11.3-5.174,8.011-10.168,16.11-13.539,25.049C967.3,867.852,969.8,914.873,997.1,959.873c.7,1.158,1.521,2.252,2.173,3.446,2.847,5.138,1.877,10.238-2.441,13.022-4.228,2.733-9.438,1.386-12.811-3.421a144.457,144.457,0,0,1-17-32.387A171.833,171.833,0,0,1,955.98,878.749Z" transform="translate(-955.977 -779.738)" fill="currentColor"/>
    <path d="M1018.739,861.9c-.152,28.911-9.426,54.519-28.176,76.685-2.759,3.265-6.041,5.069-10.32,3.938a8.68,8.68,0,0,1-6.31-6.732c-1.01-3.964,1.161-6.873,3.474-9.642a96.1,96.1,0,0,0,22.034-49.032c4-28.442-2.556-54.191-20.259-77-1.25-1.614-2.618-3.152-3.717-4.865-2.784-4.345-1.992-9.426,1.776-12.246a9.167,9.167,0,0,1,12.466,1.474,106.9,106.9,0,0,1,12.606,17.276C1013.121,820.351,1018.906,840.32,1018.739,861.9Z" transform="translate(-755.029 -763.057)" fill="currentColor"/>
    <path d="M958.808,861.829c.332-28.505,9.414-53.847,27.807-75.809,4.3-5.145,9.464-6.237,13.782-2.947,4.521,3.441,4.788,8.891.217,14.341-12.454,14.837-20.207,31.731-22.659,50.9-3.475,27.12,2.656,51.865,19.108,73.929,1.622,2.173,3.474,4.193,4.956,6.466,2.962,4.559,2.3,9.082-1.6,12.258-3.666,2.973-8.75,2.6-12.377-1.321A104.786,104.786,0,0,1,970.3,913.02,116.725,116.725,0,0,1,958.808,861.829Z" transform="translate(-922.657 -763.073)" fill="currentColor"/>
  </g>
</svg>
