<svg xmlns="http://www.w3.org/2000/svg" viewBox="0 0 659.22 649.53"><title>GZ </title><path fill="currentColor" d="M305.93,302.19H406.1c.57,4,1.78,8.63,1.79,13.22.12,46.29.46,92.58-.08,138.86-.64,55.64-45.56,99.53-101.05,99.59-56,.07-100.06-43-101-99.17-.48-27.94-.09-55.9-.09-86.31H306.51c0-23.9,0-45.38,0-66.89ZM274.27,436.83c-6.9,27.68,10.28,49.29,32.72,49.46s34.74-18.93,32-49.46Z"/><path fill="currentColor" d="M307.1,165.7h-100V99.54c34,0,67.43,0,100.9,0l-.67-.58q-.44,33.69-.92,67.35Z"/><path fill="currentColor" d="M306.46,166.33h100v66.79H306.63l.64.63q-.09-34-.17-68.05Z"/><path fill="currentColor" d="M306.63,233.12q-.33,34.5-.68,69l.58-.67c-32.7,0-65.38,0-99.39,0V233.76H307.27Z"/></svg>