<svg xmlns="http://www.w3.org/2000/svg" viewBox="0 0 659.22 649.53">
    <path fill="currentColor"
          d="M122.21,487.3H231.93l93.91,57.85a49.23,49.23,0,0,0,25.81,7.37,48.37,48.37,0,0,0,23.84-6.31,53.66,53.66,0,0,0,27-47.28v-253a53.65,53.65,0,0,0-27-47.28,48.6,48.6,0,0,0-49.65,1.06l-81,50H121.89a72,72,0,0,0-71.7,71.94v93.66A72.11,72.11,0,0,0,122.21,487.3ZM74.77,321.61a47.44,47.44,0,0,1,47.44-47.36h126a12.91,12.91,0,0,0,6.8-1.8l83.74-51.63a23.62,23.62,0,0,1,24.59-.57A28.86,28.86,0,0,1,378,245.9v253a28.84,28.84,0,0,1-14.42,25.81,23.6,23.6,0,0,1-24.58-.57l-97.1-59.65a12.54,12.54,0,0,0-6.39-1.81H122.21a47.52,47.52,0,0,1-47.44-47.44Z"/>
    <path fill="currentColor"
          d="M574.61,470.91a41,41,0,0,0,41-41V298.83a41,41,0,0,0-81.94,0V429.94A41,41,0,0,0,574.61,470.91ZM558.22,298.83a16.39,16.39,0,0,1,32.78,0V429.94a16.39,16.39,0,0,1-32.78,0Z"/>
    <path fill="currentColor"
          d="M468.09,444a41,41,0,0,0,41-41V325.71a41,41,0,0,0-81.94,0V403A41,41,0,0,0,468.09,444ZM451.7,325.71a16.39,16.39,0,1,1,32.77,0V403a16.39,16.39,0,1,1-32.77,0Z"/>
</svg>