<svg xmlns="http://www.w3.org/2000/svg" viewBox="0 0 659.22 649.53"><path fill="currentColor" d="M500.65,311.31A25.69,25.69,0,0,0,538.4,334l6.88,6.88a7.5,7.5,0,0,0,10.6-10.61L549,323.37a25.68,25.68,0,1,0-48.35-12.06Zm36.37,0a10.64,10.64,0,0,1-2.85,7.24l-.31.28c-.1.1-.19.21-.28.31a10.67,10.67,0,1,1,3.44-7.83Z"/><path fill="currentColor" d="M582.9,253.3H562.37a7.5,7.5,0,0,0,0,15h13v92.08H483.32V268.3h44.05a7.5,7.5,0,0,0,0-15H524.3A201.08,201.08,0,0,0,455.64,156a197.58,197.58,0,0,0-120-41.06c-.85,0,0,0-2.39,0A199.18,199.18,0,0,0,232,143.2a7.5,7.5,0,1,0,7.71,12.86A183.71,183.71,0,0,1,284.4,136.8c-15,14.14-28.07,34.62-38,59.93h-54a185.5,185.5,0,0,1,20.2-20.83,7.5,7.5,0,1,0-9.91-11.26A199,199,0,0,0,144.5,253.3H85.9a7.5,7.5,0,0,0-7.5,7.5V367.88a7.5,7.5,0,0,0,7.5,7.5h58.61a201.08,201.08,0,0,0,68.66,97.32,197.62,197.62,0,0,0,120,41.06c.38,0,.58,0,2.39,0a197.62,197.62,0,0,0,120-41.06,201.08,201.08,0,0,0,68.66-97.32h58.6a7.5,7.5,0,0,0,7.5-7.5V260.8A7.5,7.5,0,0,0,582.9,253.3Zm-107.08,0h-38a303.26,303.26,0,0,0-10.07-41.57h59.83a181.63,181.63,0,0,1,20.91,41.57Zm-229.59,0a280.75,280.75,0,0,1,10.7-41.57h70V253.3Zm95.67-41.57h70a280.75,280.75,0,0,1,10.7,41.57H341.9Zm0-81.2c25.18,4.11,48.31,28.73,64.23,66.2H341.9Zm134.39,66.2H422.41c-9.89-25.21-22.84-45.63-37.81-59.76a186.67,186.67,0,0,1,91.69,59.76ZM326.9,130.54v66.19H262.68C278.6,159.29,301.72,134.67,326.9,130.54ZM181.14,211.73h59.93A303.26,303.26,0,0,0,231,253.3H160.34A183.33,183.33,0,0,1,181.14,211.73ZM168.26,360.38H93.4V268.3H468.32v92.08H203.26a7.5,7.5,0,0,0,0,15H231A303.26,303.26,0,0,0,241.07,417H181.24a181.84,181.84,0,0,1-20.91-41.57h7.93a7.5,7.5,0,0,0,0-15ZM326.9,432v66.2c-25.17-4.11-48.3-28.74-64.22-66.2Zm-70-15a281.07,281.07,0,0,1-10.7-41.57H326.9V417Zm85,81.19V432h64.23C390.21,469.39,367.09,494,341.9,498.14Zm0-81.19V375.38h80.68A280.75,280.75,0,0,1,411.88,417ZM192.52,432H246.4c9.89,25.21,22.84,45.63,37.81,59.76A186.69,186.69,0,0,1,192.52,432Zm192.06,59.76c15-14.13,27.93-34.54,37.82-59.76h53.89A186.65,186.65,0,0,1,384.58,491.71Zm103-74.76H427.74a304.73,304.73,0,0,0,10.07-41.57h70.67A181.84,181.84,0,0,1,487.57,417Z"/></svg>