<svg xmlns="http://www.w3.org/2000/svg" viewBox="0 0 659.22 649.53">
    <path fill="currentColor"
          d="M547.6,386.78H496.66V128.88a12.74,12.74,0,0,0-12.74-12.74H133.68a12.74,12.74,0,0,0-12.74,12.74v257.9H70a12.74,12.74,0,0,0-12.74,12.74V542.8A12.74,12.74,0,0,0,70,555.54H547.6a12.74,12.74,0,0,0,12.74-12.74V399.52A12.74,12.74,0,0,0,547.6,386.78ZM146.41,141.61H471.19v250.7l-70.4,42.23h-184l-70.39-42.23ZM534.87,530.06H82.73V412.25h47.42l76.57,45.95a12.77,12.77,0,0,0,6.56,1.82h191a12.77,12.77,0,0,0,6.56-1.82l76.57-45.95h47.42Z"/>
    <path fill="currentColor"
          d="M273.78,367.68V233.87L407.5,193.75V295.62A44.54,44.54,0,1,0,433,335.84V176.64a12.73,12.73,0,0,0-16.4-12.2L257.38,212.2a12.74,12.74,0,0,0-9.08,12.2V327.46a44.54,44.54,0,1,0,25.48,40.22ZM388.4,354.94a19.11,19.11,0,1,1,19.1-19.1A19.12,19.12,0,0,1,388.4,354.94ZM210.09,367.68a19.11,19.11,0,1,1,19.11,19.1A19.13,19.13,0,0,1,210.09,367.68Z"/>
</svg>