<svg xmlns="http://www.w3.org/2000/svg" viewBox="0 0 659 650">
    <path fill="currentColor"
          d="M337 42a276 276 0 100 553 276 276 0 000-553zM227 455a59 59 0 01-43 18q-25 0-43-18t-18-43q0-25 18-43t43-18a61 61 0 0161 61q0 26-18 43zm155-41q0 24-19 42a61 61 0 01-44 17q-26 0-44-17t-19-44q0-25 19-43a61 61 0 0144-18 63 63 0 0135 11q16 10 22 26h-26q-11-16-32-16a39 39 0 00-28 11q-12 12-12 30t12 28q12 12 29 12a38 38 0 0021-6 38 38 0 0014-15h-49v-21h77zm136 0q0 24-19 42a61 61 0 01-43 17q-27 0-45-17t-19-44q0-25 19-43a61 61 0 0144-18 63 63 0 0135 11q16 10 22 26h-26q-11-16-31-16a39 39 0 00-29 11q-12 12-12 30t12 28q12 12 30 12a38 38 0 0020-6 38 38 0 0014-15h-49v-21h77v3zM344 79c129 4 232 109 232 240v1A276 276 0 01344 79z"/>
    <path fill="currentColor"
          d="M184 372a38 38 0 00-28 12 41 41 0 000 57 39 39 0 0056 0 42 42 0 000-57 38 38 0 00-28-12z"/>
</svg>