<svg xmlns="http://www.w3.org/2000/svg" viewBox="0 0 659.22 649.53"><title>TIF </title><path fill="currentColor" d="M591.81,69.81H84.23A8.22,8.22,0,0,0,76,78V585.61a8.22,8.22,0,0,0,8.22,8.22H591.81a8.22,8.22,0,0,0,8.22-8.22V78A8.22,8.22,0,0,0,591.81,69.81Zm-8.22,507.58H92.46V86.25H583.59Z"/><path fill="currentColor" d="M132.66,505.66H543.38a8.23,8.23,0,0,0,8.23-8.22V123.72a8.24,8.24,0,0,0-8.23-8.23H132.66a8.24,8.24,0,0,0-8.23,8.23V497.44A8.23,8.23,0,0,0,132.66,505.66Zm8.22-88.16c20-33.08,40.41-64,58.86-89.74a40.5,40.5,0,0,1,6.8-3.27,48.83,48.83,0,0,1-3.07,7.36c-4,8.48-11.58,24.26,7.57,35.21,5.26,3,10.84,5.46,16.1,3s6.09-7.55,6.6-10.32c.67-3.61.83-4.48,7-4.65a148.67,148.67,0,0,0,18.54-1.8c9.87-1.44,9.87-1.44,11.91,4,1,2.75,1.79,5.23,2.47,7.43,3.57,11.61,7.9,18.06,19.09,18.06a53.53,53.53,0,0,0,13.63-2.18c19-5.12,16.87-20.37,16-26.88l0-.23c4,.41,5.4,1.69,8.3,4.38a45.88,45.88,0,0,0,14.23,9.57,25.9,25.9,0,0,0,25.69-2.37c38.71,45.66,77.81,94.93,99.28,124.11H140.88ZM306,356c.94,6.77.89,7.44-4,8.75-6.32,1.71-9,1.77-9.9,1.77-.27,0-.37,0-.34,0-.67-.75-1.68-4-2.48-6.63s-1.63-5.28-2.79-8.37c-6.7-17.86-18.37-16.17-29.7-14.51a133.62,133.62,0,0,1-16.61,1.64c-14.95.41-19.8,8.06-21.64,13.75-4.66-2.71-4.92-3.81-.3-13.5,2.52-5.28,5.37-11.26,5-17.9-.4-7.51-4.69-10.79-7.21-12.08a11.93,11.93,0,0,0-2-.69c23.51-30.94,42.09-50.48,49.52-50.48h.26c11.92,1.32,52.51,44.24,95.83,94.67a10,10,0,0,1-8.42-.09,29.85,29.85,0,0,1-9.52-6.51c-4.35-4-9.29-8.63-21.62-8.92-5.08,0-8.84,1.32-11.47,4.27C304.63,345.76,305.44,351.68,306,356ZM490,489.21c-9.91-13.48-42.67-56.4-80.6-102.81a3.53,3.53,0,0,0,.21-.32c4-6,21.1-25.65,38.94-43.59,2.06-.52,4.75-.8,5.84-.2.29.15.49,1,.53,1.2l.63,3c1.51,7.36,2.94,14.31,9.33,18,6,3.44,13,1.81,18.49,0a39.56,39.56,0,0,1,7.56-2,38.87,38.87,0,0,1,1.32,7.07c1.17,9.31,6.33,12.7,9.3,13.89a13.29,13.29,0,0,0,4.93.94,15.72,15.72,0,0,0,9.88-3.72,21.33,21.33,0,0,0,7.22-20.43c-.14-.8-.32-1.84-.5-2.91A23.43,23.43,0,0,0,534.2,355l1,1.65V489.21Zm16.36-132.29a16,16,0,0,0-6.42-8.59c-6.4-4-14.26-1.92-21.77.59a21.82,21.82,0,0,1-4.83,1.16,56.11,56.11,0,0,1-1.68-6.86L471,340a17.48,17.48,0,0,0-7.81-11.61c12.08-11,22.86-19.2,28.1-19.2,8.48,0,22.44,15.56,33.75,31.69a4.16,4.16,0,0,1-1.45,0c-3.64-.76-9.73-2-14.2,2.29C505.85,346.63,505.61,351.12,506.38,356.92Zm28.78-225V326.63c-11.82-16.09-28.37-33.88-43.86-33.88-4.53,0-16.23.08-52.73,36.5l-.13.14c-1.89,1.88-3.79,3.78-5.81,5.86-6.79,7-25.06,26.14-33.83,38.22-7-8.42-14-16.87-21.12-25.21a8.93,8.93,0,0,0-.7-.82c-46.82-55-94-104.87-112-106.07-10.6-.54-29.07,7.58-77.61,75.44l0,0c-2.31,3.23-4.67,6.55-7.12,10.06-15.11,21.65-29.25,43.45-39.37,59.46V131.94Z"/><path fill="currentColor" d="M403.81,264.89a55.06,55.06,0,1,0-55.05-55.06A55.12,55.12,0,0,0,403.81,264.89Zm0-93.66a38.61,38.61,0,1,1-38.6,38.6A38.65,38.65,0,0,1,403.81,171.23Z"/></svg>