<svg xmlns="http://www.w3.org/2000/svg" viewBox="0 0 659.22 649.53"><title>BMP </title><path fill="currentColor" d="M236.16,465c-8.4,0-17,1.22-25.09-.47-4.58-1-10.38-6.13-11.48-10.46-.86-3.39,3.77-11.06,7.47-12.29,36.45-12.06,48.76-41.48,54.37-75.11C270.55,312,311.06,277.37,366.62,279a28,28,0,0,1,16.49,6.81c12.77,11.51,24.95,23.74,36.67,36.33,13.12,14.1,9.1,31.72,6.85,47.92-3.54,25.55-18.42,44.63-39.55,58.8-31.94,21.42-68.32,29.23-105.7,33.44-15,1.69-30.11,2.28-45.17,3.36Zm65.93-23.56c34.16-6.83,64.43-14.2,86.93-38.05,6.44-6.82,10.82-15.8,15.21-24.27,3.51-6.77,2.23-13.64-5.43-16.87s-13.25.28-15.82,7.78c-6.09,17.84-19.82,28-36.17,34.4-14,5.46-29.05,8-43.09,13.28-4.75,1.8-10.5,7.91-10.82,12.41C292.62,434,299.4,438.43,302.09,441.48Z"/><path fill="currentColor" d="M612.37,120.47c-3.62,11.52-5.8,23.77-11.12,34.45-28.19,56.58-71.11,99.33-125.59,130.87-5.42,3.14-9.42,3.53-14.27-1.52q-20.08-20.94-41.17-40.9c-4.92-4.68-5.14-8.53-1.88-14.16C450.07,174.33,493,131,550.17,103c10.6-5.2,23.18-7.74,35.06-8.62C602.13,93.1,610.59,102.81,612.37,120.47Z"/><path fill="currentColor" d="M130.35,465.08q-18.25,0-36.52,0c-7.74,0-13.36-3.17-13.76-11.4-.44-8.94,5.28-12.94,13.51-13,24.78-.2,49.55-.15,74.32,0,8.34,0,14.16,4.09,13.81,12.79s-6.49,11.83-14.83,11.7C154.71,464.93,142.53,465.08,130.35,465.08Z"/><path fill="currentColor" d="M131.45,485.5c11.74,0,23.48.16,35.22-.06,8.28-.15,14.55,2.91,15.05,11.52s-5.64,12.78-13.81,12.85c-24.73.21-49.47.28-74.21,0-8-.09-14.13-4-13.65-13s6.8-11.58,14.92-11.5c12.16.13,24.32,0,36.48,0Z"/><path fill="currentColor" d="M456.24,307.76c-2.06,2.52-3.84,6.72-6.69,7.66-3.43,1.14-9.2,1-11.51-1.16-16.48-15.53-32.64-31.44-48.07-48-2.25-2.42-1.79-10.49.57-13.15s10.7-3.82,12.86-1.81c17.19,16,33.57,32.82,50.05,49.54C454.78,302.18,455,304.59,456.24,307.76Z"/></svg>