<svg xmlns="http://www.w3.org/2000/svg" viewBox="0 0 659.22 649.53">
    <path fill="currentColor"
          d="M351.93,203.16A79.82,79.82,0,1,0,431.75,283,79.82,79.82,0,0,0,351.93,203.16ZM327.54,315.67V250.28L396.34,283Z"/>
    <path fill="currentColor"
          d="M351.93,382.51A99.53,99.53,0,1,1,451.45,283,99.64,99.64,0,0,1,351.93,382.51Zm0-189A89.51,89.51,0,1,0,441.44,283,89.62,89.62,0,0,0,351.93,193.47Z"/>
    <path fill="currentColor"
          d="M506.73,77.49H177.3a36.92,36.92,0,0,0-36.88,36.89V141.7H122.66A27.33,27.33,0,0,0,95.34,169V498.46a27.35,27.35,0,0,0,27.32,27.33H452.08a27.35,27.35,0,0,0,27.33-27.33V480.7h27.32a36.94,36.94,0,0,0,36.89-36.9V114.38A36.93,36.93,0,0,0,506.73,77.49Zm17.76,366.3a17.79,17.79,0,0,1-17.76,17.77H177.3a17.78,17.78,0,0,1-17.75-17.77V114.38A17.78,17.78,0,0,1,177.3,96.61H506.73a17.79,17.79,0,0,1,17.76,17.77Z"/>
</svg>