<svg xmlns="http://www.w3.org/2000/svg" viewBox="0 0 659.22 649.53"><path fill="currentColor" d="M513.87,280.56a24.74,24.74,0,1,0-9.32-48.6l-5,1v-11.2h9.67a24.75,24.75,0,0,0,0-49.49h-58l-64.66-29.64a24.76,24.76,0,0,0-10.31-2.25H213.46a24.76,24.76,0,0,0-17.5,7.25l-32.08,32.08H133.44a24.75,24.75,0,0,0-24.75,24.74V442.52a24.75,24.75,0,0,0,24.75,24.75h30.44L196,499.35a24.74,24.74,0,0,0,17.5,7.25H376.2a24.76,24.76,0,0,0,10.31-2.25l63.54-29.13v14.35h-9.67v49.49h68.83V489.57h-9.68V474.71h9.68a24.75,24.75,0,0,0,0-49.49h-9.68V407.09l14.33-2.74a24.75,24.75,0,0,0-9.31-48.61l-5,1V345.2l14.33-2.74a24.75,24.75,0,0,0-9.31-48.61l-5,1V283.32ZM343.11,417.78H158.18V348.21H343.11Zm0-119H158.18V229.16H343.11Zm106.94-56.32-14.33,2.75a24.75,24.75,0,0,0,4.63,49,25.07,25.07,0,0,0,4.69-.45l5-1v11.49L435.72,307a24.75,24.75,0,0,0,4.63,49,25.05,25.05,0,0,0,4.69-.44l5-1v11.49l-14.33,2.75A24.75,24.75,0,0,0,440.35,418a25.05,25.05,0,0,0,4.69-.44l5-1v8.64h-4.28a24.61,24.61,0,0,0-10.31,2.25l-43.34,19.86a24.6,24.6,0,0,0,.48-4.81V204.41a24.67,24.67,0,0,0-.48-4.81l43.34,19.87a24.76,24.76,0,0,0,10.31,2.25h4.28Z"/></svg>