<svg xmlns="http://www.w3.org/2000/svg" width="300" height="345" viewBox="0 0 300 345">
  <g>
    <path d="M1070.587,810.561q.062-41.752.094-83.49c.961-3.647-1.057-7.644,1.27-11.131,15.541,8.98,31.923,16.315,47.905,24.439,12.722,6.468,25.644,12.508,38.472,18.736V867.259c-4.129.12-6.936-3.474-10.864-3.915-17.037-9.7-34.942-17.706-52.382-26.66-5.065-2.6-10.3-4.851-15.474-7.256-7.831-2.886-10.209-8.646-8.766-16.476A8.759,8.759,0,0,0,1070.587,810.561Z" transform="translate(-1014.204 -590.685)" fill="currentColor"/>
    <path d="M1078.07,867.408V759.264c14.125-8.285,28.984-15.1,43.709-22.2,13.978-6.748,28.183-13.055,41.465-21.14,2.513,3.982.335,8.525,1.484,12.667q0,41.711-.015,83.424c.937,8.592-.88,15.621-10.354,18.333q-27.382,13.449-54.747,26.925c-4,1.978-7.871,4.209-11.8,6.321C1084.3,864.188,1081.732,867.194,1078.07,867.408Z" transform="translate(-921.145 -590.834)" fill="currentColor"/>
    <path d="M1243.155,753.744c-13.282,8.1-27.487,14.405-41.464,21.14-14.726,7.109-29.584,13.911-43.709,22.208-12.828-6.227-25.75-12.279-38.471-18.734-15.971-8.124-32.363-15.46-47.906-24.44,3.649-3.38,8.739-4.208,12.614-7.175,21.126-10.343,42.359-20.485,63.02-31.763,6.774-4.316,13.59-4.316,20.4-.067q26.118,13.329,52.248,26.619c4.718,2.392,9.582,4.476,14.38,6.708C1237.235,750.069,1240.19,751.913,1243.155,753.744Z" transform="translate(-1000.579 -642.586)" fill="currentColor"/>
    <path d="M1097.938,764.908c-6.815-4.235-13.63-4.235-20.4.081-.12-16.169-.36-32.338-.268-48.507.041-6.374,4.249-9.915,10.784-9.929,5.96,0,10.063,3.635,10.1,9.849C1098.26,732.571,1098.032,748.74,1097.938,764.908Z" transform="translate(-930.801 -706.553)" fill="currentColor"/>
    <path d="M1088.3,731.924c3.661-.214,6.227-3.22,9.741-3.794.081,15.967.255,31.936.161,47.918-.041,6.667-3.89,10.3-10.21,10.369-6.748.053-10.7-3.541-10.729-10.478-.082-15.967.105-31.949.173-47.918C1081.378,728.451,1084.169,732.044,1088.3,731.924Z" transform="translate(-930.823 -441.418)" fill="currentColor"/>
    <path d="M1109.185,724.071a8.723,8.723,0,0,1,.253,2.392c-1.444,7.831.937,13.59,8.766,16.476-11.584,9.728-24.1,18.174-36.681,26.486-4.329,2.859-10.637.667-13.455-3.608-2.926-4.437-2.565-11.238,1.978-14.459C1083.02,742.164,1095.354,732.035,1109.185,724.071Z" transform="translate(-1066.141 -490.202)" fill="currentColor"/>
    <path d="M1084.829,742.5c9.474-2.712,11.291-9.741,10.356-18.333,12.813,8.405,25.683,16.716,38.391,25.256,4.717,3.167,6,10.436,3.128,14.792-3.289,5-9.462,7.015-14.405,3.755C1109.7,759.66,1096.748,751.83,1084.829,742.5Z" transform="translate(-838.273 -488.991)" fill="currentColor"/>
    <path d="M1093.715,744.7c-2.953-1.831-5.919-3.675-8.886-5.505,11.72-9.3,24.32-17.291,37.082-25.015a10.716,10.716,0,0,1,15.072,3.541c2.778,4.73.948,11.453-4.356,14.993-12.428,8.3-24.948,16.45-37.429,24.668C1094.05,753.225,1096.24,748.695,1093.715,744.7Z" transform="translate(-838.273 -633.542)" fill="currentColor"/>
    <path d="M1123.189,737.736c-3.86,2.967-8.951,3.795-12.6,7.176-2.325,3.487-.319,7.483-1.268,11.131q-18.523-11.506-37.029-22.984c-5.852-3.622-7.724-9.608-4.639-15.233,2.914-5.292,9.662-7.042,15.476-3.555,11.586,6.949,23.023,14.125,34.475,21.287C1119.367,736.653,1121.024,737.776,1123.189,737.736Z" transform="translate(-1066.182 -633.58)" fill="currentColor"/>
  </g>
</svg>
