<svg xmlns="http://www.w3.org/2000/svg" viewBox="0 0 659.22 649.53"><path fill="currentColor" d="M215.34,225.34c-11.23,42.32-22.46,84.68-34,128.28l127.53,34.31c-14.23,61.23-82.43,112.36-158.78,94.37C75.48,464.73,31.61,386.82,54.79,313.13,78.33,238.31,157.08,207.05,215.34,225.34Z"/><path fill="currentColor" d="M205.69,338.7l28.4-105.58c44.49,14.3,86.8,71.15,78.77,134.16Z"/><path fill="currentColor" d="M584.6,221.05v23H299.38v-23Z"/><path fill="currentColor" d="M584.54,462.74v22.75h-285V462.74Z"/><path fill="currentColor" d="M584.57,402v23.49H574.49c-75.23,0-150.46-.16-225.69.22-8.75.05-11.48-2.51-10.4-10.78.53-4.06.09-8.25.09-12.93Z"/><path fill="currentColor" d="M339.19,281.22H584.43v22.34H339.19Z"/><path fill="currentColor" d="M364.17,363.82V341.73H584.33v22.09Z"/></svg>