<svg xmlns="http://www.w3.org/2000/svg" viewBox="0 0 659.22 649.53"><path fill="currentColor" d="M339.56,227a8.57,8.57,0,0,0-6.08-2.52h0a8.59,8.59,0,0,0-6.09,2.54L208.68,346.79A92.7,92.7,0,0,0,315.21,495.48l-22.14,51.18a8.61,8.61,0,0,0,11.1,11.41,78.79,78.79,0,0,1,58.81,0,8.61,8.61,0,0,0,11.09-11.41l-22.63-52.32a92.7,92.7,0,0,0,107-148.43Zm-6,308.14a95.67,95.67,0,0,0-17.47,1.61l17.47-40.38L351,536.77a95.75,95.75,0,0,0-17.47-1.61ZM446.3,464.81a75.44,75.44,0,0,1-105.88.82,8.6,8.6,0,0,0-5.65-2.42l-.77,0a8.59,8.59,0,0,0-6.43,2.51,75.47,75.47,0,1,1-106.7-106.75h0L333.51,245.3,446.3,358.08A75.57,75.57,0,0,1,446.3,464.81Z"/><path fill="currentColor" d="M189.91,201.28c5.06,0,11.86-3.33,11.86-7.82a6.46,6.46,0,0,0-.29-1.44l-27.92-91c-1.3-4.33-6.65-6.36-12.15-6.36-5.35,0-10.7,2-12,6.36l-27.92,91a8,8,0,0,0-.29,1.44c0,4.63,6.8,7.82,11.86,7.82,3.18,0,5.64-1,6.37-3.77l5.49-19.23h33.13l5.49,19.23C184.27,200.26,186.72,201.28,189.91,201.28Zm-41.08-37.76,12.58-44.41L174,163.52Z"/></svg>