<svg xmlns="http://www.w3.org/2000/svg" width="300" height="274" viewBox="0 0 300 274">
  <path d="M1218.582,640.432c47.377,0,94.77.1,142.149-.128,5.854-.031,7.477,1.492,7.416,7.375-.322,28.2-.372,56.393.03,84.589.081,6.475-1.928,7.871-7.96,7.63-12.016-.465-24.059-.336-36.073-.033-4.808.128-6.545-1.122-6.4-6.2.353-12.68-.033-25.375.192-38.055.08-4.12-.788-5.723-5.371-5.658q-32.179.384-64.361,0c-4.615-.049-5.373,1.618-5.373,5.706q.195,81.44-.03,162.847c-.016,5.258,1.93,6.14,6.577,6.091,20.73-.208,41.492.065,62.238-.192,4.824-.064,6.513,1.09,6.354,6.155-.355,12.68-.259,25.376-.033,38.071.063,4.04-.66,5.69-5.322,5.675q-94.758-.241-189.543-.016c-4.215.016-5.018-1.491-4.972-5.274.21-12.92.291-25.856-.031-38.777-.111-4.681,1.367-5.882,5.936-5.834,20.985.24,41.974-.048,62.943.224,4.972.065,6.306-1.362,6.288-6.3q-.24-81.054.018-162.142c.016-4.922-1.239-6.316-6.24-6.252q-31.122.433-62.238,0c-5.1-.064-6.932.962-6.736,6.461.465,12.439,0,24.91.223,37.365.081,4.281-.676,6.252-5.66,6.124-12.962-.353-25.94-.305-38.9-.017-4.5.1-5.484-1.506-5.467-5.675.16-29.366.241-58.749-.05-88.115-.062-5.723,2.623-5.707,6.82-5.707Q1146.789,640.512,1218.582,640.432Z" transform="translate(-1068.179 -640.303)" fill="currentColor"/>
</svg>
