<svg xmlns="http://www.w3.org/2000/svg" viewBox="0 0 659.22 649.53">
    <path fill="currentColor"
          d="M604.61,491.12l-33-379.66a26.71,26.71,0,0,0-29-24.39L97.07,126a26.72,26.72,0,0,0-24.39,29l33,379.66a26.71,26.71,0,0,0,29,24.39l445.58-38.89A26.64,26.64,0,0,0,604.61,491.12ZM157.05,503.64l-29-326.93L520.9,142.44l29,326.93Z"/>
    <path fill="currentColor"
          d="M410.16,306.56A9,9,0,0,0,395,307.88l-8.57,15.82A9,9,0,0,1,371.27,325l-56-72.51a9,9,0,0,0-15.16,1.32L200.56,447c-3.3,5.93,1.31,13.18,8.56,13.18l112.06-9.89,137.76-11.86,32.95-2.64c7.26-.66,10.55-8.57,5.94-14.5Z"/>
    <circle fill="currentColor" cx="446.41" cy="231.41" r="43.5"/>
</svg>