<svg xmlns="http://www.w3.org/2000/svg" viewBox="0 0 659.22 649.53"><path fill="currentColor" d="M459.63,93.84l-64.79,8.07c-.43,0,.37.12,0,.2-23.74,4.3-41.11,26.56-41.11,50.7V402.15c-11.64-.13-58.62,0-78.7,7.42-48.28,17.94-73.34,65-57.46,109.48,6.72,18.83,19.15,33.07,36.55,41.19a79.15,79.15,0,0,0,33.86,7.23c12.68,0,26.12-2.6,40.1-7.79,42.79-15.91,60.14-55.81,60.83-57.5,5.92-14.85,11.41-38.12,11.41-54.12V152.79c0-1.6.92-4.26,2.56-4.8L466,140a23.05,23.05,0,0,0,19.92-26A23.61,23.61,0,0,0,459.63,93.84Zm-115,390.87c-.1.23-9.82,22.74-32.86,31.29-15.29,5.69-28.88,6.4-38.3,2-6-2.8-10.15-7.58-12.65-14.62-6-16.73.61-39.55,29.19-50.18,7.65-2.83,34.85-4.55,56.13-4.55h3.49c.67,0,1.33.06,2,.07C351.43,458.87,348.12,475.83,344.58,484.71Z"/></svg>