<svg xmlns="http://www.w3.org/2000/svg" viewBox="0 0 659.22 649.53"><title>TXT </title><path fill="currentColor" d="M153.25,79.54A49.74,49.74,0,0,0,136.11,176V482.22a49.77,49.77,0,0,0,17.14,96.53c21.47,0,39.79-14,46.73-33.24H504.83c6.95,19.22,25.26,33.24,46.74,33.24a50.11,50.11,0,0,0,49.86-49.86c0-21.49-14-39.87-33.24-46.8V176.79c19.25-6.93,33.24-25.24,33.24-46.74a50.11,50.11,0,0,0-49.86-49.86c-21.5,0-39.81,14-46.74,33.24H200.18C193.43,93.86,175,79.54,153.25,79.54Zm0,33.24a16.62,16.62,0,1,1-16.62,16.62A16.37,16.37,0,0,1,153.25,112.78Zm398.32.65A16.62,16.62,0,1,1,535,130.05,16.37,16.37,0,0,1,551.57,113.43ZM199.79,146.67h305A50.18,50.18,0,0,0,535,176.79v305.3a50.17,50.17,0,0,0-30.12,30.19H200a50.13,50.13,0,0,0-30.64-30.39V176.33A50.24,50.24,0,0,0,199.79,146.67ZM236,213.4v.13l-.19,81.86h33.24l.13-48.69h66.73l-.39,198.91-33.3-.13-.13,33.23,100.1.33.13-33.24-33.56-.13.39-199h66l-.07,48.63h33.24l.19-81.93ZM153.25,512.28a16.62,16.62,0,1,1-16.62,16.61A16.36,16.36,0,0,1,153.25,512.28Zm398.32,0A16.62,16.62,0,1,1,535,528.89,16.37,16.37,0,0,1,551.57,512.28Z"/></svg>