<svg xmlns="http://www.w3.org/2000/svg" viewBox="0 0 659.22 649.53">
    <path fill="currentColor"
          d="M474.38,394c-33.71,0-66.56.71-99.35-.34-13.44-.43-19.92,3.87-25.17,16.29-17.58,41.61-33.72,84.1-66.31,117.48-44.25,45.31-95.69,73.35-162,70.55V501.11c57.07-1.07,92.69-31.6,115.11-81.49C266.85,352.35,296,284.49,329,218.6c26-51.86,64.35-94,121.09-113.83,21.2-7.39,44.32-9.43,66.69-13.22,9.15-1.55,13.56,2.49,13.3,13-.71,27.63-.24,55.28-.24,85.91-71.34-3.29-108.34,37.3-127.11,101.49h71.66Z"/>
</svg>