<svg xmlns="http://www.w3.org/2000/svg" width="359" height="192" viewBox="0 0 359 192">
  <g>
    <path d="M1377.735,839.809c-4.257,17.473-10.081,34.286-20.386,49.268a135.461,135.461,0,0,1-46.792,42.6c-1.712.937-3.926,1.318-4.479,3.69q-57.974.91-115.932,0c-7.036-6.6-16.075-10.225-23.534-16.354-24.548-20.173-40.11-45.564-46.988-76.532-4.243-19.132-2.121-38.5-2.7-57.781-.092-3.148,1.147-4.611,4.337-4.4,1.343.093,2.7.012,4.058.012q127.033,0,254.078.014C1379.039,800.16,1380.316,820.043,1377.735,839.809Z" transform="translate(-1116.89 -780.168)" fill="currentColor"/>
    <path d="M1183.541,792.942q62.341.987,124.693,0,25.4.217,50.8.448c9.486.079,15.021,4.849,14.876,12.82-.145,8.1-4.836,12.019-14.679,12.031q-113.3.02-226.6-.013c-10.118,0-14.929-4.217-14.731-12.7.158-7.5,5.745-12.057,14.851-12.136Q1158.143,793.173,1183.541,792.942Z" transform="translate(-1104.751 -626.25)" fill="currentColor"/>
    <path d="M1138.182,844.422c2.78-21.268,1.424-42.653,1.792-63.987,23.218,0,46.422.21,69.628-.159,6.324-.091,8.051,2,7.233,7.932-4.507,32.561-31.2,56.055-64.146,56.24C1147.854,844.474,1143.018,844.435,1138.182,844.422Z" transform="translate(-858.024 -780.273)" fill="currentColor"/>
  </g>
</svg>
