<svg xmlns="http://www.w3.org/2000/svg" viewBox="0 0 659.22 649.53"><defs><style>.cls-1{fill:#231f20;}</style></defs><title>PDF </title><path fill="currentColor" d="M573.2,273.44c0,38.12-.45,76.24.29,114.34.31,15.83-2.56,24-21.33,26.09C473.37,422.76,412.93,465.64,363.05,524c-20.3,23.74-33.08,24.08-54,.56C258,467.08,199.91,419.17,118.23,414c-16.35-1-19.89-8.07-19.8-23q.73-118.41-.27-236.84C98,134.24,108.24,131.51,124,133.48c69.72,8.74,129.73,36.87,176.91,89.74,20.15,22.58,35.9,32.72,62.78,3.72,44.15-47.62,99.92-78.24,164.89-91.17,31.24-6.22,48.73-3,45.24,35.64C570.75,205.17,573.16,239.41,573.2,273.44Zm-36.28,2.73h.17c0-27.16-.45-54.33.19-81.48.34-14.55-2.54-25.28-19.9-20.27-50.63,14.6-93,43.1-130.88,79.13-18.92,18.92-14.09,42.62-14.09,81.06a373.93,373.93,0,0,0-.07,50.6s1,63.18,6.2,68.41c14.21,6.57,27.09-9.59,36.17-17.56,44-27.71,60.78-34.09,96-44.73,15.74-4.77,26.84-14.49,26.4-33.68C536.46,330.5,536.92,303.33,536.92,276.17ZM299.76,459.4c0-65.4-.11-122.13.11-178.86,0-8.63-2.17-15.3-8.61-21.53-37.54-36.32-79.28-65.76-129.4-82.4-18.78-6.23-27.56-2.85-27.17,19.33.93,53.11.36,106.26,0,159.39-.1,13.14.49,24.82,16.78,27.61C205.32,392.19,249.23,421.67,299.76,459.4Z"/></svg>