<svg xmlns="http://www.w3.org/2000/svg" viewBox="0 0 659.22 649.53">
    <path fill="currentColor"
          d="M589.67,234.78V410a23.33,23.33,0,0,1-13.55,21.26,24.74,24.74,0,0,1-9.81,2.11A23.32,23.32,0,0,1,551.36,428l-104.9-87.61a23.36,23.36,0,0,1-3.08-32.89,23.06,23.06,0,0,1,3.08-3.09l105.13-87.61a23.36,23.36,0,0,1,38.32,18Z"/>
    <path fill="currentColor"
          d="M338.52,182.22H128.26a58.17,58.17,0,0,0-58.17,58.17V403.93a58.17,58.17,0,0,0,57.7,58.64h210.5A58.41,58.41,0,0,0,396.7,404.4V240.86a58.4,58.4,0,0,0-58.17-58.64Zm-11.68,93.45a23.37,23.37,0,1,1,23.37-23.37A23.36,23.36,0,0,1,326.84,275.67Z"/>
</svg>