<svg xmlns="http://www.w3.org/2000/svg" width="300" height="300" viewBox="0 0 300 300">
  <g>
    <path d="M1010.679,925.945c-1.1-80.5,67.087-150.044,150.9-149.319,78.923.7,148.878,63.028,149.083,150.017.207,83.5-66.538,150.21-151.211,149.977C1076.656,1076.387,1009.349,1007.921,1010.679,925.945Zm150.031-123.9c-67.513-.946-125.259,53.435-125.342,124.49-.068,70.6,56.663,124.478,124.464,124.889a124.573,124.573,0,0,0,125.7-124.341C1285.82,856.479,1228.348,801.234,1160.71,802.044Z" transform="translate(-1010.659 -776.62)" fill="currentColor"/>
    <path d="M1066.74,783.97a48.836,48.836,0,0,1,49.219,48.481c.175,26.4-22.38,48.789-49.057,48.869-26.865.082-48.99-20.876-48.962-48.694C1017.979,803.586,1041.138,783.245,1066.74,783.97Zm-.255,72.486c14.138.081,24.476-9.68,24.623-23.253.161-14.056-11.023-25.59-24.555-25.335a24.87,24.87,0,0,0-24.046,24.556C1042.4,845.984,1052.778,856.375,1066.485,856.456Z" transform="translate(-917.043 -682.504)" fill="currentColor"/>
    <path d="M1014.29,875.881c.5-38.907,26.717-75.169,62.631-88.837a102.528,102.528,0,0,1,32.289-6.765c8.619-.363,14.337,4.321,14.769,11.2.495,7.935-4.458,13.385-13.091,13.492-34.961.416-64.471,26.678-70.834,59.772-.859,4.485-.671,9.183-1.477,13.694-1.4,7.787-6.672,12.593-12.659,12.084-7.439-.645-11.6-5.813-11.628-14.473Z" transform="translate(-963.877 -729.81)" fill="currentColor"/>
    <path d="M1038.271,896.458c-1.852,0-3.7.067-5.544-.013-7.479-.322-11.9-4.565-12.031-11.507-.132-6.887,4.78-11.922,12.151-12.3,15.05-.779,29.173-4.377,41.5-13.467,18.863-13.907,30.114-32.045,31.27-55.917.215-4.578.509-9.572,4.2-12.834,3.53-3.115,7.841-5.075,12.767-2.753,5.062,2.39,7.841,6.284,7.841,12a92.4,92.4,0,0,1-15.185,51.716C1097.088,879.1,1071.339,894.067,1038.271,896.458Z" transform="translate(-881.331 -647.569)" fill="currentColor"/>
  </g>
</svg>
