<svg xmlns="http://www.w3.org/2000/svg" viewBox="0 0 659.22 649.53">
    <title>ext</title>
    <path fill="currentColor"
          d="M336.74,42.18c-152.63,0-276.35,123.73-276.35,276.36S184.11,594.9,336.74,594.9,613.1,471.16,613.1,318.54,489.37,42.18,336.74,42.18ZM227.39,455.45a59.18,59.18,0,0,1-43.32,17.87q-25.53,0-43.49-17.87t-18-43.05q0-25.18,18-43.14t43.49-18a61.17,61.17,0,0,1,61.28,61.1Q245.35,437.59,227.39,455.45ZM381.64,413.8q0,24.32-18.4,41.92a61.18,61.18,0,0,1-43.77,17.6q-26.24,0-44.72-17.78t-18.49-43.15q0-25.17,18.49-43.14A61.25,61.25,0,0,1,319,351.3a63.09,63.09,0,0,1,34.95,10.56q16.28,10.58,21.75,26.24H349.76q-10.92-16.56-31.34-16.55a38.59,38.59,0,0,0-28.61,11.89q-11.71,11.88-11.71,29.14T290,441.45q11.89,11.63,29.49,11.62A38.21,38.21,0,0,0,340,447.35a37.64,37.64,0,0,0,14.17-15.76H305V411.34h76.6Zm136.11,0q0,24.32-18.4,41.92a61.15,61.15,0,0,1-43.76,17.6q-26.23,0-44.72-17.78t-18.49-43.15q0-25.17,18.49-43.14a61.23,61.23,0,0,1,44.19-17.95A63.09,63.09,0,0,1,490,361.86q16.29,10.58,21.76,26.24h-25.9q-10.92-16.56-31.34-16.55a38.63,38.63,0,0,0-28.62,11.89q-11.7,11.88-11.71,29.14t11.89,28.87q11.88,11.63,29.5,11.62a38.11,38.11,0,0,0,20.5-5.72,37.53,37.53,0,0,0,14.18-15.76H441.14V411.34h76.61v2.46ZM343.53,79c129.23,3.61,232.89,109.42,232.89,239.51,0,.59,0,1.17-.06,1.77C453.87,301.79,357.81,202.88,343.53,79Z"/>
    <path fill="currentColor"
          d="M184.07,371.55a37.58,37.58,0,0,0-28,12,41.48,41.48,0,0,0,0,57.58,38.85,38.85,0,0,0,56,.08,41.59,41.59,0,0,0,0-57.67A37.65,37.65,0,0,0,184.07,371.55Z"/>
</svg>