<svg xmlns="http://www.w3.org/2000/svg" viewBox="0 0 659.22 649.53"><title>ext </title><path fill="currentColor" d="M419,413.73a53.15,53.15,0,0,1,33.62,11.56l-.35-122.62a2.28,2.28,0,0,1,2.24-2.3,2.34,2.34,0,0,1,.91.18,87.41,87.41,0,0,1,52.33,62.72,1.42,1.42,0,0,1-2.6,1.16A39.54,39.54,0,0,0,467.8,345V452.7c.1,1.11.2,2.23.2,3.36a46.07,46.07,0,0,1-49,42.3,46,46,0,0,1-49-42.3A46,46,0,0,1,419,413.73Z"/><path fill="currentColor" d="M195.92,310.13a97.69,97.69,0,0,1,61.72,21.3l-.59-225.65a4.2,4.2,0,0,1,4.2-4.2,4.33,4.33,0,0,1,1.59.31,160.84,160.84,0,0,1,96.31,115.46,2.67,2.67,0,0,1-4.78,2.15,72.84,72.84,0,0,0-68.8-35.77V381.79c.19,2,.37,4.09.37,6.18,0,42.91-40.43,77.83-90.11,77.83s-90.1-34.92-90.1-77.83S146.17,310.13,195.92,310.13Z"/></svg>