<svg xmlns="http://www.w3.org/2000/svg" viewBox="0 0 512 512" width="512" height="512">
    <path fill="currentColor"
          d="M384,16H128a24.028,24.028,0,0,0-24,24V472a24.028,24.028,0,0,0,24,24H384a24.028,24.028,0,0,0,24-24V40A24.028,24.028,0,0,0,384,16Zm8,456a8.009,8.009,0,0,1-8,8H128a8.009,8.009,0,0,1-8-8V40a8.009,8.009,0,0,1,8-8H384a8.009,8.009,0,0,1,8,8Z"/>
    <path fill="currentColor"
          d="M368,48H144a8,8,0,0,0-8,8V232a8,8,0,0,0,8,8H368a8,8,0,0,0,8-8V56A8,8,0,0,0,368,48Zm-8,176H152V64H360Z"/>
    <path fill="currentColor"
          d="M256,256A104,104,0,1,0,360,360,104.118,104.118,0,0,0,256,256Zm0,192a88,88,0,1,1,88-88A88.1,88.1,0,0,1,256,448Z"/>
    <path fill="currentColor"
          d="M256,320a40,40,0,1,0,40,40A40.045,40.045,0,0,0,256,320Zm0,64a24,24,0,1,1,24-24A24.028,24.028,0,0,1,256,384Z"/>
    <circle fill="currentColor" cx="256" cy="296" r="8"/>
    <circle fill="currentColor" cx="256" cy="424" r="8"/>
    <circle fill="currentColor" cx="192" cy="360" r="8"/>
    <circle fill="currentColor" cx="320" cy="360" r="8"/>
    <path fill="currentColor"
          d="M224,184a8,8,0,0,1-5.657-13.657l64-64a8,8,0,0,1,11.314,11.314l-64,64A7.974,7.974,0,0,1,224,184Z"/>
    <path fill="currentColor"
          d="M272,184a8,8,0,0,1-5.657-13.657l32-32a8,8,0,0,1,11.314,11.314l-32,32A7.974,7.974,0,0,1,272,184Z"/>
    <path fill="currentColor"
          d="M208,152a8,8,0,0,1-5.657-13.657l32-32a8,8,0,0,1,11.314,11.314l-32,32A7.974,7.974,0,0,1,208,152Z"/>
</svg>
