<svg xmlns="http://www.w3.org/2000/svg" viewBox="0 0 659.22 649.53"><path fill="currentColor" d="M415.32,319.56q0,86.64,0,173.28a38.44,38.44,0,0,1-.69,7.88c-3.08,14.76-16.65,19.16-28.27,9.32-26.72-22.64-53.19-45.6-80.33-67.73-20.81-17-42.46-32.93-63.79-49.26a36.5,36.5,0,0,0-25.3-7.9c-13,.75-26.12.24-39.19.11-16-.16-27.08-11.38-27.09-27.24q0-41.47,0-82.95c0-14.86,9.37-22.73,24.26-22.22,19.67.67,39.38.38,59.07,0,3.3-.06,7-2,9.76-4.06,19.41-14.47,39-28.71,57.81-44,27.62-22.45,54.59-45.69,81.81-68.63,3.47-2.92,6.49-6.43,10.18-9,9.36-6.52,18-3.2,20.62,7.85a46.58,46.58,0,0,1,1.16,10.67Q415.38,232.64,415.32,319.56Z"/><path fill="currentColor" d="M560.91,313.84c.59,31.8-8.53,63.3-30.72,90.45a119.1,119.1,0,0,1-10.81,11.65A13.25,13.25,0,0,1,498.89,413c-4-6.55-4.5-17.46,2.2-24.1a99.06,99.06,0,0,0,27.95-51c7.31-35.23-2.6-65.72-26.22-92.3a30.36,30.36,0,0,1-6.11-10c-2.64-7.72-.22-15.28,5-18.25,7.85-4.45,17.28-3.56,23,2.35C549.37,245.14,561.79,275.42,560.91,313.84Z"/><path fill="currentColor" d="M502.15,320.47c.35,23.5-8.57,43-25.17,59.32-4.32,4.24-11.79,4.16-17.16-.1-6.39-5.05-8.15-11.82-4.55-17.95a24.58,24.58,0,0,1,3.14-4C481,333,481,300,458.39,275.27c-6-6.6-6.63-13-1.75-18.71,5.65-6.66,14.43-6.59,20.66.45C493.3,275.12,501.87,296.2,502.15,320.47Z"/></svg>