<svg xmlns="http://www.w3.org/2000/svg" width="300" height="179" viewBox="0 0 300 179">
  <g>
    <path d="M1027.76,591.748c-17.8-.014-35.591.013-53.386-.027-4.981-.013-8.924-2.182-10.37-7.031-1.328-4.456-.118-8.6,4.141-11.224a14.135,14.135,0,0,1,7.517-1.893q52.261.021,104.537-.039c5.178,0,8.911,2.5,12.065,6.072,2.615,3,.749,8.556-3.733,11.855-2.522,1.866-5.4,2.326-8.5,2.313C1062.613,591.708,1045.187,591.748,1027.76,591.748Z" transform="translate(-872.915 -571.49)" fill="currentColor"/>
    <path d="M1026.93,600.806c-17.231,0-34.461.04-51.69-.013-7.309-.026-11.907-3.352-12.435-8.714-.67-6.689,3.707-11.237,11.422-11.381,9.739-.171,19.477-.04,29.216-.04q37.91,0,75.833.013c7.006.014,11.067,2.787,11.868,7.873,1.184,7.544-3.036,12.2-11.407,12.236C1062.125,600.858,1044.527,600.806,1026.93,600.806Z" transform="translate(-882.047 -461.314)" fill="currentColor"/>
    <path d="M1026.014,577.618c16.126,0,32.252-.027,48.392.013,6.9.014,11.185,3.286,11.684,8.714.552,5.94-3.1,10.055-10.094,11.21a30.73,30.73,0,0,1-5.047.185q-45.006.019-90.027,0a23.483,23.483,0,0,1-6.677-.6c-5.966-1.735-9.135-5.664-8.4-10.816.763-5.349,4.625-8.635,10.646-8.661C993,577.578,1009.507,577.63,1026.014,577.618Z" transform="translate(-845.651 -497.755)" fill="currentColor"/>
    <path d="M1025.987,603.774c-16.14,0-32.266.027-48.393-.013-7.241-.026-11.328-3.286-11.814-9.252-.461-5.652,3.613-9.832,10.619-10.765a34.161,34.161,0,0,1,4.5-.1q45.028,0,90.027-.013a24.206,24.206,0,0,1,7.767.92c5.362,1.761,8.109,5.848,7.334,11.053-.7,4.612-4.705,8.083-9.962,8.108-16.691.092-33.382.04-50.073.04Z" transform="translate(-845.624 -424.801)" fill="currentColor"/>
    <path d="M1021.323,574.613c16.112,0,32.212-.026,48.312.013,7.491.026,11.8,3.732,11.671,9.83-.118,5.455-4.98,9.5-11.617,9.515q-48.6.021-97.191.027c-5.506,0-9.37-2.09-10.961-7.636-1.354-4.718.843-7.873,4.43-10.5,2.169-1.59,4.651-1.223,7.044-1.223C989.11,574.587,1005.224,574.613,1021.323,574.613Z" transform="translate(-901.471 -534.246)" fill="currentColor"/>
    <path d="M1006.531,577.618c12.933,0,25.864-.027,38.8.013,7.464.027,11.184,3.168,11.381,9.424s-3.863,10.566-11.092,10.619q-38.521.257-77.043.013c-5.375-.039-9.884-2.063-11.592-7.9-1.313-4.456.815-7.531,3.877-10.356,2.011-1.853,4.43-1.8,6.86-1.8Q987.12,577.611,1006.531,577.618Z" transform="translate(-956.526 -497.755)" fill="currentColor"/>
    <path d="M1007.154,603.749c-13.116.013-26.233.04-39.363-.012-6.031-.026-10.592-3.72-11.157-8.819-.539-4.955,3.352-9.594,9.227-10.869a21.045,21.045,0,0,1,4.454-.408q36.826-.02,73.665,0c8,.014,12.525,3.5,12.775,9.556.263,6.584-3.352,10.461-10.226,10.527C1033.4,603.827,1020.283,603.749,1007.154,603.749Z" transform="translate(-956.584 -424.788)" fill="currentColor"/>
    <path d="M1021.391,574.63c13.117-.013,26.221-.053,39.336.013,6.94.026,11.343,3.917,11.277,9.739-.053,5.27-4.823,9.555-11.08,9.567q-39.328.1-78.658,0c-6.414-.025-10.527-4.113-10.448-9.909.092-5.822,3.731-9.332,10.237-9.384C995.172,574.551,1008.288,574.63,1021.391,574.63Z" transform="translate(-772.037 -534.25)" fill="currentColor"/>
    <path d="M991.4,591.775c-7.859,0-15.706.065-23.566-.027-6.61-.092-11.21-4.271-11.25-10-.052-5.335,4.456-9.962,10.712-10.054q24.13-.316,48.247.012c6.36.093,10.658,4.574,10.632,10.028-.025,5.691-4.652,9.923-11.224,10.015C1007.109,591.854,999.25,591.775,991.4,591.775Z" transform="translate(-956.538 -571.518)" fill="currentColor"/>
    <path d="M1008.712,600.795c-7.5,0-15.008.079-22.514-.026-7.294-.092-11.905-3.957-12.051-9.871-.133-6.072,4.665-10.2,12.275-10.238q22.493-.1,45,0c7.647.04,12.379,4.062,12.314,10.172-.079,6.073-4.785,9.884-12.525,9.949C1023.708,600.847,1016.217,600.795,1008.712,600.795Z" transform="translate(-743.771 -461.303)" fill="currentColor"/>
    <path d="M1004.676,591.789c-6.177,0-12.367.079-18.544-.026-6.585-.105-11.21-4.324-11.225-10.041-.013-5.481,4.285-9.884,10.685-10.015q19.1-.355,38.206.013c6.4.119,10.7,4.547,10.673,10.028-.026,5.7-4.652,9.91-11.25,10.015C1017.043,591.867,1010.865,591.789,1004.676,591.789Z" transform="translate(-734.503 -571.53)" fill="currentColor"/>
    <path d="M986.2,600.826c-5.994,0-11.973.1-17.953-.026-7.123-.159-11.8-4.364-11.657-10.226.131-5.689,4.639-9.778,11.447-9.856q18.236-.218,36.471,0c7.15.078,11.7,4.271,11.592,10.211-.1,5.7-4.534,9.673-11.394,9.856C998.541,600.944,992.365,600.826,986.2,600.826Z" transform="translate(-956.54 -461.333)" fill="currentColor"/>
    <path d="M996.338,577.672c3.352,0,6.73-.118,10.081.039a9.611,9.611,0,0,1,9.424,8.622c.551,5.139-1.749,9.057-6.69,10.265a54.709,54.709,0,0,1-26.562-.105c-4.876-1.235-6.756-5.56-5.993-10.645.723-4.89,3.667-7.716,8.543-8.1,3.706-.289,7.466-.053,11.2-.053Z" transform="translate(-715.967 -497.771)" fill="currentColor"/>
    <path d="M996.057,604c-3.549,0-7.1.171-10.633-.039-5.309-.315-8.621-3.746-8.95-8.9-.355-5.468,2.037-9.147,7.334-10.212a59.29,59.29,0,0,1,24.379.013c5.429,1.156,8.149,5.283,7.65,10.121-.553,5.348-4.469,8.844-10.265,9.015-3.169.092-6.335.014-9.516.014Z" transform="translate(-715.895 -425.07)" fill="currentColor"/>
    <path d="M976.832,594.877c-3.549,0-7.109.184-10.646-.04-5.165-.329-9.4-4.573-9.594-9.292a9.848,9.848,0,0,1,8.214-9.87,61.182,61.182,0,0,1,23.894.053c5.19,1.064,7.636,4.863,7.268,10.277-.354,5.166-3.666,8.412-9.042,8.871-.367.027-.749.039-1.116.039h-8.978Z" transform="translate(-956.569 -535.191)" fill="currentColor"/>
  </g>
</svg>
