<svg xmlns="http://www.w3.org/2000/svg" viewBox="0 0 659.22 649.53"><path fill="currentColor" d="M429.55,277.57,322.47,169.72,214.69,277.51A74.41,74.41,0,0,0,298.5,397.65v48h47.18v-48a74.4,74.4,0,0,0,83.87-120.08Zm-33.42,71.78a27.25,27.25,0,0,1-38.49,0L322.09,313.8l-35.55,35.55a27.21,27.21,0,0,1-38.49-38.48l74.3-74.3,73.78,74.3A27.24,27.24,0,0,1,396.13,349.35Z"/><rect fill="currentColor" x="172.5" y="69.15" width="47.18" height="47.58" transform="translate(-8.28 165.88) rotate(-45)"/><rect fill="currentColor" x="435.37" y="534.45" width="47.18" height="47.58" transform="translate(-260.3 488.04) rotate(-45)"/></svg>