<svg xmlns="http://www.w3.org/2000/svg" viewBox="0 0 659.22 649.53"><title>WMA </title><path fill="currentColor" d="M585.2,161.43,326.89,40.89a13.8,13.8,0,0,0-11.65,0L56.94,161.43A13.79,13.79,0,0,0,49,173.92V449.44a13.79,13.79,0,0,0,7.95,12.49l258.3,120.54a13.8,13.8,0,0,0,11.65,0L585.2,461.93a13.79,13.79,0,0,0,7.95-12.49V173.92A13.79,13.79,0,0,0,585.2,161.43ZM565.6,311.68v129L321.07,554.78,76.54,440.67v-258L321.07,68.58,565.6,182.69Z"/><path fill="currentColor" d="M255.63,242.8V354.28a48.18,48.18,0,1,0,27.55,43.5V253.05l144.65-43.4v93a48.18,48.18,0,1,0,27.56,43.5v-155c0-.2-.05-.38-.06-.58,0-.48-.08-.94-.14-1.41s-.16-.94-.28-1.42c0-.18-.05-.37-.1-.55s-.19-.42-.27-.64a11,11,0,0,0-.57-1.37,12.47,12.47,0,0,0-.61-1.14q-.35-.57-.75-1.11c-.27-.36-.56-.71-.86-1s-.6-.62-.92-.91-.67-.58-1-.85a11.74,11.74,0,0,0-1.1-.74c-.37-.22-.75-.43-1.14-.62s-.82-.36-1.24-.52-.85-.29-1.29-.4-.83-.19-1.25-.26a12.13,12.13,0,0,0-1.49-.15c-.23,0-.45-.07-.68-.07s-.37,0-.57.06a13.38,13.38,0,0,0-1.42.14,14,14,0,0,0-1.41.27c-.19,0-.37.06-.56.11L265.45,229.6A13.78,13.78,0,0,0,255.63,242.8ZM235,418.45a20.67,20.67,0,1,1,20.66-20.67A20.69,20.69,0,0,1,235,418.45Zm172.2-51.67a20.66,20.66,0,1,1,20.66-20.66A20.68,20.68,0,0,1,407.17,366.78Z"/></svg>