<svg xmlns="http://www.w3.org/2000/svg" viewBox="0 0 659.22 649.53"><title>GZ </title><path fill="currentColor" d="M255.72,427.77c-34.16-34.09-67.38-66.81-100.08-100-30.52-31-29.41-72.61,2.08-103,5.32-5.14,10.55-10.37,15.77-15.6,45.36-45.48,90.45-91.23,136.15-136.36,35.59-35.13,93.47-24.07,112.63,21.38,10.77,25.52,7.33,50.07-10.92,71-8.69,10-20.07,17.61-32.23,28,21.25,20.61,39.22,37.81,56.93,55.27,16.45,16.21,32.91,32.45,48.88,49.13,24.23,25.32,25.85,62,4.4,89.65a112.8,112.8,0,0,1-9.2,10.35q-74.44,74.55-149,149c-26.22,26-58.32,30.86-86.92,14-38.61-22.67-46-73.53-15.26-107.13C237,444.59,246.21,436.81,255.72,427.77Zm93.7,51.2c35.94-35.73,74.57-73.53,112.4-112.11,12.7-12.95,11.46-32.3-1.28-46.41-8.05-8.9-16.92-17.06-25.39-25.58-25-25.18-50.06-50.38-77.18-77.68L253.36,323.85l-24.92-21.14c2.47-4.41,4.48-7.51,6-10.83A35,35,0,1,0,170.74,263c-6.44,14.32-3.39,28.3,9.67,41.42,39.46,39.64,79.32,78.87,118.46,118.82C316.41,441.12,332.6,460.34,349.42,479Zm-79.76-219c37.45-37.5,73.64-73.63,109.71-109.89,17.33-17.42,18.91-38.76,4.27-53.72-15.13-15.46-36.46-13.68-54.75,4.71q-48.81,49.05-97.5,98.23c-3.12,3.15-6,6.57-9.87,10.86C245.39,219.06,261.72,234.06,269.66,259.92Zm9.57,190.17c-10.68,11.35-20.71,20.37-28.71,30.92-11.55,15.21-8.22,34.7,6.48,46.93,13.91,11.58,34.66,10.13,47.53-3.32a34.68,34.68,0,0,0,.81-46.56C297.17,468.73,288.43,459.9,279.23,450.09Z"/><path fill="currentColor" d="M334.22,409.92l89.46-89.6,19.41,22L355.77,429Z"/><path fill="currentColor" d="M353.25,251.13l18.45,19.15-88.36,88.38-16.67-21.05Z"/><path fill="currentColor" d="M388.66,286.81,408,306.9,320.1,394.31l-18.8-20.45Z"/></svg>