<svg width="72" height="72" viewBox="0 0 72 72" fill="none" xmlns="http://www.w3.org/2000/svg">
<ellipse cx="36" cy="35.9471" rx="36" ry="35.9471" fill="#34ADFF"/>
<g clip-path="url(#clip0_3333_8782)">
<path d="M34.4453 39.724C34.4453 39.8175 34.411 39.7942 34.3652 39.7474C34.3995 39.7357 34.4224 39.724 34.4453 39.724Z" fill="url(#paint0_linear_3333_8782)"/>
<path d="M38.1741 39.7357C38.1626 39.7474 38.1398 39.7708 38.1283 39.7825C38.1169 39.7591 38.1169 39.7474 38.1055 39.724C38.1283 39.724 38.1512 39.7357 38.1741 39.7357Z" fill="url(#paint1_linear_3333_8782)"/>
</g>
<path d="M35.8247 21C39.434 21.0156 43.4495 22.4375 47.1838 24.7499C51.6993 27.5467 55.3867 31.2654 58.7617 35.3278C59.121 35.7653 59.1367 36.2184 58.7617 36.6559C54.8868 41.3276 50.6056 45.5463 45.1526 48.3899C41.7465 50.1711 38.1216 51.1399 34.2467 50.9836C30.1374 50.8117 26.4031 49.4212 22.9344 47.2806C18.3877 44.4838 14.6846 40.7651 11.2941 36.6871C10.9347 36.2496 10.8879 35.7965 11.2472 35.359C15.2003 30.5935 19.5595 26.3124 25.1531 23.4531C28.3093 21.8594 31.7467 21 35.8247 21ZM35.0435 25.9999C29.528 25.9842 25.0594 30.406 25.0281 35.9371C24.9969 41.4839 29.4343 45.9681 34.981 45.9837C40.4965 45.9994 44.9651 41.5776 44.9964 36.0465C45.0433 30.5154 40.5902 26.0311 35.0435 25.9999Z" fill="white"/>
<g clip-path="url(#clip1_3333_8782)">
<path d="M35 46C40.5228 46 45 41.5228 45 36C45 30.4772 40.5228 26 35 26C29.4772 26 25 30.4772 25 36C25 41.5228 29.4772 46 35 46Z" fill="#34ADFF"/>
<path d="M39.7629 32.1173C39.7629 32.0429 39.7588 31.9644 39.734 31.8941C39.5975 31.456 39.1093 31.2865 38.7163 31.5593C38.1496 31.9479 37.5952 32.3571 37.0285 32.7456C36.9416 32.8076 36.8175 32.849 36.71 32.849C36.1267 32.8531 35.5475 32.8531 34.9642 32.8531C34.3892 32.8531 33.8101 32.8531 33.2351 32.8448C33.1151 32.8448 32.9786 32.7952 32.8834 32.725C32.3374 32.3405 31.7955 31.9479 31.2577 31.5511C31.026 31.3816 30.7819 31.3361 30.5213 31.4643C30.2607 31.5924 30.1573 31.8197 30.1573 32.1091C30.1614 32.8324 30.1573 33.5558 30.1573 34.2791C30.1573 34.9115 30.1531 35.5481 30.1614 36.1805C30.1656 36.4326 30.1738 36.693 30.2111 36.941C30.5958 39.3301 32.627 40.9959 34.9601 41C35.2745 41 35.5889 40.9711 35.9116 40.9091C38.0668 40.4957 39.7381 38.5158 39.7588 36.3293C39.7712 34.9281 39.7629 33.5227 39.7629 32.1173Z" fill="white"/>
<path d="M35.9747 37.3961C36.4627 37.3915 36.8531 37.2194 37.1832 36.8845C37.2296 36.838 37.304 36.8194 37.3691 36.7869C37.3923 36.852 37.4341 36.9217 37.4341 36.9869C37.3737 38.1449 36.4395 39.1355 35.2914 39.275C34.004 39.4285 32.8699 38.6472 32.5584 37.3961C32.2052 35.9869 33.2092 34.5313 34.6454 34.3685C34.7197 34.3592 34.7988 34.3406 34.8731 34.3499C34.9196 34.3545 34.98 34.3871 34.9986 34.4243C35.0126 34.4522 34.9847 34.5173 34.9568 34.5499C34.8871 34.6336 34.7941 34.708 34.729 34.7964C33.9761 35.773 34.5431 37.1868 35.7562 37.3822C35.8306 37.3961 35.9143 37.3915 35.9747 37.3961Z" fill="#34ADFF"/>
</g>
<path d="M54 49C58.4183 49 62 45.4183 62 41C62 36.5817 58.4183 33 54 33C49.5817 33 46 36.5817 46 41C46 45.4183 49.5817 49 54 49Z" fill="#34ADFF"/>
<path d="M54 47C57.3137 47 60 44.3137 60 41C60 37.6863 57.3137 35 54 35C50.6863 35 48 37.6863 48 41C48 44.3137 50.6863 47 54 47Z" fill="white"/>
<path d="M55.9979 38.6923C56.0242 38.7041 56.0522 38.714 56.0775 38.7285C56.2204 38.8082 56.3018 38.9213 56.3072 39.0932C56.3108 39.2344 56.2593 39.3412 56.1625 39.438C54.92 40.6796 53.6784 41.9229 52.4359 43.1654C52.2586 43.3428 52.009 43.3555 51.8327 43.1971C51.6572 43.0396 51.6446 42.7673 51.8046 42.5944C51.8218 42.5754 51.8399 42.5573 51.858 42.5392C53.0897 41.3076 54.3213 40.0751 55.5521 38.8425C55.619 38.7756 55.6932 38.7258 55.7809 38.6923C55.8532 38.6923 55.9256 38.6923 55.9979 38.6923Z" fill="#34ADFF"/>
<path d="M52.8667 38.6923C52.8974 38.7005 52.9282 38.7095 52.9589 38.7177C53.4138 38.8398 53.7249 39.2624 53.7041 39.7285C53.6824 40.2072 53.3351 40.6017 52.864 40.6814C52.2264 40.7882 51.6513 40.2678 51.6947 39.6235C51.7245 39.1701 52.0447 38.8054 52.5004 38.7023C52.5086 38.7005 52.5158 38.6959 52.523 38.6923C52.6379 38.6923 52.7518 38.6923 52.8667 38.6923ZM52.9879 39.6887C52.987 39.5294 52.8567 39.3991 52.6976 39.3991C52.5384 39.3982 52.4055 39.5339 52.4082 39.6932C52.4109 39.8525 52.5429 39.9819 52.7012 39.98C52.8604 39.9782 52.9897 39.847 52.9879 39.6887Z" fill="#34ADFF"/>
<path d="M56.3038 42.3031C56.3427 42.7519 55.9403 43.3058 55.3073 43.3076C54.7529 43.3094 54.2999 42.8542 54.3008 42.2995C54.3017 41.7466 54.7547 41.2932 55.3064 41.295C55.9457 41.2977 56.3445 41.8542 56.3038 42.3031ZM55.0179 42.2958C55.0134 42.4533 55.1409 42.5863 55.301 42.5918C55.4592 42.5972 55.5958 42.466 55.5985 42.3049C55.6012 42.1465 55.4728 42.0153 55.3127 42.0117C55.1535 42.0081 55.0224 42.1348 55.0179 42.2958Z" fill="#34ADFF"/>
<defs>
<linearGradient id="paint0_linear_3333_8782" x1="34.4053" y1="39.724" x2="34.4053" y2="39.7883" gradientUnits="userSpaceOnUse">
<stop stop-color="#FF7A93"/>
<stop offset="1" stop-color="#FF7A93" stop-opacity="0"/>
</linearGradient>
<linearGradient id="paint1_linear_3333_8782" x1="38.1398" y1="39.724" x2="38.1398" y2="39.7825" gradientUnits="userSpaceOnUse">
<stop stop-color="#FF7A93"/>
<stop offset="1" stop-color="#FF7A93" stop-opacity="0"/>
</linearGradient>
<clipPath id="clip0_3333_8782">
<rect width="36.5625" height="33.7004" fill="white" transform="translate(18 19.0969)"/>
</clipPath>
<clipPath id="clip1_3333_8782">
<rect width="20" height="20" fill="white" transform="translate(25 26)"/>
</clipPath>
</defs>
</svg>
