<svg width="72" height="73" viewBox="0 0 72 73" fill="none" xmlns="http://www.w3.org/2000/svg">
<ellipse cx="36" cy="36.4897" rx="36" ry="35.9471" fill="#70C5FF"/>
<g clip-path="url(#clip0_3323_8775)">
<path d="M34.4453 40.2667C34.4453 40.3603 34.411 40.3369 34.3652 40.2901C34.3995 40.2784 34.4224 40.2667 34.4453 40.2667Z" fill="url(#paint0_linear_3323_8775)"/>
<path d="M38.1741 40.2784C38.1626 40.2901 38.1398 40.3135 38.1283 40.3252C38.1169 40.3018 38.1169 40.2901 38.1055 40.2667C38.1283 40.2667 38.1512 40.2784 38.1741 40.2784Z" fill="url(#paint1_linear_3323_8775)"/>
</g>
<path d="M39.3909 51C39.1704 51 39.0549 51 38.9394 51C33.2483 51 27.5573 51 21.8558 50.9891C21.6143 50.9891 21.3413 50.9133 21.1313 50.7724C21.0263 50.7074 20.9842 50.4256 21.0053 50.263C21.6563 44.9198 24.4283 41.1156 29.0693 38.7854C32.1983 37.203 35.5163 36.9212 38.9184 37.7124C38.9604 37.7232 39.0129 37.7449 39.1074 37.7774C36.9548 39.479 35.7893 41.6575 35.8418 44.4429C35.8943 47.1958 37.1228 49.3309 39.3909 51Z" fill="white"/>
<path d="M35.4753 21C39.5073 21 42.7938 24.3923 42.7728 28.5434C42.7623 32.7052 39.4653 36.0867 35.4543 36.065C31.4433 36.0542 28.1778 32.6727 28.1778 28.5325C28.1673 24.3815 31.4433 21 35.4753 21Z" fill="white"/>
<g clip-path="url(#clip1_3323_8775)">
<path d="M45 51C48.866 51 52 47.866 52 44C52 40.134 48.866 37 45 37C41.134 37 38 40.134 38 44C38 47.866 41.134 51 45 51Z" fill="white"/>
<path d="M45.6824 44.9773C46.024 44.974 46.2973 44.8536 46.5283 44.6192C46.5608 44.5866 46.6129 44.5736 46.6584 44.5508C46.6747 44.5964 46.704 44.6452 46.704 44.6908C46.6617 45.5014 46.0077 46.1948 45.2041 46.2925C44.3029 46.3999 43.509 45.853 43.291 44.9773C43.0437 43.9909 43.7465 42.9719 44.7519 42.8579C44.8039 42.8514 44.8592 42.8384 44.9113 42.8449C44.9438 42.8482 44.9861 42.871 44.9991 42.897C45.0089 42.9165 44.9894 42.9621 44.9698 42.9849C44.921 43.0435 44.856 43.0956 44.8104 43.1574C44.2833 43.8411 44.6803 44.8308 45.5295 44.9675C45.5815 44.9773 45.6401 44.974 45.6824 44.9773Z" fill="white"/>
<path d="M48.4639 40C48.5094 40.0204 48.558 40.0376 48.6019 40.0627C48.8495 40.2008 48.9906 40.3968 49 40.6949C49.0063 40.9396 48.9169 41.1247 48.7492 41.2925C46.5955 43.4445 44.4434 45.5997 42.2897 47.7534C41.9824 48.0608 41.5498 48.0828 41.2441 47.8083C40.9401 47.5353 40.9181 47.0632 41.1956 46.7636C41.2253 46.7307 41.2567 46.6993 41.288 46.6679C43.4229 44.5331 45.5578 42.3968 47.6912 40.2604C47.8072 40.1443 47.9357 40.058 48.0877 40C48.2131 40 48.3385 40 48.4639 40Z" fill="#70C5FF"/>
<path d="M43.0354 40C43.0887 40.0141 43.142 40.0298 43.1953 40.0439C43.9838 40.2557 44.523 40.9882 44.4869 41.796C44.4493 42.6258 43.8474 43.3097 43.0307 43.4477C41.9257 43.6328 40.9288 42.7309 41.004 41.614C41.0557 40.8282 41.6106 40.1961 42.4006 40.0173C42.4147 40.0141 42.4273 40.0063 42.4398 40C42.6389 40 42.8364 40 43.0354 40ZM43.2455 41.727C43.2439 41.4509 43.0182 41.225 42.7423 41.225C42.4665 41.2235 42.236 41.4588 42.2407 41.7348C42.2454 42.0109 42.4743 42.2352 42.7486 42.2321C43.0245 42.2289 43.2486 42.0015 43.2455 41.727Z" fill="#70C5FF"/>
<path d="M48.9944 46.2585C49.0618 47.0365 48.3643 47.9964 47.2671 47.9996C46.3062 48.0027 45.5209 47.2137 45.5225 46.2522C45.524 45.2938 46.3093 44.508 47.2655 44.5111C48.3737 44.5158 49.065 45.4805 48.9944 46.2585ZM46.7655 46.2459C46.7576 46.5189 46.9786 46.7494 47.2561 46.7589C47.5304 46.7683 47.7671 46.5408 47.7718 46.2616C47.7765 45.9871 47.5539 45.7597 47.2765 45.7534C47.0006 45.7471 46.7733 45.9667 46.7655 46.2459Z" fill="#70C5FF"/>
</g>
<defs>
<linearGradient id="paint0_linear_3323_8775" x1="34.4053" y1="40.2667" x2="34.4053" y2="40.331" gradientUnits="userSpaceOnUse">
<stop stop-color="#FF7A93"/>
<stop offset="1" stop-color="#FF7A93" stop-opacity="0"/>
</linearGradient>
<linearGradient id="paint1_linear_3323_8775" x1="38.1398" y1="40.2667" x2="38.1398" y2="40.3252" gradientUnits="userSpaceOnUse">
<stop stop-color="#FF7A93"/>
<stop offset="1" stop-color="#FF7A93" stop-opacity="0"/>
</linearGradient>
<clipPath id="clip0_3323_8775">
<rect width="36.5625" height="33.7004" fill="white" transform="translate(18 19.6395)"/>
</clipPath>
<clipPath id="clip1_3323_8775">
<rect width="14" height="14" fill="white" transform="translate(38 37)"/>
</clipPath>
</defs>
</svg>
