<svg width="72" height="72" viewBox="0 0 72 72" fill="none" xmlns="http://www.w3.org/2000/svg">
<ellipse cx="36" cy="35.9471" rx="36" ry="35.9471" fill="url(#paint0_linear_3315_52245)"/>
<g clip-path="url(#clip0_3315_52245)">
<path d="M34.4453 39.724C34.4453 39.8175 34.411 39.7942 34.3652 39.7474C34.3995 39.7357 34.4224 39.724 34.4453 39.724Z" fill="url(#paint1_linear_3315_52245)"/>
<path d="M38.1741 39.7357C38.1626 39.7474 38.1398 39.7708 38.1283 39.7825C38.1169 39.7591 38.1169 39.7474 38.1055 39.724C38.1283 39.724 38.1512 39.7357 38.1741 39.7357Z" fill="url(#paint2_linear_3315_52245)"/>
</g>
<path d="M36.8247 21C40.434 21.0156 44.4495 22.4375 48.1838 24.7499C52.6993 27.5467 56.3867 31.2654 59.7617 35.3278C60.121 35.7653 60.1367 36.2184 59.7617 36.6559C55.8868 41.3276 51.6056 45.5463 46.1526 48.3899C42.7465 50.1711 39.1216 51.1399 35.2467 50.9836C31.1374 50.8117 27.4031 49.4212 23.9344 47.2806C19.3877 44.4838 15.6846 40.7651 12.2941 36.6871C11.9347 36.2496 11.8879 35.7965 12.2472 35.359C16.2003 30.5935 20.5595 26.3124 26.1531 23.4531C29.3093 21.8594 32.7467 21 36.8247 21ZM36.0435 25.9999C30.528 25.9842 26.0594 30.406 26.0281 35.9371C25.9969 41.4839 30.4343 45.9681 35.981 45.9837C41.4965 45.9994 45.9651 41.5776 45.9964 36.0465C46.0433 30.5154 41.5902 26.0311 36.0435 25.9999Z" fill="white"/>
<path d="M35.9969 43.9838C31.5751 43.9682 28.0283 40.3901 28.0283 35.9684C28.0439 31.5466 31.622 27.9998 36.0437 27.9998C40.4655 28.0154 44.0123 31.5779 44.0123 36.0152C43.9967 40.437 40.4186 43.9994 35.9969 43.9838ZM29.8252 36.1402C29.8564 36.3746 29.872 36.7652 29.9501 37.1558C30.0283 37.5308 30.1376 37.9058 30.2783 38.2808C31.3095 40.9214 33.9657 42.4526 36.8875 42.1088C39.4655 41.7963 41.7311 39.5308 42.0905 36.8902C42.2467 35.7965 41.7624 35.2809 40.7311 35.4528C37.7312 35.9684 35.5281 34.2965 35.2 31.2966C35.0906 30.3435 34.4969 29.9841 33.6063 30.3591C31.372 31.2654 29.8252 33.5778 29.8252 36.1402Z" fill="white"/>
<path d="M39.7777 37.5464C39.4183 38.9527 37.809 40.1089 36.1215 40.1714C34.3403 40.2339 32.6216 39.0308 32.0591 37.3121C31.5122 35.6559 32.0904 33.7184 33.4497 32.7966C34.4653 35.8277 36.559 37.4371 39.7777 37.5464Z" fill="white"/>
<g clip-path="url(#clip1_3315_52245)">
<path d="M36 46C41.5228 46 46 41.5228 46 36C46 30.4772 41.5228 26 36 26C30.4772 26 26 30.4772 26 36C26 41.5228 30.4772 46 36 46Z" fill="url(#paint3_linear_3315_52245)"/>
<path d="M40.7629 32.1173C40.7629 32.0429 40.7588 31.9644 40.734 31.8941C40.5975 31.456 40.1093 31.2865 39.7163 31.5593C39.1496 31.9479 38.5952 32.3571 38.0285 32.7456C37.9416 32.8076 37.8175 32.849 37.71 32.849C37.1267 32.8531 36.5475 32.8531 35.9642 32.8531C35.3892 32.8531 34.8101 32.8531 34.2351 32.8448C34.1151 32.8448 33.9786 32.7952 33.8834 32.725C33.3374 32.3405 32.7955 31.9479 32.2577 31.5511C32.026 31.3816 31.7819 31.3361 31.5213 31.4643C31.2607 31.5924 31.1573 31.8197 31.1573 32.1091C31.1614 32.8324 31.1573 33.5558 31.1573 34.2791C31.1573 34.9115 31.1531 35.5481 31.1614 36.1805C31.1656 36.4326 31.1738 36.693 31.2111 36.941C31.5958 39.3301 33.627 40.9959 35.9601 41C36.2745 41 36.5889 40.9711 36.9116 40.9091C39.0668 40.4957 40.7381 38.5158 40.7588 36.3293C40.7712 34.9281 40.7629 33.5227 40.7629 32.1173Z" fill="white"/>
<path d="M36.9747 37.3961C37.4627 37.3915 37.8531 37.2194 38.1832 36.8845C38.2296 36.838 38.304 36.8194 38.3691 36.7869C38.3923 36.852 38.4341 36.9217 38.4341 36.9869C38.3737 38.1449 37.4395 39.1355 36.2914 39.275C35.004 39.4285 33.8699 38.6472 33.5584 37.3961C33.2052 35.9869 34.2092 34.5313 35.6454 34.3685C35.7197 34.3592 35.7988 34.3406 35.8731 34.3499C35.9196 34.3545 35.98 34.3871 35.9986 34.4243C36.0126 34.4522 35.9847 34.5173 35.9568 34.5499C35.8871 34.6336 35.7941 34.708 35.729 34.7964C34.9761 35.773 35.5431 37.1868 36.7562 37.3822C36.8306 37.3961 36.9143 37.3915 36.9747 37.3961Z" fill="#373370"/>
</g>
<defs>
<linearGradient id="paint0_linear_3315_52245" x1="36" y1="0" x2="36" y2="71.8941" gradientUnits="userSpaceOnUse">
<stop stop-color="#8D85F4"/>
<stop offset="1" stop-color="#766BFA"/>
</linearGradient>
<linearGradient id="paint1_linear_3315_52245" x1="34.4053" y1="39.724" x2="34.4053" y2="39.7883" gradientUnits="userSpaceOnUse">
<stop stop-color="#FF7A93"/>
<stop offset="1" stop-color="#FF7A93" stop-opacity="0"/>
</linearGradient>
<linearGradient id="paint2_linear_3315_52245" x1="38.1398" y1="39.724" x2="38.1398" y2="39.7825" gradientUnits="userSpaceOnUse">
<stop stop-color="#FF7A93"/>
<stop offset="1" stop-color="#FF7A93" stop-opacity="0"/>
</linearGradient>
<linearGradient id="paint3_linear_3315_52245" x1="26" y1="26.4762" x2="43.3571" y2="45.5952" gradientUnits="userSpaceOnUse">
<stop stop-color="#6C61EE"/>
<stop offset="1" stop-color="#645BDC"/>
</linearGradient>
<clipPath id="clip0_3315_52245">
<rect width="36.5625" height="33.7004" fill="white" transform="translate(18 19.0969)"/>
</clipPath>
<clipPath id="clip1_3315_52245">
<rect width="20" height="20" fill="white" transform="translate(26 26)"/>
</clipPath>
</defs>
</svg>
