<?xml version="1.0" encoding="UTF-8"?>
<svg width="20px" height="15px" viewBox="0 0 20 15" version="1.1" xmlns="http://www.w3.org/2000/svg" xmlns:xlink="http://www.w3.org/1999/xlink">
    <!-- Generator: Sketch 53.2 (72643) - https://sketchapp.com -->
    <title>Global</title>
    <desc>Created with Sketch.</desc>
    <defs>
        <polygon id="path-1" points="0 4.1025641e-05 17.9228161 4.1025641e-05 17.9228161 7.86605975 0 7.86605975"></polygon>
    </defs>
    <g id="Global" stroke="none" stroke-width="1" fill="none" fill-rule="evenodd">
        <rect id="Rectangle" fill="#FFFFFF" x="0" y="0" width="20" height="15" rx="0.8"></rect>
        <g id="Group-3" transform="translate(1.000000, 4.000000)">
            <mask id="mask-2" fill="white">
                <use xlink:href="#path-1"></use>
            </mask>
            <g id="Clip-2"></g>
            <path d="M15.2569761,5.27396923 C15.2569761,5.27396923 15.2000413,5.08299487 15.0613239,4.9377641 C14.9226065,4.79253333 14.8901283,5.20545641 14.8901283,5.20545641 C14.9226065,5.38781538 15.2569761,5.27396923 15.2569761,5.27396923 M13.827737,5.27396923 C13.7518239,5.24278974 13.7488891,5.25386667 13.7651283,5.16853333 C13.7813674,5.0832 13.6946935,4.98699487 13.6946935,4.98699487 C13.4513022,5.02658462 13.73265,5.32237949 13.8279326,5.39930256 C13.9234109,5.47622564 14.0914761,5.34802051 14.0263239,5.34802051 C13.9611717,5.34802051 13.9038457,5.30535385 13.827737,5.27396923 M14.4581283,5.16853333 C14.1808891,5.21140513 14.1075196,4.98699487 14.1075196,4.98699487 C14.1075196,4.98699487 13.9611717,4.98699487 13.9038457,5.13037949 C13.8942587,5.15417436 13.9200848,5.23684103 14.1564326,5.26248205 C14.3927804,5.28812308 14.547737,5.26248205 14.547737,5.26248205 C14.547737,5.26248205 14.7353674,5.12566154 14.4581283,5.16853333 M15.9785413,2.4512 C15.929237,2.47150769 15.8799326,2.54453333 15.8681935,2.60278974 C15.8153674,2.86555897 15.771737,2.90884103 15.527563,2.93653333 C15.4667152,2.94371282 15.4070413,2.98596923 15.3534326,3.02309744 C15.3379761,3.03396923 15.335237,3.08955897 15.3477587,3.11191795 C15.3581283,3.1297641 15.4033239,3.1406359 15.4266065,3.13284103 C15.5019326,3.10761026 15.5723674,3.0672 15.6476935,3.0417641 C15.8918674,2.95930256 15.9353022,2.89755897 15.929237,2.64299487 C15.92865,2.62145641 15.9576065,2.58761026 15.9801065,2.5792 C16.0266717,2.56196923 16.077737,2.55889231 16.12665,2.54781538 C16.140737,2.54453333 16.1526717,2.53304615 16.1653891,2.52545641 C16.1591283,2.51109744 16.1569761,2.49468718 16.1507152,2.4926359 C16.0926065,2.47499487 16.0239326,2.43273846 15.9785413,2.4512 M15.4577152,4.88073846 C15.4487152,4.87848205 15.4350196,4.89755897 15.4234761,4.90678974 C15.4641717,4.96155897 15.4958674,5.02966154 15.5473239,5.06761026 C15.6408457,5.13653333 15.8036283,5.09653333 15.8259326,5.28545641 C15.8304326,5.32299487 15.9840196,5.38166154 15.9900848,5.3726359 C16.0922152,5.22084103 16.1718457,5.26453333 16.2557804,5.38740513 C16.2702587,5.40853333 16.3019543,5.42022564 16.3283674,5.4272 C16.3418674,5.43109744 16.36065,5.41571282 16.3759109,5.40955897 C16.3694543,5.38412308 16.3700413,5.36935385 16.3631935,5.36258462 C16.252063,5.25161026 16.1561935,5.10658462 16.0241283,5.04094359 C15.8503891,4.95437949 15.6482804,4.92955897 15.4577152,4.88073846 M16.1898457,5.8192 C16.1442587,5.75540513 16.1147152,5.67971282 16.07265,5.61284103 C16.0446717,5.56832821 16.0074978,5.53037949 15.9744326,5.48935385 C15.9734543,5.54432821 15.9801065,5.60094359 15.9701283,5.65407179 C15.9578022,5.71622564 15.9644543,5.81468718 15.8719109,5.80237949 C15.8106717,5.79417436 15.7474761,5.74699487 15.7003239,5.70084103 C15.6780196,5.67909744 15.6926935,5.61817436 15.6854543,5.57612308 C15.6825196,5.55725128 15.6678457,5.52586667 15.6572804,5.52545641 C15.5717804,5.52217436 15.4692587,5.49468718 15.4046935,5.53366154 C15.3236935,5.58268718 15.2786935,5.70104615 15.1571935,5.61735385 C15.1532804,5.61427692 15.1260848,5.64607179 15.1108239,5.66248205 C14.9834543,5.79684103 14.8779978,5.95232821 14.6659109,5.96996923 C14.5309109,5.98125128 14.5097804,6.08361026 14.5091935,6.23068718 C14.5086065,6.35232821 14.5710196,6.43622564 14.6036935,6.53755897 C14.6154326,6.57345641 14.6222804,6.62043077 14.6093674,6.65325128 C14.5743457,6.74371282 14.6013457,6.80586667 14.6901717,6.78986667 C14.7977804,6.77058462 14.9308239,6.76155897 15.0006717,6.69099487 C15.0932152,6.59745641 15.1974978,6.59889231 15.2990413,6.56914872 C15.4260196,6.53222564 15.5097587,6.57796923 15.5923239,6.70637949 C15.6011283,6.72053333 15.635563,6.73550769 15.6381065,6.73181538 C15.7535413,6.59109744 15.8163457,6.74658462 15.8419761,6.79889231 C15.9084978,6.93489231 15.9853891,7.00668718 16.1055196,6.96196923 C16.3129109,6.98822564 16.379237,6.86043077 16.450063,6.72217436 C16.5692152,6.48771282 16.563737,6.30002051 16.4076065,6.09222564 C16.3379543,5.99889231 16.257737,5.9137641 16.1898457,5.8192 M11.26665,2.42822564 C11.2977587,2.42494359 11.3292587,2.42494359 11.3595848,2.4177641 C11.38815,2.41099487 11.4141717,2.39643077 11.4413674,2.38514872 C11.4233674,2.35786667 11.4104543,2.31622564 11.3858022,2.30637949 C11.3490196,2.29181538 11.3034326,2.29366154 11.2631283,2.2992 C11.2206717,2.30535385 11.1807587,2.32812308 11.1383022,2.33653333 C11.0203239,2.35991795 10.9954761,2.41078974 11.0637587,2.51171282 C11.091737,2.55253333 11.131063,2.59068718 11.1733239,2.61304615 C11.2341717,2.64525128 11.2326065,2.66104615 11.1823239,2.70678974 C11.0987804,2.78330256 11.1069978,2.81961026 11.2063891,2.85899487 C11.2423891,2.87314872 11.2817152,2.87889231 11.3083239,2.88545641 C11.4243457,2.88791795 11.4527152,2.85489231 11.4182804,2.74966154 C11.39265,2.67191795 11.3507804,2.59991795 11.3159543,2.52566154 C11.2999109,2.49284103 11.2830848,2.4606359 11.26665,2.42822564 M10.7818239,2.60340513 C10.7528674,2.56566154 10.727237,2.52402051 10.6933891,2.49161026 C10.6573891,2.45673846 10.595563,2.43909744 10.5777587,2.39848205 C10.5452804,2.3246359 10.5182804,2.32258462 10.4756283,2.37899487 C10.4136065,2.46022564 10.3652804,2.45386667 10.3114761,2.36709744 C10.2733239,2.30617436 10.2269543,2.32955897 10.1901717,2.37694359 C10.1586717,2.41714872 10.1216935,2.45468718 10.0988022,2.49961026 C10.0821717,2.53140513 10.0706283,2.57981538 10.0829543,2.60914872 C10.0905848,2.6286359 10.1469326,2.64053333 10.1764761,2.63335385 C10.3283022,2.59561026 10.4779761,2.58412308 10.6274543,2.64196923 C10.6323457,2.64381538 10.6388022,2.64217436 10.6751935,2.64217436 C10.6920196,2.63602051 10.7368239,2.61981538 10.7818239,2.60340513 M17.8898674,1.45509744 C17.8697152,1.46002051 17.8487804,1.46453333 17.8290196,1.47027692 C17.732563,1.49796923 17.6376717,1.5312 17.540237,1.55212308 C17.449063,1.57161026 17.3559326,1.58535385 17.2628022,1.58843077 C17.1072587,1.59314872 17.0953239,1.60196923 17.0495413,1.76361026 C17.0014109,1.93468718 16.8366717,1.99007179 16.729063,2.10207179 C16.72515,2.10596923 16.6983457,2.09612308 16.697563,2.09078974 C16.6879761,2.00217436 16.6533457,1.90166154 16.6813239,1.82822564 C16.7073457,1.76012308 16.80165,1.72073846 16.8664109,1.66925128 C16.8750196,1.66227692 16.8879326,1.66104615 16.8957587,1.65345641 C16.9243239,1.62617436 16.9513239,1.59766154 16.9791065,1.56935385 C16.9100413,1.58904615 16.8885196,1.43396923 16.7983239,1.51889231 C16.7490196,1.56545641 16.6913022,1.60422564 16.6318239,1.63499487 C16.5899543,1.65694359 16.5394761,1.66740513 16.4923239,1.66904615 C16.4169978,1.67150769 16.3385413,1.67335385 16.2659543,1.65550769 C16.0429109,1.60032821 15.8885413,1.7457641 15.7187152,1.84894359 C15.7018891,1.85940513 15.6911283,1.88135385 15.6774326,1.8977641 C15.6958239,1.90699487 15.7134326,1.92114872 15.7328022,1.92484103 C15.7901283,1.93550769 15.848237,1.94022564 15.9059543,1.95007179 C16.0348891,1.97161026 16.0988674,2.08053333 16.0618891,2.21591795 C16.0499543,2.26145641 16.0311717,2.30494359 16.0155196,2.34925128 C16.0026065,2.29714872 15.987737,2.24566154 15.9765848,2.19335385 C15.9695413,2.16053333 15.9671935,2.12648205 15.9630848,2.09325128 C15.9423457,2.12196923 15.9194543,2.14904615 15.9012587,2.17981538 C15.7993239,2.35294359 15.694063,2.51417436 15.4698457,2.53181538 C15.4158457,2.53612308 15.3688891,2.61530256 15.3137152,2.65181538 C15.2252804,2.71007179 15.2853457,2.76361026 15.3039326,2.82761026 C15.3162587,2.86966154 15.2984543,2.92832821 15.2781065,2.9712 C15.2681283,2.99253333 15.2217587,2.99458462 15.1920196,3.00545641 C15.1857587,2.9777641 15.1656065,2.94289231 15.1748022,2.9232 C15.2209761,2.82207179 15.0986935,2.83704615 15.0924326,2.78761026 C15.0810848,2.69673846 15.0554543,2.69755897 14.9744543,2.71191795 C14.9269109,2.72032821 14.8650848,2.63007179 14.8016935,2.70904615 C14.7848674,2.7297641 14.7498457,2.75971282 14.7545413,2.76873846 C14.7678457,2.79643077 14.7936717,2.82104615 14.8204761,2.83704615 C14.8371065,2.84730256 14.8641065,2.83684103 14.8856283,2.84155897 C14.9036283,2.84566154 14.920063,2.85837949 14.9374761,2.8672 C14.930237,2.88155897 14.9261283,2.90473846 14.9153674,2.90884103 C14.8079543,2.95007179 14.8445413,3.0046359 14.8899326,3.07704615 C14.9795413,3.21899487 14.9588022,3.30822564 14.8419978,3.4286359 C14.71815,3.55602051 14.6042804,3.69161026 14.40765,3.68996923 C14.3859326,3.6897641 14.3638239,3.76217436 14.3413239,3.80032821 C14.3217587,3.83417436 14.3014109,3.86802051 14.28165,3.90166154 C14.27265,3.8672 14.2601283,3.83335385 14.2556283,3.79848205 C14.2509326,3.76237949 14.254063,3.72545641 14.2538674,3.68894359 C14.2254978,3.70350769 14.18715,3.71068718 14.1707152,3.73468718 C14.1480196,3.76689231 14.1206283,3.82268718 14.13315,3.84935385 C14.1591717,3.90494359 14.2204109,3.94227692 14.2460413,3.99807179 C14.2749978,4.06145641 14.3141283,4.15581538 14.2896717,4.20217436 C14.2505413,4.27561026 14.1638674,4.32278974 14.0934326,4.37468718 C14.0840413,4.38145641 14.0449109,4.35396923 14.0269109,4.33489231 C13.9922804,4.29714872 13.9658674,4.2512 13.9314326,4.21345641 C13.8866283,4.16525128 13.8375196,4.11150769 13.7997587,4.22309744 C13.7979978,4.22740513 13.7936935,4.23089231 13.790563,4.23478974 C13.7829326,4.39232821 13.7856717,4.68894359 13.90365,4.77550769 C14.0666283,4.89509744 13.8353674,5.11745641 13.7880196,4.88668718 C13.7406717,4.65591795 13.6641717,4.25099487 13.7064326,4.09017436 C13.70115,3.99027692 13.6989978,3.88935385 13.5724109,4.0097641 C13.5686935,4.01325128 13.525063,3.98555897 13.5164543,3.9646359 C13.4951283,3.91273846 13.4923891,3.85017436 13.4644109,3.80361026 C13.4307587,3.7472 13.3740196,3.65714872 13.3362587,3.66166154 C13.2437152,3.67232821 13.1507804,3.71950769 13.0691935,3.7712 C12.989563,3.82166154 12.9177587,3.8897641 12.8541717,3.9617641 C12.8168022,4.00361026 12.7989978,4.06699487 12.7790413,4.1232 C12.7449978,4.22084103 12.7179978,4.32114872 12.6831717,4.41817436 C12.6794543,4.42740513 12.6221283,4.43048205 12.6178239,4.42125128 C12.5565848,4.2977641 12.4973022,4.17325128 12.4440848,4.04586667 C12.4176717,3.98248205 12.4008457,3.91355897 12.3879326,3.84545641 C12.3759978,3.78227692 12.423737,3.67048205 12.2852152,3.73078974 C12.2783674,3.73366154 12.2462804,3.68361026 12.2318022,3.65489231 C12.1740848,3.54084103 12.0764543,3.49796923 11.9588674,3.51068718 C11.8346283,3.52402051 11.7011935,3.55417436 11.6014109,3.42986667 C11.5896717,3.41530256 11.5587587,3.40278974 11.5434978,3.40873846 C11.4102587,3.46022564 11.3398239,3.36237949 11.2558891,3.28750769 C11.2302587,3.26453333 11.1893674,3.26022564 11.1553239,3.24771282 C11.1611935,3.28299487 11.1590413,3.3232 11.1750848,3.35253333 C11.2020848,3.40258462 11.2419978,3.44504615 11.2748674,3.49202051 C11.3253457,3.56381538 11.3728891,3.61366154 11.4621065,3.53673846 C11.5620848,3.44996923 11.6211717,3.56750769 11.6874978,3.60996923 C11.7612587,3.65735385 11.6982587,3.71950769 11.6657804,3.75458462 C11.5904543,3.83622564 11.5125848,3.92258462 11.4200413,3.97735385 C11.2997152,4.04832821 11.1649109,4.09304615 11.0346065,4.14391795 C10.9074326,4.19335385 10.884737,4.17243077 10.8399326,4.04381538 C10.8068674,3.94843077 10.7518891,3.86145641 10.7053239,3.77140513 C10.6505413,3.66453333 10.5947804,3.55786667 10.5392152,3.4512 C10.5233674,3.42043077 10.5120196,3.38412308 10.4891283,3.36135385 C10.4738674,3.34617436 10.4406065,3.34699487 10.41615,3.3486359 C10.4112587,3.34904615 10.3993239,3.39232821 10.4069543,3.40668718 C10.5261065,3.63581538 10.6474109,3.86412308 10.7700848,4.09140513 C10.7918022,4.1312 10.8409109,4.16278974 10.8471717,4.20278974 C10.8696717,4.35048205 10.951063,4.31930256 11.0432152,4.29161026 C11.1138457,4.27027692 11.1883891,4.26248205 11.2611717,4.24853333 C11.2369109,4.32955897 11.2236065,4.41591795 11.1860413,4.48935385 C11.1240196,4.61161026 11.0481065,4.71745641 10.9273891,4.79786667 C10.8238891,4.86740513 10.7346717,4.98166154 10.67715,5.09735385 C10.6442804,5.16361026 10.6883022,5.27191795 10.6963239,5.36114872 C10.7055196,5.46289231 10.7323239,5.56853333 10.7149109,5.66514872 C10.7039543,5.72648205 10.6337152,5.78555897 10.5771717,5.8257641 C10.4871717,5.88996923 10.4139978,5.94986667 10.4658457,6.08012308 C10.4754326,6.10371282 10.47465,6.15622564 10.4642804,6.16114872 C10.32165,6.22514872 10.3198891,6.3937641 10.2330196,6.50207179 C10.0809978,6.69325128 9.88221522,6.70966154 9.68088913,6.73448205 C9.64821522,6.73878974 9.59656304,6.6752 9.57249783,6.63130256 C9.52691087,6.54699487 9.49462826,6.45489231 9.4572587,6.36545641 C9.44415,6.33386667 9.43084565,6.30207179 9.42047609,6.26966154 C9.38565,6.16073846 9.36412826,6.04484103 9.31541087,5.94371282 C9.24517174,5.79766154 9.21856304,5.67602051 9.32128043,5.52278974 C9.3860413,5.42658462 9.30484565,5.29632821 9.27197609,5.1857641 C9.25769348,5.1377641 9.22697609,5.08709744 9.18941087,5.05571282 C9.08082391,4.9646359 9.09941087,4.85961026 9.13736739,4.74371282 C9.17473696,4.62843077 9.14421522,4.58432821 9.04032391,4.61284103 C8.97438913,4.63109744 8.93623696,4.62596923 8.90141087,4.56484103 C8.85523696,4.48299487 8.79028043,4.49304615 8.71221522,4.51786667 C8.61360652,4.54945641 8.50971522,4.56361026 8.40758478,4.58330256 C8.38586739,4.58761026 8.35828043,4.57571282 8.34145435,4.58596923 C8.15421522,4.69796923 8.08319348,4.5246359 7.98360652,4.42637949 C7.93567174,4.37899487 7.89967174,4.31766154 7.84938913,4.2737641 C7.75567174,4.19232821 7.73336739,4.1057641 7.77836739,3.98945641 C7.79988913,3.93304615 7.8290413,3.86289231 7.81495435,3.81078974 C7.7570413,3.59684103 7.87541087,3.4672 8.00649783,3.35007179 C8.0667587,3.29632821 8.12271522,3.25837949 8.14012826,3.16668718 C8.1612587,3.05099487 8.26065,3.00381538 8.35691087,2.97140513 C8.46686739,2.93427692 8.58034565,2.9057641 8.69323696,2.88012308 C8.77951957,2.86043077 8.86815,2.85099487 8.95541087,2.83684103 C8.95599783,2.84094359 8.95658478,2.8446359 8.95717174,2.84853333 C9.0072587,2.84422564 9.06380217,2.82289231 9.10547609,2.84053333 C9.14362826,2.85673846 9.19782391,2.94104615 9.19117174,2.94986667 C9.12543261,3.03561026 9.20036739,3.05202051 9.24419348,3.07437949 C9.32851957,3.11807179 9.41578043,3.15684103 9.50401957,3.19048205 C9.53806304,3.2032 9.59597609,3.21448205 9.61417174,3.19561026 C9.77030217,3.03581538 9.93484565,3.15109744 10.0964543,3.16894359 C10.177063,3.17796923 10.2584543,3.19007179 10.3386717,3.18555897 C10.4183022,3.18125128 10.5169109,2.98637949 10.4773891,2.91909744 C10.4674109,2.90186667 10.4319978,2.89468718 10.4079326,2.89386667 C10.3416065,2.89140513 10.2748891,2.90043077 10.2087587,2.89530256 C10.0989978,2.88648205 9.99745435,2.86268718 9.98786739,2.71253333 C9.98669348,2.69243077 9.94717174,2.6752 9.9252587,2.65694359 C9.90412826,2.68832821 9.85834565,2.73940513 9.86499783,2.7486359 C9.91684565,2.81981538 9.86480217,2.8432 9.82156304,2.86802051 C9.75132391,2.90802051 9.73469348,2.8446359 9.71473696,2.79889231 C9.63960652,2.62514872 9.49619348,2.52299487 9.35512826,2.41837949 C9.33986739,2.40709744 9.31482391,2.41017436 9.29428043,2.40627692 C9.2997587,2.43068718 9.29760652,2.46391795 9.31188913,2.47766154 C9.36569348,2.52750769 9.42047609,2.57878974 9.48288913,2.61427692 C9.53610652,2.6446359 9.54451957,2.67273846 9.51282391,2.72114872 C9.46469348,2.7952 9.45960652,2.71130256 9.43769348,2.69694359 C9.33615,2.62966154 9.23793261,2.5566359 9.13423696,2.49345641 C9.11173696,2.47971282 9.07182391,2.49304615 9.04071522,2.50002051 C9.00862826,2.5072 8.97712826,2.53407179 8.94738913,2.53078974 C8.7785413,2.51232821 8.69656304,2.63745641 8.62045435,2.75561026 C8.53456304,2.88935385 8.28569348,2.9392 8.17280217,2.82555897 C8.08671522,2.73878974 8.18786739,2.64053333 8.1702587,2.54637949 C8.16869348,2.5377641 8.24871522,2.50412308 8.29332391,2.49694359 C8.33617174,2.48996923 8.38391087,2.51253333 8.42558478,2.50289231 C8.4725413,2.49202051 8.5355413,2.47191795 8.55549783,2.43437949 C8.59071522,2.36894359 8.55236739,2.31314872 8.48486739,2.28443077 C8.46647609,2.2766359 8.45082391,2.26125128 8.43419348,2.24935385 C8.45278043,2.23766154 8.47097609,2.21714872 8.4905413,2.21612308 C8.70497609,2.20504615 8.82941087,1.98781538 9.03484565,1.95458462 C9.04541087,1.95294359 9.04267174,1.89735385 9.05617174,1.87294359 C9.07319348,1.84155897 9.10019348,1.81612308 9.12288913,1.78802051 C9.14206304,1.80935385 9.16749783,1.8272 9.17923696,1.85243077 C9.23460652,1.97181538 9.34006304,1.92812308 9.42673696,1.93489231 C9.49051957,1.93961026 9.55586739,1.92299487 9.62062826,1.9152 C9.63608478,1.91314872 9.66484565,1.90843077 9.6650413,1.90391795 C9.67032391,1.76094359 9.80747609,1.76217436 9.88065,1.69673846 C9.92251957,1.65899487 10.0050848,1.67253333 10.0684761,1.65878974 C10.08765,1.65448205 10.1038891,1.63725128 10.1214978,1.62555897 C10.1033022,1.60894359 10.0856935,1.57837949 10.0671065,1.57755897 C10.0062587,1.57489231 9.94286739,1.57366154 9.88495435,1.59007179 C9.82019348,1.60832821 9.76619348,1.60402051 9.75465,1.53304615 C9.74917174,1.49735385 9.78888913,1.45304615 9.81001957,1.41407179 C9.81491087,1.40525128 9.83056304,1.40402051 9.83838913,1.39602051 C9.86441087,1.3697641 9.8892587,1.34207179 9.91469348,1.31478974 C9.9072587,1.30761026 9.8982587,1.29304615 9.89297609,1.29427692 C9.84778043,1.30555897 9.79828043,1.31089231 9.75915,1.33489231 C9.70945435,1.36545641 9.67345435,1.42350769 9.62238913,1.44832821 C9.55371522,1.48237949 9.48523696,1.49099487 9.58051957,1.58391795 C9.61671522,1.6192 9.50206304,1.79704615 9.42830217,1.81858462 C9.34691087,1.84217436 9.25201957,1.89448205 9.22893261,1.73796923 C9.21817174,1.66473846 9.17708478,1.66494359 9.12191087,1.70884103 C9.0485413,1.76750769 8.98065,1.74268718 8.94523696,1.65878974 C8.91236739,1.58043077 8.90865,1.51027692 9.00217174,1.45345641 C9.14930217,1.36402051 9.27549783,1.22678974 9.4302587,1.16237949 C9.61241087,1.08648205 9.81412826,1.04853333 10.010563,1.02986667 C10.1263891,1.01878974 10.2482804,1.07684103 10.3676283,1.10391795 C10.4816935,1.1297641 10.5959543,1.15478974 10.709237,1.18330256 C10.7250848,1.18740513 10.7368239,1.20996923 10.7507152,1.22371282 C10.7383891,1.23437949 10.7278239,1.25243077 10.7143239,1.25407179 C10.6434978,1.26432821 10.5720848,1.26843077 10.5012587,1.27930256 C10.4848239,1.28196923 10.4568457,1.30289231 10.4580196,1.31253333 C10.4599761,1.33243077 10.4863891,1.36771282 10.4889326,1.36627692 C10.5611283,1.32914872 10.6509326,1.42986667 10.7186283,1.3297641 C10.740737,1.29653333 10.7921935,1.26986667 10.8315196,1.26740513 C10.8896283,1.26412308 10.9481283,1.28689231 10.9146717,1.18555897 C10.9127152,1.18043077 10.9684761,1.15417436 10.9976283,1.13796923 C11.0355848,1.30166154 11.1408457,1.17448205 11.2095196,1.18248205 C11.3102804,1.19458462 11.4161283,1.16361026 11.519237,1.14740513 C11.6153022,1.13202051 11.7101935,1.09878974 11.8058674,1.0977641 C11.8982152,1.09673846 11.990563,1.12771282 12.0829109,1.14268718 C12.1091283,1.14699487 12.1359326,1.14453333 12.162737,1.14514872 C12.152563,1.12278974 12.1406283,1.10125128 12.1333891,1.07786667 C12.1249761,1.05078974 12.10815,1.00525128 12.1173457,0.99745641 C12.1723239,0.95294359 12.2308239,0.906379487 12.2953891,0.883610256 C12.3180848,0.875610256 12.3949761,0.946584615 12.3908674,0.957661538 C12.3570196,1.04627692 12.4568022,1.16196923 12.3405848,1.23212308 C12.3296283,1.23827692 12.3317804,1.26761026 12.328063,1.28627692 C12.3439109,1.28545641 12.3636717,1.29058462 12.3750196,1.28237949 C12.4067152,1.25981538 12.431563,1.22350769 12.4654109,1.20730256 C12.5045413,1.18884103 12.5501283,1.18535385 12.5929761,1.17673846 C12.6227152,1.17099487 12.6530413,1.16853333 12.6819978,1.16032821 C12.6849326,1.15930256 12.6855196,1.11909744 12.6782804,1.11499487 C12.6512804,1.10022564 12.6137152,1.07643077 12.5921935,1.08566154 C12.4914326,1.1297641 12.45915,1.09181538 12.4728457,0.989046154 C12.4742152,0.976328205 12.4914326,0.966071795 12.5012152,0.954789744 C12.5847587,1.07417436 12.6197804,0.919917949 12.6684978,0.923405128 C12.7391283,0.928533333 12.8070196,0.984328205 12.8762804,1.01735385 C12.9044543,1.03048205 12.9332152,1.04094359 12.9621717,1.0526359 C12.9443674,1.02104615 12.9287152,0.987815385 12.9077804,0.958687179 C12.8985848,0.946174359 12.8768674,0.945148718 12.8643457,0.934276923 C12.8529978,0.924841026 12.8471283,0.909046154 12.8385196,0.896123077 C12.8516283,0.889353846 12.8645413,0.879917949 12.8788239,0.876430769 C13.0869978,0.826994872 13.2957587,0.777353846 13.5049109,0.730994872 C13.5471717,0.721764103 13.5915848,0.72545641 13.6352152,0.725251282 C13.6794326,0.725251282 13.732063,0.745764103 13.7659109,0.727097436 C13.9809326,0.608533333 14.1994761,0.717251282 14.4150848,0.707405128 C14.4708457,0.704738462 14.5543891,0.710071795 14.4988239,0.817764103 C14.4966717,0.821866667 14.5391283,0.865764103 14.5602587,0.865353846 C14.7402587,0.861866667 14.9177152,0.938789744 15.1014326,0.865353846 C15.1847804,0.832123077 15.2949326,0.818789744 15.3188022,0.969558974 C15.321737,0.988841026 15.3604761,1.01673846 15.380237,1.01509744 C15.5113239,1.00278974 15.6418239,0.983917949 15.7725196,0.966071795 C15.7889543,0.963815385 15.8100848,0.961764103 15.8190848,0.950276923 C15.8396283,0.924635897 15.8723022,0.887712821 15.866237,0.865558974 C15.8586065,0.837251282 15.8175196,0.818994872 15.7909109,0.796635897 C15.7733022,0.78145641 15.7554978,0.766071795 15.7378891,0.750687179 C15.75765,0.743712821 15.7768239,0.730994872 15.7963891,0.7312 C15.857237,0.732020513 15.9184761,0.735097436 15.9791283,0.742071795 C16.0112152,0.745969231 16.0425196,0.760123077 16.0740196,0.769558974 C16.0536717,0.788635897 16.0298022,0.805251282 16.0137587,0.827815385 C16.005737,0.838687179 16.009063,0.861661538 16.0129761,0.877046154 C16.0153239,0.885251282 16.0303891,0.892635897 16.040563,0.894687179 C16.2326935,0.933251282 16.4256065,0.971610256 16.617737,1.00894359 C16.7085196,1.02658462 16.8000848,1.04237949 16.891063,1.05858462 C16.9391935,1.0672 16.9873239,1.07786667 17.03565,1.08258462 C17.1504978,1.09386667 17.2655413,1.10186667 17.3801935,1.11150769 C17.3909543,1.11232821 17.4071935,1.12258462 17.4114978,1.11786667 C17.5243891,1.00278974 17.6535196,1.11150769 17.7740413,1.08935385 C17.8800848,1.07007179 17.9094326,1.13304615 17.92215,1.24135385 C17.9327152,1.32361026 17.8129761,1.37222564 17.8898674,1.45509744 M6.71441087,5.11643077 C6.52286739,5.03766154 6.32212826,4.98330256 6.13215,4.90084103 C6.07697609,4.87704615 6.04645435,4.87417436 6.00086739,4.90350769 C5.98678043,4.91273846 5.96115,4.90207179 5.94060652,4.9006359 C5.95293261,4.88545641 5.96251957,4.86330256 5.97817174,4.85632821 C6.06347609,4.81878974 6.07091087,4.78781538 6.00262826,4.70822564 C5.9247587,4.61694359 5.85823696,4.53284103 5.72715,4.54966154 C5.70523696,4.55253333 5.67549783,4.53058462 5.65651957,4.51212308 C5.51741087,4.3777641 5.37517174,4.25386667 5.16641087,4.28217436 C5.14097609,4.28566154 5.10536739,4.2832 5.08873696,4.26740513 C5.02788913,4.21058462 5.0030413,4.25202051 4.97408478,4.30166154 C4.96410652,4.31889231 4.9445413,4.3297641 4.92928043,4.34350769 C4.92458478,4.32217436 4.91206304,4.29837949 4.91695435,4.27971282 C4.93573696,4.20935385 4.92047609,4.18986667 4.85688913,4.22802051 C4.74967174,4.2926359 4.67982391,4.39643077 4.50882391,4.36094359 C4.34369348,4.32668718 4.30397609,4.34843077 4.32001957,4.1537641 C4.33097609,4.02125128 4.31767174,4.00709744 4.18971522,4.01243077 C4.08386739,4.01694359 4.0625413,3.9886359 4.09228043,3.87848205 C4.09991087,3.85099487 4.11751957,3.82699487 4.12828043,3.80012308 C4.15156304,3.74248205 4.13278043,3.70699487 4.07291087,3.70822564 C4.01480217,3.70945641 3.96432391,3.70453333 3.92988913,3.78945641 C3.89682391,3.87089231 3.80095435,3.8897641 3.71721522,3.84443077 C3.60099783,3.78145641 3.55130217,3.58350769 3.60178043,3.4046359 C3.62291087,3.3297641 3.77493261,3.25961026 3.88332391,3.26412308 C3.93301957,3.26637949 3.9852587,3.25099487 4.03358478,3.23396923 C4.15782391,3.19007179 4.27873696,3.2352 4.34760652,3.34637949 C4.37851957,3.39581538 4.42586739,3.43417436 4.46578043,3.47745641 C4.46186739,3.41304615 4.45971522,3.34802051 4.45365,3.28361026 C4.45208478,3.26740513 4.43271522,3.25140513 4.43408478,3.2366359 C4.43760652,3.20032821 4.43721522,3.14986667 4.45873696,3.13181538 C4.56791087,3.04012308 4.69332391,2.97530256 4.73323696,2.80832821 C4.77001957,2.65509744 4.97506304,2.65284103 5.03062826,2.49632821 C5.04138913,2.46637949 5.14762826,2.43458462 5.16210652,2.45078974 C5.26912826,2.56955897 5.36343261,2.44278974 5.4620413,2.44258462 C5.48336739,2.44258462 5.50488913,2.4046359 5.52621522,2.38432821 C5.50410652,2.37735385 5.48121522,2.37161026 5.45930217,2.36299487 C5.39923696,2.34022564 5.31901957,2.35253333 5.30317174,2.25222564 C5.30043261,2.23561026 5.24232391,2.22268718 5.20906304,2.21940513 C5.17423696,2.21571282 5.13823696,2.22555897 5.10282391,2.22966154 C5.13569348,2.20114872 5.1650413,2.15827692 5.20260652,2.14802051 C5.24506304,2.13612308 5.31158478,2.13530256 5.33760652,2.16196923 C5.38280217,2.20771282 5.40999783,2.19355897 5.45167174,2.16914872 C5.49999783,2.14084103 5.5520413,2.11909744 5.60291087,2.09632821 C5.62169348,2.08791795 5.64223696,2.08504615 5.66199783,2.07971282 C5.65749783,2.10391795 5.65417174,2.12853333 5.64810652,2.15232821 C5.63773696,2.19212308 5.62599783,2.23191795 5.61445435,2.27150769 C5.69095435,2.27417436 5.76706304,2.27766154 5.84336739,2.2766359 C5.84591087,2.2766359 5.85608478,2.21632821 5.84884565,2.21243077 C5.76334565,2.16627692 5.66591087,2.1312 5.74182391,1.99602051 C5.74397609,1.99232821 5.71228043,1.96771282 5.69584565,1.9537641 C5.59019348,1.86391795 5.47984565,1.7792 5.3802587,1.68258462 C5.32293261,1.62678974 5.28771522,1.56853333 5.20788913,1.65653333 C5.18695435,1.67991795 5.08051957,1.66822564 5.07132391,1.64627692 C5.00734565,1.49058462 4.86491087,1.51089231 4.75162826,1.48689231 C4.64421522,1.46412308 4.5755413,1.54966154 4.60880217,1.6592 C4.63717174,1.75191795 4.74810652,1.84668718 4.5530413,1.86596923 C4.55636739,1.89222564 4.56360652,1.91889231 4.56184565,1.94473846 C4.55910652,1.9806359 4.54971522,2.01591795 4.54306304,2.0512 C4.51351957,2.03396923 4.47301957,2.02432821 4.45599783,1.99827692 C4.39378043,1.90145641 4.3145413,1.85796923 4.20184565,1.83807179 C4.06880217,1.81448205 3.94045435,1.75561026 3.81386739,1.70227692 C3.72699783,1.66555897 3.72582391,1.59396923 3.79801957,1.54289231 C3.88332391,1.4832 3.9905413,1.45427692 4.06919348,1.38761026 C4.16995435,1.30207179 4.2470413,1.47478974 4.34330217,1.39540513 C4.36521522,1.37735385 4.42117174,1.40402051 4.46167174,1.40996923 C4.42038913,1.38309744 4.38008478,1.35437949 4.33762826,1.32955897 C4.30260652,1.30925128 4.2650413,1.29345641 4.22845435,1.27581538 C4.2650413,1.27150769 4.30417174,1.2737641 4.33723696,1.2606359 C4.3722587,1.24627692 4.43193261,1.20709744 4.42860652,1.19581538 C4.41451957,1.14699487 4.39065,1.10022564 4.46519348,1.10084103 C4.53836739,1.10145641 4.67082391,1.10802051 4.67434565,1.13099487 C4.6917587,1.23437949 4.71328043,1.24914872 4.78919348,1.18104615 C4.7997587,1.17181538 4.82812826,1.18514872 4.84847609,1.18761026 C4.84006304,1.20627692 4.83595435,1.23417436 4.82206304,1.24155897 C4.76962826,1.26945641 4.71367174,1.28935385 4.66006304,1.31417436 C4.64206304,1.32237949 4.62680217,1.33653333 4.61017174,1.34822564 C4.62641087,1.35971282 4.64108478,1.37796923 4.65849783,1.38166154 C4.7825413,1.40771282 4.90638913,1.43437949 5.03121522,1.45366154 C5.10419348,1.46494359 5.17893261,1.46391795 5.25288913,1.46678974 C5.26795435,1.46740513 5.28321522,1.46125128 5.29847609,1.45817436 C5.29045435,1.43807179 5.28556304,1.41550769 5.27343261,1.39868718 C5.24995435,1.36668718 5.22236739,1.33796923 5.19634565,1.30802051 C5.23762826,1.31581538 5.27891087,1.32484103 5.32038913,1.3312 C5.34112826,1.33448205 5.36578043,1.33981538 5.38358478,1.33181538 C5.40667174,1.32135385 5.42486739,1.29817436 5.44501957,1.28053333 C5.42858478,1.26925128 5.41078043,1.2592 5.39551957,1.24607179 C5.30551957,1.17037949 5.15799783,1.18802051 5.10497609,1.04894359 C5.10028043,1.03602051 5.06408478,1.03684103 5.04295435,1.02966154 C4.9220413,0.987815385 4.80269348,0.938584615 4.67982391,0.905148718 C4.53582391,0.865558974 4.38673696,0.846482051 4.25623696,0.948635897 C4.20771522,0.986789744 4.19108478,0.9792 4.17738913,0.924430769 C4.15743261,0.843815385 4.10323696,0.864738462 4.05960652,0.889558974 C4.02634565,0.908635897 4.00286739,0.945764103 3.97488913,0.974892308 C4.00658478,1.00381538 4.03612826,1.03581538 4.07095435,1.05940513 C4.08738913,1.07068718 4.11536739,1.06186667 4.13610652,1.06884103 C4.16467174,1.07827692 4.19128043,1.09407179 4.21886739,1.10740513 C4.20262826,1.12812308 4.18991087,1.15971282 4.16917174,1.16648205 C4.1435413,1.17530256 4.11067174,1.16750769 4.08249783,1.16012308 C3.97801957,1.13243077 3.88586739,1.0817641 3.81386739,0.994379487 C3.81288913,0.993353846 3.76612826,1.01981538 3.76495435,1.03540513 C3.76221522,1.06884103 3.78784565,1.10802051 3.77865,1.13673846 C3.76906304,1.16668718 3.71447609,1.21161026 3.71017174,1.20853333 C3.66751957,1.17366154 3.63543261,1.10514872 3.59180217,1.09673846 C3.54934565,1.08873846 3.59786739,1.22350769 3.49671522,1.21017436 C3.41434565,1.19909744 3.32982391,1.20586667 3.24647609,1.2017641 C3.23336739,1.20094359 3.22084565,1.18371282 3.20812826,1.17386667 C3.21869348,1.16196923 3.22730217,1.14350769 3.23982391,1.13940513 C3.27151957,1.12955897 3.30595435,1.12894359 3.33784565,1.11950769 C3.35721522,1.11417436 3.37384565,1.09878974 3.39145435,1.08791795 C3.37345435,1.07089231 3.35799783,1.04812308 3.33706304,1.03704615 C3.24197609,0.987405128 3.18621522,0.902482051 3.17095435,0.783712821 C3.16860652,0.766276923 3.15295435,0.737558974 3.14160652,0.736533333 C3.07958478,0.730174359 3.01658478,0.729764103 2.95397609,0.72894359 C2.90760652,0.728328205 2.85986739,0.737764103 2.81467174,0.729969231 C2.70647609,0.711507692 2.59984565,0.673764103 2.49184565,0.668020513 C2.44293261,0.665353846 2.39128043,0.721148718 2.34099783,0.750276923 C2.38991087,0.751917949 2.43882391,0.753764103 2.48773696,0.754379487 C2.49869348,0.754379487 2.51023696,0.746174359 2.52041087,0.748020513 C2.5407587,0.752123077 2.56032391,0.760533333 2.58028043,0.766892308 C2.56462826,0.784738462 2.55093261,0.815507692 2.53293261,0.818379487 C2.45643261,0.830482051 2.37856304,0.841558974 2.30167174,0.839097436 C2.23065,0.836841026 2.18545435,0.875815385 2.18917174,0.934276923 C2.19093261,0.962994872 2.26234565,0.994174359 2.3067587,1.00996923 C2.33532391,1.02002051 2.37856304,1.01468718 2.40360652,0.997661538 C2.47521522,0.948841026 2.51649783,0.983302564 2.55445435,1.04299487 C2.56893261,1.0657641 2.58321522,1.08873846 2.59749783,1.11130256 C2.56795435,1.11355897 2.53762826,1.12012308 2.50828043,1.11745641 C2.30617174,1.09858462 2.10347609,1.05468718 1.90293261,1.06412308 C1.72136739,1.07273846 1.54410652,1.11971282 1.35706304,1.09161026 C1.14301957,1.05961026 0.918215217,1.08504615 0.711215217,1.02986667 C0.528280435,0.981661538 0.378606522,1.03971282 0.218367391,1.08607179 C0.169454348,1.10002051 0.12641087,1.13817436 0.0806282609,1.16525128 C0.126802174,1.18268718 0.173171739,1.19991795 0.21915,1.21755897 C0.229715217,1.22145641 0.242041304,1.22391795 0.249280435,1.23150769 C0.260628261,1.24299487 0.268063043,1.25837949 0.277258696,1.27191795 C0.260041304,1.28032821 0.242823913,1.29571282 0.225802174,1.29571282 C0.204671739,1.29550769 0.18315,1.27478974 0.162802174,1.2766359 C0.109780435,1.28114872 0.05715,1.2926359 0.00471521739,1.30350769 C0.00138913043,1.30412308 -0.00135,1.33161026 0.000606521739,1.33243077 C0.0503021739,1.35150769 0.0998021739,1.37530256 0.151454348,1.38453333 C0.199780435,1.39335385 0.250845652,1.38658462 0.300541304,1.38637949 C0.251823913,1.40525128 0.199780435,1.41796923 0.155563043,1.44484103 C0.121715217,1.46555897 0.0974543478,1.50391795 0.0690847826,1.53448205 C0.104497826,1.56648205 0.141867391,1.62781538 0.174541304,1.62494359 C0.285280435,1.61571282 0.369802174,1.68894359 0.469976087,1.70658462 C0.391323913,1.75417436 0.312867391,1.80196923 0.234215217,1.84914872 C0.224432609,1.85489231 0.212106522,1.85653333 0.204084783,1.86391795 C0.19215,1.87478974 0.18315,1.88873846 0.172780435,1.90166154 C0.188041304,1.90494359 0.204476087,1.91294359 0.218954348,1.91048205 C0.377236957,1.88073846 0.513606522,1.75027692 0.68988913,1.79745641 C0.700454348,1.80032821 0.726671739,1.77099487 0.733323913,1.75171282 C0.755432609,1.68771282 0.802584783,1.64135385 0.864606522,1.63048205 C0.875367391,1.6286359 0.88691087,1.62514872 0.895715217,1.61817436 C1.01271522,1.52894359 1.13695435,1.56258462 1.25943261,1.59684103 C1.39501957,1.63458462 1.53999783,1.63684103 1.63743261,1.78473846 C1.67323696,1.83889231 1.74484565,1.86678974 1.7540413,1.95212308 C1.75678043,1.97591795 1.80138913,1.99499487 1.82662826,2.01612308 C1.83015,1.99089231 1.82956304,1.96381538 1.8387587,1.94125128 C1.84228043,1.93284103 1.87847609,1.92730256 1.88395435,1.93427692 C1.94265,2.00668718 1.98373696,2.11068718 2.05691087,2.15068718 C2.20638913,2.23171282 2.22615,2.35150769 2.21088913,2.49140513 C2.17449783,2.73181538 2.32241087,2.86227692 2.45956304,2.99950769 C2.5100413,3.04996923 2.56638913,3.09837949 2.60238913,3.15930256 C2.68710652,3.30248205 2.76810652,3.44750769 2.88823696,3.56217436 C2.91034565,3.58350769 2.94458478,3.59068718 2.9735413,3.60443077 C2.96199783,3.5777641 2.95417174,3.54884103 2.93910652,3.52504615 C2.90232391,3.4672 2.86084565,3.4126359 2.82484565,3.35417436 C2.81584565,3.33961026 2.82112826,3.3152 2.81995435,3.29530256 C2.83482391,3.30022564 2.85458478,3.30084103 2.86417174,3.31150769 C2.96434565,3.42022564 3.11128043,3.51478974 3.15021522,3.64443077 C3.20793261,3.83684103 3.35721522,3.87725128 3.48184565,3.95622564 C3.55306304,4.00114872 3.64501957,4.01407179 3.74636739,4.00032821 C3.82580217,3.98966154 3.9140413,4.09858462 4.00599783,4.12935385 C4.09032391,4.15725128 4.15293261,4.18207179 4.19206304,4.27786667 C4.23549783,4.38412308 4.41999783,4.49222564 4.47086739,4.45058462 C4.57886739,4.3617641 4.59530217,4.46248205 4.62112826,4.5217641 C4.67043261,4.63417436 4.6287587,4.7377641 4.54012826,4.79889231 C4.40493261,4.89243077 4.51528043,5.05099487 4.43819348,5.15540513 C4.43545435,5.15889231 4.45795435,5.1806359 4.4667587,5.19499487 C4.51449783,5.27171282 4.56771522,5.3457641 4.60841087,5.42658462 C4.6782587,5.56586667 4.74028043,5.70637949 4.89367174,5.77222564 C5.0022587,5.8192 5.02651957,5.91622564 5.01243261,6.03335385 C4.98112826,6.29591795 4.95647609,6.55930256 4.85688913,6.80709744 C4.84045435,6.84791795 4.84397609,6.89735385 4.83967174,6.94330256 C4.83106304,7.04032821 4.82930217,7.13817436 4.81365,7.2337641 C4.8005413,7.31437949 4.74888913,7.39335385 4.75319348,7.47048205 C4.77001957,7.75499487 4.93965,7.91089231 5.18441087,7.85468718 C5.2002587,7.85099487 5.21493261,7.84196923 5.22999783,7.8352 C5.21845435,7.82494359 5.20788913,7.81386667 5.19595435,7.80443077 C5.02828043,7.67232821 5.02965,7.67417436 5.18186739,7.51294359 C5.20436739,7.48914872 5.21630217,7.41140513 5.21199783,7.40935385 C5.13862826,7.37571282 5.18108478,7.34925128 5.20515,7.30596923 C5.23801957,7.24607179 5.38162826,7.2272 5.28165,7.10945641 C5.28008478,7.10761026 5.29769348,7.07889231 5.30845435,7.07704615 C5.41019348,7.06002051 5.47436739,6.93714872 5.59351957,6.96730256 C5.60799783,6.97058462 5.63930217,6.94802051 5.64517174,6.93099487 C5.66395435,6.87273846 5.65730217,6.79130256 5.69349783,6.7566359 C5.73380217,6.71807179 5.81147609,6.72504615 5.86978043,6.70309744 C5.89306304,6.69448205 5.90871522,6.66289231 5.92691087,6.64073846 C5.97249783,6.58473846 6.01867174,6.52894359 6.06269348,6.47191795 C6.08715,6.44053333 6.12999783,6.40361026 6.12686739,6.37325128 C6.10730217,6.18207179 6.24758478,6.14781538 6.36536739,6.12648205 C6.49469348,6.10289231 6.56258478,6.01037949 6.57882391,5.91232821 C6.61228043,5.70945641 6.67371522,5.53509744 6.79815,5.37037949 C6.88893261,5.24914872 6.85449783,5.17386667 6.71441087,5.11643077 M11.1279326,5.58884103 C11.0688457,5.63909744 11.01015,5.69017436 10.9543891,5.74432821 C10.9324761,5.76586667 10.9054761,5.79499487 10.902737,5.82309744 C10.8954978,5.89612308 10.9001935,5.97058462 10.9001935,6.04422564 C10.8902152,6.04894359 10.8798457,6.05366154 10.8698674,6.05837949 C10.9074326,6.12053333 10.9350196,6.22330256 10.9841283,6.23622564 C11.082737,6.26227692 11.0960413,6.15150769 11.1206935,6.07602051 C11.1512152,5.98227692 11.1842804,5.88935385 11.2093239,5.79417436 C11.2238022,5.7392 11.2286935,5.68032821 11.2288891,5.62330256 C11.2290848,5.59889231 11.2056065,5.57468718 11.1928891,5.55027692 C11.1709761,5.56299487 11.1467152,5.5726359 11.1279326,5.58884103 M14.6328457,5.04258462 C14.6758891,4.96525128 14.7263674,4.88586667 14.7431935,4.80053333 C14.7572804,4.72812308 14.735563,4.6446359 14.7161935,4.56996923 C14.7044543,4.52443077 14.6876283,4.49509744 14.6291283,4.55786667 C14.5475413,4.64525128 14.4309326,4.69571282 14.3338891,4.76853333 C14.3078674,4.78822564 14.2804761,4.83458462 14.2841935,4.86432821 C14.3010196,4.98925128 14.4053022,5.06084103 14.5755196,5.06289231 C14.5841283,5.06043077 14.6232587,5.06043077 14.6328457,5.04258462 M7.62243261,0.281558974 C7.64434565,0.282584615 7.66547609,0.310071795 7.68680217,0.32545641 C7.67388913,0.342892308 7.66391087,0.364225641 7.64767174,0.377353846 C7.59034565,0.423097436 7.5267587,0.460841026 7.47315,0.510892308 C7.42619348,0.5552 7.37845435,0.594379487 7.42306304,0.687097436 C7.46317174,0.770994872 7.39665,0.860430769 7.30117174,0.884635897 C7.24482391,0.898789744 7.22956304,0.925046154 7.24384565,0.984123077 C7.24991087,1.00996923 7.23308478,1.0417641 7.22662826,1.07109744 C7.20569348,1.05673846 7.18515,1.04053333 7.16284565,1.0286359 C7.14112826,1.01735385 7.11745435,1.01058462 7.09436739,1.0017641 C7.10121522,1.02391795 7.11236739,1.04586667 7.11393261,1.0686359 C7.11530217,1.08750769 7.11119348,1.11766154 7.09965,1.1246359 C7.07128043,1.14207179 7.03782391,1.15027692 7.00573696,1.15950769 C6.83845435,1.20791795 6.67195435,1.26022564 6.50310652,1.30125128 C6.39021522,1.32853333 6.36028043,1.43478974 6.31351957,1.51458462 C6.26636739,1.59540513 6.24621522,1.61386667 6.15093261,1.5792 C5.95528043,1.50802051 5.82184565,1.40709744 5.78956304,1.17448205 C5.78017174,1.1072 5.69584565,1.05284103 5.81421522,1.01243077 C5.82047609,1.01017436 5.82282391,0.994994872 5.82693261,0.985969231 C5.8122587,0.980841026 5.79132391,0.966071795 5.78330217,0.971815385 C5.70230217,1.02699487 5.68684565,0.986994872 5.67099783,0.906379487 C5.66297609,0.864533333 5.61641087,0.808328205 5.57845435,0.799507692 C5.43445435,0.766276923 5.28086739,0.713353846 5.14293261,0.738994872 C5.04373696,0.757661538 5.02084565,0.680328205 4.95686739,0.671507692 C4.96273696,0.6592 4.96586739,0.641764103 4.97545435,0.635405128 C5.11378043,0.542687179 5.25093261,0.447712821 5.39278043,0.360738462 C5.46184565,0.318687179 5.53951957,0.292635897 5.5925413,0.268430769 C5.66591087,0.284635897 5.70915,0.297969231 5.75258478,0.302687179 C5.79015,0.306789744 5.86136739,0.305969231 5.86215,0.299405128 C5.87995435,0.158071795 6.01221522,0.190482051 6.08519348,0.145764103 C6.33210652,-0.0048 6.59682391,-0.0546461538 6.87308478,0.0727384615 C6.90830217,0.0887384615 6.95506304,0.0858666667 6.99458478,0.0795076923 C7.10688913,0.0614564103 7.18788913,0.0620717949 7.23328043,0.211815385 C7.28865,0.394994872 7.33697609,0.39745641 7.51169348,0.304328205 C7.54436739,0.287507692 7.58584565,0.279917949 7.62243261,0.281558974"
                  id="Fill-1" fill="#000000" mask="url(#mask-2)"></path>
        </g>
    </g>
</svg>