<?xml version="1.0" encoding="UTF-8"?>
<svg width="24px" height="24px" viewBox="0 0 24 24" version="1.1" xmlns="http://www.w3.org/2000/svg" xmlns:xlink="http://www.w3.org/1999/xlink">
    <title>ic_playlist_add</title>
    <defs>
        <filter id="filter-1">
            <feColorMatrix in="SourceGraphic" type="matrix" values="0 0 0 0 0.525490 0 0 0 0 0.525490 0 0 0 0 0.525490 0 0 0 1.000000 0"></feColorMatrix>
        </filter>
    </defs>
    <g id="Page-1" stroke="none" stroke-width="1" fill="none" fill-rule="evenodd">
        <g id="ic_playlist_add" transform="translate(-491.000000, -396.000000)" filter="url(#filter-1)">
            <g transform="translate(491.000000, 396.000000)" id="Icon-24px">
                <polygon id="Shape" points="0 0 24 0 24 24 0 24"></polygon>
                <path d="M14,10 L2,10 L2,12 L14,12 L14,10 L14,10 Z M14,6 L2,6 L2,8 L14,8 L14,6 L14,6 Z M18,14 L18,10 L16,10 L16,14 L12,14 L12,16 L16,16 L16,20 L18,20 L18,16 L22,16 L22,14 L18,14 L18,14 Z M2,16 L10,16 L10,14 L2,14 L2,16 L2,16 Z" id="Shape" fill="#000000"></path>
            </g>
        </g>
    </g>
</svg>