<?xml version="1.0" encoding="utf-8"?>
<!-- Generator: Adobe Illustrator 24.1.1, SVG Export Plug-In . SVG Version: 6.00 Build 0)  -->
<svg version="1.1" id="Livello_1" xmlns="http://www.w3.org/2000/svg" xmlns:xlink="http://www.w3.org/1999/xlink" x="0px" y="0px"
	 viewBox="0 0 526.4 118.5" style="enable-background:new 0 0 526.4 118.5;" xml:space="preserve">
<style type="text/css">
	.st0{fill:#7EC242;}
	.st1{fill:#C7C8CA;}
</style>
<path class="st0" d="M399,52.7c0.1-2.8-0.7-6.2-2.5-10.4c-2.2-5.1-4.9-7.4-8.1-6.9c-2.9,0.6-6.3,2.9-6.3,10.5c0,2,0.2,4.1,0.6,6.1
	c1.1,5,2,9.2,2.8,12.6c-0.7,6.8-3.8,14.8-9.2,23.6c-6.9,11.4-10.5,12.8-12.1,12.7c-0.1,0-1.2-0.2-2.3-4.6c-1-4.1-1.4-8.2-1.3-12.4
	c0-3.9,0.3-7.9,1-11.8c0.2-1.2,0.3-2.4,0.3-3.6c0.6-1.6,0.9-3.3,0.9-5.1c0.1-1.7-0.5-3.5-1.7-4.7c-1.3-1-2.9-1.4-4.6-1.1
	c-5.1,0.5-7.9,3.5-8.1,8.6c-3.9,8.4-8.6,16.3-14,23.8c-6.3,8.8-8.7,10.9-9.6,11.3c0-0.1,0-0.3,0-0.6c0-4.1,2-10.9,5.8-20.5
	c3.8-9.8,8.9-19.1,15-27.7c1.9-2.4,3-5.4,3.1-8.5c0-2.8-1.4-4.7-4-5.2c-0.6-0.1-1.2-0.1-1.9-0.1c-3.5,0-6.3,2.4-8.6,7.3
	c-13.9,29.7-20.7,48.3-20.7,56.8c0,4.1,1.3,6.8,3.8,8c1.3,0.5,2.7,0.8,4.1,0.8c7.8,0,17.1-8.7,28.2-26.6c0.9,12.6,1.2,14,1.3,14.4
	c1.5,7.4,5.3,11.1,11.2,11.2h0.2c7.7,0,15.5-6.1,23.2-18.2c6.3-10,9.8-18.3,10.5-24.6C397.7,65.6,398.6,60.7,399,52.7L399,52.7z"/>
<path class="st0" d="M444.7,95.7c-0.8,0-2.5,0.3-7.5,2.9c-6.8,3.4-12.5,5.1-17,5.1c-1.3,0-2.7-0.1-4-0.4c-4.3-0.8-6.4-4.5-6.4-11.2
	c0-3.1,0.5-6.1,1.3-9c2,0.8,4.1,1.3,6.3,1.4c1.9,0,3.8-0.2,5.7-0.6c6.6-1.2,12.8-4.3,17.8-8.9c4.9-4.6,8.8-10.2,11.2-16.4l0,0
	c1-2.7,1.6-5.6,1.6-8.5c0.1-3.7-0.9-7.4-2.9-10.5c-2-3.2-4.5-5-7.6-5.6c-1.3-0.2-2.5-0.3-3.8-0.3c-12.9,0-24.9,12.4-35.7,36.8
	c-3.6,8.2-5.4,15.8-5.4,22.5c0,6,1.7,10.9,4.9,14.5s8.2,5.4,14.6,5.4c8.4,0,16.6-2.2,23.8-6.4c5-2.9,7.1-5.2,6.7-7.3
	C447.7,96.2,445.8,95.7,444.7,95.7z M414.9,72.9c1.7-4.9,5-10.6,9.9-17.1c6.6-8.6,10.3-10.7,12.3-11c0.3,0,0.6-0.1,0.9-0.1
	c0.8,0,1.6,0.2,2.3,0.7c1,0.9,1.6,2.8,1.6,5.6c0,1.8-0.3,3.6-0.8,5.3l0,0c-1.8,5.1-4.9,9.7-9,13.2c-4.1,3.6-7.8,5.5-11.3,5.5
	c-1.4,0-2.9-0.2-4.3-0.6c-1.4-0.5-1.7-0.9-1.7-1S414.8,73.1,414.9,72.9z"/>
<path class="st0" d="M507.9,41.9c-12-0.3-23.8,5.4-35.2,16.7c6.8-17.2,15.2-33.9,24.9-49.7c0.7-1.1,1.1-2.3,1.1-3.6
	c0.1-1.4-0.5-2.8-1.6-3.8c-1.5-1.4-4.1-1.8-7.8-1.3c-2,0.3-3.9,2.3-5.9,6.6l-2.4,6.3l-16,36.6c-7.7,17.9-12.9,32.7-15.6,44
	c-0.5,1.9,0.1,3.9,1.8,5.7c1.5,1.6,3.4,2.7,5.5,3.2c6,7.1,13.5,11.2,22.2,12.2c1.6,0.2,3.1,0.3,4.7,0.3c9,0.2,17.8-3,24.7-8.7
	c6.7-5.4,11.7-12.9,14.7-22.2c2.2-6.3,3.3-13,3.4-19.7C526.4,49.7,520.1,42.1,507.9,41.9z M505.9,52c6.2,0,9.2,4.5,9.2,13.7
	c0,4.9-0.9,9.7-2.5,14.3l0,0c-6.1,17.5-16,25.6-30.2,24.8c-2.7-0.2-5.4-1-7.8-2.3c-2.3-1.5-4.4-3.1-6.5-4.8c-1-2.2-2.2-4.3-3.6-6.2
	c1.5-6.5,6.5-14.3,14.7-23.4C488.8,57.3,497.7,52,505.9,52L505.9,52z"/>
<path class="st1" d="M280.4,86.5c-1.5,2.8-3.4,5.3-5.6,7.6l-0.2,0.2c-4.4,3.3-10.2,4.9-17.3,4.9c-9.9,0-17.7-3.3-23.1-9.9
	c-5.2-6.4-7.8-15.9-7.8-28c0-11.7,2.6-20.9,7.7-27.4c5-6.7,12.6-10.2,22.6-10.2c6.9,0,12.7,1.8,17.3,5.3c3.9,3.1,6.8,7.9,8.5,14.1
	h17.1c-1.3-10.5-5.6-18.8-12.7-24.9c-7.9-6.3-18.5-9.5-31.5-9.5c-15.1,0-26.7,4.6-34.6,13.6c-8,8.7-12,21.8-12,39
	c0,17.6,4.1,30.9,12.2,39.6c8.3,9,20.5,13.6,36.2,13.6c12.8,0,23.1-3.2,30.6-9.5c6.5-5.7,10.5-13.6,11.8-23.7h-10.8
	C284.8,81.3,282.1,82.9,280.4,86.5z"/>
<path class="st1" d="M152.3,11.6h-8.6c-2.4,0-4.7,0.9-6.3,2.6c-1.7,1.6-2.6,3.9-2.6,6.3V112h68.5V96.6h-51L152.3,11.6z"/>
<path class="st0" d="M34.2,92.9c-7.3,0-13.3-6-13.3-13.3V62.3c0-3.6,0.6-7.2,1.9-10.6L0,38.3c0,0.2,0,0.5,0,0.7v46.5h0.1
	c0,4,2.1,7.7,5.6,9.7l19.4,11.3l0.6,0.4l20,11.6l0.2,0.1V92.9H34.2z"/>
<path class="st1" d="M102.8,39.1c0-4-2.1-7.7-5.6-9.7L77.7,18.2l-0.6-0.4l-20-11.6c-3.5-2.1-7.8-2.1-11.3-0.1L25.7,17.8l0,0
	L6.5,28.8C6.4,28.9,6.3,29,6.2,29l22.3,13.1c5.8-6.7,14.2-10.5,23-10.5h17.2C76,31.7,82,37.7,82,45v34.6c0,7.3-6,13.3-13.3,13.3H57
	v25.6l0,0l20.1-11.6l0,0l19.2-11.1c4-1.8,6.5-5.8,6.6-10.2L102.8,39.1L102.8,39.1z"/>
<path class="st0" d="M67.6,42.3H51.4c-5.7,0-11.2,2.5-14.9,6.8c-0.1,0.1-0.2,0.2-0.3,0.4c-1.5,1.8-2.6,3.8-3.4,5.9l0,0
	c-0.1,0.2-0.1,0.5-0.2,0.7c-0.7,2-1,4-1,6.1v16.1c0,2.1,1.7,3.8,3.8,3.8h32.3c2.1,0,3.8-1.7,3.8-3.8V46.1
	C71.4,44,69.7,42.3,67.6,42.3z"/>
</svg>
