<svg width="34" height="34" viewBox="0 0 34 34" fill="none" xmlns="http://www.w3.org/2000/svg">
<g clip-path="url(#clip0_19_135)">
<path d="M19.8577 4.21429C14.1948 7.59758 12.4425 14.1768 14.6009 19.2693C15.8774 22.2546 18.001 24.4087 20.995 25.6262C23.9657 26.832 26.9712 26.7969 30 25.6262C27.888 30.7889 21.3315 35.3897 13.5333 33.6103C5.71197 31.8074 0.664056 23.8467 2.31188 16.0265C3.9365 8.28829 11.0848 2.83288 19.8577 4.21429Z" fill="white"/>
<path d="M26.4983 14.1601C25.5844 14.1601 24.6706 14.1601 23.7567 14.1601C22.4774 14.1454 21.3642 13.3521 21.0651 12.2354C20.7992 11.2217 21.3642 10.0757 22.4608 9.56147C22.8761 9.35578 23.2417 9.1354 23.574 8.82686C24.0558 8.41548 24.6374 8.12164 25.3518 8.15102C25.6675 8.16572 25.9167 8.06287 26.1992 7.93064C27.7112 7.15195 29.4391 7.6221 30.1868 9.00317C30.353 9.3264 30.5856 9.54678 30.9013 9.76716C31.8816 10.4283 32.2305 11.4421 31.8484 12.4411C31.4662 13.4843 30.4859 14.1307 29.2398 14.1601C28.3259 14.1748 27.4121 14.1601 26.4983 14.1601Z" fill="white"/>
</g>
<defs>
<clipPath id="clip0_19_135">
<rect width="34" height="34" fill="white"/>
</clipPath>
</defs>
</svg>
