<svg xmlns="http://www.w3.org/2000/svg" width="49.643" height="23.819" viewBox="0 0 49.643 23.819">
  <g transform="translate(0.513 0.513)">
    <path d="M80.371,279.929q-1.033-3.105-2.066-6.212a.763.763,0,0,1,.542-1.077.855.855,0,0,1,.424.036q5.026,1.667,10.05,3.342a8.34,8.34,0,0,0,.672-3.289h0a8.358,8.358,0,0,0-8.358-8.358H52.571a8.358,8.358,0,0,0-8.359,8.358h0a8.359,8.359,0,0,0,8.359,8.359H80.758Z" transform="translate(-44.212 -264.371)" fill="none" stroke="#fff" stroke-miterlimit="10" stroke-width="1.026"/>
    <g transform="translate(33.755 7.927)">
      <g>
        <path d="M79.256,285.855a3.644,3.644,0,0,1-.525-.367c-1.209-1.194-2.407-2.4-3.609-3.6a1.657,1.657,0,0,1-.151-.205c-.093.088-.148.138-.2.19q-.828.83-1.658,1.661a.692.692,0,0,1-1.251-.287q-.974-2.925-1.947-5.852-.907-2.725-1.814-5.448a.671.671,0,0,1,.477-.945.733.733,0,0,1,.372.031q5.695,1.888,11.388,3.787a.677.677,0,0,1,.284,1.2c-.56.569-1.125,1.13-1.689,1.694-.051.052-.1.108-.159.169l.162.169q1.8,1.8,3.6,3.607a4.548,4.548,0,0,1,.374.5v.316a5.428,5.428,0,0,1-.395.505q-1.24,1.256-2.5,2.492a4.092,4.092,0,0,1-.535.387Z" transform="translate(-68.049 -270.989)" fill="none" stroke="#fff" stroke-miterlimit="10" stroke-width="1.026"/>
      </g>
    </g>
  </g>
</svg>
