<svg xmlns="http://www.w3.org/2000/svg" data-name="Component 3 – 1" viewBox="0 0 31 30">
  <path fill="#fff" d="M48.919,360.706V335.283a.974.974,0,0,0,.054-.132,2.891,2.891,0,0,1,2.9-2.37q12.233,0,24.466,0a2.991,2.991,0,0,1,2.832,1.945c.094.239.155.489.229.735v25.185c-.012.015-.033.029-.037.045a2.908,2.908,0,0,1-3.158,2.458H62.936q-5.506,0-11.011,0a2.987,2.987,0,0,1-2.319-1.019A3.284,3.284,0,0,1,48.919,360.706Zm15.226-25.767q-6.057,0-12.114,0c-.676,0-.945.264-.945.934q0,12.083,0,24.168c0,.675.266.945.935.945q12.085,0,24.168,0c.667,0,.941-.274.941-.942q0-12.082,0-24.168c0-.686-.254-.939-.93-.939Z" transform="translate(-49 -333)"/>
  <path fill="#fff" d="M64.3,345q-3,0-6.009,0a1.054,1.054,0,0,1-1.189-1.214.981.981,0,0,1,.791-.921,1.816,1.816,0,0,1,.382-.039q5.98,0,11.959,0a1.153,1.153,0,0,1,1.223.839.979.979,0,0,1-.764,1.3,2.617,2.617,0,0,1-.472.034Z" transform="translate(-45 -328)"/>
  <path fill="#fff" d="M64.308,340.586c-2.015,0-4.028,0-6.04,0a1.015,1.015,0,0,1-1.131-.758,1.054,1.054,0,0,1,1.041-1.405q6.084-.009,12.168,0a1.088,1.088,0,0,1,1.167,1.2.979.979,0,0,1-.9.946,3.857,3.857,0,0,1-.417.017Q67.252,340.588,64.308,340.586Z" transform="translate(-45 -330)"/>
  <path fill="#fff" d="M64.307,349.339c-2.033,0-4.067,0-6.1,0a1.066,1.066,0,0,1-1.054-1.466.942.942,0,0,1,.819-.681,3.185,3.185,0,0,1,.414-.018q5.861,0,11.722,0a3.681,3.681,0,0,1,.386.012,1.07,1.07,0,0,1,1.02,1.16,1.013,1.013,0,0,1-1.109.993C68.372,349.342,66.34,349.339,64.307,349.339Z" transform="translate(-45 -326)"/>
  <path fill="#fff" d="M55.2,336.976a3.023,3.023,0,0,1,3.048,3.031,3.036,3.036,0,0,1-6.072.024A3.023,3.023,0,0,1,55.2,336.976Zm.027,3.781a.849.849,0,0,0,.854-.873.867.867,0,1,0-1.734.027A.846.846,0,0,0,55.225,340.758Z" transform="translate(-47 -331)"/>
  <path fill="#fff" d="M58.246,348.841a2.973,2.973,0,0,1-3.036,3.029,3.036,3.036,0,1,1,3.036-3.029Zm-3.9-.1a.865.865,0,0,0,.857.847.943.943,0,0,0,.876-.885.866.866,0,0,0-1.733.038Z" transform="translate(-47 -326)"/>
  <path fill="#fff" d="M55.234,341.388a3.021,3.021,0,0,1,3.012,3.068,2.977,2.977,0,0,1-3.033,3,3.036,3.036,0,1,1,.021-6.072Zm.843,2.91a.865.865,0,0,0-.885-.855.8.8,0,0,0-.848.867.866.866,0,1,0,1.733-.012Z" transform="translate(-47 -328)"/>
</svg>