<svg width="195" height="36" viewBox="0 0 195 36" fill="none" xmlns="http://www.w3.org/2000/svg">
    <path
        d="M21.8772 20.1766H21.8628C21.4031 20.1897 20.9653 20.2237 20.543 20.2764C19.6554 20.3825 18.7845 20.5989 17.9507 20.9208C16.169 21.62 14.8645 22.7638 13.8131 24.1623C11.8839 26.7319 10.8072 30.161 9.19367 33.2785C9.186 33.2949 9.17605 33.3158 9.1661 33.3334C8.6787 34.3047 7.87726 35.0835 6.89157 35.5442C5.90575 36.0049 4.79323 36.1205 3.73357 35.8722C2.67389 35.6241 1.729 35.0265 1.05154 34.1763C0.37409 33.326 0.00361877 32.2727 9.40753e-07 31.1862C-0.000160449 30.9268 0.0204438 30.6676 0.0615849 30.4113C0.0802927 30.3016 0.102282 30.1863 0.128683 30.0755C0.336957 29.1968 0.787841 28.3941 1.43017 27.7582C2.07249 27.1224 2.88053 26.679 3.76262 26.4784L5.24741 21.8494L7.13689 20.5322L9.97453 18.5564L12.8485 18.9494L17.1818 19.541L21.8772 20.1766Z"
        fill="url(#paint0_linear_1_1926)" />
    <path
        d="M18.2422 20.2972L18.1432 20.5047L17.9453 20.9207C16.1635 21.6199 14.8591 22.7638 13.8076 24.1622C2.00289 26.0491 0.601684 32.599 0.601684 32.599L0.334421 32.6252C-0.116933 31.138 0.0147614 29.5353 0.702862 28.1413L4.01783 21.3981L7.14032 20.53L12.8518 18.9427L15.387 18.238L17.1808 19.5343L18.2422 20.2972Z"
        fill="url(#paint1_linear_1_1926)" fill-opacity="0.14" />
    <path
        d="M33.2936 12.0954C33.1561 12.6157 33.0066 13.0987 32.8471 13.5476C30.3174 20.6826 24.9688 19.7144 18.1927 20.4992C13.7339 21.0196 8.65698 22.2939 3.35572 27.1425C1.26598 29.0469 -0.224305 31.4552 1.02512 33.9843C1.07351 34.082 1.12521 34.1785 1.18021 34.2708C0.941361 33.9912 0.737836 33.6833 0.574186 33.3542C0.568954 33.3487 0.565511 33.3419 0.564287 33.3345C0.305821 32.7572 0.139912 32.1431 0.0726524 31.5145C0.0715496 31.5013 0.0715496 31.4882 0.0726524 31.475C-0.0481884 30.3299 0.158498 29.174 0.668773 28.1413L3.90014 21.5629L4.52042 20.3049C4.52042 20.3049 4.52593 20.2929 4.52808 20.2853L4.60299 20.1337C4.61227 20.1127 4.6233 20.0925 4.63594 20.0733L4.82074 19.6947C4.82074 19.6947 4.82074 19.6947 4.82074 19.6826C4.82074 19.6705 4.82074 19.6826 4.82625 19.6771L5.33207 18.6442L5.72143 17.8527L8.5514 12.1009L33.2936 12.0954Z"
        fill="url(#paint2_linear_1_1926)" />
    <path
        d="M33.2925 12.0965C33.1561 12.6145 33.0055 13.0987 32.8526 13.5487L32.4963 13.5246C27.1928 13.1436 22.8758 13.2414 19.3695 13.6278C10.3629 14.6156 6.67725 17.5278 5.29145 19.1601C5.28378 19.1678 5.27827 19.1765 5.27047 19.1842C5.10477 19.3785 4.95159 19.5831 4.81185 19.7968C4.74043 19.9065 4.68758 19.9943 4.64575 20.0679L4.82947 19.6892C4.82947 19.6892 4.82947 19.6837 4.82947 19.6782C4.82947 19.6726 4.82947 19.6782 4.83498 19.6726L5.34094 18.6397L5.73137 17.8484V17.8429L8.55906 12.0909L33.2925 12.0965Z"
        fill="url(#paint3_linear_1_1926)" fill-opacity="0.14" />
    <path
        d="M47.8324 0.981386C47.5854 4.00974 46.2056 6.83433 43.9672 8.8938C41.7289 10.9533 38.796 12.0966 35.7516 12.0965H21.2269C20.353 12.0954 19.4796 12.1408 18.6104 12.2326C10.9532 13.0349 6.79476 17.2183 5.3826 18.9493L5.33526 19.0042C5.31872 19.0261 5.30338 19.047 5.28469 19.0678C5.13513 19.2599 5.01853 19.4147 4.94268 19.5223C4.88982 19.5958 4.85566 19.6486 4.83266 19.6749C4.83266 19.6749 4.83266 19.6803 4.82715 19.6803L5.33862 18.6419L5.72905 17.8538V17.8483L8.55674 12.0965H8.58754C10.3687 8.46787 13.1342 5.4106 16.5694 3.27232C20.0047 1.13404 23.972 0.000268983 28.0208 0H46.9283C47.0538 0.000134492 47.1779 0.0263613 47.2928 0.0767957C47.4076 0.12723 47.5108 0.200796 47.5957 0.293058C47.6807 0.385184 47.7455 0.493988 47.7862 0.612476C47.827 0.730963 47.8427 0.856578 47.8324 0.981386Z"
        fill="url(#paint4_linear_1_1926)" />
    <path
        d="M44.0533 0C43.2114 1.82088 41.9286 3.40399 40.3205 4.60648C38.7124 5.80897 36.8296 6.59305 34.8421 6.88799L20.4803 9.02843C18.937 9.25209 17.4196 9.62679 15.9499 10.147C14.529 10.648 13.1667 11.3012 11.887 12.0954C7.26765 14.968 5.50796 18.6727 5.37817 18.9494L5.58933 18.2907L5.67069 18.0415L5.72906 17.8549V17.8495L8.55675 12.0975H8.58755C10.3686 8.46881 13.1339 5.41128 16.5692 3.27286C20.0046 1.1343 23.9721 0.000403475 28.0208 0H44.0533Z"
        fill="url(#paint5_linear_1_1926)" />
    <path
        d="M36.3413 0C35.1336 1.05092 33.7282 1.85101 32.2071 2.35347L18.4237 6.91436C16.3438 7.58829 14.37 8.55327 12.5614 9.78038C11.5565 10.467 10.6153 11.242 9.74922 12.0965C8.43255 13.3946 7.31317 14.8779 6.42647 16.4993C6.18237 16.9515 5.98655 17.3642 5.82381 17.7276L5.81615 17.743C5.72926 17.9405 5.6522 18.1238 5.58953 18.2918C5.47077 18.5947 5.38604 18.8407 5.33103 19.0097C5.31234 19.07 5.29916 19.1195 5.28598 19.1622C5.26728 19.2282 5.2541 19.272 5.25195 19.2863L5.26513 19.1865L5.28047 19.0766L5.32552 18.7473L5.33883 18.6551L5.72926 17.867V17.8614L8.55695 12.1096H8.58775C10.3671 8.47863 13.1317 5.41867 16.5671 3.27797C20.0026 1.13713 23.9709 0.00147941 28.021 0H36.3413Z"
        fill="url(#paint6_linear_1_1926)" />
    <path d="M55.4641 26H58.9921V18.896H68.6881V16.208H58.9921V11.336H69.6481V8.50403H55.4641V26Z" fill="#101828" />
    <path d="M71.1749 26H74.5829V8.50403H71.1749V26Z" fill="#101828" />
    <path
        d="M76.768 30.008H78.784C80.08 30.008 81.152 29.768 82 29.288C82.848 28.808 83.544 27.992 84.088 26.84L90.592 13.232H87.016L84.0401 20.096L83.296 21.848H83.1521L82.3841 20.096L79.216 13.232H75.52L81.5201 25.04L81.184 25.76C80.96 26.272 80.648 26.656 80.248 26.912C79.848 27.168 79.24 27.296 78.424 27.296H76.768V30.008Z"
        fill="#101828" />
    <path d="M91.5196 11.432H94.9276V8.50403H91.5196V11.432ZM91.5196 26H94.9276V13.232H91.5196V26Z" fill="#101828" />
    <path
        d="M96.9927 26H100.401V19.64C100.401 18.456 100.761 17.488 101.481 16.736C102.217 15.984 103.185 15.608 104.385 15.608C105.553 15.608 106.393 15.944 106.905 16.616C107.417 17.288 107.673 18.28 107.673 19.592V26H111.081V18.992C111.081 17.488 110.841 16.304 110.361 15.44C109.897 14.56 109.249 13.936 108.417 13.568C107.585 13.184 106.617 12.992 105.513 12.992C104.489 12.992 103.521 13.224 102.609 13.688C101.697 14.136 101.025 14.784 100.593 15.632H100.401L100.281 13.232H96.9927V26Z"
        fill="#101828" />
    <path
        d="M119.398 30.248C121.83 30.248 123.646 29.76 124.846 28.784C126.062 27.824 126.67 26.44 126.67 24.632V13.232H123.454L123.31 15.344H123.142C122.742 14.624 122.134 14.056 121.318 13.64C120.502 13.208 119.55 12.992 118.462 12.992C117.262 12.992 116.206 13.248 115.294 13.76C114.382 14.272 113.67 14.984 113.158 15.896C112.646 16.808 112.39 17.88 112.39 19.112C112.39 20.328 112.63 21.4 113.11 22.328C113.606 23.24 114.302 23.952 115.198 24.464C116.094 24.96 117.15 25.208 118.366 25.208C119.406 25.208 120.358 25 121.222 24.584C122.102 24.168 122.734 23.584 123.118 22.832H123.262V25.04C123.262 26.08 122.91 26.824 122.206 27.272C121.518 27.72 120.598 27.944 119.446 27.944C118.518 27.944 117.758 27.8 117.166 27.512C116.59 27.224 116.238 26.784 116.11 26.192H112.87C112.998 27.44 113.614 28.424 114.718 29.144C115.838 29.88 117.398 30.248 119.398 30.248ZM119.518 22.688C118.398 22.688 117.502 22.368 116.83 21.728C116.158 21.088 115.822 20.208 115.822 19.088C115.822 18 116.158 17.128 116.83 16.472C117.518 15.816 118.43 15.488 119.566 15.488C120.702 15.488 121.598 15.8 122.254 16.424C122.926 17.048 123.262 17.848 123.262 18.824V19.496C123.262 20.424 122.918 21.192 122.23 21.8C121.558 22.392 120.654 22.688 119.518 22.688Z"
        fill="#101828" />
    <path
        d="M128.969 26H131.849V19.568H137.633C139.649 19.584 141.249 19.128 142.433 18.2C143.617 17.256 144.209 15.872 144.209 14.048C144.209 12.336 143.665 10.984 142.577 9.99203C141.489 9.00003 139.849 8.50403 137.657 8.50403H128.969V26ZM137.345 10.808C138.593 10.808 139.561 11.088 140.249 11.648C140.937 12.192 141.281 13.016 141.281 14.12C141.281 15.144 140.953 15.96 140.297 16.568C139.657 17.16 138.673 17.456 137.345 17.456H131.849V10.808H137.345Z"
        fill="#101828" />
    <path
        d="M145.664 26H148.424V19.112C148.504 17.928 148.864 17.056 149.504 16.496C150.16 15.92 151 15.632 152.024 15.632C152.488 15.632 152.888 15.68 153.224 15.776V13.232C153.096 13.2 152.928 13.176 152.72 13.16C152.528 13.144 152.312 13.136 152.072 13.136C151.192 13.136 150.424 13.352 149.768 13.784C149.128 14.216 148.672 14.8 148.4 15.536H148.304L148.184 13.304H145.664V26Z"
        fill="#101828" />
    <path
        d="M160.601 26.216C161.817 26.216 162.921 26.048 163.913 25.712C164.905 25.36 165.713 24.872 166.337 24.248C166.977 23.624 167.361 22.896 167.489 22.064H164.825C164.617 22.72 164.145 23.248 163.409 23.648C162.673 24.032 161.761 24.224 160.673 24.224C159.265 24.224 158.145 23.872 157.313 23.168C156.497 22.464 156.073 21.472 156.041 20.192H167.561C167.657 18.704 167.433 17.432 166.889 16.376C166.345 15.32 165.529 14.512 164.441 13.952C163.369 13.392 162.065 13.112 160.529 13.112C159.057 13.112 157.777 13.384 156.689 13.928C155.601 14.456 154.753 15.216 154.145 16.208C153.553 17.184 153.257 18.352 153.257 19.712C153.257 21.04 153.553 22.192 154.145 23.168C154.753 24.144 155.609 24.896 156.713 25.424C157.817 25.952 159.113 26.216 160.601 26.216ZM160.505 15.104C161.785 15.104 162.801 15.408 163.553 16.016C164.321 16.608 164.729 17.456 164.777 18.56H156.017C156.161 17.488 156.625 16.648 157.409 16.04C158.193 15.416 159.225 15.104 160.505 15.104Z"
        fill="#101828" />
    <path
        d="M174.934 26.24C177.078 26.24 178.67 25.888 179.71 25.184C180.75 24.48 181.27 23.544 181.27 22.376C181.27 21.464 181.062 20.76 180.646 20.264C180.246 19.752 179.606 19.376 178.726 19.136C177.862 18.88 176.718 18.688 175.294 18.56C173.982 18.432 173.03 18.248 172.438 18.008C171.862 17.768 171.574 17.336 171.574 16.712C171.574 16.056 171.886 15.584 172.51 15.296C173.134 15.008 173.934 14.864 174.91 14.864C175.854 14.864 176.63 15.04 177.238 15.392C177.846 15.744 178.19 16.312 178.27 17.096H180.91C180.798 15.832 180.222 14.848 179.182 14.144C178.158 13.424 176.734 13.064 174.91 13.064C173.038 13.064 171.558 13.416 170.47 14.12C169.398 14.808 168.862 15.744 168.862 16.928C168.862 17.728 169.062 18.368 169.462 18.848C169.862 19.328 170.494 19.696 171.358 19.952C172.238 20.208 173.366 20.408 174.742 20.552C175.702 20.648 176.454 20.76 176.998 20.888C177.542 21.016 177.926 21.208 178.15 21.464C178.39 21.72 178.51 22.088 178.51 22.568C178.51 23.224 178.198 23.704 177.574 24.008C176.95 24.312 176.094 24.464 175.006 24.464C173.806 24.464 172.87 24.248 172.198 23.816C171.526 23.384 171.174 22.784 171.142 22.016H168.406C168.454 23.296 169.038 24.32 170.158 25.088C171.294 25.856 172.886 26.24 174.934 26.24Z"
        fill="#101828" />
    <path
        d="M188.563 26.24C190.707 26.24 192.299 25.888 193.339 25.184C194.379 24.48 194.899 23.544 194.899 22.376C194.899 21.464 194.691 20.76 194.275 20.264C193.875 19.752 193.235 19.376 192.355 19.136C191.491 18.88 190.347 18.688 188.923 18.56C187.611 18.432 186.659 18.248 186.067 18.008C185.491 17.768 185.203 17.336 185.203 16.712C185.203 16.056 185.515 15.584 186.139 15.296C186.763 15.008 187.563 14.864 188.539 14.864C189.483 14.864 190.259 15.04 190.867 15.392C191.475 15.744 191.819 16.312 191.899 17.096H194.539C194.427 15.832 193.851 14.848 192.811 14.144C191.787 13.424 190.363 13.064 188.539 13.064C186.667 13.064 185.187 13.416 184.099 14.12C183.027 14.808 182.491 15.744 182.491 16.928C182.491 17.728 182.691 18.368 183.091 18.848C183.491 19.328 184.123 19.696 184.987 19.952C185.867 20.208 186.995 20.408 188.371 20.552C189.331 20.648 190.083 20.76 190.627 20.888C191.171 21.016 191.555 21.208 191.779 21.464C192.019 21.72 192.139 22.088 192.139 22.568C192.139 23.224 191.827 23.704 191.203 24.008C190.579 24.312 189.723 24.464 188.635 24.464C187.435 24.464 186.499 24.248 185.827 23.816C185.155 23.384 184.803 22.784 184.771 22.016H182.035C182.083 23.296 182.667 24.32 183.787 25.088C184.923 25.856 186.515 26.24 188.563 26.24Z"
        fill="#101828" />
    <defs>
        <linearGradient id="paint0_linear_1_1926" x1="-0.00989765" y1="27.2807" x2="21.8772" y2="27.2807"
            gradientUnits="userSpaceOnUse">
            <stop stop-color="#2D208C" />
            <stop offset="1" stop-color="#361CB8" />
        </linearGradient>
        <linearGradient id="paint1_linear_1_1926" x1="0.0693514" y1="25.4311" x2="18.2422" y2="25.4311"
            gradientUnits="userSpaceOnUse">
            <stop />
            <stop offset="1" stop-opacity="0" />
        </linearGradient>
        <linearGradient id="paint2_linear_1_1926" x1="0.036353" y1="23.183" x2="33.2936" y2="23.183"
            gradientUnits="userSpaceOnUse">
            <stop stop-color="#2940E0" />
            <stop offset="1" stop-color="#708AFF" />
        </linearGradient>
        <linearGradient id="paint3_linear_1_1926" x1="4299.93" y1="1807.68" x2="11763.8" y2="1807.68"
            gradientUnits="userSpaceOnUse">
            <stop />
            <stop offset="1" stop-opacity="0" />
        </linearGradient>
        <linearGradient id="paint4_linear_1_1926" x1="4.82486" y1="9.84184" x2="47.8357" y2="9.84184"
            gradientUnits="userSpaceOnUse">
            <stop stop-color="#5E7EFF" />
            <stop offset="1" stop-color="#ABBBFF" />
        </linearGradient>
        <linearGradient id="paint5_linear_1_1926" x1="5.37602" y1="9.47629" x2="44.0533" y2="9.47629"
            gradientUnits="userSpaceOnUse">
            <stop stop-color="#5470FF" />
            <stop offset="1" stop-color="#B3C4FF" />
        </linearGradient>
        <linearGradient id="paint6_linear_1_1926" x1="5.24967" y1="9.64212" x2="36.3413" y2="9.64212"
            gradientUnits="userSpaceOnUse">
            <stop stop-color="#5476FF" />
            <stop offset="1" stop-color="#ABBBFF" />
        </linearGradient>
    </defs>
</svg>