<?xml version="1.0" encoding="utf-8"?>
<!-- Generator: Adobe Illustrator 21.0.0, SVG Export Plug-In . SVG Version: 6.00 Build 0)  -->
<svg version="1.1" id="Layer_1" xmlns="http://www.w3.org/2000/svg" xmlns:xlink="http://www.w3.org/1999/xlink" x="0px" y="0px"
	 viewBox="0 0 40 40" style="enable-background:new 0 0 40 40;" xml:space="preserve">
<style type="text/css">
	.st0{fill:#FFD222;}
	.st1{fill:#403616;}
	.st2{clip-path:url(#XMLID_2_);fill:#F15C5A;}
</style>
<g id="XMLID_21_">
	<g id="XMLID_381_">
		<circle id="XMLID_382_" class="st0" cx="20" cy="19.9" r="19"/>
	</g>
	<g id="XMLID_346_">
		<path id="XMLID_348_" class="st1" d="M11.4,20.2L11.4,20.2c-0.8,0-1.4-0.6-1.4-1.4v-3.3c0-0.8,0.6-1.4,1.4-1.4l0,0
			c0.8,0,1.4,0.6,1.4,1.4v3.3C12.7,19.6,12.1,20.2,11.4,20.2z"/>
		<path id="XMLID_347_" class="st1" d="M28.6,20.2L28.6,20.2c-0.8,0-1.4-0.6-1.4-1.4v-3.3c0-0.8,0.6-1.4,1.4-1.4l0,0
			c0.8,0,1.4,0.6,1.4,1.4v3.3C30,19.6,29.4,20.2,28.6,20.2z"/>
	</g>
	<g id="XMLID_102_">
		<path id="XMLID_111_" class="st1" d="M10.3,24.7c-0.4,0-0.7,0.4-0.5,0.8c0.8,2,3.5,7,10.2,7c6.7,0,9.5-5,10.3-7
			c0.2-0.4-0.1-0.8-0.5-0.8L10.3,24.7z"/>
		<g id="XMLID_103_">
			<defs>
				<path id="XMLID_109_" d="M10.3,24.7c-0.4,0-0.7,0.4-0.5,0.8c0.8,2,3.5,7,10.2,7c6.7,0,9.5-5,10.3-7c0.2-0.4-0.1-0.8-0.5-0.8
					L10.3,24.7z"/>
			</defs>
			<clipPath id="XMLID_2_">
				<use xlink:href="#XMLID_109_"  style="overflow:visible;"/>
			</clipPath>
			<ellipse id="XMLID_108_" class="st2" cx="19.9" cy="31.8" rx="7.3" ry="4"/>
		</g>
	</g>
</g>
</svg>
