<?xml version="1.0" encoding="utf-8"?>
<!-- Generator: Adobe Illustrator 21.0.0, SVG Export Plug-In . SVG Version: 6.00 Build 0)  -->
<svg version="1.1" id="Layer_1" xmlns="http://www.w3.org/2000/svg" xmlns:xlink="http://www.w3.org/1999/xlink" x="0px" y="0px"
	 viewBox="0 0 315 315" style="enable-background:new 0 0 315 315;" xml:space="preserve">
<g>
	<path d="M265,36.4h-70.5v-5.8c0-8.6-8.4-15.6-18.8-15.6h-37.4c-10.4,0-18.8,7-18.8,15.6v5.8H49c-10.5,0-19,6.9-19,15.5v10.2
		c0,6.4,4.8,11.9,11.6,14.3c2.2,35.5,14.7,206.9,15.3,214.6c0.2,3.3,3.6,5.9,7.6,5.9h185c4,0,7.4-2.6,7.6-5.9
		c0.6-7.7,13.1-179.1,15.3-214.6c6.8-2.3,11.6-7.9,11.6-14.3V51.9C284,43.4,275.5,36.4,265,36.4z M134.8,30.6c0-1.7,1.6-3.1,3.6-3.1
		h37.4c2,0,3.6,1.4,3.6,3.1v5.8h-44.5L134.8,30.6L134.8,30.6z M45.2,51.9c0-1.6,1.7-3,3.7-3h216c2.1,0,3.7,1.3,3.7,3v10.2
		c0,1.6-1.7,3-3.7,3H49c-2.1,0-3.7-1.3-3.7-3L45.2,51.9L45.2,51.9z M242.3,284.4H71.7C69.4,253.7,59.2,112.8,57,77.6H257
		C254.8,112.8,244.6,253.7,242.3,284.4z"/>
	<path d="M157,100.1c-4.2,0-7.6,2.8-7.6,6.3V264c0,3.5,3.4,6.3,7.6,6.3c4.2,0,7.6-2.8,7.6-6.3V106.4
		C164.6,102.9,161.2,100.1,157,100.1L157,100.1z"/>
	<path d="M105.5,106.3c-0.2-3.5-3.8-6.1-8-5.9c-4.2,0.2-7.4,3.1-7.2,6.6l10,157.3c0.2,3.3,3.6,5.9,7.6,5.9c0.1,0,0.3,0,0.4,0
		c4.2-0.2,7.4-3.1,7.2-6.6C115.5,263.7,105.5,106.3,105.5,106.3z"/>
	<path d="M216.5,100.4c-4.2-0.2-7.8,2.5-8,5.9l-10,157.3c-0.2,3.5,3,6.4,7.2,6.6c0.1,0,0.3,0,0.4,0c4,0,7.4-2.6,7.6-5.9l10-157.3
		C223.9,103.5,220.7,100.6,216.5,100.4z"/>
</g>
</svg>
