<svg style="position: absolute; width: 0; height: 0; overflow: hidden;" version="1.1"
     xmlns="http://www.w3.org/2000/svg" id="tu-automator-icons">
    <defs>
        <symbol id="tap-ultimatum-logo" viewBox="0 0 19 20">
            <defs>
                <path id="bd1u6txnua" d="M0 0.165L17.254 0.165 17.254 18.99 0 18.99z"/>
                <path id="c3o78o0c3c" d="M0.769 0.054L12.769 0.054 12.769 8.054 0.769 8.054z"/>
            </defs>
            <g fill="none" fill-rule="evenodd">
                <g>
                    <g>
                        <g transform="translate(-779 -236) translate(779 236) translate(0 .1)">
                            <mask id="06ae0xzukb" fill="#fff">
                                <use xlink:href="#bd1u6txnua"/>
                            </mask>
                            <path fill="#424242"
                                  d="M9.5 1.373L7.86.165V1.77c-2.075.18-3.94 1.102-5.337 2.494C.965 5.822 0 7.979 0 10.36c0 2.383.965 4.539 2.523 6.101.111.11.227.218.342.324l.986-1.148c-.09-.081-.175-.162-.256-.243-1.29-1.29-2.084-3.066-2.084-5.034 0-1.964.795-3.74 2.084-5.03 1.119-1.118 2.609-1.866 4.266-2.04v1.703L9.5 3.786l1.64-1.204L9.5 1.373zm2.664 7.067c.15-.141.158-.385.013-.538l-.295-.308c-.145-.153-.384-.158-.537-.017L8.907 9.883c-.039 0-.073.004-.107.004-.09.013-.171.038-.248.072L6.038 7.34l-.466.443 2.536 2.639c-.038.09-.06.179-.064.273l-.183.175c-.15.14-.159.384-.013.538l.294.307c.146.154.385.158.538.017l.124-.12c.072.01.145.01.218 0 .064-.008.124-.025.18-.046l.17.18.465-.445-.153-.158c.068-.136.102-.29.093-.448l2.387-2.254zm.086-5.91l-.602 1.388c.277.132.546.282.802.444l.914-1.213c-.354-.23-.726-.44-1.114-.618zm2.476 1.734c-.239-.24-.486-.461-.751-.67l-.91 1.208c.205.166.406.341.594.53.076.076.149.157.222.238l1.2-.935c-.116-.128-.235-.252-.355-.371zm.829.96l-1.192.931c.359.491.658 1.029.888 1.606l1.448-.444c-.282-.752-.67-1.456-1.144-2.093zm1.378 2.81l-1.447.44c.154.559.24 1.144.252 1.746l1.516.09c-.004-.79-.115-1.55-.32-2.276zm-1.22 2.941c-.103 1.222-.517 2.358-1.162 3.326l.26.206c.449-.15.944-.257 1.418-.35.034-.009.09-.018.158-.03h.004c.453-.935.743-1.969.833-3.062l-1.512-.09zM9.55 17.418c-.303.04-.61.06-.926.06-1.567 0-3.014-.508-4.189-1.366l-.986 1.153c1.443 1.084 3.232 1.725 5.175 1.725.222 0 .44-.009.653-.022.111-.354.243-.657.376-.913l-.103-.637z"
                                  mask="url(#06ae0xzukb)"/>
                        </g>
                        <path fill="#424242" d="M9.297 18.042c-.004.009-.004.017-.012.025H9.3l-.004-.025z" transform="translate(-779 -236) translate(779 236)"/>
                        <g transform="translate(-779 -236) translate(779 236) translate(7.23 11.946)">
                            <mask id="9jzbtna6od" fill="#fff">
                                <use xlink:href="#c3o78o0c3c"/>
                            </mask>
                            <path fill="#59A31D"
                                  d="M10.639 1.054c-.659 0-2.035.257-2.577.37-.515.106-1.189.253-1.69.455-.385.156-.752.31-1.122.501-.345.18-.681.387-.994.622l-.308.235c-.055.042-.094.08-.147.124-.053.042-.097.09-.145.128-.109.083-.198.207-.3.29-.103.083-.453.495-.543.62l-.328.48c-.317.497-.565 1.092-.657 1.681-.034.216-.031.329-.055.497l-.004.024v.261c.022.316.105.682.106.712h.023c.017-.223.346-1.019.426-1.185l.204-.393c.122-.21.252-.418.394-.614.095-.132.194-.265.306-.383.025-.027.025-.033.047-.06.116-.144.268-.276.395-.41l.426-.378.053-.04.751-.549c.227-.139.443-.292.672-.425.207-.119.52-.29.72-.375l.542-.248c.28-.114.563-.25.85-.347l.586-.214.296-.102c.088-.03.211-.088.305-.095l-.646.308c-.22.093-.62.31-.853.431l-.62.345c-.197.119-.405.238-.596.37l-.571.41c-.036.027-.051.042-.085.068l-.046.036-.126.111c-.021.02-.024.018-.046.038-.016.014-.025.025-.04.042L4.7 4.98l-.6.859-.24.415c-.021.037-.035.066-.054.101-.119.214-.227.436-.325.663l-.047.12c.16.04 1.052.03 1.266-.002L5.1 7.09c.653-.073 1.405-.26 1.978-.556L7.16 6.5c.022-.01.048-.025.07-.036.03-.015.042-.026.074-.044l.143-.08c.097-.055.184-.117.272-.177.104-.071.213-.152.306-.238.134-.125.278-.257.391-.403.017-.023.033-.033.05-.056.182-.236.332-.491.494-.742.238-.368.46-.744.652-1.143.417-.862.532-.97 1.053-1.645.022-.027.023-.032.049-.059l.278-.277c.114-.104.263-.211.407-.266.129-.05.195-.074.371-.074-.123-.19-.65-.204-.99-.206h-.14zm-1.734 1.17c-.013.012.02.012-.034.012.012-.013-.021-.013.034-.013z"
                                  mask="url(#9jzbtna6od)"/>
                        </g>
                    </g>
                </g>
            </g>
        </symbol>
    </defs>
</svg>
