<svg xmlns="http://www.w3.org/2000/svg" width="800" height="800" xmlns:v="https://vecta.io/nano"><path fill="#5e8cda" d="M702.492 398.328l-170.867-170.89c-.715-.711-1.68-1.109-2.68-1.109l-.223.008c-1.074.063-2.074.586-2.746 1.434l-72.828 92.41c-1.188 1.508-1.055 3.66.297 5.016l78.461 78.461a14.79 14.79 0 0 1 4.355 10.578c-.012 3.961-1.551 7.664-4.34 10.422l-22.676 22.672c-1.277 1.281-1.473 3.281-.473 4.777l15.77 23.926c2.84 5.684 3.789 20.195-4.59 26.57l-178.507 137.1c-.93.719-1.477 1.828-1.477 3l-.008 56.445-.012 57.695.008 19.109.004 5.371c.004 2.637.008 4.234 2.098 5.273a3.78 3.78 0 0 0 1.691.402c1.563 0 2.188-.617 3.695-2.121l2.984-2.98 11.313-11.297 40.344-40.313 122.391-122.336 177.996-177.938c8.649-8.755 8.645-22.966.02-31.685z"/><path fill="#093071" d="M475.43 32.695l-.055-.078-.109-.137-.098-.117A3.81 3.81 0 0 0 472.434 31h-.176c-.996 0-1.961.398-2.676 1.109L113.613 388.121c-4.238 4.191-6.578 9.824-6.574 15.84.004 6.008 2.344 11.617 6.59 15.801l170.82 170.84a3.77 3.77 0 0 0 2.672 1.109c.074 0 .145 0 .223-.008 1.078-.066 2.074-.586 2.746-1.434l72.871-92.41a3.78 3.78 0 0 0-.297-5.012l-78.539-78.465c-2.781-2.758-4.309-6.457-4.316-10.422-.004-3.988 1.527-7.715 4.313-10.492l22.723-22.758a3.79 3.79 0 0 0 .43-4.836l-15.512-22.289c-6.266-8.883-4.32-21.492 4.324-28.121L474.66 178.453c.926-.715 1.48-1.82 1.48-3l.055-140.477a3.76 3.76 0 0 0-.765-2.281z"/><path fill="#f2c913" d="M506.875 473.734L309.141 345.316l87.336 125.559c1.883 2.871 1.688 7.781-.383 10.555L239.66 679.969c-2.77 3.594-5.078 7.488-3.125 11.512 1.059 2.109 3.617 3.789 6.086 3.996 3.09-.031 5.453-1.383 8.707-3.859l251.414-193c7.688-5.876 7.481-20.106 4.133-24.884z"/><path fill="#f4d646" d="M579.465 126.578c-1.184-2.418-3.816-4.055-6.543-4.055-2.43 0-4.734 1.051-8.242 3.734L313.16 319.406c-7.973 6.098-9.773 17.719-4.02 25.91l197.734 128.418-87.355-126.68c-1.895-2.68-1.738-7.898.324-10.52l156.438-198.621.109-.125c2.54-3.257 5.087-7.077 3.075-11.21z"/></svg>