<?xml version="1.0" encoding="UTF-8"?>
<svg viewBox="0 0 1000 1150" version="1.1" xmlns="http://www.w3.org/2000/svg" xmlns:xlink="http://www.w3.org/1999/xlink">

    <g id="Page-1" stroke="none" stroke-width="1" fill="none" fill-rule="evenodd">
        <g id="AE-Logo" transform="translate(-2100.000000, -700.000000)" fill="#979797" fill-rule="nonzero">
            <path d="M3100,949 L3100,1550 C3100,1660.45695 3010.45695,1750 2900,1750 L2350,1750 L2350,1850 L2100,1650 L2900,1650 C2955.22847,1650 3000,1605.22847 3000,1550 L3000,949 L3100,949 Z M2850,700 L3098.75,899 L3100,899 L3100,900 L2300,900 C2244.77153,900 2200,944.771525 2200,1000 L2200,1600 L2100,1600 L2100,1000 C2100,889.54305 2189.54305,800 2300,800 L2850,800 L2850,700 Z M2752.91104,1049 C2817.17601,1049 2867.88221,1070.21797 2905.03116,1112.65454 C2942.18011,1155.09111 2959.94083,1220.1008 2958.31387,1307.68555 L2671.97012,1307.68555 C2672.7836,1341.58057 2682.00291,1367.95051 2699.62832,1386.79614 C2717.25374,1405.64178 2739.21739,1415.06445 2765.51993,1415.06445 C2783.4165,1415.06445 2798.46567,1410.18364 2810.66787,1400.42188 C2822.87008,1390.66011 2832.08939,1374.93305 2838.32608,1353.24023 L2952.2128,1372.35693 C2937.57015,1414.11561 2914.45408,1445.90866 2882.86392,1467.73706 C2851.27376,1489.56546 2811.75275,1500.47949 2764.29971,1500.47949 C2711.6581,1500.47949 2668.60661,1488.42594 2635.14466,1464.3186 C2638.32188,1472.86899 2642.11284,1481.6692 2646.51807,1490.71777 L2533.44482,1490.71777 C2530.46206,1483.12529 2526.80145,1471.87231 2522.46289,1456.9585 C2520.56477,1450.17949 2519.20899,1445.70541 2518.39551,1443.53613 C2498.87197,1462.51735 2477.99295,1476.75304 2455.75781,1486.24365 C2433.52268,1495.73426 2409.79651,1500.47949 2384.57861,1500.47949 C2340.10834,1500.47949 2305.06141,1488.41304 2279.43677,1464.27979 C2253.81213,1440.14653 2241,1409.64146 2241,1372.76367 C2241,1348.35925 2246.82986,1326.59897 2258.48975,1307.48218 C2270.14964,1288.36538 2286.48679,1273.72295 2307.50171,1263.55444 C2328.51663,1253.38594 2358.81832,1244.50557 2398.40771,1236.91309 C2451.82628,1226.88016 2488.83909,1217.52527 2509.44727,1208.84814 L2509.44727,1197.45947 C2509.44727,1175.4955 2504.02414,1159.83623 2493.17773,1150.4812 C2482.33133,1141.12617 2461.85904,1136.44873 2431.76025,1136.44873 C2411.42324,1136.44873 2395.5606,1140.44828 2384.17187,1148.44751 C2372.78315,1156.44674 2363.56384,1170.47907 2356.51367,1190.54492 L2252.79541,1171.83496 C2264.4553,1130.07629 2284.52085,1099.16449 2312.99268,1079.09863 C2341.4645,1059.03278 2383.76486,1049 2439.89502,1049 C2490.87314,1049 2528.835,1055.03322 2553.78174,1067.09985 C2578.72848,1079.16648 2596.28584,1094.4868 2606.45435,1113.06128 C2606.65504,1113.42789 2606.85376,1113.80055 2607.0505,1114.17925 C2608.32904,1112.70191 2609.63245,1111.24488 2610.95938,1109.80737 C2648.37949,1069.26892 2695.69623,1049 2752.91104,1049 Z M2509.44727,1283.28125 C2494.80461,1288.16213 2471.62076,1293.99199 2439.89502,1300.771 C2408.16927,1307.55 2387.42583,1314.19333 2377.66406,1320.70117 C2362.75025,1331.27642 2355.29346,1344.69865 2355.29346,1360.96826 C2355.29346,1376.96671 2361.25889,1390.79568 2373.18994,1402.45557 C2385.12099,1414.11546 2400.30573,1419.94531 2418.74463,1419.94531 C2439.3528,1419.94531 2459.01163,1413.16641 2477.72168,1399.6084 C2491.55085,1389.30431 2500.63458,1376.69555 2504.97314,1361.78174 C2507.95591,1352.01997 2509.44727,1333.44577 2509.44727,1306.05859 L2509.44727,1283.28125 Z M2759.82559,1136.44873 C2734.87885,1136.44873 2714.27098,1145.53246 2698.00137,1163.7002 C2681.73176,1181.86793 2673.73265,1206.54314 2674.00381,1237.72656 L2844.83389,1237.72656 C2844.02041,1204.64502 2835.47899,1179.49528 2819.20938,1162.27661 C2802.93977,1145.05794 2783.14537,1136.44873 2759.82559,1136.44873 Z" id="Combined-Shape"></path>
        </g>
    </g>
</svg>
