<?xml version="1.0" encoding="utf-8"?>
<!-- Generator: Adobe Illustrator 21.0.0, SVG Export Plug-In . SVG Version: 6.00 Build 0)  -->
<svg version="1.1" id="Layer_1" xmlns="http://www.w3.org/2000/svg" xmlns:xlink="http://www.w3.org/1999/xlink" x="0px" y="0px"
	 viewBox="0 0 972.4 973.8" style="enable-background:new 0 0 972.4 973.8;" xml:space="preserve">
<style type="text/css">
	.fkehte{fill:#000 !important;}
	.kghe{fill:#FFF9F5 !important;}
	.fheud{fill:#FFFBF7 !important;}
</style>
<g>
	<path class="fkehte" d="M570.8,424.5c-9.4,0-17.6,3.9-24.5,11.7c-6.9,7.8-11.1,17.6-12.6,29.3H604C604,438.1,592.9,424.5,570.8,424.5z
		"/>
	<path class="fkehte" d="M528,616.2c-2.1,2.5-3.1,6.2-3.1,10.8c0,9.8,3.9,14.7,11.8,14.7c7.5,0,11.3-5,11.3-15.1
		c0-9.5-3.8-14.3-11.4-14.3C532.9,612.4,530,613.7,528,616.2z"/>
	<path class="fkehte" d="M423.9,629.8c0,3.5,0.9,6.4,2.8,8.6s4.3,3.3,7.3,3.3c3.6,0,6.4-1.4,8.3-4.2c2-2.8,3-6.7,3-11.7
		c0-8.9-3.5-13.4-10.4-13.4c-3.2,0-5.8,1.2-7.9,3.7c-2,2.4-3.1,5.7-3.1,9.7V629.8z"/>
	<path class="fkehte" d="M762.6,0H209.8C94.4,0,0,94.4,0,209.8V764c0,115.4,94.4,209.8,209.8,209.8h552.8
		c115.4,0,209.8-94.4,209.8-209.8V209.8C972.4,94.4,878,0,762.6,0z M806,344.7v287c0,88.8-72.2,160.9-160.9,160.9H328.8v82.5
		L166.5,715.3h23.4h138.9h316.2c46,0,83.6-37.4,83.6-83.6v-287l-0.4-39.1H806V344.7z M397.5,424.8c-22.7,0-44.4,6.8-64.9,20.3v-44.4
		c8.2-4.2,19.4-7.9,33.6-11.2c14.2-3.2,27.2-4.8,38.9-4.8c45.2,0,71.6,18.8,79.2,56.4c4.5-10.8,10.8-20.4,18.9-28.6
		c18.4-18.5,41-27.8,67.8-27.8c27.8,0,49.4,8.3,64.6,24.8c15.2,16.5,22.8,39,22.8,67.3v24.8H534.1c2,27.7,19.4,41.6,52.4,41.6
		l55.4-0.7v42.5h-68.8c-30.8,0-54.7-8.5-71.8-25.6c-5.9-5.9-10.7-12.6-14.5-20.1v45.7h-55.7v-32.1h-0.7
		c-12.8,21.4-31.7,32.1-56.8,32.1c-18.5,0-33.1-5.2-43.7-15.7c-10.6-10.5-15.9-24.5-15.9-42c0-37,21.9-58.4,65.8-64.1l51.8-6.9
		C431.5,435.3,420.1,424.8,397.5,424.8z M564,626.4c0,8.4-2.5,15.1-7.4,20c-4.9,4.9-11.7,7.4-20.3,7.4c-8.5,0-15.1-2.4-20-7.1
		c-4.8-4.7-7.3-11.2-7.3-19.3c0-8.4,2.5-15,7.5-19.7c5-4.7,11.8-7.1,20.4-7.1c8.4,0,15.1,2.4,19.9,7.1
		C561.6,612.3,564,618.6,564,626.4z M487.4,611.1c2.5-6.9,6.9-10.3,13.4-10.3c1.7,0,2.9,0.2,3.9,0.6v14.5c-1.9-1-4.1-1.5-6.6-1.5
		c-3.4,0-6.1,1.3-8,3.8c-1.9,2.5-2.9,5.9-2.9,10.2v24.3h-15.7v-50.9h15.7v9.4H487.4z M424.3,609.3c3.9-5.9,9.3-8.9,16.3-8.9
		c6.6,0,11.7,2.3,15.3,6.8c3.6,4.5,5.4,10.7,5.4,18.5c0,8.5-2.1,15.3-6.3,20.4c-4.2,5.1-9.8,7.7-16.7,7.7c-6.1,0-10.8-2.4-14-7.1
		h-0.2v29.3h-15.7v-74.3h15.7v7.7H424.3z M782.6,261.1C782.6,261.1,782.6,261.1,782.6,261.1l-455.2,0c-46,0-83.6,37.4-83.6,83.6v287
		l0.5,39.1h-77.8v-39.1v-287c0-88.8,72.2-160.9,160.9-160.9h317.7c0.4,0,0.7,0,1.1,0V98.7L806,261.1H782.6z"/>
	<path class="fkehte" d="M368.1,520.3c0,6.7,2.3,12.2,7,16.5c4.7,4.3,11,6.4,18.9,6.4c11.1,0,20.1-3.8,27-11.5c7-7.6,10.4-17.3,10.4-29
		v-12.9l-34.7,4.5C377.6,496.8,368.1,505.5,368.1,520.3z"/>
	<path class="kghe" d="M313.8,527.2c0,17.5,5.3,31.5,15.9,42c10.6,10.5,25.2,15.7,43.7,15.7c25.1,0,44-10.7,56.8-32.1h0.7v32.1h55.7
		v-45.7c3.8,7.5,8.6,14.2,14.5,20.1c17,17.1,40.9,25.6,71.8,25.6h68.8v-42.5l-55.4,0.7c-32.9,0-50.4-13.9-52.4-41.6h124.5v-24.8
		c0-28.3-7.6-50.8-22.8-67.3c-15.2-16.5-36.7-24.8-64.6-24.8c-26.8,0-49.5,9.3-67.8,27.8c-8.2,8.2-14.4,17.8-18.9,28.6
		c-7.6-37.5-34-56.4-79.2-56.4c-11.7,0-24.6,1.6-38.9,4.8c-14.2,3.2-25.4,7-33.6,11.2v44.4c20.5-13.5,42.1-20.3,64.9-20.3
		c22.6,0,33.9,10.4,33.9,31.3l-51.8,6.9C335.8,468.8,313.8,490.1,313.8,527.2z M546.3,436.2c6.9-7.8,15.1-11.7,24.5-11.7
		c22.1,0,33.2,13.7,33.2,41h-70.3C535.2,453.8,539.4,444,546.3,436.2z M431.5,489.9v12.9c0,11.7-3.5,21.3-10.4,29
		c-7,7.6-16,11.5-27,11.5c-7.9,0-14.3-2.1-18.9-6.4c-4.7-4.3-7-9.8-7-16.5c0-14.8,9.6-23.4,28.7-25.9L431.5,489.9z"/>
	<path class="kghe" d="M408.4,601.6v74.3h15.7v-29.3h0.2c3.2,4.8,7.9,7.1,14,7.1c7,0,12.5-2.6,16.7-7.7c4.2-5.1,6.3-11.9,6.3-20.4
		c0-7.8-1.8-13.9-5.4-18.5c-3.6-4.5-8.7-6.8-15.3-6.8c-7,0-12.5,3-16.3,8.9h-0.2v-7.7H408.4z M426.9,616.1c2-2.4,4.7-3.7,7.9-3.7
		c7,0,10.4,4.5,10.4,13.4c0,5.1-1,9-3,11.7c-2,2.8-4.7,4.2-8.3,4.2c-3,0-5.4-1.1-7.3-3.3s-2.8-5.1-2.8-8.6v-4.1
		C423.9,621.7,424.9,618.5,426.9,616.1z"/>
	<path class="kghe" d="M471.5,601.6v50.9h15.7v-24.3c0-4.3,1-7.7,2.9-10.2c1.9-2.5,4.6-3.8,8-3.8c2.5,0,4.7,0.5,6.6,1.5v-14.5
		c-0.9-0.4-2.2-0.6-3.9-0.6c-6.5,0-10.9,3.4-13.4,10.3h-0.2v-9.4H471.5z"/>
	<path class="kghe" d="M516.5,607.5c-5,4.8-7.5,11.3-7.5,19.7c0,8.2,2.4,14.6,7.3,19.3c4.9,4.8,11.5,7.1,20,7.1
		c8.6,0,15.4-2.4,20.3-7.4c4.9-4.9,7.4-11.6,7.4-20c0-7.8-2.4-14.1-7.2-18.9c-4.8-4.7-11.4-7.1-19.9-7.1
		C528.4,600.4,521.5,602.8,516.5,607.5z M548,626.7c0,10-3.8,15.1-11.3,15.1c-7.9,0-11.8-4.9-11.8-14.7c0-4.7,1-8.3,3.1-10.8
		c2-2.6,4.9-3.8,8.6-3.8C544.2,612.4,548,617.2,548,626.7z"/>
	<path class="fheud" d="M646.2,183.8c-0.4,0-0.7,0-1.1,0H327.4c-88.7,0-160.9,72.1-160.9,160.9v287v39.1h77.8l-0.5-39.1v-287
		c0-46.2,37.5-83.6,83.6-83.6h455.2c0,0,0,0,0,0H806L646.2,98.7V183.8z"/>
	<path class="fheud" d="M728.7,344.7v287c0,46.2-37.5,83.6-83.6,83.6H328.8H189.9h-23.4l162.4,159.8v-82.5h316.2
		c88.7,0,160.9-72.1,160.9-160.9v-287v-39.1h-77.7L728.7,344.7z"/>
</g>
</svg>
