<svg height="416" viewBox="0 0 394 416" width="394" xmlns="http://www.w3.org/2000/svg"><path d="m161.294 281.219c-9.849 0-17.832 7.983-17.832 17.83s7.983 17.829 17.832 17.829c9.845 0 17.828-7.982 17.828-17.829s-7.983-17.83-17.828-17.83zm71.685 0c-9.847 0-17.83 7.983-17.83 17.83s7.983 17.829 17.83 17.829 17.827-7.982 17.827-17.829-7.98-17.83-17.827-17.83zm-200.371-157.462c-1.894 34.898-.882 131.688 0 168.86.072 3.001 1.957 5.272 4.434 6.91 20.975 13.931 42.656 26.868 64.793 39.014-3.065-30.096-3.574-64.827 5.896-85.999 3.736-8.351 11.846-15.108 22.652-20.27-19.364-27.353-31.632-59.51-34.684-88.811-4.456-42.776 63.492-62.632 65.392-29.955 2.111 36.333 5.935 72.234 12.123 107.55 7.752-.89 15.749-1.336 23.748-1.348 8.115-.004 16.233.446 24.098 1.348 6.185-35.316 10.011-71.217 12.12-107.55 1.899-32.677 69.85-12.821 65.394 29.955-3.051 29.301-15.32 61.458-34.683 88.811 10.803 5.162 18.915 11.919 22.651 20.27 9.448 21.123 8.962 55.744 5.916 85.79 22.011-12.08 43.565-24.951 64.427-38.805 2.471-1.638 4.36-3.909 4.431-6.91.883-37.172 1.894-133.962 0-168.86-.308-2.991-1.96-5.27-4.431-6.911-49.146-32.641-102.162-59.823-155.86-84.11-1.358-.613-2.711-.918-4.063-.918s-2.705.305-4.06.918c-53.701 24.287-106.717 51.469-155.86 84.11-2.477 1.641-4.129 3.92-4.434 6.911zm-31.28-3.203c1.267-12.376 8.005-23.055 18.316-29.903 50.65-33.639 104.958-61.535 160.299-86.564 10.95-4.951 23.089-4.951 34.038 0 55.342 25.029 109.647 52.925 160.299 86.564 10.633 7.062 17.739 18.589 18.432 31.401 1.561 28.735 1.201 58.489 1.08 87.285-.118 27.993-.376 56.037-1.042 84.022-.318 13.426-7.424 25.026-18.47 32.36-50.652 33.642-104.957 61.543-160.299 86.571-10.949 4.947-23.088 4.947-34.038 0-55.341-25.028-109.649-52.929-160.299-86.571-11.048-7.334-18.151-18.934-18.47-32.36-.665-27.985-.926-56.029-1.042-84.022-.085-19.93-.596-71.346 1.196-88.783z" fill="#fffffe" fill-rule="evenodd"/></svg>