<?xml version="1.0" encoding="UTF-8"?>
<svg width="101px" height="83px" viewBox="0 0 101 83" version="1.1" xmlns="http://www.w3.org/2000/svg" xmlns:xlink="http://www.w3.org/1999/xlink">
    <title>Group 5</title>
    <g id="Page-1" stroke="none" stroke-width="1" fill="none" fill-rule="evenodd">
        <g id="Group-5">
            <polyline id="Path" stroke="#333333" stroke-width="1.44" points="75 28.7033219 75 82 26 82 26 18 64.0625 18"></polyline>
            <path d="M75,29 L64,29 L64,18 C64,18 64,18 64,18 L75,28.9241379 L75,29 Z" id="Path" stroke="#333333" stroke-width="1.44"></path>
            <polygon id="+" fill="#000000" fill-rule="nonzero" points="5.3359375 18.6484375 5.3359375 15.5078125 8.453125 15.5078125 8.453125 14.1953125 5.3359375 14.1953125 5.3359375 11.078125 4.0078125 11.078125 4.0078125 14.1953125 0.890625 14.1953125 0.890625 15.5078125 4.0078125 15.5078125 4.0078125 18.6484375"></polygon>
            <polygon id="+" fill="#000000" fill-rule="nonzero" points="91.3359375 31.1484375 91.3359375 28.0078125 94.453125 28.0078125 94.453125 26.6953125 91.3359375 26.6953125 91.3359375 23.578125 90.0078125 23.578125 90.0078125 26.6953125 86.890625 26.6953125 86.890625 28.0078125 90.0078125 28.0078125 90.0078125 31.1484375"></polygon>
            <polygon id="+" fill="#000000" fill-rule="nonzero" points="91.3359375 12.1484375 91.3359375 9.0078125 94.453125 9.0078125 94.453125 7.6953125 91.3359375 7.6953125 91.3359375 4.578125 90.0078125 4.578125 90.0078125 7.6953125 86.890625 7.6953125 86.890625 9.0078125 90.0078125 9.0078125 90.0078125 12.1484375"></polygon>
            <circle id="Oval" stroke="#333333" stroke-width="1.4" cx="98" cy="17" r="2"></circle>
            <circle id="Oval-Copy" stroke="#333333" stroke-width="1.4" cx="13" cy="8" r="2"></circle>
        </g>
    </g>
</svg>