<?xml version="1.0" encoding="UTF-8"?>
<svg width="40px" height="46px" viewBox="0 0 40 46" version="1.1" xmlns="http://www.w3.org/2000/svg" xmlns:xlink="http://www.w3.org/1999/xlink">
    <title>raq</title>
    <g id="Page-1" stroke="none" stroke-width="1" fill="none" fill-rule="evenodd">
        <g id="thank-you-raq" transform="translate(-956.000000, -144.000000)" fill="#252C32">
            <g id="Outlined/UI/notes" transform="translate(948.000000, 139.000000)">
                <path d="M43.7499999,45.5000001 C43.7499999,46.4664984 42.9664984,47.2499999 42,47.2499999 L14,47.2499999 C13.0335016,47.2499999 12.2499999,46.4664984 12.2499999,45.5000001 L12.2499999,8.74999993 L29.7499999,8.74999993 L29.7499999,5.24999993 L8.74999994,5.24999993 L8.74999994,45.5000001 C8.74999994,48.399495 11.100505,50.7499999 14,50.7499999 L42,50.7499999 C44.899495,50.7499999 47.2499999,48.399495 47.2499999,45.5000001 L47.2499999,22.7499999 L43.7499999,22.7499999 L43.7499999,45.5000001 Z" id="Style"></path>
                <path d="M28.4365912,25.515016 C27.6167189,25.5170007 26.8294787,25.1978503 26.2473701,24.6274873 L21.5074999,19.9450571 L22.973865,18.5066635 L27.7034087,23.1788923 C27.8973061,23.3720172 28.1612476,23.4806472 28.4365912,23.4806472 C28.7119348,23.4806472 28.9758763,23.3720172 29.1697737,23.1788923 L46.2911349,6.26501599 L47.7574999,7.70340957 L30.6258123,24.6274873 C30.0437036,25.1978503 29.2564635,25.5170007 28.4365912,25.515016 Z" id="Style" stroke="#000000"></path>
            </g>
        </g>
    </g>
</svg>