<svg xmlns="http://www.w3.org/2000/svg"  viewBox="0 0 48 48" width="48px" height="48px">
    <path d="M42,37C42,39.762 39.762,42 37,42L11,42C8.239,42 6,39.762 6,37L6,11C6,8.238 8.239,6 11,6L37,6C39.762,6 42,8.238 42,11L42,37Z" style="fill-rule:nonzero;"/>
    <g transform="matrix(0.0765249,0,0,0.0765249,4.15234,4.40962)">
        <path d="M337.36,243.58C335.9,242.88 334.41,242.2 332.9,241.56C330.28,193.2 303.86,165.51 259.49,165.23C233.89,165.06 210.97,175.5 196.69,197.17L221.09,213.91C231.24,198.51 247.17,195.23 258.9,195.23L259.3,195.23C273.91,195.32 284.94,199.57 292.07,207.85C297.26,213.89 300.74,222.22 302.46,232.74C289.5,230.54 275.5,229.86 260.52,230.72C218.34,233.15 191.22,257.75 193.04,291.93C193.96,309.28 202.6,324.19 217.36,333.94C229.84,342.18 245.92,346.21 262.62,345.29C284.69,344.09 301.99,335.67 314.07,320.28C323.24,308.59 329.04,293.44 331.6,274.36C342.11,280.7 349.9,289.05 354.21,299.09C361.52,316.15 361.95,344.19 339.07,367.05C319.03,387.08 294.93,395.74 258.52,396.01C218.12,395.71 187.57,382.75 167.71,357.5C149.11,333.86 139.5,299.71 139.14,256C139.5,212.29 149.11,178.14 167.71,154.5C187.57,129.25 218.12,116.29 258.52,115.99C299.2,116.29 330.28,129.31 350.91,154.68C361.02,167.12 368.64,182.77 373.67,201.01L402.26,193.38C396.17,170.93 386.59,151.58 373.54,135.53C347.1,103 308.44,86.34 258.62,85.99L258.42,85.99C208.7,86.34 170.46,103.07 144.78,135.72C121.92,164.77 110.13,205.2 109.74,255.88L109.74,256.12C110.13,306.8 121.92,347.23 144.78,376.28C170.46,408.93 208.7,425.67 258.42,426.01L258.62,426.01C302.82,425.7 333.98,414.13 359.65,388.48C393.23,354.93 392.22,312.88 381.15,287.06C373.21,268.55 358.07,253.51 337.36,243.58ZM261.04,315.34C242.56,316.38 223.35,308.08 222.4,290.31C221.7,277.13 231.78,262.42 262.18,260.67C265.66,260.47 269.08,260.37 272.43,260.37C283.47,260.37 293.8,261.44 303.19,263.5C299.69,307.24 279.15,314.34 261.04,315.34Z" style="fill:white;fill-rule:nonzero;"/>
    </g>
</svg>
