<?xml version="1.0" standalone="yes"?>
<svg xmlns="http://www.w3.org/2000/svg" width="328" height="292">
<path style="fill:#3777b3; stroke:none;" d="M161 6.4321C147.745 8.17761 141.774 17.0898 135.691 28C133.494 31.9413 129.518 36.1643 130.732 41C135.167 58.658 151.988 76.2506 160.905 92C188.366 140.503 221.684 185.913 248.059 235C254.496 246.981 262.396 258.378 269.496 270C272.1 274.262 274.884 281.064 279.329 283.682C284.263 286.588 294.549 285.474 300 284.557C304.08 283.871 307.789 282.391 310.996 279.736C331.224 262.991 314.243 241.346 304.694 224C273.218 166.82 240.066 109.737 206.062 54C196.119 37.702 185.053 3.26456 161 6.4321z"/>
<path style="fill:#2d96f7; stroke:none;" d="M157 10.6134C146.404 13.4545 145.119 21.1826 139.971 28.9105C137.538 32.5635 133.615 35.0528 134.515 40C136.689 51.9524 147.062 62.1807 152.366 72.7145C160.576 89.0193 171.88 104.455 181.385 120.039C204.304 157.616 226.611 195.587 249.806 233C256.989 244.584 263.648 256.483 270.953 268C273.652 272.256 276.689 279.404 281.185 281.972C285.831 284.625 297.056 283.654 301.996 282.095C305.718 280.92 308.417 278.781 311.046 275.956C328.46 257.248 309.108 236.46 299.197 219C268.024 164.084 232.396 110.998 203.41 55C194.786 38.3391 180.884 4.20935 157 10.6134z"/>
<path style="fill:#3777b3; stroke:none;" d="M103 86C94.1974 97.7265 86.323 111.776 79.4599 124.715C77.1935 128.987 72.9231 134.053 72.6034 139C71.918 149.606 87.1388 165.98 92.2809 175C105.616 198.391 120.722 220.744 134.291 244C141.295 256.004 147.903 271.677 157.39 281.852C161.197 285.935 166.92 285 172 285L208 285C211.428 285 221 286.634 222.748 282.682C223.98 279.894 220.932 276.227 219.6 274C214.934 266.195 210.28 258.426 205.478 250.715C186.766 220.666 169.07 189.889 150.055 160C139.984 144.17 129.79 128.196 120.333 112C115.439 103.619 110.705 92.032 103 86z"/>
<path style="fill:#2d96f7; stroke:none;" d="M103 92C96.3935 100.825 93.2024 111.775 87.1829 120.625C83.1047 126.62 76.9853 130.903 77.0972 139C77.2477 149.885 89.0064 163.998 94.5841 173C109.692 197.383 125.27 221.94 139.205 247C143.917 255.473 149.096 263.744 154.08 272.08C155.92 275.157 157.44 279.953 160.532 281.972C164.637 284.652 173.269 283 178 283L222 283L142.003 153L115.576 109.961L103 92z"/>
<path style="fill:#3777b3; stroke:none;" d="M102 96L103 97L102 96M43.2199 190.172C39.8283 191.616 37.8352 196.974 36.311 200.015C32.7093 207.199 28.0469 213.959 24.1389 221C16.277 235.165 2.12392 250.61 7.57407 268C15.2825 292.596 54.1959 285 74 285C80.3741 285 91.9472 287.233 97.6782 284.258C103.57 281.199 92.0851 266.598 90.091 263C79.4406 243.785 67.1277 225.47 56.919 206.004C55.0817 202.501 48.0926 188.098 43.2199 190.172z"/>
<path style="fill:#2d96f7; stroke:none;" d="M97 281C92.2599 268.656 82.6725 258.09 77.1404 246.004C71.4747 233.626 62.4756 221.688 55.3796 210C52.2132 204.784 51.1037 198.7 44.0185 198.519C38.3905 198.376 35.2556 208.736 32.3773 213C23.5953 226.01 5.01162 250.609 11.0355 266.996C18.7741 288.047 48.5119 283 66 283C75.3853 283 88.4868 285.097 97 281z"/>
<path style="fill:#3777b3; stroke:none;" d="M18 240L19 241L18 240z"/>
<path style="fill:#2d96f7; stroke:none;" d="M97 282L98 283L97 282z"/>
</svg>
