<svg width="16" height="15" viewBox="0 0 16 15" xmlns="http://www.w3.org/2000/svg">
    <path d="m15.649 8.38-1.963-1.977a.328.328 0 0 0-.561.231v1.337H10.5V4.359a1.32 1.32 0 0 0-.387-.93L7.819 1.136A1.312 1.312 0 0 0 6.892.75h-5.58A1.317 1.317 0 0 0 0 2.065v11.373c0 .724.588 1.312 1.312 1.312h7.874c.724 0 1.314-.588 1.314-1.312v-2.842H9.187v2.842H1.312V2.065h4.374v2.843c0 .364.293.656.657.656h2.844v2.407H4.703a.328.328 0 0 0-.328.328v.656c0 .181.147.328.328.328h8.422v1.337c0 .293.355.439.561.23l1.963-1.976a.35.35 0 0 0 0-.493zm-8.65-4.128v-2.08l2.08 2.08H7z" fill="#6D7882"
          fill-rule="nonzero"/>
</svg>
