<svg width="446" height="264" viewBox="0 0 446 264" xmlns="http://www.w3.org/2000/svg">
    <g fill="none" fill-rule="evenodd">
        <path d="M26 184h137a4 4 0 0 1 4 4v9a4 4 0 0 1-4 4H26a4 4 0 0 1-4-4v-9a4 4 0 0 1 4-4zm0 21h416a4 4 0 0 1 4 4v26a4 4 0 0 1-4 4H26a4 4 0 0 1-4-4v-26a4 4 0 0 1 4-4zM26 122h137a4 4 0 0 1 4 4v9a4 4 0 0 1-4 4H26a4 4 0 0 1-4-4v-9a4 4 0 0 1 4-4zm0 21h416a4 4 0 0 1 4 4v26a4 4 0 0 1-4 4H26a4 4 0 0 1-4-4v-26a4 4 0 0 1 4-4zM26 1h137a4 4 0 0 1 4 4v6a4 4 0 0 1-4 4H26a4 4 0 0 1-4-4V5a4 4 0 0 1 4-4zm0 18h416a4 4 0 0 1 4 4v26a4 4 0 0 1-4 4H26a4 4 0 0 1-4-4V23a4 4 0 0 1 4-4zM26 65h137a4 4 0 0 1 4 4v6a4 4 0 0 1-4 4H26a4 4 0 0 1-4-4v-6a4 4 0 0 1 4-4zm0 18h416a4 4 0 0 1 4 4v26a4 4 0 0 1-4 4H26a4 4 0 0 1-4-4V87a4 4 0 0 1 4-4z"
              fill="#EAEFEF" opacity=".3"/>
        <path d="M39 26c5.524 0 10 4.476 10 10s-4.476 10-10 10-10-4.476-10-10 4.476-10 10-10zm1.935 12.58a.998.998 0 0 0-.286.045 5.027 5.027 0 0 1-3.298 0 .998.998 0 0 0-.286-.044c-1.73 0-3.214.984-3.972 2.41A7.726 7.726 0 0 0 39 43.742a7.726 7.726 0 0 0 5.907-2.75c-.758-1.426-2.242-2.41-3.972-2.41zM39 29.872a3.548 3.548 0 1 0 0 7.097 3.548 3.548 0 0 0 0-7.097zM39 88c5.524 0 10 4.476 10 10s-4.476 10-10 10-10-4.476-10-10 4.476-10 10-10zm1.935 12.58a.998.998 0 0 0-.286.045 5.027 5.027 0 0 1-3.298 0 .998.998 0 0 0-.286-.044c-1.73 0-3.214.984-3.972 2.41a7.726 7.726 0 0 0 5.907 2.75 7.726 7.726 0 0 0 5.907-2.75c-.758-1.426-2.242-2.41-3.972-2.41zM39 91.872a3.548 3.548 0 1 0 0 7.097 3.548 3.548 0 0 0 0-7.097zM39 150c5.524 0 10 4.476 10 10s-4.476 10-10 10-10-4.476-10-10 4.476-10 10-10zm1.935 12.58a.998.998 0 0 0-.286.045 5.027 5.027 0 0 1-3.298 0 .998.998 0 0 0-.286-.044c-1.73 0-3.214.984-3.972 2.41a7.726 7.726 0 0 0 5.907 2.75 7.726 7.726 0 0 0 5.907-2.75c-.758-1.426-2.242-2.41-3.972-2.41zM39 153.872a3.548 3.548 0 1 0 0 7.097 3.548 3.548 0 0 0 0-7.097zM40 212c5.524 0 10 4.476 10 10s-4.476 10-10 10-10-4.476-10-10 4.476-10 10-10zm1.935 12.58a.998.998 0 0 0-.286.045 5.027 5.027 0 0 1-3.298 0 .998.998 0 0 0-.286-.044c-1.73 0-3.214.984-3.972 2.41a7.726 7.726 0 0 0 5.907 2.75 7.726 7.726 0 0 0 5.907-2.75c-.758-1.426-2.242-2.41-3.972-2.41zM40 215.872a3.548 3.548 0 1 0 0 7.097 3.548 3.548 0 0 0 0-7.097z"
              fill="#FFF" fill-rule="nonzero"/>
        <path stroke="#F7F9F9" stroke-linecap="square" d="M3.5.5v263"/>
        <circle fill="#F7F9F9" cx="3.5" cy="7.5" r="3.5"/>
        <circle fill="#F7F9F9" cx="3.5" cy="67.5" r="3.5"/>
        <circle fill="#F7F9F9" cx="3.5" cy="132.5" r="3.5"/>
        <circle fill="#F7F9F9" cx="3.5" cy="194.5" r="3.5"/>
    </g>
</svg>
