<svg xmlns="http://www.w3.org/2000/svg" viewBox="0 0 32 44">
  <path fill="#3e81f5"
    d="M20.19,0H3.66C1.64,0,0,1.64,0,3.66V30.29H32V11.81L20.19,0Zm-2.33,25.65H7.74v-2.38h10.12v2.38Zm6.4-4.76H7.74v-2.38H24.26v2.38Zm0-4.76H7.74v-2.38H24.26v2.38Z" />
  <path fill="#16c" d="M8.45,37.37c0,1.6-.91,2.52-2.53,2.52h-1.09v-5.07h1.09c1.62,0,2.53,.96,2.53,2.55Z" />
  <path fill="#16c"
    d="M15.63,34.8c-1.4,0-2.35,.98-2.35,2.54s.96,2.56,2.35,2.56,2.34-1,2.34-2.56-.96-2.54-2.34-2.54Zm0,0c-1.4,0-2.35,.98-2.35,2.54s.96,2.56,2.35,2.56,2.34-1,2.34-2.56-.96-2.54-2.34-2.54ZM0,30.29v12.17c0,.85,.69,1.54,1.54,1.54H30.46c.85,0,1.54-.69,1.54-1.54v-12.17H0Zm5.98,10.92H3.29v-7.68h2.69c2.45,0,4.05,1.52,4.05,3.85s-1.6,3.83-4.05,3.83Zm9.65,.08c-2.17,0-3.94-1.63-3.94-3.94s1.77-3.93,3.94-3.93,3.93,1.63,3.93,3.93-1.75,3.94-3.93,3.94Zm9.46-1.39c.82,0,1.49-.36,1.85-1.11h1.77c-.52,1.58-1.9,2.49-3.61,2.49-2.21,0-3.89-1.62-3.89-3.92s1.68-3.93,3.89-3.93c1.71,0,3.09,.91,3.61,2.49h-1.77c-.36-.74-1.02-1.1-1.85-1.1-1.34,0-2.3,.98-2.3,2.54s.96,2.54,2.3,2.54Zm-9.46-5.09c-1.4,0-2.35,.98-2.35,2.54s.96,2.56,2.35,2.56,2.34-1,2.34-2.56-.96-2.54-2.34-2.54Z" />
  <path fill="#96bbff" d="M32,11.81h-8.15c-2.02,0-3.66-1.64-3.66-3.66V0l11.81,11.81Z" />
</svg>