<svg id="Layer_1" data-name="Layer 1" xmlns="http://www.w3.org/2000/svg" viewBox="0 0 32 32"><path d="M11.8,15.24l1.71-1,.57-.33a2.14,2.14,0,0,0,1-1.85V6.76a2,2,0,0,0-.28-1,2.08,2.08,0,0,0-.76-.77l-.56-.33-1.73-1L9.56,2.29a2,2,0,0,0-1-.29,2,2,0,0,0-1,.29L5.26,3.59,3.42,4.68,3,4.94a2.08,2.08,0,0,0-.76.77,2.13,2.13,0,0,0-.27,1v5.3a2,2,0,0,0,.27,1.06,2.13,2.13,0,0,0,.76.79l.45.26,1.84,1.07,2.23,1.3a2,2,0,0,0,1,.28,2.22,2.22,0,0,0,1-.26Z"/><path d="M29.78,5.71A2.16,2.16,0,0,0,29,4.94l-.56-.33-1.74-1L24.5,2.29a2,2,0,0,0-1-.29,2,2,0,0,0-1,.29l-2.23,1.3L18.37,4.68l-.45.26a2.08,2.08,0,0,0-.76.77,2.13,2.13,0,0,0-.27,1v5.3a1.89,1.89,0,0,0,.27,1.06,2.13,2.13,0,0,0,.76.79l.45.26,1.84,1.07,2.23,1.3a2,2,0,0,0,1,.28,2.16,2.16,0,0,0,1-.26l2.25-1.32,1.71-1,.57-.33a2.3,2.3,0,0,0,.76-.79,2.2,2.2,0,0,0,.27-1.06V6.76A2,2,0,0,0,29.78,5.71Z"/><path d="M21.64,18.12l-.56-.33-1.74-1-2.22-1.3a2,2,0,0,0-1-.29,2,2,0,0,0-1,.29l-2.23,1.3L11,17.85l-.45.27a2.08,2.08,0,0,0-.76.77,2.14,2.14,0,0,0-.28,1.05v5.3a1.93,1.93,0,0,0,.28,1.05,2.06,2.06,0,0,0,.76.79l.45.27,1.84,1.07,2.23,1.29a2,2,0,0,0,1,.29,2.28,2.28,0,0,0,1-.26l2.25-1.32,1.71-1,.57-.34a2.21,2.21,0,0,0,.76-.79,2.13,2.13,0,0,0,.27-1.05v-5.3a2,2,0,0,0-.28-1.05A2.16,2.16,0,0,0,21.64,18.12Z"/></svg>