<svg xmlns="http://www.w3.org/2000/svg" viewBox="0 0 32 44">
  <path fill="#37aa89"
    d="M0,30.29v12.17c0,.85,.69,1.54,1.54,1.54H30.46c.85,0,1.54-.69,1.54-1.54v-12.17H0Zm5.93,10.96h-1.64v-8.17h1.64v8.17Zm11.45,0h-1.64v-5.31l-2.19,5.31h-1.24l-2.2-5.31v5.31h-1.64v-8.17h1.86l2.6,6.07,2.6-6.07h1.85v8.17Zm10.32-3.11c-.33,1.66-1.81,3.18-3.99,3.18-2.37,0-4.18-1.72-4.18-4.17s1.8-4.18,4.17-4.18c1.82,0,3.27,.92,3.8,2.56h-1.88c-.37-.69-1.05-1.05-1.92-1.05-1.46,0-2.48,1.04-2.48,2.67s1.03,2.69,2.55,2.69c1.26,0,2.07-.73,2.32-1.88h-2.81v-1.25h4.42v1.43Z" />
  <g>
    <path fill="#5dd8ba"
      d="M20.19,0H3.66C1.64,0,0,1.64,0,3.66V30.27H32V11.81L20.19,0Zm2.81,27.13H6.54V14.19H23v12.94Z" />
    <circle fill="#5dd8ba" cx="19.54" cy="17.53" r="1.34" />
    <polygon fill="#5dd8ba" points="18.42 20.22 15.52 23.3 11.49 18.78 7.82 24.78 21.17 24.78 18.42 20.22" />
  </g>
  <path fill="#9fe6d5" d="M32,11.81h-8.15c-2.02,0-3.66-1.64-3.66-3.66V0l11.81,11.81Z" />
</svg>