<svg xmlns="http://www.w3.org/2000/svg" viewBox="0 0 32 44">
  <path fill="#e2e5e7" d="M32,11.81V30.36H0V3.66C0,1.64,1.64,0,3.66,0H20.19l11.81,11.81Z" />
  <path fill="#f15642" d="M9.36,35.77c0,.73-.41,1.18-1.33,1.18h-1.3v-2.37h1.3c.92,0,1.33,.44,1.33,1.19Z" />
  <path fill="#f15642"
    d="M15.94,34.62h-1.16v5.39h1.16c1.72,0,2.69-.98,2.69-2.68s-.97-2.71-2.69-2.71Zm0,0h-1.16v5.39h1.16c1.72,0,2.69-.98,2.69-2.68s-.97-2.71-2.69-2.71ZM0,30.36v12.17c0,.85,.69,1.54,1.54,1.54H30.46c.85,0,1.54-.69,1.54-1.54v-12.17H0Zm8.1,7.91h-1.37v3.14h-1.64v-8.17h3.01c1.97,0,2.95,1.11,2.95,2.53,0,1.24-.84,2.5-2.95,2.5Zm7.9,3.14h-2.85v-8.17h2.85c2.61,0,4.31,1.61,4.31,4.09s-1.7,4.07-4.31,4.07Zm11.51-6.84h-3.4v2.09h2.61v1.3h-2.61v3.45h-1.64v-8.17h5.04v1.32Zm-11.57,.06h-1.16v5.39h1.16c1.72,0,2.69-.98,2.69-2.68s-.97-2.71-2.69-2.71Z" />
  <path fill="#b0b7bd" d="M32,11.81h-8.15c-2.02,0-3.66-1.64-3.66-3.66V0l11.81,11.81Z" />
  <path fill="#f15642"
    d="M20.07,18.96c-.53,0-1.19,.07-1.95,.21-1.06-1.13-2.17-2.77-2.95-4.39,.78-3.27,.39-3.73,.22-3.95-.18-.23-.44-.61-.73-.61-.12,0-.46,.06-.59,.1-.33,.11-.51,.37-.66,.71-.41,.96,.15,2.59,.73,3.85-.49,1.97-1.33,4.33-2.2,6.24-2.2,1.01-3.37,2-3.47,2.94-.04,.34,.04,.85,.65,1.3,.17,.12,.36,.19,.56,.19h0c.51,0,1.02-.39,1.61-1.22,.43-.61,.9-1.44,1.38-2.47,1.55-.68,3.48-1.29,5.12-1.64,.92,.88,1.74,1.33,2.44,1.33,.52,0,.97-.24,1.29-.69,.34-.47,.41-.89,.23-1.25-.22-.43-.77-.65-1.68-.65Zm-10.38,5.61c-.27-.21-.26-.35-.25-.4,.04-.32,.54-.9,1.78-1.59-.94,1.74-1.44,1.97-1.53,1.99Zm4.76-13.3s.61,.64,.06,1.87c-.83-.85-.11-1.85-.06-1.87Zm-1.2,9.3c.59-1.4,1.14-2.95,1.55-4.39,.65,1.17,1.43,2.31,2.22,3.22-1.24,.29-2.56,.7-3.77,1.17Zm7.49-.28c-.18,.25-.57,.26-.7,.26-.31,0-.42-.18-.9-.55,.39-.05,.76-.06,1.05-.06,.52,0,.61,.08,.68,.11-.01,.04-.05,.12-.13,.24Z" />
</svg>