<svg xmlns="http://www.w3.org/2000/svg" width="36" height="36" fill="none"><path fill="#1DD8A7" fill-rule="evenodd" d="M10 10h2V8h-2a4 4 0 0 0-4 4v8a4 4 0 0 0 4 4h2v-2h-2a2 2 0 0 1-2-2v-8c0-1.1.9-2 2-2Zm16 0h-2V8h2a4 4 0 0 1 4 4v8a4 4 0 0 1-4 4h-2v-2h2a2 2 0 0 0 2-2v-8a2 2 0 0 0-2-2ZM14 21a1 1 0 1 0 0 2h8a1 1 0 1 0 0-2h-8Zm11 8a1 1 0 1 1-2 0 1 1 0 0 1 2 0Zm-13 1a1 1 0 1 0 0-2 1 1 0 0 0 0 2Z" clip-rule="evenodd"/><path fill="#5900E7" fill-rule="evenodd" d="M2 32v-1.8h2V32h1.8v2H4a2 2 0 0 1-2-2Zm2-5.3H2v-3.4h2v3.4Zm0-7H2v-3.4h2v3.4Zm0-7H2V9.3h2v3.4Zm0-7H2V4c0-1.1.9-2 2-2h1.8v2H4v1.8ZM9.3 4V2h3.4v2H9.3Zm7 0V2h3.4v2h-3.4Zm7 0V2h3.4v2h-3.4Zm7 0V2H32a2 2 0 0 1 2 2v1.8h-2V4h-1.8ZM32 9.3h2v3.4h-2V9.3Zm0 7h2v3.4h-2v-3.4Zm0 7h2v3.4h-2v-3.4Zm0 7h2V32a2 2 0 0 1-2 2h-1.8v-2H32v-1.8ZM26.7 32v2h-3.4v-2h3.4Zm-7 0v2h-3.4v-2h3.4Zm-7 0v2H9.3v-2h3.4ZM23 8H13a1 1 0 0 0-1 1v14c0 .6.4 1 1 1h10c.6 0 1-.4 1-1V9c0-.6-.4-1-1-1ZM13 6a3 3 0 0 0-3 3v14a3 3 0 0 0 3 3h10a3 3 0 0 0 3-3V9a3 3 0 0 0-3-3H13Zm6 23a1 1 0 1 1-2 0 1 1 0 0 1 2 0Z" clip-rule="evenodd"/></svg>