<svg width="36" height="36" viewBox="0 0 36 36" fill="none" xmlns="http://www.w3.org/2000/svg">
<path fill-rule="evenodd" clip-rule="evenodd" d="M19 18C19 17.4477 18.5523 17 18 17C17.4477 17 17 17.4477 17 18C17 18.2174 16.9432 18.3158 16.8684 18.3933C16.7646 18.5007 16.5406 18.6474 16.0767 18.7791C15.1295 19.0482 13.6137 19.1429 11.4 19.1429C9.45854 19.1429 8.09768 19.6713 7.21027 20.4717C6.33574 21.2604 6 22.2465 6 23C6 23.5523 6.44772 24 7 24C7.55228 24 8 23.5523 8 23C8 22.8011 8.10426 22.3586 8.54973 21.9569C8.98232 21.5667 9.82146 21.1429 11.4 21.1429C13.5863 21.1429 15.3705 21.0589 16.6233 20.703C17.1233 20.561 17.6015 20.3592 18 20.0551C18.3985 20.3592 18.8767 20.561 19.3767 20.703C20.6295 21.0589 22.4137 21.1429 24.6 21.1429C26.1785 21.1429 27.0177 21.5667 27.4503 21.9569C27.8957 22.3586 28 22.8011 28 23C28 23.5523 28.4477 24 29 24C29.5523 24 30 23.5523 30 23C30 22.2465 29.6643 21.2604 28.7897 20.4717C27.9023 19.6713 26.5415 19.1429 24.6 19.1429C22.3863 19.1429 20.8705 19.0482 19.9233 18.7791C19.4594 18.6474 19.2354 18.5007 19.1316 18.3933C19.0568 18.3158 19 18.2174 19 18Z" fill="#1DD8A7"/>
<path fill-rule="evenodd" clip-rule="evenodd" d="M23 5H13V8.50818L14.0087 7.55955C14.5398 7.06008 15.3531 7.0148 15.9363 7.45223L16.9062 8.17962L18.9179 6.16786C19.5282 5.55758 20.5263 5.58691 21.0997 6.23197L23 8.3698V5ZM22.662 11H13.2698L15.0726 9.30447L16.0531 10.0398C16.6503 10.4877 17.4859 10.4283 18.0137 9.90047L19.9572 7.95703L22.662 11ZM13 3C11.8954 3 11 3.89543 11 5V11C11 12.1046 11.8954 13 13 13H23C24.1046 13 25 12.1046 25 11V5C25 3.89543 24.1046 3 23 3H13ZM11 15C11 14.4477 11.4477 14 12 14H24C24.5523 14 25 14.4477 25 15C25 15.5523 24.5523 16 24 16H12C11.4477 16 11 15.5523 11 15ZM6 27H8V29H6L6 27ZM4 27C4 25.8954 4.89543 25 6 25H8C9.10457 25 10 25.8954 10 27V29C10 30.1046 9.10457 31 8 31H6C4.89543 31 4 30.1046 4 29V27ZM28 27H30V29H28V27ZM26 27C26 25.8954 26.8954 25 28 25H30C31.1046 25 32 25.8954 32 27V29C32 30.1046 31.1046 31 30 31H28C26.8954 31 26 30.1046 26 29V27ZM4 33C4 32.4477 4.44772 32 5 32H9C9.55228 32 10 32.4477 10 33C10 33.5523 9.55228 34 9 34H5C4.44772 34 4 33.5523 4 33ZM27 32C26.4477 32 26 32.4477 26 33C26 33.5523 26.4477 34 27 34H31C31.5523 34 32 33.5523 32 33C32 32.4477 31.5523 32 31 32H27Z" fill="#5900E7"/>
</svg>
