<svg width="36" height="36" viewBox="0 0 36 36" fill="none" xmlns="http://www.w3.org/2000/svg">
<path fill-rule="evenodd" clip-rule="evenodd" d="M31 5H5L5 31H31V5ZM5 3C3.89543 3 3 3.89543 3 5V31C3 32.1046 3.89543 33 5 33H31C32.1046 33 33 32.1046 33 31V5C33 3.89543 32.1046 3 31 3H5Z" fill="#5900E7"/>
<path fill-rule="evenodd" clip-rule="evenodd" d="M20.9913 14.8323L18 7L15.0087 14.8323L7 15.4033L13.16 20.8148L11.2016 29L18 24.5123L24.7984 29L22.84 20.8148L29 15.4033L20.9913 14.8323ZM24.0861 17.058L19.5777 16.7366L18 12.6057L16.4223 16.7366L11.9139 17.058L15.3856 20.1079L14.3247 24.5419L18 22.1158L21.6753 24.5419L20.6144 20.1079L24.0861 17.058Z" fill="#1DD8A7"/>
</svg>
