<?xml version="1.0" standalone="no"?><!DOCTYPE svg PUBLIC "-//W3C//DTD SVG 1.1//EN" "http://www.w3.org/Graphics/SVG/1.1/DTD/svg11.dtd"><svg t="1705508983228" class="icon" viewBox="0 0 1024 1024" version="1.1" xmlns="http://www.w3.org/2000/svg" p-id="8587" xmlns:xlink="http://www.w3.org/1999/xlink" width="48" height="48"><path d="M714.497459 203.185632c34.721803 6.616698 69.131497-4.744048 115.367541 0C767.145539 125.144208 655.603117 65.576531 504.740154 63.785745c0 26.715455 0 53.439096 0 80.154551 57.628512 4.329609 98.399077 9.114588 139.837862 24.39562C669.049361 177.361477 689.735495 198.468191 714.497459 203.185632z" fill="#d81e06" p-id="8588"></path><path d="M378.884748 171.820274c0 56.923454 0 113.840768 0 170.764222 26.803459 0 53.603849 0 80.407308 0-4.495384-90.412173 9.105379-198.338231-6.991228-275.314393C275.445888 97.751325 164.213527 193.639209 99.206978 335.614757c30.300097 0 60.5961 0 90.895173 0C233.805512 261.851776 292.288484 202.824405 378.884748 171.820274z" fill="#d81e06" p-id="8589"></path><path d="M504.740154 436.680571c149.162228 0 298.319339 0 447.483614 0-5.842055-40.496319-14.247492-74.570369-31.463596-111.51991-10.020214-21.50171-37.279045-79.684854-59.431577-87.12429-20.615527-6.922666-58.922994 0-87.398536 0-91.725074 0-177.670515 0-265.695315 0C500.086158 297.286824 507.065106 371.621832 504.740154 436.680571zM578.154187 311.220161c80.407308 0 160.814616 0 241.222947 0 5.403057 15.522532 17.693987 24.183795 20.973684 41.819454-87.398536 0-174.798095 0-262.197654 0C578.154187 339.100138 578.154187 325.159638 578.154187 311.220161z" fill="#d81e06" p-id="8590"></path><path d="M176.118672 802.603611c21.672602-147.913794-51.391461-221.345224-24.472368-341.529467 28.367071 1.006933 70.052472-1.436722 87.399559 0 0 133.593648 0 267.181155 0 400.773779 18.909675 19.507286 51.166333 44.216038 76.910671 45.304835-7.711636-100.19498-1.314948-329.154625-3.496637-446.079638 22.181185 1.480724 54.873772-2.171456 66.423829 0 0 159.145603 0 318.297346 0 477.443973 24.946159 7.656377 53.638641 11.583826 80.407308 17.424858 0-192.838983 0-385.670803 0-578.508763-124.68986 0-249.377674 0-374.067534 0C31.84887 533.076014 86.258061 724.336036 176.118672 802.603611z" fill="#d81e06" p-id="8591"></path><path d="M508.234745 959.428356c281.071514-26.492374 440.155718-174.590364 450.980251-470.474234-150.325727 0-300.653501 0-450.980251 0-4.072759 0.585331-3.794419 5.510504-3.494591 10.455119C507.057943 651.599432 500.092297 813.046451 508.234745 959.428356zM756.449943 555.169195c39.618323 0 79.242785 0 118.862131 0-2.63092 28.737508-10.761088 52.002374-17.480116 76.670194-33.793664 0-67.586304 0-101.382015 0C756.449943 606.28027 756.449943 580.728314 756.449943 555.169195zM756.449943 705.024202c20.976754 0 41.951461 0 62.928215 0-14.192234 28.854165-41.261753 63.389726-62.928215 73.185836C756.449943 753.813395 756.449943 729.419821 756.449943 705.024202zM578.154187 555.169195c31.463596 0 62.928215 0 94.390787 0 0 25.560142 0 51.111075 0 76.670194-31.462572 0-62.927191 0-94.390787 0C578.154187 606.28027 578.154187 580.728314 578.154187 555.169195zM578.154187 705.024202c30.300097 0 60.5961 0 90.895173 0 7.978718 38.511105 1.297552 91.64014 3.495614 135.914506-30.451546 10.3006-57.078996 24.415063-94.390787 27.878954C578.154187 814.222229 578.154187 759.619634 578.154187 705.024202z" fill="#d81e06" p-id="8592"></path></svg>