<svg width="350" height="200" viewBox="0 0 350 200" fill="none" xmlns="http://www.w3.org/2000/svg">
<g clip-path="url(#clip0_5281_2947)">
<rect width="350" height="200" fill="transparent"/>
<path d="M162 51.5L110.5 0V51.5H162Z" fill="#717D96"/>
<rect x="182" y="179" width="168" height="21" rx="5" fill="#A0ABC0"/>
<rect x="182" y="134" width="168" height="21" rx="5" fill="#A0ABC0"/>
<rect x="182" y="90" width="168" height="20" rx="5" fill="#A0ABC0"/>
<rect x="182" y="45" width="168" height="21" rx="5" fill="#A0ABC0"/>
<rect x="182" width="168" height="21" rx="5" fill="#A0ABC0"/>
<path fill-rule="evenodd" clip-rule="evenodd" d="M0 5V195C0 197.761 2.23858 200 5 200H157C159.761 200 162 197.761 162 195V61H101V0H5C2.23857 0 0 2.23858 0 5ZM68.3918 107H93.6092V153.652H110L81 182.652L52 153.652H55.9038H68.3918V107Z" fill="#717D96"/>
</g>
<defs>
<clipPath id="clip0_5281_2947">
<rect width="350" height="200" fill="white"/>
</clipPath>
</defs>
</svg>
