<?xml version="1.0" encoding="utf-8"?>
<!-- Generator: Adobe Illustrator 23.0.0, SVG Export Plug-In . SVG Version: 6.00 Build 0)  -->
<svg version="1.1" id="Layer_1" xmlns="http://www.w3.org/2000/svg" xmlns:xlink="http://www.w3.org/1999/xlink" x="0px" y="0px"
	 viewBox="0 0 80 80" style="enable-background:new 0 0 80 80;" xml:space="preserve">
<g>
	<g>
		<path d="M5.8,77.2h8.3c3.2,0,5.8-2.6,5.8-5.8V33.1c0-3.2-2.6-5.8-5.8-5.8H5.8c-3.2,0-5.8,2.6-5.8,5.8v38.3
			C0,74.6,2.6,77.2,5.8,77.2L5.8,77.2z M5.8,77.2"/>
		<path d="M42.6,3.1c-3.3,0-5,1.7-5,10c0,7.9-7.7,14.3-12.6,17.6v41.3c5.3,2.5,16,6.1,32.6,6.1h5.3c6.5,0,12-4.7,13.1-11.1l3.7-21.7
			c1.4-8.2-4.9-15.6-13.1-15.6H50.9c0,0,2.5-5,2.5-13.3C53.4,6.4,45.9,3.1,42.6,3.1L42.6,3.1z M42.6,3.1"/>
	</g>
</g>
</svg>
