<?xml version="1.0" encoding="utf-8"?>
<!-- Generator: Adobe Illustrator 23.0.0, SVG Export Plug-In . SVG Version: 6.00 Build 0)  -->
<svg version="1.1" id="Layer_1" xmlns="http://www.w3.org/2000/svg" xmlns:xlink="http://www.w3.org/1999/xlink" x="0px" y="0px"
	 viewBox="0 0 80 80" style="enable-background:new 0 0 80 80;" xml:space="preserve">
<path d="M63.3,53.3c-3.9,0-7.4,1.7-9.8,4.3L29.4,43.9c0.4-1.2,0.6-2.5,0.6-3.9c0-1.4-0.2-2.7-0.6-3.9l24.1-13.7
	c2.4,2.6,5.9,4.3,9.8,4.3c7.4,0,13.3-6,13.3-13.3C76.7,6,70.7,0,63.3,0S50,6,50,13.3c0,1.1,0.1,2.1,0.4,3.2L25.9,30.4
	c-2.4-2.3-5.7-3.8-9.3-3.8c-7.4,0-13.3,6-13.3,13.3c0,7.4,6,13.3,13.3,13.3c3.6,0,6.9-1.4,9.3-3.8l24.4,13.9c-0.2,1-0.4,2.1-0.4,3.2
	C50,74,56,80,63.3,80s13.3-6,13.3-13.3C76.7,59.3,70.7,53.3,63.3,53.3z"/>
</svg>
