<?xml version="1.0" encoding="utf-8"?>
<!-- Generator: Adobe Illustrator 23.0.0, SVG Export Plug-In . SVG Version: 6.00 Build 0)  -->
<svg version="1.1" id="Layer_1" xmlns="http://www.w3.org/2000/svg" xmlns:xlink="http://www.w3.org/1999/xlink" x="0px" y="0px"
	 viewBox="0 0 80 80" style="enable-background:new 0 0 80 80;" xml:space="preserve">
<style type="text/css">
	.st0{fill:#B7B7B8;}
</style>
<g>
	<path class="st0" d="M80,15.2c-2.9,1.3-6.1,2.2-9.4,2.6c3.4-2,6-5.2,7.2-9.1c-3.2,1.9-6.7,3.2-10.4,4c-3-3.2-7.3-5.2-12-5.2
		C46.3,7.5,39,14.9,39,23.9c0,1.3,0.1,2.5,0.4,3.7C25.8,27,13.7,20.4,5.6,10.5c-1.4,2.4-2.2,5.2-2.2,8.2c0,5.7,2.9,10.7,7.3,13.7
		c-2.7-0.1-5.2-0.8-7.4-2.1v0.2c0,7.9,5.7,14.6,13.2,16.1c-1.4,0.4-2.8,0.6-4.3,0.6c-1.1,0-2.1-0.1-3.1-0.3
		c2.1,6.5,8.1,11.3,15.3,11.4c-5.6,4.4-12.7,7-20.4,7c-1.3,0-2.6-0.1-3.9-0.2c7.3,4.7,15.9,7.4,25.2,7.4c30.2,0,46.7-25,46.7-46.7
		l-0.1-2.1C75,21.4,77.8,18.5,80,15.2L80,15.2z M80,15.2"/>
</g>
</svg>
