<svg width="15" height="11" viewBox="0 0 15 11" xmlns="http://www.w3.org/2000/svg">
    <circle fill="#000" cx="6.69" cy="4.5" r="1.45" />
    <polygon fill="#000" points="15 6 15 11 14 11 14 7.38 12.5 9.71 11 7.38 11 11 10 11 10 6 11.15 6 12.5 8.14 13.85 6 15 6" />
    <path fill="#000" d="M13.24,4.21C13.15,4.05,10.85.29,6.68.29S.21,4.06.12,4.22L0,4.47l.14.25c.09.16,2.27,3.93,6.56,3.93A6.87,6.87,0,0,0,8,8.52v-1a5.61,5.61,0,0,1-1.32.16A7,7,0,0,1,1.14,4.47,7,7,0,0,1,6.68,1.29c3,0,5,2.38,5.53,3.18H13.4Z" />
</svg>
