<svg width="9" height="6" viewBox="0 0 9 6" fill="none" xmlns="http://www.w3.org/2000/svg">
<path d="M4.48956 1.67916C4.00248 2.26721 3.52794 2.84011 3.05339 3.41296C2.42254 4.17446 1.79185 4.93611 1.16132 5.69789C1.00481 5.88747 0.814319 5.99462 0.570525 5.96323C0.454956 5.95293 0.344629 5.90872 0.252499 5.8358C0.160369 5.76288 0.0902609 5.66428 0.0504067 5.55157C-0.0459646 5.30308 -0.00185904 5.07285 0.163109 4.87111C0.495511 4.46459 0.831932 4.06159 1.16671 3.65716C2.09308 2.53805 3.01913 1.41866 3.94486 0.298986C4.12755 0.0774184 4.34474 -0.0586433 4.62649 0.0248023C4.76472 0.0652056 4.88949 0.144291 4.98706 0.253349C6.27666 1.79929 7.56125 3.3497 8.84083 4.90458C8.89663 4.96965 8.93932 5.04559 8.96638 5.12795C8.99345 5.21031 9.00435 5.29744 8.99844 5.38421C8.99253 5.47099 8.96994 5.55567 8.93199 5.63329C8.89404 5.71092 8.84149 5.77992 8.77743 5.83626C8.49878 6.08399 8.10774 6.04799 7.85753 5.74611C6.80357 4.47458 5.75037 3.20237 4.69795 1.92949C4.63331 1.8514 4.56826 1.77368 4.48956 1.67916Z" fill="#282828"/>
</svg>
