<svg xmlns="http://www.w3.org/2000/svg" fill="none" viewBox="0 0 14 14"><g id="round-brackets"><path id="Union" fill="currentcolor" fill-rule="evenodd" d="M3.80092 2.71424c0.39446 -0.38654 0.40088 -1.01968 0.01434 -1.41414 -0.38655 -0.394464 -1.01968 -0.400885 -1.41414 -0.01434C0.920534 2.73661 0 4.76171 0 7s0.920534 4.2634 2.40112 5.7142c0.39446 0.3866 1.02759 0.3802 1.41414 -0.0143 0.38654 -0.3945 0.38012 -1.0276 -0.01434 -1.4141C2.6884 10.1956 2 8.67908 2 7s0.6884 -3.19558 1.80092 -4.28576Zm7.79798 -1.42848c-0.3945 -0.386545 -1.0276 -0.380124 -1.4142 0.01434 -0.3865 0.39446 -0.38008 1.0276 0.0144 1.41414C11.3116 3.80442 12 5.32092 12 7s-0.6884 3.1956 -1.8009 4.2858c-0.39448 0.3865 -0.4009 1.0196 -0.0144 1.4141 0.3866 0.3945 1.0197 0.4009 1.4142 0.0143C13.0795 11.2634 14 9.23829 14 7s-0.9205 -4.26339 -2.4011 -5.71424Z" clip-rule="evenodd" stroke-width="1"></path></g></svg>
