<?xml version="1.0" encoding="UTF-8" standalone="no"?>
<!DOCTYPE svg PUBLIC "-//W3C//DTD SVG 1.1//EN" "http://www.w3.org/Graphics/SVG/1.1/DTD/svg11.dtd">
<svg width="100%" height="100%" viewBox="0 0 3000 650" version="1.1" xmlns="http://www.w3.org/2000/svg" xmlns:xlink="http://www.w3.org/1999/xlink" xml:space="preserve" style="fill-rule:evenodd;clip-rule:evenodd;stroke-linejoin:round;stroke-miterlimit:1.41421;">
    <g transform="matrix(3.49409,0,0,3.49409,-1759.63,-1566.73)">
        <g transform="matrix(0.694268,0,0,0.694268,403.681,112.206)">
            <g transform="matrix(7.46151,0,0,7.46151,-117.233,135.282)">
                <path d="M45.91,80.814L48.637,82.45L48.637,66.086L45.91,64.45L45.91,80.814Z" style="fill-rule:nonzero;"/>
            </g>
            <g transform="matrix(7.46151,0,0,7.46151,-117.233,135.282)">
                <path d="M51.364,82.45L65,74.163L65,70.971L51.364,79.258L51.364,82.45Z" style="fill-rule:nonzero;"/>
            </g>
            <g transform="matrix(7.46151,0,0,7.46151,-117.233,135.282)">
                <path d="M47.35,48.585L60.986,56.768L63.636,55.177L50,46.995L47.35,48.585Z" style="fill-rule:nonzero;"/>
            </g>
            <g transform="matrix(7.46151,0,0,7.46151,-117.233,135.282)">
                <path d="M40.455,77.541L43.182,79.177L43.182,62.814L40.455,61.177L40.455,77.541Z" style="fill-rule:nonzero;"/>
            </g>
            <g transform="matrix(7.46151,0,0,7.46151,-117.233,135.282)">
                <path d="M51.364,75.916L65,67.629L65,64.437L51.364,72.725L51.364,75.916Z" style="fill-rule:nonzero;"/>
            </g>
            <g transform="matrix(7.46151,0,0,7.46151,-117.233,135.282)">
                <path d="M41.871,51.98L55.507,60.162L58.158,58.572L44.521,50.39L41.871,51.98Z" style="fill-rule:nonzero;"/>
            </g>
            <g transform="matrix(7.46151,0,0,7.46151,-117.233,135.282)">
                <path d="M37.727,59.541L35,57.905L35,74.269L37.727,75.905L37.727,59.541Z" style="fill-rule:nonzero;"/>
            </g>
            <g transform="matrix(7.46151,0,0,7.46151,-117.233,135.282)">
                <path d="M51.364,69.383L65,61.095L65,57.904L51.364,66.192L51.364,69.383Z" style="fill-rule:nonzero;"/>
            </g>
            <g transform="matrix(7.46151,0,0,7.46151,-117.233,135.282)">
                <path d="M36.392,55.16L50.028,63.342L52.678,61.752L39.042,53.571L36.392,55.16Z" style="fill-rule:nonzero;"/>
            </g>
        </g>
        <g transform="matrix(0.141238,0,0,0.0871458,404.36,304.209)">
            <g transform="matrix(1.69925,0,0,2.75401,-1569.82,-3551.39)">
                <rect x="2296.1" y="2025.43" width="142.1" height="504.7" style="fill-rule:nonzero;"/>
            </g>
            <g transform="matrix(1.69925,0,0,2.75401,-1569.82,-3551.39)">
                <path d="M2907.9,2370.53C2871.5,2407.63 2823.9,2422.33 2788.9,2422.33C2689.5,2422.33 2654.5,2347.43 2654.5,2282.33C2654.5,2216.53 2690.9,2137.43 2788.9,2137.43C2823.2,2137.43 2859.6,2146.53 2896.7,2180.83L2984.9,2094.73C2926.8,2039.43 2862.4,2014.23 2788.9,2014.23C2599.2,2014.23 2513.1,2151.43 2513.1,2281.63C2513.1,2418.13 2591.5,2543.43 2788.9,2543.43C2866.6,2543.43 2934.5,2521.73 2991.9,2464.33L2907.9,2370.53Z" style="fill-rule:nonzero;"/>
            </g>
            <g transform="matrix(1.69925,0,0,2.75401,-1569.82,-3551.39)">
                <path d="M3568.7,2278.13C3568.7,2110.13 3453.2,2012.83 3288.7,2012.83C3123.5,2012.83 3008,2112.93 3008,2278.13C3008,2446.83 3123.5,2542.73 3288.7,2542.73C3453.2,2542.73 3568.7,2446.83 3568.7,2278.13ZM3425.9,2278.13C3425.9,2361.43 3372,2420.23 3288.7,2420.23C3207.5,2420.23 3150.8,2362.13 3150.8,2278.13C3150.8,2194.13 3206.8,2135.33 3288.7,2135.33C3372.7,2135.33 3425.9,2190.63 3425.9,2278.13Z" style="fill-rule:nonzero;"/>
            </g>
            <g transform="matrix(1.69925,0,0,2.75401,-1569.82,-3551.39)">
                <path d="M3764,2025.43L3642.9,2025.43L3642.9,2530.13L3787.1,2530.13L3787.1,2368.43L3785,2258.53L3995.7,2530.13L4116.8,2530.13L4116.8,2025.43L3973.3,2025.43L3973.3,2198.33C3973.3,2217.93 3974,2241.73 3977.5,2301.23L3764,2025.43Z" style="fill-rule:nonzero;"/>
            </g>
            <g transform="matrix(1.69925,0,0,2.75401,-1569.82,-3551.39)">
                <rect x="4219" y="2025.43" width="142.1" height="504.7" style="fill-rule:nonzero;"/>
            </g>
            <g transform="matrix(1.69925,0,0,2.75401,-1569.82,-3551.39)">
                <path d="M4830.8,2370.53C4794.4,2407.63 4746.8,2422.33 4711.8,2422.33C4612.4,2422.33 4577.4,2347.43 4577.4,2282.33C4577.4,2216.53 4613.8,2137.43 4711.8,2137.43C4746.1,2137.43 4782.5,2146.53 4819.6,2180.83L4907.8,2094.73C4849.7,2039.43 4785.3,2014.23 4711.8,2014.23C4522.1,2014.23 4436,2151.43 4436,2281.63C4436,2418.13 4514.4,2543.43 4711.8,2543.43C4789.5,2543.43 4857.4,2521.73 4914.8,2464.33L4830.8,2370.53Z" style="fill-rule:nonzero;"/>
            </g>
        </g>
    </g>
</svg>
