<?xml version="1.0" encoding="UTF-8"?>
<!DOCTYPE svg PUBLIC "-//W3C//DTD SVG 1.1//EN" "http://www.w3.org/Graphics/SVG/1.1/DTD/svg11.dtd">
<svg xmlns="http://www.w3.org/2000/svg" xmlns:xlink="http://www.w3.org/1999/xlink">
  <symbol id="plyr-airplay" viewBox="0 0 18 18">
    <path d="M16 1H2a1 1 0 00-1 1v10a1 1 0 001 1h3v-2H3V3h12v8h-2v2h3a1 1 0 001-1V2a1 1 0 00-1-1z"/>
    <path d="M4 17h10l-5-6z"/>
  </symbol>
  <symbol id="plyr-captions-off" viewBox="0 0 18 18">
    <path d="M1 1c-.6 0-1 .4-1 1v11c0 .6.4 1 1 1h4.6l2.7 2.7c.2.2.4.3.7.3.3 0 .5-.1.7-.3l2.7-2.7H17c.6 0 1-.4 1-1V2c0-.6-.4-1-1-1H1zm4.52 10.15c1.99 0 3.01-1.32 3.28-2.41l-1.29-.39c-.19.66-.78 1.45-1.99 1.45-1.14 0-2.2-.83-2.2-2.34 0-1.61 1.12-2.37 2.18-2.37 1.23 0 1.78.75 1.95 1.43l1.3-.41C8.47 4.96 7.46 3.76 5.5 3.76c-1.9 0-3.61 1.44-3.61 3.7 0 2.26 1.65 3.69 3.63 3.69zm7.57 0c1.99 0 3.01-1.32 3.28-2.41l-1.29-.39c-.19.66-.78 1.45-1.99 1.45-1.14 0-2.2-.83-2.2-2.34 0-1.61 1.12-2.37 2.18-2.37 1.23 0 1.78.75 1.95 1.43l1.3-.41c-.28-1.15-1.29-2.35-3.25-2.35-1.9 0-3.61 1.44-3.61 3.7 0 2.26 1.65 3.69 3.63 3.69z" fill-rule="evenodd" fill-opacity=".5"/>
  </symbol>
  <symbol id="plyr-captions-on" viewBox="0 0 18 18">
    <path d="M1 1c-.6 0-1 .4-1 1v11c0 .6.4 1 1 1h4.6l2.7 2.7c.2.2.4.3.7.3.3 0 .5-.1.7-.3l2.7-2.7H17c.6 0 1-.4 1-1V2c0-.6-.4-1-1-1H1zm4.52 10.15c1.99 0 3.01-1.32 3.28-2.41l-1.29-.39c-.19.66-.78 1.45-1.99 1.45-1.14 0-2.2-.83-2.2-2.34 0-1.61 1.12-2.37 2.18-2.37 1.23 0 1.78.75 1.95 1.43l1.3-.41C8.47 4.96 7.46 3.76 5.5 3.76c-1.9 0-3.61 1.44-3.61 3.7 0 2.26 1.65 3.69 3.63 3.69zm7.57 0c1.99 0 3.01-1.32 3.28-2.41l-1.29-.39c-.19.66-.78 1.45-1.99 1.45-1.14 0-2.2-.83-2.2-2.34 0-1.61 1.12-2.37 2.18-2.37 1.23 0 1.78.75 1.95 1.43l1.3-.41c-.28-1.15-1.29-2.35-3.25-2.35-1.9 0-3.61 1.44-3.61 3.7 0 2.26 1.65 3.69 3.63 3.69z" fill-rule="evenodd"/>
  </symbol>
  <symbol id="plyr-download" viewBox="0 0 18 18">
    <path d="M9 13c.3 0 .5-.1.7-.3L15.4 7 14 5.6l-4 4V1H8v8.6l-4-4L2.6 7l5.7 5.7c.2.2.4.3.7.3zm-7 2h14v2H2z"/>
  </symbol>
  <symbol id="plyr-enter-fullscreen" viewBox="0 0 18 16">
		<path fill="none" d="M13 1H15C15.5304 1 16.0391 1.21071 16.4142 1.58579C16.7893 1.96086 17 2.46957 17 3V5" stroke-width="2" stroke-linecap="round" stroke-linejoin="round"/>
		<path fill="none" d="M13 15H15C15.5304 15 16.0391 14.7893 16.4142 14.4142C16.7893 14.0391 17 13.5304 17 13V11" stroke-width="2" stroke-linecap="round" stroke-linejoin="round"/>
		<path fill="none" d="M5 1H3C2.46957 1 1.96086 1.21071 1.58579 1.58579C1.21071 1.96086 1 2.46957 1 3V5" stroke-width="2" stroke-linecap="round" stroke-linejoin="round"/>
		<path fill="none" d="M5 15H3C2.46957 15 1.96086 14.7893 1.58579 14.4142C1.21071 14.0391 1 13.5304 1 13V11" stroke-width="2" stroke-linecap="round" stroke-linejoin="round"/>
		<path d="M10 5H8C6.89543 5 6 5.89543 6 7V9C6 10.1046 6.89543 11 8 11H10C11.1046 11 12 10.1046 12 9V7C12 5.89543 11.1046 5 10 5Z" fill="var(--plyr-svg-fill)" stroke="none"/>
  </symbol>
  <symbol id="plyr-exit-fullscreen" viewBox="0 0 18 18">
    <path d="M1 12h3.6l-4 4L2 17.4l4-4V17h2v-7H1zM16 .6l-4 4V1h-2v7h7V6h-3.6l4-4z"/>
  </symbol>
  <symbol id="plyr-fast-forward" viewBox="0 0 18 18">
    <path d="M7.875 7.171L0 1v16l7.875-6.171V17L18 9 7.875 1z"/>
  </symbol>
  <symbol id="plyr-logo-vimeo" viewBox="0 0 18 18">
    <path d="M17 5.3c-.1 1.6-1.2 3.7-3.3 6.4-2.2 2.8-4 4.2-5.5 4.2-.9 0-1.7-.9-2.4-2.6C5 10.9 4.4 6 3 6c-.1 0-.5.3-1.2.8l-.8-1c.8-.7 3.5-3.4 4.7-3.5 1.2-.1 2 .7 2.3 2.5.3 2 .8 6.1 1.8 6.1.9 0 2.5-3.4 2.6-4 .1-.9-.3-1.9-2.3-1.1.8-2.6 2.3-3.8 4.5-3.8 1.7.1 2.5 1.2 2.4 3.3z"/>
  </symbol>
  <symbol id="plyr-logo-youtube" viewBox="0 0 18 18">
    <path d="M16.8 5.8c-.2-1.3-.8-2.2-2.2-2.4C12.4 3 9 3 9 3s-3.4 0-5.6.4C2 3.6 1.3 4.5 1.2 5.8 1 7.1 1 9 1 9s0 1.9.2 3.2c.2 1.3.8 2.2 2.2 2.4C5.6 15 9 15 9 15s3.4 0 5.6-.4c1.4-.3 2-1.1 2.2-2.4.2-1.3.2-3.2.2-3.2s0-1.9-.2-3.2zM7 12V6l5 3-5 3z"/>
  </symbol>
  <symbol id="plyr-muted" viewBox="0 0 18 18">
    <path d="M12.4 12.5l2.1-2.1 2.1 2.1 1.4-1.4L15.9 9 18 6.9l-1.4-1.4-2.1 2.1-2.1-2.1L11 6.9 13.1 9 11 11.1zM3.786 6.008H.714C.286 6.008 0 6.31 0 6.76v4.512c0 .452.286.752.714.752h3.072l4.071 3.858c.5.3 1.143 0 1.143-.602V2.752c0-.601-.643-.977-1.143-.601L3.786 6.008z"/>
  </symbol>
  <symbol id="plyr-pause" viewBox="0 0 18 18">
    <path d="M6 1H3c-.6 0-1 .4-1 1v14c0 .6.4 1 1 1h3c.6 0 1-.4 1-1V2c0-.6-.4-1-1-1zm6 0c-.6 0-1 .4-1 1v14c0 .6.4 1 1 1h3c.6 0 1-.4 1-1V2c0-.6-.4-1-1-1h-3z"/>
  </symbol>
  <symbol id="plyr-pip" viewBox="0 0 18 18">
    <path d="M13.293 3.293L7.022 9.564l1.414 1.414 6.271-6.271L17 7V1h-6z"/>
    <path d="M13 15H3V5h5V3H2a1 1 0 00-1 1v12a1 1 0 001 1h12a1 1 0 001-1v-6h-2v5z"/>
  </symbol>
  <symbol id="plyr-play" viewBox="0 0 16 16">
		<path d="M3 1L14 8L3 15V1Z" stroke-width="2" stroke-linecap="round" stroke-linejoin="round"/>
  </symbol>
  <symbol id="plyr-restart" viewBox="0 0 18 18">
    <path d="M9.7 1.2l.7 6.4 2.1-2.1c1.9 1.9 1.9 5.1 0 7-.9 1-2.2 1.5-3.5 1.5-1.3 0-2.6-.5-3.5-1.5-1.9-1.9-1.9-5.1 0-7 .6-.6 1.4-1.1 2.3-1.3l-.6-1.9C6 2.6 4.9 3.2 4 4.1 1.3 6.8 1.3 11.2 4 14c1.3 1.3 3.1 2 4.9 2 1.9 0 3.6-.7 4.9-2 2.7-2.7 2.7-7.1 0-9.9L16 1.9l-6.3-.7z"/>
  </symbol>
  <symbol id="plyr-rewind" viewBox="0 0 18 18">
    <path d="M10.125 1L0 9l10.125 8v-6.171L18 17V1l-7.875 6.171z"/>
  </symbol>
  <symbol id="plyr-settings" viewBox="0 0 16 16">
		<g clip-path="url(#clip0_5647_1512)">
		<path d="M15.621 7.015L13.821 6.564C13.6759 5.97768 13.4429 5.41667 13.13 4.9L14.086 3.307C14.1434 3.21138 14.1673 3.0993 14.1537 2.98859C14.1401 2.87788 14.0899 2.77488 14.011 2.696L13.3 1.989C13.2211 1.91014 13.1181 1.85991 13.0074 1.84632C12.8967 1.83273 12.7846 1.85656 12.689 1.914L11.1 2.87C10.5833 2.55743 10.0223 2.32481 9.436 2.18L8.985 0.379C8.95801 0.270784 8.89561 0.174699 8.80773 0.106025C8.71985 0.0373507 8.61153 3.08115e-05 8.5 0L7.5 0C7.38847 3.08115e-05 7.28015 0.0373507 7.19227 0.106025C7.10439 0.174699 7.04199 0.270784 7.015 0.379L6.564 2.179C5.97768 2.32415 5.41667 2.55711 4.9 2.87L3.307 1.914C3.21138 1.85656 3.0993 1.83273 2.98859 1.84632C2.87788 1.85991 2.77488 1.91014 2.696 1.989L1.989 2.7C1.91014 2.77888 1.85991 2.88188 1.84632 2.99259C1.83273 3.1033 1.85656 3.21538 1.914 3.311L2.87 4.9C2.55743 5.41671 2.32481 5.97772 2.18 6.564L0.38 7.015C0.271598 7.0418 0.175288 7.10412 0.106419 7.19201C0.0375496 7.27991 8.63129e-05 7.38833 0 7.5L0 8.5C3.08115e-05 8.61153 0.0373507 8.71985 0.106025 8.80773C0.174699 8.89561 0.270784 8.95801 0.379 8.985L2.179 9.436C2.32415 10.0223 2.55711 10.5833 2.87 11.1L1.914 12.693C1.85656 12.7886 1.83273 12.9007 1.84632 13.0114C1.85991 13.1221 1.91014 13.2251 1.989 13.304L2.696 14.011C2.77488 14.0899 2.87788 14.1401 2.98859 14.1537C3.0993 14.1673 3.21138 14.1434 3.307 14.086L4.9 13.13C5.41671 13.4426 5.97772 13.6752 6.564 13.82L7.015 15.62C7.0418 15.7284 7.10412 15.8247 7.19201 15.8936C7.27991 15.9625 7.38833 15.9999 7.5 16H8.5C8.61153 16 8.71985 15.9626 8.80773 15.894C8.89561 15.8253 8.95801 15.7292 8.985 15.621L9.436 13.821C10.0223 13.6762 10.5833 13.4436 11.1 13.131L12.693 14.087C12.7886 14.1444 12.9007 14.1683 13.0114 14.1547C13.1221 14.1411 13.2251 14.0909 13.304 14.012L14.011 13.305C14.0899 13.2261 14.1401 13.1231 14.1537 13.0124C14.1673 12.9017 14.1434 12.7896 14.086 12.694L13.13 11.1C13.4426 10.5833 13.6752 10.0223 13.82 9.436L15.62 8.985C15.7284 8.9582 15.8247 8.89588 15.8936 8.80799C15.9625 8.72009 15.9999 8.61166 16 8.5V7.5C16 7.38847 15.9626 7.28015 15.894 7.19227C15.8253 7.10439 15.7292 7.04199 15.621 7.015ZM8 11C7.40666 11 6.82664 10.8241 6.33329 10.4944C5.83994 10.1648 5.45542 9.69623 5.22836 9.14805C5.0013 8.59987 4.94189 7.99667 5.05764 7.41473C5.1734 6.83279 5.45912 6.29824 5.87868 5.87868C6.29824 5.45912 6.83279 5.1734 7.41473 5.05764C7.99667 4.94189 8.59987 5.0013 9.14805 5.22836C9.69623 5.45542 10.1648 5.83994 10.4944 6.33329C10.8241 6.82664 11 7.40666 11 8C11 8.79565 10.6839 9.55871 10.1213 10.1213C9.55871 10.6839 8.79565 11 8 11Z"/>
		</g>
		<defs>
		<clipPath id="clip0_5647_1512">
		<rect width="18" height="18"/>
		</clipPath>
		</defs>
  </symbol>
  <symbol id="plyr-volume" viewBox="0 0 18 16">
    <path d="M15.6 3.3c-.4-.4-1-.4-1.4 0-.4.4-.4 1 0 1.4C15.4 5.9 16 7.4 16 9c0 1.6-.6 3.1-1.8 4.3-.4.4-.4 1 0 1.4.2.2.5.3.7.3.3 0 .5-.1.7-.3C17.1 13.2 18 11.2 18 9s-.9-4.2-2.4-5.7z"/>
    <path d="M11.282 5.282a.909.909 0 000 1.316c.735.735.995 1.458.995 2.402 0 .936-.425 1.917-.995 2.487a.909.909 0 000 1.316c.145.145.636.262 1.018.156a.725.725 0 00.298-.156C13.773 11.733 14.13 10.16 14.13 9c0-.17-.002-.34-.011-.51-.053-.992-.319-2.005-1.522-3.208a.909.909 0 00-1.316 0zm-7.496.726H.714C.286 6.008 0 6.31 0 6.76v4.512c0 .452.286.752.714.752h3.072l4.071 3.858c.5.3 1.143 0 1.143-.602V2.752c0-.601-.643-.977-1.143-.601L3.786 6.008z"/>
  </symbol>
</svg>
