<?xml version="1.0" encoding="utf-8"?>
<!-- Generator: Adobe Illustrator 25.3.1, SVG Export Plug-In . SVG Version: 6.00 Build 0)  -->
<svg version="1.1" id="Layer_1" xmlns="http://www.w3.org/2000/svg" xmlns:xlink="http://www.w3.org/1999/xlink" x="0px" y="0px"
	 viewBox="0 0 1080 279" style="enable-background:new 0 0 1080 279;" xml:space="preserve">
<style type="text/css">
	.st0{fill-rule:evenodd;clip-rule:evenodd;fill:#00ABA7;}
	.st1{fill-rule:evenodd;clip-rule:evenodd;fill:#0068B3;}
	.st2{fill-rule:evenodd;clip-rule:evenodd;fill:#008AD1;}
	.st3{fill:#0068B3;}
	.st4{fill:#00ABA7;}
</style>
<g>
	<path class="st0" d="M48.8,46.3L48.8,46.3c12.5-5.8,27.4-0.4,33.3,12.1L134,169.8c5.8,12.5,0.4,27.4-12.1,33.3l0,0
		c-12.5,5.8-27.4,0.4-33.3-12.1L36.7,79.6C30.9,67.1,36.4,52.1,48.8,46.3"/>
	<path class="st1" d="M173.8,46.3L173.8,46.3c-12.5-5.8-27.4-0.4-33.3,12.1L88.7,169.8c-5.8,12.5-0.4,27.4,12.1,33.3l0,0
		c12.5,5.8,27.4,0.4,33.3-12.1L186,79.6C191.8,67.1,186.3,52.1,173.8,46.3"/>
	<path class="st0" d="M153.1,46.3L153.1,46.3c12.5-5.8,27.4-0.4,33.3,12.1l51.9,111.4c5.8,12.5,0.4,27.4-12.1,33.3l0,0
		c-12.5,5.8-27.4,0.4-33.3-12.1L141,79.6C135.1,67.1,140.6,52.1,153.1,46.3"/>
	<path class="st2" d="M309.6,0c0,0-102.9,140-116.8,169.8c-5.8,12.4-0.4,27.4,12.1,33.3l0,0c12.5,5.8,27.5,0.3,33.3-12.1
		C258.8,146.7,309.6,0,309.6,0"/>
	<path class="st2" d="M111.3,121.1l-22.7,48.7c-4.3,9.2-2.5,19.7,3.7,26.9l0,0l0.1,0.1c4.7,5.3,11.5,8.4,18.5,8.5h0.6
		c7-0.1,13.8-3.2,18.5-8.5l0.1-0.1l0,0c6.2-7.2,8-17.7,3.7-26.9L111.3,121.1z"/>
	<path class="st2" d="M153.1,46.3L153.1,46.3c3.3-1.5,6.8-2.3,10.2-2.3l0,0h0.3l0,0c3.4,0,6.9,0.8,10.2,2.3l0,0
		c12.5,5.8,17.9,20.8,12.1,33.3l-22.5,48.2L141,79.6C135.1,67.1,140.6,52.1,153.1,46.3"/>
	<path class="st1" d="M218.8,128l19.5,41.8c4.3,9.2,2.5,19.7-3.7,26.9l0,0l-0.1,0.1c-4.7,5.3-11.5,8.4-18.5,8.5h-0.6
		c-7-0.1-13.8-3.2-18.5-8.5l-0.1-0.1l0,0c-6.2-7.2-8-17.7-3.7-26.9C197.2,160.5,207.2,145,218.8,128"/>
	<path class="st1" d="M118.4,60.2C84.6,26.1,0.6-6.2,15,59.9C-17.7-22.5,72.4-1.8,118.4,60.2"/>
	<path class="st0" d="M149.6,189.8c45.9,41,149.7,86.4,114.5-3.3C336.8,307.9,218.1,273,149.6,189.8"/>
	<path class="st3" d="M1016.9,134.8c5.7,2.5,10.1,4.5,13,6.1c2.9,1.5,5.5,3.2,7.6,5c2.1,1.8,3.7,3.8,4.6,6c1,2.2,1.5,5.1,1.5,8.6
		c0,13.7-9.5,20.5-28.4,20.5H985l-0.6-59.7L1016.9,134.8z M985,84.6h22.8c10.2,0,17.8,1.2,22.8,3.5c5,2.3,7.5,7,7.5,13.9
		c0,3.2-0.8,6.2-2.4,8.9c-2.1,3.8-5,6.3-8.8,7.6c-3.8,1.3-9.2,1.9-16.2,1.9H985V84.6z M1016.2,202.1c7.4,0,13.8-0.4,19.2-1.1
		c5.4-0.7,10.3-2,14.6-3.7c6.7-3,12-7.5,16-13.8c4-6.2,6-13.2,6-20.9c0-16.7-9.1-28-27.3-33.8c13.8-6.5,20.8-16.6,20.8-30.5
		c0-6.2-1.5-11.8-4.4-16.8c-2.9-5.1-6.9-9.1-12.1-12c-3.9-2.4-8.3-3.9-13.1-4.7c-4.8-0.8-10.6-1.2-17.2-1.2h-44.9
		c-5.9,0-10.2,1.3-12.9,4c-2.7,2.6-4.1,7.1-4.1,13.2v104.2c0,6.2,1.3,10.6,3.9,13.2c2.6,2.6,7,4,13.1,4H1016.2z"/>
	<path class="st3" d="M924.7,85.2c4.4,0,7.7-1,9.9-3c2.2-2,3.3-4.6,3.3-7.9c0-3.2-1.1-5.8-3.3-7.8c-2.2-2-5.5-3-9.9-3h-74.1
		c-6.1,0-10.4,1.3-13.1,4c-2.7,2.6-4.1,7.1-4.1,13.2v104.2c0,6.2,1.3,10.6,4,13.2c2.6,2.6,7.1,4,13.2,4h76.3c4.4,0,7.7-1,10-3.1
		c2.3-2.1,3.4-4.7,3.4-7.9c0-3.3-1.1-6-3.4-8.1c-2.2-2.1-5.5-3.1-10-3.1h-65.4v-39.4h58.2c4.4,0,7.6-1,9.7-3c2-2,3.1-4.5,3.1-7.6
		c0-3.1-1.1-5.6-3.2-7.6c-2.1-1.9-5.3-2.9-9.6-2.9l-58,20v-54L924.7,85.2z"/>
	<path class="st3" d="M760.9,180.3l-22.4-83.1l-22.7,83.1c-1.7,6.3-3.2,10.8-4.2,13.6c-1,2.7-2.8,5.2-5.5,7.4
		c-2.6,2.2-6,3.3-10.3,3.3c-3.5,0-6.3-0.6-8.5-1.9c-2.2-1.3-4-3.1-5.4-5.5c-1.4-2.4-2.5-5.2-3.4-8.4c-0.9-3.3-1.7-6.3-2.4-9
		L653,86.3c-1.4-5.4-2.1-9.5-2.1-12.4c0-3.6,1.3-6.6,3.8-9.1c2.5-2.5,5.6-3.7,9.4-3.7c5.1,0,8.5,1.6,10.3,4.9
		c1.8,3.3,3.3,8,4.6,14.3l18.7,84l19.7-78.8c1.5-5.8,2.9-10.2,4.1-13.2c1.2-3,3.2-5.6,5.9-7.9c2.7-2.2,6.4-3.3,11-3.3
		c4.7,0,8.4,1.1,11,3.5c2.6,2.3,4.4,4.8,5.4,7.5c1,2.7,2.4,7.2,4.1,13.4l20.5,78.5l32.9-102.5c0.6-0.9,1-0.9,1.3,0.1l-13.1,118
		c-1.6,6.3-2.9,10.9-3.9,13.8c-1.1,2.9-2.8,5.5-5.3,7.7c-2.5,2.2-6,3.3-10.6,3.3c-4.3,0-7.7-1.1-10.3-3.2c-2.6-2.2-4.4-4.5-5.4-7.2
		C764.1,191.4,762.7,186.7,760.9,180.3"/>
	<path class="st4" d="M554.6,84.6c7.6,0,15.2,0,22.8,0c10.2,0,17.8,1.2,22.8,3.5c5,2.3,7.5,7,7.5,13.9c0,3.2-0.8,6.2-2.4,8.9
		c-2.1,3.8-5,6.3-8.8,7.6c-3.8,1.3-9.2,1.9-16.2,1.9c-8.6,0-17.1,0-25.7,0C554.6,108.5,554.6,96.5,554.6,84.6 M614.3,128.8
		c13.8-6.5,20.8-16.6,20.8-30.5c0-6.2-1.5-11.8-4.4-16.8c-2.9-5.1-6.9-9.1-12.1-12c-3.9-2.4-8.3-3.9-13.1-4.7
		c-4.8-0.8-10.6-1.2-17.2-1.2c-15,0-29.9,0-44.9,0c-5.9,0-10.2,1.3-12.9,4c-2.7,2.6-4.1,7.1-4.1,13.2c0,34.7,0,69.5,0,104.2
		c0,6.2,1.2,10.7,3.9,13.2c10.9,10.5,24,2.2,23.9-14.1c0-12.4,0-24.9,0-37.3c-0.1-8.4-0.2-16.9-0.2-25.3
		C558.8,123.5,594.4,136.5,614.3,128.8z"/>
	<path class="st4" d="M457.5,180.3c-7.5-27.7-14.9-55.4-22.4-83.1c-7.6,27.7-15.1,55.4-22.7,83.1c-1.7,6.3-3.2,10.8-4.2,13.6
		c-1,2.7-2.8,5.2-5.5,7.4c-2.6,2.2-6,3.3-10.3,3.3c-3.5,0-6.3-0.6-8.6-1.9c-2.2-1.3-4-3.1-5.4-5.5c-1.4-2.4-2.5-5.2-3.4-8.4
		c-0.9-3.3-1.7-6.3-2.4-9c-7.7-31.1-15.4-62.2-23.1-93.3c-1.4-5.4-2.1-9.5-2.1-12.4c0-3.6,1.3-6.6,3.8-9.1c2.5-2.5,5.6-3.7,9.4-3.7
		c5.1,0,8.5,1.6,10.3,4.9c1.8,3.3,3.3,8,4.6,14.3c6.2,28,12.5,56,18.7,84c6.6-26.3,13.2-52.5,19.7-78.8c1.5-5.8,2.9-10.2,4.1-13.2
		c1.2-3,3.2-5.6,5.9-7.9c2.7-2.2,6.4-3.3,11-3.3c4.7,0,8.4,1.1,11,3.5c2.6,2.3,4.4,4.8,5.4,7.5c1,2.7,2.4,7.2,4.1,13.4
		c6.8,26.2,13.7,52.4,20.5,78.5C487,129.9,498,95.7,509,61.6c0.6-0.9,1-0.9,1.3,0.1c-4.4,39.3-8.8,78.7-13.1,118
		c-1.6,6.3-2.9,10.9-3.9,13.8c-1.1,2.9-2.8,5.5-5.3,7.7c-2.5,2.2-6,3.3-10.6,3.3c-4.3,0-7.7-1.1-10.3-3.2c-2.6-2.2-4.4-4.5-5.4-7.2
		C460.7,191.4,459.3,186.7,457.5,180.3"/>
</g>
</svg>
