<?xml version="1.0" encoding="UTF-8"?>
<svg xmlns="http://www.w3.org/2000/svg" version="1.1" id="Layer_1" x="0" y="0" viewBox="0 0 782.5 223.4" style="enable-background:new 0 0 782.5 223.4" xml:space="preserve">
  <style>.st0{fill-rule:evenodd;clip-rule:evenodd;fill:#d9dada}.st27{fill:#262626}</style>
  <path class="st0" d="M18.5 10.1c3.4-2 7.7-.8 9.7 2.6 2 3.4.8 7.7-2.6 9.7-3.4 2-7.7.8-9.7-2.6-2-3.3-.8-7.7 2.6-9.7zM223.3 10.1c-3.4-2-7.7-.8-9.7 2.6-2 3.4-.8 7.7 2.6 9.7 3.4 2 7.7.8 9.7-2.6 2-3.3.8-7.7-2.6-9.7zM77.5 110.6c8-4.6 18.2-1.9 22.8 6.1 4.6 8 1.9 18.2-6.1 22.8-8 4.6-18.2 1.9-22.8-6.1-4.6-8-1.9-18.2 6.1-22.8zM61.5 82.9c6.4-3.7 14.7-1.5 18.4 4.9 3.7 6.4 1.5 14.7-4.9 18.4-6.4 3.7-14.7 1.5-18.4-4.9-3.8-6.5-1.6-14.7 4.9-18.4zM45.2 56.8c5.2-3 11.9-1.2 14.9 4s1.2 11.9-4 14.9-11.9 1.2-14.9-4-1.3-11.9 4-14.9zM30.8 34.8c4.2-2.4 9.6-1 12 3.2 2.4 4.2 1 9.6-3.2 12-4.2 2.4-9.6 1-12-3.2-2.4-4.2-1-9.6 3.2-12zM110 82.9c-6.4-3.7-14.7-1.5-18.4 4.9-3.7 6.4-1.5 14.7 4.9 18.4 6.4 3.7 14.7 1.5 18.4-4.9 3.8-6.5 1.5-14.7-4.9-18.4zM126.3 56.8c-5.2-3-11.9-1.2-14.9 4s-1.2 11.9 4 14.9 11.9 1.2 14.9-4 1.2-11.9-4-14.9zM164.3 110.6c-8-4.6-18.2-1.9-22.8 6.1-1 1.7-1.7 3.6-2 5.5 17.8-.1 27.9 2.5 32.7 6.6 1.6-6.9-1.4-14.4-7.9-18.2zm-25.1 14.1c12.6 3 17.8 9.7 17.9 17-3.2.2-6.5-.5-9.5-2.2-5.5-3.1-8.5-8.9-8.4-14.8zM180.3 82.9c-6.4-3.7-14.7-1.5-18.4 4.9-3.7 6.4-1.5 14.7 4.9 18.4 6.4 3.7 14.7 1.5 18.4-4.9 3.7-6.5 1.5-14.7-4.9-18.4zM196.6 56.8c-5.2-3-11.9-1.2-14.9 4s-1.2 11.9 4 14.9 11.9 1.2 14.9-4 1.2-11.9-4-14.9zM211 34.8c-4.2-2.4-9.6-1-12 3.2-2.4 4.2-1 9.6 3.2 12 4.2 2.4 9.6 1 12-3.2 2.4-4.2 1-9.6-3.2-12zM131.7 82.9c6.4-3.7 14.7-1.5 18.4 4.9 3.7 6.4 1.5 14.7-4.9 18.4-6.4 3.7-14.7 1.5-18.4-4.9-3.7-6.5-1.5-14.7 4.9-18.4zM137.2 143.8c-15.4-8.9-35-3.6-43.9 11.8-4.8 8.3-5.5 17.8-2.6 26.3 5.9-2.5 11.5-4 15.3-3.5-5.1 2.2-9.7 4.8-13.7 7.6 2.7 5.5 7 10.2 12.7 13.5 15.4 8.9 35 3.6 43.9-11.8 8.9-15.4 3.7-35.1-11.7-43.9zM127.1 112.8c-6-3.4-13.6-1.4-17.1 4.6-3.4 6-1.4 13.6 4.6 17.1 6 3.4 13.6 1.4 17.1-4.6 3.4-6 1.4-13.6-4.6-17.1z"></path>
  <path class="st0" d="M120.9 141.5c14.1 0 22 10.7 24.3 16.8-7.7 7.3-49.7 30.6-49.7 7.2-.1-13.2 11.3-24 25.4-24zM125.5 207.4c-56.2 16.2-45.3-14.5-19.4-29.1-16.5 2.8-78.6 61.8 19.4 29.1z"></path>
  <path class="st0" d="M122.7 123c50.3 0 37.2 35.6 13.1 44.8 14.5 2.5 75.2-50.3-13.1-44.8z"></path>
  <linearGradient id="SVGID_1_" gradientUnits="userSpaceOnUse" x1="11.881" y1="13.274" x2="26.08" y2="13.274">
    <stop offset="0" style="stop-color:#000"></stop>
    <stop offset="1" style="stop-color:#b1b2b3"></stop>
  </linearGradient>
  <path d="M15.4 7.1c3.4-2 7.7-.8 9.7 2.6 2 3.4.8 7.7-2.6 9.7-3.4 2-7.7.8-9.7-2.6-1.9-3.4-.8-7.7 2.6-9.7z" style="fill-rule:evenodd;clip-rule:evenodd;fill:url(#SVGID_1_)"></path>
  <linearGradient id="SVGID_2_" gradientUnits="userSpaceOnUse" x1="209.623" y1="13.274" x2="223.821" y2="13.274">
    <stop offset="0" style="stop-color:#000"></stop>
    <stop offset="1" style="stop-color:#b1b2b3"></stop>
  </linearGradient>
  <path d="M220.3 7.1c-3.4-2-7.7-.8-9.7 2.6s-.8 7.7 2.6 9.7c3.4 2 7.7.8 9.7-2.6 1.9-3.4.8-7.7-2.6-9.7z" style="fill-rule:evenodd;clip-rule:evenodd;fill:url(#SVGID_2_)"></path>
  <linearGradient id="SVGID_3_" gradientUnits="userSpaceOnUse" x1="66.123" y1="122.046" x2="99.495" y2="122.046">
    <stop offset="0" style="stop-color:#000"></stop>
    <stop offset="1" style="stop-color:#b1b2b3"></stop>
  </linearGradient>
  <path d="M74.5 107.6c8-4.6 18.2-1.9 22.8 6.1 4.6 8 1.9 18.2-6.1 22.8-8 4.6-18.2 1.9-22.8-6.1-4.6-8-1.9-18.2 6.1-22.8z" style="fill-rule:evenodd;clip-rule:evenodd;fill:url(#SVGID_3_)"></path>
  <linearGradient id="SVGID_4_" gradientUnits="userSpaceOnUse" x1="51.714" y1="91.53" x2="78.666" y2="91.53">
    <stop offset="0" style="stop-color:#000"></stop>
    <stop offset="1" style="stop-color:#b1b2b3"></stop>
  </linearGradient>
  <path d="M58.5 79.9c6.4-3.7 14.7-1.5 18.4 4.9 3.7 6.4 1.5 14.7-4.9 18.4-6.4 3.7-14.7 1.5-18.4-4.9-3.8-6.5-1.6-14.7 4.9-18.4z" style="fill-rule:evenodd;clip-rule:evenodd;fill:url(#SVGID_4_)"></path>
  <linearGradient id="SVGID_5_" gradientUnits="userSpaceOnUse" x1="36.688" y1="63.229" x2="58.457" y2="63.229">
    <stop offset="0" style="stop-color:#000"></stop>
    <stop offset="1" style="stop-color:#b1b2b3"></stop>
  </linearGradient>
  <path d="M42.1 53.8c5.2-3 11.9-1.2 14.9 4s1.2 11.9-4 14.9-11.9 1.2-14.9-4-1.2-11.9 4-14.9z" style="fill-rule:evenodd;clip-rule:evenodd;fill:url(#SVGID_5_)"></path>
  <linearGradient id="SVGID_6_" gradientUnits="userSpaceOnUse" x1="23.378" y1="39.359" x2="40.956" y2="39.359">
    <stop offset="0" style="stop-color:#000"></stop>
    <stop offset="1" style="stop-color:#b1b2b3"></stop>
  </linearGradient>
  <path d="M27.8 31.7c4.2-2.4 9.6-1 12 3.2 2.4 4.2 1 9.6-3.2 12-4.2 2.4-9.6 1-12-3.2-2.5-4.1-1-9.5 3.2-12z" style="fill-rule:evenodd;clip-rule:evenodd;fill:url(#SVGID_6_)"></path>
  <linearGradient id="SVGID_7_" gradientUnits="userSpaceOnUse" x1="86.767" y1="91.53" x2="113.719" y2="91.53">
    <stop offset="0" style="stop-color:#000"></stop>
    <stop offset="1" style="stop-color:#b1b2b3"></stop>
  </linearGradient>
  <path d="M107 79.9c-6.4-3.7-14.7-1.5-18.4 4.9-3.7 6.4-1.5 14.7 4.9 18.4 6.4 3.7 14.7 1.5 18.4-4.9 3.7-6.5 1.5-14.7-4.9-18.4z" style="fill-rule:evenodd;clip-rule:evenodd;fill:url(#SVGID_7_)"></path>
  <linearGradient id="SVGID_8_" gradientUnits="userSpaceOnUse" x1="106.978" y1="63.229" x2="128.745" y2="63.229">
    <stop offset="0" style="stop-color:#000"></stop>
    <stop offset="1" style="stop-color:#b1b2b3"></stop>
  </linearGradient>
  <path d="M123.3 53.8c-5.2-3-11.9-1.2-14.9 4s-1.2 11.9 4 14.9 11.9 1.2 14.9-4 1.2-11.9-4-14.9z" style="fill-rule:evenodd;clip-rule:evenodd;fill:url(#SVGID_8_)"></path>
  <linearGradient id="SVGID_9_" gradientUnits="userSpaceOnUse" x1="136.212" y1="122.046" x2="169.581" y2="122.046">
    <stop offset="0" style="stop-color:#000"></stop>
    <stop offset="1" style="stop-color:#b1b2b3"></stop>
  </linearGradient>
  <path d="M161.2 107.6c-8-4.6-18.2-1.9-22.8 6.1-1 1.7-1.7 3.6-2 5.5 17.8-.1 27.9 2.5 32.7 6.6 1.7-7-1.4-14.4-7.9-18.2zm-25 14.1c12.6 3 17.8 9.7 17.9 17-3.2.2-6.5-.5-9.5-2.2-5.5-3.2-8.5-8.9-8.4-14.8z" style="fill-rule:evenodd;clip-rule:evenodd;fill:url(#SVGID_9_)"></path>
  <linearGradient id="SVGID_10_" gradientUnits="userSpaceOnUse" x1="157.038" y1="91.53" x2="183.99" y2="91.53">
    <stop offset="0" style="stop-color:#000"></stop>
    <stop offset="1" style="stop-color:#b1b2b3"></stop>
  </linearGradient>
  <path d="M177.2 79.9c-6.4-3.7-14.7-1.5-18.4 4.9-3.7 6.4-1.5 14.7 4.9 18.4 6.4 3.7 14.7 1.5 18.4-4.9 3.8-6.5 1.6-14.7-4.9-18.4z" style="fill-rule:evenodd;clip-rule:evenodd;fill:url(#SVGID_10_)"></path>
  <linearGradient id="SVGID_11_" gradientUnits="userSpaceOnUse" x1="177.249" y1="63.229" x2="199.018" y2="63.229">
    <stop offset="0" style="stop-color:#000"></stop>
    <stop offset="1" style="stop-color:#b1b2b3"></stop>
  </linearGradient>
  <path d="M193.6 53.8c-5.2-3-11.9-1.2-14.9 4s-1.2 11.9 4 14.9 11.9 1.2 14.9-4 1.2-11.9-4-14.9z" style="fill-rule:evenodd;clip-rule:evenodd;fill:url(#SVGID_11_)"></path>
  <linearGradient id="SVGID_12_" gradientUnits="userSpaceOnUse" x1="194.745" y1="39.359" x2="212.325" y2="39.359">
    <stop offset="0" style="stop-color:#000"></stop>
    <stop offset="1" style="stop-color:#b1b2b3"></stop>
  </linearGradient>
  <path d="M207.9 31.7c-4.2-2.4-9.6-1-12 3.2-2.4 4.2-1 9.6 3.2 12 4.2 2.4 9.6 1 12-3.2 2.5-4.1 1-9.5-3.2-12z" style="fill-rule:evenodd;clip-rule:evenodd;fill:url(#SVGID_12_)"></path>
  <linearGradient id="SVGID_13_" gradientUnits="userSpaceOnUse" x1="121.985" y1="91.53" x2="148.934" y2="91.53">
    <stop offset="0" style="stop-color:#000"></stop>
    <stop offset="1" style="stop-color:#b1b2b3"></stop>
  </linearGradient>
  <path d="M128.7 79.9c6.4-3.7 14.7-1.5 18.4 4.9 3.7 6.4 1.5 14.7-4.9 18.4-6.4 3.7-14.7 1.5-18.4-4.9-3.7-6.5-1.5-14.7 4.9-18.4z" style="fill-rule:evenodd;clip-rule:evenodd;fill:url(#SVGID_13_)"></path>
  <radialGradient id="SVGID_14_" cx="117.742" cy="159.006" r="37" gradientUnits="userSpaceOnUse">
    <stop offset="0" style="stop-color:#a1d9f8"></stop>
    <stop offset="1" style="stop-color:#008bd2"></stop>
  </radialGradient>
  <path d="M134.2 140.7c-15.4-8.9-35-3.6-43.9 11.8-4.8 8.3-5.5 17.8-2.6 26.3 5.9-2.5 11.5-4 15.3-3.5-5.1 2.2-9.7 4.8-13.7 7.6 2.7 5.5 7 10.2 12.7 13.5 15.4 8.9 35 3.6 43.9-11.8 8.9-15.4 3.7-35-11.7-43.9z" style="fill-rule:evenodd;clip-rule:evenodd;fill:url(#SVGID_14_)"></path>
  <radialGradient id="SVGID_15_" cx="117.004" cy="116.642" r="14.42" gradientUnits="userSpaceOnUse">
    <stop offset="0" style="stop-color:#a1d9f8"></stop>
    <stop offset="1" style="stop-color:#008bd2"></stop>
  </radialGradient>
  <path d="M124.1 109.8c-6-3.4-13.6-1.4-17.1 4.6-3.4 6-1.4 13.6 4.6 17.1 6 3.4 13.6 1.4 17.1-4.6 3.4-6 1.4-13.6-4.6-17.1z" style="fill-rule:evenodd;clip-rule:evenodd;fill:url(#SVGID_15_)"></path>
  <linearGradient id="SVGID_16_" gradientUnits="userSpaceOnUse" x1="118.605" y1="164.947" x2="112.245" y2="141.399">
    <stop offset="0" style="stop-color:#008bd2"></stop>
    <stop offset="1" style="stop-color:#a1d9f8"></stop>
  </linearGradient>
  <path d="M117.9 138.5c14.1 0 22 10.7 24.3 16.8-7.7 7.3-49.7 30.6-49.7 7.2-.1-13.2 11.3-24 25.4-24z" style="fill-rule:evenodd;clip-rule:evenodd;fill:url(#SVGID_16_)"></path>
  <radialGradient id="SVGID_17_" cx="72.4" cy="195.087" r="44.142" gradientUnits="userSpaceOnUse">
    <stop offset="0" style="stop-color:#a1d9f8"></stop>
    <stop offset="1" style="stop-color:#008bd2"></stop>
  </radialGradient>
  <path d="M122.5 204.4c-56.2 16.2-45.3-14.5-19.4-29.1-16.5 2.8-78.7 61.7 19.4 29.1z" style="fill-rule:evenodd;clip-rule:evenodd;fill:url(#SVGID_17_)"></path>
  <radialGradient id="SVGID_18_" cx="161.996" cy="127.756" r="56.332" gradientUnits="userSpaceOnUse">
    <stop offset="0" style="stop-color:#a1d9f8"></stop>
    <stop offset="1" style="stop-color:#008bd2"></stop>
  </radialGradient>
  <path d="M119.7 120c50.3 0 37.2 35.6 13.1 44.8 14.4 2.5 75.2-50.4-13.1-44.8z" style="fill-rule:evenodd;clip-rule:evenodd;fill:url(#SVGID_18_)"></path>
  <path class="st0" d="M718.8 123.6c5 0 9.3-.2 12.9-.7 3.7-.5 7-1.3 9.9-2.5 4.5-2 8.1-5.1 10.8-9.3 2.7-4.2 4.1-8.9 4.1-14.1 0-11.3-6.1-18.9-18.4-22.8 9.4-4.4 14-11.2 14-20.6 0-4.2-1-8-3-11.4-2-3.4-4.7-6.1-8.2-8.1-2.6-1.6-5.6-2.6-8.8-3.2-3.3-.5-7.1-.8-11.6-.8h-30.3c-4 0-6.9.9-8.7 2.7-1.8 1.8-2.7 4.8-2.7 8.9V112c0 4.2.9 7.1 2.6 8.9 1.7 1.8 4.7 2.7 8.9 2.7h28.5zm-21.1-79.4h15.4c6.9 0 12 .8 15.4 2.4 3.4 1.6 5.1 4.7 5.1 9.4 0 2.2-.5 4.2-1.6 6-1.4 2.6-3.4 4.3-5.9 5.1-2.6.9-6.2 1.3-10.9 1.3h-17.4V44.2h-.1zm21.6 33.9c3.9 1.7 6.8 3.1 8.8 4.1 2 1 3.7 2.2 5.1 3.4 1.4 1.2 2.5 2.6 3.1 4.1.7 1.5 1 3.5 1 5.8 0 9.2-6.4 13.9-19.2 13.9h-20.4l-.4-40.4 22 9.1zM657 44.6c3 0 5.2-.7 6.7-2 1.5-1.4 2.2-3.1 2.2-5.3 0-2.2-.7-3.9-2.2-5.3-1.5-1.3-3.7-2-6.7-2h-50.1c-4.1 0-7 .9-8.9 2.7-1.8 1.8-2.7 4.8-2.7 8.9V112c0 4.2.9 7.1 2.7 8.9 1.8 1.8 4.8 2.7 8.9 2.7h51.5c3 0 5.2-.7 6.7-2.1 1.5-1.4 2.3-3.2 2.3-5.4s-.7-4.1-2.3-5.5c-1.5-1.4-3.7-2.1-6.7-2.1h-44.2V81.9h39.3c3 0 5.1-.7 6.5-2.1 1.4-1.4 2.1-3.1 2.1-5.2s-.7-3.8-2.1-5.1c-1.4-1.3-3.6-2-6.5-2L614.3 81V44.6H657zM546.3 108.8l-15.2-56.1-15.3 56.1c-1.2 4.3-2.1 7.3-2.8 9.2-.7 1.9-1.9 3.5-3.7 5-1.7 1.5-4.1 2.2-7 2.2-2.3 0-4.3-.4-5.8-1.3s-2.7-2.1-3.7-3.7c-.9-1.6-1.7-3.5-2.3-5.7-.6-2.2-1.1-4.2-1.6-6.1l-15.6-63c-.9-3.7-1.4-6.5-1.4-8.4 0-2.4.9-4.5 2.5-6.1 1.7-1.7 3.8-2.5 6.3-2.5 3.4 0 5.8 1.1 7 3.3 1.2 2.2 2.2 5.4 3.1 9.7l12.6 56.8L517 44.8c1-3.9 1.9-6.9 2.7-8.9.8-2 2.1-3.8 4-5.3 1.8-1.5 4.3-2.2 7.5-2.2s5.7.8 7.5 2.3c1.8 1.5 3 3.2 3.7 5.1.7 1.8 1.6 4.8 2.7 9.1L559 98l22.2-69.3c.4-.6.7-.6.9 0l-8.9 79.7c-1.1 4.3-1.9 7.4-2.6 9.4-.7 2-1.9 3.7-3.6 5.2-1.7 1.5-4.1 2.2-7.1 2.2-2.9 0-5.2-.7-7-2.2-1.7-1.5-3-3.1-3.6-4.9-.8-1.8-1.8-4.9-3-9.3zM447.3 74c9.4-4.4 14-11.2 14-20.6 0-4.2-1-8-3-11.4-2-3.4-4.7-6.1-8.2-8.1-2.6-1.6-5.6-2.6-8.8-3.2-3.3-.5-7.1-.8-11.6-.8h-30.3c-4 0-6.9.9-8.7 2.7-1.8 1.8-2.7 4.8-2.7 8.9v70.4c0 4.2.8 7.2 2.6 8.9 7.4 7.1 16.2 1.5 16.1-9.6V86c-.1-5.7-.1-11.4-.2-17.1 3.2 1.6 27.3 10.4 40.8 5.1zm-40.4-29.8h15.4c6.9 0 12 .8 15.4 2.4 3.4 1.6 5.1 4.7 5.1 9.4 0 2.2-.5 4.2-1.6 6-1.4 2.6-3.4 4.3-5.9 5.1-2.6.9-6.2 1.3-10.9 1.3H407c-.1-8.1-.1-16.1-.1-24.2zM341.3 108.8c-5-18.7-10.1-37.4-15.2-56.1l-15.3 56.1c-1.2 4.3-2.1 7.3-2.8 9.2-.7 1.9-1.9 3.5-3.7 5-1.7 1.5-4.1 2.2-7 2.2-2.3 0-4.3-.4-5.8-1.3s-2.7-2.1-3.7-3.7c-.9-1.6-1.7-3.5-2.3-5.7-.6-2.2-1.1-4.2-1.6-6.1l-15.6-63c-.9-3.7-1.4-6.5-1.4-8.4 0-2.4.9-4.5 2.6-6.1 1.7-1.7 3.8-2.5 6.3-2.5 3.4 0 5.8 1.1 7 3.3 1.2 2.2 2.2 5.4 3.1 9.7 4.2 18.9 8.4 37.8 12.6 56.8 4.4-17.8 8.9-35.5 13.3-53.3 1-3.9 1.9-6.9 2.7-8.9.8-2 2.1-3.8 4-5.3 1.8-1.5 4.3-2.2 7.5-2.2s5.7.8 7.5 2.3c1.8 1.5 3 3.2 3.7 5.1.7 1.8 1.6 4.8 2.7 9.1 4.6 17.7 9.2 35.4 13.9 53.1L376 28.8c.4-.6.7-.6.9 0-3 26.6-5.9 53.1-8.9 79.7-1.1 4.3-1.9 7.4-2.6 9.4-.7 2-1.9 3.7-3.6 5.2-1.7 1.5-4.1 2.2-7.1 2.2-2.9 0-5.2-.7-7-2.2-1.7-1.5-3-3.1-3.6-4.9-.6-1.9-1.6-5-2.8-9.4z"></path>
  <path class="st0" d="M387.9 91v21c0 4.1.8 7.2 2.6 8.9 7.4 7.1 16.2 1.5 16.1-9.6v-6.9c-5.8-4.8-12.1-9.3-18.7-13.4zM341.3 108.8l-10.6-39.3c5.7 1 11.3 2.2 16.8 3.8l6.4 24.6 6.5-20.3c3.6 1.4 7.2 2.8 10.7 4.4l-2.9 26.4c-1.1 4.3-1.9 7.4-2.6 9.4-.7 2-1.9 3.7-3.6 5.2-1.7 1.5-4.1 2.2-7.1 2.2-2.9 0-5.2-.7-7-2.2-1.7-1.5-3-3.1-3.6-4.9-.8-1.8-1.8-4.9-3-9.3zm-19.4-40.5-11.1 40.5c-1.2 4.3-2.1 7.3-2.8 9.2-.7 1.9-1.9 3.5-3.7 5-1.7 1.5-4.1 2.2-7 2.2-2.3 0-4.3-.4-5.8-1.3s-2.7-2.1-3.7-3.7c-.9-1.6-1.7-3.5-2.3-5.7-.6-2.2-1.1-4.2-1.6-6.1l-9.5-38.6c5.7-1 11.5-1.7 17.4-2.2l6.8 30.4 7.7-30.8c5.3.2 10.5.5 15.6 1.1z"></path>
  <linearGradient id="SVGID_19_" gradientUnits="userSpaceOnUse" x1="675.702" y1="73.741" x2="753.489" y2="73.741">
    <stop offset="0" style="stop-color:#000"></stop>
    <stop offset="1" style="stop-color:#b1b2b3"></stop>
  </linearGradient>
  <path d="M715.8 120.6c5 0 9.3-.2 12.9-.7 3.7-.5 7-1.3 9.9-2.5 4.5-2 8.1-5.1 10.8-9.3 2.7-4.2 4.1-8.9 4.1-14.1 0-11.3-6.1-18.9-18.4-22.8 9.4-4.4 14-11.2 14-20.6 0-4.2-1-8-3-11.4-2-3.4-4.7-6.1-8.2-8.1-2.6-1.6-5.6-2.6-8.8-3.2-3.3-.5-7.1-.8-11.6-.8h-30.3c-4 0-6.9.9-8.7 2.7-1.8 1.8-2.7 4.8-2.7 8.9v70.4c0 4.2.9 7.1 2.6 8.9 1.7 1.8 4.7 2.7 8.9 2.7h28.5v-.1zm-21.1-79.4h15.4c6.9 0 12 .8 15.4 2.4 3.4 1.6 5.1 4.7 5.1 9.4 0 2.2-.5 4.2-1.6 6-1.4 2.6-3.4 4.3-5.9 5.1-2.6.9-6.2 1.3-10.9 1.3h-17.4V41.2h-.1zm21.5 33.9c3.9 1.7 6.8 3.1 8.8 4.1 2 1 3.7 2.2 5.1 3.4 1.4 1.2 2.5 2.6 3.1 4.1.7 1.5 1 3.5 1 5.8 0 9.2-6.4 13.9-19.2 13.9h-20.4l-.3-40.4 21.9 9.1z" style="fill-rule:evenodd;clip-rule:evenodd;fill:url(#SVGID_19_)"></path>
  <linearGradient id="SVGID_20_" gradientUnits="userSpaceOnUse" x1="592.286" y1="73.741" x2="664.441" y2="73.741">
    <stop offset="0" style="stop-color:#000"></stop>
    <stop offset="1" style="stop-color:#b1b2b3"></stop>
  </linearGradient>
  <path d="M654 41.6c3 0 5.2-.7 6.7-2 1.5-1.4 2.2-3.1 2.2-5.3 0-2.2-.7-3.9-2.2-5.3-1.5-1.3-3.7-2-6.7-2h-50.1c-4.1 0-7 .9-8.9 2.7-1.8 1.8-2.7 4.8-2.7 8.9V109c0 4.2.9 7.1 2.7 8.9 1.8 1.8 4.8 2.7 8.9 2.7h51.5c3 0 5.2-.7 6.7-2.1 1.5-1.4 2.3-3.2 2.3-5.4s-.7-4.1-2.3-5.5c-1.5-1.4-3.8-2.1-6.7-2.1h-44.2V78.9h39.3c3 0 5.1-.7 6.5-2.1 1.4-1.4 2.1-3.1 2.1-5.2s-.7-3.8-2.1-5.1c-1.4-1.3-3.6-2-6.5-2L611.3 78V41.6H654z" style="fill-rule:evenodd;clip-rule:evenodd;fill:url(#SVGID_20_)"></path>
  <linearGradient id="SVGID_21_" gradientUnits="userSpaceOnUse" x1="469.006" y1="73.649" x2="578.962" y2="73.649">
    <stop offset="0" style="stop-color:#000"></stop>
    <stop offset="1" style="stop-color:#b1b2b3"></stop>
  </linearGradient>
  <path d="m543.3 105.8-15.2-56.1-15.3 56.1c-1.2 4.3-2.1 7.3-2.8 9.2-.7 1.9-1.9 3.5-3.7 5-1.7 1.5-4.1 2.2-7 2.2-2.3 0-4.3-.4-5.8-1.3s-2.7-2.1-3.7-3.7c-.9-1.6-1.7-3.5-2.3-5.7-.6-2.2-1.1-4.2-1.6-6.1l-15.6-63c-.9-3.7-1.4-6.5-1.4-8.4 0-2.4.9-4.5 2.6-6.1 1.7-1.7 3.8-2.5 6.3-2.5 3.4 0 5.8 1.1 7 3.3 1.2 2.2 2.2 5.4 3.1 9.7l12.6 56.8L514 41.8c1-3.9 1.9-6.9 2.7-8.9.8-2 2.1-3.8 4-5.3 1.8-1.5 4.3-2.2 7.5-2.2s5.7.8 7.5 2.3c1.8 1.5 3 3.2 3.7 5.1.7 1.8 1.6 4.8 2.7 9.1L556 95l22.2-69.3c.4-.6.7-.6.9 0l-8.9 79.7c-1.1 4.3-1.9 7.4-2.6 9.4-.7 2-1.9 3.7-3.6 5.2-1.7 1.5-4.1 2.2-7.1 2.2-2.9 0-5.2-.7-7-2.2-1.7-1.5-3-3.1-3.6-4.9-.8-1.8-1.8-4.9-3-9.3z" style="fill-rule:evenodd;clip-rule:evenodd;fill:url(#SVGID_21_)"></path>
  <radialGradient id="SVGID_22_" cx="419.4" cy="64.17" r="50.971" gradientUnits="userSpaceOnUse">
    <stop offset="0" style="stop-color:#a1d9f8"></stop>
    <stop offset="1" style="stop-color:#008bd2"></stop>
  </radialGradient>
  <path d="M444.2 71c9.4-4.4 14-11.2 14-20.6 0-4.2-1-8-3-11.4-2-3.4-4.7-6.1-8.2-8.1-2.6-1.6-5.6-2.6-8.8-3.2-3.3-.5-7.1-.8-11.6-.8h-30.3c-4 0-6.9.9-8.7 2.7-1.8 1.8-2.7 4.8-2.7 8.9v70.4c0 4.2.8 7.2 2.6 8.9 7.4 7.1 16.2 1.5 16.1-9.6V83c-.1-5.7-.1-11.4-.2-17.1 3.3 1.5 27.4 10.3 40.8 5.1zm-40.3-29.8h15.4c6.9 0 12 .8 15.4 2.4 3.4 1.6 5.1 4.7 5.1 9.4 0 2.2-.5 4.2-1.6 6-1.4 2.6-3.4 4.3-5.9 5.1-2.6.9-6.2 1.3-10.9 1.3H404c-.1-8.1-.1-16.2-.1-24.2z" style="fill-rule:evenodd;clip-rule:evenodd;fill:url(#SVGID_22_)"></path>
  <radialGradient id="SVGID_23_" cx="315.672" cy="61.903" r="55.32" gradientUnits="userSpaceOnUse">
    <stop offset="0" style="stop-color:#a1d9f8"></stop>
    <stop offset="1" style="stop-color:#008bd2"></stop>
  </radialGradient>
  <path d="M338.3 105.8c-5-18.7-10.1-37.4-15.2-56.1l-15.3 56.1c-1.2 4.3-2.1 7.3-2.8 9.2-.7 1.9-1.9 3.5-3.7 5-1.7 1.5-4.1 2.2-7 2.2-2.3 0-4.3-.4-5.8-1.3s-2.7-2.1-3.7-3.7c-.9-1.6-1.7-3.5-2.3-5.7-.6-2.2-1.1-4.2-1.6-6.1l-15.6-63c-.9-3.7-1.4-6.5-1.4-8.4 0-2.4.9-4.5 2.6-6.1 1.7-1.7 3.8-2.5 6.3-2.5 3.4 0 5.8 1.1 7 3.3 1.2 2.2 2.2 5.4 3.1 9.7 4.2 18.9 8.4 37.8 12.6 56.8 4.4-17.8 8.9-35.5 13.3-53.3 1-3.9 1.9-6.9 2.7-8.9.8-2 2.1-3.8 4-5.3 1.8-1.5 4.3-2.2 7.5-2.2s5.7.8 7.5 2.3c1.8 1.5 3 3.2 3.7 5.1.7 1.8 1.6 4.8 2.7 9.1 4.6 17.7 9.2 35.4 13.9 53.1L373 25.8c.4-.6.7-.6.9 0-3 26.6-5.9 53.1-8.9 79.7-1.1 4.3-1.9 7.4-2.6 9.4-.7 2-1.9 3.7-3.6 5.2-1.7 1.5-4.1 2.2-7.1 2.2-2.9 0-5.2-.7-7-2.2-1.7-1.5-3-3.1-3.6-4.9-.7-1.9-1.6-5-2.8-9.4z" style="fill-rule:evenodd;clip-rule:evenodd;fill:url(#SVGID_23_)"></path>
  <linearGradient id="SVGID_24_" gradientUnits="userSpaceOnUse" x1="394.283" y1="88.359" x2="394.283" y2="121.827">
    <stop offset="0" style="stop-color:#008bd2"></stop>
    <stop offset="1" style="stop-color:#a1d9f8"></stop>
  </linearGradient>
  <path d="M384.9 88v20.9c0 4.1.8 7.2 2.6 8.9 7.4 7.1 16.2 1.5 16.1-9.6v-6.9c-5.9-4.8-12.1-9.3-18.7-13.3z" style="fill-rule:evenodd;clip-rule:evenodd;fill:url(#SVGID_24_)"></path>
  <linearGradient id="SVGID_25_" gradientUnits="userSpaceOnUse" x1="319.725" y1="64.85" x2="319.725" y2="123.558">
    <stop offset="0" style="stop-color:#008bd2"></stop>
    <stop offset="1" style="stop-color:#a1d9f8"></stop>
  </linearGradient>
  <path d="m338.3 105.8-10.6-39.3c5.7 1 11.3 2.2 16.8 3.8l6.4 24.6 6.5-20.3c3.6 1.4 7.2 2.8 10.7 4.4l-2.9 26.4c-1.1 4.3-1.9 7.4-2.6 9.4-.7 2-1.9 3.7-3.6 5.2-1.7 1.5-4.1 2.2-7.1 2.2-2.9 0-5.2-.7-7-2.2-1.7-1.5-3-3.1-3.6-4.9-.9-1.8-1.8-4.9-3-9.3zm-19.4-40.5-11.1 40.5c-1.2 4.3-2.1 7.3-2.8 9.2-.7 1.9-1.9 3.5-3.7 5-1.7 1.5-4.1 2.2-7 2.2-2.3 0-4.3-.4-5.8-1.3s-2.7-2.1-3.7-3.7c-.9-1.6-1.7-3.5-2.3-5.7-.6-2.2-1.1-4.2-1.6-6.1l-9.5-38.6c5.7-1 11.5-1.7 17.4-2.2l6.8 30.4 7.7-30.8c5.3.2 10.4.5 15.6 1.1z" style="fill-rule:evenodd;clip-rule:evenodd;fill:url(#SVGID_25_)"></path>
  <path class="st0" d="M758.3 7.4c2.1 0 4.1.5 6.1 1.6s3.5 2.6 4.6 4.6c1.1 2 1.7 4 1.7 6.2 0 2.1-.5 4.2-1.6 6.1-1.1 2-2.6 3.5-4.6 4.6-2 1.1-4 1.6-6.1 1.6-2.1 0-4.2-.5-6.1-1.6-2-1.1-3.5-2.6-4.6-4.6-1.1-2-1.6-4-1.6-6.1 0-2.1.6-4.2 1.7-6.2s2.7-3.5 4.6-4.6c1.8-1.1 3.8-1.6 5.9-1.6zm0 2.1c-1.7 0-3.4.4-5.1 1.3-1.6.9-2.9 2.2-3.9 3.8-.9 1.7-1.4 3.4-1.4 5.2 0 1.8.5 3.5 1.4 5.1.9 1.6 2.2 2.9 3.8 3.8 1.6.9 3.3 1.4 5.1 1.4 1.8 0 3.5-.5 5.1-1.4 1.6-.9 2.9-2.2 3.8-3.8.9-1.6 1.4-3.3 1.4-5.1 0-1.8-.5-3.5-1.4-5.2-.9-1.7-2.2-2.9-3.9-3.8-1.5-.9-3.2-1.3-4.9-1.3zm-5.5 17.1h2.1V21h1.3c.8 0 1.3.1 1.7.4.6.4 1.3 1.4 2.2 3.1l1.2 2.1h2.6l-1.6-2.6c-.8-1.2-1.4-2.1-2-2.6-.3-.3-.7-.5-1.1-.7 1.1-.1 2.1-.5 2.8-1.2.7-.7 1-1.6 1-2.5 0-.7-.2-1.3-.6-1.9-.4-.6-1-1-1.7-1.3-.7-.2-1.8-.4-3.4-.4h-4.6v13.2h.1zm2.2-7.5h2.6c1.2 0 2.1-.2 2.5-.6.5-.4.7-.9.7-1.5 0-.4-.1-.7-.3-1-.2-.3-.5-.5-.9-.7-.4-.2-1.1-.2-2.2-.2H755v4z"></path>
  <linearGradient id="SVGID_26_" gradientUnits="userSpaceOnUse" x1="753.993" y1="26.595" x2="760.686" y2="10.464">
    <stop offset="0" style="stop-color:#000"></stop>
    <stop offset="1" style="stop-color:#b1b2b3"></stop>
  </linearGradient>
  <path d="M757.4 6.2c2.1 0 4.1.5 6.1 1.6s3.5 2.6 4.6 4.6c1.1 2 1.7 4 1.7 6.2 0 2.1-.5 4.2-1.6 6.1-1.1 2-2.6 3.5-4.6 4.6-2 1.1-4 1.6-6.1 1.6-2.1 0-4.2-.5-6.1-1.6-2-1.1-3.5-2.6-4.6-4.6-1.1-2-1.6-4-1.6-6.1 0-2.1.6-4.2 1.7-6.2s2.7-3.5 4.6-4.6c1.8-1.1 3.8-1.6 5.9-1.6zm0 2c-1.7 0-3.4.4-5.1 1.3-1.6.9-2.9 2.2-3.9 3.8-.9 1.7-1.4 3.4-1.4 5.2 0 1.8.5 3.5 1.4 5.1.9 1.6 2.2 2.9 3.8 3.8 1.6.9 3.3 1.4 5.1 1.4 1.8 0 3.5-.5 5.1-1.4 1.6-.9 2.9-2.2 3.8-3.8.9-1.6 1.4-3.3 1.4-5.1 0-1.8-.5-3.5-1.4-5.2-.9-1.7-2.2-2.9-3.9-3.8-1.5-.8-3.2-1.3-4.9-1.3zm-5.5 17.1h2.1v-5.6h1.3c.8 0 1.3.1 1.7.4.6.4 1.3 1.4 2.2 3.1l1.2 2.1h2.6l-1.6-2.6c-.8-1.2-1.4-2.1-2-2.6-.3-.3-.7-.5-1.1-.7 1.1-.1 2.1-.5 2.8-1.2.7-.7 1-1.6 1-2.5 0-.7-.2-1.3-.6-1.9-.4-.6-1-1-1.7-1.3-.7-.2-1.8-.4-3.4-.4h-4.6v13.2h.1zm2.2-7.4h2.6c1.2 0 2.1-.2 2.5-.6.5-.4.7-.9.7-1.5 0-.4-.1-.7-.3-1-.2-.3-.5-.5-.9-.7-.4-.2-1.1-.2-2.2-.2h-2.4v4z" style="fill-rule:evenodd;clip-rule:evenodd;fill:url(#SVGID_26_)"></path>
  <path class="st27" d="M290.3 186.3c-.2-.2-.4-.6-.4-1v-20.4c0-.4.1-.7.4-1 .2-.2.6-.4 1-.4s.7.1 1 .4c.2.2.4.6.4 1v20.4c0 .4-.1.7-.4 1-.2.2-.6.4-1 .4s-.7-.2-1-.4zM363.2 163.9c.2.2.3.6.3 1v20.4c0 .4-.1.7-.3 1-.2.2-.5.4-1 .4-.4 0-.8-.2-1.1-.5l-13.4-17.9v17.1c0 .4-.1.7-.3 1-.2.2-.5.4-.9.4s-.7-.1-.9-.4c-.2-.2-.3-.6-.3-1V165c0-.4.1-.7.3-1 .2-.2.5-.4 1-.4.4 0 .8.2 1.1.5L361 182v-17.1c0-.4.1-.7.3-1 .2-.2.5-.4.9-.4.4.1.7.2 1 .4zM410.6 186.3c-.2-.2-.4-.6-.4-1V165c0-.4.1-.7.4-.9.2-.2.6-.4 1-.4h11.8c.4 0 .7.1.9.3.2.2.3.5.3.8 0 .3-.1.6-.3.8-.2.2-.5.3-.9.3h-10.5v7.9h9.9c.4 0 .7.1.9.3.2.2.3.5.3.8 0 .3-.1.6-.3.8-.2.2-.5.3-.9.3h-9.9v9.3c0 .4-.1.7-.3 1-.2.2-.5.4-1 .4s-.8-.2-1-.4zM474.9 185.3c-1.6-.9-2.8-2.3-3.6-4-.8-1.7-1.3-3.8-1.3-6.2 0-2.4.4-4.5 1.2-6.2.8-1.8 2-3.1 3.6-4 1.6-.9 3.4-1.4 5.5-1.4s4 .5 5.5 1.4c1.6.9 2.8 2.3 3.6 4 .8 1.8 1.2 3.8 1.2 6.2 0 2.4-.4 4.4-1.3 6.2-.8 1.8-2 3.1-3.6 4.1-1.6.9-3.4 1.4-5.5 1.4-1.9 0-3.7-.5-5.3-1.5zm11.2-3.2c1.3-1.6 2-3.9 2-7 0-3-.7-5.3-2-6.9-1.3-1.6-3.2-2.4-5.7-2.4-2.4 0-4.3.8-5.6 2.4-1.3 1.6-2 3.9-2 6.9 0 3 .7 5.3 2 6.9 1.3 1.6 3.2 2.5 5.6 2.5s4.3-.8 5.7-2.4zM542.5 186.3c-.2-.2-.4-.6-.4-1V166h-6.9c-.4 0-.7-.1-.9-.3-.2-.2-.3-.5-.3-.8 0-.4.1-.6.3-.8.2-.2.5-.3.9-.3h16.6c.4 0 .7.1.9.3.2.2.3.5.3.8 0 .4-.1.6-.3.8-.2.2-.5.3-.9.3h-6.9v19.3c0 .4-.1.7-.4 1-.2.2-.6.4-1 .4s-.8-.2-1-.4zM599.5 186.2c-.2-.2-.4-.5-.4-.9V165c0-.4.1-.7.4-.9.2-.2.6-.4 1-.4h12.1c.4 0 .7.1.9.3.2.2.3.5.3.8s-.1.6-.3.8c-.2.2-.5.3-.9.3h-10.8v7.9H612c.4 0 .7.1.9.3.2.2.3.5.3.8 0 .3-.1.6-.3.8-.2.2-.5.3-.9.3h-10.2v8.3h10.8c.4 0 .7.1.9.3.2.2.3.5.3.8 0 .3-.1.6-.3.8-.2.2-.5.3-.9.3h-12.1c-.4 0-.7-.1-1-.3zM665.2 185.4c-1.6-.9-2.8-2.3-3.6-4-.9-1.8-1.3-3.8-1.3-6.2 0-2.4.4-4.4 1.3-6.2.9-1.8 2.1-3.1 3.6-4 1.6-.9 3.4-1.4 5.6-1.4 1.4 0 2.8.2 4.1.7 1.3.5 2.4 1.1 3.3 2 .3.3.5.7.5 1.1 0 .3-.1.6-.3.8-.2.2-.4.3-.6.3-.3 0-.6-.1-.9-.4-1.1-.9-2.1-1.5-3-1.8s-1.9-.5-3.1-.5c-2.5 0-4.4.8-5.8 2.4-1.3 1.6-2 3.9-2 6.9 0 3 .7 5.3 2 7 1.3 1.6 3.3 2.4 5.8 2.4 1.1 0 2.2-.2 3.1-.5s1.9-.9 3-1.8c.4-.2.7-.4.9-.4.2 0 .4.1.6.3.2.2.3.5.3.8 0 .4-.2.8-.5 1.1-.9.9-2.1 1.5-3.3 2-1.3.5-2.6.7-4.1.7-2.2.1-4-.4-5.6-1.3zM741.6 163.9c.2.2.3.6.3 1v20.4c0 .4-.1.7-.3 1-.2.2-.5.4-1 .4-.4 0-.7-.1-1-.4-.2-.2-.4-.6-.4-1v-9.2h-13.6v9.2c0 .4-.1.7-.4 1-.2.2-.6.4-1 .4s-.7-.1-1-.4c-.2-.2-.3-.6-.3-1v-20.4c0-.4.1-.7.3-1 .2-.2.5-.4 1-.4.4 0 .7.1 1 .4.2.2.4.6.4 1v8.9h13.6v-8.9c0-.4.1-.7.4-1 .2-.2.6-.4 1-.4.5.1.8.2 1 .4z"></path>
</svg>
