<svg width="100" height="100" viewBox="0 0 100 100" xmlns="http://www.w3.org/2000/svg">
    <g fill="none" fill-rule="evenodd">
        <path fill="#F0F0F0" d="M0 0h100v100H0z"/>
        <path d="M31.747 41.475c2.002-1.622 3.546-3.47 4.63-5.545 1.086-2.074 2.208-5.31 3.367-9.706 2.982 3.362 5.564 5.043 7.746 5.043h16.847c1.445 0 4.244 1.554 8.397 4.663-3.445 10.77-5.96 17.118-7.544 19.044-1.584 1.925-3.932 4.102-7.043 6.529.56 2.563 1.385 4.398 2.475 5.504 1.09 1.105 2.613 3.228 4.568 6.369-3.095 6.113-7.876 9.498-14.34 10.154-6.466.657-11.408-2.992-14.826-10.945 1.603-1.045 3.124-2.617 4.562-4.717a15.968 15.968 0 0 0 2.682-6.896c-4.84-3.446-7.713-6.5-8.618-9.162-.905-2.662-1.873-6.107-2.903-10.335z" fill="#EAEAEA"/>
        <path d="M13.01 91.404v-8.338c0-5.523 4.477-10 10-10h12.46c3.732 7.242 8.635 10.863 14.706 10.863 6.072 0 11.133-3.62 15.183-10.863h10.256c5.523 0 10 4.477 10 10V100H13.01v-8.596z" fill="#E3E3E3"/>
        <path d="M28.37 43c-1.608-5.882-1.8-11.658-.577-17.328 1.837-8.504 6.86-12.021 8.815-12.995 1.304-.65 3.625-.932 6.963-.847 10.408-1.877 17.93-.57 22.567 3.92 4.636 4.491 7.257 12.156 7.862 22.996-4.499-4.538-8.121-6.638-10.867-6.301-4.118.506-12.096 0-15.533 0-2.29 0-5.305-1.815-9.043-5.445-.807 4.808-1.828 8.187-3.062 10.138-1.235 1.95-3.61 3.905-7.124 5.862z" fill="#BEBEBE"/>
        <path d="m43.403 9.748-.454.08.15.003c-3.563-.09-6.084.216-7.66 1-4.125 2.054-8.033 6.717-9.61 14.023-1.278 5.914-1.077 11.94.596 18.057a1.467 1.467 0 0 0 2.129.903c3.714-2.068 6.27-4.17 7.661-6.368l.157-.255c.976-1.646 1.798-4.026 2.49-7.162l.137-.65.265.227c3.01 2.535 5.591 3.827 7.833 3.827l1.189.013 5.946.169 1.077.022c3.294.057 5.743.003 7.518-.215 2.168-.266 5.452 1.637 9.662 5.884.955.963 2.584.228 2.508-1.132-.624-11.19-3.366-19.207-8.322-24.006-4.947-4.79-12.738-6.217-23.272-4.42zm21.235 6.56.274.271c3.52 3.582 5.79 9.316 6.753 17.227l.089.776-.107-.09c-3.519-2.97-6.547-4.337-9.176-4.014-1.508.185-3.672.242-6.56.202l-2.37-.05-5.853-.161-.591-.002c-1.809 0-4.545-1.647-8.036-5.036-.85-.827-2.272-.354-2.47.82l-.182 1.045c-.745 4.076-1.652 6.942-2.673 8.554l-.154.234c-.857 1.244-2.301 2.54-4.334 3.864l-.454.288-.032-.147c-1.075-4.955-1.094-9.818-.06-14.603 1.378-6.38 4.683-10.324 8.04-11.995 1.035-.516 3.162-.774 6.284-.695.099.003.198-.005.296-.023 10.002-1.804 17.072-.576 21.316 3.534z" fill="#979797" fill-rule="nonzero"/>
        <path d="M35 72v2.887h-8.296c-7.037 0-12.741 5.557-12.741 12.412V100H11V87.299C11 78.849 18.03 72 26.704 72H35zM64 72v2.887h8.296c7.037 0 12.741 5.557 12.741 12.412V100H88V87.299C88 78.849 80.97 72 72.296 72H64z" fill="#919191" fill-rule="nonzero"/>
        <path d="M41.27 61.154a1.455 1.455 0 0 1 2.847.6c-.649 3.077-1.617 5.508-2.931 7.293-.897 1.217-1.982 2.548-3.255 3.993l-.675.755.2.32c3.355 5.235 7.59 7.849 12.802 7.973l.393.005c5.356 0 9.308-2.57 12.005-7.884l.19-.388-.307-.389a118.657 118.657 0 0 1-2.798-3.72l-.49-.682c-1.564-2.185-2.573-4.134-3.016-5.876a1.453 1.453 0 1 1 2.819-.717c.342 1.344 1.193 2.987 2.563 4.903a111.443 111.443 0 0 0 4.058 5.359c.344.423.421 1.003.201 1.502C62.731 81.328 57.595 85 50.651 85c-6.895 0-12.423-3.613-16.459-10.664a1.453 1.453 0 0 1 .192-1.706c1.83-1.986 3.316-3.756 4.459-5.307 1.04-1.41 1.858-3.467 2.428-6.17z" fill="#919191" fill-rule="nonzero"/>
        <path d="M71.095 36.18a1.467 1.467 0 1 1 2.876.581C70.229 55.404 62.73 65 51.39 65c-11.292 0-18.44-8.145-21.366-23.905a1.467 1.467 0 1 1 2.884-.538c2.694 14.511 8.83 21.502 18.483 21.502 9.607 0 16.203-8.443 19.703-25.878z" fill="#919191" fill-rule="nonzero"/>
    </g>
</svg>
