<?xml version="1.0" encoding="utf-8"?>
<!-- Generator: Adobe Illustrator 21.1.0, SVG Export Plug-In . SVG Version: 6.00 Build 0)  -->
<svg version="1.1" id="Layer_1" xmlns="http://www.w3.org/2000/svg" xmlns:xlink="http://www.w3.org/1999/xlink" x="0px" y="0px"
	 viewBox="0 0 156.3 36.7" style="enable-background:new 0 0 156.3 36.7;" xml:space="preserve">
<style type="text/css">
	.st0{fill:#FFFFFF;}
</style>
<g>
	<path class="st0" d="M50.2,27.1h-2.7v-6.5l-5.9-11h3.1c2.5,5.1,3.9,8.1,4.2,8.8c0.2-0.5,1.2-2.6,3-6.2l1.3-2.6h3.1l-6,11V27.1z"/>
	<path class="st0" d="M70.4,20.5c0,2-0.6,3.6-1.7,4.9c-1.1,1.3-2.7,1.9-4.6,1.9c-1.9,0-3.5-0.6-4.6-1.9c-1.1-1.3-1.7-2.9-1.7-4.8
		s0.6-3.6,1.7-4.9c1.1-1.3,2.7-2,4.6-2c1.9,0,3.5,0.6,4.5,1.9C69.8,16.9,70.4,18.5,70.4,20.5z M67.7,20.5c0-1.4-0.3-2.5-0.9-3.3
		c-0.6-0.9-1.5-1.3-2.7-1.3c-1.2,0-2.1,0.4-2.7,1.3c-0.6,0.9-0.9,2-0.9,3.3c0,1.3,0.3,2.4,1,3.3c0.6,0.9,1.5,1.3,2.7,1.3
		s2-0.4,2.6-1.3C67.4,23,67.7,21.9,67.7,20.5z"/>
	<path class="st0" d="M81.4,13.9H84v13.2h-2.5v-2.3c-0.7,1.6-2.1,2.4-4.1,2.4c-1.3,0-2.3-0.4-3.1-1.2c-0.8-0.8-1.1-1.8-1.1-3.2v-9
		h2.6v8.4c0,0.9,0.2,1.6,0.7,2.1c0.4,0.5,1.1,0.7,2,0.7c0.9,0,1.6-0.3,2.2-1c0.6-0.7,0.9-1.7,0.9-2.9V13.9z"/>
	<path class="st0" d="M90.1,13.9v2.3c0.6-1.6,1.8-2.4,3.5-2.4c0.2,0,0.5,0,0.8,0.1v2.5c-0.4-0.2-0.8-0.2-1.2-0.2
		c-0.9,0-1.6,0.4-2.2,1.2c-0.6,0.8-0.9,1.7-0.9,2.8v7h-2.5V13.9H90.1z"/>
	<path class="st0" d="M105.6,24.7h7.2v2.4h-9.9V9.6h2.7V24.7z"/>
	<path class="st0" d="M127.1,20.5c0,2-0.6,3.6-1.7,4.9c-1.1,1.3-2.7,1.9-4.6,1.9c-1.9,0-3.5-0.6-4.6-1.9c-1.1-1.3-1.7-2.9-1.7-4.8
		s0.6-3.6,1.7-4.9c1.1-1.3,2.7-2,4.6-2c1.9,0,3.5,0.6,4.5,1.9C126.5,16.9,127.1,18.5,127.1,20.5z M124.4,20.5c0-1.4-0.3-2.5-0.9-3.3
		c-0.6-0.9-1.5-1.3-2.7-1.3c-1.2,0-2.1,0.4-2.7,1.3c-0.6,0.9-0.9,2-0.9,3.3c0,1.3,0.3,2.4,1,3.3s1.5,1.3,2.7,1.3
		c1.1,0,2-0.4,2.6-1.3C124.1,23,124.4,21.9,124.4,20.5z"/>
	<path class="st0" d="M138.5,13.9h2.5V26c0,2-0.6,3.6-1.7,4.6s-2.6,1.5-4.4,1.5c-1.8,0-3.2-0.3-4.4-0.9v-2.6c1.1,0.7,2.5,1.1,4,1.1
		c2.6,0,3.9-1.3,3.9-3.8v-1.4c-0.8,1.4-2.1,2.1-3.7,2.1c-1.6,0-2.9-0.5-4-1.7s-1.6-2.6-1.6-4.6c0-2,0.5-3.6,1.5-4.8
		c1-1.3,2.3-1.9,4-1.9s2.9,0.7,3.7,2.2V13.9z M131.9,20.4c0,1.3,0.3,2.4,0.9,3.1c0.6,0.7,1.4,1.1,2.3,1.1s1.7-0.4,2.3-1.1
		c0.7-0.7,1-1.8,1-3.2c0-1.4-0.3-2.5-0.9-3.2s-1.4-1.1-2.4-1.1c-1,0-1.7,0.4-2.3,1.2C132.2,18,131.9,19,131.9,20.4z"/>
	<path class="st0" d="M156.3,20.5c0,2-0.6,3.6-1.7,4.9c-1.1,1.3-2.7,1.9-4.6,1.9c-1.9,0-3.5-0.6-4.6-1.9c-1.1-1.3-1.7-2.9-1.7-4.8
		s0.6-3.6,1.7-4.9c1.1-1.3,2.7-2,4.6-2c1.9,0,3.5,0.6,4.5,1.9C155.7,16.9,156.3,18.5,156.3,20.5z M153.6,20.5c0-1.4-0.3-2.5-0.9-3.3
		c-0.6-0.9-1.5-1.3-2.7-1.3c-1.2,0-2.1,0.4-2.7,1.3c-0.6,0.9-0.9,2-0.9,3.3c0,1.3,0.3,2.4,1,3.3s1.5,1.3,2.7,1.3
		c1.1,0,2-0.4,2.6-1.3C153.3,23,153.6,21.9,153.6,20.5z"/>
</g>
<path class="st0" d="M15.9,0L0,9.2v18.4l15.9,9.2l15.9-9.2V9.2L15.9,0z M15.9,8.9l8.2,4.7v9.4l-8.2,4.7l-8.2-4.7v-9.4L15.9,8.9z
	 M14.6,6.8l-9.4,5.4v12.3l9.4,5.4v3.2l-12.1-7V10.6l12.1-7V6.8z M17.1,30l9.5-5.5V12.2l-9.5-5.5V3.6l12.2,7v15.5l-12.2,7V30z"/>
</svg>
