<?xml version="1.0" encoding="utf-8"?>
<!-- Generator: Adobe Illustrator 24.1.1, SVG Export Plug-In . SVG Version: 6.00 Build 0)  -->
<svg version="1.1" id="Livello_2" xmlns="http://www.w3.org/2000/svg" xmlns:xlink="http://www.w3.org/1999/xlink" x="0px" y="0px"
	 viewBox="0 0 28 28" style="enable-background:new 0 0 28 28;" xml:space="preserve">
<style type="text/css">
	.st0{fill:#3A83C5;}
</style>
<polygon id="XMLID_117_" class="st0" points="19.8,2 8.5,2 6,3.9 6.2,3.9 22.1,3.9 "/>
<g>
	<path class="st0" d="M6,4.6V18h16V4.6H6z M14,6.1c1.4,0,2.5,1.1,2.5,2.5s-1.1,2.5-2.5,2.5s-2.5-1.1-2.5-2.5S12.6,6.1,14,6.1z
		 M17.5,16.2h-7c-0.5,0-1-0.5-1-1c0.2-1.7,1.2-3,2.7-3.7c0.3,0.7,1,1.2,1.8,1.2s1.5-0.5,1.8-1.2c1.4,0.7,2.5,2,2.7,3.7
		C18.5,15.8,18.1,16.2,17.5,16.2z"/>
</g>
</svg>
