<svg enable-background="new 0 0 312 240" viewBox="0 0 312 240" xmlns="http://www.w3.org/2000/svg" xmlns:xlink="http://www.w3.org/1999/xlink"><mask id="a" height="16.2" maskUnits="userSpaceOnUse" width="11.4" x="191.1" y="109.2"><path clip-rule="evenodd" d="m201.6 117.5-9.9-7.2 1.3 12.2 3.1-1.8 2.1 3.6c.4.7 1.2.9 1.9.5s.9-1.2.5-1.9l-2.1-3.6z" fill="#fff" fill-rule="evenodd"/></mask><path d="m0 .1h312v240h-312z" fill="#00a0d2"/><path d="m52.8 43.1h206c1.1 0 2 .9 2 2v150c0 1.1-.9 2-2 2h-206c-1.1 0-2-.9-2-2v-150c0-1.1.9-2 2-2z" fill="#fff"/><path d="m95.1 93.6h120.4c1.3 0 2.3 1.6 2.3 3.5v18c0 1.9-1 3.5-2.3 3.5h-120.4c-1.3 0-2.3-1.6-2.3-3.5v-18c0-1.9 1-3.5 2.3-3.5z" fill="none" stroke="#007ca8"/><circle cx="103.7" cy="106.3" r="3"/><circle cx="111.6" cy="106.3" r="3"/><circle cx="119.5" cy="106.3" r="3"/><circle cx="127.4" cy="106.3" r="3"/><circle cx="135.3" cy="106.3" r="3"/><circle cx="143.2" cy="106.3" r="3"/><circle cx="151.1" cy="106.3" r="3"/><circle cx="159" cy="106.3" r="3"/><circle cx="166.9" cy="106.3" r="3"/><circle cx="174.8" cy="106.3" r="3"/><circle cx="182.7" cy="106.3" r="3"/><g fill="#ddd"><path d="m92.8 133.1h126v8h-126z"/><path d="m92.8 146.1h126v8h-126z"/><path d="m92.8 159.1h63v8h-63z"/><path d="m92.8 63.5h104v16h-104z"/></g><path clip-rule="evenodd" d="m201.6 117.5-9.9-7.2 1.3 12.2 3.1-1.8 2.1 3.6c.4.7 1.2.9 1.9.5s.9-1.2.5-1.9l-2.1-3.6z" fill="#fff" fill-rule="evenodd"/><path d="m191.7 110.3.3-.4-.9-.7.1 1.1zm9.9 7.2.2.4.7-.4-.6-.5zm-8.7 5-.5.1.1.8.7-.4zm3.2-1.8.4-.2-.2-.4-.4.2zm2.4-1.4-.2-.4-.5.2.2.4zm-7.1-8.6 9.9 7.2.6-.8-9.9-7.2zm2 11.7-1.3-12.2-1 .1 1.3 12.2zm2.4-2.2-3.1 1.8.5.9 3.1-1.8zm2.8 3.8-2.1-3.6-.9.5 2.1 3.6zm1.2.3c-.4.2-1 .1-1.2-.3l-.9.5c.5.9 1.7 1.2 2.6.7zm.3-1.2c.2.4.1 1-.3 1.2l.5.9c.9-.5 1.2-1.7.7-2.6zm-2.1-3.6 2.1 3.6.9-.5-2.1-3.6zm3.4-2.5-3.1 1.8.5.9 3.1-1.8z" mask="url(#a)"/></svg>