<!--
  The icons used by OxyProps
  Stores icons as sprites.

  @category icons
  @package  OxyProps
  @author   Cédric Bontems <cedric@thewebforge.dev>
  @license  https://www.gnu.org/licenses/gpl-2.0.html  GPL v2 or later
  @link     https://oxyprops.com                       OxyProps Website
  @since    1.4.0
-->
<svg xmlns="http://www.w3.org/2000/svg" xmlns:xlink="http://www.w3.org/1999/xlink">
    <symbol viewBox="0 0 500 400" id="oxyprops-logo-icon">
        <path fill="currentColor"
            d="M120 200c0-13.8-11.201-25-25-25H25c-13.798 0-25 11.2-25 25 0 13.797 11.202 24.999 25 24.999h70c13.799 0 25-11.202 25-25Zm150 0c0-13.8-11.201-25-25-25h-70c-13.798 0-25 11.2-25 25 0 13.797 11.202 24.999 25 24.999h70c13.799 0 25-11.202 25-25ZM400.001 99.998c55.192 0 100.001 44.81 100.001 100.001 0 55.19-44.809 100-100 100s-100-44.81-100-100c0-55.192 44.809-100 100-100Zm0 50c-27.595 0-50 22.405-50 50.001 0 27.596 22.405 50 50 50 27.596 0 50-22.404 50-50s-22.404-50-50-50Zm-75.003-79.906C302.93 57.316 277.313 50 250 50c-55.474 0-103.955 30.179-129.906 75H64.56C94.254 51.732 166.133 0 250 0c51.173 0 97.883 19.261 133.27 50.922a148.978 148.978 0 0 0-58.272 19.17Zm58.277 278.982C347.888 380.738 301.176 400 250 400c-83.867 0-155.746-51.732-185.44-125h55.534c25.951 44.821 74.432 75 129.906 75 27.314 0 52.933-7.317 75.002-20.095a149.003 149.003 0 0 0 58.273 19.169Z" />
    </symbol>
    <symbol viewBox="0 0 24 24" id="oxyprops-account-icon">
        <path fill="currentColor"
            d="M5.85 17.1q1.275-.975 2.85-1.538Q10.275 15 12 15q1.725 0 3.3.562q1.575.563 2.85 1.538q.875-1.025 1.363-2.325Q20 13.475 20 12q0-3.325-2.337-5.663Q15.325 4 12 4T6.338 6.337Q4 8.675 4 12q0 1.475.488 2.775q.487 1.3 1.362 2.325ZM12 13q-1.475 0-2.488-1.012Q8.5 10.975 8.5 9.5t1.012-2.488Q10.525 6 12 6t2.488 1.012Q15.5 8.025 15.5 9.5t-1.012 2.488Q13.475 13 12 13Zm0 9q-2.075 0-3.9-.788q-1.825-.787-3.175-2.137q-1.35-1.35-2.137-3.175Q2 14.075 2 12t.788-3.9q.787-1.825 2.137-3.175q1.35-1.35 3.175-2.138Q9.925 2 12 2t3.9.787q1.825.788 3.175 2.138q1.35 1.35 2.137 3.175Q22 9.925 22 12t-.788 3.9q-.787 1.825-2.137 3.175q-1.35 1.35-3.175 2.137Q14.075 22 12 22Z" />
    </symbol>
    <symbol viewBox="0 0 24 24" id="oxyprops-settings-icon">
        <path fill="currentColor"
            d="M3 19v-2h6v2ZM3 7V5h10v2Zm8 14v-6h2v2h8v2h-8v2Zm-4-6v-2H3v-2h4V9h2v6Zm4-2v-2h10v2Zm4-4V3h2v2h4v2h-4v2Z" />
    </symbol>
    <symbol viewBox="0 0 24 24" id="oxyprops-home-icon">
        <path fill="currentColor" d="M4 21V9l8-6l8 6v12h-6v-7h-4v7Zm2-2h2v-7h8v7h2v-9l-6-4.5L6 10Zm6-6.75Z" />
    </symbol>
    <symbol viewBox="0 0 24 24" id="oxyprops-tune-icon">
        <path fill="currentColor"
            d="M4 19q-.425 0-.712-.288Q3 18.425 3 18t.288-.712Q3.575 17 4 17h4q.425 0 .713.288Q9 17.575 9 18t-.287.712Q8.425 19 8 19ZM4 7q-.425 0-.712-.287Q3 6.425 3 6t.288-.713Q3.575 5 4 5h8q.425 0 .713.287Q13 5.575 13 6t-.287.713Q12.425 7 12 7Zm8 14q-.425 0-.712-.288Q11 20.425 11 20v-4q0-.425.288-.713Q11.575 15 12 15t.713.287Q13 15.575 13 16v1h7q.425 0 .712.288q.288.287.288.712t-.288.712Q20.425 19 20 19h-7v1q0 .425-.287.712Q12.425 21 12 21Zm-4-6q-.425 0-.713-.288Q7 14.425 7 14v-1H4q-.425 0-.712-.288Q3 12.425 3 12t.288-.713Q3.575 11 4 11h3v-1q0-.425.287-.713Q7.575 9 8 9t.713.287Q9 9.575 9 10v4q0 .425-.287.712Q8.425 15 8 15Zm4-2q-.425 0-.712-.288Q11 12.425 11 12t.288-.713Q11.575 11 12 11h8q.425 0 .712.287q.288.288.288.713t-.288.712Q20.425 13 20 13Zm4-4q-.425 0-.712-.288Q15 8.425 15 8V4q0-.425.288-.713Q15.575 3 16 3t.712.287Q17 3.575 17 4v1h3q.425 0 .712.287Q21 5.575 21 6t-.288.713Q20.425 7 20 7h-3v1q0 .425-.288.712Q16.425 9 16 9Z" />
    </symbol>
    <symbol viewBox="0 0 24 24" id="oxyprops-colors-icon">
        <path fill="currentColor"
            d="M12 22q-2.05 0-3.875-.788q-1.825-.787-3.187-2.15q-1.363-1.362-2.15-3.187Q2 14.05 2 12q0-2.075.812-3.9q.813-1.825 2.201-3.175Q6.4 3.575 8.25 2.787Q10.1 2 12.2 2q2 0 3.775.688q1.775.687 3.112 1.9q1.338 1.212 2.125 2.875Q22 9.125 22 11.05q0 2.875-1.75 4.412Q18.5 17 16 17h-1.85q-.225 0-.312.125q-.088.125-.088.275q0 .3.375.862q.375.563.375 1.288q0 1.25-.688 1.85q-.687.6-1.812.6Zm0-10Zm-5.5 1q.65 0 1.075-.425Q8 12.15 8 11.5q0-.65-.425-1.075Q7.15 10 6.5 10q-.65 0-1.075.425Q5 10.85 5 11.5q0 .65.425 1.075Q5.85 13 6.5 13Zm3-4q.65 0 1.075-.425Q11 8.15 11 7.5q0-.65-.425-1.075Q10.15 6 9.5 6q-.65 0-1.075.425Q8 6.85 8 7.5q0 .65.425 1.075Q8.85 9 9.5 9Zm5 0q.65 0 1.075-.425Q16 8.15 16 7.5q0-.65-.425-1.075Q15.15 6 14.5 6q-.65 0-1.075.425Q13 6.85 13 7.5q0 .65.425 1.075Q13.85 9 14.5 9Zm3 4q.65 0 1.075-.425Q19 12.15 19 11.5q0-.65-.425-1.075Q18.15 10 17.5 10q-.65 0-1.075.425Q16 10.85 16 11.5q0 .65.425 1.075Q16.85 13 17.5 13ZM12 20q.225 0 .363-.125q.137-.125.137-.325q0-.35-.375-.825T11.75 17.3q0-1.05.725-1.675T14.25 15H16q1.65 0 2.825-.963Q20 13.075 20 11.05q0-3.025-2.312-5.038Q15.375 4 12.2 4Q8.8 4 6.4 6.325T4 12q0 3.325 2.338 5.663Q8.675 20 12 20Z" />
    </symbol>
    <symbol viewBox="0 0 24 24" id="oxyprops-preview-icon">
        <path fill="currentColor"
            d="M12 15.5q1.4 0 2.55-.663q1.15-.662 1.8-1.837q-.65-1.175-1.8-1.838Q13.4 10.5 12 10.5t-2.55.662Q8.3 11.825 7.65 13q.65 1.175 1.8 1.837q1.15.663 2.55.663Zm0 1.5q-2.05 0-3.662-1.113Q6.725 14.775 6 13q.725-1.775 2.338-2.887Q9.95 9 12 9t3.663 1.113Q17.275 11.225 18 13q-.725 1.775-2.337 2.887Q14.05 17 12 17Zm0-2.5q-.625 0-1.062-.438Q10.5 13.625 10.5 13t.438-1.062Q11.375 11.5 12 11.5t1.062.438q.438.437.438 1.062t-.438 1.062q-.437.438-1.062.438ZM3 21V3h18v18Zm2-2h14V7H5Z" />
    </symbol>
    <symbol viewBox="0 0 24 24" id="oxyprops-license-icon">
        <path fill="currentColor" d="M4 13v2h16v-2Zm4 9v-5H2V2h20v15h-6v5l-4-2ZM4 10h16V4H4Zm0 5V4v11Z" />
    </symbol>
    <symbol viewBox="0 0 24 24" id="oxyprops-typography-icon">
        <path fill="currentColor" d="M14 20V7H9V4h13v3h-5v13Zm-9 0v-8H2V9h9v3H8v8Z" />
    </symbol>
    <symbol viewBox="0 0 24 24" id="oxyprops-grids-icon">
        <path fill="currentColor"
            d="M5 22v-3H2v-2h3v-4H2v-2h3V7H2V5h3V2h2v3h4V2h2v3h4V2h2v3h3v2h-3v4h3v2h-3v4h3v2h-3v3h-2v-3h-4v3h-2v-3H7v3Zm2-5h4v-4H7Zm6 0h4v-4h-4Zm-6-6h4V7H7Zm6 0h4V7h-4Z" />
    </symbol>
    <symbol viewBox="0 0 24 24" id="oxyprops-layouts-icon">
        <path fill="currentColor"
            d="M13 9V3h8v6ZM3 13V3h8v10Zm10 8V11h8v10ZM3 21v-6h8v6Zm2-10h4V5H5Zm10 8h4v-6h-4Zm0-12h4V5h-4ZM5 19h4v-2H5Zm4-8Zm6-4Zm0 6Zm-6 4Z" />
    </symbol>
    <symbol viewBox="0 0 24 24" id="oxyprops-gradients-icon">
        <path fill="currentColor"
            d="M11 13v-2h2v2Zm-2 2v-2h2v2Zm4 0v-2h2v2Zm2-2v-2h2v2Zm-8 0v-2h2v2Zm-4 8V3h18v18Zm4-2h2v-2H7Zm4 0h2v-2h-2Zm4 0h2v-2h-2ZM5 17h2v-2h2v2h2v-2h2v2h2v-2h2v2h2v-2h-2v-2h2V5H5v8h2v2H5Zm0 2V5Z" />
    </symbol>
    <symbol viewBox="0 0 24 24" id="oxyprops-shadows-icon">
        <path fill="currentColor"
            d="M12 21q-1.875 0-3.512-.712q-1.638-.713-2.85-1.926q-1.213-1.212-1.926-2.85Q3 13.875 3 12t.712-3.513q.713-1.637 1.926-2.85q1.212-1.212 2.85-1.925Q10.125 3 12 3t3.513.712q1.637.713 2.85 1.925q1.212 1.213 1.925 2.85Q21 10.125 21 12t-.712 3.512q-.713 1.638-1.925 2.85q-1.213 1.213-2.85 1.926Q13.875 21 12 21Zm-2.875-2.625q-1.05-1.275-1.587-3Q7 13.65 7 11.7q0-1.65.4-3.125T8.55 5.9q-1.65.95-2.6 2.575Q5 10.1 5 12q0 2.075 1.113 3.8q1.112 1.725 3.012 2.575Zm4.575.425q1.875-.475 3.25-1.85t1.85-3.25Zm-1.675-.45l6.95-6.95l-.1-.712q-.05-.363-.175-.713l-7.6 7.6q.2.225.438.413q.237.187.487.362Zm-1.85-1.975L18.05 8.5q-.15-.25-.3-.488q-.15-.237-.35-.462L9.625 15.3q.125.275.262.538q.138.262.288.537Zm-1-2.7l7.15-7.175q-.25-.2-.487-.363q-.238-.162-.513-.312L9 12.15q.025.4.062.775q.038.375.113.75Zm0-3.8l4.625-4.65q-.375-.1-.75-.15q-.375-.05-.75-.075q-1.225.725-2.025 1.975q-.8 1.25-1.1 2.9Z" />
    </symbol>
    <symbol viewBox="0 0 24 24" id="oxyprops-aspect-ratios-icon">
        <path fill="currentColor" d="M5 12h2V9h3V7H5Zm9 5h5v-5h-2v3h-3Zm8 3H2V4h20ZM4 18V6Zm0 0h16V6H4Z" />
    </symbol>
    <symbol viewBox="0 0 24 24" id="oxyprops-easing-icon">
        <path fill="currentColor"
            d="M4.25 18.3q-.95-1.1-1.525-2.45T2 13h2.05q.15 1.1.55 2.087q.4.988 1.05 1.813ZM2 11q.2-1.5.75-2.85t1.5-2.45l1.4 1.4Q5 7.925 4.6 8.912Q4.2 9.9 4.05 11Zm8.95 10.95q-1.5-.15-2.837-.725q-1.338-.575-2.463-1.475l1.4-1.45q.875.65 1.838 1.075q.962.425 2.062.575ZM7.1 5.7L5.65 4.25q1.125-.9 2.463-1.475Q9.45 2.2 11 2.05v2q-1.125.15-2.1.575q-.975.425-1.8 1.075Zm2.4 10.8v-9l7 4.5Zm3.5 5.45v-2q3.025-.425 5.013-2.675Q20 15.025 20 12q0-3.025-1.987-5.275Q16.025 4.475 13 4.05v-2q3.85.425 6.425 3.25Q22 8.125 22 12t-2.575 6.7Q16.85 21.525 13 21.95Z" />
    </symbol>
    <symbol viewBox="0 0 24 24" id="oxyprops-animations-icon">
        <path fill="currentColor"
            d="M9 22q-1.45 0-2.725-.55Q5 20.9 4.05 19.95q-.95-.95-1.5-2.225Q2 16.45 2 15q0-2.025 1.05-3.7Q4.1 9.625 5.8 8.75q.5-.975 1.238-1.713Q7.775 6.3 8.75 5.8q.825-1.7 2.525-2.75T15 2q1.45 0 2.725.55Q19 3.1 19.95 4.05q.95.95 1.5 2.225Q22 7.55 22 9q0 2.125-1.05 3.75t-2.75 2.5q-.5.975-1.238 1.712q-.737.738-1.712 1.238q-.875 1.7-2.55 2.75Q11.025 22 9 22Zm0-2q.825 0 1.588-.25Q11.35 19.5 12 19q-1.45 0-2.725-.55Q8 17.9 7.05 16.95q-.95-.95-1.5-2.225Q5 13.45 5 12q-.5.65-.75 1.412Q4 14.175 4 15q0 1.05.4 1.95q.4.9 1.075 1.575q.675.675 1.575 1.075q.9.4 1.95.4Zm3-3q.825 0 1.613-.25q.787-.25 1.437-.75q-1.475 0-2.75-.562q-1.275-.563-2.225-1.513q-.95-.95-1.513-2.225Q8 10.425 8 8.95q-.5.65-.75 1.437Q7 11.175 7 12q0 1.05.388 1.95q.387.9 1.087 1.575q.675.7 1.575 1.088q.9.387 1.95.387Zm3-3q.45 0 .863-.075q.412-.075.837-.225q.55-1.5.163-2.888q-.388-1.387-1.338-2.337q-.95-.95-2.337-1.338Q11.8 6.75 10.3 7.3q-.15.425-.225.837Q10 8.55 10 9q0 1.05.387 1.95q.388.9 1.088 1.575q.675.7 1.575 1.088q.9.387 1.95.387Zm4-1.95q.5-.65.75-1.438Q20 9.825 20 9q0-1.05-.387-1.95q-.388-.9-1.088-1.575q-.675-.7-1.575-1.088Q16.05 4 15 4q-.875 0-1.637.25q-.763.25-1.413.75q1.475 0 2.75.562q1.275.563 2.225 1.513q.95.95 1.513 2.225q.562 1.275.562 2.75Z" />
    </symbol>
    <symbol viewBox="0 0 24 24" id="oxyprops-sizes-icon">
        <path fill="currentColor"
            d="m12 21l-4-4l1.4-1.4l1.6 1.6V6.8L9.4 8.4L8 7l4-4l4 4l-1.4 1.4L13 6.8v10.4l1.6-1.6L16 17Z" />
    </symbol>
    <symbol viewBox="0 0 24 24" id="oxyprops-borders-icon">
        <path fill="currentColor"
            d="M3 21V3h18v2H5v16Zm4 0v-2h2v2Zm4 0v-2h2v2Zm4 0v-2h2v2Zm4 0v-2h2v2Zm0-4v-2h2v2Zm0-4v-2h2v2Zm0-4V7h2v2Z" />
    </symbol>
    <symbol viewBox="0 0 24 24" id="oxyprops-layers-icon">
        <path fill="currentColor"
            d="m12 21.05l-9-7l1.65-1.25L12 18.5l7.35-5.7L21 14.05ZM12 16L3 9l9-7l9 7Zm0-7Zm0 4.45L17.75 9L12 4.55L6.25 9Z" />
    </symbol>
    <symbol viewBox="0 0 24 24" id="oxyprops-masks-icon">
        <path fill="currentColor"
            d="m19 21l-7-7l-2.35 2.35q.2.375.275.8q.075.425.075.85q0 1.65-1.175 2.825Q7.65 22 6 22q-1.65 0-2.825-1.175Q2 19.65 2 18q0-1.65 1.175-2.825Q4.35 14 6 14q.425 0 .85.075t.8.275L10 12L7.65 9.65q-.375.2-.8.275Q6.425 10 6 10q-1.65 0-2.825-1.175Q2 7.65 2 6q0-1.65 1.175-2.825Q4.35 2 6 2q1.65 0 2.825 1.175Q10 4.35 10 6q0 .425-.075.85t-.275.8L22 20v1Zm-4-10l-2-2l6-6h3v1ZM6 8q.825 0 1.412-.588Q8 6.825 8 6t-.588-1.412Q6.825 4 6 4t-1.412.588Q4 5.175 4 6t.588 1.412Q5.175 8 6 8Zm6 4.5q.2 0 .35-.15q.15-.15.15-.35q0-.2-.15-.35q-.15-.15-.35-.15q-.2 0-.35.15q-.15.15-.15.35q0 .2.15.35q.15.15.35.15ZM6 20q.825 0 1.412-.587Q8 18.825 8 18q0-.825-.588-1.413Q6.825 16 6 16t-1.412.587Q4 17.175 4 18q0 .825.588 1.413Q5.175 20 6 20Z" />
    </symbol>
    <symbol viewBox="0 0 24 24" id="oxyprops-context-menu-icon">
        <path fill="currentColor"
            d="M3 18h13v-2H3v2zm0-5h10v-2H3v2zm0-7v2h13V6H3zm18 9.59L17.42 12L21 8.41L19.59 7l-5 5l5 5L21 15.59z" />
    </symbol>
    <symbol viewBox="0 0 24 24" id="oxyprops-structure-menu-icon">
        <path fill="currentColor"
            d="M22 11V3h-7v3H9V3H2v8h7V8h2v10h4v3h7v-8h-7v3h-2V8h2v3h7zM7 9H4V5h3v4zm10 6h3v4h-3v-4zm0-10h3v4h-3V5z" />
    </symbol>
    <symbol viewBox="0 0 24 24" id="oxyprops-schemes-toggle-icon">
        <path fill="currentColor"
            d="M12 15q1.25 0 2.125-.875T15 12q0-1.25-.875-2.125T12 9q-1.25 0-2.125.875T9 12q0 1.25.875 2.125T12 15Zm0 2q-2.075 0-3.537-1.463Q7 14.075 7 12t1.463-3.538Q9.925 7 12 7t3.538 1.462Q17 9.925 17 12q0 2.075-1.462 3.537Q14.075 17 12 17ZM1 13v-2h4v2Zm18 0v-2h4v2Zm-8-8V1h2v4Zm0 18v-4h2v4ZM6.35 7.75L3.875 5.275l1.4-1.4L7.75 6.35Zm12.375 12.375L16.25 17.65l1.4-1.4l2.475 2.475ZM17.65 7.75l-1.4-1.4l2.475-2.475l1.4 1.4ZM5.275 20.125l-1.4-1.4L6.35 16.25l1.4 1.4ZM12 12Z" />
    </symbol>
    <symbol viewBox="0 0 24 24" id="oxyprops-toggle-element-icon">
        <path fill="currentColor"
            d="M12 21q-3.75 0-6.375-2.625T3 12q0-3.75 2.625-6.375T12 3q.35 0 .688.025q.337.025.662.075q-1.025.725-1.637 1.887Q11.1 6.15 11.1 7.5q0 2.25 1.575 3.825Q14.25 12.9 16.5 12.9q1.375 0 2.525-.613q1.15-.612 1.875-1.637q.05.325.075.662Q21 11.65 21 12q0 3.75-2.625 6.375T12 21Zm0-2q2.2 0 3.95-1.212q1.75-1.213 2.55-3.163q-.5.125-1 .2q-.5.075-1 .075q-3.075 0-5.238-2.162Q9.1 10.575 9.1 7.5q0-.5.075-1t.2-1q-1.95.8-3.162 2.55Q5 9.8 5 12q0 2.9 2.05 4.95Q9.1 19 12 19Zm-.25-6.75Z" />
    </symbol>
    <symbol viewBox="0 0 24 24" id="oxyprops-carousel-element-icon">
        <path fill="currentColor" d="M2 7h4v10H2Zm5-2h10v14H7Zm2 2v10Zm9 0h4v10h-4ZM9 7v10h6V7Z" />
    </symbol>
    <symbol viewBox="0 0 24 24" id="oxyprops-book-icon">
        <path fill="currentColor"
            d="M14 9.9V8.2q.825-.35 1.688-.525Q16.55 7.5 17.5 7.5q.65 0 1.275.1q.625.1 1.225.25v1.6q-.6-.225-1.212-.337Q18.175 9 17.5 9q-.95 0-1.825.238Q14.8 9.475 14 9.9Zm0 5.5v-1.7q.825-.35 1.688-.525Q16.55 13 17.5 13q.65 0 1.275.1q.625.1 1.225.25v1.6q-.6-.225-1.212-.337q-.613-.113-1.288-.113q-.95 0-1.825.225T14 15.4Zm0-2.75v-1.7q.825-.35 1.688-.525q.862-.175 1.812-.175q.65 0 1.275.1q.625.1 1.225.25v1.6q-.6-.225-1.212-.337q-.613-.113-1.288-.113q-.95 0-1.825.238q-.875.237-1.675.662ZM6.5 16q1.175 0 2.288.262q1.112.263 2.212.788V7.2q-1.025-.6-2.175-.9Q7.675 6 6.5 6q-.9 0-1.787.175Q3.825 6.35 3 6.7v9.9q.875-.3 1.738-.45Q5.6 16 6.5 16Zm6.5 1.05q1.1-.525 2.213-.788Q16.325 16 17.5 16q.9 0 1.763.15q.862.15 1.737.45V6.7q-.825-.35-1.712-.525Q18.4 6 17.5 6q-1.175 0-2.325.3q-1.15.3-2.175.9ZM12 20q-1.2-.95-2.6-1.475Q8 18 6.5 18q-1.325 0-2.775.5T1 20.05V5.55Q2.1 4.8 3.588 4.4Q5.075 4 6.5 4q1.45 0 2.838.375Q10.725 4.75 12 5.5q1.275-.75 2.663-1.125Q16.05 4 17.5 4q1.425 0 2.913.4Q21.9 4.8 23 5.55v14.5Q21.75 19 20.288 18.5Q18.825 18 17.5 18q-1.5 0-2.9.525T12 20Zm-5-8.475Z" />
    </symbol>
    <symbol viewBox="0 0 24 24" id="oxyprops-save-icon">
        <path fill="currentColor"
            d="M3 21V3h14l4 4v14Zm9-3q1.25 0 2.125-.875T15 15q0-1.25-.875-2.125T12 12q-1.25 0-2.125.875T9 15q0 1.25.875 2.125T12 18Zm-6-8h9V6H6Z" />
    </symbol>
    <symbol viewBox="0 0 24 24" id="oxyprops-a11y-icon">
        <path fill="currentColor"
            d="M12 6q-.825 0-1.412-.588Q10 4.825 10 4t.588-1.413Q11.175 2 12 2t1.413.587Q14 3.175 14 4q0 .825-.587 1.412Q12.825 6 12 6ZM9 22V9q-1.5-.125-3.05-.375Q4.4 8.375 3 8l.5-2q1.95.525 4.15.762Q9.85 7 12 7q2.15 0 4.35-.238q2.2-.237 4.15-.762l.5 2q-1.4.375-2.95.625Q16.5 8.875 15 9v13h-2v-6h-2v6Z" />
    </symbol>
    <symbol viewBox="0 0 17 17" id="oxyprops-menubar-element-icon">
        <path fill="currentColor"
            d="M0 10h5v-3h-5v3zM1 8h3v1h-3v-1zM6 10h5v-3h-5v3zM7 8h3v1h-3v-1zM12 7v3h5v-3h-5zM16 9h-3v-1h3v1z" />
    </symbol>
    <symbol viewBox="0 0 17 17" id="oxyprops-faq-element-icon">
        <path fill="currentColor"
            d="M4 0v9h13v-9h-13zM16 8h-11v-7h11v7zM0 3h3v-3h-3v3zM1 1h1v1h-1v-1zM4 13h13v-3h-13v3zM5 11h11v1h-11v-1zM0 13h3v-3h-3v3zM1 11h1v1h-1v-1zM4 17h13v-3h-13v3zM5 15h11v1h-11v-1zM0 17h3v-3h-3v3zM1 15h1v1h-1v-1z" />
    </symbol>
    <symbol viewBox="0 0 24 24" id="oxyprops-builder-icon">
        <path fill="currentColor"
            d="M3 21h8v-8H3m2 2h4v4H5m-2-8h8V3H3m2 2h4v4H5m8-6v8h8V3m-2 6h-4V5h4m-1 11h3v2h-3v3h-2v-3h-3v-2h3v-3h2Z" />
    </symbol>
    <symbol viewBox="0 0 24 24" id="oxyprops-not-supported-icon">
        <path fill="currentColor"
            d="m23 12l-2.44 2.78l.34 3.68l-3.61.82l-1.89 3.18L12 21l-3.4 1.47l-1.89-3.18l-3.61-.82l.34-3.69L1 12l2.44-2.79l-.34-3.68l3.61-.81L8.6 1.54L12 3l3.4-1.46l1.89 3.18l3.61.82l-.34 3.68L23 12m-2.67 0L18.5 9.89l.24-2.79L16 6.5l-1.42-2.43L12 5.18L9.42 4.07L8 6.5l-2.74.59l.24 2.79L3.67 12l1.83 2.1l-.24 2.8l2.74.6l1.42 2.43L12 18.81l2.58 1.11L16 17.5l2.74-.61l-.24-2.79l1.83-2.1M11 15h2v2h-2v-2m0-8h2v6h-2V7" />
    </symbol>
    <symbol viewBox="0 0 24 24" id="oxyprops-supported-icon">
        <path fill="currentColor"
            d="m23 12l-2.4-2.8l.3-3.7l-3.6-.8l-1.9-3.2L12 3L8.6 1.5L6.7 4.7l-3.6.8l.3 3.7L1 12l2.4 2.8l-.3 3.7l3.6.8l1.9 3.2L12 21l3.4 1.5l1.9-3.2l3.6-.8l-.3-3.7L23 12m-4.3 4.9l-2.7.6l-1.4 2.4l-2.6-1.1l-2.6 1.1L8 17.5l-2.7-.6l.2-2.8L3.7 12l1.8-2.1l-.2-2.8L8 6.5l1.4-2.4L12 5.2l2.6-1.1L16 6.5l2.7.6l-.2 2.8l1.8 2.1l-1.8 2.1l.2 2.8m-2.1-9.3L18 9l-8 8l-4-4l1.4-1.4l2.6 2.6l6.6-6.6Z" />
    </symbol>
    <symbol viewBox="0 0 24 24" id="oxyprops-download-icon">
        <path fill="currentColor"
            d="M5 20h14v-2H5m14-9h-4V3H9v6H5l7 7l7-7Z" />
    </symbol>
    <symbol viewBox="0 0 24 24" id="oxyprops-upload-icon">
        <path fill="currentColor"
            d="M9 16v-6H5l7-7l7 7h-4v6H9m-4 4v-2h14v2H5Z" />
    </symbol>
    <symbol viewBox="0 0 24 24" id="oxyprops-reset-icon">
        <path fill="currentColor"
            d="M12.63 2c5.53 0 10.01 4.5 10.01 10s-4.48 10-10.01 10c-3.51 0-6.58-1.82-8.37-4.57l1.58-1.25C7.25 18.47 9.76 20 12.64 20a8 8 0 0 0 8-8a8 8 0 0 0-8-8C8.56 4 5.2 7.06 4.71 11h2.76l-3.74 3.73L0 11h2.69c.5-5.05 4.76-9 9.94-9m2.96 8.24c.5.01.91.41.91.92v4.61c0 .5-.41.92-.92.92h-5.53c-.51 0-.92-.42-.92-.92v-4.61c0-.51.41-.91.91-.92V9.23c0-1.53 1.25-2.77 2.77-2.77c1.53 0 2.78 1.24 2.78 2.77v1.01m-2.78-2.38c-.75 0-1.37.61-1.37 1.37v1.01h2.75V9.23c0-.76-.62-1.37-1.38-1.37Z" />
    </symbol>
    <symbol viewBox="0 0 24 24" id="oxyprops-alert-icon">
        <path fill="currentColor"
            d="M12 2L1 21h22M12 6l7.53 13H4.47M11 10v4h2v-4m-2 6v2h2v-2" />
    </symbol>
    <symbol viewBox="0 0 24 24" id="oxyprops-update-icon">
        <path fill="currentColor"
            d="M21 10.12h-6.78l2.74-2.82c-2.73-2.7-7.15-2.8-9.88-.1a6.887 6.887 0 0 0 0 9.8c2.73 2.7 7.15 2.7 9.88 0c1.36-1.35 2.04-2.92 2.04-4.9h2c0 1.98-.88 4.55-2.64 6.29c-3.51 3.48-9.21 3.48-12.72 0c-3.5-3.47-3.53-9.11-.02-12.58a8.987 8.987 0 0 1 12.65 0L21 3v7.12M12.5 8v4.25l3.5 2.08l-.72 1.21L11 13V8h1.5Z" />
    </symbol>
    <symbol viewBox="0 0 24 24" id="oxyprops-speedometer-icon">
        <path fill="currentColor"
            d="M12 16a3 3 0 0 1-3-3c0-1.12.61-2.1 1.5-2.61l9.71-5.62l-5.53 9.58c-.5.98-1.51 1.65-2.68 1.65m0-13c1.81 0 3.5.5 4.97 1.32l-2.1 1.21C14 5.19 13 5 12 5a8 8 0 0 0-8 8c0 2.21.89 4.21 2.34 5.65h.01c.39.39.39 1.02 0 1.41c-.39.39-1.03.39-1.42.01A9.969 9.969 0 0 1 2 13A10 10 0 0 1 12 3m10 10c0 2.76-1.12 5.26-2.93 7.07c-.39.38-1.02.38-1.41-.01a.996.996 0 0 1 0-1.41A7.95 7.95 0 0 0 20 13c0-1-.19-2-.54-2.9L20.67 8C21.5 9.5 22 11.18 22 13Z" />
    </symbol>
    <symbol viewBox="0 0 24 24" id="oxyprops-details-icon">
        <path fill="currentColor"
            d="m20 22.09l2.45 1.49l-.65-2.81l2.2-1.88l-2.89-.25L20 16l-1.13 2.64l-2.87.25l2.18 1.88l-.68 2.81l2.5-1.49M14.08 21H2a2.074 2.074 0 0 1-2-2V5c.04-1.09.91-1.96 2-2h20c1.09.04 1.96.91 2 2v10.53c-.58-.53-1.25-.92-2-1.19V5H2v14h12.08c-.05.33-.08.66-.08 1c0 .34.03.68.08 1M14 17H4v-1.25c0-1.66 3.34-2.5 5-2.5c1.66 0 5 .84 5 2.5V17m0-6h4v1h-4v-1M9 7C7.63 7 6.5 8.13 6.5 9.5S7.63 12 9 12s2.5-1.13 2.5-2.5S10.37 7 9 7m5 2h6v1h-6V9m0-2h6v1h-6V7Z" />
    </symbol>
    <symbol viewBox="0 0 24 24" id="oxyprops-key-icon">
        <path fill="currentColor"
            d="M22 18v4h-4v-3h-3v-3h-3l-2.26-2.26c-.55.17-1.13.26-1.74.26a6 6 0 0 1-6-6a6 6 0 0 1 6-6a6 6 0 0 1 6 6c0 .61-.09 1.19-.26 1.74L22 18M7 5a2 2 0 0 0-2 2a2 2 0 0 0 2 2a2 2 0 0 0 2-2a2 2 0 0 0-2-2Z" />
    </symbol>
    <symbol viewBox="0 0 24 24" id="oxyprops-email-icon">
        <path fill="currentColor"
            d="M22 6c0-1.1-.9-2-2-2H4c-1.1 0-2 .9-2 2v12c0 1.1.9 2 2 2h16c1.1 0 2-.9 2-2V6m-2 0l-8 5l-8-5h16m0 12H4V8l8 5l8-5v10Z" />
    </symbol>
    <symbol viewBox="0 0 24 24" id="oxyprops-menuburger-element-icon">
        <path fill="currentColor"
            d="M22 13c0 1.11-.89 2-2 2H4a2 2 0 1 1 0-4h9l2.5 2l2.5-2h2a2 2 0 0 1 2 2M12 3C3 3 3 9 3 9h18s0-6-9-6M3 18c0 1.66 1.34 3 3 3h12c1.66 0 3-1.34 3-3v-1H3v1Z" />
    </symbol>
    <symbol viewBox="0 0 24 24" id="oxyprops-menubutton-element-icon">
        <path fill="currentColor"
            d="M18.1 15.3c-.1.1-.3.2-.4.3l-2.4.4l1.7 3.6c.2.4 0 .8-.4 1l-2.8 1.3c-.1.1-.2.1-.3.1c-.3 0-.6-.2-.7-.4L11.2 18l-1.9 1.5c-.1.1-.3.2-.5.2c-.4 0-.8-.3-.8-.8V7.5c0-.5.3-.8.8-.8c.2 0 .4.1.5.2l8.7 7.4c.3.2.4.7.1 1M6 12H4V4h16v8h-1.6l2.2 1.9c.8-.3 1.3-1 1.3-1.9V4c0-1.1-.9-2-2-2H4c-1.1 0-2 .9-2 2v8c0 1.1.9 2 2 2h2v-2Z" />
    </symbol>
    <symbol viewBox="0 0 24 24" id="oxyprops-icon-element-icon">
        <path fill="currentColor"
            d="M12 17.5c2.33 0 4.3-1.46 5.11-3.5H6.89c.8 2.04 2.78 3.5 5.11 3.5M8.5 11A1.5 1.5 0 0 0 10 9.5A1.5 1.5 0 0 0 8.5 8A1.5 1.5 0 0 0 7 9.5A1.5 1.5 0 0 0 8.5 11m7 0A1.5 1.5 0 0 0 17 9.5A1.5 1.5 0 0 0 15.5 8A1.5 1.5 0 0 0 14 9.5a1.5 1.5 0 0 0 1.5 1.5M12 20a8 8 0 0 1-8-8a8 8 0 0 1 8-8a8 8 0 0 1 8 8a8 8 0 0 1-8 8m0-18C6.47 2 2 6.5 2 12a10 10 0 0 0 10 10a10 10 0 0 0 10-10A10 10 0 0 0 12 2Z" />
    </symbol>
</svg>