<?xml version="1.0" encoding="utf-8"?>
<!-- Generator: Adobe Illustrator 26.0.2, SVG Export Plug-In . SVG Version: 6.00 Build 0)  -->
<svg version="1.1" id="Layer_1" xmlns="http://www.w3.org/2000/svg" xmlns:xlink="http://www.w3.org/1999/xlink" x="0px" y="0px"
	 viewBox="0 0 7 10" style="enable-background:new 0 0 7 10;" xml:space="preserve">
<style type="text/css">
	.st0{fill:#A5A5A5;}
</style>
<path class="st0" d="M4.8,5C4.2,4.5,3.7,4,3.1,3.6C2.3,2.9,1.6,2.3,0.8,1.7C0.6,1.5,0.5,1.3,0.5,1.1c0-0.1,0.1-0.2,0.1-0.3
	c0.1-0.1,0.2-0.2,0.3-0.2c0.2-0.1,0.5-0.1,0.7,0.1C2,1,2.4,1.3,2.8,1.7C4,2.6,5.1,3.5,6.2,4.4c0.2,0.2,0.4,0.4,0.3,0.7
	c0,0.1-0.1,0.3-0.2,0.4C4.7,6.8,3.2,8.1,1.6,9.3C1.5,9.4,1.5,9.4,1.4,9.5c-0.1,0-0.2,0-0.3,0c-0.1,0-0.2,0-0.2-0.1
	c-0.1,0-0.1-0.1-0.2-0.2C0.4,9,0.5,8.6,0.8,8.4C2,7.3,3.3,6.3,4.6,5.2C4.6,5.1,4.7,5.1,4.8,5z"/>
</svg>
