<svg width="10" height="7" viewBox="0 0 10 7" fill="none" xmlns="http://www.w3.org/2000/svg">
<mask id="path-1-inside-1_19_56" fill="white">
<path d="M5.01044 4.82084C5.49752 4.23279 5.97206 3.65989 6.44661 3.08704C7.07746 2.32554 7.70815 1.56389 8.33868 0.802108C8.49519 0.612531 8.68568 0.505376 8.92948 0.536765C9.04504 0.547073 9.15537 0.591282 9.2475 0.664202C9.33963 0.737122 9.40974 0.835724 9.44959 0.948431C9.54596 1.19692 9.50186 1.42715 9.33689 1.62889C9.00449 2.03541 8.66807 2.43841 8.33329 2.84284C7.40692 3.96195 6.48087 5.08134 5.55514 6.20101C5.37245 6.42258 5.15526 6.55864 4.87351 6.4752C4.73528 6.43479 4.61051 6.35571 4.51294 6.24665C3.22334 4.70071 1.93875 3.1503 0.65917 1.59542C0.603367 1.53035 0.560682 1.45441 0.533618 1.37205C0.506554 1.28968 0.495654 1.20256 0.50156 1.11579C0.507465 1.02901 0.530056 0.94433 0.568008 0.866706C0.60596 0.789082 0.658509 0.720079 0.722574 0.663743C1.00122 0.416008 1.39226 0.45201 1.64247 0.753886C2.69643 2.02542 3.74963 3.29763 4.80205 4.57051C4.86669 4.6486 4.93174 4.72632 5.01044 4.82084Z"/>
</mask>
<path d="M5.01044 4.82084C5.49752 4.23279 5.97206 3.65989 6.44661 3.08704C7.07746 2.32554 7.70815 1.56389 8.33868 0.802108C8.49519 0.612531 8.68568 0.505376 8.92948 0.536765C9.04504 0.547073 9.15537 0.591282 9.2475 0.664202C9.33963 0.737122 9.40974 0.835724 9.44959 0.948431C9.54596 1.19692 9.50186 1.42715 9.33689 1.62889C9.00449 2.03541 8.66807 2.43841 8.33329 2.84284C7.40692 3.96195 6.48087 5.08134 5.55514 6.20101C5.37245 6.42258 5.15526 6.55864 4.87351 6.4752C4.73528 6.43479 4.61051 6.35571 4.51294 6.24665C3.22334 4.70071 1.93875 3.1503 0.65917 1.59542C0.603367 1.53035 0.560682 1.45441 0.533618 1.37205C0.506554 1.28968 0.495654 1.20256 0.50156 1.11579C0.507465 1.02901 0.530056 0.94433 0.568008 0.866706C0.60596 0.789082 0.658509 0.720079 0.722574 0.663743C1.00122 0.416008 1.39226 0.45201 1.64247 0.753886C2.69643 2.02542 3.74963 3.29763 4.80205 4.57051C4.86669 4.6486 4.93174 4.72632 5.01044 4.82084Z" fill="#A5A5A5"/>
<path d="M5.01044 4.82084L2.70501 6.74047L5.01649 9.51649L7.3208 6.73453L5.01044 4.82084ZM6.44661 3.08704L4.13637 1.1732L4.13637 1.1732L6.44661 3.08704ZM8.33868 0.802108L10.6497 2.71498L10.6521 2.71206L8.33868 0.802108ZM8.92948 0.536765L8.54638 3.5122L8.60455 3.51969L8.66296 3.5249L8.92948 0.536765ZM9.44959 0.948431L6.62122 1.94857L6.63626 1.99111L6.65257 2.03318L9.44959 0.948431ZM9.33689 1.62889L11.6593 3.52792L11.6593 3.52792L9.33689 1.62889ZM8.33329 2.84284L10.6443 4.7558L10.6443 4.75579L8.33329 2.84284ZM5.55514 6.20101L3.24305 4.28941L3.24051 4.29249L5.55514 6.20101ZM4.87351 6.4752L5.72544 3.59868L5.71519 3.59569L4.87351 6.4752ZM4.51294 6.24665L2.20924 8.16836L2.24253 8.20826L2.27717 8.24699L4.51294 6.24665ZM0.65917 1.59542L2.97563 -0.310898L2.95626 -0.334426L2.93643 -0.357557L0.65917 1.59542ZM0.722574 0.663743L2.70365 2.9166L2.70978 2.9112L2.71588 2.90578L0.722574 0.663743ZM1.64247 0.753886L-0.667253 2.66835L-0.66723 2.66838L1.64247 0.753886ZM4.80205 4.57051L2.48998 6.48214L2.49103 6.48341L4.80205 4.57051ZM7.3208 6.73453C7.80789 6.14647 8.28237 5.57365 8.75686 5.00088L4.13637 1.1732C3.66174 1.74614 3.18715 2.3191 2.70007 2.90715L7.3208 6.73453ZM8.75686 5.00088C9.38797 4.23905 10.0189 3.47708 10.6497 2.71497L6.02763 -1.11076C5.39737 -0.349301 4.76695 0.41202 4.13637 1.1732L8.75686 5.00088ZM10.6521 2.71206C10.5339 2.85529 10.2914 3.10431 9.89243 3.29454C9.46083 3.50032 8.98722 3.56896 8.54638 3.5122L9.31257 -2.43867C7.7553 -2.63918 6.62613 -1.8357 6.02522 -1.10784L10.6521 2.71206ZM8.66296 3.5249C8.18837 3.48257 7.74582 3.30161 7.38565 3.01655L11.1093 -1.68814C10.5649 -2.11905 9.90171 -2.38843 9.19599 -2.45137L8.66296 3.5249ZM7.38565 3.01655C7.02658 2.73234 6.76628 2.3588 6.62122 1.94857L12.278 -0.0517074C12.0532 -0.687353 11.6527 -1.2581 11.1093 -1.68814L7.38565 3.01655ZM6.65257 2.03318C6.52628 1.70753 6.45221 1.2765 6.53475 0.797124C6.61608 0.324773 6.82166 -0.034346 7.01446 -0.270131L11.6593 3.52792C12.4705 2.53594 12.7549 1.17421 12.2466 -0.136318L6.65257 2.03318ZM7.01446 -0.270132C6.68953 0.127247 6.36783 0.512478 6.02231 0.929889L10.6443 4.75579C10.9683 4.36433 11.3195 3.94357 11.6593 3.52792L7.01446 -0.270132ZM6.02232 0.929881C5.09558 2.04944 4.16916 3.16928 3.24305 4.28941L7.86723 8.11262C8.79259 6.99339 9.71827 5.87446 10.6443 4.7558L6.02232 0.929881ZM3.24051 4.29249C3.30477 4.21455 3.54792 3.93232 4.00581 3.72332C4.54769 3.47599 5.16773 3.43353 5.72543 3.5987L4.02159 9.35169C4.86104 9.60031 5.73055 9.53154 6.49713 9.18165C7.17973 8.8701 7.62282 8.40904 7.86978 8.10954L3.24051 4.29249ZM5.71519 3.59569C6.12373 3.7151 6.47915 3.94504 6.7487 4.24631L2.27717 8.24699C2.74188 8.76638 3.34684 9.15448 4.03183 9.35471L5.71519 3.59569ZM6.81664 4.32494C5.53131 2.78412 4.25097 1.23884 2.97563 -0.310898L-1.65729 3.50173C-0.373472 5.06176 0.91537 6.6173 2.20924 8.16836L6.81664 4.32494ZM2.93643 -0.357557C3.13921 -0.121103 3.2896 0.149186 3.38368 0.435486L-2.31645 2.3086C-2.16823 2.75962 -1.93248 3.1818 -1.61809 3.54839L2.93643 -0.357557ZM3.38368 0.435486C3.47772 0.721671 3.5149 1.0218 3.49464 1.31948L-2.49152 0.912094C-2.52359 1.38333 -2.46462 1.8577 -2.31645 2.3086L3.38368 0.435486ZM3.49464 1.31948C3.47438 1.61718 3.39676 1.91109 3.26312 2.18441L-2.12711 -0.450999C-2.33665 -0.0224296 -2.45945 0.440849 -2.49152 0.912094L3.49464 1.31948ZM3.26312 2.18441C3.12941 2.4579 2.94088 2.70799 2.70365 2.9166L-1.2585 -1.58911C-1.62386 -1.26783 -1.91749 -0.879735 -2.12711 -0.450999L3.26312 2.18441ZM2.71588 2.90578C2.25844 3.31248 1.60772 3.55646 0.905838 3.48892C0.212908 3.42224 -0.33136 3.07359 -0.667253 2.66835L3.9522 -1.16058C2.69267 -2.68016 0.361605 -3.02954 -1.27073 -1.57829L2.71588 2.90578ZM-0.66723 2.66838C0.38594 3.93895 1.43834 5.21021 2.48998 6.48214L7.11412 2.65888C6.06091 1.38504 5.00693 0.111881 3.95218 -1.1606L-0.66723 2.66838ZM2.49103 6.48341C2.55916 6.56572 2.63289 6.65386 2.70501 6.74047L7.31586 2.9012C7.23058 2.79877 7.17421 2.73148 7.11308 2.65762L2.49103 6.48341Z" fill="#A5A5A5" mask="url(#path-1-inside-1_19_56)"/>
</svg>
