<?xml version="1.0" encoding="utf-8"?>
<!-- Generator: Adobe Illustrator 26.0.2, SVG Export Plug-In . SVG Version: 6.00 Build 0)  -->
<svg version="1.1" id="Layer_1" xmlns="http://www.w3.org/2000/svg" xmlns:xlink="http://www.w3.org/1999/xlink" x="0px" y="0px"
	 viewBox="0 0 7 10" style="enable-background:new 0 0 7 10;" xml:space="preserve">
<style type="text/css">
	.st0{fill:#A5A5A5;}
</style>
<g>
	<path class="st0" d="M2.2,5c0.6,0.5,1.2,1,1.7,1.4c0.8,0.6,1.5,1.3,2.3,1.9c0.2,0.2,0.3,0.3,0.3,0.6c0,0.1-0.1,0.2-0.1,0.3
		C6.3,9.3,6.2,9.4,6.1,9.4C5.8,9.5,5.6,9.5,5.4,9.3C5,9,4.6,8.7,4.2,8.3C3,7.4,1.9,6.5,0.8,5.6C0.6,5.4,0.4,5.2,0.5,4.9
		c0-0.1,0.1-0.3,0.2-0.4c1.5-1.3,3.1-2.6,4.7-3.9c0.1-0.1,0.1-0.1,0.2-0.1c0.1,0,0.2,0,0.3,0c0.1,0,0.2,0,0.2,0.1
		c0.1,0,0.1,0.1,0.2,0.2C6.6,1,6.5,1.4,6.2,1.6C5,2.7,3.7,3.7,2.4,4.8C2.4,4.9,2.3,4.9,2.2,5z"/>
</g>
</svg>
