<svg xmlns="http://www.w3.org/2000/svg" viewBox="0 0 1000 1000" fill-rule="evenodd" stroke-linejoin="round" stroke-miterlimit="2" xmlns:v="https://vecta.io/nano"><path d="M0 179.126c0-69.025 55.975-125 125-125h750c69.025 0 125 55.975 125 125v500c0 69.025-55.975 125-125 125H253.025l-172.75 131.45C47.35 960.626 0 937.151 0 895.776V499.251v-.15-319.975zm294.65 199.9c-12.125-24.8-42.075-35.1-66.875-22.975s-35.1 42.075-22.975 66.875C258.1 532.001 370.2 607.301 500 607.301s241.9-75.3 295.2-184.375c12.125-24.8 1.825-54.75-22.975-66.875s-54.75-1.825-66.875 22.975C668.175 455.101 590.15 507.301 500 507.301s-168.175-52.2-205.35-128.275z" fill="#455afb"/></svg>