<svg xmlns="http://www.w3.org/2000/svg" width="72" height="36" viewBox="0 0 72 36">
    <path fill="white" d="M18 6.42a1 1 0 0 0 1-1V1.91a1 1 0 0 0-2 0v3.51a1 1 0 0 0 1 1Z"
        class="clr-i-solid clr-i-solid-path-1" />
    <path fill="white" d="M18 29.58a1 1 0 0 0-1 1v3.51a1 1 0 0 0 2 0v-3.51a1 1 0 0 0-1-1Z"
        class="clr-i-solid clr-i-solid-path-2" />
    <path fill="white" d="M8.4 9.81A1 1 0 0 0 9.81 8.4L7.33 5.92a1 1 0 0 0-1.41 1.41Z"
        class="clr-i-solid clr-i-solid-path-3" />
    <path fill="white" d="M27.6 26.19a1 1 0 0 0-1.41 1.41l2.48 2.48a1 1 0 0 0 1.41-1.41Z"
        class="clr-i-solid clr-i-solid-path-4" />
    <path fill="white" d="M6.42 18a1 1 0 0 0-1-1H1.91a1 1 0 0 0 0 2h3.51a1 1 0 0 0 1-1Z"
        class="clr-i-solid clr-i-solid-path-5" />
    <path fill="white" d="M34.09 17h-3.51a1 1 0 0 0 0 2h3.51a1 1 0 0 0 0-2Z"
        class="clr-i-solid clr-i-solid-path-6" />
    <path fill="white" d="m8.4 26.19l-2.48 2.48a1 1 0 0 0 1.41 1.41l2.48-2.48a1 1 0 0 0-1.41-1.41Z"
        class="clr-i-solid clr-i-solid-path-7" />
    <path fill="white" d="m27.6 9.81l2.48-2.48a1 1 0 0 0-1.41-1.41L26.19 8.4a1 1 0 0 0 1.41 1.41Z"
        class="clr-i-solid clr-i-solid-path-8" />
    <circle cx="18" cy="18" r="10" fill="white" class="clr-i-solid clr-i-solid-path-9" />
    <path fill="white" transform="translate(36)"
        d="M29.2 26.72a12.07 12.07 0 0 1-6.3-22.28A13.68 13.68 0 0 0 19.49 4a14 14 0 0 0 0 28a13.82 13.82 0 0 0 10.9-5.34a11.71 11.71 0 0 1-1.19.06Z"
        class="clr-i-solid clr-i-solid-path-1" />
</svg>