<?xml version="1.0" encoding="utf-8"?>
<!-- Generator: Adobe Illustrator 25.4.1, SVG Export Plug-In . SVG Version: 6.00 Build 0)  -->
<svg version="1.1" id="Layer_1" xmlns="http://www.w3.org/2000/svg" xmlns:xlink="http://www.w3.org/1999/xlink" x="0px" y="0px"
	 viewBox="0 0 35 35" style="enable-background:new 0 0 35 35;" xml:space="preserve">
<style type="text/css">
	.st0{fill:#FFFFFF;}
</style>
<g>
	<path class="st0" d="M10.7,21.1L10.7,21.1c0,0,0,0.1,0,0.1C10.7,21.1,10.7,21.1,10.7,21.1z M10.7,13.9L10.7,13.9c0-0.1,0-0.1,0-0.2
		C10.7,13.8,10.7,13.9,10.7,13.9z"/>
	<path class="st0" d="M29.5,11.2v-0.3l0,0c-0.1-0.8-0.8-1.2-1.4-1.2H6.9c-0.8,0-1.4,0.5-1.4,1.2c0,0.1,0,0.1,0,0.3V24
		c0,0.1,0,0.3,0,0.3c0.1,0.8,0.6,1.1,1.4,1.1h21c0.8,0,1.4-0.5,1.6-1.2V11.2z M27.9,22.5l-7.2-5l7.2-5V22.5z M27.4,11.2L19.3,17
		l-0.1,0.1l0,0l-1.6,1.1l-1.7-1.1l0,0L15.7,17l-8.3-5.8H27.4z M6.9,12.6l7.2,5l-7.2,5V12.6z M7.6,24l7.9-5.5l1.6,1.1
		c0.1,0.1,0.3,0.1,0.5,0.1c0.1,0,0.3,0,0.5-0.1l1.6-1.1l7.9,5.5H7.6z"/>
	<path class="st0" d="M10.7,13.7c0,0.1,0,0.1,0,0.1v0.1C10.7,13.9,10.7,13.8,10.7,13.7z"/>
	<path class="st0" d="M10.7,21.2c0-0.1,0-0.1,0-0.2v0.1C10.7,21.1,10.7,21.1,10.7,21.2z"/>
</g>
</svg>
