<?xml version="1.0" encoding="utf-8"?>
<!-- Generator: Adobe Illustrator 25.4.1, SVG Export Plug-In . SVG Version: 6.00 Build 0)  -->
<svg version="1.1" id="Layer_1" xmlns="http://www.w3.org/2000/svg" xmlns:xlink="http://www.w3.org/1999/xlink" x="0px" y="0px"
	 viewBox="0 0 35 35" style="enable-background:new 0 0 35 35;" xml:space="preserve">
<style type="text/css">
	.st0{fill:#FFFFFF;}
</style>
<g>
	<path id="Path_1923" class="st0" d="M22.8,5.5H12.2c-3.7,0-6.6,2.9-6.6,6.6v10.7c0,3.6,2.9,6.6,6.6,6.6h10.7c3.7,0,6.6-2.9,6.6-6.6
		V12.2C29.5,8.6,26.5,5.5,22.8,5.5z M27.4,23c0,2.5-2.1,4.6-4.6,4.6H12.2c-2.5,0-4.6-2.1-4.6-4.6V12.3c0-2.5,2.1-4.6,4.6-4.6h10.7
		c2.5,0,4.6,2.1,4.6,4.6L27.4,23L27.4,23z"/>
	<path id="Path_1924" class="st0" d="M17.4,11.4c-3.4,0-6.2,2.8-6.2,6.2s2.8,6.2,6.2,6.2s6.2-2.8,6.2-6.2S20.9,11.4,17.4,11.4z
		 M17.4,21.7c-2.2,0-4.1-1.8-4.1-4.1s1.8-4.1,4.1-4.1c2.2,0,4.1,1.8,4.1,4.1C21.5,19.8,19.8,21.7,17.4,21.7z"/>
	<path id="Path_1925" class="st0" d="M23.9,9.6c-0.9,0-1.6,0.8-1.6,1.6c0,0.9,0.8,1.6,1.6,1.6c0.9,0,1.6-0.8,1.6-1.6
		c0-0.4-0.1-0.9-0.4-1C24.8,9.8,24.4,9.6,23.9,9.6z"/>
</g>
</svg>
