<?xml version="1.0" encoding="utf-8"?>
<!-- Generator: Adobe Illustrator 25.4.1, SVG Export Plug-In . SVG Version: 6.00 Build 0)  -->
<svg version="1.1" id="Layer_1" xmlns="http://www.w3.org/2000/svg" xmlns:xlink="http://www.w3.org/1999/xlink" x="0px" y="0px"
	 viewBox="0 0 35 35" style="enable-background:new 0 0 35 35;" xml:space="preserve">
<style type="text/css">
	.st0{fill:#FFFFFF;}
	.st1{fill-rule:evenodd;clip-rule:evenodd;fill:#FFFFFF;}
</style>
<g>
	<path class="st0" d="M17.6,5.5c-6.6,0-12,4.9-12,11c0,3.5,1.8,6.5,4.5,8.7v4.2l4.1-2.3c1,0.3,2.3,0.4,3.5,0.4
		c6.5,0,11.9-5,11.9-11.1C29.5,10.4,24.1,5.5,17.6,5.5z M18.7,20.5l-3.1-3.4l-5.9,3.4l6.5-7l3.2,3.2l5.9-3.4L18.7,20.5z"/>
	<path class="st1" d="M17.6,5.5c-6.6,0-12,4.9-12,11c0,3.5,1.8,6.5,4.5,8.7v4.2l4.1-2.3c1,0.3,2.3,0.4,3.5,0.4
		c6.5,0,11.9-5,11.9-11.1C29.5,10.4,24.1,5.5,17.6,5.5z M18.7,20.5l-3.1-3.4l-5.9,3.4l6.5-7l3.2,3.2l5.9-3.4L18.7,20.5z"/>
</g>
</svg>
