<?xml version="1.0" encoding="utf-8"?>
<!-- Generator: Adobe Illustrator 25.4.1, SVG Export Plug-In . SVG Version: 6.00 Build 0)  -->
<svg version="1.1" id="Layer_1" xmlns="http://www.w3.org/2000/svg" xmlns:xlink="http://www.w3.org/1999/xlink" x="0px" y="0px"
	 viewBox="0 0 35 35" style="enable-background:new 0 0 35 35;" xml:space="preserve">
<style type="text/css">
	.st0{fill:#FFFFFF;}
</style>
<g>
	<path class="st0" d="M29.5,24.5v4.1c0,0.5-0.4,0.9-0.9,0.9c-3.5,0-7-0.6-10.1-2.2c-4.7-2.2-8.6-6-10.8-10.8
		C6.1,13.4,5.5,9.9,5.5,6.4c0-0.5,0.4-0.9,0.9-0.9h4.3c0.9,0,1.7,0.6,1.7,1.6c0.1,1.6,0.6,3.6,1.4,5.4c0.4,0.9,0,1.9-0.9,2.2
		l-2.2,1.2c1.9,3.5,4.9,6.6,8.5,8.5l1.2-2.1c0.4-0.9,1.4-1.2,2.3-0.9c1.6,0.6,3.5,1.2,5.3,1.4C28.7,22.6,29.5,23.5,29.5,24.5z"/>
	<path class="st0" d="M29.5,24.5v4.1c0,0.5-0.4,0.9-0.9,0.9c-3.5,0-7-0.6-10.1-2.2c-4.7-2.2-8.6-6-10.8-10.8
		C6.1,13.4,5.5,9.9,5.5,6.4c0-0.5,0.4-0.9,0.9-0.9h4.3c0.9,0,1.7,0.6,1.7,1.6c0.1,1.6,0.6,3.6,1.4,5.4c0.4,0.9,0,1.9-0.9,2.2
		l-2.2,1.2c1.9,3.5,4.9,6.6,8.5,8.5l1.2-2.1c0.4-0.9,1.4-1.2,2.3-0.9c1.6,0.6,3.5,1.2,5.3,1.4C28.7,22.6,29.5,23.5,29.5,24.5z"/>
</g>
</svg>
