<svg version="1.1" id="Layer_1" xmlns="http://www.w3.org/2000/svg" xmlns:xlink="http://www.w3.org/1999/xlink" x="0px" y="0px"
     viewBox="0 0 20 20" style="enable-background:new 0 0 20 20;" xml:space="preserve" fill="#fff">
    <g>
        <rect x="5.3" y="5.7" class="st0" width="9.6" height="6.3" fill="#000"/>
        <g><g class="st1" fill="#fff">
          <path class="st2" d="M10,19.6c-2.5,0-5,0-7.3,0c-1,0-1.9-0.6-2.1-1.5c-0.1-0.3,0-0.7,0-1c0.2-1.5,0.5-3,0.7-4.5
            C1.4,11,1.8,9.4,2,7.9c0.1-0.8,0.2-1.6,0.3-2.3c0.1-1,1-1.6,2-1.6c3.7,0,7.6,0,11.3,0c1,0,1.9,0.7,2,1.6c0.3,2.5,0.8,5,1.1,7.5
            c0.2,1.5,0.5,2.9,0.7,4.4c0.2,1.2-0.8,2.1-2.1,2.1C14.9,19.6,12.5,19.6,10,19.6z M10,10.5c0.1,0,0.3,0,0.6,0
            c2-0.2,3.6-1.8,3.6-3.5c0-0.4-0.3-0.6-0.7-0.6S12.9,6.7,12.8,7c0,0.1,0,0.2-0.1,0.5c-0.3,1.2-1.6,2-2.9,1.9
            C8.3,9.2,7.3,8.1,7.2,7c0-0.4-0.3-0.7-0.7-0.7C6.2,6.3,5.8,6.6,5.8,7C5.8,8.9,7.8,10.5,10,10.5z"/>
        </g><path class="st2" fill="#fff" d="M9.9,0.4c2.4,0,4.2,1.7,4.2,3.5c0,0.4-0.2,0.7-0.7,0.7c-0.5,0-0.7-0.3-0.7-0.7c0-1.3-1.1-2.2-2.5-2.3
          c-1.5,0-2.7,0.8-3,2c0,0.1-0.1,0.3-0.1,0.5c0,0.4-0.3,0.6-0.7,0.6C6.1,4.6,5.7,4.3,5.7,4c0-1.8,1.6-3.4,3.6-3.6
          C9.5,0.5,9.8,0.4,9.9,0.4z"/>
        </g>
    </g>
</svg>