<?xml version="1.0" encoding="utf-8"?>
<!-- Generator: Adobe Illustrator 25.4.1, SVG Export Plug-In . SVG Version: 6.00 Build 0)  -->
<svg version="1.1" id="Layer_1" xmlns="http://www.w3.org/2000/svg" xmlns:xlink="http://www.w3.org/1999/xlink" x="0px" y="0px"
	 viewBox="0 0 35 35" style="enable-background:new 0 0 35 35;" xml:space="preserve">
<style type="text/css">
	.st0{fill:#FFFFFF;}
	.st1{fill-rule:evenodd;clip-rule:evenodd;fill:#FFFFFF;}
</style>
<g>
	<path class="st0" d="M28.5,20.1c0.5-0.8,0.5-1.6,0.5-2.5c0-6.3-5.1-11.2-11.5-11.2c-0.6,0-1.3,0-1.9,0.1c-1-0.6-2.3-1-3.6-1
		c-3.6,0.1-6.5,3-6.5,6.6c0,1.2,0.3,2.5,0.9,3.4c-0.1,0.8-0.3,1.5-0.3,2.2c0,6.3,5.1,11.2,11.5,11.2c0.8,0,1.4,0,2.1-0.1
		c0.9,0.5,1.9,0.8,3.2,0.8c3.6,0,6.7-2.9,6.7-6.5C29.2,21.9,28.9,20.9,28.5,20.1z M23.3,23.2c-0.6,0.8-1.4,1.3-2.5,1.8
		c-1,0.4-2.3,0.6-3.6,0.6c-1.6,0-2.9-0.3-4.1-0.9c-0.8-0.4-1.4-0.9-1.9-1.6c-0.5-0.8-0.8-1.3-0.8-2.1c0-0.4,0.1-0.8,0.5-1
		c0.3-0.3,0.8-0.4,1.2-0.4c0.5,0,0.8,0.1,1,0.3s0.4,0.4,0.5,0.8c0,0,0,0.1,0.1,0.1c0.1,0.3,0.3,0.6,0.4,0.9c0,0.1,0.1,0.3,0.1,0.3
		c0.3,0.3,0.6,0.6,0.9,0.8c0.5,0.1,1,0.3,1.6,0.3c0.9,0,1.6-0.1,2.3-0.6c0.6-0.4,0.9-0.9,0.9-1.3c0-0.4-0.1-0.8-0.4-1
		c-0.3-0.3-0.8-0.4-1.2-0.6c-0.4-0.1-1.2-0.3-2.1-0.4c-1.2-0.3-2.3-0.6-2.9-0.9c-0.8-0.3-1.5-0.8-1.9-1.3c-0.4-0.6-0.8-1.3-0.8-2.2
		c0-0.9,0.3-1.6,0.8-2.3c0.4-0.6,1.2-1.2,2.3-1.5c0.9-0.3,2.1-0.4,3.4-0.4c1,0,1.9,0.1,2.7,0.3c0.8,0.3,1.2,0.6,1.9,0.9
		c0.1,0.1,0.3,0.3,0.4,0.3c0.3,0.3,0.6,0.5,0.6,0.9c0.3,0.5,0.3,0.9,0.3,1.3c0,0.5-0.1,0.8-0.5,1c-0.3,0.3-0.8,0.5-1.2,0.5
		s-0.8-0.1-1-0.3c-0.1-0.1-0.5-0.4-0.8-0.9c-0.3-0.6-0.6-0.9-1-1.2c-0.4-0.3-1-0.5-1.9-0.5c-0.8,0-1.5,0.1-1.9,0.5
		c-0.5,0.3-0.8,0.6-0.8,1c0,0.3,0,0.4,0.3,0.6c0.1,0.1,0.5,0.3,0.8,0.4c0.3,0.1,0.6,0.3,0.9,0.3c0.1,0,0.3,0.1,0.5,0.1
		c0.3,0,0.6,0.1,1.2,0.3c0.5,0.1,1,0.3,1.5,0.4c0.4,0.1,0.6,0.1,1,0.3c0.8,0.3,1.3,0.6,1.9,0.9c0.6,0.3,1,0.8,1.4,1.3
		c0.3,0.6,0.4,1.2,0.4,1.9C24.1,21.5,24,22.4,23.3,23.2z"/>
	<path class="st1" d="M28.5,20.1c0.5-0.8,0.5-1.6,0.5-2.5c0-6.3-5.1-11.2-11.5-11.2c-0.6,0-1.3,0-1.9,0.1c-1-0.6-2.3-1-3.6-1
		c-3.6,0.1-6.5,3-6.5,6.6c0,1.2,0.3,2.5,0.9,3.4c-0.1,0.8-0.3,1.5-0.3,2.2c0,6.3,5.1,11.2,11.5,11.2c0.8,0,1.4,0,2.1-0.1
		c0.9,0.5,1.9,0.8,3.2,0.8c3.6,0,6.7-2.9,6.7-6.5C29.2,21.9,28.9,20.9,28.5,20.1z M23.3,23.2c-0.6,0.8-1.4,1.3-2.5,1.8
		c-1,0.4-2.3,0.6-3.6,0.6c-1.6,0-2.9-0.3-4.1-0.9c-0.8-0.4-1.4-0.9-1.9-1.6c-0.5-0.8-0.8-1.3-0.8-2.1c0-0.4,0.1-0.8,0.5-1
		c0.3-0.3,0.8-0.4,1.2-0.4c0.5,0,0.8,0.1,1,0.3s0.4,0.4,0.5,0.8c0,0,0,0.1,0.1,0.1c0.1,0.3,0.3,0.6,0.4,0.9c0,0.1,0.1,0.3,0.1,0.3
		c0.3,0.3,0.6,0.6,0.9,0.8c0.5,0.1,1,0.3,1.6,0.3c0.9,0,1.6-0.1,2.3-0.6c0.6-0.4,0.9-0.9,0.9-1.3c0-0.4-0.1-0.8-0.4-1
		c-0.3-0.3-0.8-0.4-1.2-0.6c-0.4-0.1-1.2-0.3-2.1-0.4c-1.2-0.3-2.3-0.6-2.9-0.9c-0.8-0.3-1.5-0.8-1.9-1.3c-0.4-0.6-0.8-1.3-0.8-2.2
		c0-0.9,0.3-1.6,0.8-2.3c0.4-0.6,1.2-1.2,2.3-1.5c0.9-0.3,2.1-0.4,3.4-0.4c1,0,1.9,0.1,2.7,0.3c0.8,0.3,1.2,0.6,1.9,0.9
		c0.1,0.1,0.3,0.3,0.4,0.3c0.3,0.3,0.6,0.5,0.6,0.9c0.3,0.5,0.3,0.9,0.3,1.3c0,0.5-0.1,0.8-0.5,1c-0.3,0.3-0.8,0.5-1.2,0.5
		s-0.8-0.1-1-0.3c-0.1-0.1-0.5-0.4-0.8-0.9c-0.3-0.6-0.6-0.9-1-1.2c-0.4-0.3-1-0.5-1.9-0.5c-0.8,0-1.5,0.1-1.9,0.5
		c-0.5,0.3-0.8,0.6-0.8,1c0,0.3,0,0.4,0.3,0.6c0.1,0.1,0.5,0.3,0.8,0.4c0.3,0.1,0.6,0.3,0.9,0.3c0.1,0,0.3,0.1,0.5,0.1
		c0.3,0,0.6,0.1,1.2,0.3c0.5,0.1,1,0.3,1.5,0.4c0.4,0.1,0.6,0.1,1,0.3c0.8,0.3,1.3,0.6,1.9,0.9c0.6,0.3,1,0.8,1.4,1.3
		c0.3,0.6,0.4,1.2,0.4,1.9C24.1,21.5,24,22.4,23.3,23.2z"/>
</g>
</svg>
