<?xml version="1.0" encoding="utf-8"?>
<!-- Generator: Adobe Illustrator 25.4.1, SVG Export Plug-In . SVG Version: 6.00 Build 0)  -->
<svg version="1.1" id="Layer_1" xmlns="http://www.w3.org/2000/svg" xmlns:xlink="http://www.w3.org/1999/xlink" x="0px" y="0px"
	 viewBox="0 0 35 35" style="enable-background:new 0 0 35 35;" xml:space="preserve">
<style type="text/css">
	.st0{fill:#FFFFFF;}
</style>
<path class="st0" d="M29.2,18.2c-0.3-1.1-1.6-1.6-2.7-1.2l-2.1,0.7h-0.1l-0.1-0.1l-1.4-4.4l2.3-0.7c1.2-0.3,1.8-1.5,1.3-2.6
	c-0.3-1.1-1.6-1.6-2.7-1.3l-2.1,0.7l-0.1-0.1l-0.7-2.3c-0.3-1.1-1.6-1.6-2.7-1.3s-1.6,1.6-1.3,2.7l0.7,2.3L13,12v-0.1l-0.7-2.3
	C12,8.5,10.7,8,9.6,8.3C8.5,8.7,8,10,8.3,11.1L9,13.3L6.8,14c-1.1,0.3-1.6,1.6-1.3,2.7c0.3,1.1,1.6,1.6,2.7,1.3l2.1-0.7l0.1,0.1
	l1.4,4.3l-2.1,0.7c-1.1,0.3-1.8,1.6-1.3,2.7c0.5,1.1,1.6,1.6,2.7,1.3l2-0.6V26l0.7,2.1c0.5,1.1,1.6,1.6,2.7,1.3
	c1.2-0.3,1.8-1.6,1.3-2.8l-0.7-2l0.2-0.1l4.2-1.4l0.7,2.1c0.3,1.1,1.6,1.6,2.7,1.3s1.6-1.5,1.2-2.7l-0.7-2l0.2-0.1l2.1-0.7
	c0,0,0.1-0.1,0.2-0.1C29.2,20.4,29.7,19.3,29.2,18.2z M16,20.4L16,20.4l-0.1-0.1l-1.4-4.4l4.4-1.4h0.1l0.1,0.1l1.4,4.4l0,0l0,0
	L16,20.4z"/>
</svg>
