<?xml version="1.0" encoding="utf-8"?>
<!-- Generator: Adobe Illustrator 25.4.1, SVG Export Plug-In . SVG Version: 6.00 Build 0)  -->
<svg version="1.1" id="Layer_1" xmlns="http://www.w3.org/2000/svg" xmlns:xlink="http://www.w3.org/1999/xlink" x="0px" y="0px"
	 viewBox="0 0 35 35" style="enable-background:new 0 0 35 35;" xml:space="preserve">
<style type="text/css">
	.st0{fill:#FFFFFF;}
</style>
<g>
	<path class="st0" d="M29,23.3c0,0.1,0,0.1,0,0.3c0,0.3-0.3,0.6-0.8,0.8c-0.6,0.3-1.4,0.5-2.5,0.6c0,0-0.1,0.3-0.1,0.5
		c0,0.3-0.1,0.5-0.1,0.6c0,0.3-0.3,0.5-0.6,0.5h-0.6c-0.3-0.1-0.8-0.1-1.2-0.1c-0.3,0-0.6,0.1-0.8,0.1c-0.6,0.1-1.1,0.5-1.6,1
		c-0.8,0.6-1.9,1.4-3.3,1.4h-0.3c-1.4,0-2.5-0.8-3.3-1.4c-0.6-0.5-1.1-0.8-1.7-1c-0.3-0.1-0.6-0.1-0.8-0.1c-0.5,0-0.8,0.1-1.2,0.1
		c-0.3,0.2-0.4,0.2-0.5,0.2c-0.3,0-0.6-0.3-0.6-0.5c0-0.3-0.1-0.5-0.1-0.6s-0.1-0.3-0.1-0.5c-1-0.1-1.9-0.3-2.5-0.6
		c-0.3-0.3-0.6-0.3-0.8-0.8c0-0.1,0-0.1,0-0.3c0-0.3,0.1-0.6,0.5-0.6c0.8,0,1.4-0.3,2.1-0.8c0.6-0.5,1.1-0.8,1.4-1.4
		c0.8-1,1.2-1.7,1.2-1.9c0.1-0.3,0.3-0.6,0.1-0.8c-0.3-0.5-0.8-0.6-1.4-0.8c-0.1,0-0.1-0.1-0.3-0.1c-0.5-0.1-0.8-0.3-0.8-0.5
		C8,16.3,8,16,8,15.8c0-0.1,0.1-0.5,0.5-0.6c0.3-0.1,0.5-0.1,0.8-0.1c0.1,0,0.3,0.1,0.5,0.1c0.5,0.1,0.8,0.3,1.1,0.3
		c0.3,0,0.3,0,0.5,0v-0.6c-0.1-1.7-0.3-3.6,0.3-4.9c0.5-0.8,0.8-1.4,1.4-2.2c0.6-0.5,1.2-1,1.9-1.2c1-0.5,2.1-0.6,2.7-0.6
		c0,0,0.3,0,0.5,0c0.5,0,1.4,0,2.7,1c0.8,0.3,1.4,0.8,1.9,1.2c0.6,0.6,1.2,1.4,1.4,2.2c0.6,1.2,0.5,3.2,0.3,4.9v0.5c0,0,0.1,0,0.3,0
		c0.3,0,0.6-0.1,1.1-0.3c0.1-0.1,0.3-0.1,0.5-0.1c0.1,0,0.3,0.1,0.5,0.1c0.5,0.1,0.8,0.5,0.8,1c0,0.1,0,0.3-0.3,0.6
		c-0.1,0.3-0.5,0.5-0.8,0.6c0,0-0.1,0.1-0.3,0.1c-0.5,0.1-1.2,0.3-1.4,0.8c0,0.1,0,0.5,0.1,0.8c0,0.1,1.4,3.4,4.7,3.9
		C29.2,23.2,29.5,23.6,29,23.3z"/>
	<path class="st0" d="M29,23.3c0,0.1,0,0.1,0,0.3c0,0.3-0.3,0.6-0.8,0.8c-0.6,0.3-1.4,0.5-2.5,0.6c0,0-0.1,0.3-0.1,0.5
		c0,0.3-0.1,0.5-0.1,0.6c0,0.3-0.3,0.5-0.6,0.5h-0.6c-0.3-0.1-0.8-0.1-1.2-0.1c-0.3,0-0.6,0.1-0.8,0.1c-0.6,0.1-1.1,0.5-1.6,1
		c-0.8,0.6-1.9,1.4-3.3,1.4h-0.3c-1.4,0-2.5-0.8-3.3-1.4c-0.6-0.5-1.1-0.8-1.7-1c-0.3-0.1-0.6-0.1-0.8-0.1c-0.5,0-0.8,0.1-1.2,0.1
		c-0.3,0.2-0.4,0.2-0.5,0.2c-0.3,0-0.6-0.3-0.6-0.5c0-0.3-0.1-0.5-0.1-0.6s-0.1-0.3-0.1-0.5c-1-0.1-1.9-0.3-2.5-0.6
		c-0.3-0.3-0.6-0.3-0.8-0.8c0-0.1,0-0.1,0-0.3c0-0.3,0.1-0.6,0.5-0.6c0.8,0,1.4-0.3,2.1-0.8c0.6-0.5,1.1-0.8,1.4-1.4
		c0.8-1,1.2-1.7,1.2-1.9c0.1-0.3,0.3-0.6,0.1-0.8c-0.3-0.5-0.8-0.6-1.4-0.8c-0.1,0-0.1-0.1-0.3-0.1c-0.5-0.1-0.8-0.3-0.8-0.5
		C8,16.3,8,16,8,15.8c0-0.1,0.1-0.5,0.5-0.6c0.3-0.1,0.5-0.1,0.8-0.1c0.1,0,0.3,0.1,0.5,0.1c0.5,0.1,0.8,0.3,1.1,0.3
		c0.3,0,0.3,0,0.5,0v-0.6c-0.1-1.7-0.3-3.6,0.3-4.9c0.5-0.8,0.8-1.4,1.4-2.2c0.6-0.5,1.2-1,1.9-1.2c1-0.5,2.1-0.6,2.7-0.6
		c0,0,0.3,0,0.5,0c0.5,0,1.4,0,2.7,1c0.8,0.3,1.4,0.8,1.9,1.2c0.6,0.6,1.2,1.4,1.4,2.2c0.6,1.2,0.5,3.2,0.3,4.9v0.5c0,0,0.1,0,0.3,0
		c0.3,0,0.6-0.1,1.1-0.3c0.1-0.1,0.3-0.1,0.5-0.1c0.1,0,0.3,0.1,0.5,0.1c0.5,0.1,0.8,0.5,0.8,1c0,0.1,0,0.3-0.3,0.6
		c-0.1,0.3-0.5,0.5-0.8,0.6c0,0-0.1,0.1-0.3,0.1c-0.5,0.1-1.2,0.3-1.4,0.8c0,0.1,0,0.5,0.1,0.8c0,0.1,1.4,3.4,4.7,3.9
		C29.2,23.2,29.5,23.6,29,23.3z"/>
</g>
</svg>
