<?xml version="1.0" encoding="utf-8"?>
<!-- Generator: Adobe Illustrator 25.4.1, SVG Export Plug-In . SVG Version: 6.00 Build 0)  -->
<svg version="1.1" id="Layer_1" xmlns="http://www.w3.org/2000/svg" xmlns:xlink="http://www.w3.org/1999/xlink" x="0px" y="0px"
	 viewBox="0 0 35 35" style="enable-background:new 0 0 35 35;" xml:space="preserve">
<style type="text/css">
	.st0{fill:#E0E0E0;}
	.st1{fill:#FFFFFF;}
	.st2{fill:#F2F2F2;}
</style>
<g>
	<path class="st0" d="M29.5,6.8l-3,18.2c-0.1,0.3-0.3,0.5-0.5,0.6c0,0.1-0.1,0.1-0.3,0.1s-0.1,0-0.3,0l-4.2-2L13,28.8V20L6,16.7
		c-0.2-0.1-0.5-0.5-0.5-0.8s0.1-0.5,0.5-0.8L28.5,6c0.3,0,0.6,0,0.8,0.1C29.5,6.5,29.5,6.7,29.5,6.8z"/>
	<polygon class="st0" points="21.5,23.7 21.3,23.9 13,29 16.9,21.9 17,21.6 17.4,21.8 	"/>
	<path class="st1" d="M29.5,6.8l-3,18.2c-0.1,0.3-0.3,0.5-0.5,0.6c0,0.1-0.1,0.1-0.3,0.1s-0.1,0-0.3,0l-4.2-2l-4-1.9L17,21.7
		L13,19.8L6,16.7c-0.2-0.1-0.5-0.5-0.5-0.8s0.1-0.5,0.5-0.8L28.5,6c0.3,0,0.6,0,0.8,0.1C29.5,6.5,29.5,6.7,29.5,6.8z"/>
	<polygon class="st2" points="28.7,6.8 17.4,21.8 17.2,21.9 17.1,22 13,29 13,20 	"/>
</g>
</svg>
