<?xml version="1.0" encoding="utf-8"?>
<!-- Generator: Adobe Illustrator 25.4.1, SVG Export Plug-In . SVG Version: 6.00 Build 0)  -->
<svg version="1.1" id="Layer_1" xmlns="http://www.w3.org/2000/svg" xmlns:xlink="http://www.w3.org/1999/xlink" x="0px" y="0px"
	 viewBox="0 0 35 35" style="enable-background:new 0 0 35 35;" xml:space="preserve">
<style type="text/css">
	.st0{fill:#FFFFFF;}
</style>
<g>
	<path class="st0" d="M27.5,12.5v0.6v0.1c0,7.9-6.6,14.2-14.3,14.2c-2.8-0.1-5.4-0.8-7.7-2.3c0.4,0,0.9,0,1.2,0
		c2.2,0,4.4-0.8,6.3-2.2c-2.2,0-4-1.4-4.7-3.5c0.3,0,0.6,0.1,0.9,0.1c0.4,0,0.9,0,1.3-0.1c-2.3-0.4-4-2.5-4-4.8l0,0
		c0.8,0.4,1.4,0.6,2.2,0.6c-2.2-1.5-3-4.5-1.7-6.8c2.5,3.1,6.4,5,10.3,5.3c-0.4-1.8,0.1-3.6,1.4-4.8c2.1-1.9,5.2-1.8,7.1,0.3
		c1.2-0.1,2.2-0.6,3.2-1.2c-0.4,1.2-1.2,2.2-2.2,2.8c1-0.1,1.9-0.4,2.8-0.8C29.4,10.8,28.5,11.9,27.5,12.5z"/>
	<path class="st0" d="M27.5,12.5v0.6v0.1c0,7.9-6.6,14.2-14.3,14.2c-2.8-0.1-5.4-0.8-7.7-2.3c0.4,0,0.9,0,1.2,0
		c2.2,0,4.4-0.8,6.3-2.2c-2.2,0-4-1.4-4.7-3.5c0.3,0,0.6,0.1,0.9,0.1c0.4,0,0.9,0,1.3-0.1c-2.3-0.4-4-2.5-4-4.8l0,0
		c0.8,0.4,1.4,0.6,2.2,0.6c-2.2-1.5-3-4.5-1.7-6.8c2.5,3.1,6.4,5,10.3,5.3c-0.4-1.8,0.1-3.6,1.4-4.8c2.1-1.9,5.2-1.8,7.1,0.3
		c1.2-0.1,2.2-0.6,3.2-1.2c-0.4,1.2-1.2,2.2-2.2,2.8c1-0.1,1.9-0.4,2.8-0.8C29.4,10.8,28.5,11.9,27.5,12.5z"/>
</g>
</svg>
