<?xml version="1.0" encoding="utf-8"?>
<!-- Generator: Adobe Illustrator 25.4.1, SVG Export Plug-In . SVG Version: 6.00 Build 0)  -->
<svg version="1.1" id="Layer_1" xmlns="http://www.w3.org/2000/svg" xmlns:xlink="http://www.w3.org/1999/xlink" x="0px" y="0px"
	 viewBox="0 0 35 35" style="enable-background:new 0 0 35 35;" xml:space="preserve">
<style type="text/css">
	.st0{fill:#FFFFFF;}
</style>
<g>
	<path class="st0" d="M22.2,14c-0.1-1.3-0.6-2.5-1.4-3.4c-2.1-2.7-6.2-4-9.7-2.7c-2.5,0.8-4.5,2.3-5.4,5c-0.8,2.9,0.3,5.6,3,7.5
		c0.4,0.3,0.5,0.5,0.3,1c-0.2,0.6-0.3,1.3-0.4,1.9c0.8-0.5,1.6-1,2.3-1.4c0.2-0.1,0.5-0.2,0.8-0.1c0.8,0,1.6,0.2,2.5,0.3
		c-0.2-2.3,0.5-4,2.1-5.6C18.1,14.8,20,14.2,22.2,14z M10.9,14c-0.5,0-1-0.4-1-1s0.4-1,1-1c0.5,0,1,0.5,1,1
		C11.9,13.6,11.5,14,10.9,14z M17.3,12.1c0.5,0,1,0.4,1.1,1c0,0.5-0.4,1-1,1c-0.5,0-1.1-0.4-1.1-1C16.3,12.7,16.7,12.1,17.3,12.1z"
		/>
	<path class="st0" d="M28.2,17.5c-2.3-2.7-6.9-3.4-10-1.5c-3.5,2.3-4,6.5-1,9.3c1.6,1.5,3.5,2.1,5.8,1.8c0.8-0.1,1.4-0.4,2.1-0.4
		c0.6,0.1,1.3,0.5,2.1,0.8c0-0.2,0-0.3-0.1-0.5c-0.4-0.8-0.2-1.3,0.5-1.9C29.9,23.2,30.1,19.9,28.2,17.5z M19.1,19.9
		c-0.4,0-0.8-0.3-0.8-0.8c0-0.4,0.3-0.8,0.8-0.8c0.5,0,0.8,0.4,0.8,0.8C20,19.6,19.6,19.9,19.1,19.9z M24.4,19.9
		c-0.4,0-0.8-0.4-0.8-0.8c0-0.4,0.4-0.8,0.8-0.8c0.4,0,0.8,0.4,0.8,0.8C25.1,19.6,24.8,19.9,24.4,19.9z"/>
	<path class="st0" d="M22.2,14c-0.1-1.3-0.6-2.5-1.4-3.4c-2.1-2.7-6.2-4-9.7-2.7c-2.5,0.8-4.5,2.3-5.4,5c-0.8,2.9,0.3,5.6,3,7.5
		c0.4,0.3,0.5,0.5,0.3,1c-0.2,0.6-0.3,1.3-0.4,1.9c0.8-0.5,1.6-1,2.3-1.4c0.2-0.1,0.5-0.2,0.8-0.1c0.8,0,1.6,0.2,2.5,0.3
		c-0.2-2.3,0.5-4,2.1-5.6C18.1,14.8,20,14.2,22.2,14z M10.9,14c-0.5,0-1-0.4-1-1s0.4-1,1-1c0.5,0,1,0.5,1,1
		C11.9,13.6,11.5,14,10.9,14z M17.3,12.1c0.5,0,1,0.4,1.1,1c0,0.5-0.4,1-1,1c-0.5,0-1.1-0.4-1.1-1C16.3,12.7,16.7,12.1,17.3,12.1z"
		/>
	<path class="st0" d="M28.2,17.5c-2.3-2.7-6.9-3.4-10-1.5c-3.5,2.3-4,6.5-1,9.3c1.6,1.5,3.5,2.1,5.8,1.8c0.8-0.1,1.4-0.4,2.1-0.4
		c0.6,0.1,1.3,0.5,2.1,0.8c0-0.2,0-0.3-0.1-0.5c-0.4-0.8-0.2-1.3,0.5-1.9C29.9,23.2,30.1,19.9,28.2,17.5z M19.1,19.9
		c-0.4,0-0.8-0.3-0.8-0.8c0-0.4,0.3-0.8,0.8-0.8c0.5,0,0.8,0.4,0.8,0.8C20,19.6,19.6,19.9,19.1,19.9z M24.4,19.9
		c-0.4,0-0.8-0.4-0.8-0.8c0-0.4,0.4-0.8,0.8-0.8c0.4,0,0.8,0.4,0.8,0.8C25.1,19.6,24.8,19.9,24.4,19.9z"/>
</g>
</svg>
