<?xml version="1.0" encoding="utf-8"?>
<!-- Generator: Adobe Illustrator 25.4.1, SVG Export Plug-In . SVG Version: 6.00 Build 0)  -->
<svg version="1.1" id="Layer_1" xmlns="http://www.w3.org/2000/svg" xmlns:xlink="http://www.w3.org/1999/xlink" x="0px" y="0px"
	 viewBox="0 0 35 35" style="enable-background:new 0 0 35 35;" xml:space="preserve">
<style type="text/css">
	.st0{fill:#FFFFFF;}
</style>
<g>
	<path class="st0" d="M24.2,19.8c0,0,0,0.7-0.1,1.4c-0.2,0.7-1.4,1.4-2.3,1.4c-0.5,0.1-1.4,0.2-4-0.8c-3.4-1.4-5.6-4.7-5.7-4.7
		c0-0.2-1.2-1.6-1.2-3.2c0-1.4,0.9-2.3,1.2-2.6c0.2-0.3,0.7-0.5,1.2-0.5h0.3c0.2,0,0.5,0,0.7,0.5c0.2,0.7,1,2.1,1,2.3
		c0.1,0.1,0.1,0.5,0,0.5c-0.1,0.2-0.1,0.2-0.5,0.5c-0.1,0.1-0.2,0.2-0.5,0.5c-0.1,0.1-0.2,0.5-0.1,0.7c0.1,0.2,0.9,1.4,1.8,2.1
		c1.2,1.2,2.3,1.4,2.7,1.6c0.2,0.1,0.5,0.1,0.9-0.1c0.3-0.2,0.5-0.7,0.9-1.2c0.2-0.2,0.5-0.5,0.9-0.2c0.3,0.2,2.1,0.8,2.3,1.2
		C24,19.6,24.2,19.6,24.2,19.8z"/>
	<path class="st0" d="M17.6,5.5c-6.6,0-12,5.4-12,12c0,2.4,0.7,4.7,2.1,6.7l-1.8,5.1l-0.2,0.3L6,29.4l5.3-1.8c1.9,1.2,4,1.8,6.2,1.8
		c6.4,0,11.9-5.4,11.9-11.9C29.4,10.8,24,5.5,17.6,5.5z M17.6,27.7c-2.1,0-4-0.5-5.6-1.8l0,0l0,0l-0.3-0.1l0,0l0,0l-3.1,1l1-2.9l0,0
		l0,0l-0.2-0.3c-1.2-1.7-1.9-3.8-1.9-6c0-5.8,4.5-10.3,10.3-10.3c5.7,0,10.3,4.5,10.3,10.3C27.7,23.2,23.2,27.7,17.6,27.7z"/>
	<path class="st0" d="M24.2,19.8c0,0,0,0.7-0.1,1.4c-0.2,0.7-1.4,1.4-2.3,1.4c-0.5,0.1-1.4,0.2-4-0.8c-3.4-1.4-5.6-4.7-5.7-4.7
		c0-0.2-1.2-1.6-1.2-3.2c0-1.4,0.9-2.3,1.2-2.6c0.2-0.3,0.7-0.5,1.2-0.5h0.3c0.2,0,0.5,0,0.7,0.5c0.2,0.7,1,2.1,1,2.3
		c0.1,0.1,0.1,0.5,0,0.5c-0.1,0.2-0.1,0.2-0.5,0.5c-0.1,0.1-0.2,0.2-0.5,0.5c-0.1,0.1-0.2,0.5-0.1,0.7c0.1,0.2,0.9,1.4,1.8,2.1
		c1.2,1.2,2.3,1.4,2.7,1.6c0.2,0.1,0.5,0.1,0.9-0.1c0.3-0.2,0.5-0.7,0.9-1.2c0.2-0.2,0.5-0.5,0.9-0.2c0.3,0.2,2.1,0.8,2.3,1.2
		C24,19.6,24.2,19.6,24.2,19.8z"/>
	<path class="st0" d="M17.6,5.5c-6.6,0-12,5.4-12,12c0,2.4,0.7,4.7,2.1,6.7l-1.8,5.1l-0.2,0.3L6,29.4l5.3-1.8c1.9,1.2,4,1.8,6.2,1.8
		c6.4,0,11.9-5.4,11.9-11.9C29.4,10.8,24,5.5,17.6,5.5z M17.6,27.7c-2.1,0-4-0.5-5.6-1.8l0,0l0,0l-0.3-0.1l0,0l0,0l-3.1,1l1-2.9l0,0
		l0,0l-0.2-0.3c-1.2-1.7-1.9-3.8-1.9-6c0-5.8,4.5-10.3,10.3-10.3c5.7,0,10.3,4.5,10.3,10.3C27.7,23.2,23.2,27.7,17.6,27.7z"/>
</g>
</svg>
