<svg width="22" height="13" viewBox="0 0 22 13" xmlns="http://www.w3.org/2000/svg">
    <path d="m2.21.54v4.89c0,.93.34,1.48,1.29,1.48s1.29-.55,1.29-1.48V.54h2.21v5.34c.13,1.48-.88,2.82-2.34,3.1v3.48h-2.31v-3.48c-.71-.13-1.33-.52-1.76-1.1C.18,7.29-.02,6.59,0,5.88V.54h2.21Z" />
    <path d="m15.16,4.73c.12,2.3-1.65,4.27-3.95,4.39-.1,0-.19,0-.29,0-2.31.04-4.21-1.8-4.24-4.11,0-.1,0-.19,0-.29-.12-2.3,1.65-4.27,3.95-4.39.1,0,.19,0,.29,0,2.31-.04,4.21,1.8,4.24,4.11,0,.1,0,.19,0,.29m-6.27,0c-.13,1.07.63,2.05,1.71,2.18.11.01.22.02.32.01,1.08.05,1.99-.78,2.04-1.86,0-.11,0-.22-.01-.32.13-1.07-.63-2.05-1.71-2.18-.11-.01-.22-.02-.32-.01-1.08-.05-1.99.78-2.04,1.86,0,.11,0,.22.01.32" />
    <path d="m22,4.73c.09,2.34-1.74,4.31-4.08,4.4s-4.31-1.74-4.4-4.08c0-.1,0-.21,0-.31-.09-2.34,1.74-4.31,4.08-4.4,2.34-.09,4.31,1.74,4.4,4.08,0,.1,0,.21,0,.31m-6.27,0c-.08,1.12.76,2.1,1.88,2.19s2.1-.76,2.19-1.88c0-.1,0-.21,0-.31.08-1.12-.76-2.1-1.88-2.19-1.12-.08-2.1.76-2.19,1.88,0,.1,0,.21,0,.31" />
</svg>
