<svg id="eMVYhCdXp5O1" xmlns="http://www.w3.org/2000/svg" xmlns:xlink="http://www.w3.org/1999/xlink" viewBox="0 0 40 40" shape-rendering="geometricPrecision" text-rendering="geometricPrecision"><style><![CDATA[#eMVYhCdXp5O2_ts {animation: eMVYhCdXp5O2_ts__ts 1500ms linear infinite normal forwards}@keyframes eMVYhCdXp5O2_ts__ts { 0% {transform: translate(20px,20px) scale(1,1)} 46.666667% {transform: translate(20px,20px) scale(-1,1)} 100% {transform: translate(20px,20px) scale(1,1)}}]]></style><g id="eMVYhCdXp5O2_ts" transform="translate(20,20) scale(1,1)"><g id="eMVYhCdXp5O2" transform="translate(-20,-20)"><g id="eMVYhCdXp5O3"><circle id="eMVYhCdXp5O4" r="19.8" transform="matrix(1 0 0 1 20 20)" fill="rgb(30,43,54)" stroke="none" stroke-width="1"/><g id="eMVYhCdXp5O5"><circle id="eMVYhCdXp5O6" r="2.2" transform="matrix(1 0 0 1 26.6 32)" fill="rgb(255,255,255)" stroke="none" stroke-width="1"/><circle id="eMVYhCdXp5O7" r="2.2" transform="matrix(1 0 0 1 13 32)" fill="rgb(255,255,255)" stroke="none" stroke-width="1"/><path id="eMVYhCdXp5O8" d="M30.5,25L13.9,25C13.8,25,13.1,24.9,13.4,24.1C16.4,19.7,19.4,15.3,22.4,10.9C22.9,10.2,23.7,9.3,23.9,8.5C23.9,8.4,24,8.2,24,8.1L24,6.8C24,6.3,23.6,5.8,23.2,5.8L13.6,5.8L11.9,5.8L9.1,5.8C8.9,5.8,8.7,6,8.7,6.3L8.7,8.6C8.7,8.9,8.9,9,9.1,9L11.7,9L13.6,9L18.8,9C18.8,9,19.8,9,19.2,10L11,21.9L11,22L9.4,24.4L9,24.8C9,24.8,8.9,24.9,8.9,24.9L8.9,24.9C8.9,25,8.8,25,8.8,25.1C8.7,25.2,8.6,25.4,8.6,25.6L8.6,27.5C8.6,27.9,8.8,28.2,9.1,28.2L30.4,28.2C30.8,28.2,31.2,27.8,31.2,27.2L31.2,25.9C31.3,25.4,31,25,30.5,25Z" fill="rgb(255,255,255)" stroke="none" stroke-width="1"/></g></g></g></g></svg>