<svg xmlns="http://www.w3.org/2000/svg" viewBox="0 0 222.2 229.6" xmlns:v="https://vecta.io/nano"><path d="M97.3 131.4l-91.4-91C-1.9 32.7-2 20 5.8 12.2l5.7-5.7c7.8-7.8 20.5-7.9 28.3-.1l71.5 71.2 71-71.7c7.8-7.8 20.4-7.9 28.3-.1l5.7 5.6c7.8 7.8 7.9 20.4.1 28.3l-90.8 91.6c-7.7 7.9-20.4 7.9-28.3.1 0 .1 0 .1 0 0z" fill="#239cef"/><path d="M134.1 154.1c-12.4 12.6-32.7 12.6-45.3.2L45 110.6C22.4 147.3 33.7 195.4 70.4 218s84.7 11.3 107.3-25.4c15.6-25.3 15.5-57.2-.3-82.4l-43.3 43.9z" fill="#094168"/></svg>