<svg width="20" height="20" viewBox="0 0 20 20" fill="none" xmlns="http://www.w3.org/2000/svg">
<path fill-rule="evenodd" clip-rule="evenodd" d="M10 20C15.523 20 20 15.523 20 10C20 4.477 15.523 0 10 0C4.477 0 0 4.477 0 10C0 15.523 4.477 20 10 20ZM5.094 16.32L16.32 5.094C17.5165 6.63317 18.1098 8.55629 17.9885 10.5021C17.8671 12.4478 17.0394 14.2823 15.6608 15.6608C14.2823 17.0394 12.4478 17.8671 10.5021 17.9885C8.55629 18.1098 6.63317 17.5165 5.094 16.32V16.32ZM3.68 14.906C2.48347 13.3668 1.89016 11.4437 2.01154 9.49794C2.13291 7.55218 2.96062 5.7177 4.33916 4.33916C5.7177 2.96062 7.55218 2.13291 9.49794 2.01154C11.4437 1.89016 13.3668 2.48347 14.906 3.68L3.68 14.906Z" fill="#FF8A8A"/>
</svg>
