<svg width="13" height="13" viewBox="0 0 13 13" fill="none" xmlns="http://www.w3.org/2000/svg">
    <path d="M6.50781 0C3.4788 0 0.776483 2.17441 0.142857 5.13535C-0.173708 6.61483 0.0395463 8.18805 0.745805 9.52675C1.42553 10.8151 2.53989 11.8563 3.87314 12.4464C5.25996 13.0604 6.85206 13.1674 8.30968 12.7487C9.7159 12.3449 10.9628 11.4587 11.8116 10.2691C13.5865 7.78195 13.3492 4.28838 11.2611 2.05981C10.0373 0.753733 8.29907 0 6.50781 0V0Z" fill="#6E42D3"/>
    <path d="M9.84818 6.87526L7.94556 8.83714C7.46386 9.33396 6.70246 8.5813 7.1822 8.0868L8.14223 7.0969H3.59266C3.26957 7.0969 3 6.82531 3 6.50018C3 6.17505 3.26975 5.90345 3.59266 5.90345H8.11947L7.14042 4.91785C6.65392 4.42801 7.40821 3.66836 7.89471 4.1582L9.84374 6.12044C10.0504 6.3283 10.0523 6.66489 9.84818 6.87526Z" fill="white"/>
</svg>