<svg width="24" height="24" viewBox="0 0 24 24" fill="none" xmlns="http://www.w3.org/2000/svg">
<path d="M10 14C10.6583 14.6719 11.5594 15.0505 12.5 15.0505C13.4406 15.0505 14.3417 14.6719 15 14L19 10C19.9175 9.11183 20.2848 7.79796 19.961 6.56273C19.6372 5.32749 18.6725 4.36282 17.4373 4.03899C16.202 3.71517 14.8882 4.08251 14 5.00001L13.5 5.50001" stroke="#ffffff" stroke-width="1.5" stroke-linecap="round" stroke-linejoin="round"/>
<path d="M13.9998 10C13.3415 9.32812 12.4404 8.94949 11.4998 8.94949C10.5592 8.94949 9.65811 9.32812 8.9998 10L4.9998 14C3.65708 15.3871 3.675 17.5947 5.04007 18.9597C6.40513 20.3248 8.61275 20.3427 9.9998 19L10.4998 18.5" stroke="#ffffff" stroke-width="1.5" stroke-linecap="round" stroke-linejoin="round"/>
</svg>
