<?xml version="1.0" encoding="UTF-8"?>
<svg width="18px" height="18px" viewBox="0 0 18 18" version="1.1" xmlns="http://www.w3.org/2000/svg" xmlns:xlink="http://www.w3.org/1999/xlink">
    <!-- Generator: Sketch 53.2 (72643) - https://sketchapp.com -->
    <title>steps</title>
    <desc>Created with Sketch.</desc>
    <g id="Page-1" stroke="none" stroke-width="1" fill="none" fill-rule="evenodd">
        <g id="steps" transform="translate(1.000000, 1.000000)" fill="#2B87DA" fill-rule="nonzero" stroke="#2B87DA" stroke-width="0.3">
            <path d="M9.0108109,8.08629399 C9.70943189,8.70710778 9.26271989,9.85526725 8.32186215,9.85526725 C8.17551975,9.85526725 8.05686912,9.73832599 8.05686912,9.5940919 C8.05686912,9.44985782 8.17551975,9.33291656 8.32186215,9.33291656 C8.59752115,9.33291656 8.82177149,9.11186427 8.82177149,8.84020927 C8.82177149,8.56855426 8.59748802,8.34750198 8.32186215,8.34750198 L8.02679242,8.34750198 C7.88045002,8.34750198 7.76179939,8.23056072 7.76179939,8.08632664 C7.76179939,7.94209255 7.88045002,7.82515129 8.02679242,7.82515129 L8.32186215,7.82515129 C8.59752115,7.82515129 8.82177149,7.60413166 8.82177149,7.33244401 C8.82177149,7.06075635 8.59748802,6.83973672 8.32186215,6.83973672 L7.19868921,6.83973672 L7.19868921,9.59412455 C7.19868921,9.73835863 7.08003858,9.85529989 6.93369618,9.85529989 C6.78735378,9.85529989 6.66870315,9.73835863 6.66870315,9.59412455 L6.66870315,6.57856137 C6.66870315,6.43432729 6.78735378,6.31738603 6.93369618,6.31738603 L8.32186215,6.31738603 C9.26285239,6.31735338 9.70936564,7.46554549 9.0108109,8.08629399 Z M9.24937087,15.0569007 C9.14029311,14.9607229 8.9727844,14.9699293 8.87520071,15.077403 C8.29085797,15.7212655 7.19872233,15.3151052 7.19872233,14.4465992 L7.19872233,13.4295498 C7.19872233,12.5605215 8.29079172,12.1549814 8.87513447,12.7986807 C8.97271815,12.906187 9.14022686,12.9153935 9.24930462,12.819183 C9.35838237,12.7230052 9.36769025,12.5579097 9.27010657,12.4504034 C8.3644929,11.4527136 6.66873628,12.0806118 6.66873628,13.4295498 L6.66873628,14.4465992 C6.66873628,15.7944599 8.36320106,16.4249698 9.27020594,15.4256803 C9.3677565,15.318174 9.35844862,15.1530785 9.24937087,15.0569007 Z M6.67390364,3.2727671 L7.75540643,0.25596334 C7.83834925,0.0245293374 8.17204172,0.0242355151 8.25511703,0.25596334 C8.36426103,0.560395851 9.22108286,2.95047672 9.33661982,3.2727671 C9.38537854,3.40877416 9.31303544,3.55797057 9.17504032,3.60602684 C9.03740957,3.65398516 8.88580044,3.5831087 8.83690922,3.44677517 L8.57910413,2.72759621 L7.43145246,2.72759621 L7.17364737,3.44677517 C7.12488865,3.58281488 6.97344514,3.6540831 6.83551626,3.60602684 C6.69748802,3.55797057 6.62514493,3.40874151 6.67390364,3.2727671 L6.67390364,3.2727671 Z M7.61870315,2.20524552 L8.39185343,2.20524552 L8.00529486,1.12691782 L7.61870315,2.20524552 Z M12.5151118,1.58355026 C12.3687694,1.58355026 12.2501188,1.70049152 12.2501188,1.84472561 C12.2501188,1.98895969 12.3687694,2.10590095 12.5151118,2.10590095 C14.1132847,2.10590095 15.413473,3.38735778 15.413473,4.96250628 C15.413473,6.53765479 14.1132847,7.81911161 12.5151118,7.81911161 L10.6767227,7.81911161 C10.5303803,7.81911161 10.4117297,7.93605287 10.4117297,8.08028696 C10.4117297,8.22452104 10.5303803,8.3414623 10.6767227,8.3414623 L12.5151118,8.3414623 C14.4055058,8.3414623 15.9434591,6.8256659 15.9434591,4.96250628 C15.9434591,3.09934667 14.4055389,1.58355026 12.5151118,1.58355026 Z M10.6767227,2.10590095 L11.0410881,2.10590095 C11.1874305,2.10590095 11.3060811,1.98895969 11.3060811,1.84472561 C11.3060811,1.70049152 11.1874305,1.58355026 11.0410881,1.58355026 L10.6767227,1.58355026 C10.5303803,1.58355026 10.4117297,1.70049152 10.4117297,1.84472561 C10.4117297,1.98895969 10.5303803,2.10590095 10.6767227,2.10590095 Z M5.37686215,7.83112568 L3.53847303,7.83112568 C3.39213063,7.83112568 3.27348,7.94806694 3.27348,8.09230102 C3.27348,8.23653511 3.39213063,8.35347637 3.53847303,8.35347637 L5.37686215,8.35347637 C5.52320455,8.35347637 5.64185518,8.23653511 5.64185518,8.09230102 C5.64185518,7.94806694 5.52323767,7.83112568 5.37686215,7.83112568 Z M5.37686215,14.066687 L3.53847303,14.066687 C1.94030009,14.066687 0.640111802,12.7852302 0.640111802,11.2100817 C0.640111802,10.1334843 1.24432903,9.15900642 2.21695281,8.66698472 C2.34716375,8.60110324 2.39850615,8.4436798 2.33169479,8.31537741 C2.2648503,8.18704238 2.10512575,8.13640701 1.9749148,8.20228849 C0.824679445,8.78418716 0.110125749,9.93672131 0.110125749,11.2101143 C0.110125749,13.073274 1.64807903,14.5890704 3.53847303,14.5890704 L5.37686215,14.5890704 C5.52320455,14.5890704 5.64185518,14.4721291 5.64185518,14.327895 C5.64185518,14.1836609 5.52323767,14.066687 5.37686215,14.066687 Z" id="Shape"></path>
        </g>
    </g>
</svg>