<?xml version="1.0" encoding="UTF-8" standalone="no"?>
<!-- Created with Inkscape (http://www.inkscape.org/) -->

<svg
   width="24"
   height="13.744623"
   viewBox="0 0 24 13.744624"
   version="1.1"
   id="svg1"
   xmlns="http://www.w3.org/2000/svg"
   xmlns:svg="http://www.w3.org/2000/svg">
  <defs
     id="defs1" />
  <g
     id="layer1"
     transform="translate(0,-4.8755901)">
    <path
       d="M 23.707456,18.327668 V 15.405081 H 13.462555 c -0.807816,0 -1.463142,-0.654761 -1.463142,-1.461874 V 6.6300173 c 0,-0.8079967 -0.654445,-1.4618817 -1.461967,-1.4618817 H 3.2185296 c -0.8078122,0 -1.4631363,0.65476 -1.4631363,1.4618817 v 7.3123117 c 0,0.806825 -0.6541545,1.461584 -1.4628478,1.461584 v 2.923755 z"
       fill="none"
       stroke="#000000"
       stroke-linecap="round"
       stroke-linejoin="round"
       stroke-miterlimit="10"
       stroke-width="0.585091"
       id="path1" />
    <path
       d="m 23.707456,15.403913 c -0.807816,0 -1.463141,-0.653593 -1.463141,-1.461584 V 8.8232713 c 0,-0.80712 -0.655325,-1.461879 -1.464309,-1.461879 h -7.317451 c -0.808986,0 -1.463142,0.654759 -1.463142,1.461879 v 5.1190577 c 0,0.807991 0.655326,1.461584 1.464019,1.461584 z"
       fill="none"
       stroke="#000000"
       stroke-linecap="round"
       stroke-linejoin="round"
       stroke-miterlimit="10"
       stroke-width="0.585091"
       id="path2" />
    <path
       d="M 17.121717,9.5546463 V 13.20978 Z"
       fill="none"
       stroke="#000000"
       stroke-linecap="round"
       stroke-linejoin="round"
       stroke-miterlimit="10"
       stroke-width="0.585094"
       id="path3" />
    <path
       d="m 15.292428,11.382361 h 3.658577 z"
       fill="none"
       stroke="#000000"
       stroke-linecap="round"
       stroke-linejoin="round"
       stroke-miterlimit="10"
       stroke-width="0.585094"
       id="path4" />
  </g>
</svg>
