<?xml version="1.0" encoding="UTF-8" standalone="no"?>
<!-- Created with Inkscape (http://www.inkscape.org/) -->

<svg
   width="24"
   height="24"
   viewBox="0 0 24 24"
   version="1.1"
   id="svg1"
   xmlns="http://www.w3.org/2000/svg"
   xmlns:svg="http://www.w3.org/2000/svg">
  <defs
     id="defs1" />
  <g
     id="layer1">
    <g
       fill="none"
       fill-rule="evenodd"
       id="02-Sign-Control/External-Link"
       transform="matrix(0.5959368,0,0,0.5959368,-2.3837472,-2.2212188)">
      <path
         d="m 40,24.965598 c 0,-0.552285 0.447715,-1 1,-1 0.552285,0 1,0.447715 1,1 0,3.469059 -0.129275,6.918922 -0.387834,10.349539 -0.334407,4.436897 -3.860867,7.963515 -8.297748,8.298115 C 29.895466,43.871087 26.457309,44 23,44 19.540669,44 16.100512,43.870937 12.679584,43.6128 8.2429399,43.278024 4.7167289,39.751579 4.3822446,35.314912 4.127407,31.934695 4,28.519214 4,25.068519 4,21.588185 4.1296049,18.127086 4.3888246,14.685273 4.723001,10.248145 8.2495818,6.7212457 12.68668,6.3866649 16.10527,6.128885 19.543061,6 23,6 23.552285,6 24,6.4477152 24,7 24,7.5522847 23.552285,8 23,8 19.593137,8 16.205509,8.1270043 12.837064,8.381003 9.3859872,8.6412326 6.6430914,11.384376 6.3831764,14.835476 6.1277288,18.227205 6,21.638202 6,25.068519 6,28.469267 6.1255362,31.834597 6.3765849,35.164557 6.6367394,38.615298 9.3793476,41.358088 12.830071,41.61847 16.200821,41.87282 19.590779,42 23,42 c 3.407228,0 6.795216,-0.127032 10.164018,-0.381085 3.450907,-0.260245 6.19371,-3.00317 6.453804,-6.454089 C 39.872604,31.784331 40,28.384605 40,24.965598 Z M 40.834267,5.7513115 c -0.09391,-0.015809 -0.190403,-0.024039 -0.288813,-0.024039 H 30.543365 c -0.552285,0 -1,-0.4477152 -1,-1 0,-0.5522847 0.447715,-1 1,-1 h 10.002089 c 2.058516,0 3.727273,1.6687569 3.727273,3.7272728 v 9.9999997 c 0,0.552285 -0.447715,1 -1,1 -0.552285,0 -1,-0.447715 -1,-1 V 7.4545455 c 0,-0.098534 -0.0083,-0.1951415 -0.0241,-0.2891685 L 30.340158,19.070833 C 29.397229,20.013522 27.983195,18.59913 28.926123,17.65644 Z"
         fill="#292f48"
         fill-rule="nonzero"
         id="Combined-Shape" />
    </g>
  </g>
</svg>
