<?xml version="1.0" encoding="UTF-8" standalone="no"?>
<!-- Created with Inkscape (http://www.inkscape.org/) -->

<svg
   width="24"
   height="24"
   viewBox="0 0 24 24"
   version="1.1"
   id="svg1"
   xmlns="http://www.w3.org/2000/svg"
   xmlns:svg="http://www.w3.org/2000/svg">
  <defs
     id="defs1" />
  <g
     id="layer1">
    <g
       fill="#000000"
       transform="matrix(0.3,0,0,0.3,-2.4,-2.4)"
       id="g2">
      <path
         d="M 73.788323,16 44.56401,45.224313 c -1.715534,1.715534 -1.718018,4.503944 2.89e-4,6.222251 1.71481,1.71481 4.504103,1.718436 6.222251,2.89e-4 L 80,22.233402 v 9.769759 C 80,34.20588 81.790861,36 84,36 c 2.204644,0 4,-1.789446 4,-3.996839 V 11.996839 C 88,10.896005 87.552712,9.8972231 86.829463,9.173436 86.105113,8.4484102 85.10633,8 84.003161,8 H 63.996839 C 61.79412,8 60,9.790861 60,12 c 0,2.204644 1.789446,4 3.996839,4 z M 88,56 V 36.985151 78.029699 C 88,83.536144 84.032788,88 79.132936,88 H 16.867063 C 11.96992,88 8,83.527431 8,78.029699 V 17.970301 C 8,12.463856 11.967212,8 16.867063,8 H 59.566468 40 c 2.209139,0 4,1.790861 4,4 0,2.209139 -1.790861,4 -4,4 H 18.277794 C 17.005287,16 16,17.194737 16,18.668519 V 77.331481 C 16,78.778664 17.019803,80 18.277794,80 H 77.722206 C 78.994713,80 80,78.805263 80,77.331481 V 56 c 0,-2.209139 1.790861,-4 4,-4 2.209139,0 4,1.790861 4,4 z"
         id="path1" />
    </g>
  </g>
</svg>
