<?xml version="1.0" encoding="UTF-8" standalone="no"?>
<svg
   enable-background="new 0 0 512 512"
   height="24"
   version="1.1"
   viewBox="0 0 24 24"
   width="24"
   xml:space="preserve"
   id="svg1"
   sodipodi:docname="outbound-1.svg"
   inkscape:version="1.3 (0e150ed6c4, 2023-07-21)"
   xmlns:inkscape="http://www.inkscape.org/namespaces/inkscape"
   xmlns:sodipodi="http://sodipodi.sourceforge.net/DTD/sodipodi-0.dtd"
   xmlns="http://www.w3.org/2000/svg"
   xmlns:svg="http://www.w3.org/2000/svg"><defs
     id="defs1" /><sodipodi:namedview
     id="namedview1"
     pagecolor="#ffffff"
     bordercolor="#000000"
     borderopacity="0.25"
     inkscape:showpageshadow="2"
     inkscape:pageopacity="0.0"
     inkscape:pagecheckerboard="0"
     inkscape:deskcolor="#d1d1d1"
     inkscape:zoom="2.9941553"
     inkscape:cx="-11.522448"
     inkscape:cy="46.59077"
     inkscape:window-width="1920"
     inkscape:window-height="1009"
     inkscape:window-x="-8"
     inkscape:window-y="-8"
     inkscape:window-maximized="1"
     inkscape:current-layer="svg1" /><g
     id="g1"
     transform="matrix(0.046875,0,0,0.046875,0.0234375,0.02343964)"><path
       d="M 473.563,227.063 407.5,161 262.75,305.75 c -25,25 -49.563,41 -74.5,16 -25,-25 -9,-49.5 16,-74.5 L 349,102.5 283.937,37.406 c -14.188,-14.188 -2,-37.906 19,-37.906 h 170.625 c 20.938,0 37.938,16.969 37.938,37.906 v 170.688 c 0,20.937 -23.687,33.187 -37.937,18.969 z M 63.5,447.5 h 320 V 259.313 l 64,64 V 447.5 c 0,35.375 -28.625,64 -64,64 h -320 c -35.375,0 -64,-28.625 -64,-64 v -320 c 0,-35.344 28.625,-64 64,-64 h 124.188 l 64,64 H 63.5 Z"
       id="path1" /></g></svg>
