<?xml version="1.0" ?><svg height="24" viewBox="0 0 24 24" width="24" xmlns="http://www.w3.org/2000/svg"><g fill="none" clip-path="url(#clip0_31_188)"><path d="M9.16724 14.8891L20.1672 3.88908" stroke="black" stroke-linecap="round"/><path d="M13.4497 3.53554L20.5208 3.53554L20.5208 10.6066" stroke="black" stroke-linecap="round" stroke-linejoin="round"/><path d="M17.5 13.5L17.5 16.26C17.5 17.4179 17.5 17.9968 17.2675 18.4359C17.0799 18.7902 16.7902 19.0799 16.4359 19.2675C15.9968 19.5 15.4179 19.5 14.26 19.5L7.74 19.5C6.58213 19.5 6.0032 19.5 5.56414 19.2675C5.20983 19.0799 4.92007 18.7902 4.73247 18.4359C4.5 17.9968 4.5 17.4179 4.5 16.26L4.5 9.74C4.5 8.58213 4.5 8.0032 4.73247 7.56414C4.92007 7.20983 5.20982 6.92007 5.56414 6.73247C6.0032 6.5 6.58213 6.5 7.74 6.5L11 6.5" stroke="black" stroke-linecap="round"/></g><defs><clipPath id="clip0_31_188"><rect fill="white" height="24" width="24"/></clipPath></defs></svg>