<?xml version="1.0" encoding="UTF-8" standalone="no"?>
<!-- Created with Inkscape (http://www.inkscape.org/) -->

<svg
   width="24"
   height="24"
   viewBox="0 0 24 24"
   version="1.1"
   id="svg1"
   inkscape:version="1.3 (0e150ed6c4, 2023-07-21)"
   sodipodi:docname="outbound-3-2.svg"
   xmlns:inkscape="http://www.inkscape.org/namespaces/inkscape"
   xmlns:sodipodi="http://sodipodi.sourceforge.net/DTD/sodipodi-0.dtd"
   xmlns="http://www.w3.org/2000/svg"
   xmlns:svg="http://www.w3.org/2000/svg">
  <sodipodi:namedview
     id="namedview1"
     pagecolor="#ffffff"
     bordercolor="#000000"
     borderopacity="0.25"
     inkscape:showpageshadow="2"
     inkscape:pageopacity="0.0"
     inkscape:pagecheckerboard="0"
     inkscape:deskcolor="#d1d1d1"
     inkscape:document-units="mm"
     inkscape:zoom="16.388211"
     inkscape:cx="17.787176"
     inkscape:cy="20.472033"
     inkscape:window-width="1920"
     inkscape:window-height="1009"
     inkscape:window-x="-8"
     inkscape:window-y="-8"
     inkscape:window-maximized="1"
     inkscape:current-layer="action_005-open-new-tab-arrow-window" />
  <defs
     id="defs1" />
  <g
     inkscape:label="Layer 1"
     inkscape:groupmode="layer"
     id="layer1">
    <g
       fill="#000000"
       id="action_005-open-new-tab-arrow-window"
       transform="matrix(0.92307697,0,0,0.92307697,-209.5794,-43.317149)">
      <g
         fill="none"
         fill-rule="evenodd"
         id="action"
         stroke="none"
         stroke-width="1"
         transform="translate(225.04432,44.926904)">
        <g
           fill="#000000"
           id="action_005-open-new-tab-arrow-window-2"
           transform="translate(-224.99998,-44.999995)">
          <g
             transform="translate(227,47)"
             id="g2">
            <path
               d="m 21,12 c 0.552285,0 1,-0.447715 1,-1 V 5 C 22,4.4477152 21.552285,4 21,4 h -6 c -0.552285,0 -1,0.4477152 -1,1 0,0.5522847 0.447715,1 1,1 h 3.580002 l -6.287109,6.292893 c -0.390524,0.390524 -0.390524,1.02369 0,1.414214 0.390524,0.390524 1.02369,0.390524 1.414214,0 L 20,7.4190674 V 11 c 0,0.552285 0.447715,1 1,1 z"
               id="Shape" />
            <path
               d="m 20,18 v 6.008845 C 20,25.108529 19.110326,26 18.008845,26 H 1.991155 C 0.89147046,26 0,25.110326 0,24.008845 V 7.991155 C 0,6.8914705 0.88967395,6 1.991155,6 H 8 V 8 H 2 v 16 h 16 v -6 z"
               id="shape" />
            <path
               d="M 24.008845,0 C 25.108529,0 26,0.88967395 26,1.991155 v 16.01769 C 26,19.108529 25.110326,20 24.008845,20 H 7.991155 C 6.8914705,20 6,19.110326 6,18.008845 V 1.991155 C 6,0.89147046 6.8896739,0 7.991155,0 Z M 8,2 H 24 V 18 H 8 Z"
               id="path1" />
          </g>
        </g>
      </g>
    </g>
  </g>
</svg>
