<?xml version="1.0" encoding="UTF-8" standalone="no"?>
<!-- Created with Inkscape (http://www.inkscape.org/) -->

<svg
   width="24"
   height="24"
   viewBox="0 0 24 24"
   version="1.1"
   id="svg1"
   xmlns="http://www.w3.org/2000/svg"
   xmlns:svg="http://www.w3.org/2000/svg">
  <defs
     id="defs1" />
  <g
     id="layer1">
    <g
       fill="none"
       fill-rule="evenodd"
       id="action"
       stroke="none"
       stroke-width="1"
       transform="matrix(0.92307696,0,0,0.92307696,-1.8461539,-1.8461539)">
      <g
         fill="#000000"
         id="action_006-open-new-tab-arrow-window"
         transform="translate(-270,-45)">
        <g
           transform="translate(272,47)"
           id="g2">
          <path
             d="m 20,22 v 2.008845 C 20,25.108529 19.110326,26 18.008845,26 H 16 v -2 h 2 v -2 z m 0,-2 v -2 h -2 v 2 z m -6,6 h -3 v -2 h 3 z M 9,26 H 6 V 24 H 9 Z M 4,26 H 1.991155 C 0.89147046,26 0,25.110326 0,24.008845 V 22 h 2 v 2 H 4 Z M 0,20 v -3 h 2 v 3 z m 0,-5 v -3 h 2 v 3 z M 0,10 V 7.991155 C 0,6.8914705 0.88967395,6 1.991155,6 H 4 V 8 H 2 v 2 z M 6,6 H 8 V 8 H 6 Z"
             id="shape" />
          <path
             d="M 24.008845,0 C 25.108529,0 26,0.88967395 26,1.991155 v 16.01769 C 26,19.108529 25.110326,20 24.008845,20 H 7.991155 C 6.8914705,20 6,19.110326 6,18.008845 V 1.991155 C 6,0.89147046 6.8896739,0 7.991155,0 Z M 8,2 H 24 V 18 H 8 Z"
             id="Shape" />
          <path
             d="m 21,12 c 0.552285,0 1,-0.447715 1,-1 V 5 C 22,4.4477152 21.552285,4 21,4 h -6 c -0.552285,0 -1,0.4477152 -1,1 0,0.5522847 0.447715,1 1,1 h 3.580002 l -6.287109,6.292893 c -0.390524,0.390524 -0.390524,1.02369 0,1.414214 0.390524,0.390524 1.02369,0.390524 1.414214,0 L 20,7.4190674 V 11 c 0,0.552285 0.447715,1 1,1 z"
             id="path1" />
        </g>
      </g>
    </g>
  </g>
</svg>
