<?xml version="1.0" ?><!DOCTYPE svg  PUBLIC '-//W3C//DTD SVG 1.1//EN'  'http://www.w3.org/Graphics/SVG/1.1/DTD/svg11.dtd'><svg enable-background="new 0 0 56.693 56.693" height="56.693px" id="Layer_1" version="1.1" viewBox="0 0 56.693 56.693" width="56.693px" xml:space="preserve" xmlns="http://www.w3.org/2000/svg" xmlns:xlink="http://www.w3.org/1999/xlink"><g><path d="M51.617,7.497c-1.029-0.525-2.271-0.429-3.206,0.25L22.829,26.328c-0.796,0.578-1.269,1.505-1.269,2.489   c0,0.987,0.47,1.913,1.269,2.491L48.411,49.89c0.534,0.389,1.171,0.588,1.808,0.588c0.479,0,0.957-0.109,1.398-0.336   c1.03-0.525,1.682-1.584,1.682-2.742V10.24C53.299,9.083,52.647,8.021,51.617,7.497z" fill="#474A56"/><path d="M14.512,7.357H6.744c-0.947,0-1.716,0.769-1.716,1.716v39.918c0,0.949,0.769,1.717,1.716,1.717h7.768   c0.947,0,1.717-0.768,1.717-1.717V9.073C16.229,8.125,15.459,7.357,14.512,7.357z" fill="#474A56"/></g></svg>