<?xml version="1.0" encoding="utf-8"?>
<!-- Generator: Adobe Illustrator 25.2.0, SVG Export Plug-In . SVG Version: 6.00 Build 0)  -->
<svg version="1.1" id="Layer_1" xmlns="http://www.w3.org/2000/svg" xmlns:xlink="http://www.w3.org/1999/xlink" x="0px" y="0px"
	 viewBox="0 0 418.5 430.2" style="enable-background:new 0 0 418.5 430.2;" xml:space="preserve">
<style type="text/css">
	.st0{fill:#232323;}
	.st1{fill-rule:evenodd;clip-rule:evenodd;fill:#232323;}
</style>
<path class="st0" d="M382.8,401.4L382.8,401.4c-19.7,0-35.7-16-35.7-35.7V126.8c0-19.7,16-35.7,35.7-35.7h0
	c19.7,0,35.7,16,35.7,35.7v238.9C418.5,385.4,402.5,401.4,382.8,401.4z"/>
<path class="st0" d="M349.4,406.9L349.4,406.9c-17.1,9.9-38.9,4-48.8-13.1L158.2,147.2c-9.9-17.1-4-38.9,13.1-48.8l0,0
	c17.1-9.9,38.9-4,48.8,13.1l142.4,246.7C372.3,375.2,366.4,397.1,349.4,406.9z"/>
<path class="st0" d="M17.9,425.6L17.9,425.6c-17.1-9.9-22.9-31.7-13.1-48.8L157.7,112c9.9-17.1,31.7-22.9,48.8-13.1l0,0
	c17.1,9.9,22.9,31.7,13.1,48.8L66.6,412.5C56.8,429.6,34.9,435.5,17.9,425.6z"/>
<path class="st0" d="M0,394.5L0,394.5c0-19.7,16-35.7,35.7-35.7h170.4c19.7,0,35.7,16,35.7,35.7v0c0,19.7-16,35.7-35.7,35.7H35.7
	C16,430.2,0,414.2,0,394.5z"/>
<circle class="st1" cx="382.8" cy="35.7" r="35.7"/>
<path class="st0" d="M299,388.7c8.3,24.1,31.1,41.5,58.1,41.5c33.9,0,61.4-27.5,61.4-61.4c0-3.4-0.3-6.8-0.8-10H299V388.7z"/>
</svg>
