<?xml version="1.0" encoding="utf-8"?>
<!-- Generator: Adobe Illustrator 25.2.0, SVG Export Plug-In . SVG Version: 6.00 Build 0)  -->
<svg version="1.1" id="Layer_1" xmlns="http://www.w3.org/2000/svg" xmlns:xlink="http://www.w3.org/1999/xlink" x="0px" y="0px"
	 viewBox="0 0 632 666.4" style="enable-background:new 0 0 632 666.4;" xml:space="preserve">
<style type="text/css">
	.st0{fill:#333333;}
</style>
<path class="st0" d="M380.5,476.3c0,0,22.3,1.9,34.3-12.9l23.4-29.5c11.3-14.6,38.6-23.9,65.3-9.1c20,11.4,39.4,23.8,58.2,37.2
	c17.7,13,54,43.3,54.1,43.3c17.3,14.6,21.3,36,9.5,58.6c0,0.1-0.1,0.4-0.1,0.5c-13,22.5-29.4,42.7-48.7,60c-0.2,0.1-0.2,0.2-0.4,0.3
	c-16.8,14-33.3,22-49.5,23.9c-2.4,0.4-4.8,0.6-7.2,0.5c-7.1,0.1-14.3-1-21-3.2l-0.5-0.8c-25-7-66.6-24.7-136.1-63
	c-40.2-21.9-78.4-47.2-114.3-75.5c-18-14.2-35.2-29.4-51.4-45.6l-1.7-1.7l-1.7-1.7l0,0l-1.7-1.7c-0.6-0.6-1.1-1.1-1.7-1.7
	c-16.2-16.3-31.4-33.4-45.6-51.4c-28.3-35.9-53.6-74.1-75.5-114.3C29.6,219,12,177.3,4.9,152.3l-0.8-0.5c-2.2-6.8-3.3-13.9-3.2-21
	c-0.1-2.4,0-4.8,0.4-7.2c2-16.2,10-32.7,24-49.5c0.1-0.2,0.2-0.2,0.3-0.4c17.3-19.3,37.5-35.8,60-48.7c0.1,0,0.3-0.1,0.5-0.1
	c22.6-11.8,44-7.8,58.6,9.4c0.1,0.1,30.3,36.4,43.3,54.1c13.4,18.8,25.8,38.2,37.2,58.2c14.9,26.7,5.6,54-9.1,65.3l-29.5,23.4
	c-14.9,12-12.9,34.3-12.9,34.3S217.4,434.6,380.5,476.3z"/>
</svg>
