<svg width="30" height="30" viewBox="0 0 30 30" xmlns="http://www.w3.org/2000/svg">
    <path fill="#444" d="M15,19.5c0.8,0,1.5,0.7,1.5,1.5s-0.7,1.5-1.5,1.5s-1.5-0.7-1.5-1.5S14.2,19.5,15,19.5z" />
    <path fill="#444" d="M16.5,11.6c-0.2,2.7-0.6,5.4-0.6,5.4c-0.1,0.8-0.5,1-0.9,1c-0.5,0-0.8-0.2-0.8-1.1c0,0-0.4-2.6-0.6-5.4 c-0.1-1.8,0-2.6,0-2.6c0-0.8,0.6-1.5,1.4-1.5s1.5,0.7,1.5,1.5C16.5,9,16.6,9.8,16.5,11.6L16.5,11.6z" />
    <circle fill="none" stroke="#444" stroke-width="2" cx="15" cy="15" r="13" />
</svg>
