<svg width="32" height="32" viewBox="0 0 32 32" xmlns="http://www.w3.org/2000/svg">
    <rect fill="#CCCCCC" x="0" y="0" width="8" height="8" />
    <rect fill="#CCCCCC" x="16" y="0" width="8" height="8" />
    <rect fill="#CCCCCC" x="0" y="16" width="8" height="8" />
    <rect fill="#CCCCCC" x="16" y="16" width="8" height="8" />
    <rect fill="#CCCCCC" x="8" y="8" width="8" height="8" />
    <rect fill="#CCCCCC" x="24" y="8" width="8" height="8" />
    <rect fill="#CCCCCC" x="8" y="24" width="8" height="8" />
    <rect fill="#CCCCCC" x="24" y="24" width="8" height="8" />
    <rect fill="#FFFFFF" x="8" y="0" width="8" height="8" />
    <rect fill="#FFFFFF" x="0" y="8" width="8" height="8" />
    <rect fill="#FFFFFF" x="16" y="8" width="8" height="8" />
    <rect fill="#FFFFFF" x="8" y="16" width="8" height="8" />
    <rect fill="#FFFFFF" x="24" y="0" width="8" height="8" />
    <rect fill="#FFFFFF" x="24" y="16" width="8" height="8" />
    <rect fill="#FFFFFF" x="0" y="24" width="8" height="8" />
    <rect fill="#FFFFFF" x="16" y="24" width="8" height="8" />
</svg>
