<?xml version="1.0" encoding="utf-8"?>
<!-- Generator: Adobe Illustrator 24.3.0, SVG Export Plug-In . SVG Version: 6.00 Build 0)  -->
<svg version="1.1" id="Layer_1" xmlns="http://www.w3.org/2000/svg" xmlns:xlink="http://www.w3.org/1999/xlink" x="0px" y="0px"
	 viewBox="0 0 500 500" style="enable-background:new 0 0 500 500;" xml:space="preserve">
<style type="text/css">
	.st0{fill:url(#SVGID_1_);}
	.st1{fill:url(#SVGID_2_);}
	.st2{fill:url(#SVGID_3_);}
</style>
<g>
	<linearGradient id="SVGID_1_" gradientUnits="userSpaceOnUse" x1="0" y1="250" x2="500" y2="250">
		<stop  offset="0" style="stop-color:#5725FF"/>
		<stop  offset="1" style="stop-color:#9271FF"/>
	</linearGradient>
	<path class="st0" d="M500,338.4c0-72.9-49.1-136.6-118.4-155.7C377.3,81.2,293.4,0,190.9,0C85.6,0,0,85.6,0,190.9
		c0,34.3,9.1,67.7,26.5,97L0.7,381.1l93.2-25.8c27,15.9,57.4,24.9,88.8,26.3C201.8,450.9,265.5,500,338.4,500
		c29.1,0,57.4-7.7,82.2-22.5l78.7,21.8l-21.8-78.7C492.3,395.8,500,367.5,500,338.4z M98.5,323.7l-55.8,15.4l15.4-55.8l-3.5-5.5
		c-16.6-25.9-25.3-56-25.3-86.9c0-89.1,72.5-161.6,161.6-161.6s161.6,72.5,161.6,161.6S280,352.5,190.9,352.5
		c-30.9,0-61-8.8-86.9-25.3L98.5,323.7z M457.3,457.3l-41.4-11.5l-5.5,3.6c-21.4,13.9-46.3,21.3-72,21.3
		c-57.3,0-107.6-37-125.5-90.1c87.7-10.1,157.5-79.9,167.6-167.6c53.1,17.8,90.1,68.2,90.1,125.5c0,25.7-7.4,50.6-21.3,72l-3.6,5.5
		L457.3,457.3z"/>
	<linearGradient id="SVGID_2_" gradientUnits="userSpaceOnUse" x1="176.2695" y1="279.2969" x2="205.5664" y2="279.2969">
		<stop  offset="0" style="stop-color:#5725FF"/>
		<stop  offset="1" style="stop-color:#9271FF"/>
	</linearGradient>
	<path class="st1" d="M176.3,264.6h29.3v29.3h-29.3V264.6z"/>
	<linearGradient id="SVGID_3_" gradientUnits="userSpaceOnUse" x1="132.3242" y1="161.6211" x2="249.5117" y2="161.6211">
		<stop  offset="0" style="stop-color:#5725FF"/>
		<stop  offset="1" style="stop-color:#9271FF"/>
	</linearGradient>
	<path class="st2" d="M220.2,146.5c0,8.3-3.4,16-9.5,21.6l-34.4,31.5v35.7h29.3v-22.8l24.9-22.8c12.1-11.1,19.1-26.8,19.1-43.2
		c0-32.3-26.3-58.6-58.6-58.6s-58.6,26.3-58.6,58.6h29.3c0-16.2,13.1-29.3,29.3-29.3S220.2,130.3,220.2,146.5z"/>
</g>
</svg>
