<svg width="12" height="12" viewBox="0 0 12 12" fill="none" xmlns="http://www.w3.org/2000/svg">
<path d="M10.9336 1.96179L6.43359 0.0867891C6.31934 0.0391875 6.12516 0 6.00141 0C5.87691 0 5.68383 0.0391875 5.56875 0.0867891L1.06898 1.96179C0.649219 2.13499 0.375 2.54515 0.375 2.97874C0.375 9.02796 4.80937 11.9998 5.99766 11.9998C7.19766 11.9998 11.625 8.99515 11.625 2.97874C11.625 2.54515 11.3508 2.13499 10.9336 1.96179ZM8.25 4.68734C8.25 4.81697 8.20545 4.94726 8.11451 5.05343L5.86451 7.67843C5.70703 7.86312 5.49844 7.85374 5.4375 7.85374C5.28881 7.85374 5.14523 7.79442 5.03977 7.68895L3.91477 6.56395C3.80391 6.47562 3.75 6.33031 3.75 6.16624C3.75 5.86648 3.99141 5.60374 4.3125 5.60374C4.45643 5.60374 4.60031 5.65868 4.71023 5.76853L5.40609 6.46439L7.2607 4.30017C7.37224 4.17052 7.52977 4.10419 7.6882 4.10419C8.11875 4.12484 8.25 4.5139 8.25 4.68734Z" fill="white"/>
</svg>
