<svg width="151" height="48" viewBox="0 0 151 48" fill="none" xmlns="http://www.w3.org/2000/svg">
<path d="M50 31.332L50.4332 31.0824L50 31.332ZM14.5 37.8319L14.0285 37.9983L14.0432 38.04L14.065 38.0784L14.5 37.8319ZM62.5 5.83204L62.7005 5.37384L62.6895 5.36936L62.5 5.83204ZM99.5 28.332L99.1963 28.7292L99.5 28.332ZM148.5 10.332L145.054 14.9645L150.789 15.6324L148.5 10.332ZM1.35035 23.1886C1.68737 22.8576 2.04223 22.5229 2.41404 22.1866L1.74322 21.4449C1.36139 21.7903 0.996546 22.1344 0.649646 22.4751L1.35035 23.1886ZM4.66272 20.3043C5.4138 19.7221 6.21044 19.1477 7.0477 18.5925L6.49505 17.7591C5.63661 18.3284 4.81998 18.9171 4.05006 19.514L4.66272 20.3043ZM9.55303 17.0643C10.3957 16.5938 11.2688 16.1492 12.1683 15.7393L11.7537 14.8293C10.8281 15.2511 9.9307 15.7081 9.06552 16.1912L9.55303 17.0643ZM14.8833 14.6437C15.7971 14.3223 16.7316 14.0414 17.6835 13.8089L17.4462 12.8374C16.4606 13.0782 15.4945 13.3687 14.5515 13.7003L14.8833 14.6437ZM20.549 13.2691C21.5046 13.1432 22.4734 13.0702 23.4521 13.0575L23.4391 12.0576C22.4192 12.0709 21.4112 12.1468 20.4183 12.2777L20.549 13.2691ZM26.3564 13.2003C27.3048 13.3072 28.2598 13.4751 29.219 13.7105L29.4573 12.7393C28.4557 12.4935 27.4584 12.3182 26.4684 12.2066L26.3564 13.2003ZM31.988 14.5791C32.8713 14.9183 33.7565 15.3193 34.6415 15.7871L35.1089 14.9031C34.1889 14.4167 33.2673 13.9992 32.3464 13.6456L31.988 14.5791ZM37.133 17.2865C37.9151 17.8162 38.6958 18.4023 39.4736 19.0484L40.1125 18.2791C39.3103 17.6128 38.5036 17.0071 37.6937 16.4586L37.133 17.2865ZM41.6389 21.0134C42.3102 21.676 42.9783 22.3865 43.6422 23.1475L44.3957 22.4902C43.7161 21.7111 43.031 20.9823 42.3414 20.3017L41.6389 21.0134ZM45.4977 25.4234C46.0743 26.1784 46.6468 26.9742 47.2146 27.8124L48.0426 27.2516C47.4645 26.3983 46.8809 25.5871 46.2924 24.8164L45.4977 25.4234ZM48.8042 30.2923C49.0595 30.7129 49.3138 31.1426 49.5668 31.5817L50.4332 31.0824C50.1764 30.6368 49.9183 30.2005 49.6589 29.7733L48.8042 30.2923ZM49.5668 31.5817C49.8378 32.0519 50.0719 32.5104 50.2712 32.9572L51.1844 32.5497C50.9701 32.0695 50.7202 31.5803 50.4332 31.0824L49.5668 31.5817ZM51.1195 35.8513C51.256 36.9154 51.1723 37.8957 50.9055 38.7945L51.8642 39.0791C52.1724 38.0407 52.2648 36.9198 52.1114 35.724L51.1195 35.8513ZM49.485 41.3805C48.8712 42.1102 48.1044 42.7711 47.2084 43.3578L47.7562 44.1944C48.7203 43.5631 49.5643 42.8397 50.2503 42.0242L49.485 41.3805ZM44.4753 44.7646C43.5526 45.1367 42.5608 45.4516 41.5176 45.707L41.7554 46.6783C42.8404 46.4127 43.878 46.0837 44.8493 45.6921L44.4753 44.7646ZM38.4487 46.2681C37.4314 46.396 36.3871 46.4731 35.3295 46.4982L35.3532 47.4979C36.4437 47.472 37.5216 47.3925 38.5733 47.2603L38.4487 46.2681ZM32.2015 46.4217C31.1619 46.3463 30.1229 46.2208 29.0968 46.0443L28.9273 47.0298C29.9863 47.212 31.0578 47.3414 32.1291 47.4191L32.2015 46.4217ZM26.0496 45.3551C25.0372 45.0678 24.0524 44.7262 23.1083 44.3295L22.7209 45.2515C23.7048 45.6649 24.7279 46.0196 25.7766 46.3171L26.0496 45.3551ZM20.3405 42.9311C19.4422 42.3892 18.6059 41.7852 17.8463 41.1183L17.1865 41.8697C17.9945 42.5791 18.8795 43.2176 19.824 43.7874L20.3405 42.9311ZM15.7673 38.8676C15.465 38.4572 15.1869 38.0299 14.935 37.5854L14.065 38.0784C14.337 38.5585 14.6369 39.0192 14.9622 39.4607L15.7673 38.8676ZM14.9715 37.6655C14.8163 37.2257 14.6736 36.7752 14.5437 36.3152L13.5813 36.587C13.7169 37.0669 13.866 37.5378 14.0285 37.9983L14.9715 37.6655ZM13.9336 33.5394C13.7847 32.6161 13.6824 31.6677 13.6282 30.702L12.6297 30.7581C12.6859 31.7574 12.7918 32.7402 12.9464 33.6987L13.9336 33.5394ZM13.6072 27.8504C13.6455 26.9078 13.7284 25.9568 13.8571 25.0041L12.8661 24.8702C12.7332 25.8539 12.6476 26.8361 12.608 27.8099L13.6072 27.8504ZM14.3701 22.1957C14.5836 21.2724 14.8413 20.354 15.1441 19.4465L14.1956 19.1299C13.8825 20.068 13.6163 21.0169 13.3958 21.9703L14.3701 22.1957ZM16.1778 16.7882C16.5646 15.9227 16.996 15.0739 17.4727 14.2474L16.6065 13.7477C16.1121 14.6048 15.6653 15.4843 15.2648 16.3802L16.1778 16.7882ZM19.0247 11.8616C19.5817 11.0995 20.1833 10.3645 20.8303 9.66187L20.0947 8.98449C19.4215 9.71557 18.7961 10.4798 18.2174 11.2715L19.0247 11.8616ZM22.8734 7.68655C23.5833 7.07644 24.3362 6.50111 25.133 5.9654L24.5751 5.13551C23.7451 5.69349 22.9609 6.29275 22.2216 6.92818L22.8734 7.68655ZM27.585 4.51839C28.4106 4.09392 29.2757 3.70802 30.1809 3.36473L29.8264 2.4297C28.8862 2.78622 27.9868 3.18736 27.1277 3.62904L27.585 4.51839ZM32.8901 2.50006C33.7859 2.2649 34.7159 2.06828 35.6807 1.91336L35.5222 0.926009C34.5258 1.08598 33.564 1.28926 32.6362 1.53284L32.8901 2.50006ZM38.5202 1.5878C39.4452 1.52233 40.3987 1.4928 41.3813 1.50148L41.3901 0.501524C40.3818 0.492607 39.4017 0.522907 38.4496 0.590297L38.5202 1.5878ZM44.2433 1.63036C45.1694 1.7044 46.119 1.81064 47.0923 1.95069L47.2347 0.96089C46.2412 0.817926 45.2707 0.709313 44.323 0.63354L44.2433 1.63036ZM49.9206 2.44085C50.8362 2.62568 51.7711 2.8391 52.7256 3.0823L52.9725 2.11326C52.0023 1.86605 51.051 1.64887 50.1184 1.46062L49.9206 2.44085ZM55.5086 3.86001C56.4085 4.13313 57.3246 4.43168 58.257 4.75655L58.586 3.81222C57.6412 3.48303 56.7122 3.18027 55.799 2.90311L55.5086 3.86001ZM60.9431 5.74825C61.3953 5.9244 61.851 6.10653 62.3105 6.29473L62.6895 5.36936C62.2249 5.17901 61.7637 4.99474 61.3061 4.81646L60.9431 5.74825ZM62.2996 6.29012C62.7348 6.48052 63.2 6.69193 63.6927 6.92301L64.1173 6.01766C63.618 5.78343 63.1447 5.56835 62.7004 5.37396L62.2996 6.29012ZM66.4607 8.28094C67.3258 8.72103 68.2407 9.19916 69.1966 9.71054L69.6683 8.82879C68.7071 8.31455 67.786 7.8332 66.9142 7.38966L66.4607 8.28094ZM71.9118 11.1916C72.788 11.6781 73.688 12.1857 74.606 12.7113L75.1028 11.8435C74.1812 11.3158 73.2775 10.8061 72.3973 10.3173L71.9118 11.1916ZM77.2795 14.2632C78.156 14.7787 79.0432 15.3071 79.9367 15.846L80.4532 14.9898C79.5566 14.449 78.6662 13.9186 77.7865 13.4012L77.2795 14.2632ZM82.5767 17.4581C83.4505 17.9982 84.3259 18.5459 85.1989 19.099L85.7341 18.2543C84.8579 17.6991 83.9793 17.1495 83.1025 16.6075L82.5767 17.4581ZM87.802 20.7694C88.6708 21.3343 89.5329 21.9023 90.3841 22.4712L90.9398 21.6398C90.0849 21.0684 89.2193 20.4981 88.347 19.931L87.802 20.7694ZM92.9424 24.2073C93.8039 24.8012 94.6488 25.3935 95.4724 25.9818L96.0536 25.1681C95.2253 24.5764 94.3758 23.9808 93.51 23.384L92.9424 24.2073ZM97.9664 27.8008C98.3844 28.1124 98.7945 28.422 99.1963 28.7292L99.8037 27.9348C99.3986 27.6251 98.9852 27.313 98.5642 26.9991L97.9664 27.8008ZM99.1963 28.7292C99.6211 29.054 100.054 29.3659 100.494 29.665L101.056 28.838C100.631 28.5493 100.214 28.2483 99.8037 27.9348L99.1963 28.7292ZM103.23 31.3136C104.172 31.8139 105.138 32.2626 106.124 32.6607L106.499 31.7334C105.544 31.3481 104.609 30.914 103.699 30.4305L103.23 31.3136ZM109.139 33.7049C110.16 34.0027 111.195 34.2505 112.24 34.4492L112.427 33.4668C111.413 33.2739 110.409 33.0335 109.419 32.7449L109.139 33.7049ZM115.395 34.8985C116.453 34.9997 117.515 35.0527 118.577 35.0582L118.582 34.0582C117.55 34.0529 116.518 34.0014 115.49 33.903L115.395 34.8985ZM121.76 34.9324C122.821 34.843 123.876 34.7064 124.92 34.5234L124.747 33.5384C123.732 33.7163 122.707 33.849 121.676 33.9359L121.76 34.9324ZM128.03 33.8318C129.059 33.553 130.073 33.2273 131.065 32.8555L130.714 31.9191C129.752 32.2797 128.768 32.5958 127.768 32.8666L128.03 33.8318ZM133.994 31.5919C134.953 31.1207 135.884 30.6026 136.782 30.0384L136.25 29.1916C135.382 29.7369 134.481 30.2382 133.553 30.6945L133.994 31.5919ZM139.392 28.1927C140.228 27.5283 141.025 26.8172 141.776 26.0604L141.066 25.3559C140.343 26.0842 139.576 26.7691 138.77 27.4098L139.392 28.1927ZM143.887 23.6531C144.537 22.8119 145.135 21.9266 145.678 20.9979L144.814 20.4936C144.294 21.3845 143.719 22.2342 143.096 23.042L143.887 23.6531ZM147.109 18.1301C147.517 17.1594 147.868 16.1502 148.156 15.1032L147.192 14.8377C146.915 15.8432 146.579 16.8118 146.188 17.7428L147.109 18.1301Z" fill="white"/>
</svg>
