<svg xmlns="http://www.w3.org/2000/svg" viewBox="0 0 24 24">
	<path fill="none" d="M0,0h24v24H0V0z"/>
	<g fill="#FFF">
		<path d="M19.35,10.04C18.67,6.59,15.64,4,12,4C9.11,4,6.6,5.64,5.35,8.04C2.34,8.36,0,10.91,0,14c0,3.31,2.69,6,6,6h13 c2.76,0,5-2.24,5-5C24,12.36,21.95,10.22,19.35,10.04z M19,18H6c-2.21,0-4-1.79-4-4c0-2.05,1.53-3.76,3.56-3.97l1.07-0.11 l0.5-0.95C8.08,7.14,9.94,6,12,6c2.62,0,4.88,1.86,5.39,4.43l0.3,1.5l1.53,0.11C20.78,12.14,22,13.45,22,15 C22,16.65,20.65,18,19,18z"/>
		<path d="M8 13L11 13 11 16 13 16 13 13 16 13 12 9z"/>
	</g>
</svg>