<svg xmlns="http://www.w3.org/2000/svg" viewBox="0 0 36 31">
    <g fill="none" fill-rule="evenodd">
        <path d="M0 0H40V40.6H0z" transform="translate(-2 -5)"/>
        <path fill="#FFF" fill-rule="nonzero" d="M18,4.74705882 L27,12.6882353 L27,15.8823529 L27,26.4705882 L23.4,26.4705882 L23.4,19.4117647 L23.4,15.8823529 L19.8,15.8823529 L16.2,15.8823529 L12.6,15.8823529 L12.6,19.4117647 L12.6,26.4705882 L9,26.4705882 L9,15.8823529 L9,12.6882353 L18,4.74705882 Z M18,0 L0,15.8823529 L5.4,15.8823529 L5.4,30 L16.2,30 L16.2,19.4117647 L19.8,19.4117647 L19.8,30 L30.6,30 L30.6,15.8823529 L36,15.8823529 L18,0 Z" transform="translate(0 1)"/>
    </g>
</svg>