<svg style="position: absolute; width: 0; height: 0; overflow: hidden;" version="1.1" xmlns="http://www.w3.org/2000/svg"
     xmlns:xlink="http://www.w3.org/1999/xlink">
    <defs>
        <symbol id="icon-no-cap" viewBox="0 0 20 20">
            <path fill="#B0B9C1" fill-rule="nonzero"
                  d="M10 0C4.477 0 0 4.477 0 10s4.477 10 10 10 10-4.477 10-10S15.523 0 10 0zm0 1.935A8.06 8.06 0 0 1 18.065 10 8.06 8.06 0 0 1 10 18.065 8.06 8.06 0 0 1 1.935 10 8.06 8.06 0 0 1 10 1.935zm5.653 5.253l-.908-.916a.484.484 0 0 0-.685-.003l-5.7 5.654-2.41-2.43a.484.484 0 0 0-.685-.003l-.916.909a.484.484 0 0 0-.002.684l3.66 3.69c.188.19.495.191.684.003l6.96-6.904a.484.484 0 0 0 .002-.684z"/>
        </symbol>
        <symbol id="icon-cap"  viewBox="0 0 20 20">
            <g fill="none" fill-rule="nonzero">
                <path fill="#379108" d="M10 0C4.477 0 0 4.477 0 10s4.477 10 10 10 10-4.477 10-10S15.523 0 10 0z"/>
                <path fill="#379108"
                      d="M10 1.935A8.06 8.06 0 0 1 18.065 10 8.06 8.06 0 0 1 10 18.065 8.06 8.06 0 0 1 1.935 10 8.06 8.06 0 0 1 10 1.935z"/>
                <path fill="#FFF"
                      d="M15.447 7.06l-.909-.917a.484.484 0 0 0-.684-.003l-5.7 5.654-2.41-2.43a.484.484 0 0 0-.685-.003l-.916.909a.484.484 0 0 0-.003.684l3.66 3.69c.19.19.495.191.685.003l6.96-6.904a.484.484 0 0 0 .002-.684z"/>
            </g>
        </symbol>

        <symbol id="icon-dash-cap" viewBox="0 0 20 20">
            <g fill="none" fill-rule="nonzero">
                <path fill="#000" fill-opacity=".38"
                      d="M10 0C4.477 0 0 4.477 0 10s4.477 10 10 10 10-4.477 10-10S15.523 0 10 0z"/>
                <path fill="#FFF"
                      d="M15.447 7.06l-.909-.917a.484.484 0 0 0-.684-.003l-5.7 5.654-2.41-2.43a.484.484 0 0 0-.685-.003l-.916.909a.484.484 0 0 0-.003.684l3.66 3.69c.19.19.495.191.685.003l6.96-6.904a.484.484 0 0 0 .002-.684z"/>
            </g>
        </symbol>
        <filter id="icon-hover-filter">
            <feColorMatrix
                    color-interpolation-filters="sRGB"
                    type="matrix"
                    values="0.25 0 0 0 0
								0 0.6 0 0 0
								0 0 0.05 0 0
								0 0 0 1 0 "/>
        </filter>
    </defs>
</svg>
