<svg width="4" height="16" viewBox="0 0 4 16" fill="none" xmlns="http://www.w3.org/2000/svg">
<path d="M-1.11701e-06 2C-1.73392e-06 3.10457 0.895428 4 2 4C3.10457 4 4 3.10457 4 2C4 0.89543 3.10457 -5.00103e-07 2 -1.11701e-06C0.89543 -1.73392e-06 -5.00103e-07 0.895428 -1.11701e-06 2Z" fill="#353030"/>
<path d="M-1.11701e-06 8C-1.73392e-06 9.10457 0.895428 10 2 10C3.10457 10 4 9.10457 4 8C4 6.89543 3.10457 6 2 6C0.89543 6 -5.00103e-07 6.89543 -1.11701e-06 8Z" fill="#353030"/>
<path d="M-1.11701e-06 14C-1.73392e-06 15.1046 0.895428 16 2 16C3.10457 16 4 15.1046 4 14C4 12.8954 3.10457 12 2 12C0.89543 12 -5.00103e-07 12.8954 -1.11701e-06 14Z" fill="#353030"/>
</svg>
