<svg version="1.1" viewBox="0 0 28 28" xmlns="http://www.w3.org/2000/svg">
    <path d="M21 18v8H5V3h16v3M5 24H3V2h15M22 12.1a4.7 4.7 0 0 1-4.7 4.7 4.7 4.7 0 0 1-4.7-4.7 4.7 4.7 0 0 1 4.7-4.7 4.7 4.7 0 0 1 4.7 4.7z"
          fill="none" stroke="#2b87da" stroke-linecap="round" stroke-linejoin="round"
          stroke-width="2.2"/>
    <path d="" fill="#2b87da" stroke="#2b87da" stroke-linecap="round" stroke-linejoin="round"
          stroke-width="2.2"/>
    <path d=""
          fill="#2b87da" stroke="#2b87da" stroke-linecap="round" stroke-linejoin="round" stroke-width="2.2"/>
    <path d="M22 14.6l4.4 3.3" fill="#2b87da" stroke="#2b87da" stroke-linecap="round" stroke-linejoin="round"
          stroke-width="2.2"/>
    <path d="M8.4 19.9h8.3M8.4 17h2.9m-2.9 5.8h8.3" fill="#2b87da" stroke="#2b87da" stroke-linecap="round"
          stroke-linejoin="round" stroke-width="2.2"/>
    <path d="M18.74 12.13l-1.07 1.06v-3.1a.32.32 0 0 0-.32-.32.32.32 0 0 0-.32.32v3.1L16 12.13a.31.31 0 0 0-.45 0 .33.33 0 0 0 0 .45l1.61 1.61.1.07h.22l.1-.07 1.61-1.61a.33.33 0 0 0 0-.45.31.31 0 0 0-.45 0z"
          stroke-width="2.2" fill="#2b87da"/>
</svg>