<?xml version="1.0" encoding="utf-8"?>
<!-- Generator: Adobe Illustrator 22.0.0, SVG Export Plug-In . SVG Version: 6.00 Build 0)  -->
<svg version="1.1" id="Layer_1" xmlns="http://www.w3.org/2000/svg" xmlns:xlink="http://www.w3.org/1999/xlink" x="0px" y="0px"
	 viewBox="0 0 357.5 155.4" style="enable-background:new 0 0 357.5 155.4;" xml:space="preserve">
<style type="text/css">
	.st0{fill:#FFFFFF;}
	.st1{fill:none;stroke:#C6C6C6;stroke-miterlimit:10;}
	.st2{fill:#C6C6C6;}
	.st3{opacity:0.3;}
	.st4{fill:#3C3C3B;}
	.st5{fill:none;stroke:#FFFFFF;stroke-width:0.4365;stroke-miterlimit:10;}
	.st6{fill:none;stroke:#FFFFFF;stroke-width:0.4358;stroke-miterlimit:10;}
	.st7{fill:none;stroke:#FFFFFF;stroke-width:0.4352;stroke-miterlimit:10;}
	.st8{fill:none;}
	.st9{fill:none;stroke:#FFFFFF;stroke-width:0.4374;stroke-miterlimit:10;}
	.st10{opacity:0.62;fill:#ECECEC;}
	.st11{fill:none;stroke:#FFFFFF;stroke-width:0.3171;stroke-miterlimit:10;}
	.st12{fill:none;stroke:#FFFFFF;stroke-width:0.348;stroke-miterlimit:10;}
	.st13{fill:#575756;}
	.st14{fill:#868686;}
	.st15{fill:#6F6F6E;}
	.st16{fill:#F9BA24;}
	.st17{fill:#6941E0;}
	.st18{fill:none;stroke:#FFFFFF;stroke-width:0.3365;stroke-miterlimit:10;}
	.st19{fill:none;stroke:#FFFFFF;stroke-width:0.336;stroke-miterlimit:10;}
	.st20{fill:none;stroke:#FFFFFF;stroke-width:0.3355;stroke-miterlimit:10;}
	.st21{fill:none;stroke:#FFFFFF;stroke-width:0.3372;stroke-miterlimit:10;}
	.st22{fill:none;stroke:#FFFFFF;stroke-width:0.5824;stroke-miterlimit:10;}
	.st23{opacity:0.62;fill:#C4C2C2;}
	.st24{fill:none;stroke:#FFFFFF;stroke-width:0.4871;stroke-miterlimit:10;}
	.st25{fill:none;stroke:#FFFFFF;stroke-width:0.6078;stroke-miterlimit:10;}
	.st26{fill:none;stroke:#FFFFFF;stroke-width:0.2234;stroke-miterlimit:10;}
	.st27{fill:#E8E8E8;}
	.st28{fill:none;stroke:#FFFFFF;stroke-width:0.3824;stroke-miterlimit:10;}
	.st29{fill:none;stroke:#FFFFFF;stroke-width:0.3818;stroke-miterlimit:10;}
	.st30{fill:none;stroke:#FFFFFF;stroke-width:0.3813;stroke-miterlimit:10;}
	.st31{fill:none;stroke:#FFFFFF;stroke-width:0.3832;stroke-miterlimit:10;}
	.st32{fill:none;stroke:#FFFFFF;stroke-width:0.257;stroke-miterlimit:10;}
	.st33{fill:none;stroke:#FFFFFF;stroke-width:0.6653;stroke-miterlimit:10;}
	.st34{fill:#7B6CEA;}
	.st35{fill:#DADADA;}
	.st36{fill:none;stroke:#C6C6C6;stroke-width:0.5;stroke-miterlimit:10;}
	.st37{fill:none;stroke:#7B6CEA;stroke-miterlimit:10;}
	.st38{fill:#878787;}
	.st39{fill:#9D9D9C;}
	.st40{fill:#A6CE39;}
	.st41{filter:url(#Adobe_OpacityMaskFilter);}
	.st42{opacity:0.7;mask:url(#SVGID_1_);}
	.st43{fill:#FFCB08;}
	.st44{fill:#ED1651;}
	.st45{filter:url(#Adobe_OpacityMaskFilter_1_);}
	.st46{mask:url(#SVGID_2_);}
	.st47{fill:#00AEEF;}
	.st48{fill:#42ABED;}
	.st49{fill:#58585A;}
	.st50{fill:none;stroke:#7B6CEA;stroke-width:0.348;stroke-miterlimit:10;}
	.st51{fill:#ACACAD;}
	.st52{fill:none;stroke:#FFFFFF;stroke-width:0.5;stroke-miterlimit:10;}
	.st53{filter:url(#Adobe_OpacityMaskFilter_2_);}
	.st54{opacity:0.7;mask:url(#SVGID_3_);}
	.st55{filter:url(#Adobe_OpacityMaskFilter_3_);}
	.st56{mask:url(#SVGID_4_);}
	.st57{fill:#B2B2B2;}
	.st58{filter:url(#Adobe_OpacityMaskFilter_4_);}
	.st59{opacity:0.7;mask:url(#SVGID_5_);}
	.st60{filter:url(#Adobe_OpacityMaskFilter_5_);}
	.st61{mask:url(#SVGID_6_);}
	.st62{filter:url(#Adobe_OpacityMaskFilter_6_);}
	.st63{opacity:0.7;mask:url(#SVGID_7_);}
	.st64{filter:url(#Adobe_OpacityMaskFilter_7_);}
	.st65{mask:url(#SVGID_8_);}
	.st66{fill:none;stroke:#C6C6C6;stroke-width:0.9721;stroke-miterlimit:10;}
	.st67{fill:none;stroke:#FFFFFF;stroke-width:0.4243;stroke-miterlimit:10;}
	.st68{fill:none;stroke:#FFFFFF;stroke-width:0.4237;stroke-miterlimit:10;}
	.st69{fill:none;stroke:#FFFFFF;stroke-width:0.423;stroke-miterlimit:10;}
	.st70{fill:none;stroke:#FFFFFF;stroke-width:0.4252;stroke-miterlimit:10;}
	.st71{fill:none;stroke:#FFFFFF;stroke-width:2;stroke-miterlimit:10;}
	.st72{fill:none;stroke:#7B6CEA;stroke-width:0.75;stroke-miterlimit:10;}
	.st73{fill:none;stroke:#C6C6C6;stroke-width:1.622;stroke-miterlimit:10;}
	.st74{fill:none;stroke:#C6C6C6;stroke-width:0.811;stroke-miterlimit:10;}
	.st75{fill:none;stroke:#7B6CEA;stroke-width:1.622;stroke-miterlimit:10;}
	.st76{fill:none;stroke:#C6C6C6;stroke-width:1.5767;stroke-miterlimit:10;}
	.st77{fill:none;stroke:#FFFFFF;stroke-width:0.6882;stroke-miterlimit:10;}
	.st78{fill:none;stroke:#FFFFFF;stroke-width:0.6872;stroke-miterlimit:10;}
	.st79{fill:none;stroke:#FFFFFF;stroke-width:0.6862;stroke-miterlimit:10;}
	.st80{fill:none;stroke:#FFFFFF;stroke-width:0.6897;stroke-miterlimit:10;}
	.st81{fill:none;stroke:#FFFFFF;stroke-width:3.244;stroke-miterlimit:10;}
	.st82{fill:none;stroke:#FFFFFF;stroke-width:0.811;stroke-miterlimit:10;}
	.st83{fill:none;stroke:#7B6CEA;stroke-width:1.2165;stroke-miterlimit:10;}
	.st84{fill:none;stroke:#C6C6C6;stroke-width:1.584;stroke-miterlimit:10;}
	.st85{fill:none;stroke:#C6C6C6;stroke-width:0.396;stroke-miterlimit:10;}
	.st86{fill:none;stroke:#7B6CEA;stroke-width:1.188;stroke-miterlimit:10;}
	.st87{fill:none;stroke:#7B6CEA;stroke-width:1.584;stroke-miterlimit:10;}
	.st88{fill:none;stroke:#FFFFFF;stroke-width:0.792;stroke-miterlimit:10;}
	.st89{fill:none;stroke:#C6C6C6;stroke-width:1.5398;stroke-miterlimit:10;}
	.st90{fill:none;stroke:#FFFFFF;stroke-width:0.6721;stroke-miterlimit:10;}
	.st91{fill:none;stroke:#FFFFFF;stroke-width:0.6711;stroke-miterlimit:10;}
	.st92{fill:none;stroke:#FFFFFF;stroke-width:0.6701;stroke-miterlimit:10;}
	.st93{fill:none;stroke:#FFFFFF;stroke-width:0.6735;stroke-miterlimit:10;}
	.st94{fill:none;stroke:#FFFFFF;stroke-width:3.1681;stroke-miterlimit:10;}
	.st95{fill:#F5F6F8;}
	.st96{fill:none;stroke:#C6C6C6;stroke-width:3.229;stroke-miterlimit:10;}
	.st97{fill:none;stroke:#BE1622;stroke-width:10;stroke-miterlimit:10;}
</style>
<g>
	<g>
		<g>
			<path class="st0" d="M340.3,148.6H19.8c-2.6,0-4.7-2.1-4.7-4.7V11.5c0-2.6,2.1-4.7,4.7-4.7h320.5c2.6,0,4.7,2.1,4.7,4.7v132.4
				C345,146.5,342.9,148.6,340.3,148.6z"/>
			<path class="st89" d="M340.3,148.6H19.8c-2.6,0-4.7-2.1-4.7-4.7V11.5c0-2.6,2.1-4.7,4.7-4.7h320.5c2.6,0,4.7,2.1,4.7,4.7v132.4
				C345,146.5,342.9,148.6,340.3,148.6z"/>
		</g>
		<rect x="24" y="59.7" class="st90" width="101.9" height="67.9"/>
		<rect x="129.6" y="59.7" class="st91" width="101.6" height="67.9"/>
		<rect x="233.8" y="59.7" class="st92" width="101.3" height="67.9"/>
		<line class="st93" x1="30" y1="116.4" x2="120.9" y2="116.4"/>
		<line class="st93" x1="133.9" y1="117.6" x2="224.8" y2="117.6"/>
		<line class="st93" x1="239.8" y1="117.1" x2="330.7" y2="117.1"/>
		<rect x="24" y="15.7" class="st34" width="102.3" height="67.9"/>
		<rect x="233.6" y="15.7" class="st35" width="102.3" height="67.9"/>
		<rect x="129" y="15.7" class="st35" width="102.3" height="67.9"/>
		<g>
			<rect x="30.4" y="102" class="st2" width="85.7" height="2.4"/>
			<rect x="30.4" y="105.6" class="st2" width="85.7" height="2.4"/>
			<rect x="30.4" y="116.4" class="st2" width="90.7" height="0.6"/>
		</g>
		<g>
			<rect x="134.9" y="102" class="st2" width="85.7" height="2.4"/>
			<rect x="134.9" y="105.6" class="st2" width="85.7" height="2.4"/>
			<rect x="134.9" y="116.4" class="st2" width="90.7" height="0.6"/>
		</g>
		<g>
			<rect x="239.7" y="102" class="st2" width="85.7" height="2.4"/>
			<rect x="239.7" y="105.6" class="st2" width="85.7" height="2.4"/>
			<rect x="239.7" y="116.4" class="st2" width="90.7" height="0.6"/>
		</g>
		<g>
			<line class="st94" x1="75.1" y1="27.8" x2="75.1" y2="67.7"/>
			<line class="st94" x1="57.6" y1="47.7" x2="92.6" y2="47.7"/>
		</g>
	</g>
	<g>
		<path class="st57" d="M31.1,91.9v-4.2h0.6l1.4,2.1c0.3,0.5,0.6,0.9,0.8,1.4l0,0c0-0.6-0.1-1.1-0.1-1.7v-1.8h0.5v4.2h-0.6l-1.3-2.1
			c-0.3-0.5-0.6-1-0.8-1.4l0,0c0,0.5,0,1,0,1.7v1.8H31.1z"/>
		<path class="st57" d="M37.4,89.9h-1.6v1.5h1.8v0.5h-2.4v-4.2h2.3v0.5h-1.7v1.3h1.6V89.9z"/>
		<path class="st57" d="M39,91.9l-1.1-4.2h0.6l0.5,2.1c0.1,0.5,0.2,1.1,0.3,1.5h0c0.1-0.4,0.2-0.9,0.3-1.5l0.6-2.1h0.6l0.5,2.1
			c0.1,0.5,0.2,1,0.3,1.4h0c0.1-0.5,0.2-0.9,0.3-1.5l0.6-2.1h0.6l-1.2,4.2h-0.6l-0.5-2.2c-0.1-0.5-0.2-1-0.3-1.4h0
			c-0.1,0.4-0.2,0.8-0.3,1.4l-0.6,2.2H39z"/>
		<path class="st57" d="M43.6,91.3c0.2,0.2,0.6,0.3,1,0.3c0.6,0,0.9-0.3,0.9-0.7c0-0.4-0.2-0.6-0.8-0.8c-0.7-0.2-1.1-0.6-1.1-1.2
			c0-0.7,0.5-1.1,1.4-1.1c0.4,0,0.7,0.1,0.9,0.2l-0.2,0.4c-0.1-0.1-0.4-0.2-0.8-0.2c-0.6,0-0.8,0.3-0.8,0.6c0,0.4,0.3,0.6,0.8,0.8
			c0.7,0.3,1.1,0.6,1.1,1.2c0,0.7-0.5,1.2-1.5,1.2c-0.4,0-0.9-0.1-1.1-0.3L43.6,91.3z"/>
		<path class="st57" d="M48.6,88.2h-1.3v-0.5h3.1v0.5h-1.3v3.8h-0.6V88.2z"/>
		<path class="st57" d="M51.5,87.7v4.2h-0.5v-4.2H51.5z"/>
		<path class="st57" d="M53.2,88.2h-1.3v-0.5H55v0.5h-1.3v3.8h-0.6V88.2z"/>
		<path class="st57" d="M55.5,87.7h0.5v3.8h1.8v0.5h-2.4V87.7z"/>
		<path class="st57" d="M60.7,89.9H59v1.5h1.8v0.5h-2.4v-4.2h2.3v0.5H59v1.3h1.6V89.9z"/>
	</g>
	<g>
		<path class="st57" d="M33,96.8c0,1.1-0.4,1.7-1.1,1.7c-0.6,0-1.1-0.6-1.1-1.7c0-1.1,0.5-1.7,1.1-1.7C32.6,95.2,33,95.8,33,96.8z
			 M31.2,96.9c0,0.8,0.3,1.3,0.7,1.3c0.5,0,0.7-0.5,0.7-1.4c0-0.8-0.2-1.3-0.7-1.3C31.5,95.5,31.2,96,31.2,96.9z"/>
		<path class="st57" d="M34.4,95.6L34.4,95.6l-0.6,0.3l-0.1-0.3l0.7-0.4h0.4v3.3h-0.4V95.6z"/>
		<path class="st57" d="M35.7,98.7l1.4-3.6h0.3l-1.4,3.6H35.7z"/>
		<path class="st57" d="M39.9,96.8c0,1.1-0.4,1.7-1.1,1.7c-0.6,0-1.1-0.6-1.1-1.7c0-1.1,0.5-1.7,1.1-1.7
			C39.5,95.2,39.9,95.8,39.9,96.8z M38.1,96.9c0,0.8,0.3,1.3,0.7,1.3c0.5,0,0.7-0.5,0.7-1.4c0-0.8-0.2-1.3-0.7-1.3
			C38.4,95.5,38.1,96,38.1,96.9z"/>
		<path class="st57" d="M41.2,95.6L41.2,95.6l-0.6,0.3l-0.1-0.3l0.7-0.4h0.4v3.3h-0.4V95.6z"/>
		<path class="st57" d="M42.6,98.7l1.4-3.6h0.3L43,98.7H42.6z"/>
		<path class="st57" d="M44.6,98.5v-0.3l0.3-0.3c0.8-0.8,1.2-1.2,1.2-1.7c0-0.3-0.2-0.6-0.6-0.6c-0.3,0-0.5,0.2-0.7,0.3l-0.1-0.3
			c0.2-0.2,0.5-0.3,0.9-0.3c0.7,0,1,0.5,1,0.9c0,0.6-0.4,1.1-1.1,1.8l-0.3,0.2v0h1.5v0.4H44.6z"/>
		<path class="st57" d="M49.3,96.8c0,1.1-0.4,1.7-1.1,1.7c-0.6,0-1.1-0.6-1.1-1.7c0-1.1,0.5-1.7,1.1-1.7
			C48.9,95.2,49.3,95.8,49.3,96.8z M47.5,96.9c0,0.8,0.3,1.3,0.7,1.3c0.5,0,0.7-0.5,0.7-1.4c0-0.8-0.2-1.3-0.7-1.3
			C47.8,95.5,47.5,96,47.5,96.9z"/>
		<path class="st57" d="M49.7,98.5v-0.3l0.3-0.3c0.8-0.8,1.2-1.2,1.2-1.7c0-0.3-0.2-0.6-0.6-0.6c-0.3,0-0.5,0.2-0.7,0.3l-0.1-0.3
			c0.2-0.2,0.5-0.3,0.9-0.3c0.7,0,1,0.5,1,0.9c0,0.6-0.4,1.1-1.1,1.8l-0.3,0.2v0h1.5v0.4H49.7z"/>
		<path class="st57" d="M52.3,98.5v-0.3l0.3-0.3c0.8-0.8,1.2-1.2,1.2-1.7c0-0.3-0.2-0.6-0.6-0.6c-0.3,0-0.5,0.2-0.7,0.3l-0.1-0.3
			c0.2-0.2,0.5-0.3,0.9-0.3c0.7,0,1,0.5,1,0.9c0,0.6-0.4,1.1-1.1,1.8l-0.3,0.2v0h1.5v0.4H52.3z"/>
	</g>
	<g>
		<path class="st57" d="M30.9,119.7c0.2,0,0.5-0.1,0.7-0.1c0.4,0,0.7,0.1,0.9,0.2c0.2,0.1,0.2,0.3,0.2,0.6c0,0.4-0.2,0.7-0.6,0.8v0
			c0.2,0.1,0.4,0.3,0.4,0.6c0.1,0.4,0.2,0.7,0.2,0.8h-0.4c0-0.1-0.1-0.3-0.2-0.7c-0.1-0.4-0.2-0.6-0.6-0.6h-0.4v1.3h-0.4V119.7z
			 M31.3,121.1h0.4c0.4,0,0.7-0.2,0.7-0.6c0-0.4-0.3-0.6-0.7-0.6c-0.2,0-0.3,0-0.4,0V121.1z"/>
		<path class="st57" d="M34.9,121.3h-1.2v1.1H35v0.3h-1.7v-3h1.6v0.3h-1.2v0.9h1.2V121.3z"/>
		<path class="st57" d="M36,121.8l-0.3,0.9h-0.4l1-3h0.5l1,3h-0.4l-0.3-0.9H36z M37,121.5l-0.3-0.9c-0.1-0.2-0.1-0.4-0.2-0.5h0
			c0,0.2-0.1,0.4-0.2,0.5l-0.3,0.9H37z"/>
		<path class="st57" d="M38.2,119.7c0.2,0,0.5-0.1,0.8-0.1c0.6,0,1,0.1,1.2,0.4c0.3,0.2,0.4,0.6,0.4,1.1c0,0.5-0.2,0.9-0.4,1.2
			c-0.3,0.3-0.7,0.4-1.3,0.4c-0.3,0-0.5,0-0.7,0V119.7z M38.6,122.4c0.1,0,0.2,0,0.4,0c0.8,0,1.3-0.5,1.3-1.3c0-0.7-0.4-1.2-1.2-1.2
			c-0.2,0-0.4,0-0.5,0V122.4z"/>
		<path class="st57" d="M44.7,121.4c0-0.4,0-0.9,0-1.3h0c-0.1,0.4-0.2,0.7-0.4,1.1l-0.5,1.5h-0.3l-0.5-1.4c-0.1-0.4-0.3-0.8-0.3-1.2
			h0c0,0.4,0,0.9-0.1,1.3l-0.1,1.3h-0.4l0.2-3h0.5l0.5,1.4c0.1,0.4,0.2,0.7,0.3,1h0c0.1-0.3,0.2-0.6,0.3-1l0.5-1.4h0.5l0.2,3h-0.4
			L44.7,121.4z"/>
		<path class="st57" d="M48.3,121.2c0,1-0.6,1.6-1.4,1.6c-0.8,0-1.3-0.6-1.3-1.5c0-1,0.6-1.6,1.4-1.6
			C47.7,119.7,48.3,120.3,48.3,121.2z M46,121.2c0,0.6,0.3,1.2,1,1.2c0.6,0,1-0.6,1-1.2c0-0.6-0.3-1.2-1-1.2
			C46.3,120,46,120.6,46,121.2z"/>
		<path class="st57" d="M48.8,119.7c0.2,0,0.5-0.1,0.7-0.1c0.4,0,0.7,0.1,0.9,0.2c0.2,0.1,0.2,0.3,0.2,0.6c0,0.4-0.2,0.7-0.6,0.8v0
			c0.2,0.1,0.4,0.3,0.4,0.6c0.1,0.4,0.2,0.7,0.2,0.8h-0.4c0-0.1-0.1-0.3-0.2-0.7c-0.1-0.4-0.2-0.6-0.6-0.6h-0.4v1.3h-0.4V119.7z
			 M49.2,121.1h0.4c0.4,0,0.7-0.2,0.7-0.6c0-0.4-0.3-0.6-0.7-0.6c-0.2,0-0.3,0-0.4,0V121.1z"/>
		<path class="st57" d="M52.7,121.3h-1.2v1.1h1.3v0.3h-1.7v-3h1.6v0.3h-1.2v0.9h1.2V121.3z"/>
	</g>
	<g>
		<path class="st57" d="M135.9,91.9v-4.2h0.6l1.4,2.1c0.3,0.5,0.6,0.9,0.8,1.4l0,0c0-0.6-0.1-1.1-0.1-1.7v-1.8h0.5v4.2h-0.6
			l-1.3-2.1c-0.3-0.5-0.6-1-0.8-1.4l0,0c0,0.5,0,1,0,1.7v1.8H135.9z"/>
		<path class="st57" d="M142.2,89.9h-1.6v1.5h1.8v0.5H140v-4.2h2.3v0.5h-1.7v1.3h1.6V89.9z"/>
		<path class="st57" d="M143.8,91.9l-1.1-4.2h0.6l0.5,2.1c0.1,0.5,0.2,1.1,0.3,1.5h0c0.1-0.4,0.2-0.9,0.3-1.5l0.6-2.1h0.6l0.5,2.1
			c0.1,0.5,0.2,1,0.3,1.4h0c0.1-0.5,0.2-0.9,0.3-1.5l0.6-2.1h0.6l-1.2,4.2h-0.6l-0.5-2.2c-0.1-0.5-0.2-1-0.3-1.4h0
			c-0.1,0.4-0.2,0.8-0.3,1.4l-0.6,2.2H143.8z"/>
		<path class="st57" d="M148.3,91.3c0.2,0.2,0.6,0.3,1,0.3c0.6,0,0.9-0.3,0.9-0.7c0-0.4-0.2-0.6-0.8-0.8c-0.7-0.2-1.1-0.6-1.1-1.2
			c0-0.7,0.5-1.1,1.4-1.1c0.4,0,0.7,0.1,0.9,0.2l-0.2,0.4c-0.1-0.1-0.4-0.2-0.8-0.2c-0.6,0-0.8,0.3-0.8,0.6c0,0.4,0.3,0.6,0.8,0.8
			c0.7,0.3,1.1,0.6,1.1,1.2c0,0.7-0.5,1.2-1.5,1.2c-0.4,0-0.9-0.1-1.1-0.3L148.3,91.3z"/>
		<path class="st57" d="M153.4,88.2h-1.3v-0.5h3.1v0.5h-1.3v3.8h-0.6V88.2z"/>
		<path class="st57" d="M156.2,87.7v4.2h-0.5v-4.2H156.2z"/>
		<path class="st57" d="M158,88.2h-1.3v-0.5h3.1v0.5h-1.3v3.8H158V88.2z"/>
		<path class="st57" d="M160.3,87.7h0.5v3.8h1.8v0.5h-2.4V87.7z"/>
		<path class="st57" d="M165.5,89.9h-1.6v1.5h1.8v0.5h-2.4v-4.2h2.3v0.5h-1.7v1.3h1.6V89.9z"/>
	</g>
	<g>
		<path class="st57" d="M137.8,96.8c0,1.1-0.4,1.7-1.1,1.7c-0.6,0-1.1-0.6-1.1-1.7c0-1.1,0.5-1.7,1.1-1.7
			C137.4,95.2,137.8,95.8,137.8,96.8z M136,96.9c0,0.8,0.3,1.3,0.7,1.3c0.5,0,0.7-0.5,0.7-1.4c0-0.8-0.2-1.3-0.7-1.3
			C136.3,95.5,136,96,136,96.9z"/>
		<path class="st57" d="M139.1,95.6L139.1,95.6l-0.6,0.3l-0.1-0.3l0.7-0.4h0.4v3.3h-0.4V95.6z"/>
		<path class="st57" d="M140.5,98.7l1.4-3.6h0.3l-1.4,3.6H140.5z"/>
		<path class="st57" d="M144.7,96.8c0,1.1-0.4,1.7-1.1,1.7c-0.6,0-1.1-0.6-1.1-1.7c0-1.1,0.5-1.7,1.1-1.7
			C144.3,95.2,144.7,95.8,144.7,96.8z M142.9,96.9c0,0.8,0.3,1.3,0.7,1.3c0.5,0,0.7-0.5,0.7-1.4c0-0.8-0.2-1.3-0.7-1.3
			C143.2,95.5,142.9,96,142.9,96.9z"/>
		<path class="st57" d="M146,95.6L146,95.6l-0.6,0.3l-0.1-0.3l0.7-0.4h0.4v3.3H146V95.6z"/>
		<path class="st57" d="M147.4,98.7l1.4-3.6h0.3l-1.4,3.6H147.4z"/>
		<path class="st57" d="M149.4,98.5v-0.3l0.3-0.3c0.8-0.8,1.2-1.2,1.2-1.7c0-0.3-0.2-0.6-0.6-0.6c-0.3,0-0.5,0.2-0.7,0.3l-0.1-0.3
			c0.2-0.2,0.5-0.3,0.9-0.3c0.7,0,1,0.5,1,0.9c0,0.6-0.4,1.1-1.1,1.8l-0.3,0.2v0h1.5v0.4H149.4z"/>
		<path class="st57" d="M154.1,96.8c0,1.1-0.4,1.7-1.1,1.7c-0.6,0-1.1-0.6-1.1-1.7c0-1.1,0.5-1.7,1.1-1.7
			C153.7,95.2,154.1,95.8,154.1,96.8z M152.3,96.9c0,0.8,0.3,1.3,0.7,1.3c0.5,0,0.7-0.5,0.7-1.4c0-0.8-0.2-1.3-0.7-1.3
			C152.6,95.5,152.3,96,152.3,96.9z"/>
		<path class="st57" d="M154.5,98.5v-0.3l0.3-0.3c0.8-0.8,1.2-1.2,1.2-1.7c0-0.3-0.2-0.6-0.6-0.6c-0.3,0-0.5,0.2-0.7,0.3l-0.1-0.3
			c0.2-0.2,0.5-0.3,0.9-0.3c0.7,0,1,0.5,1,0.9c0,0.6-0.4,1.1-1.1,1.8l-0.3,0.2v0h1.5v0.4H154.5z"/>
		<path class="st57" d="M157.1,98.5v-0.3l0.3-0.3c0.8-0.8,1.2-1.2,1.2-1.7c0-0.3-0.2-0.6-0.6-0.6c-0.3,0-0.5,0.2-0.7,0.3l-0.1-0.3
			c0.2-0.2,0.5-0.3,0.9-0.3c0.7,0,1,0.5,1,0.9c0,0.6-0.4,1.1-1.1,1.8l-0.3,0.2v0h1.5v0.4H157.1z"/>
	</g>
	<g>
		<path class="st57" d="M135.7,119.7c0.2,0,0.5-0.1,0.7-0.1c0.4,0,0.7,0.1,0.9,0.2c0.2,0.1,0.2,0.3,0.2,0.6c0,0.4-0.2,0.7-0.6,0.8v0
			c0.2,0.1,0.4,0.3,0.4,0.6c0.1,0.4,0.2,0.7,0.2,0.8h-0.4c0-0.1-0.1-0.3-0.2-0.7c-0.1-0.4-0.2-0.6-0.6-0.6h-0.4v1.3h-0.4V119.7z
			 M136.1,121.1h0.4c0.4,0,0.7-0.2,0.7-0.6c0-0.4-0.3-0.6-0.7-0.6c-0.2,0-0.3,0-0.4,0V121.1z"/>
		<path class="st57" d="M139.7,121.3h-1.2v1.1h1.3v0.3h-1.7v-3h1.6v0.3h-1.2v0.9h1.2V121.3z"/>
		<path class="st57" d="M140.8,121.8l-0.3,0.9h-0.4l1-3h0.5l1,3h-0.4l-0.3-0.9H140.8z M141.8,121.5l-0.3-0.9
			c-0.1-0.2-0.1-0.4-0.2-0.5h0c0,0.2-0.1,0.4-0.2,0.5l-0.3,0.9H141.8z"/>
		<path class="st57" d="M143,119.7c0.2,0,0.5-0.1,0.8-0.1c0.6,0,1,0.1,1.2,0.4c0.3,0.2,0.4,0.6,0.4,1.1c0,0.5-0.2,0.9-0.4,1.2
			c-0.3,0.3-0.7,0.4-1.3,0.4c-0.3,0-0.5,0-0.7,0V119.7z M143.4,122.4c0.1,0,0.2,0,0.4,0c0.8,0,1.3-0.5,1.3-1.3
			c0-0.7-0.4-1.2-1.2-1.2c-0.2,0-0.4,0-0.5,0V122.4z"/>
		<path class="st57" d="M149.5,121.4c0-0.4,0-0.9,0-1.3h0c-0.1,0.4-0.2,0.7-0.4,1.1l-0.5,1.5h-0.3l-0.5-1.4
			c-0.1-0.4-0.3-0.8-0.3-1.2h0c0,0.4,0,0.9-0.1,1.3l-0.1,1.3h-0.4l0.2-3h0.5l0.5,1.4c0.1,0.4,0.2,0.7,0.3,1h0c0.1-0.3,0.2-0.6,0.3-1
			l0.5-1.4h0.5l0.2,3h-0.4L149.5,121.4z"/>
		<path class="st57" d="M153.1,121.2c0,1-0.6,1.6-1.4,1.6c-0.8,0-1.3-0.6-1.3-1.5c0-1,0.6-1.6,1.4-1.6
			C152.5,119.7,153.1,120.3,153.1,121.2z M150.7,121.2c0,0.6,0.3,1.2,1,1.2c0.6,0,1-0.6,1-1.2c0-0.6-0.3-1.2-1-1.2
			C151.1,120,150.7,120.6,150.7,121.2z"/>
		<path class="st57" d="M153.6,119.7c0.2,0,0.5-0.1,0.7-0.1c0.4,0,0.7,0.1,0.9,0.2c0.2,0.1,0.2,0.3,0.2,0.6c0,0.4-0.2,0.7-0.6,0.8v0
			c0.2,0.1,0.4,0.3,0.4,0.6c0.1,0.4,0.2,0.7,0.2,0.8h-0.4c0-0.1-0.1-0.3-0.2-0.7c-0.1-0.4-0.2-0.6-0.6-0.6H154v1.3h-0.4V119.7z
			 M154,121.1h0.4c0.4,0,0.7-0.2,0.7-0.6c0-0.4-0.3-0.6-0.7-0.6c-0.2,0-0.3,0-0.4,0V121.1z"/>
		<path class="st57" d="M157.5,121.3h-1.2v1.1h1.3v0.3H156v-3h1.6v0.3h-1.2v0.9h1.2V121.3z"/>
	</g>
	<g>
		<path class="st57" d="M240.2,91.9v-4.2h0.6l1.4,2.1c0.3,0.5,0.6,0.9,0.8,1.4l0,0c0-0.6-0.1-1.1-0.1-1.7v-1.8h0.5v4.2h-0.6
			l-1.3-2.1c-0.3-0.5-0.6-1-0.8-1.4l0,0c0,0.5,0,1,0,1.7v1.8H240.2z"/>
		<path class="st57" d="M246.6,89.9h-1.6v1.5h1.8v0.5h-2.4v-4.2h2.3v0.5h-1.7v1.3h1.6V89.9z"/>
		<path class="st57" d="M248.2,91.9l-1.1-4.2h0.6l0.5,2.1c0.1,0.5,0.2,1.1,0.3,1.5h0c0.1-0.4,0.2-0.9,0.3-1.5l0.6-2.1h0.6l0.5,2.1
			c0.1,0.5,0.2,1,0.3,1.4h0c0.1-0.5,0.2-0.9,0.3-1.5l0.6-2.1h0.6l-1.2,4.2h-0.6l-0.5-2.2c-0.1-0.5-0.2-1-0.3-1.4h0
			c-0.1,0.4-0.2,0.8-0.3,1.4l-0.6,2.2H248.2z"/>
		<path class="st57" d="M252.7,91.3c0.2,0.2,0.6,0.3,1,0.3c0.6,0,0.9-0.3,0.9-0.7c0-0.4-0.2-0.6-0.8-0.8c-0.7-0.2-1.1-0.6-1.1-1.2
			c0-0.7,0.5-1.1,1.4-1.1c0.4,0,0.7,0.1,0.9,0.2l-0.2,0.4c-0.1-0.1-0.4-0.2-0.8-0.2c-0.6,0-0.8,0.3-0.8,0.6c0,0.4,0.3,0.6,0.8,0.8
			c0.7,0.3,1.1,0.6,1.1,1.2c0,0.7-0.5,1.2-1.5,1.2c-0.4,0-0.9-0.1-1.1-0.3L252.7,91.3z"/>
		<path class="st57" d="M257.8,88.2h-1.3v-0.5h3.1v0.5h-1.3v3.8h-0.6V88.2z"/>
		<path class="st57" d="M260.6,87.7v4.2h-0.5v-4.2H260.6z"/>
		<path class="st57" d="M262.4,88.2h-1.3v-0.5h3.1v0.5h-1.3v3.8h-0.6V88.2z"/>
		<path class="st57" d="M264.7,87.7h0.5v3.8h1.8v0.5h-2.4V87.7z"/>
		<path class="st57" d="M269.8,89.9h-1.6v1.5h1.8v0.5h-2.4v-4.2h2.3v0.5h-1.7v1.3h1.6V89.9z"/>
	</g>
	<g>
		<path class="st57" d="M242.2,96.8c0,1.1-0.4,1.7-1.1,1.7c-0.6,0-1.1-0.6-1.1-1.7c0-1.1,0.5-1.7,1.1-1.7
			C241.8,95.2,242.2,95.8,242.2,96.8z M240.4,96.9c0,0.8,0.3,1.3,0.7,1.3c0.5,0,0.7-0.5,0.7-1.4c0-0.8-0.2-1.3-0.7-1.3
			C240.7,95.5,240.4,96,240.4,96.9z"/>
		<path class="st57" d="M243.5,95.6L243.5,95.6l-0.6,0.3l-0.1-0.3l0.7-0.4h0.4v3.3h-0.4V95.6z"/>
		<path class="st57" d="M244.9,98.7l1.4-3.6h0.3l-1.4,3.6H244.9z"/>
		<path class="st57" d="M249,96.8c0,1.1-0.4,1.7-1.1,1.7c-0.6,0-1.1-0.6-1.1-1.7c0-1.1,0.5-1.7,1.1-1.7
			C248.6,95.2,249,95.8,249,96.8z M247.3,96.9c0,0.8,0.3,1.3,0.7,1.3c0.5,0,0.7-0.5,0.7-1.4c0-0.8-0.2-1.3-0.7-1.3
			C247.5,95.5,247.3,96,247.3,96.9z"/>
		<path class="st57" d="M250.4,95.6L250.4,95.6l-0.6,0.3l-0.1-0.3l0.7-0.4h0.4v3.3h-0.4V95.6z"/>
		<path class="st57" d="M251.8,98.7l1.4-3.6h0.3l-1.4,3.6H251.8z"/>
		<path class="st57" d="M253.7,98.5v-0.3l0.3-0.3c0.8-0.8,1.2-1.2,1.2-1.7c0-0.3-0.2-0.6-0.6-0.6c-0.3,0-0.5,0.2-0.7,0.3l-0.1-0.3
			c0.2-0.2,0.5-0.3,0.9-0.3c0.7,0,1,0.5,1,0.9c0,0.6-0.4,1.1-1.1,1.8l-0.3,0.2v0h1.5v0.4H253.7z"/>
		<path class="st57" d="M258.5,96.8c0,1.1-0.4,1.7-1.1,1.7c-0.6,0-1.1-0.6-1.1-1.7c0-1.1,0.5-1.7,1.1-1.7
			C258.1,95.2,258.5,95.8,258.5,96.8z M256.7,96.9c0,0.8,0.3,1.3,0.7,1.3c0.5,0,0.7-0.5,0.7-1.4c0-0.8-0.2-1.3-0.7-1.3
			C257,95.5,256.7,96,256.7,96.9z"/>
		<path class="st57" d="M258.9,98.5v-0.3l0.3-0.3c0.8-0.8,1.2-1.2,1.2-1.7c0-0.3-0.2-0.6-0.6-0.6c-0.3,0-0.5,0.2-0.7,0.3l-0.1-0.3
			c0.2-0.2,0.5-0.3,0.9-0.3c0.7,0,1,0.5,1,0.9c0,0.6-0.4,1.1-1.1,1.8l-0.3,0.2v0h1.5v0.4H258.9z"/>
		<path class="st57" d="M261.5,98.5v-0.3l0.3-0.3c0.8-0.8,1.2-1.2,1.2-1.7c0-0.3-0.2-0.6-0.6-0.6c-0.3,0-0.5,0.2-0.7,0.3l-0.1-0.3
			c0.2-0.2,0.5-0.3,0.9-0.3c0.7,0,1,0.5,1,0.9c0,0.6-0.4,1.1-1.1,1.8l-0.3,0.2v0h1.5v0.4H261.5z"/>
	</g>
	<g>
		<path class="st57" d="M240.1,119.7c0.2,0,0.5-0.1,0.7-0.1c0.4,0,0.7,0.1,0.9,0.2c0.2,0.1,0.2,0.3,0.2,0.6c0,0.4-0.2,0.7-0.6,0.8v0
			c0.2,0.1,0.4,0.3,0.4,0.6c0.1,0.4,0.2,0.7,0.2,0.8h-0.4c0-0.1-0.1-0.3-0.2-0.7c-0.1-0.4-0.2-0.6-0.6-0.6h-0.4v1.3h-0.4V119.7z
			 M240.5,121.1h0.4c0.4,0,0.7-0.2,0.7-0.6c0-0.4-0.3-0.6-0.7-0.6c-0.2,0-0.3,0-0.4,0V121.1z"/>
		<path class="st57" d="M244,121.3h-1.2v1.1h1.3v0.3h-1.7v-3h1.6v0.3h-1.2v0.9h1.2V121.3z"/>
		<path class="st57" d="M245.2,121.8l-0.3,0.9h-0.4l1-3h0.5l1,3h-0.4l-0.3-0.9H245.2z M246.2,121.5l-0.3-0.9
			c-0.1-0.2-0.1-0.4-0.2-0.5h0c0,0.2-0.1,0.4-0.2,0.5l-0.3,0.9H246.2z"/>
		<path class="st57" d="M247.4,119.7c0.2,0,0.5-0.1,0.8-0.1c0.6,0,1,0.1,1.2,0.4c0.3,0.2,0.4,0.6,0.4,1.1c0,0.5-0.2,0.9-0.4,1.2
			c-0.3,0.3-0.7,0.4-1.3,0.4c-0.3,0-0.5,0-0.7,0V119.7z M247.8,122.4c0.1,0,0.2,0,0.4,0c0.8,0,1.3-0.5,1.3-1.3
			c0-0.7-0.4-1.2-1.2-1.2c-0.2,0-0.4,0-0.5,0V122.4z"/>
		<path class="st57" d="M253.8,121.4c0-0.4,0-0.9,0-1.3h0c-0.1,0.4-0.2,0.7-0.4,1.1l-0.5,1.5h-0.3l-0.5-1.4
			c-0.1-0.4-0.3-0.8-0.3-1.2h0c0,0.4,0,0.9-0.1,1.3l-0.1,1.3h-0.4l0.2-3h0.5l0.5,1.4c0.1,0.4,0.2,0.7,0.3,1h0c0.1-0.3,0.2-0.6,0.3-1
			l0.5-1.4h0.5l0.2,3h-0.4L253.8,121.4z"/>
		<path class="st57" d="M257.4,121.2c0,1-0.6,1.6-1.4,1.6c-0.8,0-1.3-0.6-1.3-1.5c0-1,0.6-1.6,1.4-1.6
			C256.9,119.7,257.4,120.3,257.4,121.2z M255.1,121.2c0,0.6,0.3,1.2,1,1.2c0.6,0,1-0.6,1-1.2c0-0.6-0.3-1.2-1-1.2
			C255.4,120,255.1,120.6,255.1,121.2z"/>
		<path class="st57" d="M258,119.7c0.2,0,0.5-0.1,0.7-0.1c0.4,0,0.7,0.1,0.9,0.2c0.2,0.1,0.2,0.3,0.2,0.6c0,0.4-0.2,0.7-0.6,0.8v0
			c0.2,0.1,0.4,0.3,0.4,0.6c0.1,0.4,0.2,0.7,0.2,0.8h-0.4c0-0.1-0.1-0.3-0.2-0.7c-0.1-0.4-0.2-0.6-0.6-0.6h-0.4v1.3H258V119.7z
			 M258.3,121.1h0.4c0.4,0,0.7-0.2,0.7-0.6c0-0.4-0.3-0.6-0.7-0.6c-0.2,0-0.3,0-0.4,0V121.1z"/>
		<path class="st57" d="M261.9,121.3h-1.2v1.1h1.3v0.3h-1.7v-3h1.6v0.3h-1.2v0.9h1.2V121.3z"/>
	</g>
</g>
</svg>
