<svg style="position: absolute; width: 0; height: 0; overflow: hidden;" version="1.1"
     xmlns="http://www.w3.org/2000/svg">
    <defs>
        <symbol id="tcb-icon-save" viewBox="0 0 448 512">
            <path d="M433.941 129.941l-83.882-83.882A48 48 0 0 0 316.118 32H48C21.49 32 0 53.49 0 80v352c0 26.51 21.49 48 48 48h352c26.51 0 48-21.49 48-48V163.882a48 48 0 0 0-14.059-33.941zM288 64v96H96V64h192zm128 368c0 8.822-7.178 16-16 16H48c-8.822 0-16-7.178-16-16V80c0-8.822 7.178-16 16-16h16v104c0 13.255 10.745 24 24 24h208c13.255 0 24-10.745 24-24V64.491a15.888 15.888 0 0 1 7.432 4.195l83.882 83.882A15.895 15.895 0 0 1 416 163.882V432zM224 232c-48.523 0-88 39.477-88 88s39.477 88 88 88 88-39.477 88-88-39.477-88-88-88zm0 144c-30.879 0-56-25.121-56-56s25.121-56 56-56 56 25.121 56 56-25.121 56-56 56z"></path>
        </symbol>
        <symbol id="tcb-icon-progress_bar" viewBox="0 0 32 32">
            <path d="M20.479 15.25h-16.146c-0.414 0-0.75 0.336-0.75 0.75s0.336 0.75 0.75 0.75h16.146c0.414 0 0.75-0.336 0.75-0.75s-0.336-0.75-0.75-0.75z"/>
            <path d="M29.408 11.133h-26.816c-1.47 0-2.665 1.196-2.665 2.666v4.403c0 1.47 1.195 2.665 2.665 2.665h26.816c1.47 0 2.665-1.195 2.665-2.665v-4.403c0-1.47-1.195-2.666-2.665-2.666zM30.573 18.202c0 0.643-0.522 1.165-1.165 1.165h-26.816c-0.643 0-1.165-0.523-1.165-1.165v-4.403c0-0.643 0.522-1.166 1.165-1.166h26.816c0.643 0 1.165 0.523 1.165 1.166v4.403z"/>
        </symbol>
        <symbol id="tcb-icon-countdown" viewBox="0 0 32 32">
            <path d="M29.749 4.496h-1.124v-1.921c0-1.289-1.048-2.337-2.337-2.337h-23.963c-1.289 0-2.337 1.048-2.337 2.337v22.835c0 1.289 1.048 2.338 2.337 2.338h1.123v1.922c0 1.289 1.049 2.338 2.338 2.338h23.963c1.289 0 2.337-1.049 2.337-2.338v-22.836c0-1.289-1.048-2.338-2.337-2.338zM2.325 1.737h23.963c0.462 0 0.837 0.375 0.837 0.837v8.707h-1.471v1.961h-5.853c0.101-0.232 0.189-0.463 0.258-0.689 0.149-0.501 0.225-1.030 0.225-1.588 0-1.013-0.26-1.82-0.779-2.419-0.52-0.599-1.209-0.899-2.071-0.899-0.548 0-1.066 0.121-1.551 0.363s-0.986 0.653-1.501 1.233l0.804 1.309c0.435-0.456 0.818-0.772 1.15-0.946 0.331-0.174 0.674-0.262 1.029-0.262 0.443 0 0.791 0.16 1.042 0.481s0.377 0.76 0.377 1.317c0 0.406-0.053 0.786-0.158 1.14-0.090 0.302-0.234 0.624-0.414 0.96h-6.914v-5.418h-1.241l-2.724 2.854 0.748 1.258c0.807-0.872 1.28-1.391 1.422-1.554s0.261-0.313 0.358-0.448c-0.034 0.558-0.051 1.312-0.051 2.263v1.044h-6.904v-1.961h-1.418v-8.705c0-0.462 0.375-0.838 0.837-0.838zM1.488 25.41v-8.435h1.418v-2.233h6.903v5.427h1.488v-5.427h5.943c-0.157 0.222-0.329 0.46-0.522 0.724l-2.388 3.201v1.503h6.277v-1.748h-4.396v-0.084l1.608-2.078c0.468-0.587 0.84-1.087 1.135-1.518h6.699v2.233h1.471v8.435c0 0.462-0.375 0.838-0.837 0.838h-23.962c-0.462 0-0.837-0.376-0.837-0.838zM30.586 29.67c0 0.462-0.375 0.838-0.837 0.838h-23.963c-0.462 0-0.838-0.376-0.838-0.838v-1.922h21.34c1.289 0 2.337-1.049 2.337-2.338v-19.414h1.124c0.462 0 0.837 0.376 0.837 0.838v22.836z"/>
        </symbol>
        <symbol id="tcb-icon-countdown_evergreen" viewBox="0 0 32 32">
            <path d="M29.749 4.496h-1.124v-1.921c0-1.289-1.048-2.337-2.337-2.337h-23.963c-1.289 0-2.337 1.048-2.337 2.337v22.835c0 1.289 1.048 2.338 2.337 2.338h1.123v1.922c0 1.289 1.049 2.338 2.338 2.338h23.963c1.289 0 2.337-1.049 2.337-2.338v-22.836c0-1.289-1.048-2.338-2.337-2.338zM2.325 1.737h23.963c0.462 0 0.837 0.375 0.837 0.837v8.707h-1.471v1.961h-5.853c0.101-0.232 0.189-0.463 0.258-0.689 0.149-0.501 0.225-1.030 0.225-1.588 0-1.013-0.26-1.82-0.779-2.419-0.52-0.599-1.209-0.899-2.071-0.899-0.548 0-1.066 0.121-1.551 0.363s-0.986 0.653-1.501 1.233l0.804 1.309c0.435-0.456 0.818-0.772 1.15-0.946 0.331-0.174 0.674-0.262 1.029-0.262 0.443 0 0.791 0.16 1.042 0.481s0.377 0.76 0.377 1.317c0 0.406-0.053 0.786-0.158 1.14-0.090 0.302-0.234 0.624-0.414 0.96h-6.914v-5.418h-1.241l-2.724 2.854 0.748 1.258c0.807-0.872 1.28-1.391 1.422-1.554s0.261-0.313 0.358-0.448c-0.034 0.558-0.051 1.312-0.051 2.263v1.044h-6.904v-1.961h-1.418v-8.705c0-0.462 0.375-0.838 0.837-0.838zM1.488 25.41v-8.435h1.418v-2.233h6.903v5.427h1.488v-5.427h5.943c-0.157 0.222-0.329 0.46-0.522 0.724l-2.388 3.201v1.503h6.277v-1.748h-4.396v-0.084l1.608-2.078c0.468-0.587 0.84-1.087 1.135-1.518h6.699v2.233h1.471v8.435c0 0.462-0.375 0.838-0.837 0.838h-23.962c-0.462 0-0.837-0.376-0.837-0.838zM30.586 29.67c0 0.462-0.375 0.838-0.837 0.838h-23.963c-0.462 0-0.838-0.376-0.838-0.838v-1.922h21.34c1.289 0 2.337-1.049 2.337-2.338v-19.414h1.124c0.462 0 0.837 0.376 0.837 0.838v22.836z"/>
        </symbol>
        <symbol id="tcb-icon-search_elem" viewBox="0 0 32 32">
            <g>
                <path d="M31.4,1.8H0.8C0.4,1.8,0.1,1.4,0.1,1s0.3-0.8,0.8-0.8h30.6c0.4,0,0.8,0.3,0.8,0.8S31.8,1.8,31.4,1.8z"/>
            </g>
            <g>
                <path d="M14.4,7.8H0.8C0.4,7.8,0.1,7.4,0.1,7s0.3-0.8,0.8-0.8h13.6c0.4,0,0.8,0.3,0.8,0.8S14.8,7.8,14.4,7.8z"/>
            </g>
            <g>
                <path d="M12.4,13.8H0.8c-0.4,0-0.8-0.3-0.8-0.8s0.3-0.8,0.8-0.8h11.6c0.4,0,0.8,0.3,0.8,0.8S12.8,13.8,12.4,13.8z"/>
            </g>
            <g>
                <path d="M15.4,19.8H0.8c-0.4,0-0.8-0.3-0.8-0.8s0.3-0.8,0.8-0.8h14.6c0.4,0,0.8,0.3,0.8,0.8S15.8,19.8,15.4,19.8z"/>
            </g>
            <path d="M31.4,21.4l-4-4.4c1.2-1.2,2-2.9,2-4.8c0-3.7-3-6.7-6.7-6.7c-3.7,0-6.7,3-6.7,6.7s3,6.7,6.7,6.7
	c1.3,0,2.5-0.4,3.5-1l4,4.5c0.1,0.2,0.4,0.2,0.6,0.2c0.2,0,0.4-0.1,0.5-0.2C31.6,22.2,31.7,21.7,31.4,21.4z M17.6,12.3
	c0-2.9,2.3-5.2,5.2-5.2c2.9,0,5.2,2.3,5.2,5.2s-2.3,5.2-5.2,5.2C19.9,17.4,17.6,15.1,17.6,12.3z"/>
            <g>
                <path d="M31.4,31.8H0.8c-0.4,0-0.8-0.3-0.8-0.8s0.3-0.8,0.8-0.8h30.6c0.4,0,0.8,0.3,0.8,0.8S31.8,31.8,31.4,31.8z"/>
            </g>
            <g>
                <path d="M25.4,25.8H0.8c-0.4,0-0.8-0.3-0.8-0.8s0.3-0.8,0.8-0.8h24.6c0.4,0,0.8,0.3,0.8,0.8S25.8,25.8,25.4,25.8z"/>
            </g>
        </symbol>
        <symbol id="tcb-icon-sync-regular" viewBox="0 0 512 512">
            <path d="M500 8h-27.711c-6.739 0-12.157 5.548-11.997 12.286l2.347 98.575C418.212 52.043 342.256 8 256 8 134.813 8 33.933 94.924 12.296 209.824 10.908 217.193 16.604 224 24.103 224h28.576c5.674 0 10.542-3.982 11.737-9.529C83.441 126.128 161.917 60 256 60c79.545 0 147.942 47.282 178.676 115.302l-126.39-3.009c-6.737-.16-12.286 5.257-12.286 11.997V212c0 6.627 5.373 12 12 12h192c6.627 0 12-5.373 12-12V20c0-6.627-5.373-12-12-12zm-12.103 280h-28.576c-5.674 0-10.542 3.982-11.737 9.529C428.559 385.872 350.083 452 256 452c-79.546 0-147.942-47.282-178.676-115.302l126.39 3.009c6.737.16 12.286-5.257 12.286-11.997V300c0-6.627-5.373-12-12-12H12c-6.627 0-12 5.373-12 12v192c0 6.627 5.373 12 12 12h27.711c6.739 0 12.157-5.548 11.997-12.286l-2.347-98.575C93.788 459.957 169.744 504 256 504c121.187 0 222.067-86.924 243.704-201.824 1.388-7.369-4.308-14.176-11.807-14.176z"/>
        </symbol>
        <symbol id="tcb-icon-control-switch" viewBox="0 0 11 10">
            <path d="M10.828 7.857H4.125v-.893a.525.525 0 0 0-.516-.535H2.58a.525.525 0 0 0-.517.535v.893H.173A.176.176 0 0 0 0 8.036v.357c0 .098.077.178.172.178h1.89v.893c0 .297.23.536.516.536H3.61a.525.525 0 0 0 .516-.536v-.893h6.703c.095 0 .172-.08.172-.178v-.357a.176.176 0 0 0-.172-.179zm-7.39 1.429H2.75V7.143h.688v2.143zm7.39-7.857H5.5V.536A.525.525 0 0 0 4.984 0h-1.03a.525.525 0 0 0-.517.536v.893H.172A.176.176 0 0 0 0 1.607v.357c0 .099.077.179.172.179h3.265v.893c0 .297.23.535.516.535h1.031a.525.525 0 0 0 .516-.535v-.893h5.328c.095 0 .172-.08.172-.179v-.357a.176.176 0 0 0-.172-.178zM4.813 2.857h-.688V.714h.688v2.143zm6.015 1.786h-1.89V3.75a.525.525 0 0 0-.516-.536H7.39a.525.525 0 0 0-.516.536v.893H.172A.176.176 0 0 0 0 4.82v.358c0 .098.077.178.172.178h6.703v.893c0 .297.23.536.516.536h1.03a.525.525 0 0 0 .517-.536v-.893h1.89c.095 0 .172-.08.172-.178V4.82a.176.176 0 0 0-.172-.178zM8.25 6.07h-.688V3.93h.688V6.07z"
                  fill="#FFF" fill-rule="nonzero"/>
        </symbol>
        <symbol id="tcb-icon-eye-light" viewBox="0 0 15 10">
            <path fill="#94A3B0" fill-rule="nonzero"
                  d="M7.5 5.833a1.667 1.667 0 0 0 0-3.333c-.026 0-.049.006-.074.008A1.237 1.237 0 0 1 5.84 4.092c0 .026-.008.05-.008.075 0 .92.747 1.666 1.667 1.666zm7.41-1.213C13.496 1.864 10.7 0 7.5 0 4.299 0 1.502 1.866.09 4.62a.842.842 0 0 0 0 .76C1.504 8.136 4.3 10 7.5 10c3.201 0 5.998-1.866 7.41-4.62a.842.842 0 0 0 0-.76zM7.5.833a3.333 3.333 0 1 1 0 6.667 3.333 3.333 0 0 1 0-6.667zm0 8.334C4.704 9.167 2.15 7.57.833 5a7.677 7.677 0 0 1 3.38-3.368 4.128 4.128 0 0 0-.88 2.535 4.167 4.167 0 1 0 8.334 0c0-.96-.337-1.831-.88-2.535A7.677 7.677 0 0 1 14.167 5C12.85 7.57 10.296 9.167 7.5 9.167z"/>
        </symbol>
        <symbol id="tcb-icon-eye-light-slash" viewBox="0 0 17 14">
            <path fill="#94A3B0" fill-rule="nonzero"
                  d="M16.92 13.268L.61.048a.208.208 0 0 0-.298.034L.047.424A.223.223 0 0 0 .08.731l16.309 13.221a.208.208 0 0 0 .299-.034l.265-.342a.223.223 0 0 0-.033-.308zM8.5 2.625c1.877.002 3.398 1.568 3.4 3.5 0 .591-.157 1.14-.41 1.629l.677.547a4.42 4.42 0 0 0 .583-2.176 4.416 4.416 0 0 0-.897-2.661A7.95 7.95 0 0 1 15.3 7a8.168 8.168 0 0 1-1.8 2.383l.673.545a9.073 9.073 0 0 0 1.884-2.53.908.908 0 0 0 0-.797C14.618 3.708 11.766 1.75 8.5 1.75a8.069 8.069 0 0 0-3.456.777l1.215.985a3.325 3.325 0 0 1 2.24-.887zm1.617 4.015a1.768 1.768 0 0 0-.243-1.56A1.662 1.662 0 0 0 8.5 4.374c-.027 0-.05.007-.076.008.103.284.101.597-.006.88l1.699 1.377zM4.336 5.296a4.34 4.34 0 0 0-.086.829c-.006 1.49.728 2.88 1.946 3.684a4.13 4.13 0 0 0 4.064.289l-.785-.637c-.311.096-.634.164-.975.164-1.877-.002-3.398-1.568-3.4-3.5 0-.067.016-.13.019-.195l-.783-.634zM8.5 11.375c-2.852 0-5.458-1.677-6.8-4.375a8.042 8.042 0 0 1 1.814-2.371l-.687-.557A9.067 9.067 0 0 0 .943 6.6a.908.908 0 0 0 0 .798c1.44 2.893 4.292 4.85 7.557 4.85a8.07 8.07 0 0 0 3.456-.777l-.777-.628a7.246 7.246 0 0 1-2.68.53z"/>
        </symbol>
        <symbol id="tcb-icon-lock-outline" viewBox="0 0 448 512">
            <path d="M224 420c-11 0-20-9-20-20v-64c0-11 9-20 20-20s20 9 20 20v64c0 11-9 20-20 20zm224-148v192c0 26.5-21.5 48-48 48H48c-26.5 0-48-21.5-48-48V272c0-26.5 21.5-48 48-48h16v-64C64 71.6 136-.3 224.5 0 312.9.3 384 73.1 384 161.5V224h16c26.5 0 48 21.5 48 48zM96 224h256v-64c0-70.6-57.4-128-128-128S96 89.4 96 160v64zm320 240V272c0-8.8-7.2-16-16-16H48c-8.8 0-16 7.2-16 16v192c0 8.8 7.2 16 16 16h352c8.8 0 16-7.2 16-16z"></path>
        </symbol>

        <symbol id="tcb-icon-arrow-down" viewBox="0 0 320 512">
            <path d="M151.5 347.8L3.5 201c-4.7-4.7-4.7-12.3 0-17l19.8-19.8c4.7-4.7 12.3-4.7 17 0L160 282.7l119.7-118.5c4.7-4.7 12.3-4.7 17 0l19.8 19.8c4.7 4.7 4.7 12.3 0 17l-148 146.8c-4.7 4.7-12.3 4.7-17 0z"/>
        </symbol>

        <symbol id="tcb-icon-conditional-display" viewBox="0 0 12 10">
            <defs>
                <path id="a" d="M0 0h1.473v4.431H8V6H0z"/>
                <path id="c" d="M0 0h1.5v4.475H8V6H0z"/>
            </defs>
            <g fill="none" fill-rule="evenodd">
                <rect stroke="#FFF" stroke-width=".7" x="4.35" y=".35" width="7.3" height="5.3" rx="1"/>
                <g transform="translate(2 2)">
                    <mask id="b" fill="#fff">
                        <use xlink:href="#a"/>
                    </mask>
                    <rect stroke="#FFF" stroke-width=".7" mask="url(#b)" x=".35" y=".35" width="7.3" height="5.3" rx="1"/>
                </g>
                <g transform="translate(0 4)">
                    <mask id="d" fill="#fff">
                        <use xlink:href="#c"/>
                    </mask>
                    <rect stroke="#FFF" stroke-width=".7" mask="url(#d)" x=".35" y=".35" width="7.3" height="5.3" rx="1"/>
                </g>
            </g>
        </symbol>

        <symbol id="tcb-icon-lock-open-outline" viewBox="0 0 384 512">
            <path d="M336 256H96v-96c0-70.6 25.4-128 96-128s96 57.4 96 128v20c0 6.6 5.4 12 12 12h8c6.6 0 12-5.4 12-12v-18.5C320 73.1 280.9.3 192.5 0 104-.3 64 71.6 64 160v96H48c-26.5 0-48 21.5-48 48v160c0 26.5 21.5 48 48 48h288c26.5 0 48-21.5 48-48V304c0-26.5-21.5-48-48-48zm16 208c0 8.8-7.2 16-16 16H48c-8.8 0-16-7.2-16-16V304c0-8.8 7.2-16 16-16h288c8.8 0 16 7.2 16 16v160zm-160-32c-8.8 0-16-7.2-16-16v-64c0-8.8 7.2-16 16-16s16 7.2 16 16v64c0 8.8-7.2 16-16 16z"></path>
        </symbol>
        <symbol id="tcb-icon-user_profile" viewBox="0 0 32 32">
            <g>
                <path class="st0" d="M16,15.23c4.15,0,7.53-3.38,7.53-7.53S20.15,0.18,16,0.18c-4.15,0-7.53,3.38-7.53,7.53S11.85,15.23,16,15.23z
		 M12.54,12.63c0.12-1.51,1.2-2.89,2.73-3.41c0.3-0.1,0.5-0.38,0.51-0.69c0.01-0.31-0.18-0.6-0.47-0.72
		c-0.74-0.3-1.22-1.01-1.22-1.81c0-1.05,0.86-1.92,1.91-1.94c0.01,0,0.03,0,0.04,0c1.05,0.02,1.91,0.89,1.91,1.94
		c0,0.8-0.48,1.51-1.22,1.81c-0.29,0.12-0.48,0.4-0.47,0.72c0.01,0.31,0.21,0.59,0.51,0.69c1.35,0.46,2.39,1.93,2.55,3.53
		c-0.95,0.62-2.08,0.99-3.3,0.99C14.71,13.73,13.52,13.32,12.54,12.63z M16,1.68c3.32,0,6.03,2.71,6.03,6.03
		c0,1.48-0.54,2.83-1.42,3.88c-0.36-1.29-1.13-2.43-2.16-3.16C19.07,7.8,19.44,6.94,19.44,6c0-1.84-1.48-3.37-3.31-3.44
		c-0.07-0.01-0.13-0.01-0.19,0c-0.02,0-0.04,0-0.06,0c-1.83,0.07-3.31,1.6-3.31,3.44c0,0.92,0.36,1.77,0.97,2.4
		c-1.1,0.71-1.91,1.79-2.29,3.01c-0.8-1.02-1.28-2.31-1.28-3.7C9.97,4.38,12.68,1.68,16,1.68z"/>
                <path class="st0" d="M0.02,17.41v4.81h31.95v-4.81H0.02z M30.47,20.72H1.52v-1.81h28.95V20.72z"/>
                <path class="st0" d="M0.02,28.69h31.95v-4.81H0.02V28.69z M1.52,25.38h28.95v1.81H1.52V25.38z"/>
                <rect y="30.42" width="11.69" height="1.5"/>
            </g>
        </symbol>
        <symbol id="tcb-icon-center" viewBox="0 0 32 32">
            <path d="M15 0h2v32h-2v-32z"></path>
            <path d="M10 12h12c1.6 0 3 1.4 3 3v2c0 1.6-1.4 3-3 3h-12c-1.6 0-3-1.4-3-3v-2c0-1.6 1.4-3 3-3z"></path>
        </symbol>
        <symbol id="tcb-icon-float" viewBox="0 0 32 32">
            <path d="M4 9.333h8v9.333h-8v-9.333zM4 5.333h24v1.333h-24v-1.333zM28 9.333v1.333h-13.333v-1.333h13.333zM28 13.333v1.333h-13.333v-1.333h13.333zM28 17.333v1.333h-13.333v-1.333h13.333zM4 21.333h18.667v1.333h-18.667v-1.333zM4 25.333h24v1.333h-24v-1.333z"></path>
        </symbol>
        <symbol id="tcb-icon-justify" viewBox="0 0 32 32">
            <path d="M30 0h2v32h-2v-32z"></path>
            <path d="M0 0h2v32h-2v-32z"></path>
            <path d="M9 12h14c1.6 0 3 1.4 3 3v2c0 1.6-1.4 3-3 3h-14c-1.6 0-3-1.4-3-3v-2c0-1.6 1.4-3 3-3z"></path>
        </symbol>
        <symbol id="tcb-icon-left" viewBox="0 0 32 32">
            <path d="M5 0h2v32h-2v-32z"></path>
            <path d="M14 12h10c1.6 0 3 1.4 3 3v2c0 1.6-1.4 3-3 3h-10c-1.6 0-3-1.4-3-3v-2c0-1.6 1.4-3 3-3z"></path>
        </symbol>
        <symbol id="tcb-icon-right" viewBox="0 0 32 32">
            <path d="M25 0h2v32h-2v-32z"></path>
            <path d="M8 12h10c1.6 0 3 1.4 3 3v2c0 1.6-1.4 3-3 3h-10c-1.6 0-3-1.4-3-3v-2c0-1.6 1.4-3 3-3z"></path>
        </symbol>
        <symbol id="tcb-icon-move" viewBox="0 0 512 512">
            <path d="M337.782 434.704l-73.297 73.782c-4.686 4.686-12.284 4.686-16.971 0l-73.296-73.782c-4.686-4.686-4.686-12.284 0-16.97l7.07-7.07c4.686-4.686 12.284-4.686 16.971 0L239 451.887h1V272H60.113v1l41.224 40.741c4.686 4.686 4.686 12.284 0 16.971l-7.071 7.07c-4.686 4.686-12.284 4.686-16.97 0L3.515 264.485c-4.686-4.686-4.686-12.284 0-16.971l73.782-73.297c4.686-4.686 12.284-4.686 16.971 0l7.071 7.071c4.686 4.686 4.686 12.284 0 16.971L60.113 239v1H240V60.113h-1l-40.741 41.224c-4.686 4.686-12.284 4.686-16.971 0l-7.07-7.071c-4.686-4.686-4.687-12.284 0-16.97l73.297-73.782c4.686-4.686 12.284-4.686 16.971 0l73.297 73.782c4.686 4.686 4.686 12.284 0 16.971l-7.071 7.071c-4.686 4.686-12.284 4.686-16.971 0L273 60.113h-1V240h179.887v-1l-41.224-40.741c-4.686-4.686-4.686-12.284 0-16.971l7.071-7.07c4.686-4.686 12.284-4.686 16.97 0l73.782 73.297c4.687 4.686 4.686 12.284 0 16.971l-73.782 73.297c-4.686 4.686-12.284 4.686-16.97 0l-7.071-7.07c-4.686-4.686-4.686-12.284 0-16.971L451.887 273v-1H272v179.887h1l40.741-41.224c4.686-4.686 12.284-4.686 16.971 0l7.07 7.071c4.686 4.685 4.686 12.283 0 16.97z"></path>
        </symbol>
        <symbol id="tcb-icon-play" viewBox="0 0 32 32">
            <path fill="#fff" style="fill: var(--color1, #fff)"
                  d="M29.854 7.969c-1.422-2.431-3.392-4.401-5.748-5.782l-0.075-0.041q-3.677-2.146-8.031-2.146t-8.031 2.146c-2.431 1.422-4.401 3.392-5.782 5.748l-0.041 0.075q-2.146 3.678-2.146 8.031t2.146 8.031c1.422 2.431 3.392 4.401 5.748 5.782l0.075 0.041q3.677 2.146 8.031 2.146t8.031-2.146c2.431-1.422 4.401-3.392 5.782-5.748l0.041-0.075q2.146-3.678 2.146-8.031t-2.146-8.031zM24 17.146l-11.333 6.667c-0.19 0.118-0.42 0.188-0.666 0.188-0 0-0.001 0-0.001 0h0c-0.244-0.003-0.473-0.064-0.675-0.171l0.008 0.004q-0.667-0.396-0.667-1.166v-13.333q0-0.771 0.667-1.167 0.688-0.375 1.333 0.021l11.334 6.667q0.666 0.375 0.666 1.146t-0.666 1.146z"></path>
        </symbol>
        <symbol id="tcb-icon-video-player" viewBox="0 0 32 32">
            <path d="M21.224 18.053l-8-4c-0.155-0.077-0.339-0.070-0.486 0.022s-0.237 0.252-0.237 0.425v8c0 0.173 0.090 0.334 0.237 0.425 0.080 0.050 0.171 0.075 0.263 0.075 0.077 0 0.153-0.018 0.224-0.053l8-4c0.169-0.085 0.276-0.258 0.276-0.447s-0.107-0.362-0.276-0.447zM13.5 21.691v-6.382l6.382 3.191-6.382 3.191z"></path>
            <path d="M30 2.5h-28c-1.105 0-2 0.895-2 2v23c0 1.105 0.895 2 2 2h28c1.105 0 2-0.895 2-2v-23c0-1.105-0.895-2-2-2zM31 4.5v4h-4.164l1.34-5h1.825c0.551 0 1 0.449 1 1zM10.64 3.5l-1.339 5h-4.475l1.339-5h4.475zM11.675 3.5h4.465l-1.339 5h-4.465l1.339-5zM17.175 3.5h4.465l-1.34 5h-4.465l1.34-5zM22.675 3.5h4.465l-1.34 5h-4.465l1.34-5zM2 3.5h3.13l-1.339 5h-2.79v-4c0-0.551 0.449-1 1-1zM30 28.5h-28c-0.551 0-1-0.449-1-1v-18h30v18c0 0.551-0.449 1-1 1z"></path>
        </symbol>
        <symbol id="tcb-icon-audio-player" viewBox="-14 -11.7 28 23.3">
            <path d="M0.6-11.7c-0.3,0-0.7,0.1-0.9,0.4l-6.6,5.4H-11c-1.6,0-3,1.3-3,3v5.9c0,1.6,1.3,3,3,3h4.2l6.7,5.4
				c0.4,0.4,1,0.5,1.5,0.2c0.5-0.3,0.8-0.8,0.7-1.3v-20.4c0-0.6-0.4-1.1-0.9-1.3C1-11.6,0.8-11.7,0.6-11.7z M0.7-10.2L0.7-10.2
				C0.7-10.2,0.7-10.2,0.7-10.2z M-11,4.4c-0.8,0-1.5-0.7-1.5-1.5V-3c0-0.8,0.7-1.5,1.5-1.5h4.4c0.2,0,0.3-0.1,0.5-0.2l6.8-5.5
				l0,20.1l-6.7-5.4c-0.1-0.1-0.3-0.2-0.5-0.2H-11z M0.4,10.7L0.4,10.7L0.4,10.7z"/>
            <path d="M10-8.2c-0.2,0-0.4,0.1-0.6,0.3C9.2-7.6,9.2-7.2,9.6-6.9c1.8,1.5,2.9,4.1,2.9,6.8c0,2.7-1.2,5.4-3.1,6.9
				C9.1,7.1,9,7.6,9.3,7.9C9.5,8.2,10,8.3,10.3,8C12.6,6.2,14,3.1,14-0.1c0-3.2-1.3-6.1-3.5-8C10.4-8.2,10.2-8.2,10-8.2z"/>
            <path d="M6-4.2C5.7-4.2,5.5-4.1,5.4-4C5.1-3.6,5.1-3.2,5.5-2.9C6.2-2.2,6.7-1.1,6.7,0c0,1.1-0.5,2.3-1.3,2.9
				C5.1,3.2,5,3.7,5.3,4C5.5,4.3,6,4.4,6.3,4.1C7.5,3.2,8.2,1.7,8.2,0C8.2-1.5,7.5-3,6.4-4C6.3-4.1,6.1-4.2,6-4.2z"/>
        </symbol>
        <symbol id="tcb-icon-post_grid" viewBox="0 0 32 32">
            <path d="M14.045 14.54c0.414 0 0.75-0.336 0.75-0.75s-0.336-0.75-0.75-0.75h-13.295c-0.414 0-0.75 0.337-0.75 0.75s0.336 0.75 0.75 0.75h13.295z"></path>
            <path d="M31.25 13.040h-13.295c-0.414 0-0.75 0.336-0.75 0.75s0.336 0.75 0.75 0.75h13.295c0.414 0 0.75-0.336 0.75-0.75s-0.336-0.75-0.75-0.75z"></path>
            <path d="M13.285-0.033h-11.6c-0.929 0-1.685 0.756-1.685 1.685v7.797c0 0.929 0.756 1.685 1.685 1.685h11.6c0.929 0 1.685-0.756 1.685-1.685v-7.797c0-0.929-0.756-1.685-1.685-1.685zM13.47 9.449c0 0.102-0.083 0.185-0.185 0.185h-11.6c-0.102 0-0.185-0.083-0.185-0.185v-7.797c0-0.102 0.083-0.185 0.185-0.185h11.6c0.102 0 0.185 0.083 0.185 0.185v7.797z"></path>
            <path d="M30.315-0.033h-11.6c-0.929 0-1.684 0.756-1.684 1.685v7.797c0 0.929 0.756 1.685 1.684 1.685h11.6c0.93 0 1.685-0.756 1.685-1.685v-7.797c0-0.929-0.756-1.685-1.685-1.685zM30.5 9.449c0 0.102-0.083 0.185-0.185 0.185h-11.6c-0.101 0-0.184-0.083-0.184-0.185v-7.797c0-0.102 0.083-0.185 0.184-0.185h11.6c0.102 0 0.185 0.083 0.185 0.185v7.797z"></path>
            <path d="M14.045 30.5h-13.295c-0.414 0-0.75 0.336-0.75 0.75s0.336 0.75 0.75 0.75h13.295c0.414 0 0.75-0.336 0.75-0.75s-0.335-0.75-0.75-0.75z"></path>
            <path d="M31.25 30.5h-13.295c-0.414 0-0.75 0.336-0.75 0.75s0.336 0.75 0.75 0.75h13.295c0.414 0 0.75-0.336 0.75-0.75s-0.336-0.75-0.75-0.75z"></path>
            <path d="M13.285 17.426h-11.6c-0.929 0-1.685 0.756-1.685 1.685v7.797c0 0.93 0.756 1.686 1.685 1.686h11.6c0.929 0 1.685-0.756 1.685-1.686v-7.797c0-0.929-0.756-1.685-1.685-1.685zM13.47 26.908c0 0.103-0.083 0.186-0.185 0.186h-11.6c-0.102 0-0.185-0.083-0.185-0.186v-7.797c0-0.102 0.083-0.185 0.185-0.185h11.6c0.102 0 0.185 0.083 0.185 0.185v7.797z"></path>
            <path d="M30.315 17.426h-11.6c-0.929 0-1.684 0.756-1.684 1.685v7.797c0 0.93 0.756 1.686 1.684 1.686h11.6c0.93 0 1.685-0.756 1.685-1.686v-7.797c0-0.929-0.756-1.685-1.685-1.685zM30.5 26.908c0 0.103-0.083 0.186-0.185 0.186h-11.6c-0.101 0-0.184-0.083-0.184-0.186v-7.797c0-0.102 0.083-0.185 0.184-0.185h11.6c0.104 0 0.185 0.081 0.185 0.185v7.797z"></path>
        </symbol>
        <symbol id="tcb-icon-content_temp" viewBox="0 0 32 32">
            <path d="M26.393 12.581h-20.786v6.837h20.785v-6.837zM24.893 17.918h-17.786v-3.837h17.785v3.837z"></path>
            <path d="M25.885 8.962h-19.77c-0.414 0-0.75 0.336-0.75 0.75s0.336 0.75 0.75 0.75h19.77c0.414 0 0.75-0.336 0.75-0.75s-0.336-0.75-0.75-0.75z"></path>
            <path d="M25.885 21.538h-19.77c-0.414 0-0.75 0.336-0.75 0.75s0.336 0.75 0.75 0.75h19.77c0.414 0 0.75-0.336 0.75-0.75s-0.336-0.75-0.75-0.75z"></path>
            <path d="M1.5 3.602c0-1.159 0.943-2.102 2.137-2.102l-0.035-1.5c-1.986 0-3.602 1.616-3.602 3.602v0.667h1.5v-0.667z"></path>
            <path d="M0 18.327h1.5v5.184h-1.5v-5.184z"></path>
            <path d="M0 11.913h1.5v5.184h-1.5v-5.184z"></path>
            <path d="M0 5.499h1.5v5.184h-1.5v-5.184z"></path>
            <path d="M17.694 0h5.185v1.5h-5.185v-1.5z"></path>
            <path d="M29.021 1.621l0.504-1.413c-0.387-0.138-0.795-0.208-1.209-0.208h-4.208v1.5h4.208c0.243 0 0.48 0.041 0.705 0.121z"></path>
            <path d="M4.867 0h5.184v1.5h-5.184v-1.5z"></path>
            <path d="M1.5 28.316v-3.576h-1.5v3.576c0 0.685 0.193 1.351 0.558 1.926l1.267-0.803c-0.213-0.335-0.325-0.722-0.325-1.123z"></path>
            <path d="M11.281 0h5.184v1.5h-5.184v-1.5z"></path>
            <path d="M14.786 30.418h5.184v1.5h-5.184v-1.5z"></path>
            <path d="M30.418 14.154h1.5v5.185h-1.5v-5.185z"></path>
            <path d="M2.458 30.079l-0.818 1.258c0.584 0.38 1.263 0.581 1.962 0.581h3.541v-1.5h-3.541c-0.409 0-0.805-0.117-1.144-0.339z"></path>
            <path d="M30.418 7.741h1.5v5.184h-1.5v-5.184z"></path>
            <path d="M30.418 28.316c0 1.159-0.942 2.102-2.102 2.102h-0.702v1.5h0.702c1.986 0 3.602-1.615 3.602-3.602v-1.334h-1.5v1.334z"></path>
            <path d="M30.418 20.568h1.5v5.184h-1.5v-5.184z"></path>
            <path d="M8.372 30.418h5.184v1.5h-5.184v-1.5z"></path>
            <path d="M30.833 1.024l-1.049 1.073c0.409 0.399 0.634 0.933 0.634 1.504v2.909h1.5v-2.908c0-0.978-0.386-1.893-1.085-2.578z"></path>
            <path d="M21.2 30.418h5.184v1.5h-5.184v-1.5z"></path>
        </symbol>
        <symbol id="tcb-icon-copy" viewBox="0 0 448 512">
            <path d="M433.941 65.941l-51.882-51.882A48 48 0 0 0 348.118 0H176c-26.51 0-48 21.49-48 48v48H48c-26.51 0-48 21.49-48 48v320c0 26.51 21.49 48 48 48h224c26.51 0 48-21.49 48-48v-48h80c26.51 0 48-21.49 48-48V99.882a48 48 0 0 0-14.059-33.941zM352 32.491a15.88 15.88 0 0 1 7.431 4.195l51.882 51.883A15.885 15.885 0 0 1 415.508 96H352V32.491zM288 464c0 8.822-7.178 16-16 16H48c-8.822 0-16-7.178-16-16V144c0-8.822 7.178-16 16-16h80v240c0 26.51 21.49 48 48 48h112v48zm128-96c0 8.822-7.178 16-16 16H176c-8.822 0-16-7.178-16-16V48c0-8.822 7.178-16 16-16h144v72c0 13.2 10.8 24 24 24h72v240z"></path>
        </symbol>
        <symbol id="tcb-icon-trash" viewBox="0 0 512 512">
            <path d="M368 64l-33.6-44.8C325.3 7.1 311.1 0 296 0h-80c-15.1 0-29.3 7.1-38.4 19.2L144 64H40c-13.3 0-24 10.7-24 24v2c0 3.3 2.7 6 6 6h20.9l33.2 372.3C78.3 493 99 512 123.9 512h264.2c24.9 0 45.6-19 47.8-43.7L469.1 96H490c3.3 0 6-2.7 6-6v-2c0-13.3-10.7-24-24-24H368zM216 32h80c5 0 9.8 2.4 12.8 6.4L328 64H184l19.2-25.6c3-4 7.8-6.4 12.8-6.4zm188 433.4c-.7 8.3-7.6 14.6-15.9 14.6H123.9c-8.3 0-15.2-6.3-15.9-14.6L75 96h362l-33 369.4z"></path>
        </symbol>
        <symbol id="tcb-icon-add" viewBox="0 0 32 32">
            <path d="M18 4v10h10v4h-10v10h-4v-10h-10v-4h10v-10h4z"></path>
        </symbol>
        <symbol id="tcb-icon-delete" viewBox="0 0 32 32">
            <path d="M22 8c0-2.2-1.8-4-4-4h-4c-2.2 0-4 1.8-4 4h-4v2h20v-2h-4zM12 8c0-1.2 0.8-2 2-2h4c1.2 0 2 0.8 2 2h-8z"></path>
            <path d="M8 24c0 2.2 1.8 4 4 4h8c2.2 0 4-1.8 4-4v-12h-16v12z"></path>
        </symbol>
        <symbol id="tcb-icon-merge" viewBox="0 0 32 32">
            <path d="M22.667 27.2l1.867-1.867-4.533-4.533-1.867 1.867zM10 10.667h4.667v7.467l-7.2 7.2 1.867 1.867 8-8v-8.533h4.667l-6-6z"></path>
        </symbol>
        <symbol id="tcb-icon-split" viewBox="0 0 32 32">
            <path d="M18.667 5.333l3.067 3.067-3.867 3.867 1.867 1.867 3.867-3.867 3.067 3.067v-8zM13.333 5.333h-8v8l3.067-3.067 6.267 6.267v10.133h2.667v-11.2l-7.067-7.067z"></path>
        </symbol>
        <symbol id="tcb-icon-table" viewBox="0 0 32 32">
            <path d="M-0.022-0.022v32.045h32.045v-32.045h-32.045zM30.522 10.261h-8.689v-8.783h8.689v8.783zM11.667 20.427v-8.666h8.667v8.666h-8.667zM20.333 21.927v8.596h-8.667v-8.596h8.667zM10.167 20.427h-8.689v-8.666h8.689v8.666zM11.667 10.261v-8.783h8.667v8.783h-8.667zM21.833 11.761h8.689v8.666h-8.689v-8.666zM10.167 1.478v8.783h-8.689v-8.783h8.689zM1.478 21.927h8.689v8.596h-8.689v-8.596zM21.833 30.522v-8.596h8.689v8.596h-8.689z"></path>
        </symbol>
        <symbol id="tcb-icon-post-list" viewBox="0 0 32 32" fill="#fff">
            <path class="st0" d="M10.8,4.2H4.2v6.6h6.6V4.2z M9.3,9.3H5.7V5.7h3.6V9.3z"/>
            <path class="st0" d="M31.4,0.1H0.7c-0.4,0-0.8,0.3-0.8,0.8v13.3c0,0.4,0.3,0.8,0.8,0.8h30.7c0.4,0,0.8-0.3,0.8-0.8V0.8
                    C32.1,0.4,31.8,0.1,31.4,0.1z M30.6,13.4H1.4V1.6h29.2V13.4z"/>
            <path class="st0" d="M13.1,6.7h13.7c0.4,0,0.8-0.3,0.8-0.8s-0.3-0.8-0.8-0.8H13.1c-0.4,0-0.8,0.3-0.8,0.8S12.7,6.7,13.1,6.7z"/>
            <path class="st0" d="M13.1,9.6h8.7c0.4,0,0.8-0.3,0.8-0.8s-0.3-0.8-0.8-0.8h-8.7c-0.4,0-0.8,0.3-0.8,0.8S12.7,9.6,13.1,9.6z"/>
            <path class="st0" d="M10.8,21.4H4.2V28h6.6V21.4z M9.3,26.5H5.7v-3.6h3.6V26.5z"/>
            <path class="st0" d="M31.4,17.3H0.7c-0.4,0-0.8,0.3-0.8,0.8v13.3c0,0.4,0.3,0.8,0.8,0.8h30.7c0.4,0,0.8-0.3,0.8-0.8V18
                    C32.1,17.6,31.8,17.3,31.4,17.3z M30.6,30.6H1.4V18.8h29.2V30.6z"/>
            <path class="st0" d="M13.1,23.8h13.7c0.4,0,0.8-0.3,0.8-0.8s-0.3-0.8-0.8-0.8H13.1c-0.4,0-0.8,0.3-0.8,0.8S12.7,23.8,13.1,23.8z"/>
            <path class="st0" d="M13.1,26.8h8.7c0.4,0,0.8-0.3,0.8-0.8s-0.3-0.8-0.8-0.8h-8.7c-0.4,0-0.8,0.3-0.8,0.8S12.7,26.8,13.1,26.8z"/>
        </symbol>
        <symbol id="tcb-icon-image" viewBox="0 0 32 32">
            <path d="M29.301 0.049h-26.602c-1.461 0-2.65 1.188-2.65 2.649v26.603c0 1.462 1.189 2.65 2.65 2.65h26.602c1.462 0 2.65-1.189 2.65-2.65v-26.603c0-1.461-1.188-2.649-2.65-2.649zM2.699 1.549h26.602c0.635 0 1.15 0.516 1.15 1.149v23.305l-7.881-8.152-4.18 4.288-6.324-6.262-10.517 10.375v-23.554c0-0.634 0.515-1.149 1.15-1.149zM1.549 29.301v-0.94l10.518-10.377 5.061 4.988 0.238 0.271-6.969 7.208h-7.698c-0.635 0-1.15-0.516-1.15-1.15zM29.301 30.451h-16.817l10.091-10.438 7.812 8.081c0.019 0.020 0.044 0.027 0.065 0.044v1.162c-0.001 0.635-0.517 1.151-1.151 1.151z"></path>
            <path d="M21.571 12.57c1.902 0 3.449-1.548 3.449-3.45s-1.547-3.449-3.449-3.449c-1.902 0-3.449 1.547-3.449 3.449s1.547 3.45 3.449 3.45zM21.571 7.171c1.075 0 1.949 0.875 1.949 1.949s-0.874 1.95-1.949 1.95-1.949-0.875-1.949-1.95c0-1.075 0.874-1.949 1.949-1.949z"></path>
        </symbol>
        <symbol id="tcb-icon-testimonials" viewBox="0 0 32 32">
            <path d="M20.405 7.832h-1.349l1.228-3.638h-2.096l-1.639 3.857v3.759h3.856z"></path>
            <path d="M14.997 7.832h-1.351l1.23-3.638h-2.097l-1.639 3.857v3.759h3.857z"></path>
            <path d="M27.237 17.257c0-0.414-0.336-0.75-0.75-0.75h-21.069c-0.414 0-0.75 0.336-0.75 0.75s0.336 0.75 0.75 0.75h21.069c0.414 0 0.75-0.336 0.75-0.75z"></path>
            <path d="M5.418 20.6c-0.414 0-0.75 0.336-0.75 0.75s0.336 0.75 0.75 0.75h14.543c0.414 0 0.75-0.336 0.75-0.75s-0.336-0.75-0.75-0.75h-14.543z"></path>
            <path d="M29.313 8.915h-6.739v1.5h6.739c0.626 0 1.136 0.51 1.136 1.137v13.617c0 0.627-0.51 1.137-1.136 1.137h-26.625c-0.627 0-1.137-0.51-1.137-1.137v-13.617c0-0.627 0.51-1.137 1.137-1.137h6.21v-1.5h-6.21c-1.454 0-2.637 1.183-2.637 2.637v13.617c0 1.454 1.183 2.637 2.637 2.637h26.626c1.453 0 2.636-1.183 2.636-2.637v-13.617c-0.001-1.454-1.183-2.637-2.637-2.637z"></path>
        </symbol>
        <symbol id="tcb-icon-custom_html" viewBox="0 0 32 32">
            <path d="M18.985 2.537c-0.409-0.086-0.803 0.176-0.887 0.583l-5.27 25.456c-0.084 0.406 0.177 0.803 0.583 0.887 0.051 0.011 0.102 0.016 0.153 0.016 0.348 0 0.66-0.243 0.733-0.598l5.27-25.457c0.084-0.406-0.176-0.803-0.582-0.887z"></path>
            <path d="M31.728 15.567l-6.549-5.415c-0.317-0.263-0.791-0.219-1.056 0.1-0.264 0.319-0.219 0.792 0.101 1.056l5.83 4.821-5.814 4.549c-0.326 0.256-0.384 0.727-0.129 1.053 0.148 0.19 0.368 0.288 0.592 0.288 0.161 0 0.324-0.052 0.461-0.159l6.549-5.124c0.179-0.14 0.285-0.354 0.288-0.58 0.002-0.227-0.098-0.444-0.273-0.589z"></path>
            <path d="M7.965 10.252c-0.265-0.318-0.737-0.364-1.056-0.1l-6.547 5.415c-0.175 0.145-0.275 0.361-0.272 0.588s0.109 0.44 0.288 0.58l6.547 5.124c0.137 0.107 0.3 0.159 0.462 0.159 0.223 0 0.443-0.099 0.591-0.288 0.255-0.326 0.198-0.797-0.128-1.053l-5.813-4.549 5.829-4.821c0.319-0.263 0.363-0.736 0.099-1.055z"></path>
        </symbol>
        <symbol id="tcb-icon-wordpress" viewBox="0 0 32 32">
            <path d="M16 0.353c-8.628 0-15.647 7.019-15.647 15.647s7.019 15.647 15.647 15.647c8.628 0 15.647-7.020 15.647-15.647s-7.019-15.647-15.647-15.647zM16 1.853c3.614 0 6.905 1.374 9.408 3.612-0.007-0.001-0.017-0.004-0.023-0.004-2.473-0.254-2.725 1.741-2.502 2.998 0.152 0.866 0.455 1.882 1.649 3.782 1.34 2.137 0.479 5.578 0.479 5.578l-2.15 7.129-4.834-15.58c0.467 0 0.861 0 1.105 0 0.77 0.007 0.984-0.431 0.938-0.717-0.020-0.088-0.1-0.347-0.326-0.448-0.375-0.159-1.779-0.051-3.477-0.051-1.707 0-3.020 0.002-4.038-0.010-0.164 0-0.47 0.145-0.474 0.478-0.004 0.354 0.388 0.807 0.885 0.782 0.535-0.027 1.043-0.020 1.043-0.020s0.019 0 0.055 0l2.057 6.274-2.964 9.337-4.953-15.492c0.45 0 0.831 0 1.074 0 0.765 0.004 0.984-0.431 0.933-0.713-0.010-0.094-0.096-0.352-0.331-0.447-0.37-0.162-1.772-0.057-3.473-0.057-0.956 0-1.472 0.001-1.924 0.002 2.528-3.868 6.888-6.433 11.843-6.433zM1.853 16c0-2.359 0.588-4.58 1.613-6.538 0.018 0.037 0.029 0.060 0.029 0.060s0.025-0.004 0.059-0.004l0.604 1.613 2.077 6.111v0.005l0.006 0.007 4.053 11.683c-4.964-2.201-8.441-7.167-8.441-12.937zM12.52 29.696l4.207-12.278 3.838 11.959c-1.434 0.491-2.967 0.77-4.565 0.77-1.203 0-2.364-0.167-3.48-0.451zM23.046 28.25c1.199-3.713 4.315-13.401 4.772-15.21 0.398-1.584 0.566-2.839 0.504-3.967 1.157 2.050 1.825 4.41 1.825 6.927 0 5.234-2.864 9.803-7.101 12.25z"></path>
        </symbol>
        <symbol id="tcb-icon-column" viewBox="0 0 32 32">
            <path d="M18.5 0.3h-5c-1.2 0-2.3 1-2.3 2.3v27c0 1.2 1 2.3 2.3 2.3h5c1.2 0 2.3-1 2.3-2.3v-27c0-1.3-1.1-2.3-2.3-2.3zM19.3 29.5c0 0.4-0.3 0.8-0.8 0.8h-5c-0.4 0-0.8-0.3-0.8-0.8v-27c0-0.4 0.3-0.8 0.8-0.8h5c0.4 0 0.8 0.3 0.8 0.8v27z"></path>
            <path d="M29.5 0h-5c-1.2 0-2.3 1-2.3 2.3v27c0 1.2 1 2.3 2.3 2.3h5c1.2 0 2.3-1 2.3-2.3v-27c-0.1-1.3-1.1-2.3-2.3-2.3zM30.2 29.3c0 0.4-0.3 0.8-0.8 0.8h-5c-0.4 0-0.8-0.3-0.8-0.8v-27c0-0.4 0.3-0.8 0.8-0.8h5c0.4 0 0.8 0.3 0.8 0.8v27z"></path>
            <path d="M7.6 0h-5c-1.3 0-2.3 1-2.3 2.3v27c0 1.2 1 2.3 2.3 2.3h5c1.2 0 2.3-1 2.3-2.3v-27c-0.1-1.3-1.1-2.3-2.3-2.3zM8.3 29.3c0 0.4-0.3 0.7-0.7 0.7h-5c-0.4 0-0.8-0.3-0.8-0.8v-27c0-0.4 0.3-0.8 0.8-0.8h5c0.4 0 0.8 0.3 0.8 0.8v27.1z"></path>
        </symbol>
        <symbol id="tcb-icon-call_2_action" viewBox="0 0 32 32">
            <title>call_2_action</title>
            <path d="M28.357 0.041h-24.714c-1.986 0-3.602 1.616-3.602 3.602v24.715c0 1.986 1.616 3.602 3.602 3.602h24.715c1.986 0 3.602-1.615 3.602-3.602v-24.716c-0.001-1.986-1.616-3.601-3.603-3.601zM30.459 28.357c0 1.159-0.942 2.102-2.102 2.102h-11.654l-0.001-3.563c0-0.053-0.021-0.099-0.030-0.149l2.151 0.006-2.954-3.658-2.701 3.644 1.947 0.005c-0.010 0.051-0.031 0.099-0.031 0.152l0.001 3.563h-11.442c-1.159 0-2.102-0.942-2.102-2.102v-24.715c0-1.159 0.943-2.102 2.102-2.102h24.715c1.159 0 2.102 0.943 2.102 2.102v24.715z"></path>
            <path d="M25.805 15.364h-20.087c-0.998 0-1.809 0.811-1.809 1.809v7.876c0 0.997 0.811 1.809 1.809 1.809h6.155v-1.618h-6.155c-0.105 0-0.191-0.086-0.191-0.191v-7.876c0-0.105 0.086-0.191 0.191-0.191h20.086c0.105 0 0.191 0.086 0.191 0.191v7.876c0 0.106-0.086 0.191-0.191 0.191h-5.89v1.617h5.89c0.997 0 1.809-0.812 1.809-1.809v-7.876c0-0.997-0.811-1.808-1.808-1.808z"></path>
            <path d="M15.893 18.281c-0.447 0-0.809 0.362-0.809 0.809v2.115c0 0.446 0.362 0.809 0.809 0.809s0.809-0.362 0.809-0.809v-2.115c0-0.446-0.362-0.809-0.809-0.809z"></path>
            <path d="M21.781 23.772c0-0.446-0.362-0.809-0.809-0.809h-2.115c-0.446 0-0.809 0.362-0.809 0.809 0 0.446 0.362 0.809 0.809 0.809h2.115c0.447 0 0.809-0.362 0.809-0.809z"></path>
            <path d="M12.93 22.964h-2.115c-0.447 0-0.809 0.362-0.809 0.809 0 0.446 0.362 0.809 0.809 0.809h2.115c0.447 0 0.809-0.362 0.809-0.809s-0.362-0.809-0.809-0.809z"></path>
            <path d="M12.663 19.808c-0.338-0.292-0.848-0.258-1.141 0.080s-0.257 0.848 0.080 1.141l1.596 1.387c0.153 0.133 0.342 0.198 0.53 0.198 0.226 0 0.451-0.094 0.611-0.278 0.293-0.337 0.257-0.848-0.080-1.141l-1.596-1.387z"></path>
            <path d="M19.976 21.272c0.338-0.293 0.373-0.804 0.080-1.141-0.293-0.338-0.806-0.371-1.141-0.080l-1.595 1.387c-0.337 0.293-0.373 0.804-0.080 1.141 0.16 0.185 0.385 0.278 0.61 0.278 0.189 0 0.378-0.065 0.53-0.198l1.596-1.387z"></path>
            <path d="M5.037 10.049h21.465c0.414 0 0.75-0.336 0.75-0.75s-0.336-0.75-0.75-0.75h-21.465c-0.414 0-0.75 0.336-0.75 0.75s0.336 0.75 0.75 0.75z"></path>
            <path d="M5.037 13.049h21.465c0.414 0 0.75-0.336 0.75-0.75s-0.336-0.75-0.75-0.75h-21.465c-0.414 0-0.75 0.336-0.75 0.75s0.336 0.75 0.75 0.75z"></path>
            <path d="M5.037 7.049h7.465c0.414 0 0.75-0.336 0.75-0.75s-0.336-0.75-0.75-0.75h-7.465c-0.414 0-0.75 0.336-0.75 0.75s0.336 0.75 0.75 0.75z"></path>
        </symbol>
        <symbol id="tcb-icon-styled_box" viewBox="0 0 32 32">
            <title>styled_box</title>
            <path fill="#333" style="fill: var(--color3, #333)"
                  d="M32 32.1h-5.9v-1.5h5.2v0.6h0.7v0.9zM24.8 32.1h-5.2v-1.5h5.2v1.5zM18.4 32.1h-5.2v-1.5h5.2v1.5zM12 32.1h-5.2v-1.5h5.2v1.5zM5.6 32.1h-5.6v-1.1h0.8v-0.4h4.8v1.5zM32 30h-1.5v-5.2h1.5v5.2zM1.5 29.7h-1.5v-5.2h1.5v5.2zM32 23.5h-1.5v-5.2h1.5v5.2zM1.5 23.3h-1.5v-5.2h1.5v5.2zM32 17.1h-1.5v-5.2h1.5v5.2zM1.5 16.9h-1.5v-5.2h1.5v5.2zM32 10.7h-1.5v-5.2h1.5v5.2zM1.5 10.5h-1.5v-5.2h1.5v5.2zM32 4.3h-1.5v-2.7h-1v-1.5h2.5v4.2zM1.5 4.1h-1.5v-4h2.7v1.5h-1.2v2.5zM28.3 1.6h-5.2v-1.5h5.2v1.5zM21.9 1.6h-5.2v-1.5h5.2v1.5zM15.5 1.6h-5.2v-1.5h5.2v1.5zM9.1 1.6h-5.2v-1.5h5.2v1.5z"></path>
            <path fill="#333" style="fill: var(--color3, #333)" d="M28 28.1h-24v-24h24v24zM5.5 26.6h21v-21h-21v21z"></path>
            <path fill="#f9f7f7" style="fill: var(--color7, #f9f7f7)" d="M9.6 21.1c0 0 1.4-0.7 1.6-2 0.2-1.2 1.1-1.8 1.6-2 0.5-0.1 1.4 0.1 1.4 0.1l0.9 1c0 0-0.2 1.5-0.5 2-0.5 0.7-1.5 1-2.1 1-0.5 0.1-2.9-0.1-2.9-0.1z"></path>
            <path fill="#333" style="fill: var(--color3, #333)" d="M12.5 22c-0.8 0-2.8-0.1-2.9-0.1-0.3 0-0.6-0.3-0.7-0.6s0.1-0.7 0.4-0.8c0 0 1.1-0.6 1.3-1.5 0.3-1.4 1.3-2.3 2.1-2.6 0.6-0.2 1.6 0 1.8 0.1 0.2 0 0.3 0.1 0.4 0.2l0.9 1c0.1 0.2 0.2 0.4 0.2 0.6 0 0.4-0.2 1.8-0.6 2.3-0.6 1-1.8 1.4-2.7 1.4-0.1 0-0.1 0-0.2 0zM11.4 20.5c0.5 0 0.9 0 1.2 0 0.5 0 1.2-0.2 1.5-0.7 0.1-0.2 0.2-0.7 0.3-1.4l-0.5-0.6c-0.3-0.1-0.7-0.1-0.9 0-0.3 0.1-0.9 0.5-1.1 1.4 0 0.5-0.2 0.9-0.5 1.3z"></path>
            <path fill="#f9f7f7" style="fill: var(--color7, #f9f7f7)" d="M22.6 9.5c-0.5-0.4-1.5 0-1.8 0.3 0 0-6.3 6.8-6.3 6.9l1.2 1.2c0.1 0 6.9-6.4 6.9-6.4 0.8-1 0.4-1.7 0-2z"></path>
            <path fill="#333" style="fill: var(--color3, #333)" d="M15.7 18.7c-0.2 0-0.4-0.1-0.5-0.2l-1.2-1.2c-0.2-0.2-0.3-0.5-0.2-0.8 0.1-0.2 0.1-0.3 6.5-7.2 0.5-0.5 1.9-1.2 2.9-0.4 0.7 0.6 1.2 1.7 0.1 3.1 0 0-0.1 0.1-0.1 0.1-6.9 6.5-7 6.5-7.1 6.6-0.3 0-0.4 0-0.4 0zM15.4 16.7l0.2 0.2c1.2-1.1 4.2-3.9 6.3-5.9 0.5-0.6 0.2-0.8 0.1-0.9 0 0 0 0 0 0-0.1-0.1-0.7 0.1-0.8 0.3-1.9 2.1-4.7 5.1-5.8 6.3zM22.5 11.5v0 0z"></path>
        </symbol>
        <symbol id="tcb-icon-guarantee_box" viewBox="0 0 32 32">
            <title>guarantee_box</title>
            <path d="M27.977 11.829c0-0.213-0.086-0.418-0.239-0.566l-1.781-1.729 0.837-2.313c0.072-0.2 0.062-0.42-0.031-0.611-0.092-0.191-0.258-0.337-0.459-0.405l-2.381-0.802-0.268-2.445c-0.023-0.209-0.129-0.4-0.293-0.531s-0.378-0.192-0.583-0.167l-2.512 0.29-1.329-2.099c-0.232-0.367-0.716-0.477-1.085-0.248l-2.135 1.332-2.134-1.332c-0.367-0.229-0.852-0.119-1.085 0.247l-1.332 2.1-2.512-0.29c-0.21-0.024-0.418 0.036-0.583 0.167s-0.27 0.322-0.292 0.531l-0.27 2.443-2.381 0.803c-0.201 0.067-0.367 0.213-0.459 0.405s-0.103 0.412-0.031 0.612l0.84 2.312-1.783 1.729c-0.153 0.149-0.24 0.353-0.24 0.567 0 0.213 0.086 0.418 0.24 0.566l1.783 1.731-0.84 2.311c-0.072 0.2-0.062 0.42 0.031 0.612 0.092 0.191 0.258 0.338 0.459 0.405l2.381 0.802 0.269 2.446c0.023 0.209 0.128 0.4 0.292 0.531 0.165 0.132 0.375 0.192 0.583 0.167l2.512-0.291 0.53 0.837c0.001 0.002 0.002 0.003 0.003 0.005l0.115 0.181v9.047c0 0.277 0.146 0.534 0.383 0.677s0.532 0.15 0.777 0.021l3.103-1.649 2.303 1.601c0.135 0.094 0.292 0.141 0.45 0.141 0.125 0 0.251-0.029 0.365-0.090 0.261-0.136 0.424-0.405 0.424-0.699v-9.048l0.646-1.021 2.512 0.291c0.206 0.026 0.419-0.035 0.583-0.167 0.164-0.131 0.27-0.322 0.293-0.531l0.268-2.447 2.381-0.801c0.201-0.067 0.367-0.214 0.459-0.405 0.093-0.191 0.104-0.412 0.031-0.611l-0.837-2.312 1.781-1.731c0.155-0.151 0.241-0.356 0.241-0.569zM18.042 29.669l-1.458-1.014c-0.244-0.17-0.561-0.188-0.821-0.049l-2.369 1.26v-6.337c0.064-0.020 0.13-0.034 0.19-0.071l2.134-1.331 2.135 1.331c0.061 0.038 0.124 0.064 0.189 0.084v6.127zM24.49 13.349c-0.223 0.216-0.298 0.543-0.192 0.835l0.735 2.032-2.093 0.705c-0.291 0.098-0.499 0.356-0.533 0.662l-0.236 2.158-2.216-0.256c-0.297-0.034-0.596 0.106-0.758 0.362l-1.175 1.855-1.887-1.177c-0.256-0.16-0.58-0.16-0.836 0l-1.888 1.178-0.38-0.598c-0.001-0.002-0.001-0.003-0.002-0.005l-0.795-1.255c-0.162-0.255-0.452-0.4-0.758-0.361l-2.215 0.256-0.237-2.158c-0.034-0.306-0.242-0.564-0.533-0.662l-2.092-0.704 0.738-2.032c0.106-0.292 0.031-0.62-0.192-0.836l-1.566-1.52 1.566-1.518c0.223-0.217 0.298-0.544 0.192-0.836l-0.738-2.032 2.092-0.705c0.292-0.098 0.499-0.356 0.533-0.662l0.237-2.158 2.216 0.255c0.305 0.036 0.595-0.106 0.757-0.361l1.178-1.856 1.888 1.178c0.256 0.159 0.58 0.159 0.836 0l1.887-1.177 1.175 1.855c0.162 0.256 0.46 0.399 0.758 0.362l2.216-0.255 0.236 2.157c0.034 0.306 0.242 0.564 0.533 0.662l2.093 0.705-0.735 2.034c-0.105 0.292-0.030 0.619 0.192 0.835l1.565 1.519-1.566 1.519z"></path>
            <path d="M15.718 5.435c-3.599 0-6.527 2.868-6.527 6.394 0 3.525 2.928 6.394 6.527 6.394 3.6 0 6.527-2.868 6.527-6.394s-2.928-6.394-6.527-6.394zM15.718 16.723c-2.772 0-5.027-2.195-5.027-4.894s2.255-4.894 5.027-4.894c2.772 0 5.027 2.195 5.027 4.894s-2.255 4.894-5.027 4.894z"></path>
        </symbol>
        <symbol id="tcb-icon-menu" viewBox="0 0 32 32">
            <path d="M23.353 7.514h-14.77c-1.408 0-2.553 1.145-2.553 2.553s1.145 2.553 2.553 2.553h14.77c1.407 0 2.553-1.145 2.553-2.553-0.001-1.408-1.146-2.553-2.553-2.553zM23.353 11.119h-14.77c-0.581 0-1.053-0.472-1.053-1.053s0.472-1.053 1.053-1.053h14.77c0.58 0 1.053 0.472 1.053 1.053-0.001 0.581-0.473 1.053-1.053 1.053z"/>
            <path d="M23.353 13.849h-14.77c-1.408 0-2.553 1.145-2.553 2.552 0 1.408 1.145 2.552 2.553 2.552h14.77c1.407 0 2.553-1.145 2.553-2.552-0.001-1.407-1.146-2.552-2.553-2.552zM23.353 17.453h-14.77c-0.581 0-1.053-0.472-1.053-1.052s0.472-1.052 1.053-1.052h14.77c0.58 0 1.053 0.472 1.053 1.052-0.001 0.58-0.473 1.052-1.053 1.052z"/>
            <path d="M23.353 20.282h-14.77c-1.408 0-2.553 1.146-2.553 2.553 0 1.408 1.145 2.554 2.553 2.554h14.77c1.407 0 2.553-1.146 2.553-2.554-0.001-1.407-1.146-2.553-2.553-2.553zM23.353 23.889h-14.77c-0.581 0-1.053-0.473-1.053-1.054 0-0.58 0.472-1.053 1.053-1.053h14.77c0.58 0 1.053 0.473 1.053 1.053-0.001 0.581-0.473 1.054-1.053 1.054z"/>
            <path d="M29.352-0.009h-26.705c-1.465 0-2.657 1.192-2.657 2.657v26.704c0 1.466 1.192 2.658 2.657 2.658h26.704c1.466 0 2.658-1.192 2.658-2.658v-26.704c0.001-1.465-1.192-2.657-2.657-2.657zM30.51 29.352c0 0.639-0.52 1.158-1.158 1.158h-26.705c-0.638 0-1.157-0.52-1.157-1.158v-26.704c0-0.638 0.519-1.157 1.157-1.157h26.704c0.639 0 1.158 0.519 1.158 1.157v26.704z"/>
        </symbol>
        <symbol id="icon-arrows-alt-regular" viewBox="0 0 512 512">
            <path d="M276 236.075h115.85v-76.15c0-10.691 12.926-16.045 20.485-8.485l96.149 96.149c4.686 4.686 4.686 12.284 0 16.971l-96.149 96.149c-7.56 7.56-20.485 2.206-20.485-8.485v-76.149H275.999v115.776h76.15c10.691 0 16.045 12.926 8.485 20.485l-96.149 96.15c-4.686 4.686-12.284 4.686-16.971 0l-96.149-96.149c-7.56-7.56-2.206-20.485 8.485-20.485H236V276.075H120.149v76.149c0 10.691-12.926 16.045-20.485 8.485L3.515 264.56c-4.686-4.686-4.686-12.284 0-16.971l96.149-96.149c7.56-7.56 20.485-2.206 20.485 8.485v76.15H236V120.15h-76.149c-10.691 0-16.045-12.926-8.485-20.485l96.149-96.149c4.686-4.686 12.284-4.686 16.971 0l96.149 96.149c7.56 7.56 2.206 20.485-8.485 20.485H276v115.925z"></path>
        </symbol>
        <symbol id="icon-arrows-alt-v-regular" viewBox="0 0 256 512">
            <path d="M227.03 388.97H156V123.03h71.03c10.691 0 16.045-12.926 8.485-20.485l-99.029-99.03c-4.686-4.686-12.284-4.686-16.971 0l-99.029 99.03c-7.56 7.56-2.206 20.485 8.485 20.485H100v265.94H28.97c-10.691 0-16.045 12.926-8.485 20.485l99.029 99.03c4.686 4.686 12.284 4.686 16.971 0l99.029-99.03c7.56-7.559 2.206-20.485-8.484-20.485z"></path>
        </symbol>
        <symbol id="icon-arrows-alt-h-regular" viewBox="0 0 512 512">
            <path d="M508.485 247.515l-99.03-99.029c-7.56-7.56-20.485-2.206-20.485 8.485V228H123.03v-71.03c0-10.691-12.926-16.045-20.485-8.485l-99.03 99.029c-4.686 4.686-4.686 12.284 0 16.971l99.03 99.029c7.56 7.56 20.485 2.206 20.485-8.485V284h265.941v71.03c0 10.691 12.926 16.045 20.485 8.485l99.03-99.029c4.686-4.687 4.686-12.285-.001-16.971z"></path>
        </symbol>
        <symbol id="tcb-icon-undo" viewBox="0 0 512 512">
            <path d="M12 8h27.711c6.739 0 12.157 5.548 11.997 12.286l-2.347 98.568C93.925 51.834 170.212 7.73 256.793 8.001 393.18 8.428 504.213 120.009 504 256.396 503.786 393.181 392.835 504 256 504c-63.926 0-122.202-24.187-166.178-63.908-5.113-4.618-5.354-12.561-.482-17.433l19.738-19.738c4.498-4.498 11.753-4.785 16.501-.552C160.213 433.246 205.895 452 256 452c108.322 0 196-87.662 196-196 0-108.322-87.662-196-196-196-79.545 0-147.941 47.282-178.675 115.302l126.389-3.009c6.737-.16 12.286 5.257 12.286 11.997V212c0 6.627-5.373 12-12 12H12c-6.627 0-12-5.373-12-12V20C0 13.373 5.373 8 12 8z"/>
        </symbol>
        <symbol id="tcb-icon-collapse-regular" viewBox="0 0 10 10">
            <path fill="#FFF" d="M7.857 4.643v.714c0 .147-.12.268-.268.268H2.411a.269.269 0 0 1-.268-.268v-.714c0-.147.12-.268.268-.268h5.178c.148 0 .268.12.268.268zM10 1.07V8.93C10 9.52 9.52 10 8.929 10H1.07C.48 10 0 9.52 0 8.929V1.07C0 .48.48 0 1.071 0H8.93C9.52 0 10 .48 10 1.071zM8.929 8.795v-7.59a.134.134 0 0 0-.134-.134h-7.59a.134.134 0 0 0-.134.134v7.59c0 .073.06.134.134.134h7.59c.073 0 .134-.06.134-.134z"/>
        </symbol>
        <symbol id="tcb-icon-expand-regular" viewBox="0 0 10 10">
            <path fill="#FFF"
                  d="M7.857 4.643v.714c0 .147-.12.268-.268.268H5.625v1.964c0 .148-.12.268-.268.268h-.714a.269.269 0 0 1-.268-.268V5.625H2.411a.269.269 0 0 1-.268-.268v-.714c0-.147.12-.268.268-.268h1.964V2.411c0-.148.12-.268.268-.268h.714c.147 0 .268.12.268.268v1.964h1.964c.148 0 .268.12.268.268zM10 1.07V8.93C10 9.52 9.52 10 8.929 10H1.07C.48 10 0 9.52 0 8.929V1.07C0 .48.48 0 1.071 0H8.93C9.52 0 10 .48 10 1.071zM8.929 8.795v-7.59a.134.134 0 0 0-.134-.134h-7.59a.134.134 0 0 0-.134.134v7.59c0 .073.06.134.134.134h7.59c.073 0 .134-.06.134-.134z"/>
        </symbol>
        <symbol id="tcb-icon-toggle" viewBox="0 0 32 32">
            <path d="M31.327 0h-30.654c-0.414 0-0.75 0.336-0.75 0.75v30.356c0 0.414 0.336 0.75 0.75 0.75h30.654c0.414 0 0.75-0.336 0.75-0.75v-30.356c0-0.414-0.336-0.75-0.75-0.75zM1.423 16.385v-6.647h29.154v6.647h-29.154zM30.577 1.5v6.687h-29.154v-6.687h29.154zM1.423 30.354v-12.43h29.154v12.43h-29.154z"/>
            <path d="M3.839 5.472h0.785v0.785c0 0.276 0.224 0.5 0.5 0.5s0.5-0.224 0.5-0.5v-0.785h0.784c0.276 0 0.5-0.224 0.5-0.5s-0.224-0.5-0.5-0.5h-0.784v-0.785c0-0.276-0.224-0.5-0.5-0.5s-0.5 0.224-0.5 0.5v0.785h-0.785c-0.276 0-0.5 0.224-0.5 0.5s0.224 0.5 0.5 0.5z"/>
            <path d="M12.514 5.707h14.108c0.414 0 0.75-0.336 0.75-0.75s-0.336-0.75-0.75-0.75h-14.108c-0.414 0-0.75 0.336-0.75 0.75s0.336 0.75 0.75 0.75z"/>
            <path d="M26.622 21.604h-14.108c-0.414 0-0.75 0.336-0.75 0.75s0.336 0.75 0.75 0.75h14.108c0.414 0 0.75-0.336 0.75-0.75s-0.336-0.75-0.75-0.75z"/>
            <path d="M19.459 24.674h-6.945c-0.414 0-0.75 0.336-0.75 0.75s0.336 0.75 0.75 0.75h6.945c0.414 0 0.75-0.336 0.75-0.75s-0.336-0.75-0.75-0.75z"/>
            <path d="M6.408 21.868h-2.569c-0.276 0-0.5 0.224-0.5 0.5s0.224 0.5 0.5 0.5h2.569c0.276 0 0.5-0.224 0.5-0.5s-0.223-0.5-0.5-0.5z"/>
            <path d="M6.408 12.658h-0.784v-0.785c0-0.276-0.224-0.5-0.5-0.5s-0.5 0.224-0.5 0.5v0.785h-0.785c-0.276 0-0.5 0.224-0.5 0.5s0.224 0.5 0.5 0.5h0.785v0.785c0 0.276 0.224 0.5 0.5 0.5s0.5-0.224 0.5-0.5v-0.785h0.784c0.276 0 0.5-0.224 0.5-0.5s-0.223-0.5-0.5-0.5z"/>
            <path d="M26.622 12.394h-14.108c-0.414 0-0.75 0.336-0.75 0.75s0.336 0.75 0.75 0.75h14.108c0.414 0 0.75-0.336 0.75-0.75s-0.336-0.75-0.75-0.75z"/>
        </symbol>
        <symbol id="tcb-icon-tabs" viewBox="0 0 32 32">
            <path d="M28.357 6.832h-1.788l-2.743-3.868c-0.141-0.198-0.368-0.316-0.611-0.316h-14.465c-0.104 0-0.202 0.021-0.292 0.059-0.079-0.028-0.158-0.059-0.244-0.059h-6.464c-0.965 0-1.75 0.785-1.75 1.75v3.229c0 0.082 0.015 0.16 0.041 0.233v17.288c0 1.986 1.616 3.602 3.602 3.602h24.715c1.986 0 3.602-1.615 3.602-3.602v-14.715c-0.001-1.986-1.616-3.601-3.603-3.601zM15.827 4.148l1.903 2.684h-6.161l-1.903-2.684h6.161zM24.731 6.832h-5.162l-1.903-2.684h5.161l1.904 2.684zM30.459 25.148c0 1.159-0.942 2.102-2.102 2.102h-24.714c-1.159 0-2.102-0.942-2.102-2.102v-17.521c0-0.082-0.015-0.16-0.041-0.233v-2.996c0-0.138 0.112-0.25 0.25-0.25h6.077l2.743 3.868c0.141 0.198 0.369 0.316 0.612 0.316h17.176c1.159 0 2.102 0.943 2.102 2.102v14.714z"/>
            <path d="M25.924 17.206h-19.848c-0.414 0-0.75 0.336-0.75 0.75s0.336 0.75 0.75 0.75h19.848c0.414 0 0.75-0.336 0.75-0.75s-0.336-0.75-0.75-0.75z"/>
            <path d="M19.466 21.074h-13.39c-0.414 0-0.75 0.336-0.75 0.75s0.336 0.75 0.75 0.75h13.39c0.414 0 0.75-0.336 0.75-0.75s-0.336-0.75-0.75-0.75z"/>
            <path d="M25.924 13.338h-19.848c-0.414 0-0.75 0.336-0.75 0.75s0.336 0.75 0.75 0.75h19.848c0.414 0 0.75-0.336 0.75-0.75s-0.336-0.75-0.75-0.75z"/>
        </symbol>
        <symbol id="tcb-icon-table_contents" viewBox="0 0 32 32">
            <path d="M26.908 2.109h-4.403v-0.323c0-0.971-0.789-1.76-1.76-1.76h-10.134c-0.97 0-1.76 0.79-1.76 1.76v0.323h-3.76c-1.527 0-2.77 1.243-2.77 2.77v24.325c0 1.527 1.242 2.771 2.77 2.771h21.817c1.527 0 2.771-1.243 2.771-2.771v-24.325c0-1.527-1.244-2.77-2.771-2.77zM10.352 1.786c0-0.144 0.117-0.26 0.26-0.26h10.134c0.144 0 0.26 0.117 0.26 0.26v2.334c0 0.144-0.116 0.26-0.26 0.26h-10.135c-0.143 0-0.26-0.117-0.26-0.26v-2.334zM28.179 29.204c0 0.7-0.57 1.271-1.271 1.271h-21.817c-0.7 0-1.27-0.57-1.27-1.271v-24.325c0-0.701 0.569-1.27 1.27-1.27h3.761v0.51c0 0.971 0.79 1.76 1.76 1.76h10.134c0.971 0 1.76-0.79 1.76-1.76v-0.51h4.403c0.7 0 1.271 0.57 1.271 1.27v24.325z"/>
            <path d="M22.749 19.469h-10.093c-0.445 0-0.805 0.36-0.805 0.805 0 0.444 0.36 0.805 0.805 0.805h10.093c0.444 0 0.805-0.36 0.805-0.805s-0.361-0.805-0.805-0.805z"/>
            <path d="M22.749 23.673h-10.093c-0.445 0-0.805 0.36-0.805 0.805 0 0.444 0.36 0.805 0.805 0.805h10.093c0.444 0 0.805-0.36 0.805-0.805s-0.361-0.805-0.805-0.805z"/>
            <path d="M22.749 11.063h-10.093c-0.445 0-0.805 0.36-0.805 0.805s0.36 0.805 0.805 0.805h10.093c0.444 0 0.805-0.36 0.805-0.805s-0.361-0.805-0.805-0.805z"/>
            <path d="M22.749 15.266h-10.093c-0.445 0-0.805 0.36-0.805 0.805s0.36 0.805 0.805 0.805h10.093c0.444 0 0.805-0.36 0.805-0.805s-0.361-0.805-0.805-0.805z"/>
            <path d="M10.841 11.615c0 0.695-0.563 1.258-1.258 1.258s-1.258-0.563-1.258-1.258c0-0.695 0.563-1.258 1.258-1.258s1.258 0.563 1.258 1.258z"/>
            <path d="M10.841 15.909c0 0.695-0.563 1.258-1.258 1.258s-1.258-0.563-1.258-1.258c0-0.695 0.563-1.258 1.258-1.258s1.258 0.563 1.258 1.258z"/>
            <path d="M10.841 20.202c0 0.695-0.563 1.258-1.258 1.258s-1.258-0.563-1.258-1.258c0-0.695 0.563-1.258 1.258-1.258s1.258 0.563 1.258 1.258z"/>
            <path d="M10.841 24.495c0 0.695-0.563 1.258-1.258 1.258s-1.258-0.563-1.258-1.258c0-0.695 0.563-1.258 1.258-1.258s1.258 0.563 1.258 1.258z"/>
        </symbol>
        <symbol id="tcb-icon-arrows-v-regular" viewBox="0 0 320 512">
            <path d="M273.1 347.4c-4.8-4.8-12.5-4.7-17.1.2l-70 73.2V91.2l70 73.2c4.7 4.8 12.4 4.9 17.1.2l19.6-19.6c4.7-4.7 4.7-12.3 0-17L168.5 3.5c-4.7-4.7-12.3-4.7-17 0L27.2 128c-4.7 4.7-4.7 12.3 0 17l19.6 19.6c4.8 4.8 12.5 4.7 17.1-.2l70-73.2v329.6l-70-73.2c-4.7-4.8-12.4-4.9-17.1-.2L27.2 367c-4.7 4.7-4.7 12.3 0 17l124.3 124.5c4.7 4.7 12.3 4.7 17 0L292.8 384c4.7-4.7 4.7-12.3 0-17l-19.7-19.6z"/>
        </symbol>
        <symbol id="tcb-icon-contact_form" viewBox="0 0 32 32">
            <path d="M32 25.2h-31.9v-9.9h31.9v9.9zM1.6 23.7h28.9v-6.9h-28.9v6.9z"/>
            <path d="M32 25.2h-32v-9.9h32v9.9zM1.5 23.7h29v-6.9h-29v6.9z"/>
            <path d="M32 13.7h-32v-4.9h32v4.9zM1.5 12.2h29v-1.9h-29v1.9z"/>
            <path d="M31.9 7.2h-31.9v-4.9h31.9v4.9zM1.5 5.7h28.9v-1.9h-28.9v1.9z"/>
            <path d="M32 7.2h-32v-4.9h32v4.9zM1.5 5.7h29v-1.9h-29v1.9z"/>
            <path d="M0.1 28.2h8.2v1.5h-8.2v-1.5z"/>
        </symbol>
        <symbol id="tcb-icon-lead_gen" viewBox="0 0 32 32">
            <path d="M31.98 17.5h-31.966v-7.455h31.966v7.455zM1.514 16h28.966v-4.455h-28.966v4.455z"/>
            <path d="M28.346 20.15h-24.637c-2.008 0-3.641 1.633-3.641 3.641s1.633 3.642 3.641 3.642h8.193v-1.5h-8.193c-1.181 0-2.141-0.961-2.141-2.142s0.96-2.141 2.141-2.141h24.637c1.18 0 2.141 0.96 2.141 2.141s-0.961 2.142-2.141 2.142h-8.193v1.5h8.193c2.008 0 3.641-1.634 3.641-3.642s-1.633-3.641-3.641-3.641z"/>
            <path d="M31.98 7.455h-31.966v-7.455h31.966v7.455zM1.514 5.955h28.966v-4.455h-28.966v4.455z"/>
            <path d="M18.662 28.306l-2.809-4.24-2.568 4.228 1.959 0.004 0.002 3.702h1.5l-0.002-3.698z"/>
        </symbol>
        <symbol id="icon-g" viewBox="0 0 640 512">
            <path d="M386.061 228.496c1.834 9.692 3.143 19.384 3.143 31.956C389.204 370.205 315.599 448 204.8 448c-106.084 0-192-85.915-192-192s85.916-192 192-192c51.864 0 95.083 18.859 128.611 50.292l-52.126 50.03c-14.145-13.621-39.028-29.599-76.485-29.599-65.484 0-118.92 54.221-118.92 121.277 0 67.056 53.436 121.277 118.92 121.277 75.961 0 104.513-54.745 108.965-82.773H204.8v-66.009h181.261zm185.406 6.437V179.2h-56.001v55.733h-55.733v56.001h55.733v55.733h56.001v-55.733H627.2v-56.001h-55.733z"/>
        </symbol>

        <symbol id="icon-fb" viewBox="0 0 264 512">
            <path d="M76.7 512V283H0v-91h76.7v-71.7C76.7 42.4 124.3 0 193.8 0c33.3 0 61.9 2.5 70.2 3.6V85h-48.2c-37.8 0-45.1 18-45.1 44.3V192H256l-11.7 91h-73.6v229"/>
        </symbol>

        <symbol id="icon-t" viewBox="0 0 512 512">
            <path d="M459.37 151.716c.325 4.548.325 9.097.325 13.645 0 138.72-105.583 298.558-298.558 298.558-59.452 0-114.68-17.219-161.137-47.106 8.447.974 16.568 1.299 25.34 1.299 49.055 0 94.213-16.568 130.274-44.832-46.132-.975-84.792-31.188-98.112-72.772 6.498.974 12.995 1.624 19.818 1.624 9.421 0 18.843-1.3 27.614-3.573-48.081-9.747-84.143-51.98-84.143-102.985v-1.299c13.969 7.797 30.214 12.67 47.431 13.319-28.264-18.843-46.781-51.005-46.781-87.391 0-19.492 5.197-37.36 14.294-52.954 51.655 63.675 129.3 105.258 216.365 109.807-1.624-7.797-2.599-15.918-2.599-24.04 0-57.828 46.782-104.934 104.934-104.934 30.213 0 57.502 12.67 76.67 33.137 23.715-4.548 46.456-13.32 66.599-25.34-7.798 24.366-24.366 44.833-46.132 57.827 21.117-2.273 41.584-8.122 60.426-16.243-14.292 20.791-32.161 39.308-52.628 54.253z"/>
        </symbol>

        <symbol id="icon-pin" viewBox="0 0 384 512">
            <path d="M204 6.5C101.4 6.5 0 74.9 0 185.6 0 256 39.6 296 63.6 296c9.9 0 15.6-27.6 15.6-35.4 0-9.3-23.7-29.1-23.7-67.8 0-80.4 61.2-137.4 140.4-137.4 68.1 0 118.5 38.7 118.5 109.8 0 53.1-21.3 152.7-90.3 152.7-24.9 0-46.2-18-46.2-43.8 0-37.8 26.4-74.4 26.4-113.4 0-66.2-93.9-54.2-93.9 25.8 0 16.8 2.1 35.4 9.6 50.7-13.8 59.4-42 147.9-42 209.1 0 18.9 2.7 37.5 4.5 56.4 3.4 3.8 1.7 3.4 6.9 1.5 50.4-69 48.6-82.5 71.4-172.8 12.3 23.4 44.1 36 69.3 36 106.2 0 153.9-103.5 153.9-196.8C384 71.3 298.2 6.5 204 6.5z"/>
        </symbol>

        <symbol id="icon-in" viewBox="0 0 448 512">
            <path d="M100.3 480H7.4V180.9h92.9V480zM53.8 140.1C24.1 140.1 0 115.5 0 85.8 0 56.1 24.1 32 53.8 32c29.7 0 53.8 24.1 53.8 53.8 0 29.7-24.1 54.3-53.8 54.3zM448 480h-92.7V334.4c0-34.7-.7-79.2-48.3-79.2-48.3 0-55.7 37.7-55.7 76.7V480h-92.8V180.9h89.1v40.8h1.3c12.4-23.5 42.7-48.3 87.9-48.3 94 0 111.3 61.9 111.3 142.3V480z"/>
        </symbol>

        <symbol id="icon-xing" viewBox="0 0 384 512">
            <path d="M162.7 210c-1.8 3.3-25.2 44.4-70.1 123.5-4.9 8.3-10.8 12.5-17.7 12.5H9.8c-7.7 0-12.1-7.5-8.5-14.4l69-121.3c.2 0 .2-.1 0-.3l-43.9-75.6c-4.3-7.8.3-14.1 8.5-14.1H100c7.3 0 13.3 4.1 18 12.2l44.7 77.5zM382.6 46.1l-144 253v.3L330.2 466c3.9 7.1.2 14.1-8.5 14.1h-65.2c-7.6 0-13.6-4-18-12.2l-92.4-168.5c3.3-5.8 51.5-90.8 144.8-255.2 4.6-8.1 10.4-12.2 17.5-12.2h65.7c8 0 12.3 6.7 8.5 14.1z"/>
        </symbol>

        <symbol id="icon-yt" viewBox="0 0 576 512">
            <path d="M549.655 124.083c-6.281-23.65-24.787-42.276-48.284-48.597C458.781 64 288 64 288 64S117.22 64 74.629 75.486c-23.497 6.322-42.003 24.947-48.284 48.597-11.412 42.867-11.412 132.305-11.412 132.305s0 89.438 11.412 132.305c6.281 23.65 24.787 41.5 48.284 47.821C117.22 448 288 448 288 448s170.78 0 213.371-11.486c23.497-6.321 42.003-24.171 48.284-47.821 11.412-42.867 11.412-132.305 11.412-132.305s0-89.438-11.412-132.305zm-317.51 213.508V175.185l142.739 81.205-142.739 81.201z"/>
        </symbol>

        <symbol id="icon-ig" viewBox="0 0 448 512">
            <path d="M224.1 141c-63.6 0-114.9 51.3-114.9 114.9s51.3 114.9 114.9 114.9S339 319.5 339 255.9 287.7 141 224.1 141zm0 189.6c-41.1 0-74.7-33.5-74.7-74.7s33.5-74.7 74.7-74.7 74.7 33.5 74.7 74.7-33.6 74.7-74.7 74.7zm146.4-194.3c0 14.9-12 26.8-26.8 26.8-14.9 0-26.8-12-26.8-26.8s12-26.8 26.8-26.8 26.8 12 26.8 26.8zm76.1 27.2c-1.7-35.9-9.9-67.7-36.2-93.9-26.2-26.2-58-34.4-93.9-36.2-37-2.1-147.9-2.1-184.9 0-35.8 1.7-67.6 9.9-93.9 36.1s-34.4 58-36.2 93.9c-2.1 37-2.1 147.9 0 184.9 1.7 35.9 9.9 67.7 36.2 93.9s58 34.4 93.9 36.2c37 2.1 147.9 2.1 184.9 0 35.9-1.7 67.7-9.9 93.9-36.2 26.2-26.2 34.4-58 36.2-93.9 2.1-37 2.1-147.8 0-184.8zM398.8 388c-7.8 19.6-22.9 34.7-42.6 42.6-29.5 11.7-99.5 9-132.1 9s-102.7 2.6-132.1-9c-19.6-7.8-34.7-22.9-42.6-42.6-11.7-29.5-9-99.5-9-132.1s-2.6-102.7 9-132.1c7.8-19.6 22.9-34.7 42.6-42.6 29.5-11.7 99.5-9 132.1-9s102.7-2.6 132.1 9c19.6 7.8 34.7 22.9 42.6 42.6 11.7 29.5 9 99.5 9 132.1s2.7 102.7-9 132.1z"/>
        </symbol>

        <symbol id="icon-link" viewBox="0 0 14 15">
            <path d="M8.586 5.664c.456.456.775.989.957 1.6.182.61.214 1.226.096 1.845a3.703 3.703 0 0 1-.78 1.668c-.09.11-.483.51-1.175 1.203L6.535 13.13a3.755 3.755 0 0 1-1.723.998 3.795 3.795 0 0 1-1.968 0 3.755 3.755 0 0 1-1.723-.998 3.755 3.755 0 0 1-.998-1.723 3.795 3.795 0 0 1 0-1.968c.173-.657.506-1.231.998-1.723l1.723-1.723c.11-.11.232-.137.369-.082a.3.3 0 0 1 .205.301c0 .346.046.693.137 1.039.018.11-.019.21-.11.3L2.215 8.81a2.149 2.149 0 0 0-.684 1.613c0 .638.224 1.18.67 1.627.447.446.99.67 1.627.67.638 0 1.176-.228 1.613-.684l2.079-2.05c.437-.438.656-.976.656-1.614 0-.638-.219-1.185-.656-1.64a2.165 2.165 0 0 0-.63-.438c-.145-.073-.209-.182-.19-.328.036-.328.172-.61.41-.848l.109-.11c.127-.109.255-.127.383-.054.364.182.692.42.984.711zm4.293-4.293c.492.492.825 1.067.998 1.723a3.795 3.795 0 0 1 0 1.969 3.755 3.755 0 0 1-.998 1.722l-1.723 1.723c-.11.11-.232.137-.369.082a.3.3 0 0 1-.205-.3c0-.347-.046-.694-.137-1.04-.018-.11.019-.21.11-.3l1.23-1.259c.456-.437.684-.975.684-1.613s-.224-1.18-.67-1.627a2.215 2.215 0 0 0-1.627-.67c-.638 0-1.176.228-1.613.684L6.48 4.515c-.437.438-.656.976-.656 1.614 0 .638.219 1.185.656 1.64.183.183.392.329.63.438.145.073.209.182.19.328-.036.328-.172.61-.41.848l-.109.11c-.127.109-.255.127-.383.054a3.766 3.766 0 0 1-.984-.711 3.745 3.745 0 0 1-.957-1.6 3.841 3.841 0 0 1-.096-1.845c.119-.62.379-1.176.78-1.668.09-.11.483-.51 1.175-1.203L7.465 1.37A3.755 3.755 0 0 1 9.187.373a3.795 3.795 0 0 1 1.97 0c.655.173 1.23.506 1.722.998z"/>
        </symbol>
        <symbol id="tcb-icon-login_elem" viewBox="0 0 30 22">
            <path fill="#50565F" fill-rule="nonzero"
                  d="M1.913 8.748c0-.51.409-.928.909-.928h8.18V2.378c0-.411.489-.62.773-.33l8.044 8.294a.94.94 0 0 1 0 1.315l-8.044 8.294c-.284.29-.773.087-.773-.33v-5.443h-8.18a.921.921 0 0 1-.909-.927V8.748M0 8.736v4.527c0 1.544 1.232 2.796 2.75 2.796h6.417v3.607c0 2.068 2.463 3.117 3.907 1.649l8.118-8.332a2.833 2.833 0 0 0 0-3.962L13.074.684C11.636-.778 9.167.259 9.167 2.333v3.606H2.75C1.232 5.94 0 7.198 0 8.736zM29.652 19.25V2.75c0-1.518-1.285-2.75-2.87-2.75h-7.89c-.395 0-.718.31-.718.688v.458c0 .378.323.687.717.687h7.892c.526 0 .956.413.956.917v16.5c0 .504-.43.917-.956.917H18.89c-.394 0-.717.309-.717.687v.459c0 .378.323.687.717.687h7.892c1.584 0 2.87-1.232 2.87-2.75z"/>
        </symbol>
        <symbol id="icon-share-alt-light" viewBox="0 0 448 512">
            <path d="M352 320c-28.6 0-54.2 12.5-71.8 32.3l-95.5-59.7c9.6-23.4 9.7-49.8 0-73.2l95.5-59.7c17.6 19.8 43.2 32.3 71.8 32.3 53 0 96-43 96-96S405 0 352 0s-96 43-96 96c0 13 2.6 25.3 7.2 36.6l-95.5 59.7C150.2 172.5 124.6 160 96 160c-53 0-96 43-96 96s43 96 96 96c28.6 0 54.2-12.5 71.8-32.3l95.5 59.7c-4.7 11.3-7.2 23.6-7.2 36.6 0 53 43 96 96 96s96-43 96-96c-.1-53-43.1-96-96.1-96zm0-288c35.3 0 64 28.7 64 64s-28.7 64-64 64-64-28.7-64-64 28.7-64 64-64zM96 320c-35.3 0-64-28.7-64-64s28.7-64 64-64 64 28.7 64 64-28.7 64-64 64zm256 160c-35.3 0-64-28.7-64-64s28.7-64 64-64 64 28.7 64 64-28.7 64-64 64z"/>
        </symbol>
        <symbol id="icon-share-alt-solid" viewBox="0 0 448 512">
            <path d="M352 320c-22.608 0-43.387 7.819-59.79 20.895l-102.486-64.054a96.551 96.551 0 0 0 0-41.683l102.486-64.054C308.613 184.181 329.392 192 352 192c53.019 0 96-42.981 96-96S405.019 0 352 0s-96 42.981-96 96c0 7.158.79 14.13 2.276 20.841L155.79 180.895C139.387 167.819 118.608 160 96 160c-53.019 0-96 42.981-96 96s42.981 96 96 96c22.608 0 43.387-7.819 59.79-20.895l102.486 64.054A96.301 96.301 0 0 0 256 416c0 53.019 42.981 96 96 96s96-42.981 96-96-42.981-96-96-96z"/>
        </symbol>
        <symbol id="icon-pen-regular" viewBox="0 0 512 512">
            <path d="M492.2 74.3l-54.5-54.5c-26.4-26.4-69.1-26.4-95.5 0L12.7 349.3.3 461.2c-3.2 29.2 21.5 53.7 50.5 50.5l111.8-12.4 329.6-329.6c26.4-26.4 26.4-69.1 0-95.4zM140.6 453.4l-92.3 10.3 10.3-92.3L294 135.9l82.1 82.1-235.5 235.4zm317.7-317.6L410 184.1 327.9 102l48.3-48.3c7.6-7.6 20-7.6 27.6 0l54.5 54.5c7.6 7.6 7.6 19.9 0 27.6z"/>
        </symbol>
        <symbol id="icon-unlink-regular" viewBox="0 0 512 512">
            <path d="M304.083 388.936c4.686 4.686 4.686 12.284 0 16.971l-65.057 65.056c-54.709 54.711-143.27 54.721-197.989 0-54.713-54.713-54.719-143.27 0-197.989l65.056-65.057c4.686-4.686 12.284-4.686 16.971 0l22.627 22.627c4.686 4.686 4.686 12.284 0 16.971L81.386 311.82c-34.341 34.341-33.451 88.269.597 120.866 32.577 31.187 84.788 31.337 117.445-1.32l65.057-65.056c4.686-4.686 12.284-4.686 16.971 0l22.627 22.626zm-56.568-243.245l64.304-64.304c34.346-34.346 88.286-33.453 120.882.612 31.18 32.586 31.309 84.785-1.335 117.43l-65.056 65.057c-4.686 4.686-4.686 12.284 0 16.971l22.627 22.627c4.686 4.686 12.284 4.686 16.971 0l65.056-65.057c54.711-54.709 54.721-143.271 0-197.99-54.71-54.711-143.27-54.72-197.989 0l-65.057 65.057c-4.686 4.686-4.686 12.284 0 16.971l22.627 22.627c4.685 4.685 12.283 4.685 16.97-.001zm238.343 362.794l22.627-22.627c4.686-4.686 4.686-12.284 0-16.971L43.112 3.515c-4.686-4.686-12.284-4.686-16.971 0L3.515 26.142c-4.686 4.686-4.686 12.284 0 16.971l465.373 465.373c4.686 4.686 12.284 4.686 16.97-.001z"></path>
        </symbol>
        <symbol id="icon-paintbrush-solid-2" viewBox="0 0 12 12">
            <path d="M3.9,7.3C3,7.3,2.1,7.7,1.6,8.9C1.6,9.1,1.4,9.2,1.3,9.2C1,9.2,0.2,8.5,0,8.4C0,10.3,0.9,12,3,12
	c1.8,0,3-1,3-2.8C6,9.1,6,9,6,9L3.9,7.3L3.9,7.3z M10.7,0C10.4,0,10,0.2,9.8,0.4C5,4.7,4.5,4.8,4.5,6c0,0.3,0.1,0.6,0.2,0.9l1.5,1.2
	c0.2,0,0.3,0.1,0.5,0.1c1.5,0,2.3-1.1,4.9-6C11.8,1.9,12,1.5,12,1.2C12,0.5,11.4,0,10.7,0z"/>
        </symbol>
        <symbol id="tcb-icon-images" viewBox="0 0 103 80">
            <g fill="none" fill-opacity=".5" fill-rule="evenodd">
                <g fill="#859199" fill-rule="nonzero">
                    <g>
                        <path d="M85.714 68.571v2.858c0 4.733-3.837 8.571-8.571 8.571H8.57C3.838 80 0 76.162 0 71.429V25.714c0-4.734 3.837-8.571 8.571-8.571h2.858v8.571H9.643c-.592 0-1.072.48-1.072 1.072v43.571c0 .592.48 1.072 1.072 1.072H76.07c.592 0 1.072-.48 1.072-1.072v-1.786h8.571zm7.5-60H26.786c-.592 0-1.072.48-1.072 1.072v43.571c0 .592.48 1.072 1.072 1.072h66.428c.592 0 1.072-.48 1.072-1.072V9.643c0-.592-.48-1.072-1.072-1.072zM94.286 0c4.734 0 8.571 3.837 8.571 8.571v45.715c0 4.734-3.837 8.571-8.571 8.571H25.714c-4.734 0-8.571-3.837-8.571-8.571V8.57C17.143 3.838 20.98 0 25.714 0h68.572zM47.143 20c0 3.945-3.198 7.143-7.143 7.143S32.857 23.945 32.857 20s3.198-7.143 7.143-7.143 7.143 3.198 7.143 7.143zM34.286 37.143l7.056-7.056c.837-.837 2.194-.837 3.03 0l7.057 7.056 18.484-18.485c.837-.837 2.194-.837 3.03 0l12.771 12.77v14.286H34.286v-8.571z"
                              transform="translate(-2229 -363) translate(2229 363)"/>
                    </g>
                </g>
            </g>
        </symbol>
        <symbol id="tcb-icon-database-light" viewBox="0 0 24 28">
            <path fill="#6D7882"
                  d="M12 28c1.679 0 3.34-.146 4.982-.438 2.036-.328 3.643-.856 4.822-1.585C23.268 25.138 24 24.062 24 22.75V5.25c0-1.313-.732-2.388-2.196-3.227-1.179-.729-2.786-1.257-4.822-1.586C15.34.147 13.68 0 12 0c-1.679 0-3.34.146-4.982.438-2.036.328-3.643.856-4.822 1.585C.732 2.862 0 3.937 0 5.25v17.5c0 1.313.732 2.388 2.196 3.227 1.179.729 2.786 1.257 4.822 1.585C8.66 27.855 10.32 28 12 28zm0-17.5c-1.857 0-3.571-.155-5.143-.465-1.571-.31-2.821-.738-3.75-1.285C2.18 8.203 1.714 7.62 1.714 7V5.25c0-.62.465-1.203 1.393-1.75.929-.547 2.179-.975 3.75-1.285C8.43 1.905 10.143 1.75 12 1.75c1.857 0 3.571.155 5.143.465 1.571.31 2.821.738 3.75 1.285.928.547 1.393 1.13 1.393 1.75V7c0 .62-.465 1.203-1.393 1.75-.929.547-2.179.975-3.75 1.285-1.572.31-3.286.465-5.143.465zm0 5.25c-1.857 0-3.571-.155-5.143-.465-1.571-.31-2.821-.738-3.75-1.285-.928-.547-1.393-1.13-1.393-1.75V9.898c1.072.766 2.554 1.368 4.447 1.805 1.785.365 3.732.547 5.839.547s4.054-.182 5.84-.547c1.892-.437 3.374-1.039 4.446-1.805v2.352c0 .62-.465 1.203-1.393 1.75-.929.547-2.179.975-3.75 1.285-1.572.31-3.286.465-5.143.465zM12 21c-1.857 0-3.571-.155-5.143-.465-1.571-.31-2.821-.738-3.75-1.285-.928-.547-1.393-1.13-1.393-1.75v-2.352c1.072.766 2.554 1.368 4.447 1.805 1.785.365 3.732.547 5.839.547s4.054-.182 5.84-.547c1.892-.437 3.374-1.039 4.446-1.805V17.5c0 .62-.465 1.203-1.393 1.75-.929.547-2.179.975-3.75 1.285-1.572.31-3.286.465-5.143.465zm0 5.25c-1.857 0-3.571-.155-5.143-.465-1.571-.31-2.821-.738-3.75-1.285-.928-.547-1.393-1.13-1.393-1.75v-2.352c1.072.766 2.554 1.368 4.447 1.805 1.785.365 3.732.547 5.839.547s4.054-.182 5.84-.547c1.892-.437 3.374-1.039 4.446-1.805v2.352c0 .62-.465 1.203-1.393 1.75-.929.547-2.179.975-3.75 1.285-1.572.31-3.286.465-5.143.465z"/>
        </symbol>
        <symbol id="tcb-icon-plus-circle-light" viewBox="0 0 512 512">
            <path d="M384 250v12c0 6.6-5.4 12-12 12h-98v98c0 6.6-5.4 12-12 12h-12c-6.6 0-12-5.4-12-12v-98h-98c-6.6 0-12-5.4-12-12v-12c0-6.6 5.4-12 12-12h98v-98c0-6.6 5.4-12 12-12h12c6.6 0 12 5.4 12 12v98h98c6.6 0 12 5.4 12 12zm120 6c0 137-111 248-248 248S8 393 8 256 119 8 256 8s248 111 248 248zm-32 0c0-119.9-97.3-216-216-216-119.9 0-216 97.3-216 216 0 119.9 97.3 216 216 216 119.9 0 216-97.3 216-216z"/>
        </symbol>
    </defs>
</svg>
