<svg enable-background="new 0 0 24 24" viewBox="0 0 24 24" xmlns="http://www.w3.org/2000/svg"><path d="m.5 0h24v24h-24z" fill="none"/><path d="m1-.2h24v24h-24z" fill="none"/><path d="m18.9 10.4 1.1-1.1c.8-.8.8-2.1 0-2.8l-1.4-1.4c-.8-.8-1.9-.8-2.7 0l-1.1 1.1zm-4.2 1.4-7 7.2h-1.3v-1.4l7-7.2zm-1.3-4.2-8.9 9.2v4.2h4.1l8.9-9.2zm5.6 9.9c0 2.2-2.4 3.5-4.8 3.5-.6 0-1-.5-1-1s.4-1 1-1c1.4 0 2.9-.7 2.9-1.5 0-.5-.5-.9-1.2-1.2l1.4-1.5c1 .6 1.7 1.5 1.7 2.7zm-14-4.1c-1-.6-1.5-1.3-1.5-2.4 0-1.8 1.8-2.6 3.5-3.4 1-.4 2.3-1 2.3-1.6 0-.4-.8-1-1.9-1-1.3 0-1.8.6-1.8.6-.3.4-.9.5-1.3.1-.4-.3-.5-1-.2-1.4.1-.1 1.1-1.3 3.3-1.3s3.9 1.3 3.9 3c0 1.9-1.8 2.7-3.5 3.5-1 .4-2.3 1-2.3 1.5 0 .3.4.6 1.1.9z" fill="#32373c"/></svg>