<svg xmlns="http://www.w3.org/2000/svg" width="96" height="96" fill="none" xmlns:v="https://vecta.io/nano"><defs><filter id="A"><feFlood flood-opacity="0"/><feBlend in="SourceGraphic"/><feGaussianBlur stdDeviation=".4"/></filter><filter id="B"><feFlood flood-opacity="0"/><feBlend in="SourceGraphic"/><feGaussianBlur stdDeviation="4"/></filter><linearGradient id="C" x1="43" y1="55" x2="29" y2="10" gradientUnits="userSpaceOnUse"><stop stop-color="#0d36a5"/><stop offset="1" stop-color="#1152d4"/></linearGradient><linearGradient id="D" x1="46" y1="10" x2="46" y2="86" gradientUnits="userSpaceOnUse"><stop stop-color="#84caff"/><stop offset="1" stop-color="#61b1fb"/></linearGradient><linearGradient id="E" x1="37.5" y1="10" x2="37.5" y2="86" gradientUnits="userSpaceOnUse"><stop stop-color="#3b90f5"/><stop offset="1" stop-color="#2a78ee"/></linearGradient><clipPath id="F"><path fill="#fff" d="M0 0h96v96H0z"/></clipPath><clipPath id="G"><path fill="#fff" d="M0 0h96v96H0z"/></clipPath></defs><g clip-path="url(#F)"><g clip-path="url(#G)"><mask id="H" mask-type="alpha" maskUnits="userSpaceOnUse" x="-1" y="10" width="97" height="76"><path d="M61.212 10a4 4 0 0 1 2.981 1.333l30.421 34a4 4 0 0 1 0 5.334l-30.421 34A4 4 0 0 1 61.212 86H3.946C.489 86-1.34 81.91.965 79.333L29 48 .965 16.667C-1.34 14.091.489 10 3.946 10h57.265z" fill="#fff"/></mask><g mask="url(#H)"><path d="M63 10L29 48-5 10h68z" fill="url(#C)"/><g filter="url(#A)"><path d="M63 10.4l-68 76h68l34-38-34-38z" fill="#000" fill-opacity=".24"/></g><g filter="url(#B)"><path d="M63 12L-5 88H63L97 50L63 12Z" fill="#000" fill-opacity=".32"/></g><path d="M-5 86L63 10L97 48L63 86H-5Z" fill="url(#D)"/><path d="M-5 86L63 10L80 29L29 86H-5Z" fill="url(#E)"/></g></g></g></svg>