<svg enable-background="new 0 0 24 24" viewBox="0 0 24 24" xmlns="http://www.w3.org/2000/svg"><path d="m0 0h24v24h-24z" fill="none"/><path d="m0 0h24v24h-24z" fill="none"/><path d="m12 2c-5.5 0-10 4.4-10 9.9s4.5 10 10 10h5v-2h-5c-4.3 0-8-3.7-8-8s3.7-8 8-8 8 3.7 8 8v1.4c0 .8-.7 1.6-1.5 1.6s-1.5-.7-1.5-1.5v-1.4c0-2.8-2.2-5-5-5s-5 2.2-5 5 2.2 5 5 5c1.4 0 2.6-.6 3.5-1.5.7.9 1.8 1.5 3 1.5 2 0 3.5-1.6 3.5-3.6v-1.4c0-5.6-4.5-10-10-10zm0 12.9c-1.7 0-3-1.3-3-3s1.3-3 3-3 3 1.3 3 3-1.3 3-3 3z" fill="#32373c"/></svg>