<?xml version="1.0" encoding="utf-8"?>
<!-- Generator: Adobe Illustrator 19.0.0, SVG Export Plug-In . SVG Version: 6.00 Build 0)  -->
<svg version="1.1" id="Layer_1" xmlns="http://www.w3.org/2000/svg" xmlns:xlink="http://www.w3.org/1999/xlink" x="0px" y="0px"
	 width="20px" height="20px" viewBox="0 0 20 20" enable-background="new 0 0 20 20" xml:space="preserve">
<g id="XMLID_8_">
	<path id="XMLID_11_" fill="#005C9B" stroke="#005C9B" stroke-width="9.375000e-002" stroke-miterlimit="10" d="M6.9,0h7.9
		c0.4,0,0.8,0.3,1,0.6c0.1,0.2,0.1,0.5,0.1,0.8c0,5,0,9.9,0,14.9c0,0.3,0,0.6-0.1,0.8c-0.2,0.4-0.6,0.6-1,0.6c-3.8,0-7.7,0-11.5,0
		c-0.2,0-0.4,0-0.6,0c-0.5-0.1-0.8-0.6-0.8-1.1c0-3.8,0-7.7,0-11.5c1.2,0,2.3,0,3.5,0c0.5,0,0.9-0.2,1.2-0.6
		c0.2-0.3,0.4-0.7,0.4-1.1C6.9,2.3,6.9,1.2,6.9,0 M5,7.5C4.8,7.6,4.7,7.8,4.7,8c0,0.3,0.3,0.5,0.6,0.5c2.5,0,5.1,0,7.6,0
		c0.3,0,0.6-0.3,0.5-0.7c-0.1-0.2-0.3-0.4-0.5-0.4c-2.5,0-5.1,0-7.6,0C5.2,7.5,5.1,7.5,5,7.5 M5.1,10.3c-0.2,0.1-0.4,0.3-0.4,0.5
		c0,0.3,0.3,0.5,0.6,0.5c2.5,0,5.1,0,7.6,0c0.3,0,0.5-0.2,0.6-0.5c0-0.3-0.3-0.6-0.6-0.6c-2.5,0-5.1,0-7.6,0
		C5.2,10.3,5.2,10.3,5.1,10.3 M5.1,13c-0.2,0.1-0.4,0.3-0.4,0.5C4.7,13.8,5,14,5.2,14c1.3,0,2.5,0,3.8,0c0.3,0,0.5-0.2,0.6-0.5
		c0-0.3-0.2-0.6-0.5-0.6c-1.2,0-2.4,0-3.7,0C5.3,12.9,5.2,12.9,5.1,13L5.1,13z"/>
	<path id="XMLID_2_" fill="#005C9B" stroke="#005C9B" stroke-width="9.375000e-002" stroke-miterlimit="10" d="M5.6,0.1
		c0.3-0.1,0.6,0.1,0.6,0.4c0,1,0,2,0,3c0,0.3-0.1,0.6-0.4,0.8C5.7,4.4,5.5,4.5,5.2,4.5c-1,0-1.9,0-2.9,0c-0.2,0-0.4-0.2-0.5-0.4
		c0-0.2,0-0.3,0.2-0.5c1.1-1.1,2.2-2.2,3.2-3.2C5.4,0.3,5.5,0.1,5.6,0.1L5.6,0.1z"/>
	<path id="XMLID_1_" fill="#005C9B" stroke="#005C9B" stroke-width="9.375000e-002" stroke-miterlimit="10" d="M16.5,2.3
		c0.4,0,0.7-0.1,1.1,0.1c0.4,0.2,0.6,0.6,0.6,1c0,5.1,0,10.3,0,15.4c0,0.3-0.1,0.5-0.2,0.7c-0.2,0.2-0.5,0.4-0.8,0.4H5.2
		c-0.4,0-0.8-0.3-1-0.6c-0.1-0.3-0.1-0.7-0.1-1c3.4,0,6.8,0,10.3,0c0.3,0,0.6,0,0.9-0.1c0.5-0.2,0.9-0.6,1.1-1.1
		c0.1-0.3,0.1-0.6,0.1-0.9C16.5,11.6,16.5,7,16.5,2.3L16.5,2.3z"/>
</g>
</svg>
