<?xml version="1.0" encoding="utf-8"?>
<!-- Generator: Adobe Illustrator 19.0.0, SVG Export Plug-In . SVG Version: 6.00 Build 0)  -->
<svg version="1.1" id="Layer_1" xmlns="http://www.w3.org/2000/svg" xmlns:xlink="http://www.w3.org/1999/xlink" x="0px" y="0px"
	 width="20px" height="20px" viewBox="0 0 20 20" enable-background="new 0 0 20 20" xml:space="preserve">
<g>
	<path id="XMLID_1_" fill="#005C9B" stroke="#005C9B" stroke-width="9.375000e-002" stroke-miterlimit="10" d="M1.7,5.4
		c1.4-3.8,5.8-6.2,9.8-5.2c0.8,0.2,1.5,0.7,2.1,1.3c1.1,0.1,2.2,0.6,2.8,1.5c1.6,2,1.8,4.7,1.7,7.2c0.9,0.6,0.9,1.8,0.6,2.8
		c-0.9,0.9-0.9,2.3-2,3.1c-1.2,1.1-2.8,0.9-4.2,0.9c-1.2-0.1-2.4,0.1-3.6-0.1c-0.9-0.3-1.1-1.7-0.2-2.1c0.8-0.3,2-0.2,2.4,0.6
		c1.2,0,2.4,0.1,3.6-0.1c0.8-0.1,1.4-0.8,1.7-1.5c-0.2,0-0.5,0-0.7-0.1c0.1-3.2-0.1-6.7-2.3-9.2c-0.5,1-1.2,1.9-2.3,2.4
		c-2,1.1-4.5,0.8-6.5,1.9c-0.9,0.5-1.2,1.6-1.3,2.6c-0.2,0-0.5,0-0.7,0c0.1,0.6-0.1,1.3,0.3,1.8C3.2,13.7,3.7,13.8,4,14
		c0.7,2.1,2.3,4,4.6,4.4c1.7,0.2,3.5,0,5.3,0.1c-2.2,1.8-5.5,2-7.9,0.5c-1.5-0.9-2.5-2.3-3.2-3.8c-1.2-0.6-1.8-1.9-1.7-3.2
		C1.2,9.8,0.9,7.5,1.7,5.4L1.7,5.4z"/>
</g>
</svg>
