<?xml version="1.0" encoding="utf-8"?>
<!-- Generator: Adobe Illustrator 21.1.0, SVG Export Plug-In . SVG Version: 6.00 Build 0)  -->
<svg version="1.1" id="Layer_2" xmlns="http://www.w3.org/2000/svg" xmlns:xlink="http://www.w3.org/1999/xlink" x="0px" y="0px"
	 viewBox="0 0 32 28.7" style="enable-background:new 0 0 32 28.7;" xml:space="preserve">
<style type="text/css">
	.st0{fill:#59A31D;}
	.st1{fill:#454545;}
	.st2{fill-rule:evenodd;clip-rule:evenodd;fill:#59A31D;}
</style>
<g>
	<path class="st0" d="M21.3,9.6H7.6c-0.4,0-0.8-0.4-0.8-0.8C6.8,8.4,7.2,8,7.6,8h13.7c0.4,0,0.8,0.4,0.8,0.8
		C22.1,9.2,21.8,9.6,21.3,9.6z"/>
</g>
<g>
	<path class="st1" d="M21.3,13.9H7.6c-0.4,0-0.8-0.4-0.8-0.8c0-0.4,0.4-0.8,0.8-0.8h13.7c0.4,0,0.8,0.4,0.8,0.8
		C22.1,13.5,21.8,13.9,21.3,13.9z"/>
</g>
<path class="st1" d="M13,19.8c0.1-0.1,0.2-0.2,0.3-0.3H6.2c-0.2,0-0.4,0.1-0.5,0.2l-4.1,4.1l-0.1-8.3V8.6c0-3.9,3-7.1,6.7-7.1H20
	c3.7,0,6.7,3.2,6.7,7.1V14c0.5-0.1,1-0.2,1.5-0.2V8.6C28.2,3.9,24.5,0,20,0H8.2C3.7,0,0,3.9,0,8.6v6.9l0.1,10.1
	c0,0.3,0.2,0.6,0.5,0.7c0.1,0,0.2,0.1,0.3,0.1c0.2,0,0.4-0.1,0.5-0.2L6.5,21h5.4C12.2,20.6,12.8,20,13,19.8z"/>
<path class="st2" d="M32,15.3c-0.4,0-0.5,0.1-0.8,0.2c-0.3,0.1-0.6,0.3-0.8,0.5l-0.6,0.5c-0.1,0.1-0.1,0.1-0.1,0.1
	c-1.1,1.3-1.3,1.6-2.2,3.2c-0.4,0.8-0.8,1.5-1.3,2.3c-0.3,0.5-0.6,1-1,1.5c0,0.1-0.1,0.1-0.1,0.1c-0.2,0.3-0.5,0.5-0.8,0.8
	c-0.2,0.2-0.4,0.3-0.6,0.5c-0.2,0.1-0.4,0.2-0.6,0.3l-0.3,0.2c-0.1,0-0.1,0.1-0.2,0.1c0,0-0.1,0.1-0.1,0.1c-0.1,0-0.1,0.1-0.2,0.1
	c-1.2,0.6-2.7,0.9-4,1.1l-0.8,0.1c-0.2,0-0.9,0.1-1.5,0.1c-0.5,0-1,0-1.1-0.1l0.1-0.2c0.2-0.4,0.4-0.9,0.7-1.3
	c0-0.1,0.1-0.1,0.1-0.2l0.5-0.8l1.2-1.7l1.1-1.2l0.1-0.1c0.1,0,0.1,0,0.1-0.1l0.2-0.2c0,0,0.1,0,0.1-0.1c0.1-0.1,0.1-0.1,0.2-0.1
	l1.2-0.8c0.4-0.3,0.8-0.5,1.2-0.7l1.3-0.7c0.5-0.2,1.3-0.7,1.7-0.8l1.3-0.6c-0.2,0-0.4,0.1-0.6,0.2c-0.2,0.1-0.4,0.1-0.6,0.2
	l-1.2,0.4c-0.6,0.2-1.2,0.4-1.7,0.7l-1.1,0.5c-0.4,0.2-1.1,0.5-1.5,0.7c-0.5,0.3-0.9,0.6-1.4,0.8l-1.5,1.1c0,0-0.1,0.1-0.1,0.1
	l-0.9,0.7c-0.3,0.3-0.6,0.5-0.8,0.8c-0.1,0.1-0.1,0.1-0.1,0.1c-0.2,0.2-0.4,0.5-0.6,0.8c-0.3,0.4-0.6,0.8-0.8,1.2l-0.4,0.8
	c-0.2,0.3-0.8,1.9-0.9,2.3h-0.1c0-0.1-0.2-0.8-0.2-1.4v-0.5c0,0,0,0,0-0.1c0.1-0.3,0-0.6,0.1-1c0.2-1.2,0.7-2.3,1.3-3.3l0.7-0.9
	c0.2-0.2,0.9-1.1,1.1-1.2c0.2-0.2,0.4-0.4,0.6-0.6c0.1-0.1,0.2-0.2,0.3-0.3c0.1-0.1,0.2-0.2,0.3-0.2l0.6-0.5c0.6-0.5,1.3-0.9,2-1.2
	c0.8-0.4,1.5-0.7,2.3-1c1-0.4,2.4-0.7,3.4-0.9c1.1-0.2,3.9-0.7,5.3-0.7H30C30.7,14.9,31.7,15,32,15.3z"/>
</svg>
