<svg viewBox="0 0 400 101" fill="none" xmlns="http://www.w3.org/2000/svg" width="100%" height="100%">
    <style type="text/css" >
        #hmwp_logowp { fill: var(--hmwp-color-border, #112D4E); }
        #hmwp_logoghost { fill: var(--hmwp-color-primary, #3F72AF); }
    </style>
<g>
<path opacity="0.5" d="M14.7526 51.3086C14.6327 51.2354 14.5277 51.1622 14.4078 51.0889C13.7031 50.5763 12.9685 49.9904 12.2189 49.3313C12.2339 57.6506 15.1424 65.5744 20.2099 71.931C17.6162 66.6875 15.982 61.5319 15.3223 56.4935C15.0974 54.7213 14.9025 52.993 14.7526 51.3086Z" fill="#554E8E"/>
<path opacity="0.5" d="M28.3358 84.7175C14.3928 76.6033 6.22187 61.1218 7.961 44.9813C5.72712 42.3156 3.61318 39.152 2.02398 35.5782C1.81409 36.2813 1.61918 36.9696 1.43927 37.6873C-5.11244 63.89 11.3193 90.3125 38.1408 96.713C39.1753 96.962 40.2098 97.167 41.2443 97.3428C38.0209 95.0433 34.9924 92.568 32.7136 90.0049C31.1543 88.2473 29.7001 86.475 28.3358 84.7175Z" fill="#554E8E"/>
<path opacity="0.5" d="M83.7031 19.1887C84.2428 20.2286 84.9175 21.6347 85.2323 23.2605C85.4722 24.4908 85.4572 25.5746 85.2923 26.4974C85.6221 26.9807 85.922 27.464 86.2368 27.9474C86.6116 28.0645 87.2563 28.3135 87.871 28.8408L89.9849 30.159L89.5201 31.9312C89.5351 32.0045 89.5651 32.0777 89.5801 32.1509C89.715 32.6782 89.88 33.3373 89.9249 33.5424L89.9549 33.6888C90.1348 34.4797 90.2998 35.2121 90.5396 35.7979C90.6596 36.1055 90.7195 36.1641 91.0494 36.2959C91.844 36.5888 93.2683 36.6767 94.3027 36.7353C94.4227 36.7353 94.7525 36.7353 94.9924 36.7207C95.877 36.6767 97.0913 36.6328 98.3657 36.9111C95.0973 24.7544 87.0914 14.121 75.907 7.50076C76.2518 7.88157 76.5966 8.27702 76.9415 8.68713C79.925 12.2462 82.0239 15.9958 83.7031 19.1887Z" fill="#554E8E"/>
<path opacity="0.5" d="M15.4573 20.7559C16.6716 20.9024 17.7661 21.2539 18.5307 21.6786C18.9505 21.2246 19.3853 20.7706 19.8201 20.3312C20.2099 19.5256 20.6147 18.7054 21.0345 17.8705C24.018 12.1437 27.0314 7.5447 31.1694 4.02952C24.9925 6.49014 19.3553 10.1371 14.6177 14.7655L14.9775 19.9943C15.1274 20.2579 15.2923 20.5069 15.4573 20.7559Z" fill="#554E8E"/>
<path opacity="0.5" d="M99.9998 49.8586C99.8049 50.2394 99.595 50.6349 99.3851 51.0304C98.1257 53.3885 96.8514 55.6294 95.562 57.7824L95.2472 58.2951C92.0238 63.5825 88.6805 68.2401 85.1722 72.3118C86.4016 72.9563 87.676 73.5128 88.8604 74.0108C89.715 74.377 90.8694 74.9043 92.1288 75.6073C95.0223 71.184 97.2412 66.2335 98.5755 60.8582C99.4901 57.1819 99.9548 53.491 99.9998 49.8586Z" fill="#554E8E"/>
<path d="M94.4976 83.2235C92.5336 80.9386 89.3552 79.1811 87.0313 78.1997C84.8125 77.2623 82.6086 76.2664 80.6296 74.9189C80.3447 74.7285 79.5351 73.8936 79.2353 73.879C78.9204 73.879 78.1558 74.9628 77.9309 75.1972C77.0464 76.1199 76.1468 77.028 75.2173 77.9068C73.0883 79.9427 72.2188 80.3967 69.9099 82.2568C68.5606 83.077 67.2263 83.9119 65.862 84.7028C60.4947 87.8079 54.4227 89.8584 48.1859 90.3124C46.7466 90.415 45.8021 88.8478 45.1874 87.8079C44.4227 86.519 43.868 85.025 43.3133 83.6483C42.1739 80.8508 41.2743 77.9068 41.0644 74.8896C40.5997 68.1815 41.4842 61.4441 43.868 55.1314C45.2623 51.4258 47.0314 47.8374 49.0254 44.3955C50.7346 41.4515 52.4887 38.5222 54.3478 35.6515C55.2323 34.2747 56.1469 32.9272 57.0014 31.5358C57.826 30.159 58.6506 28.7676 59.6251 27.4933C60.1498 26.8049 60.7495 25.9408 61.5591 25.5307C63.0584 24.7837 65.1573 26.0287 66.3117 26.9368C67.9159 28.1817 68.8755 29.8221 69.4752 31.6822C69.82 32.7514 71.5891 32.0484 72.3987 31.9898C73.2533 31.9312 72.6686 27.6691 73.823 26.966C74.1528 26.761 75.3972 26.8342 75.3972 26.8342C75.3972 26.8342 78.4407 29.0019 80.0449 27.4347C81.8589 25.6918 80.4047 22.6892 79.685 21.3271C76.7765 15.7468 71.844 7.06136 62.1289 3.07749C56.4167 0.734044 52.3088 0.031008 45.1874 1.979C34.7226 4.82044 30.06 10.3715 25.0375 20.0089C18.5607 32.4585 17.976 42.2278 19.7751 56.0981C21.2894 67.6982 28.2908 78.4487 36.1169 87.2953C39.8051 91.4695 46.0719 95.5559 50.8095 98.5731C55.0674 100.609 58.3957 101.283 59.6401 100.58C61.3942 99.5837 61.2293 98.2216 63.1184 97.5332C65.5022 96.6691 70.5246 99.862 73.0584 99.9645C75.5921 100.067 77.3912 99.4958 78.3807 97.211C79.1153 95.512 79.0254 92.2165 80.6895 91.3963C84.6026 89.4776 91.2442 91.6306 93.733 89.9902C95.1723 89.0089 96.2667 85.2887 94.4976 83.2235Z" fill="#3F72AF"/>
<path d="M98.3205 41.8177C97.2711 40.9389 95.2621 41.3636 94.0027 41.2904C90.7793 41.1 87.5709 40.8217 86.2816 37.5262C85.9218 36.6035 85.7119 35.6368 85.487 34.6701C85.427 34.4358 84.8873 32.2828 84.8423 32.312C83.7479 33.3227 82.2936 33.8646 80.8393 34.26C78.1407 34.9777 75.3221 35.2414 72.5335 35.0656C71.3041 34.9924 69.9548 34.7727 69.1452 33.8792C68.5605 33.2348 68.3506 32.356 67.9908 31.5797C67.3461 30.1883 66.1467 29.0605 64.7224 28.4307C64.1077 28.1524 63.0133 27.713 62.3236 27.8595C61.604 28.0206 61.3641 28.709 60.8843 29.1923C61.1842 28.9726 61.544 28.958 61.9638 29.2363C62.5935 29.661 62.8633 30.2469 62.6235 30.657C59.8049 35.4464 56.4915 40.0015 53.7029 44.8056C51.3641 48.8334 49.4451 53.0516 47.7959 57.3577C47.2562 58.7784 46.8514 60.2431 46.4466 61.7077C44.4076 69.0456 44.5126 77.5992 47.9608 84.5124C48.5905 85.7867 48.9054 86.9145 49.2352 88.2473C49.7149 88.2473 50.1947 88.2034 50.6745 88.1301C60.1647 86.768 68.5905 82.3301 75.547 75.9588C83.7928 68.4158 90.1196 58.8809 95.322 49.1556C96.3865 47.1637 97.406 45.1717 98.3655 43.1505C98.4854 42.9015 98.6054 42.6379 98.5904 42.3596C98.6054 42.1399 98.4854 41.9641 98.3205 41.8177ZM92.8933 47.6177C92.3685 48.6283 91.7688 49.6096 91.2291 50.6203C89.9397 53.0369 88.3655 55.3365 87.1212 57.7824C86.3116 59.3789 85.0672 60.7557 84.0627 62.2643C82.8333 64.0951 81.529 65.8966 80.0447 67.5663C77.9458 69.9244 76.1017 72.4729 73.538 74.4795C72.1587 75.5634 70.8693 76.7204 69.43 77.7603C67.8258 78.9321 66.2217 80.0892 64.4076 80.9972C61.9788 82.2129 59.4451 83.2528 56.7014 83.9558C55.547 84.2488 54.3476 84.4245 53.2082 84.7614C52.5185 84.9665 52.0988 84.8053 51.7089 84.2048C50.4046 82.2568 49.595 80.177 48.9953 78.0533C47.8109 73.9376 47.8559 69.8512 48.6505 65.8087C49.4301 61.8688 50.4796 58.0168 52.0688 54.7799C53.8229 50.4591 55.8918 46.7829 58.2157 43.2237C59.655 40.9975 61.0942 38.7712 62.5335 36.5449C62.9833 35.8419 63.0732 35.8419 63.8528 36.3399C68.2756 39.1959 73.0432 39.9868 78.1107 39.0788C79.2051 38.8737 80.2546 38.5954 81.3041 38.3025C81.8738 38.156 82.1287 38.2 82.3536 38.8444C83.2081 41.3636 84.4675 43.751 87.1362 45.3328C88.5155 46.1531 90.0597 46.6803 91.7388 46.7243C91.9337 46.7243 92.1137 46.7389 92.3086 46.7682C93.0732 46.8561 93.2081 47.0172 92.8933 47.6177Z" fill="#3F72AF"/>
<path d="M49.2655 87.7347C49.2655 86.8119 48.7108 85.8892 48.246 85.0543C44.4379 78.1558 44.4079 69.1482 46.4619 61.737C46.8667 60.2723 47.2715 58.8077 47.8112 57.387C49.4604 53.0809 51.3794 48.8627 53.7182 44.8349C56.5068 40.0308 59.8202 35.4904 62.6388 30.6863C62.8786 30.2762 62.6088 29.6757 61.9791 29.2656C61.5893 29.0166 61.1845 28.9433 60.9296 29.1923C60.6598 29.4706 59.5803 30.9792 59.2655 31.4479C58.3809 32.81 57.4814 34.1722 56.5968 35.5489C55.2625 37.5995 53.9281 39.65 52.6838 41.7298C51.9042 43.0333 51.1395 44.3515 50.3899 45.6551C48.6808 48.6137 47.1665 51.6748 45.9072 54.8238C42.6088 63.1138 41.5744 72.927 44.7827 81.378C45.2925 82.7109 45.8322 84.0584 46.5369 85.3033C47.0166 86.1675 48.0361 88.218 49.2055 88.2912C49.2505 88.1008 49.2655 87.9251 49.2655 87.7347Z" fill="#FFA500"/>
<path d="M52.054 54.7799C53.8081 50.4591 55.8771 46.7828 58.2009 43.2237C59.6402 40.9975 61.0795 38.7712 62.5187 36.5449C62.9685 35.8419 63.0585 35.8419 63.8381 36.3398C68.2608 39.1959 73.0285 39.9868 78.0959 39.0788C79.1904 38.8737 80.2398 38.5954 81.2893 38.3025C81.859 38.156 82.1139 38.2 82.3388 38.8444C83.1934 41.3636 84.4527 43.751 87.1214 45.3328C88.5007 46.1531 90.0449 46.6803 91.7241 46.7243C91.919 46.7243 92.0989 46.7389 92.2938 46.7682C93.0884 46.8561 93.2383 47.0172 92.9235 47.6324C92.3987 48.643 91.799 49.6243 91.2593 50.6349C89.9699 53.0516 88.3957 55.3511 87.1514 57.7971C86.3418 59.3935 85.0974 60.7703 84.0929 62.2789C82.8635 64.1097 81.5592 65.9113 80.0749 67.581C77.976 69.9391 76.1319 72.4876 73.5682 74.4942C72.1889 75.578 70.8995 76.7351 69.4602 77.775C67.8561 78.9467 66.2519 80.1038 64.4378 81.0119C62.009 82.2275 59.4753 83.2675 56.7316 83.9705C55.5772 84.2634 54.3778 84.4392 53.2384 84.7761C52.5487 84.9811 52.129 84.82 51.7392 84.2195C50.4348 82.2715 49.6252 80.1917 49.0255 78.0679C47.8411 73.9522 47.8861 69.8658 48.6807 65.8234C49.4303 61.8688 50.4798 58.0021 52.054 54.7799Z" fill="#FFA500"/>
<path d="M84.0777 32.2242C82.0837 32.6782 80.0448 33.0297 78.0958 33.5863C76.3866 33.9964 74.6025 34.0696 72.8184 34.2015C71.7389 34.2747 70.6595 34.509 69.55 34.2015C70.0148 34.802 70.9743 34.9045 73.4931 35.1535C76.0418 35.4025 78.4706 35.0363 81.8888 34.0403C82.9083 33.7474 84.6025 33.0151 84.7824 32.3413C84.5425 32.1949 84.3026 32.1802 84.0777 32.2242Z" fill="#FFA500"/>
<path d="M17.931 45.0106C17.931 44.3662 17.931 43.7217 17.946 43.0773C17.961 42.6086 17.976 42.1399 18.006 41.6712C18.081 40.1187 18.2309 38.5515 18.4258 36.9989C18.5158 36.2813 18.6357 35.5489 18.7556 34.8313C18.8006 34.553 19.3253 32.7954 19.1754 32.6343C18.1559 31.609 18.081 31.8873 17.1364 30.8034C17.8111 30.2469 18.066 29.0166 17.9011 28.1378C17.7062 27.1272 16.8966 25.9994 16.2219 25.6332C15.5323 25.2524 13.7032 25.0473 13.0585 25.4575C11.9041 23.7584 9.83512 20.5362 8.86061 18.72C8.8756 18.72 8.8756 18.7054 8.8756 18.7054C8.29089 18.8518 7.64622 18.8226 7.0765 18.6175C6.16196 18.2806 5.44232 17.519 5.18745 16.5963C5.18745 16.5963 5.83213 18.1781 6.97155 18.471C8.45581 18.8518 8.99554 18.5296 9.53527 18.1781C10.1799 17.768 10.4198 16.9185 10.4948 16.1129C10.6747 14.2235 9.25041 12.5538 7.31638 12.3781C6.85162 12.3341 6.38685 12.3927 5.96706 12.5099C5.47231 12.6564 4.90259 12.9932 4.63273 13.2569C2.33888 15.4978 3.74817 26.6731 4.45282 29.3534C6.4768 37.0429 11.8891 43.9561 17.0465 47.7202C17.2564 47.8667 17.6912 47.9106 18.021 47.9985C17.8711 47.9692 17.931 45.2889 17.931 45.0106Z" fill="#3F72AF"/>
<path d="M43.3585 28.958C42.6388 31.8287 39.6853 33.5863 36.7468 32.8833C33.8083 32.1802 32.0092 29.2948 32.7288 26.4241C33.4484 23.5534 34.8128 27.757 37.7513 28.46C40.6898 29.1484 44.0781 26.0872 43.3585 28.958Z" fill="#112D4E"/>
<path d="M55.8148 23.9697C57.124 20.7349 56.3875 17.4181 54.1697 16.5615C51.952 15.7049 49.0929 17.6328 47.7837 20.8676C46.4745 24.1025 47.211 27.4192 49.4288 28.2758C51.6465 29.1324 54.5057 27.2045 55.8148 23.9697Z" fill="#112D4E"/>
<path d="M38.9768 18.5243C40.0729 15.8161 39.457 13.0395 37.6012 12.3227C35.7453 11.6059 33.3524 13.2202 32.2563 15.9285C31.1603 18.6367 31.7762 21.4132 33.632 22.13C35.4878 22.8469 37.8808 21.2325 38.9768 18.5243Z" fill="#112D4E"/>
<path d="M36.0856 14.0527C36.6748 13.5558 36.9242 12.8948 36.6429 12.5765C36.3615 12.2581 35.6558 12.4028 35.0667 12.8997C34.4776 13.3966 34.2281 14.0575 34.5095 14.3759C34.7908 14.6943 35.4965 14.5496 36.0856 14.0527Z" fill="white" stroke="white"/>
<path d="M51.3797 18.7124C51.9688 18.2155 52.2183 17.5545 51.9369 17.2362C51.6556 16.9178 50.9499 17.0625 50.3608 17.5594C49.7716 18.0563 49.5222 18.7172 49.8035 19.0356C50.0849 19.354 50.7906 19.2093 51.3797 18.7124Z" fill="white" stroke="white"/>
<path id="hmwp_logoghost" d="M250.976 73.28C247.392 73.28 244.085 72.5333 241.056 71.04C238.069 69.504 235.659 67.1787 233.824 64.064C232.032 60.9067 231.136 56.9173 231.136 52.096C231.136 47.744 232.075 43.9467 233.952 40.704C235.872 37.4187 238.517 34.88 241.888 33.088C245.259 31.2533 249.12 30.336 253.472 30.336C254.965 30.336 256.501 30.5067 258.08 30.848C259.659 31.1893 261.131 31.7227 262.496 32.448C263.861 33.1307 264.949 34.048 265.76 35.2C266.613 36.352 267.04 37.7387 267.04 39.36C267.04 41.1093 266.507 42.7093 265.44 44.16C264.373 45.568 262.88 46.272 260.96 46.272C260.149 46.272 259.296 46.08 258.4 45.696C257.547 45.2693 257.099 44.6933 257.056 43.968C257.056 43.84 257.312 43.6053 257.824 43.264C258.379 42.9227 258.912 42.4107 259.424 41.728C259.979 41.0027 260.256 40.064 260.256 38.912C260.256 37.0773 259.552 35.6267 258.144 34.56C256.736 33.4507 254.923 32.896 252.704 32.896C250.101 32.896 247.733 33.6213 245.6 35.072C243.467 36.5227 241.76 38.656 240.48 41.472C239.243 44.2453 238.624 47.6587 238.624 51.712C238.624 55.552 239.221 58.8587 240.416 61.632C241.653 64.3627 243.36 66.4747 245.536 67.968C247.755 69.4187 250.315 70.144 253.216 70.144C254.624 70.144 255.84 70.0587 256.864 69.888C257.888 69.7173 258.976 69.4613 260.128 69.12V62.592C260.128 61.3973 260.085 60.4587 260 59.776C259.915 59.0507 259.616 58.5173 259.104 58.176C258.592 57.8347 257.696 57.664 256.416 57.664C255.989 57.664 255.584 57.6213 255.2 57.536C254.859 57.4507 254.667 57.0453 254.624 56.32C254.624 55.9787 254.731 55.6587 254.944 55.36C255.2 55.0613 255.541 54.912 255.968 54.912C257.333 54.9547 258.485 54.9973 259.424 55.04C260.363 55.0827 261.557 55.104 263.008 55.104C264.459 55.104 265.632 55.0827 266.528 55.04C267.467 54.9973 268.597 54.9547 269.92 54.912C270.347 54.912 270.645 55.0613 270.816 55.36C271.029 55.6587 271.136 55.9787 271.136 56.32C271.093 57.0453 270.901 57.4507 270.56 57.536C270.219 57.6213 269.813 57.664 269.344 57.664C268.149 57.664 267.296 57.856 266.784 58.24C266.315 58.5813 266.016 59.1147 265.888 59.84C265.803 60.5653 265.76 61.4827 265.76 62.592V70.144C264.096 70.912 262.539 71.5307 261.088 72C259.68 72.4693 258.165 72.7893 256.544 72.96C254.965 73.1733 253.109 73.28 250.976 73.28ZM274.496 72.192C274.155 72.192 273.899 72.064 273.728 71.808C273.557 71.5093 273.472 71.2107 273.472 70.912C273.515 70.272 273.664 69.9307 273.92 69.888C274.219 69.8027 274.56 69.76 274.944 69.76C276.139 69.76 276.949 69.568 277.376 69.184C277.845 68.7573 278.101 68.2027 278.144 67.52C278.229 66.8373 278.272 66.1333 278.272 65.408V34.176C278.272 33.408 278.229 32.704 278.144 32.064C278.101 31.3813 277.867 30.848 277.44 30.464C277.013 30.0373 276.203 29.824 275.008 29.824C274.624 29.824 274.261 29.7813 273.92 29.696C273.621 29.568 273.472 29.184 273.472 28.544C273.472 27.904 273.813 27.52 274.496 27.392C276.459 27.0933 277.952 26.7947 278.976 26.496C280.043 26.1973 280.853 25.9413 281.408 25.728C281.963 25.472 282.453 25.344 282.88 25.344C283.221 25.344 283.499 25.4293 283.712 25.6C283.968 25.728 284.096 26.048 284.096 26.56V47.168H284.224C285.077 46.3573 285.952 45.5893 286.848 44.864C287.744 44.096 288.789 43.4773 289.984 43.008C291.221 42.496 292.736 42.24 294.528 42.24C297.429 42.24 299.733 43.1147 301.44 44.864C303.147 46.6133 304 48.9173 304 51.776V65.408C304 66.1333 304.021 66.8373 304.064 67.52C304.149 68.2027 304.405 68.7573 304.832 69.184C305.301 69.568 306.112 69.76 307.264 69.76C307.691 69.76 308.032 69.8027 308.288 69.888C308.544 69.9307 308.693 70.272 308.736 70.912C308.736 71.2107 308.651 71.5093 308.48 71.808C308.352 72.064 308.117 72.192 307.776 72.192C306.539 72.1067 305.387 72.0427 304.32 72C303.253 72 302.165 72 301.056 72C299.904 72 298.816 72 297.792 72C296.768 72.0427 295.637 72.1067 294.4 72.192C294.059 72.192 293.803 72.064 293.632 71.808C293.461 71.5093 293.376 71.2107 293.376 70.912C293.419 70.272 293.568 69.9307 293.824 69.888C294.08 69.8027 294.421 69.76 294.848 69.76C296.043 69.76 296.853 69.568 297.28 69.184C297.749 68.7573 298.005 68.2027 298.048 67.52C298.091 66.8373 298.112 66.1333 298.112 65.408V51.84C298.112 49.7067 297.472 48.1707 296.192 47.232C294.912 46.2507 293.525 45.76 292.032 45.76C290.581 45.76 289.301 46.0373 288.192 46.592C287.083 47.104 286.187 47.7013 285.504 48.384C284.821 49.0667 284.352 49.664 284.096 50.176V65.408C284.096 66.1333 284.117 66.8373 284.16 67.52C284.245 68.2027 284.501 68.7573 284.928 69.184C285.397 69.568 286.208 69.76 287.36 69.76C287.787 69.76 288.128 69.8027 288.384 69.888C288.64 69.9307 288.789 70.272 288.832 70.912C288.832 71.2107 288.747 71.5093 288.576 71.808C288.448 72.064 288.213 72.192 287.872 72.192C286.635 72.1067 285.483 72.0427 284.416 72C283.349 72 282.261 72 281.152 72C280 72 278.912 72 277.888 72C276.864 72.0427 275.733 72.1067 274.496 72.192ZM326.974 72.768C323.987 72.768 321.363 72.064 319.102 70.656C316.883 69.248 315.155 67.4133 313.918 65.152C312.68 62.8907 312.062 60.48 312.062 57.92C312.062 55.4027 312.51 53.1627 313.406 51.2C314.302 49.2373 315.475 47.5947 316.926 46.272C318.419 44.9493 320.04 43.9467 321.79 43.264C323.539 42.5813 325.267 42.24 326.974 42.24C329.96 42.24 332.563 42.944 334.782 44.352C337.043 45.76 338.792 47.5947 340.03 49.856C341.267 52.1173 341.886 54.528 341.886 57.088C341.886 59.6053 341.416 61.8453 340.478 63.808C339.582 65.7707 338.387 67.4133 336.894 68.736C335.443 70.0587 333.843 71.0613 332.094 71.744C330.344 72.4267 328.638 72.768 326.974 72.768ZM326.974 70.4C329.064 70.4 330.707 69.7813 331.902 68.544C333.139 67.3067 334.014 65.6853 334.526 63.68C335.08 61.632 335.358 59.4347 335.358 57.088C335.358 54.8267 335.08 52.7573 334.526 50.88C333.971 49.0027 333.075 47.488 331.838 46.336C330.6 45.184 328.979 44.608 326.974 44.608C324.883 44.608 323.219 45.2267 321.982 46.464C320.744 47.6587 319.87 49.2587 319.358 51.264C318.846 53.2267 318.59 55.4027 318.59 57.792C318.59 60.0107 318.846 62.08 319.358 64C319.912 65.92 320.808 67.4773 322.046 68.672C323.283 69.824 324.926 70.4 326.974 70.4ZM358.452 72.768C355.167 72.768 352.415 72.192 350.196 71.04C348.02 69.8453 346.932 68.1387 346.932 65.92C346.932 64.6827 347.295 63.68 348.02 62.912C348.788 62.144 349.769 61.76 350.964 61.76C351.732 61.76 352.351 61.9733 352.82 62.4C353.332 62.784 353.588 63.0613 353.588 63.232C353.588 63.36 353.332 63.6587 352.82 64.128C352.351 64.5547 352.116 65.2587 352.116 66.24C352.116 67.4347 352.671 68.4373 353.78 69.248C354.932 70.016 356.66 70.4 358.964 70.4C360.969 70.4 362.527 69.9733 363.636 69.12C364.788 68.224 365.364 66.9867 365.364 65.408C365.364 64.128 364.937 63.1467 364.084 62.464C363.273 61.7387 362.207 61.1627 360.884 60.736C359.604 60.3093 358.217 59.8827 356.724 59.456C355.273 59.0293 353.887 58.496 352.564 57.856C351.241 57.216 350.153 56.3413 349.3 55.232C348.489 54.08 348.084 52.5653 348.084 50.688C348.084 48.768 348.66 47.1893 349.812 45.952C350.964 44.7147 352.436 43.7973 354.228 43.2C356.02 42.56 357.833 42.24 359.668 42.24C361.247 42.24 362.74 42.4747 364.148 42.944C365.556 43.3707 366.708 44.032 367.604 44.928C368.543 45.824 369.012 46.9547 369.012 48.32C369.012 49.3867 368.671 50.3467 367.988 51.2C367.305 52.0533 366.367 52.48 365.172 52.48C364.404 52.48 363.764 52.288 363.252 51.904C362.783 51.4773 362.548 51.1787 362.548 51.008C362.548 50.9227 362.697 50.7733 362.996 50.56C363.337 50.304 363.657 49.984 363.956 49.6C364.255 49.1733 364.404 48.64 364.404 48C364.319 46.7627 363.721 45.8453 362.612 45.248C361.503 44.6507 360.265 44.352 358.9 44.352C357.407 44.352 356.02 44.7147 354.74 45.44C353.46 46.1653 352.82 47.2107 352.82 48.576C352.82 49.8133 353.076 50.7733 353.588 51.456C354.143 52.1387 354.996 52.736 356.148 53.248C357.343 53.7173 358.879 54.2507 360.756 54.848C362.633 55.4453 364.276 56.064 365.684 56.704C367.135 57.344 368.244 58.1973 369.012 59.264C369.823 60.288 370.228 61.696 370.228 63.488C370.228 65.28 369.716 66.88 368.692 68.288C367.668 69.696 366.26 70.8053 364.468 71.616C362.719 72.384 360.713 72.768 358.452 72.768ZM386.699 73.088C385.419 73.088 384.203 72.768 383.051 72.128C381.899 71.488 380.939 70.5067 380.171 69.184C379.446 67.8613 379.083 66.1973 379.083 64.192V45.376L375.371 45.504C375.072 45.504 374.838 45.3973 374.667 45.184C374.539 44.928 374.475 44.6507 374.475 44.352C374.475 43.4987 374.774 43.008 375.371 42.88C376.95 42.5813 378.144 42.0907 378.955 41.408C379.766 40.6827 380.384 39.8293 380.811 38.848C381.28 37.8667 381.707 36.8 382.091 35.648C382.219 35.3067 382.411 35.0933 382.667 35.008C382.923 34.88 383.2 34.816 383.499 34.816C383.755 34.816 384.032 34.88 384.331 35.008C384.672 35.136 384.843 35.3707 384.843 35.712L384.395 43.008L391.883 42.56C392.267 42.5173 392.523 42.624 392.651 42.88C392.779 43.136 392.843 43.4347 392.843 43.776C392.843 44.2027 392.758 44.6293 392.587 45.056C392.459 45.4827 392.288 45.696 392.075 45.696L384.907 45.504V64.96C384.907 66.1973 385.163 67.328 385.675 68.352C386.23 69.376 387.211 69.888 388.619 69.888C389.088 69.888 389.622 69.8453 390.219 69.76C390.816 69.6747 391.456 69.4827 392.139 69.184C392.31 69.0987 392.48 69.0347 392.651 68.992C392.822 68.9067 392.992 68.864 393.163 68.864C393.504 68.864 393.76 69.0133 393.931 69.312C394.102 69.568 394.251 69.8453 394.379 70.144C394.507 70.528 394.4 70.8267 394.059 71.04C392.736 71.8933 391.52 72.448 390.411 72.704C389.302 72.96 388.064 73.088 386.699 73.088Z"/>
<path id="hmwp_logowp" d="M137.856 72.64L127.232 39.36C126.549 37.6107 125.867 36.352 125.184 35.584C124.501 34.816 123.477 34.304 122.112 34.048C121.515 33.92 121.088 33.8133 120.832 33.728C120.619 33.6427 120.512 33.2587 120.512 32.576C120.512 31.8507 120.768 31.4667 121.28 31.424C121.792 31.3387 122.389 31.296 123.072 31.296C125.931 31.3387 128.149 31.872 129.728 32.896C131.307 33.8773 132.565 35.584 133.504 38.016L140.8 61.44H141.056L148.864 31.616H152.192L162.624 61.44H162.816L170.048 37.312C170.389 35.9467 170.368 35.0933 169.984 34.752C169.643 34.368 168.725 34.176 167.232 34.176C166.805 34.176 166.443 34.1333 166.144 34.048C165.845 33.9627 165.675 33.5573 165.632 32.832C165.632 32.4907 165.717 32.1707 165.888 31.872C166.059 31.5733 166.336 31.424 166.72 31.424C168.085 31.4667 169.259 31.5093 170.24 31.552C171.264 31.5947 172.416 31.616 173.696 31.616C174.549 31.616 175.253 31.616 175.808 31.616C176.363 31.5733 176.917 31.552 177.472 31.552C178.069 31.5093 178.816 31.4667 179.712 31.424C180.139 31.424 180.437 31.5733 180.608 31.872C180.779 32.1707 180.864 32.4907 180.864 32.832C180.821 33.5573 180.651 33.9627 180.352 34.048C180.096 34.1333 179.733 34.176 179.264 34.176C177.643 34.176 176.299 34.496 175.232 35.136C174.208 35.7333 173.461 36.864 172.992 38.528L162.496 72.64H159.488L149.12 42.112L140.864 72.64H137.856ZM183.028 72.192C182.644 72.192 182.345 72.0427 182.132 71.744C181.961 71.4453 181.876 71.1253 181.876 70.784C181.918 70.0587 182.089 69.6533 182.388 69.568C182.729 69.4827 183.113 69.44 183.54 69.44C184.905 69.44 185.865 69.2053 186.42 68.736C186.974 68.224 187.316 67.6053 187.444 66.88C187.614 66.112 187.7 65.3227 187.7 64.512V39.104C187.7 38.2933 187.614 37.5253 187.444 36.8C187.316 36.032 186.974 35.4133 186.42 34.944C185.865 34.432 184.905 34.176 183.54 34.176C183.113 34.176 182.729 34.1333 182.388 34.048C182.089 33.9627 181.918 33.5573 181.876 32.832C181.876 32.4907 181.961 32.1707 182.132 31.872C182.345 31.5733 182.644 31.424 183.028 31.424C184.393 31.4667 185.694 31.5093 186.932 31.552C188.169 31.5947 189.428 31.616 190.708 31.616H200.308C201.118 31.616 202.164 31.68 203.444 31.808C204.766 31.936 206.153 32.192 207.604 32.576C209.097 32.96 210.505 33.5787 211.828 34.432C213.15 35.2853 214.217 36.416 215.028 37.824C215.881 39.232 216.308 41.0027 216.308 43.136C216.308 45.1413 215.838 46.9547 214.9 48.576C214.004 50.1973 212.788 51.584 211.252 52.736C209.758 53.888 208.052 54.784 206.132 55.424C204.254 56.0213 202.334 56.32 200.372 56.32C199.433 56.32 198.409 56.256 197.3 56.128C196.19 56 195.081 55.7227 193.972 55.296V64.512C194.014 65.3227 194.1 66.112 194.228 66.88C194.356 67.6053 194.697 68.224 195.252 68.736C195.849 69.2053 196.809 69.44 198.132 69.44C198.601 69.44 198.985 69.4827 199.284 69.568C199.582 69.6533 199.753 70.0587 199.796 70.784C199.796 71.1253 199.689 71.4453 199.476 71.744C199.305 72.0427 199.028 72.192 198.644 72.192C195.913 72.064 193.246 72 190.644 72C189.364 72 188.105 72 186.868 72C185.673 72.0427 184.393 72.1067 183.028 72.192ZM198.516 53.44C199.497 53.44 200.585 53.2907 201.78 52.992C203.017 52.6507 204.19 52.1173 205.3 51.392C206.452 50.624 207.39 49.6 208.116 48.32C208.841 46.9973 209.204 45.3333 209.204 43.328C209.204 41.152 208.777 39.4453 207.924 38.208C207.07 36.928 206.004 35.9893 204.724 35.392C203.486 34.7947 202.249 34.4107 201.012 34.24C199.774 34.0693 198.772 33.984 198.003 33.984C196.98 33.984 196.169 34.0907 195.572 34.304C194.974 34.5173 194.548 34.9867 194.292 35.712C194.078 36.3947 193.972 37.4613 193.972 38.912V52.736C194.398 52.9067 195.017 53.0773 195.828 53.248C196.638 53.376 197.534 53.44 198.516 53.44Z"/>
</g>
</svg>
