<?xml version="1.0" encoding="iso-8859-1"?>
<!-- Generator: Adobe Illustrator 17.1.0, SVG Export Plug-In . SVG Version: 6.00 Build 0)  -->
<!DOCTYPE svg PUBLIC "-//W3C//DTD SVG 1.1//EN" "http://www.w3.org/Graphics/SVG/1.1/DTD/svg11.dtd">
<svg version="1.1" id="Capa_1" xmlns="http://www.w3.org/2000/svg" xmlns:xlink="http://www.w3.org/1999/xlink" x="0px" y="0px"
	 viewBox="0 0 278 278" style="enable-background:new 0 0 278 278;" xml:space="preserve">
<path d="M266.333,77H237V34.155C237,20.37,225.691,9,211.906,9H24.978C11.192,9,0,20.37,0,34.155v141.556
	C0,189.496,11.192,201,24.978,201h65.998c-0.006,0,0.025-0.013,0.025,0.127V218H54.691C50.28,218,46,222.006,46,226.417v17.189
	c0,4.411,4.28,8.394,8.691,8.394H165v5c0,6.627,5.706,12,12.333,12h89c6.627,0,11.667-5.373,11.667-12V89
	C278,82.373,272.961,77,266.333,77z M30,149V39h177v38h-29.667C170.706,77,165,82.373,165,89v60H30z M146,218v-16.873
	c0-0.14-0.086-0.127-0.091-0.127H165v17H146z M222.074,256.607c-5.32,0-9.634-4.313-9.634-9.634c0-5.32,4.313-9.634,9.634-9.634
	c5.32,0,9.634,4.313,9.634,9.634C231.708,252.293,227.394,256.607,222.074,256.607z M260,225h-77v-24v-52v-44h24.333h30H260V225z"/>
<g>
</g>
<g>
</g>
<g>
</g>
<g>
</g>
<g>
</g>
<g>
</g>
<g>
</g>
<g>
</g>
<g>
</g>
<g>
</g>
<g>
</g>
<g>
</g>
<g>
</g>
<g>
</g>
<g>
</g>
</svg>
