<svg class="tcb-icon" width="23" height="20" viewBox="0 0 23 20" data-id="shopping_cart">
    <path fill="#93A3B0"
          d="M20.63 11.77l1.846-8.125c.134-.586-.312-1.145-.914-1.145H6.22L5.861.75C5.771.313 5.388 0 4.943 0H.938C.42 0 0 .42 0 .938v.625c0 .517.42.937.938.937h2.73L6.41 15.915c-.656.378-1.098 1.086-1.098 1.898C5.313 19.02 6.292 20 7.5 20c1.208 0 2.188-.98 2.188-2.188 0-.612-.252-1.165-.658-1.562h8.19c-.406.397-.657.95-.657 1.563 0 1.208.979 2.187 2.187 2.187 1.208 0 2.188-.98 2.188-2.188 0-.866-.504-1.614-1.234-1.968l.215-.949c.134-.586-.312-1.145-.914-1.145H8.52l-.255-1.25h11.45c.438 0 .818-.303.915-.73z"/>
</svg>
