<svg width="12" height="12" viewBox="0 0 12 12" fill="none" xmlns="http://www.w3.org/2000/svg">
<path d="M4.584 3.384C4.722 3.084 4.8 2.754 4.8 2.4C4.8 1.074 3.726 0 2.4 0C1.074 0 0 1.074 0 2.4C0 3.726 1.074 4.8 2.4 4.8C2.754 4.8 3.084 4.722 3.384 4.584L4.8 6L3.384 7.416C3.084 7.278 2.754 7.2 2.4 7.2C1.074 7.2 0 8.274 0 9.6C0 10.926 1.074 12 2.4 12C3.726 12 4.8 10.926 4.8 9.6C4.8 9.246 4.722 8.916 4.584 8.616L6 7.2L10.2 11.4H12V10.8L4.584 3.384ZM2.4 3.6C1.74 3.6 1.2 3.066 1.2 2.4C1.2 1.734 1.74 1.2 2.4 1.2C3.06 1.2 3.6 1.734 3.6 2.4C3.6 3.066 3.06 3.6 2.4 3.6ZM2.4 10.8C1.74 10.8 1.2 10.266 1.2 9.6C1.2 8.934 1.74 8.4 2.4 8.4C3.06 8.4 3.6 8.934 3.6 9.6C3.6 10.266 3.06 10.8 2.4 10.8ZM6 6.3C5.832 6.3 5.7 6.168 5.7 6C5.7 5.832 5.832 5.7 6 5.7C6.168 5.7 6.3 5.832 6.3 6C6.3 6.168 6.168 6.3 6 6.3ZM10.2 0.6L6 4.8L7.2 6L12 1.2V0.6H10.2Z" fill="#6B6BE5"/>
</svg>
