<svg width="30" height="30" viewBox="0 0 30 30" xmlns="http://www.w3.org/2000/svg">
    <path fill="none" stroke="#444" stroke-width="2" d="M21.42,13a.79.79,0,0,1-.25.58l-7.65,7.65a.92.92,0,0,1-1.27,0L8.67,17.66a.89.89,0,0,1,0-1.26h0l7.64-7.65A.92.92,0,0,1,17,8.49h3.34a1.11,1.11,0,0,1,.79.33,1,1,0,0,1,.34.72Z" />
    <circle fill="#444" cx="18.39" cy="11.53" r="1.06" />
    <polyline fill="none" stroke="#444" stroke-width="2" points="6 13 3 13 3 3 13 3 13 6" />
    <polyline fill="none" stroke="#444" stroke-width="2" points="17 6 17 3 27 3 27 13 24 13" />
    <polyline fill="none" stroke="#444" stroke-width="2" points="24 17 27 17 27 27 17 27 17 24" />
    <polyline fill="none" stroke="#444" stroke-width="2" points="13 24 13 27 3 27 3 17 6 17" />
</svg>
