<svg width="20" height="20" viewBox="0 0 20 20" xmlns="http://www.w3.org/2000/svg">
    <path fill="none" stroke="#444" d="M14.55,8.58a.58.58,0,0,1-.18.41L9,14.41a.65.65,0,0,1-.9,0L5.52,11.88a.62.62,0,0,1,0-.88h0l5.41-5.42a.68.68,0,0,1,.49-.18h2.36a.83.83,0,0,1,.56.23.67.67,0,0,1,.24.51Z" />
    <circle fill="#444" cx="12.4" cy="7.54" r="0.75" />
    <polyline fill="none" stroke="#444" points="3.5 8.5 1.5 8.5 1.5 1.5 8.5 1.5 8.5 3.5" />
    <polyline fill="none" stroke="#444" points="11.5 3.5 11.5 1.5 18.5 1.5 18.5 8.5 16.5 8.5" />
    <polyline fill="none" stroke="#444" points="16.5 11.5 18.5 11.5 18.5 18.5 11.5 18.5 11.5 16.5" />
    <polyline fill="none" stroke="#444" points="8.5 16.5 8.5 18.5 1.5 18.5 1.5 11.5 3.5 11.5" />
</svg>
