<svg width="127" height="127" viewBox="0 0 127 127" xmlns="http://www.w3.org/2000/svg">
    <g fill="none" fill-rule="evenodd">
        <circle cx="63.5" cy="63.5" r="63.5" fill="#142FBF" fill-opacity=".15"/>
        <path d="M86.237 40.248 75.754 29.763A6 6 0 0 0 71.516 28H46C42.687 28.012 40 30.7 40 34.011v51.99A6.001 6.001 0 0 0 45.999 92H82A6.001 6.001 0 0 0 88 86.001V44.496a6.029 6.029 0 0 0-1.763-4.248zm-14.233-8.174c.35.087.662.262.925.525l10.485 10.485c.262.262.437.575.525.925H72.004V32.074zM84 86c0 1.1-.9 2-2 2H46c-1.1 0-2-.9-2-2v-51.99c0-1.1.9-2.011 2-2.011h22.005v13.009a2.985 2.985 0 0 0 3 2.991H84v38.001z" fill="#2A5082" fill-rule="nonzero" stroke="#DCE0F6" stroke-width="1.5"/>
        <g transform="translate(54.3 53)">
            <rect fill="#BEE0FF" x="1" y="20" width="37" height="22" rx="2"/>
            <g>
                <ellipse fill="#DCE0F6" cx="28.2" cy="9" rx="5.5" ry="7"/>
                <path d="M19.25 36.094a1.724 1.724 0 0 1-1.719-1.719v-5.5c0-.945.774-1.719 1.719-1.719.945 0 1.719.774 1.719 1.72v5.5c0 .944-.774 1.718-1.719 1.718zM38.5 23.375v16.5A4.126 4.126 0 0 1 34.375 44H4.125A4.126 4.126 0 0 1 0 39.875v-16.5a4.126 4.126 0 0 1 4.125-4.125H5.5v-5.5C5.5 6.153 11.688-.026 19.293 0 26.89.026 33 6.282 33 13.88v5.37h1.375a4.126 4.126 0 0 1 4.125 4.125zM8.25 19.25h22v-5.5c0-6.067-4.933-11-11-11s-11 4.933-11 11v5.5zm27.5 20.625v-16.5c0-.756-.619-1.375-1.375-1.375H4.125c-.756 0-1.375.619-1.375 1.375v16.5c0 .756.619 1.375 1.375 1.375h30.25c.756 0 1.375-.619 1.375-1.375z" fill="#5A6DD2" fill-rule="nonzero"/>
            </g>
        </g>
    </g>
</svg>
