<svg xmlns="http://www.w3.org/2000/svg" width="127" height="127" viewBox="0 0 127 127">
    <g fill="none" fill-rule="evenodd">
        <g>
            <g>
                <g transform="translate(-692 -145) translate(692 145)">
                    <circle cx="63.5" cy="63.5" r="63.5" fill="#142FBF" fill-opacity=".15"/>
                    <path fill="#FFF" d="M70.85 33.775L86.85 33.775 93.801 87.648 80.534 87.334z" transform="rotate(-12 82.325 60.712)"/>
                    <path fill="#A3D4FF" d="M34 44H64V77H34z"/>
                    <path fill="#142FBF" fill-opacity=".5" d="M34 32H64V43H34z" transform="matrix(1 0 0 -1 0 75)"/>
                    <path fill="#142FBF" fill-opacity=".5" d="M34 79H64V89H34z" transform="matrix(1 0 0 -1 0 168)"/>
                    <path fill="#2A5082" fill-rule="nonzero" d="M101.669 84.27L80.316 29.972c-.208-.596-.773-.971-1.374-.971-.364 0-.602.125-1.391.4-.783.274-1.19.999-.76 2.227-1.993 1.173-7.162 2.917-9.142 3.199-.161-.458-.239-.802-.775-1.118v-.833c0-2.14-1.735-3.875-3.875-3.875H51.374c-.722 0-1.359.25-1.938.593C48.86 29.251 48.222 29 47.5 29H35.875C33.735 29 32 30.735 32 32.875v54.25C32 89.265 33.735 91 35.875 91H47.5c.722 0 1.359-.25 1.938-.593.578.344 1.215.593 1.937.593H63c2.14 0 3.875-1.735 3.875-3.875v-43.73L85.212 90.03c.21.596.775.971 1.375.971.363 0 .6-.125 1.391-.4.78-.273 1.19-.997.76-2.227 1.992-1.173 7.162-2.917 9.142-3.199.442 1.26 1.227 1.532 1.983 1.267l.915-.32c.754-.265 1.155-1.098.89-1.85zM47.5 87.126H35.875v-7.75H47.5v7.75zm0-11.625H35.875v-31H47.5v31zm0-34.875H35.875v-7.75H47.5v7.75zm15.5 46.5H51.375v-7.75H63v7.75zM63 75.5H51.375v-31H63v31zm0-34.875H51.375v-7.75H63v7.75zm24.6 44.507L68.787 38.067c3.054-.573 7.751-2.461 9.143-3.199l18.813 47.063c-3.055.575-7.751 2.462-9.143 3.2z"/>
                </g>
            </g>
        </g>
    </g>
</svg>
