<svg xmlns="http://www.w3.org/2000/svg" width="127" height="127" viewBox="0 0 127 127">
    <g fill="none" fill-rule="evenodd">
        <g>
            <g transform="translate(-682 -145) translate(682 145)">
                <circle cx="63.5" cy="63.5" r="63.5" fill="#142FBF" fill-opacity=".15"/>
                <g fill-rule="nonzero">
                    <g fill="#2A5082">
                        <g>
                            <path d="M16.263 0c8.983 0 16.263 7.346 16.263 16.41s-7.28 16.41-16.263 16.41S0 25.475 0 16.41 7.28 0 16.263 0zm.052 2.462C8.73 2.462 2.55 8.724 2.55 16.41c0 7.687 6.18 13.949 13.765 13.949 7.585 0 13.765-6.262 13.765-13.949 0-7.686-6.18-13.948-13.765-13.948z" transform="translate(29 28) translate(10.526)"/>
                        </g>
                    </g>
                    <path fill="#A3D4FF" fill-opacity=".7" d="M57.338 20.615c6.289 0 11.387 5.166 11.387 11.539 0 6.372-5.098 11.538-11.387 11.538-1.5 0-2.932-.294-4.243-.828l-3.348 3.392h-3.796v5.129h-5.06v5.128H33.3v-6.41l13.469-13.65c-.527-1.328-.818-2.78-.818-4.3 0-6.372 5.098-11.538 11.387-11.538" transform="translate(29 28)"/>
                    <g fill="#142FBF" fill-opacity=".7">
                        <path d="M26.569 2.564c6.288 0 11.386 5.166 11.386 11.539 0 6.372-5.098 11.538-11.386 11.538-1.5 0-2.932-.294-4.243-.828l-3.348 3.392h-3.796v5.128h-5.06v5.129H2.53v-6.41L16 18.401c-.527-1.329-.818-2.78-.818-4.3 0-6.372 5.098-11.538 11.387-11.538m0-2.564c-7.685 0-13.917 6.312-13.917 14.103 0 1.226.154 2.432.458 3.601L.556 30.426c-.356.36-.556.85-.556 1.36v7.317c0 1.062.85 1.923 1.898 1.923h8.856c1.048 0 1.898-.861 1.898-1.923v-3.206h3.163c1.048 0 1.898-.86 1.898-1.923V30.77h1.527c.503 0 .986-.202 1.342-.563l2.433-2.465c1.154.308 2.343.464 3.554.464 7.685 0 13.917-6.311 13.917-14.102C40.486 6.315 34.257 0 26.569 0zm3.795 8.654c.872 0 1.582.719 1.582 1.602 0 .884-.71 1.603-1.582 1.603-.872 0-1.581-.719-1.581-1.603 0-.883.71-1.602 1.581-1.602m0-2.244c-2.096 0-3.795 1.722-3.795 3.846 0 2.125 1.7 3.847 3.795 3.847 2.097 0 3.796-1.722 3.796-3.847 0-2.124-1.7-3.846-3.796-3.846z" transform="translate(29 28) translate(30.77 18.051)"/>
                    </g>
                    <path fill="#2A5082" d="M43.725 61.538V64H5.289C2.369 64 0 61.61 0 58.667v-5.334c0-9.057 7.284-16.41 16.254-16.41.94 0 1.776.14 2.825.442.248.071.504.15.85.26l.907.287c2.332.73 4.17 1.062 6.802 1.062 2.632 0 4.474-.333 6.808-1.062.217-.067.976-.31.917-.29.35-.112.609-.191.86-.263.864-.247 1.583-.385 2.336-.424l-3.235 3.28c-.33.103-.615.19-.74.228-2.228.659-4.266.993-6.933.993-2.673 0-4.712-.334-6.937-.993-.355-.105-1.896-.593-2.29-.704-.83-.235-1.48-.35-2.13-.354h-.027c-7.625 0-13.82 6.25-13.82 13.948v5.334c0 1.582 1.277 2.871 2.842 2.871h38.436z" transform="translate(29 28)"/>
                </g>
            </g>
        </g>
    </g>
</svg>
