<svg width="1000" height="700" viewBox="0 0 1000 700" fill="none" xmlns="http://www.w3.org/2000/svg"><path fill="#fff" d="M0 0h1000v700H0z"/><path fill="#D5D5D5" d="M593 301h100v219H593z"/><path opacity=".21" d="M623.46 428.69h38.66a4.46 4.46 0 0 0 4.46-4.46v-26.77a4.46 4.46 0 0 0-4.46-4.46h-38.66a4.46 4.46 0 0 0-4.46 4.46v26.77a4.46 4.46 0 0 0 4.46 4.46Zm32.71-30.49a5.2 5.2 0 1 1 0 10.4 5.2 5.2 0 0 1 0-10.4Zm4.47 24.54h-35.7v-10.41l8.14-8.13a1.1 1.1 0 0 1 1.22-.25c.13.06.26.14.36.25l12.6 12.59 5.15-5.16a1.12 1.12 0 0 1 1.58 0l6.65 6.65v4.46Z" fill="#888"/><path fill="#D5D5D5" d="M714 180h100v219H714z"/><path opacity=".21" d="M744.46 307.69h38.66a4.46 4.46 0 0 0 4.46-4.46v-26.77a4.46 4.46 0 0 0-4.46-4.46h-38.66a4.46 4.46 0 0 0-4.46 4.46v26.77a4.46 4.46 0 0 0 4.46 4.46Zm32.71-30.49a5.2 5.2 0 1 1 0 10.4 5.2 5.2 0 0 1 0-10.4Zm4.47 24.54h-35.7v-10.41l8.14-8.13a1.1 1.1 0 0 1 1.22-.25c.13.06.26.14.36.25l12.6 12.59 5.15-5.16a1.12 1.12 0 0 1 1.58 0l6.65 6.65v4.46Z" fill="#888"/><path d="M186 422h122V300H186v122Z" fill="#888"/><path d="M450 280h243V180H450v100ZM186 280h243V180H186v100ZM329 520h243V300H329v220Z" fill="#D5D5D5"/><path opacity=".21" d="M431.46 427.69h38.66a4.46 4.46 0 0 0 4.46-4.46v-26.77a4.46 4.46 0 0 0-4.46-4.46h-38.66a4.46 4.46 0 0 0-4.46 4.46v26.77a4.46 4.46 0 0 0 4.46 4.46Zm32.72-30.49a5.2 5.2 0 1 1 0 10.4 5.2 5.2 0 0 1 0-10.4Zm4.46 24.54h-35.7v-10.41l8.14-8.13a1.1 1.1 0 0 1 1.22-.25c.13.06.26.14.36.25l12.6 12.59 5.15-5.16a1.12 1.12 0 0 1 1.58 0l6.65 6.65v4.46ZM552.46 247.69h38.66a4.46 4.46 0 0 0 4.46-4.46v-26.77a4.46 4.46 0 0 0-4.46-4.46h-38.66a4.46 4.46 0 0 0-4.46 4.46v26.77a4.46 4.46 0 0 0 4.46 4.46Zm32.71-30.49a5.2 5.2 0 1 1 0 10.4 5.2 5.2 0 0 1 0-10.4Zm4.47 24.54h-35.7v-10.41l8.14-8.13a1.1 1.1 0 0 1 1.22-.24c.13.05.26.13.36.24l12.6 12.59 5.15-5.16a1.12 1.12 0 0 1 1.58 0l6.65 6.65v4.46ZM288.46 247.69h38.66a4.46 4.46 0 0 0 4.46-4.46v-26.77a4.46 4.46 0 0 0-4.46-4.46h-38.66a4.46 4.46 0 0 0-4.46 4.46v26.77a4.46 4.46 0 0 0 4.46 4.46Zm32.72-30.49a5.2 5.2 0 1 1 0 10.4 5.2 5.2 0 0 1 0-10.4Zm4.46 24.54h-35.7v-10.41l8.14-8.13a1.1 1.1 0 0 1 1.22-.24c.13.05.26.13.36.24l12.6 12.59 5.15-5.16a1.12 1.12 0 0 1 1.58 0l6.65 6.65v4.46Z" fill="#888"/></svg>