<svg width="1000" height="700" viewBox="0 0 1000 700" fill="none" xmlns="http://www.w3.org/2000/svg"><g clip-path="url(#clip0_708_930)"><mask id="mask0_708_930" style="mask-type:luminance" maskUnits="userSpaceOnUse" x="0" y="0" width="1000" height="700"><path d="M1000 0H0v700h1000V0Z" fill="#fff"/></mask><g mask="url(#mask0_708_930)"><path d="M1000 0H0v700h1000V0Z" fill="#FCFCFF"/></g><path d="M257.85 350.23c0-7.8 1.74-14.78 5.23-20.92a37.74 37.74 0 0 1 14.43-14.43c6.13-3.48 13-5.23 20.57-5.23 8.86 0 16.63 2.28 23.3 6.82 6.66 4.55 11.32 10.84 13.97 18.87h-18.3a18.86 18.86 0 0 0-7.72-8.52 22.2 22.2 0 0 0-11.37-2.85c-4.62 0-8.75 1.1-12.38 3.3a22.22 22.22 0 0 0-8.41 9.1c-1.97 3.93-2.96 8.55-2.96 13.86 0 5.22.99 9.84 2.96 13.86 2.04 3.94 4.85 7 8.4 9.2a24.13 24.13 0 0 0 12.4 3.19c4.31 0 8.1-.95 11.36-2.85a19.54 19.54 0 0 0 7.73-8.63h18.3c-2.66 8.1-7.32 14.43-13.99 18.98-6.59 4.47-14.35 6.7-23.3 6.7-7.57 0-14.43-1.7-20.56-5.11a38.8 38.8 0 0 1-14.43-14.44c-3.49-6.13-5.23-13.1-5.23-20.9Zm106.77-39.55v49.1c0 5.37 1.4 9.5 4.2 12.38 2.81 2.8 6.75 4.2 11.83 4.2 5.15 0 9.13-1.4 11.93-4.2 2.8-2.88 4.2-7.01 4.2-12.39v-49.1h16.03v48.99c0 6.74-1.48 12.46-4.43 17.16a27.43 27.43 0 0 1-11.7 10.45 36.8 36.8 0 0 1-16.26 3.53 36.53 36.53 0 0 1-16.14-3.53 27.01 27.01 0 0 1-11.36-10.45c-2.8-4.7-4.2-10.42-4.2-17.16v-48.98h15.9Zm90.95 80.12a38.1 38.1 0 0 1-15-2.85 24.59 24.59 0 0 1-10.46-8.18c-2.57-3.56-3.9-7.76-3.98-12.61h17.05c.23 3.26 1.37 5.83 3.41 7.73 2.12 1.89 5 2.84 8.64 2.84 3.71 0 6.63-.88 8.75-2.62a8.85 8.85 0 0 0 3.18-7.04c0-2.35-.72-4.28-2.16-5.8a14.47 14.47 0 0 0-5.45-3.52 74.6 74.6 0 0 0-8.87-2.96c-5.15-1.51-9.36-2.99-12.61-4.43a23.39 23.39 0 0 1-8.3-6.7c-2.27-3.03-3.4-7.05-3.4-12.05 0-4.7 1.17-8.79 3.51-12.27a22.06 22.06 0 0 1 9.9-7.96c4.24-1.9 9.08-2.84 14.54-2.84 8.18 0 14.81 2 19.89 6.02 5.15 3.94 7.99 9.47 8.52 16.6h-17.5a8.85 8.85 0 0 0-3.53-6.7c-2.12-1.83-4.96-2.74-8.52-2.74-3.1 0-5.6.8-7.5 2.39-1.82 1.6-2.73 3.9-2.73 6.93 0 2.12.69 3.9 2.05 5.34a18.37 18.37 0 0 0 5.23 3.41c2.12.84 5.07 1.82 8.86 2.96a92.58 92.58 0 0 1 12.62 4.54 22.64 22.64 0 0 1 8.4 6.82c2.35 3.03 3.53 7.01 3.53 11.93 0 4.25-1.1 8.19-3.3 11.82a23.64 23.64 0 0 1-9.66 8.75c-4.24 2.13-9.28 3.19-15.11 3.19Zm95.84-80.12v12.84h-21.14V390h-15.9v-66.48h-21.14v-12.84h58.18Zm48.43 80.12a41.1 41.1 0 0 1-20.46-5.23 39.15 39.15 0 0 1-14.77-14.44c-3.63-6.2-5.45-13.21-5.45-21.02 0-7.73 1.82-14.66 5.45-20.8a38.9 38.9 0 0 1 14.77-14.54 41.1 41.1 0 0 1 20.46-5.23 40.7 40.7 0 0 1 20.46 5.23 38.09 38.09 0 0 1 14.66 14.55c3.63 6.13 5.45 13.06 5.45 20.8 0 7.8-1.82 14.8-5.45 21.01a38.33 38.33 0 0 1-14.66 14.44 41.1 41.1 0 0 1-20.46 5.23Zm0-14.21c4.77 0 8.98-1.06 12.62-3.18 3.63-2.2 6.47-5.3 8.52-9.32 2.04-4.02 3.07-8.67 3.07-13.98 0-5.3-1.03-9.92-3.07-13.86a21.83 21.83 0 0 0-8.52-9.2 24.58 24.58 0 0 0-12.62-3.19 25.2 25.2 0 0 0-12.73 3.18 21.83 21.83 0 0 0-8.52 9.2c-2.05 3.95-3.07 8.57-3.07 13.87 0 5.3 1.02 9.96 3.07 13.98a22.59 22.59 0 0 0 8.52 9.32 25.19 25.19 0 0 0 12.73 3.18Zm138.89-65.91V390h-15.91v-51.6L701.57 390h-12.05l-21.36-51.6V390h-15.91v-79.32h18.07l25.22 58.98 25.23-58.98h17.96Z" fill="#888"/></g><defs><clipPath id="clip0_708_930"><path fill="#fff" d="M0 0h1000v700H0z"/></clipPath></defs></svg>