<svg width="30" height="30" viewBox="0 0 30 30" xmlns="http://www.w3.org/2000/svg">
    <path fill="none" stroke="#444" stroke-width="2" d="M15,8V2c7.18,0,13,5.82,13,13c0,7.18-5.82,13-13,13 S2,22.18,2,15c0-3.6,1.47-6.86,3.83-9.21" />
    <path fill="#444" d="M17.033,16.06c0,1.021-0.82,1.851-1.84,1.851c-0.57,0-1.08-0.26-1.41-0.66c0,0-0.074-0.107-0.204-0.298 C12.541,15.431,7.883,8.61,7.883,8.61s8.421,5.98,8.461,6.02C16.764,14.96,17.033,15.48,17.033,16.06z" />
    <path fill="#444" d="M15.99,14.62l-0.01,0.01C15.94,14.59,15.99,14.62,15.99,14.62z" />
</svg>
