<svg width="20" height="20" viewBox="0 0 20 20" xmlns="http://www.w3.org/2000/svg">
    <path fill="none" stroke="#444" stroke-width="1.1" d="M10,4.375V1c4.971,0,9,4.028,9,9c0,4.971-4.029,9-9,9 c-4.971,0-9-4.029-9-9c0-2.492,1.018-4.749,2.652-6.375" />
    <path fill="#444" d="M11.407,10.734c0,0.705-0.566,1.279-1.272,1.279c-0.396,0-0.749-0.18-0.978-0.455 c0,0-0.052-0.076-0.142-0.207c-0.719-1.055-3.943-5.775-3.943-5.775s5.829,4.14,5.858,4.168 C11.221,9.972,11.407,10.333,11.407,10.734z" />
    <path fill="#444" d="M10.609,9.766l-0.006,0.006C10.578,9.748,10.609,9.766,10.609,9.766z" />
</svg>
