<?xml version="1.0" encoding="utf-8"?>
<!-- Generator: Adobe Illustrator 21.0.0, SVG Export Plug-In . SVG Version: 6.00 Build 0)  -->
<svg version="1.1" id="Layer_1" xmlns="http://www.w3.org/2000/svg" xmlns:xlink="http://www.w3.org/1999/xlink" x="0px" y="0px"
	 viewBox="0 0 40 40" style="enable-background:new 0 0 40 40;" xml:space="preserve">
<style type="text/css">
	.st0{fill:none;stroke:#ED1C24;stroke-width:2;stroke-miterlimit:10;}
	.st1{fill:#FFFFFF;}
	.st2{fill:#ED1C24;stroke:#ED1C24;stroke-width:0.5;stroke-miterlimit:10;}
</style>
<polygon class="st0" points="8.3,10.2 6.5,37.8 34.4,37.8 33.3,10.2 "/>
<path class="st0" d="M25.5,7.1c0-2.5-2.3-4.6-5.1-4.6s-5.1,2-5.1,4.6v6.3h10.1v-6C25.5,7.3,25.5,7.2,25.5,7.1z"/>
<rect x="16.4" y="12.3" class="st1" width="8.1" height="2.5"/>
<path class="st2" d="M10.4,24.5c0.9,0.5,2.3,1.4,3.5,3c1.7,2.2,2.1,4.5,2.3,5.6c0.8,0,1.6,0,2.4,0c0.5-1.9,1.8-6.1,5.6-9.7
	c2.3-2.2,4.7-3.3,6.3-3.9c-1.4,0-4.2,0.2-7.2,1.8c-3.7,2-5.6,4.9-6.3,6.2c-0.3-0.5-1-1.6-2.4-2.4C12.7,24.1,10.9,24.4,10.4,24.5z"/>
</svg>
