<svg xmlns="http://www.w3.org/2000/svg" viewBox="0 0 64 64" xmlns:v="https://vecta.io/nano"><path d="M55.47 38.54a.54.54 0 0 1 .48-.43L63.56 37a.52.52 0 0 0 .44-.5v-8.96a.51.51 0 0 0-.44-.51L56 25.9c-.38 0-.49-.26-.57-.55a23.29 23.29 0 0 0-2.13-5.16.71.71 0 0 1 .06-.9l4.44-6c.28-.37.29-.59-.07-1l-6-6a.74.74 0 0 0-1-.07l-6 4.47a.69.69 0 0 1-.92 0 13.74 13.74 0 0 0-4.93-2c-.49-.1-.67-.25-.72-.67l-.47-3.11L37 .49a.52.52 0 0 0-.51-.42h-8.92a.51.51 0 0 0-.5.44l-1.1 7.23c-.08.61-.31.87-1 1a11.62 11.62 0 0 0-4.51 1.9.84.84 0 0 1-1.15 0l-6-4.44a.56.56 0 0 0-.89.07l-6.13 6.12a.52.52 0 0 0-.07.83l4.47 6c.2.28.34.49.13.85a22.15 22.15 0 0 0-2.21 5.32.51.51 0 0 1-.46.46L.44 27a.51.51 0 0 0-.44.5v2.62 6.34a.49.49 0 0 0 .44.5l7.7 1.13c.32 0 .39.26.45.53a22.58 22.58 0 0 0 2.1 5.08.86.86 0 0 1-.08 1.08l-4.37 5.88c-.35.44-.28.67.1 1l6 6c.37.4.6.35 1 0l5.87-4.37c.46-.34.67-.23 1.44.23a17.45 17.45 0 0 0 4 1.64c.95.29 1.21.36 1.31 1l1.09 7.23a.52.52 0 0 0 .51.44h8.89a.52.52 0 0 0 .5-.42l1.16-7.48a.63.63 0 0 1 .54-.64 22.39 22.39 0 0 0 5.21-2.16.65.65 0 0 1 .83.07l6 4.48c.35.25.54.33.89 0l6.13-6.14c.33-.32.35-.52.07-.9l-4.47-6c-.16-.21-.34-.39-.15-.73a21.53 21.53 0 0 0 2.24-5.4zM32 42.71A10.71 10.71 0 1 1 42.69 32 10.7 10.7 0 0 1 32 42.71z" fill="#91c33f"/></svg>