<?xml version="1.0" encoding="utf-8"?>
<!-- Generated by IcoMoon.io -->
<!DOCTYPE svg PUBLIC "-//W3C//DTD SVG 1.1//EN" "http://www.w3.org/Graphics/SVG/1.1/DTD/svg11.dtd">
<svg version="1.1" xmlns="http://www.w3.org/2000/svg" xmlns:xlink="http://www.w3.org/1999/xlink" width="41" height="32" viewBox="0 0 41 32">
<path fill="#444" d="M24.839 20.464v0l-0.018-0.018q-0.268-0.321-0.616-0.67t-1.116-1.027-1.67-1.107-1.705-0.429q-0.857 0-1.482 0.384t-0.911 0.964-0.411 1.054-0.125 0.848v0 0q0 0.375 0.125 0.857t0.411 1.054 0.911 0.955 1.482 0.384q0.804 0 1.705-0.429t1.679-1.116 1.107-1.018 0.616-0.67zM37.554 20.464q0-0.375-0.125-0.848t-0.411-1.054-0.911-0.964-1.482-0.384q-0.804 0-1.705 0.429t-1.679 1.116-1.107 1.018-0.616 0.67l-0.018 0.018 0.018 0.018q0.268 0.321 0.616 0.67t1.116 1.027 1.67 1.107 1.705 0.429q0.857 0 1.482-0.384t0.911-0.955 0.411-1.054 0.125-0.857zM41.143 20.411q0 1.232-0.429 2.455t-1.214 2.25-2.071 1.67-2.839 0.643q-1.214 0-2.393-0.429t-2.027-1.045-1.509-1.241-1.063-1.054-0.455-0.429-0.402 0.429-0.973 1.045-1.455 1.241-2.054 1.054-2.563 0.429q-1.161 0-2.205-0.402t-1.723-0.964-1.188-1.188-0.732-1.063-0.223-0.58q0 0.143-0.152 0.473t-0.446 0.813-0.839 0.982-1.232 0.938-1.723 0.714-2.232 0.277q-1.268 0-2.321-0.277t-1.759-0.705-1.259-1.009-0.857-1.134-0.491-1.134-0.25-0.964-0.063-0.652h3.875q0 0.982 0.875 1.92t2.25 0.938q1.411 0 2.402-1.196t0.991-2.643q0-1.429-0.929-2.438t-2.464-1.009q-0.089 0-0.232 0.009t-0.554 0.089-0.768 0.214-0.75 0.438-0.607 0.714h-3.482l1.821-10.411h10.75v3.107h-7.946q-0.482 2.839-0.732 4.429 0.071 0 0.295-0.232t0.563-0.509 1.161-0.509 1.929-0.232 2.036 0.366 1.473 0.884 0.92 1.045 0.554 0.893 0.196 0.366 0.232-0.446 0.652-1.080 1.080-1.277 1.732-1.089 2.375-0.446 2.509 0.446 2.063 1.080 1.491 1.277 1.009 1.089 0.375 0.446q0.036 0 0.393-0.446t1-1.080 1.491-1.277 2.063-1.089 2.5-0.446q1.643 0 2.938 0.625t2.063 1.661 1.161 2.232 0.393 2.446z"></path>
</svg>
