<?xml version="1.0" encoding="utf-8"?>
<!-- Generated by IcoMoon.io -->
<!DOCTYPE svg PUBLIC "-//W3C//DTD SVG 1.1//EN" "http://www.w3.org/Graphics/SVG/1.1/DTD/svg11.dtd">
<svg version="1.1" xmlns="http://www.w3.org/2000/svg" xmlns:xlink="http://www.w3.org/1999/xlink" width="14" height="16" viewBox="0 0 14 16">
<path fill="#000" d="M12.286 8l1.232 1.205q0.268 0.25 0.179 0.625-0.107 0.366-0.464 0.455l-1.679 0.429 0.473 1.661q0.107 0.366-0.17 0.625-0.259 0.277-0.625 0.17l-1.661-0.473-0.429 1.679q-0.089 0.357-0.455 0.464-0.107 0.018-0.17 0.018-0.277 0-0.455-0.196l-1.205-1.232-1.205 1.232q-0.25 0.268-0.625 0.179-0.366-0.098-0.455-0.464l-0.429-1.679-1.661 0.473q-0.366 0.107-0.625-0.17-0.277-0.259-0.17-0.625l0.473-1.661-1.679-0.429q-0.357-0.089-0.464-0.455-0.089-0.375 0.179-0.625l1.232-1.205-1.232-1.205q-0.268-0.25-0.179-0.625 0.107-0.366 0.464-0.455l1.679-0.429-0.473-1.661q-0.107-0.366 0.17-0.625 0.259-0.277 0.625-0.17l1.661 0.473 0.429-1.679q0.089-0.366 0.455-0.455 0.366-0.107 0.625 0.17l1.205 1.241 1.205-1.241q0.259-0.268 0.625-0.17 0.366 0.089 0.455 0.455l0.429 1.679 1.661-0.473q0.366-0.107 0.625 0.17 0.277 0.259 0.17 0.625l-0.473 1.661 1.679 0.429q0.357 0.089 0.464 0.455 0.089 0.375-0.179 0.625z"></path>
</svg>
