<?xml version="1.0" encoding="utf-8"?>
<!-- Generator: Adobe Illustrator 22.0.1, SVG Export Plug-In . SVG Version: 6.00 Build 0)  -->
<svg version="1.1" id="Layer_1" xmlns="http://www.w3.org/2000/svg" xmlns:xlink="http://www.w3.org/1999/xlink" x="0px" y="0px"
	 viewBox="0 0 24 24" style="enable-background:new 0 0 24 24;" xml:space="preserve">
<style type="text/css">
	.st0{fill:#FFFFFF;}
	.st1{fill:none;stroke:#FFFFFF;stroke-width:0.5;stroke-linecap:round;stroke-miterlimit:10;}
</style>
<rect x="10.7" y="12.8" class="st0" width="10.9" height="1.5"/>
<rect x="10.7" y="15.7" class="st0" width="6.5" height="1.5"/>
<polygon class="st0" points="10.7,11.3 21.6,11.3 21.6,9.8 11.1,9.8 10.7,10.8 "/>
<polygon class="st0" points="21.6,6.9 12.4,6.9 11.8,8.4 21.6,8.4 "/>
<path class="st0" d="M8.6,7.2C8.5,7.1,8.3,7.1,8.2,7.1C8,7.1,7.9,7.1,7.8,7.2L5,10H2.8c-0.1,0-0.3,0.1-0.4,0.2
	c-0.1,0.1-0.2,0.2-0.2,0.4v3.3c0,0.1,0.1,0.3,0.2,0.4c0.1,0.1,0.2,0.2,0.4,0.2H5l2.8,2.8c0,0,0.1,0.1,0.1,0.1l0.8-1.9V7.6
	C8.7,7.5,8.7,7.3,8.6,7.2z"/>
<line class="st1" x1="12.5" y1="6.5" x2="7.6" y2="18.2"/>
</svg>
