<?xml version="1.0" encoding="utf-8"?>
<!-- Generator: Adobe Illustrator 22.0.1, SVG Export Plug-In . SVG Version: 6.00 Build 0)  -->
<svg version="1.1" id="Layer_1" xmlns="http://www.w3.org/2000/svg" xmlns:xlink="http://www.w3.org/1999/xlink" x="0px" y="0px"
	 viewBox="0 0 24 24" style="enable-background:new 0 0 24 24;" xml:space="preserve">
<style type="text/css">
	.st0{fill:#FFFFFF;}
</style>
<g>
	<path class="st0" d="M16.4,5.1c-0.1-0.1-0.3-0.2-0.5-0.2S15.5,5,15.4,5.1L11.5,9H8.5C8.3,9,8.1,9.1,7.9,9.2
		C7.8,9.4,7.7,9.6,7.7,9.8v4.5c0,0.2,0.1,0.4,0.2,0.5C8.1,14.9,8.3,15,8.5,15h3.1l3.9,3.9c0.1,0.1,0.3,0.2,0.5,0.2s0.4-0.1,0.5-0.2
		c0.1-0.1,0.2-0.3,0.2-0.5V5.7C16.7,5.5,16.6,5.3,16.4,5.1L16.4,5.1z M16.4,5.1"/>
</g>
</svg>
