<svg width="63" height="61" viewBox="0 0 63 61" xmlns="http://www.w3.org/2000/svg">
    <g fill="none" fill-rule="evenodd">
        <path d="M60.73 51.116h-4.45v-29.46c0-.136 0-1.417-.876-2.36-.404-.405-1.146-.877-2.292-.877h-5.865c-.674 0-1.213.54-1.213 1.214 0 .674.539 1.213 1.213 1.213h5.865c.27 0 .472.068.607.135.135.135.202.472.202.607v29.528h-17.1c-.473 0-.945.337-1.147.741l-.337.81H27.81l-.27-.742c-.135-.472-.606-.81-1.146-.81H9.09V21.724c0-.068 0-.54.202-.742.068-.067.202-.202.607-.202h5.932c.675 0 1.214-.54 1.214-1.214 0-.674-.54-1.213-1.214-1.213H9.9c-1.214 0-1.955.54-2.36.944-.943 1.01-.876 2.36-.876 2.494v29.326h-4.45c-.674 0-1.213.54-1.213 1.213v5.124a2.899 2.899 0 0 0 2.899 2.899h54.977a3 3 0 0 0 3-3v-5.023c.068-.674-.472-1.213-1.146-1.213zm-3.91 6.876H4.127a.7.7 0 0 1-.7-.7v-3.75h22.157l.27.742c.135.472.607.81 1.146.81h9.213c.472 0 .944-.338 1.147-.742l.337-.81h21.887v3.75a.7.7 0 0 1-.7.7H56.82z" stroke="#FFF" fill-opacity=".8" fill="#0F214A" fill-rule="nonzero"/>
        <path d="M45.427 16.666c0-.674-.54-1.213-1.214-1.213-.674 0-1.213.54-1.213 1.213 0 .675.54 1.214 1.213 1.214.675 0 1.214-.54 1.214-1.214z" stroke="#FFF" fill-opacity=".8" fill="#142FBF" fill-rule="nonzero"/>
        <path d="m16.37 9.453 4.922 1.685-.876 3.843v.27c0 1.348.404 2.36 1.213 3.1 0 .675 0 .877.068 1.282 0 .135.067.337.067.606.202 1.753.54 3.371 1.079 4.787.741 1.955 2.09 3.843 3.977 5.393 1.079.944 2.023 1.618 3.573 1.888.337.067.674.067 1.011.067 1.281 0 2.36-.472 3.371-1.146 2.292-1.483 4.045-3.573 5.056-6 .944-2.292 1.349-4.719 1.349-7.55.472-.674.741-1.483.741-2.495v-.27l-.876-3.842 2.09-.674V13.7c0 .674.54 1.214 1.213 1.214.674 0 1.214-.54 1.214-1.214V9.588l.404-.135c.203-.067.337-.135.472-.27a2.116 2.116 0 0 0 0-2.966c-.135-.135-.27-.202-.472-.27L32.213 1.228c-.876-.337-1.483-.27-2.09 0L16.372 5.88c-.202.067-.337.135-.472.27a2.091 2.091 0 0 0-.607 1.483c0 .539.202 1.078.607 1.483.135.135.337.27.472.337zm21.102 14.899c-.81 1.955-2.225 3.64-4.112 4.854-1.08.674-1.753.876-2.697.741-.876-.135-1.416-.539-2.427-1.348-1.55-1.28-2.697-2.831-3.236-4.382-.472-1.28-.742-2.63-.944-4.247 0-.202-.067-.337-.067-.472l6.607 2.36c.134.067.27.067.404.067.135 0 .27 0 .404-.068l7.08-2.561c0 1.887-.338 3.505-1.012 5.056zm.944-7.483-7.281 2.629-7.348-2.63c-.742-.202-.944-.606-1.012-1.482l.81-3.506 6.269 2.157v2.764c0 .674.54 1.214 1.213 1.214.675 0 1.214-.54 1.214-1.214v-2.764l6.27-2.157.809 3.506c.067.674-.135 1.146-.944 1.483zM30.866 3.52c.269-.067.269-.067.471 0l8.63 2.967H32.01c-.674 0-1.213.539-1.213 1.213s.54 1.214 1.213 1.214h8.023l-8.697 2.966c-.067.067-.202.067-.472 0L18.663 7.7l12.202-4.18zM48.865 40.801c.944 3.101 1.079 7.349 1.079 7.349 0 .674.54 1.146 1.213 1.146h.068c.674 0 1.213-.607 1.146-1.281 0-.203-.135-4.585-1.146-7.955-1.146-3.776-7.82-5.865-10.113-6.472-2.292-.607-2.804-.607-5.035-.405-1.127.102-2.911.472-4.841.472-1.44 0-2.587-.27-4.089-.472-1.502-.202-3.023-.202-5.45.472-2.427.674-8.764 2.764-9.843 6.405-1.011 3.438-1.146 7.82-1.146 7.955 0 .674.472 1.213 1.146 1.28h.067c.675 0 1.214-.539 1.214-1.145 0-.068.135-4.248 1.078-7.349.607-2.09 5.124-3.91 8.225-4.786.944-.267 2.543-.603 4.41-.346 1.168.162 2.624.565 4.32.565 2.173 0 3.62-.385 5.144-.565 1.79-.211 3.43.12 4.261.346 2.966.809 7.685 2.696 8.292 4.786z" stroke="#FFF" fill-opacity=".8" fill="#142FBF" fill-rule="nonzero"/>
        <path d="m40.044 15.31-.983-4.281-7.378 2.538v3.223c0 .32-.252.57-.57.57a.566.566 0 0 1-.572-.57v-3.223l-7.378-2.538-.992 4.297.008.098c.09 1.174.48 1.78 1.483 2.054l7.518 2.692 7.499-2.708c1.052-.437 1.466-1.144 1.365-2.152z" fill-opacity=".2" fill="#142FBF" fill-rule="nonzero"/>
        <path d="m30.716 2.871-14.03 4.804 13.977 4.788.13.03c.375.086.631.086.862-.065l12.261-4.183H32.018a.566.566 0 0 1-.57-.57c0-.32.25-.57.57-.57H43.82l-12.274-4.22-.157-.05a.88.88 0 0 0-.179-.03c-.16-.014-.224-.002-.495.066z" fill-opacity=".2" fill="#142FBF" fill-rule="nonzero"/>
        <path stroke-opacity=".8" stroke="#142FBF" stroke-width="1.5" stroke-linecap="round" d="M35.5 36.5 31 40.352 26.5 36.5"/>
    </g>
</svg>
