<svg width="77" height="64" viewBox="0 0 77 64" xmlns="http://www.w3.org/2000/svg" xmlns:xlink="http://www.w3.org/1999/xlink">
    <defs>
        <circle id="a" cx="8" cy="16" r="3"/>
        <circle id="b" cx="32" cy="11" r="3"/>
        <circle id="c" cx="19" cy="8" r="3"/>
        <path d="M20.766 28.303 15.1 23.895l-.263.031c-3.058.366-5.002 1.44-6.167 3.087-.287.405-.516.829-.72 1.301-.037.09-.074.177-.11.27l-.16.42-.124.337a3.335 3.335 0 0 1-3.152 2.167c-.446 0-.918-.117-1.488-.377L1.6 30.533l.43 1.378c1.322 4.227 4.238 6.799 9.064 6.799 3.4 0 6.035-1.003 7.785-2.998 1.705-1.945 2.291-4.325 1.92-7.147l-.034-.262z" id="d"/>
    </defs>
    <g transform="translate(1 1)" fill="none" fill-rule="evenodd">
        <path fill="#FFF" d="M13 16h52v42H13z"/>
        <ellipse stroke="#142FBF" stroke-width="1.5" fill="#FFF" cx="23" cy="18.5" rx="23" ry="18.5"/>
        <ellipse stroke="#142FBF" stroke-width="1.5" fill="#CAD2E8" transform="rotate(15 19.677 27.161)" cx="19.677" cy="27.161" rx="9.677" ry="5.161"/>
        <g transform="rotate(-180 8 16)">
            <use fill="#FFF" xlink:href="#a"/>
            <circle stroke="#142FBF" stroke-width="1.5" fill="#DCE0F6" cx="8" cy="16" r="3.75"/>
        </g>
        <circle stroke="#32A2D3" stroke-width="1.5" fill="#D1E9FF" transform="rotate(-180 25 27)" cx="25" cy="27" r="3.75"/>
        <g transform="rotate(-180 32 11)">
            <use fill="#FFF" xlink:href="#b"/>
            <circle stroke="#142FBF" stroke-width="1.5" fill="#DCE0F6" cx="32" cy="11" r="3.75"/>
        </g>
        <g transform="rotate(-180 19 8)">
            <use fill="#FFF" xlink:href="#c"/>
            <circle stroke="#142FBF" stroke-width="1.5" fill="#DCE0F6" cx="19" cy="8" r="3.75"/>
        </g>
        <rect stroke="#FFF" fill="#FFF" x="13" y="15.2" width="52" height="42" rx="1"/>
        <g stroke-width="1.5" transform="translate(13 15)">
            <rect stroke-opacity=".8" stroke="#0F214A" stroke-linecap="round" width="52" height="43" rx="1"/>
            <path stroke="#FFF" stroke-linecap="square" d="M3.571 13.238H48.81"/>
        </g>
        <path d="M19.54 54.5v-.576l-.743-.086-.121-.15.708-1.993h2.575l.708 2.004-.086.15-.743.075v.576h3.185v-.576l-.697-.12-2.713-7.304h-1.238l-2.667 7.315-.708.109v.576h2.54zm2.148-3.467H19.61l1.025-2.915 1.054 2.915z" fill="#0F214A" fill-opacity=".8" fill-rule="nonzero"/>
        <g transform="translate(15.78 23)" stroke="#0F214A" stroke-linecap="round" stroke-opacity=".8" stroke-width="1.5">
            <rect x=".779" width="44" height="20" rx="1" transform="translate(.442)"/>
            <circle cx="10.221" cy="9" r="4"/>
            <path d="M26.442 7.75 38.22 20h0-25L25 7.75a1 1 0 0 1 1.44 0z"/>
        </g>
        <path stroke-opacity=".8" stroke="#0F214A" stroke-width="1.5" stroke-linecap="round" d="M31 19h30M17 19h7M27 48h30M27 52h9.34"/>
        <path fill="#FFF" d="M44 46h15v4H44zM35 50h15v4H35z"/>
        <g stroke-linecap="round" fill-rule="nonzero">
            <path d="M72.062 23c2.127 0 3.904 1.557 3.904 3.521 0 1.057-.357 2.131-1.097 3.573l-.786 1.46c-8.3 15.386-11.322 19.187-15.369 19.686l-.645.08.085.644c.316 2.402-.358 5.11-1.945 7.162C54.31 61.585 51.258 63 47.095 63l-.215-.002c-6.56-.099-10.357-4.745-10.857-11.922L36 50.707l.96.702.408.287.168.117c1.34.92 2.234 1.404 2.867 1.404.877 0 1.635-.515 1.945-1.335 1.495-3.939 3.919-5.71 7.564-6.145l.664-.08-.103-.66c-.206-1.317-.192-2.158.07-2.967.43-1.322 1.588-2.72 4.4-5.306l.478-.433c2.057-1.843 10.374-9.11 13.69-12.072.859-.772 1.91-1.219 2.95-1.219z" fill="#142FBF"/>
            <g transform="translate(36 23)">
                <use fill="#FFF" xlink:href="#d"/>
                <use fill-opacity=".2" fill="#142FBF" xlink:href="#d"/>
            </g>
            <path d="M72.062 24.29c-.669 0-1.372.288-1.97.785l-8.81 7.787C57.788 35.966 54.4 39 53.62 39.793l-.275.29c-1.796 1.912-1.922 2.584-1.493 5.39l.067.427 5.412 4.21.265-.033c4.642-.572 6.982-3.51 16.141-20.603.62-1.21.939-2.093.939-2.953 0-1.293-1.26-2.23-2.614-2.23z" fill="#FFF"/>
        </g>
    </g>
</svg>
