<?xml version="1.0" encoding="utf-8"?>
<!-- Generator: Adobe Illustrator 19.2.1, SVG Export Plug-In . SVG Version: 6.00 Build 0)  -->
<svg version="1.1" id="Capa_1" xmlns="http://www.w3.org/2000/svg" xmlns:xlink="http://www.w3.org/1999/xlink" x="0px" y="0px"
	 viewBox="0 0 58.3 58.3" style="enable-background:new 0 0 58.3 58.3;" xml:space="preserve">
<style type="text/css">
	.st0{fill:#393939;}
</style>
<g>
	<path class="st0" d="M56.3,35.7l-2.8-2.8c-1.1-1.1-3.1-1.1-4.2,0L33.8,48.3L31.7,56l-0.5,0.5c-0.4,0.4-0.4,1,0,1.4l0,0l0,0
		c0.2,0.2,0.4,0.3,0.7,0.3c0.3,0,0.5-0.1,0.7-0.3l0.5-0.5l7.8-2.1l15.4-15.4C57.4,38.8,57.4,36.9,56.3,35.7z M36.1,48.8l10.2-10.2
		l4.2,4.2L40.4,53L36.1,48.8z M35.2,50.7l3.2,3.2L34,55.1L35.2,50.7z M54.8,38.5L52,41.4l-4.2-4.2l2.8-2.8c0.4-0.4,1-0.4,1.4,0
		l2.8,2.8C55.2,37.5,55.2,38.1,54.8,38.5z"/>
	<path class="st0" d="M8.1,36h26c0.6,0,1-0.4,1-1s-0.4-1-1-1h-26c-0.6,0-1,0.4-1,1S7.6,36,8.1,36z"/>
	<path class="st0" d="M30.1,40h-22c-0.6,0-1,0.4-1,1s0.4,1,1,1h22c0.6,0,1-0.4,1-1S30.7,40,30.1,40z"/>
	<path class="st0" d="M8.1,18h13c0.6,0,1-0.4,1-1s-0.4-1-1-1h-13c-0.6,0-1,0.4-1,1S7.6,18,8.1,18z"/>
	<path class="st0" d="M21.1,48c0.6,0,1-0.4,1-1s-0.4-1-1-1h-13c-0.6,0-1,0.4-1,1s0.4,1,1,1H21.1z"/>
	<path class="st0" d="M37.1,22h-29c-0.6,0-1,0.4-1,1s0.4,1,1,1h29c0.6,0,1-0.4,1-1S37.7,22,37.1,22z"/>
	<path class="st0" d="M8.1,30h14c0.6,0,1-0.4,1-1s-0.4-1-1-1h-14c-0.6,0-1,0.4-1,1S7.6,30,8.1,30z"/>
	<path class="st0" d="M38.1,29c0-0.6-0.4-1-1-1h-7c-0.6,0-1,0.4-1,1s0.4,1,1,1h7C37.7,30,38.1,29.6,38.1,29z"/>
	<path class="st0" d="M26.8,29.7c0.2-0.2,0.3-0.5,0.3-0.7s-0.1-0.5-0.3-0.7c-0.4-0.4-1-0.4-1.4,0c-0.2,0.2-0.3,0.5-0.3,0.7
		c0,0.3,0.1,0.5,0.3,0.7c0.2,0.2,0.5,0.3,0.7,0.3C26.4,30,26.7,29.9,26.8,29.7z"/>
	<path class="st0" d="M26.1,56h-23V8h7v2c0,0.6,0.4,1,1,1h23c0.6,0,1-0.4,1-1V8h7v22c0,0.6,0.4,1,1,1s1-0.4,1-1V7c0-0.6-0.4-1-1-1
		h-8V4c0-0.6-0.4-1-1-1h-6V1c0-0.6-0.4-1-1-1h-9c-0.6,0-1,0.4-1,1v2h-6c-0.6,0-1,0.4-1,1v2h-8c-0.6,0-1,0.4-1,1v50c0,0.6,0.4,1,1,1
		h24c0.6,0,1-0.4,1-1S26.7,56,26.1,56z M19.1,2h7v2v2h-7V4V2z M12.1,5h5v2c0,0.6,0.4,1,1,1h9c0.6,0,1-0.4,1-1V5h5v2v2h-21V7L12.1,5z
		"/>
</g>
</svg>
