<svg width="15" height="22" viewBox="0 0 15 22" xmlns="http://www.w3.org/2000/svg">
    <g transform="translate(1 1)" stroke="#142FBF" fill="none" fill-rule="evenodd">
        <path d="M13.364 5.916c0 2.946-2.014 4.12-3.26 4.842-.234.136-.441.256-.6.368.008.778.013 1.455-.08 1.96-.072.392-.212.67-.418.75-.145.057-.931.055-1.781.047-.302-.002-.611-.005-.902-.005-.245 0-.503 0-.755.002-.908.004-1.74-.011-1.801-.057-.454-.343-.542-1.956-.542-2.573v-.509c0-1.04.303-1.784.743-2.338.641-.807 1.579-1.207 2.306-1.513.319-.135.596-.25.782-.379.175-.421.118-.572-.016-.67a1.106 1.106 0 0 0-.606-.199c-.632 0-.871.185-1.63 1.145a1.873 1.873 0 0 1-2.606.333L.643 5.94c-.397-.3-.641-.73-.717-1.188A1.87 1.87 0 0 1 .22 3.397C1.778 1.084 3.813-.1 6.673-.1c1.71 0 3.442.692 4.714 1.834 1.19 1.067 1.977 2.528 1.977 4.182zM8.12 12.02v-1.154c0-.242.112-.448.306-.638.231-.227.584-.433.982-.662.654-.378 1.435-.825 1.964-1.58.364-.518.608-1.182.608-2.069 0-1.262-.631-2.377-1.567-3.196-1.02-.893-2.403-1.436-3.74-1.436-2.445 0-4.016 1.017-5.124 3.582l2.218 1.001c.816-1.026 1.408-1.61 2.667-1.61.536 0 1.142.208 1.584.596.377.33.636.791.636 1.364 0 .506-.17.865-.44 1.144-.35.363-.875.586-1.425.815-.612.255-1.253.519-1.682 1.027-.302.358-.495.84-.498 1.523l.562 1.853 2.95-.56z" stroke-width=".2" fill="#142FBF" fill-rule="nonzero"/>
        <circle stroke-width="1.5" cx="6.316" cy="17.895" r="2.105"/>
    </g>
</svg>
