<?xml version="1.0" encoding="iso-8859-1"?>
<!-- Generator: Adobe Illustrator 18.1.1, SVG Export Plug-In . SVG Version: 6.00 Build 0)  -->
<svg version="1.1" id="Capa_1" xmlns="http://www.w3.org/2000/svg" xmlns:xlink="http://www.w3.org/1999/xlink" x="0px" y="0px"
	 viewBox="0 0 479.4 479.4" style="enable-background:new 0 0 479.4 479.4;" xml:space="preserve">
<g>
	<g>
		<path d="M75.367,322.15c3.4,3.4,7.65,5.1,11.9,5.1s8.783-1.7,11.9-5.1c6.517-6.517,6.517-17.283,0-24.083L58.083,256.7H222.7
			v164.617l-43.633-43.633c-6.517-6.517-17.283-6.517-24.083,0c-6.517,6.517-6.517,17.283,0,24.083l72.533,72.533
			c3.117,3.117,7.65,5.1,11.9,5.1s8.783-1.7,11.9-5.1l71.4-71.4c6.517-6.517,6.517-17.283,0-24.083
			c-6.517-6.517-17.283-6.517-24.083,0l-41.933,42.5V256.7h164.617l-42.783,43.067c-6.517,6.517-6.517,17.283,0,24.083
			c3.4,3.4,7.65,5.1,11.9,5.1s8.783-1.7,11.9-5.1l71.967-71.967c3.117-3.117,5.1-7.65,5.1-11.9c0-4.533-1.7-8.783-5.1-11.9
			L406.017,159.8c-6.517-6.517-17.283-6.517-24.083,0c-6.517,6.517-6.517,17.283,0,24.083l39.383,39.383H256.7V58.083l45.617,45.617
			c3.4,3.4,7.65,5.1,11.9,5.1s8.783-1.7,11.9-5.1c6.517-6.517,6.517-17.283,0-24.083L251.6,5.1c-3.117-3.117-7.65-5.1-11.9-5.1
			c-4.533,0-8.783,1.7-11.9,5.1l-71.967,71.967c-6.517,6.517-6.517,17.283,0,24.083c6.517,6.517,17.283,6.517,24.083,0L222.7,58.083
			V222.7H58.083l44.483-44.483c6.517-6.517,6.517-17.283,0-24.083c-6.517-6.517-17.283-6.517-24.083,0L5.1,227.517
			c-3.117,3.117-5.1,7.65-5.1,11.9s1.7,8.783,5.1,11.9L75.367,322.15z"/>
	</g>
</g>
<g>
</g>
<g>
</g>
<g>
</g>
<g>
</g>
<g>
</g>
<g>
</g>
<g>
</g>
<g>
</g>
<g>
</g>
<g>
</g>
<g>
</g>
<g>
</g>
<g>
</g>
<g>
</g>
<g>
</g>
</svg>
