<svg width="58" height="63" viewBox="0 0 58 63" xmlns="http://www.w3.org/2000/svg">
    <g fill="none" fill-rule="evenodd">
        <path fill-opacity=".3" fill="#142FBF" fill-rule="nonzero" d="m28.95 41.317-8.238 7.239-11.327-5.388v9.525L28.95 62l19.566-9.307v-9.525l-11.328 5.388z"/>
        <path fill="#FFF" fill-rule="nonzero" d="m1 39.41 19.669 9.174 8.281-7.136V40.43L9.282 31.255 1 38.39z"/>
        <path stroke="#3F4D6E" stroke-width="1.3" stroke-linecap="round" stroke-linejoin="round" d="m1 39.41 19.669 9.174 8.281-7.136V40.43L9.282 31.255 1 38.39z"/>
        <path stroke="#3F4D6E" stroke-width="1.3" stroke-linecap="round" stroke-linejoin="round" d="M9.385 43.55v9.056L28.95 62l19.566-9.394v-9.612"/>
        <path fill="#FFF" fill-rule="nonzero" d="m56.9 39.41-19.668 9.174-8.282-7.136V40.43l19.669-9.174L56.9 38.39z"/>
        <path d="m56.9 39.41-19.668 9.174-8.282-7.136V40.43l19.669-9.174L56.9 38.39v1.02zM16.653 27.915l-7.27 3.339L1 24.145V23.13l9.09-4.173m31.158 8.793 7.41 3.505 8.243-7.2v-1.029l-9.787-4.628M28.95 41.317V62" stroke="#3F4D6E" stroke-width="1.3" stroke-linecap="round" stroke-linejoin="round"/>
        <g transform="rotate(20 -7.946 89.615)" stroke="#4359CC" stroke-width="1.4">
            <rect fill="#FFF" width="17.888" height="24.596" rx="1"/>
            <path stroke-linecap="round" stroke-linejoin="round" d="M4.472 14.161h8.944M4.472 17.142h8.944M4.472 20.124h8.944"/>
            <rect x="4.472" y="4.472" width="8.944" height="5.963" rx="1"/>
        </g>
        <g fill-rule="nonzero">
            <path d="m33.321 21.956.149-.053a.575.575 0 0 1 .734.342l.13.36a.575.575 0 0 1-.342.734l-15.979 5.816a3.82 3.82 0 0 1-4.898-2.284l-5.75-15.8a3.82 3.82 0 0 1 2.283-4.898L25.09.553a1.144 1.144 0 0 1 1.47.685l6.012 16.519c.163.448.025.936-.307 1.24.102.78.548 2.118 1.057 2.96z" fill="#DCE0F6"/>
            <path d="m24.65 8.846-7.54 2.745a.575.575 0 0 1-.735-.343l-.13-.36a.575.575 0 0 1 .342-.734l7.541-2.744a.575.575 0 0 1 .735.342l.13.36a.575.575 0 0 1-.342.734zm1.389 2.138-.13-.36a.575.575 0 0 0-.735-.342l-7.541 2.745a.575.575 0 0 0-.343.735l.13.359c.109.296.44.45.736.342l7.54-2.744a.575.575 0 0 0 .343-.735zm7.282 10.972.149-.053a.575.575 0 0 1 .734.342l.13.36a.575.575 0 0 1-.342.734l-15.979 5.816a3.82 3.82 0 0 1-4.898-2.284l-5.75-15.8a3.82 3.82 0 0 1 2.283-4.898L25.09.553a1.144 1.144 0 0 1 1.47.685l6.012 16.519c.163.448.025.936-.307 1.24.102.78.548 2.118 1.057 2.96zm-15.245.67 12.927-4.706-5.75-15.8-12.927 4.705 5.75 15.8zm-4.047 2.286a3.822 3.822 0 0 1 1.893-1.503l.718-.26-5.75-15.8-.719.26a2.293 2.293 0 0 0-1.37 2.94l5.228 14.363zm18.018-2.492A10.92 10.92 0 0 1 31 19.548l-14.556 5.298c-2.873 1.045-1.828 3.918 1.045 2.873l14.557-5.299z" fill="#4359CC"/>
        </g>
        <path stroke="#3F4D6E" stroke-width="1.3" stroke-linecap="square" d="m33.562 38.214 9.363-4.356"/>
        <path fill="#FFF" d="m35.666 38.214 8.197-3.781-.658 6.996h-6.429z"/>
    </g>
</svg>
