<svg width="20" height="22" viewBox="0 0 20 22" xmlns="http://www.w3.org/2000/svg">
    <g stroke="#142FBF" stroke-width="1.3" fill="none" fill-rule="evenodd" stroke-linecap="round" stroke-linejoin="round">
        <path d="M17.326 12.42a7.3 7.3 0 0 0 0-2.84l1.642-1.353c.457-.376.574-1.029.279-1.542l-.79-1.37a1.211 1.211 0 0 0-1.473-.53l-1.998.75a7.256 7.256 0 0 0-2.447-1.417l-.35-2.105A1.21 1.21 0 0 0 10.994 1h-1.58A1.21 1.21 0 0 0 8.22 2.013l-.35 2.105c-.91.31-1.739.796-2.447 1.417l-1.998-.75a1.21 1.21 0 0 0-1.473.53l-.79 1.37a1.214 1.214 0 0 0 .278 1.542l1.643 1.354a7.224 7.224 0 0 0 0 2.838L1.44 13.773a1.214 1.214 0 0 0-.278 1.542l.79 1.37c.296.513.92.737 1.473.53l1.998-.75a7.247 7.247 0 0 0 2.447 1.417l.35 2.105A1.21 1.21 0 0 0 9.414 21h1.58a1.21 1.21 0 0 0 1.195-1.013l.35-2.105a7.27 7.27 0 0 0 2.447-1.417l1.998.75a1.211 1.211 0 0 0 1.473-.53l.79-1.37a1.213 1.213 0 0 0-.28-1.542l-1.641-1.354z"/>
        <path d="M12.738 11a2.727 2.727 0 1 1-5.454 0 2.727 2.727 0 0 1 5.454 0z"/>
    </g>
</svg>
