<?xml version="1.0" encoding="utf-8"?>
<!-- Generator: Adobe Illustrator 19.2.1, SVG Export Plug-In . SVG Version: 6.00 Build 0)  -->
<svg version="1.1" id="Layer_1" xmlns="http://www.w3.org/2000/svg" xmlns:xlink="http://www.w3.org/1999/xlink" x="0px" y="0px"
	 viewBox="0 0 485.8 485.8" style="enable-background:new 0 0 485.8 485.8;" xml:space="preserve">
<g>
	<g>
		<path d="M182,424c-1.7,0-3.5-0.3-5.2-0.9c-7.9-2.9-11.9-11.6-9.1-19.4L289.1,70c2.9-7.9,11.5-11.9,19.4-9.1
			c7.9,2.9,11.9,11.6,9.1,19.4L196.2,414C194,420.2,188.2,424,182,424"/>
		<path d="M106.2,424c-33.5,0-60.7-27.2-60.7-60.7v-69.6L4.4,252.7c-5.9-5.9-5.9-15.5,0-21.4l41.1-41.1v-69.6
			c0-33.5,27.2-60.7,60.7-60.7c8.4,0,15.2,6.8,15.2,15.2s-6.8,15.2-15.2,15.2c-16.7,0-30.3,13.6-30.3,30.3v75.8
			c0,4-1.6,7.9-4.4,10.7L36.6,242l34.8,34.8c2.9,2.8,4.4,6.7,4.4,10.7v75.8c0,16.7,13.6,30.3,30.3,30.3c8.4,0,15.2,6.8,15.2,15.2
			C121.3,417.2,114.6,424,106.2,424"/>
		<path d="M379.2,424c-8.4,0-15.2-6.8-15.2-15.2c0-8.4,6.8-15.2,15.2-15.2c16.7,0,30.3-13.6,30.3-30.3v-75.8c0-4,1.6-7.9,4.5-10.7
			l34.9-34.8l-34.9-34.8c-2.9-2.8-4.5-6.7-4.5-10.7v-75.8c0-16.7-13.6-30.3-30.3-30.3c-8.4,0-15.2-6.8-15.2-15.2S370.8,60,379.2,60
			c33.5,0,60.7,27.2,60.7,60.7v69.5l41.2,41.1c2.9,2.8,4.5,6.7,4.5,10.7c0,4-1.6,7.9-4.5,10.7l-41.2,41.1v69.5
			C439.8,396.8,412.6,424,379.2,424"/>
	</g>
</g>
</svg>
