<?xml version="1.0" encoding="utf-8"?>
<!-- Generator: Adobe Illustrator 19.2.1, SVG Export Plug-In . SVG Version: 6.00 Build 0)  -->
<svg version="1.1" id="Layer_1" xmlns="http://www.w3.org/2000/svg" xmlns:xlink="http://www.w3.org/1999/xlink" x="0px" y="0px"
	 viewBox="0 0 485.8 485.8" style="enable-background:new 0 0 485.8 485.8;" xml:space="preserve">
<g>
	<path d="M355.2,124.6c-6.4-7.6-17.8-8.5-25.4-2.1l-71.1,60.3l25.9,25.3l68.5-58.1C360.7,143.6,361.6,132.2,355.2,124.6z"/>
	<path d="M472.2,13.6c-13.4-13.4-32.5-17.2-50-10L178.2,104l27.9,27.3l229.6-94.5c5.6-2.3,9.5,0.8,10.9,2.2
		c1.4,1.4,4.5,5.3,2.2,10.9l-93.6,227.4l27.8,27.2l99.1-240.9C489.4,46.1,485.6,27,472.2,13.6z"/>
	<path d="M38.5,16.2c-7-7-18.4-7-25.5,0s-7,18.4,0,25.5l93.7,91.7l-78.2,32.2C10.6,173-0.6,190.2,0,209.5
		c0.4,19.3,12.6,35.8,30.9,42.1l134.6,46c6,2.1,12.6,0.8,17.5-3.3l47.2-40.1l95.9,93.8l-39.3,95.5c-2.4,5.8-7.5,6.2-9.5,6.2
		c-2.1-0.1-7.1-0.8-9.1-6.8l-36.7-107.5c-3.2-9.4-13.4-14.4-22.9-11.2c-9.4,3.2-14.4,13.4-11.2,22.9l36.7,107.5
		c6.3,18.3,22.8,30.5,42.1,31.1c0.5,0,1,0,1.5,0c18.7,0,35.3-11.1,42.5-28.5l33.7-82l97.3,95.2c7,7,18.4,7,25.5,0c7-7,7-18.4,0-25.5
		L38.5,16.2z M167.5,260.2L42.6,217.5c-5.9-2-6.7-7.1-6.8-9.1c-0.1-2.1,0.4-7.2,6.2-9.5l92.7-38.2l69.7,68.2L167.5,260.2z"/>
</g>
</svg>
