<?xml version="1.0" encoding="utf-8"?>
<!-- Generator: Adobe Illustrator 22.0.1, SVG Export Plug-In . SVG Version: 6.00 Build 0)  -->
<svg version="1.1" id="Layer_1" xmlns="http://www.w3.org/2000/svg" xmlns:xlink="http://www.w3.org/1999/xlink" x="0px" y="0px"
	 viewBox="0 0 24 24" style="enable-background:new 0 0 24 24;" xml:space="preserve">
<style type="text/css">
	.st0{fill:none;stroke:#FFFFFF;stroke-width:0.5;stroke-linecap:round;stroke-miterlimit:10;}
	.st1{fill:#FFFFFF;}
</style>
<line class="st0" x1="17.1" y1="6.8" x2="12.6" y2="17.3"/>
<path class="st1" d="M11.4,11.1V9c0-0.4-0.3-0.6-0.6-0.6H3.5C3.2,8.3,2.9,8.6,2.9,9v6.1c0,0.3,0.3,0.6,0.6,0.6h7.3
	c0.3,0,0.6-0.3,0.6-0.6v-2.1l2.2,2.2l0.2-0.6V8.6L11.4,11.1z"/>
<path class="st1" d="M21.2,7.5c-0.1-0.1-0.2-0.1-0.3-0.1c-0.1,0-0.2,0-0.3,0.1l-2.6,2.6h-2c-0.1,0-0.1,0-0.2,0l-0.3,0.8v2.6
	c0,0.1,0,0.2,0.1,0.3c0.1,0.1,0.2,0.1,0.3,0.1h2l2.6,2.6c0.1,0.1,0.2,0.1,0.3,0.1c0.1,0,0.2,0,0.3-0.1c0.1-0.1,0.1-0.2,0.1-0.3V7.9
	C21.3,7.8,21.3,7.6,21.2,7.5z"/>
</svg>
