<?xml version="1.0" encoding="UTF-8"?>
<svg width="16px" height="16px" viewBox="0 0 16 16" version="1.1" xmlns="http://www.w3.org/2000/svg" xmlns:xlink="http://www.w3.org/1999/xlink">
    <!-- Generator: Sketch 53.2 (72643) - https://sketchapp.com -->
    <title>buy (1)</title>
    <desc>Created with Sketch.</desc>
    <g id="Page-1" stroke="none" stroke-width="1" fill="none" fill-rule="evenodd">
        <g id="buy-(1)" fill="#2B87DA" fill-rule="nonzero">
            <path d="M7.86607033,6.20408163 C7.90029002,6.20408163 7.9354182,6.19802904 7.96963789,6.18562123 C8.12710905,6.12872687 8.20796443,5.95471487 8.15072972,5.79795275 C8.00113213,5.3869818 8.39783831,5.22900916 8.44386834,5.2120619 C8.48959554,5.19571991 8.89538659,5.06165501 9.04528702,5.47232333 C9.1022189,5.62969071 9.27664849,5.71049281 9.43351398,5.65329582 C9.59037948,5.59609883 9.67153769,5.42208683 9.61430298,5.26532471 C9.37718776,4.61467114 8.74124656,4.45942217 8.23643037,4.64342094 C7.73161419,4.82711709 7.34459854,5.35369254 7.58171376,6.00464875 C7.62622964,6.12781898 7.74251604,6.20408163 7.86607033,6.20408163 L7.86607033,6.20408163 Z" id="Path"></path>
            <path d="M15.055568,12.7094113 C15.0978674,12.7265785 15.1418064,12.7346939 15.1850895,12.7346939 C15.3119878,12.7346939 15.4329839,12.6638403 15.486432,12.545855 L15.6467764,12.1903384 C15.7182592,12.0317761 15.6412021,11.8482434 15.4749554,11.7805111 C15.3087088,11.7124666 15.1159021,11.7858173 15.0444193,11.9440674 L14.8840749,12.2992719 C14.8122643,12.457522 14.8889935,12.6410547 15.055568,12.7094113 Z" id="Path"></path>
            <path d="M9.41028372,4.26836889 C9.46677765,4.35877125 9.56341201,4.40816327 9.66212772,4.40816327 C9.71654029,4.40816327 9.7712502,4.39319599 9.82031072,4.36206405 C9.95946419,4.27375711 10.000794,4.0890609 9.91337704,3.94896717 L8.54889995,1.77212624 C8.46148303,1.63233186 8.27743175,1.59102218 8.13887295,1.67843108 C7.99971948,1.76673802 7.95838971,1.95143423 8.04580664,2.09152796 L9.41028372,4.26836889 Z" id="Path"></path>
            <path d="M3.72790541,4.40816327 C4.19307042,4.40816327 4.57142857,4.02950578 4.57142857,3.5646401 C4.57142857,3.39910841 4.43762628,3.26530612 4.27209459,3.26530612 C4.1065629,3.26530612 3.97276061,3.39910841 3.97276061,3.5646401 C3.97276061,3.69963973 3.86290504,3.8094953 3.72790541,3.8094953 C3.56237372,3.8094953 3.42857143,3.94329759 3.42857143,4.10882928 C3.42857143,4.27406164 3.56237372,4.40816327 3.72790541,4.40816327 Z" id="Path"></path>
            <path d="M10.5212451,6.43910176 C10.2611996,6.53355487 10.048132,6.70974626 9.92144316,6.93528334 C9.77626623,7.19381846 9.75626273,7.50109381 9.86537274,7.80080081 C9.90992599,7.92371095 10.02631,8 10.149968,8 C10.1842164,8 10.2193741,7.99394531 10.2536225,7.98153321 C10.4112259,7.92461915 10.4921491,7.75054691 10.4348664,7.59373052 C10.2851432,7.18261729 10.6824855,7.02458997 10.7285541,7.00763684 C10.8513029,6.96343763 10.9807195,6.96101575 11.0858894,7.00037122 C11.1989395,7.04305676 11.2813782,7.13296886 11.3304777,7.26829111 C11.3874573,7.42541023 11.5620334,7.5062403 11.7187274,7.44932624 C11.8763308,7.39241219 11.957254,7.21833994 11.8999713,7.06152355 C11.662657,6.410342 11.026182,6.25564475 10.5212451,6.43910176 Z" id="Path"></path>
            <path d="M12.9639895,7.96844293 C13.0091106,8.08847007 13.1269781,8.16326531 13.2522123,8.16326531 C13.2868973,8.16326531 13.3225031,8.15735264 13.357188,8.14523167 C13.5168003,8.08935697 13.598755,7.91966343 13.5407421,7.76622972 C13.501146,7.66157551 13.5048294,7.5675641 13.5514852,7.4877431 C13.5959925,7.41176533 13.6782542,7.34790852 13.7777049,7.31302379 C13.8375595,7.29203382 14.1441991,7.20245692 14.2617597,7.5134632 C14.3194656,7.66719254 14.4962669,7.74612665 14.6549583,7.69054758 C14.8145705,7.63467287 14.8965252,7.46497933 14.8385123,7.31154562 C14.7381408,7.04547561 14.5410811,6.84710563 14.2844737,6.75368549 C14.0616305,6.67268195 13.8065579,6.67386448 13.5677534,6.75782436 C13.1021154,6.92071833 12.7451365,7.38929719 12.9639895,7.96844293 L12.9639895,7.96844293 Z" id="Path"></path>
            <path d="M9.21324816,13.5188008 C9.25516193,13.5406858 9.29938818,13.5510204 9.3430363,13.5510204 C9.44883243,13.5510204 9.55087077,13.4899248 9.6017454,13.3838433 C9.6734324,13.2339919 9.61619843,13.051009 9.47369163,12.9756274 C9.19995138,12.8303353 8.99182786,12.5841291 8.88718798,12.2819945 C8.83284461,12.1239362 8.66750204,12.0427794 8.51690154,12.0999235 C8.36687917,12.1570677 8.28941097,12.3315397 8.3440434,12.4892941 C8.49869073,12.9379365 8.80769635,13.3039023 9.21324816,13.5188008 L9.21324816,13.5188008 Z" id="Path"></path>
            <path d="M10.4669781,14.1753501 C10.5105685,14.2936365 10.6244373,14.3673469 10.745423,14.3673469 C10.7789313,14.3673469 10.8133291,14.36152 10.8468374,14.3492835 L15.1516133,12.8101042 C15.3058107,12.7553312 15.3849851,12.5878074 15.3289403,12.4368903 C15.273192,12.2856819 15.1023887,12.2073099 14.9490809,12.2626656 L10.6443051,13.8021363 C10.4901077,13.8569093 10.4109333,14.0244331 10.4669781,14.1753501 L10.4669781,14.1753501 Z" id="Path"></path>
            <path d="M12.7346939,7.02040816 C12.9152653,7.02040816 13.0612245,6.88875102 13.0612245,6.72653061 L13.0612245,1.43673469 C13.0612245,1.27422041 12.9152653,1.14285714 12.7346939,1.14285714 C12.5541224,1.14285714 12.4081633,1.27422041 12.4081633,1.43673469 L12.4081633,6.72653061 C12.4081633,6.88875102 12.5541224,7.02040816 12.7346939,7.02040816 Z" id="Path"></path>
            <path d="M9.44451659,4.36206625 C9.49385932,4.3931967 9.54884971,4.40816327 9.60324561,4.40816327 C9.70193106,4.40816327 9.79823856,4.35877361 9.85501242,4.26837557 L11.2193686,2.09163868 C11.3070559,1.95155165 11.2654416,1.76686426 11.126628,1.67856154 C10.9878144,1.59085749 10.8041168,1.63246453 10.7164294,1.77225223 L9.35207329,3.94898912 C9.26438591,4.08907615 9.30600026,4.27376353 9.44451659,4.36206625 Z" id="Path"></path>
            <path d="M5.90474765,6.53061224 C6.07027934,6.53061224 6.20408163,6.39680995 6.20408163,6.23127826 C6.20408163,6.06604591 6.07027934,5.93194428 5.90474765,5.93194428 C5.76974802,5.93194428 5.65989245,5.82208871 5.65989245,5.68708908 C5.65989245,5.52185673 5.52609016,5.3877551 5.36055847,5.3877551 C5.19502678,5.3877551 5.06122449,5.52185673 5.06122449,5.68708908 C5.06122449,6.15255343 5.43958264,6.53061224 5.90474765,6.53061224 Z" id="Path"></path>
            <path d="M3.72790541,2.23132103 C3.86290504,2.23132103 3.97276061,2.3411766 3.97276061,2.47617622 C3.97276061,2.64170791 4.1065629,2.7755102 4.27209459,2.7755102 C4.43762628,2.7755102 4.57142857,2.64170791 4.57142857,2.47617622 C4.57142857,2.01101121 4.19277108,1.63265306 3.72790541,1.63265306 C3.56237372,1.63265306 3.42857143,1.76675469 3.42857143,1.93198704 C3.42857143,2.0972194 3.56237372,2.23132103 3.72790541,2.23132103 Z" id="Path"></path>
            <path d="M3.72790541,6.53061224 C4.19307042,6.53061224 4.57142857,6.15225409 4.57142857,5.68708908 C4.57142857,5.52185673 4.43762628,5.3877551 4.27209459,5.3877551 C4.1065629,5.3877551 3.97276061,5.52185673 3.97276061,5.68708908 C3.97276061,5.82208871 3.86290504,5.93194428 3.72790541,5.93194428 C3.56237372,5.93194428 3.42857143,6.06604591 3.42857143,6.23127826 C3.42857143,6.39680995 3.56237372,6.53061224 3.72790541,6.53061224 Z" id="Path"></path>
            <path d="M3.72790541,4.51703531 C3.86290504,4.51703531 3.97276061,4.62689088 3.97276061,4.76189051 C3.97276061,4.92712287 4.1065629,5.06122449 4.27209459,5.06122449 C4.43762628,5.06122449 4.57142857,4.92712287 4.57142857,4.76189051 C4.57142857,4.29642617 4.19277108,3.91836735 3.72790541,3.91836735 C3.56237372,3.91836735 3.42857143,4.05216964 3.42857143,4.21770133 C3.42857143,4.38293369 3.56237372,4.51703531 3.72790541,4.51703531 Z" id="Path"></path>
            <path d="M2.12244898,6.53061224 C2.30302041,6.53061224 2.44897959,6.39828298 2.44897959,6.23457361 L2.44897959,1.92869169 C2.44897959,1.76527837 2.30302041,1.63265306 2.12244898,1.63265306 C1.94187755,1.63265306 1.79591837,1.76527837 1.79591837,1.92869169 L1.79591837,6.23486965 C1.79591837,6.39828298 1.94187755,6.53061224 2.12244898,6.53061224 L2.12244898,6.53061224 Z" id="Path"></path>
            <path d="M6.99321153,6.53061224 C7.45837654,6.53061224 7.83673469,6.15225409 7.83673469,5.68708908 C7.83673469,5.52185673 7.7029324,5.3877551 7.53740071,5.3877551 C7.37186902,5.3877551 7.23806673,5.52185673 7.23806673,5.68708908 C7.23806673,5.82208871 7.12821116,5.93194428 6.99321153,5.93194428 C6.82767984,5.93194428 6.69387755,6.06604591 6.69387755,6.23127826 C6.69387755,6.39680995 6.82767984,6.53061224 6.99321153,6.53061224 Z" id="Path"></path>
            <path d="M8.45227319,10.9770319 C8.39261373,10.818386 8.20950996,10.7360004 8.04576378,10.794191 C7.88074825,10.851769 7.79601913,11.0278721 7.85599592,11.186518 L8.36405335,12.5331707 C8.41070197,12.6572085 8.53255959,12.7346939 8.66203331,12.7346939 C8.69789245,12.7346939 8.73470361,12.7285686 8.77056275,12.7157054 C8.93557828,12.6581273 9.0203074,12.4820242 8.96033061,12.3233783 L8.45227319,10.9770319 Z" id="Path"></path>
            <path d="M10.3836253,9.43592869 C10.4256974,9.55712762 10.5356,9.63265306 10.6523715,9.63265306 C10.6847126,9.63265306 10.7179124,9.62668267 10.7502535,9.61444337 C10.89908,9.55802318 10.9754966,9.38637444 10.9214039,9.23174133 L9.53474208,5.25784927 C9.48093559,5.10291763 9.31608168,5.02321292 9.16811384,5.07903607 C9.01928739,5.13545626 8.94287073,5.307105 8.99696342,5.46173811 L10.3836253,9.43592869 Z" id="Path"></path>
            <path d="M15.1275068,9.59857562 C15.1688826,9.72034029 15.2769663,9.79591837 15.3918053,9.79591837 C15.4236112,9.79591837 15.4562615,9.78992011 15.4880674,9.77762367 C15.6344308,9.72124003 15.7095828,9.54879006 15.6563853,9.39343513 L14.9133096,7.2181662 C14.8603936,7.06251136 14.6979865,6.98153485 14.5527489,7.03881823 C14.4063855,7.09520187 14.3312336,7.26765184 14.384431,7.42300677 L15.1275068,9.59857562 Z" id="Path"></path>
            <path d="M11.994246,9.26840304 C12.0379878,9.3922267 12.1522521,9.46938776 12.273658,9.46938776 C12.3072827,9.46938776 12.3418,9.46328807 12.3754247,9.45078371 C12.5301576,9.39314166 12.609607,9.21808061 12.5533676,9.05979371 L11.8424887,7.05818113 C11.7865468,6.89958925 11.6148527,6.81815842 11.46131,6.87549548 C11.3065771,6.93313753 11.2271277,7.10819857 11.2833671,7.26648547 L11.994246,9.26840304 Z" id="Path"></path>
            <path d="M12.9149613,7.41451338 L13.5010287,9.11302925 C13.5419365,9.23217186 13.6487978,9.30612245 13.7623379,9.30612245 C13.7937841,9.30612245 13.8260651,9.30025335 13.8575113,9.28822171 C14.0022193,9.23305223 14.0765213,9.06431577 14.0239255,8.91230623 L13.4378581,7.21379036 C13.3855406,7.06148736 13.2252487,6.98254805 13.0813755,7.03830444 C12.9366675,7.09376738 12.8620873,7.26250384 12.9149613,7.41451338 L12.9149613,7.41451338 Z" id="Path"></path>
            <path d="M9.37456248,10.9077646 C9.41886803,11.0274553 9.53460498,11.1020408 9.65757549,11.1020408 C9.6916335,11.1020408 9.7265957,11.0961447 9.76065371,11.0837629 C9.91738083,11.0283397 9.99785418,10.8588271 9.9408899,10.7061184 L8.09482527,5.74544292 C8.03816239,5.59214458 7.86455697,5.51284217 7.70873404,5.56914983 C7.55200693,5.62457308 7.47153358,5.79408567 7.52849786,5.9467944 L9.37456248,10.9077646 Z" id="Path"></path>
            <path d="M15.0429086,12.099608 C14.896258,12.1561593 14.8209586,12.3279079 14.8742605,12.4831997 L15.4529662,14.1701653 C15.4944232,14.2916459 15.602719,14.3673469 15.7177833,14.3673469 C15.7496516,14.3673469 15.7823659,14.3613627 15.8142342,14.3490949 C15.9608848,14.2925436 16.0361842,14.120795 15.9828824,13.9655032 L15.4041767,12.2785377 C15.3511568,12.1235451 15.1889952,12.0433559 15.0429086,12.099608 Z" id="Path"></path>
            <path d="M10.7980107,13.7325365 C10.6513601,13.7887892 10.5760607,13.9608388 10.6293625,14.115833 L11.2080682,15.8031155 C11.2495252,15.9245974 11.357821,16 11.4728853,16 C11.5047536,16 11.537468,15.9940157 11.5693363,15.9817478 C11.7159869,15.9254951 11.7912863,15.7534455 11.7379844,15.5984513 L11.1592787,13.9111688 C11.1062589,13.7561746 10.9440972,13.6756853 10.7980107,13.7325365 Z" id="Path"></path>
            <path d="M11.5646259,0.598639456 C12.0597007,0.598639456 12.462585,1.00152381 12.462585,1.49659864 C12.462585,1.66182313 12.596381,1.79591837 12.7619048,1.79591837 C12.9274286,1.79591837 13.0612245,1.66182313 13.0612245,1.49659864 C13.0612245,0.67137415 12.3898503,0 11.5646259,0 C11.399102,0 11.2653061,0.133795918 11.2653061,0.299319728 C11.2653061,0.464544218 11.399102,0.598639456 11.5646259,0.598639456 Z" id="Path"></path>
            <path d="M0.299319728,1.79591837 C0.464843537,1.79591837 0.598639456,1.66182313 0.598639456,1.49659864 C0.598639456,1.00152381 1.00152381,0.598639456 1.49659864,0.598639456 C1.66212245,0.598639456 1.79591837,0.464544218 1.79591837,0.299319728 C1.79591837,0.133795918 1.66212245,0 1.49659864,0 C0.67137415,0 0,0.67137415 0,1.49659864 C0,1.66182313 0.133795918,1.79591837 0.299319728,1.79591837 Z" id="Path"></path>
            <path d="M1.49659864,8.32653061 C1.66212245,8.32653061 1.79591837,8.19243537 1.79591837,8.02721088 C1.79591837,7.86168707 1.66212245,7.72789116 1.49659864,7.72789116 C1.00152381,7.72789116 0.598639456,7.3250068 0.598639456,6.82993197 C0.598639456,6.66440816 0.464843537,6.53061224 0.299319728,6.53061224 C0.133795918,6.53061224 0,6.66440816 0,6.82993197 C0,7.65515646 0.67137415,8.32653061 1.49659864,8.32653061 Z" id="Path"></path>
            <path d="M9.4685089,9.56945335 C9.45627339,9.41181384 9.3176991,9.29472653 9.1626211,9.30700641 C8.71559809,9.34213261 8.31694803,9.58430344 8.06967687,9.97069158 C7.8229748,10.3565086 7.76919545,10.8194318 7.92285072,11.2409461 C7.96496365,11.3568911 8.07394507,11.4285714 8.19004016,11.4285714 C8.2224785,11.4285714 8.25548592,11.4228599 8.28792426,11.4108655 C8.43560404,11.3568911 8.51129349,11.1926833 8.45751415,11.0447535 C8.36560553,10.7923018 8.39861296,10.5132913 8.54828457,10.2791167 C8.69852528,10.0440853 8.93868277,9.89701225 9.20672585,9.87616499 C9.36379568,9.8638851 9.48074442,9.72652169 9.4685089,9.56945335 L9.4685089,9.56945335 Z" id="Path"></path>
            <path d="M11.6455489,6.89786013 C11.4250122,7.15185121 11.3696584,7.48578145 11.4929598,7.8134753 C11.5360127,7.92828154 11.6484777,8 11.7679717,8 C11.8010668,8 11.8350406,7.99433056 11.8684286,7.98242472 C12.020432,7.92913195 12.0986302,7.76613544 12.0432764,7.61929685 C11.9914371,7.48124589 12.0087169,7.36105368 12.09453,7.26183842 C12.1985014,7.14164621 12.3824285,7.07673108 12.5432181,7.10366094 C12.6747201,7.12605524 12.7678551,7.20741176 12.8196944,7.34546271 C12.8747554,7.49286825 13.0425741,7.5688388 13.1948704,7.51526256 C13.3468738,7.46168631 13.4253649,7.29897327 13.3700111,7.15185121 C13.2470026,6.82444083 12.9828271,6.60304905 12.6448466,6.54550419 C12.2755282,6.48285684 11.8851226,6.62119127 11.6455489,6.89786013 L11.6455489,6.89786013 Z" id="Path"></path>
            <path d="M9.48039336,10.6301944 C9.34281726,10.6862529 9.27217723,10.8577085 9.32218085,11.0121677 L9.44599934,11.3956319 C9.48489104,11.5166944 9.5864857,11.5918367 9.69443002,11.5918367 C9.72432637,11.5918367 9.75501642,11.5858731 9.78491276,11.5736475 C9.92248886,11.517589 9.9931289,11.3461334 9.94312528,11.1916742 L9.81930679,10.80821 C9.76956774,10.6537509 9.61744032,10.5741359 9.48039336,10.6301944 Z" id="Path"></path>
            <path d="M15.6018697,13.8953187 L11.2973545,15.4347893 C11.1431664,15.4895623 11.0639968,15.6570861 11.1200382,15.8080032 C11.1639225,15.9265809 11.2777845,16 11.3987628,16 C11.432269,16 11.4666648,15.9941731 11.5001711,15.9822279 L15.8046863,14.4427572 C15.9588744,14.3879843 16.038044,14.2204605 15.9820026,14.0695434 C15.9259612,13.918335 15.7557613,13.839963 15.6018697,13.8953187 Z" id="Path"></path>
            <path d="M10.9339273,13.8168475 L9.42314365,13.092644 C9.27182073,13.0199036 9.08809329,13.077805 9.01227898,13.22154 C8.93646466,13.3649841 8.99699383,13.539852 9.14770535,13.6123015 L10.658489,14.336505 C10.7028159,14.3574542 10.7495885,14.3673469 10.7957496,14.3673469 C10.9076369,14.3673469 11.01555,14.3088636 11.0693537,14.207318 C11.145168,14.063874 11.0846388,13.889006 10.9339273,13.8168475 L10.9339273,13.8168475 Z" id="Path"></path>
            <path d="M15.1860256,12.3834717 C15.2213644,12.4003342 15.258073,12.4081633 15.2945076,12.4081633 C15.4005241,12.4081633 15.5016096,12.3398098 15.5462626,12.2259878 C15.9059517,11.3063779 15.9325243,10.2819795 15.6207755,9.34099035 C15.5692739,9.18501199 15.4117558,9.10401165 15.2698526,9.16122379 C15.1274015,9.21783369 15.0542583,9.39097569 15.1060338,9.54695405 C15.3695684,10.3431061 15.3473789,11.2097195 15.0427526,11.9878046 C14.9830327,12.1410729 15.0471357,12.3181294 15.1860256,12.3834717 Z" id="Path"></path>
            <path d="M1.60090703,0.653061224 L11.6235828,0.653061224 C11.7865986,0.653061224 11.9183673,0.50677551 11.9183673,0.326530612 C11.9183673,0.145959184 11.7865986,0 11.6235828,0 L1.60090703,0 C1.43789116,0 1.30612245,0.145959184 1.30612245,0.326530612 C1.30612245,0.50677551 1.43789116,0.653061224 1.60090703,0.653061224 Z" id="Path"></path>
            <path d="M0.326530612,7.02040816 C0.507102041,7.02040816 0.653061224,6.88875102 0.653061224,6.72653061 L0.653061224,1.43673469 C0.653061224,1.27422041 0.507102041,1.14285714 0.326530612,1.14285714 C0.145959184,1.14285714 0,1.27422041 0,1.43673469 L0,6.72653061 C0,6.88875102 0.145959184,7.02040816 0.326530612,7.02040816 Z" id="Path"></path>
            <path d="M2.10256101,2.28571429 L3.77499001,2.28571429 C3.94456339,2.28571429 4.08163265,2.1397551 4.08163265,1.95918367 C4.08163265,1.77893878 3.94456339,1.63265306 3.77499001,1.63265306 L2.10256101,1.63265306 C1.93298763,1.63265306 1.79591837,1.77893878 1.79591837,1.95918367 C1.79591837,2.13942857 1.93298763,2.28571429 2.10256101,2.28571429 Z" id="Path"></path>
            <path d="M2.10256101,4.40816327 L3.77499001,4.40816327 C3.94456339,4.40816327 4.08163265,4.26187755 4.08163265,4.08163265 C4.08163265,3.90106122 3.94456339,3.75510204 3.77499001,3.75510204 L2.10256101,3.75510204 C1.93298763,3.75510204 1.79591837,3.90106122 1.79591837,4.08163265 C1.79591837,4.26187755 1.93298763,4.40816327 2.10256101,4.40816327 Z" id="Path"></path>
            <path d="M4.57142857,2.57534584 C4.57142857,2.41546922 4.42546939,2.28571429 4.24489796,2.28571429 C4.06432653,2.28571429 3.91836735,2.41546922 3.91836735,2.57534584 L3.91836735,3.62873579 C3.91836735,3.78861241 4.06432653,3.91836735 4.24489796,3.91836735 C4.42546939,3.91836735 4.57142857,3.78861241 4.57142857,3.62873579 L4.57142857,2.57534584 Z" id="Path"></path>
            <path d="M4.24489796,6.04081633 C4.42546939,6.04081633 4.57142857,5.91132805 4.57142857,5.75113338 L4.57142857,4.69784621 C4.57142857,4.53765154 4.42546939,4.40816327 4.24489796,4.40816327 C4.06432653,4.40816327 3.91836735,4.53765154 3.91836735,4.69784621 L3.91836735,5.75113338 C3.91836735,5.91132805 4.06432653,6.04081633 4.24489796,6.04081633 Z" id="Path"></path>
            <path d="M2.10256101,6.69387755 L3.77499001,6.69387755 C3.94456339,6.69387755 4.08163265,6.54791837 4.08163265,6.36734694 C4.08163265,6.18710204 3.94456339,6.04081633 3.77499001,6.04081633 L2.10256101,6.04081633 C1.93298763,6.04081633 1.79591837,6.18710204 1.79591837,6.36734694 C1.79591837,6.54791837 1.93298763,6.69387755 2.10256101,6.69387755 Z" id="Path"></path>
            <path d="M5.3877551,1.63265306 C5.20718367,1.63265306 5.06122449,1.76674168 5.06122449,1.93195801 L5.06122449,5.74151138 C5.06122449,5.90702702 5.20718367,6.04081633 5.3877551,6.04081633 C5.56832653,6.04081633 5.71428571,5.90702702 5.71428571,5.74151138 L5.71428571,1.93195801 C5.71428571,1.76674168 5.568,1.63265306 5.3877551,1.63265306 Z" id="Path"></path>
            <path d="M7.51020408,6.04081633 C7.69077551,6.04081633 7.83673469,5.90701793 7.83673469,5.74149106 L7.83673469,1.93197833 C7.83673469,1.76675078 7.69077551,1.63265306 7.51020408,1.63265306 C7.32963265,1.63265306 7.18367347,1.76675078 7.18367347,1.93197833 L7.18367347,5.74179038 C7.18367347,5.90701793 7.32963265,6.04081633 7.51020408,6.04081633 L7.51020408,6.04081633 Z" id="Path"></path>
            <path d="M5.84070335,6.69387755 L6.89399053,6.69387755 C7.05418519,6.69387755 7.18367347,6.54791837 7.18367347,6.36734694 C7.18367347,6.18710204 7.05418519,6.04081633 6.89399053,6.04081633 L5.84070335,6.04081633 C5.68050868,6.04081633 5.55102041,6.18710204 5.55102041,6.36734694 C5.55102041,6.54791837 5.68050868,6.69387755 5.84070335,6.69387755 Z" id="Path"></path>
            <path d="M9.63265306,3.91836735 C9.45208163,3.91836735 9.30612245,4.05217376 9.30612245,4.21771055 L9.30612245,6.39453435 C9.30612245,6.56007114 9.45208163,6.69387755 9.63265306,6.69387755 C9.81322449,6.69387755 9.95918367,6.56007114 9.95918367,6.39453435 L9.95918367,4.21771055 C9.95918367,4.05217376 9.81289796,3.91836735 9.63265306,3.91836735 Z" id="Path"></path>
            <path d="M1.43833151,8.32653061 L8.52085216,8.32653061 C8.68424949,8.32653061 8.81632653,8.1802449 8.81632653,8 C8.81632653,7.81942857 8.68424949,7.67346939 8.52085216,7.67346939 L1.43833151,7.67346939 C1.27493419,7.67346939 1.14285714,7.81942857 1.14285714,8 C1.14285714,8.1802449 1.27493419,8.32653061 1.43833151,8.32653061 Z" id="Path"></path>
        </g>
    </g>
</svg>