<?xml version="1.0" encoding="utf-8"?>
<!-- Generator: Adobe Illustrator 22.0.0, SVG Export Plug-In . SVG Version: 6.00 Build 0)  -->
<svg version="1.1" id="Layer_1" xmlns="http://www.w3.org/2000/svg" xmlns:xlink="http://www.w3.org/1999/xlink" x="0px" y="0px"
	 viewBox="0 0 993.5 904.6" style="enable-background:new 0 0 993.5 904.6;" xml:space="preserve">
<style type="text/css">
	.st0{fill:#FFFFFF;stroke:#C6C6C6;stroke-width:1.2296;stroke-miterlimit:10;}
	.st1{fill:#EDEDED;}
	.st2{fill:#FFFFFF;}
	.st3{fill:#C6C6C6;}
	.st4{fill:#9D9D9C;}
</style>
<path class="st0" d="M312.8,597.5v267.3c0,5.1-4.2,9.3-9.3,9.3H36.2c-5.1,0-9.3-4.2-9.3-9.3V597.5c0-5.1,4.2-9.3,9.3-9.3h267.3
	C308.6,588.2,312.8,592.4,312.8,597.5z M626.1,398.2H364.2c-6.6,0-12,5.4-12,12v450.5c0,6.6,5.4,12,12,12h261.9c6.6,0,12-5.4,12-12
	V410.1C638.1,403.5,632.7,398.2,626.1,398.2z M953.7,24.2H698.6c-8.5,0-15.4,6.9-15.4,15.4v817.6c0,8.5,6.9,15.4,15.4,15.4h255.1
	c8.5,0,15.4-6.9,15.4-15.4V39.6C969.1,31.1,962.2,24.2,953.7,24.2z M299.9,24.2H39.8c-7.1,0-12.8,5.7-12.8,12.8v520.6
	c0,7.1,5.7,12.8,12.8,12.8h260.2c7.1,0,12.8-5.7,12.8-12.8V37.1C312.8,30,307,24.2,299.9,24.2z M627.7,24.2h-265
	c-5.7,0-10.4,4.7-10.4,10.4v338.1c0,5.7,4.7,10.4,10.4,10.4h265c5.7,0,10.4-4.7,10.4-10.4V34.6C638.1,28.9,633.4,24.2,627.7,24.2z"
	/>
<path class="st1" d="M301.7,231.1H38V34.5h263.7V231.1z M627.1,414.8H363.4v196.6h263.7V414.8z M301.7,617.7H38v196.6h263.7V617.7z
	 M956.6,42.4H695.4v351.8h261.2V42.4z"/>
<path class="st2" d="M46.7,222.5C76.3,178.5,105.4,135,135,91c20.7,26,41,51.6,61.6,77.5c10.4-11.6,20.4-22.7,30.8-34.4
	c21.8,29.5,43.2,58.6,65.1,88.4C210.4,222.5,129,222.5,46.7,222.5z M219.7,80c0,14.8,12.1,27,26.9,26.9c14.9,0,26.9-12.1,26.9-26.9
	c0-14.8-12.1-26.9-26.9-26.9C231.8,53,219.7,65.1,219.7,80z M617.9,602.8c-21.9-29.8-43.4-58.9-65.1-88.4
	c-10.4,11.6-20.4,22.8-30.8,34.4c-20.6-25.9-40.9-51.4-61.6-77.5c-29.5,44-58.7,87.6-88.3,131.6
	C454.4,602.8,535.8,602.8,617.9,602.8z M545.1,460.2c0,14.8,12.1,27,26.9,26.9c14.9,0,26.9-12.1,26.9-26.9
	c0-14.8-12.1-26.9-26.9-26.9C557.2,433.3,545.1,445.4,545.1,460.2z M292.8,792.9c-21.9-29.8-43.4-58.9-65.1-88.4
	c-10.4,11.6-20.4,22.8-30.8,34.4c-20.6-25.9-40.9-51.4-61.6-77.5c-29.5,44-58.7,87.6-88.3,131.6
	C129.2,792.9,210.6,792.9,292.8,792.9z M219.9,650.3c0,14.8,12.1,27,26.9,26.9c14.9,0,26.9-12.1,26.9-26.9
	c0-14.8-12.1-26.9-26.9-26.9C232,623.3,219.9,635.4,219.9,650.3z M947.4,303.1c-21.9-29.8-43.4-58.9-65.1-88.4
	c-10.4,11.6-20.4,22.8-30.8,34.4c-20.6-25.9-40.9-51.4-61.6-77.5c-29.5,44-58.7,87.6-88.3,131.6
	C783.9,303.1,865.3,303.1,947.4,303.1z M874.6,160.5c0,14.8,12.1,27,26.9,26.9c14.9,0,26.9-12.1,26.9-26.9
	c0-14.8-12.1-26.9-26.9-26.9C886.7,133.5,874.6,145.6,874.6,160.5z"/>
<g>
	<path class="st3" d="M70.4,292.1l-0.8,2.5h-1.1l2.7-8.1h1.3l2.8,8.1h-1.1l-0.9-2.5H70.4z M73.1,291.3l-0.8-2.3
		c-0.2-0.5-0.3-1-0.4-1.5h0c-0.1,0.5-0.3,1-0.4,1.5l-0.8,2.3H73.1z"/>
	<path class="st3" d="M76.5,286.7c0.5-0.1,1.2-0.2,1.9-0.2c1,0,1.7,0.2,2.2,0.6c0.4,0.3,0.7,0.8,0.7,1.4c0,0.8-0.5,1.5-1.4,1.8v0
		c0.8,0.2,1.7,0.8,1.7,2c0,0.7-0.3,1.2-0.7,1.6c-0.6,0.5-1.5,0.8-2.8,0.8c-0.7,0-1.3,0-1.6-0.1V286.7z M77.5,290h0.9
		c1.1,0,1.8-0.6,1.8-1.4c0-0.9-0.7-1.3-1.8-1.3c-0.5,0-0.8,0-0.9,0.1V290z M77.5,293.9c0.2,0,0.5,0,0.9,0c1.1,0,2.1-0.4,2.1-1.6
		c0-1.1-0.9-1.6-2.1-1.6h-0.9V293.9z"/>
	<path class="st3" d="M89.9,290.5c0,2.8-1.7,4.3-3.8,4.3c-2.1,0-3.6-1.7-3.6-4.1c0-2.6,1.6-4.2,3.8-4.2
		C88.5,286.4,89.9,288.1,89.9,290.5z M83.6,290.7c0,1.7,0.9,3.3,2.6,3.3c1.7,0,2.6-1.5,2.6-3.4c0-1.6-0.8-3.3-2.6-3.3
		C84.5,287.3,83.6,288.9,83.6,290.7z"/>
	<path class="st3" d="M92.3,286.6v4.8c0,1.8,0.8,2.6,1.9,2.6c1.2,0,2-0.8,2-2.6v-4.8h1.1v4.7c0,2.5-1.3,3.5-3.1,3.5
		c-1.7,0-2.9-0.9-2.9-3.5v-4.8H92.3z"/>
	<path class="st3" d="M100.5,287.5h-2.5v-0.9h6v0.9h-2.5v7.2h-1.1V287.5z"/>
</g>
<g>
	<path class="st4" d="M72.7,334.4h-4.1v-2.9h11.8v2.9h-4.2v12.4h-3.5V334.4z"/>
	<path class="st4" d="M85.7,331.5v15.4h-3.5v-15.4H85.7z"/>
	<path class="st4" d="M91.7,334.4h-4.1v-2.9h11.8v2.9h-4.2v12.4h-3.5V334.4z"/>
	<path class="st4" d="M101.2,331.5h3.5v12.4h6.1v2.9h-9.6V331.5z"/>
	<path class="st4" d="M122,340.4h-5.7v3.6h6.3v2.8h-9.8v-15.4h9.5v2.8h-6v3.2h5.7V340.4z"/>
</g>
<g>
	<path class="st3" d="M398.5,77.8l-0.8,2.5h-1.1l2.7-8.1h1.3l2.8,8.1h-1.1l-0.9-2.5H398.5z M401.2,77l-0.8-2.3
		c-0.2-0.5-0.3-1-0.4-1.5h0c-0.1,0.5-0.3,1-0.4,1.5l-0.8,2.3H401.2z"/>
	<path class="st3" d="M404.5,72.4c0.5-0.1,1.2-0.2,1.9-0.2c1,0,1.7,0.2,2.2,0.6c0.4,0.3,0.7,0.8,0.7,1.4c0,0.8-0.5,1.5-1.4,1.8v0
		c0.8,0.2,1.7,0.8,1.7,2c0,0.7-0.3,1.2-0.7,1.6c-0.6,0.5-1.5,0.8-2.8,0.8c-0.7,0-1.3,0-1.6-0.1V72.4z M405.6,75.7h0.9
		c1.1,0,1.8-0.6,1.8-1.4c0-0.9-0.7-1.3-1.8-1.3c-0.5,0-0.8,0-0.9,0.1V75.7z M405.6,79.6c0.2,0,0.5,0,0.9,0c1.1,0,2.1-0.4,2.1-1.6
		c0-1.1-0.9-1.6-2.1-1.6h-0.9V79.6z"/>
	<path class="st3" d="M418,76.2c0,2.8-1.7,4.3-3.8,4.3c-2.1,0-3.6-1.7-3.6-4.1c0-2.6,1.6-4.2,3.8-4.2C416.5,72.1,418,73.8,418,76.2z
		 M411.7,76.4c0,1.7,0.9,3.3,2.6,3.3c1.7,0,2.6-1.5,2.6-3.4c0-1.6-0.8-3.3-2.6-3.3C412.5,73,411.7,74.6,411.7,76.4z"/>
	<path class="st3" d="M420.4,72.3v4.8c0,1.8,0.8,2.6,1.9,2.6c1.2,0,2-0.8,2-2.6v-4.8h1.1V77c0,2.5-1.3,3.5-3.1,3.5
		c-1.7,0-2.9-0.9-2.9-3.5v-4.8H420.4z"/>
	<path class="st3" d="M428.6,73.2h-2.5v-0.9h6v0.9h-2.5v7.2h-1.1V73.2z"/>
</g>
<g>
	<path class="st4" d="M400.8,120.1h-4.1v-2.9h11.8v2.9h-4.2v12.4h-3.5V120.1z"/>
	<path class="st4" d="M413.8,117.2v15.4h-3.5v-15.4H413.8z"/>
	<path class="st4" d="M419.8,120.1h-4.1v-2.9h11.8v2.9h-4.2v12.4h-3.5V120.1z"/>
	<path class="st4" d="M429.3,117.2h3.5v12.4h6.1v2.9h-9.6V117.2z"/>
	<path class="st4" d="M450.1,126.1h-5.7v3.6h6.3v2.8h-9.8v-15.4h9.5v2.8h-6v3.2h5.7V126.1z"/>
</g>
<g>
	<path class="st3" d="M73.9,524.5c0,2.7-1,4.1-2.7,4.1c-1.5,0-2.6-1.4-2.6-4c0-2.6,1.1-4.1,2.7-4.1C73,520.6,73.9,522.1,73.9,524.5z
		 M69.7,524.7c0,2,0.6,3.2,1.6,3.2c1.1,0,1.6-1.3,1.6-3.3c0-1.9-0.5-3.2-1.6-3.2C70.4,521.4,69.7,522.5,69.7,524.7z"/>
	<path class="st3" d="M77.2,521.7L77.2,521.7l-1.4,0.7l-0.2-0.8l1.7-0.9h0.9v7.8h-1V521.7z"/>
	<path class="st3" d="M80.5,529l3.3-8.7h0.8l-3.4,8.7H80.5z"/>
	<path class="st3" d="M90.4,524.5c0,2.7-1,4.1-2.7,4.1c-1.5,0-2.6-1.4-2.6-4c0-2.6,1.1-4.1,2.7-4.1
		C89.4,520.6,90.4,522.1,90.4,524.5z M86.1,524.7c0,2,0.6,3.2,1.6,3.2c1.1,0,1.6-1.3,1.6-3.3c0-1.9-0.5-3.2-1.6-3.2
		C86.8,521.4,86.1,522.5,86.1,524.7z"/>
	<path class="st3" d="M93.6,521.7L93.6,521.7l-1.4,0.7l-0.2-0.8l1.7-0.9h0.9v7.8h-1V521.7z"/>
	<path class="st3" d="M96.9,529l3.3-8.7h0.8l-3.4,8.7H96.9z"/>
	<path class="st3" d="M101.6,528.5v-0.6l0.8-0.8c2-1.9,2.9-2.9,2.9-4.1c0-0.8-0.4-1.5-1.5-1.5c-0.7,0-1.3,0.4-1.7,0.7l-0.3-0.7
		c0.5-0.5,1.3-0.8,2.2-0.8c1.7,0,2.4,1.2,2.4,2.3c0,1.4-1,2.6-2.7,4.2l-0.6,0.6v0h3.5v0.9H101.6z"/>
	<path class="st3" d="M113,524.5c0,2.7-1,4.1-2.7,4.1c-1.5,0-2.6-1.4-2.6-4c0-2.6,1.1-4.1,2.7-4.1C112,520.6,113,522.1,113,524.5z
		 M108.7,524.7c0,2,0.6,3.2,1.6,3.2c1.1,0,1.6-1.3,1.6-3.3c0-1.9-0.5-3.2-1.6-3.2C109.4,521.4,108.7,522.5,108.7,524.7z"/>
	<path class="st3" d="M113.9,528.5v-0.6l0.8-0.8c2-1.9,2.9-2.9,2.9-4.1c0-0.8-0.4-1.5-1.5-1.5c-0.7,0-1.3,0.4-1.7,0.7l-0.3-0.7
		c0.5-0.5,1.3-0.8,2.2-0.8c1.7,0,2.4,1.2,2.4,2.3c0,1.4-1,2.6-2.7,4.2l-0.6,0.6v0h3.5v0.9H113.9z"/>
	<path class="st3" d="M120.1,528.5v-0.6l0.8-0.8c2-1.9,2.9-2.9,2.9-4.1c0-0.8-0.4-1.5-1.5-1.5c-0.7,0-1.3,0.4-1.7,0.7l-0.3-0.7
		c0.5-0.5,1.3-0.8,2.2-0.8c1.7,0,2.4,1.2,2.4,2.3c0,1.4-1,2.6-2.7,4.2l-0.6,0.6v0h3.5v0.9H120.1z"/>
</g>
<g>
	<path class="st3" d="M222.7,527.9l-3.2-9.7h1.3l1.5,4.8c0.4,1.3,0.8,2.5,1,3.6h0c0.3-1.1,0.7-2.3,1.1-3.6l1.6-4.8h1.3l-3.5,9.7
		H222.7z"/>
	<path class="st3" d="M229.9,518.2v9.7h-1.2v-9.7H229.9z"/>
	<path class="st3" d="M237.1,523.4h-3.8v3.5h4.2v1h-5.4v-9.7h5.2v1h-4v3.1h3.8V523.4z"/>
	<path class="st3" d="M240.8,527.9l-2.5-9.7h1.3l1.1,4.9c0.3,1.2,0.5,2.4,0.7,3.3h0c0.2-1,0.5-2.1,0.8-3.4l1.3-4.9h1.3l1.2,4.9
		c0.3,1.1,0.5,2.3,0.7,3.3h0c0.2-1.1,0.5-2.1,0.8-3.3l1.3-4.9h1.3l-2.7,9.7h-1.3l-1.2-5c-0.3-1.2-0.5-2.2-0.6-3.2h0
		c-0.2,1-0.4,1.9-0.7,3.2l-1.4,5H240.8z"/>
</g>
<g>
	<path class="st3" d="M403.9,332.7c0,2.7-1,4.1-2.7,4.1c-1.5,0-2.6-1.4-2.6-4c0-2.6,1.1-4.1,2.7-4.1
		C403,328.8,403.9,330.3,403.9,332.7z M399.7,332.9c0,2,0.6,3.2,1.6,3.2c1.1,0,1.6-1.3,1.6-3.3c0-1.9-0.5-3.2-1.6-3.2
		C400.4,329.6,399.7,330.7,399.7,332.9z"/>
	<path class="st3" d="M407.2,329.9L407.2,329.9l-1.4,0.7l-0.2-0.8l1.7-0.9h0.9v7.8h-1V329.9z"/>
	<path class="st3" d="M410.5,337.2l3.3-8.7h0.8l-3.4,8.7H410.5z"/>
	<path class="st3" d="M420.4,332.7c0,2.7-1,4.1-2.7,4.1c-1.5,0-2.6-1.4-2.6-4c0-2.6,1.1-4.1,2.7-4.1
		C419.4,328.8,420.4,330.3,420.4,332.7z M416.1,332.9c0,2,0.6,3.2,1.6,3.2c1.1,0,1.6-1.3,1.6-3.3c0-1.9-0.5-3.2-1.6-3.2
		C416.8,329.6,416.1,330.7,416.1,332.9z"/>
	<path class="st3" d="M423.6,329.9L423.6,329.9l-1.4,0.7l-0.2-0.8l1.7-0.9h0.9v7.8h-1V329.9z"/>
	<path class="st3" d="M426.9,337.2l3.3-8.7h0.8l-3.4,8.7H426.9z"/>
	<path class="st3" d="M431.6,336.7v-0.6l0.8-0.8c2-1.9,2.9-2.9,2.9-4.1c0-0.8-0.4-1.5-1.5-1.5c-0.7,0-1.3,0.4-1.7,0.7l-0.3-0.7
		c0.5-0.5,1.3-0.8,2.2-0.8c1.7,0,2.4,1.2,2.4,2.3c0,1.4-1,2.6-2.7,4.2l-0.6,0.6v0h3.5v0.9H431.6z"/>
	<path class="st3" d="M443,332.7c0,2.7-1,4.1-2.7,4.1c-1.5,0-2.6-1.4-2.6-4c0-2.6,1.1-4.1,2.7-4.1C442,328.8,443,330.3,443,332.7z
		 M438.7,332.9c0,2,0.6,3.2,1.6,3.2c1.1,0,1.6-1.3,1.6-3.3c0-1.9-0.5-3.2-1.6-3.2C439.4,329.6,438.7,330.7,438.7,332.9z"/>
	<path class="st3" d="M443.9,336.7v-0.6l0.8-0.8c2-1.9,2.9-2.9,2.9-4.1c0-0.8-0.4-1.5-1.5-1.5c-0.7,0-1.3,0.4-1.7,0.7l-0.3-0.7
		c0.5-0.5,1.3-0.8,2.2-0.8c1.7,0,2.4,1.2,2.4,2.3c0,1.4-1,2.6-2.7,4.2l-0.6,0.6v0h3.5v0.9H443.9z"/>
	<path class="st3" d="M450.1,336.7v-0.6l0.8-0.8c2-1.9,2.9-2.9,2.9-4.1c0-0.8-0.4-1.5-1.5-1.5c-0.7,0-1.3,0.4-1.7,0.7l-0.3-0.7
		c0.5-0.5,1.3-0.8,2.2-0.8c1.7,0,2.4,1.2,2.4,2.3c0,1.4-1,2.6-2.7,4.2l-0.6,0.6v0h3.5v0.9H450.1z"/>
</g>
<g>
	<path class="st3" d="M552.7,336.1l-3.2-9.7h1.3l1.5,4.8c0.4,1.3,0.8,2.5,1,3.6h0c0.3-1.1,0.7-2.3,1.1-3.6l1.6-4.8h1.3l-3.5,9.7
		H552.7z"/>
	<path class="st3" d="M559.9,326.5v9.7h-1.2v-9.7H559.9z"/>
	<path class="st3" d="M567.1,331.6h-3.8v3.5h4.2v1h-5.4v-9.7h5.2v1h-4v3.1h3.8V331.6z"/>
	<path class="st3" d="M570.8,336.1l-2.5-9.7h1.3l1.1,4.9c0.3,1.2,0.5,2.4,0.7,3.3h0c0.2-1,0.5-2.1,0.8-3.4l1.3-4.9h1.3l1.2,4.9
		c0.3,1.1,0.5,2.3,0.7,3.3h0c0.2-1.1,0.5-2.1,0.8-3.3l1.3-4.9h1.3l-2.7,9.7h-1.3l-1.2-5c-0.3-1.2-0.5-2.2-0.6-3.2h0
		c-0.2,1-0.4,1.9-0.7,3.2l-1.4,5H570.8z"/>
</g>
<g>
	<path class="st3" d="M403.9,839.6c0,2.7-1,4.1-2.7,4.1c-1.5,0-2.6-1.4-2.6-4c0-2.6,1.1-4.1,2.7-4.1
		C403,835.6,403.9,837.1,403.9,839.6z M399.7,839.7c0,2,0.6,3.2,1.6,3.2c1.1,0,1.6-1.3,1.6-3.3c0-1.9-0.5-3.2-1.6-3.2
		C400.4,836.4,399.7,837.6,399.7,839.7z"/>
	<path class="st3" d="M407.2,836.7L407.2,836.7l-1.4,0.7l-0.2-0.8l1.7-0.9h0.9v7.8h-1V836.7z"/>
	<path class="st3" d="M410.5,844l3.3-8.7h0.8l-3.4,8.7H410.5z"/>
	<path class="st3" d="M420.4,839.6c0,2.7-1,4.1-2.7,4.1c-1.5,0-2.6-1.4-2.6-4c0-2.6,1.1-4.1,2.7-4.1
		C419.4,835.6,420.4,837.1,420.4,839.6z M416.1,839.7c0,2,0.6,3.2,1.6,3.2c1.1,0,1.6-1.3,1.6-3.3c0-1.9-0.5-3.2-1.6-3.2
		C416.8,836.4,416.1,837.6,416.1,839.7z"/>
	<path class="st3" d="M423.6,836.7L423.6,836.7l-1.4,0.7l-0.2-0.8l1.7-0.9h0.9v7.8h-1V836.7z"/>
	<path class="st3" d="M426.9,844l3.3-8.7h0.8l-3.4,8.7H426.9z"/>
	<path class="st3" d="M431.6,843.6v-0.6l0.8-0.8c2-1.9,2.9-2.9,2.9-4.1c0-0.8-0.4-1.5-1.5-1.5c-0.7,0-1.3,0.4-1.7,0.7l-0.3-0.7
		c0.5-0.5,1.3-0.8,2.2-0.8c1.7,0,2.4,1.2,2.4,2.3c0,1.4-1,2.6-2.7,4.2l-0.6,0.6v0h3.5v0.9H431.6z"/>
	<path class="st3" d="M443,839.6c0,2.7-1,4.1-2.7,4.1c-1.5,0-2.6-1.4-2.6-4c0-2.6,1.1-4.1,2.7-4.1C442,835.6,443,837.1,443,839.6z
		 M438.7,839.7c0,2,0.6,3.2,1.6,3.2c1.1,0,1.6-1.3,1.6-3.3c0-1.9-0.5-3.2-1.6-3.2C439.4,836.4,438.7,837.6,438.7,839.7z"/>
	<path class="st3" d="M443.9,843.6v-0.6l0.8-0.8c2-1.9,2.9-2.9,2.9-4.1c0-0.8-0.4-1.5-1.5-1.5c-0.7,0-1.3,0.4-1.7,0.7l-0.3-0.7
		c0.5-0.5,1.3-0.8,2.2-0.8c1.7,0,2.4,1.2,2.4,2.3c0,1.4-1,2.6-2.7,4.2l-0.6,0.6v0h3.5v0.9H443.9z"/>
	<path class="st3" d="M450.1,843.6v-0.6l0.8-0.8c2-1.9,2.9-2.9,2.9-4.1c0-0.8-0.4-1.5-1.5-1.5c-0.7,0-1.3,0.4-1.7,0.7l-0.3-0.7
		c0.5-0.5,1.3-0.8,2.2-0.8c1.7,0,2.4,1.2,2.4,2.3c0,1.4-1,2.6-2.7,4.2l-0.6,0.6v0h3.5v0.9H450.1z"/>
</g>
<g>
	<path class="st3" d="M552.7,843l-3.2-9.7h1.3l1.5,4.8c0.4,1.3,0.8,2.5,1,3.6h0c0.3-1.1,0.7-2.3,1.1-3.6l1.6-4.8h1.3l-3.5,9.7H552.7
		z"/>
	<path class="st3" d="M559.9,833.3v9.7h-1.2v-9.7H559.9z"/>
	<path class="st3" d="M567.1,838.4h-3.8v3.5h4.2v1h-5.4v-9.7h5.2v1h-4v3.1h3.8V838.4z"/>
	<path class="st3" d="M570.8,843l-2.5-9.7h1.3l1.1,4.9c0.3,1.2,0.5,2.4,0.7,3.3h0c0.2-1,0.5-2.1,0.8-3.4l1.3-4.9h1.3l1.2,4.9
		c0.3,1.1,0.5,2.3,0.7,3.3h0c0.2-1.1,0.5-2.1,0.8-3.3l1.3-4.9h1.3l-2.7,9.7h-1.3l-1.2-5c-0.3-1.2-0.5-2.2-0.6-3.2h0
		c-0.2,1-0.4,1.9-0.7,3.2l-1.4,5H570.8z"/>
</g>
<g>
	<path class="st3" d="M725.8,459.1l-0.8,2.5h-1.1l2.7-8.1h1.3l2.8,8.1h-1.1l-0.9-2.5H725.8z M728.4,458.3l-0.8-2.3
		c-0.2-0.5-0.3-1-0.4-1.5h0c-0.1,0.5-0.3,1-0.4,1.5l-0.8,2.3H728.4z"/>
	<path class="st3" d="M731.8,453.6c0.5-0.1,1.2-0.2,1.9-0.2c1,0,1.7,0.2,2.2,0.6c0.4,0.3,0.7,0.8,0.7,1.4c0,0.8-0.5,1.5-1.4,1.8v0
		c0.8,0.2,1.7,0.8,1.7,2c0,0.7-0.3,1.2-0.7,1.6c-0.6,0.5-1.5,0.8-2.8,0.8c-0.7,0-1.3,0-1.6-0.1V453.6z M732.9,457h0.9
		c1.1,0,1.8-0.6,1.8-1.4c0-0.9-0.7-1.3-1.8-1.3c-0.5,0-0.8,0-0.9,0.1V457z M732.9,460.8c0.2,0,0.5,0,0.9,0c1.1,0,2.1-0.4,2.1-1.6
		c0-1.1-0.9-1.6-2.1-1.6h-0.9V460.8z"/>
	<path class="st3" d="M745.2,457.5c0,2.8-1.7,4.3-3.8,4.3c-2.1,0-3.6-1.7-3.6-4.1c0-2.6,1.6-4.2,3.8-4.2
		C743.8,453.4,745.2,455.1,745.2,457.5z M738.9,457.6c0,1.7,0.9,3.3,2.6,3.3c1.7,0,2.6-1.5,2.6-3.4c0-1.6-0.8-3.3-2.6-3.3
		C739.8,454.3,738.9,455.8,738.9,457.6z"/>
	<path class="st3" d="M747.6,453.5v4.8c0,1.8,0.8,2.6,1.9,2.6c1.2,0,2-0.8,2-2.6v-4.8h1.1v4.7c0,2.5-1.3,3.5-3.1,3.5
		c-1.7,0-2.9-0.9-2.9-3.5v-4.8H747.6z"/>
	<path class="st3" d="M755.9,454.4h-2.5v-0.9h6v0.9h-2.5v7.2h-1.1V454.4z"/>
</g>
<g>
	<path class="st4" d="M728,501.4h-4.1v-2.9h11.8v2.9h-4.2v12.4H728V501.4z"/>
	<path class="st4" d="M741,498.5v15.4h-3.5v-15.4H741z"/>
	<path class="st4" d="M747,501.4h-4.1v-2.9h11.8v2.9h-4.2v12.4H747V501.4z"/>
	<path class="st4" d="M756.5,498.5h3.5v12.4h6.1v2.9h-9.6V498.5z"/>
	<path class="st4" d="M777.3,507.3h-5.7v3.6h6.3v2.8h-9.8v-15.4h9.5v2.8h-6v3.2h5.7V507.3z"/>
</g>
<g>
	<path class="st3" d="M393.4,681.4l-0.8,2.5h-1.1l2.7-8.1h1.3l2.8,8.1h-1.1l-0.9-2.5H393.4z M396.1,680.6l-0.8-2.3
		c-0.2-0.5-0.3-1-0.4-1.5h0c-0.1,0.5-0.3,1-0.4,1.5l-0.8,2.3H396.1z"/>
	<path class="st3" d="M399.5,676c0.5-0.1,1.2-0.2,1.9-0.2c1,0,1.7,0.2,2.2,0.6c0.4,0.3,0.7,0.8,0.7,1.4c0,0.8-0.5,1.5-1.4,1.8v0
		c0.8,0.2,1.7,0.8,1.7,2c0,0.7-0.3,1.2-0.7,1.6c-0.6,0.5-1.5,0.8-2.8,0.8c-0.7,0-1.3,0-1.6-0.1V676z M400.5,679.3h0.9
		c1.1,0,1.8-0.6,1.8-1.4c0-0.9-0.7-1.3-1.8-1.3c-0.5,0-0.8,0-0.9,0.1V679.3z M400.5,683.2c0.2,0,0.5,0,0.9,0c1.1,0,2.1-0.4,2.1-1.6
		c0-1.1-0.9-1.6-2.1-1.6h-0.9V683.2z"/>
	<path class="st3" d="M412.9,679.8c0,2.8-1.7,4.3-3.8,4.3c-2.1,0-3.6-1.7-3.6-4.1c0-2.6,1.6-4.2,3.8-4.2
		C411.5,675.7,412.9,677.4,412.9,679.8z M406.6,680c0,1.7,0.9,3.3,2.6,3.3c1.7,0,2.6-1.5,2.6-3.4c0-1.6-0.8-3.3-2.6-3.3
		C407.5,676.6,406.6,678.2,406.6,680z"/>
	<path class="st3" d="M415.3,675.9v4.8c0,1.8,0.8,2.6,1.9,2.6c1.2,0,2-0.8,2-2.6v-4.8h1.1v4.7c0,2.5-1.3,3.5-3.1,3.5
		c-1.7,0-2.9-0.9-2.9-3.5v-4.8H415.3z"/>
	<path class="st3" d="M423.6,676.8h-2.5v-0.9h6v0.9h-2.5v7.2h-1.1V676.8z"/>
</g>
<g>
	<path class="st4" d="M395.7,709.9h-4.1V707h11.8v2.9h-4.2v12.4h-3.5V709.9z"/>
	<path class="st4" d="M408.7,707v15.4h-3.5V707H408.7z"/>
	<path class="st4" d="M414.7,709.9h-4.1V707h11.8v2.9h-4.2v12.4h-3.5V709.9z"/>
	<path class="st4" d="M424.2,707h3.5v12.4h6.1v2.9h-9.6V707z"/>
	<path class="st4" d="M445,715.9h-5.7v3.6h6.3v2.8h-9.8V707h9.5v2.8h-6v3.2h5.7V715.9z"/>
</g>
<g>
	<path class="st3" d="M56.1,851.7l-0.8,2.5h-1.1l2.7-8.1h1.3l2.8,8.1h-1.1l-0.9-2.5H56.1z M58.7,850.9l-0.8-2.3
		c-0.2-0.5-0.3-1-0.4-1.5h0c-0.1,0.5-0.3,1-0.4,1.5l-0.8,2.3H58.7z"/>
	<path class="st3" d="M62.1,846.3c0.5-0.1,1.2-0.2,1.9-0.2c1,0,1.7,0.2,2.2,0.6c0.4,0.3,0.7,0.8,0.7,1.4c0,0.8-0.5,1.5-1.4,1.8v0
		c0.8,0.2,1.7,0.8,1.7,2c0,0.7-0.3,1.2-0.7,1.6c-0.6,0.5-1.5,0.8-2.8,0.8c-0.7,0-1.3,0-1.6-0.1V846.3z M63.1,849.6h0.9
		c1.1,0,1.8-0.6,1.8-1.4c0-0.9-0.7-1.3-1.8-1.3c-0.5,0-0.8,0-0.9,0.1V849.6z M63.1,853.5c0.2,0,0.5,0,0.9,0c1.1,0,2.1-0.4,2.1-1.6
		c0-1.1-0.9-1.6-2.1-1.6h-0.9V853.5z"/>
	<path class="st3" d="M75.5,850.2c0,2.8-1.7,4.3-3.8,4.3c-2.1,0-3.6-1.7-3.6-4.1c0-2.6,1.6-4.2,3.8-4.2
		C74.1,846.1,75.5,847.8,75.5,850.2z M69.2,850.3c0,1.7,0.9,3.3,2.6,3.3c1.7,0,2.6-1.5,2.6-3.4c0-1.6-0.8-3.3-2.6-3.3
		C70.1,846.9,69.2,848.5,69.2,850.3z"/>
	<path class="st3" d="M77.9,846.2v4.8c0,1.8,0.8,2.6,1.9,2.6c1.2,0,2-0.8,2-2.6v-4.8h1.1v4.7c0,2.5-1.3,3.5-3.1,3.5
		c-1.7,0-2.9-0.9-2.9-3.5v-4.8H77.9z"/>
	<path class="st3" d="M86.2,847.1h-2.5v-0.9h6v0.9h-2.5v7.2h-1.1V847.1z"/>
</g>
<path class="st3" d="M261.6,388.1H68.2v-10h193.4V388.1z M261.6,400.4H68.2v10h193.4V400.4z M261.6,424.6H68.2v10h193.4V424.6z
	 M261.6,449.1H68.2v10h193.4V449.1z M226.8,473H68.2v10h158.5V473z M584.6,753.7H391.2v10h193.4V753.7z M584.6,775.9H391.2v10h193.4
	V775.9z M549.8,801.4H391.2v10h158.5V801.4z M591.6,164.2H398.2v10h193.4V164.2z M591.6,186.5H398.2v10h193.4V186.5z M591.6,210.7
	H398.2v10h193.4V210.7z M591.6,235.3H398.2v10h193.4V235.3z M556.8,259.1H398.2v10h158.5V259.1z M513.4,280.3H398.2v10h115.2V280.3z
	 M918.8,554.2H725.5v10h193.4V554.2z M918.8,576.5H725.5v10h193.4V576.5z M918.8,600.7H725.5v10h193.4V600.7z M918.8,625.3H725.5v10
	h193.4V625.3z M918.8,649.1H725.5v10h193.4V649.1z M918.8,670.3H725.5v10h193.4V670.3z M889.9,696.6H725.5v10h164.5V696.6z
	 M849.6,721.2H725.5v10h124.1V721.2z M820.8,745h-95.3v10h95.3V745z M798,766.2h-72.5v10H798V766.2z"/>
<g>
	<path class="st3" d="M731.2,829.4c0,2.7-1,4.1-2.7,4.1c-1.5,0-2.6-1.4-2.6-4c0-2.6,1.1-4.1,2.7-4.1
		C730.3,825.5,731.2,826.9,731.2,829.4z M727,829.5c0,2,0.6,3.2,1.6,3.2c1.1,0,1.6-1.3,1.6-3.3c0-1.9-0.5-3.2-1.6-3.2
		C727.6,826.3,727,827.4,727,829.5z"/>
	<path class="st3" d="M734.5,826.6L734.5,826.6l-1.4,0.7l-0.2-0.8l1.7-0.9h0.9v7.8h-1V826.6z"/>
	<path class="st3" d="M737.8,833.9l3.3-8.7h0.8l-3.4,8.7H737.8z"/>
	<path class="st3" d="M747.6,829.4c0,2.7-1,4.1-2.7,4.1c-1.5,0-2.6-1.4-2.6-4c0-2.6,1.1-4.1,2.7-4.1
		C746.7,825.5,747.6,826.9,747.6,829.4z M743.4,829.5c0,2,0.6,3.2,1.6,3.2c1.1,0,1.6-1.3,1.6-3.3c0-1.9-0.5-3.2-1.6-3.2
		C744.1,826.3,743.4,827.4,743.4,829.5z"/>
	<path class="st3" d="M750.9,826.6L750.9,826.6l-1.4,0.7l-0.2-0.8l1.7-0.9h0.9v7.8h-1V826.6z"/>
	<path class="st3" d="M754.2,833.9l3.3-8.7h0.8l-3.4,8.7H754.2z"/>
	<path class="st3" d="M758.9,833.4v-0.6l0.8-0.8c2-1.9,2.9-2.9,2.9-4.1c0-0.8-0.4-1.5-1.5-1.5c-0.7,0-1.3,0.4-1.7,0.7l-0.3-0.7
		c0.5-0.5,1.3-0.8,2.2-0.8c1.7,0,2.4,1.2,2.4,2.3c0,1.4-1,2.6-2.7,4.2l-0.6,0.6v0h3.5v0.9H758.9z"/>
	<path class="st3" d="M770.2,829.4c0,2.7-1,4.1-2.7,4.1c-1.5,0-2.6-1.4-2.6-4c0-2.6,1.1-4.1,2.7-4.1
		C769.3,825.5,770.2,826.9,770.2,829.4z M766,829.5c0,2,0.6,3.2,1.6,3.2c1.1,0,1.6-1.3,1.6-3.3c0-1.9-0.5-3.2-1.6-3.2
		C766.7,826.3,766,827.4,766,829.5z"/>
	<path class="st3" d="M771.2,833.4v-0.6l0.8-0.8c2-1.9,2.9-2.9,2.9-4.1c0-0.8-0.4-1.5-1.5-1.5c-0.7,0-1.3,0.4-1.7,0.7l-0.3-0.7
		c0.5-0.5,1.3-0.8,2.2-0.8c1.7,0,2.4,1.2,2.4,2.3c0,1.4-1,2.6-2.7,4.2l-0.6,0.6v0h3.5v0.9H771.2z"/>
	<path class="st3" d="M777.3,833.4v-0.6l0.8-0.8c2-1.9,2.9-2.9,2.9-4.1c0-0.8-0.4-1.5-1.5-1.5c-0.7,0-1.3,0.4-1.7,0.7l-0.3-0.7
		c0.5-0.5,1.3-0.8,2.2-0.8c1.7,0,2.4,1.2,2.4,2.3c0,1.4-1,2.6-2.7,4.2l-0.6,0.6v0h3.5v0.9H777.3z"/>
</g>
<g>
	<path class="st3" d="M880,832.8l-3.2-9.7h1.3l1.5,4.8c0.4,1.3,0.8,2.5,1,3.6h0c0.3-1.1,0.7-2.3,1.1-3.6l1.6-4.8h1.3l-3.5,9.7H880z"
		/>
	<path class="st3" d="M887.1,823.1v9.7h-1.2v-9.7H887.1z"/>
	<path class="st3" d="M894.3,828.3h-3.8v3.5h4.2v1h-5.4v-9.7h5.2v1h-4v3.1h3.8V828.3z"/>
	<path class="st3" d="M898.1,832.8l-2.5-9.7h1.3l1.1,4.9c0.3,1.2,0.5,2.4,0.7,3.3h0c0.2-1,0.5-2.1,0.8-3.4l1.3-4.9h1.3l1.2,4.9
		c0.3,1.1,0.5,2.3,0.7,3.3h0c0.2-1.1,0.5-2.1,0.8-3.3l1.3-4.9h1.3l-2.7,9.7h-1.3l-1.2-5c-0.3-1.2-0.5-2.2-0.6-3.2h0
		c-0.2,1-0.4,1.9-0.7,3.2l-1.4,5H898.1z"/>
</g>
<path class="st3" d="M263.8,523.6c4,0,5.4,0,9.4,0c-1.4-1.2-2.7-2.3-4.1-3.4c0.1-0.1,0.2-0.3,0.4-0.4c0.7,0.6,1.4,1.2,2.1,1.8
	c0.9,0.7,1.7,1.4,2.6,2.2c0.1,0,0.1,0.1,0.2,0.1c0,0,0,0,0,0.1c-1.6,1.3-3.1,2.6-4.7,3.9c-0.1,0.1-0.1,0.1-0.2,0.2
	c-0.1-0.1-0.2-0.3-0.3-0.4c1.4-1.1,2.7-2.2,4.1-3.4c-4,0-5.5,0-9.4,0C263.8,523.9,263.8,523.7,263.8,523.6z M274.9,535.5h-56.3v0.8
	h56.3V535.5z M593.8,331.8c4,0,5.4,0,9.4,0c-1.4-1.2-2.7-2.3-4.1-3.4c0.1-0.1,0.2-0.3,0.4-0.4c0.7,0.6,1.4,1.2,2.1,1.8
	c0.9,0.7,1.7,1.4,2.6,2.2c0.1,0,0.1,0.1,0.2,0.1c0,0,0,0,0,0.1c-1.6,1.3-3.1,2.6-4.7,3.9c-0.1,0.1-0.1,0.1-0.2,0.2
	c-0.1-0.1-0.2-0.3-0.3-0.4c1.4-1.1,2.7-2.2,4.1-3.4c-4,0-5.5,0-9.4,0C593.8,332.1,593.8,332,593.8,331.8z M604.9,343.7h-56.3v0.8
	h56.3V343.7z M593.8,838.6c4,0,5.4,0,9.4,0c-1.4-1.2-2.7-2.3-4.1-3.4c0.1-0.1,0.2-0.3,0.4-0.4c0.7,0.6,1.4,1.2,2.1,1.8
	c0.9,0.7,1.7,1.4,2.6,2.2c0.1,0,0.1,0.1,0.2,0.1c0,0,0,0,0,0.1c-1.6,1.3-3.1,2.6-4.7,3.9c-0.1,0.1-0.1,0.1-0.2,0.2
	c-0.1-0.1-0.2-0.3-0.3-0.4c1.4-1.1,2.7-2.2,4.1-3.4c-4,0-5.5,0-9.4,0C593.8,839,593.8,838.8,593.8,838.6z M604.9,850.5h-56.3v0.8
	h56.3V850.5z M921.1,828.4c4,0,5.4,0,9.4,0c-1.4-1.2-2.7-2.3-4.1-3.4c0.1-0.1,0.2-0.3,0.4-0.4c0.7,0.6,1.4,1.2,2.1,1.8
	c0.9,0.7,1.7,1.4,2.6,2.2c0.1,0,0.1,0.1,0.2,0.1c0,0,0,0,0,0.1c-1.6,1.3-3.1,2.6-4.7,3.9c-0.1,0.1-0.1,0.1-0.2,0.2
	c-0.1-0.1-0.2-0.3-0.3-0.4c1.4-1.1,2.7-2.2,4.1-3.4c-4,0-5.5,0-9.4,0C921.1,828.8,921.1,828.6,921.1,828.4z M932.1,840.3h-56.3v0.8
	h56.3V840.3z"/>
</svg>
