<svg id="Layer_1" data-name="Layer 1" xmlns="http://www.w3.org/2000/svg" viewBox="0 0 640 400"><defs><style>.cls-1{fill:#0073a5;}.cls-2{fill:#fff;}</style></defs><title>amex</title><path class="cls-1" d="M640,379.09a21.3,21.3,0,0,1-21.3,21.29H22.27A21.29,21.29,0,0,1,1,379.09V22.29A21.29,21.29,0,0,1,22.27,1H618.7A21.3,21.3,0,0,1,640,22.29Z"/><path class="cls-2" d="M199.24,191.39V185l-3.05,6.39H169.73l-3.32-6.86v6.86H116.95l-5.84-13.83H101.2L95,191.39H69.36V149.64l18.8-42.53h36l5.05,12.05v-12h44l9.68,20.29,9.47-20.38h139s7.28-.1,12.08,3.27l0-3.27h35v4.61a28.51,28.51,0,0,1,15.6-4.61h61.77l5.42,12.23V107.11h39.58l7.18,12.23V107.11h37.84v84.36H506.91l-9.13-14.71v14.63H449.46l-6.8-15.07h-9.47l-6.37,15.07H397.57s-10.91-.14-19.09-6v6H320.27V171.71c0-2.86-2.19-2.66-2.19-2.66h-2.13v22.34Z"/><path class="cls-2" d="M170.18,209.66h76.5l11,12.5L269,209.66h58.82a27.05,27.05,0,0,1,10.77,2.94v-2.94H391A26.72,26.72,0,0,1,403.22,213v-3.32h67.33v3.06a22.86,22.86,0,0,1,11.24-3.06h43.86v3.06A26.8,26.8,0,0,1,537,209.66h34.44v79.5s-4.53,5.12-13.89,5.12h-45.4v-2.53a23.3,23.3,0,0,1-10.91,2.53H380.64V273.74c0-2-.88-2.39-2.68-2.39H376.3v22.94H338.61v-22.8a25.36,25.36,0,0,1-11.16,2.25H313.89v20.55H267.43l-10.57-12.9-11.3,12.9H170.18Z"/><polygon class="cls-1" points="411.3 222.35 459.31 222.35 459.31 235.23 425.99 235.23 425.99 246.45 458.37 246.45 458.37 257.79 425.99 257.79 425.99 269.61 459.31 269.61 459.31 282.16 411.3 282.16 411.3 222.35"/><path class="cls-1" d="M552.06,245.65c18,.93,19.55,9.94,19.55,19.55,0,11.2-9.21,17.22-18.83,17.22H521.94V269.61h24c4.08,0,10.15,0,10.15-5.74,0-2.73-1.06-4.47-5.4-4.93-1.93-.28-9.06-.68-10.15-.7-16.3-.43-20.1-8.54-20.1-18.41,0-11.21,7.88-17.34,17.5-17.34H568.8v12.82H546.24c-5.13,0-10.68-.61-10.68,5.19,0,3.67,2.74,4.41,6.21,4.75C543,245.25,551,245.66,552.06,245.65Z"/><path class="cls-1" d="M496.76,245.65c18.05.93,19.56,9.94,19.56,19.55,0,11.2-9.2,17.22-18.83,17.22H466.66V269.61h24c4.07,0,10.15,0,10.15-5.74,0-2.73-1.07-4.47-5.41-4.93-1.93-.28-9.07-.68-10.14-.7-16.32-.43-20.09-8.54-20.09-18.41,0-11.21,7.87-17.34,17.48-17.34h30.84v12.82H491c-5.14,0-10.69-.61-10.69,5.19,0,3.67,2.75,4.41,6.22,4.75C487.69,245.25,495.7,245.66,496.76,245.65Z"/><path class="cls-1" d="M322.65,222.48H271.11L254.29,241,238,222.35H180.12v59.81h56l17.63-19.76L271,282.3h28.18V262h19.75c7.61,0,21.5-.26,21.5-21.22C340.41,225.81,329.86,222.48,322.65,222.48Zm-94.18,47.13H194.6V257.79H227V246.45H194.6V235.23l35.71.08,14.3,16.28Zm56.13,6.95-21.1-25,21.1-23.36Zm33.11-26.88H299.41V235.32h18.35c6.15,0,8.09,3.94,8.09,6.88C325.85,246.2,323.71,249.67,317.7,249.67Z"/><path class="cls-1" d="M393.58,255.06c8-4,10.15-9.34,10.15-16.56,0-12.81-10.41-16-17.62-16H347.93V282.3h14.69V261.2h19.22c5.07,0,7.07,5.07,7.2,10.15l.39,11h14.3L403.2,270C403.2,260.39,400.54,255.85,393.58,255.06Zm-12.68-6.19H362.62V235.32H381c6.14,0,8.08,3.94,8.08,6.88C389,246.19,386.92,248.87,380.91,248.87Z"/><rect class="cls-1" x="353.81" y="119.09" width="14.69" height="59.88"/><polygon class="cls-1" points="233.6 119.16 281.59 119.16 281.59 132.04 248.29 132.04 248.29 143.26 280.65 143.26 280.65 154.61 248.29 154.61 248.29 166.42 281.59 166.42 281.59 178.98 233.6 178.98 233.6 119.16"/><path class="cls-1" d="M336,151.73c8-4,10.15-9.34,10.15-16.56,0-12.82-10.42-16-17.62-16H290.31V179H305v-21.1h19.22c5.07,0,7.09,5.06,7.21,10.14l.4,11h14.29l-.53-12.29C345.59,157.07,342.92,152.54,336,151.73Zm-12.69-6.19H305V132h18.36c6.13,0,8.08,3.94,8.08,6.88C331.43,142.88,329.29,145.54,323.28,145.54Z"/><path class="cls-1" d="M199.73,119.16l-18,40.12-18-40.12h-23v57.6l-25.63-57.6H95.65L69.48,179H85l5.73-13.35H120L125.83,179H155.4v-44.4L175,179h13.35l20.09-43.66V179h14.69V119.16ZM96.26,152.72,105,131.81l9.12,20.91Z"/><path class="cls-1" d="M520,119.13v41.41l-24.77-41.41h-21.7V175.3l-25-56.14H429.12l-20.23,46.33s-8.55,0-9.41-.21c-3.53-.73-9.06-3.22-9.13-13.77v-4.34c0-14,7.61-15,17.37-15h9.06v-13H397.6c-6.68,0-21.2,5.09-21.69,29.66-.34,16.56,6.88,30.21,23.17,30.21h19.36l5.73-13.35h29.3L459.29,179h29V135.2L514.69,179h20V119.13Zm-90.2,33.61,8.75-20.91,9.21,20.91Z"/></svg>