<?xml version="1.0" encoding="utf-8"?>
<!-- Generator: Adobe Illustrator 21.0.0, SVG Export Plug-In . SVG Version: 6.00 Build 0)  -->
<svg version="1.1" id="Layer_1" xmlns="http://www.w3.org/2000/svg" xmlns:xlink="http://www.w3.org/1999/xlink" x="0px" y="0px"
	 viewBox="0 0 640 400" style="enable-background:new 0 0 640 400;" xml:space="preserve">
<style type="text/css">
	.st0{fill:#231F20;}
	.st1{fill-rule:evenodd;clip-rule:evenodd;fill:#FFFFFF;}
</style>
<g>
	<path class="st0" d="M640,378.7c0,11.8-9.6,21.3-21.3,21.3H21.3C9.5,400,0,390.4,0,378.7V21.3C0,9.5,9.5,0,21.3,0h597.3
		C630.4,0,640,9.5,640,21.3V378.7z"/>
	<g>
		<path class="st1" d="M308.7,164h19.9c0,0,19.7-0.4,19.5,17.5c-0.2,13.3-19.1,15.3-19.1,15.3h-20.3V164L308.7,164z M368.1,228.2
			c0.6,2.6,2.4,5.5,8.7,5.8c8.4,0.2,13.1-3,13.1-3v6.1c0,0-9.1,2.2-13.5,2.2c-4.6,0-18.1-1-18.1-13.5c0-10.1,11.1-13.3,17.5-13.3
			c11.1,0.4,16.5,4.4,16.3,15.7C392.1,228.4,373.8,228.3,368.1,228.2L368.1,228.2z M368.2,223.3h15.2c0,0,0-5.8-7.4-5.8
			C370.5,217.5,368.7,220.5,368.2,223.3L368.2,223.3z M416.4,217c2.2-2.4,5.9-4.3,12.1-4.3c12.3,0,14.3,10.3,14.1,13.1
			c-0.2,2.8-1.2,13.3-15.5,13.3c-5.4,0-8.7-1.8-10.7-4.1v3.3h-9.7v-35.8h9.7V217L416.4,217z M424.7,233.6c5.8-0.2,8.4-5.2,8.4-7.6
			c0-2.4-1.4-7.3-8.7-7.3c-5.7,0-7.4,4.3-7.9,6.4v2.6C416.9,229.8,418.6,233.6,424.7,233.6L424.7,233.6z M508.8,232.6l0.2,5.6
			c0,0-4.6,1-7.6,1c-3,0-10.7-1.8-10.7-9.3c0-3.1,0-7.4,0-11.5h-8.1v-5.2h8.1c0-3.6,0-6.2,0-6.2h9.9v6.2h8.2v5.2h-8.2v9.9
			c0,0,0,5,4,5C508.6,233.2,508.8,232.6,508.8,232.6L508.8,232.6z M478.6,169.4h11.5V197h9.7v-27.6h11.7v-5.8h-33V169.4L478.6,169.4
			z M474.6,170.8l1.2-5.8c0,0-5-2.2-13.7-2.2c-8.6,0-22.3,4.8-22.3,17.7c0,12.7,14.5,17.1,23.5,17.1c8.9,0,11.9-1.4,11.9-1.4l-1-6.4
			c0,0-4,1.2-10.7,1.2c-6.6-0.2-13.3-5.4-13.3-11.1c0.2-5.2,6.2-10.9,13.9-10.9C470.1,169,474.6,170.8,474.6,170.8L474.6,170.8z
			 M386.8,163.8c0,0,16.3-0.8,16.3,8.7c0,8.1-9.3,8.8-9.3,8.8s2.6,0.4,3.8,2.2c1,1.6,7.6,13.5,7.6,13.5h-9.9c0,0-1.6-2-2.4-3.4
			c-0.6-1.4-2.4-4.4-2.4-4.4s-1.4-5-6.2-5c-0.1,0-2.1-0.1-3.6-0.1V197h-9.5v-33.2H386.8L386.8,163.8z M380.6,178.7h5.2
			c0,0,7.2-0.4,7.6-4.8c0.2-4.2-7-4.8-7-4.8h-5.8V178.7L380.6,178.7z M420.6,183.9h15.9v-6.2h-15.9v-7.6h17.3v-6.3h-27V197h27.2v-6
			h-17.5V183.9L420.6,183.9z M459.3,209.3h9.7v-6.8h-9.7V209.3L459.3,209.3z M459.3,238.4h9.7v-25.2h-9.7V238.4L459.3,238.4z
			 M353.2,197h9.5v-33.2h-9.5V197L353.2,197z M308.7,205.4h19.9c0,0,19.7-0.4,19.5,17.5c-0.2,13.3-19.1,15.3-19.1,15.3h-20.3V205.4
			L308.7,205.4z M318.4,232h6.4c0,0,13.1-0.8,13.1-10.9c0-10.1-13.9-11.1-13.9-11.1h-5.6V232L318.4,232z M318.4,190.7h6.4
			c0,0,13.1-1,13.1-10.9c0-10.3-13.9-11.1-13.9-11.1h-5.6V190.7L318.4,190.7z"/>
		<path class="st1" d="M219.4,183.8v66.5c0,0-38.6-7-38.6-33.4C180.9,195.8,209.4,186.5,219.4,183.8L219.4,183.8z M219.4,182.5
			c-23.2-1.7-75.7,9.2-75.7,33c0,15.5,27.8,38.2,73.1,38.8c1.8,0,53.3-2,52.5-57.2c-0.7-46.4-35.4-54.5-46.5-55.9v-2.8
			c44.3,2.8,79.1,29.4,79.1,61.8c0,34.2-39,62-86.9,62c-47.9,0-86.7-27.8-86.7-62c0-34.2,38.7-62,86.7-62c1.5,0,2.9,0,4.4,0.1V182.5
			L219.4,182.5z"/>
	</g>
</g>
</svg>
