<svg id="Layer_1" data-name="Layer 1" xmlns="http://www.w3.org/2000/svg" viewBox="0 0 640 400"><defs><style>.cls-1{fill:#110f0f;}.cls-2{fill:#fff;}</style></defs><title>diners</title><path class="cls-1" d="M640,378.66A21.34,21.34,0,0,1,618.66,400H21.33A21.33,21.33,0,0,1,0,378.66V21.33A21.32,21.32,0,0,1,21.33,0H618.66A21.33,21.33,0,0,1,640,21.33Z"/><path class="cls-2" d="M335.31,218.17c36.17.17,69.17-29.48,69.17-65.58,0-39.46-33-66.73-69.17-66.72H304.17c-36.58,0-66.71,27.26-66.71,66.72,0,36.1,30.13,65.75,66.71,65.58Z"/><path class="cls-1" d="M318.07,187.73V116.08a38.36,38.36,0,0,1,0,71.66m-52.12-35.83a38.46,38.46,0,0,1,24.64-35.83v71.65a38.45,38.45,0,0,1-24.64-35.82m38.38-60.57a60.56,60.56,0,1,0,60.56,60.57,60.58,60.58,0,0,0-60.56-60.57"/><path class="cls-2" d="M169.81,263.31c0,5.39,3.86,6,7.28,6,15.11,0,20.08-11.4,20.08-21.82,0-13.08-8.4-22.52-21.89-22.52-2.87,0-4.2.2-5.46.28ZM163,230.51c0-6.29-3.29-5.87-6.44-5.94v-1.82c2.73.14,5.53.14,8.26.14,2.93,0,6.92-.14,12.1-.14,18.11,0,28,12.09,28,24.48,0,6.92-4.06,24.34-28.81,24.34-3.57,0-6.86-.14-10.14-.14s-6.23.07-9.38.14v-1.81c4.2-.42,6.23-.56,6.44-5.32Z"/><path class="cls-2" d="M214.79,228.84a3.43,3.43,0,0,1,0-6.87,3.42,3.42,0,0,1,3.42,3.37,3.49,3.49,0,0,1-3.42,3.5m-7.48,40.92h1.33c2,0,3.36,0,3.36-2.31v-19c0-3.07-1-3.5-3.64-4.89v-1.12c3.28-1,7.21-2.31,7.48-2.51a2.39,2.39,0,0,1,1.26-.36c.35,0,.49.42.49,1v26.85c0,2.31,1.53,2.31,3.5,2.31h1.2v1.81c-2.38,0-4.83-.14-7.34-.14s-5,.07-7.62.14Z"/><path class="cls-2" d="M228.91,248.9c0-2.58-.78-3.28-4-4.61V243a92,92,0,0,0,9.22-3.36c.22,0,.42.15.42.7v4.54c4-2.86,7.42-5.24,12.12-5.24,5.94,0,8,4.34,8,9.79v18c0,2.31,1.54,2.31,3.5,2.31h1.27v1.81c-2.46,0-4.91-.14-7.41-.14s-5,.07-7.55.14v-1.81h1.25c2,0,3.36,0,3.36-2.31V249.33c0-4-2.43-5.95-6.43-5.95-2.23,0-5.8,1.82-8.12,3.37v20.69c0,2.31,1.55,2.31,3.51,2.31h1.26v1.81c-2.44,0-4.89-.14-7.41-.14s-5,.07-7.55.14v-1.81h1.27c2,0,3.35,0,3.35-2.31Z"/><path class="cls-2" d="M277.11,250c1.75,0,2-.91,2-1.75,0-3.57-2.16-6.44-6.08-6.44-4.27,0-7.21,3.15-8,8.19Zm-12.38,2.24a17.66,17.66,0,0,0,0,4.05c.42,6.65,4.69,12.1,10.27,12.1,3.86,0,6.87-2.1,9.45-4.68l1,1c-3.22,4.27-7.21,7.9-12.94,7.9-11.12,0-13.36-10.77-13.36-15.24,0-13.72,9.23-17.77,14.13-17.77,5.67,0,11.76,3.57,11.82,11a8.88,8.88,0,0,1-.06,1.26l-.64.42Z"/><path class="cls-2" d="M286.69,269.75h1.88c2,0,3.36,0,3.36-2.31V247.79c0-2.17-2.58-2.59-3.64-3.15v-1c5.1-2.17,7.9-4,8.54-4,.41,0,.62.21.62.92v6.29h.15c1.74-2.73,4.68-7.21,8.95-7.21a3.81,3.81,0,0,1,4,3.7,3.39,3.39,0,0,1-3.29,3.57c-2.17,0-2.17-1.68-4.62-1.68a5.9,5.9,0,0,0-5.09,5.81v16.43c0,2.31,1.4,2.31,3.36,2.31h3.91v1.81c-3.85-.07-6.78-.14-9.79-.14s-5.8.07-8.32.14Z"/><path class="cls-2" d="M313.62,261.85c.91,4.62,3.71,8.54,8.81,8.54,4.13,0,5.66-2.52,5.66-5,0-8.25-15.24-5.6-15.24-16.86,0-3.92,3.14-9,10.84-9a18.45,18.45,0,0,1,8,2l.49,7.13h-1.61c-.7-4.4-3.15-6.91-7.62-6.91-2.8,0-5.45,1.61-5.45,4.61,0,8.19,16.22,5.66,16.22,16.64,0,4.62-3.71,9.51-12,9.51a18.41,18.41,0,0,1-8.53-2.37l-.77-8Z"/><path class="cls-2" d="M396.86,235.4H395.1c-1.33-8.18-7.14-11.47-15-11.47-8,0-19.73,5.38-19.73,22.17,0,14.13,10.09,24.27,20.85,24.27,6.93,0,12.67-4.75,14.07-12.1l1.6.42-1.6,10.21c-2.95,1.83-10.85,3.7-15.47,3.7-16.36,0-26.71-10.55-26.71-26.29,0-14.34,12.8-24.62,26.5-24.62,5.66,0,11.12,1.82,16.51,3.71Z"/><path class="cls-2" d="M399.38,269.75h1.33c2,0,3.36,0,3.36-2.31v-39c0-4.55-1-4.69-3.72-5.46v-1.12a43.67,43.67,0,0,0,7.22-3,7,7,0,0,1,1.53-.77c.42,0,.56.42.56,1v48.33c0,2.31,1.55,2.31,3.51,2.31h1.18v1.81c-2.37,0-4.82-.14-7.33-.14s-5,.07-7.62.14Z"/><path class="cls-2" d="M444.28,267.72c0,1.27.77,1.33,2,1.33.84,0,1.88-.06,2.8-.06v1.47A72.48,72.48,0,0,0,439,272.62l-.35-.2v-5.66c-4.2,3.43-7.41,5.87-12.39,5.87-3.78,0-7.69-2.44-7.69-8.31V246.39c0-1.82-.27-3.57-4.19-3.91v-1.33c2.51-.07,8.1-.49,9-.49s.78.49.78,2v18c0,2.1,0,8.11,6.08,8.11,2.37,0,5.52-1.82,8.46-4.26V245.76c0-1.4-3.36-2.16-5.87-2.86v-1.26c6.29-.42,10.2-1,10.9-1s.57.49.57,1.27Z"/><path class="cls-2" d="M458.19,263.67c0,2.66,2.52,7.14,7.21,7.14,7.49,0,10.62-7.35,10.62-13.58,0-7.55-5.73-13.84-11.18-13.84-2.59,0-4.75,1.68-6.65,3.29Zm0-19c2.8-2.38,6.58-5,10.42-5,8.11,0,13,7.07,13,14.69,0,9.16-6.72,18.32-16.71,18.32a20.72,20.72,0,0,1-9.73-2.44l-2.09,1.6-1.46-.77a83.07,83.07,0,0,0,1-12.45V228.49c0-4.55-1.06-4.69-3.71-5.46v-1.12a44.27,44.27,0,0,0,7.21-3,6.68,6.68,0,0,1,1.54-.76c.42,0,.55.42.55,1Z"/><path class="cls-2" d="M156.44,312.24H157c1.37,0,2.81-.19,2.81-2.18V290.14c0-2-1.45-2.18-2.81-2.18h-.54v-1.14c1.5,0,3.78.15,5.64.15s4.19-.15,6-.15V288h-.53c-1.37,0-2.82.19-2.82,2.18v19.93c0,2,1.45,2.18,2.82,2.18h.53v1.15c-1.82,0-4.11-.16-6-.16s-4.11.16-5.6.16Z"/><path class="cls-2" d="M167.89,313.22v-.81h-.37c-1.36,0-3-.23-3-2.34V290.14c0-2.11,1.63-2.34,3-2.34h.37V287c-1.76,0-4,.15-5.81.15s-4-.15-5.47-.15v.81H157c1.36,0,3,.24,3,2.34v19.93c0,2.11-1.61,2.34-3,2.34h-.36v.81c1.48,0,3.63-.15,5.43-.15s4.06.15,5.85.15m.16.32c-1.83,0-4.11-.15-6-.15s-4.1.15-5.6.15h-.16v-1.47H157c1.4,0,2.64-.14,2.65-2V290.14c0-1.87-1.26-2-2.65-2h-.69v-1.47h.16c1.51,0,3.78.15,5.64.15s4.18-.15,6-.15h.17v1.47h-.7c-1.38,0-2.65.14-2.65,2v19.93c0,1.87,1.28,2,2.65,2h.7v1.47Z"/><path class="cls-2" d="M194.2,305.89l.07-.08V291.54c0-3.12-2.16-3.58-3.31-3.58h-.84v-1.14c1.78,0,3.54.15,5.33.15,1.55,0,3.12-.15,4.67-.15V288h-.57c-1.6,0-3.39.3-3.39,4.83v17.32a24.93,24.93,0,0,0,.23,3.84H195l-19.6-21.85v15.68c0,3.32.65,4.46,3.58,4.46h.65v1.15c-1.63,0-3.27-.16-4.91-.16s-3.46.16-5.17.16v-1.15H170c2.62,0,3.42-1.79,3.42-4.83v-16A3.41,3.41,0,0,0,170,288h-.5v-1.14c1.45,0,2.93.15,4.37.15,1.16,0,2.25-.15,3.4-.15Z"/><path class="cls-2" d="M194.12,305.81h0l0,0Zm.08.08.12-.11Zm.76,7.9h1.27a24.32,24.32,0,0,1-.21-3.67V292.79c0-4.56,1.91-5,3.55-5H200V287c-1.5,0-3,.15-4.51.15-1.74,0-3.45-.15-5.16-.15v.81H191c1.17,0,3.48.52,3.48,3.75l-.05,14.39-.08.07-.13.12L177.26,287c-1.13,0-2.23.15-3.4.15-1.39,0-2.82-.15-4.2-.15v.81H170a3.59,3.59,0,0,1,3.63,3.59v16c0,3-.85,5-3.59,5h-.37v.82c1.64,0,3.35-.15,5-.15s3.18.14,4.74.15v-.81h-.48c-3,0-3.74-1.31-3.74-4.62V291.68Zm1.45.33-1.56-.05-19.32-21.53v15.25c.05,3.32.55,4.25,3.42,4.29h.82v1.47h-.17c-1.64,0-3.28-.15-4.91-.15s-3.45.15-5.17.15h-.17v-1.47H170c2.51,0,3.23-1.63,3.27-4.66v-16a3.27,3.27,0,0,0-3.31-3.26h-.67v-1.46h.17c1.46,0,2.94.14,4.37.14,1.14,0,2.24-.14,3.53-.09l16.73,18.83v-14c0-3-2.05-3.39-3.16-3.42h-1v-1.46h.17c1.79,0,3.55.14,5.33.14,1.55,0,3.11-.14,4.67-.14h.17v1.46h-.74c-1.57,0-3.18.18-3.22,4.66v17.33a25.66,25.66,0,0,0,.21,3.81l0,.19Z"/><path class="cls-2" d="M205.84,288.72c-2.86,0-3,.68-3.54,3.46h-1.15c.15-1.06.34-2.13.47-3.23a24.7,24.7,0,0,0,.22-3.23h.91c.31,1.14,1.26,1.1,2.29,1.1h19.63c1,0,2,0,2.05-1.18l.92.15c-.15,1-.31,2.06-.42,3.08s-.07,2.06-.07,3.08l-1.15.43c-.08-1.41-.27-3.66-2.82-3.66H217V309c0,2.93,1.34,3.27,3.16,3.27h.72v1.15c-1.48,0-4.15-.16-6.2-.16-2.28,0-4.94.16-6.43.16v-1.15h.72c2.1,0,3.16-.19,3.16-3.2V288.72Z"/><path class="cls-2" d="M220.84,313.54c-1.49,0-4.16-.15-6.21-.15-2.28,0-4.93.15-6.43.15H208v-1.47h.89c2.1,0,2.94-.07,3-3V288.88h-6.07v-.33h6.4V309c0,3.05-1.23,3.36-3.32,3.36h-.56v.8c1.5,0,4.06-.15,6.27-.15,2,0,4.53.14,6,.15v-.8h-.56c-1.84,0-3.32-.45-3.32-3.44V288.55h6.41c2.54,0,2.88,2.18,3,3.59l.83-.3c0-1,0-2,.08-3s.24-1.95.39-2.92l-.58-.1c-.18,1.11-1.25,1.16-2.21,1.15H204.85c-.9,0-1.87,0-2.21-1.1H202a24.15,24.15,0,0,1-.23,3.08c-.11,1-.28,2-.42,3.06h.81c.51-2.65.83-3.51,3.68-3.48v.33c-2.82.05-2.76.52-3.39,3.34l0,.13H201l0-.2c.15-1.07.35-2.13.46-3.24a21.38,21.38,0,0,0,.23-3.2v-.16h1.22l0,.11c.26,1,1,1,1.93,1h19.82c1.07,0,1.83,0,1.9-1v-.17l.18,0,1.08.17,0,.16c-.15,1-.3,2-.42,3.07s-.07,2-.07,3.07v.11l-.11,0-1.35.49v-.22c-.11-1.42-.25-3.5-2.65-3.5h-6.08V309c0,2.87,1.17,3.06,3,3.1H221v1.47Z"/><path class="cls-2" d="M228.85,312.24h.55c1.36,0,2.81-.19,2.81-2.18V290.14c0-2-1.45-2.18-2.81-2.18h-.55v-1.14c2.32,0,6.29.15,9.48.15s7.16-.15,9.75-.15c-.07,1.63,0,4.16.08,5.82l-1.15.31c-.19-2.47-.64-4.44-4.64-4.44h-5.28v10h4.52c2.28,0,2.78-1.29,3-3.35h1.14c-.07,1.49-.11,3-.11,4.46s0,2.9.11,4.34l-1.14.22c-.23-2.28-.34-3.76-3-3.76h-4.55v8.86c0,2.48,2.2,2.48,4.63,2.48,4.57,0,6.59-.3,7.72-4.64l1.08.26c-.51,2-1,4-1.3,6.06-2.44,0-6.82-.16-10.23-.16s-8,.16-10.14.16Z"/><path class="cls-2" d="M249.07,313.21c.34-1.92.78-3.84,1.24-5.76l-.75-.19c-1.15,4.26-3.35,4.64-7.83,4.61-2.4,0-4.8,0-4.81-2.64v-9h4.72c2.66,0,2.93,1.57,3.12,3.74l.83-.18c-.08-1.4-.11-2.8-.11-4.2s0-2.86.11-4.29h-.83c-.21,2-.83,3.37-3.15,3.35h-4.69v-10.3h5.45c4,0,4.61,2,4.79,4.4l.82-.22c-.06-1.07-.11-2.45-.11-3.72,0-.65,0-1.27,0-1.81-2.58,0-6.43.15-9.57.15s-7-.15-9.31-.15v.81h.38c1.35,0,3,.24,3,2.34v19.93c0,2.11-1.63,2.33-3,2.34H229v.8c2.22,0,6.61-.15,10-.15s7.63.15,10.09.15m.15.33c-2.44,0-6.83-.15-10.23-.15s-8,.15-10.14.15h-.15v-1.47h.7c1.38,0,2.63-.14,2.64-2V290.14c0-1.86-1.27-2-2.64-2h-.7v-1.46h.15c2.33,0,6.29.14,9.48.14s7.16-.14,9.75-.14h.17v.17c0,.58,0,1.25,0,2,0,1.32,0,2.75.12,3.84v.14l-.12,0-1.34.35,0-.19c-.22-2.47-.55-4.26-4.47-4.3h-5.13v9.63h4.37c2.19,0,2.58-1.14,2.84-3.19l0-.15h1.45v.18c-.06,1.48-.11,3-.11,4.45s.05,2.88.11,4.33V304l-.14,0-1.32.27,0-.18c-.26-2.33-.28-3.59-2.81-3.62h-4.4v8.7c0,2.32,2,2.3,4.49,2.32,4.57,0,6.42-.25,7.56-4.53l0-.15.15,0,1.23.31,0,.16c-.49,2-.95,4-1.29,6l0,.12Z"/><path class="cls-2" d="M260.51,299.67h1.87c3.81,0,5.85-1.44,5.85-5.93a5.18,5.18,0,0,0-5.55-5.55,20,20,0,0,0-2.17.15Zm-4.86-8.82c0-2.77-1.52-2.89-2.71-2.89h-.68v-1.14c1.22,0,3.57.15,5.9.15s4.11-.15,6.12-.15c4.79,0,9.07,1.29,9.07,6.7,0,3.42-2.29,5.52-5.29,6.7l6.51,9.74a4.24,4.24,0,0,0,3.7,2.29v1.15c-1.27,0-2.48-.16-3.74-.16s-2.4.16-3.58.16A104.92,104.92,0,0,1,263,301h-2.52v8.15c0,2.93,1.38,3,3.12,3h.69v1.15c-2.16,0-4.37-.16-6.54-.16-1.83,0-3.62.16-5.52.16v-1.15h.68c1.43,0,2.71-.65,2.71-2.06Z"/><path class="cls-2" d="M262.39,299.52c3.77,0,5.66-1.34,5.7-5.77a5,5,0,0,0-5.4-5.4,15.86,15.86,0,0,0-2,.14v11Zm-1.87.33h-.16V288.19h.15a17.35,17.35,0,0,1,2.18-.15,5.38,5.38,0,0,1,5.73,5.72c0,4.54-2.2,6.09-6,6.09Zm0,1h2.61l0,.09a117.75,117.75,0,0,0,7.78,12.25c1.16,0,2.39-.15,3.57-.15s2.39.13,3.58.15v-.83a4.34,4.34,0,0,1-3.67-2.33l-6.62-9.91.18-.08c3-1.17,5.19-3.2,5.19-6.54,0-5.28-4.12-6.52-8.9-6.54-2,0-3.84.15-6.12.15s-4.49-.15-5.74-.15v.81h.52c1.2,0,2.87.2,2.87,3.06v19.34c0,1.53-1.42,2.22-2.87,2.22h-.52v.8c1.83,0,3.57-.15,5.35-.15,2.12,0,4.28.15,6.38.15v-.8h-.52c-1.73,0-3.28-.21-3.28-3.22v-8.31Zm17.75,12.66c-1.29,0-2.5-.15-3.75-.15s-2.37.15-3.7.09a106.56,106.56,0,0,1-7.88-12.26h-2.25v8c0,2.86,1.19,2.84,3,2.88h.86v1.47h-.17c-2.17,0-4.39-.15-6.55-.15-1.81,0-3.61.15-5.51.15h-.17v-1.47h.85c1.38,0,2.53-.6,2.54-1.89V290.85c0-2.7-1.35-2.68-2.54-2.73h-.85v-1.47h.17c1.24,0,3.58.15,5.9.15s4.1-.15,6.12-.15c4.8,0,9.22,1.34,9.23,6.87,0,3.43-2.27,5.58-5.2,6.77l6.39,9.57a4.08,4.08,0,0,0,3.59,2.21l.14,0v1.45Z"/><path class="cls-2" d="M304.09,305.89l.07-.08V291.54c0-3.12-2.17-3.58-3.31-3.58H300v-1.14c1.78,0,3.54.15,5.33.15,1.56,0,3.11-.15,4.68-.15V288h-.57c-1.6,0-3.39.3-3.39,4.83v17.32a26.25,26.25,0,0,0,.22,3.84h-1.45l-19.59-21.85v15.68c0,3.32.64,4.46,3.58,4.46h.65v1.15c-1.63,0-3.28-.16-4.91-.16s-3.47.16-5.17.16v-1.15h.52c2.64,0,3.44-1.79,3.44-4.83v-16a3.42,3.42,0,0,0-3.47-3.42h-.49v-1.14c1.43,0,2.92.15,4.37.15,1.14,0,2.24-.15,3.39-.15Z"/><path class="cls-2" d="M304,305.81h0l0,0Zm.1.08.12-.11Zm.76,7.9h1.26a25.59,25.59,0,0,1-.21-3.67V292.79c0-4.56,1.93-5,3.57-5h.4V287c-1.5,0-3,.15-4.51.15-1.75,0-3.45-.15-5.16-.15v.81h.67c1.18,0,3.48.52,3.48,3.74l-.06,14.39-.06.07-.12.12L287.15,287c-1.13,0-2.23.15-3.39.15-1.41,0-2.83-.15-4.22-.15v.81h.34a3.59,3.59,0,0,1,3.63,3.59v16c0,3.05-.86,5-3.6,5h-.37v.81c1.65,0,3.34-.15,5-.15s3.18.14,4.76.15v-.8h-.49c-3,0-3.75-1.31-3.76-4.62v-16.1Zm1.45.33-1.56-.05-19.31-21.53v15.25c0,3.32.54,4.25,3.42,4.29h.81v1.47h-.17c-1.64,0-3.28-.15-4.91-.15s-3.46.15-5.16.15h-.18v-1.47h.7c2.51,0,3.24-1.63,3.27-4.67v-16a3.26,3.26,0,0,0-3.3-3.26h-.67v-1.47h.18c1.45,0,2.93.15,4.37.15,1.13,0,2.22-.15,3.51-.1L304,305.54v-14c0-3-2-3.4-3.14-3.41h-1v-1.47H300c1.79,0,3.55.15,5.33.15,1.55,0,3.11-.15,4.67-.15h.18v1.47h-.74c-1.57,0-3.19.18-3.23,4.66v17.33a24.58,24.58,0,0,0,.22,3.81l0,.19Z"/><path class="cls-2" d="M321.71,291.08h-.08l-3.54,10.78h7.11Zm-5.56,16.86a15.74,15.74,0,0,0-.85,3c0,1.14,1.6,1.34,2.86,1.34h.43v1.15c-1.53-.09-3.09-.16-4.62-.16-1.37,0-2.72.07-4.1.16v-1.15h.23a3.44,3.44,0,0,0,3.3-2.48l6.1-17.46a31.36,31.36,0,0,0,1.41-4.73,19.8,19.8,0,0,0,3.46-1.63,1,1,0,0,1,.3-.08.26.26,0,0,1,.27.12c.11.3.22.65.35.95l7,19.9c.46,1.34.92,2.74,1.41,3.89a2.42,2.42,0,0,0,2.52,1.52h.22v1.15c-1.7-.09-3.42-.16-5.25-.16s-3.77.07-5.71.16v-1.15h.43c.87,0,2.36-.15,2.36-1.1a11.59,11.59,0,0,0-.78-2.75L326,304h-8.63Z"/><path class="cls-2" d="M321.54,291.13l.09,0Zm-3.23,10.55H325l-3.31-10.19Zm-.46.33,3.65-11.1h.21v.16h0v-.16h.11l3.62,11.1Zm7.78,11.19c1.87-.06,3.74-.14,5.54-.14s3.43.08,5.09.14v-.8h-.06a2.57,2.57,0,0,1-2.67-1.62c-.5-1.15-1-2.56-1.41-3.9l-7-19.9c-.11-.3-.22-.65-.32-.92,0,0,0,0-.06,0h-.07a.83.83,0,0,0-.22,0,14.28,14.28,0,0,1-3.39,1.53,32.25,32.25,0,0,1-1.41,4.75l-6.09,17.47a3.61,3.61,0,0,1-3.46,2.58H310v.8c1.32-.06,2.63-.14,3.95-.14,1.48,0,3,.08,4.42.14v-.8h-.24c-1.25,0-3-.15-3-1.49a15.84,15.84,0,0,1,.84-3l.17,0-.17-.05,1.26-4.07h8.88l1.53,4.52a11.94,11.94,0,0,1,.78,2.8c-.06,1.17-1.66,1.24-2.53,1.26h-.25Zm10.78.34c-1.7-.06-3.42-.15-5.24-.15s-3.76.08-5.7.15h-.17v-1.49h.58c.89,0,2.18-.19,2.19-.92a11.67,11.67,0,0,0-.76-2.69l-1.45-4.31h-8.39L316.31,308a16.2,16.2,0,0,0-.85,2.92c0,.93,1.43,1.15,2.7,1.15h.59v1.49h-.18c-1.51-.06-3.08-.15-4.59-.15-1.36,0-2.73.08-4.1.15h-.18v-1.49h.4a3.24,3.24,0,0,0,3.14-2.35l6.1-17.47a46.42,46.42,0,0,0,1.51-4.82,20.36,20.36,0,0,0,3.45-1.63,1,1,0,0,1,.37-.09.46.46,0,0,1,.42.22c.11.31.23.65.35,1l7,19.91c.45,1.33.9,2.74,1.41,3.86a2.21,2.21,0,0,0,2.36,1.41h.39v1.49Z"/><path class="cls-2" d="M338.11,288.72c-2.85,0-3,.68-3.54,3.46h-1.15c.15-1.06.35-2.13.47-3.23a23.12,23.12,0,0,0,.21-3.23H335c.31,1.14,1.27,1.1,2.28,1.1H357c1,0,2,0,2-1.18l.92.15c-.15,1-.3,2.06-.41,3.08s-.08,2.06-.08,3.08l-1.15.43c-.07-1.41-.26-3.66-2.81-3.66h-6.25V309c0,2.93,1.34,3.27,3.16,3.27h.73v1.15c-1.48,0-4.15-.16-6.21-.16-2.28,0-4.94.16-6.43.16v-1.15h.72c2.1,0,3.16-.19,3.16-3.2V288.72Z"/><path class="cls-2" d="M353.11,313.54c-1.5,0-4.17-.15-6.21-.15-2.27,0-4.93.15-6.43.15h-.17v-1.47h.89c2.1,0,2.94-.07,3-3V288.88h-6.07v-.33h6.41V309c0,3.05-1.24,3.35-3.33,3.36h-.56v.81c1.5,0,4.07-.15,6.27-.15,2,0,4.53.14,6,.15v-.81h-.56c-1.83,0-3.31-.44-3.32-3.43V288.55h6.41c2.55,0,2.88,2.18,3,3.59l.83-.3c0-1,0-2,.08-3s.25-2,.38-2.92l-.57-.1C359,286.94,357.9,287,357,287H337.11c-.89,0-1.86,0-2.21-1.11h-.63a21,21,0,0,1-.22,3.09c-.11,1.05-.29,2.06-.44,3.06h.82c.5-2.65.84-3.51,3.68-3.48v.33c-2.82,0-2.75.52-3.38,3.34l0,.13h-1.47l0-.19c.15-1.08.34-2.14.45-3.24a21.43,21.43,0,0,0,.23-3.21v-.16h1.21l0,.11c.28,1,1,1,1.93,1H357c1,0,1.82,0,1.88-1v-.18l.17,0,1.1.17,0,.16c-.16,1-.3,2-.42,3.07s-.07,2-.07,3.07v.11l-.11,0-1.36.49v-.22c-.1-1.42-.24-3.5-2.65-3.5h-6.08V309c0,2.87,1.18,3.06,3,3.1h.89v1.47Z"/><path class="cls-2" d="M361.32,312.24h.54c1.36,0,2.81-.19,2.81-2.18V290.14c0-2-1.45-2.18-2.81-2.18h-.54v-1.14c1.48,0,3.77.15,5.63.15s4.19-.15,6-.15V288h-.53c-1.39,0-2.83.19-2.83,2.18v19.93c0,2,1.45,2.18,2.83,2.18h.53v1.15c-1.83,0-4.11-.16-6-.16s-4.12.16-5.6.16Z"/><path class="cls-2" d="M372.76,313.21v-.81h-.36c-1.38,0-3-.23-3-2.34V290.14c0-2.11,1.61-2.34,3-2.34h.36V287c-1.76,0-4,.15-5.81.15s-4-.15-5.47-.15v.81h.38c1.35,0,3,.24,3,2.34v19.93c0,2.11-1.63,2.34-3,2.34h-.38v.81c1.48,0,3.62-.15,5.44-.15s4,.14,5.84.15m.17.33c-1.84,0-4.13-.15-6-.15s-4.11.15-5.6.15h-.17v-1.47h.71c1.36,0,2.63-.14,2.64-2V290.14c0-1.86-1.28-2-2.64-2h-.71v-1.46h.17c1.5,0,3.78.14,5.63.14s4.18-.14,6-.14h.16v1.46h-.69c-1.41,0-2.65.15-2.66,2v19.93c0,1.87,1.26,2,2.66,2h.69v1.47Z"/><path class="cls-2" d="M388.68,312.28c7.38,0,8.67-6.51,8.67-12.06s-3-12.29-9.32-12.29c-6.66,0-8.64,5.93-8.64,11,0,6.81,3.12,13.32,9.29,13.32m-.58-26c8.11,0,14.57,5,14.57,13.13,0,8.76-6.27,14.57-14.37,14.57s-14.24-5.48-14.24-13.66a13.85,13.85,0,0,1,14-14"/><path class="cls-2" d="M379.23,299c0-5.12,2-11.2,8.81-11.2,6.46,0,9.47,6.87,9.49,12.46s-1.32,12.22-8.84,12.22v-.32c7.23,0,8.49-6.35,8.51-11.9s-3-12.12-9.16-12.14c-6.54,0-8.46,5.8-8.48,10.87,0,6.78,3.1,13.14,9.13,13.16v.32c-6.32,0-9.45-6.63-9.46-13.48m-5.33,1.34a14,14,0,0,1,14.21-14.21v.34a13.68,13.68,0,0,0-13.88,13.88c0,8.09,6.08,13.49,14.07,13.49s14.22-5.74,14.23-14.41c0-8-6.37-13-14.42-13v-.34c8.17,0,14.72,5.09,14.74,13.29,0,8.85-6.37,14.73-14.55,14.74s-14.39-5.55-14.4-13.82"/><path class="cls-2" d="M428.34,305.89l.08-.08V291.54c0-3.12-2.18-3.58-3.33-3.58h-.82v-1.14c1.77,0,3.53.15,5.31.15,1.56,0,3.13-.15,4.69-.15V288h-.58c-1.6,0-3.39.3-3.39,4.83v17.32a23.71,23.71,0,0,0,.23,3.84h-1.45l-19.6-21.85v15.68c0,3.32.64,4.46,3.58,4.46h.65v1.15c-1.63,0-3.27-.16-4.9-.16s-3.47.16-5.19.16v-1.15h.55c2.63,0,3.42-1.79,3.42-4.83v-16a3.41,3.41,0,0,0-3.47-3.42h-.5v-1.14c1.46,0,2.93.15,4.39.15,1.14,0,2.24-.15,3.39-.15Z"/><path class="cls-2" d="M428.24,305.81h0l0,0Zm.1.08.11-.11Zm.76,7.9h1.25a27.31,27.31,0,0,1-.19-3.67V292.79c0-4.57,1.92-5,3.55-5h.41V287c-1.5,0-3,.15-4.53.15-1.72,0-3.43-.15-5.14-.15v.81h.66c1.18,0,3.48.53,3.48,3.75l0,14.39-.08.07-.11.12L411.4,287c-1.13,0-2.23.15-3.39.15-1.41,0-2.83-.15-4.22-.15v.81h.33a3.59,3.59,0,0,1,3.63,3.59v16c0,3-.85,5-3.58,5h-.38v.81c1.66,0,3.35-.15,5-.15s3.17.14,4.75.15v-.8h-.5c-3,0-3.74-1.31-3.74-4.62V291.68Zm1.45.33-1.57-.05-19.31-21.53v15.25c.05,3.32.56,4.25,3.41,4.28h.82v1.48h-.16c-1.64,0-3.29-.15-4.91-.15s-3.45.15-5.18.15h-.16v-1.48h.71c2.5,0,3.23-1.62,3.25-4.65v-16a3.25,3.25,0,0,0-3.3-3.26h-.66v-1.46h.16c1.46,0,2.94.14,4.39.14,1.13,0,2.22-.14,3.51-.09l16.72,18.83v-14c0-3-2-3.39-3.15-3.42h-1v-1.46h.17c1.79,0,3.55.14,5.31.14,1.56,0,3.12-.14,4.7-.14h.16v1.46h-.74c-1.56,0-3.19.18-3.23,4.66v17.33a24.48,24.48,0,0,0,.23,3.81l0,.19Z"/><path class="cls-2" d="M446,291.08h-.09l-3.54,10.78h7.13Zm-5.57,16.86a16.32,16.32,0,0,0-.84,3c0,1.14,1.6,1.34,2.86,1.34h.42v1.15c-1.52-.09-3.09-.16-4.61-.16-1.37,0-2.73.07-4.1.16v-1.15h.21a3.44,3.44,0,0,0,3.32-2.48l6.1-17.46a31.26,31.26,0,0,0,1.4-4.73,19.74,19.74,0,0,0,3.48-1.63.88.88,0,0,1,.3-.08c.11,0,.19,0,.26.12.12.3.24.65.35.95l7,19.9c.46,1.34.92,2.74,1.41,3.89a2.41,2.41,0,0,0,2.51,1.52h.23v1.15c-1.71-.09-3.43-.16-5.26-.16s-3.76.07-5.7.16v-1.15h.42c.88,0,2.36-.15,2.36-1.1a12,12,0,0,0-.77-2.75L450.24,304H441.6Z"/><path class="cls-2" d="M445.8,291.13l.07,0Zm-3.24,10.55h6.66L445.9,291.5Zm-.46.33,3.65-11.1H446v.16h0v-.16h.11l3.61,11.1Zm7.77,11.2c1.89-.07,3.74-.15,5.54-.15s3.44.08,5.09.14v-.8h-.06a2.57,2.57,0,0,1-2.65-1.62c-.51-1.15-1-2.56-1.41-3.89l-7-19.91c-.11-.3-.23-.65-.31-.91,0,0,0,0-.06,0h-.08a.75.75,0,0,0-.22,0,14.27,14.27,0,0,1-3.39,1.53,32.25,32.25,0,0,1-1.41,4.75l-6.1,17.47a3.6,3.6,0,0,1-3.47,2.58h-.05v.8c1.32-.06,2.62-.14,3.94-.14,1.48,0,3,.08,4.44.14v-.8h-.26c-1.24,0-3-.15-3-1.5a16.18,16.18,0,0,1,.85-3l.16,0-.16-.05,1.27-4.07h8.87l1.51,4.52a11.46,11.46,0,0,1,.78,2.8c-.06,1.17-1.65,1.24-2.52,1.26h-.26Zm10.79.33c-1.72-.06-3.43-.15-5.25-.15s-3.76.08-5.69.15h-.17v-1.48h.58c.89,0,2.19-.2,2.19-.93a11.77,11.77,0,0,0-.76-2.69l-1.45-4.31h-8.4L440.56,308a14.63,14.63,0,0,0-.84,2.92c0,.94,1.43,1.17,2.68,1.17H443v1.48h-.17c-1.52-.06-3.08-.15-4.6-.15-1.36,0-2.72.08-4.1.15h-.17v-1.48h.38a3.3,3.3,0,0,0,3.17-2.36l6.09-17.47a46.51,46.51,0,0,0,1.51-4.82,20.26,20.26,0,0,0,3.47-1.63.87.87,0,0,1,.36-.08.43.43,0,0,1,.42.23c.11.29.22.64.35.94l7,19.91c.46,1.33.92,2.74,1.41,3.87a2.25,2.25,0,0,0,2.35,1.42h.41v1.48Z"/><path class="cls-2" d="M470.26,309.66c0,1.53,1.07,2,2.28,2.13a27.21,27.21,0,0,0,5-.08,5.44,5.44,0,0,0,3.65-2.05,8.6,8.6,0,0,0,1.18-2.74h1.11c-.42,2.17-1,4.31-1.4,6.48-3.35,0-6.71-.16-10-.16s-6.7.16-10.06.16v-1.15h.53c1.38,0,2.86-.19,2.86-2.55V290.14c0-2-1.48-2.18-2.86-2.18H462v-1.14c2,0,4,.15,6,.15s3.84-.15,5.78-.15V288h-1c-1.43,0-2.58,0-2.58,2.06Z"/><path class="cls-2" d="M482,313.21c.44-2.06.94-4.08,1.35-6.13h-.79a8.75,8.75,0,0,1-1.17,2.68,5.68,5.68,0,0,1-3.78,2.11c-1,.1-2,.16-2.91.16-.74,0-1.45,0-2.14-.09-1.25-.13-2.44-.67-2.43-2.29V290c0-2.12,1.34-2.22,2.75-2.22h.79V287c-1.87,0-3.72.15-5.61.15s-3.91-.15-5.86-.15v.81h.37c1.36,0,3,.24,3,2.34v19.56c0,2.46-1.65,2.71-3,2.71h-.37v.81c3.3,0,6.59-.15,9.9-.15s6.61.15,9.91.15m.14.33c-3.36,0-6.71-.15-10-.15s-6.7.15-10.07.15h-.15v-1.47h.69c1.38,0,2.68-.12,2.69-2.38V290.13c0-1.85-1.31-2-2.69-2h-.69v-1.46H462c2,0,4,.14,6,.14s3.83-.14,5.78-.14H474v1.46h-1.12c-1.46,0-2.39,0-2.42,1.89v19.64c0,1.41.95,1.8,2.13,2,.67,0,1.38.08,2.11.08a28,28,0,0,0,2.88-.14,5.27,5.27,0,0,0,3.54-2,8.18,8.18,0,0,0,1.15-2.68l0-.13h1.43l0,.2c-.44,2.18-1,4.3-1.43,6.47l0,.12Z"/></svg>