<?xml version="1.0" encoding="utf-8"?>
<!-- Generator: Adobe Illustrator 21.0.0, SVG Export Plug-In . SVG Version: 6.00 Build 0)  -->
<svg version="1.1" id="Layer_1" xmlns="http://www.w3.org/2000/svg" xmlns:xlink="http://www.w3.org/1999/xlink" x="0px" y="0px"
	 viewBox="0 0 640 400" style="enable-background:new 0 0 640 400;" xml:space="preserve">
<style type="text/css">
	.st0{fill:#F1F2F2;}
	.st1{fill:#F58220;}
	.st2{fill:url(#SVGID_1_);}
	.st3{fill:#001722;}
	.st4{fill:#231F20;}
</style>
<g>
	<path class="st0" d="M640,378.7c0,11.8-9.6,21.3-21.3,21.3H21.3C9.5,400,0,390.5,0,378.7V21.3C0,9.5,9.5,0,21.3,0h597.3
		C630.4,0,640,9.5,640,21.3V378.7z"/>
	<path class="st1" d="M175.9,400h442.7c11.8,0,21.3-9.6,21.3-21.3V228.9C597.5,255.8,437.3,348.7,175.9,400z"/>
	<g>
		
			<radialGradient id="SVGID_1_" cx="321.3526" cy="-286.0526" r="31.5366" gradientTransform="matrix(1 0 0 1 6.416 486.083)" gradientUnits="userSpaceOnUse">
			<stop  offset="5.618000e-03" style="stop-color:#FFEEE0"/>
			<stop  offset="0.1096" style="stop-color:#FEE9D7"/>
			<stop  offset="0.2793" style="stop-color:#FDDBBF"/>
			<stop  offset="0.4935" style="stop-color:#FBC597"/>
			<stop  offset="0.744" style="stop-color:#F8A560"/>
			<stop  offset="1" style="stop-color:#F48120"/>
		</radialGradient>
		<path class="st2" d="M327.8,168.9c-17.6,0-31.9,13.8-31.9,30.8c0,18.1,13.7,31.6,31.9,31.6c17.8,0,31.8-13.7,31.8-31.2
			C359.7,182.5,345.7,168.9,327.8,168.9z"/>
		<path class="st3" d="M146.5,170h-17.2v59.9h17.1c9.1,0,15.6-2.2,21.4-6.9c6.8-5.7,10.9-14.2,10.9-23
			C178.6,182.3,165.4,170,146.5,170z M160.2,215c-3.7,3.3-8.4,4.8-16,4.8H141v-39.6h3.1c7.6,0,12.1,1.3,16,4.8
			c4,3.6,6.4,9.2,6.4,14.9C166.6,205.6,164.2,211.4,160.2,215z"/>
		<rect x="184" y="170" class="st3" width="11.7" height="59.9"/>
		<path class="st3" d="M224.3,192.9c-7-2.6-9.1-4.3-9.1-7.5c0-3.8,3.7-6.6,8.7-6.6c3.5,0,6.4,1.4,9.4,4.8l6.1-8
			c-5-4.4-11.1-6.7-17.6-6.7c-10.6,0-18.7,7.4-18.7,17.2c0,8.3,3.8,12.5,14.7,16.4c4.6,1.6,6.9,2.7,8.1,3.4c2.3,1.5,3.5,3.7,3.5,6.2
			c0,4.9-3.9,8.4-9.1,8.4c-5.6,0-10.1-2.8-12.7-8l-7.5,7.3c5.4,7.9,11.8,11.4,20.7,11.4c12.1,0,20.6-8.1,20.6-19.7
			C241.5,202.1,237.6,197.8,224.3,192.9z"/>
		<path class="st3" d="M245.2,199.9c0,17.6,13.8,31.3,31.6,31.3c5,0,9.3-1,14.6-3.5V214c-4.7,4.7-8.8,6.5-14.1,6.5
			c-11.8,0-20.1-8.5-20.1-20.7c0-11.5,8.6-20.6,19.6-20.6c5.6,0,9.8,2,14.6,6.7v-13.7c-5.1-2.6-9.3-3.7-14.4-3.7
			C259.4,168.6,245.2,182.5,245.2,199.9z"/>
		<polygon class="st3" points="386.1,210.2 370.1,170 357.3,170 382.8,231.4 389.1,231.4 414.9,170 402.3,170 		"/>
		<polygon class="st3" points="420.2,229.9 453.4,229.9 453.4,219.7 431.9,219.7 431.9,203.5 452.6,203.5 452.6,193.4 431.9,193.4 
			431.9,180.1 453.4,180.1 453.4,170 420.2,170 		"/>
		<path class="st3" d="M499.6,187.6c0-11.2-7.7-17.7-21.2-17.7h-17.3v59.9h11.7v-24.1h1.5l16.2,24.1h14.4L486,204.6
			C494.8,202.8,499.6,196.8,499.6,187.6z M476.2,197.5h-3.4v-18.1h3.6c7.3,0,11.2,3.1,11.2,8.9C487.6,194.3,483.6,197.5,476.2,197.5
			z"/>
		<path class="st4" d="M507.9,174.4c0-1-0.7-1.6-2-1.6h-1.7v5.3h1.3V176l1.5,2.1h1.6l-1.8-2.2C507.4,175.7,507.9,175.2,507.9,174.4z
			 M505.6,175.2h-0.2v-1.4h0.2c0.6,0,0.9,0.2,0.9,0.7C506.6,174.9,506.3,175.2,505.6,175.2z"/>
		<path class="st4" d="M506.1,170.8c-2.6,0-4.6,2.1-4.6,4.6c0,2.6,2.1,4.6,4.6,4.6c2.5,0,4.6-2.1,4.6-4.6S508.6,170.8,506.1,170.8z
			 M506.1,179.2c-2,0-3.7-1.7-3.7-3.8c0-2.1,1.6-3.8,3.7-3.8c2,0,3.6,1.7,3.6,3.8C509.7,177.5,508.1,179.2,506.1,179.2z"/>
	</g>
</g>
</svg>
