<svg id="Layer_1" data-name="Layer 1" xmlns="http://www.w3.org/2000/svg" viewBox="0 0 640 400"><defs><style>.cls-1{fill:#0c489c;}.cls-2{fill:#00a551;}.cls-3{fill:#0071bb;}.cls-4{fill:#fff;}.cls-5{fill:#ec1c24;}</style></defs><title>jcb</title><path class="cls-1" d="M640,378.67A21.34,21.34,0,0,1,618.67,400H21.33A21.33,21.33,0,0,1,0,378.67V21.34A21.33,21.33,0,0,1,21.33,0H618.67A21.33,21.33,0,0,1,640,21.34Z"/><path class="cls-2" d="M431.4,213.58c.78,23.31,1.56,47.4.39,71.11-.78,9.32-6.6,18.26-15.15,23.7-6.6,4.28-14.77,4.66-23.31,5.05L362.44,313l-.19-197.77a33.47,33.47,0,0,1,23.71-28c15.15-1.94,29.14-1.17,45.07-1.55l.78,10.11V208.14l-.39.39Z"/><path class="cls-3" d="M207.61,206.2V112.94c1.94-10.49,10.49-20.2,20.59-24.09,15.16-4.66,32.65-1.93,48.18-2.34.78,15.17,0,34.2.39,47.42l.78,121.6c-2,18.66,5,43.91-18.27,54.4-14.76,7.37-34.58,2.72-51.28,4.28l-.38-2.72V206.2Z"/><path class="cls-4" d="M207.61,210.08c6.21,8.16,14.76,14.37,25.25,14.76,12.82,1.18,29.53,2.33,38.07-9.71,5.83-6.22,2.34-14.76,3.51-22.92L274,177.44c-7.38-1.55-14,0-22.54-.39-4.27,15.94,7,33.8-11.27,42a20.11,20.11,0,0,1-14.77-2.33c-7-1.55-3.1-12.83-12.43-9.72l-5.44-.77Z"/><path class="cls-5" d="M354.08,99.35l.39,189.22c-2.71,8.93-9.71,18.65-19.42,22.14-14.77,5-33,2.72-49.34,2.72l-.78-199.33c.78-9.33,7-17.48,15.15-22.53,5.83-3.89,12.83-5.06,20.21-5.44h33Z"/><path class="cls-4" d="M351,177.44c.78,2.33,0,4.28.39,7-11.65-3.11-26-6.61-36.52,1.94-3.88,4.65-6.22,9.33-5.83,15.54,1.17,7,5.44,13.6,12,16.32,10.1,3.11,20.59.39,29.92-2,.39,2,.78,4.66,0,6.22H306.29c-7.77-1.55-14-5.82-17.48-13.59-3.11-7.38-1.55-17.48,3.88-23.7a22.68,22.68,0,0,1,18.64-8.16Z"/><path class="cls-4" d="M431.4,213.58c-1.16,4.66-5,8.93-9.71,9.71h-54.4l-1.94-.78c0-15.54-.4-30.3.39-45.45h34.58c10.87,1.17,22.92-3.5,28,6.61,1.55,3.5,1.16,8.16-1.56,10.88-1.55,2.71-5.05,3.11-5.83,5,4.28,1.17,8.94,4.66,10.49,8.94Zm-46.63-31.86a37.65,37.65,0,0,0-.38,14.76c8.16-.38,18.65,2.72,24.09-3.49,1.95-2.34.78-6.22-.39-8.17C401.87,179.39,392.55,182.88,384.78,181.72Zm21,21.37c-7.38-1.17-14.77-.78-21.76-.39a72.19,72.19,0,0,0,.77,15.94c7.78,0,16.32,1.16,23.31-2.34a8.28,8.28,0,0,0,2.34-7.76C410,206.2,408.09,204.25,405.77,203.08Z"/></svg>