<?xml version="1.0" encoding="utf-8"?>
<!-- Generator: Adobe Illustrator 21.0.0, SVG Export Plug-In . SVG Version: 6.00 Build 0)  -->
<svg version="1.1" id="Layer_1" xmlns="http://www.w3.org/2000/svg" xmlns:xlink="http://www.w3.org/1999/xlink" x="0px" y="0px"
	 viewBox="0 0 640 400" style="enable-background:new 0 0 640 400;" xml:space="preserve">
<style type="text/css">
	.st0{fill:#F9F9F9;}
	.st1{fill-rule:evenodd;clip-rule:evenodd;fill:#FBB231;}
	.st2{fill-rule:evenodd;clip-rule:evenodd;fill:#EC1C2E;}
	.st3{fill-rule:evenodd;clip-rule:evenodd;fill:#FFFFFF;}
	.st4{fill:none;stroke:#FFFFFF;stroke-width:0.216;stroke-miterlimit:2.6131;}
</style>
<g>
	<path class="st0" d="M640,378.7c0,11.8-9.6,21.3-21.3,21.3H21.3C9.6,400,0,390.5,0,378.7V21.3C0,9.6,9.6,0,21.3,0h597.3
		C630.4,0,640,9.6,640,21.3V378.7z"/>
	<g>
		<polygon class="st1" points="396.8,314.8 402.7,314.7 408.6,314.2 414.3,313.5 420,312.5 425.5,311.2 431,309.7 436.3,307.8 
			441.6,305.8 446.7,303.5 451.6,301 456.4,298.2 461.1,295.2 465.6,292 470,288.6 474.1,285 478.1,281.1 482,277.1 485.6,272.9 
			489,268.6 492.2,264.1 495.2,259.4 498,254.6 500.5,249.7 502.8,244.6 504.9,239.3 506.7,234 508.2,228.5 509.5,223 510.5,217.3 
			511.3,211.6 511.7,205.7 511.8,199.8 511.7,193.9 511.3,188.1 510.5,182.4 509.5,176.7 508.2,171.2 506.7,165.8 504.9,160.4 
			502.8,155.2 500.5,150.2 498,145.2 495.2,140.5 492.2,135.8 489,131.3 485.6,127 482,122.8 478.1,118.8 474.1,115 470,111.4 
			465.6,108 461.1,104.8 456.4,101.8 451.6,99.1 446.7,96.5 441.6,94.2 436.3,92.2 431,90.3 425.5,88.8 420,87.5 414.3,86.5 
			408.6,85.8 402.7,85.3 396.8,85.2 390.9,85.3 385.1,85.8 379.3,86.5 373.7,87.5 368.1,88.8 362.7,90.3 357.4,92.2 352.1,94.2 
			347.1,96.5 342.2,99.1 337.4,101.8 332.7,104.8 328.2,108 323.9,111.4 319.7,115 315.7,118.8 311.9,122.8 308.3,127 304.9,131.3 
			301.8,135.8 298.8,140.5 296,145.2 293.5,150.2 291.2,155.2 289.1,160.4 287.4,165.8 285.8,171.2 284.5,176.7 283.5,182.4 
			282.8,188.1 282.3,193.9 282.2,199.8 282.3,205.7 282.8,211.6 283.5,217.3 284.5,223 285.8,228.5 287.4,234 289.1,239.3 
			291.2,244.6 293.5,249.7 296,254.6 298.8,259.4 301.8,264.1 304.9,268.6 308.3,272.9 311.9,277.1 315.7,281.1 319.7,285 
			323.9,288.6 328.2,292 332.7,295.2 337.4,298.2 342.2,301 347.1,303.5 352.1,305.8 357.4,307.8 362.7,309.7 368.1,311.2 
			373.7,312.5 379.3,313.5 385.1,314.2 390.9,314.7 396.8,314.8 396.8,314.8 		"/>
		<polygon class="st2" points="243.2,314.8 249.1,314.7 254.9,314.2 260.7,313.5 266.3,312.5 271.9,311.2 277.3,309.7 282.6,307.8 
			287.9,305.8 292.9,303.5 297.8,301 302.6,298.2 307.3,295.2 311.8,292 316.1,288.6 320.3,285 324.3,281.1 328.1,277.1 
			331.7,272.9 335.1,268.6 338.2,264.1 341.2,259.4 344,254.6 346.5,249.7 348.8,244.6 350.9,239.3 352.6,234 354.2,228.5 
			355.5,223 356.5,217.3 357.2,211.6 357.6,205.7 357.8,199.8 357.6,193.9 357.2,188.1 356.5,182.4 355.5,176.7 354.2,171.2 
			352.6,165.8 350.9,160.4 348.8,155.2 346.5,150.2 344,145.2 341.2,140.5 338.2,135.8 335.1,131.3 331.7,127 328.1,122.8 
			324.3,118.8 320.3,115 316.1,111.4 311.8,108 307.3,104.8 302.6,101.8 297.8,99.1 292.9,96.5 287.9,94.2 282.6,92.2 277.3,90.3 
			271.9,88.8 266.3,87.5 260.7,86.5 254.9,85.8 249.1,85.3 243.2,85.2 237.3,85.3 231.4,85.8 225.7,86.5 220,87.5 214.5,88.8 
			209,90.3 203.6,92.2 198.4,94.2 193.3,96.5 188.3,99.1 183.5,101.8 178.9,104.8 174.4,108 170,111.4 165.8,115 161.9,118.8 
			158,122.8 154.4,127 151,131.3 147.8,135.8 144.8,140.5 142,145.2 139.5,150.2 137.2,155.2 135.1,160.4 133.3,165.8 131.8,171.2 
			130.5,176.7 129.5,182.4 128.7,188.1 128.3,193.9 128.2,199.8 128.3,205.7 128.7,211.6 129.5,217.3 130.5,223 131.8,228.5 
			133.3,234 135.1,239.3 137.2,244.6 139.5,249.7 142,254.6 144.8,259.4 147.8,264.1 151,268.6 154.4,272.9 158,277.1 161.9,281.1 
			165.8,285 170,288.6 174.4,292 178.9,295.2 183.5,298.2 188.3,301 193.3,303.5 198.4,305.8 203.6,307.8 209,309.7 214.5,311.2 
			220,312.5 225.7,313.5 231.4,314.2 237.3,314.7 243.2,314.8 243.2,314.8 		"/>
		<polygon class="st1" points="306.6,129.2 367.6,129.2 367.6,123 311.8,123 306.6,129.2 306.6,129.2 		"/>
		<polygon class="st1" points="297.4,143.1 367.6,143.1 367.6,136.8 301.1,136.8 297.4,143.1 297.4,143.1 		"/>
		<polygon class="st1" points="290.6,156.9 367.6,156.9 367.6,150.7 293.3,150.7 290.6,156.9 290.6,156.9 		"/>
		<polygon class="st1" points="285.9,170.8 367.6,170.8 367.6,164.5 287.9,164.5 285.9,170.8 285.9,170.8 		"/>
		<polygon class="st1" points="288.6,237.8 367.8,237.8 367.8,231.6 286.7,231.6 288.6,237.8 288.6,237.8 		"/>
		<polygon class="st1" points="294.5,251.7 367.8,251.7 367.8,245.4 291.6,245.4 294.5,251.7 294.5,251.7 		"/>
		<polygon class="st1" points="302.7,265.5 367.8,265.5 367.8,259.2 298.8,259.2 302.7,265.5 302.7,265.5 		"/>
		<polygon class="st1" points="314,279.3 367.8,279.3 367.8,273.1 308.5,273.1 314,279.3 314,279.3 		"/>
		<polygon class="st1" points="283.2,184.6 367.6,184.6 367.6,178.4 284.4,178.4 283.2,184.6 283.2,184.6 		"/>
		<polygon class="st1" points="334.6,224 366.8,224 366.8,217.7 335.8,217.7 334.6,224 334.6,224 		"/>
		<polygon class="st1" points="337.2,210.1 366.8,210.1 366.8,203.9 338.3,203.9 337.2,210.1 337.2,210.1 		"/>
		<polygon class="st1" points="281,203.9 289.4,203.9 289.4,210.1 281.4,210.1 281,203.9 281,203.9 		"/>
		<polygon class="st3" points="265.4,196.3 264.9,196.3 264.3,196.2 263.8,196.1 263.3,196 262.9,196 262.4,195.9 261.9,195.8 
			261.3,195.7 260.8,195.6 260.2,195.6 259.5,195.6 258.7,195.5 257.9,195.5 257,195.6 256,195.6 254.9,195.7 254.1,195.8 
			253.4,196 252.7,196.2 252.1,196.4 251.6,196.7 251.1,197 250.7,197.4 250.4,197.7 250.1,198.2 249.9,198.6 249.9,199.1 
			249.9,199.5 250,200 250.1,200.5 250.4,201 250.8,201.5 251.6,202.3 252.5,202.8 253.6,203.3 254.8,203.8 256,204.2 257.3,204.6 
			258.6,205.1 259.8,205.6 261,206.2 262.1,207 263,208 263.8,209.2 264.5,210.7 264.8,212.4 265,214.5 264.8,217 264.6,218.8 
			264.1,220.4 263.5,221.8 262.7,223.1 261.8,224.2 260.8,225.2 259.7,226 258.5,226.8 257.3,227.4 256,227.9 254.7,228.3 
			253.3,228.6 252,228.8 250.8,228.9 249.5,229 248.3,229 246.6,229 245.1,229 243.7,229 242.4,229 241.3,228.9 240.2,228.8 
			239.3,228.8 238.4,228.6 237.6,228.6 236.8,228.4 236.1,228.3 235.4,228.1 234.8,227.9 234.2,227.7 233.5,227.5 232.9,227.2 
			234.6,218.7 235,218.8 235.4,218.9 235.9,219 236.6,219.2 237.3,219.3 238.1,219.5 238.9,219.7 239.9,219.9 240.8,220 
			241.8,220.2 242.9,220.3 244,220.4 245.1,220.4 246.2,220.5 247.3,220.5 248.5,220.4 249.6,220.2 250.5,219.9 251.2,219.5 
			251.7,218.9 252.1,218.4 252.4,217.8 252.6,217.1 252.8,216.6 252.8,215.4 252.5,214.5 251.8,213.7 250.9,213 249.7,212.5 
			248.3,211.9 246.8,211.3 245.3,210.7 243.8,210 242.3,209.2 240.9,208.2 239.7,207 238.7,205.5 238,203.8 237.7,201.7 
			237.7,199.2 237.9,197.7 238.2,196.3 238.6,194.9 239,193.7 239.7,192.5 240.4,191.5 241.2,190.6 242.2,189.7 243.3,189 
			244.5,188.4 245.9,187.8 247.5,187.4 249.2,187 251.1,186.7 253.2,186.6 255.5,186.5 256.9,186.5 258.2,186.6 259.4,186.6 
			260.5,186.7 261.5,186.7 262.4,186.8 263.1,186.9 263.8,187 264.5,187 265,187.2 265.5,187.2 266,187.3 266.4,187.4 266.7,187.4 
			267.1,187.5 267.4,187.6 265.4,196.3 265.4,196.3 		"/>
		<polyline class="st4" points="265.4,196.3 265.4,196.3 264.9,196.3 264.3,196.2 263.8,196.1 263.3,196 262.9,196 262.4,195.9 
			261.9,195.8 261.3,195.7 260.8,195.6 260.2,195.6 259.5,195.6 258.7,195.5 257.9,195.5 257,195.6 256,195.6 254.9,195.7 
			254.9,195.7 254.1,195.8 253.4,196 252.7,196.2 252.1,196.4 251.6,196.7 251.1,197 250.7,197.4 250.4,197.7 250.1,198.2 
			249.9,198.6 249.9,199.1 249.9,199.5 250,200 250.1,200.5 250.4,201 250.8,201.5 250.8,201.5 251.6,202.3 252.5,202.8 
			253.6,203.3 254.8,203.8 256,204.2 257.3,204.6 258.6,205.1 259.8,205.6 261,206.2 262.1,207 263,208 263.8,209.2 264.5,210.7 
			264.8,212.4 265,214.5 264.8,217 264.8,217 264.6,218.8 264.1,220.4 263.5,221.8 262.7,223.1 261.8,224.2 260.8,225.2 259.7,226 
			258.5,226.8 257.3,227.4 256,227.9 254.7,228.3 253.3,228.6 252,228.8 250.8,228.9 249.5,229 248.3,229 248.3,229 246.6,229 
			245.1,229 243.7,229 242.4,229 241.3,228.9 240.2,228.8 239.3,228.8 238.4,228.6 237.6,228.6 236.8,228.4 236.1,228.3 
			235.4,228.1 234.8,227.9 234.2,227.7 233.5,227.5 232.9,227.2 234.6,218.7 234.6,218.7 235,218.8 235.4,218.9 235.9,219 
			236.6,219.2 237.3,219.3 238.1,219.5 238.9,219.7 239.9,219.9 240.8,220 241.8,220.2 242.9,220.3 244,220.4 245.1,220.4 
			246.2,220.5 247.3,220.5 248.5,220.4 248.5,220.4 249.6,220.2 250.5,219.9 251.2,219.5 251.7,218.9 252.1,218.4 252.4,217.8 
			252.6,217.1 252.8,216.6 252.8,216.6 252.8,215.4 252.5,214.5 251.8,213.7 250.9,213 249.7,212.5 248.3,211.9 246.8,211.3 
			245.3,210.7 243.8,210 242.3,209.2 240.9,208.2 239.7,207 238.7,205.5 238,203.8 237.7,201.7 237.7,199.2 237.7,199.2 
			237.9,197.7 238.2,196.3 238.6,194.9 239,193.7 239.7,192.5 240.4,191.5 241.2,190.6 242.2,189.7 243.3,189 244.5,188.4 
			245.9,187.8 247.5,187.4 249.2,187 251.1,186.7 253.2,186.6 255.5,186.5 255.5,186.5 256.9,186.5 258.2,186.6 259.4,186.6 
			260.5,186.7 261.5,186.7 262.4,186.8 263.1,186.9 263.8,187 264.5,187 265,187.2 265.5,187.2 266,187.3 266.4,187.4 266.7,187.4 
			267.1,187.5 267.4,187.6 265.4,196.3 		"/>
		<polygon class="st3" points="274.6,178 285.3,178 283.7,187.4 290.2,187.4 288.8,196.1 282,195.9 278.3,217.5 278.2,218.3 
			278.4,219 278.8,219.5 279.3,219.9 280,220.2 280.8,220.4 281.7,220.5 282.6,220.6 283.4,220.6 284.2,220.5 284.9,220.4 
			285.5,220.2 286,220.1 286.4,220 286.6,219.9 286.7,219.9 285.3,227.1 285.1,227.2 284.8,227.4 284.5,227.6 284.3,227.7 
			284,227.8 283.7,227.9 283.3,228.1 283,228.2 282.6,228.3 282.2,228.4 281.7,228.5 281.3,228.5 280.8,228.6 280.2,228.7 
			279.6,228.8 278.9,228.8 276,228.8 274.4,228.7 273.1,228.6 271.8,228.3 270.8,228.1 269.9,227.7 269.1,227.3 268.5,226.9 
			268,226.4 267.6,225.8 267.3,225.2 267.1,224.5 267,223.8 267,222.9 267,222.1 267.1,221.2 267.2,220.2 274.6,178 274.6,178 		"/>
		<polyline class="st4" points="274.6,178 285.3,178 283.7,187.4 290.2,187.4 288.8,196.1 282,195.9 278.3,217.5 278.3,217.5 
			278.2,218.3 278.4,219 278.8,219.5 279.3,219.9 280,220.2 280.8,220.4 281.7,220.5 282.6,220.6 282.6,220.6 283.4,220.6 
			284.2,220.5 284.9,220.4 285.5,220.2 286,220.1 286.4,220 286.6,219.9 286.7,219.9 285.3,227.1 285.3,227.1 285.1,227.2 
			284.8,227.4 284.5,227.6 284.3,227.7 284,227.8 283.7,227.9 283.3,228.1 283,228.2 282.6,228.3 282.2,228.4 281.7,228.5 
			281.3,228.5 280.8,228.6 280.2,228.7 279.6,228.8 278.9,228.8 276,228.8 276,228.8 274.4,228.7 273.1,228.6 271.8,228.3 
			270.8,228.1 269.9,227.7 269.1,227.3 268.5,226.9 268,226.4 267.6,225.8 267.3,225.2 267.1,224.5 267,223.8 267,222.9 267,222.1 
			267.1,221.2 267.2,220.2 274.6,178 		"/>
		<polyline class="st4" points="298.8,210.7 298.8,210.7 298.7,211.4 298.6,212.1 298.7,212.8 298.9,213.5 299.1,214.3 299.4,215 
			299.9,215.7 300.3,216.4 300.9,217 301.4,217.6 302.1,218.2 302.8,218.6 303.5,219.1 304.2,219.4 305,219.7 305.8,219.9 
			305.8,219.9 306.8,220 307.8,220.1 308.8,220.2 309.8,220.3 310.8,220.4 311.8,220.4 312.8,220.3 313.9,220.2 314.9,220.1 
			316,219.9 317.1,219.7 318.1,219.3 319.2,218.9 320.3,218.4 321.4,217.8 322.5,217.1 321,226.7 321,226.7 320.3,227 319.7,227.3 
			319.1,227.5 318.5,227.8 317.9,227.9 317.3,228.1 316.7,228.3 316,228.4 315.3,228.5 314.6,228.6 313.8,228.7 312.9,228.8 
			311.9,228.8 310.8,228.8 309.6,228.8 308.3,228.8 308.3,228.8 306.4,228.8 304.5,228.6 302.6,228.3 300.6,227.9 298.7,227.3 
			296.9,226.5 295.2,225.6 293.5,224.5 292,223.1 290.7,221.6 289.6,219.8 288.7,217.7 288,215.4 287.6,212.8 287.5,210 
			287.7,206.8 287.7,206.8 287.8,205.6 288,204.1 288.4,202.6 288.8,201 289.4,199.3 290.1,197.7 290.9,196 292,194.3 293.3,192.8 
			294.8,191.3 296.5,190 298.4,188.8 300.7,187.9 303.2,187.2 306,186.7 309.1,186.5 309.1,186.5 310.6,186.6 312.2,186.7 
			313.8,187 315.4,187.4 316.9,188 318.5,188.7 319.8,189.6 321.1,190.7 322.3,192 323.3,193.6 324,195.3 324.6,197.4 324.9,199.7 
			324.9,202.3 324.6,205.3 324.1,208.5 323.9,210.9 295.6,210.9 297.4,203.3 314.4,203.3 314.4,203.3 314.5,202.3 314.4,201.4 
			314.3,200.5 314.2,199.8 313.9,199 313.6,198.4 313.3,197.8 312.9,197.2 312.4,196.8 311.9,196.4 311.3,196 310.7,195.7 
			310.1,195.5 309.5,195.3 308.8,195.2 308.1,195.1 308.1,195.1 307.4,195.2 306.7,195.3 306.1,195.5 305.4,195.7 304.7,196 
			304.2,196.3 303.6,196.8 303.1,197.2 302.6,197.8 302.1,198.4 301.7,199 301.3,199.6 301,200.3 300.7,201.1 300.5,201.9 
			300.3,202.7 298.8,210.7 		"/>
		<polygon class="st3" points="391.1,189.7 390.6,189.4 390.1,189.2 389.6,188.9 389,188.6 388.4,188.4 387.8,188.2 387.1,187.9 
			386.4,187.7 385.7,187.5 384.9,187.4 384.1,187.2 383.3,187.1 382.4,187 381.5,186.9 380.6,186.9 379.6,186.9 378.7,186.9 
			377.7,187 376.6,187.1 375.5,187.3 374.5,187.6 373.4,188.1 372.3,188.6 371.2,189.3 370.2,190.1 369.1,191.2 368.2,192.4 
			367.3,193.8 366.4,195.5 365.6,197.5 364.8,199.6 364.2,202.1 364,203.5 363.8,204.9 363.8,206.2 363.8,207.5 363.9,208.9 
			364.2,210.1 364.5,211.3 365,212.4 365.5,213.5 366.2,214.5 367.1,215.4 368,216.2 369,216.9 370.2,217.5 371.5,218 373,218.3 
			373.5,218.4 374.1,218.5 374.8,218.6 375.6,218.7 376.4,218.8 377.3,218.8 378.3,218.8 379.3,218.7 380.3,218.6 381.3,218.4 
			382.2,218.1 383.2,217.8 384.2,217.4 385.1,216.9 385.9,216.3 386.7,215.6 384.9,225.9 384.7,226.1 384.5,226.3 384.1,226.6 
			383.8,226.8 383.4,227.1 382.8,227.4 382.2,227.7 381.5,227.9 380.6,228.2 379.6,228.4 378.4,228.5 377.1,228.7 375.6,228.8 
			373.8,228.8 371.9,228.8 369.7,228.6 367.9,228.5 366.1,228.1 364.3,227.5 362.6,226.7 360.9,225.8 359.2,224.6 357.7,223.3 
			356.3,221.7 355,220 353.9,218 353,215.9 352.3,213.5 351.8,210.9 351.6,208.2 351.7,205.1 352.1,201.9 352.5,200.3 352.8,198.8 
			353.2,197.3 353.6,195.8 354,194.5 354.5,193.1 355,191.9 355.6,190.7 356.1,189.4 356.7,188.3 357.4,187.2 358.1,186.2 
			358.8,185.3 359.5,184.3 360.3,183.5 361.1,182.7 362,181.9 362.9,181.2 363.8,180.5 364.8,179.9 365.9,179.3 366.9,178.8 
			368,178.3 369.1,177.9 370.3,177.5 371.5,177.2 372.7,176.9 374.1,176.7 375.4,176.5 376.8,176.4 378.2,176.3 379.6,176.2 
			380.9,176.3 382.1,176.4 383.2,176.5 384.4,176.6 385.5,176.8 386.5,177 387.5,177.2 388.5,177.4 389.4,177.7 390.1,177.9 
			390.9,178.1 391.5,178.4 392,178.6 392.5,178.7 392.9,178.9 393.1,179 391.1,189.7 391.1,189.7 		"/>
		<polyline class="st4" points="391.1,189.7 391.1,189.7 390.6,189.4 390.1,189.2 389.6,188.9 389,188.6 388.4,188.4 387.8,188.2 
			387.1,187.9 386.4,187.7 385.7,187.5 384.9,187.4 384.1,187.2 383.3,187.1 382.4,187 381.5,186.9 380.6,186.9 379.6,186.9 
			379.6,186.9 378.7,186.9 377.7,187 376.6,187.1 375.5,187.3 374.5,187.6 373.4,188.1 372.3,188.6 371.2,189.3 370.2,190.1 
			369.1,191.2 368.2,192.4 367.3,193.8 366.4,195.5 365.6,197.5 364.8,199.6 364.2,202.1 364.2,202.1 364,203.5 363.8,204.9 
			363.8,206.2 363.8,207.5 363.9,208.9 364.2,210.1 364.5,211.3 365,212.4 365.5,213.5 366.2,214.5 367.1,215.4 368,216.2 
			369,216.9 370.2,217.5 371.5,218 373,218.3 373,218.3 373.5,218.4 374.1,218.5 374.8,218.6 375.6,218.7 376.4,218.8 377.3,218.8 
			378.3,218.8 379.3,218.7 380.3,218.6 381.3,218.4 382.2,218.1 383.2,217.8 384.2,217.4 385.1,216.9 385.9,216.3 386.7,215.6 
			384.9,225.9 384.9,225.9 384.7,226.1 384.5,226.3 384.1,226.6 383.8,226.8 383.4,227.1 382.8,227.4 382.2,227.7 381.5,227.9 
			380.6,228.2 379.6,228.4 378.4,228.5 377.1,228.7 375.6,228.8 373.8,228.8 371.9,228.8 369.7,228.6 369.7,228.6 367.9,228.5 
			366.1,228.1 364.3,227.5 362.6,226.7 360.9,225.8 359.2,224.6 357.7,223.3 356.3,221.7 355,220 353.9,218 353,215.9 352.3,213.5 
			351.8,210.9 351.6,208.2 351.7,205.1 352.1,201.9 352.1,201.9 352.5,200.3 352.8,198.8 353.2,197.3 353.6,195.8 354,194.5 
			354.5,193.1 355,191.9 355.6,190.7 356.1,189.4 356.7,188.3 357.4,187.2 358.1,186.2 358.8,185.3 359.5,184.3 360.3,183.5 
			361.1,182.7 362,181.9 362.9,181.2 363.8,180.5 364.8,179.9 365.9,179.3 366.9,178.8 368,178.3 369.1,177.9 370.3,177.5 
			371.5,177.2 372.7,176.9 374.1,176.7 375.4,176.5 376.8,176.4 378.2,176.3 379.6,176.2 379.6,176.2 380.9,176.3 382.1,176.4 
			383.2,176.5 384.4,176.6 385.5,176.8 386.5,177 387.5,177.2 388.5,177.4 389.4,177.7 390.1,177.9 390.9,178.1 391.5,178.4 
			392,178.6 392.5,178.7 392.9,178.9 393.1,179 391.1,189.7 		"/>
		<polygon class="st3" points="486.5,228.8 475.8,228.8 476.6,224.5 476.6,224.2 475.9,224.9 475.3,225.6 474.6,226.2 473.9,226.8 
			473.2,227.3 472.5,227.7 471.8,228.1 471.1,228.4 470.4,228.7 469.6,228.9 468.9,229.1 468.1,229.2 467.3,229.3 466.6,229.4 
			465.8,229.4 465.1,229.4 463,229.3 461.2,228.8 459.5,228.2 457.9,227.3 456.5,226.2 455.3,224.9 454.2,223.4 453.3,221.8 
			452.5,220 451.9,218.2 451.5,216.3 451.1,214.4 451,212.4 451.1,210.4 451.3,208.4 451.6,206.4 452.2,204.1 452.9,202 453.7,200 
			454.7,198.1 455.7,196.4 456.8,194.8 458,193.4 459.3,192.2 460.7,191 462.1,190.1 463.6,189.2 465.1,188.6 466.6,188 
			468.1,187.7 469.7,187.4 471.3,187.4 472.4,187.4 473.5,187.5 474.5,187.7 475.4,188 476.3,188.3 477.1,188.6 477.9,189.1 
			478.6,189.5 479.2,189.9 479.8,190.5 480.3,191 480.7,191.5 481.1,192 481.5,192.5 481.8,192.9 482,193.4 482,193.4 484.7,178.2 
			495.3,178.2 486.5,228.8 486.5,228.8 		"/>
		<polyline class="st4" points="486.5,228.8 475.8,228.8 476.6,224.5 476.6,224.2 476.6,224.2 475.9,224.9 475.3,225.6 474.6,226.2 
			473.9,226.8 473.2,227.3 472.5,227.7 471.8,228.1 471.1,228.4 470.4,228.7 469.6,228.9 468.9,229.1 468.1,229.2 467.3,229.3 
			466.6,229.4 465.8,229.4 465.1,229.4 465.1,229.4 463,229.3 461.2,228.8 459.5,228.2 457.9,227.3 456.5,226.2 455.3,224.9 
			454.2,223.4 453.3,221.8 452.5,220 451.9,218.2 451.5,216.3 451.1,214.4 451,212.4 451.1,210.4 451.3,208.4 451.6,206.4 
			451.6,206.4 452.2,204.1 452.9,202 453.7,200 454.7,198.1 455.7,196.4 456.8,194.8 458,193.4 459.3,192.2 460.7,191 462.1,190.1 
			463.6,189.2 465.1,188.6 466.6,188 468.1,187.7 469.7,187.4 471.3,187.4 471.3,187.4 472.4,187.4 473.5,187.5 474.5,187.7 
			475.4,188 476.3,188.3 477.1,188.6 477.9,189.1 478.6,189.5 479.2,189.9 479.8,190.5 480.3,191 480.7,191.5 481.1,192 
			481.5,192.5 481.8,192.9 482,193.4 482,193.4 484.7,178.2 495.3,178.2 486.5,228.8 		"/>
		<polygon class="st1" points="469,219.5 470,219.4 471,219.2 472,218.9 472.9,218.5 473.7,218 474.5,217.4 475.2,216.8 
			475.9,216.1 476.4,215.3 477,214.4 477.5,213.5 477.9,212.6 478.3,211.6 478.6,210.6 478.9,209.6 479.1,208.5 479.3,207.5 
			479.4,206.3 479.4,205.3 479.3,204.2 479.2,203.2 479.1,202.2 478.8,201.3 478.5,200.4 478.1,199.6 477.6,198.9 477.1,198.3 
			476.6,197.7 475.9,197.3 475.2,197 474.5,196.8 473.7,196.7 472.6,196.8 471.6,196.9 470.7,197.2 469.8,197.6 469.1,198.1 
			468.3,198.7 467.6,199.4 467,200.1 466.4,201 465.9,201.9 465.3,202.8 464.9,203.8 464.5,204.9 464.2,205.9 463.9,207 
			463.7,208.2 463.5,209.9 463.6,211.7 463.8,213.6 464.4,215.4 465.1,217 466.1,218.3 467.4,219.2 469,219.5 469,219.5 		"/>
		<polygon class="st3" points="231.1,220.2 229.6,228.8 219.8,228.8 220.1,227.2 220.3,225.8 220.4,224.7 220.6,224.2 220,224.8 
			219.4,225.4 218.7,226 217.9,226.5 216.9,227.1 216,227.5 215,228 213.9,228.4 212.8,228.7 211.7,229 210.5,229.2 209.4,229.4 
			208.3,229.5 207.1,229.5 206.1,229.4 205,229.2 203.6,228.9 202.4,228.5 201.3,228 200.4,227.4 199.5,226.8 198.7,226.1 
			198.1,225.3 197.6,224.6 197.1,223.8 196.7,222.9 196.4,222.1 196.2,221.2 196,220.3 195.9,219.4 195.8,218.6 195.8,217.7 
			195.9,216.2 196.2,214.8 196.6,213.4 197.1,212.1 197.7,210.9 198.4,209.7 199.2,208.7 200.1,207.7 201.1,206.8 202.2,206 
			203.3,205.3 204.5,204.6 205.7,204.1 207,203.7 208.3,203.3 209.7,203.1 209.7,203.1 209.9,203 210.2,203 210.6,203 211.1,202.9 
			211.6,202.8 212.2,202.8 212.9,202.7 213.5,202.6 214.2,202.5 214.9,202.5 215.5,202.4 216.1,202.4 216.7,202.3 217.2,202.3 
			217.7,202.3 218.6,202.3 219.5,202.3 220.3,202.4 221.2,202.4 221.9,202.4 222.4,202.5 222.8,202.5 222.9,202.5 223,202.2 
			223.2,201.5 223.4,200.7 223.5,200 223.4,199.1 223,198.4 222.5,197.7 221.9,197.1 221.2,196.6 220.4,196.2 219.4,196 
			218.4,195.9 217.4,195.9 216.2,195.8 215,195.8 213.8,195.9 212.5,196 211.2,196.1 210,196.2 208.8,196.3 207.6,196.5 
			206.5,196.7 205.5,196.9 204.6,197.1 203.7,197.3 203,197.5 202.5,197.8 202.1,198 204.8,188.7 205.7,188.4 206.5,188.1 
			207.4,187.8 208.4,187.6 209.3,187.4 210.3,187.2 211.3,187.1 212.4,187 213.4,186.9 214.6,186.9 215.7,186.8 216.9,186.8 
			218.2,186.8 219.4,186.8 220.8,186.9 222.2,186.9 223.2,187 224.4,187.2 225.6,187.5 226.8,187.8 228,188.3 229.2,188.8 
			230.4,189.5 231.5,190.2 232.4,191.1 233.3,192 234.1,193 234.6,194.2 235,195.5 235.2,196.8 235.2,198.2 235,199.8 231.1,220.2 
			231.1,220.2 		"/>
		<polyline class="st4" points="231.1,220.2 229.6,228.8 219.8,228.8 219.8,228.8 220.1,227.2 220.3,225.8 220.4,224.7 220.6,224.2 
			220.6,224.2 220,224.8 219.4,225.4 218.7,226 217.9,226.5 216.9,227.1 216,227.5 215,228 213.9,228.4 212.8,228.7 211.7,229 
			210.5,229.2 209.4,229.4 208.3,229.5 207.1,229.5 206.1,229.4 205,229.2 205,229.2 203.6,228.9 202.4,228.5 201.3,228 
			200.4,227.4 199.5,226.8 198.7,226.1 198.1,225.3 197.6,224.6 197.1,223.8 196.7,222.9 196.4,222.1 196.2,221.2 196,220.3 
			195.9,219.4 195.8,218.6 195.8,217.7 195.8,217.7 195.9,216.2 196.2,214.8 196.6,213.4 197.1,212.1 197.7,210.9 198.4,209.7 
			199.2,208.7 200.1,207.7 201.1,206.8 202.2,206 203.3,205.3 204.5,204.6 205.7,204.1 207,203.7 208.3,203.3 209.7,203.1 
			209.7,203.1 209.7,203.1 209.9,203 210.2,203 210.6,203 211.1,202.9 211.6,202.8 212.2,202.8 212.9,202.7 213.5,202.6 
			214.2,202.5 214.9,202.5 215.5,202.4 216.1,202.4 216.7,202.3 217.2,202.3 217.7,202.3 217.7,202.3 218.6,202.3 219.5,202.3 
			220.3,202.4 221.2,202.4 221.9,202.4 222.4,202.5 222.8,202.5 222.9,202.5 222.9,202.5 223,202.2 223.2,201.5 223.4,200.7 
			223.5,200 223.5,200 223.4,199.1 223,198.4 222.5,197.7 221.9,197.1 221.2,196.6 220.4,196.2 219.4,196 218.4,195.9 218.4,195.9 
			217.4,195.9 216.2,195.8 215,195.8 213.8,195.9 212.5,196 211.2,196.1 210,196.2 208.8,196.3 207.6,196.5 206.5,196.7 
			205.5,196.9 204.6,197.1 203.7,197.3 203,197.5 202.5,197.8 202.1,198 204.8,188.7 204.8,188.7 205.7,188.4 206.5,188.1 
			207.4,187.8 208.4,187.6 209.3,187.4 210.3,187.2 211.3,187.1 212.4,187 213.4,186.9 214.6,186.9 215.7,186.8 216.9,186.8 
			218.2,186.8 219.4,186.8 220.8,186.9 222.2,186.9 222.2,186.9 223.2,187 224.4,187.2 225.6,187.5 226.8,187.8 228,188.3 
			229.2,188.8 230.4,189.5 231.5,190.2 232.4,191.1 233.3,192 234.1,193 234.6,194.2 235,195.5 235.2,196.8 235.2,198.2 235,199.8 
			231.1,220.2 		"/>
		<polygon class="st2" points="221.8,210.1 221.7,209.9 221.6,209.7 221.3,209.6 221,209.6 220.5,209.5 220,209.4 219.4,209.4 
			218.9,209.4 218.3,209.5 217.6,209.6 217,209.6 216.4,209.7 215.8,209.8 215.2,209.9 214.8,210 214.3,210.1 214.1,210.2 
			213.8,210.3 213.3,210.5 212.9,210.7 212.4,210.9 211.9,211.2 211.4,211.4 210.9,211.8 210.3,212.1 209.8,212.5 209.3,213 
			208.9,213.5 208.5,214 208.3,214.5 208,215.1 207.9,215.7 207.9,217.1 208.1,218.1 208.5,218.9 209,219.5 209.5,219.9 
			210.2,220.1 210.8,220.2 211.4,220.2 212.6,220.2 213.6,220.1 214.7,219.9 215.5,219.7 216.3,219.4 217,219.1 217.7,218.7 
			218.3,218.3 218.8,217.9 219.3,217.5 219.6,217 220,216.6 220.2,216.1 220.5,215.6 220.7,215.2 220.8,214.8 221.1,213.7 
			221.3,212.4 221.6,211.1 221.8,210.1 221.8,210.1 		"/>
		<polygon class="st3" points="149.6,228.8 139.1,228.8 147.9,178 166.2,178 167.9,208.2 180.6,178 199.7,178 190.8,228.8 
			180.2,228.8 186.9,190.8 186.5,190.8 170.7,228.8 158.8,228.8 158.7,227.2 158.5,223 158.1,217 157.7,210.1 157.3,203.2 
			157,197.1 156.7,192.7 156.6,190.8 156.5,190.8 156.3,190.8 156,190.8 156,190.8 149.6,228.8 149.6,228.8 		"/>
		<polyline class="st4" points="149.6,228.8 139.1,228.8 147.9,178 166.2,178 167.9,208.2 180.6,178 199.7,178 190.8,228.8 
			180.2,228.8 186.9,190.8 186.5,190.8 170.7,228.8 158.8,228.8 158.8,228.8 158.7,227.2 158.5,223 158.1,217 157.7,210.1 
			157.3,203.2 157,197.1 156.7,192.7 156.6,190.8 156.6,190.8 156.5,190.8 156.3,190.8 156,190.8 156,190.8 149.6,228.8 		"/>
		<polygon class="st3" points="423.3,220.2 421.7,228.8 412,228.8 412.1,227.2 412.1,225.9 412.1,224.8 412.2,224.3 411.7,224.9 
			411.1,225.5 410.4,226 409.7,226.6 408.9,227.1 407.9,227.6 406.9,228 406,228.4 404.9,228.7 403.8,229 402.8,229.2 401.7,229.4 
			400.6,229.5 399.5,229.5 398.4,229.4 397.4,229.2 396,228.9 394.8,228.5 393.7,228 392.7,227.4 391.8,226.8 391.1,226.1 
			390.4,225.3 389.9,224.6 389.4,223.8 389.1,222.9 388.8,222.1 388.6,221.2 388.4,220.3 388.3,219.4 388.2,218.6 388.2,217.7 
			388.3,216.2 388.6,214.8 388.9,213.4 389.4,212.1 390,210.9 390.7,209.7 391.5,208.7 392.4,207.7 393.4,206.8 394.5,206 
			395.6,205.3 396.8,204.6 398,204.1 399.3,203.7 400.6,203.3 401.9,203.1 402,203.1 402.1,203 402.4,203 402.8,203 403.3,202.9 
			403.8,202.8 404.4,202.8 405,202.7 405.7,202.6 406.4,202.5 407.1,202.5 407.7,202.4 408.3,202.4 408.9,202.3 409.4,202.3 
			409.9,202.3 410.8,202.3 411.7,202.3 412.6,202.4 413.5,202.4 414.2,202.4 414.8,202.5 415.2,202.5 415.3,202.5 415.4,202.2 
			415.5,201.5 415.6,200.7 415.7,200 415.6,199.1 415.2,198.4 414.7,197.7 414.2,197.1 413.5,196.6 412.6,196.2 411.8,196 
			410.9,195.9 409.8,195.9 408.6,195.8 407.4,195.8 406.2,195.9 404.9,196 403.7,196.1 402.4,196.2 401.2,196.3 400.1,196.5 
			398.9,196.7 397.9,196.9 397,197.1 396.1,197.3 395.5,197.5 394.9,197.8 394.5,198 397.2,188.7 398,188.4 398.9,188.1 
			399.8,187.8 400.7,187.6 401.7,187.4 402.7,187.2 403.7,187.1 404.7,187 405.8,186.9 406.9,186.9 408.1,186.8 409.3,186.8 
			410.5,186.8 411.7,186.8 413,186.9 414.3,186.9 415.4,187 416.6,187.2 417.8,187.5 419,187.8 420.2,188.3 421.4,188.8 
			422.6,189.5 423.7,190.2 424.7,191.1 425.5,192 426.3,193 426.9,194.2 427.3,195.5 427.6,196.8 427.6,198.2 427.4,199.8 
			423.3,220.2 423.3,220.2 		"/>
		<polygon class="st3" points="421.7,229.1 422,228.9 423.6,220.3 423.1,220.2 421.5,228.8 421.7,228.6 421.7,229.1 421.9,229.1 
			422,228.9 421.7,229.1 421.7,229.1 		"/>
		<polygon class="st3" points="411.8,228.8 412,229.1 421.7,229.1 421.7,228.6 412,228.6 412.3,228.8 411.8,228.8 411.8,229.1 
			412,229.1 411.8,228.8 411.8,228.8 		"/>
		<polygon class="st3" points="412.4,224.5 412.1,224.2 411.9,224.8 411.9,225.9 411.9,227.2 411.8,228.8 412.3,228.8 412.3,227.2 
			412.4,225.9 412.4,224.8 412.4,224.5 412,224.2 412.4,224.5 412.4,224.5 		"/>
		<polygon class="st3" points="397.3,229.5 397.3,229.5 398.4,229.6 399.5,229.7 400.6,229.7 401.7,229.6 402.8,229.5 403.9,229.3 
			405,229 406.1,228.6 407,228.3 408,227.8 409,227.3 409.8,226.8 410.6,226.2 411.3,225.7 411.9,225.1 412.4,224.5 412,224.2 
			411.5,224.8 411,225.3 410.3,225.9 409.5,226.4 408.7,226.9 407.8,227.3 406.9,227.8 405.9,228.2 404.9,228.5 403.8,228.8 
			402.7,229 401.7,229.1 400.6,229.2 399.5,229.3 398.4,229.1 397.4,229 397.4,229 397.3,229.5 397.3,229.5 		"/>
		<polygon class="st3" points="388,217.7 388,217.7 388,218.6 388.1,219.4 388.2,220.4 388.4,221.2 388.6,222.1 388.9,223 
			389.2,223.9 389.7,224.7 390.3,225.5 390.9,226.2 391.7,227 392.5,227.6 393.5,228.2 394.7,228.7 395.9,229.1 397.3,229.5 
			397.4,229 396,228.6 394.8,228.3 393.8,227.8 392.8,227.2 392,226.6 391.3,225.9 390.6,225.2 390.1,224.5 389.7,223.6 
			389.3,222.8 389,222 388.8,221.2 388.7,220.3 388.6,219.4 388.5,218.6 388.5,217.7 388.5,217.7 388,217.7 388,217.7 		"/>
		<polygon class="st3" points="401.9,202.8 401.9,202.8 400.5,203.1 399.2,203.4 397.9,203.9 396.7,204.4 395.5,205 394.3,205.8 
			393.3,206.6 392.3,207.5 391.3,208.5 390.5,209.6 389.8,210.8 389.2,212 388.7,213.3 388.3,214.7 388.1,216.2 388,217.7 
			388.5,217.7 388.6,216.2 388.8,214.8 389.1,213.5 389.6,212.2 390.2,211 390.9,209.9 391.7,208.8 392.6,207.8 393.6,207 
			394.6,206.2 395.7,205.5 396.9,204.9 398.1,204.3 399.4,203.9 400.6,203.5 401.9,203.3 401.9,203.3 401.9,202.8 401.9,202.8 		"/>
		<polygon class="st3" points="409.9,202 409.9,202 409.4,202 408.9,202.1 408.3,202.2 407.7,202.2 407.1,202.3 406.4,202.3 
			405.7,202.4 405,202.5 404.4,202.5 403.8,202.6 403.3,202.7 402.8,202.7 402.4,202.8 402.1,202.8 402,202.8 401.9,202.8 
			401.9,203.3 402,203.3 402.2,203.3 402.4,203.2 402.8,203.2 403.3,203.1 403.8,203.1 404.4,203 405,202.9 405.7,202.8 
			406.4,202.8 407.1,202.7 407.7,202.7 408.3,202.6 408.9,202.6 409.4,202.6 409.9,202.6 409.9,202.6 409.9,202 409.9,202 		"/>
		<polygon class="st3" points="415.1,202.5 415.3,202.3 415.2,202.3 414.8,202.2 414.2,202.2 413.5,202.1 412.6,202.1 411.7,202.1 
			410.8,202 409.9,202 409.9,202.6 410.8,202.6 411.7,202.6 412.6,202.7 413.5,202.7 414.2,202.7 414.8,202.7 415.2,202.7 
			415.3,202.7 415.6,202.5 415.3,202.7 415.5,202.8 415.6,202.5 415.1,202.5 415.1,202.5 		"/>
		<polygon class="st3" points="415.5,200 415.4,200 415.4,200.7 415.3,201.5 415.2,202.2 415.1,202.5 415.6,202.5 415.6,202.3 
			415.7,201.6 415.9,200.7 416,200 415.9,200 415.5,200 415.5,200 		"/>
		<polygon class="st3" points="410.9,196.1 410.9,196.2 411.8,196.2 412.6,196.5 413.3,196.8 414,197.3 414.5,197.8 415,198.5 
			415.3,199.2 415.5,200 415.9,200 415.8,199.1 415.5,198.2 414.9,197.5 414.3,196.9 413.6,196.3 412.7,196 411.8,195.8 
			410.9,195.6 410.9,195.7 410.9,196.1 410.9,196.1 		"/>
		<polygon class="st3" points="394.2,198 394.6,198.2 395,198 395.5,197.8 396.2,197.5 397,197.3 398,197.1 399,196.9 400.1,196.7 
			401.2,196.6 402.4,196.4 403.7,196.3 404.9,196.2 406.2,196.1 407.4,196.1 408.6,196.1 409.8,196.1 410.9,196.1 410.9,195.7 
			409.8,195.6 408.6,195.6 407.4,195.6 406.2,195.6 404.9,195.7 403.7,195.8 402.4,196 401.2,196.1 400,196.3 398.9,196.5 
			397.9,196.7 397,196.8 396.1,197.1 395.4,197.3 394.8,197.6 394.3,197.9 394.7,198.1 394.2,198 394.2,198 		"/>
		<polygon class="st3" points="397.1,188.5 397,188.7 394.2,198 394.7,198.1 397.4,188.7 397.3,188.9 397.1,188.5 397,188.5 
			397,188.7 397.1,188.5 397.1,188.5 		"/>
		<polygon class="st3" points="414.3,186.7 414.3,186.7 413,186.6 411.7,186.6 410.5,186.6 409.3,186.6 408.1,186.6 406.9,186.7 
			405.8,186.7 404.7,186.8 403.7,186.8 402.6,187 401.7,187.2 400.7,187.4 399.8,187.6 398.9,187.8 398,188.1 397.1,188.5 
			397.3,188.9 398.1,188.6 399,188.3 399.9,188 400.8,187.8 401.8,187.6 402.7,187.5 403.7,187.3 404.7,187.2 405.8,187.2 
			406.9,187.1 408.1,187.1 409.3,187.1 410.5,187.1 411.7,187.1 413,187.2 414.3,187.2 414.3,187.2 414.3,186.7 414.3,186.7 		"/>
		<polygon class="st3" points="427.6,199.8 427.6,199.8 427.8,198.2 427.8,196.8 427.6,195.4 427.1,194.1 426.5,192.9 425.7,191.9 
			424.8,190.9 423.8,190 422.7,189.3 421.6,188.6 420.3,188.1 419.1,187.6 417.8,187.2 416.6,187 415.4,186.8 414.3,186.7 
			414.3,187.2 415.4,187.2 416.6,187.4 417.8,187.7 419,188.1 420.2,188.5 421.3,189.1 422.5,189.7 423.5,190.4 424.5,191.3 
			425.3,192.2 426.1,193.2 426.7,194.3 427.1,195.5 427.4,196.8 427.4,198.2 427.2,199.8 427.2,199.8 427.6,199.8 427.6,199.8 		"/>
		<polygon class="st3" points="423.6,220.3 423.6,220.3 427.6,199.8 427.2,199.8 423.1,220.2 423.1,220.2 423.6,220.3 423.6,220.3 
					"/>
		<polygon class="st1" points="414,210.1 413.9,209.9 413.7,209.7 413.5,209.6 413.1,209.5 412.6,209.4 412.1,209.4 411.6,209.4 
			411,209.4 410.4,209.5 409.7,209.6 409.1,209.7 408.5,209.7 408,209.9 407.5,209.9 406.9,210.1 406.6,210.1 406.3,210.2 
			406,210.3 405.6,210.4 405.2,210.6 404.7,210.8 404.2,211 403.7,211.3 403.2,211.6 402.6,212 402.1,212.4 401.7,212.8 
			401.3,213.3 400.9,213.9 400.7,214.5 400.4,215.1 400.3,215.7 400.3,217.1 400.5,218.1 400.8,218.9 401.3,219.5 401.8,219.9 
			402.5,220.1 403.2,220.2 403.8,220.2 405,220.2 406.1,220.1 407.1,219.9 408,219.6 408.8,219.3 409.5,219 410.2,218.6 
			410.9,218.1 411.4,217.7 411.9,217.2 412.3,216.7 412.6,216.2 412.9,215.7 413.1,215.3 413.3,214.8 413.4,214.4 413.5,213.3 
			413.7,212.2 413.9,211.1 414,210.1 414,210.1 		"/>
		<polygon class="st3" points="493.7,223.5 493.8,222.6 494.1,221.6 494.7,220.7 495.3,219.9 496.1,219.2 497.1,218.7 498.1,218.4 
			499.2,218.3 500.3,218.4 501.3,218.7 502.2,219.2 503,219.9 503.7,220.7 504.2,221.6 504.5,222.6 504.6,223.5 503.4,223.5 
			503.4,222.8 503.2,222 502.8,221.2 502.3,220.5 501.7,220 500.9,219.6 500.1,219.3 499.2,219.3 498.3,219.3 497.4,219.6 
			496.7,220 496.1,220.5 495.6,221.2 495.2,222 494.9,222.8 494.9,223.5 493.7,223.5 493.7,223.5 		"/>
		<polygon class="st3" points="497.2,223.5 497.2,221.2 499.4,221.2 499.8,221.2 500.3,221.3 500.6,221.4 500.8,221.6 501,221.8 
			501.2,222.1 501.3,222.3 501.3,222.6 501.3,222.9 501.2,223.2 501.1,223.5 501,223.5 499.4,223.5 499.5,223.5 499.8,223.5 
			500,223.4 500.2,223.3 500.4,223.2 500.5,223.1 500.5,222.9 500.5,222.6 500.5,222.4 500.4,222.3 500.3,222.2 500.2,222.1 
			500,222.1 499.8,222 499.6,222 499.4,222 498.2,222 498.2,223.5 497.2,223.5 497.2,223.5 		"/>
		<polygon class="st3" points="493.7,223.5 493.7,223.8 493.8,224.9 494.1,225.9 494.7,226.9 495.3,227.6 496.1,228.3 497.1,228.8 
			498.1,229.1 499.2,229.2 500.3,229.1 501.3,228.8 502.2,228.3 503,227.6 503.7,226.9 504.2,225.9 504.5,224.9 504.6,223.8 
			504.6,223.5 503.4,223.5 503.5,223.8 503.4,224.7 503.2,225.5 502.8,226.3 502.3,226.9 501.7,227.5 500.9,227.9 500.1,228.2 
			499.2,228.3 498.3,228.2 497.4,227.9 496.7,227.5 496.1,226.9 495.6,226.3 495.2,225.5 494.9,224.7 494.9,223.8 494.9,223.5 
			493.7,223.5 493.7,223.5 		"/>
		<polygon class="st3" points="497.2,223.5 497.2,225.9 498.2,225.9 498.2,224 499.2,224 500.3,225.9 501.1,225.9 499.9,224 
			500.2,224 500.5,223.9 500.7,223.8 500.9,223.6 501,223.5 499.4,223.5 499.2,223.6 498.2,223.6 498.2,223.5 497.2,223.5 
			497.2,223.5 		"/>
		<path class="st4" d="M493.7,223.8L493.7,223.8l0.1-1.1l0.3-1l0.5-0.9l0.7-0.8l0.8-0.7l0.9-0.5l1-0.3l1.1-0.1l0,0l1.1,0.1l1,0.3
			l0.9,0.5l0.8,0.7l0.7,0.8l0.5,0.9l0.3,1l0.1,1.1l0,0l-0.1,1.1l-0.3,1l-0.5,0.9l-0.7,0.8l-0.8,0.7l-0.9,0.5l-1,0.3l-1.1,0.1l0,0
			l-1.1-0.1l-1-0.3l-0.9-0.5l-0.8-0.7l-0.7-0.8l-0.5-0.9l-0.3-1L493.7,223.8 M498.2,225.9h-1v-4.7h2.1l0,0l0.5,0l0.4,0.1l0.3,0.1
			l0.3,0.2l0.2,0.2l0.2,0.2l0.1,0.3l0,0.3l0,0l0,0.3l-0.1,0.3l-0.1,0.2l-0.2,0.2l-0.2,0.2l-0.2,0.1l-0.3,0.1h-0.3l1.2,1.9h-0.8
			l-1.2-1.9h-1V225.9 M499.2,223.6L499.2,223.6l0.3-0.1l0.3,0l0.2-0.1l0.2-0.1l0.2-0.1l0.1-0.1l0.1-0.2v-0.3l0,0l0-0.2l-0.1-0.2
			l-0.1-0.1l-0.1-0.1l-0.2,0l-0.2,0h-0.2h-0.2h-1.2v1.5H499.2 M499.2,228.3L499.2,228.3l0.9-0.1l0.9-0.3l0.7-0.4l0.6-0.5l0.5-0.7
			l0.4-0.7l0.2-0.9l0.1-0.9l0,0l-0.1-0.9l-0.2-0.9l-0.4-0.8l-0.5-0.7l-0.6-0.5l-0.7-0.4l-0.9-0.3l-0.9-0.1l0,0l-0.9,0.1l-0.8,0.3
			l-0.7,0.4l-0.6,0.5l-0.5,0.7l-0.4,0.8l-0.2,0.9l-0.1,0.9l0,0l0.1,0.9l0.2,0.9l0.4,0.7l0.5,0.7l0.6,0.5l0.7,0.4l0.8,0.3
			L499.2,228.3"/>
		<polygon class="st3" points="426.2,228.8 437.2,228.8 437.2,228.8 441.1,206.8 441.2,206 441.5,205.1 441.7,204.2 442,203.4 
			442.4,202.5 442.9,201.7 443.4,201 444,200.2 444.7,199.6 445.5,198.9 446.3,198.4 447.3,197.9 448.5,197.5 449.7,197.2 
			451.1,197 452.6,196.9 453.1,196.9 453.4,196.9 453.5,196.9 453.5,196.9 455.3,186.9 454.2,187 453.2,187.1 452.2,187.3 
			451.3,187.6 450.4,187.9 449.6,188.3 448.8,188.7 448.1,189.2 447.4,189.7 446.7,190.3 446.1,190.9 445.5,191.5 444.9,192.2 
			444.3,192.9 443.7,193.6 443.2,194.4 444.4,187.4 433.5,187.4 426.2,228.8 426.2,228.8 426.2,228.8 		"/>
		<polyline class="st4" points="426.2,228.8 437.2,228.8 437.2,228.8 441.1,206.8 441.1,206.8 441.2,206 441.5,205.1 441.7,204.2 
			442,203.4 442.4,202.5 442.9,201.7 443.4,201 444,200.2 444.7,199.6 445.5,198.9 446.3,198.4 447.3,197.9 448.5,197.5 
			449.7,197.2 451.1,197 452.6,196.9 452.6,196.9 453.1,196.9 453.4,196.9 453.5,196.9 453.5,196.9 455.3,186.9 455.3,186.9 
			454.2,187 453.2,187.1 452.2,187.3 451.3,187.6 450.4,187.9 449.6,188.3 448.8,188.7 448.1,189.2 447.4,189.7 446.7,190.3 
			446.1,190.9 445.5,191.5 444.9,192.2 444.3,192.9 443.7,193.6 443.2,194.4 444.4,187.4 433.5,187.4 426.2,228.8 426.2,228.8 		"/>
		<polygon class="st3" points="323.7,228.8 334.6,228.8 334.8,228.8 338.5,206.8 338.7,206 338.9,205.1 339.1,204.3 339.3,203.5 
			339.6,202.8 340,202 340.5,201.3 341,200.7 341.6,200.1 342.3,199.5 343.2,199.1 344.1,198.6 345.2,198.3 346.4,198 347.7,197.8 
			349.2,197.7 349.4,197.7 349.5,197.7 349.7,197.7 349.9,197.7 350.1,197.8 350.3,197.8 350.4,197.9 350.4,197.9 350.4,197.7 
			350.6,197.2 350.7,196.5 350.9,195.7 351.2,194.7 351.4,193.6 351.8,192.5 352.1,191.4 352.5,190.7 352.8,189.9 353.2,189.2 
			353.6,188.6 354,188 354.2,187.5 354.4,187.2 354.5,187.1 354.5,187.1 354.3,187.1 354.1,187 353.8,187 353.6,187 353.3,187 
			353,186.9 352.7,186.9 351.5,187 350.4,187.1 349.4,187.3 348.5,187.6 347.6,187.9 346.8,188.3 346.1,188.6 345.4,189.1 
			344.7,189.6 344.1,190.2 343.5,190.8 342.9,191.4 342.3,192.1 341.8,192.8 341.2,193.6 340.6,194.4 342,187.4 330.9,187.4 
			323.7,228.8 323.7,228.8 323.7,228.8 		"/>
		<polyline class="st4" points="323.7,228.8 334.6,228.8 334.8,228.8 338.5,206.8 338.5,206.8 338.7,206 338.9,205.1 339.1,204.3 
			339.3,203.5 339.6,202.8 340,202 340.5,201.3 341,200.7 341.6,200.1 342.3,199.5 343.2,199.1 344.1,198.6 345.2,198.3 346.4,198 
			347.7,197.8 349.2,197.7 349.2,197.7 349.4,197.7 349.5,197.7 349.7,197.7 349.9,197.7 350.1,197.8 350.3,197.8 350.4,197.9 
			350.4,197.9 350.4,197.9 350.4,197.7 350.6,197.2 350.7,196.5 350.9,195.7 351.2,194.7 351.4,193.6 351.8,192.5 352.1,191.4 
			352.1,191.4 352.5,190.7 352.8,189.9 353.2,189.2 353.6,188.6 354,188 354.2,187.5 354.4,187.2 354.5,187.1 354.5,187.1 
			354.5,187.1 354.3,187.1 354.1,187 353.8,187 353.6,187 353.3,187 353,186.9 352.7,186.9 352.7,186.9 351.5,187 350.4,187.1 
			349.4,187.3 348.5,187.6 347.6,187.9 346.8,188.3 346.1,188.6 345.4,189.1 344.7,189.6 344.1,190.2 343.5,190.8 342.9,191.4 
			342.3,192.1 341.8,192.8 341.2,193.6 340.6,194.4 342,187.4 330.9,187.4 323.7,228.8 323.7,228.8 		"/>
		<polygon class="st1" points="493.8,269.6 493.8,269.4 494.1,268.4 494.7,267.5 495.3,266.8 496.1,266.1 497.1,265.7 498.1,265.4 
			499.2,265.3 500.3,265.4 501.3,265.7 502.2,266.1 503,266.8 503.7,267.5 504.2,268.4 504.5,269.4 504.5,269.6 503.4,269.6 
			503.2,268.8 502.8,268 502.3,267.4 501.7,266.8 500.9,266.4 500.1,266.1 499.2,266.1 498.3,266.1 497.4,266.4 496.7,266.8 
			496.1,267.4 495.6,268 495.2,268.8 494.9,269.6 493.8,269.6 493.8,269.6 		"/>
		<polygon class="st1" points="497.2,269.6 497.2,268.2 499.4,268.2 499.8,268.2 500.3,268.3 500.6,268.4 500.8,268.5 501,268.7 
			501.2,269 501.3,269.2 501.3,269.6 500.5,269.6 500.5,269.4 500.5,269.2 500.4,269 500.3,269 500.2,268.9 500,268.8 499.8,268.8 
			499.6,268.8 499.4,268.8 498.2,268.8 498.2,269.6 497.2,269.6 497.2,269.6 		"/>
		<polygon class="st1" points="493.7,270.4 493.8,269.6 494.9,269.6 494.9,269.6 494.9,270.4 493.7,270.4 493.7,270.4 		"/>
		<polygon class="st1" points="497.2,270.4 497.2,269.6 498.2,269.6 498.2,270.4 499.2,270.4 499.5,270.3 499.8,270.2 500,270.2 
			500.2,270.1 500.4,270 500.5,269.9 500.5,269.7 500.5,269.6 501.3,269.6 501.3,269.6 501.3,269.9 501.2,270.1 501.1,270.3 
			500.9,270.4 497.2,270.4 497.2,270.4 		"/>
		<polygon class="st1" points="503.5,270.4 503.4,269.6 503.4,269.6 504.5,269.6 504.6,270.4 503.5,270.4 503.5,270.4 		"/>
		<polygon class="st1" points="493.7,270.4 493.7,270.6 493.8,271.7 494.1,272.7 494.7,273.7 495.3,274.5 496.1,275.1 497.1,275.6 
			498.1,275.9 499.2,276 500.3,275.9 501.3,275.6 502.2,275.1 503,274.5 503.7,273.7 504.2,272.7 504.5,271.7 504.6,270.6 
			504.6,270.4 503.5,270.4 503.5,270.6 503.4,271.5 503.2,272.3 502.8,273.1 502.3,273.7 501.7,274.3 500.9,274.7 500.1,275 
			499.2,275 498.3,275 497.4,274.7 496.7,274.3 496.1,273.7 495.6,273.1 495.2,272.3 494.9,271.5 494.9,270.6 494.9,270.4 
			493.7,270.4 493.7,270.4 		"/>
		<polygon class="st1" points="497.2,270.4 497.2,272.7 498.2,272.7 498.2,270.7 499.2,270.7 500.3,272.7 501.1,272.7 499.9,270.7 
			500.2,270.7 500.5,270.7 500.7,270.6 500.9,270.4 500.9,270.4 497.2,270.4 497.2,270.4 		"/>
		<path class="st3" d="M324.9,199.7l-0.3-2.3l-0.5-2.1l-0.8-1.8l-1-1.6l-1.2-1.3l-1.3-1.1l-1.4-0.9l-1.5-0.7l-1.5-0.6l-1.6-0.4
			l-1.6-0.3l-1.6-0.2l-1.5,0l-3.1,0.2l-2.8,0.5l-2.5,0.7l-2.2,1l-1.9,1.2l-1.7,1.3l-1.5,1.5l-1.2,1.6l-1.1,1.6l-0.9,1.7l-0.7,1.7
			l-0.6,1.7l-0.4,1.6l-0.3,1.5l-0.2,1.4l-0.2,1.2l-0.2,3.2l0.1,2.9l0.4,2.6l0.7,2.3l0.9,2.1l1.1,1.8l1.3,1.6l1.5,1.3l1.6,1.1l1.7,1
			l1.8,0.7l1.9,0.6l1.9,0.5l1.9,0.3l1.9,0.2l1.9,0h1.3l1.2,0h1l1,0l0.9-0.1l0.8-0.1l0.8-0.1l0.7-0.1l0.7-0.1l0.6-0.1l0.6-0.2
			l0.6-0.2l0.6-0.2l0.6-0.2l0.6-0.3l0.6-0.3l1.5-9.5l-1.1,0.7l-1.1,0.6l-1.1,0.5l-1.1,0.4l-1,0.3l-1.1,0.2l-1,0.2l-1,0.2l-1,0.1
			l-1,0h-1l-1,0l-1-0.1l-1-0.1l-1-0.1l-1-0.2l-0.8-0.2l-0.8-0.3l-0.8-0.3l-0.7-0.4l-0.7-0.5l-0.6-0.6l-0.6-0.6l-0.5-0.7l-0.5-0.7
			l-0.4-0.7l-0.3-0.7l-0.3-0.7l-0.2-0.7l-0.1-0.7l0-0.7l0.1-0.5h25.1l0.2-2.4l0.6-3.3l0.3-2.9L324.9,199.7z M314.4,203.3h-14.2l0,0
			l0,0l0.1-0.5l0.2-0.8l0.2-0.8l0.3-0.8l0.4-0.7l0.4-0.7l0.4-0.6l0.5-0.6l0.5-0.5l0.5-0.5l0.6-0.4l0.6-0.4l0.7-0.3l0.7-0.2l0.7-0.2
			l0.7-0.1l0.7,0l0.7,0.1l0.7,0.1l0.6,0.2l0.6,0.2l0.6,0.3l0.6,0.3l0.5,0.4l0.5,0.5l0.4,0.5l0.4,0.6l0.3,0.7l0.3,0.7l0.1,0.8
			l0.1,0.9l0,0.9L314.4,203.3z"/>
	</g>
</g>
</svg>
