<?xml version="1.0" encoding="utf-8"?>
<!-- Generator: Adobe Illustrator 21.0.0, SVG Export Plug-In . SVG Version: 6.00 Build 0)  -->
<svg version="1.1" id="Layer_1" xmlns="http://www.w3.org/2000/svg" xmlns:xlink="http://www.w3.org/1999/xlink" x="0px" y="0px"
	 viewBox="0 0 640 400" style="enable-background:new 0 0 640 400;" xml:space="preserve">
<style type="text/css">
	.st0{fill:#F9F9F9;}
	.st1{fill:#0054A5;}
	.st2{fill:#FFC10E;}
</style>
<g>
	<path class="st0" d="M640,378.7c0,11.8-9.5,21.3-21.3,21.3H21.3C9.5,400,0,390.5,0,378.7V21.3C0,9.5,9.5,0,21.3,0h597.3
		C630.5,0,640,9.5,640,21.3V378.7z"/>
</g>
<g>
	<path class="st1" d="M37.5,280.4l5.8-0.6c0.3,2,1.1,3.4,2.1,4.3c1.1,0.9,2.5,1.4,4.3,1.4c1.9,0,3.4-0.4,4.3-1.2
		c1-0.8,1.5-1.8,1.5-2.9c0-0.7-0.2-1.3-0.6-1.8c-0.4-0.5-1.1-0.9-2.1-1.3c-0.7-0.2-2.3-0.7-4.8-1.3c-3.2-0.8-5.4-1.8-6.7-2.9
		c-1.8-1.6-2.7-3.6-2.7-5.9c0-1.5,0.4-2.9,1.3-4.2c0.9-1.3,2.1-2.3,3.7-3c1.6-0.7,3.5-1,5.8-1c3.7,0,6.5,0.8,8.4,2.4
		c1.9,1.6,2.9,3.8,3,6.5l-6,0.2c-0.3-1.5-0.8-2.6-1.6-3.3c-0.8-0.7-2.1-1-3.8-1c-1.7,0-3.1,0.4-4.1,1.1c-0.6,0.5-0.9,1.1-0.9,1.8
		c0,0.7,0.3,1.3,0.9,1.8c0.8,0.6,2.6,1.3,5.5,2c2.9,0.7,5,1.4,6.4,2.1c1.4,0.7,2.5,1.7,3.3,3c0.8,1.3,1.2,2.8,1.2,4.7
		c0,1.7-0.5,3.3-1.4,4.8c-0.9,1.5-2.3,2.6-4,3.3c-1.7,0.7-3.9,1.1-6.4,1.1c-3.7,0-6.6-0.9-8.6-2.6C39.1,286.2,37.9,283.7,37.5,280.4
		z"/>
	<path class="st1" d="M67.7,265.7v-5.2h5.7v5.2H67.7z M67.7,290.1v-21.4h5.7v21.4H67.7z"/>
	<path class="st1" d="M99.9,290.1h-5.7v-10.9c0-2.3-0.1-3.8-0.4-4.5c-0.2-0.7-0.6-1.2-1.2-1.6c-0.5-0.4-1.2-0.6-2-0.6
		c-1,0-1.9,0.3-2.6,0.8c-0.8,0.5-1.3,1.3-1.6,2.1c-0.3,0.9-0.4,2.5-0.4,4.9v9.7h-5.7v-21.4h5.3v3.1c1.9-2.4,4.2-3.7,7.1-3.7
		c1.2,0,2.4,0.2,3.4,0.7c1,0.5,1.8,1,2.3,1.7c0.5,0.7,0.9,1.5,1.1,2.4c0.2,0.9,0.3,2.2,0.3,3.8V290.1z"/>
	<path class="st1" d="M106.3,291.5l6.4,0.7c0.1,0.8,0.4,1.3,0.7,1.6c0.5,0.4,1.4,0.6,2.5,0.6c1.5,0,2.6-0.2,3.3-0.7
		c0.5-0.3,0.9-0.8,1.1-1.4c0.2-0.5,0.3-1.3,0.3-2.6l0-3.1c-1.7,2.3-3.8,3.4-6.4,3.4c-2.9,0-5.2-1.2-6.8-3.7c-1.3-1.9-2-4.3-2-7.2
		c0-3.6,0.9-6.3,2.6-8.2c1.7-1.9,3.9-2.8,6.4-2.8c2.6,0,4.8,1.2,6.6,3.5v-3h5.3v19.2c0,2.5-0.2,4.4-0.6,5.7c-0.4,1.3-1,2.2-1.8,2.9
		c-0.8,0.7-1.8,1.3-3,1.7c-1.3,0.4-2.8,0.6-4.8,0.6c-3.6,0-6.2-0.6-7.7-1.9c-1.5-1.3-2.3-2.8-2.3-4.8
		C106.3,292,106.3,291.7,106.3,291.5z M111.4,278.9c0,2.3,0.4,3.9,1.3,5c0.9,1.1,1.9,1.6,3.2,1.6c1.4,0,2.5-0.5,3.5-1.6
		c0.9-1.1,1.4-2.7,1.4-4.8c0-2.2-0.5-3.9-1.4-5c-0.9-1.1-2.1-1.6-3.4-1.6c-1.3,0-2.5,0.5-3.3,1.6
		C111.9,275.1,111.4,276.7,111.4,278.9z"/>
	<path class="st1" d="M133.3,290.1v-29.5h5.7v29.5H133.3z"/>
	<path class="st1" d="M158.5,283.3l5.6,0.9c-0.7,2.1-1.9,3.6-3.4,4.7c-1.6,1.1-3.5,1.6-5.9,1.6c-3.7,0-6.5-1.2-8.3-3.7
		c-1.4-2-2.1-4.4-2.1-7.4c0-3.6,0.9-6.3,2.8-8.4c1.9-2,4.2-3,7.1-3c3.2,0,5.7,1.1,7.6,3.2c1.8,2.1,2.7,5.4,2.6,9.7h-14.2
		c0,1.7,0.5,3,1.4,3.9c0.9,0.9,2,1.4,3.3,1.4c0.9,0,1.6-0.2,2.3-0.7C157.7,285.2,158.2,284.4,158.5,283.3z M158.8,277.6
		c0-1.7-0.5-2.9-1.3-3.8c-0.8-0.9-1.8-1.3-3-1.3c-1.2,0-2.3,0.5-3.1,1.4c-0.8,0.9-1.2,2.2-1.2,3.7H158.8z"/>
	<path class="st1" d="M183,290.1v-29.5h21.9v5H189v6.6h14.8v5H189v8h16.5v5H183z"/>
	<path class="st1" d="M225.8,290.1v-3.2c-0.8,1.1-1.8,2-3.1,2.7c-1.3,0.7-2.6,1-4,1c-1.4,0-2.7-0.3-3.9-0.9c-1.1-0.6-2-1.5-2.5-2.7
		c-0.5-1.1-0.8-2.7-0.8-4.7v-13.6h5.7v9.8c0,3,0.1,4.9,0.3,5.5c0.2,0.7,0.6,1.2,1.1,1.6c0.6,0.4,1.3,0.6,2.1,0.6
		c1,0,1.8-0.3,2.6-0.8c0.8-0.5,1.3-1.2,1.6-2c0.3-0.8,0.4-2.7,0.4-5.8v-9h5.7v21.4H225.8z"/>
	<path class="st1" d="M243.6,290.1h-5.7v-21.4h5.3v3c0.9-1.4,1.7-2.4,2.4-2.9c0.7-0.5,1.5-0.7,2.5-0.7c1.3,0,2.5,0.4,3.7,1.1l-1.7,5
		c-1-0.6-1.8-0.9-2.7-0.9c-0.8,0-1.5,0.2-2,0.7c-0.6,0.4-1,1.2-1.3,2.4c-0.3,1.1-0.5,3.5-0.5,7.2V290.1z"/>
	<path class="st1" d="M254.1,279c0-1.9,0.5-3.7,1.4-5.5c0.9-1.8,2.2-3.1,3.9-4c1.7-0.9,3.6-1.4,5.7-1.4c3.2,0,5.9,1.1,8,3.2
		c2.1,2.1,3.1,4.8,3.1,8c0,3.2-1,5.9-3.1,8.1c-2.1,2.1-4.7,3.2-7.9,3.2c-2,0-3.8-0.4-5.6-1.3c-1.8-0.9-3.1-2.2-4.1-3.9
		C254.5,283.6,254.1,281.5,254.1,279z M259.9,279.4c0,2.1,0.5,3.8,1.5,4.9c1,1.1,2.3,1.7,3.7,1.7c1.5,0,2.7-0.6,3.7-1.7
		c1-1.1,1.5-2.8,1.5-4.9c0-2.1-0.5-3.7-1.5-4.9c-1-1.1-2.2-1.7-3.7-1.7c-1.5,0-2.7,0.6-3.7,1.7C260.4,275.6,259.9,277.2,259.9,279.4
		z"/>
	<path class="st1" d="M294.7,290.1v-29.5h9.6c3.6,0,6,0.1,7.1,0.4c1.7,0.4,3.1,1.4,4.3,2.9c1.1,1.5,1.7,3.4,1.7,5.8
		c0,1.8-0.3,3.3-1,4.6c-0.7,1.2-1.5,2.2-2.5,2.9c-1,0.7-2,1.2-3.1,1.4c-1.4,0.3-3.5,0.4-6.2,0.4h-3.9v11.1H294.7z M300.6,265.5v8.4
		h3.3c2.3,0,3.9-0.2,4.7-0.5c0.8-0.3,1.4-0.8,1.9-1.5c0.4-0.7,0.7-1.4,0.7-2.3c0-1.1-0.3-2-0.9-2.7c-0.6-0.7-1.4-1.1-2.4-1.3
		c-0.7-0.1-2.1-0.2-4.3-0.2H300.6z"/>
	<path class="st1" d="M327.5,275.2l-5.1-0.9c0.6-2.1,1.6-3.6,3-4.6c1.4-1,3.5-1.5,6.3-1.5c2.5,0,4.4,0.3,5.6,0.9
		c1.2,0.6,2.1,1.4,2.6,2.3c0.5,0.9,0.8,2.6,0.8,5.1l-0.1,6.6c0,1.9,0.1,3.3,0.3,4.2c0.2,0.9,0.5,1.9,1,2.9h-5.6
		c-0.2-0.4-0.3-0.9-0.5-1.6c-0.1-0.3-0.2-0.5-0.2-0.7c-1,0.9-2,1.7-3.1,2.1c-1.1,0.5-2.3,0.7-3.5,0.7c-2.2,0-3.9-0.6-5.2-1.8
		s-1.9-2.7-1.9-4.5c0-1.2,0.3-2.3,0.9-3.2c0.6-0.9,1.4-1.7,2.4-2.2c1-0.5,2.5-0.9,4.5-1.3c2.6-0.5,4.5-1,5.5-1.4v-0.6
		c0-1.1-0.3-1.9-0.8-2.4c-0.5-0.5-1.6-0.7-3.1-0.7c-1,0-1.8,0.2-2.4,0.6C328.3,273.5,327.9,274.2,327.5,275.2z M335.2,279.8
		c-0.7,0.2-1.9,0.5-3.4,0.9c-1.6,0.3-2.6,0.7-3.1,1c-0.7,0.5-1.1,1.2-1.1,2c0,0.8,0.3,1.5,0.9,2.1c0.6,0.6,1.3,0.9,2.3,0.9
		c1,0,2-0.3,2.9-1c0.7-0.5,1.1-1.1,1.3-1.9c0.1-0.5,0.2-1.4,0.2-2.8V279.8z"/>
	<path class="st1" d="M344.8,268.7h6l5.1,15.2l5-15.2h5.9l-7.5,20.6l-1.4,3.8c-0.5,1.3-1,2.2-1.4,2.9c-0.5,0.7-1,1.2-1.6,1.6
		c-0.6,0.4-1.3,0.7-2.2,1c-0.9,0.2-1.8,0.3-2.9,0.3c-1.1,0-2.2-0.1-3.2-0.3l-0.5-4.4c0.9,0.2,1.7,0.3,2.4,0.3c1.3,0,2.3-0.4,2.9-1.2
		c0.6-0.8,1.1-1.8,1.5-3L344.8,268.7z"/>
	<path class="st1" d="M371.3,268.7h5.2v2.9c1.9-2.3,4.1-3.4,6.7-3.4c1.4,0,2.6,0.3,3.6,0.8c1,0.6,1.8,1.4,2.5,2.6c0.9-1.1,2-2,3-2.6
		c1.1-0.6,2.3-0.8,3.5-0.8c1.6,0,2.9,0.3,4,1c1.1,0.6,1.9,1.6,2.4,2.8c0.4,0.9,0.6,2.4,0.6,4.4v13.7h-5.7v-12.3
		c0-2.1-0.2-3.5-0.6-4.1c-0.5-0.8-1.3-1.2-2.4-1.2c-0.8,0-1.5,0.2-2.2,0.7c-0.7,0.5-1.2,1.2-1.5,2.1c-0.3,0.9-0.5,2.4-0.5,4.4v10.3
		h-5.7v-11.7c0-2.1-0.1-3.4-0.3-4c-0.2-0.6-0.5-1.1-0.9-1.4c-0.4-0.3-1-0.4-1.7-0.4c-0.9,0-1.7,0.2-2.4,0.7c-0.7,0.5-1.2,1.2-1.5,2
		c-0.3,0.9-0.5,2.4-0.5,4.4v10.4h-5.7V268.7z"/>
	<path class="st1" d="M422.1,283.3l5.6,0.9c-0.7,2.1-1.9,3.6-3.4,4.7c-1.6,1.1-3.5,1.6-5.9,1.6c-3.7,0-6.5-1.2-8.3-3.7
		c-1.4-2-2.1-4.4-2.1-7.4c0-3.6,0.9-6.3,2.8-8.4c1.9-2,4.2-3,7.1-3c3.2,0,5.7,1.1,7.6,3.2c1.8,2.1,2.7,5.4,2.6,9.7h-14.2
		c0,1.7,0.5,3,1.4,3.9c0.9,0.9,2,1.4,3.3,1.4c0.9,0,1.6-0.2,2.3-0.7C421.3,285.2,421.8,284.4,422.1,283.3z M422.4,277.6
		c0-1.7-0.5-2.9-1.3-3.8c-0.8-0.9-1.8-1.3-3-1.3c-1.2,0-2.3,0.5-3.1,1.4c-0.8,0.9-1.2,2.2-1.2,3.7H422.4z"/>
	<path class="st1" d="M453.3,290.1h-5.7v-10.9c0-2.3-0.1-3.8-0.4-4.5c-0.2-0.7-0.6-1.2-1.2-1.6c-0.5-0.4-1.2-0.6-2-0.6
		c-1,0-1.9,0.3-2.6,0.8c-0.8,0.5-1.3,1.3-1.6,2.1c-0.3,0.9-0.4,2.5-0.4,4.9v9.7h-5.7v-21.4h5.3v3.1c1.9-2.4,4.2-3.7,7-3.7
		c1.2,0,2.4,0.2,3.4,0.7c1,0.5,1.8,1,2.3,1.7c0.5,0.7,0.9,1.5,1.1,2.4c0.2,0.9,0.3,2.2,0.3,3.8V290.1z"/>
	<path class="st1" d="M470.1,268.7v4.5h-3.9v8.7c0,1.8,0,2.8,0.1,3.1c0.1,0.3,0.2,0.5,0.5,0.7c0.3,0.2,0.6,0.3,0.9,0.3
		c0.5,0,1.3-0.2,2.2-0.5l0.5,4.4c-1.3,0.6-2.8,0.8-4.5,0.8c-1,0-1.9-0.2-2.7-0.5c-0.8-0.3-1.4-0.8-1.8-1.3c-0.4-0.5-0.6-1.3-0.8-2.2
		c-0.1-0.7-0.2-2-0.2-4v-9.4H458v-4.5h2.6v-4.3l5.7-3.3v7.6H470.1z"/>
	<path class="st1" d="M473.3,284l5.7-0.9c0.2,1.1,0.7,1.9,1.5,2.5c0.7,0.6,1.8,0.8,3.1,0.8c1.5,0,2.6-0.3,3.3-0.8
		c0.5-0.4,0.7-0.9,0.7-1.5c0-0.4-0.1-0.8-0.4-1.1c-0.3-0.3-0.9-0.5-1.9-0.8c-4.6-1-7.5-1.9-8.7-2.8c-1.7-1.2-2.6-2.8-2.6-4.8
		c0-1.9,0.7-3.4,2.2-4.7c1.5-1.3,3.8-1.9,6.8-1.9c2.9,0,5.1,0.5,6.6,1.4c1.4,0.9,2.4,2.3,3,4.2l-5.3,1c-0.2-0.8-0.7-1.5-1.3-1.9
		c-0.6-0.4-1.6-0.7-2.8-0.7c-1.5,0-2.6,0.2-3.2,0.6c-0.4,0.3-0.7,0.7-0.7,1.2c0,0.4,0.2,0.8,0.6,1c0.5,0.4,2.3,0.9,5.3,1.6
		c3,0.7,5.1,1.5,6.3,2.5c1.2,1,1.8,2.4,1.8,4.2c0,2-0.8,3.7-2.5,5.1c-1.6,1.4-4.1,2.1-7.3,2.1c-2.9,0-5.2-0.6-6.9-1.8
		C474.9,287.6,473.8,286,473.3,284z"/>
	<path class="st1" d="M538.8,290.1h-6.4l-2.6-6.7h-11.9l-2.4,6.7h-6.3l11.4-29.5h6.3L538.8,290.1z M527.9,278.4l-4.1-11l-4,11H527.9
		z"/>
	<path class="st1" d="M548.6,290.1h-5.7v-21.4h5.3v3c0.9-1.4,1.7-2.4,2.4-2.9c0.7-0.5,1.5-0.7,2.5-0.7c1.3,0,2.5,0.4,3.7,1.1l-1.7,5
		c-1-0.6-1.8-0.9-2.7-0.9c-0.8,0-1.5,0.2-2,0.7c-0.6,0.4-1,1.2-1.3,2.4c-0.3,1.1-0.5,3.5-0.5,7.2V290.1z"/>
	<path class="st1" d="M572.9,283.3l5.6,0.9c-0.7,2.1-1.9,3.6-3.4,4.7c-1.6,1.1-3.5,1.6-5.9,1.6c-3.7,0-6.5-1.2-8.3-3.7
		c-1.4-2-2.1-4.4-2.1-7.4c0-3.6,0.9-6.3,2.8-8.4c1.9-2,4.2-3,7.1-3c3.2,0,5.7,1.1,7.6,3.2c1.8,2.1,2.7,5.4,2.6,9.7h-14.2
		c0,1.7,0.5,3,1.4,3.9c0.9,0.9,2,1.4,3.3,1.4c0.9,0,1.6-0.2,2.3-0.7C572.1,285.2,572.6,284.4,572.9,283.3z M573.2,277.6
		c0-1.7-0.5-2.9-1.3-3.8c-0.8-0.9-1.8-1.3-3-1.3c-1.2,0-2.3,0.5-3.1,1.4c-0.8,0.9-1.2,2.2-1.2,3.7H573.2z"/>
	<path class="st1" d="M588.8,275.2l-5.1-0.9c0.6-2.1,1.6-3.6,3-4.6c1.4-1,3.5-1.5,6.3-1.5c2.5,0,4.4,0.3,5.6,0.9
		c1.2,0.6,2.1,1.4,2.6,2.3c0.5,0.9,0.8,2.6,0.8,5.1L602,283c0,1.9,0.1,3.3,0.3,4.2c0.2,0.9,0.5,1.9,1,2.9h-5.6
		c-0.2-0.4-0.3-0.9-0.5-1.6c-0.1-0.3-0.2-0.5-0.2-0.7c-1,0.9-2,1.7-3.1,2.1c-1.1,0.5-2.3,0.7-3.5,0.7c-2.2,0-3.9-0.6-5.2-1.8
		s-1.9-2.7-1.9-4.5c0-1.2,0.3-2.3,0.9-3.2c0.6-0.9,1.4-1.7,2.4-2.2c1-0.5,2.5-0.9,4.5-1.3c2.6-0.5,4.5-1,5.5-1.4v-0.6
		c0-1.1-0.3-1.9-0.8-2.4c-0.5-0.5-1.6-0.7-3.1-0.7c-1,0-1.8,0.2-2.4,0.6C589.7,273.5,589.2,274.2,588.8,275.2z M596.5,279.8
		c-0.7,0.2-1.9,0.5-3.4,0.9c-1.6,0.3-2.6,0.7-3.1,1c-0.7,0.5-1.1,1.2-1.1,2c0,0.8,0.3,1.5,0.9,2.1c0.6,0.6,1.3,0.9,2.3,0.9
		c1,0,2-0.3,2.9-1c0.7-0.5,1.1-1.1,1.3-1.9c0.1-0.5,0.2-1.4,0.2-2.8V279.8z"/>
</g>
<g>
	<g>
		<g>
			<path class="st1" d="M163,144.4h-38.7c0-6.4-0.7-10.6-2.2-12.8c-2.3-3.2-8.7-4.8-19.1-4.8c-10.1,0-16.8,0.9-20.1,2.8
				c-3.3,1.9-4.9,5.9-4.9,12.1c0,5.6,1.4,9.3,4.4,11.1c2.1,1.3,4.8,2,8.3,2.2l7.8,0.6c16.7,1.1,27.2,1.9,31.3,2.3
				c13.2,1.3,22.8,4.9,28.8,10.6c4.7,4.4,7.5,10.3,8.4,17.4c0.5,4.3,0.8,9.2,0.8,14.6c0,12.4-1.2,21.6-3.6,27.3
				c-4.3,10.6-14,17.3-29.1,20.1c-6.3,1.2-16,1.8-29,1.8c-21.7,0-36.8-1.3-45.3-3.9c-10.5-3.2-17.4-9.6-20.7-19.3
				c-1.9-5.4-2.8-14.4-2.8-27h38.7c0,1.4,0,2.5,0,3.2c0,6.7,1.9,11,5.8,13c2.7,1.3,5.9,2,9.7,2.1h14.2c7.3,0,11.9-0.4,13.9-1.1
				c3.6-1.4,5.9-3.7,7-6.8c0.6-1.9,0.9-4.4,0.9-7.4c0-6.8-2.5-10.9-7.4-12.4c-1.9-0.6-10.5-1.4-25.9-2.4c-12.4-0.9-21-1.7-25.8-2.6
				c-12.7-2.4-21.1-7.2-25.3-14.6c-3.7-6.3-5.6-15.8-5.6-28.5c0-9.7,1-17.5,3-23.3c2-5.8,5.2-10.3,9.7-13.3c6.5-4.7,14.9-7.4,25-8.2
				c8.5-0.7,17.8-1.1,28.2-1.1c16.2,0,27.8,0.9,34.7,2.8c16.8,4.5,25.3,17.2,25.3,38C163.4,138.5,163.3,141,163,144.4z"/>
		</g>
	</g>
	<g>
		<g>
			<path class="st1" d="M333.3,249.7V95.1h60.6h9.5h7.4c10.6,0,18.7,0.9,24.3,2.6c12.7,4,21.3,12.2,25.7,24.5
				c2.3,6.5,3.4,16.3,3.4,29.3c0,15.7-1.3,27-3.7,33.8c-5,13.6-15.2,21.4-30.7,23.4c-1.8,0.3-9.6,0.6-23.2,0.8l-6.9,0.2h-24.8v39.9
				H333.3z M374.9,173.9h25.9c8.2-0.3,13.2-0.9,15-1.9c2.5-1.4,4.1-4.1,4.9-8.1c0.5-2.7,0.8-6.7,0.8-12.1c0-6.5-0.5-11.4-1.6-14.6
				c-1.5-4.4-5.1-7.1-10.8-8.1c-1.1-0.1-3.8-0.2-8.1-0.2h-26.3V173.9z"/>
		</g>
	</g>
	<g>
		<g>
			<path class="st1" d="M553,223h-55.6l-7.5,26.7h-43l46.4-154.6h62.8l47,154.6h-42.1L553,223z M544.7,192.9l-19.5-67l-18.9,67
				H544.7z"/>
		</g>
	</g>
	<g>
		<g>
			<path class="st2" d="M275.8,116.9c17.2,0,32.5,7.9,42.5,20.3l9-19.2c-14-13.3-33.1-21.4-54.2-21.4c-32.8,0-60.8,19.8-72.3,47.8
				h-17.5L173,166.5h22.5c-0.2,2.1-0.3,4.1-0.3,6.2c0,2.5,0.1,5,0.4,7.5h-11.3L174,202.3h27.4c11.8,27.3,39.5,46.5,71.8,46.5
				c16.3,0,31.4-4.9,43.8-13.2v-27.1c-10.1,11.5-24.8,18.7-41.2,18.7c-19.2,0-36.1-9.9-45.9-24.9h57.3l10.3-22.1h-76.1
				c-0.4-2.7-0.6-5.4-0.6-8.2c0-1.9,0.1-3.7,0.3-5.6H304l10.3-22.1h-86C237.9,127.9,255.6,116.9,275.8,116.9z"/>
		</g>
		<g>
			<path class="st1" d="M275.8,117.5c16.4,0,31.7,7.3,42,20l0.7,0.8l0.5-1l9-19.2l0.2-0.4l-0.3-0.3c-14.7-13.9-34.1-21.6-54.6-21.6
				c-16,0-31.4,4.7-44.5,13.5c-12.8,8.6-22.7,20.6-28.4,34.7l0.6-0.4h-17.5h-0.4l-0.2,0.4l-10.3,22.1l-0.4,0.9h1h22.5l-0.7-0.7
				c-0.2,2.3-0.3,4.3-0.3,6.3c0,2.5,0.1,5,0.4,7.6l0.7-0.7h-11.3h-0.4l-0.2,0.4l-10.3,22.1l-0.4,0.9h1h27.4l-0.6-0.4
				c12.3,28.5,40.8,46.9,72.4,46.9c15.9,0,31.1-4.6,44.2-13.3l0.3-0.2v-0.4v-27.1v-1.8l-1.2,1.3c-10.3,11.7-25.1,18.5-40.7,18.5
				c-18.3,0-35.2-9.2-45.3-24.6l-0.6,1h57.3h0.4l0.2-0.4l10.3-22.1l0.4-0.9h-1h-76.1l0.7,0.6c-0.4-2.7-0.6-5.4-0.6-8.1
				c0-1.8,0.1-3.7,0.3-5.5l-0.7,0.6H304h0.4l0.2-0.4l10.3-22.1l0.4-0.9h-1h-86l0.6,1C238.6,127.9,256.6,117.5,275.8,117.5z
				 M228.4,145h86l-0.6-0.9l-10.3,22.1l0.6-0.4h-82.8h-0.6l-0.1,0.6c-0.2,1.9-0.3,3.8-0.3,5.6c0,2.7,0.2,5.5,0.6,8.3l0.1,0.6h0.6
				h76.1l-0.6-0.9l-10.3,22.1l0.6-0.4H230h-1.2l0.7,1c10.3,15.8,27.7,25.2,46.4,25.2c15.9,0,31.1-6.9,41.7-18.9l-1.2-0.4v27.1
				l0.3-0.5c-12.8,8.6-27.9,13.1-43.5,13.1c-31.1,0-59.1-18.1-71.2-46.1l-0.2-0.4h-0.4H174l0.6,0.9l10.3-22.1l-0.6,0.4h11.3h0.7
				l-0.1-0.7c-0.2-2.5-0.4-5-0.4-7.5c0-1.9,0.1-3.9,0.3-6.1l0.1-0.7h-0.7H173l0.6,0.9l10.3-22.1l-0.6,0.4h17.5h0.4l0.2-0.4
				c5.7-13.8,15.3-25.6,28-34.1c12.9-8.7,28-13.3,43.8-13.3c20.1,0,39.2,7.5,53.7,21.2l-0.1-0.8l-9,19.2l1.1-0.1
				c-10.6-13.1-26.3-20.5-43.1-20.5c-19.7,0-38.1,10.6-48.1,27.8l-0.6,1H228.4z"/>
		</g>
	</g>
</g>
</svg>
