<?xml version="1.0" encoding="utf-8"?>
<!-- Generator: Adobe Illustrator 21.0.0, SVG Export Plug-In . SVG Version: 6.00 Build 0)  -->
<svg version="1.1" id="Layer_1" xmlns="http://www.w3.org/2000/svg" xmlns:xlink="http://www.w3.org/1999/xlink" x="0px" y="0px"
	 viewBox="0 0 640 400" style="enable-background:new 0 0 640 400;" xml:space="preserve">
<style type="text/css">
	.st0{fill:#3957A7;}
	.st1{fill:#FFFFFF;}
	.st2{fill:#F9A533;}
</style>
<g>
	<path class="st0" d="M640,378.7c0,11.8-9.6,21.3-21.3,21.3H21.3C9.5,400,0,390.5,0,378.7V21.3C0,9.5,9.5,0,21.3,0h597.3
		C630.4,0,640,9.5,640,21.3V378.7z"/>
	<g>
		<polygon class="st1" points="294.5,260.1 263.3,260.1 282.8,140 314.1,140 		"/>
		<path class="st1" d="M237,140l-29.8,82.6l-3.5-17.8v0l-10.5-54c0,0-1.3-10.8-14.8-10.8H129l-0.6,2c0,0,15.1,3.1,32.7,13.7
			l27.2,104.3h32.6L270.6,140H237z"/>
		<path class="st1" d="M482.9,260.1h28.7l-25-120.1h-25.1c-11.6,0-14.4,8.9-14.4,8.9l-46.6,111.1h32.6l6.5-17.8h39.8L482.9,260.1z
			 M448.5,217.6l16.4-44.9l9.2,44.9H448.5z"/>
		<path class="st1" d="M402.8,168.9l4.5-25.8c0,0-13.8-5.2-28.1-5.2c-15.5,0-52.4,6.8-52.4,39.8c0,31,43.3,31.4,43.3,47.7
			c0,16.3-38.8,13.4-51.6,3.1l-4.7,27c0,0,14,6.8,35.3,6.8c21.3,0,53.5-11,53.5-41.1c0-31.2-43.6-34.1-43.6-47.7
			C359,159.8,389.4,161.5,402.8,168.9z"/>
	</g>
	<path class="st2" d="M203.6,204.8l-10.5-54c0,0-1.3-10.8-14.8-10.8H129l-0.6,2c0,0,23.7,4.9,46.4,23.3
		C196.5,182.9,203.6,204.8,203.6,204.8z"/>
</g>
</svg>
