<svg width="36" height="36" viewBox="0 0 36 36" fill="none" xmlns="http://www.w3.org/2000/svg">
<g clip-path="url(#clip0_29_286)">
<path d="M10.2747 17.8106C10.2747 13.3511 13.6531 10.0628 18.1126 10.1079C22.4819 10.1529 25.7252 13.4863 25.7252 17.8556C25.7252 22.3151 22.3468 25.6034 17.8873 25.5583C13.518 25.5133 10.2747 22.18 10.2747 17.8106Z" fill="white"/>
<path d="M20.6351 2.99079C20.3649 4.52232 19.509 5.46827 17.9775 5.42322C16.4459 5.37818 15.5 4.47728 15.4099 2.9007C15.3198 1.5043 16.7162 0.197997 18.1576 0.333132C19.6441 0.513312 20.5 1.41421 20.6351 2.99079Z" fill="white"/>
<path d="M3.20267 20.4684C1.6261 20.3332 0.725196 19.5224 0.49997 17.9909C0.31979 16.5494 1.6261 15.153 3.06754 15.1981C4.64411 15.2882 5.59006 16.2341 5.63511 17.7657C5.68015 19.3422 4.7342 20.1981 3.20267 20.4684Z" fill="white"/>
<path d="M33.1576 15.198C34.509 15.4233 35.4099 16.3242 35.4549 17.8557C35.4999 19.2971 34.0585 20.6034 32.6621 20.4233C31.1306 20.198 30.3198 19.207 30.3198 17.6305C30.3648 16.3242 31.7162 15.153 33.1576 15.198Z" fill="white"/>
<path d="M20.6351 32.6304C20.5 34.2069 19.6892 35.1529 18.1576 35.3331C16.7162 35.5132 15.3198 34.1619 15.3648 32.7655C15.4549 31.1889 16.4009 30.243 17.9324 30.243C19.509 30.1529 20.4099 31.0988 20.6351 32.6304Z" fill="white"/>
<path d="M8.11256 5.55835C9.77923 5.64844 10.7702 6.41421 10.8153 8.03583C10.8603 9.6124 9.95941 10.6034 8.33779 10.6484C6.76121 10.6935 5.81526 9.79258 5.72517 8.17096C5.68013 6.54934 6.62607 5.73853 8.11256 5.55835Z" fill="white"/>
<path d="M27.6171 5.55835C29.2387 5.60339 30.2297 6.36916 30.2747 7.99078C30.3198 9.56736 29.4639 10.5583 27.8423 10.6484C26.2207 10.6935 25.2747 9.79258 25.1847 8.21601C25.1396 6.59439 26.0405 5.73853 27.6171 5.55835Z" fill="white"/>
<path d="M10.8604 27.4953C10.7252 29.0719 9.91441 30.0178 8.29279 30.0629C6.67117 30.1079 5.77026 29.207 5.72522 27.5854C5.72522 25.9638 6.58108 25.0178 8.2027 25.0178C9.82432 25.0178 10.6802 25.9638 10.8604 27.4953Z" fill="white"/>
<path d="M30.2747 27.5403C30.1396 29.252 29.2838 30.1529 27.6621 30.1079C26.0405 30.0628 25.1396 29.1169 25.1847 27.5403C25.2297 25.9637 26.1756 25.0178 27.7973 25.0628C29.4189 25.0628 30.1847 26.0538 30.2747 27.5403Z" fill="white"/>
</g>
<defs>
<clipPath id="clip0_29_286">
<rect width="35" height="35" fill="white" transform="translate(0.5 0.333252)"/>
</clipPath>
</defs>
</svg>
