<svg height="512" width="512" xmlns="http://www.w3.org/2000/svg"><g fill="#fff"><path d="m319.52939644 250.43633251-87.40143199-59.7771452c-2.71714296-2.00551028-9.96285753-2.00551028-10.54510245 5.56367369v119.55429039c.6469388 7.56918397 8.02204113 7.69857173 10.54510245 5.56367369l87.40143199-59.7771452c2.2642858-1.35857148 5.36959205-6.92224517 0-11.12734737zm-84.42551351 52.59612451v-94.06490164l68.64020677 47.03245082z"/><path d="m256.0000062 97.5c-87.40143199 0-158.5000062 71.09857421-158.5000062 158.5000062s71.09857421 158.5000062 158.5000062 158.5000062 158.5000062-71.09857421 158.5000062-158.5000062-71.09857421-158.5000062-158.5000062-158.5000062zm0 303.47899146c-79.96163578 0-144.97898526-65.01734948-144.97898526-144.97898526s65.01734948-144.97898526 144.97898526-144.97898526 144.97898526 65.01734948 144.97898526 144.97898526-65.01734948 144.97898526-144.97898526 144.97898526z"/></g></svg>