<svg width="37" height="29" viewBox="0 0 37 29" fill="none" xmlns="http://www.w3.org/2000/svg">
<g clip-path="url(#clip0_823_1628)">
<path d="M34.5759 0H15.3163C13.9775 0 12.8921 1.08537 12.8921 2.42424V3.97115C12.8921 5.31002 13.9775 6.39539 15.3163 6.39539H34.5759C35.9148 6.39539 37.0002 5.31002 37.0002 3.97115V2.42424C37.0002 1.08537 35.9148 0 34.5759 0Z" fill="white"/>
<path d="M6.89356 0H2.42424C1.08537 0 0 1.08537 0 2.42424V3.97115C0 5.31002 1.08537 6.39539 2.42424 6.39539H6.89356C8.23243 6.39539 9.3178 5.31002 9.3178 3.97115V2.42424C9.3178 1.08537 8.23243 0 6.89356 0Z" fill="white"/>
<path d="M28.0752 11.3286H2.42424C1.08537 11.3286 0 12.414 0 13.7529V15.2998C0 16.6386 1.08537 17.724 2.42424 17.724H28.0752C29.414 17.724 30.4994 16.6386 30.4994 15.2998V13.7529C30.4994 12.414 29.414 11.3286 28.0752 11.3286Z" fill="white"/>
<path d="M28.0752 22.6046H2.42424C1.08537 22.6046 0 23.69 0 25.0289V26.5758C0 27.9146 1.08537 29 2.42424 29H28.0752C29.414 29 30.4994 27.9146 30.4994 26.5758V25.0289C30.4994 23.69 29.414 22.6046 28.0752 22.6046Z" fill="white"/>
</g>
<defs>
<clipPath id="clip0_823_1628">
<rect width="37" height="29" fill="white"/>
</clipPath>
</defs>
</svg>
