<svg width="24" height="24" viewBox="0 0 24 24" fill="none" xmlns="http://www.w3.org/2000/svg">
<g clip-path="url(#clip0_823_1839)">
<path d="M5.58632 6.07618C6.39382 2.14457 8.68395 -0.0131772 12.0066 6.05496e-05C15.3425 0.0132983 17.6591 2.19752 18.4004 6.10265C18.652 6.02323 18.8902 5.9438 19.1418 5.86437C20.9156 5.3481 22.5174 6.52626 22.5836 8.36631C22.5968 8.59135 22.61 8.80315 22.5836 9.02819C22.5306 9.53122 22.6365 9.87541 23.1395 10.1534C23.7485 10.4976 24 11.133 24 11.8346C24.0132 12.7612 24.0132 13.6879 24 14.6145C23.9868 15.3955 23.6293 15.9912 22.9939 16.4546C22.7954 16.6002 22.61 16.9179 22.5968 17.1694C22.5306 19.5257 21.7099 20.6377 19.4462 21.3922C17.1826 22.1335 14.9454 22.9146 12.6685 23.6294C12.2581 23.7618 11.7419 23.7618 11.3447 23.6294C8.98842 22.8881 6.65858 22.0938 4.3155 21.2996C2.30336 20.6244 1.38996 19.3669 1.4032 17.2488C1.4032 16.8252 1.2973 16.5869 0.913403 16.3619C0.304468 16.0045 0 15.4088 0 14.6939C0 13.7011 0 12.7083 0.0132377 11.7155C0.0264755 10.9741 0.41037 10.4446 0.99283 10.0078C1.1914 9.86217 1.32377 9.54446 1.37672 9.29294C1.44291 9.00172 1.37672 8.68401 1.38996 8.36631C1.48263 6.48655 3.11087 5.3481 4.9112 5.89085C5.13624 5.9438 5.3348 6.00999 5.58632 6.07618ZM11.2918 22.1335C11.2918 17.9637 11.2918 13.9129 11.2785 9.86217C11.2785 9.70332 11.1065 9.4518 10.9608 9.39885C8.76338 8.6443 6.57915 7.90298 4.36845 7.21462C3.60066 6.96311 2.88582 7.50585 2.83287 8.31335C2.79316 8.78991 2.83287 9.26647 2.83287 9.72979C4.67292 10.4446 5.58632 11.5036 5.62603 13.0127C5.69222 14.9852 4.6332 16.1633 2.84611 16.7325C2.75345 18.4137 3.1241 19.3536 4.24931 19.7508C6.53944 20.5715 8.86928 21.3128 11.2918 22.1335ZM21.1804 9.43856C21.1804 9.5577 21.1804 9.58418 21.1804 9.70332C21.1804 9.33266 21.1804 8.962 21.1804 8.57811C21.1671 7.42643 20.4258 6.89692 19.3271 7.26757C17.3414 7.92946 15.369 8.60458 13.3701 9.24C12.8671 9.39885 12.695 9.62389 12.695 10.1666C12.7215 13.9129 12.7082 17.6592 12.7082 21.4187C12.7082 21.6305 12.7347 21.8291 12.7479 22.0938C14.9983 21.3525 17.1693 20.6244 19.3403 19.8964C20.6376 19.4595 21.1936 18.6388 21.1936 17.2621C21.1936 16.8517 21.0745 16.6664 20.6773 16.5075C18.3607 15.6338 17.5797 12.8142 19.1815 10.9741C19.6713 10.4182 20.545 9.90188 21.1804 9.43856ZM12.0199 1.21793C9.38555 1.19146 7.10866 3.38892 7.05571 5.98351C7.04247 6.42036 7.16161 6.6454 7.61169 6.79102C8.93547 7.20138 10.246 7.67794 11.5698 8.08831C11.8345 8.16774 12.1787 8.16774 12.4567 8.08831C13.7805 7.67794 15.091 7.20138 16.4148 6.79102C16.8781 6.6454 16.9708 6.39388 16.9575 5.97028C16.8119 3.32273 14.6542 1.23117 12.0199 1.21793ZM1.4032 13.2246C1.4032 13.4231 1.4032 13.6217 1.4032 13.8202C1.4032 14.0453 1.38996 14.2571 1.4032 14.4821C1.42967 15.1308 1.74738 15.4088 2.36955 15.3294C3.38886 15.2102 4.2096 14.2968 4.23607 13.251C4.24931 12.192 3.41533 11.2257 2.36955 11.1198C1.73414 11.0536 1.42967 11.3183 1.4032 11.967C1.38996 12.3906 1.4032 12.8009 1.4032 13.2246ZM22.5703 13.2246C22.5703 12.7612 22.5836 12.2979 22.5703 11.8478C22.5438 11.3316 22.2526 11.1065 21.7496 11.1198C20.7038 11.1462 19.7772 12.0993 19.7639 13.1981C19.7507 14.3233 20.6773 15.3294 21.7496 15.3426C22.2526 15.3558 22.5438 15.1308 22.5703 14.6145C22.5836 14.1512 22.5703 13.6879 22.5703 13.2246Z" fill="white"/>
<path d="M15.0113 20.0023C14.8128 20.0553 14.601 20.0023 14.4421 19.8567C14.3097 19.7376 14.1774 19.5919 14.1641 19.4463C14.1509 19.1948 14.3759 18.7977 14.601 18.6918C15.2364 18.4005 15.9247 18.2152 16.5866 18.0034C17.3147 17.7651 18.0428 17.5269 18.7841 17.2753C19.2077 17.1297 19.5386 17.2753 19.6975 17.6725C19.8696 18.0828 19.6843 18.4403 19.2739 18.5726C17.8575 19.0624 16.441 19.5257 15.0246 19.9891C15.0246 20.0023 15.0113 20.0023 15.0113 20.0023Z" fill="white"/>
<path d="M15.2369 14.3101C14.8927 14.4292 14.4823 14.3366 14.2573 14.0453C14.2043 13.9792 14.1778 13.9262 14.1646 13.86C14.1249 13.6217 14.3102 13.1981 14.4955 13.1187C15.2369 12.801 16.0179 12.5362 16.8121 12.3377C17.024 12.2847 17.4343 12.523 17.527 12.7348C17.6196 12.9334 17.5005 13.4496 17.3417 13.5158C16.693 13.8071 15.9914 14.0453 15.2369 14.3101Z" fill="white"/>
<path d="M15.2365 11.4904C14.8923 11.6096 14.5084 11.5169 14.2702 11.2389C14.2172 11.186 14.1907 11.1198 14.1775 11.0536C14.151 10.7888 14.3231 10.352 14.5349 10.2593C15.2498 9.94162 16.0175 9.69011 16.7853 9.51802C17.0104 9.46506 17.434 9.71658 17.5531 9.92839C17.6458 10.1005 17.4869 10.6167 17.3148 10.6962C16.6662 11.0006 15.9778 11.2257 15.2365 11.4904Z" fill="white"/>
<path d="M13.542 5.87756C13.4229 5.52015 13.4229 5.13625 13.542 4.79207C13.5817 4.67293 13.6347 4.56703 13.7273 4.51408C13.9656 4.3817 14.4024 4.3817 14.6407 4.51408C15.0114 4.72588 15.0114 5.97023 14.6275 6.18203C14.3892 6.31441 13.9391 6.30117 13.7141 6.16879C13.6347 6.11584 13.5817 6.00994 13.542 5.87756Z" fill="white"/>
<path d="M9.59717 5.87756C9.47803 5.52015 9.47803 5.13625 9.59717 4.79207C9.63688 4.67293 9.68983 4.56703 9.7825 4.51408C10.0208 4.3817 10.4576 4.3817 10.6959 4.51408C11.0666 4.72588 11.0666 5.97023 10.6827 6.18203C10.4444 6.31441 9.9943 6.30117 9.76926 6.16879C9.68983 6.11584 9.63688 6.00994 9.59717 5.87756Z" fill="white"/>
</g>
<defs>
<clipPath id="clip0_823_1839">
<rect width="24" height="23.7088" fill="white"/>
</clipPath>
</defs>
</svg>
