<svg width="21" height="24" viewBox="0 0 21 24" fill="none" xmlns="http://www.w3.org/2000/svg">
<g clip-path="url(#clip0_823_1746)">
<path d="M0.844238 11.1108C2.45353 12.3944 4.12879 12.1805 5.81723 11.8997C7.21547 11.659 8.58733 11.6323 9.7877 12.5281C9.97238 12.6618 10.1439 12.9426 10.1439 13.1565C10.1834 16.6596 10.1834 20.1493 10.1966 23.6523C10.1966 23.7192 10.1966 23.7326 10.1966 24C9.07539 22.917 7.70353 22.8902 6.35806 23.1844C4.95982 23.4785 3.75944 22.9972 2.84926 21.981C2.46673 21.5532 2.44034 20.8178 2.22929 20.2028C3.522 19.5877 4.19474 18.6652 3.93092 17.288C3.69348 16.0044 2.82288 15.3627 1.51698 15.3092C1.30592 13.9454 1.09487 12.6217 0.844238 11.1108Z" fill="white"/>
<path d="M20.1161 11.2045C19.905 12.5148 19.7203 13.7449 19.4961 14.9616C19.4697 15.0953 19.285 15.2958 19.1399 15.3092C17.9 15.5098 17.1481 16.2318 17.003 17.4886C16.8711 18.6117 17.346 19.4674 18.3617 19.9889C18.4672 20.0424 18.6255 20.1894 18.6123 20.2429C18.4408 20.8847 18.6255 21.6201 18.0055 22.1415C17.003 22.9705 15.9214 23.4518 14.6154 23.1844C13.27 22.9036 11.9509 22.8368 10.7769 24C10.7637 23.6658 10.7373 23.4786 10.7373 23.2914C10.7637 19.9488 10.8165 16.6195 10.8296 13.2769C10.8296 12.8223 11.0275 12.5816 11.3705 12.3811C12.5313 11.6591 13.7844 11.6858 15.0639 11.873C15.4992 11.9398 15.9214 12.0468 16.3567 12.0735C18.0715 12.2206 18.5595 12.1003 20.1161 11.2045Z" fill="white"/>
<path d="M6.76709 3.7571C6.78028 1.65794 8.40277 0 10.4869 0C12.5447 0 14.2068 1.65794 14.2332 3.74373C14.2464 5.8429 12.5579 7.54095 10.4737 7.54095C8.41596 7.54095 6.76709 5.85627 6.76709 3.7571Z" fill="white"/>
<path d="M17.6761 11.6323C16.6736 11.5119 15.7898 11.4317 14.906 11.2713C13.2967 10.9905 11.8193 11.2579 10.4738 12.3142C8.77222 10.8434 6.81995 11.0841 4.84131 11.4585C4.26091 11.5654 3.66732 11.5253 3.08691 11.6055C3.60136 11.0306 4.03666 10.3621 4.59068 9.84064C5.5932 8.9047 6.81995 8.42337 8.17862 8.41C9.93302 8.38326 11.6874 8.38326 13.4418 8.49022C15.1434 8.58381 17.0166 9.98771 17.6761 11.6323Z" fill="white"/>
<path d="M19.2192 15.8306C20.1822 15.8172 21.0132 16.6997 21.0132 17.7426C21.0132 18.7721 20.1954 19.6947 19.2456 19.6947C18.2827 19.708 17.478 18.8256 17.4648 17.7693C17.4648 16.713 18.2431 15.844 19.2192 15.8306Z" fill="white"/>
<path d="M3.49578 17.7961C3.49578 18.8524 2.67794 19.7215 1.715 19.7081C0.738867 19.6814 -0.0262079 18.8123 0.000173979 17.7426C0.0133649 16.6596 0.804822 15.8307 1.78095 15.844C2.78347 15.8574 3.50897 16.6864 3.49578 17.7961Z" fill="white"/>
</g>
<defs>
<clipPath id="clip0_823_1746">
<rect width="21" height="24" fill="white"/>
</clipPath>
</defs>
</svg>
