<svg width="24" height="24" viewBox="0 0 24 24" fill="none" xmlns="http://www.w3.org/2000/svg">
<g clip-path="url(#clip0_823_1777)">
<path d="M12.0053 24C5.34263 24.0104 -0.020728 18.647 6.0227e-05 11.9948C0.0208484 5.31139 5.38421 -0.04158 12.0157 -3.58127e-06C18.7095 0.0415729 23.9585 5.30099 24.0001 11.9844C24.0312 18.6158 18.6783 23.9896 12.0053 24ZM11.9637 23.2308C18.1586 23.2516 23.2101 18.2521 23.2309 12.0468C23.2621 5.85188 18.2625 0.800343 12.0676 0.769161C5.84155 0.727584 0.779618 5.74794 0.769224 11.974C0.748436 18.1793 5.7584 23.21 11.9637 23.2308Z" fill="white"/>
<path d="M17.9093 16.7553C16.8388 16.5682 15.8097 16.3707 14.7807 16.194C13.9284 16.0485 13.0865 15.9654 12.3381 16.7241C12.3173 16.4851 12.2965 16.3499 12.2965 16.2044C12.2965 13.055 12.2965 9.90559 12.2861 6.75617C12.2861 6.41316 12.3901 6.23646 12.7019 6.10134C14.3442 5.37375 15.9656 5.4673 17.5663 6.1741C17.7015 6.23646 17.8886 6.42356 17.8886 6.54829C17.9197 9.93677 17.9093 13.3252 17.9093 16.7553Z" fill="white"/>
<path d="M11.7663 16.7241C10.7685 15.7366 9.66674 16.1316 8.58575 16.2979C7.80619 16.4226 7.02663 16.589 6.18471 16.7553C6.18471 16.5578 6.18471 16.3915 6.18471 16.2252C6.18471 13.0757 6.1951 9.92633 6.17432 6.77691C6.17432 6.40273 6.28865 6.22603 6.62126 6.0909C8.24274 5.47765 9.85383 5.36332 11.4441 6.15327C11.6 6.22603 11.7767 6.46509 11.7767 6.621C11.7975 9.89515 11.7871 13.1589 11.7871 16.433C11.7871 16.5058 11.7767 16.5682 11.7663 16.7241Z" fill="white"/>
<path d="M5.36346 7.81641C5.36346 8.03468 5.36346 8.21138 5.36346 8.39848C5.36346 11.1217 5.36346 13.8346 5.36346 16.5579C5.36346 17.1919 5.41543 17.2439 6.03908 17.2543C7.67095 17.2647 9.29243 17.2854 10.9243 17.2854C11.2257 17.2854 11.4752 17.3166 11.6831 17.5973C11.9221 17.9091 12.2755 17.9299 12.525 17.5973C12.7329 17.3166 12.9823 17.2854 13.2838 17.2854C14.7597 17.2854 16.2253 17.2647 17.7013 17.2543C18.6575 17.2439 18.6575 17.2439 18.6575 16.3188C18.6575 13.6891 18.6575 11.049 18.6575 8.41926C18.6575 8.23217 18.6575 8.04508 18.6575 7.81641C19.1461 7.84759 19.2188 8.1802 19.2292 8.5336C19.2396 9.28198 19.2188 10.02 19.2188 10.7683C19.2084 12.9303 19.1876 15.1027 19.2084 17.2647C19.2084 17.7012 19.0629 17.8363 18.6367 17.8259C16.9737 17.8051 15.3106 17.8051 13.6476 17.8363C13.3877 17.8363 13.0863 17.9611 12.868 18.1274C12.3587 18.4912 11.8702 18.4912 11.3505 18.117C11.1322 17.9611 10.8308 17.8363 10.5605 17.8363C8.84549 17.8155 7.13046 17.8051 5.41543 17.8363C4.9373 17.8467 4.771 17.6908 4.771 17.2127C4.78139 14.3543 4.771 11.4959 4.78139 8.63754C4.771 8.27375 4.79178 7.89956 5.36346 7.81641Z" fill="white"/>
</g>
<defs>
<clipPath id="clip0_823_1777">
<rect width="24" height="24" fill="white"/>
</clipPath>
</defs>
</svg>
