<svg width="24" height="25" viewBox="0 0 24 25" fill="none" xmlns="http://www.w3.org/2000/svg">
<g clip-path="url(#clip0_823_1790)">
<path d="M23.9999 12.6991C23.9999 14.7493 23.9878 16.7994 23.9999 18.8495C24.0119 19.9039 23.518 20.5717 22.5421 20.97C19.5059 22.2001 16.4698 23.4301 13.4577 24.6837C12.3975 25.1288 11.3734 25.1054 10.3131 24.6602C7.40952 23.4419 4.49386 22.2235 1.5782 21.0403C0.493862 20.6068 -0.00011444 19.8688 0.0119338 18.7441C0.0239819 14.6673 0.0239819 10.5904 0.0239819 6.50184C0.0239819 5.36548 0.385428 5.13117 1.45772 5.56463C4.75892 6.92358 8.06013 8.28253 11.3493 9.66491C11.7469 9.82892 12.0842 9.84064 12.4818 9.67663C15.7589 8.31768 19.0481 6.97044 22.3252 5.62321C22.4698 5.56463 22.6143 5.49434 22.771 5.44748C23.5541 5.18975 23.9878 5.4592 23.9999 6.26754C24.0119 7.46248 23.9999 8.6457 23.9999 9.84064C23.9999 10.7896 23.9999 11.7385 23.9999 12.6991Z" fill="white"/>
<path d="M17.0242 5.11935C17.1567 5.66996 16.8676 5.99798 16.2049 6.244C14.8796 6.73603 13.5905 7.3335 12.2772 7.86068C12.0483 7.9544 11.7351 7.94269 11.5061 7.86068C10.1447 7.29836 8.7953 6.70089 7.4218 6.13856C7.06036 5.98627 6.90373 5.77539 6.87963 5.40051C6.67481 2.57717 8.92783 0.128722 11.8435 -0.000144438C14.6025 -0.117295 17.0001 2.20229 17.0242 5.11935Z" fill="white"/>
</g>
<defs>
<clipPath id="clip0_823_1790">
<rect width="24" height="25" fill="white"/>
</clipPath>
</defs>
</svg>
