<svg width="24" height="20" viewBox="0 0 24 20" fill="none" xmlns="http://www.w3.org/2000/svg">
<path d="M24 14.6593C23.8183 16.3554 23.576 16.5734 21.8314 16.5734C19.9414 16.5734 18.0515 16.4644 16.1494 16.634C14.4412 16.7915 13.1812 17.579 12.3695 19.0692C12.1151 19.5416 11.9455 19.6022 11.6305 19.0934C11.364 18.6451 11.0126 18.2453 10.6613 17.8576C9.80111 16.9127 8.68652 16.5856 7.45078 16.5856C5.63352 16.5734 3.81625 16.5856 2.01111 16.5734C0.908632 16.5734 0.520949 16.4402 0.230187 15.7375C0.0726906 15.3619 0 14.95 0 14.5381C0 10.3463 0 6.14235 0 1.93841C0.181726 0.290762 0.375568 0.121151 2.07168 0.0484604C2.39879 0.0363453 2.71378 0.0121151 3.04089 0C3.19838 0 3.46492 0 3.62241 0C5.10045 0.0484604 6.5785 -0.0848056 8.05654 0.133266C8.61383 0.218072 9.17113 0.302877 9.7163 0.448258C10.8188 0.763251 11.5699 1.70823 11.9939 2.73801C12.0909 2.48359 12.0787 2.50782 12.0909 2.48359C12.9753 0.69056 14.5018 0.0484604 16.4038 0.0484604C18.318 0.0484604 20.2443 0.0363453 22.1585 0.0484604C23.3458 0.0484604 23.9758 0 23.9879 1.46593C24 5.86371 24 10.2615 24 14.6593ZM20.741 13.2055C20.7532 12.8783 20.7774 12.5634 20.7774 12.2362C20.7653 9.29228 20.7532 6.34831 20.741 3.39223C20.7532 3.28319 20.6926 3.24685 20.5957 3.25896C19.7839 3.19838 19.3963 3.18627 18.1726 3.2105C17.264 3.23473 17.7365 3.2105 16.84 3.24685C16.4402 3.24685 16.84 3.24685 16.2463 3.27108C16.0888 3.27108 15.9313 3.28319 15.7617 3.28319C13.5568 3.42857 12.8057 5.25795 11.8001 6.84503C11.3518 4.90661 10.3463 3.6103 8.37153 3.28319C8.12923 3.28319 7.88693 3.27108 7.64462 3.27108C6.22716 3.16204 4.82181 3.2105 3.40434 3.25896C3.30742 3.24685 3.24685 3.28319 3.25896 3.39223C3.24685 4.82181 3.22261 6.25139 3.22261 7.69308C3.22261 9.53458 3.24685 11.364 3.25896 13.2055C3.24685 13.3145 3.29531 13.3629 3.40434 13.3387C4.59162 13.3387 5.79101 13.3145 6.97829 13.3629C8.15346 13.3993 9.29228 13.581 10.3584 14.1625C11.1217 14.5866 11.5093 15.3014 11.9818 15.9919C12.0545 15.9192 12.1151 15.895 12.1393 15.8465C12.9631 14.1989 14.4291 13.6295 16.1373 13.4356C17.6275 13.266 19.1176 13.4235 20.6078 13.3508C20.7047 13.3629 20.7532 13.3145 20.741 13.2055Z" fill="white"/>
<path d="M20.5957 13.3387C20.6442 13.2903 20.6926 13.2418 20.7411 13.1934C20.7532 13.3145 20.7047 13.363 20.5957 13.3387Z" fill="white"/>
<path d="M7.80228 7.43863C8.0567 7.4992 8.31112 7.55978 8.55342 7.64458C8.86841 7.75362 9.01379 8.02015 9.00168 8.33514C8.98956 8.67437 8.75938 8.96513 8.43227 9.0257C7.37825 9.25589 6.31213 9.28012 5.25811 9.06205C4.91889 8.98936 4.59178 8.80763 4.61601 8.37149C4.64024 7.94746 4.8462 7.64458 5.29446 7.58401C5.62157 7.53555 5.93656 7.48709 6.26367 7.43863C6.54231 7.4144 6.82096 7.40228 7.09961 7.37805C7.20864 7.37805 7.30556 7.37805 7.4146 7.37805C7.52364 7.40228 7.69325 7.42651 7.80228 7.43863Z" fill="white"/>
<path d="M6.73576 6.23922C6.36019 6.21499 5.87558 6.22711 5.4031 6.1423C5.0033 6.06961 4.59138 5.91211 4.62773 5.37905C4.66408 4.90656 4.94272 4.65214 5.43944 4.57945C6.21481 4.47042 7.00229 4.4583 7.77765 4.48253C8.01996 4.49465 8.26226 4.54311 8.48033 4.6158C8.81955 4.73695 9.01339 4.99137 9.00128 5.3427C8.98916 5.69404 8.79532 5.93634 8.44398 6.04538C7.92304 6.22711 7.37786 6.17864 6.73576 6.23922Z" fill="white"/>
<path d="M6.69982 12.1514C6.17887 12.103 5.6458 12.1878 5.14909 11.9939C4.84621 11.8728 4.60391 11.7032 4.62814 11.3397C4.65237 10.9763 4.80986 10.6613 5.19755 10.5643C6.21521 10.3341 7.245 10.2978 8.26266 10.4795C8.67458 10.5522 9.02592 10.7945 9.0138 11.2912C9.00169 11.788 8.66246 11.9576 8.2142 12.0424C7.70537 12.1393 7.20865 12.103 6.69982 12.1514Z" fill="white"/>
</svg>
