<svg width="24" height="20" viewBox="0 0 24 20" fill="none" xmlns="http://www.w3.org/2000/svg">
<g clip-path="url(#clip0_823_1847)">
<path d="M2.19872 17.2827C4.19305 16.7309 6.17715 16.5227 8.20216 16.7621C8.9283 16.8454 9.38853 17.3139 9.3374 17.9594C9.28626 18.6153 8.78512 19.0318 8.03853 18.9589C5.77829 18.7507 3.58964 19.0214 1.48281 19.9063C0.756666 20.2083 0.0305251 19.7189 0.0100705 18.9173C-0.0206115 17.9803 -0.000156864 17.0433 -0.000156864 16.1062C-0.000156864 11.5982 -0.000156864 7.0901 -0.000156864 2.58203C-0.000156864 1.64502 0.153253 1.39515 1.00212 1.06199C4.52032 -0.301883 8.05898 -0.333117 11.6079 0.874588C11.884 0.968289 12.109 0.9787 12.3851 0.874588C15.934 -0.333117 19.4727 -0.312294 22.9807 1.05158C23.85 1.38474 23.9932 1.63461 23.9932 2.56121C23.9932 4.74757 23.9932 6.93393 23.9932 9.12029C23.9932 9.84908 23.6352 10.2968 23.0216 10.3696C22.3466 10.4529 21.825 9.93237 21.8147 9.15153C21.8045 7.24627 21.8045 5.3306 21.825 3.42534C21.825 3.06095 21.7227 2.9256 21.3852 2.82149C18.767 2.04065 16.159 2.03024 13.5306 2.81108C13.2136 2.90478 13.0704 3.02972 13.0806 3.40452C13.1011 5.19525 13.1011 6.97558 13.0908 8.76631C13.0806 9.71373 12.2522 10.2759 11.4954 9.8699C11.0351 9.62003 10.892 9.20358 10.892 8.69343C10.892 6.94434 10.8817 5.18484 10.9022 3.43575C10.9124 3.05054 10.7795 2.90478 10.4317 2.80067C7.81352 2.01982 5.19533 2.01982 2.58736 2.82149C2.33167 2.89437 2.16804 2.97766 2.16804 3.33164C2.18849 7.91259 2.17826 12.4935 2.17826 17.0641C2.17826 17.137 2.18849 17.1786 2.19872 17.2827Z" fill="white"/>
<path d="M16.9307 10.5466C19.6826 10.6091 21.9741 11.5982 23.6007 13.9823C24.0816 14.6903 24.0816 15.315 23.6007 16.0229C21.8411 18.5841 19.3654 19.5628 16.4089 19.417C13.9128 19.3025 11.836 18.2926 10.3527 16.1791C9.64677 15.1692 9.64677 14.8048 10.3527 13.8054C11.9588 11.5253 14.2299 10.5987 16.9307 10.5466ZM16.8795 17.2202C18.5982 17.2202 20.0918 16.7101 21.2989 15.4295C21.5854 15.1276 21.6263 14.9194 21.3092 14.5966C19.7849 12.9933 17.9025 12.6081 15.836 12.8683C14.5163 13.0349 13.3808 13.6284 12.4601 14.6382C12.2248 14.8985 12.1839 15.0755 12.4498 15.3566C13.657 16.6684 15.1608 17.2098 16.8795 17.2202Z" fill="white"/>
<path d="M17.805 14.8735C17.8143 15.413 17.34 15.8781 16.8005 15.8781C16.2611 15.8781 15.796 15.4037 15.8053 14.8642C15.8146 14.3433 16.2611 13.8968 16.7819 13.8782C17.3307 13.8689 17.805 14.334 17.805 14.8735Z" fill="white"/>
</g>
<defs>
<clipPath id="clip0_823_1847">
<rect width="24" height="20" fill="white"/>
</clipPath>
</defs>
</svg>
