<svg width="24" height="24" viewBox="0 0 24 24" fill="none" xmlns="http://www.w3.org/2000/svg">
<g clip-path="url(#clip0_823_1852)">
<path d="M12.0112 3.84769e-05C14.787 3.84769e-05 17.5629 -0.00746387 20.3388 3.84769e-05C22.1994 0.00754082 23.6398 1.22292 23.9624 3.04599C23.9999 3.26356 23.9999 3.49613 23.9999 3.7212C23.9999 8.04255 24.0074 12.3639 23.9999 16.6928C23.9924 20.2189 21.7192 23.0697 18.2981 23.85C17.7955 23.9625 17.2778 24.0075 16.7602 24.0075C12.3938 24.0075 8.01992 24.015 3.65356 24.0075C1.80798 24.0075 0.375034 22.7997 0.0449305 20.9841C0.00741875 20.774 -8.35932e-05 20.5565 -8.35932e-05 20.3389C-8.35932e-05 14.7872 -0.00758594 9.23542 -8.35932e-05 3.68369C-8.35932e-05 1.82311 1.20779 0.382658 3.03837 0.0525549C3.27844 3.84767e-05 3.52602 3.84769e-05 3.76609 3.84769e-05C6.51195 3.84769e-05 9.26531 3.84769e-05 12.0112 3.84769e-05ZM2.39316 11.9888C2.39316 14.7572 2.39316 17.518 2.39316 20.2864C2.39316 21.1041 2.88832 21.6068 3.69857 21.6068C7.59229 21.6068 11.4785 21.6068 15.3722 21.6143C15.5523 21.6143 15.6048 21.5693 15.6048 21.3817C15.5973 20.6165 15.5898 19.8437 15.6048 19.0785C15.6348 17.398 16.9627 15.8975 18.6207 15.6574C19.506 15.5299 20.3988 15.6199 21.2916 15.6124C21.5316 15.6124 21.6217 15.5749 21.6217 15.2973C21.6142 11.4711 21.6142 7.64493 21.6142 3.82623C21.6142 2.85843 21.1565 2.40079 20.1887 2.40079C14.7345 2.40079 9.28032 2.40079 3.81861 2.40079C2.86581 2.40079 2.40067 2.86593 2.40067 3.81123C2.39316 6.53458 2.39316 9.25793 2.39316 11.9888ZM18.0055 20.1738C18.0055 20.4289 18.0055 20.6765 18.0055 20.9316C18.0055 21.4717 18.013 21.4868 18.5232 21.2767C19.9336 20.7065 20.8789 19.6937 21.3741 18.2532C21.4341 18.0807 21.4416 17.9907 21.2015 17.9982C20.5338 18.0132 19.8736 17.9982 19.2059 18.0057C18.5082 18.0132 18.0205 18.5008 18.0055 19.191C17.998 19.5211 18.0055 19.8437 18.0055 20.1738Z" fill="white"/>
<path d="M11.9659 8.4027C10.3829 8.4027 8.79995 8.4027 7.21696 8.4027C6.67679 8.4027 6.24915 8.09511 6.0691 7.61496C5.89654 7.14231 6.03159 6.61715 6.41421 6.29454C6.65428 6.09198 6.93187 6.00195 7.24697 6.00195C10.413 6.00195 13.5789 6.00195 16.7449 6.00195C17.4652 6.00195 17.9978 6.53462 17.9978 7.20233C17.9978 7.89254 17.4502 8.4027 16.7149 8.4027C15.1394 8.4027 13.5564 8.4027 11.9659 8.4027Z" fill="white"/>
<path d="M12.0263 10.8034C13.6093 10.8034 15.1923 10.8034 16.7828 10.8034C17.2779 10.8034 17.6456 11.0209 17.8706 11.4636C18.0882 11.8987 18.0432 12.3188 17.7581 12.709C17.533 13.0241 17.2104 13.1891 16.8203 13.1891C16.2876 13.1891 15.755 13.1891 15.2148 13.1891C12.574 13.1891 9.92564 13.1891 7.28481 13.1891C6.6021 13.1891 6.12945 12.814 6.01692 12.1988C5.88938 11.4936 6.40704 10.8259 7.12727 10.8109C7.85499 10.7884 8.59022 10.8034 9.31795 10.8034C10.2257 10.8034 11.126 10.8034 12.0263 10.8034Z" fill="white"/>
<path d="M9.58027 15.6049C10.368 15.6049 11.1558 15.6049 11.9435 15.6049C12.6562 15.6049 13.1814 16.1001 13.1964 16.7753C13.2114 17.4655 12.7012 18.0056 11.981 18.0056C10.398 18.0207 8.81503 18.0207 7.23204 18.0056C6.51932 17.9981 5.97915 17.4505 6.00165 16.7828C6.01666 16.1076 6.54933 15.6124 7.25455 15.6049C8.02729 15.5974 8.80003 15.6049 9.58027 15.6049Z" fill="white"/>
</g>
<defs>
<clipPath id="clip0_823_1852">
<rect width="24" height="24" fill="white"/>
</clipPath>
</defs>
</svg>
