<svg width="37" height="28" viewBox="0 0 37 28" fill="none" xmlns="http://www.w3.org/2000/svg">
<g clip-path="url(#clip0_819_1607)">
<path d="M18.508 0.0308714C23.4266 0.0308714 28.3295 0.0308714 33.2481 0.0308714C35.6916 0.0308714 37.0001 1.29658 37.0001 3.67365C37.0001 10.5579 37.0001 17.4576 37.0001 24.3418C37.0001 26.7034 35.6601 28 33.2481 28C23.4266 28 13.6051 28 3.78367 28C1.37166 28 0.0316468 26.7034 0.0316468 24.3418C0.0316468 17.4576 0.0789412 10.5579 0.00011718 3.67365C-0.0156476 1.55899 1.56083 -0.0463062 3.78367 3.4261e-07C8.68653 0.0926134 13.6051 0.0308714 18.508 0.0308714ZM16.8054 14.0154C16.8054 10.6659 16.7896 7.33186 16.8212 3.98236C16.8212 3.44212 16.6793 3.3032 16.1275 3.3032C12.1075 3.33407 8.08746 3.33407 4.06744 3.3032C3.51567 3.3032 3.37379 3.42668 3.37379 3.98236C3.38955 10.6659 3.38955 17.3649 3.37379 24.0485C3.37379 24.5888 3.51567 24.7431 4.06744 24.7431C8.08746 24.7277 12.1075 24.7277 16.1275 24.7431C16.6793 24.7431 16.8212 24.5888 16.8212 24.0485C16.7896 20.699 16.8054 17.3495 16.8054 14.0154ZM33.6422 14.0154C33.6422 10.6659 33.6265 7.33186 33.658 3.98236C33.658 3.47299 33.5792 3.28776 32.9959 3.28776C28.9443 3.31863 24.9085 3.31863 20.857 3.28776C20.3525 3.28776 20.2106 3.41125 20.2106 3.92062C20.2264 10.6351 20.2264 17.3495 20.2106 24.0639C20.2106 24.6196 20.384 24.7431 20.92 24.7277C24.94 24.7122 28.9601 24.7122 32.9801 24.7277C33.5319 24.7277 33.6737 24.5733 33.6737 24.0485C33.6265 20.7144 33.6422 17.3649 33.6422 14.0154Z" fill="white"/>
<path d="M26.9423 13.1818C28.4399 13.1818 29.9376 13.1973 31.4195 13.1664C31.8294 13.1664 31.9397 13.2744 31.9555 13.6758C32.0028 15.6515 32.0185 15.6515 30.0164 15.6515C27.5256 15.6515 25.0347 15.6361 22.5439 15.6669C22.0079 15.6669 21.8345 15.5589 21.8345 15.0032C21.8502 13.1818 21.8345 13.1818 23.7105 13.1818C24.7983 13.1818 25.8703 13.1818 26.9423 13.1818Z" fill="white"/>
<path d="M26.911 11.5303C25.4134 11.5303 23.9315 11.5148 22.4338 11.5457C22.0082 11.5457 21.8505 11.4531 21.8505 10.99C21.819 9.0606 21.8032 9.0606 23.7738 9.0606C26.2962 9.0606 28.8028 9.07604 31.3252 9.04517C31.8454 9.04517 31.9873 9.18409 31.9715 9.69346C31.9715 11.5457 31.9873 11.5457 30.1428 11.5457C29.055 11.5303 27.983 11.5303 26.911 11.5303Z" fill="white"/>
<path d="M26.8634 17.3185C28.3769 17.3185 29.9061 17.334 31.4195 17.3031C31.8136 17.3031 31.9397 17.3957 31.9555 17.8125C32.0185 19.7882 32.0343 19.7882 30.0164 19.7882C27.5256 19.7882 25.0347 19.7728 22.5439 19.8037C22.0079 19.8037 21.8345 19.6802 21.8345 19.1245C21.8502 17.3031 21.8187 17.3031 23.6317 17.3031C24.7194 17.3185 25.7914 17.3185 26.8634 17.3185Z" fill="white"/>
</g>
<defs>
<clipPath id="clip0_819_1607">
<rect width="37" height="28" fill="white"/>
</clipPath>
</defs>
</svg>
