<svg width="46" height="46" viewBox="0 0 46 46" fill="none" xmlns="http://www.w3.org/2000/svg">
<g clip-path="url(#clip0_32_4)">
<path d="M11.5026 22.9847C11.5332 16.5609 16.6864 11.477 23.138 11.5077C29.4363 11.5282 34.5179 16.7552 34.4872 23.179C34.4566 29.429 29.2318 34.5435 22.9029 34.5026C16.6148 34.4719 11.4821 29.2756 11.5026 22.9847ZM22.9438 30.6769C27.146 30.7178 30.6326 27.3013 30.6735 23.1074C30.7144 18.8522 27.3403 15.3641 23.1278 15.3129C18.8335 15.2618 15.3572 18.668 15.3265 22.954C15.2959 27.1888 18.7006 30.6462 22.9438 30.6769Z" fill="#4B5D8A"/>
<path d="M39.8449 37.7349C39.7937 38.676 39.4563 39.2693 38.7917 39.6171C38.076 39.9853 37.3399 39.9546 36.7468 39.4023C35.7039 38.4305 34.6917 37.4178 33.7204 36.3745C33.0558 35.6585 33.1478 34.5946 33.8431 33.8786C34.5281 33.1728 35.6119 33.0398 36.3379 33.7047C37.4217 34.7072 38.4543 35.7607 39.4666 36.845C39.7017 37.1007 39.7631 37.5304 39.8449 37.7349Z" fill="#4B5D8A"/>
<path d="M39.9471 8.15241C39.7222 8.5718 39.5586 9.06279 39.2518 9.40035C38.393 10.3414 37.4728 11.2313 36.5526 12.111C35.7244 12.9089 34.6304 12.9191 33.8635 12.1622C33.0865 11.395 33.0865 10.2494 33.884 9.42081C34.7735 8.51042 35.6733 7.60004 36.5935 6.72034C37.1865 6.14751 37.8818 5.98385 38.6588 6.32141C39.3643 6.62828 39.8346 7.34431 39.9471 8.15241Z" fill="#4B5D8A"/>
<path d="M12.7397 35.4232C12.6068 35.679 12.4534 36.1904 12.1262 36.5484C11.2674 37.4895 10.3472 38.3692 9.43719 39.2591C8.63968 40.0365 7.48431 40.0365 6.73792 39.2796C5.98131 38.5124 5.97109 37.377 6.74815 36.5791C7.6479 35.6585 8.55788 34.7379 9.48831 33.8377C10.0813 33.2751 10.7868 33.1217 11.5639 33.4593C12.3103 33.7866 12.6477 34.3799 12.7397 35.4232Z" fill="#4B5D8A"/>
<path d="M42.1556 24.8974C41.5115 24.8974 40.8571 24.9076 40.213 24.8974C39.1905 24.8769 38.3828 24.079 38.3419 23.0971C38.301 22.0742 39.0474 21.174 40.08 21.1331C41.4706 21.0819 42.8713 21.0819 44.2721 21.1331C45.2741 21.174 46.0205 22.0742 45.9898 23.0664C45.9591 24.0279 45.1923 24.836 44.1903 24.8871C43.5155 24.9178 42.8406 24.8871 42.1556 24.8974C42.1556 24.8871 42.1556 24.8871 42.1556 24.8974Z" fill="#4B5D8A"/>
<path d="M8.33294 6.13745C8.57833 6.27043 9.0691 6.42386 9.40651 6.74096C10.3574 7.61043 11.2571 8.54128 12.1569 9.47212C12.9033 10.2393 12.8931 11.3952 12.1671 12.1419C11.431 12.8886 10.2756 12.9295 9.49853 12.1828C8.54765 11.2622 7.607 10.3314 6.69702 9.36983C6.13467 8.77654 6.00175 8.06051 6.35961 7.29333C6.69702 6.55684 7.30026 6.20905 8.33294 6.13745Z" fill="#4B5D8A"/>
<path d="M3.87508 24.8974C3.24116 24.8974 2.61747 24.9076 1.98355 24.8974C0.838409 24.8667 0 24.0688 0 23.005C0 21.9309 0.838409 21.1126 1.98355 21.1024C3.21049 21.0922 4.43743 21.0922 5.66437 21.1024C6.80951 21.1126 7.64792 21.931 7.64792 22.9948C7.64792 24.0586 6.78906 24.8769 5.66437 24.8871C5.07135 24.8974 4.47833 24.8974 3.87508 24.8974Z" fill="#4B5D8A"/>
<path d="M24.8966 42.1437C24.8966 42.737 24.8966 43.3405 24.8966 43.9338C24.8864 45.1306 24.1093 45.9898 23.0255 46.0001C21.9213 46.0103 21.1033 45.1613 21.0931 43.9543C21.0829 42.7063 21.0727 41.4686 21.1033 40.2207C21.1238 39.3103 21.727 38.6045 22.5552 38.3999C23.3732 38.1953 24.2525 38.584 24.6615 39.3717C24.7944 39.6274 24.8557 39.9547 24.8659 40.2514C24.8966 40.8753 24.8762 41.5095 24.8762 42.1437C24.8864 42.1437 24.8966 42.1437 24.8966 42.1437Z" fill="#4B5D8A"/>
<path d="M24.8762 3.82564C24.8762 4.47007 24.8967 5.12473 24.8762 5.76916C24.8455 6.80229 24.0685 7.60016 23.0869 7.64107C22.0645 7.68199 21.175 6.96596 21.1238 5.90214C21.0625 4.51099 21.0523 3.10961 21.1136 1.71846C21.175 0.664868 22.0747 -0.0409354 23.1074 -1.92025e-05C24.0889 0.040897 24.8558 0.848991 24.8762 1.88212C24.8967 2.53678 24.8762 3.18121 24.8762 3.82564Z" fill="#4B5D8A"/>
</g>
<defs>
<clipPath id="clip0_32_4">
<rect width="46" height="46" fill="white"/>
</clipPath>
</defs>
</svg>
