<svg width="130" height="130" viewBox="0 0 130 130" fill="none" xmlns="http://www.w3.org/2000/svg">
<g clip-path="url(#clip0_6_170)">
<path d="M64.8345 101.12C44.7677 100.996 28.8383 84.9014 28.8797 64.9173C28.9625 44.8504 45.0573 28.8383 65.0414 28.9211C85.1496 29.0038 101.244 45.1814 101.079 65.2483C100.955 85.2324 84.8186 101.244 64.8345 101.12ZM65.0414 34.424C48.2432 34.424 34.4653 48.1191 34.424 64.8345C34.3826 81.7155 48.1191 95.5761 64.9586 95.5761C81.7982 95.5761 95.6175 81.7569 95.6175 64.9587C95.5761 48.2018 81.7982 34.424 65.0414 34.424Z" fill="black"/>
<path d="M67.8548 11.6678C67.8548 14.3985 67.8962 17.1706 67.8548 19.9014C67.8135 22.0115 66.7377 23.2114 65 23.2114C63.2622 23.2114 62.1865 22.0115 62.1451 19.9014C62.1037 14.3158 62.1037 8.77154 62.1451 3.18592C62.1451 1.19993 63.2209 0.0414275 64.8759 -0.0413223C66.6136 -0.0826972 67.7721 1.11718 67.8135 3.18592C67.8962 6.04079 67.8548 8.85429 67.8548 11.6678Z" fill="black"/>
<path d="M11.7505 62.1452C14.4398 62.1452 17.1292 62.1038 19.7772 62.1452C22.0528 62.1866 23.2941 63.2623 23.2527 65.0828C23.2113 66.7792 22.0115 67.855 19.86 67.855C14.3571 67.8963 8.85423 67.8963 3.35137 67.855C1.19987 67.855 0 66.7792 0 65.0415C0 63.3037 1.1585 62.1866 3.26862 62.1452C6.12349 62.1038 8.93698 62.1452 11.7505 62.1452Z" fill="black"/>
<path d="M118.415 67.8549C115.684 67.8549 112.912 67.8963 110.181 67.8549C108.03 67.8135 106.83 66.7792 106.789 65.0828C106.747 63.2623 107.947 62.1865 110.223 62.1452C115.643 62.1038 121.104 62.1038 126.524 62.1452C128.8 62.1452 130.041 63.2209 130.041 65C130.041 66.7792 128.8 67.8135 126.483 67.8135C123.752 67.8963 121.063 67.8549 118.415 67.8549Z" fill="black"/>
<path d="M67.8548 118.456C67.8548 121.063 67.8548 123.67 67.8548 126.276C67.8548 128.759 66.8205 130 64.9586 129.959C63.1795 129.917 62.1865 128.676 62.1451 126.4C62.1037 121.022 62.1037 115.684 62.1451 110.306C62.1451 107.989 63.1381 106.747 64.9172 106.706C66.8205 106.665 67.8135 107.864 67.8135 110.388C67.8548 113.119 67.8548 115.808 67.8548 118.456Z" fill="black"/>
<path d="M22.839 110.968C21.5977 111.878 19.8186 111.754 18.867 110.554C18.7428 110.388 18.6187 110.223 18.5773 110.057C18.2877 109.188 18.536 107.782 19.0738 107.12C20.6461 105.216 22.508 103.561 24.2457 101.824C26.6868 99.3826 29.0866 96.9415 31.5277 94.5417C33.0586 93.0522 34.6308 92.8867 35.8721 94.128C37.1133 95.3692 36.9478 96.9415 35.4169 98.4723C31.4449 102.486 27.473 106.499 23.4596 110.43C23.3355 110.637 23.0872 110.802 22.839 110.968Z" fill="black"/>
<path d="M111.092 110.637C110.057 111.754 108.32 111.836 107.12 110.926C107.037 110.843 106.954 110.761 106.871 110.719C102.651 106.582 98.4723 102.403 94.2935 98.2241C93.0108 96.9001 92.9695 95.3693 94.0452 94.1694C95.2037 92.9695 96.8587 92.9695 98.2241 94.3349C102.444 98.4724 106.665 102.61 110.761 106.871C111.423 107.575 111.712 109.064 111.464 109.975C111.423 110.223 111.299 110.43 111.092 110.637Z" fill="black"/>
<path d="M19.0738 19.198C20.1082 18.1636 21.8046 18.1222 22.9631 19.0325C23.0872 19.1152 23.17 19.198 23.2941 19.3221C27.3075 23.2941 31.3208 27.2661 35.2928 31.2794C36.7409 32.7689 36.8651 34.1757 35.6652 35.4583C34.4653 36.7823 32.8517 36.7409 31.3208 35.2101C27.3075 31.2381 23.2527 27.3074 19.4048 23.17C18.7015 22.4252 18.4118 20.8943 18.6601 19.9013C18.7015 19.6531 18.867 19.4462 19.0738 19.198Z" fill="black"/>
<path d="M107.699 18.5774C108.692 18.1222 109.85 18.2877 110.719 18.9497C111.092 19.2394 111.381 19.529 111.423 19.86C111.63 20.8944 111.381 22.4252 110.678 23.17C107.12 26.9765 103.355 30.6175 99.6308 34.3412C99.1757 34.7963 98.762 35.2514 98.3068 35.6238C96.9828 36.6582 95.6175 36.7409 94.4176 35.4997C93.3005 34.3412 93.2591 32.8931 94.3762 31.776C98.5965 27.4316 102.899 23.17 107.202 18.9084C107.368 18.7842 107.533 18.6601 107.699 18.5774Z" fill="black"/>
<path d="M42.2438 64.9174C42.2852 52.298 52.4634 42.2025 65.2069 42.2439C77.7435 42.2853 87.7976 52.5049 87.7976 65.1242C87.7976 77.7436 77.578 87.8391 64.8345 87.7977C52.2979 87.7149 42.2024 77.5367 42.2438 64.9174Z" fill="black"/>
</g>
<defs>
<clipPath id="clip0_6_170">
<rect width="130" height="130" fill="white"/>
</clipPath>
</defs>
</svg>
