<svg width="130" height="130" viewBox="0 0 130 130" fill="none" xmlns="http://www.w3.org/2000/svg">
<g clip-path="url(#clip0_13_38)">
<path d="M68.2595 129.949C36.9834 129.949 10.0195 109.488 2.30828 79.4571C-3.2722 57.727 1.26828 37.8246 15.2449 20.2324C22.1951 11.4743 30.9971 5.05174 41.2702 0.660024C43.9844 -0.507716 46.6732 -0.0507743 48.4741 1.87854C50.3512 3.884 50.7571 6.67643 49.3873 9.26577C46.3434 15.0537 44.1873 21.1209 43.1219 27.5688C41.9805 34.423 42.0058 41.2771 43.2995 48.1058C45.7093 60.9002 51.721 71.7653 61.2839 80.5995C69.7815 88.4691 79.7502 93.3939 91.1649 95.4755C98.9522 96.8971 106.689 96.6179 114.425 95.1201C117.063 94.6124 119.651 95.8563 120.995 98.141C122.314 100.375 122.06 103.015 120.285 105.198C115.567 110.91 110.088 115.759 103.797 119.693C94.7922 125.304 84.9756 128.604 74.4234 129.67C72.2673 129.873 70.0858 130.076 68.2595 129.949Z" fill="#020202"/>
<path d="M89.44 24.3448C90.4039 24.421 90.9112 25.0049 91.1902 25.8934C92.1795 28.8889 93.1688 31.859 94.1834 34.8545C95.7307 39.3986 98.7493 42.4194 103.29 43.9426C106.08 44.8819 108.87 45.7957 111.66 46.735C112.675 47.065 113.74 47.395 113.74 48.7659C113.715 50.1113 112.624 50.4159 111.61 50.7459C108.819 51.6852 106.029 52.5991 103.239 53.5384C98.7746 55.0107 95.7815 58.0316 94.2341 62.4234C93.1688 65.3935 92.2049 68.389 91.241 71.3845C90.9366 72.3492 90.48 73.1107 89.3639 73.0853C88.3239 73.0599 87.8673 72.3491 87.5629 71.4353C86.599 68.4398 85.6097 65.4442 84.5697 62.4741C83.0224 58.057 80.0293 55.0615 75.5902 53.5384C72.6224 52.5229 69.6293 51.5075 66.6361 50.5175C65.6976 50.2128 65.0127 49.7305 65.038 48.6897C65.0634 47.6235 65.7736 47.1919 66.6868 46.8873C69.68 45.9227 72.6732 44.9072 75.641 43.8918C80.0293 42.3687 82.9971 39.3986 84.5444 35.0322C85.6351 31.9859 86.599 28.8889 87.6136 25.8426C87.918 24.9541 88.4254 24.3956 89.44 24.3448Z" fill="#060606"/>
<path d="M130 16.1453C129.924 16.983 129.391 17.2876 128.757 17.4907C126.956 18.0746 125.18 18.6839 123.38 19.2677C120.057 20.3339 117.85 22.5171 116.784 25.868C116.201 27.6704 115.592 29.4474 115.009 31.2498C114.806 31.8844 114.501 32.4683 113.74 32.4683C112.98 32.4683 112.675 31.8844 112.472 31.2498C111.813 29.2697 111.153 27.2642 110.468 25.2841C109.454 22.4155 107.475 20.4608 104.583 19.4708C102.681 18.8108 100.779 18.1508 98.8507 17.5415C98.1659 17.313 97.5317 17.0592 97.5317 16.2468C97.5317 15.4345 98.1659 15.1806 98.8507 14.9522C100.702 14.3683 102.529 13.759 104.355 13.1244C107.551 12.0074 109.657 9.84964 110.697 6.60027C111.28 4.79789 111.889 3.02089 112.472 1.21851C112.675 0.58387 112.98 0 113.74 0C114.501 0 114.806 0.58387 115.009 1.21851C115.592 3.02089 116.201 4.79789 116.784 6.60027C117.85 9.9258 120.057 12.109 123.38 13.2005C125.18 13.7844 126.956 14.3937 128.757 14.9775C129.391 15.1552 129.899 15.4853 130 16.1453Z" fill="#090909"/>
</g>
<defs>
<clipPath id="clip0_13_38">
<rect width="130" height="130" fill="white"/>
</clipPath>
</defs>
</svg>
