<svg width="130" height="130" viewBox="0 0 130 130" fill="none" xmlns="http://www.w3.org/2000/svg">
<g clip-path="url(#clip0_13_45)">
<path d="M65.0884 9.98722e-06C100.746 0.0707775 130.177 29.3332 130 64.7169C129.859 100.879 101.559 129.858 64.9469 129.965C28.9007 130.106 -0.0707411 100.702 7.2294e-06 64.5754C0.0707555 29.1562 29.502 -0.0707576 65.0884 9.98722e-06ZM65.7959 114.891C85.5347 114.007 101.099 105.479 110.686 88.0349C121.263 68.8215 119.812 49.6081 107.361 31.6685C95.7225 14.9673 76.6204 9.58901 65.6191 10.3675C70.7483 14.0828 75.1347 18.4703 78.9197 23.4948C86.7374 33.8269 90.9823 45.5389 92.2558 58.4186C92.3619 59.5155 92.3265 60.2586 90.9823 60.8247C88.7891 61.7093 87.7279 63.5847 87.6218 65.9908C87.5157 68.4676 88.4708 70.5199 90.6286 71.546C92.1143 72.2537 92.0789 73.1383 91.902 74.3059C91.2653 77.8797 90.4871 81.4181 89.249 84.8857C84.6857 97.4116 76.6558 107.177 65.7959 114.891ZM62.5061 40.0544C62.5061 33.2608 56.8816 27.564 50.0544 27.5286C43.1918 27.4932 37.4259 33.2961 37.4966 40.0898C37.5674 46.9189 43.2272 52.5449 50.0191 52.5449C56.8463 52.5095 62.5061 46.8481 62.5061 40.0544ZM74.9578 86.3718C74.9932 81.4889 71.1728 77.5613 66.3265 77.5259C61.6218 77.4905 57.6245 81.3827 57.5891 86.0887C57.5538 91.0779 61.4449 95.0762 66.3265 95.0408C71.0313 95.0055 74.9225 91.1132 74.9578 86.3718ZM42.449 78.7289C42.449 75.3321 39.6898 72.5368 36.3293 72.5014C32.9333 72.466 29.9973 75.3675 29.9973 78.7643C29.9973 82.1965 32.8626 84.9919 36.3646 84.9565C39.8313 84.9211 42.4844 82.2319 42.449 78.7289Z" fill="#030404"/>
</g>
<defs>
<clipPath id="clip0_13_45">
<rect width="130" height="130" fill="white"/>
</clipPath>
</defs>
</svg>
