<svg width="139" height="133" viewBox="0 0 139 133" fill="none" xmlns="http://www.w3.org/2000/svg">
<path d="M83.9104 7.04736C84.3607 7.04736 84.5858 7.34725 84.736 7.79708C85.1863 9.22155 85.6366 10.571 86.162 11.9955C86.9125 14.0947 88.3385 15.5192 90.4401 16.2689C91.716 16.7187 93.0669 17.1686 94.3429 17.5434C94.7932 17.6934 95.3186 17.8433 95.3186 18.5181C95.3186 19.1178 94.7932 19.2678 94.3429 19.4177C93.0669 19.8675 91.716 20.3174 90.4401 20.6922C88.3385 21.367 86.9876 22.7914 86.237 24.8157C85.7117 26.1652 85.2613 27.5896 84.811 29.0141C84.6609 29.4639 84.4357 29.8388 83.9104 29.8388C83.385 29.8388 83.2349 29.4639 83.0848 29.0891C82.6344 27.6646 82.1841 26.3151 81.6587 24.8907C80.9082 22.7914 79.5572 21.442 77.4557 20.6922C76.0297 20.2424 74.6787 19.7176 73.2527 19.2678C72.8024 19.1178 72.5022 18.8929 72.5022 18.4431C72.5022 17.9183 72.8774 17.7683 73.2527 17.6184C74.6787 17.1686 76.0297 16.7187 77.4557 16.1939C79.4822 15.5192 80.9082 14.0947 81.5837 12.0705C82.1091 10.646 82.5594 9.22155 83.0097 7.79708C83.2349 7.34725 83.46 7.04736 83.9104 7.04736Z" fill="#060606"/>
<path d="M139 34.3372C138.925 35.3868 138.249 35.7616 137.424 35.9866C135.172 36.7363 132.996 37.486 130.744 38.1607C126.616 39.5102 123.914 42.2092 122.563 46.3327C121.813 48.5818 121.062 50.756 120.387 53.0052C120.161 53.8298 119.786 54.5046 118.81 54.5046C117.835 54.5046 117.535 53.7549 117.234 53.0052C116.409 50.5311 115.583 48.057 114.758 45.5829C113.482 41.9843 111.005 39.5852 107.477 38.3857C105.076 37.561 102.749 36.7363 100.347 35.9866C99.5216 35.6867 98.696 35.3868 98.696 34.4122C98.696 33.3625 99.5216 33.0627 100.347 32.8377C102.674 32.088 104.925 31.3383 107.177 30.5886C111.155 29.2391 113.782 26.5401 115.058 22.4916C115.733 20.2425 116.559 18.0683 117.234 15.8191C117.459 15.0694 117.835 14.3197 118.81 14.3197C119.786 14.3197 120.161 15.0694 120.387 15.8191C121.137 18.0683 121.888 20.2425 122.563 22.4916C123.914 26.6151 126.616 29.3141 130.744 30.6636C132.996 31.4133 135.172 32.163 137.424 32.8377C138.249 33.1376 138.925 33.5125 139 34.3372Z" fill="#090909"/>
<path d="M67.9989 133C35.2754 131.875 10.8828 113.058 2.47677 83.2937C-7.65552 47.4572 14.3353 9.37151 50.3612 0.299919C55.3148 -0.974602 58.8423 2.24919 57.7916 7.34727C54.1139 23.8411 56.5156 39.4352 66.5729 53.23C78.5815 69.7988 95.0934 77.6708 115.658 76.6962C119.186 76.5463 122.563 75.9465 126.016 75.2717C130.819 74.3721 134.347 77.8957 132.996 82.544C125.49 108.109 108.978 124.453 83.0097 131.126C80.3828 131.8 77.6809 132.25 74.9039 132.625C72.277 132.925 69.6501 132.925 67.9989 133ZM45.0324 14.3196C24.0173 21.8168 8.55615 47.4572 11.0329 70.5485C14.0351 98.1381 34.5999 118.755 62.2198 121.904C85.5615 124.528 111.38 109.159 118.886 88.0919C76.3299 91.4656 41.0545 56.2289 45.0324 14.3196Z" fill="#0C0D0D"/>
</svg>
