<svg width="106" height="106" viewBox="0 0 106 106" fill="none" xmlns="http://www.w3.org/2000/svg">
<g clip-path="url(#clip0_9_10)">
<path d="M71.391 53C71.391 42.8108 63.1363 34.5428 52.9603 34.5295C52.9603 46.852 52.9603 59.1613 52.9603 71.4838C63.1363 71.4573 71.391 63.1893 71.391 53Z" fill="black"/>
<path d="M105.987 52.3375C105.656 23.161 81.673 -0.437252 52.1918 -1.69553e-06C23.2008 0.437248 -0.463749 24.2475 0.0132514 53.901C0.477001 82.9185 24.3403 106.397 53.7818 106C82.7595 105.576 106.345 81.832 105.987 52.3375ZM53 83.7135C52.9868 83.7135 52.9735 83.7135 52.947 83.7135C52.947 87.6355 52.947 91.5575 52.947 95.4927C37.5903 94.8965 25.44 88.5365 17.1588 75.578C8.36075 61.8245 8.30775 44.4405 16.8938 30.846C25.2015 17.6622 37.4048 11.13 52.947 10.5072C52.947 14.4425 52.947 18.3645 52.947 22.2865C52.9603 22.2865 52.9735 22.2865 53 22.2865C69.96 22.2865 83.7135 36.04 83.7135 53C83.7135 69.96 69.96 83.7135 53 83.7135Z" fill="black"/>
</g>
<defs>
<clipPath id="clip0_9_10">
<rect width="106" height="106" fill="white"/>
</clipPath>
</defs>
</svg>
