<svg width="106" height="106" viewBox="0 0 106 106" fill="none" xmlns="http://www.w3.org/2000/svg">
<g clip-path="url(#clip0_9_16)">
<path d="M105.987 52.3375C105.656 23.161 81.673 -0.437252 52.1918 -1.69553e-06C23.2008 0.437248 -0.463749 24.2475 0.0132514 53.901C0.477001 82.9185 24.3403 106.397 53.7818 106C82.7595 105.576 106.345 81.832 105.987 52.3375ZM52.947 95.4795C29.4813 95.4795 10.4675 76.4657 10.4675 53C10.4675 29.574 29.4283 10.5735 52.8543 10.5205C52.8808 10.5205 52.9205 10.5205 52.947 10.5205C76.4128 10.5205 95.4265 29.5475 95.4265 53C95.4265 76.4525 76.4128 95.4795 52.947 95.4795Z" fill="black"/>
<path d="M53 21.041C53 42.3602 53 63.6 53 84.9457C70.649 84.9457 84.959 70.6357 84.959 52.9867C84.959 35.3377 70.649 21.041 53 21.041Z" fill="black"/>
<path d="M17.1587 75.5647C8.36075 61.8112 8.30775 44.4272 16.8937 30.8327C25.1882 17.6887 37.3517 11.1698 52.8542 10.5205C29.4282 10.5735 10.4675 29.574 10.4675 53C10.4675 76.4657 29.4945 95.4795 52.947 95.4795C37.5902 94.8965 25.44 88.5232 17.1587 75.5647Z" fill="black"/>
</g>
<defs>
<clipPath id="clip0_9_16">
<rect width="106" height="106" fill="white"/>
</clipPath>
</defs>
</svg>
