<svg width="106" height="106" viewBox="0 0 106 106" fill="none" xmlns="http://www.w3.org/2000/svg">
<g clip-path="url(#clip0_13_28)">
<path d="M53.0499 0C82.2999 0 106.05 23.85 106 53.15C105.95 82.35 82.1499 106 52.9999 106C23.6499 105.95 -0.0500736 82.15 -7.36194e-05 52.85C0.0499264 23.65 23.8499 0 53.0499 0ZM98.5499 53.05C98.5999 27.8 78.3499 7.5 53.0499 7.45C27.7999 7.4 7.49993 27.65 7.44993 52.95C7.39993 78.2 27.6499 98.5 52.9499 98.55C78.1999 98.55 98.4999 78.3 98.5499 53.05Z" fill="black"/>
<path d="M91.2 53.05C91.1 71.85 77.4 87.85 58.8 90.85C54.5 91.55 50.5 88.75 49.55 84.4C49.35 83.5 49.25 82.6 49.25 81.7C49.25 62.65 49.2 43.55 49.25 24.5C49.25 19.3 51.8 15.9 56.2 15.3C57.85 15.05 59.7 15.35 61.35 15.7C78.65 19.45 91.3 35.35 91.2 53.05ZM56.95 83.4C72.15 81.65 84.2 68.45 83.8 52.15C83.45 36.95 70.7 23.15 56.95 22.65C56.95 42.85 56.95 63.05 56.95 83.4Z" fill="black"/>
</g>
<defs>
<clipPath id="clip0_13_28">
<rect width="106" height="106" fill="white"/>
</clipPath>
</defs>
</svg>
