<svg width="130" height="118" viewBox="0 0 130 118" fill="none" xmlns="http://www.w3.org/2000/svg">
<g clip-path="url(#clip0_6_156)">
<path d="M64.6539 118C43.8083 117.015 27.9299 107.247 18.0363 87.9562C17.2221 86.3555 16.5706 86.1502 15.0642 86.7249C13.3949 87.4226 11.6035 87.8741 9.85281 88.3666C6.75854 89.2285 3.62356 87.5868 2.64642 84.6727C1.62857 81.5944 3.13499 78.352 6.26997 77.2028C8.22424 76.464 10.2599 75.8894 12.2549 75.3558C13.4356 75.0275 13.6799 74.4118 13.4764 73.3036C12.9878 70.9642 12.7028 68.5836 12.7842 66.2031C12.8249 65.0129 12.3364 64.7255 11.3185 64.6024C9.48638 64.4382 7.69496 64.1509 5.86283 63.9868C1.91356 63.6174 -0.407137 60.8264 0.0814315 57.0915C0.488572 53.8901 3.62356 51.7558 7.16568 52.2894C9.03853 52.5767 10.9521 52.6998 12.8249 52.9461C13.7614 53.0692 14.2092 52.8229 14.4535 51.7558C14.9828 49.3753 15.7156 47.0358 16.7742 44.8195C17.2221 43.8755 17.0185 43.424 16.1228 42.9315C14.2906 41.9464 12.4585 40.8793 10.7078 39.7301C7.8171 37.8831 6.96211 34.5586 8.54996 31.7266C10.2192 28.8125 13.5578 27.9096 16.6521 29.5923C18.4435 30.5774 20.1942 31.6035 21.9042 32.6706C22.7999 33.2042 23.3699 33.2862 24.062 32.3422C25.5684 30.249 27.3191 28.32 29.2734 26.5962C30.2098 25.7753 29.9656 25.2417 29.3548 24.4619C28.1334 22.8202 26.912 21.1784 25.8127 19.4956C23.8584 16.5405 24.4284 13.0518 27.1156 11.1638C29.7213 9.31686 33.1413 9.89147 35.2584 12.6003C36.5205 14.201 37.7012 15.8838 38.8005 17.5666C39.3705 18.4285 39.7776 18.7158 40.8362 18.1412C42.9941 16.992 45.2333 16.089 47.4726 15.1861C48.3683 14.8167 48.5719 14.4883 48.3276 13.5443C47.7983 11.5742 47.4319 9.56312 47.0247 7.55199C46.2919 3.94016 48.1647 0.902944 51.6254 0.123118C54.5976 -0.574621 57.529 1.43651 58.384 4.84312C58.9133 6.93634 59.3611 9.0706 59.7683 11.2049C59.9311 12.0668 60.2568 12.313 61.1118 12.2309C63.6768 11.8616 66.2418 11.8205 68.8068 12.1899C69.7025 12.313 69.9468 11.8616 70.1096 11.0817C70.476 9.0706 70.8832 7.05947 71.331 5.08938C72.1046 1.88799 74.9953 -0.123142 78.0082 0.410423C81.1024 0.943988 83.1381 3.6939 82.7717 6.97738C82.5681 8.94747 82.1203 10.8765 81.6317 12.8056C81.306 14.1189 81.5096 14.7756 82.8938 15.1861C85.1738 15.8428 87.3317 16.8278 89.3674 18.0181C90.3445 18.5927 90.8738 18.3875 91.4845 17.4845C92.5838 15.7607 93.8052 14.1189 95.0266 12.4772C97.3473 9.3579 100.686 8.66016 103.536 10.7123C106.345 12.7235 106.752 16.1301 104.513 19.3725C103.332 21.0963 102.152 22.8612 100.849 24.544C100.238 25.3238 100.319 25.7342 101.012 26.3909C102.925 28.1558 104.717 30.0028 106.264 32.096C106.874 32.9169 107.363 33.081 108.259 32.4654C110.091 31.2751 111.964 30.249 113.877 29.1819C116.972 27.4581 120.351 28.2789 122.02 31.0699C123.771 34.025 122.834 37.4316 119.74 39.3196C117.908 40.4689 116.035 41.577 114.122 42.6031C113.267 43.0546 113.185 43.465 113.552 44.368C114.651 46.8716 115.547 49.4163 116.117 52.0842C116.32 52.9871 116.687 53.2744 117.664 53.1102C119.74 52.7819 121.816 52.5356 123.934 52.4536C127.069 52.3304 129.634 54.5057 129.959 57.3377C130.366 60.7854 128.494 63.3711 125.155 63.9868C123.16 64.3562 121.124 64.6024 119.129 64.7256C118.112 64.8076 117.704 65.0949 117.745 66.1621C117.827 68.6247 117.501 71.0873 117.012 73.4678C116.809 74.4118 117.012 74.9043 118.071 75.1916C119.944 75.6842 121.816 76.2998 123.649 76.9976C126.987 78.2289 128.534 81.2661 127.476 84.4675C126.499 87.4636 123.364 89.0643 120.106 88.1614C117.908 87.5457 115.302 85.7809 113.633 86.4376C112.004 87.0943 111.394 90.2136 110.172 92.1426C99.7495 108.806 84.726 117.261 64.6539 118ZM24.4692 65.2591C24.347 70.6358 25.6499 76.0536 27.8077 81.3482C28.2963 82.5795 28.8256 82.9078 30.1691 82.4563C38.4341 79.7064 46.7398 77.0796 55.0047 74.3297C59.6054 72.8111 64.4504 71.9492 68.7253 69.4866C79.6774 63.1249 90.5481 56.64 101.5 50.2782C102.722 49.5395 102.966 49.0059 102.355 47.6515C94.9045 31.0699 76.5424 21.1784 58.7911 24.2156C38.7191 27.7043 24.4692 44.5732 24.4692 65.2591Z" fill="#040404"/>
</g>
<defs>
<clipPath id="clip0_6_156">
<rect width="130" height="118" fill="white"/>
</clipPath>
</defs>
</svg>
