<svg width="130" height="116" viewBox="0 0 130 116" fill="none" xmlns="http://www.w3.org/2000/svg">
<g clip-path="url(#clip0_6_158)">
<path d="M121.654 63.5411C122.875 63.3794 124.096 63.2985 125.277 63.0962C128.494 62.4491 130.326 59.901 129.959 56.5844C129.674 53.834 127.15 51.6499 124.178 51.7308C122.02 51.7713 119.862 52.1353 117.704 52.2971C117.216 52.3375 116.402 52.0544 116.279 51.7308C115.221 48.6973 114.325 45.6639 113.307 42.5091C115.424 41.2552 117.542 40.0823 119.618 38.8284C122.794 36.9275 123.771 33.6109 122.061 30.6987C120.392 27.8271 116.931 27.0181 113.755 28.7978C111.923 29.8089 110.132 30.9414 108.299 31.9121C107.852 32.1548 106.874 32.1953 106.589 31.9121C104.432 29.6876 102.396 27.3821 100.279 25.0363C101.785 22.9331 103.495 20.9916 104.676 18.7671C105.449 17.3515 105.816 15.4505 105.653 13.8326C105.409 11.6081 103.699 10.2329 101.459 9.66666C99.098 9.10041 97.1031 9.788 95.6374 11.6081C93.8866 13.7517 92.3395 16.0167 90.6702 18.2413C87.576 16.9065 84.5631 15.6123 81.4281 14.2371C81.876 11.8103 82.4867 9.38354 82.7717 6.91631C83.1789 3.68061 81.1024 1.01115 78.0082 0.444904C75.036 -0.0808976 72.1046 1.90097 71.3311 5.05578C70.8425 6.99721 70.5168 9.01952 70.0282 10.9609C69.9061 11.4059 69.3361 12.0125 68.9289 12.0125C65.9568 12.0934 62.9847 12.053 60.0125 12.053C59.4833 9.62622 59.0354 7.32078 58.4654 5.05578C57.5697 1.45606 54.6383 -0.566253 51.4626 0.242673C48.0019 1.09205 46.2512 4.04463 47.0655 7.68479C47.554 9.94979 48.0426 12.2552 48.5312 14.4798C45.4776 15.8145 42.5869 17.1088 39.5741 18.4031C38.2305 16.5425 36.887 14.6416 35.5434 12.8215C33.3041 9.82845 29.7213 9.14086 26.9934 11.1227C24.3063 13.1046 23.8585 16.5021 25.9756 19.5356C27.3192 21.477 28.7034 23.378 30.047 25.2385C27.6856 27.7866 25.4056 30.2943 23.0035 32.8424C20.9678 31.6695 19.0135 30.3752 16.8556 29.4045C15.5528 28.7978 14.0057 28.3933 12.6214 28.5146C10.2192 28.7169 8.3464 30.6987 7.85783 32.9233C7.36926 35.3096 8.26497 37.696 10.4228 39.0711C12.6214 40.4867 14.9014 41.7406 17.0592 42.9944C16.0006 46.1897 14.9828 49.1827 13.9242 52.3375C11.7257 52.0948 9.4864 51.933 7.28784 51.6095C3.58286 51.0837 0.447874 53.1464 0.0407329 56.4226C-0.407122 60.1032 1.91358 62.7727 5.86284 63.1771C8.0614 63.3794 10.3007 63.7029 12.4178 63.9456C12.7842 66.9791 13.1507 69.8103 13.3949 72.682C13.4357 73.1674 12.8657 74.0167 12.3771 74.1785C10.3414 74.947 8.22426 75.4324 6.18856 76.1604C3.05357 77.2929 1.54715 80.5286 2.60572 83.5621C3.58286 86.4338 6.71784 88.0112 9.85282 87.1618C12.2142 86.5146 14.4942 85.7462 16.8964 85.0586C27.0749 104.756 42.7905 116.121 65.2647 116.121C87.7388 116.121 103.414 104.675 113.552 85.0586C115.506 85.6653 117.501 86.3529 119.496 86.8787C120.595 87.1618 121.776 87.4045 122.875 87.2427C125.684 86.8382 127.598 84.5732 127.801 81.8633C128.005 79.4365 126.376 77.0098 123.852 76.1199C121.572 75.311 119.252 74.6234 116.972 73.8954C117.297 70.5384 117.623 67.3835 117.949 64.1883C119.252 63.8647 120.432 63.7029 121.654 63.5411ZM65.0204 91.0851C50.5669 91.0851 38.8819 79.4365 38.8819 65.1185C38.8819 50.7601 50.6076 39.152 65.0204 39.152C79.4739 39.152 91.1588 50.8006 91.1588 65.1185C91.1588 79.4365 79.4332 91.0851 65.0204 91.0851Z" fill="black"/>
</g>
<defs>
<clipPath id="clip0_6_158">
<rect width="130" height="116" fill="white"/>
</clipPath>
</defs>
</svg>
