<svg width="130" height="130" viewBox="0 0 130 130" fill="none" xmlns="http://www.w3.org/2000/svg">
<g clip-path="url(#clip0_6_160)">
<path d="M65.0389 99.7133C45.6673 99.7133 30.0688 84.0651 30.1077 64.6506C30.1077 45.3136 45.784 29.8208 65.2723 29.8208C84.605 29.8208 100.165 45.5078 100.126 65C100.087 84.1428 84.3717 99.7133 65.0389 99.7133ZM64.8444 90.7826C79.1981 90.7826 90.6733 79.3668 90.7511 65.1165C90.79 50.8274 79.1592 39.1786 64.8833 39.1786C50.4907 39.1786 39.0545 50.6721 39.0934 65.1165C39.0545 79.4445 50.4518 90.7826 64.8444 90.7826Z" fill="black"/>
<path d="M64.5721 0C67.8785 7.06691 70.9904 13.7067 74.219 20.5406C68.1119 20.5406 62.2382 20.5406 56.0143 20.5406C58.8151 13.7844 61.6158 7.10573 64.5721 0Z" fill="black"/>
<path d="M130 65.5436C122.882 68.4946 116.23 71.2903 109.384 74.1249C109.384 67.9899 109.384 62.1655 109.384 55.914C116.23 59.1368 122.882 62.2432 130 65.5436Z" fill="black"/>
<path d="M39.7546 102.975C33.1807 105.615 26.529 108.333 19.3716 111.207C22.0557 103.829 24.5841 96.9176 27.1125 90.0448C31.3136 94.3937 35.4369 98.5872 39.7546 102.975Z" fill="black"/>
<path d="M0 65.5436C7.11849 62.2043 13.7313 59.1368 20.5775 55.914C20.5775 62.049 20.5775 67.951 20.5775 74.1249C13.848 71.3292 7.19629 68.5335 0 65.5436Z" fill="black"/>
<path d="M111.134 19.9193C108.45 26.5591 105.766 33.1989 103.16 39.6057C98.9198 35.3734 94.6798 31.1798 90.4398 26.9863C97.0137 24.5788 103.86 22.0938 110.745 19.5699C110.862 19.6864 111.017 19.8029 111.134 19.9193Z" fill="black"/>
<path d="M18.5547 19.3369C25.9455 22.0161 32.7917 24.54 39.4823 26.9474C35.2813 31.1798 31.0413 35.3734 26.8013 39.6057C24.1951 33.1989 21.4722 26.5203 18.5547 19.3369Z" fill="black"/>
<path d="M102.926 90.2778C105.377 96.9564 107.905 103.829 110.589 111.207C103.432 108.333 96.7414 105.615 90.1675 102.936C94.4464 98.7038 98.6475 94.549 102.926 90.2778Z" fill="black"/>
<path d="M73.9467 109.498C70.757 116.254 67.684 122.894 64.3387 130.039C61.3824 122.972 58.5817 116.332 55.7421 109.498C61.8492 109.498 67.7618 109.498 73.9467 109.498Z" fill="black"/>
</g>
<defs>
<clipPath id="clip0_6_160">
<rect width="130" height="130" fill="white"/>
</clipPath>
</defs>
</svg>
