<?xml version="1.0" encoding="utf-8"?>
<!-- Generator: Adobe Illustrator 21.0.2, SVG Export Plug-In . SVG Version: 6.00 Build 0)  -->
<svg version="1.1" id="Layer_1" xmlns="http://www.w3.org/2000/svg" xmlns:xlink="http://www.w3.org/1999/xlink" x="0px" y="0px"
	 viewBox="0 0 90 90" style="enable-background:new 0 0 90 90;" xml:space="preserve">
<style type="text/css">
	.st0{fill:#F2F2F2;}
	.st1{fill:#6E767D;}
</style>
<circle class="st0" cx="45" cy="45" r="44.7"/>
<path class="st1" d="M52,48.5c3-2.2,4.7-5.7,4.7-9.5c0-6.5-5.3-11.8-11.8-11.8S33.1,32.5,33.1,39c0,3.7,1.8,7.3,4.7,9.5
	c-5.4,2.4-9.4,7.4-10.5,13.2c-0.1,0.5,0.3,1,0.8,1h2.3c0.4,0,0.7-0.3,0.8-0.6c1.3-6.4,7-11.2,13.7-11.2S57.3,55.6,58.6,62
	c0.1,0.4,0.4,0.6,0.8,0.6h2.3c0.5,0,0.9-0.5,0.8-1C61.4,55.8,57.4,50.9,52,48.5L52,48.5z M44.9,46.9c-4.3,0-7.9-3.5-7.9-7.9
	c0-4.3,3.6-7.9,7.9-7.9c4.3,0,7.9,3.6,7.9,7.9C52.8,43.3,49.2,46.9,44.9,46.9L44.9,46.9z M44.9,46.9"/>
</svg>
