<?xml version="1.0" encoding="utf-8"?>
<!-- Generator: Adobe Illustrator 21.0.2, SVG Export Plug-In . SVG Version: 6.00 Build 0)  -->
<svg version="1.1" id="Layer_1" xmlns="http://www.w3.org/2000/svg" xmlns:xlink="http://www.w3.org/1999/xlink" x="0px" y="0px"
	 viewBox="0 0 130 100" style="enable-background:new 0 0 130 100;" xml:space="preserve">
<style type="text/css">
	.st0{fill:#434343;}
	.st1{fill:#57A245;}
	.st2{fill-rule:evenodd;clip-rule:evenodd;fill:#57A245;}
	.st3{fill:none;}
</style>
<path class="st0" d="M108.8,26.5C106.7,14.9,96.5,6.1,84.4,6.1H41.9C28.2,6.1,17,17.2,17,30.9v26.7c0,0,0,0,0,0.1v28.2
	c0,0-0.6,3.8,3.4,3.8c0,0,1.5,0.4,4.6-1.6l16.2-14.9h12.1c0.1-0.2,0.3-0.4,0.4-0.6l2.2-3.1c0.4-0.6,1.9-2.3,3.1-3.6H37.6
	c-1.1,0-2.1,0.6-2.8,1.4l0,0L24.1,78.6V58.2c0-0.2,0.1-0.4,0.1-0.6V30.9c0-9.7,7.9-17.6,17.6-17.6h42.5c9.7,0,17.6,7.9,17.6,17.6
	v16.9c2.6-0.4,5.3-0.6,7.2-0.7V34.4L108.8,26.5z"/>
<path class="st1" d="M43.7,39.9c-3.3,0-6-2.7-6-6c0-3.3,2.7-6,6-6h38.9c3.3,0,6,2.7,6,6c0,3.3-2.7,6-6,6H43.7z"/>
<path class="st0" d="M43.7,52.2h38.9c2.4,0,4.3-1.9,4.3-4.3s-1.9-4.3-4.3-4.3H43.7c-2.4,0-4.3,1.9-4.3,4.3S41.3,52.2,43.7,52.2"/>
<path class="st2" d="M118.2,52.4c-1.2,0-1.6,0.2-2.4,0.5c-0.9,0.3-1.9,1-2.6,1.7l-1.8,1.7c-0.2,0.2-0.2,0.2-0.3,0.4
	c-3.4,4.2-4.1,4.9-6.8,10.2c-1.2,2.5-2.7,4.8-4.2,7.1c-1,1.6-2,3.2-3.2,4.6c-0.1,0.2-0.2,0.2-0.3,0.4c-0.7,0.9-1.7,1.7-2.5,2.5
	c-0.6,0.5-1.3,1-1.9,1.5c-0.6,0.4-1.1,0.8-1.7,1.1l-0.9,0.5c-0.2,0.1-0.3,0.2-0.5,0.3c-0.1,0-0.3,0.2-0.4,0.2
	c-0.2,0.1-0.4,0.2-0.5,0.2c-3.7,1.8-8.5,3-12.7,3.4L72.7,89c-0.8,0.1-2.8,0.2-4.7,0.2c-1.6,0-3,0-3.5-0.2l0.3-0.7
	c0.6-1.4,1.3-2.8,2.1-4.1c0.1-0.2,0.2-0.4,0.4-0.6l1.5-2.6l3.9-5.3l3.5-3.6l0.2-0.2c0.2-0.1,0.2-0.1,0.3-0.2l0.8-0.7
	c0.1-0.1,0.2-0.1,0.3-0.2c0.2-0.2,0.3-0.3,0.5-0.4l3.7-2.5c1.3-0.8,2.6-1.6,3.8-2.3l4-2.1c1.5-0.8,4-2.1,5.5-2.7l4.1-1.9
	c-0.6,0.1-1.4,0.4-1.9,0.6c-0.6,0.2-1.3,0.4-1.9,0.6l-3.8,1.3c-1.8,0.6-3.6,1.4-5.5,2.1l-3.5,1.5c-1.3,0.5-3.3,1.6-4.7,2.3
	c-1.5,0.8-2.9,1.8-4.3,2.6l-4.8,3.4c-0.1,0.1-0.2,0.2-0.4,0.3l-2.7,2.3c-0.8,0.8-1.8,1.7-2.5,2.5c-0.2,0.2-0.2,0.2-0.3,0.4
	c-0.7,0.7-1.3,1.6-1.9,2.4c-0.9,1.2-1.8,2.5-2.5,3.8l-1.3,2.5c-0.5,1-2.7,6-2.8,7.4h-0.2c0-0.2-0.5-2.5-0.7-4.4v-1.6
	c0-0.1,0-0.1,0-0.2c0.2-1.1,0.1-1.8,0.3-3.1c0.6-3.6,2.2-7.4,4.2-10.4l2.1-3c0.6-0.8,2.8-3.4,3.5-3.8c0.6-0.5,1.2-1.3,1.9-1.8
	c0.3-0.2,0.6-0.5,0.9-0.8c0.4-0.2,0.6-0.5,1-0.8l2-1.5c2-1.5,4.2-2.8,6.4-3.8c2.4-1.2,4.7-2.1,7.2-3.1c3.2-1.3,7.6-2.2,10.9-2.9
	c3.5-0.7,12.3-2.3,16.6-2.3h0.9C114,51.2,117.4,51.2,118.2,52.4z"/>
<path class="st3" d="M99.5,58.5c0.4,0,0.2,0,0.2-0.1C99.4,58.4,99.6,58.4,99.5,58.5z M99.5,58.5c0.1-0.1-0.1-0.1,0.2-0.1
	C99.7,58.5,99.9,58.5,99.5,58.5 M99.9,58.3l-0.1,0.1 M99.5,58.5c-0.6,0.1-1.4,0.4-1.9,0.6c-0.6,0.2-1.3,0.4-1.9,0.6l-3.8,1.3
	c-1.8,0.6-3.6,1.4-5.5,2.1l-3.5,1.5c-1.3,0.5-3.3,1.6-4.7,2.3c-1.5,0.8-2.9,1.8-4.3,2.6l-4.8,3.4c-0.1,0.1-0.2,0.2-0.4,0.3l-2.7,2.3
	c-0.8,0.8-1.8,1.7-2.5,2.5c-0.2,0.2-0.2,0.2-0.3,0.4c-0.7,0.7-1.3,1.6-1.9,2.4c-0.9,1.2-1.8,2.5-2.5,3.8l-1.3,2.5
	c-0.5,1-2.7,6-2.8,7.4h-0.2c0-0.2-0.5-2.5-0.7-4.4v-1.6c0-0.1,0-0.1,0-0.2c0.2-1.1,0.1-1.8,0.3-3.1c0.6-3.6,2.2-7.4,4.2-10.4l2.1-3
	c0.6-0.8,2.8-3.4,3.5-3.8c0.6-0.5,1.2-1.3,1.9-1.8c0.3-0.2,0.6-0.5,0.9-0.8c0.4-0.2,0.6-0.5,1-0.8l2-1.5c2-1.5,4.2-2.8,6.4-3.8
	c2.4-1.2,4.7-2.1,7.2-3.1c3.2-1.3,7.6-2.2,10.9-2.9c3.5-0.7,12.3-2.3,16.6-2.3h0h0.2h0.6c2.2,0,5.6,0.1,6.4,1.3
	c-1.2,0-1.6,0.2-2.4,0.5c-0.9,0.3-1.9,1-2.6,1.7l-1.8,1.7c-0.2,0.2-0.2,0.2-0.3,0.4c-3.4,4.2-4.1,4.9-6.8,10.2
	c-1.2,2.5-2.7,4.8-4.2,7.1c-1,1.6-2,3.2-3.2,4.6c-0.1,0.2-0.2,0.2-0.3,0.4c-0.7,0.9-1.7,1.7-2.5,2.5c-0.6,0.5-1.3,1-1.9,1.5
	c-0.6,0.4-1.1,0.8-1.7,1.1l-0.9,0.5c-0.2,0.1-0.3,0.2-0.5,0.3c-0.1,0-0.3,0.2-0.4,0.2c-0.2,0.1-0.4,0.2-0.5,0.2
	c-3.7,1.8-8.5,3-12.7,3.4L72.7,89c-0.8,0.1-2.8,0.2-4.7,0.2c-1.6,0-3,0-3.5-0.2l0.3-0.7c0.6-1.4,1.3-2.8,2.1-4.1
	c0.1-0.2,0.2-0.4,0.4-0.6l1.5-2.6l3.9-5.3l3.5-3.6c0.1-0.1,0.2-0.2,0.2-0.2c0.2-0.1,0.2-0.1,0.3-0.2l0.8-0.7
	c0.1-0.1,0.2-0.1,0.3-0.2c0.2-0.2,0.3-0.3,0.5-0.4l3.7-2.5c1.3-0.8,2.6-1.6,3.8-2.3l4-2.1c1.5-0.8,4-2.1,5.5-2.7L99.5,58.5"/>
</svg>
