<svg id="visual" viewBox="0 0 1920 1280" width="1920" height="1280" xmlns="http://www.w3.org/2000/svg" xmlns:xlink="http://www.w3.org/1999/xlink" version="1.1"><rect x="0" y="0" width="1920" height="1280" fill="#ecf6ff"></rect><defs><linearGradient id="grad1_0" x1="33.3%" y1="0%" x2="100%" y2="100%"><stop offset="20%" stop-color="#b4d7f4" stop-opacity="1"></stop><stop offset="80%" stop-color="#b4d7f4" stop-opacity="1"></stop></linearGradient></defs><defs><linearGradient id="grad1_1" x1="33.3%" y1="0%" x2="100%" y2="100%"><stop offset="20%" stop-color="#b4d7f4" stop-opacity="1"></stop><stop offset="80%" stop-color="#bcdbf6" stop-opacity="1"></stop></linearGradient></defs><defs><linearGradient id="grad1_2" x1="33.3%" y1="0%" x2="100%" y2="100%"><stop offset="20%" stop-color="#c4e0f7" stop-opacity="1"></stop><stop offset="80%" stop-color="#bcdbf6" stop-opacity="1"></stop></linearGradient></defs><defs><linearGradient id="grad1_3" x1="33.3%" y1="0%" x2="100%" y2="100%"><stop offset="20%" stop-color="#c4e0f7" stop-opacity="1"></stop><stop offset="80%" stop-color="#cce4f9" stop-opacity="1"></stop></linearGradient></defs><defs><linearGradient id="grad1_4" x1="33.3%" y1="0%" x2="100%" y2="100%"><stop offset="20%" stop-color="#d4e9fa" stop-opacity="1"></stop><stop offset="80%" stop-color="#cce4f9" stop-opacity="1"></stop></linearGradient></defs><defs><linearGradient id="grad1_5" x1="33.3%" y1="0%" x2="100%" y2="100%"><stop offset="20%" stop-color="#d4e9fa" stop-opacity="1"></stop><stop offset="80%" stop-color="#dcedfc" stop-opacity="1"></stop></linearGradient></defs><defs><linearGradient id="grad1_6" x1="33.3%" y1="0%" x2="100%" y2="100%"><stop offset="20%" stop-color="#e4f2fd" stop-opacity="1"></stop><stop offset="80%" stop-color="#dcedfc" stop-opacity="1"></stop></linearGradient></defs><defs><linearGradient id="grad1_7" x1="33.3%" y1="0%" x2="100%" y2="100%"><stop offset="20%" stop-color="#e4f2fd" stop-opacity="1"></stop><stop offset="80%" stop-color="#ecf6ff" stop-opacity="1"></stop></linearGradient></defs><defs><linearGradient id="grad2_0" x1="0%" y1="0%" x2="66.7%" y2="100%"><stop offset="20%" stop-color="#b4d7f4" stop-opacity="1"></stop><stop offset="80%" stop-color="#b4d7f4" stop-opacity="1"></stop></linearGradient></defs><defs><linearGradient id="grad2_1" x1="0%" y1="0%" x2="66.7%" y2="100%"><stop offset="20%" stop-color="#bcdbf6" stop-opacity="1"></stop><stop offset="80%" stop-color="#b4d7f4" stop-opacity="1"></stop></linearGradient></defs><defs><linearGradient id="grad2_2" x1="0%" y1="0%" x2="66.7%" y2="100%"><stop offset="20%" stop-color="#bcdbf6" stop-opacity="1"></stop><stop offset="80%" stop-color="#c4e0f7" stop-opacity="1"></stop></linearGradient></defs><defs><linearGradient id="grad2_3" x1="0%" y1="0%" x2="66.7%" y2="100%"><stop offset="20%" stop-color="#cce4f9" stop-opacity="1"></stop><stop offset="80%" stop-color="#c4e0f7" stop-opacity="1"></stop></linearGradient></defs><defs><linearGradient id="grad2_4" x1="0%" y1="0%" x2="66.7%" y2="100%"><stop offset="20%" stop-color="#cce4f9" stop-opacity="1"></stop><stop offset="80%" stop-color="#d4e9fa" stop-opacity="1"></stop></linearGradient></defs><defs><linearGradient id="grad2_5" x1="0%" y1="0%" x2="66.7%" y2="100%"><stop offset="20%" stop-color="#dcedfc" stop-opacity="1"></stop><stop offset="80%" stop-color="#d4e9fa" stop-opacity="1"></stop></linearGradient></defs><defs><linearGradient id="grad2_6" x1="0%" y1="0%" x2="66.7%" y2="100%"><stop offset="20%" stop-color="#dcedfc" stop-opacity="1"></stop><stop offset="80%" stop-color="#e4f2fd" stop-opacity="1"></stop></linearGradient></defs><defs><linearGradient id="grad2_7" x1="0%" y1="0%" x2="66.7%" y2="100%"><stop offset="20%" stop-color="#ecf6ff" stop-opacity="1"></stop><stop offset="80%" stop-color="#e4f2fd" stop-opacity="1"></stop></linearGradient></defs><g transform="translate(1920, 0)"><path d="M0 1038.4C-145.4 1031.7 -290.8 1025.1 -396.8 958.1C-502.8 891.1 -569.4 763.7 -666.8 666.8C-764.2 569.9 -892.3 503.4 -959.4 397.4C-1026.4 291.3 -1032.4 145.7 -1038.4 0L0 0Z" fill="#e8f4fe"></path><path d="M0 908.6C-127.2 902.8 -254.5 896.9 -347.2 838.3C-440 779.7 -498.3 668.2 -583.5 583.5C-668.6 498.7 -780.8 440.5 -839.4 347.7C-898.1 254.9 -903.4 127.5 -908.6 0L0 0Z" fill="#e0effd"></path><path d="M0 778.8C-109.1 773.8 -218.1 768.8 -297.6 718.5C-377.1 668.3 -427.1 572.8 -500.1 500.1C-573.1 427.4 -669.2 377.6 -719.5 298C-769.8 218.5 -774.3 109.2 -778.8 0L0 0Z" fill="#d8ebfb"></path><path d="M0 649C-90.9 644.8 -181.8 640.7 -248 598.8C-314.3 556.9 -355.9 477.3 -416.8 416.8C-477.6 356.2 -557.7 314.6 -599.6 248.4C-641.5 182.1 -645.3 91 -649 0L0 0Z" fill="#d0e6fa"></path><path d="M0 519.2C-72.7 515.9 -145.4 512.5 -198.4 479C-251.4 445.5 -284.7 381.9 -333.4 333.4C-382.1 284.9 -446.1 251.7 -479.7 198.7C-513.2 145.7 -516.2 72.8 -519.2 0L0 0Z" fill="#c8e2f8"></path><path d="M0 389.4C-54.5 386.9 -109.1 384.4 -148.8 359.3C-188.6 334.1 -213.5 286.4 -250.1 250.1C-286.6 213.7 -334.6 188.8 -359.8 149C-384.9 109.2 -387.2 54.6 -389.4 0L0 0Z" fill="#c0def6"></path><path d="M0 259.6C-36.4 257.9 -72.7 256.3 -99.2 239.5C-125.7 222.8 -142.4 190.9 -166.7 166.7C-191 142.5 -223.1 125.9 -239.8 99.3C-256.6 72.8 -258.1 36.4 -259.6 0L0 0Z" fill="#b8d9f5"></path><path d="M0 129.8C-18.2 129 -36.4 128.1 -49.6 119.8C-62.9 111.4 -71.2 95.5 -83.4 83.4C-95.5 71.2 -111.5 62.9 -119.9 49.7C-128.3 36.4 -129.1 18.2 -129.8 0L0 0Z" fill="#b4d7f4"></path></g><g transform="translate(0, 1280)"><path d="M0 -1038.4C146.8 -1036.9 293.6 -1035.3 397.4 -959.4C501.1 -883.4 561.8 -733.1 619.4 -619.4C677.1 -505.8 731.7 -428.9 801 -331.8C870.3 -234.7 954.4 -117.3 1038.4 0L0 0Z" fill="#e8f4fe"></path><path d="M0 -908.6C128.5 -907.2 256.9 -905.9 347.7 -839.4C438.5 -773 491.6 -641.4 542 -542C592.4 -442.6 640.2 -375.3 700.9 -290.3C761.5 -205.3 835.1 -102.7 908.6 0L0 0Z" fill="#e0effd"></path><path d="M0 -778.8C110.1 -777.6 220.2 -776.5 298 -719.5C375.8 -662.6 421.3 -549.8 464.6 -464.6C507.8 -379.3 548.8 -321.7 600.8 -248.8C652.7 -176 715.8 -88 778.8 0L0 0Z" fill="#d8ebfb"></path><path d="M0 -649C91.8 -648 183.5 -647.1 248.4 -599.6C313.2 -552.1 351.1 -458.2 387.1 -387.1C423.2 -316.1 457.3 -268.1 500.6 -207.4C544 -146.7 596.5 -73.3 649 0L0 0Z" fill="#d0e6fa"></path><path d="M0 -519.2C73.4 -518.4 146.8 -517.7 198.7 -479.7C250.6 -441.7 280.9 -366.5 309.7 -309.7C338.5 -252.9 365.8 -214.5 400.5 -165.9C435.2 -117.3 477.2 -58.7 519.2 0L0 0Z" fill="#c8e2f8"></path><path d="M0 -389.4C55.1 -388.8 110.1 -388.2 149 -359.8C187.9 -331.3 210.7 -274.9 232.3 -232.3C253.9 -189.7 274.4 -160.8 300.4 -124.4C326.4 -88 357.9 -44 389.4 0L0 0Z" fill="#c0def6"></path><path d="M0 -259.6C36.7 -259.2 73.4 -258.8 99.3 -239.8C125.3 -220.9 140.4 -183.3 154.9 -154.9C169.3 -126.4 182.9 -107.2 200.3 -82.9C217.6 -58.7 238.6 -29.3 259.6 0L0 0Z" fill="#b8d9f5"></path><path d="M0 -129.8C18.4 -129.6 36.7 -129.4 49.7 -119.9C62.6 -110.4 70.2 -91.6 77.4 -77.4C84.6 -63.2 91.5 -53.6 100.1 -41.5C108.8 -29.3 119.3 -14.7 129.8 0L0 0Z" fill="#b4d7f4"></path></g></svg>