<svg id="visual" viewBox="0 0 1920 1280" width="1920" height="1280" xmlns="http://www.w3.org/2000/svg" xmlns:xlink="http://www.w3.org/1999/xlink" version="1.1"><rect x="0" y="0" width="1920" height="1280" fill="#dbdbdb"></rect><defs><linearGradient id="grad1_0" x1="33.3%" y1="0%" x2="100%" y2="100%"><stop offset="20%" stop-color="#95c7bc" stop-opacity="1"></stop><stop offset="80%" stop-color="#95c7bc" stop-opacity="1"></stop></linearGradient></defs><defs><linearGradient id="grad1_1" x1="33.3%" y1="0%" x2="100%" y2="100%"><stop offset="20%" stop-color="#95c7bc" stop-opacity="1"></stop><stop offset="80%" stop-color="#9fcac0" stop-opacity="1"></stop></linearGradient></defs><defs><linearGradient id="grad1_2" x1="33.3%" y1="0%" x2="100%" y2="100%"><stop offset="20%" stop-color="#aacdc5" stop-opacity="1"></stop><stop offset="80%" stop-color="#9fcac0" stop-opacity="1"></stop></linearGradient></defs><defs><linearGradient id="grad1_3" x1="33.3%" y1="0%" x2="100%" y2="100%"><stop offset="20%" stop-color="#aacdc5" stop-opacity="1"></stop><stop offset="80%" stop-color="#b4d0c9" stop-opacity="1"></stop></linearGradient></defs><defs><linearGradient id="grad1_4" x1="33.3%" y1="0%" x2="100%" y2="100%"><stop offset="20%" stop-color="#bed3ce" stop-opacity="1"></stop><stop offset="80%" stop-color="#b4d0c9" stop-opacity="1"></stop></linearGradient></defs><defs><linearGradient id="grad1_5" x1="33.3%" y1="0%" x2="100%" y2="100%"><stop offset="20%" stop-color="#bed3ce" stop-opacity="1"></stop><stop offset="80%" stop-color="#c8d5d2" stop-opacity="1"></stop></linearGradient></defs><defs><linearGradient id="grad1_6" x1="33.3%" y1="0%" x2="100%" y2="100%"><stop offset="20%" stop-color="#d1d8d7" stop-opacity="1"></stop><stop offset="80%" stop-color="#c8d5d2" stop-opacity="1"></stop></linearGradient></defs><defs><linearGradient id="grad1_7" x1="33.3%" y1="0%" x2="100%" y2="100%"><stop offset="20%" stop-color="#d1d8d7" stop-opacity="1"></stop><stop offset="80%" stop-color="#dbdbdb" stop-opacity="1"></stop></linearGradient></defs><defs><linearGradient id="grad2_0" x1="0%" y1="0%" x2="66.7%" y2="100%"><stop offset="20%" stop-color="#95c7bc" stop-opacity="1"></stop><stop offset="80%" stop-color="#95c7bc" stop-opacity="1"></stop></linearGradient></defs><defs><linearGradient id="grad2_1" x1="0%" y1="0%" x2="66.7%" y2="100%"><stop offset="20%" stop-color="#9fcac0" stop-opacity="1"></stop><stop offset="80%" stop-color="#95c7bc" stop-opacity="1"></stop></linearGradient></defs><defs><linearGradient id="grad2_2" x1="0%" y1="0%" x2="66.7%" y2="100%"><stop offset="20%" stop-color="#9fcac0" stop-opacity="1"></stop><stop offset="80%" stop-color="#aacdc5" stop-opacity="1"></stop></linearGradient></defs><defs><linearGradient id="grad2_3" x1="0%" y1="0%" x2="66.7%" y2="100%"><stop offset="20%" stop-color="#b4d0c9" stop-opacity="1"></stop><stop offset="80%" stop-color="#aacdc5" stop-opacity="1"></stop></linearGradient></defs><defs><linearGradient id="grad2_4" x1="0%" y1="0%" x2="66.7%" y2="100%"><stop offset="20%" stop-color="#b4d0c9" stop-opacity="1"></stop><stop offset="80%" stop-color="#bed3ce" stop-opacity="1"></stop></linearGradient></defs><defs><linearGradient id="grad2_5" x1="0%" y1="0%" x2="66.7%" y2="100%"><stop offset="20%" stop-color="#c8d5d2" stop-opacity="1"></stop><stop offset="80%" stop-color="#bed3ce" stop-opacity="1"></stop></linearGradient></defs><defs><linearGradient id="grad2_6" x1="0%" y1="0%" x2="66.7%" y2="100%"><stop offset="20%" stop-color="#c8d5d2" stop-opacity="1"></stop><stop offset="80%" stop-color="#d1d8d7" stop-opacity="1"></stop></linearGradient></defs><defs><linearGradient id="grad2_7" x1="0%" y1="0%" x2="66.7%" y2="100%"><stop offset="20%" stop-color="#dbdbdb" stop-opacity="1"></stop><stop offset="80%" stop-color="#d1d8d7" stop-opacity="1"></stop></linearGradient></defs><g transform="translate(1920, 0)"><path d="M0 1038.4C-144.4 1033.2 -288.8 1028.1 -397.4 959.4C-506 890.6 -578.8 758.3 -650.5 650.5C-722.3 542.7 -792.9 459.5 -857.4 355.1C-921.8 250.8 -980.1 125.4 -1038.4 0L0 0Z" fill="#d6dad9"></path><path d="M0 908.6C-126.3 904.1 -252.7 899.6 -347.7 839.4C-442.7 779.3 -506.5 663.5 -569.2 569.2C-632 474.9 -693.8 402 -750.2 310.7C-806.6 219.4 -857.6 109.7 -908.6 0L0 0Z" fill="#ccd7d4"></path><path d="M0 778.8C-108.3 774.9 -216.6 771.1 -298 719.5C-379.5 668 -434.1 568.7 -487.9 487.9C-541.7 407.1 -594.7 344.6 -643 266.3C-691.4 188.1 -735.1 94 -778.8 0L0 0Z" fill="#c3d4d0"></path><path d="M0 649C-90.2 645.8 -180.5 642.6 -248.4 599.6C-316.2 556.6 -361.8 474 -406.6 406.6C-451.4 339.2 -495.6 287.2 -535.9 222C-576.1 156.7 -612.6 78.4 -649 0L0 0Z" fill="#b9d1cb"></path><path d="M0 519.2C-72.2 516.6 -144.4 514 -198.7 479.7C-253 445.3 -289.4 379.2 -325.3 325.3C-361.1 271.4 -396.4 229.7 -428.7 177.6C-460.9 125.4 -490.1 62.7 -519.2 0L0 0Z" fill="#afcec7"></path><path d="M0 389.4C-54.1 387.5 -108.3 385.5 -149 359.8C-189.7 334 -217.1 284.4 -244 244C-270.9 203.5 -297.3 172.3 -321.5 133.2C-345.7 94 -367.5 47 -389.4 0L0 0Z" fill="#a5cbc3"></path><path d="M0 259.6C-36.1 258.3 -72.2 257 -99.3 239.8C-126.5 222.7 -144.7 189.6 -162.6 162.6C-180.6 135.7 -198.2 114.9 -214.3 88.8C-230.5 62.7 -245 31.3 -259.6 0L0 0Z" fill="#9ac8be"></path><path d="M0 129.8C-18 129.2 -36.1 128.5 -49.7 119.9C-63.2 111.3 -72.4 94.8 -81.3 81.3C-90.3 67.8 -99.1 57.4 -107.2 44.4C-115.2 31.3 -122.5 15.7 -129.8 0L0 0Z" fill="#95c7bc"></path></g><g transform="translate(0, 1280)"><path d="M0 -1038.4C140.3 -1010.7 280.6 -983 375.8 -907.2C471 -831.5 521 -707.9 623.7 -623.7C726.3 -539.5 881.5 -494.7 959.4 -397.4C1037.2 -300 1037.8 -150 1038.4 0L0 0Z" fill="#d6dad9"></path><path d="M0 -908.6C122.8 -884.3 245.5 -860.1 328.8 -793.8C412.1 -727.6 455.9 -619.4 545.7 -545.7C635.5 -472 771.3 -432.9 839.4 -347.7C907.6 -262.5 908.1 -131.3 908.6 0L0 0Z" fill="#ccd7d4"></path><path d="M0 -778.8C105.2 -758 210.5 -737.2 281.8 -680.4C353.2 -623.7 390.8 -530.9 467.8 -467.8C544.7 -404.6 661.1 -371.1 719.5 -298C777.9 -225 778.4 -112.5 778.8 0L0 0Z" fill="#c3d4d0"></path><path d="M0 -649C87.7 -631.7 175.4 -614.3 234.9 -567C294.4 -519.7 325.7 -442.4 389.8 -389.8C453.9 -337.2 550.9 -309.2 599.6 -248.4C648.3 -187.5 648.6 -93.8 649 0L0 0Z" fill="#b9d1cb"></path><path d="M0 -519.2C70.2 -505.3 140.3 -491.5 187.9 -453.6C235.5 -415.8 260.5 -353.9 311.8 -311.8C363.1 -269.7 440.7 -247.4 479.7 -198.7C518.6 -150 518.9 -75 519.2 0L0 0Z" fill="#afcec7"></path><path d="M0 -389.4C52.6 -379 105.2 -368.6 140.9 -340.2C176.6 -311.8 195.4 -265.5 233.9 -233.9C272.4 -202.3 330.6 -185.5 359.8 -149C389 -112.5 389.2 -56.3 389.4 0L0 0Z" fill="#a5cbc3"></path><path d="M0 -259.6C35.1 -252.7 70.2 -245.7 93.9 -226.8C117.7 -207.9 130.3 -177 155.9 -155.9C181.6 -134.9 220.4 -123.7 239.8 -99.3C259.3 -75 259.5 -37.5 259.6 0L0 0Z" fill="#9ac8be"></path><path d="M0 -129.8C17.5 -126.3 35.1 -122.9 47 -113.4C58.9 -103.9 65.1 -88.5 78 -78C90.8 -67.4 110.2 -61.8 119.9 -49.7C129.7 -37.5 129.7 -18.8 129.8 0L0 0Z" fill="#95c7bc"></path></g></svg>