<svg id="visual" viewBox="0 0 1920 1280" width="1920" height="1280" xmlns="http://www.w3.org/2000/svg" xmlns:xlink="http://www.w3.org/1999/xlink" version="1.1"><rect x="0" y="0" width="1920" height="1280" fill="#ffe7e7"></rect><defs><linearGradient id="grad1_0" x1="33.3%" y1="0%" x2="100%" y2="100%"><stop offset="20%" stop-color="#fab2b2" stop-opacity="1"></stop><stop offset="80%" stop-color="#fab2b2" stop-opacity="1"></stop></linearGradient></defs><defs><linearGradient id="grad1_1" x1="33.3%" y1="0%" x2="100%" y2="100%"><stop offset="20%" stop-color="#fab2b2" stop-opacity="1"></stop><stop offset="80%" stop-color="#fbbaba" stop-opacity="1"></stop></linearGradient></defs><defs><linearGradient id="grad1_2" x1="33.3%" y1="0%" x2="100%" y2="100%"><stop offset="20%" stop-color="#fcc1c1" stop-opacity="1"></stop><stop offset="80%" stop-color="#fbbaba" stop-opacity="1"></stop></linearGradient></defs><defs><linearGradient id="grad1_3" x1="33.3%" y1="0%" x2="100%" y2="100%"><stop offset="20%" stop-color="#fcc1c1" stop-opacity="1"></stop><stop offset="80%" stop-color="#fdc9c9" stop-opacity="1"></stop></linearGradient></defs><defs><linearGradient id="grad1_4" x1="33.3%" y1="0%" x2="100%" y2="100%"><stop offset="20%" stop-color="#fed0d0" stop-opacity="1"></stop><stop offset="80%" stop-color="#fdc9c9" stop-opacity="1"></stop></linearGradient></defs><defs><linearGradient id="grad1_5" x1="33.3%" y1="0%" x2="100%" y2="100%"><stop offset="20%" stop-color="#fed0d0" stop-opacity="1"></stop><stop offset="80%" stop-color="#fed8d8" stop-opacity="1"></stop></linearGradient></defs><defs><linearGradient id="grad1_6" x1="33.3%" y1="0%" x2="100%" y2="100%"><stop offset="20%" stop-color="#ffdfdf" stop-opacity="1"></stop><stop offset="80%" stop-color="#fed8d8" stop-opacity="1"></stop></linearGradient></defs><defs><linearGradient id="grad1_7" x1="33.3%" y1="0%" x2="100%" y2="100%"><stop offset="20%" stop-color="#ffdfdf" stop-opacity="1"></stop><stop offset="80%" stop-color="#ffe7e7" stop-opacity="1"></stop></linearGradient></defs><defs><linearGradient id="grad2_0" x1="0%" y1="0%" x2="66.7%" y2="100%"><stop offset="20%" stop-color="#fab2b2" stop-opacity="1"></stop><stop offset="80%" stop-color="#fab2b2" stop-opacity="1"></stop></linearGradient></defs><defs><linearGradient id="grad2_1" x1="0%" y1="0%" x2="66.7%" y2="100%"><stop offset="20%" stop-color="#fbbaba" stop-opacity="1"></stop><stop offset="80%" stop-color="#fab2b2" stop-opacity="1"></stop></linearGradient></defs><defs><linearGradient id="grad2_2" x1="0%" y1="0%" x2="66.7%" y2="100%"><stop offset="20%" stop-color="#fbbaba" stop-opacity="1"></stop><stop offset="80%" stop-color="#fcc1c1" stop-opacity="1"></stop></linearGradient></defs><defs><linearGradient id="grad2_3" x1="0%" y1="0%" x2="66.7%" y2="100%"><stop offset="20%" stop-color="#fdc9c9" stop-opacity="1"></stop><stop offset="80%" stop-color="#fcc1c1" stop-opacity="1"></stop></linearGradient></defs><defs><linearGradient id="grad2_4" x1="0%" y1="0%" x2="66.7%" y2="100%"><stop offset="20%" stop-color="#fdc9c9" stop-opacity="1"></stop><stop offset="80%" stop-color="#fed0d0" stop-opacity="1"></stop></linearGradient></defs><defs><linearGradient id="grad2_5" x1="0%" y1="0%" x2="66.7%" y2="100%"><stop offset="20%" stop-color="#fed8d8" stop-opacity="1"></stop><stop offset="80%" stop-color="#fed0d0" stop-opacity="1"></stop></linearGradient></defs><defs><linearGradient id="grad2_6" x1="0%" y1="0%" x2="66.7%" y2="100%"><stop offset="20%" stop-color="#fed8d8" stop-opacity="1"></stop><stop offset="80%" stop-color="#ffdfdf" stop-opacity="1"></stop></linearGradient></defs><defs><linearGradient id="grad2_7" x1="0%" y1="0%" x2="66.7%" y2="100%"><stop offset="20%" stop-color="#ffe7e7" stop-opacity="1"></stop><stop offset="80%" stop-color="#ffdfdf" stop-opacity="1"></stop></linearGradient></defs><g transform="translate(1920, 0)"><path d="M0 1038.4C-141.1 1031.7 -282.2 1025 -397.4 959.4C-512.6 893.7 -601.9 769.2 -652.7 652.7C-703.4 536.2 -715.4 427.7 -773.3 320.3C-831.1 212.9 -934.8 106.4 -1038.4 0L0 0Z" fill="#ffe3e3"></path><path d="M0 908.6C-123.4 902.7 -246.9 896.9 -347.7 839.4C-448.5 782 -526.7 673 -571.1 571.1C-615.4 469.1 -626 374.3 -676.6 280.3C-727.2 186.3 -817.9 93.1 -908.6 0L0 0Z" fill="#ffdcdc"></path><path d="M0 778.8C-105.8 773.8 -211.6 768.7 -298 719.5C-384.4 670.3 -451.5 576.9 -489.5 489.5C-527.5 402.1 -536.6 320.8 -580 240.2C-623.4 159.7 -701.1 79.8 -778.8 0L0 0Z" fill="#fed4d4"></path><path d="M0 649C-88.2 644.8 -176.4 640.6 -248.4 599.6C-320.4 558.6 -376.2 480.7 -407.9 407.9C-439.6 335.1 -447.1 267.3 -483.3 200.2C-519.5 133 -584.2 66.5 -649 0L0 0Z" fill="#fdcdcc"></path><path d="M0 519.2C-70.5 515.8 -141.1 512.5 -198.7 479.7C-256.3 446.9 -301 384.6 -326.3 326.3C-351.7 268.1 -357.7 213.9 -386.6 160.2C-415.6 106.4 -467.4 53.2 -519.2 0L0 0Z" fill="#fdc5c5"></path><path d="M0 389.4C-52.9 386.9 -105.8 384.4 -149 359.8C-192.2 335.1 -225.7 288.4 -244.7 244.7C-263.8 201.1 -268.3 160.4 -290 120.1C-311.7 79.8 -350.5 39.9 -389.4 0L0 0Z" fill="#fcbdbd"></path><path d="M0 259.6C-35.3 257.9 -70.5 256.2 -99.3 239.8C-128.1 223.4 -150.5 192.3 -163.2 163.2C-175.8 134 -178.9 106.9 -193.3 80.1C-207.8 53.2 -233.7 26.6 -259.6 0L0 0Z" fill="#fbb6b6"></path><path d="M0 129.8C-17.6 129 -35.3 128.1 -49.7 119.9C-64.1 111.7 -75.2 96.1 -81.6 81.6C-87.9 67 -89.4 53.5 -96.7 40C-103.9 26.6 -116.8 13.3 -129.8 0L0 0Z" fill="#fab2b2"></path></g><g transform="translate(0, 1280)"><path d="M0 -1038.4C150.2 -1039.2 300.5 -1039.9 397.4 -959.4C494.3 -878.8 537.8 -716.9 608.8 -608.8C679.9 -500.7 778.4 -446.5 854.6 -354C930.8 -261.5 984.6 -130.7 1038.4 0L0 0Z" fill="#ffe3e3"></path><path d="M0 -908.6C131.5 -909.3 262.9 -909.9 347.7 -839.4C432.5 -768.9 470.6 -627.3 532.7 -532.7C594.9 -438.1 681.1 -390.7 747.8 -309.7C814.4 -228.8 861.5 -114.4 908.6 0L0 0Z" fill="#ffdcdc"></path><path d="M0 -778.8C112.7 -779.4 225.4 -779.9 298 -719.5C370.7 -659.1 403.3 -537.7 456.6 -456.6C509.9 -375.6 583.8 -334.9 640.9 -265.5C698.1 -196.1 738.4 -98.1 778.8 0L0 0Z" fill="#fed4d4"></path><path d="M0 -649C93.9 -649.5 187.8 -650 248.4 -599.6C308.9 -549.2 336.1 -448.1 380.5 -380.5C424.9 -313 486.5 -279.1 534.1 -221.2C581.7 -163.4 615.4 -81.7 649 0L0 0Z" fill="#fdcdcc"></path><path d="M0 -519.2C75.1 -519.6 150.2 -520 198.7 -479.7C247.1 -439.4 268.9 -358.4 304.4 -304.4C339.9 -250.4 389.2 -223.2 427.3 -177C465.4 -130.7 492.3 -65.4 519.2 0L0 0Z" fill="#fdc5c5"></path><path d="M0 -389.4C56.3 -389.7 112.7 -390 149 -359.8C185.3 -329.5 201.7 -268.8 228.3 -228.3C254.9 -187.8 291.9 -167.4 320.5 -132.7C349 -98.1 369.2 -49 389.4 0L0 0Z" fill="#fcbdbd"></path><path d="M0 -259.6C37.6 -259.8 75.1 -260 99.3 -239.8C123.6 -219.7 134.4 -179.2 152.2 -152.2C170 -125.2 194.6 -111.6 213.6 -88.5C232.7 -65.4 246.1 -32.7 259.6 0L0 0Z" fill="#fbb6b6"></path><path d="M0 -129.8C18.8 -129.9 37.6 -130 49.7 -119.9C61.8 -109.8 67.2 -89.6 76.1 -76.1C85 -62.6 97.3 -55.8 106.8 -44.2C116.3 -32.7 123.1 -16.3 129.8 0L0 0Z" fill="#fab2b2"></path></g></svg>