<svg id="visual" viewBox="0 0 1920 1280" width="1920" height="1280" xmlns="http://www.w3.org/2000/svg" xmlns:xlink="http://www.w3.org/1999/xlink" version="1.1"><rect x="0" y="0" width="1920" height="1280" fill="#ccebda"></rect><defs><linearGradient id="grad1_0" x1="33.3%" y1="0%" x2="100%" y2="100%"><stop offset="20%" stop-color="#32af6e" stop-opacity="1"></stop><stop offset="80%" stop-color="#32af6e" stop-opacity="1"></stop></linearGradient></defs><defs><linearGradient id="grad1_1" x1="33.3%" y1="0%" x2="100%" y2="100%"><stop offset="20%" stop-color="#32af6e" stop-opacity="1"></stop><stop offset="80%" stop-color="#4eb87e" stop-opacity="1"></stop></linearGradient></defs><defs><linearGradient id="grad1_2" x1="33.3%" y1="0%" x2="100%" y2="100%"><stop offset="20%" stop-color="#65c18d" stop-opacity="1"></stop><stop offset="80%" stop-color="#4eb87e" stop-opacity="1"></stop></linearGradient></defs><defs><linearGradient id="grad1_3" x1="33.3%" y1="0%" x2="100%" y2="100%"><stop offset="20%" stop-color="#65c18d" stop-opacity="1"></stop><stop offset="80%" stop-color="#7ac99d" stop-opacity="1"></stop></linearGradient></defs><defs><linearGradient id="grad1_4" x1="33.3%" y1="0%" x2="100%" y2="100%"><stop offset="20%" stop-color="#8fd2ac" stop-opacity="1"></stop><stop offset="80%" stop-color="#7ac99d" stop-opacity="1"></stop></linearGradient></defs><defs><linearGradient id="grad1_5" x1="33.3%" y1="0%" x2="100%" y2="100%"><stop offset="20%" stop-color="#8fd2ac" stop-opacity="1"></stop><stop offset="80%" stop-color="#a3dabc" stop-opacity="1"></stop></linearGradient></defs><defs><linearGradient id="grad1_6" x1="33.3%" y1="0%" x2="100%" y2="100%"><stop offset="20%" stop-color="#b8e3cb" stop-opacity="1"></stop><stop offset="80%" stop-color="#a3dabc" stop-opacity="1"></stop></linearGradient></defs><defs><linearGradient id="grad1_7" x1="33.3%" y1="0%" x2="100%" y2="100%"><stop offset="20%" stop-color="#b8e3cb" stop-opacity="1"></stop><stop offset="80%" stop-color="#ccebda" stop-opacity="1"></stop></linearGradient></defs><defs><linearGradient id="grad2_0" x1="0%" y1="0%" x2="66.7%" y2="100%"><stop offset="20%" stop-color="#32af6e" stop-opacity="1"></stop><stop offset="80%" stop-color="#32af6e" stop-opacity="1"></stop></linearGradient></defs><defs><linearGradient id="grad2_1" x1="0%" y1="0%" x2="66.7%" y2="100%"><stop offset="20%" stop-color="#4eb87e" stop-opacity="1"></stop><stop offset="80%" stop-color="#32af6e" stop-opacity="1"></stop></linearGradient></defs><defs><linearGradient id="grad2_2" x1="0%" y1="0%" x2="66.7%" y2="100%"><stop offset="20%" stop-color="#4eb87e" stop-opacity="1"></stop><stop offset="80%" stop-color="#65c18d" stop-opacity="1"></stop></linearGradient></defs><defs><linearGradient id="grad2_3" x1="0%" y1="0%" x2="66.7%" y2="100%"><stop offset="20%" stop-color="#7ac99d" stop-opacity="1"></stop><stop offset="80%" stop-color="#65c18d" stop-opacity="1"></stop></linearGradient></defs><defs><linearGradient id="grad2_4" x1="0%" y1="0%" x2="66.7%" y2="100%"><stop offset="20%" stop-color="#7ac99d" stop-opacity="1"></stop><stop offset="80%" stop-color="#8fd2ac" stop-opacity="1"></stop></linearGradient></defs><defs><linearGradient id="grad2_5" x1="0%" y1="0%" x2="66.7%" y2="100%"><stop offset="20%" stop-color="#a3dabc" stop-opacity="1"></stop><stop offset="80%" stop-color="#8fd2ac" stop-opacity="1"></stop></linearGradient></defs><defs><linearGradient id="grad2_6" x1="0%" y1="0%" x2="66.7%" y2="100%"><stop offset="20%" stop-color="#a3dabc" stop-opacity="1"></stop><stop offset="80%" stop-color="#b8e3cb" stop-opacity="1"></stop></linearGradient></defs><defs><linearGradient id="grad2_7" x1="0%" y1="0%" x2="66.7%" y2="100%"><stop offset="20%" stop-color="#ccebda" stop-opacity="1"></stop><stop offset="80%" stop-color="#b8e3cb" stop-opacity="1"></stop></linearGradient></defs><g transform="translate(1920, 0)"><path d="M0 1038.4C-143.3 1033.1 -286.7 1027.8 -397.4 959.4C-508.1 890.9 -586.1 759.3 -647 647C-707.9 534.7 -751.6 441.8 -813.9 337.1C-876.3 232.5 -957.4 116.3 -1038.4 0L0 0Z" fill="#c2e7d2"></path><path d="M0 908.6C-125.4 904 -250.8 899.3 -347.7 839.4C-444.6 779.5 -512.9 664.4 -566.1 566.1C-619.4 467.9 -657.6 386.5 -712.2 295C-766.8 203.5 -837.7 101.7 -908.6 0L0 0Z" fill="#aedfc3"></path><path d="M0 778.8C-107.5 774.8 -215 770.9 -298 719.5C-381.1 668.2 -439.6 569.5 -485.3 485.3C-530.9 401 -563.7 331.3 -610.5 252.9C-657.2 174.4 -718 87.2 -778.8 0L0 0Z" fill="#99d6b4"></path><path d="M0 649C-89.6 645.7 -179.2 642.4 -248.4 599.6C-317.5 556.8 -366.3 474.6 -404.4 404.4C-442.4 334.2 -469.7 276.1 -508.7 210.7C-547.7 145.3 -598.3 72.7 -649 0L0 0Z" fill="#85cea5"></path><path d="M0 519.2C-71.7 516.6 -143.3 513.9 -198.7 479.7C-254 445.5 -293.1 379.6 -323.5 323.5C-353.9 267.4 -375.8 220.9 -407 168.6C-438.2 116.3 -478.7 58.1 -519.2 0L0 0Z" fill="#70c595"></path><path d="M0 389.4C-53.8 387.4 -107.5 385.4 -149 359.8C-190.5 334.1 -219.8 284.7 -242.6 242.6C-265.5 200.5 -281.8 165.7 -305.2 126.4C-328.6 87.2 -359 43.6 -389.4 0L0 0Z" fill="#5abc86"></path><path d="M0 259.6C-35.8 258.3 -71.7 257 -99.3 239.8C-127 222.7 -146.5 189.8 -161.8 161.8C-177 133.7 -187.9 110.4 -203.5 84.3C-219.1 58.1 -239.3 29.1 -259.6 0L0 0Z" fill="#41b376"></path><path d="M0 129.8C-17.9 129.1 -35.8 128.5 -49.7 119.9C-63.5 111.4 -73.3 94.9 -80.9 80.9C-88.5 66.8 -93.9 55.2 -101.7 42.1C-109.5 29.1 -119.7 14.5 -129.8 0L0 0Z" fill="#32af6e"></path></g><g transform="translate(0, 1280)"><path d="M0 -1038.4C145.3 -1033.9 290.6 -1029.3 397.4 -959.4C504.2 -889.4 572.5 -754.1 647.7 -647.7C722.9 -541.4 805 -464 871.2 -360.9C937.5 -257.8 987.9 -128.9 1038.4 0L0 0Z" fill="#c2e7d2"></path><path d="M0 -908.6C127.1 -904.6 254.2 -900.6 347.7 -839.4C441.2 -778.2 501 -659.8 566.7 -566.7C632.5 -473.7 704.3 -406 762.3 -315.8C820.3 -225.5 864.4 -112.8 908.6 0L0 0Z" fill="#aedfc3"></path><path d="M0 -778.8C109 -775.4 217.9 -772 298 -719.5C378.1 -667.1 429.4 -565.5 485.8 -485.8C542.2 -406 603.7 -348 653.4 -270.7C703.1 -193.3 741 -96.7 778.8 0L0 0Z" fill="#99d6b4"></path><path d="M0 -649C90.8 -646.2 181.6 -643.3 248.4 -599.6C315.1 -555.9 357.8 -471.3 404.8 -404.8C451.8 -338.3 503.1 -290 544.5 -225.5C585.9 -161.1 617.5 -80.5 649 0L0 0Z" fill="#85cea5"></path><path d="M0 -519.2C72.6 -516.9 145.3 -514.7 198.7 -479.7C252.1 -444.7 286.3 -377 323.9 -323.9C361.5 -270.7 402.5 -232 435.6 -180.4C468.7 -128.9 494 -64.4 519.2 0L0 0Z" fill="#70c595"></path><path d="M0 -389.4C54.5 -387.7 109 -386 149 -359.8C189.1 -333.5 214.7 -282.8 242.9 -242.9C271.1 -203 301.9 -174 326.7 -135.3C351.6 -96.7 370.5 -48.3 389.4 0L0 0Z" fill="#5abc86"></path><path d="M0 -259.6C36.3 -258.5 72.6 -257.3 99.3 -239.8C126 -222.4 143.1 -188.5 161.9 -161.9C180.7 -135.3 201.2 -116 217.8 -90.2C234.4 -64.4 247 -32.2 259.6 0L0 0Z" fill="#41b376"></path><path d="M0 -129.8C18.2 -129.2 36.3 -128.7 49.7 -119.9C63 -111.2 71.6 -94.3 81 -81C90.4 -67.7 100.6 -58 108.9 -45.1C117.2 -32.2 123.5 -16.1 129.8 0L0 0Z" fill="#32af6e"></path></g></svg>