<svg id="visual" viewBox="0 0 1920 1280" width="1920" height="1280" xmlns="http://www.w3.org/2000/svg" xmlns:xlink="http://www.w3.org/1999/xlink" version="1.1"><path d="M0 308L24.7 310.2C49.3 312.3 98.7 316.7 147.8 325.2C197 333.7 246 346.3 295.2 342C344.3 337.7 393.7 316.3 443 310C492.3 303.7 541.7 312.3 590.8 327.3C640 342.3 689 363.7 738.2 346.7C787.3 329.7 836.7 274.3 886 248.7C935.3 223 984.7 227 1034 231.2C1083.3 235.3 1132.7 239.7 1181.8 259C1231 278.3 1280 312.7 1329.2 319.2C1378.3 325.7 1427.7 304.3 1477 278.7C1526.3 253 1575.7 223 1624.8 233.7C1674 244.3 1723 295.7 1772.2 325.5C1821.3 355.3 1870.7 363.7 1895.3 367.8L1920 372L1920 0L1895.3 0C1870.7 0 1821.3 0 1772.2 0C1723 0 1674 0 1624.8 0C1575.7 0 1526.3 0 1477 0C1427.7 0 1378.3 0 1329.2 0C1280 0 1231 0 1181.8 0C1132.7 0 1083.3 0 1034 0C984.7 0 935.3 0 886 0C836.7 0 787.3 0 738.2 0C689 0 640 0 590.8 0C541.7 0 492.3 0 443 0C393.7 0 344.3 0 295.2 0C246 0 197 0 147.8 0C98.7 0 49.3 0 24.7 0L0 0Z" fill="#2d2d2d"></path><path d="M0 462L24.7 468.3C49.3 474.7 98.7 487.3 147.8 506.5C197 525.7 246 551.3 295.2 545C344.3 538.7 393.7 500.3 443 483.3C492.3 466.3 541.7 470.7 590.8 498.3C640 526 689 577 738.2 570.5C787.3 564 836.7 500 886 459.5C935.3 419 984.7 402 1034 406.3C1083.3 410.7 1132.7 436.3 1181.8 449.2C1231 462 1280 462 1329.2 466.2C1378.3 470.3 1427.7 478.7 1477 457.3C1526.3 436 1575.7 385 1624.8 378.7C1674 372.3 1723 410.7 1772.2 449C1821.3 487.3 1870.7 525.7 1895.3 544.8L1920 564L1920 370L1895.3 365.8C1870.7 361.7 1821.3 353.3 1772.2 323.5C1723 293.7 1674 242.3 1624.8 231.7C1575.7 221 1526.3 251 1477 276.7C1427.7 302.3 1378.3 323.7 1329.2 317.2C1280 310.7 1231 276.3 1181.8 257C1132.7 237.7 1083.3 233.3 1034 229.2C984.7 225 935.3 221 886 246.7C836.7 272.3 787.3 327.7 738.2 344.7C689 361.7 640 340.3 590.8 325.3C541.7 310.3 492.3 301.7 443 308C393.7 314.3 344.3 335.7 295.2 340C246 344.3 197 331.7 147.8 323.2C98.7 314.7 49.3 310.3 24.7 308.2L0 306Z" fill="#333333"></path><path d="M0 884L24.7 864.8C49.3 845.7 98.7 807.3 147.8 801C197 794.7 246 820.3 295.2 835.3C344.3 850.3 393.7 854.7 443 850.3C492.3 846 541.7 833 590.8 841.5C640 850 689 880 738.2 871.5C787.3 863 836.7 816 886 790.3C935.3 764.7 984.7 760.3 1034 768.8C1083.3 777.3 1132.7 798.7 1181.8 798.7C1231 798.7 1280 777.3 1329.2 783.8C1378.3 790.3 1427.7 824.7 1477 820.5C1526.3 816.3 1575.7 773.7 1624.8 750.2C1674 726.7 1723 722.3 1772.2 730.8C1821.3 739.3 1870.7 760.7 1895.3 771.3L1920 782L1920 562L1895.3 542.8C1870.7 523.7 1821.3 485.3 1772.2 447C1723 408.7 1674 370.3 1624.8 376.7C1575.7 383 1526.3 434 1477 455.3C1427.7 476.7 1378.3 468.3 1329.2 464.2C1280 460 1231 460 1181.8 447.2C1132.7 434.3 1083.3 408.7 1034 404.3C984.7 400 935.3 417 886 457.5C836.7 498 787.3 562 738.2 568.5C689 575 640 524 590.8 496.3C541.7 468.7 492.3 464.3 443 481.3C393.7 498.3 344.3 536.7 295.2 543C246 549.3 197 523.7 147.8 504.5C98.7 485.3 49.3 472.7 24.7 466.3L0 460Z" fill="#3a3a3a"></path><path d="M0 1025L24.7 1022.8C49.3 1020.7 98.7 1016.3 147.8 1016.3C197 1016.3 246 1020.7 295.2 1037.8C344.3 1055 393.7 1085 443 1085C492.3 1085 541.7 1055 590.8 1052.8C640 1050.7 689 1076.3 738.2 1076.3C787.3 1076.3 836.7 1050.7 886 1042.2C935.3 1033.7 984.7 1042.3 1034 1044.5C1083.3 1046.7 1132.7 1042.3 1181.8 1038C1231 1033.7 1280 1029.3 1329.2 1016.5C1378.3 1003.7 1427.7 982.3 1477 982.3C1526.3 982.3 1575.7 1003.7 1624.8 1010C1674 1016.3 1723 1007.7 1772.2 1003.3C1821.3 999 1870.7 999 1895.3 999L1920 999L1920 780L1895.3 769.3C1870.7 758.7 1821.3 737.3 1772.2 728.8C1723 720.3 1674 724.7 1624.8 748.2C1575.7 771.7 1526.3 814.3 1477 818.5C1427.7 822.7 1378.3 788.3 1329.2 781.8C1280 775.3 1231 796.7 1181.8 796.7C1132.7 796.7 1083.3 775.3 1034 766.8C984.7 758.3 935.3 762.7 886 788.3C836.7 814 787.3 861 738.2 869.5C689 878 640 848 590.8 839.5C541.7 831 492.3 844 443 848.3C393.7 852.7 344.3 848.3 295.2 833.3C246 818.3 197 792.7 147.8 799C98.7 805.3 49.3 843.7 24.7 862.8L0 882Z" fill="#444444"></path><path d="M0 1179L24.7 1166.2C49.3 1153.3 98.7 1127.7 147.8 1121.2C197 1114.7 246 1127.3 295.2 1144.3C344.3 1161.3 393.7 1182.7 443 1191.2C492.3 1199.7 541.7 1195.3 590.8 1193.2C640 1191 689 1191 738.2 1178.3C787.3 1165.7 836.7 1140.3 886 1138.3C935.3 1136.3 984.7 1157.7 1034 1166.2C1083.3 1174.7 1132.7 1170.3 1181.8 1170.3C1231 1170.3 1280 1174.7 1329.2 1164C1378.3 1153.3 1427.7 1127.7 1477 1121.2C1526.3 1114.7 1575.7 1127.3 1624.8 1129.5C1674 1131.7 1723 1123.3 1772.2 1125.5C1821.3 1127.7 1870.7 1140.3 1895.3 1146.7L1920 1153L1920 997L1895.3 997C1870.7 997 1821.3 997 1772.2 1001.3C1723 1005.7 1674 1014.3 1624.8 1008C1575.7 1001.7 1526.3 980.3 1477 980.3C1427.7 980.3 1378.3 1001.7 1329.2 1014.5C1280 1027.3 1231 1031.7 1181.8 1036C1132.7 1040.3 1083.3 1044.7 1034 1042.5C984.7 1040.3 935.3 1031.7 886 1040.2C836.7 1048.7 787.3 1074.3 738.2 1074.3C689 1074.3 640 1048.7 590.8 1050.8C541.7 1053 492.3 1083 443 1083C393.7 1083 344.3 1053 295.2 1035.8C246 1018.7 197 1014.3 147.8 1014.3C98.7 1014.3 49.3 1018.7 24.7 1020.8L0 1023Z" fill="#525252"></path><path d="M0 1281L24.7 1281C49.3 1281 98.7 1281 147.8 1281C197 1281 246 1281 295.2 1281C344.3 1281 393.7 1281 443 1281C492.3 1281 541.7 1281 590.8 1281C640 1281 689 1281 738.2 1281C787.3 1281 836.7 1281 886 1281C935.3 1281 984.7 1281 1034 1281C1083.3 1281 1132.7 1281 1181.8 1281C1231 1281 1280 1281 1329.2 1281C1378.3 1281 1427.7 1281 1477 1281C1526.3 1281 1575.7 1281 1624.8 1281C1674 1281 1723 1281 1772.2 1281C1821.3 1281 1870.7 1281 1895.3 1281L1920 1281L1920 1151L1895.3 1144.7C1870.7 1138.3 1821.3 1125.7 1772.2 1123.5C1723 1121.3 1674 1129.7 1624.8 1127.5C1575.7 1125.3 1526.3 1112.7 1477 1119.2C1427.7 1125.7 1378.3 1151.3 1329.2 1162C1280 1172.7 1231 1168.3 1181.8 1168.3C1132.7 1168.3 1083.3 1172.7 1034 1164.2C984.7 1155.7 935.3 1134.3 886 1136.3C836.7 1138.3 787.3 1163.7 738.2 1176.3C689 1189 640 1189 590.8 1191.2C541.7 1193.3 492.3 1197.7 443 1189.2C393.7 1180.7 344.3 1159.3 295.2 1142.3C246 1125.3 197 1112.7 147.8 1119.2C98.7 1125.7 49.3 1151.3 24.7 1164.2L0 1177Z" fill="#616161"></path></svg>