<svg id="visual" viewBox="0 0 1920 1280" width="1920" height="1280" xmlns="http://www.w3.org/2000/svg" xmlns:xlink="http://www.w3.org/1999/xlink" version="1.1"><path d="M0 347L24.7 340.5C49.3 334 98.7 321 147.8 299.7C197 278.3 246 248.7 295.2 244.5C344.3 240.3 393.7 261.7 443 265.8C492.3 270 541.7 257 590.8 265.5C640 274 689 304 738.2 299.8C787.3 295.7 836.7 257.3 886 229.5C935.3 201.7 984.7 184.3 1034 195C1083.3 205.7 1132.7 244.3 1181.8 259.3C1231 274.3 1280 265.7 1329.2 280.5C1378.3 295.3 1427.7 333.7 1477 340C1526.3 346.3 1575.7 320.7 1624.8 318.5C1674 316.3 1723 337.7 1772.2 335.7C1821.3 333.7 1870.7 308.3 1895.3 295.7L1920 283L1920 0L1895.3 0C1870.7 0 1821.3 0 1772.2 0C1723 0 1674 0 1624.8 0C1575.7 0 1526.3 0 1477 0C1427.7 0 1378.3 0 1329.2 0C1280 0 1231 0 1181.8 0C1132.7 0 1083.3 0 1034 0C984.7 0 935.3 0 886 0C836.7 0 787.3 0 738.2 0C689 0 640 0 590.8 0C541.7 0 492.3 0 443 0C393.7 0 344.3 0 295.2 0C246 0 197 0 147.8 0C98.7 0 49.3 0 24.7 0L0 0Z" fill="#36b796"></path><path d="M0 551L24.7 529.7C49.3 508.3 98.7 465.7 147.8 427.3C197 389 246 355 295.2 348.7C344.3 342.3 393.7 363.7 443 374.3C492.3 385 541.7 385 590.8 406.3C640 427.7 689 470.3 738.2 468.2C787.3 466 836.7 419 886 384.8C935.3 350.7 984.7 329.3 1034 348.5C1083.3 367.7 1132.7 427.3 1181.8 438C1231 448.7 1280 410.3 1329.2 419C1378.3 427.7 1427.7 483.3 1477 489.8C1526.3 496.3 1575.7 453.7 1624.8 451.5C1674 449.3 1723 487.7 1772.2 498.3C1821.3 509 1870.7 492 1895.3 483.5L1920 475L1920 281L1895.3 293.7C1870.7 306.3 1821.3 331.7 1772.2 333.7C1723 335.7 1674 314.3 1624.8 316.5C1575.7 318.7 1526.3 344.3 1477 338C1427.7 331.7 1378.3 293.3 1329.2 278.5C1280 263.7 1231 272.3 1181.8 257.3C1132.7 242.3 1083.3 203.7 1034 193C984.7 182.3 935.3 199.7 886 227.5C836.7 255.3 787.3 293.7 738.2 297.8C689 302 640 272 590.8 263.5C541.7 255 492.3 268 443 263.8C393.7 259.7 344.3 238.3 295.2 242.5C246 246.7 197 276.3 147.8 297.7C98.7 319 49.3 332 24.7 338.5L0 345Z" fill="#26a988"></path><path d="M0 692L24.7 696.3C49.3 700.7 98.7 709.3 147.8 671C197 632.7 246 547.3 295.2 517.5C344.3 487.7 393.7 513.3 443 526.2C492.3 539 541.7 539 590.8 581.7C640 624.3 689 709.7 738.2 705.3C787.3 701 836.7 607 886 575C935.3 543 984.7 573 1034 607.2C1083.3 641.3 1132.7 679.7 1181.8 681.7C1231 683.7 1280 649.3 1329.2 662.2C1378.3 675 1427.7 735 1477 737.2C1526.3 739.3 1575.7 683.7 1624.8 666.5C1674 649.3 1723 670.7 1772.2 683.5C1821.3 696.3 1870.7 700.7 1895.3 702.8L1920 705L1920 473L1895.3 481.5C1870.7 490 1821.3 507 1772.2 496.3C1723 485.7 1674 447.3 1624.8 449.5C1575.7 451.7 1526.3 494.3 1477 487.8C1427.7 481.3 1378.3 425.7 1329.2 417C1280 408.3 1231 446.7 1181.8 436C1132.7 425.3 1083.3 365.7 1034 346.5C984.7 327.3 935.3 348.7 886 382.8C836.7 417 787.3 464 738.2 466.2C689 468.3 640 425.7 590.8 404.3C541.7 383 492.3 383 443 372.3C393.7 361.7 344.3 340.3 295.2 346.7C246 353 197 387 147.8 425.3C98.7 463.7 49.3 506.3 24.7 527.7L0 549Z" fill="#119b7a"></path><path d="M0 974L24.7 982.5C49.3 991 98.7 1008 147.8 1012.2C197 1016.3 246 1007.7 295.2 1007.7C344.3 1007.7 393.7 1016.3 443 1031.3C492.3 1046.3 541.7 1067.7 590.8 1076.2C640 1084.7 689 1080.3 738.2 1074C787.3 1067.7 836.7 1059.3 886 1050.8C935.3 1042.3 984.7 1033.7 1034 1016.5C1083.3 999.3 1132.7 973.7 1181.8 969.3C1231 965 1280 982 1329.2 988.5C1378.3 995 1427.7 991 1477 980.3C1526.3 969.7 1575.7 952.3 1624.8 943.7C1674 935 1723 935 1772.2 958.5C1821.3 982 1870.7 1029 1895.3 1052.5L1920 1076L1920 703L1895.3 700.8C1870.7 698.7 1821.3 694.3 1772.2 681.5C1723 668.7 1674 647.3 1624.8 664.5C1575.7 681.7 1526.3 737.3 1477 735.2C1427.7 733 1378.3 673 1329.2 660.2C1280 647.3 1231 681.7 1181.8 679.7C1132.7 677.7 1083.3 639.3 1034 605.2C984.7 571 935.3 541 886 573C836.7 605 787.3 699 738.2 703.3C689 707.7 640 622.3 590.8 579.7C541.7 537 492.3 537 443 524.2C393.7 511.3 344.3 485.7 295.2 515.5C246 545.3 197 630.7 147.8 669C98.7 707.3 49.3 698.7 24.7 694.3L0 690Z" fill="#008c6d"></path><path d="M0 1140L24.7 1133.7C49.3 1127.3 98.7 1114.7 147.8 1108.3C197 1102 246 1102 295.2 1112.7C344.3 1123.3 393.7 1144.7 443 1159.5C492.3 1174.3 541.7 1182.7 590.8 1186.8C640 1191 689 1191 738.2 1180.3C787.3 1169.7 836.7 1148.3 886 1139.8C935.3 1131.3 984.7 1135.7 1034 1133.7C1083.3 1131.7 1132.7 1123.3 1181.8 1119.2C1231 1115 1280 1115 1329.2 1119.2C1378.3 1123.3 1427.7 1131.7 1477 1129.5C1526.3 1127.3 1575.7 1114.7 1624.8 1108.3C1674 1102 1723 1102 1772.2 1112.7C1821.3 1123.3 1870.7 1144.7 1895.3 1155.3L1920 1166L1920 1074L1895.3 1050.5C1870.7 1027 1821.3 980 1772.2 956.5C1723 933 1674 933 1624.8 941.7C1575.7 950.3 1526.3 967.7 1477 978.3C1427.7 989 1378.3 993 1329.2 986.5C1280 980 1231 963 1181.8 967.3C1132.7 971.7 1083.3 997.3 1034 1014.5C984.7 1031.7 935.3 1040.3 886 1048.8C836.7 1057.3 787.3 1065.7 738.2 1072C689 1078.3 640 1082.7 590.8 1074.2C541.7 1065.7 492.3 1044.3 443 1029.3C393.7 1014.3 344.3 1005.7 295.2 1005.7C246 1005.7 197 1014.3 147.8 1010.2C98.7 1006 49.3 989 24.7 980.5L0 972Z" fill="#007c61"></path><path d="M0 1281L24.7 1281C49.3 1281 98.7 1281 147.8 1281C197 1281 246 1281 295.2 1281C344.3 1281 393.7 1281 443 1281C492.3 1281 541.7 1281 590.8 1281C640 1281 689 1281 738.2 1281C787.3 1281 836.7 1281 886 1281C935.3 1281 984.7 1281 1034 1281C1083.3 1281 1132.7 1281 1181.8 1281C1231 1281 1280 1281 1329.2 1281C1378.3 1281 1427.7 1281 1477 1281C1526.3 1281 1575.7 1281 1624.8 1281C1674 1281 1723 1281 1772.2 1281C1821.3 1281 1870.7 1281 1895.3 1281L1920 1281L1920 1164L1895.3 1153.3C1870.7 1142.7 1821.3 1121.3 1772.2 1110.7C1723 1100 1674 1100 1624.8 1106.3C1575.7 1112.7 1526.3 1125.3 1477 1127.5C1427.7 1129.7 1378.3 1121.3 1329.2 1117.2C1280 1113 1231 1113 1181.8 1117.2C1132.7 1121.3 1083.3 1129.7 1034 1131.7C984.7 1133.7 935.3 1129.3 886 1137.8C836.7 1146.3 787.3 1167.7 738.2 1178.3C689 1189 640 1189 590.8 1184.8C541.7 1180.7 492.3 1172.3 443 1157.5C393.7 1142.7 344.3 1121.3 295.2 1110.7C246 1100 197 1100 147.8 1106.3C98.7 1112.7 49.3 1125.3 24.7 1131.7L0 1138Z" fill="#006c55"></path></svg>