<svg id="visual" viewBox="0 0 1920 1280" width="1920" height="1280" xmlns="http://www.w3.org/2000/svg" xmlns:xlink="http://www.w3.org/1999/xlink" version="1.1"><path d="M1804 1280L1881 1280L1881 1224L1785 1224L1785 1169L1746 1169L1746 1113L1765 1113L1765 1057L1842 1057L1842 1002L1861 1002L1861 946L1708 946L1708 890L1804 890L1804 835L1881 835L1881 779L1842 779L1842 723L1861 723L1861 668L1746 668L1746 612L1765 612L1765 557L1746 557L1746 501L1881 501L1881 445L1861 445L1861 390L1900 390L1900 334L1861 334L1861 278L1861 278L1861 223L1919 223L1919 167L1804 167L1804 111L1823 111L1823 56L1785 56L1785 0L1920 0L1920 56L1920 56L1920 111L1920 111L1920 167L1920 167L1920 223L1920 223L1920 278L1920 278L1920 334L1920 334L1920 390L1920 390L1920 445L1920 445L1920 501L1920 501L1920 557L1920 557L1920 612L1920 612L1920 668L1920 668L1920 723L1920 723L1920 779L1920 779L1920 835L1920 835L1920 890L1920 890L1920 946L1920 946L1920 1002L1920 1002L1920 1057L1920 1057L1920 1113L1920 1113L1920 1169L1920 1169L1920 1224L1920 1224L1920 1280L1920 1280Z" fill="#f76969"></path><path d="M1573 1280L1727 1280L1727 1224L1689 1224L1689 1169L1497 1169L1497 1113L1650 1113L1650 1057L1804 1057L1804 1002L1305 1002L1305 946L1381 946L1381 890L1209 890L1209 835L1420 835L1420 779L1305 779L1305 723L1612 723L1612 668L1497 668L1497 612L1689 612L1689 557L1708 557L1708 501L1497 501L1497 445L1842 445L1842 390L1477 390L1477 334L1401 334L1401 278L1554 278L1554 223L1650 223L1650 167L1650 167L1650 111L1573 111L1573 56L1727 56L1727 0L1786 0L1786 56L1824 56L1824 111L1805 111L1805 167L1920 167L1920 223L1862 223L1862 278L1862 278L1862 334L1901 334L1901 390L1862 390L1862 445L1882 445L1882 501L1747 501L1747 557L1766 557L1766 612L1747 612L1747 668L1862 668L1862 723L1843 723L1843 779L1882 779L1882 835L1805 835L1805 890L1709 890L1709 946L1862 946L1862 1002L1843 1002L1843 1057L1766 1057L1766 1113L1747 1113L1747 1169L1786 1169L1786 1224L1882 1224L1882 1280L1805 1280Z" fill="#fa807f"></path><path d="M1324 1280L1420 1280L1420 1224L1650 1224L1650 1169L1401 1169L1401 1113L1458 1113L1458 1057L1612 1057L1612 1002L1132 1002L1132 946L1305 946L1305 890L1113 890L1113 835L1362 835L1362 779L1305 779L1305 723L1535 723L1535 668L1209 668L1209 612L1420 612L1420 557L1631 557L1631 501L1381 501L1381 445L1593 445L1593 390L1477 390L1477 334L1324 334L1324 278L1324 278L1324 223L1458 223L1458 167L1362 167L1362 111L1343 111L1343 56L1669 56L1669 0L1728 0L1728 56L1574 56L1574 111L1651 111L1651 167L1651 167L1651 223L1555 223L1555 278L1402 278L1402 334L1478 334L1478 390L1843 390L1843 445L1498 445L1498 501L1709 501L1709 557L1690 557L1690 612L1498 612L1498 668L1613 668L1613 723L1306 723L1306 779L1421 779L1421 835L1210 835L1210 890L1382 890L1382 946L1306 946L1306 1002L1805 1002L1805 1057L1651 1057L1651 1113L1498 1113L1498 1169L1690 1169L1690 1224L1728 1224L1728 1280L1574 1280Z" fill="#fb9796"></path><path d="M1151 1280L1324 1280L1324 1224L1477 1224L1477 1169L1247 1169L1247 1113L1247 1113L1247 1057L1439 1057L1439 1002L997 1002L997 946L1093 946L1093 890L1055 890L1055 835L1170 835L1170 779L1132 779L1132 723L1381 723L1381 668L997 668L997 612L1209 612L1209 557L1439 557L1439 501L1266 501L1266 445L1420 445L1420 390L1477 390L1477 334L1228 334L1228 278L1151 278L1151 223L1247 223L1247 167L1343 167L1343 111L1228 111L1228 56L1477 56L1477 0L1670 0L1670 56L1344 56L1344 111L1363 111L1363 167L1459 167L1459 223L1325 223L1325 278L1325 278L1325 334L1478 334L1478 390L1594 390L1594 445L1382 445L1382 501L1632 501L1632 557L1421 557L1421 612L1210 612L1210 668L1536 668L1536 723L1306 723L1306 779L1363 779L1363 835L1114 835L1114 890L1306 890L1306 946L1133 946L1133 1002L1613 1002L1613 1057L1459 1057L1459 1113L1402 1113L1402 1169L1651 1169L1651 1224L1421 1224L1421 1280L1325 1280Z" fill="#fbacac"></path><path d="M940 1280L1055 1280L1055 1224L1439 1224L1439 1169L1209 1169L1209 1113L1017 1113L1017 1057L1113 1057L1113 1002L997 1002L997 946L997 946L997 890L997 890L997 835L1036 835L1036 779L1055 779L1055 723L1132 723L1132 668L709 668L709 612L997 612L997 557L1343 557L1343 501L882 501L882 445L1209 445L1209 390L1055 390L1055 334L978 334L978 278L1017 278L1017 223L1132 223L1132 167L1189 167L1189 111L1209 111L1209 56L1247 56L1247 0L1478 0L1478 56L1229 56L1229 111L1344 111L1344 167L1248 167L1248 223L1152 223L1152 278L1229 278L1229 334L1478 334L1478 390L1421 390L1421 445L1267 445L1267 501L1440 501L1440 557L1210 557L1210 612L998 612L998 668L1382 668L1382 723L1133 723L1133 779L1171 779L1171 835L1056 835L1056 890L1094 890L1094 946L998 946L998 1002L1440 1002L1440 1057L1248 1057L1248 1113L1248 1113L1248 1169L1478 1169L1478 1224L1325 1224L1325 1280L1152 1280Z" fill="#f8c2c1"></path><path d="M882 1280L671 1280L671 1224L1132 1224L1132 1169L1074 1169L1074 1113L863 1113L863 1057L921 1057L921 1002L805 1002L805 946L479 946L479 890L863 890L863 835L767 835L767 779L1055 779L1055 723L863 723L863 668L460 668L460 612L863 612L863 557L1017 557L1017 501L613 501L613 445L1209 445L1209 390L594 390L594 334L575 334L575 278L690 278L690 223L1093 223L1093 167L825 167L825 111L1151 111L1151 56L921 56L921 0L1248 0L1248 56L1210 56L1210 111L1190 111L1190 167L1133 167L1133 223L1018 223L1018 278L979 278L979 334L1056 334L1056 390L1210 390L1210 445L883 445L883 501L1344 501L1344 557L998 557L998 612L710 612L710 668L1133 668L1133 723L1056 723L1056 779L1037 779L1037 835L998 835L998 890L998 890L998 946L998 946L998 1002L1114 1002L1114 1057L1018 1057L1018 1113L1210 1113L1210 1169L1440 1169L1440 1224L1056 1224L1056 1280L941 1280Z" fill="#f7caca"></path><path d="M786 1280L633 1280L633 1224L1093 1224L1093 1169L978 1169L978 1113L690 1113L690 1057L844 1057L844 1002L671 1002L671 946L479 946L479 890L805 890L805 835L729 835L729 779L901 779L901 723L767 723L767 668L441 668L441 612L767 612L767 557L1017 557L1017 501L556 501L556 445L1209 445L1209 390L556 390L556 334L517 334L517 278L613 278L613 223L978 223L978 167L825 167L825 111L1036 111L1036 56L786 56L786 0L922 0L922 56L1152 56L1152 111L826 111L826 167L1094 167L1094 223L691 223L691 278L576 278L576 334L595 334L595 390L1210 390L1210 445L614 445L614 501L1018 501L1018 557L864 557L864 612L461 612L461 668L864 668L864 723L1056 723L1056 779L768 779L768 835L864 835L864 890L480 890L480 946L806 946L806 1002L922 1002L922 1057L864 1057L864 1113L1075 1113L1075 1169L1133 1169L1133 1224L672 1224L672 1280L883 1280Z" fill="#f7caca"></path><path d="M287 1280L191 1280L191 1224L364 1224L364 1169L114 1169L114 1113L229 1113L229 1057L306 1057L306 1002L460 1002L460 946L57 946L57 890L345 890L345 835L479 835L479 779L268 779L268 723L498 723L498 668L249 668L249 612L287 612L287 557L402 557L402 501L325 501L325 445L421 445L421 390L441 390L441 334L306 334L306 278L441 278L441 223L268 223L268 167L441 167L441 111L325 111L325 56L345 56L345 0L787 0L787 56L1037 56L1037 111L826 111L826 167L979 167L979 223L614 223L614 278L518 278L518 334L557 334L557 390L1210 390L1210 445L557 445L557 501L1018 501L1018 557L768 557L768 612L442 612L442 668L768 668L768 723L902 723L902 779L730 779L730 835L806 835L806 890L480 890L480 946L672 946L672 1002L845 1002L845 1057L691 1057L691 1113L979 1113L979 1169L1094 1169L1094 1224L634 1224L634 1280L787 1280Z" fill="#f8c2c1"></path><path d="M268 1280L95 1280L95 1224L268 1224L268 1169L114 1169L114 1113L37 1113L37 1057L287 1057L287 1002L268 1002L268 946L57 946L57 890L249 890L249 835L479 835L479 779L210 779L210 723L364 723L364 668L249 668L249 612L249 612L249 557L287 557L287 501L306 501L306 445L229 445L229 390L172 390L172 334L114 334L114 278L306 278L306 223L153 223L153 167L287 167L287 111L95 111L95 56L287 56L287 0L346 0L346 56L326 56L326 111L442 111L442 167L269 167L269 223L442 223L442 278L307 278L307 334L442 334L442 390L422 390L422 445L326 445L326 501L403 501L403 557L288 557L288 612L250 612L250 668L499 668L499 723L269 723L269 779L480 779L480 835L346 835L346 890L58 890L58 946L461 946L461 1002L307 1002L307 1057L230 1057L230 1113L115 1113L115 1169L365 1169L365 1224L192 1224L192 1280L288 1280Z" fill="#fbacac"></path><path d="M153 1280L95 1280L95 1224L114 1224L114 1169L57 1169L57 1113L37 1113L37 1057L191 1057L191 1002L95 1002L95 946L57 946L57 890L249 890L249 835L345 835L345 779L191 779L191 723L210 723L210 668L133 668L133 612L95 612L95 557L287 557L287 501L133 501L133 445L191 445L191 390L37 390L37 334L95 334L95 278L153 278L153 223L153 223L153 167L172 167L172 111L95 111L95 56L172 56L172 0L288 0L288 56L96 56L96 111L288 111L288 167L154 167L154 223L307 223L307 278L115 278L115 334L173 334L173 390L230 390L230 445L307 445L307 501L288 501L288 557L250 557L250 612L250 612L250 668L365 668L365 723L211 723L211 779L480 779L480 835L250 835L250 890L58 890L58 946L269 946L269 1002L288 1002L288 1057L38 1057L38 1113L115 1113L115 1169L269 1169L269 1224L96 1224L96 1280L269 1280Z" fill="#fb9796"></path><path d="M18 1280L37 1280L37 1224L0 1224L0 1169L57 1169L57 1113L37 1113L37 1057L191 1057L191 1002L37 1002L37 946L0 946L0 890L191 890L191 835L191 835L191 779L95 779L95 723L133 723L133 668L18 668L18 612L76 612L76 557L172 557L172 501L37 501L37 445L114 445L114 390L37 390L37 334L37 334L37 278L76 278L76 223L57 223L57 167L153 167L153 111L57 111L57 56L76 56L76 0L173 0L173 56L96 56L96 111L173 111L173 167L154 167L154 223L154 223L154 278L96 278L96 334L38 334L38 390L192 390L192 445L134 445L134 501L288 501L288 557L96 557L96 612L134 612L134 668L211 668L211 723L192 723L192 779L346 779L346 835L250 835L250 890L58 890L58 946L96 946L96 1002L192 1002L192 1057L38 1057L38 1113L58 1113L58 1169L115 1169L115 1224L96 1224L96 1280L154 1280Z" fill="#fa807f"></path><path d="M0 1280L0 1280L0 1224L0 1224L0 1169L0 1169L0 1113L0 1113L0 1057L0 1057L0 1002L0 1002L0 946L0 946L0 890L0 890L0 835L0 835L0 779L0 779L0 723L0 723L0 668L0 668L0 612L0 612L0 557L0 557L0 501L0 501L0 445L0 445L0 390L0 390L0 334L0 334L0 278L0 278L0 223L0 223L0 167L0 167L0 111L0 111L0 56L0 56L0 0L77 0L77 56L58 56L58 111L154 111L154 167L58 167L58 223L77 223L77 278L38 278L38 334L38 334L38 390L115 390L115 445L38 445L38 501L173 501L173 557L77 557L77 612L19 612L19 668L134 668L134 723L96 723L96 779L192 779L192 835L192 835L192 890L0 890L0 946L38 946L38 1002L192 1002L192 1057L38 1057L38 1113L58 1113L58 1169L0 1169L0 1224L38 1224L38 1280L19 1280Z" fill="#f76969"></path></svg>