<svg id="visual" viewBox="0 0 1920 1280" width="1920" height="1280" xmlns="http://www.w3.org/2000/svg" xmlns:xlink="http://www.w3.org/1999/xlink" version="1.1"><path d="M0 257L24.7 295.3C49.3 333.7 98.7 410.3 147.8 412.5C197 414.7 246 342.3 295.2 342.3C344.3 342.3 393.7 414.7 443 440.2C492.3 465.7 541.7 444.3 590.8 421C640 397.7 689 372.3 738.2 359.7C787.3 347 836.7 347 886 359.7C935.3 372.3 984.7 397.7 1034 408.3C1083.3 419 1132.7 415 1181.8 387.3C1231 359.7 1280 308.3 1329.2 316.8C1378.3 325.3 1427.7 393.7 1477 423.5C1526.3 453.3 1575.7 444.7 1624.8 414.8C1674 385 1723 334 1772.2 329.8C1821.3 325.7 1870.7 368.3 1895.3 389.7L1920 411L1920 0L1895.3 0C1870.7 0 1821.3 0 1772.2 0C1723 0 1674 0 1624.8 0C1575.7 0 1526.3 0 1477 0C1427.7 0 1378.3 0 1329.2 0C1280 0 1231 0 1181.8 0C1132.7 0 1083.3 0 1034 0C984.7 0 935.3 0 886 0C836.7 0 787.3 0 738.2 0C689 0 640 0 590.8 0C541.7 0 492.3 0 443 0C393.7 0 344.3 0 295.2 0C246 0 197 0 147.8 0C98.7 0 49.3 0 24.7 0L0 0Z" fill="#6198ff"></path><path d="M0 551L24.7 581C49.3 611 98.7 671 147.8 677.5C197 684 246 637 295.2 639C344.3 641 393.7 692 443 702.7C492.3 713.3 541.7 683.7 590.8 660.3C640 637 689 620 738.2 626.3C787.3 632.7 836.7 662.3 886 668.7C935.3 675 984.7 658 1034 662.3C1083.3 666.7 1132.7 692.3 1181.8 698.7C1231 705 1280 692 1329.2 685.5C1378.3 679 1427.7 679 1477 670.5C1526.3 662 1575.7 645 1624.8 630.2C1674 615.3 1723 602.7 1772.2 596.3C1821.3 590 1870.7 590 1895.3 590L1920 590L1920 409L1895.3 387.7C1870.7 366.3 1821.3 323.7 1772.2 327.8C1723 332 1674 383 1624.8 412.8C1575.7 442.7 1526.3 451.3 1477 421.5C1427.7 391.7 1378.3 323.3 1329.2 314.8C1280 306.3 1231 357.7 1181.8 385.3C1132.7 413 1083.3 417 1034 406.3C984.7 395.7 935.3 370.3 886 357.7C836.7 345 787.3 345 738.2 357.7C689 370.3 640 395.7 590.8 419C541.7 442.3 492.3 463.7 443 438.2C393.7 412.7 344.3 340.3 295.2 340.3C246 340.3 197 412.7 147.8 410.5C98.7 408.3 49.3 331.7 24.7 293.3L0 255Z" fill="#4385ff"></path><path d="M0 731L24.7 763C49.3 795 98.7 859 147.8 863.2C197 867.3 246 811.7 295.2 801C344.3 790.3 393.7 824.7 443 831.2C492.3 837.7 541.7 816.3 590.8 792.8C640 769.3 689 743.7 738.2 756.3C787.3 769 836.7 820 886 824.2C935.3 828.3 984.7 785.7 1034 798.5C1083.3 811.3 1132.7 879.7 1181.8 901C1231 922.3 1280 896.7 1329.2 866.8C1378.3 837 1427.7 803 1477 792.3C1526.3 781.7 1575.7 794.3 1624.8 790C1674 785.7 1723 764.3 1772.2 751.7C1821.3 739 1870.7 735 1895.3 733L1920 731L1920 588L1895.3 588C1870.7 588 1821.3 588 1772.2 594.3C1723 600.7 1674 613.3 1624.8 628.2C1575.7 643 1526.3 660 1477 668.5C1427.7 677 1378.3 677 1329.2 683.5C1280 690 1231 703 1181.8 696.7C1132.7 690.3 1083.3 664.7 1034 660.3C984.7 656 935.3 673 886 666.7C836.7 660.3 787.3 630.7 738.2 624.3C689 618 640 635 590.8 658.3C541.7 681.7 492.3 711.3 443 700.7C393.7 690 344.3 639 295.2 637C246 635 197 682 147.8 675.5C98.7 669 49.3 609 24.7 579L0 549Z" fill="#2071ff"></path><path d="M0 987L24.7 995.5C49.3 1004 98.7 1021 147.8 1021C197 1021 246 1004 295.2 1006.2C344.3 1008.3 393.7 1029.7 443 1046.7C492.3 1063.7 541.7 1076.3 590.8 1069.8C640 1063.3 689 1037.7 738.2 1022.7C787.3 1007.7 836.7 1003.3 886 1007.7C935.3 1012 984.7 1025 1034 1037.8C1083.3 1050.7 1132.7 1063.3 1181.8 1063.3C1231 1063.3 1280 1050.7 1329.2 1040C1378.3 1029.3 1427.7 1020.7 1477 1022.8C1526.3 1025 1575.7 1038 1624.8 1033.8C1674 1029.7 1723 1008.3 1772.2 1004C1821.3 999.7 1870.7 1012.3 1895.3 1018.7L1920 1025L1920 729L1895.3 731C1870.7 733 1821.3 737 1772.2 749.7C1723 762.3 1674 783.7 1624.8 788C1575.7 792.3 1526.3 779.7 1477 790.3C1427.7 801 1378.3 835 1329.2 864.8C1280 894.7 1231 920.3 1181.8 899C1132.7 877.7 1083.3 809.3 1034 796.5C984.7 783.7 935.3 826.3 886 822.2C836.7 818 787.3 767 738.2 754.3C689 741.7 640 767.3 590.8 790.8C541.7 814.3 492.3 835.7 443 829.2C393.7 822.7 344.3 788.3 295.2 799C246 809.7 197 865.3 147.8 861.2C98.7 857 49.3 793 24.7 761L0 729Z" fill="#0061f1"></path><path d="M0 1153L24.7 1153C49.3 1153 98.7 1153 147.8 1142.3C197 1131.7 246 1110.3 295.2 1116.7C344.3 1123 393.7 1157 443 1176.2C492.3 1195.3 541.7 1199.7 590.8 1197.7C640 1195.7 689 1187.3 738.2 1172.5C787.3 1157.7 836.7 1136.3 886 1129.8C935.3 1123.3 984.7 1131.7 1034 1138C1083.3 1144.3 1132.7 1148.7 1181.8 1146.5C1231 1144.3 1280 1135.7 1329.2 1131.3C1378.3 1127 1427.7 1127 1477 1131.3C1526.3 1135.7 1575.7 1144.3 1624.8 1140.2C1674 1136 1723 1119 1772.2 1121.2C1821.3 1123.3 1870.7 1144.7 1895.3 1155.3L1920 1166L1920 1023L1895.3 1016.7C1870.7 1010.3 1821.3 997.7 1772.2 1002C1723 1006.3 1674 1027.7 1624.8 1031.8C1575.7 1036 1526.3 1023 1477 1020.8C1427.7 1018.7 1378.3 1027.3 1329.2 1038C1280 1048.7 1231 1061.3 1181.8 1061.3C1132.7 1061.3 1083.3 1048.7 1034 1035.8C984.7 1023 935.3 1010 886 1005.7C836.7 1001.3 787.3 1005.7 738.2 1020.7C689 1035.7 640 1061.3 590.8 1067.8C541.7 1074.3 492.3 1061.7 443 1044.7C393.7 1027.7 344.3 1006.3 295.2 1004.2C246 1002 197 1019 147.8 1019C98.7 1019 49.3 1002 24.7 993.5L0 985Z" fill="#0056d6"></path><path d="M0 1281L24.7 1281C49.3 1281 98.7 1281 147.8 1281C197 1281 246 1281 295.2 1281C344.3 1281 393.7 1281 443 1281C492.3 1281 541.7 1281 590.8 1281C640 1281 689 1281 738.2 1281C787.3 1281 836.7 1281 886 1281C935.3 1281 984.7 1281 1034 1281C1083.3 1281 1132.7 1281 1181.8 1281C1231 1281 1280 1281 1329.2 1281C1378.3 1281 1427.7 1281 1477 1281C1526.3 1281 1575.7 1281 1624.8 1281C1674 1281 1723 1281 1772.2 1281C1821.3 1281 1870.7 1281 1895.3 1281L1920 1281L1920 1164L1895.3 1153.3C1870.7 1142.7 1821.3 1121.3 1772.2 1119.2C1723 1117 1674 1134 1624.8 1138.2C1575.7 1142.3 1526.3 1133.7 1477 1129.3C1427.7 1125 1378.3 1125 1329.2 1129.3C1280 1133.7 1231 1142.3 1181.8 1144.5C1132.7 1146.7 1083.3 1142.3 1034 1136C984.7 1129.7 935.3 1121.3 886 1127.8C836.7 1134.3 787.3 1155.7 738.2 1170.5C689 1185.3 640 1193.7 590.8 1195.7C541.7 1197.7 492.3 1193.3 443 1174.2C393.7 1155 344.3 1121 295.2 1114.7C246 1108.3 197 1129.7 147.8 1140.3C98.7 1151 49.3 1151 24.7 1151L0 1151Z" fill="#004cbb"></path></svg>