<svg id="visual" viewBox="0 0 1920 1280" width="1920" height="1280" xmlns="http://www.w3.org/2000/svg" xmlns:xlink="http://www.w3.org/1999/xlink" version="1.1"><path d="M1900 1280L1804 1280L1804 1224L1861 1224L1861 1169L1746 1169L1746 1113L1881 1113L1881 1057L1765 1057L1765 1002L1765 1002L1765 946L1650 946L1650 890L1765 890L1765 835L1823 835L1823 779L1746 779L1746 723L1842 723L1842 668L1842 668L1842 612L1708 612L1708 557L1746 557L1746 501L1842 501L1842 445L1708 445L1708 390L1919 390L1919 334L1919 334L1919 278L1746 278L1746 223L1861 223L1861 167L1842 167L1842 111L1881 111L1881 56L1861 56L1861 0L1920 0L1920 56L1920 56L1920 111L1920 111L1920 167L1920 167L1920 223L1920 223L1920 278L1920 278L1920 334L1920 334L1920 390L1920 390L1920 445L1920 445L1920 501L1920 501L1920 557L1920 557L1920 612L1920 612L1920 668L1920 668L1920 723L1920 723L1920 779L1920 779L1920 835L1920 835L1920 890L1920 890L1920 946L1920 946L1920 1002L1920 1002L1920 1057L1920 1057L1920 1113L1920 1113L1920 1169L1920 1169L1920 1224L1920 1224L1920 1280L1920 1280Z" fill="#707070"></path><path d="M1765 1280L1708 1280L1708 1224L1785 1224L1785 1169L1573 1169L1573 1113L1842 1113L1842 1057L1593 1057L1593 1002L1593 1002L1593 946L1535 946L1535 890L1650 890L1650 835L1650 835L1650 779L1669 779L1669 723L1785 723L1785 668L1727 668L1727 612L1593 612L1593 557L1746 557L1746 501L1727 501L1727 445L1631 445L1631 390L1842 390L1842 334L1919 334L1919 278L1669 278L1669 223L1708 223L1708 167L1650 167L1650 111L1785 111L1785 56L1746 56L1746 0L1862 0L1862 56L1882 56L1882 111L1843 111L1843 167L1862 167L1862 223L1747 223L1747 278L1920 278L1920 334L1920 334L1920 390L1709 390L1709 445L1843 445L1843 501L1747 501L1747 557L1709 557L1709 612L1843 612L1843 668L1843 668L1843 723L1747 723L1747 779L1824 779L1824 835L1766 835L1766 890L1651 890L1651 946L1766 946L1766 1002L1766 1002L1766 1057L1882 1057L1882 1113L1747 1113L1747 1169L1862 1169L1862 1224L1805 1224L1805 1280L1901 1280Z" fill="#848484"></path><path d="M1381 1280L1708 1280L1708 1224L1650 1224L1650 1169L1516 1169L1516 1113L1785 1113L1785 1057L1420 1057L1420 1002L1477 1002L1477 946L1420 946L1420 890L1554 890L1554 835L1516 835L1516 779L1477 779L1477 723L1458 723L1458 668L1727 668L1727 612L1381 612L1381 557L1497 557L1497 501L1535 501L1535 445L1362 445L1362 390L1554 390L1554 334L1765 334L1765 278L1535 278L1535 223L1439 223L1439 167L1631 167L1631 111L1765 111L1765 56L1631 56L1631 0L1747 0L1747 56L1786 56L1786 111L1651 111L1651 167L1709 167L1709 223L1670 223L1670 278L1920 278L1920 334L1843 334L1843 390L1632 390L1632 445L1728 445L1728 501L1747 501L1747 557L1594 557L1594 612L1728 612L1728 668L1786 668L1786 723L1670 723L1670 779L1651 779L1651 835L1651 835L1651 890L1536 890L1536 946L1594 946L1594 1002L1594 1002L1594 1057L1843 1057L1843 1113L1574 1113L1574 1169L1786 1169L1786 1224L1709 1224L1709 1280L1766 1280Z" fill="#999999"></path><path d="M1285 1280L1708 1280L1708 1224L1631 1224L1631 1169L1516 1169L1516 1113L1669 1113L1669 1057L1266 1057L1266 1002L1420 1002L1420 946L1420 946L1420 890L1401 890L1401 835L1497 835L1497 779L1381 779L1381 723L1343 723L1343 668L1593 668L1593 612L1285 612L1285 557L1381 557L1381 501L1439 501L1439 445L1266 445L1266 390L1458 390L1458 334L1669 334L1669 278L1439 278L1439 223L1343 223L1343 167L1593 167L1593 111L1765 111L1765 56L1535 56L1535 0L1632 0L1632 56L1766 56L1766 111L1632 111L1632 167L1440 167L1440 223L1536 223L1536 278L1766 278L1766 334L1555 334L1555 390L1363 390L1363 445L1536 445L1536 501L1498 501L1498 557L1382 557L1382 612L1728 612L1728 668L1459 668L1459 723L1478 723L1478 779L1517 779L1517 835L1555 835L1555 890L1421 890L1421 946L1478 946L1478 1002L1421 1002L1421 1057L1786 1057L1786 1113L1517 1113L1517 1169L1651 1169L1651 1224L1709 1224L1709 1280L1382 1280Z" fill="#aeaeae"></path><path d="M441 1280L1093 1280L1093 1224L1343 1224L1343 1169L1497 1169L1497 1113L1439 1113L1439 1057L1074 1057L1074 1002L1055 1002L1055 946L1151 946L1151 890L594 890L594 835L1055 835L1055 779L1055 779L1055 723L1170 723L1170 668L1228 668L1228 612L786 612L786 557L825 557L825 501L1324 501L1324 445L901 445L901 390L1343 390L1343 334L1477 334L1477 278L825 278L825 223L882 223L882 167L1132 167L1132 111L825 111L825 56L1036 56L1036 0L1536 0L1536 56L1766 56L1766 111L1594 111L1594 167L1344 167L1344 223L1440 223L1440 278L1670 278L1670 334L1459 334L1459 390L1267 390L1267 445L1440 445L1440 501L1382 501L1382 557L1286 557L1286 612L1594 612L1594 668L1344 668L1344 723L1382 723L1382 779L1498 779L1498 835L1402 835L1402 890L1421 890L1421 946L1421 946L1421 1002L1267 1002L1267 1057L1670 1057L1670 1113L1517 1113L1517 1169L1632 1169L1632 1224L1709 1224L1709 1280L1286 1280Z" fill="#c3c3c3"></path><path d="M364 1280L978 1280L978 1224L575 1224L575 1169L901 1169L901 1113L805 1113L805 1057L825 1057L825 1002L709 1002L709 946L575 946L575 890L460 890L460 835L441 835L441 779L748 779L748 723L556 723L556 668L844 668L844 612L690 612L690 557L652 557L652 501L709 501L709 445L594 445L594 390L844 390L844 334L1055 334L1055 278L652 278L652 223L383 223L383 167L940 167L940 111L613 111L613 56L652 56L652 0L1037 0L1037 56L826 56L826 111L1133 111L1133 167L883 167L883 223L826 223L826 278L1478 278L1478 334L1344 334L1344 390L902 390L902 445L1325 445L1325 501L826 501L826 557L787 557L787 612L1229 612L1229 668L1171 668L1171 723L1056 723L1056 779L1056 779L1056 835L595 835L595 890L1152 890L1152 946L1056 946L1056 1002L1075 1002L1075 1057L1440 1057L1440 1113L1498 1113L1498 1169L1344 1169L1344 1224L1094 1224L1094 1280L442 1280Z" fill="#cccccc"></path><path d="M325 1280L882 1280L882 1224L575 1224L575 1169L825 1169L825 1113L786 1113L786 1057L575 1057L575 1002L652 1002L652 946L460 946L460 890L421 890L421 835L364 835L364 779L517 779L517 723L421 723L421 668L633 668L633 612L690 612L690 557L421 557L421 501L537 501L537 445L383 445L383 390L633 390L633 334L997 334L997 278L421 278L421 223L325 223L325 167L729 167L729 111L613 111L613 56L556 56L556 0L653 0L653 56L614 56L614 111L941 111L941 167L384 167L384 223L653 223L653 278L1056 278L1056 334L845 334L845 390L595 390L595 445L710 445L710 501L653 501L653 557L691 557L691 612L845 612L845 668L557 668L557 723L749 723L749 779L442 779L442 835L461 835L461 890L576 890L576 946L710 946L710 1002L826 1002L826 1057L806 1057L806 1113L902 1113L902 1169L576 1169L576 1224L979 1224L979 1280L365 1280Z" fill="#cccccc"></path><path d="M287 1280L229 1280L229 1224L441 1224L441 1169L402 1169L402 1113L402 1113L402 1057L287 1057L287 1002L364 1002L364 946L306 946L306 890L345 890L345 835L364 835L364 779L498 779L498 723L402 723L402 668L441 668L441 612L172 612L172 557L287 557L287 501L421 501L421 445L383 445L383 390L460 390L460 334L537 334L537 278L421 278L421 223L306 223L306 167L249 167L249 111L479 111L479 56L133 56L133 0L557 0L557 56L614 56L614 111L730 111L730 167L326 167L326 223L422 223L422 278L998 278L998 334L634 334L634 390L384 390L384 445L538 445L538 501L422 501L422 557L691 557L691 612L634 612L634 668L422 668L422 723L518 723L518 779L365 779L365 835L422 835L422 890L461 890L461 946L653 946L653 1002L576 1002L576 1057L787 1057L787 1113L826 1113L826 1169L576 1169L576 1224L883 1224L883 1280L326 1280Z" fill="#c3c3c3"></path><path d="M268 1280L191 1280L191 1224L287 1224L287 1169L402 1169L402 1113L306 1113L306 1057L249 1057L249 1002L229 1002L229 946L268 946L268 890L268 890L268 835L345 835L345 779L460 779L460 723L287 723L287 668L287 668L287 612L114 612L114 557L249 557L249 501L402 501L402 445L287 445L287 390L383 390L383 334L402 334L402 278L364 278L364 223L210 223L210 167L191 167L191 111L383 111L383 56L133 56L133 0L134 0L134 56L480 56L480 111L250 111L250 167L307 167L307 223L422 223L422 278L538 278L538 334L461 334L461 390L384 390L384 445L422 445L422 501L288 501L288 557L173 557L173 612L442 612L442 668L403 668L403 723L499 723L499 779L365 779L365 835L346 835L346 890L307 890L307 946L365 946L365 1002L288 1002L288 1057L403 1057L403 1113L403 1113L403 1169L442 1169L442 1224L230 1224L230 1280L288 1280Z" fill="#aeaeae"></path><path d="M210 1280L114 1280L114 1224L76 1224L76 1169L210 1169L210 1113L95 1113L95 1057L57 1057L57 1002L133 1002L133 946L210 946L210 890L114 890L114 835L95 835L95 779L268 779L268 723L268 723L268 668L133 668L133 612L114 612L114 557L0 557L0 501L306 501L306 445L153 445L153 390L172 390L172 334L191 334L191 278L172 278L172 223L210 223L210 167L153 167L153 111L287 111L287 56L0 56L0 0L134 0L134 56L384 56L384 111L192 111L192 167L211 167L211 223L365 223L365 278L403 278L403 334L384 334L384 390L288 390L288 445L403 445L403 501L250 501L250 557L115 557L115 612L288 612L288 668L288 668L288 723L461 723L461 779L346 779L346 835L269 835L269 890L269 890L269 946L230 946L230 1002L250 1002L250 1057L307 1057L307 1113L403 1113L403 1169L288 1169L288 1224L192 1224L192 1280L269 1280Z" fill="#999999"></path><path d="M191 1280L57 1280L57 1224L37 1224L37 1169L57 1169L57 1113L57 1113L57 1057L18 1057L18 1002L37 1002L37 946L210 946L210 890L37 890L37 835L18 835L18 779L172 779L172 723L153 723L153 668L133 668L133 612L37 612L37 557L0 557L0 501L172 501L172 445L0 445L0 390L114 390L114 334L114 334L114 278L57 278L57 223L153 223L153 167L18 167L18 111L191 111L191 56L0 56L0 0L0 0L0 56L288 56L288 111L154 111L154 167L211 167L211 223L173 223L173 278L192 278L192 334L173 334L173 390L154 390L154 445L307 445L307 501L0 501L0 557L115 557L115 612L134 612L134 668L269 668L269 723L269 723L269 779L96 779L96 835L115 835L115 890L211 890L211 946L134 946L134 1002L58 1002L58 1057L96 1057L96 1113L211 1113L211 1169L77 1169L77 1224L115 1224L115 1280L211 1280Z" fill="#848484"></path><path d="M0 1280L0 1280L0 1224L0 1224L0 1169L0 1169L0 1113L0 1113L0 1057L0 1057L0 1002L0 1002L0 946L0 946L0 890L0 890L0 835L0 835L0 779L0 779L0 723L0 723L0 668L0 668L0 612L0 612L0 557L0 557L0 501L0 501L0 445L0 445L0 390L0 390L0 334L0 334L0 278L0 278L0 223L0 223L0 167L0 167L0 111L0 111L0 56L0 56L0 0L0 0L0 56L192 56L192 111L19 111L19 167L154 167L154 223L58 223L58 278L115 278L115 334L115 334L115 390L0 390L0 445L173 445L173 501L0 501L0 557L38 557L38 612L134 612L134 668L154 668L154 723L173 723L173 779L19 779L19 835L38 835L38 890L211 890L211 946L38 946L38 1002L19 1002L19 1057L58 1057L58 1113L58 1113L58 1169L38 1169L38 1224L58 1224L58 1280L192 1280Z" fill="#707070"></path></svg>