<svg style="position: absolute; width: 0; height: 0; overflow: hidden;" version="1.1"
     xmlns="http://www.w3.org/2000/svg" id="tvo-automator-icons">
    <defs>

        <symbol id="tap-ovation-logo" viewBox="0 0 21 19">
            <defs>
                <path id="kj8mvum4ia" d="M0 0.021L20.112 0.021 20.112 16.829 0 16.829z"/>
                <path id="9ruj1m9ufc" d="M0.216 0.128L10.034 0.128 10.034 6.769 0.216 6.769z"/>
            </defs>
            <g fill="none" fill-rule="evenodd">
                <g>
                    <g>
                        <g>
                            <g>
                                <path fill="#59A31D"
                                      d="M6.952 5.236c.057.06.108.122.152.187.043.066.08.14.108.224.028.083.043.177.043.282 0 .128-.025.248-.073.362-.048.113-.115.213-.2.298-.086.086-.186.154-.302.204-.116.05-.243.076-.378.076-.136 0-.26-.029-.374-.085-.115-.057-.212-.133-.292-.227-.082-.094-.144-.204-.188-.328-.044-.126-.065-.256-.065-.392 0-.294.048-.563.147-.809.099-.244.227-.463.384-.656.158-.193.333-.362.526-.51.193-.145.38-.267.565-.363.061-.036.108-.032.14.01.033.041.02.094-.041.16-.092.092-.176.202-.25.329-.074.127-.13.256-.167.387-.038.132-.051.258-.04.378.011.12.055.22.135.298l.17.175m-2.233 0c.057.06.107.122.151.187.043.066.08.14.108.224.029.083.043.177.043.282 0 .128-.024.248-.072.362-.049.113-.116.213-.2.298-.086.086-.187.154-.303.204-.116.05-.242.076-.378.076s-.26-.029-.374-.085c-.114-.057-.212-.133-.292-.227-.082-.094-.144-.204-.188-.328-.043-.126-.065-.256-.065-.392 0-.294.049-.563.147-.809.098-.244.227-.463.384-.656.159-.193.333-.362.527-.51.192-.145.38-.267.564-.363.061-.036.108-.032.141.01.033.041.02.094-.042.16-.093.092-.176.202-.25.329-.074.127-.13.256-.168.387-.037.132-.05.258-.039.378.01.12.055.22.135.298l.17.175"
                                      transform="translate(-65 -782) translate(45 167) translate(20 615)"/>
                                <g transform="translate(-65 -782) translate(45 167) translate(20 615) translate(0 .286)">
                                    <mask id="ecjwrjhuqb" fill="#fff">
                                        <use xlink:href="#kj8mvum4ia"/>
                                    </mask>
                                    <path fill="#424242"
                                          d="M17.438 7.047l-.206.207-3.725 3.72-.716.716-2.76 2.76L6.3 10.66l-.391-.379-3.233-3.238c-.582-.577-.9-1.346-.9-2.17 0-.822.318-1.596.904-2.178.577-.58 1.346-.898 2.169-.898s1.592.318 2.174.903l3.028 3.028 1.256-1.252 1.78-1.776c.582-.581 1.355-.903 2.178-.903.819 0 1.592.322 2.174.903.578.577.9 1.351.9 2.174 0 .818-.322 1.592-.9 2.173m1.252-5.604C17.778.527 16.557.021 15.264.021c-1.301 0-2.513.506-3.43 1.422l-1.78 1.776-1.776-1.776C7.362.527 6.145.021 4.848.021c-1.297 0-2.513.506-3.43 1.422C.501 2.356 0 3.577 0 4.873 0 6.168.5 7.388 1.418 8.3l8.524 8.53c.121-.3.278-.6.461-.877l.004-.01.005-.003.326-.465c.086-.112.466-.555.627-.685.022-.018.058-.048.09-.084.057-.059.129-.134.214-.198.013-.008.026-.017.035-.026.036-.031.068-.062.099-.09l.053-.04c.032-.027.068-.053.104-.084l.308-.23c.317-.227.671-.442 1.047-.63.165-.084.335-.16.496-.228l4.88-4.88c.916-.912 1.421-2.132 1.421-3.425 0-1.297-.505-2.518-1.422-3.43"
                                          mask="url(#ecjwrjhuqb)"/>
                                </g>
                                <g transform="translate(-65 -782) translate(45 167) translate(20 615) translate(10.462 13.21)">
                                    <mask id="n26lehvtgd" fill="#fff">
                                        <use xlink:href="#9ruj1m9ufc"/>
                                    </mask>
                                    <path fill="#59A31D"
                                          d="M8.924.128c-.646 0-1.997.244-2.53.35-.505.1-1.167.24-1.659.433-.378.148-.737.293-1.102.475-.338.17-.669.367-.975.59l-.302.223c-.054.039-.092.076-.146.117-.05.04-.095.086-.142.121-.106.08-.194.197-.295.276-.1.079-.444.469-.532.588l-.323.455c-.31.472-.554 1.036-.644 1.595-.033.205-.031.312-.054.472l-.004.023v.247c.022.3.103.647.103.676h.023c.018-.212.34-.967.42-1.125l.198-.372c.12-.2.249-.397.388-.583.093-.125.19-.251.3-.363.025-.026.025-.031.047-.057.113-.137.263-.262.387-.39l.419-.358.051-.039.738-.52c.222-.13.435-.277.66-.403.202-.113.51-.275.707-.355l.531-.236c.276-.108.554-.237.836-.33l.575-.202.29-.097c.087-.029.208-.083.3-.09l-.634.292c-.217.088-.61.294-.838.409l-.61.327c-.192.113-.396.226-.583.351l-.562.388-.083.066-.046.034-.123.106c-.021.018-.023.016-.045.035l-.04.04-.53.555-.59.815-.236.394c-.021.035-.034.063-.053.096-.117.202-.223.414-.319.63l-.046.113c.158.037 1.032.028 1.243-.002l.391-.043c.641-.069 1.38-.247 1.943-.527l.08-.033c.022-.01.047-.023.069-.035.029-.015.041-.025.072-.042l.141-.076c.095-.051.18-.11.267-.167.101-.068.209-.145.3-.226.132-.119.273-.244.384-.382.017-.022.032-.032.049-.054.18-.223.326-.466.486-.703.233-.35.45-.706.64-1.085.408-.818.522-.92 1.034-1.56.02-.026.022-.031.047-.057L9.27.646c.113-.1.258-.201.4-.253.126-.047.19-.07.364-.07-.121-.18-.638-.194-.971-.195h-.139zm-1.701 1.11c-.013.01.019.01-.035.01.013-.01-.02-.01.035-.01z"
                                          mask="url(#n26lehvtgd)"/>
                                </g>
                            </g>
                        </g>
                    </g>
                </g>
            </g>
        </symbol>
    </defs>
</svg>
