<?xml version="1.0" standalone="no"?>
<!DOCTYPE svg PUBLIC "-//W3C//DTD SVG 20010904//EN"
 "http://www.w3.org/TR/2001/REC-SVG-20010904/DTD/svg10.dtd">
<svg version="1.0" xmlns="http://www.w3.org/2000/svg"
 width="64.000000pt" height="64.000000pt" viewBox="0 0 64.000000 64.000000"
 preserveAspectRatio="xMidYMid meet">

<g transform="translate(0.000000,64.000000) scale(0.100000,-0.100000)"
fill="#000000" stroke="none">
<path d="M82 588 c-19 -19 -17 -521 2 -537 9 -8 83 -11 247 -9 l234 3 3 269
c2 209 -1 271 -10 278 -22 13 -462 10 -476 -4z m463 -268 l0 -255 -225 0 -225
0 -3 244 c-2 173 1 248 9 257 10 12 53 14 228 12 l216 -3 0 -255z"/>
<path d="M142 473 c3 -35 5 -38 33 -38 28 0 30 3 30 35 0 32 -3 35 -33 38 -33
3 -33 3 -30 -35z"/>
<path d="M230 470 c0 -6 53 -10 140 -10 87 0 140 4 140 10 0 6 -53 10 -140 10
-87 0 -140 -4 -140 -10z"/>
<path d="M147 404 c-4 -4 -7 -23 -7 -41 0 -33 2 -34 33 -31 29 3 32 6 32 38 0
30 -4 35 -25 38 -14 2 -29 0 -33 -4z"/>
<path d="M230 370 c0 -6 53 -10 140 -10 87 0 140 4 140 10 0 6 -53 10 -140 10
-87 0 -140 -4 -140 -10z"/>
<path d="M140 264 c0 -34 1 -35 33 -32 28 3 32 7 35 36 3 31 2 32 -32 32 -35
0 -36 -1 -36 -36z"/>
<path d="M230 270 c0 -6 53 -10 140 -10 87 0 140 4 140 10 0 6 -53 10 -140 10
-87 0 -140 -4 -140 -10z"/>
<path d="M140 164 c0 -34 1 -35 33 -32 28 3 32 7 35 36 3 31 2 32 -32 32 -35
0 -36 -1 -36 -36z"/>
<path d="M230 170 c0 -6 53 -10 140 -10 87 0 140 4 140 10 0 6 -53 10 -140 10
-87 0 -140 -4 -140 -10z"/>
</g>
</svg>
