<svg class="preview-svg" width="300" height="300" viewBox="0 0 400 400" xmlns="http://www.w3.org/2000/svg" version="1.1" style="border-radius: 4%;background-color: #859594;">             <g id="iconBackground" transform="translate(0 0)">                 <rect width="400" height="400" fill="#859594" rx="0"/>             </g>             <g id="iconFrame" transform="translate(6 6)" style="color: #ffffff;stroke-width: 4px;"><svg width="400" height="400" viewBox="0 0 400 400" version="1.1" xmlns="http://www.w3.org/2000/svg"><g transform="translate(74 44)"><rect id="frame-rect" width="240" height="300" rx="20" transform="translate(0.606)" fill="none" stroke="currentColor" stroke-miterlimit="10"></rect><line id="frame-line" x2="240" transform="translate(0 200)" fill="none" stroke="currentColor" stroke-linecap="butt" stroke-linejoin="round"></line></g></svg></g>             <g id="iconIcon" transform="translate(120 65)" style="color: #ffffff"><svg xmlns="http://www.w3.org/2000/svg" viewBox="0 0 659.22 649.53" width="160" height="160">     <path fill="currentColor" d="M368.48,150.41H280.65a9.86,9.86,0,1,1,0-19.72h87.83a9.86,9.86,0,0,1,0,19.72Z"/>     <path fill="currentColor" d="M368.48,199.7H280.65a9.86,9.86,0,1,1,0-19.72h87.83a9.86,9.86,0,0,1,0,19.72Z"/>     <path fill="currentColor"           d="M324.56,407a9.86,9.86,0,0,1-9.86-9.85h0V78.51a9.86,9.86,0,0,1,19.72,0V397.13A9.85,9.85,0,0,1,324.56,407Z"/>     <path fill="currentColor" d="M368.48,249H280.65a9.86,9.86,0,1,1,0-19.72h87.83a9.86,9.86,0,0,1,0,19.72Z"/>     <path fill="currentColor" d="M368.48,298.27H280.65a9.86,9.86,0,0,1,0-19.72h87.83a9.86,9.86,0,0,1,0,19.72Z"/>     <path fill="currentColor" d="M368.48,347.55H280.65a9.86,9.86,0,1,1,0-19.71h87.83a9.86,9.86,0,1,1,0,19.71Z"/>     <path fill="currentColor"           d="M324.56,585.28a74.32,74.32,0,0,1-54.82-24.72c-12.06-13.6-17.58-30.47-15.52-47.49L267.7,396a9.85,9.85,0,0,1,9.79-8.73h94.15a9.85,9.85,0,0,1,9.79,8.73l13.49,117.12c2.05,17-3.47,33.84-15.55,47.44a74.3,74.3,0,0,1-54.81,24.72ZM286.28,407,273.8,515.37c-1.38,11.4,2.42,22.79,10.69,32.11a53.45,53.45,0,0,0,80.14,0c8.28-9.33,12.07-20.72,10.71-32.06L362.86,407Z"/>     <path fill="currentColor"           d="M324.56,547.88a40.61,40.61,0,0,1-30.27-14c-6.23-7.39-8.81-16.38-7.28-25.32l3.43-20.82a9.85,9.85,0,0,1,9.73-8.25h48.51a9.86,9.86,0,0,1,9.71,8.12l3.72,20.88a31.42,31.42,0,0,1-7.65,25.69,39.89,39.89,0,0,1-29.9,13.73Zm-16-48.7-2.08,12.62a11.49,11.49,0,0,0,2.91,9.34,19.84,19.84,0,0,0,30.14.17,12,12,0,0,0,3.17-9.63l-2.24-12.5Z"/> </svg></g>             <g id="iconText" transform="translate(0 300)" style="color: #ffffff;font-size: 60px;font-family: arial;text-transform: uppercase;">                 <text id="iconText" x="200" y="0" fill="currentColor" dominant-baseline="middle" text-anchor="middle">7z</text>             </g>         </svg>