<svg class="preview-svg" width="300" height="300" viewBox="0 0 400 400" xmlns="http://www.w3.org/2000/svg" version="1.1" style="border-radius: 4%;background-color: #859594;">             <g id="iconBackground" transform="translate(0 0)">                 <rect width="400" height="400" fill="#859594" rx="0"/>             </g>             <g id="iconFrame" transform="translate(6 6)" style="color: #ffffff;stroke-width: 4px;"><svg width="400" height="400" viewBox="0 0 400 400" version="1.1" xmlns="http://www.w3.org/2000/svg"><g transform="translate(74 44)"><rect id="frame-rect" width="240" height="300" rx="20" transform="translate(0.606)" fill="none" stroke="currentColor" stroke-miterlimit="10"></rect><line id="frame-line" x2="240" transform="translate(0 200)" fill="none" stroke="currentColor" stroke-linecap="butt" stroke-linejoin="round"></line></g></svg></g>             <g id="iconIcon" transform="translate(120 65)" style="color: #ffffff"><svg xmlns="http://www.w3.org/2000/svg" viewBox="0 0 659.22 649.53" width="160" height="160"><defs><style>.cls-1{fill:#231f20;}</style></defs><path fill="currentColor" d="M266.47,53.44V218.52l117.91-70.73Zm30.44,63.34,34.27,27.43-34.27,20.56Z"/><rect fill="currentColor" x="464.31" y="343.84" width="76.09" height="30.44"/><rect fill="currentColor" x="494.75" y="404.71" width="30.44" height="30.44"/><rect fill="currentColor" x="555.63" y="404.71" width="30.44" height="30.44"/><rect fill="currentColor" x="464.31" y="465.59" width="106.53" height="30.44"/><rect fill="currentColor" x="114.28" y="404.71" width="76.09" height="30.44"/><rect fill="currentColor" x="129.5" y="343.84" width="30.44" height="30.44"/><rect fill="currentColor" x="68.62" y="343.84" width="30.44" height="30.44"/><rect fill="currentColor" x="83.84" y="282.96" width="106.53" height="30.44"/><rect fill="currentColor" x="433.88" y="130.77" width="106.53" height="30.44"/><rect fill="currentColor" x="114.28" y="130.77" width="106.53" height="30.44"/><rect fill="currentColor" x="479.53" y="191.65" width="30.44" height="30.44"/><rect fill="currentColor" x="540.41" y="191.65" width="45.66" height="30.44"/><rect fill="currentColor" x="68.62" y="191.65" width="30.44" height="30.44"/><rect fill="currentColor" x="129.5" y="191.65" width="45.66" height="30.44"/><path fill="currentColor" d="M251.25,556.9H403.44V283H251.25Zm30.44-91.31h15.22V381.35L373,330.61v89.32H342.56V387.5l-15.22,10.13V496H281.69Z"/></svg></g>             <g id="iconText" transform="translate(0 300)" style="color: #ffffff;font-size: 60px;font-family: arial;text-transform: uppercase;">                 <text id="iconText" x="200" y="0" fill="currentColor" dominant-baseline="middle" text-anchor="middle">aac</text>             </g>         </svg>