<svg class="preview-svg" width="300" height="300" viewBox="0 0 400 400" xmlns="http://www.w3.org/2000/svg" version="1.1" style="border-radius: 4%;background-color: #859594;">             <g id="iconBackground" transform="translate(0 0)">                 <rect width="400" height="400" fill="#859594" rx="0"/>             </g>             <g id="iconFrame" transform="translate(6 6)" style="color: #ffffff;stroke-width: 4px;"><svg width="400" height="400" viewBox="0 0 400 400" version="1.1" xmlns="http://www.w3.org/2000/svg"><g transform="translate(74 44)"><rect id="frame-rect" width="240" height="300" rx="20" transform="translate(0.606)" fill="none" stroke="currentColor" stroke-miterlimit="10"></rect><line id="frame-line" x2="240" transform="translate(0 200)" fill="none" stroke="currentColor" stroke-linecap="butt" stroke-linejoin="round"></line></g></svg></g>             <g id="iconIcon" transform="translate(120 65)" style="color: #ffffff"><svg xmlns="http://www.w3.org/2000/svg" viewBox="0 0 659.22 649.53" width="160" height="160"><path fill="currentColor" d="M296.18,331.18c0-60.71.09-121.42-.09-182.13,0-14,1.6-26.39,19.64-26.17,17.59.21,19.83,12.1,19.81,26.36q-.24,182.92.08,365.86c0,15.2-4.82,25.91-21,25.64C299,540.47,296,529.09,296,515.22,296.41,453.88,296.2,392.53,296.18,331.18Z"/><path fill="currentColor" d="M408,333.16c0,41.42-.22,82.84.11,124.26.12,14.62-3.83,26.38-20.26,26.51-16.75.12-20.13-12-20.09-26.45q.31-125.67,0-251.34c-.05-14.38,2.91-26.8,19.59-26.91,17.6-.1,20.95,12.63,20.81,27.83C407.71,249.09,408,291.13,408,333.16Z"/><path fill="currentColor" d="M262.73,332.27c0,42.22-.31,84.45.17,126.66.16,14.31-4.24,24.72-19.52,24.95s-19.86-10-19.81-24.42q.52-127.62,0-255.24c-.07-14.36,4.12-24.9,19.37-25,14.9-.07,20.2,9.75,20,24.45C262.37,246.55,262.73,289.41,262.73,332.27Z"/><path fill="currentColor" d="M439.78,333.12c0-23.65.18-47.3,0-70.94-.12-13.49,6.12-20.26,19.6-20.21,13.22.05,20.46,6.84,20.53,20q.31,69.74,0,139.47c-.09,13.87-8.6,21.56-21.93,21.12s-18.31-9.55-18.19-22.29C439.93,377.85,439.77,355.48,439.78,333.12Z"/><path fill="currentColor" d="M190.13,331.21c0,23-.37,46.09.14,69.12.3,13.41-5.86,21.47-18.58,21.77-13.54.33-20.68-7.6-20.61-21.92.24-46.08.17-92.16,0-138.24,0-13.5,7-20.62,19.76-20.63s19.58,7.16,19.35,20.79C189.85,285.13,190.12,308.17,190.13,331.21Z"/></svg></g>             <g id="iconText" transform="translate(0 300)" style="color: #ffffff;font-size: 60px;font-family: arial;text-transform: uppercase;">                 <text id="iconText" x="200" y="0" fill="currentColor" dominant-baseline="middle" text-anchor="middle">aiff</text>             </g>         </svg>