<svg class="preview-svg" width="300" height="300" viewBox="0 0 400 400" xmlns="http://www.w3.org/2000/svg" version="1.1" style="border-radius: 4%;background-color: #6AB86F;">             <g id="iconBackground" transform="translate(0 0)">                 <rect width="400" height="400" fill="#6AB86F" rx="0"/>             </g>             <g id="iconFrame" transform="translate(6 6)" style="color: #ffffff;stroke-width: 4px;"><svg width="400" height="400" viewBox="0 0 400 400" version="1.1" xmlns="http://www.w3.org/2000/svg"><g transform="translate(74 44)"><rect id="frame-rect" width="240" height="300" rx="20" transform="translate(0.606)" fill="none" stroke="currentColor" stroke-miterlimit="10"></rect><line id="frame-line" x2="240" transform="translate(0 200)" fill="none" stroke="currentColor" stroke-linecap="butt" stroke-linejoin="round"></line></g></svg></g>             <g id="iconIcon" transform="translate(120 65)" style="color: #ffffff"><svg xmlns="http://www.w3.org/2000/svg" viewBox="0 0 659.22 649.53" width="160" height="160"><path fill="currentColor" d="M375.81,554l-40.05-37c5.15-6.14,10.18-12,15.12-18,29.39-35.58,52-74.69,62.64-120.06,10.43-44.47,7.19-88.19-7.36-131.21-13.93-41.18-36.43-77.52-63.57-111.17l-6.15-7.63,42-35.2c7.06,9,14.22,17.76,20.92,26.83,29.69,40.22,53,83.68,65.84,132.26,16.44,62.39,12.22,123.54-12.1,183.31-16.37,40.22-40.32,75.61-68.7,108.2C381.7,547.42,378.91,550.49,375.81,554Z"/><path fill="currentColor" d="M313.42,497.18l-41.3-35.45c4.67-6,9.31-11.82,13.75-17.76,19.52-26.11,34.6-54.36,41.74-86.47,8.62-38.78,3.79-76-12.53-112-11.26-24.79-26.84-46.68-44.83-67-2.09-2.37-4.25-4.68-6.75-7.43l40.24-37.92c8.82,10.67,17.73,20.76,25.88,31.43,23.78,31.13,41.67,65.27,50.73,103.62,12.4,52.52,5.82,103.05-16.55,151.82C350.94,448.13,333.67,473.28,313.42,497.18Z"/><path fill="currentColor" d="M233.09,183.3c23.16,21.8,42.47,45.72,55.58,74.29a155.84,155.84,0,0,1,14.65,60.15c1.18,33.95-8.4,65.12-25.74,93.89-8.63,14.33-18.77,27.76-28.51,42L207,417.51c4.86-6.47,9.67-12.58,14.16-18.92C233.53,381,243,362.18,246.7,340.72c4.06-23.38-.32-45.28-10.86-66.2-9.1-18.06-22-33.25-36.25-47.38-1.17-1.16-2.53-2.13-4.13-3.46Z"/></svg></g>             <g id="iconText" transform="translate(0 300)" style="color: #ffffff;font-size: 60px;font-family: arial;text-transform: uppercase;">                 <text id="iconText" x="200" y="0" fill="currentColor" dominant-baseline="middle" text-anchor="middle">amr</text>             </g>         </svg>