<svg class="preview-svg" width="300" height="300" viewBox="0 0 400 400" xmlns="http://www.w3.org/2000/svg" version="1.1" style="border-radius: 4%;background-color: #6AB86F;">             <g id="iconBackground" transform="translate(0 0)">                 <rect width="400" height="400" fill="#6AB86F" rx="0"/>             </g>             <g id="iconFrame" transform="translate(6 6)" style="color: #ffffff;stroke-width: 4px;"><svg width="400" height="400" viewBox="0 0 400 400" version="1.1" xmlns="http://www.w3.org/2000/svg"><g transform="translate(74 44)"><rect id="frame-rect" width="240" height="300" rx="20" transform="translate(0.606)" fill="none" stroke="currentColor" stroke-miterlimit="10"></rect><line id="frame-line" x2="240" transform="translate(0 200)" fill="none" stroke="currentColor" stroke-linecap="butt" stroke-linejoin="round"></line></g></svg></g>             <g id="iconIcon" transform="translate(120 65)" style="color: #ffffff"><svg xmlns="http://www.w3.org/2000/svg" viewBox="0 0 659.22 649.53" width="160" height="160"><title>ext </title><path fill="currentColor" d="M447.1,440.61a53.08,53.08,0,0,1,33.62,11.55l-.35-122.62a2.26,2.26,0,0,1,2.24-2.29,2.38,2.38,0,0,1,.91.18,87.38,87.38,0,0,1,52.32,62.72,1.41,1.41,0,0,1-.71,1.87,1.43,1.43,0,0,1-1.88-.71,39.54,39.54,0,0,0-37.36-19.42V479.58c.1,1.11.2,2.23.2,3.36a46.06,46.06,0,0,1-49,42.29,46,46,0,0,1-49-42.29A46,46,0,0,1,447.1,440.61Z"/><path fill="currentColor" d="M224,337a97.68,97.68,0,0,1,61.73,21.29l-.59-225.64a4.21,4.21,0,0,1,5.79-3.89,160.82,160.82,0,0,1,96.31,115.46,2.66,2.66,0,0,1-4.78,2.14,72.84,72.84,0,0,0-68.8-35.76V408.67c.18,2,.37,4.09.37,6.17,0,42.91-40.43,77.84-90.11,77.84s-90.11-34.93-90.11-77.84S174.26,337,224,337Z"/></svg></g>             <g id="iconText" transform="translate(0 300)" style="color: #ffffff;font-size: 60px;font-family: arial;text-transform: uppercase;">                 <text id="iconText" x="200" y="0" fill="currentColor" dominant-baseline="middle" text-anchor="middle">au</text>             </g>         </svg>