<svg class="preview-svg" width="300" height="300" viewBox="0 0 400 400" xmlns="http://www.w3.org/2000/svg" version="1.1" style="border-radius: 4%;background-color: #859594;">             <g id="iconBackground" transform="translate(0 0)">                 <rect width="400" height="400" fill="#859594" rx="0"/>             </g>             <g id="iconFrame" transform="translate(6 6)" style="color: #ffffff;stroke-width: 4px;"><svg width="400" height="400" viewBox="0 0 400 400" version="1.1" xmlns="http://www.w3.org/2000/svg"><g transform="translate(74 44)"><rect id="frame-rect" width="240" height="300" rx="20" transform="translate(0.606)" fill="none" stroke="currentColor" stroke-miterlimit="10"></rect><line id="frame-line" x2="240" transform="translate(0 200)" fill="none" stroke="currentColor" stroke-linecap="butt" stroke-linejoin="round"></line></g></svg></g>             <g id="iconIcon" transform="translate(120 65)" style="color: #ffffff"><svg xmlns="http://www.w3.org/2000/svg" viewBox="0 0 659.22 649.53" width="160" height="160">     <path fill="currentColor"           d="M51.54,325.91C51.54,471.51,170,590,315.61,590H530.18V557h-87c81.3-45.08,136.51-131.71,136.51-231.07,0-145.61-118.47-264.08-264.08-264.08S51.54,180.3,51.54,325.91ZM315.61,94.84c127.42,0,231.07,103.65,231.07,231.07S443,557,315.61,557,84.55,453.33,84.55,325.91,188.2,94.84,315.61,94.84Z"/>     <path fill="currentColor"           d="M497.17,226.88a82.53,82.53,0,0,0-165,0V309.4h82.52A82.62,82.62,0,0,0,497.17,226.88Zm-132,0a49.52,49.52,0,1,1,49.51,49.51H365.13Z"/>     <path fill="currentColor"           d="M414.64,507.46a82.53,82.53,0,1,0,0-165H332.12v82.53A82.62,82.62,0,0,0,414.64,507.46Zm-49.51-132h49.51a49.52,49.52,0,1,1-49.51,49.52Z"/>     <path fill="currentColor"           d="M134.06,424.94a82.53,82.53,0,0,0,165.05,0V342.41H216.58A82.62,82.62,0,0,0,134.06,424.94Zm132,0a49.52,49.52,0,1,1-49.52-49.52H266.1Z"/>     <path fill="currentColor"           d="M216.58,309.4h82.53V226.88a82.53,82.53,0,1,0-82.53,82.52Zm0-132a49.57,49.57,0,0,1,49.52,49.51v49.51H216.58a49.51,49.51,0,0,1,0-99Z"/> </svg></g>             <g id="iconText" transform="translate(0 300)" style="color: #ffffff;font-size: 60px;font-family: arial;text-transform: uppercase;">                 <text id="iconText" x="200" y="0" fill="currentColor" dominant-baseline="middle" text-anchor="middle">avi</text>             </g>         </svg>