<svg class="preview-svg" width="300" height="300" viewBox="0 0 400 400" xmlns="http://www.w3.org/2000/svg" version="1.1" style="border-radius: 4%;background-color: #EF3C54;">             <g id="iconBackground" transform="translate(0 0)">                 <rect width="400" height="400" fill="#EF3C54" rx="0"/>             </g>             <g id="iconFrame" transform="translate(6 6)" style="color: #ffffff;stroke-width: 4px;"><svg width="400" height="400" viewBox="0 0 400 400" version="1.1" xmlns="http://www.w3.org/2000/svg"><g transform="translate(74 44)"><rect id="frame-rect" width="240" height="300" rx="20" transform="translate(0.606)" fill="none" stroke="currentColor" stroke-miterlimit="10"></rect><line id="frame-line" x2="240" transform="translate(0 200)" fill="none" stroke="currentColor" stroke-linecap="butt" stroke-linejoin="round"></line></g></svg></g>             <g id="iconIcon" transform="translate(120 65)" style="color: #ffffff"><svg xmlns="http://www.w3.org/2000/svg" viewBox="0 0 659.22 649.53" width="160" height="160">     <path fill="currentColor"           d="M497.63,424.69h9.84c4.63,0,8.68-.58,11.58-2.31,2.89-1.16,4.63-3.48,6.37-5.21a18,18,0,0,0,2.89-6.95,33.2,33.2,0,0,0,.58-7v-52.1a31.19,31.19,0,0,1,4.05-15.63,30.12,30.12,0,0,1,11-9.85,57.45,57.45,0,0,1,13.9-5.21,65.33,65.33,0,0,1,13.89-1.73v-.58A134,134,0,0,1,557.84,317a36,36,0,0,1-13.9-4.63,31.43,31.43,0,0,1-11-10.42c-2.89-4.63-4.05-11-4.05-19.11V233.64a28.08,28.08,0,0,0-.58-6.94c-.58-2.9-1.16-5.21-2.89-6.95-1.16-2.32-3.48-4.05-6.37-5.21-2.9-1.74-6.37-2.32-11.58-2.32h-9.84V155.49h41.1a60.88,60.88,0,0,1,17.37,2.89,64.36,64.36,0,0,1,16.79,8.11c5.21,3.47,9.26,8.68,12.73,14.47s4.64,12.74,4.64,20.84v64.84c0,5.21,1.15,9.27,3.47,12.74a30.74,30.74,0,0,0,8.1,6.95,32,32,0,0,0,9.85,2.89,49.82,49.82,0,0,0,8.68.58v55a49.82,49.82,0,0,0-8.68.58c-3.48.58-6.95,1.16-9.85,2.89-3.47,1.16-5.78,3.48-8.1,6.37s-3.47,6.37-3.47,11v67.74a46.07,46.07,0,0,1-4.64,20.84,50.88,50.88,0,0,1-12.73,14.47,56.57,56.57,0,0,1-16.79,8.11,60.88,60.88,0,0,1-17.37,2.89h-41.1Z"/>     <path fill="currentColor"           d="M384.74,339.59H460v56.73a117,117,0,0,1-2.32,24.9c-1.74,8.1-4.05,15.63-7.52,22a65.86,65.86,0,0,1-13.9,17.37c-5.79,5.21-12.74,8.68-20.26,11.57a78.31,78.31,0,0,1-17.95,4.06,116.4,116.4,0,0,1-13.31.58V445a24.72,24.72,0,0,0,12.73-3.47,43.85,43.85,0,0,0,9.84-7.53,40.7,40.7,0,0,0,6.95-10.42,31,31,0,0,0,2.9-12.15H385.32V339.59Z"/>     <rect fill="currentColor" x="384.74" y="223.8" width="75.26" height="71.21"/>     <rect fill="currentColor" x="248.11" y="223.8" width="75.26" height="71.21"/>     <rect fill="currentColor" x="248.11" y="339.59" width="75.26" height="71.21"/>     <path fill="currentColor" d="M210.48,210.49H197.74c-4.05,0-7.52.58-9.84,2.31-2.32,1.16-4.05,3.48-5.21,5.21a32.62,32.62,0,0,0-2.32,7,33.2,33.2,0,0,0-.58,6.95V284c0,6.37-1.15,11.58-4,15.63a29.92,29.92,0,0,1-11,9.84,56.71,56.71,0,0,1-13.89,5.21,64.77,64.77,0,0,1-13.9,1.74V317a134,134,0,0,1,13.9,1.16,35.77,35.77,0,0,1,13.89,4.63,31.26,31.26,0,0,1,11,10.42c2.9,4.63,4,11,4,18.53V401a28.08,28.08,0,0,0,.58,6.94c.58,2.9,1.16,5.21,2.9,7,1.16,2.32,3.47,4,6.37,5.21a29,29,0,0,0,11.58,2.32h9.84v57.31H170a60.75,60.75,0,0,1-17.36-2.89,64.36,64.36,0,0,1-16.79-8.11c-5.21-3.47-9.27-8.68-12.74-14.47s-4.63-12.74-4.63-20.84V368.54q0-7.83-3.48-12.16a25.58,25.58,0,0,0-8.68-6.95A36.72,36.72,0,0,0,95.85,346a47.22,47.22,0,0,0-8.11-.58v-55a44,44,0,0,0,8.11-.58c3.47-.58,7-1.16,9.84-2.89a30.69,30.69,0,0,0,8.69-6.37c2.89-2.9,3.47-6.37,3.47-11V201.8A46.2,46.2,0,0,1,122.48,181a50.91,50.91,0,0,1,12.74-14.47A56.57,56.57,0,0,1,152,158.38a60.81,60.81,0,0,1,17.36-2.89h41.11Z"/> </svg></g>             <g id="iconText" transform="translate(0 300)" style="color: #ffffff;font-size: 60px;font-family: arial;text-transform: uppercase;">                 <text id="iconText" x="200" y="0" fill="currentColor" dominant-baseline="middle" text-anchor="middle">css</text>             </g>         </svg>