<svg class="preview-svg" width="300" height="300" viewBox="0 0 400 400" xmlns="http://www.w3.org/2000/svg" version="1.1" style="border-radius: 4%;background-color: #859594;">             <g id="iconBackground" transform="translate(0 0)">                 <rect width="400" height="400" fill="#859594" rx="0"/>             </g>             <g id="iconFrame" transform="translate(6 6)" style="color: #ffffff;stroke-width: 4px;"><svg width="400" height="400" viewBox="0 0 400 400" version="1.1" xmlns="http://www.w3.org/2000/svg"><g transform="translate(74 44)"><rect id="frame-rect" width="240" height="300" rx="20" transform="translate(0.606)" fill="none" stroke="currentColor" stroke-miterlimit="10"></rect><line id="frame-line" x2="240" transform="translate(0 200)" fill="none" stroke="currentColor" stroke-linecap="butt" stroke-linejoin="round"></line></g></svg></g>             <g id="iconIcon" transform="translate(120 65)" style="color: #ffffff"><svg xmlns="http://www.w3.org/2000/svg" viewBox="0 0 659.22 649.53" width="160" height="160">     <path fill="none" stroke="currentColor" stroke-linecap="round" stroke-linejoin="round" stroke-width="19.67px" d="M79,336.83l98.75-179.21h280.4l92.65,187.74v189h-473S82.69,336.83,79,336.83Z"/>     <path fill="none" stroke="currentColor" stroke-linecap="round" stroke-linejoin="round" stroke-width="19.67px" d="M124.14,395.35H509.39v91.43H121.71S125.36,395.35,124.14,395.35Z"/>     <rect fill="currentColor" x="153.4" y="427.05" width="206.03" height="31.7" rx="15.85" ry="15.85"/>     <circle fill="currentColor" cx="403.43" cy="443.65" r="14.02"/>     <circle fill="currentColor" cx="460.14" cy="443.65" r="14.02"/> </svg></g>             <g id="iconText" transform="translate(0 300)" style="color: #ffffff;font-size: 60px;font-family: arial;text-transform: uppercase;">                 <text id="iconText" x="200" y="0" fill="currentColor" dominant-baseline="middle" text-anchor="middle">dmg</text>             </g>         </svg>