<svg class="preview-svg" width="300" height="300" viewBox="0 0 400 400" xmlns="http://www.w3.org/2000/svg" version="1.1" style="background-color: #004faf;">             <g id="iconBackground" transform="translate(0 0)">                 <rect width="400" height="400" fill="#004faf" rx="0"/>             </g>             <g id="iconFrame" transform="translate(6 6)" style="color: #ffffff;stroke-width: 4px;"><svg width="400" height="400" viewBox="0 0 400 400" version="1.1" xmlns="http://www.w3.org/2000/svg"><g transform="translate(74 44)"><rect id="frame-rect" width="240" height="300" rx="20" transform="translate(0.606)" fill="none" stroke="currentColor" stroke-miterlimit="10"></rect><line id="frame-line" x2="240" transform="translate(0 200)" fill="none" stroke="currentColor" stroke-linecap="butt" stroke-linejoin="round"></line></g></svg></g>             <g id="iconIcon" transform="translate(120 65)" style="color: #ffffff"><svg xmlns="http://www.w3.org/2000/svg" viewBox="0 0 659.22 649.53" width="160" height="160">     <path fill="currentColor"           d="M74.18,156.33h56l21.37,81.89,25-82.49h47.27l25.29,83.09,22-82.49h55.1L275.89,320.41H226.52L200,235.81l-27.09,84.6H123.86Z"/>     <line fill="none" stroke="currentColor" stroke-miterlimit="10" stroke-width="12.51px" x1="340.11" y1="169.12" x2="592.03" y2="169.12"/>     <line fill="none" stroke="currentColor" stroke-miterlimit="10" stroke-width="12.51px" x1="322.5" y1="234.66" x2="592.03" y2="234.66"/>     <line fill="none" stroke="currentColor" stroke-miterlimit="10" stroke-width="12.51px" x1="309.42" y1="300.2" x2="592.03" y2="300.2"/>     <line fill="none" stroke="currentColor" stroke-miterlimit="10" stroke-width="12.51px" x1="76.59" y1="354.67" x2="592.03" y2="354.67"/>     <line fill="none" stroke="currentColor" stroke-miterlimit="10" stroke-width="12.51px" x1="76.59" y1="419.29" x2="592.03" y2="419.29"/>     <line fill="none" stroke="currentColor" stroke-miterlimit="10" stroke-width="12.51px" x1="76.59" y1="486.68" x2="592.03" y2="486.68"/>     <line fill="none" stroke="currentColor" stroke-miterlimit="10" stroke-width="12.51px" x1="76.59" y1="545.76" x2="592.03" y2="545.76"/> </svg></g>             <g id="iconText" transform="translate(0 300)" style="color: #ffffff;font-size: 60px;font-family: arial;text-transform: uppercase;">                 <text id="iconText" x="200" y="0" fill="currentColor" dominant-baseline="middle" text-anchor="middle">doc</text>             </g>         </svg>