<svg class="preview-svg" width="300" height="300" viewBox="0 0 400 400" xmlns="http://www.w3.org/2000/svg" version="1.1" style="border-radius: 4%;background-color: #BAAFA9;">             <g id="iconBackground" transform="translate(0 0)">                 <rect width="400" height="400" fill="#BAAFA9" rx="0"/>             </g>             <g id="iconFrame" transform="translate(6 6)" style="color: #ffffff;stroke-width: 4px;"><svg width="400" height="400" viewBox="0 0 400 400" version="1.1" xmlns="http://www.w3.org/2000/svg"><g transform="translate(74 44)"><rect id="frame-rect" width="240" height="300" rx="20" transform="translate(0.606)" fill="none" stroke="currentColor" stroke-miterlimit="10"></rect><line id="frame-line" x2="240" transform="translate(0 200)" fill="none" stroke="currentColor" stroke-linecap="butt" stroke-linejoin="round"></line></g></svg></g>             <g id="iconIcon" transform="translate(120 65)" style="color: #ffffff"><svg xmlns="http://www.w3.org/2000/svg" viewBox="0 0 512 512" width="160" height="160">     <g fill="currentColor">         <path d="M468 43a148 148 0 00-237 171L1 444l66 66 27-27 29 29 62-62-29-29 21-22 29 29 63-62-29-29 57-58a148 148 0 00171-27c57-58 57-151 0-209zm-22 188c-38 38-97 45-144 17l-10-6-95 95 29 29-20 20-29-29-64 64 30 29-20 19-29-29-27 27-23-23 225-225-6-11a118 118 0 11184 22z"/>         <path d="M357 84a49 49 0 0070 70 49 49 0 00-70-70zm48 48a19 19 0 11-27-27 19 19 0 0127 27z"/>     </g> </svg></g>             <g id="iconText" transform="translate(0 300)" style="color: #ffffff;font-size: 60px;font-family: arial;text-transform: uppercase;">                 <text id="iconText" x="200" y="0" fill="currentColor" dominant-baseline="middle" text-anchor="middle">key</text>             </g>         </svg>