<svg class="preview-svg" width="300" height="300" viewBox="0 0 400 400" xmlns="http://www.w3.org/2000/svg" version="1.1" style="border-radius: 4%;background-color: #F6B701;">             <g id="iconBackground" transform="translate(0 0)">                 <rect width="400" height="400" fill="#F6B701" rx="0"/>             </g>             <g id="iconFrame" transform="translate(6 6)" style="color: #ffffff;stroke-width: 4px;"><svg width="400" height="400" viewBox="0 0 400 400" version="1.1" xmlns="http://www.w3.org/2000/svg"><g transform="translate(74 44)"><rect id="frame-rect" width="240" height="300" rx="20" transform="translate(0.606)" fill="none" stroke="currentColor" stroke-miterlimit="10"></rect><line id="frame-line" x2="240" transform="translate(0 200)" fill="none" stroke="currentColor" stroke-linecap="butt" stroke-linejoin="round"></line></g></svg></g>             <g id="iconIcon" transform="translate(120 65)" style="color: #ffffff"><svg xmlns="http://www.w3.org/2000/svg" viewBox="0 0 659.22 649.53" width="160" height="160">     <path fill="currentColor"           d="M184.64,436.19H536.28a15.19,15.19,0,0,0,14.85-14.85V126.69a15.18,15.18,0,0,0-14.85-14.85H108A15.19,15.19,0,0,0,93.1,126.69v294A15.2,15.2,0,0,0,108,435.5H184.3v.69ZM108,465.55c-24.18,0-44.91-20-44.91-44.91V126.69A44.82,44.82,0,0,1,108,81.78H536.28a44.82,44.82,0,0,1,44.91,44.91v294c0,24.18-20,44.91-44.91,44.91H377.73V510.8h66a5.46,5.46,0,0,1,5.53,5.53V525a5.46,5.46,0,0,1-5.53,5.53H200.53A5.46,5.46,0,0,1,195,525v-8.63a5.46,5.46,0,0,1,5.53-5.53h66V465.55H108Z"/>     <path fill="currentColor"           d="M275.49,182h0l16.58,9.32,120.2,69.43a15.53,15.53,0,0,1,0,26.6c-5.87,3.46-11.39,6.56-17.27,10L274.8,366.76c-10,5.87-23.15-1.73-23.15-13.13V195.08C252,181.27,266.51,176.78,275.49,182Z"/> </svg></g>             <g id="iconText" transform="translate(0 300)" style="color: #ffffff;font-size: 60px;font-family: arial;text-transform: uppercase;">                 <text id="iconText" x="200" y="0" fill="currentColor" dominant-baseline="middle" text-anchor="middle">m4v</text>             </g>         </svg>