<svg class="preview-svg" width="300" height="300" viewBox="0 0 400 400" xmlns="http://www.w3.org/2000/svg" version="1.1" style="border-radius: 4%;background-color: #4F73BA;">             <g id="iconBackground" transform="translate(0 0)">                 <rect width="400" height="400" fill="#4F73BA" rx="0"/>             </g>             <g id="iconFrame" transform="translate(6 6)" style="color: #ffffff;stroke-width: 4px;"><svg width="400" height="400" viewBox="0 0 400 400" version="1.1" xmlns="http://www.w3.org/2000/svg"><g transform="translate(74 44)"><rect id="frame-rect" width="240" height="300" rx="20" transform="translate(0.606)" fill="none" stroke="currentColor" stroke-miterlimit="10"></rect><line id="frame-line" x2="240" transform="translate(0 200)" fill="none" stroke="currentColor" stroke-linecap="butt" stroke-linejoin="round"></line></g></svg></g>             <g id="iconIcon" transform="translate(120 65)" style="color: #ffffff"><svg xmlns="http://www.w3.org/2000/svg" viewBox="0 0 659.22 649.53" width="160" height="160">     <path fill="currentColor" d="M178.43,271.28h0a29.6,29.6,0,0,0-.66,59.19l.33,6v-6a29.6,29.6,0,0,0,.33-59.19Z"/>     <path fill="currentColor" d="M252,344.88h0a29.59,29.59,0,1,0-.67,59.18l.34,6v-6a29.59,29.59,0,0,0,.33-59.18Z"/>     <path fill="currentColor" d="M325,330.47l.33,6v-6a29.6,29.6,0,0,0,.35-59.2h0a29.6,29.6,0,0,0-.67,59.2Z"/>     <path fill="currentColor"           d="M222.1,226.94a29.64,29.64,0,0,0,29.26,29.93l.34,6v-6a29.7,29.7,0,0,0,29.59-29.26A29.6,29.6,0,0,0,252,197.69h0A29.75,29.75,0,0,0,222.1,226.94Z"/>     <path fill="currentColor"           d="M468.48,319.81h0a215.25,215.25,0,0,1-8.33,43.36c15,88.78,75.2,155.35,147,155.35v-12C530.66,506.49,468.48,422.74,468.48,319.81Z"/>     <path fill="currentColor"           d="M251.64,95.25c-112.08,0-204.3,91.2-205.55,203.31C44.82,411.93,136,505.2,249.38,506.47l2.35,0c112.09,0,204.3-91.2,205.56-203.31A205.62,205.62,0,0,0,254,95.27Zm169,207.52c-1,92.12-76.81,167.07-168.91,167.07l-1.94,0c-93.16-1-168.1-77.7-167-170.85,1-92.12,76.81-167.07,168.91-167.07l1.94,0C346.75,133,421.69,209.61,420.64,302.77Z"/>     <path fill="currentColor"           d="M251.65,143.94c-85.54,0-155.91,69.61-156.88,155.17-1,86.51,68.63,157.7,155.16,158.68h1.8c85.54,0,155.91-69.61,156.87-155.17,1-86.52-68.62-157.7-155.15-158.68ZM178.09,342.5h-.46a41.87,41.87,0,1,1,.46,0Zm73.61,73.6h-.48a41.88,41.88,0,1,1,.48,0Zm73.58-156.86a41.63,41.63,0,1,1,0,83.26h-.45a41.63,41.63,0,0,1,.45-83.26Zm-32-31.5a41.77,41.77,0,0,1-41.62,41.17h-.48a41.64,41.64,0,1,1,42.1-41.16Z"/> </svg></g>             <g id="iconText" transform="translate(0 300)" style="color: #ffffff;font-size: 60px;font-family: arial;text-transform: uppercase;">                 <text id="iconText" x="200" y="0" fill="currentColor" dominant-baseline="middle" text-anchor="middle">mpeg</text>             </g>         </svg>