<svg class="preview-svg" width="300" height="300" viewBox="0 0 400 400" xmlns="http://www.w3.org/2000/svg" version="1.1" style="border-radius: 4%;background-color: #859594;">             <g id="iconBackground" transform="translate(0 0)">                 <rect width="400" height="400" fill="#859594" rx="0"/>             </g>             <g id="iconFrame" transform="translate(6 6)" style="color: #ffffff;stroke-width: 4px;"><svg width="400" height="400" viewBox="0 0 400 400" version="1.1" xmlns="http://www.w3.org/2000/svg"><g transform="translate(74 44)"><rect id="frame-rect" width="240" height="300" rx="20" transform="translate(0.606)" fill="none" stroke="currentColor" stroke-miterlimit="10"></rect><line id="frame-line" x2="240" transform="translate(0 200)" fill="none" stroke="currentColor" stroke-linecap="butt" stroke-linejoin="round"></line></g></svg></g>             <g id="iconIcon" transform="translate(120 65)" style="color: #ffffff"><svg xmlns="http://www.w3.org/2000/svg" viewBox="0 0 659.22 649.53" width="160" height="160"><title>PPS </title><path fill="currentColor" d="M421.84,389.51c-36.29,48.09-83.47,72.23-141.8,70.16-63.52-2.26-111-33.12-144-91.05,33.78-15,67.61-26.85,98.27-44.31,35.25-20.08,64.23-19.07,96.46,6.87C358.41,353.41,390.65,369.87,421.84,389.51Z"/><path fill="currentColor" d="M435.85,371.54c-44.79-28-87-54.09-128.74-80.88-4.91-3.15-10.32-10.16-10.4-15.46-.79-49.62-.47-99.26-.47-151.11,57.45,2.82,100.79,27.59,131.14,73C464.22,252.19,464.44,310.44,435.85,371.54Z"/><path fill="currentColor" d="M129.74,350.24c-43.52-98.19,30.88-215,143.39-223.78,0,29.68.32,59.22-.1,88.75-.35,24,6.38,53.1-4.73,70.6-10.5,16.54-40.09,21.07-61.42,30.59C181.22,327.85,155.43,339,129.74,350.24Z"/><path fill="currentColor" d="M382,529.9c5.78-12,10.07-25.06,17.6-35.84,39.08-55.87,78.82-111.27,118.71-166.56,8.44-11.7,17.24-23.73,28.19-32.81,6.43-5.33,17.43-5.13,26.37-7.42.88,9.27,6,21.61,1.94,27.32-24.81,34.57-51.58,67.74-78,101.15-22.26,28.17-44.29,56.56-67.62,83.82-11.61,13.57-25.91,24.84-39,37.15Z"/></svg></g>             <g id="iconText" transform="translate(0 300)" style="color: #ffffff;font-size: 60px;font-family: arial;text-transform: uppercase;">                 <text id="iconText" x="200" y="0" fill="currentColor" dominant-baseline="middle" text-anchor="middle">pps</text>             </g>         </svg>