<svg class="preview-svg" width="300" height="300" viewBox="0 0 400 400" xmlns="http://www.w3.org/2000/svg" version="1.1" style="background-color: #c43622;">             <g id="iconBackground" transform="translate(0 0)">                 <rect width="400" height="400" fill="#c43622" rx="0"/>             </g>             <g id="iconFrame" transform="translate(6 6)" style="color: #ffffff;stroke-width: 4px;"><svg width="400" height="400" viewBox="0 0 400 400" version="1.1" xmlns="http://www.w3.org/2000/svg"><g transform="translate(74 44)"><rect id="frame-rect" width="240" height="300" rx="20" transform="translate(0.606)" fill="none" stroke="currentColor" stroke-miterlimit="10"></rect><line id="frame-line" x2="240" transform="translate(0 200)" fill="none" stroke="currentColor" stroke-linecap="butt" stroke-linejoin="round"></line></g></svg></g>             <g id="iconIcon" transform="translate(120 65)" style="color: #ffffff"><svg xmlns="http://www.w3.org/2000/svg" viewBox="0 0 659.22 649.53" width="160" height="160"><path fill="currentColor" d="M606.3,334.12c-.31,66.6-60.18,121.23-130.9,122-74.77.87-135.79-56.87-137.11-129.73-1.34-73.84,52.63-136,123.53-138.29v146Z"/><path fill="currentColor" d="M487.18,306.13v-139c64.27-8.66,134.4,58.94,143.56,139Z"/><path fill="currentColor" d="M66.62,225.47V178.23H296v47.24Z"/><path fill="currentColor" d="M66.68,333.15V286.64H295.93v46.51Z"/><path fill="currentColor" d="M296.23,394.35v47.8H67.07v-47.8Z"/></svg></g>             <g id="iconText" transform="translate(0 300)" style="color: #ffffff;font-size: 60px;font-family: arial;text-transform: uppercase;">                 <text id="iconText" x="200" y="0" fill="currentColor" dominant-baseline="middle" text-anchor="middle">ppt</text>             </g>         </svg>