<svg class="preview-svg" width="300" height="300" viewBox="0 0 400 400" xmlns="http://www.w3.org/2000/svg" version="1.1" style="border-radius: 4%;background-color: #F6B701;">             <g id="iconBackground" transform="translate(0 0)">                 <rect width="400" height="400" fill="#F6B701" rx="0"/>             </g>             <g id="iconFrame" transform="translate(6 6)" style="color: #ffffff;stroke-width: 4px;"><svg width="400" height="400" viewBox="0 0 400 400" version="1.1" xmlns="http://www.w3.org/2000/svg"><g transform="translate(74 44)"><rect id="frame-rect" width="240" height="300" rx="20" transform="translate(0.606)" fill="none" stroke="currentColor" stroke-miterlimit="10"></rect><line id="frame-line" x2="240" transform="translate(0 200)" fill="none" stroke="currentColor" stroke-linecap="butt" stroke-linejoin="round"></line></g></svg></g>             <g id="iconIcon" transform="translate(120 65)" style="color: #ffffff"><svg xmlns="http://www.w3.org/2000/svg" viewBox="0 0 659.22 649.53" width="160" height="160">     <path fill="currentColor"           d="M264.27,457.64a25.68,25.68,0,0,1-26.52-26.51V219a26.52,26.52,0,0,1,39.77-23.33L436.61,301.74a26.51,26.51,0,0,1,0,44L277.52,451.81A26.42,26.42,0,0,1,264.27,457.64Zm26.51-189v113l84.85-56.48Z"/>     <path fill="currentColor"           d="M91.92,166a26.51,26.51,0,0,1-26.51-26.51v-53a26.52,26.52,0,0,1,53,0v53A26.51,26.51,0,0,1,91.92,166Z"/>     <path fill="currentColor"           d="M91.92,378.1a26.51,26.51,0,0,1-26.51-26.51v-53a26.52,26.52,0,1,1,53,0v53A26.51,26.51,0,0,1,91.92,378.1Z"/>     <path fill="currentColor"           d="M91.92,590.22A26.52,26.52,0,0,1,65.41,563.7v-53a26.52,26.52,0,0,1,53,0v53A26.52,26.52,0,0,1,91.92,590.22Z"/>     <path fill="currentColor"           d="M569.18,166a26.51,26.51,0,0,1-26.51-26.51v-53a26.52,26.52,0,0,1,53,0v53A26.52,26.52,0,0,1,569.18,166Z"/>     <path fill="currentColor"           d="M569.18,378.1a26.51,26.51,0,0,1-26.51-26.51v-53a26.52,26.52,0,1,1,53,0v53A26.52,26.52,0,0,1,569.18,378.1Z"/>     <path fill="currentColor"           d="M569.18,590.22a26.52,26.52,0,0,1-26.51-26.52v-53a26.52,26.52,0,0,1,53,0v53A26.53,26.53,0,0,1,569.18,590.22Z"/> </svg></g>             <g id="iconText" transform="translate(0 300)" style="color: #ffffff;font-size: 60px;font-family: arial;text-transform: uppercase;">                 <text id="iconText" x="200" y="0" fill="currentColor" dominant-baseline="middle" text-anchor="middle">rm</text>             </g>         </svg>