<svg class="preview-svg" width="300" height="300" viewBox="0 0 400 400" xmlns="http://www.w3.org/2000/svg" version="1.1" style="border-radius: 4%;background-color: #6AB86F;">             <g id="iconBackground" transform="translate(0 0)">                 <rect width="400" height="400" fill="#6AB86F" rx="0"/>             </g>             <g id="iconFrame" transform="translate(6 6)" style="color: #ffffff;stroke-width: 4px;"><svg width="400" height="400" viewBox="0 0 400 400" version="1.1" xmlns="http://www.w3.org/2000/svg"><g transform="translate(74 44)"><rect id="frame-rect" width="240" height="300" rx="20" transform="translate(0.606)" fill="none" stroke="currentColor" stroke-miterlimit="10"></rect><line id="frame-line" x2="240" transform="translate(0 200)" fill="none" stroke="currentColor" stroke-linecap="butt" stroke-linejoin="round"></line></g></svg></g>             <g id="iconIcon" transform="translate(120 65)" style="color: #ffffff"><svg xmlns="http://www.w3.org/2000/svg" viewBox="0 0 659.22 649.53" width="160" height="160"><title>RTF </title><path fill="currentColor" d="M425.59,165.14c20.38-7.1,30.25,5.69,41,16.89,12.3,12.79,29.54,23.39,35.93,38.6,6.26,14.86,1.65,34.34,1.65,51.79q0,137.28,0,274.54V559H215.68V471h-78V75h9.54Q254,75,360.68,74.83c6.31,0,10.8,1.71,15.2,6.28,13.67,14.21,27.52,28.28,41.86,41.8,5.95,5.6,8.72,11.37,8,19.49C425.1,149.06,425.59,155.82,425.59,165.14ZM151.52,455h259V146.08h-51.7V90.44H151.52ZM437.88,234.71V178.55h-11.5V297.9h44v19.76H426.28v47H470.6v20H426.38v43.9h44V448H426.05c-.34,7.84-.65,14.8-1,22.9h-194v73.26H488.65V234.71ZM453,190.05v29.62h29.23Zm-78.64-59.34h25.41l-25.41-25.14Z"/><path fill="currentColor" d="M400.82,269.84v18H174.72v-18Z"/><path fill="currentColor" d="M398.1,415.17v18.38H174.9V415.17Z"/><path fill="currentColor" d="M255.58,227.41H241c-1.63-11.46-3.3-23.15-5.14-36.11-11.94,0-24.13-.19-36.3.21-1.86.06-4.28,2.48-5.33,4.42-3.87,7.06-7.88,14.16-10.7,21.67-3.46,9.19-9.11,12.66-19.76,9.26,1.37-3,2.62-6.06,4.13-9C184,186.63,200.78,155.67,216.1,124c5.21-10.75,11.4-14.57,23.63-11C244.89,150.3,250.14,188.19,255.58,227.41ZM202.4,179.07h32.29c-2.17-17.16-4.25-33.59-6.55-51.79C219.17,145.33,211,161.82,202.4,179.07Z"/><path fill="currentColor" d="M350.76,373.87c6-4.67,12.64-14.19,19.33-14.2,12.48,0,16.52,13.08,22.73,23.55H289.17c6.2-15.07,11-29.4,17.85-42.64,6.64-12.8,17.63-13.38,25.63-1.27C340.18,350.7,345.47,363.56,350.76,373.87Z"/><path fill="currentColor" d="M275.53,239.79V221.4H400.71v18.39Z"/><path fill="currentColor" d="M275.58,190.74V172.33H400.64v18.41Z"/><path fill="currentColor" d="M271.32,365V384.1H174.7V365Z"/><path fill="currentColor" d="M174.51,335.12V316.47h96.81v18.65Z"/><path fill="currentColor" d="M470.77,491.71V510.5H247.12V491.71Z"/></svg></g>             <g id="iconText" transform="translate(0 300)" style="color: #ffffff;font-size: 60px;font-family: arial;text-transform: uppercase;">                 <text id="iconText" x="200" y="0" fill="currentColor" dominant-baseline="middle" text-anchor="middle">rtf</text>             </g>         </svg>