<svg class="preview-svg" width="300" height="300" viewBox="0 0 400 400" xmlns="http://www.w3.org/2000/svg" version="1.1" style="border-radius: 4%;background-color: #464D6E;">             <g id="iconBackground" transform="translate(0 0)">                 <rect width="400" height="400" fill="#464D6E" rx="0"/>             </g>             <g id="iconFrame" transform="translate(6 6)" style="color: #ffffff;stroke-width: 4px;"><svg width="400" height="400" viewBox="0 0 400 400" version="1.1" xmlns="http://www.w3.org/2000/svg"><g transform="translate(74 44)"><rect id="frame-rect" width="240" height="300" rx="20" transform="translate(0.606)" fill="none" stroke="currentColor" stroke-miterlimit="10"></rect><line id="frame-line" x2="240" transform="translate(0 200)" fill="none" stroke="currentColor" stroke-linecap="butt" stroke-linejoin="round"></line></g></svg></g>             <g id="iconIcon" transform="translate(120 65)" style="color: #ffffff"><svg xmlns="http://www.w3.org/2000/svg" viewBox="0 0 659.22 649.53" width="160" height="160">     <path fill="currentColor"           d="M474.38,394c-33.71,0-66.56.71-99.35-.34-13.44-.43-19.92,3.87-25.17,16.29-17.58,41.61-33.72,84.1-66.31,117.48-44.25,45.31-95.69,73.35-162,70.55V501.11c57.07-1.07,92.69-31.6,115.11-81.49C266.85,352.35,296,284.49,329,218.6c26-51.86,64.35-94,121.09-113.83,21.2-7.39,44.32-9.43,66.69-13.22,9.15-1.55,13.56,2.49,13.3,13-.71,27.63-.24,55.28-.24,85.91-71.34-3.29-108.34,37.3-127.11,101.49h71.66Z"/> </svg></g>             <g id="iconText" transform="translate(0 300)" style="color: #ffffff;font-size: 60px;font-family: arial;text-transform: uppercase;">                 <text id="iconText" x="200" y="0" fill="currentColor" dominant-baseline="middle" text-anchor="middle">swf</text>             </g>         </svg>