<svg class="preview-svg" width="300" height="300" viewBox="0 0 400 400" xmlns="http://www.w3.org/2000/svg" version="1.1" style="border-radius: 4%;background-color: #B5353A;">             <g id="iconBackground" transform="translate(0 0)">                 <rect width="400" height="400" fill="#B5353A" rx="0"/>             </g>             <g id="iconFrame" transform="translate(6 6)" style="color: #ffffff;stroke-width: 4px;"><svg width="400" height="400" viewBox="0 0 400 400" version="1.1" xmlns="http://www.w3.org/2000/svg"><g transform="translate(74 44)"><rect id="frame-rect" width="240" height="300" rx="20" transform="translate(0.606)" fill="none" stroke="currentColor" stroke-miterlimit="10"></rect><line id="frame-line" x2="240" transform="translate(0 200)" fill="none" stroke="currentColor" stroke-linecap="butt" stroke-linejoin="round"></line></g></svg></g>             <g id="iconIcon" transform="translate(120 65)" style="color: #ffffff"><svg version="1.1" viewBox="0 0 659.22 649.53" xmlns="http://www.w3.org/2000/svg" width="160" height="160">  <defs>   <style>.cls-1{fill:#fff;}</style>  </defs>   <path fill="currentColor" d="m325.09 397.6c51.41 1 94.28 45.39 92.33 95.48s-48.42 93.92-97.07 91.83c-50.81-2.21-92.82-47.63-90.51-97.83 2.31-50.08 45.37-90.49 95.25-89.48zm-1.83 46.9c-24.28-0.71-45.58 19-46.81 43.41-1.34 26.57 17.88 48.14 43.85 49.2s49.44-19.8 49.36-44.15c-0.09-25.42-21.44-47.73-46.4-48.46z"/>  <path fill="currentColor" d="M319.69,97H279.9V53.84h39.79Z"/>  <path fill="currentColor" d="m278.87 187.77v-42.61h41.36v42.61z"/>  <path fill="currentColor" d="m327.11 330.81v-43.56h41.1v43.56z"/>  <path fill="currentColor" d="M326.8,140V100.29h41.4V140Z"/>  <path fill="currentColor" d="M327,192.43h40.73V234.8H327Z"/>  <path fill="currentColor" d="m320.47 283h-40.83v-41.1h40.83z"/>  <path fill="currentColor" d="m319.86 375.75h-40.13v-40.49h40.13z"/> </svg></g>             <g id="iconText" transform="translate(0 300)" style="color: #ffffff;font-size: 60px;font-family: arial;text-transform: uppercase;">                 <text id="iconText" x="200" y="0" fill="currentColor" dominant-baseline="middle" text-anchor="middle">tgz</text>             </g>         </svg>