<svg class="preview-svg" width="300" height="300" viewBox="0 0 400 400" xmlns="http://www.w3.org/2000/svg" version="1.1" style="border-radius: 4%;background-color: #464D6E;">             <g id="iconBackground" transform="translate(0 0)">                 <rect width="400" height="400" fill="#464D6E" rx="0"/>             </g>             <g id="iconFrame" transform="translate(6 6)" style="color: #ffffff;stroke-width: 4px;"><svg width="400" height="400" viewBox="0 0 400 400" version="1.1" xmlns="http://www.w3.org/2000/svg"><g transform="translate(74 44)"><rect id="frame-rect" width="240" height="300" rx="20" transform="translate(0.606)" fill="none" stroke="currentColor" stroke-miterlimit="10"></rect><line id="frame-line" x2="240" transform="translate(0 200)" fill="none" stroke="currentColor" stroke-linecap="butt" stroke-linejoin="round"></line></g></svg></g>             <g id="iconIcon" transform="translate(120 65)" style="color: #ffffff"><svg xmlns="http://www.w3.org/2000/svg" viewBox="0 0 659.22 649.53" width="160" height="160"><path fill="currentColor" d="M592.53,251.79c0-25.73-17.48-42.58-43.22-42.59q-88.62,0-177.25,0c-9.36,0-20.69,2.81-27.51-1.45s-9.43-15.58-13.2-24.11c-4.35-9.86-11.51-13.87-22.12-13.77q-41.73.39-83.46,0c-9.42-.11-15.36,4-19.17,12.11-3.31,7.06-6.94,14-9.74,21.25-1.91,5-4.84,6.24-9.87,6.13-14.68-.31-29.38-.12-44.07-.11-27.11,0-43.7,16.64-43.71,43.82q0,117.69,0,235.4c0,31.13,16.07,47.11,47.45,47.12q99.42,0,198.83,0h15q93.79,0,187.57,0c26.13,0,44.43-17.16,44.48-41.73Q592.75,372.77,592.53,251.79ZM404.9,475.84c-12.35,0-25.17-1.24-37.64.3-16.73,2.07-26.76-2.76-31-20-1.79-7.27-6.59-14.16-11.25-20.29-7.4-9.7-17.23-10-24.07,0-6.4,9.38-10.51,20.33-15.59,30.6-.76,1.55-1.28,3.21-2.28,5.75-4.76-12.62-8.18-24.53-13.67-35.4a151.38,151.38,0,0,0-19-28.66c-8.14-9.75-16.52-9.49-24,1a197.89,197.89,0,0,0-18.18,32.49c-4.91,10.73-8.15,22.21-12.27,33.78H144.23V271H404.9Zm96.77-31.68c-41.06.95-74-31-74.7-72.56-.71-39.92,30.86-72.25,71.82-73.55,39.68-1.26,73.11,31.53,74,72.56C573.56,409.66,541.11,443.24,501.67,444.16Z"/><path fill="currentColor" d="M263.08,341.88c16.86,1.85,33.88,2.24,50.83,3.22.13.61.25,1.23.38,1.85,7.65-2.31,15.82-3.61,22.86-7.17,12.47-6.3,12.79-18.33.12-23.8-9-3.9-19.71-4.27-29.74-5.49a92.87,92.87,0,0,0-19.93-.22c-5,.48-9.93,2.21-14.63,4.06-3.7,1.45-6.89,4.19-10.52,5.9-6.16,2.89-16.54,2-16.54,10.81C245.9,340.49,256.23,341.13,263.08,341.88Z"/><path fill="currentColor" d="M211.27,338.94a14.41,14.41,0,0,0-.89-28.8c-8.32,0-15.09,6.81-14.74,14.81A14.67,14.67,0,0,0,211.27,338.94Z"/><path fill="currentColor" d="M500.37,305.58c-35.41-.45-64.77,28.4-65.74,64.59-.93,34.2,27.57,65.06,61,66C534,437.32,564,410.08,565,373A65.64,65.64,0,0,0,500.37,305.58Zm-39.14,85-17.89-19.64c5.47-5.16,11.8-11.13,17.89-16.89ZM499.78,315l17.94,19.55H480.83Zm-.57,110.42-18.13-18h38Zm34.23-34.71V353.21l18.4,19.65Z"/></svg></g>             <g id="iconText" transform="translate(0 300)" style="color: #ffffff;font-size: 60px;font-family: arial;text-transform: uppercase;">                 <text id="iconText" x="200" y="0" fill="currentColor" dominant-baseline="middle" text-anchor="middle">tif</text>             </g>         </svg>