<svg class="preview-svg" width="300" height="300" viewBox="0 0 400 400" xmlns="http://www.w3.org/2000/svg" version="1.1" style="border-radius: 4%;background-color: #4F73BA;">             <g id="iconBackground" transform="translate(0 0)">                 <rect width="400" height="400" fill="#4F73BA" rx="0"/>             </g>             <g id="iconFrame" transform="translate(6 6)" style="color: #ffffff;stroke-width: 4px;"><svg width="400" height="400" viewBox="0 0 400 400" version="1.1" xmlns="http://www.w3.org/2000/svg"><g transform="translate(74 44)"><rect id="frame-rect" width="240" height="300" rx="20" transform="translate(0.606)" fill="none" stroke="currentColor" stroke-miterlimit="10"></rect><line id="frame-line" x2="240" transform="translate(0 200)" fill="none" stroke="currentColor" stroke-linecap="butt" stroke-linejoin="round"></line></g></svg></g>             <g id="iconIcon" transform="translate(120 65)" style="color: #ffffff"><svg xmlns="http://www.w3.org/2000/svg" viewBox="0 0 659.22 649.53" width="160" height="160"><title>WMA </title><path fill="currentColor" d="M154,391a85.38,85.38,0,1,1,85.38-85.38A85.37,85.37,0,0,1,154,391Zm0-31a54.34,54.34,0,1,0-54.33-54.34A54.34,54.34,0,0,0,154,360ZM286,274.6a15.53,15.53,0,1,1,31,0v62.09a15.53,15.53,0,0,1-31,0Zm69.86-38.81a15.53,15.53,0,1,1,31.05,0V375.5a15.53,15.53,0,0,1-31.05,0Zm69.86,38.81a15.52,15.52,0,1,1,31,0v62.09a15.52,15.52,0,0,1-31,0Zm139.71,0a15.53,15.53,0,1,1,31.05,0v62.09a15.53,15.53,0,0,1-31.05,0Zm-69.86-38.81a15.53,15.53,0,1,1,31.05,0V375.5a15.53,15.53,0,0,1-31.05,0Zm-345,46.85,24.81,16.55a7.74,7.74,0,0,1,0,12.91l-24.81,16.55a7.76,7.76,0,0,1-12.07-6.46V289.1a7.77,7.77,0,0,1,12.07-6.46Z"/></svg></g>             <g id="iconText" transform="translate(0 300)" style="color: #ffffff;font-size: 60px;font-family: arial;text-transform: uppercase;">                 <text id="iconText" x="200" y="0" fill="currentColor" dominant-baseline="middle" text-anchor="middle">wma</text>             </g>         </svg>