<svg class="preview-svg" width="300" height="300" viewBox="0 0 400 400" xmlns="http://www.w3.org/2000/svg" version="1.1" style="border-radius: 4%;background-color: #464D6E;">             <g id="iconBackground" transform="translate(0 0)">                 <rect width="400" height="400" fill="#464D6E" rx="0"/>             </g>             <g id="iconFrame" transform="translate(6 6)" style="color: #ffffff;stroke-width: 4px;"><svg width="400" height="400" viewBox="0 0 400 400" version="1.1" xmlns="http://www.w3.org/2000/svg"><g transform="translate(74 44)"><rect id="frame-rect" width="240" height="300" rx="20" transform="translate(0.606)" fill="none" stroke="currentColor" stroke-miterlimit="10"></rect><line id="frame-line" x2="240" transform="translate(0 200)" fill="none" stroke="currentColor" stroke-linecap="butt" stroke-linejoin="round"></line></g></svg></g>             <g id="iconIcon" transform="translate(120 65)" style="color: #ffffff"><svg xmlns="http://www.w3.org/2000/svg" viewBox="0 0 659.22 649.53" width="160" height="160">     <path fill="currentColor"           d="M567.46,299a30.44,30.44,0,0,0-30.16.41l-66.38,39.94a66.74,66.74,0,0,0-66.57-63.08h-20.6a94,94,0,1,0-92.16,0h-83.3a63.69,63.69,0,1,0-71.6,2,66.79,66.79,0,0,0-50.57,64.69V470.21a66.75,66.75,0,0,0,66.68,66.68H404.34a66.75,66.75,0,0,0,66.57-63.08l66.38,39.93a29.93,29.93,0,0,0,45.35-25.64V325A30,30,0,0,0,567.46,299ZM255.84,194.42a81.83,81.83,0,1,1,81.82,81.84A81.91,81.91,0,0,1,255.84,194.42ZM119.46,224.67a51.59,51.59,0,1,1,51.59,51.59A51.65,51.65,0,0,1,119.46,224.67Zm79.18,300.1v-82H358.51v82ZM458.9,470.21a54.62,54.62,0,0,1-54.55,54.56H370.64V430.68H186.52v94.1H152.8a54.62,54.62,0,0,1-54.55-54.56V342.93a54.61,54.61,0,0,1,54.55-54.55H404.35a54.62,54.62,0,0,1,54.55,54.55V470.21ZM570.53,488.1a17.8,17.8,0,0,1-9,15.49,18.11,18.11,0,0,1-17.94-.23L471,459.73V353.44l72.53-43.65a18.09,18.09,0,0,1,17.93-.24,17.8,17.8,0,0,1,9,15.49Z"/> </svg></g>             <g id="iconText" transform="translate(0 300)" style="color: #ffffff;font-size: 60px;font-family: arial;text-transform: uppercase;">                 <text id="iconText" x="200" y="0" fill="currentColor" dominant-baseline="middle" text-anchor="middle">wmv</text>             </g>         </svg>