<svg width="18" height="18" viewBox="0 0 18 18" fill="none" xmlns="http://www.w3.org/2000/svg">
<g clip-path="url(#clip0_284_27399)">
<g clip-path="url(#clip1_284_27399)">
<path d="M9 13.3213C9.40451 13.3213 9.73242 12.9934 9.73242 12.5889C9.73242 12.1844 9.40451 11.8564 9 11.8564C8.59549 11.8564 8.26758 12.1844 8.26758 12.5889C8.26758 12.9934 8.59549 13.3213 9 13.3213Z" fill="#82838E"/>
<path d="M9 1.5C4.85496 1.5 1.5 4.8544 1.5 9C1.5 13.145 4.8544 16.5 9 16.5C13.145 16.5 16.5 13.1456 16.5 9C16.5 4.85496 13.1456 1.5 9 1.5ZM9 15.3281C5.50263 15.3281 2.67188 12.4978 2.67188 9C2.67188 5.50263 5.50216 2.67188 9 2.67188C12.4974 2.67188 15.3281 5.50216 15.3281 9C15.3281 12.4974 12.4978 15.3281 9 15.3281Z" fill="#82838E"/>
<path d="M9 5.26465C7.70766 5.26465 6.65625 6.31605 6.65625 7.6084C6.65625 7.93201 6.91857 8.19434 7.24219 8.19434C7.5658 8.19434 7.82812 7.93201 7.82812 7.6084C7.82812 6.96223 8.35383 6.43652 9 6.43652C9.64617 6.43652 10.1719 6.96223 10.1719 7.6084C10.1719 8.25457 9.64617 8.78027 9 8.78027C8.67639 8.78027 8.41406 9.0426 8.41406 9.36621V10.8311C8.41406 11.1547 8.67639 11.417 9 11.417C9.32361 11.417 9.58594 11.1547 9.58594 10.8311V9.878C10.5957 9.61717 11.3438 8.69851 11.3438 7.6084C11.3438 6.31605 10.2923 5.26465 9 5.26465Z" fill="#82838E"/>
</g>
</g>
<defs>
<clipPath id="clip0_284_27399">
<rect width="18" height="18" fill="white"/>
</clipPath>
<clipPath id="clip1_284_27399">
<rect width="15" height="15" fill="white" transform="translate(1.5 1.5)"/>
</clipPath>
</defs>
</svg>
