<svg width="10" height="10" viewBox="0 0 10 10" fill="none" xmlns="http://www.w3.org/2000/svg">
<path d="M9.16665 4.16665H5.83335V0.833345C5.83335 0.373344 5.46084 -1.90735e-06 5 -1.90735e-06C4.53916 -1.90735e-06 4.16665 0.373344 4.16665 0.833345V4.16665H0.833348C0.372506 4.16665 0 4.54 0 5C0 5.46 0.372506 5.83335 0.833348 5.83335H4.16665V9.16665C4.16665 9.62665 4.53916 10 5 10C5.46084 10 5.83335 9.62665 5.83335 9.16665V5.83335H9.16665C9.6275 5.83335 10 5.46 10 5C10 4.54 9.6275 4.16665 9.16665 4.16665Z" fill="#353030"/>
</svg>
