<svg width="16" height="16" viewBox="0 0 16 16" fill="none" xmlns="http://www.w3.org/2000/svg">
<circle cx="8" cy="8" r="8" fill="#09B29C"/>
<g clip-path="url(#clip0_272_24239)">
<path d="M12.3447 4.72867C12.2083 4.58742 11.9832 4.5835 11.842 4.71992C11.839 4.72278 11.8361 4.72569 11.8332 4.72867L6.04018 10.5217L4.15823 8.63979C4.01698 8.50338 3.79189 8.50729 3.65548 8.64854C3.52239 8.78633 3.52239 9.00477 3.65548 9.14256L5.78881 11.2759C5.92766 11.4147 6.15272 11.4147 6.29156 11.2759L12.336 5.23144C12.4772 5.095 12.4812 4.86992 12.3447 4.72867Z" fill="white"/>
<path fill-rule="evenodd" clip-rule="evenodd" d="M11.7649 4.63999C11.9503 4.46098 12.2457 4.46613 12.4247 4.65151C12.6035 4.83666 12.5986 5.13154 12.414 5.31067L6.37016 11.3545C6.18793 11.5367 5.89253 11.5367 5.71029 11.3545L3.57558 9.21979C3.40091 9.03894 3.40092 8.75223 3.57559 8.57138C3.57559 8.57138 3.57559 8.57138 3.57559 8.57138C3.75464 8.38599 4.05006 8.38085 4.23545 8.5599L4.23684 8.56124L6.04022 10.3646L5.96165 10.4432L6.04022 10.5218L6.11878 10.4432L6.04022 10.3646L11.7541 4.65078C11.7538 4.65103 11.7536 4.65129 11.7533 4.65154L11.8333 4.7287L11.7547 4.65013L11.7541 4.65078M6.21303 11.1973C6.21303 11.1974 6.21303 11.1973 6.21303 11.1973V11.1973ZM3.73482 9.06476L3.73408 9.06402L3.65551 9.14259L3.73543 9.0654C3.73523 9.06519 3.73502 9.06498 3.73482 9.06476ZM5.78849 11.2763L5.78884 11.2759L5.78849 11.2763ZM4.08044 8.71913L4.07969 8.71839L4.15826 8.63982L4.08107 8.71974C4.08086 8.71954 4.08065 8.71934 4.08044 8.71913Z" fill="white"/>
</g>
<defs>
<clipPath id="clip0_272_24239">
<rect width="10.6667" height="10.6667" fill="white" transform="translate(2.66675 2.66675)"/>
</clipPath>
</defs>
</svg>
