<svg viewBox="0 0 100 112" xmlns="http://www.w3.org/2000/svg"><path d="m0 0h100v112h-100z" fill="#dfdfdf"/><path d="m60.94 57.42a10.84 10.84 0 0 0 -5.72-1.7c-.94 0-1.06.14-1.53-.54a10.25 10.25 0 0 1 -.6-2.91l-1.2-5.81a19.77 19.77 0 0 0 7-26.33c-.76-1.4-2-2.86-3.58-2.77a4.18 4.18 0 0 0 -2.87 1.94 20.39 20.39 0 0 0 -3.88 10.52 38.93 38.93 0 0 0 .8 11.28 2 2 0 0 1 0 1.07 2 2 0 0 1 -.76.87c-4.49 3.47-9.32 7-11.69 12.11a16.32 16.32 0 0 0 -1.22 9.85 12.94 12.94 0 0 0 5.46 8.52 17 17 0 0 0 6.42 2.14 21.68 21.68 0 0 0 8.57-.1c.32 1.7.59 3.4.8 5.12.17 1.35.34 2.73.4 4.1v1.3a5.81 5.81 0 0 1 -.91 2.54 7.46 7.46 0 0 1 -.74.94 9.13 9.13 0 0 1 -3 2 7.14 7.14 0 0 1 -2.49.59 6.21 6.21 0 0 1 -1.29-.07h-.11a5.45 5.45 0 1 0 -7.36-2.26c.08.15.17.28.25.42s.06.11.1.16c2.85 4.5 9.09 4.25 9.09 4.25a7.78 7.78 0 0 0 2.3-.31 9.31 9.31 0 0 0 4.35-2.45 9.09 9.09 0 0 0 1.43-1.94 7.3 7.3 0 0 0 .76-1.83 8.62 8.62 0 0 0 0-2.73 61.23 61.23 0 0 0 -1-6.28c-.1-.49-.2-1-.29-1.48-.18-.88-.36-1.76-.53-2.64v-.13s5.23-1.52 6.32-6.1c-.01-.01 2.06-7.2-3.28-11.34zm-9.37-32.62a3.94 3.94 0 0 1 7.07 2s.65 5.11-3.8 10.18a33.46 33.46 0 0 1 -4.06 4.02l-.53-2.54c0-.18-.07-.66-.09-.85a37.59 37.59 0 0 1 -.27-9.11 8.37 8.37 0 0 1 1.68-3.7zm-8.63 46.8a10.83 10.83 0 0 1 -4-7.52c-.16-3.35 1.59-6.5 3.69-9.11a32.93 32.93 0 0 1 7.53-6.85l1.47 6.34a2.12 2.12 0 0 1 0 1.34 2.4 2.4 0 0 1 -1.14.93 10.36 10.36 0 0 0 -5.24 8.89 7.09 7.09 0 0 0 .91 3.94 3.77 3.77 0 0 0 3.42 1.86c-.58.06-1.5-2.42-1.58-2.9a7.94 7.94 0 0 1 -.21-3.72 5.59 5.59 0 0 1 5.14-4.66c1 4.33 2.08 9.47 3 14v.07a13.89 13.89 0 0 1 -12.99-2.61zm14.6 1.78-.37-2c0-.05 0-.1 0-.16l-2.38-11.15c1.5.08 5.69.81 6.77 6.42 0 0 .94 4.22-4.02 6.89z" fill="#5e5e5e"/></svg>