<svg viewBox="0 0 1000 580" xmlns="http://www.w3.org/2000/svg"><path d="m1 0h999v580h-999z" fill="#fff"/><path d="m1 0h1000v474h-1000z" fill="#484848" opacity=".03"/><circle cx="507" cy="178.5" fill="#565656" r="44"/><circle cx="69.5" cy="75.5" fill="#565656" r="38.5"/><circle cx="956.5" cy="62.5" fill="#565656" r="23.5"/><g fill="#484848"><path d="m27 505.67h31v25h-31z" opacity=".15"/><path d="m180 505.67h31v25h-31z" opacity=".15"/><path d="m325 505.67h31v25h-31z" opacity=".15"/><path d="m365 505.67h70v25h-70z" opacity=".15"/><path d="m69 505.67h70v25h-70z" opacity=".15"/><path d="m222 505.67h70v25h-70z" opacity=".15"/><path d="m125 47h194v29h-194z" opacity=".15"/><path d="m125 84h194v20h-194z" opacity=".15"/><path d="m222 243h569v40h-569z" opacity=".15"/><path d="m425 297h160v30h-160z" opacity=".15"/><path d="m24 350h952v25h-952z" opacity=".15"/><path d="m24 391h952v25h-952z" opacity=".15"/><path d="m24 432h952v25h-952z" opacity=".15"/></g><circle cx="341.31" cy="59.24" fill="#565656" r="11.69"/></svg>