<svg viewBox="0 0 1000 580" xmlns="http://www.w3.org/2000/svg"><path d="m0 0h1000v580h-1000z" fill="#484848"/><circle cx="507" cy="178.5" fill="#ddd" r="44"/><circle cx="69.5" cy="75.5" fill="#ddd" r="38.5"/><circle cx="956.5" cy="62.5" fill="#ddd" r="23.5"/><g fill="#fff"><path d="m27 505.67h31v25h-31z" opacity=".5"/><path d="m180 505.67h31v25h-31z" opacity=".5"/><path d="m325 505.67h31v25h-31z" opacity=".5"/><path d="m365 505.67h70v25h-70z" opacity=".5"/><path d="m69 505.67h70v25h-70z" opacity=".5"/><path d="m222 505.67h70v25h-70z" opacity=".5"/><path d="m125 47h194v29h-194z" opacity=".5"/><path d="m125 84h194v20h-194z" opacity=".5"/><path d="m222 243h569v40h-569z" opacity=".5"/><path d="m425 297h160v30h-160z" opacity=".5"/><path d="m24 350h952v25h-952z" opacity=".5"/><path d="m24 391h952v25h-952z" opacity=".5"/><path d="m24 432h952v25h-952z" opacity=".5"/></g><circle cx="341.31" cy="59.24" fill="#ddd" r="11.69"/><path d="m1 474h1000v104h-1000z" fill="#fff" opacity=".03"/></svg>