<svg viewBox="0 0 750 1000" xmlns="http://www.w3.org/2000/svg" xmlns:xlink="http://www.w3.org/1999/xlink"><linearGradient id="a" gradientUnits="userSpaceOnUse" x1="62" x2="530" y1="806.5" y2="806.5"><stop offset="0" stop-color="#fff"/><stop offset=".19" stop-color="#cacaca"/><stop offset=".38" stop-color="#9c9c9c"/><stop offset=".56" stop-color="#777"/><stop offset=".73" stop-color="#5d5d5d"/><stop offset=".88" stop-color="#4e4e4e"/><stop offset="1" stop-color="#484848"/></linearGradient><path d="m0 769h750v231h-750z" fill="#484848"/><path d="m0 835h753v165h-753z" fill="#fff" opacity=".03"/><path d="m0 0h750v769h-750z" fill="#484848"/><path d="m121 0h508v769h-508z" fill="#fff" opacity=".1"/><path d="m657 17.5h66v66h-66z" fill="#ddd"/><circle cx="690" cy="332.5" fill="#ddd" r="41.5"/><path d="m657 408.33h66v66h-66z" fill="#ddd"/><path d="m657 517.17h66v66h-66z" fill="#ddd"/><path d="m657 626h66v66h-66z" fill="#ddd"/><path d="m16 790h33v33h-33z" fill="#fff" opacity=".5"/><path d="m62 790h468v33h-468z" fill="url(#a)" opacity=".5"/><g fill="#fff"><path d="m16 861h177v33h-177z" opacity=".5"/><path d="m16 905h337v33h-337z" opacity=".5"/><path d="m16 949h33v33h-33z" opacity=".5"/><path d="m62 949h234v33h-234z" opacity=".5"/><path d="m412.82 382.91a6.75 6.75 0 0 1 0 11.7l-53.88 30.89-2.94 1.7-6.87 3.94a6.76 6.76 0 0 1 -10.13-5.88l.21-73.41a6.76 6.76 0 0 1 10.15-5.85l8.15 4.73 2.88 1.67z"/><path d="m750 769-171.38-209-175.22 209-201.98-360.67-201.42 360.67h44.94 39.07z" opacity=".15"/><circle cx="495" cy="242" opacity=".15" r="79"/></g></svg>