<svg width="24" height="25" viewBox="0 0 24 25" fill="none" xmlns="http://www.w3.org/2000/svg">
<g id="fi_4441973">
<g id="Group">
<path id="Vector" d="M12 21.9102C16.9706 21.9102 21 17.8807 21 12.9102C21 7.93959 16.9706 3.91016 12 3.91016C7.02944 3.91016 3 7.93959 3 12.9102C3 17.8807 7.02944 21.9102 12 21.9102Z" fill="#FFE36E"/>
<g id="Group_2">
<path id="Vector_2" d="M13.157 17.2113C13.157 17.44 13.0891 17.6637 12.962 17.8539C12.8349 18.0441 12.6543 18.1923 12.443 18.2798C12.2316 18.3674 11.9991 18.3903 11.7747 18.3457C11.5504 18.301 11.3443 18.1909 11.1825 18.0291C11.0208 17.8674 10.9106 17.6613 10.866 17.4369C10.8213 17.2126 10.8443 16.98 10.9318 16.7687C11.0193 16.5573 11.1676 16.3767 11.3578 16.2496C11.548 16.1225 11.7716 16.0547 12.0004 16.0547C12.3071 16.0547 12.6013 16.1765 12.8182 16.3934C13.0351 16.6104 13.157 16.9045 13.157 17.2113Z" fill="#FA9579"/>
<path id="Vector_3" d="M12.0004 14.5244C11.6936 14.5244 11.3994 14.4025 11.1825 14.1856C10.9656 13.9687 10.8438 13.6745 10.8438 13.3678V8.60777C10.8438 8.30102 10.9656 8.00684 11.1825 7.78993C11.3994 7.57303 11.6936 7.45117 12.0004 7.45117C12.3071 7.45117 12.6013 7.57303 12.8182 7.78993C13.0351 8.00684 13.1569 8.30102 13.1569 8.60777V13.3678C13.1569 13.6745 13.0351 13.9687 12.8182 14.1856C12.6013 14.4025 12.3071 14.5244 12.0004 14.5244Z" fill="#FA9579"/>
</g>
</g>
</g>
</svg>
