<svg width="18" height="18" viewBox="0 0 18 18" fill="none" xmlns="http://www.w3.org/2000/svg">
<path d="M6.03713 9.55631C5.75121 9.2566 5.27647 9.24543 4.97676 9.53135C4.67706 9.81727 4.66588 10.292 4.9518 10.5917L7.09561 12.8791C7.40217 13.2004 7.91925 13.1865 8.20805 12.8491L12.8673 6.98524C13.1367 6.67056 13.0999 6.19711 12.7853 5.92775C12.4706 5.6584 11.9971 5.69514 11.7278 6.00981L7.8488 10.9375C7.73494 11.0822 7.52536 11.1071 7.38071 10.9932C7.36725 10.9826 7.35462 10.971 7.34295 10.9585L6.03713 9.55631ZM0.666016 9.00008C0.666016 4.41675 4.41602 0.666748 8.99935 0.666748C13.5827 0.666748 17.3327 4.41675 17.3327 9.00008C17.3327 13.5834 13.5827 17.3334 8.99935 17.3334C4.41602 17.3334 0.666016 13.5834 0.666016 9.00008Z" fill="#28A138"/>
</svg>
