<svg width="24" height="25" viewBox="0 0 24 25" fill="none" xmlns="http://www.w3.org/2000/svg">
<g id="fi_10947975">
<path id="Vector" fill-rule="evenodd" clip-rule="evenodd" d="M22.5468 8.72928C22.5468 9.42223 21.9817 9.98741 21.2887 9.98741C21.2098 9.98741 21.1326 9.97972 21.0576 9.9657L19.7126 17.1613C19.6975 17.1609 19.6824 17.1606 19.6672 17.1606H4.3327C4.31752 17.1606 4.30237 17.1609 4.28728 17.1612L2.94234 9.9657C2.86734 9.97972 2.79019 9.98741 2.71125 9.98741C2.0183 9.98741 1.45312 9.42223 1.45312 8.72928C1.45312 8.03633 2.0183 7.47116 2.71125 7.47116C3.4042 7.47116 3.96938 8.03633 3.96938 8.72928C3.96938 9.01325 3.87436 9.27566 3.71466 9.48659L7.49086 12.3365L11.4928 8.17452C10.9454 7.96831 10.5541 7.43895 10.5541 6.82091C10.5541 6.02455 11.2036 5.375 12 5.375C12.7964 5.375 13.4459 6.0245 13.4459 6.82091C13.4459 7.43895 13.0545 7.96831 12.5071 8.17452L16.509 12.3365L20.2852 9.48655C20.1255 9.27561 20.0305 9.0132 20.0305 8.72923C20.0305 8.03628 20.5957 7.47111 21.2887 7.47111C21.9816 7.47111 22.5468 8.03628 22.5468 8.72923L22.5468 8.72928ZM19.6672 18.5669H4.3327C3.99145 18.5669 3.71222 18.8461 3.71222 19.1874V19.8268C3.71222 20.168 3.99145 20.4473 4.3327 20.4473H19.6672C20.0085 20.4473 20.2876 20.168 20.2876 19.8268V19.1874C20.2876 18.8461 20.0084 18.5669 19.6672 18.5669Z" fill="url(#paint0_linear_2954_28912)"/>
</g>
<defs>
<linearGradient id="paint0_linear_2954_28912" x1="6.48633" y1="21.7861" x2="16.4695" y2="4.49478" gradientUnits="userSpaceOnUse">
<stop stop-color="#FF6100"/>
<stop offset="1" stop-color="#FDB82E"/>
</linearGradient>
</defs>
</svg>
