<svg width="60" height="60" viewBox="0 0 60 60" fill="none" xmlns="http://www.w3.org/2000/svg">
<path d="M17.5078 10.4766C7.94531 10.4766 0.621094 22.9219 0.621094 36.082C0.621094 44.3203 4.60547 49.5234 11.2852 49.5234C16.0898 49.5234 19.5469 47.2617 25.6992 36.5156C25.6992 36.5156 28.2656 31.9922 30.0234 28.875L33.6797 22.6875C36.7852 17.8945 39.3516 15.5039 42.3984 15.5039C48.7266 15.5039 53.7891 24.8203 53.7891 36.2695C53.7891 40.6289 52.3594 43.1602 49.3945 43.1602C46.5586 43.1602 45.1992 41.2852 39.8086 32.6133L34.8516 36.9375C40.4648 46.3359 43.5938 49.5234 49.2656 49.5234C55.7695 49.5234 59.3906 44.2383 59.3906 35.8242C59.3906 22.0313 51.9023 10.4531 42.7969 10.4531C37.9805 10.4531 34.207 14.0859 30.7969 18.6914L27.0117 24.2461C23.2734 29.9883 21 33.5859 21 33.5859C16.0195 41.4023 14.2969 43.1484 11.5195 43.1484C8.66016 43.1484 6.97266 40.6406 6.97266 36.1758C6.97266 26.6133 11.7422 16.8398 17.4258 16.8398L17.5078 10.4766Z" fill="url(#paint0_linear_4847_2855)"/>
<path d="M31.1133 23.0156L27.0117 24.2813C23.2734 30.0234 21 33.6211 21 33.6211C16.0195 41.4375 14.2969 43.1836 11.5195 43.1836C8.66016 43.1836 6.97266 40.6758 6.97266 36.2109C6.97266 26.6484 11.7422 16.875 17.4258 16.875L17.5078 10.4883C7.94531 10.4766 0.621094 22.9219 0.621094 36.082C0.621094 44.3203 4.60547 49.5234 11.2852 49.5234C16.0898 49.5234 19.5469 47.2617 25.6992 36.5156C25.6992 36.5156 28.2656 31.9922 30.0234 28.875L31.1133 23.0156Z" fill="url(#paint1_linear_4847_2855)"/>
<path d="M34.8516 36.9492C40.4648 46.3477 43.5938 49.5234 49.2656 49.5234L49.3945 43.1602C46.5586 43.1602 45.1992 41.2969 39.8086 32.625C35.2852 25.2656 32.9766 21.5859 30.7969 18.7148C26.1094 12.75 22.1953 10.4766 17.5078 10.4766L17.4258 16.8633C20.5078 16.8633 23.0742 18.6445 27.0117 24.2812C28.6641 26.6016 32.0508 32.1211 34.8516 36.9492Z" fill="url(#paint2_linear_4847_2855)"/>
<path d="M30.7852 18.7148C26.0977 12.75 22.1836 10.4766 17.4844 10.4766C12.8555 10.4766 8.75391 13.3945 5.74219 17.8945L10.2656 22.5234C12.1523 19.1133 14.6953 16.875 17.4258 16.875C20.5078 16.875 23.0508 18.6328 26.9883 24.2695L30.7852 18.7148Z" fill="url(#paint3_linear_4847_2855)"/>
<path d="M37.9688 41.8711C41.8242 47.4844 44.7305 49.5234 49.2656 49.5234C55.7695 49.5234 59.3906 44.2383 59.3906 35.8242L53.7891 36.2695C53.7891 40.6289 52.3594 43.1602 49.3945 43.1602C47.1094 43.1602 45.7734 41.9414 42.5039 36.9023L37.9688 41.8711Z" fill="url(#paint4_linear_4847_2855)"/>
<defs>
<linearGradient id="paint0_linear_4847_2855" x1="0.621094" y1="29.9883" x2="59.3906" y2="29.9883" gradientUnits="userSpaceOnUse">
<stop stop-color="#0064E0"/>
<stop offset="0.061763" stop-color="#006AE5"/>
<stop offset="0.2183" stop-color="#007AF4"/>
<stop offset="0.8106" stop-color="#007DF6"/>
<stop offset="1" stop-color="#0080F9"/>
</linearGradient>
<linearGradient id="paint1_linear_4847_2855" x1="5.8343" y1="22.6553" x2="27.0374" y2="44.5806" gradientUnits="userSpaceOnUse">
<stop stop-color="#0064E0"/>
<stop offset="0.0134753" stop-color="#0065E1"/>
<stop offset="0.2894" stop-color="#0075F0"/>
<stop offset="0.5971" stop-color="#007FF9"/>
<stop offset="1" stop-color="#0082FC"/>
</linearGradient>
<linearGradient id="paint2_linear_4847_2855" x1="12.9199" y1="7.29094" x2="48.7617" y2="46.0249" gradientUnits="userSpaceOnUse">
<stop stop-color="#0082FB"/>
<stop offset="0.0216721" stop-color="#017CF5"/>
<stop offset="0.0904785" stop-color="#0471EA"/>
<stop offset="0.1872" stop-color="#066AE3"/>
<stop offset="0.4561" stop-color="#0668E1"/>
<stop offset="0.7462" stop-color="#056AE3"/>
<stop offset="0.8847" stop-color="#0472EB"/>
<stop offset="0.9742" stop-color="#017CF5"/>
<stop offset="1" stop-color="#0082FB"/>
</linearGradient>
<linearGradient id="paint3_linear_4847_2855" x1="5.74219" y1="17.373" x2="30.7852" y2="17.373" gradientUnits="userSpaceOnUse">
<stop stop-color="#0064E0"/>
<stop offset="0.4218" stop-color="#0069E4"/>
<stop offset="0.4332" stop-color="#0069E4"/>
<stop offset="1" stop-color="#0668E1"/>
</linearGradient>
<linearGradient id="paint4_linear_4847_2855" x1="37.9706" y1="42.6738" x2="59.3906" y2="42.6738" gradientUnits="userSpaceOnUse">
<stop stop-color="#066BE3"/>
<stop offset="0.3087" stop-color="#0470E9"/>
<stop offset="0.559" stop-color="#0279F2"/>
<stop offset="1" stop-color="#0080F9"/>
</linearGradient>
</defs>
</svg>
