<svg width="20" height="20" viewBox="0 0 20 20" fill="none" xmlns="http://www.w3.org/2000/svg">
<g clip-path="url(#clip0_2183_7614)">
<path d="M20 14.8453V5.15469C20 2.30783 17.6922 0 14.8453 0H5.15469C2.30783 0 0 2.30783 0 5.15469V14.8453C0 17.6922 2.30783 20 5.15469 20H14.8453C17.6922 20 20 17.6922 20 14.8453Z" fill="#41A5EE"/>
<path opacity="0.25" d="M20 9.87073V14.8438C20 16.2113 19.4568 17.5228 18.4898 18.4898C17.5228 19.4568 16.2113 20 14.8438 20H9.87109L4.39258 14.5215L6.89687 13.1348L4.39258 10.6305L6.59805 8.94534L4.39258 6.73987L8.77734 4.98206L9.66914 5.87385L15.5836 5.45315L20 9.87073Z" fill="black"/>
<path d="M14.9438 9.08437H13.9695C13.8149 8.83907 13.6006 8.63695 13.3467 8.49687C13.0928 8.35679 12.8076 8.28333 12.5176 8.28333C12.2276 8.28333 11.9423 8.35679 11.6884 8.49687C11.4345 8.63695 11.2203 8.83907 11.0656 9.08437H5.05625C4.81341 9.08437 4.58052 9.18084 4.40881 9.35255C4.23709 9.52427 4.14062 9.75716 4.14062 10C4.14062 10.2428 4.23709 10.4757 4.40881 10.6474C4.58052 10.8192 4.81341 10.9156 5.05625 10.9156H11.0656C11.2203 11.1608 11.4346 11.3629 11.6885 11.5029C11.9424 11.6429 12.2276 11.7163 12.5176 11.7163C12.8075 11.7163 13.0927 11.6429 13.3466 11.5029C13.6005 11.3629 13.8148 11.1608 13.9695 10.9156H14.9438C15.1866 10.9155 15.4194 10.819 15.5911 10.6473C15.7628 10.4756 15.8593 10.2428 15.8594 10C15.8593 9.75719 15.7628 9.52436 15.5911 9.35267C15.4194 9.18098 15.1866 9.08448 14.9438 9.08437Z" fill="white"/>
<path d="M14.9438 5.19537H8.93398C8.77939 4.95006 8.56515 4.74793 8.31128 4.60785C8.05741 4.46776 7.77218 4.39429 7.48223 4.39429C7.19227 4.39429 6.90704 4.46776 6.65317 4.60785C6.3993 4.74793 6.18507 4.95006 6.03047 5.19537H5.05625C4.81375 5.19537 4.58115 5.29156 4.40949 5.46286C4.23784 5.63415 4.14114 5.86654 4.14062 6.10904C4.14062 6.35188 4.23709 6.58477 4.40881 6.75648C4.58052 6.9282 4.81341 7.02466 5.05625 7.02466H6.03047C6.18507 7.26997 6.3993 7.4721 6.65317 7.61218C6.90704 7.75227 7.19227 7.82574 7.48223 7.82574C7.77218 7.82574 8.05741 7.75227 8.31128 7.61218C8.56515 7.4721 8.77939 7.26997 8.93398 7.02466H14.9438C15.1866 7.02456 15.4194 6.92806 15.5911 6.75637C15.7628 6.58468 15.8593 6.35185 15.8594 6.10904C15.8588 5.86657 15.762 5.63424 15.5904 5.46297C15.4188 5.2917 15.1862 5.19547 14.9438 5.19537Z" fill="white"/>
<path d="M14.9438 12.9754H8.93398C8.77939 12.7301 8.56515 12.528 8.31128 12.3879C8.05741 12.2478 7.77218 12.1743 7.48223 12.1743C7.19227 12.1743 6.90704 12.2478 6.65317 12.3879C6.3993 12.528 6.18507 12.7301 6.03047 12.9754H5.05625C4.93599 12.9753 4.81691 12.999 4.70579 13.045C4.59468 13.091 4.49372 13.1584 4.40869 13.2435C4.32366 13.3285 4.25621 13.4295 4.21022 13.5406C4.16422 13.6517 4.14057 13.7708 4.14063 13.891C4.14063 14.1339 4.23709 14.3668 4.40881 14.5385C4.58052 14.7102 4.81341 14.8066 5.05625 14.8066H6.03047C6.18513 15.0519 6.39939 15.2539 6.65325 15.3939C6.90712 15.5339 7.19231 15.6074 7.48223 15.6074C7.77214 15.6074 8.05734 15.5339 8.3112 15.3939C8.56506 15.2539 8.77932 15.0519 8.93398 14.8066H14.9438C15.1866 14.8065 15.4194 14.71 15.5911 14.5384C15.7628 14.3667 15.8593 14.1338 15.8594 13.891C15.8594 13.6482 15.7629 13.4153 15.5912 13.2436C15.4195 13.0719 15.1866 12.9754 14.9438 12.9754Z" fill="white"/>
</g>
<defs>
<clipPath id="clip0_2183_7614">
<rect width="20" height="20" fill="white"/>
</clipPath>
</defs>
</svg>
