<svg width="60" height="60" viewBox="0 0 60 60" fill="none" xmlns="http://www.w3.org/2000/svg">
<path d="M34.3113 3.97141C30.187 1.58571 24.9132 3.00145 22.5319 7.1336L1.15669 44.227C-1.22445 48.3591 0.1886 53.6429 4.3129 56.0286C8.43719 58.4143 13.711 56.9985 16.0922 52.8664L37.4676 15.773C39.8487 11.6409 38.4356 6.35712 34.3113 3.97141Z" fill="#FFC107"/>
<path d="M34.3113 3.97152C32.3847 2.85718 30.2076 2.57265 28.1914 3.0066C29.0476 3.19128 29.8903 3.50921 30.6895 3.97152C34.8138 6.35722 36.227 11.641 33.8457 15.7731L12.4705 52.8665C11.2016 55.0684 9.11119 56.4986 6.81104 56.9936C10.3728 57.7619 14.1725 56.1978 16.0922 52.8665L37.4674 15.7731C39.8488 11.641 38.4356 6.35722 34.3113 3.97152Z" fill="#FFB300"/>
<path d="M8.61398 57.1873C13.3714 57.1873 17.228 53.3234 17.228 48.557C17.228 43.7907 13.3714 39.9268 8.61398 39.9268C3.85661 39.9268 0 43.7907 0 48.557C0 53.3234 3.85661 57.1873 8.61398 57.1873Z" fill="#4CAF50"/>
<path d="M6.81111 56.9934C6.81064 56.9945 6.81041 56.9954 6.81006 56.9963C7.39201 57.1205 7.99506 57.1873 8.61404 57.1873C13.3714 57.1873 17.228 53.3234 17.228 48.5571C17.228 47.4982 17.0368 46.4843 16.6885 45.5469L12.4707 52.8663C11.2017 55.0682 9.11127 56.4983 6.81111 56.9934Z" fill="#43A047"/>
<path d="M58.843 44.2268L37.4678 7.1336C35.0866 3.00145 29.8129 1.58571 25.6884 3.97141C21.5641 6.35712 20.151 11.6409 22.5322 15.773L43.9076 52.8664C46.2887 56.9985 51.5625 58.4143 55.6869 56.0286C59.8111 53.6429 61.2243 48.359 58.843 44.2268Z" fill="#2196F3"/>
<path d="M58.8434 44.2268L37.4681 7.13352C35.5484 3.80223 31.7488 2.23801 28.187 3.00641C30.4871 3.50141 32.5776 4.93157 33.8465 7.13352L55.2218 44.2269C57.6031 48.359 56.1899 53.6428 52.0656 56.0285C51.2663 56.4908 50.4237 56.8087 49.5675 56.9934C51.5836 57.4273 53.7608 57.1428 55.6874 56.0285C59.8115 53.6428 61.2246 48.3589 58.8434 44.2268Z" fill="#1E88E5"/>
</svg>
