<svg width="20" height="20" viewBox="0 0 20 20" fill="none" xmlns="http://www.w3.org/2000/svg">
<g clip-path="url(#clip0_2183_7646)">
<path d="M20 10.0002C20 4.47692 15.5228 0.00012207 10.0002 0.00012207C4.4772 0.00012207 0 4.47692 0 10.0002C0 15.5227 4.4772 19.9999 10.0002 19.9999C15.5228 19.9999 20 15.5227 20 10.0002Z" fill="#25B7D3"/>
<path d="M5.57129 6.99741C5.57129 6.4365 5.75135 5.86814 6.11156 5.29243C6.47165 4.71673 6.99729 4.23995 7.68811 3.862C8.37898 3.48418 9.18498 3.29517 10.1061 3.29517C10.9622 3.29517 11.7181 3.45322 12.3735 3.76901C13.029 4.08495 13.5352 4.51454 13.8925 5.05771C14.2497 5.60104 14.4283 6.19142 14.4283 6.82912C14.4283 7.33106 14.3265 7.77104 14.1228 8.14882C13.919 8.52677 13.6769 8.85299 13.3965 9.1275C13.1159 9.40209 12.6126 9.86416 11.8863 10.5137C11.6856 10.6968 11.5246 10.8577 11.4036 10.9964C11.2825 11.1352 11.1924 11.2621 11.1335 11.3772C11.0744 11.4924 11.0285 11.6075 10.9962 11.7227C10.9636 11.8378 10.9149 12.0401 10.8501 12.3294C10.7378 12.9435 10.3864 13.2505 9.79607 13.2505C9.48899 13.2505 9.23061 13.1502 9.02108 12.9494C8.81143 12.7487 8.70666 12.4505 8.70666 12.0548C8.70666 11.5588 8.78333 11.1292 8.93695 10.7661C9.09045 10.4029 9.29414 10.0841 9.54809 9.80958C9.80188 9.53499 10.1444 9.20881 10.5755 8.83086C10.9533 8.50024 11.2265 8.25072 11.3948 8.08243C11.5631 7.91414 11.7048 7.72678 11.8199 7.51999C11.9351 7.31336 11.9927 7.08904 11.9927 6.84686C11.9927 6.37451 11.8169 5.97597 11.4657 5.65115C11.1143 5.32649 10.661 5.16401 10.1061 5.16401C9.45646 5.16401 8.97819 5.32787 8.67123 5.65558C8.36415 5.9833 8.10439 6.46601 7.8918 7.10371C7.69102 7.77104 7.31013 8.10456 6.74922 8.10456C6.41844 8.10456 6.13945 7.98803 5.91223 7.75471C5.68492 7.52148 5.57129 7.26906 5.57129 6.99741ZM9.89354 16.7048C9.53329 16.7048 9.21888 16.5881 8.95025 16.3549C8.68151 16.1218 8.54724 15.7955 8.54724 15.3762C8.54724 15.0042 8.67703 14.6913 8.93695 14.4374C9.19671 14.1836 9.51556 14.0565 9.8935 14.0565C10.2655 14.0565 10.5784 14.1836 10.8324 14.4374C11.0861 14.6913 11.2132 15.0042 11.2132 15.3762C11.2132 15.7896 11.0803 16.1144 10.8146 16.3505C10.5489 16.5867 10.2419 16.7048 9.89354 16.7048Z" fill="white"/>
</g>
<defs>
<clipPath id="clip0_2183_7646">
<rect width="20" height="20" fill="white"/>
</clipPath>
</defs>
</svg>
