<svg width="16" height="16" viewBox="0 0 16 16" fill="none" xmlns="http://www.w3.org/2000/svg">
<mask id="mask0_8209_38011" style="mask-type:alpha" maskUnits="userSpaceOnUse" x="0" y="0" width="16" height="16">
<rect width="16" height="16" fill="#D9D9D9"/>
</mask>
<g mask="url(#mask0_8209_38011)">
<path d="M4.66699 14C4.30033 14 3.98644 13.8694 3.72533 13.6083C3.46421 13.3472 3.33366 13.0333 3.33366 12.6667V4H2.66699V2.66667H6.00033V2H10.0003V2.66667H13.3337V4H12.667V12.6667C12.667 13.0333 12.5364 13.3472 12.2753 13.6083C12.0142 13.8694 11.7003 14 11.3337 14H4.66699ZM11.3337 4H4.66699V12.6667H11.3337V4ZM6.00033 11.3333H7.33366V5.33333H6.00033V11.3333ZM8.66699 11.3333H10.0003V5.33333H8.66699V11.3333Z" fill="#252A31"/>
</g>
</svg>
