<svg width="28" height="28" viewBox="0 0 28 28" fill="none" xmlns="http://www.w3.org/2000/svg">
<g id="Layer 2">
<path id="Vector" d="M14.0001 27.3334C21.3639 27.3334 27.3334 21.3638 27.3334 14C27.3334 6.63622 21.3639 0.666687 14.0001 0.666687C6.63628 0.666687 0.666748 6.63622 0.666748 14C0.666748 21.3638 6.63628 27.3334 14.0001 27.3334Z" fill="#2196F3"/>
<g id="Group">
<path id="Vector_2" d="M14.0002 9.50667C14.9206 9.50667 15.6668 8.76048 15.6668 7.84001C15.6668 6.91953 14.9206 6.17334 14.0002 6.17334C13.0797 6.17334 12.3335 6.91953 12.3335 7.84001C12.3335 8.76048 13.0797 9.50667 14.0002 9.50667Z" fill="white"/>
<path id="Vector_3" d="M14.0002 21.84C13.6465 21.84 13.3074 21.6995 13.0574 21.4495C12.8073 21.1994 12.6668 20.8603 12.6668 20.5067V13.84C12.3132 13.84 11.9741 13.6995 11.724 13.4495C11.474 13.1994 11.3335 12.8603 11.3335 12.5067C11.3335 12.1531 11.474 11.8139 11.724 11.5639C11.9741 11.3138 12.3132 11.1733 12.6668 11.1733H14.0002C14.3538 11.1733 14.6929 11.3138 14.943 11.5639C15.193 11.8139 15.3335 12.1531 15.3335 12.5067V20.5067C15.3335 20.8603 15.193 21.1994 14.943 21.4495C14.6929 21.6995 14.3538 21.84 14.0002 21.84Z" fill="white"/>
<path id="Vector_4" d="M15.3335 21.84H12.6668C12.3132 21.84 11.9741 21.6995 11.724 21.4495C11.474 21.1994 11.3335 20.8603 11.3335 20.5067C11.3335 20.153 11.474 19.8139 11.724 19.5639C11.9741 19.3138 12.3132 19.1733 12.6668 19.1733H15.3335C15.6871 19.1733 16.0263 19.3138 16.2763 19.5639C16.5264 19.8139 16.6668 20.153 16.6668 20.5067C16.6668 20.8603 16.5264 21.1994 16.2763 21.4495C16.0263 21.6995 15.6871 21.84 15.3335 21.84Z" fill="white"/>
</g>
</g>
</svg>
