<svg width="20" height="20" viewBox="0 0 20 20" fill="none" xmlns="http://www.w3.org/2000/svg">
<g clip-path="url(#clip0_2183_7590)">
<path d="M19.8204 8.10549C19.7729 7.85922 19.5565 7.68157 19.3055 7.68157H18.0792C17.8561 7.68157 17.6584 7.54 17.5843 7.32941C17.4878 7.05451 17.3765 6.78627 17.2514 6.52588C17.1549 6.32431 17.1941 6.08431 17.3522 5.92667L18.2188 5.06C18.3961 4.88235 18.4235 4.60353 18.2827 4.39608C17.9255 3.86902 17.5196 3.37765 17.0714 2.92902L17.071 2.92863C16.6224 2.48 16.131 2.07451 15.6039 1.71725C15.3965 1.57647 15.1176 1.60392 14.94 1.78118L14.0733 2.64784C13.9157 2.80588 13.6757 2.8451 13.4741 2.74863C13.2137 2.62353 12.9455 2.51216 12.6706 2.41569C12.46 2.34157 12.3184 2.14392 12.3184 1.92078V0.69451C12.3184 0.443529 12.1408 0.227059 11.8945 0.179608C11.2812 0.0619608 10.6478 0 10 0C9.35216 0 8.71882 0.0619608 8.10549 0.179608C7.85922 0.227059 7.68157 0.443529 7.68157 0.69451V1.92078C7.68157 2.14392 7.54 2.34157 7.32941 2.41569C7.05451 2.51216 6.78627 2.62353 6.52588 2.74863C6.32431 2.8451 6.08431 2.80588 5.92667 2.64784L5.06 1.78118C4.88235 1.60392 4.60353 1.57647 4.39608 1.71725C3.86902 2.07451 3.37765 2.48039 2.92902 2.92902C2.70471 3.15333 2.49098 3.38824 2.28902 3.63294C2.08667 3.87804 1.89569 4.13255 1.71725 4.39608C1.57647 4.60353 1.60392 4.88235 1.78118 5.06L2.64784 5.92667C2.80588 6.08431 2.8451 6.32431 2.74863 6.52588C2.62353 6.78627 2.51216 7.05451 2.41569 7.32941C2.34157 7.54 2.14392 7.68157 1.92078 7.68157H0.69451C0.443529 7.68157 0.227059 7.85922 0.179608 8.10549C0.0619608 8.71882 0 9.35216 0 10C0 10.6478 0.0619608 11.2812 0.179608 11.8945C0.227059 12.1408 0.443529 12.3184 0.69451 12.3184H1.92078C2.14392 12.3184 2.34157 12.46 2.41569 12.6706C2.51216 12.9455 2.62353 13.2137 2.74863 13.4741C2.8451 13.6757 2.80588 13.9157 2.64784 14.0733L1.78118 14.94C1.60392 15.1176 1.57647 15.3965 1.71725 15.6039C2.07451 16.131 2.48039 16.6224 2.92902 17.071C3.15333 17.2953 3.38824 17.509 3.63294 17.711C3.87804 17.9133 4.13255 18.1043 4.39608 18.2827C4.60353 18.4235 4.88235 18.3961 5.06 18.2188L5.92667 17.3522C6.08431 17.1941 6.32431 17.1549 6.52588 17.2514C6.78627 17.3765 7.05451 17.4878 7.32941 17.5843C7.54 17.6584 7.68157 17.8561 7.68157 18.0792V19.3055C7.68157 19.5565 7.85922 19.7729 8.10549 19.8204C8.71882 19.938 9.35216 20 10 20C10.6478 20 11.2812 19.938 11.8945 19.8204C12.1408 19.7729 12.3184 19.5565 12.3184 19.3055V18.0792C12.3184 17.8561 12.46 17.6584 12.6706 17.5843C12.9455 17.4878 13.2137 17.3765 13.4741 17.2514C13.6757 17.1549 13.9157 17.1941 14.0733 17.3522L14.94 18.2188C15.1176 18.3961 15.3965 18.4235 15.6039 18.2827C16.131 17.9255 16.6224 17.52 17.071 17.0714L17.0714 17.071C17.5196 16.6224 17.9255 16.131 18.2827 15.6039C18.4235 15.3965 18.3961 15.1176 18.2188 14.94L17.3522 14.0733C17.1941 13.9157 17.1549 13.6757 17.2514 13.4741C17.3765 13.2137 17.4878 12.9455 17.5843 12.6706C17.6584 12.46 17.8561 12.3184 18.0792 12.3184H19.3055C19.5565 12.3184 19.7729 12.1408 19.8204 11.8945C19.938 11.2812 20 10.6478 20 10C20 9.35216 19.938 8.71882 19.8204 8.10549ZM10 12.431C8.67569 12.431 7.60196 11.3424 7.60196 10C7.60196 8.65765 8.67569 7.56902 10 7.56902C11.3243 7.56902 12.398 8.65765 12.398 10C12.398 11.3424 11.3243 12.431 10 12.431Z" fill="url(#paint0_linear_2183_7590)"/>
<path d="M3.23485 2.63611C3.13093 2.7314 3.02896 2.82905 2.92896 2.92905C2.70465 3.15336 2.49093 3.38827 2.28896 3.63297C2.08661 3.87807 1.89563 4.13258 1.7172 4.39611C1.57642 4.60356 1.60387 4.88238 1.78112 5.06003L2.64779 5.9267C2.80583 6.08434 2.84504 6.32434 2.74857 6.52591C2.74857 6.52591 3.4474 5.3605 4.15069 4.52776C4.4034 4.2285 4.38445 3.78568 4.10747 3.5087L3.23485 2.63611Z" fill="url(#paint1_linear_2183_7590)"/>
<path d="M18.2826 4.39611C17.9253 3.86905 17.5194 3.37768 17.0712 2.92905L17.0708 2.92866C16.9708 2.82866 16.8689 2.73101 16.7649 2.63611L15.8923 3.50874C15.6153 3.78568 15.5964 4.22854 15.8491 4.52779C16.5524 5.3605 17.2512 6.52591 17.2512 6.52591C17.1547 6.32434 17.194 6.08434 17.352 5.9267L18.2187 5.06003C18.3959 4.88238 18.4234 4.60356 18.2826 4.39611Z" fill="url(#paint2_linear_2183_7590)"/>
<path d="M2.41569 12.6674V12.6705C2.34157 12.4599 2.14392 12.3184 1.92078 12.3184H0.69451C0.443529 12.3184 0.227059 12.1407 0.179608 11.8945C0.0619608 11.2811 0 10.6478 0 9.99994C0 9.92582 0.00117647 9.85171 0.0027451 9.77759H1.59137C1.67145 9.77759 1.74886 9.78904 1.82204 9.81045C1.90514 9.83473 1.96078 9.91202 1.96078 9.99861V9.99994C1.96078 10.9345 2.12118 11.8325 2.41569 12.6674Z" fill="url(#paint3_linear_2183_7590)"/>
<path d="M20.0002 9.99994C20.0002 10.6478 19.9382 11.2811 19.8206 11.8945C19.7731 12.1407 19.5566 12.3184 19.3056 12.3184H18.0794C17.8562 12.3184 17.6586 12.4599 17.5845 12.6705V12.6674C17.879 11.8325 18.0394 10.9345 18.0394 9.99994C18.0394 9.99951 18.0394 9.99904 18.0394 9.99861C18.0394 9.91202 18.095 9.83476 18.1781 9.81045C18.2513 9.78908 18.3287 9.77759 18.4088 9.77759H19.9974C19.999 9.85171 20.0002 9.92582 20.0002 9.99994Z" fill="url(#paint4_linear_2183_7590)"/>
<path d="M2.783 13.5688C2.82991 13.7472 2.78167 13.9397 2.64779 14.0733L1.78112 14.9399C1.60387 15.1176 1.57642 15.3964 1.7172 15.6039C2.07445 16.1309 2.48034 16.6223 2.92896 17.0709C3.15328 17.2952 3.38818 17.509 3.63289 17.7109C3.87798 17.9133 4.13249 18.1043 4.39602 18.2827C4.60347 18.4235 4.8823 18.396 5.05994 18.2188L5.92661 17.3521C6.08426 17.1941 6.32426 17.1548 6.52583 17.2513C6.78622 17.3764 7.05445 17.4878 7.32936 17.5843C7.53995 17.6584 7.68151 17.856 7.68151 18.0792V19.3054C7.68151 19.5564 7.85916 19.7729 8.10544 19.8203C8.71877 19.938 9.3521 19.9999 9.99995 19.9999C10.6478 19.9999 11.2811 19.938 11.8945 19.8203C12.1407 19.7729 12.3184 19.5564 12.3184 19.3054V18.0792C12.3184 17.856 12.4599 17.6584 12.6705 17.5843C12.9454 17.4878 13.2137 17.3764 13.4741 17.2513C13.6756 17.1548 13.9156 17.1941 14.0733 17.3521L14.9399 18.2188C15.1176 18.396 15.3964 18.4235 15.6039 18.2827C16.1309 17.9254 16.6223 17.5199 17.0709 17.0713L17.0713 17.0709C17.5196 16.6223 17.9254 16.1309 18.2827 15.6039C18.4235 15.3964 18.396 15.1176 18.2188 14.9399L17.3521 14.0733C17.2182 13.9397 17.17 13.7472 17.2169 13.5688H2.783Z" fill="url(#paint5_linear_2183_7590)"/>
<path d="M9.9998 3.17651C6.23729 3.17651 3.17627 6.23753 3.17627 10C3.17627 13.7626 6.23729 16.8236 9.9998 16.8236C13.7623 16.8236 16.8233 13.7626 16.8233 10C16.8233 6.23753 13.7623 3.17651 9.9998 3.17651ZM9.9998 12.431C8.67549 12.431 7.60176 11.3424 7.60176 10C7.60176 8.65769 8.67549 7.56906 9.9998 7.56906C11.3241 7.56906 12.3978 8.65769 12.3978 10C12.3978 11.3424 11.3241 12.431 9.9998 12.431Z" fill="url(#paint6_linear_2183_7590)"/>
<path d="M17.5842 12.6706C17.6583 12.46 17.856 12.3185 18.0791 12.3185H19.3054C19.5564 12.3185 19.7729 12.1408 19.8203 11.8946C19.837 11.8076 19.8522 11.7201 19.8667 11.6323L14.2779 6.04349C13.2144 4.91604 11.7076 4.21106 10.0391 4.21106C6.82545 4.21106 4.21094 6.82557 4.21094 10.0393C4.21094 11.7078 4.91592 13.2146 6.04341 14.278L11.6322 19.8668C11.72 19.8524 11.8074 19.8371 11.8945 19.8205C12.1407 19.773 12.3184 19.5566 12.3184 19.3056V18.0793C12.3184 17.8562 12.46 17.6585 12.6705 17.5844C12.9454 17.4879 13.2137 17.3766 13.4741 17.2515C13.6756 17.155 13.9156 17.1942 14.0733 17.3522L14.94 18.2189C15.1176 18.3962 15.3964 18.4236 15.6039 18.2828C16.1309 17.9256 16.6223 17.5201 17.0709 17.0715L17.0713 17.0711C17.5196 16.6224 17.9254 16.1311 18.2827 15.604C18.4235 15.3966 18.396 15.1177 18.2188 14.9401L17.3521 14.0734C17.1941 13.9158 17.1549 13.6758 17.2513 13.4742C17.3764 13.2138 17.4878 12.9455 17.5842 12.6706ZM9.99992 12.431C8.6756 12.431 7.60188 11.3424 7.60188 10C7.60188 8.65769 8.6756 7.56906 9.99992 7.56906C11.3242 7.56906 12.398 8.65769 12.398 10C12.398 11.3424 11.3242 12.431 9.99992 12.431Z" fill="url(#paint7_linear_2183_7590)"/>
<path d="M14.2783 6.04351C14.2296 5.99175 14.1798 5.94116 14.1292 5.89136C15.1559 6.94234 15.7892 8.37881 15.7892 9.96077C15.7892 13.1745 13.1747 15.789 9.96101 15.789C8.37905 15.789 6.94258 15.1557 5.8916 14.129C5.94141 14.1796 5.99199 14.2294 6.04376 14.278L11.6324 19.8667C11.7202 19.8521 11.8077 19.8372 11.8947 19.8204C12.141 19.7729 12.3187 19.5565 12.3187 19.3055V18.0792C12.3187 17.8561 12.4602 17.6584 12.6708 17.5843C12.9457 17.4878 13.214 17.3765 13.4743 17.2514C13.6759 17.1549 13.9159 17.1941 14.0736 17.3521L14.9402 18.2188C15.1179 18.3961 15.3967 18.4235 15.6042 18.2827C16.1312 17.9255 16.6226 17.52 17.0712 17.0714L17.0716 17.071C17.5198 16.6223 17.9257 16.131 18.283 15.6039C18.4238 15.3965 18.3963 15.1176 18.2191 14.94L17.3524 14.0733C17.1943 13.9157 17.1551 13.6757 17.2516 13.4741C17.3767 13.2137 17.4881 12.9455 17.5845 12.6706C17.6587 12.46 17.8563 12.3184 18.0794 12.3184H19.3057C19.5567 12.3184 19.7732 12.1408 19.8206 11.8945C19.8375 11.8074 19.8524 11.72 19.8669 11.6321L14.2783 6.04351Z" fill="url(#paint8_linear_2183_7590)"/>
<path d="M10.0001 15.8281C6.78639 15.8281 4.17188 13.2136 4.17188 9.99995C4.17188 6.78626 6.78639 4.17175 10.0001 4.17175C13.2138 4.17175 15.8283 6.78626 15.8283 9.99995C15.8283 13.2136 13.2138 15.8281 10.0001 15.8281ZM10.0001 5.93646C7.75944 5.93646 5.93658 7.75932 5.93658 9.99995C5.93658 12.2406 7.75944 14.0634 10.0001 14.0634C12.2407 14.0634 14.0636 12.2406 14.0636 9.99995C14.0636 7.75932 12.2407 5.93646 10.0001 5.93646Z" fill="url(#paint9_linear_2183_7590)"/>
<path d="M14.0083 10.6666C13.6893 12.5912 12.0134 14.0634 9.9998 14.0634C7.9862 14.0634 6.31031 12.5912 5.99129 10.6666H4.20996C4.54184 13.5675 7.01157 15.8282 9.9998 15.8282C12.988 15.8282 15.4578 13.5675 15.7896 10.6666H14.0083Z" fill="url(#paint10_linear_2183_7590)"/>
<path d="M4.78915 16.0964C5.56797 16.7191 6.52578 17.2514 6.52578 17.2514C6.32421 17.1549 6.08421 17.1942 5.92656 17.3522L5.05989 18.2189C4.88225 18.3961 4.60342 18.4236 4.39597 18.2828C4.13244 18.1044 3.87793 17.9134 3.63284 17.711C3.37829 17.5009 3.13433 17.2781 2.90186 17.0439C2.90186 17.0438 2.90186 17.0437 2.90186 17.0436L3.79401 16.1515C4.06327 15.8822 4.49174 15.8586 4.78915 16.0964Z" fill="url(#paint11_linear_2183_7590)"/>
<path d="M17.0984 17.044C17.0894 17.053 17.0804 17.062 17.0714 17.071L17.071 17.0714C16.6224 17.52 16.131 17.9255 15.6039 18.2828C15.3965 18.4236 15.1177 18.3961 14.94 18.2189L14.0733 17.3522C13.9157 17.1942 13.6757 17.1549 13.4741 17.2514C13.4741 17.2514 14.4319 16.7191 15.2107 16.0964C15.5081 15.8586 15.9366 15.8822 16.2059 16.1514L17.0984 17.044Z" fill="url(#paint12_linear_2183_7590)"/>
</g>
<defs>
<linearGradient id="paint0_linear_2183_7590" x1="3.36643" y1="3.36624" x2="15.4904" y2="15.4902" gradientUnits="userSpaceOnUse">
<stop stop-color="#EEF4FF"/>
<stop offset="1" stop-color="#CFE7FD"/>
</linearGradient>
<linearGradient id="paint1_linear_2183_7590" x1="3.17524" y1="4.39101" x2="1.79583" y2="5.77042" gradientUnits="userSpaceOnUse">
<stop stop-color="#8AAADC" stop-opacity="0"/>
<stop offset="1" stop-color="#8AAADC"/>
</linearGradient>
<linearGradient id="paint2_linear_2183_7590" x1="16.5592" y1="4.07489" x2="18.1082" y2="5.74156" gradientUnits="userSpaceOnUse">
<stop stop-color="#8AAADC" stop-opacity="0"/>
<stop offset="1" stop-color="#8AAADC"/>
</linearGradient>
<linearGradient id="paint3_linear_2183_7590" x1="1.20784" y1="10.1699" x2="1.20784" y2="12.7058" gradientUnits="userSpaceOnUse">
<stop stop-color="#8AAADC" stop-opacity="0"/>
<stop offset="1" stop-color="#8AAADC"/>
</linearGradient>
<linearGradient id="paint4_linear_2183_7590" x1="18.7923" y1="10.1699" x2="18.7923" y2="12.7058" gradientUnits="userSpaceOnUse">
<stop stop-color="#8AAADC" stop-opacity="0"/>
<stop offset="1" stop-color="#8AAADC"/>
</linearGradient>
<linearGradient id="paint5_linear_2183_7590" x1="9.99994" y1="14.9019" x2="9.99994" y2="19.728" gradientUnits="userSpaceOnUse">
<stop stop-color="#8AAADC" stop-opacity="0"/>
<stop offset="1" stop-color="#8AAADC"/>
</linearGradient>
<linearGradient id="paint6_linear_2183_7590" x1="14.4989" y1="14.4992" x2="5.64698" y2="5.64722" gradientUnits="userSpaceOnUse">
<stop stop-color="#EEF4FF"/>
<stop offset="1" stop-color="#CFE7FD"/>
</linearGradient>
<linearGradient id="paint7_linear_2183_7590" x1="11.7385" y1="11.7386" x2="6.90388" y2="6.904" gradientUnits="userSpaceOnUse">
<stop stop-color="#8AAADC" stop-opacity="0"/>
<stop offset="1" stop-color="#8AAADC"/>
</linearGradient>
<linearGradient id="paint8_linear_2183_7590" x1="16.6015" y1="16.6013" x2="12.956" y2="12.9557" gradientUnits="userSpaceOnUse">
<stop stop-color="#8AAADC" stop-opacity="0"/>
<stop offset="1" stop-color="#8AAADC"/>
</linearGradient>
<linearGradient id="paint9_linear_2183_7590" x1="6.01333" y1="6.0132" x2="13.9619" y2="13.9618" gradientUnits="userSpaceOnUse">
<stop stop-color="#76CCF8"/>
<stop offset="0.833" stop-color="#518EF8"/>
<stop offset="1" stop-color="#4981F8"/>
</linearGradient>
<linearGradient id="paint10_linear_2183_7590" x1="9.9998" y1="11.8039" x2="9.9998" y2="15.8069" gradientUnits="userSpaceOnUse">
<stop stop-color="#4071F7" stop-opacity="0"/>
<stop offset="1" stop-color="#30569F"/>
</linearGradient>
<linearGradient id="paint11_linear_2183_7590" x1="4.62617" y1="17.06" x2="5.48891" y2="17.9228" gradientUnits="userSpaceOnUse">
<stop stop-color="#8AAADC" stop-opacity="0"/>
<stop offset="1" stop-color="#8AAADC"/>
</linearGradient>
<linearGradient id="paint12_linear_2183_7590" x1="15.6386" y1="16.7955" x2="14.5032" y2="17.9307" gradientUnits="userSpaceOnUse">
<stop stop-color="#8AAADC" stop-opacity="0"/>
<stop offset="1" stop-color="#8AAADC"/>
</linearGradient>
<clipPath id="clip0_2183_7590">
<rect width="20" height="20" fill="white"/>
</clipPath>
</defs>
</svg>
