<svg width="18" height="20" viewBox="0 0 18 20" fill="none" xmlns="http://www.w3.org/2000/svg">
<path d="M6.11335 10.3672C4.52742 10.3672 3.24617 11.6484 3.2696 13.2187C3.28523 14.2266 3.83992 15.1016 4.65632 15.5898C4.37898 15.1641 4.21492 14.6602 4.2071 14.1172C4.18367 12.5469 5.46492 11.2656 7.05085 11.2656C7.36335 11.2656 7.66413 11.3164 7.94538 11.4062V8.26172C7.65242 8.21875 7.35164 8.19531 7.05085 8.19531C7.03523 8.19531 7.02351 8.19531 7.00788 8.19531V10.5078C6.72663 10.418 6.42585 10.3672 6.11335 10.3672Z" fill="#F00044"/>
<path d="M12.9687 0.9375H12.9453H12.1328C12.3672 2.11328 13.0273 3.13672 13.9492 3.83203C13.3438 3.03125 12.9766 2.03125 12.9687 0.9375Z" fill="#F00044"/>
<path d="M17.75 5.72266C17.4414 5.72266 17.1445 5.69141 16.8516 5.63672V7.89062C15.7891 7.89062 14.7578 7.68359 13.7891 7.26953C13.1641 7.00391 12.582 6.66406 12.0469 6.25391L12.0625 13.2031C12.0547 14.7656 11.4375 16.2305 10.3203 17.3359C9.41016 18.2344 8.25781 18.8086 7.00781 18.9922C6.71484 19.0352 6.41406 19.0586 6.11328 19.0586C4.77734 19.0586 3.50391 18.625 2.46875 17.8242C2.58594 17.9648 2.71094 18.1016 2.84766 18.2344C3.97266 19.3438 5.46484 19.957 7.05469 19.957C7.35547 19.957 7.65625 19.9336 7.94922 19.8906C9.19922 19.707 10.3516 19.1328 11.2617 18.2344C12.3789 17.1289 12.9961 15.6641 13.0039 14.1016L12.9453 7.15234C13.4766 7.5625 14.0586 7.90625 14.6875 8.16797C15.6602 8.57812 16.6914 8.78906 17.75 8.78906" fill="#F00044"/>
<path d="M2.83596 9.92578C3.94924 8.82031 5.42971 8.20703 7.00783 8.19531V7.36328C6.71486 7.32031 6.41408 7.29688 6.1133 7.29688C4.51955 7.29688 3.02346 7.91016 1.89846 9.02734C0.792987 10.125 0.160174 11.625 0.16408 13.1836C0.16408 14.7539 0.785174 16.2266 1.90627 17.3398C2.08596 17.5156 2.26955 17.6797 2.46486 17.8281C1.58205 16.7773 1.10158 15.4648 1.09767 14.082C1.10158 12.5234 1.73049 11.0234 2.83596 9.92578Z" fill="#08FFF9"/>
<path d="M16.8516 5.63672V4.80078H16.8438C15.7578 4.80078 14.7578 4.44141 13.9531 3.83203C14.6523 4.75391 15.6758 5.41016 16.8516 5.63672Z" fill="#08FFF9"/>
<path d="M6.89062 16.8828C7.26172 16.9023 7.61719 16.8516 7.94531 16.7461C9.07812 16.375 9.89453 15.3203 9.89453 14.0781L9.89844 9.42969V0.9375H12.1328C12.0742 0.644531 12.043 0.347656 12.0391 0.0390625H8.96094V8.52734L8.95703 13.1758C8.95703 14.418 8.14062 15.4727 7.00781 15.8438C6.67969 15.9531 6.32422 16.0039 5.95312 15.9805C5.48047 15.9531 5.03906 15.8125 4.65625 15.5859C5.13672 16.3281 5.95703 16.832 6.89062 16.8828Z" fill="#08FFF9"/>
<path d="M7.00783 18.9922C8.25783 18.8086 9.41017 18.2344 10.3203 17.3359C11.4375 16.2305 12.0547 14.7656 12.0625 13.2031L12.0469 6.25391C12.5781 6.66406 13.1602 7.00781 13.7891 7.26953C14.7617 7.67969 15.793 7.89062 16.8516 7.89062V5.63672C15.6758 5.41016 14.6524 4.75391 13.9531 3.83203C13.0313 3.13672 12.3672 2.11328 12.1367 0.9375H9.89846V9.42578L9.89455 14.0742C9.89455 15.3164 9.07814 16.3711 7.94533 16.7422C7.61721 16.8516 7.26174 16.9023 6.89064 16.8789C5.95314 16.8281 5.13674 16.3242 4.65627 15.5859C3.83986 15.1016 3.28517 14.2227 3.26955 13.2148C3.24611 11.6445 4.52736 10.3633 6.1133 10.3633C6.4258 10.3633 6.72658 10.4141 7.00783 10.5039V8.19141C5.42971 8.20312 3.94924 8.81641 2.83596 9.92188C1.73049 11.0195 1.09767 12.5195 1.10158 14.0742C1.10158 15.457 1.58205 16.7695 2.46877 17.8203C3.50783 18.6211 4.77736 19.0547 6.1133 19.0547C6.41408 19.0586 6.71486 19.0352 7.00783 18.9922Z" fill="black"/>
</svg>
