<svg width="200" height="200" viewBox="0 0 200 200" fill="none" xmlns="http://www.w3.org/2000/svg">
<path d="M103.073 193.855C156.604 193.855 200 150.459 200 96.9274C200 43.3959 156.604 0 103.073 0C49.5414 0 6.14551 43.3959 6.14551 96.9274C6.14551 150.459 49.5414 193.855 103.073 193.855Z" fill="#ECF2FE"/>
<path d="M177.503 30.0898C179.901 27.6919 179.901 23.8041 177.503 21.4062C175.105 19.0083 171.217 19.0083 168.819 21.4062C166.421 23.8041 166.421 27.6919 168.819 30.0898C171.217 32.4877 175.105 32.4877 177.503 30.0898Z" fill="#B3C5E0"/>
<path d="M22.7594 106.271C23.0495 104.458 21.8146 102.752 20.0012 102.462C18.1878 102.172 16.4825 103.407 16.1923 105.22C15.9022 107.034 17.1371 108.739 18.9505 109.029C20.7639 109.319 22.4692 108.085 22.7594 106.271Z" fill="#B3C5E0"/>
<path d="M191.066 156.594C192.364 155.295 192.364 153.189 191.066 151.891C189.767 150.592 187.662 150.592 186.363 151.891C185.064 153.189 185.064 155.295 186.363 156.594C187.662 157.892 189.767 157.892 191.066 156.594Z" fill="#B3C5E0"/>
<path d="M175.235 107.426C177.072 107.426 178.561 105.937 178.561 104.101C178.561 102.264 177.072 100.775 175.235 100.775C173.399 100.775 171.91 102.264 171.91 104.101C171.91 105.937 173.399 107.426 175.235 107.426Z" fill="#B3C5E0"/>
<path d="M169.836 46.5783C171.673 46.5783 173.161 45.0895 173.161 43.253C173.161 41.4165 171.673 39.9277 169.836 39.9277C168 39.9277 166.511 41.4165 166.511 43.253C166.511 45.0895 168 46.5783 169.836 46.5783Z" fill="#B3C5E0"/>
<path d="M153.916 31.4236C155.215 30.125 155.215 28.0195 153.916 26.7209C152.618 25.4223 150.512 25.4223 149.214 26.7209C147.915 28.0195 147.915 30.125 149.214 31.4236C150.512 32.7222 152.618 32.7222 153.916 31.4236Z" fill="#B3C5E0"/>
<path d="M10.1167 122.296C11.9791 120.434 11.9791 117.414 10.1167 115.552C8.25425 113.689 5.23466 113.689 3.37223 115.552C1.5098 117.414 1.5098 120.434 3.37223 122.296C5.23466 124.158 8.25426 124.158 10.1167 122.296Z" fill="#B3C5E0"/>
<path d="M186.908 91.4167C187.513 88.8532 185.925 86.2847 183.362 85.6797C180.798 85.0746 178.23 86.6622 177.625 89.2257C177.02 91.7891 178.607 94.3577 181.171 94.9627C183.734 95.5677 186.303 93.9801 186.908 91.4167Z" fill="#B3C5E0"/>
<path d="M40.894 17.7804C42.7565 15.918 42.7565 12.8984 40.894 11.036C39.0316 9.17354 36.012 9.17355 34.1496 11.036C32.2871 12.8984 32.2871 15.918 34.1496 17.7804C36.012 19.6429 39.0316 19.6429 40.894 17.7804Z" fill="#B3C5E0"/>
<path d="M67.0806 195.677C68.943 193.814 68.943 190.795 67.0805 188.932C65.2181 187.07 62.1985 187.07 60.3361 188.932C58.4737 190.795 58.4737 193.814 60.3361 195.677C62.1985 197.539 65.2181 197.539 67.0806 195.677Z" fill="#B3C5E0"/>
<path d="M139.877 107.522C140.164 106.692 140.877 106.104 141.735 105.986L146.46 105.342C149.432 104.935 151.639 102.463 151.705 99.4634L151.851 92.8473C151.917 89.8468 149.821 87.2783 146.87 86.743L142.18 85.8895C141.327 85.7341 140.641 85.1159 140.391 84.2742C139.809 82.32 139.062 80.3982 138.17 78.5607C137.784 77.768 137.871 76.8456 138.396 76.1542L141.281 72.3559C143.097 69.967 142.909 66.6593 140.834 64.4911L136.259 59.7089C134.185 57.5407 130.888 57.207 128.421 58.9148L124.499 61.6292C123.785 62.1227 122.861 62.1682 122.085 61.7488C120.289 60.7765 118.401 59.9442 116.475 59.277C115.646 58.9895 115.058 58.2768 114.94 57.4182L114.295 52.6939C113.889 49.7213 111.417 47.5157 108.417 47.4489L101.8 47.3023C98.7993 47.2363 96.2322 49.3305 95.6954 52.2833L94.8427 56.9738C94.6872 57.8266 94.0676 58.5122 93.2273 58.763C91.2732 59.3444 89.3506 60.0916 87.5131 60.984C86.7205 61.3697 85.7988 61.2831 85.1073 60.7581L81.3091 57.8728C78.9202 56.058 75.6118 56.2457 73.4435 58.3201L68.662 62.8963C66.4938 64.9699 66.1594 68.2673 67.8679 70.734L70.5817 74.6561C71.0759 75.3696 71.1221 76.2942 70.7012 77.07C69.7289 78.8657 68.8974 80.7531 68.2294 82.6801C67.942 83.5094 67.23 84.0974 66.3706 84.2148L61.647 84.86C58.6737 85.2655 56.4674 87.738 56.4014 90.7377L56.2555 97.3553C56.1887 100.354 58.2836 102.921 61.2364 103.46L65.927 104.312C66.7798 104.469 67.4654 105.087 67.7154 105.928C68.2976 107.883 69.0448 109.806 69.9379 111.641C70.3228 112.435 70.2363 113.356 69.7113 114.048L66.826 117.846C65.0104 120.235 65.1989 123.543 67.2732 125.711L71.848 130.493C73.9223 132.661 77.219 132.996 79.6864 131.288L83.6078 128.573C84.3213 128.079 85.2459 128.034 86.0224 128.454C87.8174 129.426 89.7055 130.258 91.6318 130.926C92.4611 131.213 93.0491 131.925 93.1672 132.784L93.8124 137.508C94.1358 139.882 95.7768 141.767 97.9531 142.464C98.5016 142.64 99.0852 142.74 99.6894 142.754L106.306 142.9C109.307 142.966 111.874 140.871 112.411 137.919L113.264 133.228C113.42 132.375 114.038 131.69 114.879 131.44C116.834 130.857 118.755 130.109 120.593 129.217C121.386 128.831 122.308 128.919 122.999 129.444L126.798 132.329C129.187 134.144 132.494 133.956 134.662 131.881L139.445 127.306C141.613 125.232 141.947 121.935 140.239 119.468L137.524 115.546C137.03 114.833 136.984 113.908 137.404 113.132C138.376 111.336 139.209 109.45 139.876 107.523L139.877 107.522Z" fill="#0770C7"/>
<path d="M106.446 144C106.392 144 106.338 144 106.283 143.998L99.6658 143.852C98.9648 143.836 98.2756 143.721 97.6178 143.511C94.9752 142.664 93.0995 140.42 92.7227 137.656L92.0774 132.933C92.0165 132.486 91.7078 132.115 91.2723 131.964C89.2874 131.276 87.345 130.42 85.4994 129.421C85.0903 129.199 84.6056 129.221 84.2346 129.477L80.3132 132.191C79.0674 133.054 77.6419 133.475 76.2275 133.475C74.3328 133.475 72.4571 132.719 71.0537 131.253L66.479 126.471C64.0284 123.91 63.8063 120.003 65.9503 117.18L68.8356 113.382C69.1084 113.023 69.1517 112.54 68.9485 112.121C68.032 110.237 67.2621 108.258 66.6615 106.241C66.5303 105.8 66.1725 105.475 65.7288 105.394L61.0397 104.542C57.5517 103.906 55.077 100.874 55.1561 97.3314L55.3021 90.7138C55.3798 87.17 57.9857 84.2502 61.4987 83.7707L66.2216 83.1254C66.6681 83.0646 67.0392 82.7566 67.1902 82.3211C67.878 80.3369 68.7337 78.3945 69.7339 76.5475C69.956 76.1383 69.934 75.6544 69.6774 75.2833L66.9629 71.3612C64.945 68.4473 65.3395 64.5537 67.9015 62.1032L72.683 57.5277C75.2442 55.0772 79.1517 54.855 81.9747 56.9991L85.7729 59.8844C86.1315 60.1572 86.6147 60.2004 87.0327 59.9973C88.9222 59.0793 90.9013 58.3101 92.914 57.711C93.3555 57.5791 93.6803 57.222 93.7609 56.7791L94.613 52.0885C95.2472 48.6012 98.2785 46.1272 101.824 46.2049L108.441 46.3516C111.985 46.43 114.905 49.0352 115.384 52.5468L116.03 57.2711C116.091 57.7176 116.399 58.0887 116.834 58.239C118.813 58.9246 120.756 59.7803 122.608 60.7826C123.017 61.0033 123.501 60.9821 123.872 60.7254L127.793 58.0109C130.709 55.9938 134.602 56.3883 137.052 58.9495L141.627 63.7317C144.078 66.293 144.3 70.2005 142.156 73.022L139.271 76.8202C138.998 77.1795 138.955 77.6627 139.158 78.0807C140.077 79.9725 140.846 81.9508 141.444 83.9613C141.576 84.4028 141.933 84.7276 142.376 84.8082L147.067 85.6617C150.554 86.2945 153.029 89.3272 152.95 92.8725L152.804 99.4886C152.725 103.032 150.12 105.952 146.608 106.432L141.884 107.077C141.438 107.139 141.066 107.447 140.915 107.882C140.231 109.861 139.374 111.804 138.372 113.655C138.15 114.064 138.172 114.549 138.429 114.92L141.143 118.841C143.161 121.756 142.766 125.649 140.205 128.099L135.423 132.675C132.861 135.125 128.955 135.347 126.132 133.203L122.334 130.318C121.975 130.045 121.492 130.002 121.074 130.205C119.183 131.123 117.205 131.892 115.193 132.492C114.751 132.623 114.427 132.98 114.345 133.423L113.492 138.114C112.867 141.548 109.918 143.999 106.445 143.999L106.446 144ZM84.9048 127.067C85.465 127.067 86.0288 127.205 86.5465 127.486C88.288 128.43 90.1204 129.237 91.9923 129.886C93.2147 130.31 94.0828 131.363 94.2574 132.635L94.9026 137.359C95.1636 139.276 96.4615 140.831 98.2895 141.416C98.7463 141.562 99.2258 141.642 99.7156 141.653L106.332 141.799C108.791 141.852 110.89 140.138 111.33 137.722L112.183 133.031C112.413 131.768 113.327 130.754 114.567 130.385C116.464 129.82 118.33 129.094 120.113 128.228C121.28 127.661 122.642 127.791 123.666 128.568L127.464 131.454C128.362 132.136 129.419 132.472 130.471 132.472C131.71 132.472 132.943 132.005 133.903 131.087L138.686 126.512C140.462 124.814 140.735 122.115 139.337 120.095L136.622 116.174C135.891 115.117 135.822 113.751 136.44 112.609C137.386 110.862 138.193 109.03 138.839 107.164C139.263 105.942 140.316 105.074 141.587 104.899L146.312 104.255C148.746 103.922 150.552 101.897 150.606 99.4417L150.753 92.8248C150.807 90.3677 149.092 88.2655 146.675 87.827L141.984 86.9735C140.721 86.7433 139.707 85.8304 139.337 84.5905C138.773 82.6936 138.048 80.8274 137.181 79.0434C136.613 77.8761 136.744 76.5145 137.52 75.4916L140.406 71.6934C141.892 69.7378 141.737 67.0292 140.039 65.254L135.464 60.4717C133.766 58.6965 131.067 58.423 129.046 59.8213L125.124 62.5358C124.069 63.2654 122.704 63.3358 121.562 62.7191C119.814 61.7725 117.982 60.9652 116.115 60.3192C114.892 59.8954 114.024 58.8417 113.85 57.5695L113.205 52.8452C112.873 50.4115 110.849 48.6056 108.393 48.5513L101.775 48.4047C99.3212 48.3511 97.2175 50.0655 96.7775 52.4822L95.9248 57.1728C95.6945 58.4348 94.7816 59.4488 93.5417 59.8191C91.6419 60.3845 89.7757 61.1096 87.9932 61.9756C86.8259 62.5431 85.465 62.4134 84.4414 61.6361L80.6431 58.7501C78.6868 57.2638 75.9782 57.4177 74.203 59.1167L69.4215 63.6921C67.6456 65.3904 67.3721 68.0894 68.7711 70.1088L71.4856 74.031C72.2174 75.0876 72.287 76.4536 71.6674 77.5953C70.7245 79.3367 69.9172 81.1699 69.2682 83.0411C68.8444 84.2642 67.7907 85.1323 66.5186 85.3054L61.7957 85.9506C59.3613 86.2828 57.5546 88.3066 57.5011 90.7629L57.3552 97.3805C57.3002 99.8362 59.016 101.938 61.4335 102.378L66.1241 103.23C67.3875 103.462 68.4008 104.375 68.7696 105.614C69.3364 107.516 70.0616 109.382 70.9268 111.16C71.4944 112.33 71.3639 113.691 70.5874 114.714L67.702 118.512C66.2157 120.468 66.3697 123.177 68.0686 124.952L72.6434 129.734C74.3423 131.509 77.0407 131.783 79.0608 130.385L82.9822 127.67C83.5593 127.271 84.2287 127.069 84.904 127.069L84.9048 127.067Z" fill="#264660"/>
<path d="M122.445 114.324C117.31 119.237 110.569 121.856 103.465 121.7C100.844 121.641 98.3216 121.205 95.9444 120.443C85.0132 116.939 77.1857 106.559 77.4519 94.512C77.776 79.8455 89.9729 68.1766 104.64 68.5007C107.249 68.5579 109.791 68.9876 112.209 69.7627C116.374 71.0972 120.168 73.4575 123.276 76.7073C125.732 79.2744 127.616 82.2433 128.866 85.4586C130.115 88.6739 130.73 92.1341 130.651 95.6867C130.494 102.792 127.579 109.411 122.444 114.324L122.445 114.324Z" fill="white"/>
<path d="M104.064 122.808C103.856 122.808 103.649 122.806 103.44 122.801C100.769 122.742 98.1335 122.301 95.6082 121.492C92.7955 120.59 90.1543 119.246 87.7566 117.498C85.3941 115.774 83.3249 113.698 81.6076 111.329C79.8705 108.932 78.5367 106.295 77.6429 103.49C76.7183 100.587 76.2835 97.5591 76.3517 94.4904C76.4338 90.7574 77.2477 87.1491 78.7707 83.7659C80.2408 80.5 82.3049 77.5817 84.9065 75.0923C87.508 72.6037 90.5144 70.6701 93.8426 69.3459C97.2896 67.9739 100.931 67.3206 104.663 67.4035C107.356 67.4629 110.007 67.905 112.544 68.7175C116.892 70.1106 120.877 72.6117 124.07 75.9495C126.617 78.6112 128.574 81.6769 129.891 85.063C131.206 88.4499 131.831 92.0333 131.751 95.7142C131.587 103.114 128.552 110.006 123.205 115.122C118.009 120.093 111.232 122.809 104.064 122.809V122.808ZM104.04 69.5952C97.4516 69.5952 91.2175 72.0985 86.428 76.6805C81.4991 81.3961 78.7017 87.7379 78.5514 94.5373C78.3036 105.749 85.5935 115.971 96.2799 119.397C98.6036 120.141 101.029 120.546 103.488 120.601C103.68 120.606 103.872 120.608 104.063 120.608C110.662 120.608 116.9 118.108 121.683 113.531C126.606 108.821 129.4 102.476 129.551 95.6643C129.626 92.2738 129.049 88.9749 127.84 85.8586C126.629 82.7438 124.826 79.9208 122.48 77.4688C119.54 74.395 115.872 72.0926 111.872 70.8116C109.537 70.063 107.095 69.656 104.615 69.6018C104.423 69.5974 104.231 69.5952 104.038 69.5952H104.04Z" fill="#264660"/>
<path d="M54.8959 154.451L45.5484 145.104C42.5802 142.135 42.5802 137.324 45.5484 134.356L82.3201 97.584L102.415 117.679L65.6431 154.45C62.6749 157.419 57.8633 157.419 54.8951 154.45L54.8959 154.451Z" fill="#FE7C40" stroke="#264660" stroke-width="2.19975" stroke-linecap="round" stroke-linejoin="round"/>
<path d="M60.2694 157.775C58.0418 157.775 55.8141 156.927 54.1181 155.231L44.7707 145.883C43.1275 144.24 42.2227 142.056 42.2227 139.732C42.2227 137.409 43.1275 135.223 44.7707 133.58L81.5424 96.8086C81.9721 96.3789 82.6686 96.3789 83.0976 96.8086L103.192 116.903C103.622 117.333 103.622 118.03 103.192 118.458L66.4206 155.23C64.7246 156.926 62.497 157.774 60.2686 157.774L60.2694 157.775ZM55.6734 153.675C58.2075 156.209 62.3313 156.209 64.8654 153.675L100.859 117.681L82.3196 99.1418L46.3259 135.135C45.0985 136.363 44.4224 137.995 44.4224 139.731C44.4224 141.468 45.0985 143.1 46.3259 144.327L55.6734 153.675Z" fill="#264660"/>
<path d="M110.885 109.21L90.7901 89.1152C91.2711 93.9781 87.1832 98.0667 82.3203 97.585L102.415 117.68C102.131 112.889 106.094 108.926 110.885 109.21Z" fill="#DD734A"/>
<path d="M102.415 118.78C102.129 118.78 101.848 118.668 101.637 118.458L81.5427 98.3634C81.2142 98.0349 81.1277 97.5348 81.3264 97.1154C81.5251 96.6952 81.9658 96.4459 82.4292 96.4914C84.4178 96.6886 86.369 95.9906 87.7819 94.5776C89.1949 93.1646 89.893 91.2135 89.6957 89.2242C89.6503 88.7615 89.8996 88.3208 90.3197 88.1214C90.7399 87.9226 91.2392 88.0092 91.5677 88.3377L111.662 108.432C111.985 108.755 112.075 109.244 111.888 109.661C111.701 110.077 111.275 110.334 110.82 110.308C108.851 110.191 106.92 110.925 105.525 112.32C104.13 113.715 103.396 115.645 103.513 117.615C103.54 118.071 103.282 118.496 102.866 118.683C102.721 118.748 102.567 118.78 102.415 118.78ZM84.8394 98.5496L101.519 115.229C101.891 113.555 102.734 112 103.969 110.765C105.205 109.529 106.759 108.687 108.433 108.314L91.754 91.6351C91.4145 93.3201 90.5852 94.8841 89.3372 96.1328C88.0885 97.3816 86.5244 98.2101 84.8402 98.5496H84.8394Z" fill="#264660"/>
<path d="M114.655 101.808L98.1927 85.3461C97.1896 84.343 95.5632 84.343 94.5594 85.3461L90.7891 89.1157L110.884 109.21L114.654 105.44C115.657 104.437 115.657 102.81 114.654 101.807L114.655 101.808Z" fill="#FE7C40" stroke="#264660" stroke-width="2.19975" stroke-linecap="round" stroke-linejoin="round"/>
<path d="M110.885 110.309C110.603 110.309 110.322 110.202 110.107 109.987L90.0123 89.8927C89.8063 89.6866 89.6904 89.4065 89.6904 89.1147C89.6904 88.8228 89.8063 88.5435 90.0123 88.3367L93.7827 84.5671C95.2133 83.1365 97.5406 83.1365 98.9712 84.5671L115.433 101.029C116.864 102.46 116.864 104.787 115.433 106.218L111.663 109.987C111.448 110.202 111.167 110.309 110.885 110.309ZM92.3455 89.1147L110.885 107.654L113.877 104.662C114.45 104.089 114.45 103.157 113.877 102.584L97.4152 86.1223C96.8425 85.5496 95.9106 85.5496 95.3379 86.1223L92.3455 89.1147Z" fill="#264660"/>
<path d="M51.4366 140.904L51.2929 140.76C50.3008 139.768 50.3008 138.161 51.2929 137.169L80.3603 108.101C81.3524 107.109 82.9597 107.109 83.9518 108.101L84.0955 108.245C85.0876 109.237 85.0876 110.845 84.0955 111.837L55.0281 140.904C54.036 141.896 52.4287 141.896 51.4366 140.904Z" fill="#DD734A"/>
<path d="M59.8084 148.732L59.6698 148.594C58.7129 147.637 58.7129 146.085 59.6698 145.128L87.7173 117.081C88.6742 116.124 90.2257 116.124 91.1826 117.081L91.3212 117.22C92.2781 118.176 92.2781 119.728 91.3212 120.685L63.2737 148.732C62.3168 149.689 60.7653 149.689 59.8084 148.732Z" fill="#DD734A"/>
<path d="M146.279 59.5335L156.735 53.0501L162.821 42.1966L157.804 37.1797L146.95 43.2649L140.467 53.7218L103.518 90.6716L109.329 96.4833L146.279 59.5335Z" fill="#B3C5E0"/>
<path d="M109.33 97.5823C109.048 97.5823 108.766 97.4752 108.552 97.2604L102.74 91.4487C102.534 91.2426 102.418 90.9625 102.418 90.6707C102.418 90.3788 102.534 90.0995 102.74 89.8927L139.6 53.033L146.015 42.6847C146.114 42.5263 146.25 42.3958 146.412 42.3049L157.266 36.2189C157.696 35.9777 158.234 36.0517 158.582 36.4008L163.599 41.4176C163.947 41.7659 164.021 42.3034 163.781 42.7331L157.695 53.5874C157.604 53.7494 157.473 53.8865 157.315 53.984L146.966 60.4L110.107 97.2596C109.892 97.4745 109.61 97.5815 109.329 97.5815L109.33 97.5823ZM105.073 90.6707L109.33 94.9272L145.501 58.7553C145.562 58.6952 145.628 58.6431 145.699 58.5984L155.915 52.2646L161.455 42.3848L157.615 38.5455L147.736 44.0852L141.402 54.3008C141.357 54.3727 141.304 54.4394 141.245 54.4988L105.073 90.6707Z" fill="#264660"/>
</svg>
