<svg width="80" height="80" viewBox="0 0 80 80" fill="none" xmlns="http://www.w3.org/2000/svg">
<g clip-path="url(#clip0_305_40984)">
<path d="M65.6909 78.6359C48.6181 80.4573 31.4 80.4573 14.3273 78.6359C11.0119 78.2858 7.91671 76.8098 5.5577 74.4541C3.19868 72.0984 1.71841 69.0053 1.36365 65.6904C-0.457804 48.6177 -0.457804 31.3996 1.36365 14.3268C1.71375 11.0114 3.18969 7.91622 5.54539 5.55721C7.90109 3.1982 10.9942 1.71792 14.3091 1.36316C31.3819 -0.458292 48.6 -0.458292 65.6727 1.36316C68.9881 1.71326 72.0833 3.1892 74.4423 5.5449C76.8013 7.90061 78.2816 10.9937 78.6364 14.3086C80.4578 31.3814 80.4578 48.5995 78.6364 65.6722C78.2863 68.9876 76.8103 72.0828 74.4546 74.4418C72.0989 76.8008 69.0058 78.2811 65.6909 78.6359Z" fill="#E60000"/>
<path d="M63.832 27.9724C62.832 24.8951 59.5229 23.0315 56.4774 22.6042C45.5234 21.4405 34.4769 21.4405 23.5229 22.6042C20.4774 23.0315 17.1592 24.8769 16.1683 27.9724C14.6093 35.9163 14.6093 44.0875 16.1683 52.0315C17.1683 55.1042 20.4774 56.9724 23.5229 57.3996C34.4769 58.5633 45.5234 58.5633 56.4774 57.3996C59.5229 56.9724 62.841 55.1269 63.832 52.0315C65.391 44.0875 65.391 35.9163 63.832 27.9724ZM34.0183 49.5815V30.4178L49.6183 39.9996C44.3592 43.2315 39.2547 46.3633 34.0183 49.5815Z" fill="white"/>
</g>
<defs>
<clipPath id="clip0_305_40984">
<rect width="80" height="80" fill="white"/>
</clipPath>
</defs>
</svg>
