<svg width="18" height="18" viewBox="0 0 18 18" fill="none" xmlns="http://www.w3.org/2000/svg">
<path d="M10.3337 5.08342C10.3337 5.66119 9.90032 6.16675 9.25033 6.16675C8.60033 6.16675 8.16699 5.66119 8.16699 5.08342C8.16699 4.50564 8.67255 4.00008 9.25033 4.00008C9.8281 4.00008 10.3337 4.50564 10.3337 5.08342ZM8.0281 13.1667C7.61144 13.1667 7.33366 12.9046 7.33366 12.5113C7.33366 12.1181 7.61144 11.8559 8.0281 11.8559H8.58366C8.6531 11.8559 8.72255 11.7903 8.72255 11.7248V8.77536C8.72255 8.70982 8.6531 8.64428 8.58366 8.64428H8.0281C7.61144 8.64428 7.33366 8.3821 7.33366 7.98884C7.33366 7.59559 7.61144 7.33341 8.0281 7.33341H8.72255C9.48644 7.33341 10.1114 7.9233 10.1114 8.64428V11.7903C10.1114 11.8559 10.1809 11.9214 10.2503 11.9214H10.8059C11.2225 11.9214 11.5003 12.1836 11.5003 12.5769C11.5003 12.9701 11.2225 13.1667 10.8059 13.1667H8.0281ZM9.00033 0.666748C4.41699 0.666748 0.666992 4.41675 0.666992 9.00008C0.666992 13.5834 4.41699 17.3334 9.00033 17.3334C13.5837 17.3334 17.3337 13.5834 17.3337 9.00008C17.3337 4.41675 13.5837 0.666748 9.00033 0.666748Z" fill="#0172CB"/>
</svg>
