<svg width="18" height="18" viewBox="0 0 18 18" fill="none" xmlns="http://www.w3.org/2000/svg">
<path d="M12.4521 0.666748H5.54855L0.666992 5.5483V12.4519L5.54855 17.3334H12.4521L17.3337 12.4519V5.5483L12.4521 0.666748ZM9.0005 4.65008C9.41717 4.65008 9.66717 4.98341 9.66717 5.31674V9.48341C9.66717 9.90008 9.33384 10.1501 9.0005 10.1501C8.58384 10.1501 8.33384 9.90008 8.33384 9.48341V5.31674C8.33384 4.90008 8.66717 4.65008 9.0005 4.65008ZM10.0837 12.2752C10.0837 12.8735 9.59865 13.3585 9.00034 13.3585C8.40203 13.3585 7.917 12.8735 7.917 12.2752C7.917 11.6769 8.40203 11.1918 9.00034 11.1918C9.59865 11.1918 10.0837 11.6769 10.0837 12.2752Z" fill="#D21C1C"/>
</svg>
