<svg width="18" height="18" viewBox="0 0 18 18" fill="none" xmlns="http://www.w3.org/2000/svg">
<path d="M9.00033 0.666504C6.75033 0.666504 4.66699 1.58317 3.08366 3.1665C1.50033 4.74984 0.666992 6.9165 0.666992 9.1665C0.666992 13.6665 4.33366 17.3332 8.83366 17.3332H9.00033C13.6662 17.2498 17.3337 13.4998 17.3337 8.83317C17.3337 4.33317 13.6662 0.666504 9.16699 0.666504H9.00033ZM8.33366 5.31659C8.33366 4.89992 8.66699 4.64992 9.00033 4.64992C9.41699 4.64992 9.66699 4.98325 9.66699 5.31659V9.48325C9.66699 9.89992 9.33366 10.1499 9.00033 10.1499C8.58366 10.1499 8.33366 9.89992 8.33366 9.48325V5.31659ZM9.00016 13.3583C8.40185 13.3583 7.91682 12.8733 7.91682 12.275C7.91682 11.6767 8.40185 11.1917 9.00016 11.1917C9.59847 11.1917 10.0835 11.6767 10.0835 12.275C10.0835 12.8733 9.59847 13.3583 9.00016 13.3583Z" fill="#DF7B00"/>
</svg>
