<svg width="18" height="20" viewBox="0 0 18 20" fill="none" xmlns="http://www.w3.org/2000/svg">
<g id="Group">
<path id="Vector" d="M17.3333 8.33333L6.5 5L8.16667 10L17.3333 13.3333V8.33333Z" fill="#339EAD"/>
<path id="Vector_2" d="M17.3333 8.33333L6.5 5L8.16667 10L17.3333 13.3333V8.33333Z" fill="url(#paint0_linear_7_3876)"/>
<path id="Vector_3" opacity="0.1" d="M6.5 5L8.16667 10L17.3333 13.3333V13.125L8.16667 9.79167L6.5 5Z" fill="black"/>
<path id="Vector_4" d="M0.666748 0L5.66675 1.66667V20L0.666748 18.3333V0Z" fill="#1991A3"/>
<path id="Vector_5" d="M17.3334 8.33331L0.666748 18.3333L5.66675 20L17.3334 13.3333V8.33331Z" fill="#008599"/>
<path id="Vector_6" opacity="0.2" d="M0.666748 0V0.208333L5.66675 1.875V1.66667L0.666748 0Z" fill="white"/>
<path id="Vector_7" opacity="0.2" d="M6.50008 5L6.57744 5.23214L17.1039 8.47107L0.666748 18.3333L17.3334 8.54167V8.33333L6.50008 5Z" fill="white"/>
<path id="Vector_8" opacity="0.1" d="M5.66675 20L17.3334 13.3333V13.125L5.66675 19.7917L0.889984 18.1994L0.666748 18.3333L5.66675 20Z" fill="black"/>
<path id="Vector_9" d="M6.50008 5L8.16675 10L12.1447 11.4465L5.66675 15.3334V1.66667L0.666748 0V18.3333L5.66675 20L17.3334 13.3333V8.33333L6.50008 5Z" fill="url(#paint1_linear_7_3876)"/>
</g>
<defs>
<linearGradient id="paint0_linear_7_3876" x1="6.02" y1="6.02833" x2="18.1108" y2="11.6667" gradientUnits="userSpaceOnUse">
<stop stop-color="white" stop-opacity="0.2"/>
<stop offset="1" stop-color="white" stop-opacity="0"/>
</linearGradient>
<linearGradient id="paint1_linear_7_3876" x1="-2.71659" y1="7.25667" x2="16.0801" y2="16.0217" gradientUnits="userSpaceOnUse">
<stop stop-color="white" stop-opacity="0.2"/>
<stop offset="1" stop-color="white" stop-opacity="0"/>
</linearGradient>
</defs>
</svg>
