<svg width="20" height="20" viewBox="0 0 20 20" fill="none" xmlns="http://www.w3.org/2000/svg">
<g id="Property 1=Right_menu, Property 2=ic, Property 3=Google" clip-path="url(#clip0_7_3837)">
<path id="Vector" d="M4.43242 12.0863L3.73625 14.6852L1.19176 14.739C0.431328 13.3286 0 11.7149 0 10C0 8.34179 0.403281 6.77804 1.11812 5.40112H1.11867L3.38398 5.81644L4.37633 8.06815C4.16863 8.67366 4.05543 9.32366 4.05543 10C4.05551 10.7341 4.18848 11.4374 4.43242 12.0863Z" fill="#FBBB00"/>
<path id="Vector_2" d="M19.8252 8.1319C19.94 8.73682 19.9999 9.36155 19.9999 10C19.9999 10.716 19.9246 11.4143 19.7812 12.088C19.2944 14.3803 18.0224 16.3819 16.2604 17.7984L16.2598 17.7978L13.4065 17.6522L13.0027 15.1314C14.1719 14.4456 15.0857 13.3726 15.567 12.088H10.2197V8.1319H15.645H19.8252Z" fill="#518EF8"/>
<path id="Vector_3" d="M16.2598 17.7978L16.2603 17.7984C14.5466 19.1758 12.3697 20 9.99989 20C6.19165 20 2.88067 17.8715 1.19165 14.739L4.43231 12.0863C5.27681 14.3401 7.45099 15.9445 9.99989 15.9445C11.0955 15.9445 12.1219 15.6484 13.0026 15.1313L16.2598 17.7978Z" fill="#28B446"/>
<path id="Vector_4" d="M16.383 2.30219L13.1434 4.95437C12.2319 4.38461 11.1544 4.05547 10 4.05547C7.39344 4.05547 5.17859 5.73348 4.37641 8.06812L1.11871 5.40109H1.11816C2.78246 2.1923 6.1352 0 10 0C12.4264 0 14.6511 0.864297 16.383 2.30219Z" fill="#F14336"/>
</g>
<defs>
<clipPath id="clip0_7_3837">
<rect width="20" height="20" fill="white"/>
</clipPath>
</defs>
</svg>
