<svg width="60" height="60" viewBox="0 0 60 60" fill="none" xmlns="http://www.w3.org/2000/svg">
<g id="fi_732204" clip-path="url(#clip0_305_17133)">
<g id="Group">
<path id="Vector" d="M39.375 18.75H20.625C19.59 18.75 18.75 19.59 18.75 20.625V58.125C18.75 59.16 19.59 60 20.625 60H39.375C40.41 60 41.25 59.16 41.25 58.125V20.625C41.25 19.59 40.41 18.75 39.375 18.75Z" fill="#FFC107"/>
<path id="Vector_2" d="M20.625 37.5H1.875C0.84 37.5 0 38.34 0 39.375V58.125C0 59.16 0.84 60 1.875 60H20.625C21.66 60 22.5 59.16 22.5 58.125V39.375C22.5 38.34 21.66 37.5 20.625 37.5Z" fill="#FFC107"/>
</g>
<path id="Vector_3" d="M58.125 0H39.375C38.34 0 37.5 0.84 37.5 1.875V58.125C37.5 59.16 38.34 60 39.375 60H58.125C59.16 60 60 59.16 60 58.125V1.875C60 0.84 59.16 0 58.125 0Z" fill="#FFA000"/>
</g>
<defs>
<clipPath id="clip0_305_17133">
<rect width="60" height="60" fill="white"/>
</clipPath>
</defs>
</svg>
