<svg width="60" height="56" viewBox="0 0 60 56" fill="none" xmlns="http://www.w3.org/2000/svg">
<path d="M34.3113 1.97141C30.187 -0.41429 24.9132 1.00145 22.5319 5.1336L1.15669 42.227C-1.22445 46.3591 0.1886 51.6429 4.3129 54.0286C8.43719 56.4143 13.711 54.9985 16.0922 50.8664L37.4676 13.773C39.8487 9.64086 38.4356 4.35712 34.3113 1.97141Z" fill="#FFC107"/>
<path d="M34.3113 1.9714C32.3847 0.85706 30.2076 0.572528 28.1914 1.00647C29.0476 1.19116 29.8903 1.50909 30.6895 1.9714C34.8138 4.3571 36.227 9.64085 33.8457 13.773L12.4705 50.8664C11.2016 53.0683 9.11119 54.4985 6.81104 54.9935C10.3728 55.7617 14.1725 54.1976 16.0922 50.8664L37.4674 13.773C39.8488 9.64085 38.4356 4.3571 34.3113 1.9714Z" fill="#FFB300"/>
<path d="M8.61398 55.1875C13.3714 55.1875 17.228 51.3236 17.228 46.5573C17.228 41.7909 13.3714 37.927 8.61398 37.927C3.85661 37.927 0 41.7909 0 46.5573C0 51.3236 3.85661 55.1875 8.61398 55.1875Z" fill="#4CAF50"/>
<path d="M6.81111 54.9936C6.81064 54.9947 6.81041 54.9956 6.81006 54.9966C7.39201 55.1208 7.99506 55.1876 8.61404 55.1876C13.3714 55.1876 17.228 51.3237 17.228 46.5573C17.228 45.4984 17.0368 44.4845 16.6885 43.5471L12.4707 50.8665C11.2017 53.0685 9.11127 54.4985 6.81111 54.9936Z" fill="#43A047"/>
<path d="M58.8433 42.227L37.468 5.13372C35.0869 1.00157 29.8131 -0.414168 25.6887 1.97153C21.5644 4.35724 20.1512 9.64099 22.5325 13.7731L43.9078 50.8665C46.289 54.9986 51.5627 56.4144 55.6872 54.0287C59.8113 51.643 61.2245 46.3591 58.8433 42.227Z" fill="#2196F3"/>
<path d="M58.8431 42.227L37.4679 5.13377C35.5481 1.80248 31.7486 0.238258 28.1868 1.00666C30.4868 1.50166 32.5773 2.93181 33.8462 5.13377L55.2216 42.2271C57.6028 46.3593 56.1897 51.643 52.0654 54.0287C51.266 54.491 50.4234 54.809 49.5673 54.9936C51.5834 55.4276 53.7606 55.1431 55.6872 54.0287C59.8112 51.643 61.2244 46.3592 58.8431 42.227Z" fill="#1E88E5"/>
</svg>
