<svg width="60" height="60" viewBox="0 0 60 60" fill="none" xmlns="http://www.w3.org/2000/svg">
<path d="M35.2175 57.5415L24.8027 47.3858L47.1698 24.5449L57.9527 35.1131L35.2175 57.5415Z" fill="#8AB4F8"/>
<path d="M35.2619 12.6404L24.8847 2.04492L2.19375 24.5211C-0.73125 27.4461 -0.73125 32.1881 2.19375 35.1165L24.5438 57.6131L35.1119 47.7267L18.0835 29.8188L35.2619 12.6404Z" fill="#4285F4"/>
<path d="M57.802 24.6963L35.302 2.19631C32.3736 -0.732102 27.6247 -0.732102 24.6963 2.19631C21.7679 5.12472 21.7679 9.87358 24.6963 12.802L47.1963 35.302C50.1247 38.2304 54.8736 38.2304 57.802 35.302C60.7304 32.3736 60.7304 27.6247 57.802 24.6963Z" fill="#8AB4F8"/>
<path d="M29.8266 60.0019C33.8746 60.0019 37.1562 56.7203 37.1562 52.6723C37.1562 48.6243 33.8746 45.3428 29.8266 45.3428C25.7786 45.3428 22.4971 48.6243 22.4971 52.6723C22.4971 56.7203 25.7786 60.0019 29.8266 60.0019Z" fill="#246FDB"/>
</svg>
