<svg width="16" height="16" viewBox="0 0 16 16" fill="none" xmlns="http://www.w3.org/2000/svg">
<mask id="mask0_8285_64875" style="mask-type:alpha" maskUnits="userSpaceOnUse" x="0" y="0" width="16" height="16">
<rect width="16" height="16" fill="#D9D9D9"/>
</mask>
<g mask="url(#mask0_8285_64875)">
<path d="M3.40033 10.6993C3.15588 10.2771 2.97255 9.84379 2.85033 9.39935C2.7281 8.9549 2.66699 8.49935 2.66699 8.03268C2.66699 6.54379 3.18366 5.27713 4.21699 4.23268C5.25033 3.18824 6.51144 2.66602 8.00033 2.66602H8.11699L7.05033 1.59935L7.98366 0.666016L10.6503 3.33268L7.98366 5.99935L7.05033 5.06602L8.11699 3.99935H8.00033C6.88921 3.99935 5.94477 4.39102 5.16699 5.17435C4.38921 5.95768 4.00033 6.91046 4.00033 8.03268C4.00033 8.32157 4.03366 8.6049 4.10033 8.88268C4.16699 9.16046 4.26699 9.43268 4.40033 9.69935L3.40033 10.6993ZM8.01699 15.3327L5.35033 12.666L8.01699 9.99935L8.95033 10.9327L7.88366 11.9993H8.00033C9.11144 11.9993 10.0559 11.6077 10.8337 10.8243C11.6114 10.041 12.0003 9.08824 12.0003 7.96601C12.0003 7.67713 11.967 7.39379 11.9003 7.11602C11.8337 6.83824 11.7337 6.56602 11.6003 6.29935L12.6003 5.29935C12.8448 5.72157 13.0281 6.1549 13.1503 6.59935C13.2725 7.04379 13.3337 7.49935 13.3337 7.96601C13.3337 9.4549 12.817 10.7216 11.7837 11.766C10.7503 12.8105 9.48921 13.3327 8.00033 13.3327H7.88366L8.95033 14.3993L8.01699 15.3327Z" fill="#BAC7D5"/>
</g>
</svg>
