<svg width="20" height="20" viewBox="0 0 20 20" fill="none" xmlns="http://www.w3.org/2000/svg">
<g clip-path="url(#clip0_2183_7629)">
<path d="M17.8125 4.96094V19.0234C17.8125 19.2824 17.7096 19.5308 17.5265 19.714C17.3433 19.8971 17.0949 20 16.8359 20H3.16406C2.90506 20 2.65667 19.8971 2.47353 19.714C2.29039 19.5308 2.1875 19.2824 2.1875 19.0234V0.976562C2.1875 0.717562 2.29039 0.46917 2.47353 0.286029C2.65667 0.102888 2.90506 0 3.16406 0L12.8516 0L17.8125 4.96094Z" fill="#41A5EE"/>
<path d="M19.0234 9.375H0.976562C0.437222 9.375 0 9.81222 0 10.3516V16.2109C0 16.7503 0.437222 17.1875 0.976562 17.1875H19.0234C19.5628 17.1875 20 16.7503 20 16.2109V10.3516C20 9.81222 19.5628 9.375 19.0234 9.375Z" fill="#0077CC"/>
<path d="M17.8124 4.95937H12.853V0L17.8124 4.95937Z" fill="#D8EFFF"/>
<path d="M5.06592 16.0238V10.6449H6.25459V15.2203H7.48975V16.0238H5.06592Z" fill="#D8EFFF"/>
<path d="M9.46182 16.1035C9.05895 16.1035 8.7402 16.0327 8.50557 15.891C8.27241 15.7511 8.09428 15.5355 8.00088 15.2801C7.8988 15.0145 7.84789 14.6979 7.84815 14.3305V12.3317C7.84815 11.9598 7.89906 11.6433 8.00088 11.3821C8.09508 11.1298 8.2733 10.9176 8.50557 10.7813C8.73994 10.6417 9.05869 10.5719 9.46182 10.5719C9.86937 10.5719 10.1915 10.6417 10.4282 10.7813C10.6617 10.917 10.841 11.1293 10.936 11.3821C11.0379 11.6425 11.0888 11.959 11.0888 12.3317V14.3305C11.0888 14.6979 11.0379 15.0145 10.936 15.2801C10.8421 15.5361 10.6627 15.7519 10.4282 15.891C10.191 16.033 9.86885 16.1038 9.46182 16.1035ZM9.46182 15.2602C9.58565 15.2602 9.67666 15.2293 9.73525 15.1672C9.79521 15.1001 9.83443 15.0171 9.84815 14.9281C9.86591 14.8295 9.8748 14.7295 9.87471 14.6293V12.0395C9.87509 11.9382 9.8662 11.8372 9.84815 11.7375C9.83371 11.6502 9.79453 11.5689 9.73525 11.5031C9.67783 11.441 9.58682 11.4102 9.46182 11.4102C9.34671 11.4102 9.26039 11.4412 9.20283 11.5031C9.14355 11.5689 9.10437 11.6502 9.08994 11.7375C9.07189 11.8372 9.06299 11.9382 9.06338 12.0395V14.6293C9.06323 14.7294 9.07107 14.8293 9.08682 14.9281C9.09809 15.0165 9.13504 15.0996 9.19307 15.1672C9.24815 15.2293 9.33799 15.2602 9.46182 15.2602Z" fill="#D8EFFF"/>
<path d="M13.2141 16.1035C12.8422 16.1035 12.549 16.0261 12.3344 15.8711C12.1141 15.7091 11.9527 15.4795 11.8751 15.2172C11.7792 14.902 11.7332 14.5736 11.7387 14.2442V12.4379C11.7387 12.0572 11.7874 11.7274 11.8848 11.4485C11.9728 11.1816 12.1499 10.953 12.3864 10.8012C12.6231 10.6486 12.9451 10.5722 13.3524 10.5719C13.7508 10.5719 14.0641 10.6383 14.2922 10.7711C14.5121 10.8949 14.684 11.089 14.7801 11.3223C14.8825 11.5845 14.9322 11.8643 14.9262 12.1457V12.491H13.7653V12.0528C13.7659 11.9461 13.7582 11.8395 13.7422 11.734C13.7309 11.6471 13.6939 11.5655 13.636 11.4996C13.5805 11.4397 13.4908 11.4098 13.3669 11.4098C13.2382 11.4098 13.1452 11.4442 13.0879 11.5129C13.0283 11.5861 12.9904 11.6747 12.9786 11.7684C12.9627 11.8739 12.9549 11.9804 12.9551 12.0871V14.5774C12.9543 14.6903 12.9667 14.8029 12.9919 14.9129C13.0113 15.0079 13.0574 15.0954 13.1247 15.1653C13.1887 15.2293 13.2805 15.2614 13.4001 15.2614C13.5238 15.2614 13.6189 15.2281 13.6856 15.1617C13.755 15.0899 13.8033 15.0003 13.8251 14.9028C13.8519 14.7919 13.865 14.6782 13.8641 14.5641V13.9321H13.3801V13.2348H14.934V16.0239H14.1504L14.084 15.5789C14.0137 15.7287 13.9061 15.858 13.7715 15.9543C13.6348 16.0541 13.449 16.1038 13.2141 16.1035Z" fill="#D8EFFF"/>
</g>
<defs>
<clipPath id="clip0_2183_7629">
<rect width="20" height="20" fill="white"/>
</clipPath>
</defs>
</svg>
