<svg width="20" height="20" viewBox="0 0 20 20" fill="none" xmlns="http://www.w3.org/2000/svg">
<rect width="20" height="20" fill="#D0D0D0"/>
<rect x="-19.5" y="-19.5" width="59" height="99" rx="4.5" fill="white"/>
<rect x="-19.5" y="-19.5" width="59" height="99" rx="4.5" stroke="#9747FF" stroke-dasharray="10 5"/>
<path d="M5.83594 3.49219C2.64844 3.49219 0.207031 7.64062 0.207031 12.0273C0.207031 14.7734 1.53516 16.5078 3.76172 16.5078C5.36328 16.5078 6.51562 15.7539 8.56641 12.1719C8.56641 12.1719 9.42188 10.6641 10.0078 9.625L11.2266 7.5625C12.2617 5.96484 13.1172 5.16797 14.1328 5.16797C16.2422 5.16797 17.9297 8.27344 17.9297 12.0898C17.9297 13.543 17.4531 14.3867 16.4648 14.3867C15.5195 14.3867 15.0664 13.7617 13.2695 10.8711L11.6172 12.3125C13.4883 15.4453 14.5312 16.5078 16.4219 16.5078C18.5898 16.5078 19.7969 14.7461 19.7969 11.9414C19.7969 7.34375 17.3008 3.48438 14.2656 3.48438C12.6602 3.48438 11.4023 4.69531 10.2656 6.23047L9.00391 8.08203C7.75781 9.99609 7 11.1953 7 11.1953C5.33984 13.8008 4.76562 14.3828 3.83984 14.3828C2.88672 14.3828 2.32422 13.5469 2.32422 12.0586C2.32422 8.87109 3.91406 5.61328 5.80859 5.61328L5.83594 3.49219Z" fill="url(#paint0_linear_0_1)"/>
<path d="M10.3711 7.67188L9.00391 8.09375C7.75781 10.0078 7 11.207 7 11.207C5.33984 13.8125 4.76562 14.3945 3.83984 14.3945C2.88672 14.3945 2.32422 13.5586 2.32422 12.0703C2.32422 8.88282 3.91406 5.625 5.80859 5.625L5.83594 3.4961C2.64844 3.49219 0.207031 7.64063 0.207031 12.0273C0.207031 14.7734 1.53516 16.5078 3.76172 16.5078C5.36328 16.5078 6.51562 15.7539 8.56641 12.1719C8.56641 12.1719 9.42188 10.6641 10.0078 9.625L10.3711 7.67188Z" fill="url(#paint1_linear_0_1)"/>
<path d="M11.6172 12.3164C13.4883 15.4492 14.5312 16.5078 16.4219 16.5078L16.4648 14.3867C15.5195 14.3867 15.0664 13.7656 13.2695 10.875C11.7617 8.42188 10.9922 7.19531 10.2656 6.23828C8.70312 4.25 7.39844 3.49219 5.83594 3.49219L5.80859 5.62109C6.83594 5.62109 7.69141 6.21484 9.00391 8.09375C9.55469 8.86719 10.6836 10.707 11.6172 12.3164Z" fill="url(#paint2_linear_0_1)"/>
<path d="M10.2617 6.23828C8.69922 4.25 7.39453 3.49219 5.82812 3.49219C4.28516 3.49219 2.91797 4.46484 1.91406 5.96484L3.42187 7.50781C4.05078 6.37109 4.89844 5.625 5.80859 5.625C6.83594 5.625 7.68359 6.21094 8.99609 8.08984L10.2617 6.23828Z" fill="url(#paint3_linear_0_1)"/>
<path d="M12.6562 13.957C13.9414 15.8281 14.9102 16.5078 16.4219 16.5078C18.5898 16.5078 19.7969 14.7461 19.7969 11.9414L17.9297 12.0898C17.9297 13.543 17.4531 14.3867 16.4648 14.3867C15.7031 14.3867 15.2578 13.9805 14.168 12.3008L12.6562 13.957Z" fill="url(#paint4_linear_0_1)"/>
<defs>
<linearGradient id="paint0_linear_0_1" x1="0.207031" y1="9.99609" x2="19.7969" y2="9.99609" gradientUnits="userSpaceOnUse">
<stop stop-color="#0064E0"/>
<stop offset="0.061763" stop-color="#006AE5"/>
<stop offset="0.2183" stop-color="#007AF4"/>
<stop offset="0.8106" stop-color="#007DF6"/>
<stop offset="1" stop-color="#0080F9"/>
</linearGradient>
<linearGradient id="paint1_linear_0_1" x1="1.94477" y1="7.55176" x2="9.01246" y2="14.8602" gradientUnits="userSpaceOnUse">
<stop stop-color="#0064E0"/>
<stop offset="0.0134753" stop-color="#0065E1"/>
<stop offset="0.2894" stop-color="#0075F0"/>
<stop offset="0.5971" stop-color="#007FF9"/>
<stop offset="1" stop-color="#0082FC"/>
</linearGradient>
<linearGradient id="paint2_linear_0_1" x1="4.30664" y1="2.43031" x2="16.2539" y2="15.3416" gradientUnits="userSpaceOnUse">
<stop stop-color="#0082FB"/>
<stop offset="0.0216721" stop-color="#017CF5"/>
<stop offset="0.0904785" stop-color="#0471EA"/>
<stop offset="0.1872" stop-color="#066AE3"/>
<stop offset="0.4561" stop-color="#0668E1"/>
<stop offset="0.7462" stop-color="#056AE3"/>
<stop offset="0.8847" stop-color="#0472EB"/>
<stop offset="0.9742" stop-color="#017CF5"/>
<stop offset="1" stop-color="#0082FB"/>
</linearGradient>
<linearGradient id="paint3_linear_0_1" x1="1.91406" y1="5.79102" x2="10.2617" y2="5.79102" gradientUnits="userSpaceOnUse">
<stop stop-color="#0064E0"/>
<stop offset="0.4218" stop-color="#0069E4"/>
<stop offset="0.4332" stop-color="#0069E4"/>
<stop offset="1" stop-color="#0668E1"/>
</linearGradient>
<linearGradient id="paint4_linear_0_1" x1="12.6569" y1="14.2246" x2="19.7969" y2="14.2246" gradientUnits="userSpaceOnUse">
<stop stop-color="#066BE3"/>
<stop offset="0.3087" stop-color="#0470E9"/>
<stop offset="0.559" stop-color="#0279F2"/>
<stop offset="1" stop-color="#0080F9"/>
</linearGradient>
</defs>
</svg>
