<svg width="50" height="60" viewBox="0 0 50 60" fill="none" xmlns="http://www.w3.org/2000/svg">
<path d="M50 25L17.5 15L22.5 30L50 40V25Z" fill="#339EAD"/>
<path d="M50 25L17.5 15L22.5 30L50 40V25Z" fill="url(#paint0_linear_4847_41894)"/>
<path opacity="0.1" d="M17.5 15L22.5 30L50 40V39.375L22.5 29.375L17.5 15Z" fill="black"/>
<path d="M0.000976562 0L15.001 5V60L0.000976562 55V0Z" fill="#1991A3"/>
<path d="M50.001 24.999L0.000976562 54.999L15.001 59.999L50.001 39.999V24.999Z" fill="#008599"/>
<path opacity="0.2" d="M0.000976562 0V0.625L15.001 5.625V5L0.000976562 0Z" fill="white"/>
<path opacity="0.2" d="M17.501 15L17.7331 15.6964L49.3123 25.4132L0.000976562 55L50.001 25.625V25L17.501 15Z" fill="white"/>
<path opacity="0.1" d="M15.001 60L50.001 40V39.375L15.001 59.375L0.670685 54.5982L0.000976562 55L15.001 60Z" fill="black"/>
<path d="M17.501 15L22.501 30L34.4349 34.3396L15.001 46.0001V5L0.000976562 0V55L15.001 60L50.001 40V25L17.501 15Z" fill="url(#paint1_linear_4847_41894)"/>
<defs>
<linearGradient id="paint0_linear_4847_41894" x1="16.06" y1="18.085" x2="52.3325" y2="35" gradientUnits="userSpaceOnUse">
<stop stop-color="white" stop-opacity="0.2"/>
<stop offset="1" stop-color="white" stop-opacity="0"/>
</linearGradient>
<linearGradient id="paint1_linear_4847_41894" x1="-10.149" y1="21.77" x2="46.241" y2="48.065" gradientUnits="userSpaceOnUse">
<stop stop-color="white" stop-opacity="0.2"/>
<stop offset="1" stop-color="white" stop-opacity="0"/>
</linearGradient>
</defs>
</svg>
