<svg width="60" height="60" viewBox="0 0 60 60" fill="none" xmlns="http://www.w3.org/2000/svg">
<path d="M30.0001 0C13.4769 0 0.0517578 13.4252 0.0517578 29.9484C0.0517578 42.2375 7.38396 52.7711 18.0208 57.4182C17.9175 55.3529 18.0208 52.7711 18.5371 50.4991C19.1568 48.0207 22.3581 34.1824 22.3581 34.1824C22.3581 34.1824 21.4287 32.2203 21.4287 29.432C21.4287 24.9913 24.0104 21.6867 27.2118 21.6867C29.8968 21.6867 31.2393 23.7521 31.2393 26.2305C31.2393 28.9156 29.4837 33.0464 28.5543 36.8674C27.8314 40.0688 30.1033 42.6504 33.3047 42.6504C38.9846 42.6504 42.8056 35.3182 42.8056 26.7468C42.8056 20.1375 38.3649 15.2838 30.3099 15.2838C21.2221 15.2838 15.5423 22.0997 15.5423 29.6383C15.5423 32.2201 16.2652 34.079 17.5044 35.5247C18.0208 36.1444 18.1241 36.4542 17.9175 37.177C17.8142 37.6934 17.4011 39.0359 17.2978 39.5522C17.0912 40.275 16.4716 40.5849 15.7488 40.275C11.5147 38.5194 9.65582 33.9756 9.65582 28.8121C9.65582 20.3439 16.7814 10.1202 31.0327 10.1202C42.4957 10.1202 50.0345 18.3819 50.0345 27.2631C50.0345 39.0358 43.5285 47.8138 33.9244 47.8138C30.723 47.8138 27.6249 46.0582 26.5922 44.0961C26.5922 44.0961 24.8366 51.0153 24.5268 52.3578C23.9071 54.6298 22.6679 57.0049 21.532 58.7605C24.217 59.5867 27.1086 59.9998 30.0001 59.9998C46.5233 59.9998 59.9485 46.5746 59.9485 30.0514C59.9485 13.5282 46.5234 0 30.0001 0Z" fill="#CB1F24"/>
</svg>
