<svg width="20" height="20" viewBox="0 0 20 20" fill="none" xmlns="http://www.w3.org/2000/svg">
<g clip-path="url(#clip0_2183_7583)">
<path d="M9.99987 0C4.49215 0 0.0170898 4.47506 0.0170898 9.98278C0.0170898 14.0792 2.46116 17.5904 6.00676 19.1394C5.97233 18.451 6.00676 17.5904 6.17889 16.833C6.38544 16.0069 7.45255 11.3941 7.45255 11.3941C7.45255 11.3941 7.14273 10.7401 7.14273 9.81066C7.14273 8.33044 8.00332 7.2289 9.07042 7.2289C9.96544 7.2289 10.413 7.91736 10.413 8.74352C10.413 9.63853 9.82775 11.0155 9.51793 12.2891C9.27698 13.3563 10.0343 14.2168 11.1014 14.2168C12.9947 14.2168 14.2684 11.7727 14.2684 8.9156C14.2684 6.71249 12.7882 5.09461 10.1031 5.09461C7.07386 5.09461 5.18061 7.36655 5.18061 9.87945C5.18061 10.74 5.42156 11.3597 5.83464 11.8416C6.00676 12.0481 6.04119 12.1514 5.97233 12.3923C5.9379 12.5645 5.8002 13.012 5.76577 13.1841C5.6969 13.425 5.49039 13.5283 5.24943 13.425C3.83808 12.8398 3.21844 11.3252 3.21844 9.60402C3.21844 6.78131 5.59364 3.3734 10.3441 3.3734C14.1651 3.3734 16.678 6.12729 16.678 9.08769C16.678 13.0119 14.5093 15.9379 11.308 15.9379C10.2408 15.9379 9.20815 15.3527 8.8639 14.6987C8.8639 14.6987 8.2787 17.0051 8.17544 17.4526C7.96888 18.2099 7.55581 19.0016 7.17716 19.5868C8.07218 19.8622 9.03603 19.9999 9.99987 19.9999C15.5076 19.9999 19.9827 15.5249 19.9827 10.0171C19.9827 4.50941 15.5076 0 9.99987 0Z" fill="#CB1F24"/>
</g>
<defs>
<clipPath id="clip0_2183_7583">
<rect width="20" height="20" fill="white"/>
</clipPath>
</defs>
</svg>
