<svg width="54" height="60" viewBox="0 0 54 60" fill="none" xmlns="http://www.w3.org/2000/svg">
<path d="M18.3393 31.1016C13.5815 31.1016 9.73777 34.9453 9.80808 39.6562C9.85495 42.6797 11.519 45.3047 13.9682 46.7695C13.1362 45.4922 12.644 43.9805 12.6206 42.3516C12.5503 37.6406 16.394 33.7969 21.1518 33.7969C22.0893 33.7969 22.9917 33.9492 23.8354 34.2188V24.7852C22.9565 24.6562 22.0542 24.5859 21.1518 24.5859C21.105 24.5859 21.0698 24.5859 21.0229 24.5859V31.5234C20.1792 31.2539 19.2768 31.1016 18.3393 31.1016Z" fill="#F00044"/>
<path d="M38.9062 2.8125H38.8359H36.3984C37.1016 6.33984 39.082 9.41016 41.8477 11.4961C40.0312 9.09375 38.9297 6.09375 38.9062 2.8125Z" fill="#F00044"/>
<path d="M53.25 17.168C52.3242 17.168 51.4336 17.0742 50.5547 16.9102V23.6719C47.3672 23.6719 44.2734 23.0508 41.3672 21.8086C39.4922 21.0117 37.7461 19.9922 36.1406 18.7617L36.1875 39.6094C36.1641 44.2969 34.3125 48.6914 30.9609 52.0078C28.2305 54.7031 24.7734 56.4258 21.0234 56.9766C20.1445 57.1055 19.2422 57.1758 18.3398 57.1758C14.332 57.1758 10.5117 55.875 7.40625 53.4727C7.75781 53.8945 8.13281 54.3047 8.54297 54.7031C11.918 58.0312 16.3945 59.8711 21.1641 59.8711C22.0664 59.8711 22.9688 59.8008 23.8477 59.6719C27.5977 59.1211 31.0547 57.3984 33.7852 54.7031C37.1367 51.3867 38.9883 46.9922 39.0117 42.3047L38.8359 21.457C40.4297 22.6875 42.1758 23.7188 44.0625 24.5039C46.9805 25.7344 50.0742 26.3672 53.25 26.3672" fill="#F00044"/>
<path d="M8.50787 29.7773C11.8477 26.4609 16.2891 24.6211 21.0235 24.5859V22.0898C20.1446 21.9609 19.2422 21.8906 18.3399 21.8906C13.5586 21.8906 9.07037 23.7305 5.69537 27.082C2.37896 30.375 0.480523 34.875 0.492241 39.5508C0.492241 44.2617 2.35552 48.6797 5.7188 52.0195C6.25787 52.5469 6.80865 53.0391 7.39459 53.4844C4.74615 50.332 3.30474 46.3945 3.29302 42.2461C3.30474 37.5703 5.19146 33.0703 8.50787 29.7773Z" fill="#08FFF9"/>
<path d="M50.5547 16.9102V14.4023H50.5313C47.2734 14.4023 44.2734 13.3242 41.8594 11.4961C43.957 14.2617 47.0273 16.2305 50.5547 16.9102Z" fill="#08FFF9"/>
<path d="M20.6719 50.6484C21.7852 50.707 22.8516 50.5547 23.8359 50.2383C27.2344 49.125 29.6836 45.9609 29.6836 42.2344L29.6953 28.2891V2.8125H36.3984C36.2227 1.93359 36.1289 1.04297 36.1172 0.117188H26.8828V25.582L26.8711 39.5273C26.8711 43.2539 24.4219 46.418 21.0234 47.5312C20.0391 47.8594 18.9727 48.0117 17.8594 47.9414C16.4414 47.8594 15.1172 47.4375 13.9688 46.7578C15.4102 48.9844 17.8711 50.4961 20.6719 50.6484Z" fill="#08FFF9"/>
<path d="M21.0235 56.9766C24.7735 56.4258 28.2305 54.7031 30.961 52.0078C34.3125 48.6914 36.1641 44.2969 36.1876 39.6094L36.1407 18.7617C37.7344 19.9922 39.4805 21.0234 41.3672 21.8086C44.2852 23.0391 47.379 23.6719 50.5547 23.6719V16.9102C47.0274 16.2305 43.9571 14.2617 41.8594 11.4961C39.0938 9.41016 37.1016 6.33984 36.4102 2.8125H29.6954V28.2773L29.6836 42.2227C29.6836 45.9492 27.2344 49.1133 23.836 50.2266C22.8516 50.5547 21.7852 50.707 20.6719 50.6367C17.8594 50.4844 15.4102 48.9727 13.9688 46.7578C11.5196 45.3047 9.85552 42.668 9.80865 39.6445C9.73834 34.9336 13.5821 31.0898 18.3399 31.0898C19.2774 31.0898 20.1797 31.2422 21.0235 31.5117V24.5742C16.2891 24.6094 11.8477 26.4492 8.50787 29.7656C5.19146 33.0586 3.29302 37.5586 3.30474 42.2227C3.30474 46.3711 4.74615 50.3086 7.4063 53.4609C10.5235 55.8633 14.3321 57.1641 18.3399 57.1641C19.2422 57.1758 20.1446 57.1055 21.0235 56.9766Z" fill="black"/>
</svg>
