<?xml version="1.0" encoding="UTF-8"?>
<svg xmlns="http://www.w3.org/2000/svg" xmlns:xlink="http://www.w3.org/1999/xlink" width="65px" height="39px" viewBox="0 0 65 39" version="1.1">
<g id="surface1">
<path style=" stroke:none;fill-rule:evenodd;fill:rgb(14.509804%,18.431373%,24.313725%);fill-opacity:1;" d="M 18.316406 14.164062 C 18.316406 14.964844 18.402344 15.617188 18.554688 16.09375 C 18.726562 16.570312 18.945312 17.09375 19.246094 17.65625 C 19.355469 17.828125 19.398438 18.003906 19.398438 18.15625 C 19.398438 18.371094 19.269531 18.589844 18.988281 18.804688 L 17.625 19.714844 C 17.429688 19.847656 17.238281 19.910156 17.0625 19.910156 C 16.847656 19.910156 16.632812 19.804688 16.414062 19.609375 C 16.113281 19.28125 15.851562 18.9375 15.636719 18.589844 C 15.421875 18.21875 15.203125 17.808594 14.96875 17.308594 C 13.28125 19.304688 11.160156 20.300781 8.609375 20.300781 C 6.796875 20.300781 5.347656 19.78125 4.289062 18.742188 C 3.226562 17.699219 2.6875 16.3125 2.6875 14.574219 C 2.6875 12.730469 3.335938 11.234375 4.65625 10.109375 C 5.972656 8.980469 7.726562 8.414062 9.953125 8.414062 C 10.6875 8.414062 11.441406 8.480469 12.242188 8.589844 C 13.042969 8.699219 13.863281 8.871094 14.730469 9.066406 L 14.730469 7.484375 C 14.730469 5.835938 14.382812 4.683594 13.714844 4.011719 C 13.019531 3.339844 11.855469 3.015625 10.1875 3.015625 C 9.433594 3.015625 8.652344 3.101562 7.855469 3.296875 C 7.054688 3.492188 6.277344 3.730469 5.519531 4.035156 C 5.171875 4.1875 4.914062 4.273438 4.761719 4.316406 C 4.613281 4.359375 4.503906 4.382812 4.417969 4.382812 C 4.113281 4.382812 3.964844 4.164062 3.964844 3.707031 L 3.964844 2.644531 C 3.964844 2.296875 4.007812 2.039062 4.113281 1.886719 C 4.222656 1.734375 4.417969 1.582031 4.71875 1.429688 C 5.476562 1.039062 6.382812 0.714844 7.445312 0.457031 C 8.503906 0.171875 9.628906 0.0429688 10.816406 0.0429688 C 13.390625 0.0429688 15.269531 0.628906 16.480469 1.800781 C 17.667969 2.972656 18.273438 4.75 18.273438 7.136719 L 18.273438 14.164062 Z M 9.539062 17.460938 C 10.253906 17.460938 10.988281 17.332031 11.765625 17.070312 C 12.546875 16.808594 13.238281 16.332031 13.820312 15.683594 C 14.167969 15.269531 14.425781 14.816406 14.554688 14.292969 C 14.6875 13.773438 14.773438 13.144531 14.773438 12.40625 L 14.773438 11.496094 C 14.144531 11.34375 13.476562 11.214844 12.785156 11.128906 C 12.089844 11.039062 11.421875 10.996094 10.75 10.996094 C 9.304688 10.996094 8.242188 11.277344 7.53125 11.863281 C 6.816406 12.449219 6.472656 13.273438 6.472656 14.359375 C 6.472656 15.378906 6.730469 16.136719 7.269531 16.660156 C 7.789062 17.199219 8.546875 17.460938 9.539062 17.460938 Z M 26.898438 19.804688 C 26.511719 19.804688 26.25 19.738281 26.078125 19.585938 C 25.90625 19.457031 25.753906 19.152344 25.625 18.742188 L 20.542969 1.972656 C 20.414062 1.539062 20.347656 1.257812 20.347656 1.105469 C 20.347656 0.757812 20.523438 0.5625 20.867188 0.5625 L 22.988281 0.5625 C 23.398438 0.5625 23.679688 0.628906 23.832031 0.78125 C 24.003906 0.910156 24.132812 1.214844 24.261719 1.625 L 27.894531 15.984375 L 31.265625 1.625 C 31.375 1.191406 31.503906 0.910156 31.675781 0.78125 C 31.851562 0.652344 32.152344 0.5625 32.542969 0.5625 L 34.273438 0.5625 C 34.683594 0.5625 34.964844 0.628906 35.136719 0.78125 C 35.308594 0.910156 35.460938 1.214844 35.546875 1.625 L 38.964844 16.160156 L 42.703125 1.625 C 42.832031 1.191406 42.984375 0.910156 43.136719 0.78125 C 43.308594 0.652344 43.589844 0.5625 43.980469 0.5625 L 45.988281 0.5625 C 46.335938 0.5625 46.53125 0.738281 46.53125 1.105469 C 46.53125 1.214844 46.507812 1.324219 46.488281 1.453125 C 46.464844 1.582031 46.421875 1.757812 46.335938 1.996094 L 41.125 18.761719 C 40.996094 19.195312 40.84375 19.476562 40.671875 19.609375 C 40.5 19.738281 40.21875 19.824219 39.847656 19.824219 L 37.992188 19.824219 C 37.578125 19.824219 37.296875 19.761719 37.125 19.609375 C 36.953125 19.457031 36.800781 19.175781 36.714844 18.742188 L 33.363281 4.75 L 30.035156 18.71875 C 29.925781 19.152344 29.796875 19.433594 29.625 19.585938 C 29.449219 19.738281 29.148438 19.804688 28.757812 19.804688 Z M 54.679688 20.390625 C 53.554688 20.390625 52.429688 20.257812 51.351562 20 C 50.269531 19.738281 49.425781 19.457031 48.863281 19.132812 C 48.519531 18.9375 48.28125 18.71875 48.195312 18.523438 C 48.109375 18.328125 48.0625 18.113281 48.0625 17.917969 L 48.0625 16.808594 C 48.0625 16.355469 48.238281 16.136719 48.5625 16.136719 C 48.691406 16.136719 48.820312 16.160156 48.949219 16.203125 C 49.082031 16.246094 49.273438 16.332031 49.492188 16.417969 C 50.226562 16.746094 51.027344 17.003906 51.867188 17.179688 C 52.734375 17.351562 53.578125 17.4375 54.441406 17.4375 C 55.804688 17.4375 56.863281 17.199219 57.597656 16.722656 C 58.332031 16.246094 58.722656 15.550781 58.722656 14.664062 C 58.722656 14.054688 58.527344 13.554688 58.136719 13.144531 C 57.75 12.730469 57.015625 12.363281 55.957031 12.015625 L 52.820312 11.039062 C 51.242188 10.542969 50.074219 9.804688 49.363281 8.828125 C 48.648438 7.875 48.28125 6.8125 48.28125 5.683594 C 48.28125 4.773438 48.476562 3.96875 48.863281 3.273438 C 49.253906 2.582031 49.773438 1.972656 50.421875 1.496094 C 51.070312 0.996094 51.804688 0.628906 52.667969 0.367188 C 53.535156 0.109375 54.441406 0 55.394531 0 C 55.867188 0 56.367188 0.0195312 56.839844 0.0859375 C 57.339844 0.152344 57.792969 0.238281 58.246094 0.324219 C 58.679688 0.433594 59.089844 0.542969 59.480469 0.671875 C 59.867188 0.800781 60.171875 0.933594 60.386719 1.0625 C 60.691406 1.234375 60.90625 1.410156 61.035156 1.605469 C 61.164062 1.777344 61.230469 2.015625 61.230469 2.320312 L 61.230469 3.339844 C 61.230469 3.796875 61.058594 4.035156 60.734375 4.035156 C 60.558594 4.035156 60.277344 3.949219 59.910156 3.773438 C 58.679688 3.210938 57.296875 2.929688 55.761719 2.929688 C 54.527344 2.929688 53.554688 3.121094 52.886719 3.535156 C 52.214844 3.945312 51.867188 4.574219 51.867188 5.464844 C 51.867188 6.074219 52.085938 6.59375 52.519531 7.003906 C 52.949219 7.417969 53.75 7.828125 54.894531 8.199219 L 57.964844 9.175781 C 59.523438 9.671875 60.644531 10.367188 61.316406 11.257812 C 61.988281 12.144531 62.3125 13.164062 62.3125 14.292969 C 62.3125 15.226562 62.117188 16.074219 61.75 16.808594 C 61.359375 17.546875 60.839844 18.199219 60.171875 18.71875 C 59.5 19.261719 58.699219 19.652344 57.769531 19.933594 C 56.796875 20.238281 55.78125 20.386719 54.679688 20.386719 Z M 54.679688 20.390625 "/>
<path style=" stroke:none;fill-rule:evenodd;fill:rgb(100%,60%,0%);fill-opacity:1;" d="M 58.765625 30.929688 C 51.652344 36.203125 41.320312 39 32.433594 39 C 19.980469 39 8.761719 34.378906 0.289062 26.703125 C -0.382812 26.09375 0.222656 25.269531 1.023438 25.746094 C 10.1875 31.082031 21.496094 34.316406 33.191406 34.316406 C 41.082031 34.316406 49.75 32.667969 57.726562 29.28125 C 58.917969 28.738281 59.933594 30.0625 58.765625 30.929688 Z M 58.765625 30.929688 "/>
<path style=" stroke:none;fill-rule:evenodd;fill:rgb(100%,60%,0%);fill-opacity:1;" d="M 61.726562 27.546875 C 60.820312 26.375 55.71875 26.984375 53.402344 27.265625 C 52.710938 27.351562 52.605469 26.746094 53.230469 26.289062 C 57.296875 23.425781 63.976562 24.25 64.753906 25.203125 C 65.53125 26.179688 64.539062 32.882812 60.734375 36.09375 C 60.148438 36.59375 59.585938 36.332031 59.847656 35.679688 C 60.710938 33.535156 62.636719 28.695312 61.726562 27.546875 Z M 61.726562 27.546875 "/>
</g>
</svg>
