<svg width="24" height="24" viewBox="0 0 24 24" fill="none" xmlns="http://www.w3.org/2000/svg">
<g clip-path="url(#clip0_839_922)">
<path d="M21.1315 19.2714C21.4779 19.6826 21.8243 20.0505 22.1382 20.4509C22.8311 21.3165 22.7661 22.4635 21.9867 23.2426C21.2722 23.9567 20.1139 24.0325 19.2695 23.3724C18.8473 23.037 18.4684 22.6475 18.0246 22.2471C16.1951 23.4049 14.1924 24.0108 12.0056 24.0108C9.84053 24.0108 7.84865 23.4374 6.01915 22.2471C5.64026 22.5934 5.28302 22.9288 4.92578 23.2534C4.08139 24.0108 2.85812 24.0217 2.07869 23.2859C1.26678 22.5176 1.21265 21.3057 1.92713 20.4076C2.21942 20.0397 2.71739 19.7043 2.76069 19.3147C2.79317 18.936 2.37097 18.514 2.13281 18.1136C-0.140529 14.1425 0.57395 8.59155 3.71333 5.248C5.68356 3.15963 8.06515 1.92609 10.8906 1.64475C13.8459 1.3526 16.5415 2.16414 18.8906 3.99281C21.2938 5.86477 22.7228 8.3535 23.1017 11.3508C23.4373 13.991 22.9501 16.523 21.4454 18.7845C21.348 18.9144 21.2505 19.0767 21.1315 19.2714ZM12.0164 3.18127C6.7661 3.14881 2.40345 7.42293 2.39262 12.7466C2.3818 18.2759 6.8094 22.3553 11.9515 22.3769C16.9745 22.3986 21.5537 18.4924 21.6078 12.7899C21.6511 7.50949 17.3317 3.22455 12.0164 3.18127ZM4.73092 21.2624C4.44946 21.0027 4.20047 20.7647 3.92984 20.5158C3.67003 20.808 3.37774 21.0677 3.19371 21.3815C3.17206 21.4139 3.16123 21.4464 3.1504 21.4788C3.0638 21.8143 3.36691 22.1497 3.71333 22.0956C3.75663 22.0848 3.79993 22.074 3.83241 22.0523C4.168 21.8576 4.42781 21.5438 4.73092 21.2624ZM20.2005 20.6673C19.8757 20.9053 19.6051 21.1001 19.3236 21.3057C19.6267 21.587 19.8432 21.8792 20.1247 22.0307C20.1788 22.0631 20.2546 22.074 20.3196 22.0848C20.6443 22.1064 20.9258 21.8035 20.8392 21.4788C20.8283 21.4464 20.8175 21.4139 20.8067 21.3815C20.6335 21.0893 20.352 20.8404 20.2005 20.6673Z" fill="white"/>
<path d="M15.9565 0.606003C17.8943 -0.443591 20.5465 -0.0973333 22.0837 1.35262C23.8375 2.98653 24.487 5.4969 23.6318 7.4446C22.0188 4.12268 19.4856 1.85037 15.9565 0.606003Z" fill="white"/>
<path d="M8.05419 0.605984C6.32212 1.22276 4.79573 2.06676 3.48585 3.2462C2.17597 4.42564 1.13673 5.81067 0.368126 7.43376C-0.476258 5.5077 0.184094 2.92158 1.87286 1.39588C3.51833 -0.0973525 6.07313 -0.44361 8.05419 0.605984Z" fill="white"/>
<path d="M11.1826 11.1561C11.1826 10.6475 11.161 10.1498 11.1826 9.64121C11.2043 9.10018 11.4966 8.81885 11.9837 8.81885C12.4709 8.81885 12.774 9.10018 12.7956 9.63039C12.8173 10.4419 12.7848 11.2535 12.8173 12.065C12.8281 12.2922 12.9363 12.5519 13.0879 12.7251C13.6508 13.331 14.2462 13.9045 14.82 14.4996C15.2205 14.9108 15.2746 15.441 14.9607 15.7548C14.5926 16.1227 14.1488 16.0794 13.6833 15.625C13.0554 15.0082 12.4492 14.359 11.7888 13.7747C11.3234 13.3527 11.1068 12.8766 11.161 12.249C11.2043 11.8811 11.1826 11.5132 11.1826 11.1561Z" fill="white"/>
</g>
<defs>
<clipPath id="clip0_839_922">
<rect width="24" height="24" fill="white"/>
</clipPath>
</defs>
</svg>
