<svg width="24" height="24" viewBox="0 0 24 24" fill="none" xmlns="http://www.w3.org/2000/svg">
<g clip-path="url(#clip0_839_969)">
<path d="M10.7847 2.77448C10.7847 1.95665 10.7847 1.13117 10.7847 0.290405C11.6102 0.290405 12.3898 0.290405 13.2153 0.290405C13.2153 1.12353 13.2153 1.94136 13.2153 2.76684C17.1057 3.41652 19.9643 5.42671 21.4777 9.07257C22.9758 12.7031 22.3949 16.135 20.1019 19.3375C20.6828 19.9108 21.279 20.4993 21.8522 21.0649C21.2484 21.6687 20.6981 22.2267 20.1248 22.8C19.5592 22.2267 18.986 21.6382 18.3898 21.0344C16.4713 22.4866 14.3694 23.2509 12.0153 23.2509C9.65348 23.2509 7.55922 22.4942 5.64839 21.0573C5.05985 21.6611 4.47896 22.242 3.91336 22.8229C3.33247 22.2344 2.78215 21.6687 2.2089 21.0879C2.76686 20.5528 3.36304 19.9872 3.95922 19.414C1.62036 16.1809 1.02419 12.7337 2.52992 9.0955C4.02801 5.442 6.89425 3.43181 10.7847 2.77448ZM19.8191 13.0089C19.8267 8.68276 16.2955 5.15155 11.9923 5.16684C7.68151 5.18212 4.19616 8.68276 4.18852 12.9936C4.18087 17.3121 7.65858 20.8127 11.9771 20.8203C16.3185 20.828 19.8114 17.3503 19.8191 13.0089Z" fill="white"/>
<path d="M0 4.02038C1.32229 2.69809 2.6828 1.33758 4.02803 0C4.5707 0.542675 5.1363 1.10828 5.67134 1.64331C4.3414 2.97325 2.97325 4.3414 1.65096 5.66369C1.13121 5.14395 0.565605 4.58599 0 4.02038Z" fill="white"/>
<path d="M18.3438 1.62043C18.8711 1.09304 19.4291 0.542722 19.9565 0.00769043C21.2941 1.34527 22.6622 2.71342 23.9922 4.04336C23.4648 4.57075 22.9068 5.12871 22.3718 5.6561C21.0648 4.34145 19.6966 2.9733 18.3438 1.62043Z" fill="white"/>
<path d="M15.47 14.7821C14.8815 15.3707 14.3235 15.9286 13.6815 16.5707C13.4751 16.3261 13.2458 16.0356 12.9936 15.7757C12.3286 15.0955 11.6407 14.4229 10.9758 13.7426C10.884 13.6509 10.7923 13.5133 10.7923 13.391C10.7847 11.4802 10.7847 9.57702 10.7847 7.63562C11.6025 7.63562 12.3974 7.63562 13.2305 7.63562C13.2305 8.06365 13.2305 8.48403 13.2305 8.89677C13.2305 10.005 13.2229 11.1133 13.2382 12.2216C13.2382 12.3974 13.3299 12.6191 13.4522 12.749C14.1095 13.4369 14.7898 14.1019 15.47 14.7821Z" fill="white"/>
</g>
<defs>
<clipPath id="clip0_839_969">
<rect width="24" height="23.2662" fill="white"/>
</clipPath>
</defs>
</svg>
