<svg width="28" height="28" viewBox="0 0 28 28" fill="none" xmlns="http://www.w3.org/2000/svg">
<g clip-path="url(#clip0_839_735)">
<path d="M14.0235 -5.48142e-05C21.6414 -0.0237769 27.9688 6.23095 28.0001 13.8062C28.0235 21.6741 21.8526 27.9841 14.1017 28.0079C6.31962 28.0237 0.0235295 21.7848 6.57761e-05 14.0355C-0.0233979 6.28631 6.23359 0.0236673 14.0235 -5.48142e-05ZM14.0157 0.640442C6.63247 0.632535 0.641407 6.6026 0.625764 13.9881C0.617943 21.3182 6.61682 27.3595 13.914 27.3674C21.3833 27.3753 27.3587 21.4368 27.3665 14.0118C27.3744 6.61051 21.4146 0.640442 14.0157 0.640442Z" fill="white"/>
<path d="M17.199 14.2648C16.5498 14.2648 15.8928 14.2728 15.2437 14.2648C15.056 14.2648 14.9465 14.3044 14.837 14.4863C14.571 14.9528 14.0861 15.103 13.6325 14.9133C13.171 14.7156 12.9129 14.2569 13.0615 13.7588C13.1319 13.5136 13.0459 13.4029 12.9051 13.2527C11.6928 12.0429 10.4805 10.8251 9.26825 9.61531C9.18222 9.52833 9.09619 9.44926 9.03362 9.35437C8.9554 9.22785 8.97887 9.10134 9.08054 8.99063C9.18222 8.89574 9.30736 8.8483 9.4325 8.92737C9.51853 8.98273 9.59674 9.05389 9.66714 9.12506C10.8872 10.3428 12.1152 11.5684 13.3275 12.7941C13.4995 12.968 13.6481 13.0946 13.9297 13.0392C14.2738 12.968 14.5867 13.1104 14.7744 13.4109C14.8917 13.6006 15.0325 13.6323 15.228 13.6323C16.4794 13.6244 17.7308 13.6323 18.9822 13.6323C19.0448 13.6323 19.1152 13.6323 19.1777 13.6323C19.4124 13.6323 19.647 13.6481 19.6392 13.9644C19.6314 14.2649 19.4046 14.2648 19.1856 14.2648C18.5286 14.2648 17.8638 14.2648 17.199 14.2648ZM14.3521 14.0039C14.3364 13.7983 14.2426 13.656 14.0157 13.6639C13.8046 13.6639 13.6638 13.7746 13.6638 13.996C13.6638 14.2095 13.7889 14.336 14.0001 14.3439C14.2191 14.3518 14.3208 14.2174 14.3521 14.0039Z" fill="white"/>
<path d="M24.332 19.7921C24.332 20.0294 24.1208 20.1875 23.9018 20.0689C23.1823 19.6735 22.4705 19.2623 21.7666 18.8433C21.6024 18.7484 21.6024 18.5665 21.6884 18.4242C21.7745 18.2739 21.9309 18.2186 22.0951 18.3135C22.7834 18.7088 23.4717 19.1042 24.1599 19.4996C24.2616 19.5707 24.3398 19.6577 24.332 19.7921Z" fill="white"/>
<path d="M21.9465 9.72606C21.8136 9.71024 21.7041 9.65489 21.665 9.53628C21.618 9.39395 21.6102 9.24371 21.7666 9.14882C22.4784 8.73763 23.1823 8.32645 23.9018 7.92317C24.0504 7.8441 24.2147 7.89155 24.3007 8.0576C24.3711 8.19993 24.3555 8.35808 24.2147 8.44506C23.4951 8.87206 22.7756 9.28324 22.0482 9.69443C22.0169 9.71815 21.9778 9.71815 21.9465 9.72606Z" fill="white"/>
<path d="M4.05921 7.89941C4.12178 7.93104 4.21563 7.97058 4.30167 8.01802C4.89608 8.36595 5.4905 8.71387 6.08491 9.05389C6.28826 9.1725 6.43686 9.32274 6.31172 9.55205C6.18658 9.78928 5.97541 9.73392 5.77988 9.61531C5.15418 9.24367 4.52066 8.87993 3.89496 8.51619C3.75418 8.42921 3.64469 8.3185 3.69943 8.12873C3.74636 7.97849 3.86368 7.89941 4.05921 7.89941Z" fill="white"/>
<path d="M9.40899 6.3654C9.26821 6.3575 9.17436 6.27842 9.10397 6.15981C8.73637 5.51141 8.36877 4.863 8.00117 4.2146C7.8995 4.03273 7.89168 3.84295 8.09503 3.74016C8.29056 3.63736 8.44698 3.71644 8.55648 3.90621C8.92408 4.55462 9.2995 5.20302 9.65145 5.85933C9.79223 6.12028 9.66709 6.3654 9.40899 6.3654Z" fill="white"/>
<path d="M4.03587 20.1005C3.88727 20.1005 3.77777 20.0451 3.72302 19.9107C3.65263 19.7288 3.72302 19.6023 3.87163 19.5074C4.22358 19.2939 4.59118 19.0883 4.95096 18.8748C5.26381 18.693 5.57665 18.5111 5.89732 18.3292C6.07721 18.2264 6.24146 18.2739 6.32749 18.4399C6.4057 18.5823 6.39788 18.7562 6.23364 18.8511C5.53755 19.2623 4.84146 19.6656 4.15319 20.0689C4.10626 20.0926 4.06716 20.0926 4.03587 20.1005Z" fill="white"/>
<path d="M18.5833 6.37329C18.3643 6.37329 18.2 6.13607 18.3173 5.92257C18.7084 5.21091 19.1229 4.51506 19.5453 3.81921C19.6391 3.66107 19.8112 3.65316 19.9598 3.74805C20.1084 3.84293 20.1475 4.00899 20.0615 4.16714C19.6704 4.84717 19.2715 5.5193 18.8727 6.19933C18.8101 6.31003 18.7084 6.35748 18.5833 6.37329Z" fill="white"/>
<path d="M9.70614 22.0061C9.68268 22.0536 9.65922 22.1405 9.61229 22.2196C9.27598 22.8206 8.92402 23.4215 8.58771 24.0304C8.47039 24.236 8.32179 24.3941 8.09497 24.2597C7.85251 24.1253 7.9229 23.9118 8.04022 23.7141C8.4 23.0894 8.75195 22.4647 9.10391 21.8401C9.19776 21.674 9.3229 21.587 9.51843 21.6582C9.66704 21.7135 9.70614 21.8242 9.70614 22.0061Z" fill="white"/>
<path d="M20.1007 23.9593C20.1085 24.1254 20.0459 24.2361 19.913 24.2835C19.7644 24.3389 19.6236 24.3152 19.5375 24.1728C19.1308 23.4849 18.7241 22.7969 18.3331 22.1011C18.247 21.9509 18.2783 21.7848 18.4347 21.682C18.5834 21.5871 18.7554 21.6029 18.8493 21.7611C19.2716 22.4569 19.6783 23.1528 20.085 23.8565C20.0928 23.8882 20.0928 23.9356 20.1007 23.9593Z" fill="white"/>
<path d="M3.63695 13.6718C4.01237 13.6718 4.38779 13.6718 4.76321 13.6718C4.97438 13.6718 5.1308 13.7587 5.1308 13.988C5.1308 14.2095 4.9822 14.3123 4.77103 14.3123C4.02019 14.3123 3.26153 14.3123 2.51069 14.3123C2.2917 14.3123 2.11181 14.2174 2.11963 13.9722C2.13527 13.7271 2.32298 13.6718 2.54198 13.6718C2.90957 13.6797 3.26935 13.6718 3.63695 13.6718Z" fill="white"/>
<path d="M24.4024 13.6718C24.7621 13.6718 25.1297 13.6718 25.4895 13.6718C25.7007 13.6718 25.8649 13.7508 25.8727 13.9722C25.8884 14.2174 25.7085 14.3123 25.4817 14.3123C24.7308 14.3123 23.9722 14.3123 23.2213 14.3123C23.0102 14.3123 22.8616 14.2095 22.8616 13.988C22.8616 13.7666 23.0102 13.6718 23.2292 13.6797C23.6202 13.6718 24.0113 13.6718 24.4024 13.6718Z" fill="white"/>
<path d="M14.3286 3.60575C14.3286 3.98531 14.3208 4.37277 14.3286 4.75232C14.3286 4.96582 14.2582 5.13188 14.0392 5.13978C13.7889 5.14769 13.7029 4.97373 13.7029 4.74442C13.7029 3.99321 13.7029 3.24201 13.7029 2.49081C13.7029 2.27732 13.7967 2.12708 14.0236 2.12708C14.2504 2.12708 14.3364 2.28522 14.3286 2.49872C14.3208 2.86246 14.3286 3.23411 14.3286 3.60575Z" fill="white"/>
<path d="M14.3286 24.4021C14.3286 24.7579 14.3286 25.1137 14.3286 25.4696C14.3286 25.691 14.2739 25.8728 14.0158 25.8728C13.7812 25.8728 13.7029 25.7068 13.7029 25.5012C13.7029 24.75 13.6951 23.9988 13.7029 23.2476C13.7029 23.042 13.7812 22.868 14.008 22.8601C14.2582 22.8522 14.3365 23.0262 14.3286 23.2555C14.3208 23.643 14.3286 24.0225 14.3286 24.4021Z" fill="white"/>
</g>
<defs>
<clipPath id="clip0_839_735">
<rect width="28" height="28" fill="white"/>
</clipPath>
</defs>
</svg>
