<svg width="24" height="25" viewBox="0 0 24 25" fill="none" xmlns="http://www.w3.org/2000/svg">
<g clip-path="url(#clip0_839_932)">
<path d="M14.3571 13.0788C13.5901 13.1811 12.8232 13.2117 12.0563 13.1811C11.1871 13.1504 10.8496 12.8129 10.8496 11.954C10.8496 9.62247 10.8598 7.29098 11.32 4.99017C11.3404 4.88792 11.3814 4.79588 11.3916 4.69363C11.4223 4.47888 11.5245 4.34595 11.7495 4.34595C11.9744 4.34595 12.0665 4.48911 12.1278 4.69363C12.4346 5.86959 12.588 7.05579 12.6391 8.27266C12.6698 9.17253 12.6698 10.0826 12.6596 10.9825C12.6596 11.2791 12.7414 11.3609 13.0277 11.3506C14.1321 11.3097 15.2365 11.2791 16.3511 11.2586C17.0976 11.2484 17.5475 11.6779 17.4862 12.3016C17.435 12.7925 17.1487 13.0686 16.6579 13.0788C15.8909 13.0788 15.124 13.0788 14.3571 13.0788Z" fill="white"/>
<path d="M7.39323 2.55645C7.37278 3.01661 6.95352 3.42564 6.49335 3.41542C5.99229 3.41542 5.59348 2.99616 5.60371 2.49509C5.60371 2.00425 6.02297 1.60545 6.53426 1.61567C7.0251 1.63612 7.41368 2.04516 7.39323 2.55645Z" fill="white"/>
<path d="M17.6601 22.5787C17.1794 22.5684 16.75 22.139 16.7602 21.6583C16.7602 21.2084 17.2306 20.7482 17.6907 20.7585C18.1611 20.7687 18.5906 21.2084 18.5804 21.689C18.5702 22.1594 18.1407 22.5889 17.6601 22.5787Z" fill="white"/>
<path d="M17.6498 3.41538C17.1794 3.40516 16.7295 2.93477 16.7499 2.47461C16.7704 1.98377 17.2101 1.59519 17.7112 1.61564C18.1918 1.63609 18.5701 2.0349 18.5701 2.51551C18.5701 2.99613 18.1407 3.42561 17.6498 3.41538Z" fill="white"/>
<path d="M3.40521 6.53425C3.39499 6.99442 2.9655 7.40345 2.50534 7.40345C2.00428 7.40345 1.60547 6.99441 1.60547 6.49335C1.60547 6.00251 2.02473 5.59348 2.52579 5.6037C3.02686 5.62415 3.41544 6.03319 3.40521 6.53425Z" fill="white"/>
<path d="M22.5684 6.49345C22.5786 6.98429 22.1594 7.41378 21.6685 7.41378C21.1982 7.41378 20.738 6.95362 20.7482 6.49345C20.7584 6.03329 21.1675 5.62426 21.6379 5.61403C22.1389 5.59358 22.5582 5.99239 22.5684 6.49345Z" fill="white"/>
<path d="M0.910098 12.8334C0.419259 12.8334 0 12.4141 0 11.9233C0 11.4631 0.409033 11.0439 0.879421 11.0336C1.37026 11.0234 1.79974 11.4324 1.80997 11.9233C1.8202 12.4039 1.40094 12.8334 0.910098 12.8334Z" fill="white"/>
<path d="M23.1205 12.9765C22.6092 12.9868 22.2104 12.5982 22.2001 12.0971C22.1899 11.6267 22.5785 11.2279 23.0591 11.2075C23.5806 11.187 23.9794 11.5552 23.9999 12.0562C24.0203 12.5471 23.6113 12.9765 23.1205 12.9765Z" fill="white"/>
<path d="M3.40528 17.5169C3.41551 17.9873 3.02692 18.3861 2.54631 18.4065C2.03502 18.427 1.62599 18.0486 1.61576 17.5476C1.59531 17.0363 1.98389 16.6375 2.49518 16.6375C2.99625 16.6375 3.39505 17.0056 3.40528 17.5169Z" fill="white"/>
<path d="M11.2075 23.1103C11.2075 22.6093 11.6166 22.1798 12.0972 22.19C12.5778 22.2002 12.9868 22.6399 12.9766 23.1308C12.9664 23.6012 12.5676 24 12.0972 24.0102C11.5961 24.0204 11.2075 23.6318 11.2075 23.1103Z" fill="white"/>
<path d="M22.5685 17.5271C22.5685 18.0179 22.1492 18.4167 21.6482 18.4065C21.1573 18.3963 20.7381 17.9566 20.7585 17.4862C20.779 17.026 21.188 16.6375 21.6686 16.6375C22.1697 16.6375 22.5685 17.026 22.5685 17.5271Z" fill="white"/>
<path d="M11.2075 0.920324C11.2075 0.419259 11.6063 0 12.0972 0C12.5676 0 12.9868 0.43971 12.9766 0.940775C12.9664 1.41116 12.5778 1.80997 12.1074 1.8202C11.6063 1.83042 11.2075 1.43161 11.2075 0.920324Z" fill="white"/>
<path d="M6.47288 22.3946C5.96159 22.3843 5.58324 21.9855 5.59346 21.4742C5.60369 20.9936 5.99227 20.6255 6.48311 20.6255C6.9944 20.6255 7.39321 21.0141 7.39321 21.5151C7.39321 22.0162 6.98418 22.4048 6.47288 22.3946Z" fill="white"/>
</g>
<defs>
<clipPath id="clip0_839_932">
<rect width="24" height="24.0102" fill="white"/>
</clipPath>
</defs>
</svg>
