<svg width="24" height="24" viewBox="0 0 24 24" fill="none" xmlns="http://www.w3.org/2000/svg">
<g clip-path="url(#clip0_839_957)">
<path d="M12.01 1.15554e-05C18.5223 -0.101554 23.9999 5.50488 23.9999 12.0051C23.9897 18.485 18.5223 24.0102 11.9897 24C5.51805 24 -0.0305507 18.5053 -0.000119555 11.9238C0.0303116 5.44394 5.5282 -0.121867 12.01 1.15554e-05ZM11.9289 21.6234C17.1326 21.5827 21.5451 17.5811 21.5958 12.0559C21.6465 6.84555 17.5789 2.46806 12.1013 2.38681C6.91789 2.31571 2.47494 6.36819 2.40394 11.9137C2.33293 17.0935 6.38027 21.4609 11.9289 21.6234Z" fill="white"/>
<path d="M10.7927 10.1668C10.7927 9.60816 10.7724 9.04955 10.7927 8.49094C10.8231 7.61747 11.2796 7.18074 12.0708 7.21121C12.6287 7.23152 12.9939 7.51591 13.1156 8.0542C13.1663 8.29796 13.1866 8.55188 13.1866 8.80579C13.2069 9.71988 12.9736 10.7254 13.2982 11.5074C13.6126 12.2692 14.4951 12.8075 15.1241 13.4372C15.5197 13.8333 15.9356 14.2091 16.3007 14.6255C16.4935 14.849 16.676 15.1232 16.7369 15.3974C16.8485 15.8545 16.6963 16.2709 16.25 16.5146C15.7631 16.7787 14.982 16.7482 14.5864 16.3623C13.4301 15.2451 12.294 14.1177 11.1984 12.9395C10.955 12.6754 10.8536 12.2082 10.813 11.8223C10.742 11.2942 10.7927 10.7254 10.7927 10.1668Z" fill="white"/>
<path d="M11.9898 20.4046C11.3 20.4046 10.8233 19.9171 10.8334 19.2163C10.8436 18.5662 11.4217 17.9873 12.0608 17.9873C12.6491 17.9873 13.1969 18.5662 13.1969 19.1858C13.207 19.846 12.6491 20.4046 11.9898 20.4046Z" fill="white"/>
<path d="M4.77752 13.1934C4.14861 13.1832 3.58057 12.6145 3.59071 11.9949C3.59071 11.3347 4.17904 10.7761 4.83839 10.7863C5.47744 10.8066 6.0252 11.3855 6.00491 12.0152C5.97448 12.6551 5.40643 13.2035 4.77752 13.1934Z" fill="white"/>
<path d="M13.2069 4.78372C13.2069 5.42358 12.6287 5.99235 12.01 5.98219C11.4115 5.97204 10.813 5.36264 10.8029 4.76341C10.7927 4.15401 11.3506 3.58524 11.9593 3.57509C12.6084 3.56493 13.2069 4.1337 13.2069 4.78372Z" fill="white"/>
<path d="M20.4091 12.0051C20.4091 12.6348 19.8207 13.2137 19.202 13.1934C18.5933 13.1731 17.9949 12.5637 18.005 11.9645C18.0152 11.3348 18.6035 10.766 19.2223 10.7863C19.8613 10.8168 20.4091 11.3754 20.4091 12.0051Z" fill="white"/>
</g>
<defs>
<clipPath id="clip0_839_957">
<rect width="24" height="24" fill="white"/>
</clipPath>
</defs>
</svg>
