<svg width="96" height="96" viewBox="0 0 96 96" fill="none" xmlns="http://www.w3.org/2000/svg">
<circle cx="48" cy="48" r="48" fill="#0DCE6B" fill-opacity="0.08"/>
<path d="M12 48H26L30 36L33 48L36 60L40 48L42 42L46 48H52L57 48M84 48L68 48H63M57 48H60H63M57 48H63" stroke="#0DCE6B" stroke-width="4" stroke-linejoin="round"/>
<path d="M58 48C58 42.4772 62.4772 38 68 38C73.5228 38 78 42.4772 78 48C78 53.5228 73.5228 58 68 58C62.4772 58 58 53.5228 58 48Z" fill="white"/>
<circle cx="68" cy="48" r="6.25" fill="#0CCE6A"/>
</svg>
