<?xml version="1.0" standalone="no"?>
<!DOCTYPE svg PUBLIC "-//W3C//DTD SVG 20010904//EN"
 "http://www.w3.org/TR/2001/REC-SVG-20010904/DTD/svg10.dtd">
<svg version="1.0" xmlns="http://www.w3.org/2000/svg"
 width="700.000000pt" height="700.000000pt" viewBox="0 0 700.000000 700.000000"
 preserveAspectRatio="xMidYMid meet">
<metadata>
Created by potrace 1.11, written by Peter Selinger 2001-2013
</metadata>
<g transform="translate(0.000000,700.000000) scale(0.100000,-0.100000)"
fill="#000000" stroke="none">
<path d="M3188 6995 c-1 -1 -45 -6 -95 -9 -51 -4 -103 -9 -115 -11 -13 -2 -45
-6 -73 -10 -304 -38 -691 -142 -975 -262 -457 -194 -779 -424 -1057 -757 -328
-391 -550 -967 -619 -1606 -3 -30 -7 -66 -10 -80 -17 -105 -25 -548 -11 -705
14 -175 31 -330 42 -405 3 -14 7 -43 10 -65 4 -22 8 -47 10 -55 2 -8 7 -31 10
-50 28 -168 135 -517 205 -667 11 -24 20 -45 20 -48 0 -7 129 -266 157 -315
110 -194 323 -499 438 -626 5 -7 35 -40 65 -75 60 -71 316 -328 395 -399 207
-184 407 -335 605 -455 86 -52 379 -205 394 -205 4 0 25 -9 49 -19 109 -51
330 -114 492 -142 33 -5 71 -12 85 -15 14 -3 102 -7 195 -9 266 -5 420 18 695
102 432 132 951 443 1420 852 233 204 516 491 695 706 28 33 52 62 55 65 3 3
30 37 60 75 30 39 59 75 63 80 5 6 37 50 71 99 293 412 479 859 523 1254 15
130 7 463 -12 532 -3 8 -7 31 -9 50 -4 30 -13 72 -51 234 -39 169 -184 502
-323 746 -71 126 -275 437 -316 485 -14 17 -26 33 -26 37 0 4 -6 13 -13 20 -7
7 -35 42 -62 78 -28 36 -52 67 -55 70 -3 3 -37 43 -75 90 -104 125 -162 188
-344 370 -365 363 -656 585 -974 741 -56 27 -110 54 -119 60 -32 17 -211 86
-293 112 -93 30 -278 75 -377 92 -16 3 -40 7 -55 10 -16 2 -53 7 -83 11 -30 3
-66 8 -80 11 -27 5 -526 13 -532 8z"/>
</g>
</svg>
