<?xml version="1.0" encoding="utf-8"?>
<!-- Generator: Adobe Illustrator 25.0.1, SVG Export Plug-In . SVG Version: 6.00 Build 0)  -->
<svg version="1.1" id="Layer_1" xmlns="http://www.w3.org/2000/svg" xmlns:xlink="http://www.w3.org/1999/xlink" x="0px" y="0px"
	 viewBox="0 0 25 25" style="enable-background:new 0 0 25 25;" xml:space="preserve">
<style type="text/css">
	.st0{fill:#0086FF;}
</style>
<g>
	<path class="st0" d="M12.5,24.8c-6.8,0-12.3-5.5-12.3-12.3S5.7,0.2,12.5,0.2s12.3,5.5,12.3,12.3S19.3,24.8,12.5,24.8z M12.5,1.8
		C6.6,1.8,1.8,6.6,1.8,12.5s4.8,10.7,10.7,10.7s10.7-4.8,10.7-10.7S18.4,1.8,12.5,1.8z"/>
	<path class="st0" d="M17.9,13.3H7.1c-0.4,0-0.8-0.3-0.8-0.8s0.3-0.8,0.8-0.8h10.7c0.4,0,0.8,0.3,0.8,0.8S18.3,13.3,17.9,13.3z"/>
	<path class="st0" d="M12.5,18.6c-0.4,0-0.8-0.3-0.8-0.8V7.1c0-0.4,0.3-0.8,0.8-0.8s0.8,0.3,0.8,0.8v10.7
		C13.3,18.3,12.9,18.6,12.5,18.6z"/>
</g>
</svg>
