<?xml version="1.0" encoding="utf-8"?>
<!-- Generator: Adobe Illustrator 25.0.1, SVG Export Plug-In . SVG Version: 6.00 Build 0)  -->
<svg version="1.1" id="Layer_1" xmlns="http://www.w3.org/2000/svg" xmlns:xlink="http://www.w3.org/1999/xlink" x="0px" y="0px"
	 viewBox="0 0 20 20" style="enable-background:new 0 0 20 20;" xml:space="preserve">
<style type="text/css">
	.st0{fill:#FFFFFF;}
</style>
<g>
	<path class="st0" d="M10,6.6c-1.8,0-3.3,1.5-3.3,3.3s1.5,3.3,3.3,3.3s3.3-1.5,3.3-3.3S11.8,6.6,10,6.6z M10,12.1
		c-1.2,0-2.1-0.9-2.1-2.1c0-1.2,0.9-2.1,2.1-2.1s2.1,0.9,2.1,2.1C12.1,11.1,11.2,12.1,10,12.1z"/>
	<path class="st0" d="M18.9,11.8l-1.1-1l0-0.1c0-0.2,0-0.5,0-0.7c0-0.2,0-0.5,0-0.7l0-0.2l1.1-1c0.5-0.4,0.6-1.1,0.3-1.7l-1.4-2.2
		c-0.3-0.6-1-0.8-1.6-0.6L14.7,4l-0.1-0.1c-0.4-0.3-0.9-0.5-1.3-0.7l-0.1-0.1l-0.3-1.4C12.6,1,12,0.6,11.4,0.6H8.6
		C8,0.6,7.4,1,7.3,1.7L6.9,3.1L6.8,3.2C6.3,3.4,5.9,3.6,5.4,3.9L5.3,4L3.8,3.5C3.2,3.3,2.5,3.6,2.2,4.1L0.8,6.4
		C0.5,7,0.6,7.7,1.1,8.1l1.1,1l0,0.2c0,0.2,0,0.5,0,0.7c0,0.2,0,0.5,0,0.7l0,0.2l-1.1,1c-0.5,0.4-0.6,1.1-0.3,1.7l1.4,2.2
		c0.3,0.6,1,0.8,1.6,0.6l1.5-0.5L5.4,16c0.4,0.3,0.9,0.5,1.3,0.7l0.1,0.1l0.3,1.4c0.1,0.6,0.7,1.1,1.4,1.1h2.7
		c0.7,0,1.2-0.4,1.4-1.1l0.3-1.4l0.1-0.1c0.5-0.2,0.9-0.5,1.3-0.7l0.1-0.1l1.5,0.5c0.6,0.2,1.3-0.1,1.6-0.6l1.4-2.3
		C19.5,13,19.4,12.3,18.9,11.8L18.9,11.8z M16.7,15.3l-2-0.6c-0.2-0.1-0.4,0-0.6,0.1c-0.6,0.4-1.2,0.8-1.8,1
		C12.2,15.9,12,16,12,16.2l-0.4,1.9h-3L8,16.2c0-0.2-0.2-0.4-0.4-0.4c-0.6-0.2-1.3-0.6-1.8-1c-0.2-0.1-0.4-0.2-0.6-0.1l-2,0.6
		l-1.5-2.5l1.5-1.3c0.2-0.1,0.2-0.3,0.2-0.6c-0.1-0.3-0.1-0.7-0.1-1c0-0.3,0-0.7,0.1-1c0-0.2,0-0.4-0.2-0.6L1.8,7.1l1.4-2.3l0,0h0
		l0.1-0.1l2,0.6c0.2,0.1,0.4,0,0.6-0.1c0.6-0.4,1.2-0.8,1.8-1C7.8,4.1,8,3.9,8,3.7l0.4-1.9h3L12,3.7c0,0.2,0.2,0.4,0.4,0.4
		c0.7,0.2,1.3,0.6,1.8,1c0.2,0.1,0.4,0.2,0.6,0.1l1.5-0.5c0.1-0.1,0.3-0.2,0.4-0.1l0,0l0.1,0.1c0,0,0,0,0,0.1l1.4,2.3l-1.5,1.3
		c-0.2,0.1-0.2,0.3-0.2,0.6c0.1,0.3,0.1,0.7,0.1,1c0,0.3,0,0.7-0.1,1c0,0.2,0,0.4,0.2,0.6l1.5,1.3L16.7,15.3z"/>
</g>
</svg>
