<?xml version="1.0" encoding="utf-8"?>
<!-- Generator: Adobe Illustrator 25.0.1, SVG Export Plug-In . SVG Version: 6.00 Build 0)  -->
<svg version="1.1" id="Layer_1" xmlns="http://www.w3.org/2000/svg" xmlns:xlink="http://www.w3.org/1999/xlink" x="0px" y="0px"
	 viewBox="0 0 20 20" style="enable-background:new 0 0 20 20;" xml:space="preserve">
<style type="text/css">
	.st0{fill:#FFFFFF;}
</style>
<g>
	<path class="st0" d="M8.2,4.2H2.9C2.4,4.2,2,4.7,2,5.2s0.4,0.9,0.9,0.9h5.3c0.5,0,0.9-0.4,0.9-0.9S8.7,4.2,8.2,4.2z"/>
	<path class="st0" d="M12.6,9.1H2.9C2.4,9.1,2,9.5,2,10s0.4,0.9,0.9,0.9h9.7c0.5,0,0.9-0.4,0.9-0.9S13.1,9.1,12.6,9.1z"/>
	<path class="st0" d="M17.1,13.9H2.9c-0.5,0-0.9,0.4-0.9,0.9c0,0.5,0.4,0.9,0.9,0.9h14.1c0.5,0,0.9-0.4,0.9-0.9
		C18,14.3,17.6,13.9,17.1,13.9z"/>
</g>
</svg>
