<?xml version="1.0" encoding="utf-8"?>
<!-- Generator: Adobe Illustrator 25.0.1, SVG Export Plug-In . SVG Version: 6.00 Build 0)  -->
<svg version="1.1" id="Layer_1" xmlns="http://www.w3.org/2000/svg" xmlns:xlink="http://www.w3.org/1999/xlink" x="0px" y="0px"
	 viewBox="0 0 20 20" style="enable-background:new 0 0 20 20;" xml:space="preserve">
<style type="text/css">
	.st0{fill:#FFFFFF;}
</style>
<g>
	<path class="st0" d="M3.8,0.8l0.5-0.5l1,1L4.8,1.8L3.8,0.8z"/>
	<path class="st0" d="M3.7,4.2l1-1l0.5,0.5l-1,1L3.7,4.2z"/>
	<path class="st0" d="M6.6,1.3l1-1l0.5,0.5l-1,1L6.6,1.3z"/>
	<path class="st0" d="M11.7,19.7c-0.1,0-0.1,0-0.2,0c-0.1-0.1-0.2-0.2-0.3-0.3l-2-4.7l-2.4,2.1c-0.1,0.1-0.3,0.2-0.5,0.2
		c-0.4,0-0.7-0.3-0.7-0.7V3.4C5.7,3,6,2.7,6.4,2.7c0.2,0,0.3,0.1,0.5,0.2l9.3,9.4c0.1,0.2,0.2,0.3,0.2,0.5c0,0.4-0.3,0.7-0.7,0.7
		h-3.2l1.9,4.6c0.1,0.3,0,0.6-0.3,0.7l-2.2,1C11.8,19.7,11.7,19.7,11.7,19.7L11.7,19.7z M9.4,13.3c0,0,0.1,0,0.1,0
		c0.2,0,0.3,0.2,0.4,0.3l2.1,4.9l1.2-0.5l-2-4.8c-0.1-0.2-0.1-0.4,0-0.5c0.1-0.1,0.3-0.2,0.4-0.2h3.1l-8-8.1v11.2L9,13.4
		C9.1,13.3,9.3,13.3,9.4,13.3L9.4,13.3z M6.1,16C6.1,16,6.1,16,6.1,16L6.1,16z"/>
</g>
</svg>
