<?xml version="1.0" encoding="utf-8"?>
<!-- Generator: Adobe Illustrator 25.0.1, SVG Export Plug-In . SVG Version: 6.00 Build 0)  -->
<svg version="1.1" id="Layer_1" xmlns="http://www.w3.org/2000/svg" xmlns:xlink="http://www.w3.org/1999/xlink" x="0px" y="0px"
	 viewBox="0 0 18 18" style="enable-background:new 0 0 18 18;" xml:space="preserve">
<style type="text/css">
	.st0{fill:#FFF;}
</style>
<g>
	<g>
		<path class="st0" d="M12.4,9c0.3-3.1-0.8-6.3-3.1-8.6c-0.1-0.1-0.4-0.1-0.5,0C6.5,2.7,5.4,5.8,5.6,9c-0.8,0.9-1.2,1.9-1.2,3.1
			c0,1.2,0.4,2.3,1.3,3.2c0.2,0.2,0.7,0.1,0.6-0.3c0-0.2-0.1-0.5-0.1-0.7c0-0.6,0.2-1.1,0.5-1.6c0.1,0,0.1,0,0.2,0h4.2
			c0.1,0,0.1,0,0.2,0c0.3,0.5,0.5,1,0.5,1.6c0,0.2-0.1,0.5-0.1,0.7c-0.1,0.5,0.5,0.5,0.6,0.3c0.8-0.9,1.3-2,1.3-3.2
			C13.6,10.9,13.1,9.8,12.4,9z M9,1.2c0.7,0.7,1.2,1.5,1.6,2.4H7.4C7.8,2.7,8.3,1.9,9,1.2L9,1.2z M5.5,13.7c-0.2-0.5-0.3-1-0.3-1.6
			c0-0.8,0.2-1.5,0.6-2.1c0,0,0.4,1.5,0.5,1.9C5.9,12.4,5.6,13,5.5,13.7L5.5,13.7z M10.9,11.9H7.1c-1-2.5-1-5.2-0.1-7.6h3.9
			C11.9,6.7,11.9,9.4,10.9,11.9z M11.7,11.9c0.2-0.5,0.5-1.9,0.5-1.9c0.4,0.6,0.6,1.3,0.6,2.1c0,0.6-0.1,1.1-0.3,1.6
			C12.4,13,12.1,12.4,11.7,11.9L11.7,11.9z"/>
		<path class="st0" d="M7.5,13.3c-0.2,0-0.4,0.2-0.4,0.4v1.9c0,0.2,0.2,0.4,0.4,0.4s0.4-0.2,0.4-0.4v-1.9
			C7.9,13.4,7.7,13.3,7.5,13.3z"/>
		<path class="st0" d="M9,13.3c-0.1,0-0.2,0-0.3,0.1c0,0,0,0,0,0c0,0-0.1,0.1-0.1,0.2c0,0,0,0.1,0,0.1v3.7c0,0,0,0.1,0,0.1
			c0,0.2,0.2,0.3,0.4,0.3s0.3-0.1,0.4-0.3c0,0,0-0.1,0-0.1v-3.7c0,0,0-0.1,0-0.1C9.3,13.4,9.2,13.3,9,13.3z"/>
		<path class="st0" d="M10.5,13.3c-0.2,0-0.4,0.2-0.4,0.4v1.9c0,0.2,0.2,0.4,0.4,0.4c0.2,0,0.4-0.2,0.4-0.4v-1.9
			C10.9,13.4,10.7,13.3,10.5,13.3z"/>
	</g>
</g>
</svg>
