<?xml version="1.0" encoding="utf-8"?>
<!-- Generator: Adobe Illustrator 25.0.1, SVG Export Plug-In . SVG Version: 6.00 Build 0)  -->
<svg version="1.1" id="Layer_1" xmlns="http://www.w3.org/2000/svg" xmlns:xlink="http://www.w3.org/1999/xlink" x="0px" y="0px"
	 viewBox="0 0 20 20" style="enable-background:new 0 0 20 20;" xml:space="preserve">
<style type="text/css">
	.st0{fill:#FFFFFF;stroke:#FFFFFF;stroke-width:0.25;stroke-miterlimit:10;}
</style>
<g>
	<g>
		<path class="st0" d="M16.1,6.5c0-0.5-0.2-0.9-0.5-1.2c-0.3-0.3-0.7-0.5-1.2-0.5h-1V4c0-0.9-0.4-1.8-1-2.4c-0.6-0.6-1.5-1-2.4-1
			c-0.9,0-1.8,0.4-2.4,1C7,2.2,6.6,3.1,6.6,4v0.9h-1c-0.5,0-0.9,0.2-1.2,0.5S4,6.1,3.9,6.5l-1,11.1c0,0.1,0,0.1,0,0.1
			c0,0.4,0.2,0.8,0.5,1.1c0.3,0.3,0.7,0.5,1.1,0.5h0c0.1,0,0.1,0,0.2,0h10.7c0,0,0.1,0,0.2,0c0.4,0,0.8-0.2,1.1-0.5
			c0.3-0.3,0.5-0.7,0.5-1.1c0,0,0-0.1,0-0.1L16.1,6.5z M7.7,4c0-0.7,0.3-1.2,0.7-1.7c0.4-0.4,1-0.7,1.7-0.7c0.7,0,1.2,0.3,1.7,0.7
			s0.7,1,0.7,1.7v0.9H7.7V4z M16,17.8c0,0.2-0.1,0.3-0.2,0.4c-0.1,0.1-0.3,0.2-0.4,0.2c0,0,0,0-0.1,0H4.6c0,0-0.1,0-0.1,0h0
			c-0.2,0-0.3-0.1-0.4-0.2C4,18.1,4,17.9,4,17.8v-0.1L5,6.6c0-0.2,0.1-0.4,0.2-0.5C5.3,6,5.5,5.9,5.6,5.9h1v2.3
			c0,0.3,0.2,0.5,0.5,0.5c0.3,0,0.5-0.2,0.5-0.5V5.9h4.7v2.3c0,0.3,0.2,0.5,0.5,0.5s0.5-0.2,0.5-0.5V5.9h1c0.2,0,0.3,0.1,0.4,0.2
			C14.9,6.2,15,6.4,15,6.6L16,17.8L16,17.8L16,17.8z"/>
	</g>
</g>
</svg>
