<?xml version="1.0" encoding="utf-8"?>
<!-- Generator: Adobe Illustrator 25.0.1, SVG Export Plug-In . SVG Version: 6.00 Build 0)  -->
<svg version="1.1" id="Layer_1" xmlns="http://www.w3.org/2000/svg" xmlns:xlink="http://www.w3.org/1999/xlink" x="0px" y="0px"
	 viewBox="0 0 20 20" style="enable-background:new 0 0 20 20;" xml:space="preserve">
<style type="text/css">
	.st0{fill:#FFFFFF;}
</style>
<g>
	<path class="st0" d="M5.6,7.4H1.1c-0.2,0-0.3,0.2-0.3,0.3v4.5c0,0.2,0.2,0.3,0.3,0.3h4.5c0.2,0,0.3-0.2,0.3-0.3V7.8
		C5.9,7.6,5.8,7.4,5.6,7.4z M5.2,11.9H1.4V8.1h3.8V11.9z"/>
	<path class="st0" d="M12.2,7.4H7.7c-0.2,0-0.3,0.2-0.3,0.3V8c0,0.2,0.2,0.3,0.3,0.3C7.9,8.4,8,8.3,8,8.2l0.1-0.1h3.8v3.8H8.1
		L8,11.8c-0.1-0.1-0.2-0.2-0.3-0.2c-0.2,0-0.3,0.2-0.3,0.3v0.3c0,0.2,0.2,0.3,0.3,0.3h4.5c0.2,0,0.3-0.2,0.3-0.3V7.8
		C12.6,7.6,12.4,7.4,12.2,7.4z"/>
	<path class="st0" d="M18.9,7.4h-4.5c-0.2,0-0.3,0.2-0.3,0.3v4.5c0,0.2,0.2,0.3,0.3,0.3h4.5c0.2,0,0.3-0.2,0.3-0.3V7.8
		C19.2,7.6,19.1,7.4,18.9,7.4z M18.6,11.9h-3.8V8.1h3.8V11.9z"/>
	<path class="st0" d="M7.5,10.3c0.1,0.2,0.3,0.3,0.5,0.2c0.1,0,0.2-0.1,0.2-0.2c0-0.1,0-0.2,0-0.3c0-0.1-0.1-0.2-0.2-0.2
		c-0.1,0-0.2,0-0.3,0C7.5,9.9,7.4,10.1,7.5,10.3"/>
</g>
</svg>
