<?xml version="1.0" encoding="utf-8"?>
<!-- Generator: Adobe Illustrator 25.0.1, SVG Export Plug-In . SVG Version: 6.00 Build 0)  -->
<svg version="1.1" id="Layer_1" xmlns="http://www.w3.org/2000/svg" xmlns:xlink="http://www.w3.org/1999/xlink" x="0px" y="0px"
	 viewBox="0 0 20 20" style="enable-background:new 0 0 20 20;" xml:space="preserve">
<style type="text/css">
	.st0{fill:#FFFFFF;}
</style>
<path class="st0" d="M10,1.7c-4.6,0-8.3,3.7-8.3,8.3c0,4.6,3.7,8.3,8.3,8.3s8.3-3.7,8.3-8.3C18.3,5.4,14.6,1.7,10,1.7z M13.8,15.4
	c-1.1,0.8-2.4,1.2-3.8,1.2c-3.6,0-6.6-3-6.6-6.6c0-1.4,0.4-2.7,1.2-3.8L4.8,6l9.3,9.3L13.8,15.4z M15.4,13.8L15.2,14L6,4.8l0.2-0.1
	C7.3,3.8,8.6,3.4,10,3.4c3.6,0,6.6,3,6.6,6.6C16.6,11.4,16.2,12.7,15.4,13.8z"/>
</svg>
