<svg id="Layer_1" data-name="Layer 1" xmlns="http://www.w3.org/2000/svg" viewBox="0 0 96 96"><title>icons</title><path d="M60.15,19.82c-2.94,3.48-7.65,6.23-12.36,5.84C47.2,21,49.51,16,52.2,12.86A18.49,18.49,0,0,1,64.46,6.53a18.62,18.62,0,0,1-4.31,13.29"/><path d="M64.41,26.59c-6.81-.39-12.65,3.87-15.88,3.87s-8.24-3.67-13.64-3.58a20.16,20.16,0,0,0-17.11,10.4C10.42,49.93,15.86,68.67,23,79c3.49,5.1,7.65,10.69,13.15,10.49,5.2-.19,7.26-3.38,13.53-3.38s8.14,3.38,13.64,3.28c5.69-.09,9.27-5.1,12.75-10.2a44.72,44.72,0,0,0,5.69-11.72c-.1-.1-11-4.26-11.09-16.82-.09-10.49,8.59-15.5,9-15.79-4.91-7.26-12.56-8-15.21-8.24"/></svg>