<svg id="Layer_1" data-name="Layer 1" xmlns="http://www.w3.org/2000/svg" viewBox="0 0 96 96"><title>icons</title><path d="M58.59,72.13c2.6,0,4.91,0,7.22,0a1.43,1.43,0,0,0,1.11-.58q10.27-11,20.57-22c.64-.68.39-1-.08-1.53Q76.61,35.69,65.83,23.29c-1.13-1.3-1.34-2.57-.65-3.7a2.81,2.81,0,0,1,4.66-.19c2.75,3.1,5.46,6.23,8.18,9.35q7.77,8.93,15.53,17.84c1.52,1.76,1.53,3,0,4.69Q81.73,63.91,70,76.52a3.57,3.57,0,0,1-2.85,1.22c-4.87,0-9.73,0-14.6,0a2.84,2.84,0,0,1-3-1.74,2.88,2.88,0,0,1,.8-3.27Q61.07,61.26,71.81,49.79c.62-.66.76-1,.09-1.81Q61.78,36.45,51.74,24.84a2.59,2.59,0,0,0-2.23-1c-2.14.08-4.29,0-6.7,0,.85,1,1.55,1.83,2.26,2.65L62.73,46.75c1.37,1.57,1.35,2.91-.07,4.43Q50.84,63.84,39,76.5a3.65,3.65,0,0,1-2.84,1.24c-8.57,0-17.15,0-25.72,0a9,9,0,0,1-9.13-9.08q0-20.65,0-41.31a9,9,0,0,1,9.14-9.06h14c2,0,3.29,1.08,3.27,2.8s-1.28,2.76-3.33,2.77c-4.5,0-9,0-13.52,0-2.62,0-4,1.34-4,4q0,20.19,0,40.37c0,2.63,1.35,4,4,4,7.81,0,15.63,0,23.45,0a2.28,2.28,0,0,0,1.85-.8C42.85,64.16,49.52,57,56.26,49.88c.82-.87.69-1.3,0-2.09C49.13,39.68,42.06,31.53,35,23.4a3.87,3.87,0,0,1-1.13-2,2.74,2.74,0,0,1,2.64-3.06c5.27,0,10.53,0,15.8,0a3.16,3.16,0,0,1,2.38,1.41L67.82,34.82q5.06,5.82,10.12,11.62c1.73,2,1.71,3.14-.08,5.06L59.5,71.13C59.26,71.38,59,71.64,58.59,72.13Z"/></svg>