<svg xmlns="http://www.w3.org/2000/svg" xml:space="preserve" style="fill-rule:evenodd;clip-rule:evenodd;stroke-linejoin:round;stroke-miterlimit:2" viewBox="0 0 800 800"><path d="m6.928 17.186 7.512 3.472a3.85 3.85 0 0 1 1.943 1.983c.897 2.099-.329 4.246-2.255 5.018-1.927.772-3.979.275-4.913-1.908l-3.269-7.664c-.253-.594.383-1.178.982-.901ZM7.38 14.938l7.753-2.931c2.577-.974 5.392.869 5.354 3.547l-.002.105c-.056 2.608-2.792 4.36-5.313 3.438l-7.785-2.85a.693.693 0 0 1-.007-1.309ZM6.945 13.922l7.622-3.238c2.533-1.077 3.176-4.307 1.192-6.174l-.078-.073c-1.945-1.805-5.16-1.169-6.267 1.208l-3.421 7.347c-.273.585.344 1.189.952.93ZM4.983 12.643l2.772-7.599a3.677 3.677 0 0 0-.076-2.732C6.78.214 4.344-.464 2.419.31.493 1.083-.595 2.84.341 5.023l3.29 7.656c.255.593 1.132.57 1.352-.036Z" style="fill:#ffc233" transform="translate(107.327) scale(28.5711)"/></svg>