<svg xmlns="http://www.w3.org/2000/svg" viewBox="0 0 1000 820" width="280" height="280" id="wffn_sending_character">
<style> .cls-1{fill:#f4f6f9;}.cls-2{fill:none;stroke:#333;}.cls-2,.cls-4{stroke - linecap:round;stroke-linejoin:round;stroke-width:7px;}.cls-3{fill:#333;}.cls-4{fill:#9ed5f0;stroke:#9ed5f0;}</style><g id="CHARACTERS"><g id="sending"><path id="BG" class="cls-1" d="M82.19,517.27l4.29-5.14c9.34-11.27,44.44-53,53.48-63.45,12.7-14.7,23.75-24.38,36.5-38.5,6.08-6.72,15.38-12.56,18.2-21.31,2.9-9,6.39-22.14,11.3-29.86a8.21,8.21,0,0,1,2.4.29l3.79-23.58s1.55-12.6,3-21.27h0c-3.88-1.12-4.87-7.44-5.1-11.62-.3-5.71-.57-11.43-.68-17.15-9.52-.11-21.15-1.21-27.16-9-8.35-10.81-1-24.67,7.74-30,5.82-3.58,14.15-4.74,24.33-4.46h0a82.92,82.92,0,0,1,8-18.65c6.36-10.74,17.18-22.11,29.93-20.44a9.88,9.88,0,0,0,3.06-1.59c24.56-18.9,52.64,2.28,78.82,3.54,3.75.18,5.71,5.51,2,7.45a104.68,104.68,0,0,1-11.23,5.08c7.43,3,14.72,6.17,21.8,8.92,10.26,4,44.74,21.85,44.74,21.85l-54.5,2s-1,20.61-1.33,28.67c-.45,11.68-1.43,22.83-2,34.49-.84,17.82-7.35,70.17-7.35,70.17l-.07,3.41.63,0c3.71,10.65,7.59,24.28,8.72,35.55a37.2,37.2,0,0,1,.06,6.08c13.36,11.46,34.84,40.82,44.83,51.92a316.9,316.9,0,0,1,34.87,47.86c2.62-14,6.22-29.3,10.3-41.27,3.95-11.58,10-25.29,17.5-35,2.23-2.9,9.2-8.24,14.48-9.77l0-.14c9.86-14.3,19-31.17,27.33-46.31,8.25-14.94,16.34-32,27.28-46.1a188.86,188.86,0,0,0-24.52,3q-2.89.54-5.76,1.2a236.62,236.62,0,0,1,56.26-44.74c5.47-3.14,6.7-11.29,2-15.71-9.52-9-21.81-6-32.52-1.07-13,6-25.91,12.26-38.86,18.39l-11.12,5.26A686.45,686.45,0,0,1,572.9,250.5c4.48-2,5.91-8.36,4.09-12.49-2.11-4.8-6.75-6.71-11.8-5.79a655.77,655.77,0,0,0-123.32,35.36c4.31-3.37,8.66-6.68,13.1-9.88q16.27-11.73,33.57-22,4.5-2.67,9.07-5.23c2.61-1.47,6-2.8,8.14-4.94,6.34-6.35,3-16.11-3.41-20.72C497,201,490.42,200.27,484.11,199l-23.26-4.65-44.59-8.89c-29.55-5.9-59.05-12.23-88.76-17.26-53.69-9.09-110.41-12.82-161.8,8.53-22,9.14-42.57,22.11-58.57,39.93C89.39,236.41,78.6,260.81,72.2,286.36,58.26,342,57.65,401.36,67,457.71,70.26,477.29,74,498.5,82.19,517.27Z"></path><g id="Character"><path class="cls-2" d="M304.14,444.35c.69,14.91-.87,31.77-5.17,46-2.86,9.45-5.15,19.23-8.39,28.55-2.52,7.24-7.66,14.1-9.52,21.22,10.44-9.19,37.74-19.88,44.68.27,7.65,22.22-16.18,52.8-28.09,68.44,4.45-3.17,13.31-12.17,18.86-7.68,3,2.45,3.51,8.24,3.45,11.69-.11,6.9-3.56,12.36-6.63,18.52s-9.91,20.23-9,27.67"></path><path class="cls-2" d="M60,545.59c8.1-11.89,17.3-22.41,26.47-33.46,9.34-11.27,44.44-53,53.48-63.45,12.7-14.7,23.75-24.38,36.5-38.5,6.08-6.72,15.38-12.56,18.2-21.31,2.91-9,6.39-22.14,11.3-29.86,4.62-.3,12.83,5.55,24.34,9.67S261.05,376,275,379.52a261.57,261.57,0,0,0,51.89,7.61c3.71,10.65,7.59,24.28,8.72,35.55,1.47,14.6-7.64,36.17-12.61,36.5S310,423,304.41,411.77c-5.2,7-17.13,45.82-23.35,46.41s-17.18-6.69-24.38-12.1-34.22-28.4-50.2-47.1"></path><path class="cls-2" d="M335.6,428.73c13.36,11.45,34.86,40.84,44.86,51.95a316.17,316.17,0,0,1,35.84,49.51c7.51,13,16.84,26.15,18.66,35.49s-2.81,21.17-10.91,21.47-13.84-12-13.09-26.8,6.82-50.08,14.67-73.08c3.95-11.58,10-25.29,17.5-35,2.92-3.8,9.75-11.78,14.5-9.91"></path><path class="cls-2" d="M208.3,359.68l3.85-24s2-16.57,3.65-24.78c1.18-6,4.9-14.79,4.33-20.6-.43-4.35,1.29-2.12-2.5-4-2.41-1.17-5.38-.68-8-.7-9.56-.09-21.34-1.14-27.4-9-8.35-10.81-1-24.67,7.74-30,9.71-6,26.34-5.25,47-2.27,2.45-2,3.54-9.19,5.35-12.35,2.46-4.29,4.67-7.92,8.29-11.36,7.41-7,14.66-10.12,24.36-11.87,24.55-4.44,49.19,8.95,71.76,17.7,10.26,4,44.74,21.85,44.74,21.85l-54.5,2s-1,20.61-1.33,28.67c-.45,11.68-1.43,22.83-2,34.49-.84,17.82-7.34,70.17-7.34,70.17"></path><path class="cls-2" d="M272.3,269c1.84,4.67,13.72,14.74,18,10"></path><path class="cls-2" d="M303.63,233.68a27.69,27.69,0,0,0,1.33,8.67"></path><path class="cls-2" d="M316.3,231.68a23.93,23.93,0,0,1,2,6.67"></path><path class="cls-2" d="M201.63,265c4.57-.68,10.22,3,14.67,4"></path><path class="cls-3" d="M217.63,286.38c-2.41-1.17-5.38-.68-8-.7h-.24c.11,5.72.38,11.44.68,17.15.23,4.18,1.22,10.5,5.1,11.62.22-1.27.43-2.46.64-3.51,1.18-6,4.9-14.79,4.33-20.6C219.7,286,221.42,288.22,217.63,286.38Z"></path><path class="cls-3" d="M334.13,205.08c-26.18-1.26-54.26-22.44-78.82-3.54a9.94,9.94,0,0,1-3.05,1.59c-12.76-1.67-23.58,9.7-29.94,20.44a82.92,82.92,0,0,0-8,18.65c4.88.13,10.18.59,15.84,1.28a.56.56,0,0,0,0,.12c2,6.29,5.38,12.72,3.28,19.39-1.14,3.62,4.15,7.08,6.68,3.89a90.65,90.65,0,0,0,19.49-47.6c8.92,4.89,21.47,5.21,30.6,5.07a101.85,101.85,0,0,0,45.93-11.84C339.84,210.59,337.88,205.26,334.13,205.08Z"></path><path class="cls-2" d="M458.3,442.35A178.56,178.56,0,0,1,492,458.68a173.3,173.3,0,0,1,36.28,31.73c9.16,10.76,11.32,14.63,12,29s-.16,30.8-15.26,37.8c8.75,8.53,15,35.76-1.33,40.66,2.54,3,5.91,5.48,8.29,8.63,5.76,7.65,9.75,15.76,11,24.52"></path><path class="cls-2" d="M457.63,442.35c9.86-14.3,19-31.17,27.33-46.31,12.55-22.73,24.72-50.34,47.15-65.08,27.09-17.8,64.75-13.68,94.75-3.65,31,10.37,41.95,26.9,27.69,33-6,2.53-18-4.94-24.59-6.26-8.51-1.69-17.66-4.33-25.64-3.1"></path><path class="cls-2" d="M480.3,405c16.16,3.67,27,11.16,39.66,20.67,6.42,4.82,23.4,16.11,24.28,23.66.84,7.14-12.61,43-12.61,43"></path><path class="cls-2" d="M547.63,344.35c7.51-2.67,14.41-2.34,22.67.5a59,59,0,0,1,23.64,15.88c4.15,4.83,10,21.35-1.68,22.39-3.29.3-9.94-6.41-13.1-7.94-4.77-2.31-12.11-4.93-17.33-3.5,11.55,4.5,15.13,15.5,7.63,26"></path><path class="cls-2" d="M547,414.35c2.51,9.28,12.51,9.53,20.74,10,10,.6,27.58-8.44,29.25-18.8,8.94,5.66,12.18,15.88,14.94,25.46,1.33,4.65,4.75,14.16,11.59,10.71,7.4-3.74,5.8-16.7,4.15-22.06-2.92-9.47-6.88-17.42-17.27-25.71,15.27,7.41,33.16,42.07,42.61,26.41,9.35-15.48-27.36-41.93-38.6-45.49a1.06,1.06,0,0,1,0-1.1c17.95,3.56,27.34,16.85,42.22,20.19,16.73,3.76,20.39-20-2-33.71"></path><path class="cls-2" d="M554.3,423c0,6.91-9.19,15-10,22.67"></path><path class="cls-2" d="M559.63,293.18c15.26-9.43,37.31-17.53,54.55-21.47,17.86-4.08,35.55-9,53.53-12.34,15.46-2.91,52.25-7,79.75-7"></path><path class="cls-2" d="M671,305.68c7.11-2.12,15-4.45,22.08-6,8.55-1.84,17.17-2.89,25.76-4.52,13.19-2.51,26.84-3.63,40.16-4.83"></path><path class="cls-4" d="M903.76,249.62c-20.46-1.57-40.83-5.18-61.21-8.13-20.54-3-87-15-91.18-13.54,7.88,12.25,19.27,23.58,30,34.68,0,0-3.17,22.71-2.43,35.26,0,0,17.38-7.71,25.23-9.48h0c5.82,7,11.21,13.56,11.21,13.56S862.72,289,876.9,282.71c16.13-7.19,32.4-13.26,48.84-19.45a35.55,35.55,0,0,0,14.25-9.4C928.76,251.22,915.31,250.5,903.76,249.62Z"></path><path class="cls-2" d="M815.36,302s-5.39-6.57-11.21-13.56c-4.25-5.12-8.74-10.47-11.51-13.63-3.53-4-7.37-8.08-11.29-12.15-10.71-11.1-22.1-22.43-30-34.68"></path><path class="cls-2" d="M899.12,259c-3.73,2.48-6.71.14-10.73.29-5.82.23-10.23,3.72-16.38,3.27-11.14-.82-47.71.46-58.07.72-6.74.16-26.25.77-32.59-.66,0,0-3.17,22.71-2.43,35.26"></path></g></g></g></svg>