<?xml version="1.0" encoding="utf-8"?>
<!-- Generator: Adobe Illustrator 22.0.0, SVG Export Plug-In . SVG Version: 6.00 Build 0)  -->
<svg version="1.1" id="Layer_1" xmlns="http://www.w3.org/2000/svg" xmlns:xlink="http://www.w3.org/1999/xlink" x="0px" y="0px"
	 viewBox="0 0 367.9 196" style="enable-background:new 0 0 367.9 196;" xml:space="preserve">
<style type="text/css">
	.st0{fill:#FFFFFF;}
	.st1{fill:none;stroke:#C6C6C6;stroke-miterlimit:10;}
	.st2{fill:#C6C6C6;}
	.st3{opacity:0.3;}
	.st4{fill:#3C3C3B;}
	.st5{fill:none;stroke:#FFFFFF;stroke-width:0.4365;stroke-miterlimit:10;}
	.st6{fill:none;stroke:#FFFFFF;stroke-width:0.4358;stroke-miterlimit:10;}
	.st7{fill:none;stroke:#FFFFFF;stroke-width:0.4352;stroke-miterlimit:10;}
	.st8{fill:none;}
	.st9{fill:none;stroke:#FFFFFF;stroke-width:0.4374;stroke-miterlimit:10;}
	.st10{opacity:0.62;fill:#ECECEC;}
	.st11{fill:none;stroke:#FFFFFF;stroke-width:0.3171;stroke-miterlimit:10;}
	.st12{fill:none;stroke:#FFFFFF;stroke-width:0.348;stroke-miterlimit:10;}
	.st13{fill:#575756;}
	.st14{fill:#868686;}
	.st15{fill:#6F6F6E;}
	.st16{fill:#F9BA24;}
	.st17{fill:#6941E0;}
	.st18{fill:none;stroke:#FFFFFF;stroke-width:0.3365;stroke-miterlimit:10;}
	.st19{fill:none;stroke:#FFFFFF;stroke-width:0.336;stroke-miterlimit:10;}
	.st20{fill:none;stroke:#FFFFFF;stroke-width:0.3355;stroke-miterlimit:10;}
	.st21{fill:none;stroke:#FFFFFF;stroke-width:0.3372;stroke-miterlimit:10;}
	.st22{fill:none;stroke:#FFFFFF;stroke-width:0.5824;stroke-miterlimit:10;}
	.st23{opacity:0.62;fill:#C4C2C2;}
	.st24{fill:none;stroke:#FFFFFF;stroke-width:0.4871;stroke-miterlimit:10;}
	.st25{fill:none;stroke:#FFFFFF;stroke-width:0.6078;stroke-miterlimit:10;}
	.st26{fill:none;stroke:#FFFFFF;stroke-width:0.2234;stroke-miterlimit:10;}
	.st27{fill:#E8E8E8;}
	.st28{fill:none;stroke:#FFFFFF;stroke-width:0.3824;stroke-miterlimit:10;}
	.st29{fill:none;stroke:#FFFFFF;stroke-width:0.3818;stroke-miterlimit:10;}
	.st30{fill:none;stroke:#FFFFFF;stroke-width:0.3813;stroke-miterlimit:10;}
	.st31{fill:none;stroke:#FFFFFF;stroke-width:0.3832;stroke-miterlimit:10;}
	.st32{fill:none;stroke:#FFFFFF;stroke-width:0.257;stroke-miterlimit:10;}
	.st33{fill:none;stroke:#FFFFFF;stroke-width:0.6653;stroke-miterlimit:10;}
	.st34{fill:#7B6CEA;}
	.st35{fill:#DADADA;}
	.st36{fill:none;stroke:#C6C6C6;stroke-width:0.5;stroke-miterlimit:10;}
	.st37{fill:none;stroke:#7B6CEA;stroke-miterlimit:10;}
	.st38{fill:#878787;}
	.st39{fill:#9D9D9C;}
	.st40{fill:#A6CE39;}
	.st41{filter:url(#Adobe_OpacityMaskFilter);}
	.st42{opacity:0.7;mask:url(#SVGID_1_);}
	.st43{fill:#FFCB08;}
	.st44{fill:#ED1651;}
	.st45{filter:url(#Adobe_OpacityMaskFilter_1_);}
	.st46{mask:url(#SVGID_2_);}
	.st47{fill:#00AEEF;}
	.st48{fill:#42ABED;}
	.st49{fill:#58585A;}
	.st50{fill:none;stroke:#7B6CEA;stroke-width:0.348;stroke-miterlimit:10;}
	.st51{fill:#ACACAD;}
	.st52{fill:none;stroke:#FFFFFF;stroke-width:0.5;stroke-miterlimit:10;}
	.st53{filter:url(#Adobe_OpacityMaskFilter_2_);}
	.st54{opacity:0.7;mask:url(#SVGID_3_);}
	.st55{filter:url(#Adobe_OpacityMaskFilter_3_);}
	.st56{mask:url(#SVGID_4_);}
	.st57{fill:#B2B2B2;}
	.st58{filter:url(#Adobe_OpacityMaskFilter_4_);}
	.st59{opacity:0.7;mask:url(#SVGID_5_);}
	.st60{filter:url(#Adobe_OpacityMaskFilter_5_);}
	.st61{mask:url(#SVGID_6_);}
	.st62{filter:url(#Adobe_OpacityMaskFilter_6_);}
	.st63{opacity:0.7;mask:url(#SVGID_7_);}
	.st64{filter:url(#Adobe_OpacityMaskFilter_7_);}
	.st65{mask:url(#SVGID_8_);}
	.st66{fill:none;stroke:#C6C6C6;stroke-width:0.9721;stroke-miterlimit:10;}
	.st67{fill:none;stroke:#FFFFFF;stroke-width:0.4243;stroke-miterlimit:10;}
	.st68{fill:none;stroke:#FFFFFF;stroke-width:0.4237;stroke-miterlimit:10;}
	.st69{fill:none;stroke:#FFFFFF;stroke-width:0.423;stroke-miterlimit:10;}
	.st70{fill:none;stroke:#FFFFFF;stroke-width:0.4252;stroke-miterlimit:10;}
	.st71{fill:none;stroke:#FFFFFF;stroke-width:2;stroke-miterlimit:10;}
	.st72{fill:none;stroke:#7B6CEA;stroke-width:0.75;stroke-miterlimit:10;}
	.st73{fill:none;stroke:#C6C6C6;stroke-width:1.622;stroke-miterlimit:10;}
	.st74{fill:none;stroke:#C6C6C6;stroke-width:0.811;stroke-miterlimit:10;}
	.st75{fill:none;stroke:#7B6CEA;stroke-width:1.622;stroke-miterlimit:10;}
	.st76{fill:none;stroke:#C6C6C6;stroke-width:1.5767;stroke-miterlimit:10;}
	.st77{fill:none;stroke:#FFFFFF;stroke-width:0.6882;stroke-miterlimit:10;}
	.st78{fill:none;stroke:#FFFFFF;stroke-width:0.6872;stroke-miterlimit:10;}
	.st79{fill:none;stroke:#FFFFFF;stroke-width:0.6862;stroke-miterlimit:10;}
	.st80{fill:none;stroke:#FFFFFF;stroke-width:0.6897;stroke-miterlimit:10;}
	.st81{fill:none;stroke:#FFFFFF;stroke-width:3.244;stroke-miterlimit:10;}
	.st82{fill:none;stroke:#FFFFFF;stroke-width:0.811;stroke-miterlimit:10;}
	.st83{fill:none;stroke:#7B6CEA;stroke-width:1.2165;stroke-miterlimit:10;}
	.st84{fill:none;stroke:#C6C6C6;stroke-width:1.584;stroke-miterlimit:10;}
	.st85{fill:none;stroke:#C6C6C6;stroke-width:0.396;stroke-miterlimit:10;}
	.st86{fill:none;stroke:#7B6CEA;stroke-width:1.188;stroke-miterlimit:10;}
	.st87{fill:none;stroke:#7B6CEA;stroke-width:1.584;stroke-miterlimit:10;}
	.st88{fill:none;stroke:#FFFFFF;stroke-width:0.792;stroke-miterlimit:10;}
	.st89{fill:none;stroke:#C6C6C6;stroke-width:1.5398;stroke-miterlimit:10;}
	.st90{fill:none;stroke:#FFFFFF;stroke-width:0.6721;stroke-miterlimit:10;}
	.st91{fill:none;stroke:#FFFFFF;stroke-width:0.6711;stroke-miterlimit:10;}
	.st92{fill:none;stroke:#FFFFFF;stroke-width:0.6701;stroke-miterlimit:10;}
	.st93{fill:none;stroke:#FFFFFF;stroke-width:0.6735;stroke-miterlimit:10;}
	.st94{fill:none;stroke:#FFFFFF;stroke-width:3.1681;stroke-miterlimit:10;}
	.st95{fill:#F5F6F8;}
	.st96{fill:none;stroke:#C6C6C6;stroke-width:3.229;stroke-miterlimit:10;}
	.st97{fill:none;stroke:#BE1622;stroke-width:10;stroke-miterlimit:10;}
</style>
<g>
	<g>
		<path class="st0" d="M24,180.1h319.9c3.4,0,6.1-2.7,6.1-6.1V20.1c0-3.4-2.7-6.1-6.1-6.1H24c-3.4,0-6.1,2.7-6.1,6.1V174
			C17.9,177.3,20.6,180.1,24,180.1z"/>
		<path class="st84" d="M24,180.1h319.9c3.4,0,6.1-2.7,6.1-6.1V20.1c0-3.4-2.7-6.1-6.1-6.1H24c-3.4,0-6.1,2.7-6.1,6.1V174
			C17.9,177.3,20.6,180.1,24,180.1z"/>
	</g>
	<g>
		<path class="st57" d="M54.3,83v-4.7h0.7l1.5,2.4c0.3,0.5,0.6,1,0.8,1.5l0,0c-0.1-0.6-0.1-1.2-0.1-1.9v-2h0.6V83h-0.6l-1.5-2.4
			c-0.3-0.5-0.6-1.1-0.9-1.6l0,0c0,0.6,0,1.2,0,1.9v2H54.3z"/>
		<path class="st57" d="M61.2,80.8h-1.8v1.7h2V83h-2.6v-4.7h2.5v0.5h-1.9v1.5h1.8V80.8z"/>
		<path class="st57" d="M63.1,83l-1.2-4.7h0.6l0.6,2.4c0.1,0.6,0.3,1.2,0.3,1.6h0c0.1-0.5,0.2-1,0.4-1.6l0.6-2.4h0.6l0.6,2.4
			c0.1,0.6,0.3,1.1,0.3,1.6h0c0.1-0.5,0.2-1,0.4-1.6l0.6-2.4h0.6L66.2,83h-0.6L65,80.6c-0.1-0.6-0.2-1.1-0.3-1.5h0
			c-0.1,0.5-0.2,0.9-0.4,1.5L63.7,83H63.1z"/>
		<path class="st57" d="M68.1,82.3c0.3,0.2,0.7,0.3,1.1,0.3c0.6,0,1-0.3,1-0.8c0-0.4-0.2-0.7-0.9-0.9c-0.8-0.3-1.2-0.7-1.2-1.3
			c0-0.7,0.6-1.3,1.5-1.3c0.5,0,0.8,0.1,1,0.2L70.4,79c-0.2-0.1-0.5-0.2-0.9-0.2c-0.6,0-0.9,0.4-0.9,0.7c0,0.4,0.3,0.7,0.9,0.9
			c0.8,0.3,1.2,0.7,1.2,1.4c0,0.7-0.5,1.3-1.6,1.3c-0.5,0-0.9-0.1-1.2-0.3L68.1,82.3z"/>
		<path class="st57" d="M73.6,78.9h-1.4v-0.5h3.5v0.5h-1.4V83h-0.6V78.9z"/>
		<path class="st57" d="M76.8,78.4V83h-0.6v-4.7H76.8z"/>
		<path class="st57" d="M78.7,78.9h-1.4v-0.5h3.5v0.5h-1.4V83h-0.6V78.9z"/>
		<path class="st57" d="M81.3,78.4h0.6v4.2h2V83h-2.6V78.4z"/>
		<path class="st57" d="M87,80.8h-1.8v1.7h2V83h-2.6v-4.7h2.5v0.5h-1.9v1.5H87V80.8z"/>
	</g>
	<g>
		<path class="st57" d="M60.8,90.7c-0.2,0.1-0.5,0.2-1,0.2c-1.1,0-1.9-0.7-1.9-1.9c0-1.2,0.8-2,2-2c0.5,0,0.8,0.1,0.9,0.2l-0.1,0.4
			c-0.2-0.1-0.5-0.2-0.8-0.2c-0.9,0-1.5,0.6-1.5,1.6c0,0.9,0.5,1.5,1.5,1.5c0.3,0,0.6-0.1,0.8-0.2L60.8,90.7z"/>
		<path class="st57" d="M62.1,89.6l-0.4,1.2h-0.5l1.3-3.8h0.6l1.3,3.8h-0.5l-0.4-1.2H62.1z M63.4,89.2L63,88.1
			c-0.1-0.3-0.1-0.5-0.2-0.7h0c-0.1,0.2-0.1,0.5-0.2,0.7l-0.4,1.1H63.4z"/>
		<path class="st57" d="M65.3,87.4h-1.2V87h2.8v0.4h-1.2v3.4h-0.5V87.4z"/>
		<path class="st57" d="M69.4,89h-1.5v1.4h1.7v0.4h-2.2V87h2.1v0.4h-1.6v1.2h1.5V89z"/>
		<path class="st57" d="M73.1,90.6c-0.2,0.1-0.7,0.2-1.2,0.2c-0.6,0-1.1-0.1-1.4-0.5c-0.3-0.3-0.5-0.8-0.5-1.4c0-1.1,0.8-2,2.1-2
			c0.4,0,0.8,0.1,1,0.2l-0.1,0.4c-0.2-0.1-0.5-0.2-0.8-0.2c-0.9,0-1.5,0.6-1.5,1.5c0,1,0.6,1.6,1.5,1.6c0.3,0,0.5,0,0.7-0.1v-1.1
			h-0.8v-0.4h1.3V90.6z"/>
		<path class="st57" d="M77.1,88.8c0,1.3-0.8,2-1.8,2c-1,0-1.7-0.8-1.7-2c0-1.2,0.8-2,1.8-2C76.5,86.9,77.1,87.7,77.1,88.8z
			 M74.2,88.9c0,0.8,0.4,1.6,1.2,1.6c0.8,0,1.2-0.7,1.2-1.6c0-0.8-0.4-1.6-1.2-1.6C74.6,87.3,74.2,88.1,74.2,88.9z"/>
		<path class="st57" d="M77.8,87c0.3-0.1,0.6-0.1,1-0.1c0.5,0,0.9,0.1,1.1,0.3c0.2,0.2,0.3,0.4,0.3,0.7c0,0.5-0.3,0.8-0.7,1v0
			c0.3,0.1,0.5,0.4,0.6,0.8c0.1,0.5,0.2,0.9,0.3,1.1h-0.5c-0.1-0.1-0.1-0.4-0.3-0.9c-0.1-0.5-0.3-0.7-0.8-0.7h-0.5v1.7h-0.5V87z
			 M78.3,88.8h0.5c0.5,0,0.9-0.3,0.9-0.7c0-0.5-0.4-0.7-0.9-0.7c-0.2,0-0.4,0-0.5,0V88.8z"/>
		<path class="st57" d="M81.6,90.8v-1.6L80.4,87H81l0.5,1.1c0.1,0.3,0.3,0.5,0.4,0.8h0c0.1-0.3,0.2-0.5,0.4-0.8l0.6-1.1h0.6
			l-1.3,2.2v1.6H81.6z"/>
	</g>
	<rect x="29.2" y="21.6" class="st35" width="84.1" height="53.8"/>
	<rect x="142.1" y="21.6" class="st35" width="84.1" height="53.8"/>
	<rect x="257.2" y="21.6" class="st35" width="84.1" height="53.8"/>
	<rect x="29.2" y="104" class="st35" width="84.1" height="53.8"/>
	<rect x="142.1" y="104" class="st35" width="84.1" height="53.8"/>
	<rect x="257.2" y="104" class="st35" width="84.1" height="53.8"/>
	<g>
		<line class="st86" x1="35.2" y1="26.5" x2="43.2" y2="31.8"/>
		<polyline class="st86" points="38,26.4 34.4,25.9 36.2,29 		"/>
		<polyline class="st86" points="40.3,31.7 43.9,32.1 42.1,29 		"/>
	</g>
	<g>
		<line class="st86" x1="106" y1="26.5" x2="97.9" y2="31.8"/>
		<polyline class="st86" points="103.2,26.4 106.8,25.9 105,29 		"/>
		<polyline class="st86" points="100.9,31.7 97.3,32.1 99.1,29 		"/>
	</g>
	<g>
		<line class="st86" x1="35.2" y1="69.7" x2="43.2" y2="64.4"/>
		<polyline class="st86" points="38,69.8 34.4,70.3 36.2,67.2 		"/>
		<polyline class="st86" points="40.3,64.5 43.9,64.1 42.1,67.2 		"/>
	</g>
	<g>
		<line class="st86" x1="106" y1="69.7" x2="97.9" y2="64.4"/>
		<polyline class="st86" points="103.2,69.8 106.8,70.3 105,67.2 		"/>
		<polyline class="st86" points="100.9,64.5 97.3,64.1 99.1,67.2 		"/>
	</g>
	<rect x="48" y="34" class="st86" width="46.3" height="29.2"/>
	<g>
		<path class="st57" d="M167.9,83v-4.7h0.7l1.5,2.4c0.3,0.5,0.6,1,0.8,1.5l0,0c-0.1-0.6-0.1-1.2-0.1-1.9v-2h0.6V83h-0.6l-1.5-2.4
			c-0.3-0.5-0.6-1.1-0.9-1.6l0,0c0,0.6,0,1.2,0,1.9v2H167.9z"/>
		<path class="st57" d="M174.8,80.8H173v1.7h2V83h-2.6v-4.7h2.5v0.5H173v1.5h1.8V80.8z"/>
		<path class="st57" d="M176.7,83l-1.2-4.7h0.6l0.6,2.4c0.1,0.6,0.3,1.2,0.3,1.6h0c0.1-0.5,0.2-1,0.4-1.6l0.6-2.4h0.6l0.6,2.4
			c0.1,0.6,0.3,1.1,0.3,1.6h0c0.1-0.5,0.2-1,0.4-1.6l0.6-2.4h0.6l-1.3,4.7h-0.6l-0.6-2.4c-0.1-0.6-0.2-1.1-0.3-1.5h0
			c-0.1,0.5-0.2,0.9-0.4,1.5l-0.7,2.4H176.7z"/>
		<path class="st57" d="M181.7,82.3c0.3,0.2,0.7,0.3,1.1,0.3c0.6,0,1-0.3,1-0.8c0-0.4-0.2-0.7-0.9-0.9c-0.8-0.3-1.2-0.7-1.2-1.3
			c0-0.7,0.6-1.3,1.5-1.3c0.5,0,0.8,0.1,1,0.2L184,79c-0.2-0.1-0.5-0.2-0.9-0.2c-0.6,0-0.9,0.4-0.9,0.7c0,0.4,0.3,0.7,0.9,0.9
			c0.8,0.3,1.2,0.7,1.2,1.4c0,0.7-0.5,1.3-1.6,1.3c-0.5,0-0.9-0.1-1.2-0.3L181.7,82.3z"/>
		<path class="st57" d="M187.2,78.9h-1.4v-0.5h3.5v0.5h-1.4V83h-0.6V78.9z"/>
		<path class="st57" d="M190.4,78.4V83h-0.6v-4.7H190.4z"/>
		<path class="st57" d="M192.3,78.9h-1.4v-0.5h3.5v0.5h-1.4V83h-0.6V78.9z"/>
		<path class="st57" d="M194.9,78.4h0.6v4.2h2V83h-2.6V78.4z"/>
		<path class="st57" d="M200.6,80.8h-1.8v1.7h2V83h-2.6v-4.7h2.5v0.5h-1.9v1.5h1.8V80.8z"/>
	</g>
	<g>
		<path class="st57" d="M174.4,90.7c-0.2,0.1-0.5,0.2-1,0.2c-1.1,0-1.9-0.7-1.9-1.9c0-1.2,0.8-2,2-2c0.5,0,0.8,0.1,0.9,0.2l-0.1,0.4
			c-0.2-0.1-0.5-0.2-0.8-0.2c-0.9,0-1.5,0.6-1.5,1.6c0,0.9,0.5,1.5,1.5,1.5c0.3,0,0.6-0.1,0.8-0.2L174.4,90.7z"/>
		<path class="st57" d="M175.7,89.6l-0.4,1.2h-0.5l1.3-3.8h0.6l1.3,3.8h-0.5l-0.4-1.2H175.7z M177,89.2l-0.4-1.1
			c-0.1-0.3-0.1-0.5-0.2-0.7h0c-0.1,0.2-0.1,0.5-0.2,0.7l-0.4,1.1H177z"/>
		<path class="st57" d="M178.9,87.4h-1.2V87h2.8v0.4h-1.2v3.4h-0.5V87.4z"/>
		<path class="st57" d="M183,89h-1.5v1.4h1.7v0.4H181V87h2.1v0.4h-1.6v1.2h1.5V89z"/>
		<path class="st57" d="M186.7,90.6c-0.2,0.1-0.7,0.2-1.2,0.2c-0.6,0-1.1-0.1-1.4-0.5c-0.3-0.3-0.5-0.8-0.5-1.4c0-1.1,0.8-2,2.1-2
			c0.4,0,0.8,0.1,1,0.2l-0.1,0.4c-0.2-0.1-0.5-0.2-0.8-0.2c-0.9,0-1.5,0.6-1.5,1.5c0,1,0.6,1.6,1.5,1.6c0.3,0,0.5,0,0.7-0.1v-1.1
			h-0.8v-0.4h1.3V90.6z"/>
		<path class="st57" d="M190.7,88.8c0,1.3-0.8,2-1.8,2c-1,0-1.7-0.8-1.7-2c0-1.2,0.8-2,1.8-2C190.1,86.9,190.7,87.7,190.7,88.8z
			 M187.8,88.9c0,0.8,0.4,1.6,1.2,1.6c0.8,0,1.2-0.7,1.2-1.6c0-0.8-0.4-1.6-1.2-1.6C188.2,87.3,187.8,88.1,187.8,88.9z"/>
		<path class="st57" d="M191.4,87c0.3-0.1,0.6-0.1,1-0.1c0.5,0,0.9,0.1,1.1,0.3c0.2,0.2,0.3,0.4,0.3,0.7c0,0.5-0.3,0.8-0.7,1v0
			c0.3,0.1,0.5,0.4,0.6,0.8c0.1,0.5,0.2,0.9,0.3,1.1h-0.5c-0.1-0.1-0.1-0.4-0.3-0.9c-0.1-0.5-0.3-0.7-0.8-0.7h-0.5v1.7h-0.5V87z
			 M191.9,88.8h0.5c0.5,0,0.9-0.3,0.9-0.7c0-0.5-0.4-0.7-0.9-0.7c-0.2,0-0.4,0-0.5,0V88.8z"/>
		<path class="st57" d="M195.3,90.8v-1.6L194,87h0.6l0.5,1.1c0.1,0.3,0.3,0.5,0.4,0.8h0c0.1-0.3,0.2-0.5,0.4-0.8l0.6-1.1h0.6
			l-1.3,2.2v1.6H195.3z"/>
	</g>
	<g>
		<path class="st57" d="M283.2,83v-4.7h0.7l1.5,2.4c0.3,0.5,0.6,1,0.8,1.5l0,0c-0.1-0.6-0.1-1.2-0.1-1.9v-2h0.6V83h-0.6l-1.5-2.4
			c-0.3-0.5-0.6-1.1-0.9-1.6l0,0c0,0.6,0,1.2,0,1.9v2H283.2z"/>
		<path class="st57" d="M290.1,80.8h-1.8v1.7h2V83h-2.6v-4.7h2.5v0.5h-1.9v1.5h1.8V80.8z"/>
		<path class="st57" d="M291.9,83l-1.2-4.7h0.6l0.6,2.4c0.1,0.6,0.3,1.2,0.3,1.6h0c0.1-0.5,0.2-1,0.4-1.6l0.6-2.4h0.6l0.6,2.4
			c0.1,0.6,0.3,1.1,0.3,1.6h0c0.1-0.5,0.2-1,0.4-1.6l0.6-2.4h0.6l-1.3,4.7h-0.6l-0.6-2.4c-0.1-0.6-0.2-1.1-0.3-1.5h0
			c-0.1,0.5-0.2,0.9-0.4,1.5l-0.7,2.4H291.9z"/>
		<path class="st57" d="M297,82.3c0.3,0.2,0.7,0.3,1.1,0.3c0.6,0,1-0.3,1-0.8c0-0.4-0.2-0.7-0.9-0.9c-0.8-0.3-1.2-0.7-1.2-1.3
			c0-0.7,0.6-1.3,1.5-1.3c0.5,0,0.8,0.1,1,0.2l-0.2,0.5c-0.2-0.1-0.5-0.2-0.9-0.2c-0.6,0-0.9,0.4-0.9,0.7c0,0.4,0.3,0.7,0.9,0.9
			c0.8,0.3,1.2,0.7,1.2,1.4c0,0.7-0.5,1.3-1.6,1.3c-0.5,0-0.9-0.1-1.2-0.3L297,82.3z"/>
		<path class="st57" d="M302.5,78.9h-1.4v-0.5h3.5v0.5h-1.4V83h-0.6V78.9z"/>
		<path class="st57" d="M305.7,78.4V83h-0.6v-4.7H305.7z"/>
		<path class="st57" d="M307.6,78.9h-1.4v-0.5h3.5v0.5h-1.4V83h-0.6V78.9z"/>
		<path class="st57" d="M310.2,78.4h0.6v4.2h2V83h-2.6V78.4z"/>
		<path class="st57" d="M315.8,80.8H314v1.7h2V83h-2.6v-4.7h2.5v0.5H314v1.5h1.8V80.8z"/>
	</g>
	<g>
		<path class="st57" d="M289.7,90.7c-0.2,0.1-0.5,0.2-1,0.2c-1.1,0-1.9-0.7-1.9-1.9c0-1.2,0.8-2,2-2c0.5,0,0.8,0.1,0.9,0.2l-0.1,0.4
			c-0.2-0.1-0.5-0.2-0.8-0.2c-0.9,0-1.5,0.6-1.5,1.6c0,0.9,0.5,1.5,1.5,1.5c0.3,0,0.6-0.1,0.8-0.2L289.7,90.7z"/>
		<path class="st57" d="M291,89.6l-0.4,1.2h-0.5l1.3-3.8h0.6l1.3,3.8h-0.5l-0.4-1.2H291z M292.3,89.2l-0.4-1.1
			c-0.1-0.3-0.1-0.5-0.2-0.7h0c-0.1,0.2-0.1,0.5-0.2,0.7l-0.4,1.1H292.3z"/>
		<path class="st57" d="M294.2,87.4H293V87h2.8v0.4h-1.2v3.4h-0.5V87.4z"/>
		<path class="st57" d="M298.2,89h-1.5v1.4h1.7v0.4h-2.2V87h2.1v0.4h-1.6v1.2h1.5V89z"/>
		<path class="st57" d="M302,90.6c-0.2,0.1-0.7,0.2-1.2,0.2c-0.6,0-1.1-0.1-1.4-0.5c-0.3-0.3-0.5-0.8-0.5-1.4c0-1.1,0.8-2,2.1-2
			c0.4,0,0.8,0.1,1,0.2l-0.1,0.4c-0.2-0.1-0.5-0.2-0.8-0.2c-0.9,0-1.5,0.6-1.5,1.5c0,1,0.6,1.6,1.5,1.6c0.3,0,0.5,0,0.7-0.1v-1.1
			h-0.8v-0.4h1.3V90.6z"/>
		<path class="st57" d="M306,88.8c0,1.3-0.8,2-1.8,2c-1,0-1.7-0.8-1.7-2c0-1.2,0.8-2,1.8-2C305.4,86.9,306,87.7,306,88.8z M303,88.9
			c0,0.8,0.4,1.6,1.2,1.6c0.8,0,1.2-0.7,1.2-1.6c0-0.8-0.4-1.6-1.2-1.6C303.5,87.3,303,88.1,303,88.9z"/>
		<path class="st57" d="M306.7,87c0.3-0.1,0.6-0.1,1-0.1c0.5,0,0.9,0.1,1.1,0.3c0.2,0.2,0.3,0.4,0.3,0.7c0,0.5-0.3,0.8-0.7,1v0
			c0.3,0.1,0.5,0.4,0.6,0.8c0.1,0.5,0.2,0.9,0.3,1.1h-0.5c-0.1-0.1-0.1-0.4-0.3-0.9c-0.1-0.5-0.3-0.7-0.8-0.7h-0.5v1.7h-0.5V87z
			 M307.2,88.8h0.5c0.5,0,0.9-0.3,0.9-0.7c0-0.5-0.4-0.7-0.9-0.7c-0.2,0-0.4,0-0.5,0V88.8z"/>
		<path class="st57" d="M310.5,90.8v-1.6l-1.2-2.2h0.6l0.5,1.1c0.1,0.3,0.3,0.5,0.4,0.8h0c0.1-0.3,0.2-0.5,0.4-0.8l0.6-1.1h0.6
			l-1.3,2.2v1.6H310.5z"/>
	</g>
	<g>
		<path class="st57" d="M60.8,173.5c-0.2,0.1-0.5,0.2-1,0.2c-1.1,0-1.9-0.7-1.9-1.9c0-1.2,0.8-2,2-2c0.5,0,0.8,0.1,0.9,0.2l-0.1,0.4
			c-0.2-0.1-0.5-0.2-0.8-0.2c-0.9,0-1.5,0.6-1.5,1.6c0,0.9,0.5,1.5,1.5,1.5c0.3,0,0.6-0.1,0.8-0.2L60.8,173.5z"/>
		<path class="st57" d="M62.1,172.4l-0.4,1.2h-0.5l1.3-3.8h0.6l1.3,3.8h-0.5l-0.4-1.2H62.1z M63.4,172l-0.4-1.1
			c-0.1-0.3-0.1-0.5-0.2-0.7h0c-0.1,0.2-0.1,0.5-0.2,0.7l-0.4,1.1H63.4z"/>
		<path class="st57" d="M65.3,170.2h-1.2v-0.4h2.8v0.4h-1.2v3.4h-0.5V170.2z"/>
		<path class="st57" d="M69.4,171.8h-1.5v1.4h1.7v0.4h-2.2v-3.8h2.1v0.4h-1.6v1.2h1.5V171.8z"/>
		<path class="st57" d="M73.1,173.4c-0.2,0.1-0.7,0.2-1.2,0.2c-0.6,0-1.1-0.1-1.4-0.5c-0.3-0.3-0.5-0.8-0.5-1.4c0-1.1,0.8-2,2.1-2
			c0.4,0,0.8,0.1,1,0.2l-0.1,0.4c-0.2-0.1-0.5-0.2-0.8-0.2c-0.9,0-1.5,0.6-1.5,1.5c0,1,0.6,1.6,1.5,1.6c0.3,0,0.5,0,0.7-0.1V172
			h-0.8v-0.4h1.3V173.4z"/>
		<path class="st57" d="M77.1,171.6c0,1.3-0.8,2-1.8,2c-1,0-1.7-0.8-1.7-2c0-1.2,0.8-2,1.8-2C76.5,169.7,77.1,170.5,77.1,171.6z
			 M74.2,171.7c0,0.8,0.4,1.6,1.2,1.6c0.8,0,1.2-0.7,1.2-1.6c0-0.8-0.4-1.6-1.2-1.6C74.6,170.1,74.2,170.9,74.2,171.7z"/>
		<path class="st57" d="M77.8,169.8c0.3-0.1,0.6-0.1,1-0.1c0.5,0,0.9,0.1,1.1,0.3c0.2,0.2,0.3,0.4,0.3,0.7c0,0.5-0.3,0.8-0.7,1v0
			c0.3,0.1,0.5,0.4,0.6,0.8c0.1,0.5,0.2,0.9,0.3,1.1h-0.5c-0.1-0.1-0.1-0.4-0.3-0.9c-0.1-0.5-0.3-0.7-0.8-0.7h-0.5v1.7h-0.5V169.8z
			 M78.3,171.6h0.5c0.5,0,0.9-0.3,0.9-0.7c0-0.5-0.4-0.7-0.9-0.7c-0.2,0-0.4,0-0.5,0V171.6z"/>
		<path class="st57" d="M81.6,173.6V172l-1.2-2.2H81l0.5,1.1c0.1,0.3,0.3,0.5,0.4,0.8h0c0.1-0.3,0.2-0.5,0.4-0.8l0.6-1.1h0.6
			l-1.3,2.2v1.6H81.6z"/>
	</g>
	<g>
		<path class="st57" d="M174.4,173.5c-0.2,0.1-0.5,0.2-1,0.2c-1.1,0-1.9-0.7-1.9-1.9c0-1.2,0.8-2,2-2c0.5,0,0.8,0.1,0.9,0.2
			l-0.1,0.4c-0.2-0.1-0.5-0.2-0.8-0.2c-0.9,0-1.5,0.6-1.5,1.6c0,0.9,0.5,1.5,1.5,1.5c0.3,0,0.6-0.1,0.8-0.2L174.4,173.5z"/>
		<path class="st57" d="M175.7,172.4l-0.4,1.2h-0.5l1.3-3.8h0.6l1.3,3.8h-0.5l-0.4-1.2H175.7z M177,172l-0.4-1.1
			c-0.1-0.3-0.1-0.5-0.2-0.7h0c-0.1,0.2-0.1,0.5-0.2,0.7l-0.4,1.1H177z"/>
		<path class="st57" d="M178.9,170.2h-1.2v-0.4h2.8v0.4h-1.2v3.4h-0.5V170.2z"/>
		<path class="st57" d="M183,171.8h-1.5v1.4h1.7v0.4H181v-3.8h2.1v0.4h-1.6v1.2h1.5V171.8z"/>
		<path class="st57" d="M186.7,173.4c-0.2,0.1-0.7,0.2-1.2,0.2c-0.6,0-1.1-0.1-1.4-0.5c-0.3-0.3-0.5-0.8-0.5-1.4c0-1.1,0.8-2,2.1-2
			c0.4,0,0.8,0.1,1,0.2l-0.1,0.4c-0.2-0.1-0.5-0.2-0.8-0.2c-0.9,0-1.5,0.6-1.5,1.5c0,1,0.6,1.6,1.5,1.6c0.3,0,0.5,0,0.7-0.1V172
			h-0.8v-0.4h1.3V173.4z"/>
		<path class="st57" d="M190.7,171.6c0,1.3-0.8,2-1.8,2c-1,0-1.7-0.8-1.7-2c0-1.2,0.8-2,1.8-2C190.1,169.7,190.7,170.5,190.7,171.6z
			 M187.8,171.7c0,0.8,0.4,1.6,1.2,1.6c0.8,0,1.2-0.7,1.2-1.6c0-0.8-0.4-1.6-1.2-1.6C188.2,170.1,187.8,170.9,187.8,171.7z"/>
		<path class="st57" d="M191.4,169.8c0.3-0.1,0.6-0.1,1-0.1c0.5,0,0.9,0.1,1.1,0.3c0.2,0.2,0.3,0.4,0.3,0.7c0,0.5-0.3,0.8-0.7,1v0
			c0.3,0.1,0.5,0.4,0.6,0.8c0.1,0.5,0.2,0.9,0.3,1.1h-0.5c-0.1-0.1-0.1-0.4-0.3-0.9c-0.1-0.5-0.3-0.7-0.8-0.7h-0.5v1.7h-0.5V169.8z
			 M191.9,171.6h0.5c0.5,0,0.9-0.3,0.9-0.7c0-0.5-0.4-0.7-0.9-0.7c-0.2,0-0.4,0-0.5,0V171.6z"/>
		<path class="st57" d="M195.3,173.6V172l-1.2-2.2h0.6l0.5,1.1c0.1,0.3,0.3,0.5,0.4,0.8h0c0.1-0.3,0.2-0.5,0.4-0.8l0.6-1.1h0.6
			l-1.3,2.2v1.6H195.3z"/>
	</g>
	<g>
		<path class="st57" d="M289.7,173.5c-0.2,0.1-0.5,0.2-1,0.2c-1.1,0-1.9-0.7-1.9-1.9c0-1.2,0.8-2,2-2c0.5,0,0.8,0.1,0.9,0.2
			l-0.1,0.4c-0.2-0.1-0.5-0.2-0.8-0.2c-0.9,0-1.5,0.6-1.5,1.6c0,0.9,0.5,1.5,1.5,1.5c0.3,0,0.6-0.1,0.8-0.2L289.7,173.5z"/>
		<path class="st57" d="M291,172.4l-0.4,1.2h-0.5l1.3-3.8h0.6l1.3,3.8h-0.5l-0.4-1.2H291z M292.3,172l-0.4-1.1
			c-0.1-0.3-0.1-0.5-0.2-0.7h0c-0.1,0.2-0.1,0.5-0.2,0.7l-0.4,1.1H292.3z"/>
		<path class="st57" d="M294.2,170.2H293v-0.4h2.8v0.4h-1.2v3.4h-0.5V170.2z"/>
		<path class="st57" d="M298.2,171.8h-1.5v1.4h1.7v0.4h-2.2v-3.8h2.1v0.4h-1.6v1.2h1.5V171.8z"/>
		<path class="st57" d="M302,173.4c-0.2,0.1-0.7,0.2-1.2,0.2c-0.6,0-1.1-0.1-1.4-0.5c-0.3-0.3-0.5-0.8-0.5-1.4c0-1.1,0.8-2,2.1-2
			c0.4,0,0.8,0.1,1,0.2l-0.1,0.4c-0.2-0.1-0.5-0.2-0.8-0.2c-0.9,0-1.5,0.6-1.5,1.5c0,1,0.6,1.6,1.5,1.6c0.3,0,0.5,0,0.7-0.1V172
			h-0.8v-0.4h1.3V173.4z"/>
		<path class="st57" d="M306,171.6c0,1.3-0.8,2-1.8,2c-1,0-1.7-0.8-1.7-2c0-1.2,0.8-2,1.8-2C305.4,169.7,306,170.5,306,171.6z
			 M303,171.7c0,0.8,0.4,1.6,1.2,1.6c0.8,0,1.2-0.7,1.2-1.6c0-0.8-0.4-1.6-1.2-1.6C303.5,170.1,303,170.9,303,171.7z"/>
		<path class="st57" d="M306.7,169.8c0.3-0.1,0.6-0.1,1-0.1c0.5,0,0.9,0.1,1.1,0.3c0.2,0.2,0.3,0.4,0.3,0.7c0,0.5-0.3,0.8-0.7,1v0
			c0.3,0.1,0.5,0.4,0.6,0.8c0.1,0.5,0.2,0.9,0.3,1.1h-0.5c-0.1-0.1-0.1-0.4-0.3-0.9c-0.1-0.5-0.3-0.7-0.8-0.7h-0.5v1.7h-0.5V169.8z
			 M307.2,171.6h0.5c0.5,0,0.9-0.3,0.9-0.7c0-0.5-0.4-0.7-0.9-0.7c-0.2,0-0.4,0-0.5,0V171.6z"/>
		<path class="st57" d="M310.5,173.6V172l-1.2-2.2h0.6l0.5,1.1c0.1,0.3,0.3,0.5,0.4,0.8h0c0.1-0.3,0.2-0.5,0.4-0.8l0.6-1.1h0.6
			L311,172v1.6H310.5z"/>
	</g>
	<g>
		<path class="st57" d="M54.3,165.8v-4.7h0.7l1.5,2.4c0.3,0.5,0.6,1,0.8,1.5l0,0c-0.1-0.6-0.1-1.2-0.1-1.9v-2h0.6v4.7h-0.6l-1.5-2.4
			c-0.3-0.5-0.6-1.1-0.9-1.6l0,0c0,0.6,0,1.1,0,1.9v2H54.3z"/>
		<path class="st57" d="M61.2,163.7h-1.8v1.7h2v0.5h-2.6v-4.7h2.5v0.5h-1.9v1.5h1.8V163.7z"/>
		<path class="st57" d="M63.1,165.8l-1.2-4.7h0.6l0.6,2.4c0.1,0.6,0.3,1.2,0.3,1.6h0c0.1-0.5,0.2-1,0.4-1.6l0.6-2.4h0.6l0.6,2.4
			c0.1,0.6,0.3,1.1,0.3,1.6h0c0.1-0.5,0.2-1,0.4-1.6l0.6-2.4h0.6l-1.3,4.7h-0.6l-0.6-2.4c-0.1-0.6-0.2-1.1-0.3-1.5h0
			c-0.1,0.5-0.2,0.9-0.4,1.5l-0.7,2.4H63.1z"/>
		<path class="st57" d="M68.1,165.1c0.3,0.2,0.7,0.3,1.1,0.3c0.6,0,1-0.3,1-0.8c0-0.4-0.2-0.7-0.9-0.9c-0.8-0.3-1.2-0.7-1.2-1.3
			c0-0.7,0.6-1.3,1.5-1.3c0.5,0,0.8,0.1,1,0.2l-0.2,0.5c-0.2-0.1-0.5-0.2-0.9-0.2c-0.6,0-0.9,0.4-0.9,0.7c0,0.4,0.3,0.7,0.9,0.9
			c0.8,0.3,1.2,0.7,1.2,1.4c0,0.7-0.5,1.3-1.6,1.3c-0.5,0-0.9-0.1-1.2-0.3L68.1,165.1z"/>
		<path class="st57" d="M73.6,161.7h-1.4v-0.5h3.5v0.5h-1.4v4.2h-0.6V161.7z"/>
		<path class="st57" d="M76.8,161.2v4.7h-0.6v-4.7H76.8z"/>
		<path class="st57" d="M78.7,161.7h-1.4v-0.5h3.5v0.5h-1.4v4.2h-0.6V161.7z"/>
		<path class="st57" d="M81.3,161.2h0.6v4.2h2v0.5h-2.6V161.2z"/>
		<path class="st57" d="M87,163.7h-1.8v1.7h2v0.5h-2.6v-4.7h2.5v0.5h-1.9v1.5H87V163.7z"/>
	</g>
	<g>
		<path class="st57" d="M167.9,165.8v-4.7h0.7l1.5,2.4c0.3,0.5,0.6,1,0.8,1.5l0,0c-0.1-0.6-0.1-1.2-0.1-1.9v-2h0.6v4.7h-0.6
			l-1.5-2.4c-0.3-0.5-0.6-1.1-0.9-1.6l0,0c0,0.6,0,1.1,0,1.9v2H167.9z"/>
		<path class="st57" d="M174.8,163.7H173v1.7h2v0.5h-2.6v-4.7h2.5v0.5H173v1.5h1.8V163.7z"/>
		<path class="st57" d="M176.7,165.8l-1.2-4.7h0.6l0.6,2.4c0.1,0.6,0.3,1.2,0.3,1.6h0c0.1-0.5,0.2-1,0.4-1.6l0.6-2.4h0.6l0.6,2.4
			c0.1,0.6,0.3,1.1,0.3,1.6h0c0.1-0.5,0.2-1,0.4-1.6l0.6-2.4h0.6l-1.3,4.7h-0.6l-0.6-2.4c-0.1-0.6-0.2-1.1-0.3-1.5h0
			c-0.1,0.5-0.2,0.9-0.4,1.5l-0.7,2.4H176.7z"/>
		<path class="st57" d="M181.7,165.1c0.3,0.2,0.7,0.3,1.1,0.3c0.6,0,1-0.3,1-0.8c0-0.4-0.2-0.7-0.9-0.9c-0.8-0.3-1.2-0.7-1.2-1.3
			c0-0.7,0.6-1.3,1.5-1.3c0.5,0,0.8,0.1,1,0.2l-0.2,0.5c-0.2-0.1-0.5-0.2-0.9-0.2c-0.6,0-0.9,0.4-0.9,0.7c0,0.4,0.3,0.7,0.9,0.9
			c0.8,0.3,1.2,0.7,1.2,1.4c0,0.7-0.5,1.3-1.6,1.3c-0.5,0-0.9-0.1-1.2-0.3L181.7,165.1z"/>
		<path class="st57" d="M187.2,161.7h-1.4v-0.5h3.5v0.5h-1.4v4.2h-0.6V161.7z"/>
		<path class="st57" d="M190.4,161.2v4.7h-0.6v-4.7H190.4z"/>
		<path class="st57" d="M192.3,161.7h-1.4v-0.5h3.5v0.5h-1.4v4.2h-0.6V161.7z"/>
		<path class="st57" d="M194.9,161.2h0.6v4.2h2v0.5h-2.6V161.2z"/>
		<path class="st57" d="M200.6,163.7h-1.8v1.7h2v0.5h-2.6v-4.7h2.5v0.5h-1.9v1.5h1.8V163.7z"/>
	</g>
	<g>
		<path class="st57" d="M283.2,165.8v-4.7h0.7l1.5,2.4c0.3,0.5,0.6,1,0.8,1.5l0,0c-0.1-0.6-0.1-1.2-0.1-1.9v-2h0.6v4.7h-0.6
			l-1.5-2.4c-0.3-0.5-0.6-1.1-0.9-1.6l0,0c0,0.6,0,1.1,0,1.9v2H283.2z"/>
		<path class="st57" d="M290.1,163.7h-1.8v1.7h2v0.5h-2.6v-4.7h2.5v0.5h-1.9v1.5h1.8V163.7z"/>
		<path class="st57" d="M291.9,165.8l-1.2-4.7h0.6l0.6,2.4c0.1,0.6,0.3,1.2,0.3,1.6h0c0.1-0.5,0.2-1,0.4-1.6l0.6-2.4h0.6l0.6,2.4
			c0.1,0.6,0.3,1.1,0.3,1.6h0c0.1-0.5,0.2-1,0.4-1.6l0.6-2.4h0.6l-1.3,4.7h-0.6l-0.6-2.4c-0.1-0.6-0.2-1.1-0.3-1.5h0
			c-0.1,0.5-0.2,0.9-0.4,1.5l-0.7,2.4H291.9z"/>
		<path class="st57" d="M297,165.1c0.3,0.2,0.7,0.3,1.1,0.3c0.6,0,1-0.3,1-0.8c0-0.4-0.2-0.7-0.9-0.9c-0.8-0.3-1.2-0.7-1.2-1.3
			c0-0.7,0.6-1.3,1.5-1.3c0.5,0,0.8,0.1,1,0.2l-0.2,0.5c-0.2-0.1-0.5-0.2-0.9-0.2c-0.6,0-0.9,0.4-0.9,0.7c0,0.4,0.3,0.7,0.9,0.9
			c0.8,0.3,1.2,0.7,1.2,1.4c0,0.7-0.5,1.3-1.6,1.3c-0.5,0-0.9-0.1-1.2-0.3L297,165.1z"/>
		<path class="st57" d="M302.5,161.7h-1.4v-0.5h3.5v0.5h-1.4v4.2h-0.6V161.7z"/>
		<path class="st57" d="M305.7,161.2v4.7h-0.6v-4.7H305.7z"/>
		<path class="st57" d="M307.6,161.7h-1.4v-0.5h3.5v0.5h-1.4v4.2h-0.6V161.7z"/>
		<path class="st57" d="M310.2,161.2h0.6v4.2h2v0.5h-2.6V161.2z"/>
		<path class="st57" d="M315.8,163.7H314v1.7h2v0.5h-2.6v-4.7h2.5v0.5H314v1.5h1.8V163.7z"/>
	</g>
</g>
</svg>
