<svg class="preview-svg" width="300" height="300" viewBox="0 0 400 400" xmlns="http://www.w3.org/2000/svg" version="1.1" style="border-radius: 4%;background-color: #859594;">             <g id="iconBackground" transform="translate(0 0)">                 <rect width="400" height="400" fill="#859594" rx="0"/>             </g>             <g id="iconFrame" transform="translate(6 6)" style="color: #ffffff;stroke-width: 4px;"><svg width="400" height="400" viewBox="0 0 400 400" version="1.1" xmlns="http://www.w3.org/2000/svg"><g transform="translate(74 44)"><rect id="frame-rect" width="240" height="300" rx="20" transform="translate(0.606)" fill="none" stroke="currentColor" stroke-miterlimit="10"></rect><line id="frame-line" x2="240" transform="translate(0 200)" fill="none" stroke="currentColor" stroke-linecap="butt" stroke-linejoin="round"></line></g></svg></g>             <g id="iconIcon" transform="translate(120 65)" style="color: #ffffff"><svg xmlns="http://www.w3.org/2000/svg" viewBox="0 0 659.22 649.53" width="160" height="160">     <path fill="currentColor"           d="M205,58.51c-51.36-6.59-100,14.41-107.63,69.8-7.31,52.91,15,97.87,71.67,104.92,50.4,6.27,96.88-6.85,109.37-61.44,11.33-49.58-25.72-95.09-69.85-111-22.74-8.21-32.44,27.94-9.94,36.07s36.76,25,42.88,47.79c10.16,37.77-21.76,53-52.41,53-17.31,0-33.77-4-47-15.57s-9.54-37.62-7.39-53.16C139.55,94.2,177.92,92.44,205,95.92,228.9,99,228.6,61.54,205,58.51Z"/>     <path fill="currentColor"           d="M392.57,93.32c28.77,2.15,54,9.58,57.38,42.53,3.12,30.53-18.76,64.44-49.92,65.76-26.68,1.13-38.57-7.33-51.92-29.25-17.79-29.23.57-83.88,40.57-77.54,23.59,3.75,33.71-32.29,9.94-36.06C343.21,50,308,92.12,304.05,144.31c-2.06,27.31,13.05,51.42,29.05,72,14.77,18.95,36,20.36,58.46,22.42,52.59,4.81,94.42-41.71,95.58-93.28,1.34-59.77-40.07-85.44-94.57-89.5-24.07-1.8-23.9,35.62,0,37.4Z"/>     <path fill="currentColor"           d="M153.58,303.57l175.48-2.15c44-.54,62-1.79,63.52,47.68.73,24,11.29,121.33-27.78,125.29-63.87,6.48-132.08-.4-196.32-.59-53.56-.17-40.19-59.92-39.84-89.24.39-32.24-13.44-79.14,28.72-80.12,24.08-.57,24.14-38,0-37.41-26.33.62-55.72-6.24-64.38,23.5-6,20.52-1.22,50.39-1.47,71.77-.39,31.74-2.73,63.94,1.19,95.49,3.9,31.32,26.2,46.63,55,52.18C208.63,521.7,281,511.54,343,511.73c31,.09,71.59-1.12,80.55-39.57,11.71-50.27,14.72-119.59,4.18-170.12C422,274.57,395.42,264.28,368.47,264c-71.59-.85-143.3,1.34-214.89,2.22-24.1.29-24.13,37.7,0,37.4Z"/>     <path fill="currentColor"           d="M431.5,334c21-19.83,43.68-31.21,71.69-37.21l-23.67-18q7.28,105.12,6,210.41l18.7-18.7c-12.92-.61-24.58-11.79-35.14-18-13.64-8-30.88-12.09-45.84-16.45-23.21-6.76-33.05,29.34-9.94,36.07,31.62,9.21,58.28,34.25,90.92,35.79,10.28.49,18.58-8.87,18.7-18.7q1.32-105.36-6-210.41c-.87-12.55-11.23-20.7-23.67-18-34.54,7.4-62.6,22.65-88.2,46.84-17.57,16.59,8.93,43,26.45,26.44Z"/> </svg></g>             <g id="iconText" transform="translate(0 300)" style="color: #ffffff;font-size: 60px;font-family: arial;text-transform: uppercase;">                 <text id="iconText" x="200" y="0" fill="currentColor" dominant-baseline="middle" text-anchor="middle">3gp</text>             </g>         </svg>