<svg class="preview-svg" width="300" height="300" viewBox="0 0 400 400" xmlns="http://www.w3.org/2000/svg" version="1.1" style="border-radius: 4%;background-color: #4F73BA;">             <g id="iconBackground" transform="translate(0 0)">                 <rect width="400" height="400" fill="#4F73BA" rx="0"/>             </g>             <g id="iconFrame" transform="translate(6 6)" style="color: #ffffff;stroke-width: 4px;"><svg width="400" height="400" viewBox="0 0 400 400" version="1.1" xmlns="http://www.w3.org/2000/svg"><g transform="translate(74 44)"><rect id="frame-rect" width="240" height="300" rx="20" transform="translate(0.606)" fill="none" stroke="currentColor" stroke-miterlimit="10"></rect><line id="frame-line" x2="240" transform="translate(0 200)" fill="none" stroke="currentColor" stroke-linecap="butt" stroke-linejoin="round"></line></g></svg></g>             <g id="iconIcon" transform="translate(120 65)" style="color: #ffffff"><svg xmlns="http://www.w3.org/2000/svg" viewBox="0 0 659 650" width="160" height="160">     <path fill="currentColor"           d="M243 171l200-85c3-1 6 1 6 4v441c0 4-3 5-6 4l-200-85a10 10 0 01-6-9V180a10 10 0 016-9zm20 13l161-68c3-1 5 0 5 4v382c0 3-2 5-5 4l-161-69a10 10 0 01-6-8V193a10 10 0 016-9zM199 399a10 10 0 010 19h-61a6 6 0 01-7-6V210a6 6 0 017-7h61a10 10 0 110 20h-42a6 6 0 00-6 6v163a6 6 0 006 7zM487 262a10 10 0 110-19 68 68 0 110 136 10 10 0 01-6-17 10 10 0 016-3 48 48 0 100-97z"/> </svg></g>             <g id="iconText" transform="translate(0 300)" style="color: #ffffff;font-size: 60px;font-family: arial;text-transform: uppercase;">                 <text id="iconText" x="200" y="0" fill="currentColor" dominant-baseline="middle" text-anchor="middle">asf</text>             </g>         </svg>