<svg class="preview-svg" width="300" height="300" viewBox="0 0 400 400" xmlns="http://www.w3.org/2000/svg" version="1.1" style="border-radius: 4%;background-color: #464D6E;">             <g id="iconBackground" transform="translate(0 0)">                 <rect width="400" height="400" fill="#464D6E" rx="0"/>             </g>             <g id="iconFrame" transform="translate(6 6)" style="color: #ffffff;stroke-width: 4px;"><svg width="400" height="400" viewBox="0 0 400 400" version="1.1" xmlns="http://www.w3.org/2000/svg"><g transform="translate(74 44)"><rect id="frame-rect" width="240" height="300" rx="20" transform="translate(0.606)" fill="none" stroke="currentColor" stroke-miterlimit="10"></rect><line id="frame-line" x2="240" transform="translate(0 200)" fill="none" stroke="currentColor" stroke-linecap="butt" stroke-linejoin="round"></line></g></svg></g>             <g id="iconIcon" transform="translate(120 65)" style="color: #ffffff"><svg xmlns="http://www.w3.org/2000/svg" viewBox="0 0 659.22 649.53" width="160" height="160"><defs><style>.cls-1{fill:#231f20;}</style></defs><title>CSV </title><path fill="currentColor" d="M179.54,223.48,145.9,173.16h32.62L196.65,202l18.29-28.82h31.89l-33.65,50,35.11,52.36H215.67l-19.6-30.86-19.75,30.86H144.44Z"/><path fill="currentColor" d="M561.07,157.24v54.29H436.55V157.24Z"/><path fill="currentColor" d="M561.09,241.76v53.95H436.58V241.76Z"/><path fill="currentColor" d="M282.51,211.61V157.52H405.85v54.09Z"/><path fill="currentColor" d="M282.54,295.54V242.25H406.32v53.29Z"/><path fill="currentColor" d="M251.7,328.29v51.36H127.22V328.29Z"/><path fill="currentColor" d="M435.83,379.67V328.36H560.36v51.31Z"/><path fill="currentColor" d="M126.6,465.38V413.83H251.17v51.55Z"/><path fill="currentColor" d="M561.12,414.22v50.84H436.77V414.22Z"/><path fill="currentColor" d="M282.56,379.25v-51H406.32v51Z"/><path fill="currentColor" d="M283.7,413.35H405.83v52H283.7Z"/></svg></g>             <g id="iconText" transform="translate(0 300)" style="color: #ffffff;font-size: 60px;font-family: arial;text-transform: uppercase;">                 <text id="iconText" x="200" y="0" fill="currentColor" dominant-baseline="middle" text-anchor="middle">csv</text>             </g>         </svg>