<svg class="preview-svg" width="300" height="300" viewBox="0 0 400 400" xmlns="http://www.w3.org/2000/svg" version="1.1" style="border-radius: 4%;background-color: #7E8BD0;">             <g id="iconBackground" transform="translate(0 0)">                 <rect width="400" height="400" fill="#7E8BD0" rx="0"/>             </g>             <g id="iconFrame" transform="translate(6 6)" style="color: #ffffff;stroke-width: 4px;"><svg width="400" height="400" viewBox="0 0 400 400" version="1.1" xmlns="http://www.w3.org/2000/svg"><g transform="translate(74 44)"><rect id="frame-rect" width="240" height="300" rx="20" transform="translate(0.606)" fill="none" stroke="currentColor" stroke-miterlimit="10"></rect><line id="frame-line" x2="240" transform="translate(0 200)" fill="none" stroke="currentColor" stroke-linecap="butt" stroke-linejoin="round"></line></g></svg></g>             <g id="iconIcon" transform="translate(120 65)" style="color: #ffffff"><svg xmlns="http://www.w3.org/2000/svg" viewBox="0 0 659.22 649.53" width="160" height="160"><path fill="currentColor" d="M77.39,508.63V227.77c.46-1.66.85-3.34,1.39-5,3.72-11.1,13.54-17.9,25.94-17.9q58.36,0,116.72,0a3.65,3.65,0,0,0,3.81-2.23q9-17.42,18.31-34.7A107.83,107.83,0,0,1,249.49,158c3.41-5,8.23-7.33,14.4-7.32q67.74.09,135.48,0A19.16,19.16,0,0,1,413,156.05c4.83,4.52,8.11,10.13,11.15,15.9,5.41,10.27,10.83,20.53,16.14,30.86a3.41,3.41,0,0,0,3.58,2.12q32.7-.09,65.4,0c17.36,0,34.73,0,52.1,0,15,.07,26.64,11.37,26.65,25.91q0,137.18,0,274.35a25.94,25.94,0,0,1-17.25,24.29c-1.68.6-3.42,1-5.13,1.58H99.8a8.87,8.87,0,0,0-1.38-.52Q83.77,527.15,78.71,513C78.2,511.57,77.83,510.09,77.39,508.63ZM335.28,490h201.9c2.17,0,4.34,0,6.51-.08,3.27-.18,4.71-1.54,5.11-4.75a24.91,24.91,0,0,0,.08-3.12V370.28q0-57.7,0-115.41c0-7.47-3.69-11.89-11-13.12a29.82,29.82,0,0,0-4.91-.37c-35.17,0-70.34-.15-105.51.1-6.41.05-11.08-2.2-14.17-7.34-3.87-6.44-7.24-13.19-10.7-19.87-3.18-6.14-6.11-12.41-9.33-18.53-1.52-2.89-4-4.06-7.49-4q-52.89.18-105.77,0a8.18,8.18,0,0,0-7.56,4,45.09,45.09,0,0,0-2.77,4.69c-2.5,5.14-4.71,10.43-7.39,15.47-3.5,6.55-7.09,13.09-11.12,19.32-2.82,4.36-7.12,6.29-12.65,6.26-36.82-.16-73.64-.05-110.45-.12-4.66,0-7.94,2.08-9.81,6a18.68,18.68,0,0,0-1.68,7.74q-.12,110.71-.06,221.43c0,.7,0,1.39,0,2.08a11.66,11.66,0,0,0,8.34,10.8,22,22,0,0,0,5.91.59Q233,490,335.28,490Z"/><path fill="currentColor" d="M251.36,367.71c.12-45.13,36.71-81.63,81.64-81.46s81.62,36.94,81.47,81.79a81.56,81.56,0,0,1-163.11-.33Zm27.09.25a54.27,54.27,0,1,0,54.34-54.36A54.1,54.1,0,0,0,278.45,368Z"/></svg></g>             <g id="iconText" transform="translate(0 300)" style="color: #ffffff;font-size: 60px;font-family: arial;text-transform: uppercase;">                 <text id="iconText" x="200" y="0" fill="currentColor" dominant-baseline="middle" text-anchor="middle">exif</text>             </g>         </svg>