<svg class="preview-svg" width="300" height="300" viewBox="0 0 400 400" xmlns="http://www.w3.org/2000/svg" version="1.1" style="border-radius: 4%;background-color: #BAAFA9;">             <g id="iconBackground" transform="translate(0 0)">                 <rect width="400" height="400" fill="#BAAFA9" rx="0"/>             </g>             <g id="iconFrame" transform="translate(6 6)" style="color: #ffffff;stroke-width: 4px;"><svg width="400" height="400" viewBox="0 0 400 400" version="1.1" xmlns="http://www.w3.org/2000/svg"><g transform="translate(74 44)"><rect id="frame-rect" width="240" height="300" rx="20" transform="translate(0.606)" fill="none" stroke="currentColor" stroke-miterlimit="10"></rect><line id="frame-line" x2="240" transform="translate(0 200)" fill="none" stroke="currentColor" stroke-linecap="butt" stroke-linejoin="round"></line></g></svg></g>             <g id="iconIcon" transform="translate(120 65)" style="color: #ffffff"><svg xmlns="http://www.w3.org/2000/svg" viewBox="0 0 659.22 649.53" width="160" height="160"><path fill="currentColor" d="M197.78,235.42c-6.88,38.94-14.37,77.78-20.36,116.85-2.68,17.47-10.12,24.7-28.29,23.92-26.15-1.11-52.46,1.12-78.56-.42-7.69-.46-14.91-8.85-22.35-13.6,7.68-5.59,14.85-14.85,23.14-16,18.26-2.55,37.13-1.71,55.68-.91,14.28.63,20.72-3.59,23.16-19q16.47-103.74,35.84-207c1.85-9.82,11.14-18.24,17-27.3,6.15,8.66,16.64,16.81,17.75,26.08,9.44,78.8,17,157.82,25.55,236.72a467.05,467.05,0,0,0,13.62,74c2.28-20,4-40.13,7-60,3.27-21.71,11.18-38.77,38.36-38,5.94.17,13.69-7.38,17.86-13.31,9.64-13.72,16.08-29.87,26.63-42.73,13.21-16.11,26.1-13.75,34.81,5.21,4.5,9.81,4.77,21.6,9.43,31.31,5.06,10.56,13.79,19.31,19.42,29.66,4.53,8.34,6.83,17.88,10.36,27.52-36,5.73-41.27,1.18-63.95-51.95-4.64,9.68-9.26,17.66-12.36,26.2-5.17,14.26-13.39,23.4-29.83,21.31-15.77-2-20.65,6.11-21.14,20.54-1.27,38-2.53,76-5.57,113.82-.82,10.1-8,19.7-12.3,29.52-9.07-6.43-23.25-11-26.31-19.62C240,473.55,227.65,438.2,221.67,402c-8.52-51.54-11.42-104-16.8-156.06-.39-3.77-1.49-7.46-2.26-11.18Z"/><path fill="currentColor" d="M568.8,365.22V305c-34.8,12.43-67.83,23.43-100,36.55-4.81,2-7.66,13.82-7.85,21.18-.92,35.49.29,71-1.07,106.49-.85,21.88-19.85,37.89-40.39,37.3-21.4-.61-40.5-19.93-40.65-41.11-.14-20.71,15.86-38.14,37.7-40.59,5.63-.63,11.38-.09,18.64-.09,0-37.58.8-73.9-.34-110.15-.56-18,5.18-27.75,22.84-33.44,36.89-11.88,73.35-25.22,109.62-38.93,18.21-6.88,27.7-3.54,27.63,17.39-.16,48.19,1.83,96.51-1.3,144.49-.9,13.88-13.44,32.63-25.71,38.45-10.81,5.13-32.73-.31-42.27-9.15-8.68-8-12.26-28.07-9.32-40.78C522,368,544.35,364,568.8,365.22Z"/></svg></g>             <g id="iconText" transform="translate(0 300)" style="color: #ffffff;font-size: 60px;font-family: arial;text-transform: uppercase;">                 <text id="iconText" x="200" y="0" fill="currentColor" dominant-baseline="middle" text-anchor="middle">flac</text>             </g>         </svg>