<svg class="preview-svg" width="300" height="300" viewBox="0 0 400 400" xmlns="http://www.w3.org/2000/svg" version="1.1" style="border-radius: 4%;background-color: #F6B701;">             <g id="iconBackground" transform="translate(0 0)">                 <rect width="400" height="400" fill="#F6B701" rx="0"/>             </g>             <g id="iconFrame" transform="translate(6 6)" style="color: #ffffff;stroke-width: 4px;"><svg width="400" height="400" viewBox="0 0 400 400" version="1.1" xmlns="http://www.w3.org/2000/svg"><g transform="translate(74 44)"><rect id="frame-rect" width="240" height="300" rx="20" transform="translate(0.606)" fill="none" stroke="currentColor" stroke-miterlimit="10"></rect><line id="frame-line" x2="240" transform="translate(0 200)" fill="none" stroke="currentColor" stroke-linecap="butt" stroke-linejoin="round"></line></g></svg></g>             <g id="iconIcon" transform="translate(120 65)" style="color: #ffffff"><svg xmlns="http://www.w3.org/2000/svg" viewBox="0 0 659.22 649.53" width="160" height="160"><path fill="currentColor" d="M296.29,93.17c-15.26,0-28.88,0-42.5,0-14.07,0-21.27-6.61-21.18-21.15.09-13.91,5.88-21.92,20.49-21.93,28.69,0,57.37,0,87.83,0V93.75c15.76,0,29.82.06,43.87,0,15.26-.09,22.34,7.27,22.08,22.65-.24,14.8-8.1,20.51-21.88,20.43-13.56-.07-27.13,0-42.07,0v44c14.35,0,27.81.09,41.26,0,14.95-.14,22.7,6.44,22.75,22.08.05,16.47-9.25,21.06-23.59,20.82-12.87-.22-25.74-.05-40.19-.05v44.86c12.8,0,25.48.13,38.16,0,14.52-.19,25.63,2.67,25.7,21,.07,17.95-9.93,21.9-25.08,21.35-12.17-.45-24.38-.09-38.38-.09v45.57c12.17,0,24.21.3,36.24-.07,15.23-.46,27.38,1.55,27.21,21.39-.17,20.34-13.47,20.79-28,20.63-11.43-.13-22.86,0-35.83,0v45.28c13.1,0,26.49.23,39.87-.06,14.23-.3,23.76,3.79,23.92,20.41.16,17.32-9.21,22.57-24.66,22.31-18-.3-36,0-54.07-.07-26.81-.16-29.85-3.16-30.43-29.47-.08-3.56,0-7.12,0-14.77-14.93,0-28.93-.14-42.93,0-15.14.2-22.57-6.45-22.26-22.19.29-15.19,8.41-20.09,22.13-19.83,13.52.25,27,.05,41.9.05V354.42c-14.42,0-28.58,0-42.75,0-14,.06-21.3-5.91-21.36-20.77s7-21,21.07-21,28.39,0,43.09,0V267.25c-14.75,0-28.28-.21-41.8.06-13.7.27-21.93-4.64-22.29-19.75C232.21,232,239.6,225,254.7,225c13.52,0,27,0,41.81,0v-44.7c-13.6,0-26.39-.33-39.16.09-15.41.5-24.89-4.42-24.82-21.88.07-17.92,10.71-21.64,25.52-21.39,12.19.21,24.39,0,38.24,0Z"/><path fill="currentColor" d="M404.38,514.38c1.12,2,1.74,2.56,1.75,3.15,1.29,79.77,8.94,68.46-62.76,69.33-29.45.36-58.92-.27-88.38-.06-15.14.11-22.69-6.42-22.4-21.95.31-16.38.07-32.78.07-50.47Z"/></svg></g>             <g id="iconText" transform="translate(0 300)" style="color: #ffffff;font-size: 60px;font-family: arial;text-transform: uppercase;">                 <text id="iconText" x="200" y="0" fill="currentColor" dominant-baseline="middle" text-anchor="middle">gz</text>             </g>         </svg>