<svg class="preview-svg" width="300" height="300" viewBox="0 0 400 400" xmlns="http://www.w3.org/2000/svg" version="1.1" style="border-radius: 4%;background-color: #7E8BD0;">             <g id="iconBackground" transform="translate(0 0)">                 <rect width="400" height="400" fill="#7E8BD0" rx="0"/>             </g>             <g id="iconFrame" transform="translate(6 6)" style="color: #ffffff;stroke-width: 4px;"><svg width="400" height="400" viewBox="0 0 400 400" version="1.1" xmlns="http://www.w3.org/2000/svg"><g transform="translate(74 44)"><rect id="frame-rect" width="240" height="300" rx="20" transform="translate(0.606)" fill="none" stroke="currentColor" stroke-miterlimit="10"></rect><line id="frame-line" x2="240" transform="translate(0 200)" fill="none" stroke="currentColor" stroke-linecap="butt" stroke-linejoin="round"></line></g></svg></g>             <g id="iconIcon" transform="translate(120 65)" style="color: #ffffff"><svg xmlns="http://www.w3.org/2000/svg" viewBox="0 0 659.22 649.53" width="160" height="160"><title>ICO </title><path fill="currentColor" d="M294.27,305.51,362,214.6q15.23-20.43,30.45-40.87c14.91-19.92,39.36-20.21,54.47-.53q62.55,81.44,125,163a37.55,37.55,0,0,1,7.94,23.65q-.12,71.24,0,142.48a34.22,34.22,0,0,1-34.28,34.21H383.06c-8.4,0-13.89-4.54-14.6-11.91-.75-7.72,5.43-13.92,14.05-13.93q50.49,0,101,0,31.74,0,63.49,0c6.19,0,7-.76,7-6.9q0-72.24-.11-144.48a13.61,13.61,0,0,0-2.67-7.63Q489,270.22,426.72,188.91c-4.46-5.85-9.37-5.73-13.73.17-31.63,42.89-63.57,85.56-95.4,128.3-.89,1.2-1.73,2.43-2.8,3.93,5.75,4.4,11.44,8.73,17.1,13.09,7.25,5.6,8.72,13.25,3.79,19.49-4.68,5.92-12.41,6.37-19.51.95q-47.46-36.21-94.82-72.58c-4-3.11-6.8-3.3-10.67.35-25.21,23.79-50.65,47.32-75.86,71.11a10.57,10.57,0,0,0-2.87,6.86c-.26,15.32-.12,30.66-.15,46,0,8.71-5.27,14.73-12.83,14.8s-13-6-13-14.63c0-15.66-.08-31.32,0-47,.07-9,3.11-17.21,9.66-23.39q39.42-37.26,79.28-74c10.46-9.62,29.4-10,40.89-1.3,18.21,13.74,36.29,27.67,54.42,41.52C291.42,303.45,292.64,304.31,294.27,305.51Z"/><path fill="currentColor" d="M343.26,62.66H538.72c23.11,0,41.08,18,41.09,41.13q0,87.48,0,175c0,10.56-8.32,17.05-17.4,13.7-5.46-2-8.44-6.85-8.44-13.9q0-52,0-104,0-36.24,0-72.48c0-10-3.51-13.56-13.48-13.56q-197.46,0-394.91,0c-10.33,0-13.74,3.43-13.74,13.82q0,87,0,174a39.69,39.69,0,0,1-.15,6c-1,6.46-7.18,11.47-13.43,11.06A13.08,13.08,0,0,1,106,280c-.08-24.83,0-49.65,0-74.48q0-51,0-102a40.6,40.6,0,0,1,40.85-40.87Q245,62.63,343.26,62.66Z"/><path fill="currentColor" d="M266.14,485c0-5.49-.59-11.06.11-16.46,2.51-19.33,20.53-34.83,40.18-34.73,6.45,0,13.13-.14,19.31,1.37,17.59,4.32,30.17,21.19,30,39.41-.06,10,.64,20.11-1,29.83-3.14,18.47-20.51,32-39.17,32.05-5.31,0-10.74.41-15.93-.49A40.85,40.85,0,0,1,266,495.52V485Zm63.79.41h0c0-4.66.08-9.33,0-14-.16-7.37-3.55-11.24-10.81-11.72a124,124,0,0,0-16.47,0c-7.11.46-10.66,4.23-10.78,11.22q-.24,14.24,0,28.48c.12,7,3.84,10.87,10.76,11.15,5.49.22,11,.22,16.48,0,6.91-.28,10.54-4.09,10.78-11.15C330.06,494.77,329.93,490.1,329.93,485.44Z"/><path fill="currentColor" d="M227.69,165.24c-.1-22.94,21.4-44.66,44.38-44.84,23.21-.18,45,21.22,45.35,44.5.33,22.79-21.7,45-44.76,45.23S227.8,188.49,227.69,165.24Zm44.8-19.05c-12.45,0-19.07,6.66-19,19.15.07,12.23,6.62,18.87,18.77,19s19.33-6.9,19.41-19.05C291.75,153,284.93,146.2,272.49,146.19Z"/><path fill="currentColor" d="M151.1,459.57v51.1c2.08,0,4.16-.07,6.23,0,7.31.3,12.65,5.65,12.72,12.7a12.58,12.58,0,0,1-12.82,13.08q-19.23.25-38.48,0A12.83,12.83,0,0,1,106,523.74a13,13,0,0,1,12.49-13.05c2-.12,4,0,6.28,0v-51.1c-1.84,0-3.62,0-5.39,0-7.47-.13-12.94-5.07-13.36-12.06-.42-6.81,4.74-13.32,11.91-13.54,13.48-.42,27-.45,40.47,0,7.34.25,12,6.4,11.65,13.63-.34,7-5.71,11.84-13.33,11.95C155,459.59,153.35,459.57,151.1,459.57Z"/><path fill="currentColor" d="M183.11,484.88c0-5.82-.7-11.75.13-17.45,2.66-18.3,20.68-33.52,39.17-33.64,5.66,0,11.32-.1,17,0,8.24.15,14.09,5.71,14,13.12s-5.84,12.62-14.28,12.65c-6.16,0-12.33-.14-18.48.06-8.2.27-11.8,4-11.89,12.14-.11,9.15-.13,18.31,0,27.46.14,7.63,3.82,11.23,11.48,11.39,6.49.13,13,0,19.48.05,7.84.1,13.64,5.64,13.66,12.9s-5.79,12.81-13.62,12.93c-5.32.08-10.67-.24-16,.06-22.21,1.26-42.65-20.86-40.93-40.69.31-3.64,0-7.33,0-11Z"/></svg></g>             <g id="iconText" transform="translate(0 300)" style="color: #ffffff;font-size: 60px;font-family: arial;text-transform: uppercase;">                 <text id="iconText" x="200" y="0" fill="currentColor" dominant-baseline="middle" text-anchor="middle">ico</text>             </g>         </svg>