<svg class="preview-svg" width="300" height="300" viewBox="0 0 400 400" xmlns="http://www.w3.org/2000/svg" version="1.1" style="border-radius: 4%;background-color: #EF3C54;">             <g id="iconBackground" transform="translate(0 0)">                 <rect width="400" height="400" fill="#EF3C54" rx="0"/>             </g>             <g id="iconFrame" transform="translate(6 6)" style="color: #ffffff;stroke-width: 4px;"><svg width="400" height="400" viewBox="0 0 400 400" version="1.1" xmlns="http://www.w3.org/2000/svg"><g transform="translate(74 44)"><rect id="frame-rect" width="240" height="300" rx="20" transform="translate(0.606)" fill="none" stroke="currentColor" stroke-miterlimit="10"></rect><line id="frame-line" x2="240" transform="translate(0 200)" fill="none" stroke="currentColor" stroke-linecap="butt" stroke-linejoin="round"></line></g></svg></g>             <g id="iconIcon" transform="translate(120 65)" style="color: #ffffff"><svg xmlns="http://www.w3.org/2000/svg" viewBox="0 0 659.22 649.53" width="160" height="160">     <ellipse fill="none" cx="428.11" cy="224.83" rx="39.57" ry="39.58" transform="matrix(0.99, -0.14, 0.14, 0.99, -26.49, 60.01)"/>     <polygon fill="currentColor"             points="591.39 468.76 452.05 363.03 395.37 437.7 211.82 298.41 110.87 431.41 133.27 594.84 599.89 530.88 591.39 468.76"/>     <path fill="currentColor"           d="M389.29,393.35,446,318.66,585.3,424.41,536,64.26l-466.64,64,35.48,258.85L205.73,254Zm33.45-207.72a39.59,39.59,0,1,1-33.83,44.6A39.61,39.61,0,0,1,422.74,185.63Z"/> </svg></g>             <g id="iconText" transform="translate(0 300)" style="color: #ffffff;font-size: 60px;font-family: arial;text-transform: uppercase;">                 <text id="iconText" x="200" y="0" fill="currentColor" dominant-baseline="middle" text-anchor="middle">img</text>             </g>         </svg>