<svg class="preview-svg" width="300" height="300" viewBox="0 0 400 400" xmlns="http://www.w3.org/2000/svg" version="1.1" style="border-radius: 4%;background-color: #7E8BD0;">             <g id="iconBackground" transform="translate(0 0)">                 <rect width="400" height="400" fill="#7E8BD0" rx="0"/>             </g>             <g id="iconFrame" transform="translate(6 6)" style="color: #ffffff;stroke-width: 4px;"><svg width="400" height="400" viewBox="0 0 400 400" version="1.1" xmlns="http://www.w3.org/2000/svg"><g transform="translate(74 44)"><rect id="frame-rect" width="240" height="300" rx="20" transform="translate(0.606)" fill="none" stroke="currentColor" stroke-miterlimit="10"></rect><line id="frame-line" x2="240" transform="translate(0 200)" fill="none" stroke="currentColor" stroke-linecap="butt" stroke-linejoin="round"></line></g></svg></g>             <g id="iconIcon" transform="translate(120 65)" style="color: #ffffff"><svg xmlns="http://www.w3.org/2000/svg" viewBox="0 0 659.22 649.53" width="160" height="160"><path fill="currentColor" d="M286.13,364.26c4-7,7.41-12.73,10.66-18.52Q342.23,264.89,387.62,184c4.53-8.08,9.05-15.66,20.11-15.73s15.75,7.24,20.33,15.39q81.3,144.75,162.69,289.45a84.1,84.1,0,0,1,4.87,9.43c5.46,13.56-2.32,25.93-16.8,26.83-2.75.17-5.53.05-8.29.05q-238.51,0-477,0c-9.59,0-19.07.67-24.57-9.84-5.37-10.28-.29-18,5.28-25.95q62.51-89.05,124.9-178.19c13-18.51,25.57-18.44,38.72.14C253.72,318.08,269.5,340.62,286.13,364.26ZM408,226.17,310.59,399.25c15.27,21.8,30.1,43.63,45.79,64.82,2.86,3.86,9.25,7.17,14.05,7.21,54.8.5,109.6.32,164.4.32h11.06ZM218.38,334.49,123.09,470.58H313.74Z"/><path fill="currentColor" d="M180.56,148.3c.31-31.25,26.36-56.24,58.12-55.75,30.82.48,55.63,26.07,55.48,57.24a56.71,56.71,0,0,1-57.54,56.35C205.2,205.89,180.25,180.14,180.56,148.3Zm75.58.68c-.24-9.47-10.14-18.85-19.43-18.42-9,.42-18,9.58-18.13,18.56-.16,9.39,9.43,19.06,18.84,19S256.38,158.34,256.14,149Z"/></svg></g>             <g id="iconText" transform="translate(0 300)" style="color: #ffffff;font-size: 60px;font-family: arial;text-transform: uppercase;">                 <text id="iconText" x="200" y="0" fill="currentColor" dominant-baseline="middle" text-anchor="middle">jpeg</text>             </g>         </svg>