<svg class="preview-svg" width="300" height="300" viewBox="0 0 400 400" xmlns="http://www.w3.org/2000/svg" version="1.1" style="border-radius: 4%;background-color: #B5353A;">             <g id="iconBackground" transform="translate(0 0)">                 <rect width="400" height="400" fill="#B5353A" rx="0"/>             </g>             <g id="iconFrame" transform="translate(6 6)" style="color: #ffffff;stroke-width: 4px;"><svg width="400" height="400" viewBox="0 0 400 400" version="1.1" xmlns="http://www.w3.org/2000/svg"><g transform="translate(74 44)"><rect id="frame-rect" width="240" height="300" rx="20" transform="translate(0.606)" fill="none" stroke="currentColor" stroke-miterlimit="10"></rect><line id="frame-line" x2="240" transform="translate(0 200)" fill="none" stroke="currentColor" stroke-linecap="butt" stroke-linejoin="round"></line></g></svg></g>             <g id="iconIcon" transform="translate(120 65)" style="color: #ffffff"><svg xmlns="http://www.w3.org/2000/svg" viewBox="0 0 659.22 649.53" width="160" height="160"><path fill="currentColor" d="M528.54,188.82c81.27,101.57,72.57,230.64,12.3,313.79C475.78,592.37,368,631,264.25,603.6,159.94,576,94.18,487.56,81.13,415.71c10.08,1.53,20.18,4.15,30.3,4.22,6.74.05,9.25,2,11.44,7.88,47.29,126.05,185.27,182.52,305,123.08,143-71,164.48-261,43.79-364.87-46.92-40.36-102.34-56.09-163.85-51.08-3.11.25-8,.33-9.21-1.43-6.82-10.36-12.78-21.28-19.47-32.77,87.82-15,163.58,7.56,229.37,66.77"/><path fill="currentColor" d="M150.33,297.4V207.11c0-54.25-.1-108.49.17-162.73,0-5.05,1-11.19,4-14.87,4.57-5.65,9.32-6.84,16.82,0,23.23,21.13,47.52,41.19,72.36,60.41,24,18.61,38.56,42,42.26,72.61C259,126.44,230,93.44,180.24,85.28c0,5.81,0,10.23,0,14.65-.29,74.63-2.44,149.32-.22,223.88,1.47,49.08-54,71.76-88.31,57.37-30-12.59-36.11-44-12.29-67,16.16-15.62,36.16-20.9,58.34-18.28C141.54,296.39,145.33,296.82,150.33,297.4Z"/><path fill="currentColor" d="M329.79,284.58c38.47-.09,70,31.12,70,69.35s-31.65,69.57-69.92,69.5a69.13,69.13,0,0,1-69-68.88C260.6,315.69,291.16,284.68,329.79,284.58Zm31.55,69.53c.05-17.53-13.7-31.81-30.87-32.05s-32.31,14.86-32.1,32.27c.19,17.16,14.64,31.42,31.73,31.33A31.31,31.31,0,0,0,361.34,354.11Z"/><path fill="currentColor" d="M122.71,279.18,82.13,289.9c-.43-17,22.22-66.86,40.58-86.6v75.88Z"/><path fill="currentColor" d="M202,175.07V127.92l34.89,26.55Z"/></svg></g>             <g id="iconText" transform="translate(0 300)" style="color: #ffffff;font-size: 60px;font-family: arial;text-transform: uppercase;">                 <text id="iconText" x="200" y="0" fill="currentColor" dominant-baseline="middle" text-anchor="middle">m4a</text>             </g>         </svg>