<svg class="preview-svg" width="300" height="300" viewBox="0 0 400 400" xmlns="http://www.w3.org/2000/svg" version="1.1" style="border-radius: 4%;background-color: #B5353A;">             <g id="iconBackground" transform="translate(0 0)">                 <rect width="400" height="400" fill="#B5353A" rx="0"/>             </g>             <g id="iconFrame" transform="translate(6 6)" style="color: #ffffff;stroke-width: 4px;"><svg width="400" height="400" viewBox="0 0 400 400" version="1.1" xmlns="http://www.w3.org/2000/svg"><g transform="translate(74 44)"><rect id="frame-rect" width="240" height="300" rx="20" transform="translate(0.606)" fill="none" stroke="currentColor" stroke-miterlimit="10"></rect><line id="frame-line" x2="240" transform="translate(0 200)" fill="none" stroke="currentColor" stroke-linecap="butt" stroke-linejoin="round"></line></g></svg></g>             <g id="iconIcon" transform="translate(120 65)" style="color: #ffffff"><svg xmlns="http://www.w3.org/2000/svg" viewBox="0 0 659.22 649.53" width="160" height="160"><path fill="currentColor" d="M81.57,115.82a35,35,0,0,0-35.06,35.06V435a35,35,0,0,0,35.06,35.06H258.4l-17.89,37.84,157.38.8L380,470.09H556.83A35,35,0,0,0,591.89,435V150.88a35,35,0,0,0-35.06-35.06Zm25.49,10.39H531.35A30.61,30.61,0,0,1,562,156.89V386.4a30.61,30.61,0,0,1-30.67,30.68H107.06A30.61,30.61,0,0,1,76.38,386.4V156.89A30.61,30.61,0,0,1,107.06,126.21Zm234.05,89.93-42,64V293.3H344.7v23.81h13.59V293.3H372.7V281.94H358.29v-65.8ZM344.7,228v53.9H310.21Zm-137.9,11.5a28.55,28.55,0,0,0-14.13,3.31,28.26,28.26,0,0,0-10.22,10.28V241.36H169.94v75.75h12.51V274.3q0-11,5.62-17.45t15.15-6.49q8,0,11.9,5.28T219,271.8v45.31h12.51V274.3q0-11.08,5.62-17.52t15.28-6.42q7.92,0,11.77,5.28T268,271.8v45.31h12.51V271.39q0-15.28-6.43-23.53t-18.26-8.32a28.6,28.6,0,0,0-15.28,4q-6.5,4-11.16,12.38a24.35,24.35,0,0,0-8.59-12.18A23.16,23.16,0,0,0,206.8,239.54Zm223.05,0a29.28,29.28,0,0,0-14.34,3.31,25.77,25.77,0,0,0-9.88,10v-11.5H393.12V345.92h12.51V305.75a26.15,26.15,0,0,0,9.88,10.07,29.72,29.72,0,0,0,14.34,3.25,27.09,27.09,0,0,0,22.38-11q8.65-11,8.66-28.81t-8.66-28.81A27.1,27.1,0,0,0,429.85,239.54ZM426.8,250a18,18,0,0,1,15.49,7.84q5.68,7.77,5.68,21.5t-5.68,21.58a19.37,19.37,0,0,1-31,0q-5.61-7.85-5.62-21.58t5.62-21.5A18.17,18.17,0,0,1,426.8,250ZM319.2,422.7a8.27,8.27,0,1,1-8.26,8.27A8.26,8.26,0,0,1,319.2,422.7ZM52,432.05a35,35,0,0,0,29.55,16.19H556.83a34.92,34.92,0,0,0,25.57-11.08A27.44,27.44,0,0,1,555,460.91H79.74A27.49,27.49,0,0,1,52,433.2Z"/></svg></g>             <g id="iconText" transform="translate(0 300)" style="color: #ffffff;font-size: 60px;font-family: arial;text-transform: uppercase;">                 <text id="iconText" x="200" y="0" fill="currentColor" dominant-baseline="middle" text-anchor="middle">m4p</text>             </g>         </svg>