<svg class="preview-svg" width="300" height="300" viewBox="0 0 400 400" xmlns="http://www.w3.org/2000/svg" version="1.1" style="border-radius: 4%;background-color: #464D6E;">             <g id="iconBackground" transform="translate(0 0)">                 <rect width="400" height="400" fill="#464D6E" rx="0"/>             </g>             <g id="iconFrame" transform="translate(6 6)" style="color: #ffffff;stroke-width: 4px;"><svg width="400" height="400" viewBox="0 0 400 400" version="1.1" xmlns="http://www.w3.org/2000/svg"><g transform="translate(74 44)"><rect id="frame-rect" width="240" height="300" rx="20" transform="translate(0.606)" fill="none" stroke="currentColor" stroke-miterlimit="10"></rect><line id="frame-line" x2="240" transform="translate(0 200)" fill="none" stroke="currentColor" stroke-linecap="butt" stroke-linejoin="round"></line></g></svg></g>             <g id="iconIcon" transform="translate(120 65)" style="color: #ffffff"><svg xmlns="http://www.w3.org/2000/svg" viewBox="0 0 659.22 649.53" width="160" height="160">     <defs>         <style>.cls-1{fill:#010101;}.cls-2{fill:none;stroke:#010101;stroke-miterlimit:10;stroke-width:22px;}</style>     </defs>     <path fill="currentColor"           d="M598.68,226c-12.83-7.26-29-7.81-41.83,0l-60.8,34.58V246.67a52.14,52.14,0,0,0-51.88-51.88H141.27A52.14,52.14,0,0,0,89.4,246.67V445.81a52.14,52.14,0,0,0,51.87,51.87h302.9a52.14,52.14,0,0,0,51.88-51.87V431.86l60.8,34.59A41.09,41.09,0,0,0,577.49,472a38.33,38.33,0,0,0,20.64-5.57,42.14,42.14,0,0,0,20.64-36.26V262.28C619.32,247.22,611.51,233.84,598.68,226ZM459.79,446.36A16,16,0,0,1,444.17,462H141.27a16,16,0,0,1-15.61-15.62V246.67a16,16,0,0,1,15.61-15.62h302.9a16,16,0,0,1,15.62,15.62Zm123.28-15.61c0,2.78-1.68,3.9-2.79,5a6.28,6.28,0,0,1-5.58,0l-78.65-45.19V303l78.65-45.74a6.44,6.44,0,0,1,5.58,0,5.6,5.6,0,0,1,2.79,5Z"/>     <path fill="currentColor"           d="M352.13,329.78,265.67,279c-12.83-7.81-29,1.67-29,16.73V397.28c0,15.06,16.18,24,29,16.73l86.46-50.76A19.36,19.36,0,0,0,352.13,329.78Z"/> </svg></g>             <g id="iconText" transform="translate(0 300)" style="color: #ffffff;font-size: 60px;font-family: arial;text-transform: uppercase;">                 <text id="iconText" x="200" y="0" fill="currentColor" dominant-baseline="middle" text-anchor="middle">mov</text>             </g>         </svg>