<svg class="preview-svg" width="300" height="300" viewBox="0 0 400 400" xmlns="http://www.w3.org/2000/svg" version="1.1" style="border-radius: 4%;background-color: #464D6E;">             <g id="iconBackground" transform="translate(0 0)">                 <rect width="400" height="400" fill="#464D6E" rx="0"/>             </g>             <g id="iconFrame" transform="translate(6 6)" style="color: #ffffff;stroke-width: 4px;"><svg width="400" height="400" viewBox="0 0 400 400" version="1.1" xmlns="http://www.w3.org/2000/svg"><g transform="translate(74 44)"><rect id="frame-rect" width="240" height="300" rx="20" transform="translate(0.606)" fill="none" stroke="currentColor" stroke-miterlimit="10"></rect><line id="frame-line" x2="240" transform="translate(0 200)" fill="none" stroke="currentColor" stroke-linecap="butt" stroke-linejoin="round"></line></g></svg></g>             <g id="iconIcon" transform="translate(120 65)" style="color: #ffffff"><svg xmlns="http://www.w3.org/2000/svg" viewBox="0 0 81 102" width="160" height="160"> 	<g fill="currentColor"> 		<path d="M76 7H5c-3 0-5 2-5 5v57c0 3 2 6 5 6h71c3 0 5-3 5-6V12c0-3-2-5-5-5zM41 70a29 29 0 110-58 29 29 0 010 58z"/> 		<path d="M41 20a20 20 0 100 41 20 20 0 000-41zm-9 25v-9l6 5-6 4zm13 0h-3v-9h3v9zm5 0h-3v-9h3v9z"/> 	</g> </svg></g>             <g id="iconText" transform="translate(0 300)" style="color: #ffffff;font-size: 60px;font-family: arial;text-transform: uppercase;">                 <text id="iconText" x="200" y="0" fill="currentColor" dominant-baseline="middle" text-anchor="middle">mp3</text>             </g>         </svg>