<svg class="preview-svg" width="300" height="300" viewBox="0 0 400 400" xmlns="http://www.w3.org/2000/svg" version="1.1" style="border-radius: 4%;background-color: #B5353A;">             <g id="iconBackground" transform="translate(0 0)">                 <rect width="400" height="400" fill="#B5353A" rx="0"/>             </g>             <g id="iconFrame" transform="translate(6 6)" style="color: #ffffff;stroke-width: 4px;"><svg width="400" height="400" viewBox="0 0 400 400" version="1.1" xmlns="http://www.w3.org/2000/svg"><g transform="translate(74 44)"><rect id="frame-rect" width="240" height="300" rx="20" transform="translate(0.606)" fill="none" stroke="currentColor" stroke-miterlimit="10"></rect><line id="frame-line" x2="240" transform="translate(0 200)" fill="none" stroke="currentColor" stroke-linecap="butt" stroke-linejoin="round"></line></g></svg></g>             <g id="iconIcon" transform="translate(120 65)" style="color: #ffffff"><svg xmlns="http://www.w3.org/2000/svg" viewBox="0 0 659.22 649.53" width="160" height="160">     <path fill="currentColor" d="M100.08,49.67v512H533.93v-512Zm403.85,482H130.08v-452H503.93Z"/>     <path fill="currentColor"           d="M157.92,109.82V501.53H476.09V109.82ZM446.09,196.7H302v30H446.09V471.53H380.64V426.19h37.5v-30h-67.5v75.34H299V384.67H269v86.86H187.92V357.2H412.14v-30H187.92V295.7H412.14v-30H187.92v-39h77.23v-30H187.92V139.82H269V171.2h30V139.82H446.09V196.7Z"/> </svg></g>             <g id="iconText" transform="translate(0 300)" style="color: #ffffff;font-size: 60px;font-family: arial;text-transform: uppercase;">                 <text id="iconText" x="200" y="0" fill="currentColor" dominant-baseline="middle" text-anchor="middle">mpa</text>             </g>         </svg>