<svg class="preview-svg" width="300" height="300" viewBox="0 0 400 400" xmlns="http://www.w3.org/2000/svg" version="1.1" style="border-radius: 4%;background-color: #4F73BA;">             <g id="iconBackground" transform="translate(0 0)">                 <rect width="400" height="400" fill="#4F73BA" rx="0"/>             </g>             <g id="iconFrame" transform="translate(6 6)" style="color: #ffffff;stroke-width: 4px;"><svg width="400" height="400" viewBox="0 0 400 400" version="1.1" xmlns="http://www.w3.org/2000/svg"><g transform="translate(74 44)"><rect id="frame-rect" width="240" height="300" rx="20" transform="translate(0.606)" fill="none" stroke="currentColor" stroke-miterlimit="10"></rect><line id="frame-line" x2="240" transform="translate(0 200)" fill="none" stroke="currentColor" stroke-linecap="butt" stroke-linejoin="round"></line></g></svg></g>             <g id="iconIcon" transform="translate(120 65)" style="color: #ffffff"><svg xmlns="http://www.w3.org/2000/svg" viewBox="0 0 659.22 649.53" width="160" height="160">     <path fill="currentColor"           d="M77.89,526.7H583.42V139.56H77.89Zm97.47-30.33H115.25V453h60.11v43.33Zm185.53,0H300.63V453H361v43.43ZM486.16,166.31h60.2v43.42h-60.2Zm0,286.88h60.1v43.13H486.05V453.14ZM391.87,166.31H452v43.32H391.87Zm0,286.73H452v43.33H391.82V453ZM300.32,166.31H361v43.32H300.32Zm-8.94,106.16L370,318c14.45,8.35,14.45,22,0,30.34l-78.61,45.49c-14.46,8.35-26.29,1.52-26.29-15.16v-91C264.94,271.05,276.92,264.23,291.38,272.47Zm-85-106.16H266.2v43.37H206.35Zm0,286.73H266.2v43.38H206.35V453Zm-91.3-286.73h60.31v43.42H115.05Z"/> </svg></g>             <g id="iconText" transform="translate(0 300)" style="color: #ffffff;font-size: 60px;font-family: arial;text-transform: uppercase;">                 <text id="iconText" x="200" y="0" fill="currentColor" dominant-baseline="middle" text-anchor="middle">mpg</text>             </g>         </svg>