<svg class="preview-svg" width="300" height="300" viewBox="0 0 400 400" xmlns="http://www.w3.org/2000/svg" version="1.1" style="border-radius: 4%;background-color: #859594;">             <g id="iconBackground" transform="translate(0 0)">                 <rect width="400" height="400" fill="#859594" rx="0"/>             </g>             <g id="iconFrame" transform="translate(6 6)" style="color: #ffffff;stroke-width: 4px;"><svg width="400" height="400" viewBox="0 0 400 400" version="1.1" xmlns="http://www.w3.org/2000/svg"><g transform="translate(74 44)"><rect id="frame-rect" width="240" height="300" rx="20" transform="translate(0.606)" fill="none" stroke="currentColor" stroke-miterlimit="10"></rect><line id="frame-line" x2="240" transform="translate(0 200)" fill="none" stroke="currentColor" stroke-linecap="butt" stroke-linejoin="round"></line></g></svg></g>             <g id="iconIcon" transform="translate(120 65)" style="color: #ffffff"><svg xmlns="http://www.w3.org/2000/svg" viewBox="0 0 659.22 649.53" width="160" height="160"><path fill="currentColor" d="M253.94,236.84c0-22.94-.06-45,.13-67.12,0-1.74,1.56-3.77,2.92-5.14q44.46-44.6,89.09-89a2.92,2.92,0,0,1,1.16-.55l68.35,69.37c-.52.56-2.17,2.46-3.95,4.24-27.59,27.59-55.08,55.29-83,82.59a20.94,20.94,0,0,1-12.89,5.39C295.48,237.15,275.15,236.84,253.94,236.84Zm32.71-31.68c3.32,0,6.31-.36,9.19.06,10.24,1.51,17.81-2.13,24.61-10,8.09-9.35,17.28-17.76,26.17-26.39,8.6-8.34,17.43-16.45,25.22-23.78l-25.1-25.67c-16.09,16.11-31.77,33.44-49.24,48.73C285.57,178.57,283.59,190.1,286.65,205.16Z"/><path fill="currentColor" d="M582.54,487.65v30.7H473.64v-30.7Z"/><path fill="currentColor" d="M191,299.84v30.52H82.21V299.84Z"/><path fill="currentColor" d="M442.22,173.7V143.43h109V173.7Z"/><path fill="currentColor" d="M113.2,173.92V143.4h109v30.52Z"/><path fill="currentColor" d="M191.06,425.5V456H113.23V425.5Z"/><path fill="currentColor" d="M551.38,362.92v30.95h-32c-13.26,0-26.52-.15-39.77.07-4.92.09-6.91-1.54-6.73-6.59.29-7.9.08-15.82.08-24.43Z"/><path fill="currentColor" d="M128.63,236.3V205.79h46.54V236.3Z"/><path fill="currentColor" d="M597.94,236.32H552V205.68h45.9Z"/><path fill="currentColor" d="M97.18,205.72v30.44H66.24V205.72Z"/><path fill="currentColor" d="M535.39,456H504.78V425.36h30.61Z"/><path fill="currentColor" d="M519.64,236.57H489.2V206h30.44Z"/><path fill="currentColor" d="M96.81,393.38H66.28V362.79H96.81Z"/><path fill="currentColor" d="M159.56,362.72v30.49H128.69V362.72Z"/><path fill="currentColor" d="M598,425.41v30.66H567.78V425.41Z"/><path fill="currentColor" d="M379.1,393.73v30.33H285.61V393.73Z"/><path fill="currentColor" d="M285.64,519.29h93.41V550H285.64Z"/><path fill="currentColor" d="M379.07,457v30h-93.5V457Z"/><path fill="currentColor" d="M285.61,361.9V331.36h46.06V361.9Z"/></svg></g>             <g id="iconText" transform="translate(0 300)" style="color: #ffffff;font-size: 60px;font-family: arial;text-transform: uppercase;">                 <text id="iconText" x="200" y="0" fill="currentColor" dominant-baseline="middle" text-anchor="middle">odp</text>             </g>         </svg>