<svg class="preview-svg" width="300" height="300" viewBox="0 0 400 400" xmlns="http://www.w3.org/2000/svg" version="1.1" style="border-radius: 4%;background-color: #7E8BD0;">             <g id="iconBackground" transform="translate(0 0)">                 <rect width="400" height="400" fill="#7E8BD0" rx="0"/>             </g>             <g id="iconFrame" transform="translate(6 6)" style="color: #ffffff;stroke-width: 4px;"><svg width="400" height="400" viewBox="0 0 400 400" version="1.1" xmlns="http://www.w3.org/2000/svg"><g transform="translate(74 44)"><rect id="frame-rect" width="240" height="300" rx="20" transform="translate(0.606)" fill="none" stroke="currentColor" stroke-miterlimit="10"></rect><line id="frame-line" x2="240" transform="translate(0 200)" fill="none" stroke="currentColor" stroke-linecap="butt" stroke-linejoin="round"></line></g></svg></g>             <g id="iconIcon" transform="translate(120 65)" style="color: #ffffff"><svg xmlns="http://www.w3.org/2000/svg" viewBox="0 0 659.22 649.53" width="160" height="160"><title>CSV </title><path fill="currentColor" d="M570.35,212.81V467.5H105V158.3H272.77v54.51Zm-26.72,29.56H274.32v26.91H543.63ZM274.25,325.49h269v-27h-269Zm269.4,31.14H274.49V383H543.65Zm-.35,55.67H274.23v27H543.3Zm-412,26.88h112.3v-26.7H131.25Zm.43-55.93H243.83V356.4H131.68Zm-.1-57.93H243.91V298.67H131.58Zm.2-55.7h112V242.37h-112ZM244.58,185H132.19v26.82H244.58Z"/></svg></g>             <g id="iconText" transform="translate(0 300)" style="color: #ffffff;font-size: 60px;font-family: arial;text-transform: uppercase;">                 <text id="iconText" x="200" y="0" fill="currentColor" dominant-baseline="middle" text-anchor="middle">ods</text>             </g>         </svg>