<svg class="preview-svg" width="300" height="300" viewBox="0 0 400 400" xmlns="http://www.w3.org/2000/svg" version="1.1" style="border-radius: 4%;background-color: #EF3C54;">             <g id="iconBackground" transform="translate(0 0)">                 <rect width="400" height="400" fill="#EF3C54" rx="0"/>             </g>             <g id="iconFrame" transform="translate(6 6)" style="color: #ffffff;stroke-width: 4px;"><svg width="400" height="400" viewBox="0 0 400 400" version="1.1" xmlns="http://www.w3.org/2000/svg"><g transform="translate(74 44)"><rect id="frame-rect" width="240" height="300" rx="20" transform="translate(0.606)" fill="none" stroke="currentColor" stroke-miterlimit="10"></rect><line id="frame-line" x2="240" transform="translate(0 200)" fill="none" stroke="currentColor" stroke-linecap="butt" stroke-linejoin="round"></line></g></svg></g>             <g id="iconIcon" transform="translate(120 65)" style="color: #ffffff"><svg xmlns="http://www.w3.org/2000/svg" viewBox="0 0 659.22 649.53" width="160" height="160"><title>ODT </title><path fill="currentColor" d="M227.83,260A13.09,13.09,0,0,0,240.92,273h288a13.09,13.09,0,1,0,0-26.18h-288A13.09,13.09,0,0,0,227.83,260Z"/><path fill="currentColor" d="M136.21,325.4h235.6a13.09,13.09,0,0,0,0-26.18H136.21a13.09,13.09,0,0,0,0,26.18Z"/><path fill="currentColor" d="M528.88,351.58H319.45a13.09,13.09,0,0,0,0,26.18H528.88a13.09,13.09,0,1,0,0-26.18Z"/><path fill="currentColor" d="M136.21,430.11h301a13.09,13.09,0,1,0,0-26.18h-301a13.09,13.09,0,0,0,0,26.18Z"/><path fill="currentColor" d="M136.21,273h52.35a13.09,13.09,0,0,0,0-26.18H136.21a13.09,13.09,0,0,0,0,26.18Z"/><path fill="currentColor" d="M528.88,299.22H424.17a13.09,13.09,0,0,0,0,26.18H528.88a13.09,13.09,0,1,0,0-26.18Z"/><path fill="currentColor" d="M136.21,377.76H267.1a13.09,13.09,0,0,0,0-26.18H136.21a13.09,13.09,0,0,0,0,26.18Z"/><path fill="currentColor" d="M528.88,403.93H489.61a13.09,13.09,0,0,0,0,26.18h39.27a13.09,13.09,0,1,0,0-26.18Z"/><path fill="currentColor" d="M136.21,482.47h78.53a13.09,13.09,0,1,0,0-26.18H136.21a13.09,13.09,0,1,0,0,26.18Z"/><path fill="currentColor" d="M136.21,220.68H267.1a13.09,13.09,0,1,0,0-26.17H136.21a13.09,13.09,0,1,0,0,26.17Z"/><path fill="currentColor" d="M398,456.29H267.1a13.09,13.09,0,0,0,0,26.18H398a13.09,13.09,0,0,0,0-26.18Z"/><path fill="currentColor" d="M528.88,456.29H450.35a13.09,13.09,0,0,0,0,26.18h78.53a13.09,13.09,0,1,0,0-26.18Z"/></svg></g>             <g id="iconText" transform="translate(0 300)" style="color: #ffffff;font-size: 60px;font-family: arial;text-transform: uppercase;">                 <text id="iconText" x="200" y="0" fill="currentColor" dominant-baseline="middle" text-anchor="middle">odt</text>             </g>         </svg>