<svg class="preview-svg" width="300" height="300" viewBox="0 0 400 400" xmlns="http://www.w3.org/2000/svg" version="1.1" style="border-radius: 4%;background-color: #F6B701;">             <g id="iconBackground" transform="translate(0 0)">                 <rect width="400" height="400" fill="#F6B701" rx="0"/>             </g>             <g id="iconFrame" transform="translate(6 6)" style="color: #ffffff;stroke-width: 4px;"><svg width="400" height="400" viewBox="0 0 400 400" version="1.1" xmlns="http://www.w3.org/2000/svg"><g transform="translate(74 44)"><rect id="frame-rect" width="240" height="300" rx="20" transform="translate(0.606)" fill="none" stroke="currentColor" stroke-miterlimit="10"></rect><line id="frame-line" x2="240" transform="translate(0 200)" fill="none" stroke="currentColor" stroke-linecap="butt" stroke-linejoin="round"></line></g></svg></g>             <g id="iconIcon" transform="translate(120 65)" style="color: #ffffff"><svg xmlns="http://www.w3.org/2000/svg" viewBox="0 0 659.22 649.53" width="160" height="160">     <path fill="currentColor"           d="M348.65,546H208.11a8.79,8.79,0,0,1-8.79-8.79V326.4a8.79,8.79,0,0,1,8.79-8.78H348.65a8.78,8.78,0,0,1,8.78,8.78V537.21A8.78,8.78,0,0,1,348.65,546ZM216.89,528.43h123V335.19h-123Z"/>     <path fill="currentColor"           d="M278.38,405.46a26.35,26.35,0,1,1,26.35-26.35A26.35,26.35,0,0,1,278.38,405.46Zm0-35.14a8.79,8.79,0,1,0,8.78,8.79A8.8,8.8,0,0,0,278.38,370.32Z"/>     <path fill="currentColor"           d="M278.38,510.86a43.92,43.92,0,1,1,43.92-43.92A43.92,43.92,0,0,1,278.38,510.86Zm0-70.27a26.36,26.36,0,1,0,26.35,26.35A26.35,26.35,0,0,0,278.38,440.59Z"/>     <path fill="currentColor"           d="M524.32,546H383.78a8.78,8.78,0,0,1-8.78-8.79V326.4a8.78,8.78,0,0,1,8.78-8.78H524.32a8.79,8.79,0,0,1,8.79,8.78V537.21A8.79,8.79,0,0,1,524.32,546ZM392.57,528.43h123V335.19h-123Z"/>     <path fill="currentColor"           d="M454.05,405.46a26.35,26.35,0,1,1,26.35-26.35A26.35,26.35,0,0,1,454.05,405.46Zm0-35.14a8.79,8.79,0,1,0,8.79,8.79A8.79,8.79,0,0,0,454.05,370.32Z"/>     <path fill="currentColor"           d="M454.05,510.86A43.92,43.92,0,1,1,498,466.94,43.92,43.92,0,0,1,454.05,510.86Zm0-70.27a26.36,26.36,0,1,0,26.35,26.35A26.35,26.35,0,0,0,454.05,440.59Z"/>     <path fill="currentColor" d="M541.89,546H190.54a8.79,8.79,0,0,1,0-17.57H541.89a8.79,8.79,0,0,1,0,17.57Z"/>     <path fill="currentColor"           d="M173,462.47a8.78,8.78,0,0,1-8-5.19L62.65,228.38a43.92,43.92,0,0,1,22.29-58l.2-.08L269.59,87.57a8.79,8.79,0,0,1,7.21,16L92,186.3A26.35,26.35,0,0,0,78.45,221c.06.14.12.28.19.42L181,450.08a8.82,8.82,0,0,1-8,12.39Z"/>     <path fill="currentColor"           d="M173,332.9h-1.49a26.33,26.33,0,0,1-20.38-14.14c-7.11-16,6.41-36.54,31.53-47.78a75.21,75.21,0,0,1,22.05-6.06,8.75,8.75,0,0,1,1.93,17.39A63.81,63.81,0,0,0,189.75,287C173,294.52,165,306.82,167.09,311.56a9.55,9.55,0,0,0,7.38,3.95,8.78,8.78,0,0,1,7.29,10.05v.05A8.77,8.77,0,0,1,173,332.9Z"/>     <path fill="currentColor"           d="M215.49,256.13a8.77,8.77,0,0,1-8-5.18l-29-65.09a8.87,8.87,0,0,1,8.34-12.64l52.7,2.28a8.79,8.79,0,1,1-.7,17.57L200,191.4l23.19,52a8.79,8.79,0,0,1-4.4,11.59A8.63,8.63,0,0,1,215.49,256.13Z"/>     <path fill="currentColor"           d="M199.32,300.05a8.16,8.16,0,0,1-3.16-.61,8.78,8.78,0,0,1-5.72-11c0-.1.06-.2.1-.3L268.8,83.53a43.92,43.92,0,0,1,56.73-25.3h0l196.93,74.92a43.92,43.92,0,0,1,25.38,56.57l-40,104.7a8.78,8.78,0,0,1-16.34-6.32l39.88-104.27a26.35,26.35,0,0,0-15.28-34h0L319.22,74.57a26.36,26.36,0,0,0-34,15.18l0,.11L207.05,294.43A8.76,8.76,0,0,1,199.32,300.05Z"/>     <path fill="currentColor"           d="M327.13,261a71.74,71.74,0,0,1-25.48-5,67.57,67.57,0,0,1-27.4-18.53A27.4,27.4,0,0,1,267.49,210a27.58,27.58,0,0,1,23.36-16,67.65,67.65,0,0,1,32.76,4.48c25.74,9.84,40.41,29.6,34.17,45.94h0C353.65,255.17,342,261,327.13,261Zm-29-49.81a43.24,43.24,0,0,0-4.83,0c-4.92.7-8.78,2.55-9.4,4.83s.62,6.06,3.78,9.84a50,50,0,0,0,20.2,13.44c17.57,6.59,31.53,3.6,33.47-1.32h0c1.84-4.92-6.77-16.69-24.07-23.27A55.68,55.68,0,0,0,298.14,211.16Zm51.39,30.22"/>     <path fill="currentColor"           d="M351.11,246a8.12,8.12,0,0,1-3.16-.61,8.78,8.78,0,0,1-5-11.33l37.59-98.47a8.78,8.78,0,0,1,14.67-2.72l39.88,43.39a8.8,8.8,0,0,1-13,11.86l-30.22-32.94-32.58,85.2A8.79,8.79,0,0,1,351.11,246Z"/>     <path fill="currentColor"           d="M311.84,300.05a8,8,0,0,1-3.95-1A8.78,8.78,0,0,1,304,287.32c7.46-14.76,30.56-18.8,55.07-9.4a78.41,78.41,0,0,1,11.95,5.8,8.78,8.78,0,0,1-7.24,16,8.33,8.33,0,0,1-1.55-.9,56.53,56.53,0,0,0-9.31-4.56c-16.69-6.33-30.74-3.69-33.11,1A8.79,8.79,0,0,1,311.84,300.05Z"/>     <path fill="currentColor"           d="M396.26,300.05a8.2,8.2,0,0,1-3.17-.61,8.78,8.78,0,0,1-5-11.33L416,215a8.82,8.82,0,0,1,14.67-2.81l39.88,43.39a8.83,8.83,0,0,1-13,11.94h0L427.7,234.61l-22.92,59.82A8.79,8.79,0,0,1,396.26,300.05Z"/> </svg></g>             <g id="iconText" transform="translate(0 300)" style="color: #ffffff;font-size: 60px;font-family: arial;text-transform: uppercase;">                 <text id="iconText" x="200" y="0" fill="currentColor" dominant-baseline="middle" text-anchor="middle">ogg</text>             </g>         </svg>