<svg class="preview-svg" width="300" height="300" viewBox="0 0 400 400" xmlns="http://www.w3.org/2000/svg" version="1.1" style="border-radius: 4%;background-color: #6AB86F;">             <g id="iconBackground" transform="translate(0 0)">                 <rect width="400" height="400" fill="#6AB86F" rx="0"/>             </g>             <g id="iconFrame" transform="translate(6 6)" style="color: #ffffff;stroke-width: 4px;"><svg width="400" height="400" viewBox="0 0 400 400" version="1.1" xmlns="http://www.w3.org/2000/svg"><g transform="translate(74 44)"><rect id="frame-rect" width="240" height="300" rx="20" transform="translate(0.606)" fill="none" stroke="currentColor" stroke-miterlimit="10"></rect><line id="frame-line" x2="240" transform="translate(0 200)" fill="none" stroke="currentColor" stroke-linecap="butt" stroke-linejoin="round"></line></g></svg></g>             <g id="iconIcon" transform="translate(120 65)" style="color: #ffffff"><svg xmlns="http://www.w3.org/2000/svg" viewBox="0 0 659.22 649.53" width="160" height="160"><path fill="currentColor" d="M583.6,113.21V490.05H81.14V113.21ZM47.65,96.46V506.8a16.74,16.74,0,0,0,16.74,16.75h536a16.75,16.75,0,0,0,16.74-16.75V96.46a16.75,16.75,0,0,0-16.74-16.75h-536A16.74,16.74,0,0,0,47.65,96.46Z"/><path fill="currentColor" d="M533.35,197a58.62,58.62,0,1,0-58.62,58.62A58.62,58.62,0,0,0,533.35,197Zm-83.74,0a25.12,25.12,0,1,1,25.12,25.13A25.12,25.12,0,0,1,449.61,197Z"/><path fill="currentColor" d="M533.35,314.19A259.68,259.68,0,0,0,286.28,493.92a16.75,16.75,0,1,0,31.87,10.29A226.46,226.46,0,0,1,590.46,355a16.75,16.75,0,1,0,8.44-32.42A260.34,260.34,0,0,0,533.35,314.19Z"/><path fill="currentColor" d="M139.76,255.57a369.59,369.59,0,0,0-75.2,7.69,16.74,16.74,0,1,0,6.81,32.79A335.71,335.71,0,0,1,369.75,380.5a16.75,16.75,0,0,0,23-24.35A367.18,367.18,0,0,0,139.76,255.57Z"/></svg></g>             <g id="iconText" transform="translate(0 300)" style="color: #ffffff;font-size: 60px;font-family: arial;text-transform: uppercase;">                 <text id="iconText" x="200" y="0" fill="currentColor" dominant-baseline="middle" text-anchor="middle">png</text>             </g>         </svg>