<svg class="preview-svg" width="300" height="300" viewBox="0 0 400 400" xmlns="http://www.w3.org/2000/svg" version="1.1" style="background-color: #c43622;">             <g id="iconBackground" transform="translate(0 0)">                 <rect width="400" height="400" fill="#c43622" rx="0"/>             </g>             <g id="iconFrame" transform="translate(6 6)" style="color: #ffffff;stroke-width: 4px;"><svg width="400" height="400" viewBox="0 0 400 400" version="1.1" xmlns="http://www.w3.org/2000/svg"><g transform="translate(74 44)"><rect id="frame-rect" width="240" height="300" rx="20" transform="translate(0.606)" fill="none" stroke="currentColor" stroke-miterlimit="10"></rect><line id="frame-line" x2="240" transform="translate(0 200)" fill="none" stroke="currentColor" stroke-linecap="butt" stroke-linejoin="round"></line></g></svg></g>             <g id="iconIcon" transform="translate(120 65)" style="color: #ffffff"><svg xmlns="http://www.w3.org/2000/svg" viewBox="0 0 659.22 649.53" width="160" height="160"><path fill="currentColor" d="M215.34,225.34c-11.23,42.32-22.46,84.68-34,128.28l127.53,34.31c-14.23,61.23-82.43,112.36-158.78,94.37C75.48,464.73,31.61,386.82,54.79,313.13,78.33,238.31,157.08,207.05,215.34,225.34Z"/><path fill="currentColor" d="M205.69,338.7l28.4-105.58c44.49,14.3,86.8,71.15,78.77,134.16Z"/><path fill="currentColor" d="M584.6,221.05v23H299.38v-23Z"/><path fill="currentColor" d="M584.54,462.74v22.75h-285V462.74Z"/><path fill="currentColor" d="M584.57,402v23.49H574.49c-75.23,0-150.46-.16-225.69.22-8.75.05-11.48-2.51-10.4-10.78.53-4.06.09-8.25.09-12.93Z"/><path fill="currentColor" d="M339.19,281.22H584.43v22.34H339.19Z"/><path fill="currentColor" d="M364.17,363.82V341.73H584.33v22.09Z"/></svg></g>             <g id="iconText" transform="translate(0 300)" style="color: #ffffff;font-size: 60px;font-family: arial;text-transform: uppercase;">                 <text id="iconText" x="200" y="0" fill="currentColor" dominant-baseline="middle" text-anchor="middle">pptx</text>             </g>         </svg>