<svg class="preview-svg" width="300" height="300" viewBox="0 0 400 400" xmlns="http://www.w3.org/2000/svg" version="1.1" style="border-radius: 4%;background-color: #4F73BA;">             <g id="iconBackground" transform="translate(0 0)">                 <rect width="400" height="400" fill="#4F73BA" rx="0"/>             </g>             <g id="iconFrame" transform="translate(6 6)" style="color: #ffffff;stroke-width: 4px;"><svg width="400" height="400" viewBox="0 0 400 400" version="1.1" xmlns="http://www.w3.org/2000/svg"><g transform="translate(74 44)"><rect id="frame-rect" width="240" height="300" rx="20" transform="translate(0.606)" fill="none" stroke="currentColor" stroke-miterlimit="10"></rect><line id="frame-line" x2="240" transform="translate(0 200)" fill="none" stroke="currentColor" stroke-linecap="butt" stroke-linejoin="round"></line></g></svg></g>             <g id="iconIcon" transform="translate(120 65)" style="color: #ffffff"><svg xmlns="http://www.w3.org/2000/svg" viewBox="0 0 659.22 649.53" width="160" height="160"><title>PSD </title><path fill="currentColor" d="M100.15,212.89c-1-45.33,10.59-84.13,32.8-120.2,10.72-17.42,24.67-23.13,44-16.81,51.3,16.75,98.07,41.16,135.14,81.29,8.73,9.45,19.09,19.93,22.05,31.62,5.36,21.17,10.39,35.51,37.06,38.69,19.45,2.32,19.67,26.22,22.15,43.11,6,40.71,11.82,81.47,16.24,122.37,5.54,51.31,34.9,76.54,84.55,81.56a237.27,237.27,0,0,1,25.68,4.06c13.66,2.92,20.4,12.5,20.19,25.73-.19,12.19-8.2,20.54-19.61,23-9.32,2-20.18,3.48-28.91.67-75-24.15-155.25-32.14-225.41-71.21-80-44.58-138.45-107-161.4-198.38C100.67,242.29,101,226.18,100.15,212.89Zm253.93,168c-3-26.81-6.26-53.61-9.07-80.45-1.61-15.45-5.4-26.77-25.24-25.1-24,2-31.37-12.72-32.24-34.63-1.88-47.43-31.74-80.33-84.68-92C238.66,237.31,284.47,316.45,354.08,380.87ZM157.63,183.68c-13.8,91.83,53.57,202.5,134.28,220C236.15,334.81,193.14,261.82,157.63,183.68Z"/></svg></g>             <g id="iconText" transform="translate(0 300)" style="color: #ffffff;font-size: 60px;font-family: arial;text-transform: uppercase;">                 <text id="iconText" x="200" y="0" fill="currentColor" dominant-baseline="middle" text-anchor="middle">psd</text>             </g>         </svg>