<svg class="preview-svg" width="300" height="300" viewBox="0 0 400 400" xmlns="http://www.w3.org/2000/svg" version="1.1" style="border-radius: 4%;background-color: #4F73BA;">             <g id="iconBackground" transform="translate(0 0)">                 <rect width="400" height="400" fill="#4F73BA" rx="0"/>             </g>             <g id="iconFrame" transform="translate(6 6)" style="color: #ffffff;stroke-width: 4px;"><svg width="400" height="400" viewBox="0 0 400 400" version="1.1" xmlns="http://www.w3.org/2000/svg"><g transform="translate(74 44)"><rect id="frame-rect" width="240" height="300" rx="20" transform="translate(0.606)" fill="none" stroke="currentColor" stroke-miterlimit="10"></rect><line id="frame-line" x2="240" transform="translate(0 200)" fill="none" stroke="currentColor" stroke-linecap="butt" stroke-linejoin="round"></line></g></svg></g>             <g id="iconIcon" transform="translate(120 65)" style="color: #ffffff"><svg xmlns="http://www.w3.org/2000/svg" viewBox="0 0 659.22 649.53" width="160" height="160"><path fill="currentColor" d="M405.77,154.81H402c-20.74,0-41.49.08-62.24-.08-3,0-4,.92-4.61,3.8q-9.31,46.42-18.87,92.8c-.26,1.26-.58,2.51-.9,3.85H276.8c8.94-49.07,17.82-97.88,26.76-147H574.81c-1.63,9-3.2,17.77-4.81,26.54q-10.59,57.83-21.15,115.66c-.55,3-1.61,4.08-4.78,4-10.73-.21-21.46-.08-32.19-.09-1.16,0-2.32-.11-3.95-.2,6.48-33.1,12.91-65.88,19.39-99H455.85q-28.34,147.95-56.76,296.34h44.22c-.93,5.65-1.76,10.78-2.62,15.89-1.45,8.58-2.95,17.15-4.36,25.73-.34,2.07-.83,3.33-3.49,3.34q-65.1.25-130.19.72c-.82,0-1.64-.13-2.87-.23,1.32-7,2.6-13.91,3.91-20.77,1.35-7.14,2.86-14.25,4-21.42.46-2.75,1.45-3.75,4.33-3.7,11,.16,21.94,0,32.91.12,2.6,0,3.73-.67,4.24-3.35q28-144.9,56.15-289.79C405.52,157.09,405.59,156.16,405.77,154.81Z"/><path fill="currentColor" d="M341.41,345.09c-1.77,11.15-3.43,21.85-5.23,32.53-.12.69-1.27,1.42-2.1,1.71a8.94,8.94,0,0,1-2.84.07H104c2.14-11.69,4.2-23,6.28-34.31Z"/><path fill="currentColor" d="M82.22,497.14c1.87-11.33,3.59-22,5.49-32.67.13-.76,1.46-1.44,2.37-1.89a5.33,5.33,0,0,1,2.12-.06H279.89c-1.41,8.5-2.69,16.46-4.05,24.42-.56,3.27-.24,7.84-2.23,9.41-2.18,1.72-6.55.77-10,.78q-88.15,0-176.31,0Z"/><path fill="currentColor" d="M125.75,260.85c1.68-9.19,3.23-18,4.88-26.72,1.46-7.74,1.51-7.73,9.4-7.73h116.1c-1.78,11.38-3.45,22.19-5.24,33-.11.63-1.16,1.22-1.9,1.59-.47.25-1.17.06-1.76.06h-118C128.26,261,127.32,260.93,125.75,260.85Z"/><path fill="currentColor" d="M148.07,142.26c1.93-11.53,3.78-22.67,5.68-34h126.1c-1.91,11.43-3.78,22.66-5.67,34Z"/></svg></g>             <g id="iconText" transform="translate(0 300)" style="color: #ffffff;font-size: 60px;font-family: arial;text-transform: uppercase;">                 <text id="iconText" x="200" y="0" fill="currentColor" dominant-baseline="middle" text-anchor="middle">tex</text>             </g>         </svg>