<svg class="preview-svg" width="300" height="300" viewBox="0 0 400 400" xmlns="http://www.w3.org/2000/svg" version="1.1" style="border-radius: 4%;background-color: #BAAFA9;">             <g id="iconBackground" transform="translate(0 0)">                 <rect width="400" height="400" fill="#BAAFA9" rx="0"/>             </g>             <g id="iconFrame" transform="translate(6 6)" style="color: #ffffff;stroke-width: 4px;"><svg width="400" height="400" viewBox="0 0 400 400" version="1.1" xmlns="http://www.w3.org/2000/svg"><g transform="translate(74 44)"><rect id="frame-rect" width="240" height="300" rx="20" transform="translate(0.606)" fill="none" stroke="currentColor" stroke-miterlimit="10"></rect><line id="frame-line" x2="240" transform="translate(0 200)" fill="none" stroke="currentColor" stroke-linecap="butt" stroke-linejoin="round"></line></g></svg></g>             <g id="iconIcon" transform="translate(120 65)" style="color: #ffffff"><svg xmlns="http://www.w3.org/2000/svg" viewBox="0 0 659.22 649.53" width="160" height="160">     <path fill="currentColor"           d="M551,168.58H146.68a9.87,9.87,0,0,0,0,19.73H541.1V513.7a29.58,29.58,0,0,1-29.58,29.58H136.82a29.58,29.58,0,0,1-29.58-29.58V139a29.58,29.58,0,0,1,29.58-29.58H511.46A28.13,28.13,0,0,1,541.09,136a27.67,27.67,0,0,1,0,3,9.86,9.86,0,0,0,19.72,0,47.54,47.54,0,0,0-45.71-49.3c-1.2,0-2.4,0-3.59,0H136.82A49.35,49.35,0,0,0,87.52,139V513.7a49.35,49.35,0,0,0,49.3,49.3h374.7a49.37,49.37,0,0,0,49.3-49.3V178.44A9.87,9.87,0,0,0,551,168.58Z"/>     <path fill="currentColor" d="M146.68,129.14a9.86,9.86,0,0,0,0,19.72H166.4a9.86,9.86,0,0,0,0-19.72Z"/>     <path fill="currentColor" d="M205.84,129.14a9.86,9.86,0,0,0,0,19.72h19.72a9.86,9.86,0,0,0,0-19.72Z"/>     <path fill="currentColor" d="M491.79,129.14a9.86,9.86,0,1,0,0,19.72h19.73a9.86,9.86,0,0,0,0-19.72Z"/>     <path fill="currentColor"           d="M284.73,375.65a9.88,9.88,0,0,0,4.4-1L368,335.18a9.86,9.86,0,0,0,0-17.65l-78.89-39.45a9.86,9.86,0,0,0-13.22,4.42,9.67,9.67,0,0,0-1,4.41v78.88A9.85,9.85,0,0,0,284.73,375.65Zm9.86-72.79,47,23.49-47,23.49Z"/>     <path fill="currentColor"           d="M235.42,434.82a9.86,9.86,0,0,0-9.86,9.86v9.86H146.68a9.86,9.86,0,0,0,0,19.72h78.88v9.86a9.86,9.86,0,0,0,19.72,0v-9.86H442.49a9.86,9.86,0,1,0,0-19.72H245.28v-9.86A9.85,9.85,0,0,0,235.42,434.82Z"/>     <path fill="currentColor" d="M501.65,474.26a9.86,9.86,0,1,0,0-19.72H481.93a9.86,9.86,0,1,0,0,19.72Z"/> </svg></g>             <g id="iconText" transform="translate(0 300)" style="color: #ffffff;font-size: 60px;font-family: arial;text-transform: uppercase;">                 <text id="iconText" x="200" y="0" fill="currentColor" dominant-baseline="middle" text-anchor="middle">vob</text>             </g>         </svg>