<svg class="preview-svg" width="300" height="300" viewBox="0 0 400 400" xmlns="http://www.w3.org/2000/svg" version="1.1" style="background-color: #00743e;">             <g id="iconBackground" transform="translate(0 0)">                 <rect width="400" height="400" fill="#00743e" rx="0"/>             </g>             <g id="iconFrame" transform="translate(6 6)" style="color: #ffffff;stroke-width: 4px;"><svg width="400" height="400" viewBox="0 0 400 400" version="1.1" xmlns="http://www.w3.org/2000/svg"><g transform="translate(74 44)"><rect id="frame-rect" width="240" height="300" rx="20" transform="translate(0.606)" fill="none" stroke="currentColor" stroke-miterlimit="10"></rect><line id="frame-line" x2="240" transform="translate(0 200)" fill="none" stroke="currentColor" stroke-linecap="butt" stroke-linejoin="round"></line></g></svg></g>             <g id="iconIcon" transform="translate(120 65)" style="color: #ffffff"><svg xmlns="http://www.w3.org/2000/svg" viewBox="0 0 659.22 649.53" width="160" height="160"><defs><style>.cls-1{fill:#231f20;}</style></defs><title>XLS </title><rect fill="currentColor" x="71.09" y="167.57" width="150.73" height="49.79"/><rect fill="currentColor" x="244.36" y="167.57" width="150.73" height="49.79"/><rect fill="currentColor" x="417.52" y="167.57" width="150.73" height="49.79"/><rect fill="currentColor" x="71.09" y="238.59" width="150.73" height="49.79"/><rect fill="currentColor" x="244.36" y="238.59" width="150.73" height="49.79"/><rect fill="currentColor" x="417.52" y="238.59" width="150.73" height="49.79"/><rect fill="currentColor" x="71.09" y="307.06" width="150.73" height="49.79"/><rect fill="currentColor" x="244.36" y="307.06" width="150.73" height="49.79"/><rect fill="currentColor" x="417.52" y="307.06" width="150.73" height="49.79"/><rect fill="currentColor" x="71.09" y="378.07" width="150.73" height="49.79"/><rect fill="currentColor" x="244.36" y="378.07" width="150.73" height="49.79"/><rect fill="currentColor" x="417.52" y="378.07" width="150.73" height="49.79"/><rect fill="currentColor" x="71.09" y="446.55" width="150.73" height="49.79"/><rect fill="currentColor" x="244.36" y="446.55" width="150.73" height="49.79"/><rect fill="currentColor" x="417.52" y="446.55" width="150.73" height="49.79"/></svg></g>             <g id="iconText" transform="translate(0 300)" style="color: #ffffff;font-size: 60px;font-family: arial;text-transform: uppercase;">                 <text id="iconText" x="200" y="0" fill="currentColor" dominant-baseline="middle" text-anchor="middle">xls</text>             </g>         </svg>