<svg class="preview-svg" width="300" height="300" viewBox="0 0 400 400" xmlns="http://www.w3.org/2000/svg" version="1.1" style="border-radius: 4%;background-color: #90D396;">             <g id="iconBackground" transform="translate(0 0)">                 <rect width="400" height="400" fill="#90D396" rx="0"/>             </g>             <g id="iconFrame" transform="translate(6 6)" style="color: #ffffff;stroke-width: 4px;"><svg width="400" height="400" viewBox="0 0 400 400" version="1.1" xmlns="http://www.w3.org/2000/svg"><g transform="translate(74 44)"><rect id="frame-rect" width="240" height="300" rx="20" transform="translate(0.606)" fill="none" stroke="currentColor" stroke-miterlimit="10"></rect><line id="frame-line" x2="240" transform="translate(0 200)" fill="none" stroke="currentColor" stroke-linecap="butt" stroke-linejoin="round"></line></g></svg></g>             <g id="iconIcon" transform="translate(120 65)" style="color: #ffffff"><svg xmlns="http://www.w3.org/2000/svg" viewBox="0 0 659.22 649.53" width="160" height="160">     <path fill="currentColor"           d="M568.28,307.67c-32.3-31.36-61.81-59.82-91.07-88.54-9.25-9.08-22.19-19.31-9.33-32.88,13.47-14.21,24.87-3,35.21,7.37,30.83,31,61.33,62.47,93,92.64,16.13,15.37,17.5,27.76.86,43.68-32.24,30.86-62.6,63.71-95.51,93.79-7.34,6.7-26.57,11.19-32.41,6.6-14.18-11.11-2.12-22.94,7.39-32.32C505.63,369.16,535,340.43,568.28,307.67Z"/>     <path fill="currentColor"           d="M99,308.32c32.61,32.07,61.91,60.79,91.1,89.62,9.53,9.41,21.38,21.3,7.3,32.36-5.81,4.57-25,.08-32.32-6.61-32.89-30.07-63.35-62.78-95.42-93.78-14.84-14.34-17-26.35-1.08-41.7,32.79-31.51,64.63-64,96.62-96.35,10.07-10.17,22.31-19,32.6-5.22,4.12,5.51-.73,23.26-7.16,30.17C162.17,247.43,131.63,276.13,99,308.32Z"/>     <circle fill="currentColor" cx="249.88" cy="305.85" r="21.07"/>     <circle fill="currentColor" cx="325.71" cy="305.85" r="21.07"/>     <circle fill="currentColor" cx="399.45" cy="305.85" r="21.07"/> </svg></g>             <g id="iconText" transform="translate(0 300)" style="color: #ffffff;font-size: 60px;font-family: arial;text-transform: uppercase;">                 <text id="iconText" x="200" y="0" fill="currentColor" dominant-baseline="middle" text-anchor="middle">xml</text>             </g>         </svg>