<svg width="16" height="16" viewBox="0 0 16 16" fill="none" xmlns="http://www.w3.org/2000/svg">
<path fill-rule="evenodd" clip-rule="evenodd" d="M7.059 0.2352C7.64714 -0.0784 8.35286 -0.0784 8.941 0.2352L14.941 3.4352C15.5929 3.78279 16.0001 4.46143 16 5.2002V5.5142L9.291 9.4462L8 8.7282L6.709 9.4462L1.00516e-08 5.5142V5.2002C-7.38689e-05 4.46143 0.407112 3.78279 1.059 3.4352L7.059 0.2352ZM10.307 10.0102L16 6.6732V13.1722L10.307 10.0102ZM15.941 14.2842L8 9.8722L0.059 14.2842C0.281232 15.1752 1.08169 15.8004 2 15.8002H14C14.9183 15.8004 15.7188 15.1752 15.941 14.2842ZM5.693 10.0102L1.00516e-08 13.1732V6.6732L5.693 10.0102Z" fill="#7A8B9A"/>
</svg>
