<svg style="position: absolute; width: 0; height: 0; overflow: hidden;" version="1.1"
     xmlns="http://www.w3.org/2000/svg">
    <defs>
        <symbol id="tcb-icon-capture_testimonials" viewBox="0 0 32 32">
            <path fill="#333333"
                  d="M32 15.3c-0.363-8.265-6.944-14.882-15.162-15.298l-0.038-0.002h-1.5c-8.286 0.396-14.904 7.014-15.299 15.264l-0.001 0.036v1.5c0.418 8.256 7.035 14.837 15.266 15.199l0.034 0.001h1.5c8.223-0.414 14.786-6.977 15.198-15.162l0.002-0.038v-1.5zM16.8 30.5v-4.5h-1.5v4.5c-7.405-0.437-13.308-6.306-13.798-13.656l-0.002-0.044h4.5v-1.5h-4.5c0.447-7.435 6.365-13.353 13.759-13.798l0.041-0.002v4.5h1.5v-4.5c7.395 0.41 13.29 6.305 13.698 13.662l0.002 0.038h-4.5v1.5h4.5c-0.437 7.405-6.306 13.308-13.656 13.798l-0.044 0.002z"></path>
            <path fill="#333333" d="M11.3 19.6v-3.6l1.5-3.6h2l-1.1 3.4h1.7v3.7h-4.1v0.1z"></path>
            <path fill="#333333" d="M16.7 19.6v-3.6l1.5-3.6h2l-1.2 3.4h1.7v3.7h-4v0.1z"></path>
        </symbol>

        <symbol viewBox="0 0 41 32" id="tcb-icon-display_testimonials">
            <path fill="#333333"
                  d="M37.806 0h-34.323c-0.035-0.001-0.075-0.002-0.116-0.002-1.856 0-3.362 1.502-3.368 3.356v19.614c0 0.004-0 0.008-0 0.013 0 1.917 1.554 3.471 3.471 3.471 0.005 0 0.009 0 0.014-0h16.386v3.484h-7.484c-0.004-0-0.008-0-0.013-0-0.563 0-1.019 0.456-1.019 1.019 0 0.005 0 0.009 0 0.014v-0.001c-0.002 0.024-0.003 0.052-0.003 0.081 0 0.527 0.428 0.955 0.955 0.955 0.028 0 0.057-0.001 0.084-0.004l-0.004 0h16.903c0.004 0 0.008 0 0.013 0 0.563 0 1.019-0.456 1.019-1.019 0-0.005-0-0.009-0-0.014v0.001c-0.012-0.575-0.481-1.037-1.058-1.037-0.036 0-0.072 0.002-0.108 0.005l0.004-0h-7.484v-3.613h16.129c0.004 0 0.008 0 0.013 0 1.917 0 3.471-1.554 3.471-3.471 0-0.005 0-0.009-0-0.014v0.001-19.484c-0.006-1.855-1.512-3.357-3.368-3.357-0.041 0-0.082 0.001-0.122 0.002l0.006-0zM39.355 22.968c-0.014 0.849-0.699 1.534-1.547 1.548l-0.001 0h-34.323c-0.849-0.014-1.534-0.699-1.548-1.547l-0-0.001v-19.613c0.014-0.849 0.699-1.534 1.547-1.548l0.001-0h34.452c0.849 0.014 1.534 0.699 1.548 1.547l0 0.001v19.613h-0.129z"></path>
            <path fill="#333333"
                  d="M33.677 16.129h-26.065c-0.004 0-0.008 0-0.013 0-0.563 0-1.019-0.456-1.019-1.019 0-0.005 0-0.009 0-0.014v0.001c-0.002-0.024-0.003-0.052-0.003-0.081 0-0.527 0.428-0.955 0.955-0.955 0.028 0 0.057 0.001 0.084 0.004l-0.004-0h26.194c0.004-0 0.008-0 0.013-0 0.563 0 1.019 0.456 1.019 1.019 0 0.005-0 0.009-0 0.014v-0.001c-0.012 0.575-0.481 1.037-1.058 1.037-0.036 0-0.072-0.002-0.108-0.005l0.004 0z"></path>
            <path fill="#333333" d="M16.645 12v-2.968l1.29-3.097h1.677l-1.032 2.839h1.419v3.097h-3.355v0.129z"></path>
            <path fill="#333333" d="M21.161 12v-2.968l1.29-3.097h1.677l-0.903 2.839h1.419v3.097h-3.484v0.129z"></path>
            <path fill="#333333"
                  d="M33.677 20h-26.065c-0.004 0-0.008 0-0.013 0-0.563 0-1.019-0.456-1.019-1.019 0-0.005 0-0.009 0-0.014v0.001c-0.002-0.024-0.003-0.052-0.003-0.081 0-0.527 0.428-0.955 0.955-0.955 0.028 0 0.057 0.001 0.084 0.004l-0.004-0h26.194c0.004-0 0.008-0 0.013-0 0.563 0 1.019 0.456 1.019 1.019 0 0.005-0 0.009-0 0.014v-0.001c-0.012 0.575-0.481 1.037-1.058 1.037-0.036 0-0.072-0.002-0.108-0.005l0.004 0z"></path>
        </symbol>
    </defs>
</svg>
