<svg xmlns="http://www.w3.org/2000/svg" width="30" height="30" viewBox="0 0 30 30">
    <rect fill="#444" x="9" y="10" width="12" height="2" />
    <rect fill="#444" x="11" y="13" width="8" height="2" />
    <rect fill="none" stroke="#444" stroke-width="2" x="1" y="1" width="28" height="22" />
    <rect fill="none" stroke="#444" stroke-width="2" x="5" y="5" width="20" height="14" />
    <path fill="#444" d="M10.504,27A1.5,1.5,0,1,1,9,28.502,1.50206,1.50206,0,0,1,10.504,27Z" />
    <path fill="#444" d="M15.504,27A1.5,1.5,0,1,1,14,28.502,1.50206,1.50206,0,0,1,15.504,27Z" />
    <path fill="#444" d="M20.504,27A1.5,1.5,0,1,1,19,28.502,1.50206,1.50206,0,0,1,20.504,27Z" />
</svg>
