<?xml version="1.0" encoding="UTF-8" standalone="no"?>
<!-- Created with Inkscape (http://www.inkscape.org/) -->
<svg
   xmlns:svg="http://www.w3.org/2000/svg"
   xmlns="http://www.w3.org/2000/svg"
   version="1.0"
   width="16"
   height="16"
   id="svg2">
  <defs
     id="defs5" />
  <path
     d="M 6.4106436,15.346774 C 6.1681096,14.989304 5.9700996,14.670694 5.9706216,14.638734 C 5.9711656,14.605534 6.1320696,14.457684 6.3459896,14.293824 C 6.8591566,13.900744 7.2488816,13.484214 7.3939356,13.173814 C 7.7330386,12.448154 7.6137576,11.648244 7.0162656,10.641104 C 6.9213836,10.481164 6.6294106,10.051864 6.3674376,9.6870835 C 5.7707336,8.8562236 5.4671256,8.3540336 5.2295716,7.8049536 C 4.9375116,7.1298836 4.8082506,6.6306636 4.7468856,5.9407436 C 4.6477796,4.8265236 4.9761006,3.4905136 5.6278956,2.3557336 C 6.0226086,1.6685336 6.6997026,0.84837363 7.3644976,0.25218367 C 7.6787646,-0.029646332 7.6820296,-0.031486332 7.7628176,0.027483668 C 7.8076176,0.060193668 8.0632306,0.25688367 8.3308476,0.46457367 C 8.5984637,0.67226363 9.3423257,1.2295636 9.9838737,1.7030136 C 10.625423,2.1764736 11.150326,2.5848036 11.150326,2.6104236 C 11.150326,2.6360536 11.081545,2.7090536 10.99748,2.7726536 C 10.70216,2.9960936 10.149172,3.4933636 9.8780397,3.7792936 C 9.0167757,4.6875936 8.6520887,5.7466136 8.8628597,6.7272936 C 8.9760317,7.2538736 9.1840747,7.6987236 9.8808997,8.9041636 C 10.489282,9.9566135 10.688205,10.472564 10.721801,11.085234 C 10.805041,12.603244 10.078537,13.961904 8.6082657,15.037814 C 8.2472356,15.302014 7.0204846,15.996704 6.9149766,15.996704 C 6.8704926,15.996704 6.7202376,15.803074 6.4106436,15.346774 z"
     id="path2388"
     style="fill:#ffffff" />
</svg>
