<svg width="130" height="130" viewBox="0 0 130 130" fill="none" xmlns="http://www.w3.org/2000/svg">
<g clip-path="url(#clip0_13_31)">
<path d="M103.684 86.7746C110.41 86.8825 116.548 86.0195 122.576 84.2933C126.178 83.2504 129.412 84.9766 129.963 88.3929C130.147 89.6515 129.779 91.1619 129.191 92.3127C120.26 110.114 106.036 121.981 86.6299 127.411C49.5816 137.768 11.3938 115.975 2.02149 79.4385C-6.57902 45.8507 12.8273 11.3638 46.3839 0.503545C48.9935 -0.323565 51.2355 -0.215681 53.11 1.76219C55.0212 3.77602 54.7639 6.04158 53.7348 8.45099C45.024 29.0928 47.4131 48.4399 61.4532 66.025C70.7153 77.5686 83.1383 84.2214 98.0238 86.2352C100.082 86.487 102.103 86.5948 103.684 86.7746Z" fill="black"/>
</g>
<defs>
<clipPath id="clip0_13_31">
<rect width="130" height="130" fill="white"/>
</clipPath>
</defs>
</svg>
