<svg width="130" height="130" viewBox="0 0 130 130" fill="none" xmlns="http://www.w3.org/2000/svg">
<g clip-path="url(#clip0_13_43)">
<path d="M64.9379 130C28.8061 129.876 -0.18627 100.821 -2.32043e-05 64.8758C0.186223 28.682 29.2407 -0.124161 65.4966 3.15507e-06C101.256 0.124167 130.124 29.489 130 65.6208C129.814 101.07 100.573 130.062 64.9379 130ZM69.2216 115.473C79.4651 115.287 91.9436 110.01 102.001 99.2693C103.553 97.5931 104.67 95.7307 103.243 93.4336C101.877 91.1987 99.9522 91.0745 97.5931 91.5091C87.3495 93.6199 77.4164 92.4403 67.9178 88.2187C45.7545 78.4097 34.021 55.936 38.4909 31.8481C38.9255 29.6132 38.6151 27.6886 36.4422 26.5091C34.4556 25.3916 32.6552 25.9503 31.1031 27.4403C30.4823 27.999 29.8615 28.5578 29.3027 29.1165C14.8997 43.3954 10.4919 65.2483 18.2521 84.1213C25.9503 103.118 44.3887 115.473 69.2216 115.473Z" fill="black"/>
</g>
<defs>
<clipPath id="clip0_13_43">
<rect width="130" height="130" fill="white"/>
</clipPath>
</defs>
</svg>
