<svg width="130" height="174" viewBox="0 0 130 174" fill="none" xmlns="http://www.w3.org/2000/svg">
<g clip-path="url(#clip0_13_48)">
<path d="M50.5364 75.674C50.5747 80.652 49.3487 84.7425 46.7433 88.4085C41.226 96.0492 31.6092 96.2036 25.8621 88.7172C20.4981 81.6939 20.3831 71.0432 25.5555 63.9042C31.3793 55.839 41.5326 56.0319 47.1264 64.3673C49.5019 67.9175 50.613 71.8922 50.5364 75.674Z" fill="#E5E4E4"/>
<path d="M50.4598 120.631C50.4598 121.287 50.4981 121.904 50.4598 122.56C49.9234 129.545 43.6398 132.748 37.8161 129.005C31.8391 125.146 27.7395 115.112 29.3487 108.244C30.8429 101.876 36.705 99.5223 41.954 103.381C47.7011 107.626 50.0766 113.646 50.4598 120.631Z" fill="#E4E4E4"/>
<path d="M127.471 159.838C120.536 156.326 114.138 152.043 108.352 146.872C93.8314 133.944 83.7931 118.315 80.4981 98.8663C77.6245 82.0799 80.6513 66.181 88.8506 51.324C97.8161 35.1164 110.651 22.9222 127.05 14.4325C128.697 13.5835 130 12.6188 129.962 10.5735C129.923 8.52828 128.544 7.60213 126.858 6.86893C119.655 3.666 112.031 1.96806 104.253 0.887558H104.215C100.843 0.424484 97.4329 0.154358 94.023 0.154358L81.2643 0C76.4751 0 71.6475 0.810379 67.0115 2.08383C66.9732 2.08383 66.9348 2.08383 66.9348 2.12242C33.6015 11.0752 11.6858 32.1836 2.83522 65.6793C-8.5824 108.977 15.4406 153.779 57.203 169.022C62.2605 170.874 67.4329 172.186 72.682 173.074C73.295 173.151 77.6628 173.576 83.2567 173.807C83.2184 173.807 83.1801 173.807 83.1417 173.807C83.1801 173.807 83.2184 173.807 83.2567 173.807C83.7165 173.846 84.1762 173.846 84.6743 173.846C85.9387 173.884 87.203 173.923 88.544 173.923C88.5824 173.923 88.5824 173.884 88.6207 173.884C88.5824 173.884 88.5824 173.923 88.544 173.923C89.1188 173.923 89.6935 173.923 90.2682 173.923C91.7241 173.923 93.2184 173.884 94.6743 173.846C94.7893 173.846 94.9042 173.846 95.0191 173.846C96.9348 173.768 98.7739 173.653 100.536 173.421C100.613 173.421 100.69 173.421 100.766 173.383C100.996 173.344 101.226 173.344 101.418 173.305C110.268 172.456 118.889 170.566 127.126 166.9C128.352 166.359 129.387 165.742 129.847 164.391C130.421 162.539 129.655 160.918 127.471 159.838ZM50.4597 122.56C49.9233 129.545 43.6398 132.748 37.8161 129.005C31.8391 125.146 27.7394 115.112 29.3486 108.244C30.8429 101.876 36.705 99.5223 41.954 103.381C47.7011 107.588 50.1149 113.646 50.4597 120.592C50.4597 121.248 50.5364 121.904 50.4597 122.56ZM46.705 88.4085C41.1877 96.0492 31.5709 96.2036 25.8237 88.7172C20.4597 81.694 20.3448 71.0433 25.5172 63.9042C31.341 55.839 41.4942 56.0319 47.0881 64.3673C49.4636 67.9175 50.5747 71.8922 50.4981 75.674C50.5364 80.652 49.3486 84.7811 46.705 88.4085Z" fill="#030303"/>
</g>
<defs>
<clipPath id="clip0_13_48">
<rect width="130" height="174" fill="white"/>
</clipPath>
</defs>
</svg>
