<svg width="130" height="130" viewBox="0 0 130 130" fill="none" xmlns="http://www.w3.org/2000/svg">
<g clip-path="url(#clip0_15_55)">
<path d="M130 65.0618C129.918 100.846 100.589 130.082 64.9176 129.959C29.1223 129.876 -0.0823767 100.599 6.01981e-06 64.8971C0.0823888 29.1131 29.4107 -0.123511 65.0824 2.38387e-05C100.878 0.123559 130.124 29.4425 130 65.0618ZM117.931 64.5676C117.725 62.5087 117.725 59.9557 117.395 57.4438C114.553 36.6899 98.9417 19.0244 78.5932 13.6712C77.2338 13.3006 76.5336 13.4242 76.5748 15.0301C76.5748 16.1831 76.3688 17.3361 76.2041 18.4891C71.6318 46.3668 41.2738 61.5616 16.353 48.3846C14.8701 47.6022 14.6641 48.0963 14.2934 49.3317C11.8219 57.4026 11.2864 65.5559 12.6458 73.8739C17.3004 102.493 44.7338 122.176 73.3207 117.358C99.23 112.993 117.972 91.0041 117.931 64.5676ZM36.372 41.3842C37.5665 41.2195 39.7497 41.0548 41.8916 40.643C54.455 38.09 64.3821 26.3953 65 13.5889C65.0412 12.3123 65 11.8594 63.3935 11.8594C61.0456 11.9006 58.7389 12.23 56.4734 12.6418C41.315 15.2772 29.493 23.0187 20.8017 35.6605C20.1426 36.6487 20.1838 37.0193 21.2548 37.5958C26.1977 39.943 30.3581 41.2195 36.372 41.3842Z" fill="#060606"/>
<path d="M106.315 70.8679C106.315 83.9627 95.6876 94.5867 82.7123 94.5455C69.6958 94.5043 59.1096 83.8391 59.192 70.7856C59.2744 57.6497 69.7782 47.2316 82.9183 47.2728C95.8112 47.3139 106.315 57.8968 106.315 70.8679ZM82.7947 82.6861C89.2205 82.645 94.5754 77.2918 94.5754 70.8679C94.5754 64.3206 89.2205 59.0909 82.5887 59.1733C76.1217 59.2145 70.808 64.6088 70.9316 70.9915C71.0139 77.4565 76.3688 82.7273 82.7947 82.6861Z" fill="#060606"/>
<path d="M53.1369 94.3808C53.1781 97.675 50.6654 100.31 47.4525 100.393C44.1572 100.475 41.4385 97.8397 41.4385 94.5043C41.4385 91.2512 44.0336 88.6158 47.2465 88.5334C50.4183 88.4922 53.0957 91.1688 53.1369 94.3808Z" fill="#0A0A0A"/>
</g>
<defs>
<clipPath id="clip0_15_55">
<rect width="130" height="130" fill="white"/>
</clipPath>
</defs>
</svg>
