<svg width="130" height="130" viewBox="0 0 130 130" fill="none" xmlns="http://www.w3.org/2000/svg">
<g clip-path="url(#clip0_16_60)">
<path d="M66.0992 130C31.4374 128.828 5.7159 106.697 0.732814 73.2075C-3.66403 43.4555 12.7509 15.0226 39.8647 3.51749C42.8692 2.19844 45.947 1.09922 49.0981 0.293136C53.9346 -0.952636 57.4521 2.19844 56.3529 7.10824C53.4217 20.8117 54.8873 33.8557 61.336 46.46C70.5693 64.4871 92.5536 76.8715 112.779 74.8929C116.15 74.5998 119.521 74.0868 122.892 73.5006C127.728 72.6945 131.026 76.1387 129.634 80.9019C121.939 106.99 104.645 122.892 78.1905 128.828C74.0135 129.78 69.7633 129.853 66.0992 130ZM43.9684 13.9966C23.5964 21.4713 7.03496 46.3134 11.4318 72.9143C15.2424 96.1443 33.7824 116.077 60.7497 119.081C83.54 121.646 108.895 106.477 116.003 86.0316C74.8929 89.4025 40.0846 55.2537 43.9684 13.9966Z" fill="#0C0D0D"/>
</g>
<defs>
<clipPath id="clip0_16_60">
<rect width="130" height="130" fill="white"/>
</clipPath>
</defs>
</svg>
