<svg width="130" height="138" viewBox="0 0 130 138" fill="none" xmlns="http://www.w3.org/2000/svg">
<g clip-path="url(#clip0_16_62)">
<path d="M0 68.7715C0 32.1481 28.5634 2.10045 65.0915 -0.000145656C67.5634 -0.182806 69.7606 -0.000145594 70.8592 2.5571C71.8662 5.02302 70.4014 6.75829 68.5704 8.40224C44.7676 29.9562 42.7535 62.8351 64.6338 85.6676C79.9225 101.559 98.9648 106.034 120.296 99.1845C121.486 98.8192 122.585 98.2712 123.775 97.9972C125.789 97.4492 127.711 97.5406 129.085 99.3672C130.549 101.285 129.817 103.02 128.627 104.756C115.993 124.118 98.3239 134.986 74.9789 137.543C39.1831 141.47 0.549296 112.61 0 68.7715ZM53.3732 11.1421C37.2606 13.5167 13.4577 31.5088 9.24648 61.1911C5.67606 86.2156 20.9648 113.523 45.5 124.3C68.4789 134.347 99.1479 127.954 113.155 110.053C86.1479 113.067 64.3592 104.208 50.0775 80.9184C35.7042 57.3552 38.4507 33.8834 53.3732 11.1421Z" fill="#111112"/>
</g>
<defs>
<clipPath id="clip0_16_62">
<rect width="130" height="138" fill="white"/>
</clipPath>
</defs>
</svg>
