<svg width="130" height="130" viewBox="0 0 130 130" fill="none" xmlns="http://www.w3.org/2000/svg">
<g clip-path="url(#clip0_16_64)">
<path d="M66.3549 130C34.4225 128.901 10.6197 110.507 2.41691 81.4149C-7.47042 46.3867 13.9887 9.16011 49.1437 0.293142C53.9775 -0.95263 57.4197 2.19844 56.3944 7.18153C52.8056 23.3033 55.1493 38.5457 64.9634 52.0293C76.6817 68.2244 92.7944 75.9189 112.862 74.9662C116.304 74.8196 119.6 74.2334 122.969 73.5739C127.656 72.6945 131.099 76.1387 129.78 80.6821C122.456 105.671 106.344 121.646 81.0028 128.168C78.4394 128.828 75.8028 129.267 73.093 129.634C70.5296 129.927 67.9662 129.927 66.3549 130ZM43.9437 13.9966C23.4366 21.3247 8.3493 46.3867 10.7662 68.9572C13.6958 95.9245 33.7634 116.077 60.7155 119.154C83.493 121.719 108.687 106.697 116.011 86.1049C74.4845 89.4025 40.062 54.9606 43.9437 13.9966Z" fill="#0C0D0D"/>
<path d="M113.594 10.9188C116.597 10.9188 119.087 13.4836 119.087 16.5614C119.014 19.4927 116.597 21.9109 113.741 21.8377C110.738 21.7644 108.028 19.1263 108.175 16.2683C108.248 13.4836 110.811 10.9921 113.594 10.9188Z" fill="#141415"/>
<path d="M97.3352 37.7396C97.4085 40.8907 95.138 43.1624 91.9155 43.2356C88.7662 43.3089 86.7155 41.2571 86.6423 38.106C86.569 34.8084 88.8394 32.4634 91.9887 32.4634C94.9183 32.4634 97.262 34.8084 97.3352 37.7396Z" fill="#121212"/>
<path d="M75.6563 16.3417C72.8732 16.415 70.3831 13.9234 70.3099 11.0655C70.2366 8.13424 72.4338 5.71597 75.3634 5.56941C78.5127 5.42285 81.0028 7.62127 81.076 10.7723C81.1493 13.8501 78.8056 16.2684 75.6563 16.3417Z" fill="#121213"/>
<path d="M124.361 54.3743C124.287 57.4521 122.017 59.7238 119.014 59.6505C116.011 59.6505 113.741 57.3055 113.741 54.2277C113.741 51.0034 116.085 48.7317 119.307 48.8049C122.31 49.0248 124.361 51.2232 124.361 54.3743Z" fill="#111111"/>
</g>
<defs>
<clipPath id="clip0_16_64">
<rect width="130" height="130" fill="white"/>
</clipPath>
</defs>
</svg>
