<svg width="130" height="130" viewBox="0 0 130 130" fill="none" xmlns="http://www.w3.org/2000/svg">
<g clip-path="url(#clip0_3_61)">
<path d="M64.9245 130C62.9617 128.947 61.0995 128.245 59.5393 127.092C55.0097 123.783 50.6814 120.224 46.1014 117.015C44.6419 115.962 42.6791 115.26 40.9176 114.96C35.0794 114.007 29.1406 113.355 23.3024 112.453C19.729 111.901 17.7662 109.946 17.2126 106.437C16.3066 100.571 15.6524 94.705 14.6961 88.8893C14.3941 87.0343 13.6392 85.0289 12.532 83.4748C9.3109 78.9125 5.78786 74.5507 2.36548 70.0887C-0.603931 66.1782 -0.65426 63.3205 2.31516 59.41C5.73753 54.8978 9.3109 50.4358 12.6326 45.8234C13.6895 44.3695 14.3941 42.4142 14.6961 40.6595C15.6524 34.8438 16.3066 28.9279 17.2126 23.1122C17.7662 19.5025 19.6787 17.5974 23.2521 17.0459C29.1406 16.1435 35.0291 15.4917 40.8672 14.5392C42.7294 14.2384 44.7426 13.4863 46.3028 12.3834C50.8827 9.17472 55.2613 5.66527 59.7406 2.25609C63.767 -0.802141 66.5351 -0.752006 70.6117 2.35636C75.091 5.76554 79.4696 9.27499 84.0496 12.4836C85.6098 13.5866 87.6229 14.2384 89.4851 14.5392C95.1723 15.4917 100.91 16.0933 106.597 16.9958C110.523 17.5974 112.385 19.4524 112.989 23.3128C113.895 29.0783 114.499 34.894 115.455 40.6094C115.757 42.4643 116.512 44.4697 117.619 46.0239C120.84 50.5862 124.363 54.948 127.786 59.41C130.856 63.4208 130.805 66.1782 127.685 70.2893C124.313 74.7513 120.79 79.113 117.518 83.6753C116.462 85.1793 115.757 87.0343 115.455 88.8392C114.499 94.6047 113.895 100.42 112.989 106.186C112.385 110.096 110.523 111.951 106.647 112.553C100.96 113.455 95.2226 114.057 89.5354 115.01C87.5726 115.361 85.4588 116.062 83.8483 117.165C79.2683 120.374 74.94 123.984 70.4104 127.243C68.7999 128.346 66.8874 128.997 64.9245 130ZM64.9749 28.7775C45.2459 28.7775 29.0399 44.8207 28.8889 64.5739C28.7379 84.2769 45.1452 100.671 64.9749 100.671C84.7039 100.671 100.91 84.5777 101.061 64.8747C101.212 45.1716 84.8548 28.8276 64.9749 28.7775Z" fill="black"/>
</g>
<defs>
<clipPath id="clip0_3_61">
<rect width="130" height="130" fill="white"/>
</clipPath>
</defs>
</svg>
