<svg width="106" height="106" viewBox="0 0 106 106" fill="none" xmlns="http://www.w3.org/2000/svg">
<g clip-path="url(#clip0_9_6)">
<path d="M105.987 52.3373C105.656 23.1608 81.6733 -0.437496 52.192 -0.000245836C23.201 0.437004 -0.463504 24.2473 0.0134955 53.9008C0.477246 82.9182 24.3405 106.397 53.782 106C82.7597 105.576 106.345 81.8318 105.987 52.3373ZM53.0002 76.5715C52.987 76.5715 52.9738 76.5715 52.9473 76.5715C52.9473 82.8652 52.9473 89.1722 52.9473 95.4792C37.5905 94.883 25.4402 88.523 17.159 75.5645C8.361 61.811 8.308 44.427 16.894 30.8325C25.2017 17.662 37.405 11.1298 52.9473 10.507C52.9473 16.814 52.9473 23.121 52.9473 29.4148C52.9605 29.4148 52.9737 29.4148 53.0002 29.4148C66.025 29.4148 76.572 39.975 76.572 52.9865C76.572 66.0245 66.0117 76.5715 53.0002 76.5715Z" fill="black"/>
<path d="M29.4283 53C29.4283 65.9983 39.962 76.5453 52.947 76.5718C52.947 60.844 52.947 45.1428 52.947 29.4283C39.9488 29.4548 29.4283 40.0018 29.4283 53Z" fill="black"/>
</g>
<defs>
<clipPath id="clip0_9_6">
<rect width="106" height="106" fill="white"/>
</clipPath>
</defs>
</svg>
