<svg width="106" height="106" viewBox="0 0 106 106" fill="none" xmlns="http://www.w3.org/2000/svg">
<g clip-path="url(#clip0_9_13)">
<path d="M3.4825e-06 53.6625C0.344503 82.839 24.327 106.437 53.8083 106C82.7993 105.563 106.464 81.7525 105.987 52.1123C105.523 23.0815 81.6598 -0.384251 52.2183 -1.30595e-06C23.2405 0.423999 -0.344497 24.168 3.4825e-06 53.6625ZM53 22.2997C53.0133 22.2997 53.0265 22.2997 53.053 22.2997C53.053 18.3777 53.053 14.4557 53.053 10.5205C68.4098 11.1167 80.56 17.4767 88.8413 30.4352C97.6393 44.1888 97.6923 61.5727 89.1063 75.1672C80.7853 88.3377 68.5953 94.87 53.053 95.4928C53.053 91.5575 53.053 87.6355 53.053 83.7135C53.0398 83.7135 53.0265 83.7135 53 83.7135C36.04 83.7135 22.2865 69.96 22.2865 53C22.2865 36.04 36.04 22.2997 53 22.2997Z" fill="black"/>
<path d="M53 73.1135C64.1084 73.1135 73.1135 64.1084 73.1135 53C73.1135 41.8916 64.1084 32.8865 53 32.8865C41.8916 32.8865 32.8865 41.8916 32.8865 53C32.8865 64.1084 41.8916 73.1135 53 73.1135Z" fill="black"/>
</g>
<defs>
<clipPath id="clip0_9_13">
<rect width="106" height="106" fill="white"/>
</clipPath>
</defs>
</svg>
