<svg viewBox="0 0 349 349" fill="none" xmlns="http://www.w3.org/2000/svg">
<path fill-rule="evenodd" clip-rule="evenodd" d="M174.5 280.166C232.858 280.166 280.166 232.858 280.166 174.5C280.166 116.143 232.858 68.8342 174.5 68.8342C116.142 68.8342 68.834 116.143 68.834 174.5C68.834 232.858 116.142 280.166 174.5 280.166ZM115.242 234.363C131.038 250.159 152.463 259.033 174.802 259.033V174.802L174.802 90.5713C152.463 90.5713 131.038 99.4456 115.242 115.242C99.4454 131.038 90.571 152.463 90.571 174.802C90.571 197.142 99.4454 218.566 115.242 234.363Z" fill="#121116"/>
<rect x="166.65" y="0.000244141" width="16.3028" height="49.5121" rx="8.15138" fill="#121116"/>
<rect x="166.65" y="299.488" width="16.3028" height="49.5121" rx="8.15138" fill="#121116"/>
<rect x="292.141" y="45.361" width="16.3028" height="49.5121" rx="8.15138" transform="rotate(45 292.141 45.361)" fill="#121116"/>
<rect x="80.3711" y="257.131" width="16.3028" height="49.5121" rx="8.15138" transform="rotate(45 80.3711 257.131)" fill="#121116"/>
<rect x="45.3608" y="55.963" width="16.3028" height="49.5121" rx="8.15138" transform="rotate(-45 45.3608 55.963)" fill="#121116"/>
<rect x="257.131" y="267.733" width="16.3028" height="49.5121" rx="8.15138" transform="rotate(-45 257.131 267.733)" fill="#121116"/>
<rect y="182.009" width="16.3028" height="49.5121" rx="8.15138" transform="rotate(-90 0 182.009)" fill="#121116"/>
<rect x="299.488" y="182.009" width="16.3028" height="49.5121" rx="8.15138" transform="rotate(-90 299.488 182.009)" fill="#121116"/>
</svg>
