<svg width="130" height="130" viewBox="0 0 130 130" fill="none" xmlns="http://www.w3.org/2000/svg">
<g clip-path="url(#clip0_6_75)">
<path d="M102.166 66.5179C101.355 87.4983 83.7711 103.128 63.7226 102.377C42.8925 101.595 27.1122 84.0717 27.8937 63.9029C28.6752 42.9827 46.3191 27.3526 66.3977 28.1341C87.2879 28.9457 102.858 46.5295 102.166 66.5179ZM96.8763 65.2555C96.8763 47.7318 82.4786 33.3942 64.9549 33.4243C47.5214 33.4543 33.1838 47.7619 33.1538 65.2254C33.1237 82.7491 47.4613 97.1168 64.985 97.1468C82.5087 97.1168 96.8763 82.7491 96.8763 65.2555Z" fill="#090909"/>
<path d="M74.333 12.4441C74.5133 15.0591 74.2728 17.9747 72.1989 20.4695C69.7041 23.4452 65.6763 24.6175 62.0393 23.4152C58.4023 22.1828 55.7572 18.666 55.7272 14.7886C55.7272 12.2938 55.4266 9.79898 55.9676 7.30419C56.9896 2.58511 61.1977 -0.420669 66.1873 0.0301982C70.5156 0.42095 74.2127 4.44869 74.333 8.98742C74.363 9.97933 74.333 11.0013 74.333 12.4441ZM61.1075 11.9331C61.1075 12.925 61.0474 13.9169 61.1075 14.9389C61.2278 16.9527 62.9411 18.5458 64.985 18.5458C66.9989 18.5759 68.8324 16.9828 68.9226 14.999C69.0127 12.9551 69.0127 10.9111 68.9226 8.86719C68.8324 6.85332 67.059 5.35043 64.985 5.35043C62.911 5.38049 61.2278 6.91343 61.1075 8.92731C61.0474 9.91921 61.1075 10.9412 61.1075 11.9331Z" fill="#090909"/>
<path d="M117.797 74.2728C116.534 74.1526 115.061 74.4231 113.558 74.0925C108.719 72.9503 105.803 68.9526 106.194 63.933C106.525 59.6647 110.342 55.9676 114.911 55.7272C117.436 55.5769 120.021 55.4266 122.546 55.9075C127.385 56.8393 130.451 61.1376 129.94 66.2775C129.519 70.6358 125.431 74.2428 120.893 74.2728C119.931 74.3029 118.999 74.2728 117.797 74.2728ZM118.067 68.8925C119.059 68.8925 120.051 68.9226 121.073 68.8624C123.117 68.7422 124.68 67.089 124.71 65.0451C124.74 63.0613 123.177 61.1676 121.193 61.0775C119.149 60.9572 117.105 60.9873 115.061 61.0775C113.047 61.1676 111.514 62.9711 111.545 65.015C111.545 67.1491 113.108 68.8023 115.242 68.8925C116.173 68.9526 117.135 68.8925 118.067 68.8925Z" fill="#090A0A"/>
<path d="M11.9029 74.2729C9.19769 74.3931 6.52255 74.333 4.11792 72.7399C0.901738 70.5457 -0.691326 66.4578 0.300581 62.7908C1.38266 58.763 4.59885 55.9376 8.77688 55.7272C11.3619 55.607 13.9769 55.4266 16.5619 55.9376C21.2208 56.8393 24.2867 61.1677 23.8659 66.1272C23.4751 70.4856 19.4173 74.2127 14.9387 74.3029C13.9168 74.3029 12.9249 74.2729 11.9029 74.2729ZM11.933 68.8925C12.8948 68.8925 13.8266 68.9226 14.7884 68.8925C16.9526 68.8023 18.5156 67.1792 18.5156 65.0151C18.5457 62.8509 16.9225 61.1075 14.6983 61.0474C12.8647 60.9873 11.0012 60.9873 9.16763 61.0474C7.00347 61.1075 5.29018 62.911 5.32023 65.0151C5.35029 67.1191 6.97341 68.7723 9.07746 68.8925C10.0393 68.9526 11.0012 68.8925 11.933 68.8925Z" fill="#090A0A"/>
<path d="M38.6543 100.634C38.6543 103.038 37.8728 105.172 36.2196 106.886C34.7769 108.419 33.304 109.921 31.741 111.334C28.104 114.64 22.4832 114.43 19.0266 110.913C15.5399 107.366 15.3896 101.806 18.726 98.1989C20.1087 96.696 21.5514 95.2231 23.0844 93.8405C26.03 91.1653 29.4867 90.5942 33.0936 92.1572C36.7006 93.7203 38.504 96.696 38.6543 100.634ZM25.9098 108.328C26.6913 108.388 27.593 107.998 28.3144 107.276C29.637 105.984 30.9595 104.691 32.2219 103.339C33.6647 101.776 33.6647 99.4312 32.3121 98.0185C31.1098 96.726 27.9838 96.5457 26.6312 97.8081C25.2185 99.1006 23.8959 100.453 22.6034 101.866C21.4913 103.098 21.341 104.571 22.0324 106.044C22.7237 107.517 23.926 108.328 25.9098 108.328Z" fill="#080909"/>
<path d="M74.333 118.097C74.4833 121.043 74.333 123.898 72.4093 126.363C70.0648 129.399 66.1573 130.721 62.5203 129.639C58.6729 128.527 55.9075 125.311 55.7573 121.403C55.637 118.758 55.3966 116.113 55.9677 113.468C56.9596 108.779 61.1677 105.743 65.9769 106.134C70.4856 106.525 74.2127 110.583 74.3029 115.242C74.363 116.203 74.333 117.135 74.333 118.097ZM68.9526 118.037C68.9526 117.135 68.9827 116.234 68.9526 115.332C68.8625 113.077 67.2393 111.514 65.0151 111.514C62.7908 111.514 61.1677 113.108 61.1075 115.362C61.0775 117.165 61.0775 118.969 61.1075 120.742C61.1677 122.967 62.8509 124.65 64.9549 124.71C67.1191 124.77 68.8925 123.027 68.9526 120.712C68.9827 119.81 68.9526 118.939 68.9526 118.037Z" fill="#090909"/>
<path d="M91.4058 100.543C91.5561 96.5757 93.3896 93.6601 97.0567 92.1272C100.694 90.5942 104.12 91.2254 107.066 93.9006C108.509 95.2231 109.861 96.6058 111.214 98.0185C114.671 101.655 114.58 107.306 111.094 110.883C107.547 114.52 101.866 114.671 98.1387 111.184C96.726 109.861 95.3434 108.449 93.9908 107.066C92.2174 105.262 91.3457 103.098 91.4058 100.543ZM108.358 104.15C108.419 103.549 108.208 102.828 107.727 102.227C106.254 100.483 104.661 98.8 102.858 97.3873C101.385 96.2451 99.0705 96.5757 97.8081 97.9283C96.4856 99.341 96.3353 101.655 97.6278 103.098C98.9804 104.631 100.453 106.044 101.956 107.427C103.188 108.539 104.691 108.599 106.134 107.908C107.607 107.246 108.358 105.984 108.358 104.15Z" fill="#080808"/>
<path d="M91.4058 29.3064C91.4058 26.8416 92.2774 24.7075 93.9607 22.9341C95.3133 21.5214 96.6959 20.1387 98.1086 18.7861C101.776 15.3295 107.366 15.4197 110.943 18.9665C114.52 22.5133 114.701 28.1041 111.304 31.8012C109.921 33.3041 108.479 34.7769 106.946 36.1595C104 38.8347 100.513 39.3757 96.9364 37.8127C93.2994 36.2497 91.4959 33.274 91.4058 29.3064ZM104.03 21.9422C103.249 21.8821 102.287 22.1225 101.475 22.9341C100.273 24.1364 99.0404 25.3087 97.8682 26.5711C96.3052 28.2243 96.3352 30.5688 97.8381 32.1017C99.4011 33.6948 101.746 33.7549 103.459 32.1318C104.691 30.9595 105.864 29.7272 107.066 28.5249C108.328 27.2624 108.659 25.7896 108.058 24.1364C107.457 22.3931 106.014 21.9723 104.03 21.9422Z" fill="#080808"/>
<path d="M28.4948 37.963C26.1503 38.0832 23.8359 37.1815 21.9723 35.1075C21.0104 34.0254 19.8983 33.0636 18.9064 32.0116C15.3295 28.2243 15.4497 22.6035 19.1168 18.9665C22.7237 15.4197 28.3445 15.3896 32.0717 18.9364C33.4544 20.259 34.807 21.5815 36.0994 22.9642C38.3838 25.3989 39.1653 28.3145 38.3538 31.5306C37.2717 35.9792 34.296 37.963 28.4948 37.963ZM21.7018 25.7896C21.6416 26.541 21.9422 27.4127 22.6336 28.1341C24.0162 29.5769 25.3989 31.0197 26.8717 32.3723C28.4047 33.7549 30.689 33.6046 32.1619 32.1619C33.6047 30.7491 33.8151 28.4046 32.4324 26.8717C31.0798 25.3387 29.607 23.896 28.074 22.5434C26.8416 21.4613 25.3388 21.341 23.8659 22.0624C22.4833 22.7538 21.7018 23.896 21.7018 25.7896Z" fill="#080808"/>
</g>
<defs>
<clipPath id="clip0_6_75">
<rect width="130" height="130" fill="white"/>
</clipPath>
</defs>
</svg>
