<svg width="130" height="130" viewBox="0 0 130 130" fill="none" xmlns="http://www.w3.org/2000/svg">
<g clip-path="url(#clip0_6_87)">
<path d="M65.1053 28.0097C44.6772 27.9796 28.0398 44.4966 28.0097 64.8345C27.9797 85.3529 44.4967 101.99 64.9549 101.99C85.2928 101.99 101.96 85.4733 101.99 65.2256C102.05 44.7072 85.5034 28.0398 65.1053 28.0097Z" fill="black"/>
<path d="M33.034 95.8829C31.981 95.2812 30.928 95.6422 30.0556 96.5147C26.4453 100.125 22.835 103.735 19.2548 107.346C18.1116 108.519 18.0514 109.933 19.0141 110.926C20.007 111.949 21.4511 111.919 22.5943 110.775C26.2648 107.165 29.9051 103.525 33.5154 99.8241C33.9667 99.3728 34.1773 98.6508 34.6587 97.8084C34.087 97.1465 33.6959 96.274 33.034 95.8829Z" fill="black"/>
<path d="M100.185 96.7855C98.7711 95.4015 97.327 95.2511 96.274 96.3342C95.2511 97.3872 95.4015 98.8012 96.7554 100.155C99.0118 102.442 101.268 104.698 103.555 106.954C104.909 108.308 106.142 109.782 107.646 110.926C108.308 111.437 109.542 111.588 110.354 111.347C111.016 111.136 111.437 110.113 112.039 109.361C111.467 108.489 111.136 107.737 110.595 107.195C107.135 103.705 103.675 100.245 100.185 96.7855Z" fill="black"/>
<path d="M30.1458 33.5455C31.259 34.6286 32.673 34.6286 33.6357 33.6959C34.6586 32.7031 34.6586 31.259 33.4853 30.1157C29.9051 26.4453 26.2948 22.835 22.6545 19.2548C22.143 18.7734 21.421 18.5027 20.5485 18.0213C19.8264 18.6531 18.8035 19.1044 18.6531 19.7663C18.4425 20.5786 18.623 21.8722 19.1645 22.474C22.7147 26.2347 26.4152 29.875 30.1458 33.5455Z" fill="black"/>
<path d="M99.8542 33.5455C103.555 29.875 107.255 26.2046 110.896 22.474C111.317 22.0528 111.497 21.3909 111.979 20.5485C111.377 19.8264 110.896 18.9539 110.174 18.5628C109.181 17.9912 108.158 18.4124 107.345 19.2548C103.735 22.8651 100.125 26.4754 96.5147 30.1157C95.3714 31.259 95.3413 32.7332 96.3642 33.6959C97.3571 34.6286 98.741 34.6286 99.8542 33.5455Z" fill="black"/>
<path d="M64.9248 20.729C66.3388 20.7892 67.3918 19.6158 67.3918 17.931C67.4219 15.3737 67.3918 12.8165 67.3918 10.2592C67.3918 7.76208 67.3918 5.23489 67.3918 2.73779C67.3918 1.0229 66.5193 0.0601643 65.0752 -6.96572e-06C63.5409 -0.0300926 62.6082 0.962733 62.6082 2.73779C62.6082 7.79217 62.6082 12.8766 62.6082 17.931C62.6082 19.5557 63.571 20.6688 64.9248 20.729Z" fill="black"/>
<path d="M17.8709 67.3918C19.5857 67.3918 20.729 66.399 20.729 64.985C20.729 63.5709 19.5557 62.6082 17.8408 62.6082C12.8165 62.6082 7.82226 62.6082 2.79796 62.6082C0.992826 62.6082 0 63.5108 0 65.015C0 66.5193 0.992826 67.3918 2.82805 67.3918C5.32516 67.3918 7.85235 67.3918 10.3495 67.3918C12.8466 67.3918 15.3437 67.4219 17.8709 67.3918Z" fill="black"/>
<path d="M127.232 62.6082C122.208 62.6082 117.214 62.6082 112.189 62.6082C110.444 62.6082 109.301 63.5709 109.301 64.985C109.271 66.399 110.414 67.3918 112.129 67.4219C114.596 67.452 117.033 67.4219 119.5 67.4219C122.057 67.4219 124.615 67.4219 127.172 67.4219C128.977 67.4219 130 66.5494 130 65.0451C130 63.5108 129.007 62.6082 127.232 62.6082Z" fill="black"/>
<path d="M65.0752 109.271C63.6612 109.241 62.6383 110.384 62.6082 112.069C62.5781 114.566 62.6082 117.093 62.6082 119.59C62.6082 122.148 62.6082 124.705 62.6082 127.262C62.6082 128.977 63.4807 129.94 64.9549 129.97C66.4893 130 67.4219 129.007 67.4219 127.232C67.4219 122.178 67.4219 117.093 67.4219 112.039C67.3918 110.444 66.4291 109.331 65.0752 109.271Z" fill="black"/>
<path d="M13.4783 45.9107C16.0657 47.084 18.6832 48.1972 21.3307 49.19C22.7447 49.7315 24.3092 48.498 24.3994 46.5425C24.1888 46.2115 23.888 45.2789 23.2863 45.0081C20.5785 43.7445 17.8408 42.5712 15.0428 41.5482C13.8394 41.1271 12.7864 41.7288 12.3351 43.0224C11.8537 44.3161 12.305 45.3691 13.4783 45.9107Z" fill="black"/>
<path d="M83.4876 24.3393C83.8186 24.1287 84.6911 23.8579 84.9618 23.2863C86.2254 20.5786 87.3988 17.8408 88.4217 15.0127C88.8429 13.8093 88.2412 12.7262 86.9174 12.305C85.6538 11.8838 84.5707 12.305 84.0292 13.4784C82.8859 16.0056 81.8028 18.5929 80.81 21.2104C80.2384 22.7447 81.5321 24.3694 83.4876 24.3393Z" fill="black"/>
<path d="M47.445 105.751C46.3018 105.3 45.2789 105.931 44.7674 107.075C43.7144 109.452 42.7216 111.828 41.7589 114.235C41.1271 115.8 41.6385 117.123 42.9623 117.605C44.3161 118.116 45.5196 117.545 46.1815 116.01C47.1442 113.784 48.1069 111.527 49.0396 109.241C49.2201 108.82 49.2803 108.399 49.551 107.526C48.8892 107.015 48.2874 106.112 47.445 105.751Z" fill="black"/>
<path d="M115.92 83.7584C113.724 82.8257 111.497 81.8931 109.301 80.9905C108.88 80.81 108.459 80.7498 108.128 80.6295C106.774 80.7799 105.931 81.4719 105.721 82.6753C105.48 83.9088 106.082 84.8415 107.225 85.3228C109.512 86.3157 111.828 87.2784 114.115 88.2111C115.769 88.8729 117.123 88.4517 117.635 87.0979C118.176 85.7139 117.545 84.4804 115.92 83.7584Z" fill="black"/>
<path d="M45.3089 22.9854C45.7903 24.0986 46.9637 24.4295 47.9866 23.9782C48.7688 23.6473 49.3404 22.7447 50.0926 21.9926C48.6484 18.6832 47.4149 15.6445 45.9407 12.7262C45.4293 11.7334 44.1356 11.7334 43.1127 12.305C42.15 12.8466 41.6084 13.7792 41.9694 14.8021C43.0224 17.6001 44.1356 20.3078 45.3089 22.9854Z" fill="black"/>
<path d="M24.0083 81.7727C23.527 80.5392 22.1731 79.9676 20.7591 80.5091C18.3522 81.4418 15.9153 82.3744 13.5686 83.4575C12.8165 83.8186 12.3351 84.7211 12.0343 85.0521C12.0042 87.3386 13.5085 88.4818 15.1632 87.8801C17.6302 86.9775 20.0671 85.9546 22.5041 84.9317C23.9482 84.33 24.4897 83.0664 24.0083 81.7727Z" fill="black"/>
<path d="M84.7512 107.195C84.4504 106.533 83.4876 106.142 83.1567 105.871C81.1109 105.901 79.8774 107.255 80.3888 108.729C81.3515 111.497 82.4647 114.205 83.6982 116.883C84.2398 118.056 85.5034 118.297 86.6767 117.755C87.85 117.214 88.3916 116.191 87.9102 114.927C86.9174 112.31 85.9246 109.722 84.7512 107.195Z" fill="black"/>
<path d="M105.992 48.1972C106.443 49.3705 107.767 50.0625 109.09 49.551C111.618 48.5883 114.115 47.6255 116.552 46.4823C117.274 46.1514 117.725 45.1886 117.996 44.8276C117.936 42.5712 116.401 41.5182 114.716 42.15C112.249 43.0826 109.813 44.0754 107.376 45.1284C106.052 45.7001 105.54 46.9637 105.992 48.1972Z" fill="black"/>
</g>
<defs>
<clipPath id="clip0_6_87">
<rect width="130" height="130" fill="white"/>
</clipPath>
</defs>
</svg>
