<svg width="130" height="130" viewBox="0 0 130 130" fill="none" xmlns="http://www.w3.org/2000/svg">
<g clip-path="url(#clip0_6_106)">
<path d="M23.963 66.105C23.963 88.6005 42.399 106.913 65.0592 106.913C87.7984 106.913 106.077 88.561 106.077 65.8683C106.077 43.2544 87.601 24.7845 64.9803 24.8239C42.2806 24.7845 23.963 43.2544 23.963 66.105ZM91.4303 66.0261C91.4303 80.5495 79.508 92.4287 64.9408 92.3497C50.334 92.3103 38.5697 80.4311 38.6486 65.8683C38.7276 51.3054 50.6893 39.663 65.5329 39.742C79.6265 39.7814 91.4303 51.779 91.4303 66.0261Z" fill="black"/>
<path d="M22.6602 34.8087C23.4497 37.3345 24.9499 37.6897 26.8053 35.8743C29.8451 32.8749 32.8849 29.8361 35.8852 26.7972C37.7012 24.9423 37.3459 23.4032 34.8193 22.6138C30.9505 21.4299 27.0422 20.3248 23.1339 19.1803C22.3049 18.9435 21.5153 18.6673 20.8837 18.4699C19.1467 18.391 18.1992 19.7723 18.6729 21.4693C19.9757 25.8895 21.2785 30.3491 22.6602 34.8087Z" fill="black"/>
<path d="M109.393 18.4305C109.274 18.4305 109.116 18.4305 108.998 18.4699C104.182 19.8907 99.3258 21.3115 94.5095 22.8112C92.8515 23.3242 92.4962 24.9818 93.72 26.2842C96.9572 29.6387 100.273 32.9539 103.629 36.19C105.011 37.5319 106.629 37.1372 107.182 35.3613C108.682 30.6254 110.103 25.85 111.445 21.0747C111.919 19.6934 110.814 18.4305 109.393 18.4305Z" fill="black"/>
<path d="M26.3711 93.7705C25.0289 92.4681 23.4103 92.8628 22.8181 94.6387C21.318 99.3746 19.8968 104.15 18.5545 108.925C18.1597 110.346 19.3046 111.609 21.0021 111.53C25.7789 110.07 30.8716 108.61 35.8852 106.913C37.3064 106.439 37.4249 104.821 36.28 103.637C33.0033 100.322 29.7267 97.0067 26.3711 93.7705Z" fill="black"/>
<path d="M103.826 93.6521C100.392 97.0067 96.9966 100.361 93.641 103.834C92.5357 105.018 92.9699 106.676 94.5095 107.149C99.3258 108.689 104.142 110.109 108.998 111.491C110.38 111.885 111.643 110.741 111.603 109.123C110.143 104.308 108.722 99.2957 107.103 94.323C106.629 92.8628 104.932 92.5471 103.826 93.6521Z" fill="black"/>
<path d="M58.3085 17.2859C60.5982 17.3254 62.8879 17.2859 65.1777 17.2859C67.3489 17.2859 69.5202 17.3254 71.652 17.2859C73.9022 17.2465 74.7707 15.9046 73.7048 13.9314C71.5336 9.78746 69.2833 5.64356 66.9936 1.53913C65.8488 -0.51309 64.1118 -0.51309 62.9669 1.49966C60.6772 5.60409 58.427 9.74799 56.2557 13.8919C55.2688 15.9046 56.0978 17.2465 58.3085 17.2859Z" fill="black"/>
<path d="M128.223 62.7899C124.315 60.6982 120.407 58.5671 116.499 56.4754C115.985 56.1991 115.472 55.844 115.117 55.8834C113.261 55.9229 112.748 56.8306 112.748 58.3303C112.788 62.711 112.748 67.1311 112.748 71.5118C112.748 74.0771 114.13 74.8664 116.459 73.643C120.367 71.5513 124.276 69.4202 128.184 67.3285C129.131 66.8154 130.039 66.2234 130 65C129.96 63.816 129.131 63.2635 128.223 62.7899Z" fill="black"/>
<path d="M71.7309 112.714C69.5202 112.675 67.27 112.714 65.0592 112.714C62.7695 112.714 60.4798 112.675 58.1901 112.714C56.2162 112.754 55.3082 114.135 56.2162 115.871C58.4664 120.173 60.7561 124.396 63.1248 128.619C64.1512 130.434 66.0067 130.434 66.9936 128.658C69.3623 124.435 71.652 120.173 73.8627 115.911C74.8102 114.095 73.8627 112.754 71.7309 112.714Z" fill="black"/>
<path d="M17.291 58.2908C17.2516 56.1597 15.9093 55.252 14.0539 56.1991C9.7508 58.4487 5.52669 60.7377 1.30258 63.1056C-0.47392 64.0923 -0.47392 65.9472 1.34205 66.9733C5.56617 69.3412 9.79028 71.6302 14.0933 73.8798C15.8698 74.7875 17.2121 73.8798 17.2516 71.9065C17.291 69.6964 17.2516 67.4469 17.2516 65.2368C17.3305 62.8689 17.3305 60.5798 17.291 58.2908Z" fill="black"/>
<path d="M64.9803 89.8239C77.8895 89.8634 88.6669 79.2077 88.7459 66.4208C88.7853 53.0419 78.4027 42.4256 65.1382 42.3862C52.15 42.3467 41.4516 52.8446 41.3726 65.7104C41.2937 79.0498 51.7947 89.7845 64.9803 89.8239Z" fill="black"/>
</g>
<defs>
<clipPath id="clip0_6_106">
<rect width="130" height="130" fill="white"/>
</clipPath>
</defs>
</svg>
