<svg width="130" height="77" viewBox="0 0 130 77" fill="none" xmlns="http://www.w3.org/2000/svg">
<g clip-path="url(#clip0_6_144)">
<path d="M10.8534 67.8562C8.44155 67.8562 6.02968 67.8562 3.6982 67.8562C1.6883 67.8562 0.24118 66.974 -7.43555e-06 64.9687C-0.241195 62.9635 1.20593 61.6 3.13543 61.5198C8.44155 61.3594 13.7477 61.3594 19.1342 61.5198C20.9833 61.6 22.4304 62.9635 22.1892 64.9687C22.0284 66.7333 20.8225 67.776 18.893 67.8562C16.2399 67.8562 13.5869 67.8562 10.8534 67.8562Z" fill="#1D1E1E"/>
<path d="M118.825 67.8563C116.413 67.8563 114.001 67.8563 111.67 67.8563C109.499 67.8563 107.891 66.8938 107.811 64.7281C107.73 62.8031 109.258 61.5198 111.187 61.4396C116.413 61.2792 121.558 61.2792 126.784 61.4396C128.633 61.5198 130.161 62.8031 130 64.8083C129.92 66.8135 128.472 67.776 126.463 67.776C123.89 67.8563 121.398 67.8563 118.825 67.8563Z" fill="#1D1E1E"/>
<path d="M35.5349 31.8427C35.5349 33.2865 35.0525 34.3292 33.8466 34.9708C32.6407 35.6125 31.4347 35.5323 30.5504 34.65C26.611 30.8802 22.752 27.1104 18.9734 23.1C17.7674 21.8167 17.7674 20.1323 19.1342 18.7687C20.2597 17.5656 21.7872 17.1646 23.0736 18.3677C27.0933 22.2177 31.0327 26.1479 34.9721 30.0781C35.3741 30.6396 35.3741 31.4417 35.5349 31.8427Z" fill="#1D1E1E"/>
<path d="M97.8417 35.4521C96.3142 35.2917 95.3494 34.7302 94.7867 33.5271C94.2239 32.2437 94.3847 30.8802 95.3494 29.8375C99.0476 26.1479 102.665 22.4583 106.444 18.8489C107.73 17.5656 109.338 17.5656 110.785 18.8489C112.072 20.0521 112.313 21.7364 111.268 22.8594C107.489 27.1906 103.469 31.2812 99.0476 34.9708C98.726 35.2917 98.1633 35.3719 97.8417 35.4521Z" fill="#1C1D1D"/>
<path d="M68.256 10.7477C68.256 13.154 68.256 15.5602 68.256 17.9665C68.256 20.1321 67.452 21.7363 65.1206 21.8165C62.7891 21.8967 61.8243 20.4529 61.8243 18.2071C61.8243 13.2342 61.8243 8.34147 61.8243 3.36855C61.8243 1.36334 62.8695 -0.000199909 64.9598 -0.0804082C67.2913 -0.160617 68.256 1.28313 68.256 3.52897C68.256 6.01543 68.256 8.34147 68.256 10.7477Z" fill="#060707"/>
<path d="M89.159 15.8011C88.0334 18.3677 86.8275 21.4156 85.2196 24.3031C84.496 25.6667 82.8077 25.9073 81.3606 25.025C79.9938 24.2229 79.1899 23.0198 79.7526 21.3354C80.7174 18.7688 81.7625 16.2021 82.9685 13.7156C83.7724 12.0313 85.3 11.55 87.0687 12.1917C88.4354 12.6729 89.0786 13.7958 89.159 15.8011Z" fill="#1A1A1A"/>
<path d="M20.9833 49.8094C18.9734 48.9271 16.0791 47.8042 13.4261 46.3604C12.1397 45.6385 11.4162 44.1948 12.3809 42.5906C13.1849 41.2271 14.3908 40.2646 15.9987 40.826C18.7322 41.7885 21.3852 42.9115 24.0383 44.1146C25.807 44.9167 26.1286 46.5208 25.405 48.2052C24.7619 49.649 23.3951 50.2104 20.9833 49.8094Z" fill="#181919"/>
<path d="M118.182 44.3552C117.378 48.4458 113.197 48.0448 110.544 49.5688C108.776 50.6115 106.766 51.3333 105.158 49.3281C103.55 47.2427 104.354 45.4781 106.444 44.4354C108.776 43.2323 111.268 42.1896 113.76 41.3875C116.172 40.5854 117.619 41.7885 118.182 44.3552Z" fill="#161616"/>
<path d="M50.6493 21.4156C50.7297 23.3406 50.3277 24.6239 48.8002 25.025C47.4335 25.426 45.9864 25.426 45.1824 24.1427C43.5745 21.4156 42.2882 18.4479 41.645 15.3198C41.3234 13.7156 42.047 12.5125 43.6549 11.8708C45.1824 11.3094 46.4687 11.8708 47.1119 13.0739C48.7198 15.801 49.8454 18.8489 50.6493 21.4156Z" fill="#141414"/>
<path d="M103.148 65.45C103.148 44.4354 86.1039 27.4312 65.0402 27.4312C43.9765 27.4312 26.8522 44.4354 26.8522 65.45C26.8522 69.4604 27.4953 73.3906 28.6209 77H101.299C102.505 73.3906 103.148 69.5406 103.148 65.45Z" fill="black"/>
</g>
<defs>
<clipPath id="clip0_6_144">
<rect width="130" height="77" fill="white"/>
</clipPath>
</defs>
</svg>
