<svg xmlns="http://www.w3.org/2000/svg" width="100%" height="100%" viewBox="0 0 256 256" fill-rule="evenodd" stroke-linejoin="round" stroke-miterlimit="2" xmlns:v="https://vecta.io/nano"><path d="M109.339 254.645c-10.834-1.354-13.543-2.709-14.897-6.771-1.354-2.709-2.709-9.48-2.709-14.897-1.354-13.543-4.063-17.606-9.48-21.668-6.771-4.063-12.188-2.709-25.731 2.709-16.251 6.771-17.606 6.771-28.44-6.771C15.894 189.64 5.06 166.617 7.769 159.846c0-2.709 5.417-6.771 10.834-10.834 13.543-9.48 16.251-13.543 14.897-21.668 0-6.771-2.709-10.834-14.897-18.96-5.417-5.417-10.834-9.48-10.834-12.188C3.706 85.361 32.146 37.962 42.98 37.962c1.354 0 8.126 2.709 13.543 5.417 12.188 4.063 18.96 5.417 25.731 1.354 5.417-4.063 8.126-8.126 9.48-23.023 1.354-10.834 1.354-13.543 4.063-16.251 9.48-8.126 59.588-6.771 66.359 1.354 1.354 1.354 2.709 8.126 4.063 14.897 1.354 14.897 2.709 17.606 8.126 21.668 5.417 5.417 12.188 5.417 25.731 0 14.897-6.771 17.606-6.771 24.377 1.354 13.543 14.897 27.085 43.337 25.731 51.462-1.354 2.709-5.417 6.771-10.834 10.834-12.188 9.48-14.897 12.188-16.251 18.96 0 6.771 2.709 13.543 12.188 20.314 17.606 13.543 17.606 14.897 10.834 31.148-6.771 14.897-12.188 24.377-20.314 33.857-8.126 8.126-10.834 8.126-25.731 1.354-13.543-5.417-20.314-5.417-27.085 0-4.063 5.417-5.417 6.771-6.771 20.314-1.354 5.417-2.709 13.543-2.709 14.897-2.709 5.417-9.48 6.771-31.148 8.126-10.834 0-21.668 0-23.023-1.354zm44.691-78.548c9.48-9.48 35.211-44.691 35.211-48.754 0-1.354-8.126-12.188-18.96-27.085-18.96-23.023-18.96-23.023-40.628-24.377h-21.668v1.354s8.126 10.834 18.96 24.377 18.96 25.731 18.96 27.085l-17.606 23.023-17.606 24.377c0 4.063 2.709 5.417 20.314 5.417s17.606 0 23.023-5.417zm-44.691-21.668c5.417-5.417 9.48-12.188 9.48-13.543s-1.354-4.063-4.063-6.771l-4.063-5.417 1.354-1.354c0-1.354 2.709-4.063 4.063-6.771l4.063-5.417-10.834-14.897-10.834-13.543c-1.354 0-29.794 37.92-31.148 40.628 0 4.063 27.085 39.274 31.148 39.274 1.354 0 5.417-5.417 10.834-12.188z" fill="#900" fill-rule="nonzero"/></svg>