<svg style="position: absolute; width: 0; height: 0; overflow: hidden;" version="1.1" xmlns="http://www.w3.org/2000/svg">
    <defs>
        <symbol id="icon-move" viewBox="0 0 32 32">
            <title>move</title>
            <path d="M16 4.8v6.4h-12.8v-6.4h12.8zM17.6 3.2h-16v9.6h16v-9.6z"></path>
            <path d="M22.4 8h-1.6v1.6h1.6c3.52 0 6.4 2.88 6.4 6.4s-2.88 6.4-6.4 6.4v1.6c4.48 0 8-3.52 8-8s-3.52-8-8-8z"></path>
            <path d="M8 19.2h3.2v1.6h-3.2v-1.6z"></path>
            <path d="M16 19.2h-1.6v1.6h1.6v1.6h1.6v-3.2z"></path>
            <path d="M1.6 19.2v3.2h1.6v-1.6h1.6v-1.6h-1.6z"></path>
            <path d="M8 27.2h3.2v1.6h-3.2v-1.6z"></path>
            <path d="M3.2 25.6h-1.6v3.2h3.2v-1.6h-1.6z"></path>
            <path d="M16 27.2h-1.6v1.6h3.2v-3.2h-1.6z"></path>
            <path d="M19.337 22.731l3.394-3.394 1.131 1.131-3.394 3.394-1.131-1.131z"></path>
            <path d="M20.469 22.537l3.394 3.394-1.131 1.131-3.394-3.394 1.131-1.131z"></path>
            <path d="M20.8 22.4h1.6v1.6h-1.6v-1.6z"></path>
        </symbol>
        <symbol id="icon-move-symbol" viewBox="0 0 34 32">
            <path d="M28.653 9.143h-14.938c-2.525 0-4.571 2.047-4.571 4.571v4.571c0 2.525 2.047 4.571 4.571 4.571h6.857v2.286h-6.857c-3.787 0-6.857-3.070-6.857-6.857v-4.571c0-3.787 3.070-6.857 6.857-6.857h14.384l-5.241-5.241 1.616-1.616 8.081 8.081-0.196 0.196 0.196 0.196-8.081 8.081-1.616-1.616 5.796-5.796zM18.286 0v2.286h-13.714c-1.262 0-2.286 1.023-2.286 2.286v22.857c0 1.262 1.023 2.286 2.286 2.286h20.571c1.262 0 2.286-1.023 2.286-2.286v-4.571h2.286v4.571c0 2.525-2.047 4.571-4.571 4.571h-20.571c-2.525 0-4.571-2.047-4.571-4.571v-22.857c0-2.525 2.047-4.571 4.571-4.571h13.714z"></path>
        </symbol>
        <symbol id="icon-duplicate" viewBox="0 0 32 32">
            <path d="M13.714 20.571v6.857c0 1.262 1.023 2.286 2.286 2.286h11.429c1.262 0 2.286-1.023 2.286-2.286v-13.714c0-1.262-1.023-2.286-2.286-2.286h-4.571v-2.286h4.571c2.525 0 4.571 2.047 4.571 4.571v13.714c0 2.525-2.047 4.571-4.571 4.571h-11.429c-2.525 0-4.571-2.047-4.571-4.571v-4.571h-6.857c-2.525 0-4.571-2.047-4.571-4.571v-10.286l8-8h8c2.525 0 4.571 2.047 4.571 4.571v4.571h2.286v11.429h-9.143zM13.714 18.286h6.857v-6.857l-6.857 6.857zM18.286 10.286v-5.714c0-1.262-1.023-2.286-2.286-2.286h-6.857l-6.857 6.857v9.143c0 1.262 1.023 2.286 2.286 2.286h6.857v-3.429l6.857-6.857zM9.143 2.286v6.857h-6.857v2.286h9.143v-9.143h-2.286z"></path>
        </symbol>
        <symbol id="icon-delete" viewBox="0 0 32 32">
            <path d="M22.857 6.857h9.143v2.286h-4.571v18.286c0 2.525-2.047 4.571-4.571 4.571h-13.714c-2.525 0-4.571-2.047-4.571-4.571v-18.286h-4.571v-2.286h9.143v-2.286c0-2.525 2.047-4.571 4.571-4.571h4.571c2.525 0 4.571 2.047 4.571 4.571v2.286zM20.571 6.857v-2.286c0-1.262-1.023-2.286-2.286-2.286h-4.571c-1.262 0-2.286 1.023-2.286 2.286v2.286h9.143zM25.143 9.143h-18.286v18.286c0 1.262 1.023 2.286 2.286 2.286h13.714c1.262 0 2.286-1.023 2.286-2.286v-18.286zM11.429 13.714h2.286v11.429h-2.286v-11.429zM18.286 13.714h2.286v11.429h-2.286v-11.429z"></path>
        </symbol>
    </defs>
</svg>
