<svg width="548" height="84" viewBox="0 0 548 84" xmlns="http://www.w3.org/2000/svg">
    <path d="m39.714 44.914 24.108-18.507c11.54-8.857 27.77-8.16 38.508 1.654l27.76 25.374a30 30 0 0 0 36.142 3.295l20.477-12.8a30 30 0 0 1 18.993-4.403l34.234 3.547a30 30 0 0 0 12.11-1.228l33.749-10.637a30 30 0 0 1 22.86 1.996l22.16 11.525a30 30 0 0 0 33.292-3.775l24.757-21.082a30 30 0 0 1 19.45-7.159h34.749a30 30 0 0 0 10.285-1.818l23.52-8.583a30 30 0 0 1 33.526 9.212L548 57.599v26.193H0V60.898l31.746-11.605a30 30 0 0 0 7.968-4.38z" fill="#EAEFEF" fill-rule="evenodd"/>
</svg>
