<svg width="960" height="224" viewBox="0 0 960 224" xmlns="http://www.w3.org/2000/svg">
    <g fill="none" fill-rule="evenodd">
        <path fill="#EAEFEF" opacity=".3" d="M0 0h960v34H0z"/>
        <path d="M20 7c5.524 0 10 4.476 10 10s-4.476 10-10 10-10-4.476-10-10S14.476 7 20 7zm1.935 12.58a.998.998 0 0 0-.286.045 5.027 5.027 0 0 1-3.298 0 .998.998 0 0 0-.286-.044c-1.73 0-3.214.984-3.972 2.41A7.726 7.726 0 0 0 20 24.742a7.726 7.726 0 0 0 5.907-2.75c-.758-1.426-2.242-2.41-3.972-2.41zM20 10.872a3.548 3.548 0 1 0 0 7.097 3.548 3.548 0 0 0 0-7.097z" fill="#FFF" fill-rule="nonzero"/>
        <path fill="#EAEFEF" opacity=".3" d="M0 38h960v34H0z"/>
        <path d="M20 45c5.524 0 10 4.476 10 10s-4.476 10-10 10-10-4.476-10-10 4.476-10 10-10zm1.935 12.58a.998.998 0 0 0-.286.045 5.027 5.027 0 0 1-3.298 0 .998.998 0 0 0-.286-.044c-1.73 0-3.214.984-3.972 2.41A7.726 7.726 0 0 0 20 62.742a7.726 7.726 0 0 0 5.907-2.75c-.758-1.426-2.242-2.41-3.972-2.41zM20 48.872a3.548 3.548 0 1 0 0 7.097 3.548 3.548 0 0 0 0-7.097z" fill="#FFF" fill-rule="nonzero"/>
        <path fill="#EAEFEF" opacity=".3" d="M0 76h960v34H0z"/>
        <path d="M20 83c5.524 0 10 4.476 10 10s-4.476 10-10 10-10-4.476-10-10 4.476-10 10-10zm1.935 12.58a.998.998 0 0 0-.286.045 5.027 5.027 0 0 1-3.298 0 .998.998 0 0 0-.286-.044c-1.73 0-3.214.984-3.972 2.41a7.726 7.726 0 0 0 5.907 2.75 7.726 7.726 0 0 0 5.907-2.75c-.758-1.426-2.242-2.41-3.972-2.41zM20 86.872a3.548 3.548 0 1 0 0 7.097 3.548 3.548 0 0 0 0-7.097z" fill="#FFF" fill-rule="nonzero"/>
        <path fill="#EAEFEF" opacity=".3" d="M0 114h960v34H0z"/>
        <path d="M20 45c5.524 0 10 4.476 10 10s-4.476 10-10 10-10-4.476-10-10 4.476-10 10-10zm1.935 12.58a.998.998 0 0 0-.286.045 5.027 5.027 0 0 1-3.298 0 .998.998 0 0 0-.286-.044c-1.73 0-3.214.984-3.972 2.41A7.726 7.726 0 0 0 20 62.742a7.726 7.726 0 0 0 5.907-2.75c-.758-1.426-2.242-2.41-3.972-2.41zM20 48.872a3.548 3.548 0 1 0 0 7.097 3.548 3.548 0 0 0 0-7.097zM20 121c5.524 0 10 4.476 10 10s-4.476 10-10 10-10-4.476-10-10 4.476-10 10-10zm1.935 12.58a.998.998 0 0 0-.286.045 5.027 5.027 0 0 1-3.298 0 .998.998 0 0 0-.286-.044c-1.73 0-3.214.984-3.972 2.41a7.726 7.726 0 0 0 5.907 2.75 7.726 7.726 0 0 0 5.907-2.75c-.758-1.426-2.242-2.41-3.972-2.41zM20 124.872a3.548 3.548 0 1 0 0 7.097 3.548 3.548 0 0 0 0-7.097z"
              fill="#FFF" fill-rule="nonzero"/>
        <path fill="#EAEFEF" opacity=".3" d="M0 152h960v34H0z"/>
        <path d="M20 159c5.524 0 10 4.476 10 10s-4.476 10-10 10-10-4.476-10-10 4.476-10 10-10zm1.935 12.58a.998.998 0 0 0-.286.045 5.027 5.027 0 0 1-3.298 0 .998.998 0 0 0-.286-.044c-1.73 0-3.214.984-3.972 2.41a7.726 7.726 0 0 0 5.907 2.75 7.726 7.726 0 0 0 5.907-2.75c-.758-1.426-2.242-2.41-3.972-2.41zM20 162.872a3.548 3.548 0 1 0 0 7.097 3.548 3.548 0 0 0 0-7.097z" fill="#FFF" fill-rule="nonzero"/>
        <path fill="#EAEFEF" opacity=".3" d="M0 190h960v34H0z"/>
        <path d="M20 197c5.524 0 10 4.476 10 10s-4.476 10-10 10-10-4.476-10-10 4.476-10 10-10zm1.935 12.58a.998.998 0 0 0-.286.045 5.027 5.027 0 0 1-3.298 0 .998.998 0 0 0-.286-.044c-1.73 0-3.214.984-3.972 2.41a7.726 7.726 0 0 0 5.907 2.75 7.726 7.726 0 0 0 5.907-2.75c-.758-1.426-2.242-2.41-3.972-2.41zM20 200.872a3.548 3.548 0 1 0 0 7.097 3.548 3.548 0 0 0 0-7.097z" fill="#FFF" fill-rule="nonzero"/>
    </g>
</svg>
