<svg xmlns="http://www.w3.org/2000/svg" xmlns:xlink="http://www.w3.org/1999/xlink" viewBox="0 0 64 64" xmlns:v="https://vecta.io/nano"><path d="M0 60.6L23.1 3.4l9.7 4.1v.1l3.3 8.2-8.8 21.5-15-7.2 7.8 25-2.3 5.5z" fill-rule="evenodd" fill="#1693a7"/><defs><path id="A" d="M0 60.6L23.1 3.4l9.7 4.1v.1l3.3 8.2-8.8 21.5-15-7.2 7.8 25-2.3 5.5z"/></defs><clipPath id="B"><use xlink:href="#A"/></clipPath><g clip-path="url(#B)"><path d="M30.6 34L23 4c-.9-3.4 21.1 9.1 21.1 9.1L30.6 34z" fill-rule="evenodd" fill="#025d6b"/></g><linearGradient id="C" gradientUnits="userSpaceOnUse" x1="67.983" y1="56.588" x2="18.983" y2="7.587"><stop offset="0" stop-color="#1294aa"/><stop offset=".12" stop-color="#1595a8"/><stop offset=".22" stop-color="#2098a1"/><stop offset=".32" stop-color="#319e96"/><stop offset=".41" stop-color="#4aa586"/><stop offset=".49" stop-color="#6aaf72"/><stop offset=".58" stop-color="#90bb59"/><stop offset=".66" stop-color="#bcc93d"/></linearGradient><path d="M40.7 3.4l23.2 57.2H46.1L23.2 3.4z" fill="url(#C)"/><defs><path id="D" d="M40.7 3.4l23.2 57.2H46.1L23.2 3.4z"/></defs><clipPath id="E"><use xlink:href="#D"/></clipPath><g clip-path="url(#E)"><linearGradient id="F" gradientUnits="userSpaceOnUse" x1="47.568" y1="37.953" x2="41.198" y2="31.582"><stop offset="0" stop-color="#1294aa"/><stop offset=".12" stop-color="#1595a8"/><stop offset=".22" stop-color="#2098a1"/><stop offset=".32" stop-color="#319e96"/><stop offset=".41" stop-color="#4aa586"/><stop offset=".49" stop-color="#6aaf72"/><stop offset=".58" stop-color="#90bb59"/><stop offset=".66" stop-color="#bcc93d"/></linearGradient><path d="M53.8 29.2L40.1 45.5l-4.2-8.6z" fill-rule="evenodd" fill="url(#F)"/></g><linearGradient id="G" gradientUnits="userSpaceOnUse" x1="17.138" y1="49.974" x2="64.162" y2="22.821"><stop offset="0" stop-color="#cfd100"/><stop offset=".21" stop-color="#a2be2a"/><stop offset=".47" stop-color="#71aa59"/><stop offset=".7" stop-color="#4d9b7a"/><stop offset=".88" stop-color="#37928f"/><stop offset="1" stop-color="#2f8f96"/></linearGradient><path d="M20.1 55.1l7.2-17.8L64 22.5z" fill="url(#G)"/></svg>