<svg width="17" height="16" viewBox="0 0 17 16" fill="none" xmlns="http://www.w3.org/2000/svg">
<g clip-path="url(#clip0_298_1001)">
<path d="M11.8691 16C11.7432 16 11.616 15.9955 11.4904 15.9865C10.6603 15.9278 9.85729 15.6666 9.16641 15.2321C7.81523 14.3821 6.92192 12.9354 6.77716 11.3629C6.66313 10.1242 6.98003 8.89093 7.66945 7.88985C8.35888 6.88878 9.39331 6.16062 10.5802 5.84014C10.9967 5.72789 11.4259 5.67103 11.857 5.67102C12.4698 5.67226 13.0774 5.78392 13.6512 6.00075C14.649 6.37408 15.4942 7.02634 16.0952 7.88677C17.4863 9.87805 17.2503 12.7042 15.5464 14.4605C15.0707 14.9512 14.5009 15.3392 13.8717 15.601C13.2368 15.8661 12.5562 16.0017 11.8691 16ZM11.8812 6.94677C9.75623 6.94677 8.02189 8.68848 8.01489 10.8291C8.01246 11.3417 8.11046 11.8497 8.30329 12.324C8.49611 12.7983 8.77995 13.2296 9.13852 13.593C9.4971 13.9565 9.92334 14.245 10.3928 14.4419C10.8622 14.6389 11.3657 14.7405 11.8742 14.7409H11.8761C14.0035 14.7409 15.739 12.999 15.7452 10.858C15.7483 9.81184 15.3484 8.82927 14.6192 8.09127C14.2614 7.72745 13.8356 7.43889 13.3663 7.24232C12.897 7.04574 12.3937 6.94509 11.8855 6.94618L11.8812 6.94677Z" fill="white"/>
<path d="M1.86017 13.7499C1.3187 13.7499 0.85399 13.5704 0.516268 13.2312C0.178546 12.8921 0 12.4264 0 11.8834C0 8.76038 0 5.48645 0 1.87443C0 1.32875 0.178254 0.860433 0.514666 0.520135C0.851078 0.179838 1.31346 0 1.85245 0H7.94063H14.0289C14.5697 0 15.0338 0.179398 15.3712 0.518521C15.7087 0.857644 15.8871 1.3239 15.8874 1.86753V4.89042C15.8878 5.00857 15.8557 5.12453 15.7945 5.22532C15.7334 5.32612 15.6456 5.40779 15.5411 5.4612C15.4516 5.5072 15.3527 5.53129 15.2523 5.53152C15.1683 5.53129 15.0853 5.51432 15.0079 5.48157C14.9305 5.44882 14.8603 5.40095 14.8014 5.34072C14.7425 5.28049 14.696 5.2091 14.6645 5.13065C14.6331 5.0522 14.6174 4.96826 14.6183 4.88367C14.6269 4.18017 14.6246 3.35952 14.6225 2.63562V2.63151C14.6225 2.35991 14.6211 2.09684 14.6209 1.85035C14.6206 1.6986 14.5607 1.55315 14.4543 1.44584C14.3478 1.33854 14.2035 1.27811 14.053 1.2778H1.84109C1.44934 1.27722 1.267 1.46293 1.267 1.86151C1.267 3.65078 1.267 5.43996 1.267 7.22905V9.0286L5.16457 4.60385L6.88464 6.42895C6.98362 6.5345 7.04363 6.67113 7.0546 6.81596C7.06558 6.96078 7.02686 7.10501 6.94493 7.22449L6.93838 7.23404C6.88548 7.31104 6.81618 7.37515 6.73555 7.42171C6.65493 7.46826 6.56501 7.49608 6.47236 7.50313C6.45532 7.50445 6.43857 7.50519 6.42211 7.50519C6.33758 7.50537 6.25391 7.48809 6.17626 7.4544C6.09861 7.42072 6.02864 7.37135 5.97065 7.30935L5.19574 6.49002L3.60834 8.29339C2.87392 9.12813 2.11444 9.99136 1.3656 10.8383C1.28827 10.9264 1.25958 10.9998 1.26366 11.1025C1.27006 11.2808 1.2689 11.4609 1.26773 11.635V11.6393C1.26773 11.7366 1.26642 11.8373 1.26773 11.9371C1.27021 12.2771 1.46477 12.4724 1.80162 12.4728H5.5339C5.66011 12.4725 5.78346 12.5108 5.88766 12.5825C5.99187 12.6543 6.07204 12.7563 6.11759 12.8749L6.12182 12.8859C6.15923 12.9819 6.17282 13.0856 6.16141 13.1881C6.15 13.2905 6.11393 13.3886 6.05634 13.4738C5.99875 13.559 5.92138 13.6288 5.83096 13.6769C5.74054 13.7251 5.63982 13.7503 5.53754 13.7503H1.86017V13.7499Z" fill="white"/>
<path d="M11.3011 4.67814C10.6482 4.67036 10.12 4.12615 10.1235 3.46478C10.127 3.14669 10.2546 2.84279 10.4787 2.61885C10.7029 2.39492 11.0055 2.26899 11.321 2.26831H11.3356C11.9886 2.27594 12.5168 2.82016 12.5133 3.48137C12.5098 3.79953 12.3822 4.1035 12.1581 4.32751C11.9339 4.55152 11.6313 4.67753 11.3156 4.67829L11.3011 4.67814Z" fill="white"/>
<path d="M11.8855 13.2272C11.7547 13.2271 11.6293 13.1746 11.5369 13.0814C11.4444 12.9881 11.3924 12.8617 11.3923 12.7299V11.3463H10.0096C9.88028 11.3441 9.75695 11.2907 9.66625 11.1977C9.57555 11.1047 9.52472 10.9795 9.52472 10.849C9.52472 10.7186 9.57555 10.5934 9.66625 10.5004C9.75695 10.4074 9.88028 10.354 10.0096 10.3517H11.3818V8.95707C11.382 8.82525 11.434 8.69886 11.5264 8.60565C11.6189 8.51243 11.7443 8.45999 11.8751 8.45984H11.8802C12.0109 8.45999 12.1363 8.51243 12.2288 8.60564C12.3213 8.69885 12.3734 8.82523 12.3736 8.95707V10.3406H13.751C13.8803 10.3428 14.0036 10.3962 14.0943 10.4892C14.1851 10.5822 14.2359 10.7075 14.2359 10.8379C14.2359 10.9683 14.1851 11.0935 14.0943 11.1866C14.0036 11.2796 13.8803 11.3329 13.751 11.3352H12.3788V12.7299C12.3787 12.8617 12.3267 12.9881 12.2342 13.0814C12.1417 13.1746 12.0163 13.2271 11.8855 13.2272Z" fill="white"/>
</g>
<defs>
<clipPath id="clip0_298_1001">
<rect width="17" height="16" fill="white"/>
</clipPath>
</defs>
</svg>
