<svg width="42" height="39" viewBox="0 0 42 39" fill="none" xmlns="http://www.w3.org/2000/svg">
<g clip-path="url(#clip0_317_380)">
<path d="M29.5759 38.9284C29.2701 38.9284 28.9607 38.9177 28.6584 38.8962C26.6579 38.7567 24.715 38.134 23.0491 37.0999C19.7856 35.0746 17.6268 31.6287 17.2778 27.8822C17.0008 24.9265 17.7671 21.9851 19.433 19.5984C21.0989 17.2117 23.596 15.4762 26.4672 14.714C27.4711 14.4456 28.5073 14.3132 29.5435 14.3132C31.0259 14.3168 32.4867 14.5816 33.8756 15.1005C36.2899 15.9915 38.3336 17.548 39.7872 19.5984C43.1478 24.3432 42.5757 31.0776 38.4595 35.2642C37.3045 36.4379 35.9445 37.354 34.4189 37.9802C32.8861 38.6135 31.267 38.932 29.6083 38.932L29.5759 38.9284ZM29.5615 16.1918C23.8047 16.2169 19.1164 20.8794 19.0948 26.6047C19.0804 29.3922 20.1598 32.0187 22.1352 34.0011C24.1069 35.9835 26.7407 37.082 29.5435 37.0963H29.5903C35.3724 37.0963 40.0894 32.4231 40.1074 26.6835C40.1146 23.8781 39.028 21.2444 37.0455 19.2656C35.0989 17.3154 32.4004 16.1954 29.6335 16.1954H29.5687L29.5615 16.1918Z" fill="#C4C4C4"/>
<path d="M4.76384 33.2782H4.0982C2.90005 33.2782 1.8818 32.8954 1.1478 32.169C0.417398 31.4462 0.0288086 30.4371 0.0288086 29.2526V4.11502C0.0288086 2.92345 0.4138 1.91078 1.1442 1.18081C1.87101 0.454412 2.88566 0.0715332 4.07661 0.0715332H35.0738C36.2683 0.0715332 37.2866 0.454412 38.0206 1.18081C38.751 1.90363 39.136 2.91271 39.1396 4.10071V11.6939C39.1396 12.0517 38.9417 12.3738 38.6251 12.5348C38.4883 12.6028 38.3408 12.6386 38.1897 12.6386C37.668 12.6386 37.2434 12.2127 37.2434 11.6903V11.6831C37.265 9.91546 37.2578 7.85794 37.2542 6.04015V6.01868C37.2542 5.65012 37.2542 5.28871 37.2506 4.93446C37.2506 4.63388 37.2506 4.34046 37.247 4.05419C37.2434 2.8984 36.2971 1.95372 35.1349 1.95372H4.04063C2.66978 1.95372 1.91778 2.70875 1.91778 4.08282V23.8315L12.5248 11.9515L17.5693 17.1329C17.8679 17.4478 17.9075 17.938 17.6592 18.2959L17.6412 18.3209C17.4829 18.5499 17.2311 18.6931 16.954 18.7109C16.9252 18.7145 16.9 18.7145 16.8749 18.7145C16.623 18.7145 16.3819 18.6108 16.2128 18.4318L12.568 14.7283L8.04166 19.8023C6.17427 21.8956 4.24212 24.0605 2.33875 26.186C2.02572 26.5403 1.8926 26.8874 1.91059 27.3168C1.92498 27.7498 1.92498 28.1935 1.92138 28.6229V28.6372C1.92138 28.7159 1.92138 28.7982 1.92138 28.8805C1.92138 29.0487 1.92138 29.2204 1.92138 29.3922C1.93218 30.6053 2.72734 31.3925 3.94708 31.3961H15.2162C15.594 31.3961 15.9394 31.6322 16.0761 31.9829L16.0869 32.0115C16.1804 32.2441 16.1732 32.4982 16.0761 32.7236C15.9754 32.949 15.7954 33.1244 15.5616 33.2138C15.4536 33.2568 15.3385 33.2782 15.2198 33.2782H4.76384Z" fill="#C4C4C4"/>
<path d="M29.6155 8.74174C28.7412 8.73101 28.036 8.01177 28.0396 7.13866C28.0432 6.71642 28.2123 6.31923 28.5181 6.01865C28.8203 5.72165 29.2233 5.55347 29.6479 5.55347H29.6695C30.5438 5.5642 31.249 6.28344 31.2454 7.15655C31.2418 7.57879 31.0727 7.97956 30.7669 8.27656C30.4646 8.57356 30.0653 8.73816 29.6371 8.74174H29.6155Z" fill="#C4C4C4"/>
<path d="M28.9291 31.3781L28.9291 31.3792C28.9333 31.7552 29.2397 32.065 29.6192 32.065C29.9989 32.065 30.3057 31.7547 30.3057 31.3745V27.3094H34.365V27.3094L34.3673 27.3094C34.7385 27.301 35.0287 27.0028 35.0371 26.6356L35.0371 26.6344C35.0413 26.2615 34.7426 25.9477 34.3636 25.9393V25.9393H34.3614H30.2877L30.2877 21.9028L30.2877 21.9016C30.2835 21.5257 29.9771 21.2159 29.5976 21.2159L29.5868 21.2159L29.5857 21.2159C29.209 21.2201 28.8967 21.524 28.8967 21.9028V25.9715H24.8446V25.9715L24.8423 25.9715C24.4711 25.9799 24.1809 26.2781 24.1725 26.6453L24.1725 26.6453L24.1725 26.6465C24.1683 27.0194 24.467 27.3332 24.846 27.3416L24.846 27.3416H24.8482H28.9291L28.9291 31.3781Z" fill="#C4C4C4" stroke="#C3C3C3" stroke-width="0.2"/>
</g>
<defs>
<clipPath id="clip0_317_380">
<rect width="42" height="39" fill="white"/>
</clipPath>
</defs>
</svg>
