<?xml version="1.0" ?><!DOCTYPE svg  PUBLIC '-//W3C//DTD SVG 1.1//EN'  'http://www.w3.org/Graphics/SVG/1.1/DTD/svg11.dtd'><svg enable-background="new 0 0 210 210" height="210px" id="Слой_1" version="1.1" viewBox="0 0 210 210" width="210px" xml:space="preserve" xmlns="http://www.w3.org/2000/svg" xmlns:xlink="http://www.w3.org/1999/xlink"><g><g><g><g><g><g><path d="M199.394,111.355h-61.614c-5.389,0-9.772-4.384-9.772-9.772v-55.65c0-3.038,2.471-5.51,5.51-5.51        h33.133c2.277,0,4.739,1.33,5.987,3.234l1.69,2.579h20.353c3.038,0,5.51,2.471,5.51,5.509v4.451        c5.018,0.406,8.977,4.619,8.977,9.74v35.646C209.166,106.971,204.782,111.355,199.394,111.355z M150.293,104.211h49.101        c1.449,0,2.628-1.179,2.628-2.628V65.936c0-1.449-1.179-2.628-2.628-2.628H153.28c-1.449,0-2.628,1.179-2.628,2.628v35.646        C150.651,102.493,150.526,103.374,150.293,104.211z M135.151,47.567v54.016c0,1.449,1.179,2.628,2.628,2.628h3.1        c1.449,0,2.628-1.179,2.628-2.628V65.936c0-5.388,4.384-9.772,9.772-9.772h39.765V53.38h-22.577l-3.744-5.711        c-0.051-0.037-0.129-0.079-0.188-0.102H135.151z" fill="#474747"/></g></g><g><g><path d="M73.994,80.952H12.379c-5.389,0-9.772-4.384-9.772-9.772v-55.65c0-3.038,2.471-5.51,5.51-5.51h33.133        c2.277,0,4.739,1.33,5.987,3.234l1.69,2.579h20.353c3.038,0,5.51,2.471,5.51,5.509v4.451c5.018,0.406,8.977,4.619,8.977,9.74        V71.18C83.766,76.568,79.382,80.952,73.994,80.952z M24.893,73.808h49.101c1.449,0,2.628-1.179,2.628-2.628V35.533        c0-1.449-1.179-2.628-2.628-2.628H27.88c-1.449,0-2.628,1.179-2.628,2.628V71.18C25.251,72.09,25.126,72.971,24.893,73.808z         M9.751,17.164V71.18c0,1.449,1.179,2.628,2.628,2.628h3.1c1.449,0,2.628-1.179,2.628-2.628V35.533        c0-5.388,4.384-9.772,9.772-9.772h39.765v-2.785H45.067l-3.744-5.711c-0.051-0.037-0.129-0.079-0.188-0.102H9.751z" fill="#474747"/></g></g><g><g><path d="M199.394,199.11h-61.614c-5.389,0-9.772-4.384-9.772-9.772v-55.651c0-3.038,2.471-5.509,5.51-5.509        h33.133c2.276,0,4.738,1.329,5.987,3.233l1.691,2.579h20.353c3.038,0,5.51,2.471,5.51,5.509v4.451        c5.018,0.406,8.977,4.619,8.977,9.74v35.647C209.166,194.726,204.782,199.11,199.394,199.11z M150.293,191.966h49.101        c1.449,0,2.628-1.179,2.628-2.628v-35.647c0-1.449-1.179-2.628-2.628-2.628H153.28c-1.449,0-2.628,1.179-2.628,2.628v35.647        C150.651,190.248,150.526,191.13,150.293,191.966z M135.151,135.322v54.016c0,1.449,1.179,2.628,2.628,2.628h3.1        c1.449,0,2.628-1.179,2.628-2.628v-35.647c0-5.388,4.384-9.772,9.772-9.772h39.765v-2.785h-22.577l-3.743-5.71        c-0.051-0.037-0.129-0.079-0.188-0.102H135.151z" fill="#474747"/></g></g></g></g></g><g><polygon fill="#474747" points="121.69,167.444 101.265,167.444 101.265,49.286 87.492,49.286 87.492,41.686 108.865,41.686     108.865,159.844 121.69,159.844   "/></g><g><rect fill="#474747" height="7.6" width="14.725" x="106.965" y="70.083"/></g></g></svg>