<?xml version="1.0" encoding="UTF-8"?> <svg xmlns="http://www.w3.org/2000/svg" viewBox="0 0 320 70"><defs><style>.a{fill:#5950ec}.b{fill:#161e2e}</style></defs><path class="a" d="M79.44 22.2L73 10.87v-.08A7.74 7.74 0 0 0 66.29 7H27.68A7.72 7.72 0 0 0 21 10.79l-.05.08-6.42 11.33c-3.25 5.8-1.09 13.6 4.21 16.08v23.51A1.22 1.22 0 0 0 20 63h54a1.22 1.22 0 0 0 1.22-1.21V38.28C80.54 35.8 82.71 28 79.44 22.2zM56 38.37a12.33 12.33 0 0 1 1.6 3.33 13 13 0 0 1 .47 3.51 10 10 0 0 1-.93 4.25 9.8 9.8 0 0 1-2.75 3.47 13.33 13.33 0 0 1-4.5 2.37 17.8 17.8 0 0 1-4 .78v-.11c3.07-.66 3.72-4.56 1.93-6.57a4.22 4.22 0 0 0-.65-.76 18.67 18.67 0 0 0-1.81-1.86c-.83-.77-2-1.73-3.37-2.88a85.22 85.22 0 0 1-6.7-5.85A36 36 0 0 1 32.47 35h8.36A21.7 21.7 0 0 1 38 31.53a12.54 12.54 0 0 1-1.57-3.33 13 13 0 0 1-.46-3.51 10.09 10.09 0 0 1 .92-4.25 9.91 9.91 0 0 1 2.7-3.44 13.52 13.52 0 0 1 4.5-2.37 16.12 16.12 0 0 1 3.11-.67h.92c-3.07.66-3.71 4.56-1.92 6.57a3.86 3.86 0 0 0 .65.76 10.58 10.58 0 0 0 .83.92c.29.29.61.61 1 .95.84.77 2 1.72 3.38 2.87a84.82 84.82 0 0 1 6.69 5.85 38 38 0 0 1 2.8 3.1h-8.39A21.7 21.7 0 0 1 56 38.37z"></path><path class="b" d="M116.64 33.92h-5.32c0-1.11-1.31-2.62-3.59-2.62-1.6 0-3.56.72-3.56 2 0 1.07 1.47 1.5 4.6 2.32 3.5.91 8.43 2.09 8.43 7 0 4.24-3.72 6.89-8.92 6.89-7 0-9.86-4.7-9.86-8.17h5.32s.43 3.53 4.84 3.53c2.38 0 3.26-1 3.26-2 0-1.4-1.86-1.89-3.92-2.38-3.33-.79-9.18-2-9.18-7 0-4.05 4-7.06 9.05-7.06 5.78.07 8.85 4.02 8.85 7.49zm23.03-2.06h-7.87v17.25h-5.42V31.86h-7.88v-5h21.17zM163.19 38a11.47 11.47 0 1 1-11.47-11.5A11.51 11.51 0 0 1 163.19 38zm-18 0a6.53 6.53 0 1 0 6.56-6.5 6.53 6.53 0 0 0-6.59 6.5zM185 35.22a8 8 0 0 1-3.95 7.19l4.57 6.7H179l-3.34-5.52h-3.92v5.52h-5.35V26.89h10.74c4.51 0 7.87 3.5 7.87 8.33zm-13.3-3.36v6.76h4.61a3.38 3.38 0 0 0 0-6.76zm34.47-4.97v5h-11.66v3.82h9.73v4.64h-9.73v3.82h11.66v5h-17V26.89zm27.99 18.75h-10.71L222 49.11h-5.7l9.5-22.22h6l9.54 22.22h-5.74zm-1.86-4.37L228.84 33l-3.53 8.3zm30.83-5.82c0 4.38-2.77 8.63-8.46 8.63h-4.83v5h-5.39V26.89h10.26c5.68 0 8.42 4.25 8.42 8.56zm-13.29-3.59v7.28h4.25a3.36 3.36 0 0 0 3.62-3.69 3.32 3.32 0 0 0-3.62-3.59zm35.6 3.59c0 4.38-2.77 8.63-8.46 8.63h-4.83v5h-5.39V26.89H277c5.7 0 8.44 4.25 8.44 8.56zm-13.29-3.59v7.28h4.24a3.36 3.36 0 0 0 3.61-3.69 3.32 3.32 0 0 0-3.63-3.59zm34.29 2.06h-5.32c0-1.11-1.31-2.62-3.59-2.62-1.6 0-3.56.72-3.56 2 0 1.07 1.47 1.5 4.6 2.32 3.5.91 8.43 2.09 8.43 7 0 4.24-3.72 6.89-8.92 6.89-6.95 0-9.86-4.7-9.86-8.17h5.32s.43 3.53 4.84 3.53c2.38 0 3.26-1 3.26-2 0-1.4-1.86-1.89-3.92-2.38-3.33-.79-9.17-2-9.17-7 0-4.05 4-7.06 9-7.06 5.82.07 8.89 4.02 8.89 7.49z"></path></svg> 