<svg width="106" height="105" fill="none" xmlns="http://www.w3.org/2000/svg"><g filter="url(#a)"><rect x="15.394" y="22.432" width="46" height="52.708" rx="3.599" transform="rotate(-16.398 15.394 22.432)" fill="#fff"/></g><g filter="url(#b)"><rect x="44.214" y="8.436" width="46" height="52.708" rx="3.599" transform="rotate(7.58 44.214 8.436)" fill="#fff"/></g><rect x="47.294" y="14.236" width="13.417" height="13.417" rx="2.875" transform="rotate(7.58 47.294 14.236)" fill="#9EA9B8" fill-opacity=".69"/><rect x="63.316" y="17.336" width="20.125" height="3.833" rx="1.917" transform="rotate(7.58 63.316 17.336)" fill="#9EA9B8" fill-opacity=".69"/><rect x="62.432" y="23.984" width="20.125" height="1.917" rx=".958" transform="rotate(7.58 62.432 23.984)" fill="#9EA9B8" fill-opacity=".69"/><rect x="62.052" y="26.834" width="20.125" height="1.917" rx=".958" transform="rotate(7.58 62.052 26.834)" fill="#9EA9B8" fill-opacity=".69"/><rect x="44.892" y="32.285" width="13.417" height="13.417" rx="2.875" transform="rotate(7.58 44.892 32.285)" fill="#9EA9B8" fill-opacity=".69"/><rect x="60.915" y="35.385" width="20.125" height="3.833" rx="1.917" transform="rotate(7.58 60.915 35.385)" fill="#9EA9B8" fill-opacity=".69"/><rect x="60.03" y="42.033" width="20.125" height="1.917" rx=".958" transform="rotate(7.58 60.03 42.033)" fill="#9EA9B8" fill-opacity=".69"/><rect x="59.65" y="44.885" width="20.125" height="1.917" rx=".958" transform="rotate(7.58 59.65 44.885)" fill="#9EA9B8" fill-opacity=".69"/><path d="M8.896 32.64a3.6 3.6 0 0 1 3.6-3.599h26.12a3.6 3.6 0 0 1 2.743 1.268l10.063 11.839a3.6 3.6 0 0 0 2.743 1.268h38.34a3.6 3.6 0 0 1 3.6 3.6v46.467a3.6 3.6 0 0 1-3.6 3.6h-80.01a3.6 3.6 0 0 1-3.599-3.6V32.64Z" fill="#E1E5E9"/><g clip-path="url(#c)" fill="#9EA9B8"><path d="M51.919 73.273h7.433v3.92H51.92v-3.92Z"/><path d="M57.799 60.704H47.257a1.676 1.676 0 0 0-1.69 1.675v2.244h13.786v-3.92h-1.554Zm-.136 6.216H45.581v10.272h3.92V70.84h8.19a1.703 1.703 0 0 0 1.594-1.122c.056-.151.084-.312.081-.473V66.92h-1.703Zm-5.162 17.705a15.811 15.811 0 0 1-11.177-26.99A15.812 15.812 0 1 1 58.65 83.383a15.69 15.69 0 0 1-6.15 1.243Zm0-29.53a13.717 13.717 0 0 0-9.704 23.421 13.723 13.723 0 1 0 14.956-22.38 13.624 13.624 0 0 0-5.252-1.028v-.013Z"/></g><circle cx="89.396" cy="89.417" r="13.896" fill="#6C916D" stroke="#fff" stroke-width="2.875"/><path d="m87.552 93.56-3.738-3.76a.58.58 0 0 1 0-.818l.814-.818a.573.573 0 0 1 .813 0l2.517 2.533 5.393-5.424a.573.573 0 0 1 .813 0l.814.818a.58.58 0 0 1 0 .818l-6.613 6.65a.573.573 0 0 1-.813 0Z" fill="#fff"/><defs><filter id="a" x=".117" y="2.242" width="89.562" height="94.103" filterUnits="userSpaceOnUse" color-interpolation-filters="sRGB"><feFlood flood-opacity="0" result="BackgroundImageFix"/><feColorMatrix in="SourceAlpha" values="0 0 0 0 0 0 0 0 0 0 0 0 0 0 0 0 0 0 127 0" result="hardAlpha"/><feOffset dy=".72"/><feGaussianBlur stdDeviation="1.8"/><feColorMatrix values="0 0 0 0 0 0 0 0 0 0 0 0 0 0 0 0 0 0 0.05 0"/><feBlend in2="BackgroundImageFix" result="effect1_dropShadow_856_25367"/><feColorMatrix in="SourceAlpha" values="0 0 0 0 0 0 0 0 0 0 0 0 0 0 0 0 0 0 127 0" result="hardAlpha"/><feOffset dy="8.073"/><feGaussianBlur stdDeviation="8.073"/><feColorMatrix values="0 0 0 0 0.247059 0 0 0 0 0.294118 0 0 0 0 0.356863 0 0 0 0.15 0"/><feBlend in2="effect1_dropShadow_856_25367" result="effect2_dropShadow_856_25367"/><feBlend in="SourceGraphic" in2="effect2_dropShadow_856_25367" result="shape"/></filter><filter id="b" x="21.559" y=".806" width="83.956" height="89.721" filterUnits="userSpaceOnUse" color-interpolation-filters="sRGB"><feFlood flood-opacity="0" result="BackgroundImageFix"/><feColorMatrix in="SourceAlpha" values="0 0 0 0 0 0 0 0 0 0 0 0 0 0 0 0 0 0 127 0" result="hardAlpha"/><feOffset dy=".72"/><feGaussianBlur stdDeviation="1.8"/><feColorMatrix values="0 0 0 0 0 0 0 0 0 0 0 0 0 0 0 0 0 0 0.05 0"/><feBlend in2="BackgroundImageFix" result="effect1_dropShadow_856_25367"/><feColorMatrix in="SourceAlpha" values="0 0 0 0 0 0 0 0 0 0 0 0 0 0 0 0 0 0 127 0" result="hardAlpha"/><feOffset dy="8.073"/><feGaussianBlur stdDeviation="8.073"/><feColorMatrix values="0 0 0 0 0.247059 0 0 0 0 0.294118 0 0 0 0 0.356863 0 0 0 0.15 0"/><feBlend in2="effect1_dropShadow_856_25367" result="effect2_dropShadow_856_25367"/><feBlend in="SourceGraphic" in2="effect2_dropShadow_856_25367" result="shape"/></filter><clipPath id="c"><path fill="#fff" transform="translate(36.688 53)" d="M0 0h31.625v31.625H0z"/></clipPath></defs></svg>