<svg width="301" height="143" fill="none" xmlns="http://www.w3.org/2000/svg"><path fill-rule="evenodd" clip-rule="evenodd" d="m276.93.88.55 8.1a3.16 3.16 0 0 0 6.3-.43l-.48-7.13c10.78 1.06 15.9 2.38 17.3 3.13.12 4.27-.28 13.34-2.25 23.26l-10.22-3.73a3.16 3.16 0 0 0-2.16 5.94l10.95 4a86.64 86.64 0 0 1-1.81 6.03 192.9 192.9 0 0 1-3.66 9.87l-12.9-7.85a3.16 3.16 0 0 0-3.29 5.4l13.64 8.29a54.42 54.42 0 0 1-6.54 10.84l-13.68-13.39a3.16 3.16 0 0 0-4.42 4.51l13.58 13.3a14.47 14.47 0 0 1-8.73 3.03c-10 0-19.5-9.66-23-14.5l-1-2c-8.66-.14-24.89-3.59-30.27-15.46l16.22-.65a3.16 3.16 0 1 0-.25-6.31l-17.64.7a21.7 21.7 0 0 1-.06-.78c-.56-8.18 1.1-15.25 5.14-20.86l17.04 13.44a3.16 3.16 0 1 0 3.91-4.97L222.55 9.54c3.49-2.98 7.96-5.32 13.46-6.94l13.14 20.3a3.16 3.16 0 0 0 5.3-3.42L242.57 1.1a86.2 86.2 0 0 1 15.3-1.1l4.94 15.92a3.16 3.16 0 0 0 6.03-1.87L264.54.2c4.64.18 8.75.41 12.4.68Z" fill="#B9C1CC"/><path fill-rule="evenodd" clip-rule="evenodd" d="m287.12 100.64-4.02 3.33a2.03 2.03 0 0 0 2.6 3.12l3.53-2.93c3.49 6 4.73 9.18 4.86 10.19a73.74 73.74 0 0 1-12.96 7.56l-1.9-6.73a2.03 2.03 0 1 0-3.9 1.1l2.03 7.21a55.5 55.5 0 0 1-3.83 1.32c-2.18.66-4.37 1.28-6.51 1.8l-.75-9.67a2.03 2.03 0 0 0-4.05.31l.8 10.22c-2.9.53-5.65.8-8.1.66l1.84-12.15a2.03 2.03 0 0 0-4.01-.61l-1.83 12.07a9.3 9.3 0 0 1-4.86-3.42c-3.76-5.2-2.28-13.78-1.08-17.42l.67-1.27c-3.18-4.56-7.47-14.31-3.3-21.58l6.42 8.21a2.03 2.03 0 0 0 3.2-2.5l-7-8.92.39-.33c4.05-3.36 8.36-5.15 12.8-5.15l-.6 13.92a2.03 2.03 0 0 0 4.05.18l.58-13.6c2.87.7 5.77 2.14 8.67 4.4l-5.65 14.47a2.03 2.03 0 0 0 3.78 1.48l5.12-13.1a55.36 55.36 0 0 1 6.3 7.57l-6.43 8.55a2.03 2.03 0 1 0 3.24 2.44l5.6-7.44a239.3 239.3 0 0 1 4.3 6.7Z" fill="#C7CDD6"/><rect x="60" y="7" width="199" height="129" rx="4" fill="#E2E5EA"/><rect x="64" y="14" width="191" height="122" rx="2" fill="#fff"/><path d="M64 16a2 2 0 0 1 2-2h20v122H66a2 2 0 0 1-2-2V16Z" fill="#2F2F2F"/><path d="M86 14h43v122H86V14Z" fill="#DDE0E6" fill-opacity=".39"/><path fill-rule="evenodd" clip-rule="evenodd" d="M131.13 129H38a2 2 0 0 0-2 2 8 8 0 0 0 8 8h230a8 8 0 0 0 8-8 2 2 0 0 0-2-2h-92.13a4 4 0 0 1-3.87 3h-49a4 4 0 0 1-3.87-3Z" fill="#BBC2CC"/><rect opacity=".8" x="67" y="21" width="2" height="2" rx="1" fill="#fff"/><rect opacity=".8" x="71" y="21" width="12" height="2" rx="1" fill="#fff"/><rect opacity=".8" x="67" y="27" width="2" height="2" rx="1" fill="#fff"/><rect opacity=".8" x="71" y="27" width="12" height="2" rx="1" fill="#fff"/><rect opacity=".8" x="67" y="33" width="2" height="2" rx="1" fill="#fff"/><rect opacity=".8" x="71" y="33" width="12" height="2" rx="1" fill="#fff"/><rect opacity=".8" x="67" y="39" width="2" height="2" rx="1" fill="#fff"/><rect opacity=".8" x="71" y="39" width="12" height="2" rx="1" fill="#fff"/><rect opacity=".8" x="67" y="45" width="2" height="2" rx="1" fill="#fff"/><rect opacity=".8" x="71" y="45" width="12" height="2" rx="1" fill="#fff"/><rect opacity=".8" x="67" y="51" width="2" height="2" rx="1" fill="#fff"/><rect opacity=".8" x="71" y="51" width="12" height="2" rx="1" fill="#fff"/><rect opacity=".8" x="67" y="57" width="2" height="2" rx="1" fill="#fff"/><rect opacity=".8" x="71" y="57" width="12" height="2" rx="1" fill="#fff"/><rect opacity=".8" x="67" y="63" width="2" height="2" rx="1" fill="#fff"/><rect opacity=".8" x="71" y="63" width="12" height="2" rx="1" fill="#fff"/><rect opacity=".8" x="67" y="69" width="2" height="2" rx="1" fill="#fff"/><rect opacity=".8" x="71" y="69" width="12" height="2" rx="1" fill="#fff"/><rect x="90" y="20" width="16" height="11" rx="1" fill="#DDE0E6"/><rect x="109" y="20" width="16" height="11" rx="1" fill="#DDE0E6"/><rect x="90" y="34" width="16" height="11" rx="1" fill="#DDE0E6"/><rect x="109" y="34" width="16" height="11" rx="1" fill="#DDE0E6"/><rect x="90" y="48" width="16" height="11" rx="1" fill="#DDE0E6"/><rect x="109" y="48" width="16" height="11" rx="1" fill="#DDE0E6"/><rect x="90" y="62" width="16" height="11" rx="1" fill="#DDE0E6"/><rect x="109" y="62" width="16" height="11" rx="1" fill="#DDE0E6"/><rect x="90" y="76" width="16" height="11" rx="1" fill="#DDE0E6"/><rect x="109" y="76" width="16" height="11" rx="1" fill="#DDE0E6"/><rect x="90" y="90" width="16" height="11" rx="1" fill="#DDE0E6"/><rect x="109" y="90" width="16" height="11" rx="1" fill="#DDE0E6"/><rect x="90" y="104" width="16" height="11" rx="1" fill="#DDE0E6"/><rect x="109" y="104" width="16" height="11" rx="1" fill="#DDE0E6"/><path d="m47 15.5 3.5-3.5" stroke="#E6E7EA" stroke-width="5" stroke-linecap="round"/><rect x="149" y="32" width="79.38" height="11.98" rx="1.13" fill="#8F99A6" fill-opacity=".16"/><rect x="149" y="52.97" width="79.38" height="11.98" rx="1.13" fill="#5DA9FE" fill-opacity=".15"/><rect x="149" y="73.94" width="79.38" height="11.98" rx="1.13" fill="#8F99A6" fill-opacity=".16"/><rect x="149" y="94.91" width="35.95" height="11.98" rx="1.13" fill="#8F99A6" fill-opacity=".16"/><rect x="192.44" y="94.91" width="35.95" height="11.98" rx="1.13" fill="#8F99A6" fill-opacity=".16"/><g filter="url(#a)"><rect x="134" y="49" width="79.38" height="11.98" rx="1.13" fill="#fff"/><rect x="134.14" y="49.14" width="79.1" height="11.7" rx=".98" stroke="#5DA9FE" stroke-width=".28"/></g><path d="M189.25 54.55c-.4.15-.69.5-.75.9m.75-.9-.75.9m.75-.9a1.13 1.13 0 0 1 .9.1l.16.1a.5.5 0 0 0 .54 0l.15-.1m-1.75-.1 1.75.1m-2.53 1.92v.98a.5.5 0 0 1-.47.5l-.31.02c-.55.04-.9.24-1.11.57l-.42-.28.42.28a1.35 1.35 0 0 0-.15 1.24l-.47.17.47-.17a.92.92 0 0 0 .24.38c.18.2.5.48 1.11 1.02a40.46 40.46 0 0 1 1.24 1.14c.02.03.07.09.1.17.05.11.07.25.07.34a4.9 4.9 0 0 1 .02.42v.15h2.7a171.63 171.63 0 0 0 2.73-.01v-.02l.01-.32c0-.32.01-.63.06-.81l-6.24-5.77Zm0 0v-.74m0 .74v-.74m7.2 3.77c.24-.8.39-1.8.39-2.55 0-.3-.03-.45-.06-.56a.82.82 0 0 0-.24-.31.89.89 0 0 0-.54-.25l-.26-.04a.5.5 0 0 1-.38-.28l-.1-.2a1.12 1.12 0 0 0-.75-.54 1 1 0 0 0-.59.06l-.22.07a.5.5 0 0 1-.52-.11l-.12-.12a1.14 1.14 0 0 0-.42-.24l3.82 5.07Zm0 0c-.04.18-.26.82-.49 1.43m.5-1.43-.5 1.43M191 54.65c.08-.06.22-.11.4-.14m-.4.14.4-.14m-2.92 1.32.01-.26m-.01.26.01-.26m0 0a2.36 2.36 0 0 1 0-.09m0 .08v-.08m0 0a.43.43 0 0 1 0-.03m0 .03v-.03m6.69 5.58a38.82 38.82 0 0 0-.47 1.31l.47-1.31Zm-3.78-6.52c.18-.02.34-.01.46.02l-.46-.02Zm3.44 8.96h-.01Zm-2.94.53c2.72 0 3 0 3.08-.06l-6.08.06h3Z" fill="#fff" stroke="#000" stroke-linejoin="round"/><path d="M50 72.5v-4.12a13 13 0 0 0-3.8-9.19l-2.15-2.14a9.97 9.97 0 0 1 0-14.1v0a9.97 9.97 0 0 0 1.09-12.81L41.5 25" stroke="#E6E7EA" stroke-width="5" stroke-linecap="round"/><path d="M17 93.5H7.5C3 93.5 1 110 7.5 118c5.2 6.4 12.17 7 15 6.5" stroke="#FF8A60" stroke-width="5"/><path fill-rule="evenodd" clip-rule="evenodd" d="M23.48 77c-4.26 0-7.69 3.34-7.47 7.6.28 5.4.98 13.79 2.72 25.37 2.18 14.59 5.49 22.46 7.57 26.21 1.07 1.93 3.15 2.87 5.36 2.87h19.8c2.2 0 4.3-.94 5.36-2.87 2.08-3.75 5.4-11.62 7.57-26.2a266.12 266.12 0 0 0 2.72-25.38c.22-4.26-3.2-7.6-7.47-7.6H23.48Z" fill="#F15A24"/><mask id="b" style="mask-type:alpha" maskUnits="userSpaceOnUse" x="16" y="77" width="52" height="63"><path fill-rule="evenodd" clip-rule="evenodd" d="M23.48 77c-4.26 0-7.69 3.34-7.47 7.6.28 5.4.98 13.79 2.72 25.37 2.18 14.59 5.49 22.46 7.57 26.21 1.07 1.93 3.15 2.87 5.36 2.87h19.8c2.2 0 4.3-.94 5.36-2.87 2.08-3.75 5.4-11.62 7.57-26.2a266.12 266.12 0 0 0 2.72-25.38c.22-4.26-3.2-7.6-7.47-7.6H23.48Z" fill="#F15A24"/></mask><g mask="url(#b)"><path opacity=".6" d="m41 145 5.1-69L71 77l-8.49 68H41Z" fill="#FF8A60"/></g><path d="M40.88 111.76h6.34v3.23h-6.34v-3.23Z" fill="#fff"/><path d="M45.9 101.4H36.9a1.46 1.46 0 0 0-1.01.4 1.39 1.39 0 0 0-.43.98v1.85h11.75v-3.23h-1.33Zm-.12 5.12h-10.3V115h3.34v-5.24h6.98c.3 0 .59-.09.83-.25.24-.17.43-.4.53-.67.05-.13.07-.26.07-.4v-1.9h-1.45Zm-4.4 14.6a13.8 13.8 0 0 1-7.48-2.2 13.14 13.14 0 0 1-4.96-5.85 12.64 12.64 0 0 1-.77-7.53 12.9 12.9 0 0 1 3.69-6.67 13.54 13.54 0 0 1 4.97-3.06 13.9 13.9 0 0 1 11.46 1.07 13.3 13.3 0 0 1 4.28 3.92 12.8 12.8 0 0 1 2.14 5.31c.3 1.9.16 3.85-.41 5.7a12.93 12.93 0 0 1-2.88 4.97 13.47 13.47 0 0 1-4.8 3.31 13.77 13.77 0 0 1-5.24 1.03Zm0-24.35a11.97 11.97 0 0 0-6.5 1.9 11.4 11.4 0 0 0-4.3 5.08 10.97 10.97 0 0 0-.67 6.54 11.2 11.2 0 0 0 3.2 5.79 11.9 11.9 0 0 0 8.27 3.31c3.1 0 6.07-1.19 8.27-3.31 2.19-2.12 3.42-5 3.42-8s-1.23-5.88-3.42-8a11.64 11.64 0 0 0-3.8-2.45 11.95 11.95 0 0 0-4.47-.85Z" fill="#fff"/><path d="M36 73.5v-4.12a13 13 0 0 0-3.8-9.19l-2.7-2.69a9.2 9.2 0 0 1 0-13v0a9.2 9.2 0 0 0 0-13v0a9.2 9.2 0 0 1 0-13L36 12" stroke="#E6E7EA" stroke-width="5" stroke-linecap="round"/><defs><filter id="a" x="123" y="45" width="101.38" height="33.98" filterUnits="userSpaceOnUse" color-interpolation-filters="sRGB"><feFlood flood-opacity="0" result="BackgroundImageFix"/><feColorMatrix in="SourceAlpha" values="0 0 0 0 0 0 0 0 0 0 0 0 0 0 0 0 0 0 127 0" result="hardAlpha"/><feOffset dy="7"/><feGaussianBlur stdDeviation="5.5"/><feColorMatrix values="0 0 0 0 0.186771 0 0 0 0 0.222062 0 0 0 0 0.275 0 0 0 0.3 0"/><feBlend in2="BackgroundImageFix" result="effect1_dropShadow_303_1890"/><feBlend in="SourceGraphic" in2="effect1_dropShadow_303_1890" result="shape"/></filter></defs></svg>