<svg aria-hidden="true" style="position: absolute; width: 0; height: 0; overflow: hidden;" version="1.1" xmlns="http://www.w3.org/2000/svg" xmlns:xlink="http://www.w3.org/1999/xlink">
<defs>
<symbol id="frm_form_icon" viewBox="0 0 24 24" fill="none"><rect x="1" y="4" width="22" height="4" rx="2" fill="#fff"/><rect x="1" y="10" width="22" height="4" rx="2" fill="#fff"/><rect x="1" y="16" width="22" height="4" rx="2" fill="#fff"/></symbol>
<symbol id="frm_view_icon" viewBox="0 0 24 24" fill="none"><rect x="1" y="4" width="7" height="7" rx="2" fill="#fff"/><rect x="10" y="4" width="13" height="3" rx="1.5" fill="#fff"/><rect opacity=".6" x="10" y="9" width="13" height="2" rx="1" fill="#fff"/><rect x="1" y="14" width="7" height="7" rx="2" fill="#fff"/><rect x="10" y="14" width="13" height="3" rx="1.5" fill="#fff"/><rect opacity=".6" x="10" y="19" width="13" height="2" rx="1" fill="#fff"/></symbol>
<symbol id="frm_page_icon" viewBox="0 0 24 24" fill="none"><rect x="4" y="2" width="16" height="20" rx="2" fill="#fff"/><path d="M20 2h-8l8 8V2Z" fill="#88BE6E"/><path d="m12 2 8 8h-8V2Z" fill="#D1E9C6"/></symbol>
<symbol id="frm_plus_folder_icon" viewBox="0 0 24 24" fill="none"><path d="M22 19a2 2 0 0 1-2 2H4a2 2 0 0 1-2-2V5a2 2 0 0 1 2-2h5l2 3h9a2 2 0 0 1 2 2v11ZM12 11v6M9 14h6" stroke="#fff" stroke-width="2" stroke-linecap="round" stroke-linejoin="round"/></symbol>
<symbol id="frm_folder_icon" viewBox="0 0 25 25" fill="none"><path d="M22.118 19.767a2 2 0 0 1-2 2h-16a2 2 0 0 1-2-2v-14a2 2 0 0 1 2-2h5l2 3h9a2 2 0 0 1 2 2v11Z" stroke="#fff" stroke-width="2" stroke-linecap="round" stroke-linejoin="round"/></symbol>
<symbol id="frm_dashed_list_icon" viewBox="0 0 24 24" fill="none"><path stroke="#282F36" stroke-opacity=".4" stroke-dasharray="4 4" d="M4.5 0v24M5 11.5h18"/></symbol>
</defs>
</svg>
