<svg width="200" height="205" fill="none" xmlns="http://www.w3.org/2000/svg"><g filter="url(#a)"><rect x="41.167" y="15" width="125" height="81.667" rx="6.667" fill="#fff"/><rect x="52.833" y="27.629" width="23.333" height="23.333" rx="5" fill="#9EA9B8" fill-opacity=".69"/><rect x="81.167" y="30" width="46.667" height="6.667" rx="3.333" fill="#9EA9B8" fill-opacity=".69"/><rect opacity=".5" x="81.167" y="41.668" width="58.333" height="3.333" rx="1.667" fill="#9EA9B8" fill-opacity=".69"/><rect opacity=".5" x="81.167" y="46.668" width="58.333" height="3.333" rx="1.667" fill="#9EA9B8" fill-opacity=".69"/><rect x="52.833" y="59.295" width="23.333" height="23.333" rx="5" fill="#9EA9B8" fill-opacity=".69"/><rect x="81.167" y="60.961" width="35" height="6.667" rx="3.333" fill="#9EA9B8" fill-opacity=".69"/><rect opacity=".5" x="81.167" y="73.332" width="61.667" height="3.333" rx="1.667" fill="#9EA9B8" fill-opacity=".69"/><rect opacity=".5" x="81.167" y="78.332" width="61.667" height="3.333" rx="1.667" fill="#9EA9B8" fill-opacity=".69"/></g><g filter="url(#b)"><path d="m96.929 148.99 49.082 13.151a6.26 6.26 0 0 0 7.667-4.426l10.242-38.225 5.931-22.136 1.618-6.037-10.98-20.197-15.294-4.098-24.541-6.576a6.26 6.26 0 0 0-7.667 4.427l-20.484 76.45a6.26 6.26 0 0 0 4.426 7.667Z" fill="#fff"/></g><g clip-path="url(#c)"><path d="M139.361 92.01c-10.745-2.879-21.836 3.518-24.718 14.272-2.879 10.745 3.526 21.839 14.271 24.718 10.746 2.879 21.839-3.526 24.718-14.271 2.882-10.754-3.525-21.84-14.271-24.718Zm-22.753 14.798a18.032 18.032 0 0 1 3.428-6.723l2.226 25.147c-5.086-4.412-7.511-11.491-5.654-18.424Zm12.833 22.227a18.1 18.1 0 0 1-4.761-2.043l9.354-13.872 1.429 16.205c.016.097.034.187.06.278a18.188 18.188 0 0 1-6.082-.568Zm9.311-25.098c1.068.228 2.049.372 2.049.372.973.143 1.235-1.278.277-1.475 0 0-2.896-.541-4.728-1.031-1.721-.462-4.555-1.457-4.555-1.457-.929-.308-1.426 1.109-.498 1.417 0 0 .867.35 1.795.658l.723 8.214-6.918 10.473-1.296-20.694c1.068.227 2.049.372 2.049.372.973.142 1.235-1.279.277-1.476 0 0-2.896-.54-4.728-1.031-.33-.089-.713-.2-1.126-.327 4.411-3.915 10.638-5.617 16.762-3.976a18.112 18.112 0 0 1 10.606 7.77c-.077-.028-.145-.055-.224-.076-1.721-.462-3.342.713-3.774 2.325-.387 1.446.119 2.888.62 4.572.356 1.343.732 3.052.151 5.222-.402 1.501-1.442 3.085-2.855 5.31l-3.31 5.372-1.297-20.534Zm.139 25.077 9.5-14.043c1.668-2.233 2.541-4.139 3.019-5.923a13.35 13.35 0 0 0 .365-1.832 18.075 18.075 0 0 1-.108 8.986c-1.733 6.47-6.752 11.174-12.776 12.812Z" fill="#9EA9B8"/></g><g filter="url(#d)"><path d="m171.469 91.314-10.98-20.197-3.451 12.88a3.333 3.333 0 0 0 2.357 4.082l12.074 3.235Z" fill="#fff"/></g><g filter="url(#e)"><path d="m57.32 162.136 49.083-13.152a6.26 6.26 0 0 0 4.427-7.666l-10.243-38.225-5.931-22.136-1.618-6.037-19.607-12.001-15.294 4.098-24.541 6.576a6.26 6.26 0 0 0-4.426 7.666l20.484 76.451a6.26 6.26 0 0 0 7.667 4.426Z" fill="#fff"/></g><g filter="url(#f)"><path d="M93.038 74.927 73.431 62.926l3.45 12.879a3.333 3.333 0 0 0 4.083 2.357l12.074-3.235Z" fill="#fff"/></g><g clip-path="url(#g)" fill="#9EA9B8"><path d="m69.745 116.799 9.081-2.434 1.284 4.789-9.082 2.433-1.283-4.788Z"/><path d="m72.814 99.52-12.879 3.451a2.117 2.117 0 0 0-1.569 1.771c-.037.277-.019.559.054.83l.734 2.741 16.842-4.513-1.283-4.789-1.899.51Zm1.87 7.64-14.761 3.955 3.362 12.549 4.788-1.283-2.079-7.761L76 111.939a2.152 2.152 0 0 0 1.581-1.892c.019-.203 0-.408-.056-.605l-.76-2.84-2.08.558Zm-.512 23.32a20.004 20.004 0 0 1-21.034-7.147 20.005 20.005 0 0 1 29.01-27.26 20.006 20.006 0 0 1 6.854 15.642 19.994 19.994 0 0 1-7.724 15.233 19.842 19.842 0 0 1-7.106 3.532Zm-9.667-36.078a17.351 17.351 0 0 0-4.188 31.791 17.354 17.354 0 0 0 23.711-6.353 17.357 17.357 0 0 0-6.353-23.71 17.23 17.23 0 0 0-13.165-1.711l-.005-.017Z"/></g><defs><filter id="a" x="13.088" y=".96" width="181.158" height="137.824" filterUnits="userSpaceOnUse" color-interpolation-filters="sRGB"><feFlood flood-opacity="0" result="BackgroundImageFix"/><feColorMatrix in="SourceAlpha" values="0 0 0 0 0 0 0 0 0 0 0 0 0 0 0 0 0 0 127 0" result="hardAlpha"/><feOffset dy="14.04"/><feGaussianBlur stdDeviation="14.04"/><feColorMatrix values="0 0 0 0 0.247059 0 0 0 0 0.294118 0 0 0 0 0.356863 0 0 0 0.15 0"/><feBlend in2="BackgroundImageFix" result="effect1_dropShadow_801_25756"/><feBlend in="SourceGraphic" in2="effect1_dropShadow_801_25756" result="shape"/></filter><filter id="b" x="64.209" y="46.193" width="135.34" height="158.281" filterUnits="userSpaceOnUse" color-interpolation-filters="sRGB"><feFlood flood-opacity="0" result="BackgroundImageFix"/><feColorMatrix in="SourceAlpha" values="0 0 0 0 0 0 0 0 0 0 0 0 0 0 0 0 0 0 127 0" result="hardAlpha"/><feOffset dy="14.04"/><feGaussianBlur stdDeviation="14.04"/><feColorMatrix values="0 0 0 0 0.247059 0 0 0 0 0.294118 0 0 0 0 0.356863 0 0 0 0.15 0"/><feBlend in2="BackgroundImageFix" result="effect1_dropShadow_801_25756"/><feBlend in="SourceGraphic" in2="effect1_dropShadow_801_25756" result="shape"/></filter><filter id="d" x="148.59" y="66.109" width="29.139" height="33.538" filterUnits="userSpaceOnUse" color-interpolation-filters="sRGB"><feFlood flood-opacity="0" result="BackgroundImageFix"/><feColorMatrix in="SourceAlpha" values="0 0 0 0 0 0 0 0 0 0 0 0 0 0 0 0 0 0 127 0" result="hardAlpha"/><feOffset dx="-1.667" dy="1.667"/><feGaussianBlur stdDeviation="3.333"/><feColorMatrix values="0 0 0 0 0.247059 0 0 0 0 0.294118 0 0 0 0 0.356863 0 0 0 0.2 0"/><feBlend in2="BackgroundImageFix" result="effect1_dropShadow_801_25756"/><feColorMatrix in="SourceAlpha" values="0 0 0 0 0 0 0 0 0 0 0 0 0 0 0 0 0 0 127 0" result="hardAlpha"/><feOffset dy="1.252"/><feGaussianBlur stdDeviation="3.13"/><feColorMatrix values="0 0 0 0 0 0 0 0 0 0 0 0 0 0 0 0 0 0 0.05 0"/><feBlend in2="effect1_dropShadow_801_25756" result="effect2_dropShadow_801_25756"/><feBlend in="SourceGraphic" in2="effect2_dropShadow_801_25756" result="shape"/></filter><filter id="e" x=".875" y="48.88" width="138.248" height="155.59" filterUnits="userSpaceOnUse" color-interpolation-filters="sRGB"><feFlood flood-opacity="0" result="BackgroundImageFix"/><feColorMatrix in="SourceAlpha" values="0 0 0 0 0 0 0 0 0 0 0 0 0 0 0 0 0 0 127 0" result="hardAlpha"/><feOffset dy="14.04"/><feGaussianBlur stdDeviation="14.04"/><feColorMatrix values="0 0 0 0 0.247059 0 0 0 0 0.294118 0 0 0 0 0.356863 0 0 0 0.15 0"/><feBlend in2="BackgroundImageFix" result="effect1_dropShadow_801_25756"/><feBlend in="SourceGraphic" in2="effect1_dropShadow_801_25756" result="shape"/></filter><filter id="f" x="65.097" y="57.918" width="34.2" height="28.691" filterUnits="userSpaceOnUse" color-interpolation-filters="sRGB"><feFlood flood-opacity="0" result="BackgroundImageFix"/><feColorMatrix in="SourceAlpha" values="0 0 0 0 0 0 0 0 0 0 0 0 0 0 0 0 0 0 127 0" result="hardAlpha"/><feOffset dx="-1.667" dy="1.667"/><feGaussianBlur stdDeviation="3.333"/><feColorMatrix values="0 0 0 0 0.247059 0 0 0 0 0.294118 0 0 0 0 0.356863 0 0 0 0.2 0"/><feBlend in2="BackgroundImageFix" result="effect1_dropShadow_801_25756"/><feColorMatrix in="SourceAlpha" values="0 0 0 0 0 0 0 0 0 0 0 0 0 0 0 0 0 0 127 0" result="hardAlpha"/><feOffset dy="1.252"/><feGaussianBlur stdDeviation="3.13"/><feColorMatrix values="0 0 0 0 0 0 0 0 0 0 0 0 0 0 0 0 0 0 0.05 0"/><feBlend in2="effect1_dropShadow_801_25756" result="effect2_dropShadow_801_25756"/><feBlend in="SourceGraphic" in2="effect2_dropShadow_801_25756" result="shape"/></filter><clipPath id="c"><path fill="#fff" transform="rotate(15 -266.877 496.484)" d="M0 0h41.667v41.667H0z"/></clipPath><clipPath id="g"><path fill="#fff" transform="rotate(-15 390.718 -120.496)" d="M0 0h40v40H0z"/></clipPath></defs></svg>