<svg width="56" height="56" fill="none" xmlns="http://www.w3.org/2000/svg"><path d="M15.552 49.241h25.862a3 3 0 003-3V20.035L31.138 6.759H15.552a3 3 0 00-3 3V46.24a3 3 0 003 3z" fill="#EA4B4B"/><path d="M34.138 20.035h10.276L31.138 6.759v10.276a3 3 0 003 3z" fill="#FC9393"/><path d="M38.922 31.786c-.918-1.83-4.915-2.009-6.989-1.962C30.71 28.58 29.271 27 28.2 25.463c1.155-3.395 1.43-5.662.819-6.744-.769-1.36-1.83-1.514-2.568-1.205-1.287.54-2.15 2.74-1.216 5.758.235.758.65 1.574 1.175 2.402a49.23 49.23 0 01-2.379 5.482c-2.103.71-4.49 1.898-5.745 3.815a2.554 2.554 0 00-.176 2.504c.628 1.332 2.006 1.691 3.656.053.593-.59 1.243-1.433 1.931-2.506.487-.759.984-1.623 1.473-2.55 1.914-.578 4.089-.925 6.104-1.025a49.943 49.943 0 002.071 1.947c.893.801 2.34 1.62 3.586 1.475.715-.083 1.321-.459 1.754-1.087.623-.906.416-1.64.238-1.996zm-16.545 2.299c-1.72 2.706-2.544 2.92-2.653 2.936a.996.996 0 01-.075-1.184c.607-.928 1.699-1.772 3.17-2.471a27.89 27.89 0 01-.442.719zm4.708-15.1a.055.055 0 01.022-.004c.091 0 .294.164.493.516.187.33.235 1.541-.508 4.092a6.327 6.327 0 01-.306-.783c-.711-2.298-.074-3.664.3-3.82zm-.962 11.576a51.61 51.61 0 001.414-3.284c.72.937 1.517 1.852 2.286 2.676-1.253.123-2.512.33-3.7.608zm11.217 2.323c-.216.315-.433.377-.598.397-.8.094-1.964-.764-2.307-1.07a39.177 39.177 0 01-.838-.765c.017 0 .035 0 .053.002 2.485.139 3.644.702 3.817 1.047.05.098-.042.266-.127.39z" fill="#fff"/></svg>