<svg width="56" height="56" fill="none" xmlns="http://www.w3.org/2000/svg"><path d="M15.552 49.241h25.862a3 3 0 003-3V20.035L31.138 6.759H15.552a3 3 0 00-3 3V46.24a3 3 0 003 3z" fill="#4CAE4F"/><path fill="#fff" d="M17.862 22.69h9.293v3.983h-9.293zM17.862 29.328h9.293v3.983h-9.293zM17.862 35.965h9.293v3.983h-9.293zM29.81 22.69h9.293v3.983H29.81zM29.81 29.328h9.293v3.983H29.81zM29.81 35.965h9.293v3.983H29.81z"/><path d="M34.138 20.035h10.276L31.138 6.759v10.276a3 3 0 003 3z" fill="#82D885"/></svg>