<svg xmlns="http://www.w3.org/2000/svg" viewBox="0 0 1000 1000" fill-rule="evenodd" stroke-linejoin="round" stroke-miterlimit="2" xmlns:v="https://vecta.io/nano"><g transform="matrix(14.1893 0 0 14.1893 211.31 -15.9075)"><path d="M29.783 37.454c-1.314 0-2.546-.766-3.148-1.971l-1.041-2.327H15.273l-1.04 2.327c-.602 1.205-1.834 1.971-3.148 1.971h-.548l4.408 33.591c.219.63.629.63.876 0l4.38-10.731 3.805 10.704c.219.629.63.629.876 0l5.092-33.536-.191-.028z" fill="url(#A)"/><path d="M25.184 32.225h-9.472l-1.451 3.257a3.56 3.56 0 0 1-2.491 1.889l3.34 20.724c.219.384.629.384.876 0l4.27-6.488 3.915 6.461c.247.383.63.383.876 0l3.778-20.751c-.931-.274-1.752-.931-2.19-1.835l-1.451-3.257z" fill="url(#B)"/><path d="M26.635 35.481L20.42 21.602l-6.187 13.879a3.95 3.95 0 0 1-.821 1.068l2.573 13.771c.137.191.493.246.74 0l3.449-4.572 3.449 4.544c.219.274.603.219.74 0l2.847-13.934c-.219-.274-.411-.548-.575-.877z" fill="url(#C)"/></g><path d="M219.795 22.531c-2.71-9.322 2.724-15.935 12.047-15.935h77.303c5.435 0 10.486 4.668 12.033 9.337l56.715 223.354h2.724L482.78 7.377c1.944-3.888 5.832-7.378 11.266-7.378h12.047c5.818 0 9.705 3.107 11.266 7.378l102.163 231.91h2.71l56.715-223.354c1.164-4.668 6.612-9.337 12.047-9.337h77.303c9.322 0 14.374 6.612 12.033 15.935L655.648 465.365c-1.178 5.435-6.612 9.322-12.047 9.322h-10.486c-4.668 0-9.322-3.107-11.266-7.378L501.041 197.727h-1.944L379.07 467.309c-1.944 3.888-6.612 7.378-11.266 7.378h-10.5c-5.435 0-10.486-3.888-12.033-9.322L219.795 22.531z" fill="#f56f46"/><defs><linearGradient id="A" x1="10.218" y1="71.716" x2="10.502" y2="33.156" gradientUnits="userSpaceOnUse"><stop offset="0" stop-color="#e25d35"/><stop offset=".26" stop-color="#f56f46"/><stop offset="1" stop-color="#ffd147"/></linearGradient><linearGradient id="B" x1="11.49" y1="58.518" x2="11.64" y2="32.224" gradientUnits="userSpaceOnUse"><stop offset="0" stop-color="#e25d35"/><stop offset=".26" stop-color="#f56f46"/><stop offset="1" stop-color="#ffd147"/></linearGradient><linearGradient id="C" x1="13.186" y1="50.634" x2="13.412" y2="21.602" gradientUnits="userSpaceOnUse"><stop offset="0" stop-color="#e25d35"/><stop offset=".26" stop-color="#f56f46"/><stop offset="1" stop-color="#ffd147"/></linearGradient></defs></svg>