<svg width="20" height="20" viewBox="0 0 20 20" fill="none" xmlns="http://www.w3.org/2000/svg">
<path d="M17.3169 16.4331L13.0512 12.1675C13.8775 11.1469 14.375 9.85 14.375 8.43751C14.375 5.16376 11.7112 2.5 8.43748 2.5C5.16373 2.5 2.5 5.16373 2.5 8.43748C2.5 11.7112 5.16376 14.375 8.43751 14.375C9.84999 14.375 11.1469 13.8775 12.1675 13.0512L16.4331 17.3169C16.555 17.4387 16.715 17.5 16.875 17.5C17.035 17.5 17.195 17.4387 17.3169 17.3169C17.5612 17.0725 17.5612 16.6775 17.3169 16.4331ZM8.43751 13.125C5.8525 13.125 3.75001 11.0225 3.75001 8.43748C3.75001 5.85247 5.8525 3.74998 8.43751 3.74998C11.0225 3.74998 13.125 5.85247 13.125 8.43748C13.125 11.0225 11.0225 13.125 8.43751 13.125Z" fill="#82838E"/>
</svg>
