<?xml version="1.0" encoding="utf-8"?>
<!-- Generator: Adobe Illustrator 23.0.0, SVG Export Plug-In . SVG Version: 6.00 Build 0)  -->
<svg version="1.1" id="Layer_1" xmlns="http://www.w3.org/2000/svg" xmlns:xlink="http://www.w3.org/1999/xlink" x="0px" y="0px"
	 viewBox="0 0 206.5 33.8" style="enable-background:new 0 0 206.5 33.8;" xml:space="preserve">
<style type="text/css">
	.st0{fill:#1DAAFC;}
	.st1{fill:#070045;}
</style>
<polygon class="st0" points="48.8,3.6 32,32.3 25.3,32.3 42,3.6 "/>
<polygon class="st1" points="35.5,3.6 18.9,32.3 2.1,3.6 22.2,3.6 19.2,9.5 18.8,9.5 12.3,9.5 18.8,21 28.7,3.6 "/>
<g>
	<g>
		<path class="st1" d="M56.6,28c-0.3,0-0.5-0.1-0.7-0.2c-0.2-0.2-0.3-0.4-0.3-0.6l-2.7-15.9c0,0,0-0.1,0-0.1s0,0,0-0.1
			c0-0.1,0.1-0.3,0.2-0.4c0.1-0.1,0.2-0.2,0.4-0.2h3.1c0.5,0,0.7,0.2,0.8,0.5l1.6,9.7l1.8-5.7c0-0.1,0.1-0.3,0.2-0.4
			s0.3-0.2,0.6-0.2h1.8c0.3,0,0.5,0.1,0.6,0.2c0.1,0.2,0.2,0.3,0.2,0.4l1.8,5.7l1.6-9.7c0-0.4,0.3-0.5,0.8-0.5h3.1
			c0.1,0,0.3,0.1,0.4,0.2c0.1,0.1,0.2,0.2,0.2,0.4c0,0,0,0,0,0.1s0,0.1,0,0.1l-2.7,15.9c0,0.2-0.1,0.4-0.3,0.6S68.5,28,68.2,28h-2.4
			c-0.3,0-0.5-0.1-0.6-0.2c-0.1-0.1-0.2-0.3-0.3-0.4l-2.5-7.1l-2.5,7.1c0,0.1-0.1,0.3-0.3,0.4c-0.1,0.1-0.4,0.2-0.6,0.2H56.6z"/>
		<path class="st1" d="M79.8,28.3c-1.4,0-2.6-0.2-3.5-0.7c-1-0.4-1.7-1.1-2.2-1.9c-0.5-0.8-0.8-1.8-0.9-3c0-0.3,0-0.7,0-1.1
			c0-0.4,0-0.8,0-1.1c0.1-1.2,0.4-2.2,0.9-3c0.5-0.8,1.3-1.5,2.2-1.9c1-0.4,2.1-0.7,3.5-0.7c1.4,0,2.5,0.2,3.5,0.7
			c1,0.4,1.7,1.1,2.2,1.9c0.5,0.8,0.8,1.8,0.9,3c0,0.3,0,0.7,0,1.1c0,0.4,0,0.8,0,1.1c-0.1,1.2-0.4,2.2-0.9,3
			c-0.5,0.8-1.2,1.5-2.2,1.9C82.4,28,81.2,28.3,79.8,28.3z M79.8,25.2c0.7,0,1.3-0.2,1.6-0.7c0.3-0.4,0.5-1.1,0.6-2c0-0.2,0-0.6,0-1
			c0-0.4,0-0.7,0-1c0-0.9-0.2-1.5-0.6-2c-0.3-0.5-0.9-0.7-1.6-0.7c-0.7,0-1.3,0.2-1.6,0.7s-0.6,1.1-0.6,2c0,0.3,0,0.6,0,1
			c0,0.4,0,0.7,0,1c0,0.9,0.2,1.6,0.6,2S79.1,25.2,79.8,25.2z"/>
		<path class="st1" d="M94.9,28.3c-1.4,0-2.6-0.2-3.5-0.7c-1-0.4-1.7-1.1-2.2-1.9c-0.5-0.8-0.8-1.8-0.9-3c0-0.3,0-0.7,0-1.1
			c0-0.4,0-0.8,0-1.1c0.1-1.2,0.4-2.2,0.9-3c0.5-0.8,1.3-1.5,2.2-1.9c1-0.4,2.1-0.7,3.5-0.7c1.4,0,2.5,0.2,3.5,0.7
			c1,0.4,1.7,1.1,2.2,1.9c0.5,0.8,0.8,1.8,0.9,3c0,0.3,0,0.7,0,1.1c0,0.4,0,0.8,0,1.1c-0.1,1.2-0.4,2.2-0.9,3
			c-0.5,0.8-1.2,1.5-2.2,1.9C97.5,28,96.3,28.3,94.9,28.3z M94.9,25.2c0.7,0,1.3-0.2,1.6-0.7c0.3-0.4,0.5-1.1,0.6-2c0-0.2,0-0.6,0-1
			c0-0.4,0-0.7,0-1c0-0.9-0.2-1.5-0.6-2c-0.3-0.5-0.9-0.7-1.6-0.7c-0.7,0-1.3,0.2-1.6,0.7s-0.6,1.1-0.6,2c0,0.3,0,0.6,0,1
			c0,0.4,0,0.7,0,1c0,0.9,0.2,1.6,0.6,2S94.2,25.2,94.9,25.2z"/>
		<path class="st0" d="M104.8,28c-0.2,0-0.3-0.1-0.4-0.2c-0.1-0.1-0.2-0.3-0.2-0.4V11.2c0-0.2,0.1-0.3,0.2-0.4
			c0.1-0.1,0.3-0.2,0.4-0.2h11.5c0.2,0,0.3,0.1,0.4,0.2c0.1,0.1,0.2,0.3,0.2,0.4v2.5c0,0.2-0.1,0.3-0.2,0.4
			c-0.1,0.1-0.3,0.2-0.4,0.2h-7.7V18h7.2c0.2,0,0.3,0.1,0.4,0.2c0.1,0.1,0.2,0.3,0.2,0.5v2.5c0,0.2-0.1,0.3-0.2,0.4
			c-0.1,0.1-0.3,0.2-0.4,0.2h-7.2v5.6c0,0.2-0.1,0.3-0.2,0.4c-0.1,0.1-0.3,0.2-0.4,0.2H104.8z"/>
		<path class="st0" d="M123.8,28.3c-0.9,0-1.8-0.2-2.5-0.6c-0.7-0.4-1.3-1.1-1.7-1.9s-0.6-1.9-0.6-3.1v-7c0-0.2,0.1-0.3,0.2-0.4
			c0.1-0.1,0.3-0.2,0.4-0.2h3.1c0.2,0,0.3,0.1,0.5,0.2c0.1,0.1,0.2,0.3,0.2,0.4v6.8c0,1.6,0.7,2.4,2.2,2.4c0.7,0,1.2-0.2,1.6-0.6
			s0.6-1,0.6-1.8v-6.8c0-0.2,0.1-0.3,0.2-0.4c0.1-0.1,0.3-0.2,0.4-0.2h3.1c0.2,0,0.3,0.1,0.4,0.2s0.2,0.3,0.2,0.4v11.7
			c0,0.2-0.1,0.3-0.2,0.4c-0.1,0.1-0.3,0.2-0.4,0.2h-2.9c-0.2,0-0.3-0.1-0.4-0.2c-0.1-0.1-0.2-0.3-0.2-0.4v-0.9
			c-0.4,0.6-1,1.1-1.7,1.4S124.8,28.3,123.8,28.3z"/>
		<path class="st0" d="M135.6,28c-0.2,0-0.3-0.1-0.4-0.2c-0.1-0.1-0.2-0.3-0.2-0.4V15.7c0-0.2,0.1-0.3,0.2-0.4s0.3-0.2,0.4-0.2h2.9
			c0.2,0,0.3,0.1,0.5,0.2c0.1,0.1,0.2,0.3,0.2,0.4v0.9c0.4-0.5,1-0.9,1.7-1.3c0.7-0.3,1.5-0.5,2.5-0.5c1,0,1.8,0.2,2.6,0.6
			c0.7,0.4,1.3,1.1,1.7,1.9c0.4,0.8,0.6,1.9,0.6,3.1v7c0,0.2-0.1,0.3-0.2,0.4c-0.1,0.1-0.3,0.2-0.4,0.2h-3.1c-0.2,0-0.3-0.1-0.4-0.2
			c-0.1-0.1-0.2-0.3-0.2-0.4v-6.8c0-0.8-0.2-1.4-0.6-1.8c-0.4-0.4-0.9-0.6-1.7-0.6c-0.7,0-1.2,0.2-1.6,0.6c-0.4,0.4-0.6,1-0.6,1.8
			v6.8c0,0.2-0.1,0.3-0.2,0.4c-0.1,0.1-0.3,0.2-0.4,0.2H135.6z"/>
		<path class="st0" d="M151.5,28c-0.2,0-0.3-0.1-0.4-0.2c-0.1-0.1-0.2-0.3-0.2-0.4V15.7c0-0.2,0.1-0.3,0.2-0.4s0.3-0.2,0.4-0.2h2.9
			c0.2,0,0.3,0.1,0.5,0.2c0.1,0.1,0.2,0.3,0.2,0.4v0.9c0.4-0.5,1-0.9,1.7-1.3c0.7-0.3,1.5-0.5,2.5-0.5c1,0,1.8,0.2,2.6,0.6
			c0.7,0.4,1.3,1.1,1.7,1.9c0.4,0.8,0.6,1.9,0.6,3.1v7c0,0.2-0.1,0.3-0.2,0.4c-0.1,0.1-0.3,0.2-0.4,0.2h-3.1c-0.2,0-0.3-0.1-0.4-0.2
			c-0.1-0.1-0.2-0.3-0.2-0.4v-6.8c0-0.8-0.2-1.4-0.6-1.8c-0.4-0.4-0.9-0.6-1.7-0.6c-0.7,0-1.2,0.2-1.6,0.6c-0.4,0.4-0.6,1-0.6,1.8
			v6.8c0,0.2-0.1,0.3-0.2,0.4c-0.1,0.1-0.3,0.2-0.4,0.2H151.5z"/>
		<path class="st0" d="M172.8,28.3c-2,0-3.5-0.5-4.7-1.6c-1.2-1.1-1.8-2.6-1.8-4.7c0-0.1,0-0.3,0-0.4c0-0.2,0-0.3,0-0.4
			c0-1.3,0.3-2.4,0.9-3.4c0.5-0.9,1.3-1.7,2.2-2.1c1-0.5,2.1-0.7,3.4-0.7c1.5,0,2.7,0.3,3.6,0.9c1,0.6,1.7,1.4,2.2,2.4
			c0.5,1,0.7,2.1,0.7,3.4V22c0,0.2-0.1,0.3-0.2,0.4c-0.1,0.1-0.3,0.2-0.4,0.2h-8c0,0,0,0,0,0.1s0,0.1,0,0.1c0,0.5,0.1,0.9,0.3,1.3
			c0.2,0.4,0.4,0.7,0.7,0.9s0.7,0.3,1.1,0.3c0.3,0,0.6-0.1,0.8-0.2c0.2-0.1,0.4-0.2,0.6-0.4c0.1-0.1,0.3-0.3,0.3-0.4
			c0.1-0.2,0.3-0.3,0.4-0.3c0.1,0,0.2-0.1,0.4-0.1h3.1c0.2,0,0.3,0,0.4,0.1c0.1,0.1,0.2,0.2,0.1,0.4c0,0.3-0.2,0.6-0.4,1
			s-0.7,0.8-1.2,1.2c-0.5,0.4-1.1,0.7-1.9,1C174.7,28.1,173.8,28.3,172.8,28.3z M170.7,20.2h4.2v0c0-0.5-0.1-1-0.2-1.4
			s-0.4-0.7-0.7-0.9c-0.3-0.2-0.7-0.3-1.2-0.3c-0.4,0-0.8,0.1-1.1,0.3c-0.3,0.2-0.6,0.5-0.7,0.9S170.7,19.6,170.7,20.2L170.7,20.2z"
			/>
		<path class="st0" d="M182.1,28c-0.2,0-0.3-0.1-0.4-0.2c-0.1-0.1-0.2-0.3-0.2-0.4V10.9c0-0.2,0.1-0.3,0.2-0.4s0.3-0.2,0.4-0.2h2.9
			c0.2,0,0.3,0.1,0.4,0.2s0.2,0.3,0.2,0.4v16.4c0,0.2-0.1,0.3-0.2,0.4c-0.1,0.1-0.3,0.2-0.4,0.2H182.1z"/>
		<path class="st0" d="M193.9,28.3c-1.1,0-2-0.1-2.8-0.4c-0.8-0.2-1.4-0.5-1.8-0.9c-0.5-0.3-0.8-0.7-1.1-1.1c-0.2-0.4-0.4-0.7-0.4-1
			c0-0.2,0-0.3,0.2-0.4c0.1-0.1,0.3-0.2,0.4-0.2h2.8c0,0,0.1,0,0.1,0c0,0,0.1,0,0.1,0.1c0.2,0.1,0.4,0.3,0.6,0.4
			c0.2,0.2,0.5,0.3,0.7,0.5s0.6,0.2,1,0.2c0.5,0,0.9-0.1,1.2-0.3c0.3-0.2,0.5-0.5,0.5-0.8c0-0.3-0.1-0.5-0.2-0.7
			c-0.1-0.2-0.5-0.3-0.9-0.5c-0.5-0.2-1.1-0.3-2.1-0.5c-0.9-0.2-1.6-0.5-2.3-0.8c-0.6-0.3-1.1-0.7-1.5-1.3s-0.5-1.2-0.5-1.9
			c0-0.7,0.2-1.3,0.6-1.9c0.4-0.6,1.1-1.1,1.9-1.5c0.8-0.4,1.9-0.6,3.1-0.6c0.9,0,1.8,0.1,2.5,0.3c0.7,0.2,1.3,0.5,1.8,0.9
			c0.5,0.3,0.8,0.7,1.1,1.1c0.3,0.4,0.4,0.7,0.4,1c0,0.2,0,0.3-0.1,0.4c-0.1,0.1-0.3,0.2-0.4,0.2h-2.6c-0.1,0-0.1,0-0.2,0
			c-0.1,0-0.1-0.1-0.2-0.1c-0.2-0.1-0.4-0.2-0.6-0.4c-0.2-0.2-0.4-0.3-0.7-0.4c-0.3-0.1-0.6-0.2-1-0.2c-0.4,0-0.8,0.1-1,0.3
			s-0.4,0.5-0.4,0.8c0,0.2,0.1,0.4,0.2,0.6c0.1,0.2,0.4,0.3,0.9,0.5c0.4,0.1,1.1,0.3,2.1,0.5c1.1,0.2,2.1,0.5,2.7,0.9
			c0.7,0.4,1.2,0.9,1.5,1.4c0.3,0.5,0.4,1.1,0.4,1.7c0,0.8-0.2,1.5-0.7,2.1s-1.2,1.1-2.1,1.4C196.3,28.1,195.2,28.3,193.9,28.3z"/>
	</g>
</g>
</svg>
