<svg width="175" height="60" viewBox="0 0 175 60" fill="none" xmlns="http://www.w3.org/2000/svg">
<rect width="175" height="60" rx="10" fill="#484D60"/>
<g clip-path="url(#clip0_133_33)">
<path d="M138.502 29.99C138.522 25.8005 141.882 22.485 146.09 22.505C150.198 22.5183 153.512 25.9273 153.492 30.1167C153.472 34.1928 150.064 37.5284 145.937 37.5017C141.836 37.4817 138.488 34.0927 138.502 29.99ZM145.963 35.0067C148.704 35.0334 150.978 32.8052 151.004 30.07C151.031 27.2949 148.831 25.02 146.083 24.9867C143.283 24.9533 141.016 27.1748 140.996 29.97C140.976 32.7318 143.196 34.9867 145.963 35.0067Z" fill="white"/>
<path d="M156.986 39.6097C156.952 40.2235 156.732 40.6104 156.299 40.8372C155.832 41.0774 155.352 41.0574 154.965 40.6971C154.285 40.0634 153.625 39.4029 152.992 38.7225C152.558 38.2555 152.618 37.5617 153.072 37.0947C153.518 36.6344 154.225 36.5477 154.699 36.9813C155.405 37.6351 156.079 38.3222 156.739 39.0294C156.892 39.1961 156.932 39.4763 156.986 39.6097Z" fill="white"/>
<path d="M157.052 20.3169C156.906 20.5904 156.799 20.9106 156.599 21.1308C156.039 21.7445 155.439 22.3249 154.839 22.8986C154.299 23.4189 153.585 23.4256 153.085 22.932C152.578 22.4316 152.578 21.6845 153.098 21.1441C153.678 20.5504 154.265 19.9566 154.865 19.3829C155.252 19.0093 155.705 18.9026 156.212 19.1227C156.672 19.3229 156.979 19.7899 157.052 20.3169Z" fill="white"/>
<path d="M139.309 38.1021C139.222 38.2688 139.122 38.6024 138.908 38.8359C138.348 39.4496 137.748 40.0234 137.155 40.6037C136.635 41.1107 135.881 41.1107 135.394 40.6171C134.901 40.1167 134.894 39.3763 135.401 38.8559C135.988 38.2555 136.581 37.6551 137.188 37.068C137.575 36.7011 138.035 36.6011 138.542 36.8212C139.028 37.0347 139.248 37.4216 139.309 38.1021Z" fill="white"/>
<path d="M158.493 31.2375C158.073 31.2375 157.646 31.2442 157.226 31.2375C156.559 31.2242 156.032 30.7038 156.006 30.0634C155.979 29.3963 156.466 28.8092 157.139 28.7825C158.046 28.7492 158.96 28.7492 159.873 28.7825C160.527 28.8092 161.013 29.3963 160.993 30.0434C160.973 30.6704 160.473 31.1975 159.82 31.2308C159.38 31.2508 158.94 31.2308 158.493 31.2375C158.493 31.2308 158.493 31.2308 158.493 31.2375Z" fill="white"/>
<path d="M136.435 19.0027C136.595 19.0894 136.915 19.1895 137.135 19.3963C137.755 19.9633 138.342 20.5704 138.928 21.1774C139.415 21.6778 139.409 22.4316 138.935 22.9186C138.455 23.4056 137.701 23.4323 137.195 22.9453C136.575 22.3449 135.961 21.7378 135.368 21.1107C135.001 20.7238 134.914 20.2568 135.148 19.7565C135.368 19.2762 135.761 19.0494 136.435 19.0027Z" fill="white"/>
<path d="M133.527 31.2375C133.114 31.2375 132.707 31.2442 132.294 31.2375C131.547 31.2175 131 30.6971 131 30.0033C131 29.3029 131.547 28.7692 132.294 28.7625C133.094 28.7558 133.894 28.7558 134.694 28.7625C135.441 28.7692 135.988 29.3029 135.988 29.9967C135.988 30.6905 135.428 31.2242 134.694 31.2308C134.307 31.2375 133.921 31.2375 133.527 31.2375Z" fill="white"/>
<path d="M147.237 42.485C147.237 42.8719 147.237 43.2655 147.237 43.6524C147.23 44.433 146.723 44.9933 146.017 45C145.297 45.0067 144.763 44.453 144.756 43.6658C144.75 42.8519 144.743 42.0447 144.763 41.2308C144.776 40.6371 145.17 40.1768 145.71 40.0434C146.243 39.9099 146.817 40.1634 147.084 40.6771C147.17 40.8439 147.21 41.0574 147.217 41.2508C147.237 41.6578 147.224 42.0714 147.224 42.485C147.23 42.485 147.237 42.485 147.237 42.485Z" fill="white"/>
<path d="M147.224 17.495C147.224 17.9153 147.237 18.3422 147.224 18.7625C147.204 19.4363 146.697 19.9566 146.057 19.9833C145.39 20.01 144.81 19.543 144.776 18.8492C144.736 17.942 144.73 17.028 144.77 16.1207C144.81 15.4336 145.397 14.9733 146.07 15C146.71 15.0267 147.21 15.5537 147.224 16.2275C147.237 16.6544 147.224 17.0747 147.224 17.495Z" fill="white"/>
</g>
<path d="M28.6761 37H24.4382V23.9091H28.8104C30.093 23.9091 31.1946 24.1712 32.1151 24.6953C33.0355 25.2152 33.7408 25.9631 34.2308 26.9389C34.7251 27.9105 34.9723 29.076 34.9723 30.4354C34.9723 31.799 34.723 32.9709 34.2244 33.951C33.7301 34.9311 33.0142 35.6854 32.0767 36.2138C31.1392 36.7379 30.0057 37 28.6761 37ZM26.4134 35.2741H28.5675C29.5646 35.2741 30.3935 35.0866 31.054 34.7116C31.7145 34.3324 32.2088 33.7848 32.5369 33.0689C32.8651 32.3487 33.0291 31.4709 33.0291 30.4354C33.0291 29.4084 32.8651 28.5369 32.5369 27.821C32.2131 27.1051 31.7294 26.5618 31.0859 26.1911C30.4425 25.8203 29.6435 25.6349 28.6889 25.6349H26.4134V35.2741ZM40.1323 37.2173C39.5101 37.2173 38.9476 37.1023 38.4448 36.8722C37.9419 36.6378 37.5435 36.299 37.2495 35.8558C36.9597 35.4126 36.8148 34.8693 36.8148 34.2259C36.8148 33.6719 36.9213 33.2159 37.1344 32.858C37.3475 32.5 37.6351 32.2166 37.9973 32.0078C38.3596 31.799 38.7644 31.6413 39.2118 31.5348C39.6593 31.4283 40.1152 31.3473 40.5797 31.2919C41.1678 31.2237 41.6451 31.1683 42.0115 31.1257C42.378 31.0788 42.6444 31.0043 42.8105 30.902C42.9767 30.7997 43.0598 30.6335 43.0598 30.4034V30.3587C43.0598 29.8004 42.9022 29.3679 42.5868 29.0611C42.2757 28.7543 41.8113 28.6009 41.1934 28.6009C40.5499 28.6009 40.0428 28.7436 39.6721 29.0291C39.3056 29.3104 39.052 29.6236 38.9114 29.9688L37.1152 29.5597C37.3283 28.9631 37.6394 28.4815 38.0485 28.1151C38.4618 27.7443 38.937 27.4759 39.4739 27.3097C40.0108 27.1392 40.5755 27.054 41.1678 27.054C41.5598 27.054 41.9753 27.1009 42.4142 27.1946C42.8574 27.2841 43.2708 27.4503 43.6543 27.6932C44.0421 27.9361 44.3596 28.2834 44.6067 28.7351C44.8539 29.1825 44.9775 29.7642 44.9775 30.4801V37H43.111V35.6577H43.0343C42.9107 35.9048 42.7253 36.1477 42.4782 36.3864C42.231 36.625 41.9135 36.8232 41.5257 36.9808C41.138 37.1385 40.6735 37.2173 40.1323 37.2173ZM40.5478 35.6832C41.0762 35.6832 41.5279 35.5788 41.9029 35.37C42.2821 35.1612 42.5698 34.8885 42.7658 34.5518C42.9661 34.2109 43.0662 33.8466 43.0662 33.4588V32.1932C42.998 32.2614 42.8659 32.3253 42.6699 32.3849C42.4782 32.4403 42.2587 32.4893 42.0115 32.532C41.7644 32.5703 41.5236 32.6065 41.2892 32.6406C41.0549 32.6705 40.8588 32.696 40.7012 32.7173C40.3304 32.7642 39.9917 32.843 39.6848 32.9538C39.3823 33.0646 39.1394 33.2244 38.9561 33.4332C38.7772 33.6378 38.6877 33.9105 38.6877 34.2514C38.6877 34.7244 38.8624 35.0824 39.2118 35.3253C39.5613 35.5639 40.0066 35.6832 40.5478 35.6832ZM47.5231 37V27.1818H49.3704V28.7415H49.4727C49.6516 28.2131 49.967 27.7976 50.4187 27.495C50.8746 27.1882 51.3903 27.0348 51.9656 27.0348C52.0849 27.0348 52.2255 27.0391 52.3874 27.0476C52.5536 27.0561 52.6836 27.0668 52.7773 27.0795V28.9077C52.7006 28.8864 52.5643 28.8629 52.3683 28.8374C52.1722 28.8075 51.9762 28.7926 51.7802 28.7926C51.3285 28.7926 50.9258 28.8885 50.5721 29.0803C50.2227 29.2678 49.9457 29.5298 49.7411 29.8665C49.5366 30.1989 49.4343 30.5781 49.4343 31.0043V37H47.5231ZM56.1891 33.6697L56.1763 31.3366H56.5087L60.4206 27.1818H62.709L58.2473 31.9119H57.9469L56.1891 33.6697ZM54.4313 37V23.9091H56.3425V37H54.4313ZM60.6316 37L57.1159 32.3338L58.4327 30.9979L62.9775 37H60.6316ZM69.3679 23.9091H71.7649L75.9325 34.0852H76.0859L80.2536 23.9091H82.6506V37H80.7713V27.527H80.6499L76.7891 36.9808H75.2294L71.3686 27.5206H71.2472V37H69.3679V23.9091ZM89.5044 37.1982C88.584 37.1982 87.7807 36.9872 87.0946 36.5653C86.4086 36.1435 85.8759 35.5533 85.4966 34.7947C85.1174 34.0362 84.9277 33.1499 84.9277 32.1357C84.9277 31.1172 85.1174 30.2266 85.4966 29.4638C85.8759 28.701 86.4086 28.1087 87.0946 27.6868C87.7807 27.2649 88.584 27.054 89.5044 27.054C90.4249 27.054 91.2282 27.2649 91.9142 27.6868C92.6003 28.1087 93.133 28.701 93.5123 29.4638C93.8915 30.2266 94.0811 31.1172 94.0811 32.1357C94.0811 33.1499 93.8915 34.0362 93.5123 34.7947C93.133 35.5533 92.6003 36.1435 91.9142 36.5653C91.2282 36.9872 90.4249 37.1982 89.5044 37.1982ZM89.5108 35.5938C90.1074 35.5938 90.6017 35.4361 90.9938 35.1207C91.3858 34.8054 91.6756 34.3857 91.8631 33.8615C92.0549 33.3374 92.1507 32.7599 92.1507 32.1293C92.1507 31.5028 92.0549 30.9276 91.8631 30.4034C91.6756 29.875 91.3858 29.451 90.9938 29.1314C90.6017 28.8118 90.1074 28.652 89.5108 28.652C88.91 28.652 88.4114 28.8118 88.0151 29.1314C87.623 29.451 87.3311 29.875 87.1394 30.4034C86.9519 30.9276 86.8581 31.5028 86.8581 32.1293C86.8581 32.7599 86.9519 33.3374 87.1394 33.8615C87.3311 34.3857 87.623 34.8054 88.0151 35.1207C88.4114 35.4361 88.91 35.5938 89.5108 35.5938ZM99.8899 37.1918C99.0973 37.1918 98.3899 36.9893 97.7678 36.5845C97.1499 36.1754 96.6641 35.5937 96.3104 34.8395C95.9609 34.081 95.7862 33.1712 95.7862 32.1101C95.7862 31.049 95.9631 30.1413 96.3168 29.3871C96.6747 28.6328 97.1648 28.0554 97.7869 27.6548C98.4091 27.2543 99.1143 27.054 99.9027 27.054C100.512 27.054 101.002 27.1562 101.373 27.3608C101.748 27.5611 102.038 27.7955 102.242 28.0639C102.451 28.3324 102.613 28.5689 102.728 28.7734H102.843V23.9091H104.754V37H102.888V35.4723H102.728C102.613 35.6811 102.447 35.9197 102.229 36.1882C102.016 36.4567 101.722 36.6911 101.347 36.8913C100.972 37.0916 100.487 37.1918 99.8899 37.1918ZM100.312 35.5618C100.862 35.5618 101.326 35.4169 101.705 35.1271C102.089 34.8331 102.379 34.4261 102.575 33.9062C102.775 33.3864 102.875 32.7812 102.875 32.0909C102.875 31.4091 102.777 30.8125 102.581 30.3011C102.385 29.7898 102.097 29.3913 101.718 29.1058C101.339 28.8203 100.87 28.6776 100.312 28.6776C99.7365 28.6776 99.2571 28.8267 98.8736 29.125C98.4901 29.4233 98.2003 29.8303 98.0043 30.3459C97.8125 30.8615 97.7166 31.4432 97.7166 32.0909C97.7166 32.7472 97.8146 33.3374 98.0107 33.8615C98.2067 34.3857 98.4964 34.8011 98.88 35.108C99.2678 35.4105 99.745 35.5618 100.312 35.5618ZM111.714 37.1982C110.746 37.1982 109.913 36.9915 109.214 36.5781C108.52 36.1605 107.983 35.5746 107.604 34.8203C107.229 34.0618 107.041 33.1733 107.041 32.1548C107.041 31.1491 107.229 30.2628 107.604 29.4957C107.983 28.7287 108.511 28.13 109.189 27.6996C109.871 27.2692 110.667 27.054 111.579 27.054C112.133 27.054 112.67 27.1456 113.19 27.3288C113.71 27.5121 114.177 27.7997 114.59 28.1918C115.003 28.5838 115.329 29.093 115.568 29.7195C115.807 30.3416 115.926 31.098 115.926 31.9886V32.6662H108.121V31.2344H114.053C114.053 30.7315 113.951 30.2862 113.746 29.8984C113.542 29.5064 113.254 29.1974 112.883 28.9716C112.517 28.7457 112.086 28.6328 111.592 28.6328C111.055 28.6328 110.586 28.7649 110.186 29.0291C109.79 29.2891 109.483 29.63 109.265 30.0518C109.052 30.4695 108.946 30.9233 108.946 31.4134V32.532C108.946 33.1882 109.061 33.7464 109.291 34.2067C109.525 34.6669 109.851 35.0185 110.269 35.2614C110.687 35.5 111.175 35.6193 111.733 35.6193C112.095 35.6193 112.425 35.5682 112.724 35.4659C113.022 35.3594 113.28 35.2017 113.497 34.9929C113.714 34.7841 113.881 34.5263 113.996 34.2195L115.805 34.5455C115.66 35.0781 115.4 35.5447 115.025 35.9453C114.654 36.3416 114.187 36.6506 113.625 36.8722C113.067 37.0895 112.43 37.1982 111.714 37.1982Z" fill="white"/>
<defs>
<clipPath id="clip0_133_33">
<rect width="30" height="30" fill="white" transform="translate(131 15)"/>
</clipPath>
</defs>
</svg>
