<svg width="360" height="80" viewBox="0 0 360 80" fill="none" xmlns="http://www.w3.org/2000/svg">
<rect x="91" width="180" height="80" rx="40" fill="#203E7F"/>
<g clip-path="url(#clip0_47_2623)">
<path d="M229.324 20.2528C236.197 24.3136 238.324 32.2106 235.704 38.323C234.155 41.9061 231.577 44.4916 227.944 45.953C224.338 47.4003 220.69 47.3581 217.014 45.953C219.577 52.1497 227.535 57.672 237 55.5361C246.493 53.3722 252.62 43.8172 250.62 34.4307C248.648 25.1427 239.972 18.5947 229.324 20.2528Z" fill="white"/>
</g>
<path d="M1.89631 50V28.1818H6.50923V46.1967H15.8629V50H1.89631ZM18.8326 50V33.6364H23.3709V50H18.8326ZM21.1124 31.527C20.4377 31.527 19.8588 31.3033 19.3759 30.8558C18.9 30.4013 18.6621 29.858 18.6621 29.2259C18.6621 28.6009 18.9 28.0646 19.3759 27.6172C19.8588 27.1626 20.4377 26.9354 21.1124 26.9354C21.7871 26.9354 22.3624 27.1626 22.8382 27.6172C23.3212 28.0646 23.5627 28.6009 23.5627 29.2259C23.5627 29.858 23.3212 30.4013 22.8382 30.8558C22.3624 31.3033 21.7871 31.527 21.1124 31.527ZM34.3786 56.4773C32.9084 56.4773 31.6477 56.2749 30.5966 55.87C29.5526 55.4723 28.7216 54.929 28.1037 54.2401C27.4858 53.5511 27.0845 52.777 26.8999 51.9176L31.0973 51.353C31.2251 51.6797 31.4276 51.9851 31.7045 52.2692C31.9815 52.5533 32.3473 52.7805 32.8018 52.951C33.2635 53.1286 33.8246 53.2173 34.4851 53.2173C35.4723 53.2173 36.2855 52.9759 36.9247 52.4929C37.571 52.017 37.8942 51.218 37.8942 50.0959V47.1023H37.7024C37.5036 47.5568 37.2053 47.9865 36.8075 48.3913C36.4098 48.7962 35.8984 49.1264 35.2734 49.3821C34.6484 49.6378 33.9027 49.7656 33.0362 49.7656C31.8075 49.7656 30.6889 49.4815 29.6804 48.9134C28.679 48.3381 27.88 47.4609 27.2834 46.282C26.6939 45.0959 26.3991 43.5973 26.3991 41.7862C26.3991 39.9325 26.701 38.3842 27.3047 37.1413C27.9084 35.8984 28.7109 34.968 29.7124 34.3501C30.7209 33.7322 31.8253 33.4233 33.0256 33.4233C33.9418 33.4233 34.7088 33.5795 35.3267 33.892C35.9446 34.1974 36.4418 34.581 36.8182 35.0426C37.2017 35.4972 37.4964 35.9446 37.7024 36.3849H37.8729V33.6364H42.3793V50.1598C42.3793 51.5518 42.0384 52.7166 41.3565 53.6541C40.6747 54.5916 39.7301 55.2947 38.5227 55.7635C37.3224 56.2393 35.9411 56.4773 34.3786 56.4773ZM34.4744 46.3565C35.206 46.3565 35.8239 46.1754 36.3281 45.8132C36.8395 45.4439 37.2301 44.9183 37.5 44.2365C37.777 43.5476 37.9155 42.7237 37.9155 41.7649C37.9155 40.8061 37.7805 39.9751 37.5107 39.272C37.2408 38.5618 36.8501 38.0114 36.3388 37.6207C35.8274 37.2301 35.206 37.0348 34.4744 37.0348C33.7287 37.0348 33.1001 37.2372 32.5888 37.642C32.0774 38.0398 31.6903 38.5937 31.4276 39.304C31.1648 40.0142 31.0334 40.8345 31.0334 41.7649C31.0334 42.7095 31.1648 43.5263 31.4276 44.2152C31.6974 44.897 32.0845 45.4261 32.5888 45.8026C33.1001 46.1719 33.7287 46.3565 34.4744 46.3565ZM50.5291 40.5398V50H45.9908V28.1818H50.4013V36.5234H50.593C50.9624 35.5575 51.5589 34.8011 52.3828 34.2543C53.2067 33.7003 54.2401 33.4233 55.483 33.4233C56.6193 33.4233 57.6101 33.6719 58.4553 34.169C59.3075 34.6591 59.968 35.3658 60.4368 36.2891C60.9126 37.2053 61.147 38.3026 61.1399 39.581V50H56.6016V40.3906C56.6087 39.3821 56.353 38.5973 55.8345 38.0362C55.3232 37.4751 54.6058 37.1946 53.6825 37.1946C53.0646 37.1946 52.5178 37.326 52.0419 37.5888C51.5732 37.8516 51.2038 38.2351 50.9339 38.7393C50.6712 39.2365 50.5362 39.8366 50.5291 40.5398ZM73.4153 33.6364V37.0455H63.5609V33.6364H73.4153ZM65.7981 29.7159H70.3365V44.9716C70.3365 45.3906 70.4004 45.7173 70.5282 45.9517C70.6561 46.179 70.8336 46.3388 71.0609 46.4311C71.2953 46.5234 71.5652 46.5696 71.8706 46.5696C72.0836 46.5696 72.2967 46.5518 72.5098 46.5163C72.7228 46.4737 72.8862 46.4418 72.9998 46.4205L73.7136 49.7976C73.4863 49.8686 73.1667 49.9503 72.7548 50.0426C72.3429 50.142 71.8422 50.2024 71.2527 50.2237C70.1589 50.2663 69.2001 50.1207 68.3762 49.7869C67.5595 49.4531 66.9238 48.9347 66.4693 48.2315C66.0147 47.5284 65.791 46.6406 65.7981 45.5682V29.7159Z" fill="#929292"/>
<path d="M300.631 50H292.896V28.1818H300.695C302.889 28.1818 304.778 28.6186 306.362 29.4922C307.946 30.3587 309.164 31.6051 310.016 33.2315C310.876 34.858 311.305 36.804 311.305 39.0696C311.305 41.3423 310.876 43.2955 310.016 44.929C309.164 46.5625 307.939 47.8161 306.341 48.6896C304.75 49.5632 302.847 50 300.631 50ZM297.509 46.0476H300.439C301.803 46.0476 302.95 45.8061 303.88 45.3232C304.817 44.8331 305.521 44.0767 305.989 43.054C306.465 42.0241 306.703 40.696 306.703 39.0696C306.703 37.4574 306.465 36.1399 305.989 35.1172C305.521 34.0945 304.821 33.3416 303.891 32.8587C302.96 32.3757 301.813 32.1342 300.45 32.1342H297.509V46.0476ZM319.303 50.3089C318.259 50.3089 317.329 50.1278 316.512 49.7656C315.695 49.3963 315.049 48.853 314.573 48.1357C314.105 47.4112 313.87 46.5092 313.87 45.4297C313.87 44.5206 314.037 43.7571 314.371 43.1392C314.705 42.5213 315.159 42.0241 315.735 41.6477C316.31 41.2713 316.963 40.9872 317.695 40.7955C318.433 40.6037 319.208 40.4688 320.017 40.3906C320.969 40.2912 321.736 40.1989 322.318 40.1136C322.901 40.0213 323.323 39.8864 323.586 39.7088C323.849 39.5312 323.98 39.2685 323.98 38.9205V38.8565C323.98 38.1818 323.767 37.6598 323.341 37.2905C322.922 36.9212 322.325 36.7365 321.551 36.7365C320.735 36.7365 320.085 36.9176 319.602 37.2798C319.119 37.6349 318.799 38.0824 318.643 38.6222L314.445 38.2812C314.659 37.2869 315.078 36.4276 315.703 35.7031C316.328 34.9716 317.134 34.4105 318.121 34.0199C319.115 33.6222 320.266 33.4233 321.573 33.4233C322.482 33.4233 323.352 33.5298 324.183 33.7429C325.021 33.956 325.763 34.2862 326.409 34.7337C327.063 35.1811 327.578 35.7564 327.954 36.4595C328.33 37.1555 328.519 37.9901 328.519 38.9631V50H324.215V47.7308H324.087C323.824 48.2422 323.472 48.6932 323.032 49.0838C322.592 49.4673 322.063 49.7692 321.445 49.9893C320.827 50.2024 320.113 50.3089 319.303 50.3089ZM320.603 47.1768C321.271 47.1768 321.86 47.0455 322.372 46.7827C322.883 46.5128 323.284 46.1506 323.575 45.696C323.867 45.2415 324.012 44.7266 324.012 44.1513V42.4148C323.87 42.5071 323.675 42.5923 323.426 42.6705C323.185 42.7415 322.911 42.8089 322.606 42.8729C322.301 42.9297 321.995 42.983 321.69 43.0327C321.384 43.0753 321.107 43.1143 320.859 43.1499C320.326 43.228 319.861 43.3523 319.463 43.5227C319.066 43.6932 318.757 43.924 318.536 44.2152C318.316 44.4993 318.206 44.8544 318.206 45.2805C318.206 45.8984 318.43 46.3707 318.877 46.6974C319.332 47.017 319.907 47.1768 320.603 47.1768ZM332.04 50V33.6364H336.439V36.4915H336.61C336.908 35.4759 337.409 34.7088 338.112 34.1903C338.815 33.6648 339.625 33.402 340.541 33.402C340.768 33.402 341.013 33.4162 341.276 33.4446C341.539 33.473 341.77 33.5121 341.969 33.5618V37.5888C341.756 37.5249 341.461 37.468 341.084 37.4183C340.708 37.3686 340.363 37.3438 340.051 37.3438C339.383 37.3438 338.787 37.4893 338.261 37.7805C337.743 38.0646 337.331 38.4624 337.025 38.9737C336.727 39.4851 336.578 40.0746 336.578 40.7422V50H332.04ZM348.427 45.2912L348.438 39.8473H349.098L354.34 33.6364H359.549L352.507 41.8608H351.431L348.427 45.2912ZM344.315 50V28.1818H348.853V50H344.315ZM354.542 50L349.727 42.8729L352.752 39.6662L359.858 50H354.542Z" fill="white"/>
<defs>
<clipPath id="clip0_47_2623">
<rect width="34" height="36" fill="white" transform="matrix(-1 0 0 1 251 20)"/>
</clipPath>
</defs>
</svg>
