<svg width="103" height="86" viewBox="0 0 103 86" fill="none" xmlns="http://www.w3.org/2000/svg">
<rect width="103" height="50" rx="25" fill="white"/>
<circle cx="78" cy="25" r="21" fill="black"/>
<path d="M9.67614 82H5.43821V68.9091H9.81037C11.093 68.9091 12.1946 69.1712 13.1151 69.6953C14.0355 70.2152 14.7408 70.9631 15.2308 71.9389C15.7251 72.9105 15.9723 74.076 15.9723 75.4354C15.9723 76.799 15.723 77.9709 15.2244 78.951C14.7301 79.9311 14.0142 80.6854 13.0767 81.2138C12.1392 81.7379 11.0057 82 9.67614 82ZM7.41335 80.2741H9.56747C10.5646 80.2741 11.3935 80.0866 12.054 79.7116C12.7145 79.3324 13.2088 78.7848 13.5369 78.0689C13.8651 77.3487 14.0291 76.4709 14.0291 75.4354C14.0291 74.4084 13.8651 73.5369 13.5369 72.821C13.2131 72.1051 12.7294 71.5618 12.0859 71.1911C11.4425 70.8203 10.6435 70.6349 9.68892 70.6349H7.41335V80.2741ZM21.1323 82.2173C20.5101 82.2173 19.9476 82.1023 19.4448 81.8722C18.9419 81.6378 18.5435 81.299 18.2495 80.8558C17.9597 80.4126 17.8148 79.8693 17.8148 79.2259C17.8148 78.6719 17.9213 78.2159 18.1344 77.858C18.3475 77.5 18.6351 77.2166 18.9973 77.0078C19.3596 76.799 19.7644 76.6413 20.2118 76.5348C20.6593 76.4283 21.1152 76.3473 21.5797 76.2919C22.1678 76.2237 22.6451 76.1683 23.0115 76.1257C23.378 76.0788 23.6444 76.0043 23.8105 75.902C23.9767 75.7997 24.0598 75.6335 24.0598 75.4034V75.3587C24.0598 74.8004 23.9022 74.3679 23.5868 74.0611C23.2757 73.7543 22.8113 73.6009 22.1934 73.6009C21.5499 73.6009 21.0428 73.7436 20.6721 74.0291C20.3056 74.3104 20.052 74.6236 19.9114 74.9688L18.1152 74.5597C18.3283 73.9631 18.6394 73.4815 19.0485 73.1151C19.4618 72.7443 19.937 72.4759 20.4739 72.3097C21.0108 72.1392 21.5755 72.054 22.1678 72.054C22.5598 72.054 22.9753 72.1009 23.4142 72.1946C23.8574 72.2841 24.2708 72.4503 24.6543 72.6932C25.0421 72.9361 25.3596 73.2834 25.6067 73.7351C25.8539 74.1825 25.9775 74.7642 25.9775 75.4801V82H24.111V80.6577H24.0343C23.9107 80.9048 23.7253 81.1477 23.4782 81.3864C23.231 81.625 22.9135 81.8232 22.5257 81.9808C22.138 82.1385 21.6735 82.2173 21.1323 82.2173ZM21.5478 80.6832C22.0762 80.6832 22.5279 80.5788 22.9029 80.37C23.2821 80.1612 23.5698 79.8885 23.7658 79.5518C23.9661 79.2109 24.0662 78.8466 24.0662 78.4588V77.1932C23.998 77.2614 23.8659 77.3253 23.6699 77.3849C23.4782 77.4403 23.2587 77.4893 23.0115 77.532C22.7644 77.5703 22.5236 77.6065 22.2892 77.6406C22.0549 77.6705 21.8588 77.696 21.7012 77.7173C21.3304 77.7642 20.9917 77.843 20.6848 77.9538C20.3823 78.0646 20.1394 78.2244 19.9561 78.4332C19.7772 78.6378 19.6877 78.9105 19.6877 79.2514C19.6877 79.7244 19.8624 80.0824 20.2118 80.3253C20.5613 80.5639 21.0066 80.6832 21.5478 80.6832ZM28.5231 82V72.1818H30.3704V73.7415H30.4727C30.6516 73.2131 30.967 72.7976 31.4187 72.495C31.8746 72.1882 32.3903 72.0348 32.9656 72.0348C33.0849 72.0348 33.2255 72.0391 33.3874 72.0476C33.5536 72.0561 33.6836 72.0668 33.7773 72.0795V73.9077C33.7006 73.8864 33.5643 73.8629 33.3683 73.8374C33.1722 73.8075 32.9762 73.7926 32.7802 73.7926C32.3285 73.7926 31.9258 73.8885 31.5721 74.0803C31.2227 74.2678 30.9457 74.5298 30.7411 74.8665C30.5366 75.1989 30.4343 75.5781 30.4343 76.0043V82H28.5231ZM37.1891 78.6697L37.1763 76.3366H37.5087L41.4206 72.1818H43.709L39.2473 76.9119H38.9469L37.1891 78.6697ZM35.4313 82V68.9091H37.3425V82H35.4313ZM41.6316 82L38.1159 77.3338L39.4327 75.9979L43.9775 82H41.6316ZM50.3679 68.9091H52.7649L56.9325 79.0852H57.0859L61.2536 68.9091H63.6506V82H61.7713V72.527H61.6499L57.7891 81.9808H56.2294L52.3686 72.5206H52.2472V82H50.3679V68.9091ZM70.5044 82.1982C69.584 82.1982 68.7807 81.9872 68.0946 81.5653C67.4086 81.1435 66.8759 80.5533 66.4966 79.7947C66.1174 79.0362 65.9277 78.1499 65.9277 77.1357C65.9277 76.1172 66.1174 75.2266 66.4966 74.4638C66.8759 73.701 67.4086 73.1087 68.0946 72.6868C68.7807 72.2649 69.584 72.054 70.5044 72.054C71.4249 72.054 72.2282 72.2649 72.9142 72.6868C73.6003 73.1087 74.133 73.701 74.5123 74.4638C74.8915 75.2266 75.0811 76.1172 75.0811 77.1357C75.0811 78.1499 74.8915 79.0362 74.5123 79.7947C74.133 80.5533 73.6003 81.1435 72.9142 81.5653C72.2282 81.9872 71.4249 82.1982 70.5044 82.1982ZM70.5108 80.5938C71.1074 80.5938 71.6017 80.4361 71.9938 80.1207C72.3858 79.8054 72.6756 79.3857 72.8631 78.8615C73.0549 78.3374 73.1507 77.7599 73.1507 77.1293C73.1507 76.5028 73.0549 75.9276 72.8631 75.4034C72.6756 74.875 72.3858 74.451 71.9938 74.1314C71.6017 73.8118 71.1074 73.652 70.5108 73.652C69.91 73.652 69.4114 73.8118 69.0151 74.1314C68.623 74.451 68.3311 74.875 68.1394 75.4034C67.9519 75.9276 67.8581 76.5028 67.8581 77.1293C67.8581 77.7599 67.9519 78.3374 68.1394 78.8615C68.3311 79.3857 68.623 79.8054 69.0151 80.1207C69.4114 80.4361 69.91 80.5938 70.5108 80.5938ZM80.8899 82.1918C80.0973 82.1918 79.3899 81.9893 78.7678 81.5845C78.1499 81.1754 77.6641 80.5937 77.3104 79.8395C76.9609 79.081 76.7862 78.1712 76.7862 77.1101C76.7862 76.049 76.9631 75.1413 77.3168 74.3871C77.6747 73.6328 78.1648 73.0554 78.7869 72.6548C79.4091 72.2543 80.1143 72.054 80.9027 72.054C81.5121 72.054 82.0021 72.1562 82.3729 72.3608C82.7479 72.5611 83.0376 72.7955 83.2422 73.0639C83.451 73.3324 83.6129 73.5689 83.728 73.7734H83.843V68.9091H85.7543V82H83.8878V80.4723H83.728C83.6129 80.6811 83.4467 80.9197 83.2294 81.1882C83.0163 81.4567 82.7223 81.6911 82.3473 81.8913C81.9723 82.0916 81.4865 82.1918 80.8899 82.1918ZM81.3118 80.5618C81.8615 80.5618 82.326 80.4169 82.7053 80.1271C83.0888 79.8331 83.3786 79.4261 83.5746 78.9062C83.7749 78.3864 83.875 77.7812 83.875 77.0909C83.875 76.4091 83.777 75.8125 83.581 75.3011C83.3849 74.7898 83.0973 74.3913 82.718 74.1058C82.3388 73.8203 81.87 73.6776 81.3118 73.6776C80.7365 73.6776 80.2571 73.8267 79.8736 74.125C79.4901 74.4233 79.2003 74.8303 79.0043 75.3459C78.8125 75.8615 78.7166 76.4432 78.7166 77.0909C78.7166 77.7472 78.8146 78.3374 79.0107 78.8615C79.2067 79.3857 79.4964 79.8011 79.88 80.108C80.2678 80.4105 80.745 80.5618 81.3118 80.5618ZM92.7136 82.1982C91.7463 82.1982 90.9132 81.9915 90.2143 81.5781C89.5197 81.1605 88.9828 80.5746 88.6035 79.8203C88.2285 79.0618 88.041 78.1733 88.041 77.1548C88.041 76.1491 88.2285 75.2628 88.6035 74.4957C88.9828 73.7287 89.5112 73.13 90.1887 72.6996C90.8706 72.2692 91.6674 72.054 92.5794 72.054C93.1333 72.054 93.6703 72.1456 94.1902 72.3288C94.71 72.5121 95.1767 72.7997 95.59 73.1918C96.0034 73.5838 96.3294 74.093 96.568 74.7195C96.8066 75.3416 96.926 76.098 96.926 76.9886V77.6662H89.1213V76.2344H95.0531C95.0531 75.7315 94.9508 75.2862 94.7463 74.8984C94.5417 74.5064 94.2541 74.1974 93.8833 73.9716C93.5169 73.7457 93.0865 73.6328 92.5922 73.6328C92.0552 73.6328 91.5865 73.7649 91.1859 74.0291C90.7896 74.2891 90.4828 74.63 90.2654 75.0518C90.0524 75.4695 89.9458 75.9233 89.9458 76.4134V77.532C89.9458 78.1882 90.0609 78.7464 90.291 79.2067C90.5254 79.6669 90.8514 80.0185 91.269 80.2614C91.6866 80.5 92.1745 80.6193 92.7328 80.6193C93.095 80.6193 93.4252 80.5682 93.7235 80.4659C94.0218 80.3594 94.2797 80.2017 94.497 79.9929C94.7143 79.7841 94.8805 79.5263 94.9956 79.2195L96.8045 79.5455C96.6596 80.0781 96.3997 80.5447 96.0247 80.9453C95.6539 81.3416 95.1873 81.6506 94.6248 81.8722C94.0666 82.0895 93.4295 82.1982 92.7136 82.1982Z" fill="white"/>
</svg>
