<svg width="78" height="80" viewBox="0 0 78 80" fill="none" xmlns="http://www.w3.org/2000/svg">
<rect width="78" height="80" rx="20" fill="#EEEEEE"/>
<g clip-path="url(#clip0_32_50)">
<path d="M27.5026 39.9847C27.5332 33.5609 32.6864 28.477 39.138 28.5077C45.4363 28.5282 50.5179 33.7552 50.4872 40.179C50.4566 46.429 45.2318 51.5435 38.9029 51.5026C32.6148 51.4719 27.4821 46.2756 27.5026 39.9847ZM38.9438 47.6769C43.146 47.7178 46.6326 44.3013 46.6735 40.1074C46.7144 35.8522 43.3403 32.3641 39.1278 32.3129C34.8335 32.2618 31.3572 35.668 31.3265 39.954C31.2959 44.1888 34.7006 47.6462 38.9438 47.6769Z" fill="#4B5D8A"/>
<path d="M55.8449 54.7349C55.7937 55.676 55.4563 56.2693 54.7917 56.6171C54.076 56.9853 53.3399 56.9546 52.7468 56.4023C51.7039 55.4305 50.6917 54.4178 49.7204 53.3745C49.0558 52.6585 49.1478 51.5946 49.8431 50.8786C50.5281 50.1728 51.6119 50.0398 52.3379 50.7047C53.4217 51.7072 54.4543 52.7607 55.4666 53.845C55.7017 54.1007 55.7631 54.5304 55.8449 54.7349Z" fill="#4B5D8A"/>
<path d="M55.9471 25.1524C55.7222 25.5718 55.5586 26.0628 55.2518 26.4003C54.393 27.3414 53.4728 28.2313 52.5526 29.111C51.7244 29.9089 50.6304 29.9191 49.8635 29.1622C49.0865 28.395 49.0865 27.2494 49.884 26.4208C50.7735 25.5104 51.6733 24.6 52.5935 23.7203C53.1865 23.1475 53.8818 22.9838 54.6588 23.3214C55.3643 23.6283 55.8346 24.3443 55.9471 25.1524Z" fill="#4B5D8A"/>
<path d="M28.7397 52.4232C28.6068 52.679 28.4534 53.1904 28.1262 53.5484C27.2674 54.4895 26.3472 55.3692 25.4372 56.2591C24.6397 57.0365 23.4843 57.0365 22.7379 56.2796C21.9813 55.5124 21.9711 54.377 22.7481 53.5791C23.6479 52.6585 24.5579 51.7379 25.4883 50.8377C26.0813 50.2751 26.7868 50.1217 27.5639 50.4593C28.3103 50.7866 28.6477 51.3799 28.7397 52.4232Z" fill="#4B5D8A"/>
<path d="M58.1556 41.8974C57.5115 41.8974 56.8571 41.9076 56.213 41.8974C55.1905 41.8769 54.3828 41.079 54.3419 40.0971C54.301 39.0742 55.0474 38.174 56.08 38.1331C57.4706 38.0819 58.8713 38.0819 60.2721 38.1331C61.2741 38.174 62.0205 39.0742 61.9898 40.0664C61.9591 41.0279 61.1923 41.836 60.1903 41.8871C59.5155 41.9178 58.8406 41.8871 58.1556 41.8974C58.1556 41.8871 58.1556 41.8871 58.1556 41.8974Z" fill="#4B5D8A"/>
<path d="M24.3329 23.1375C24.5783 23.2704 25.0691 23.4239 25.4065 23.741C26.3574 24.6104 27.2571 25.5413 28.1569 26.4721C28.9033 27.2393 28.8931 28.3952 28.1671 29.1419C27.431 29.8886 26.2756 29.9295 25.4985 29.1828C24.5477 28.2622 23.607 27.3314 22.697 26.3698C22.1347 25.7765 22.0018 25.0605 22.3596 24.2933C22.697 23.5568 23.3003 23.2091 24.3329 23.1375Z" fill="#4B5D8A"/>
<path d="M19.8751 41.8974C19.2412 41.8974 18.6175 41.9076 17.9836 41.8974C16.8384 41.8667 16 41.0688 16 40.005C16 38.9309 16.8384 38.1126 17.9836 38.1024C19.2105 38.0922 20.4374 38.0922 21.6644 38.1024C22.8095 38.1126 23.6479 38.931 23.6479 39.9948C23.6479 41.0586 22.7891 41.8769 21.6644 41.8871C21.0713 41.8974 20.4783 41.8974 19.8751 41.8974Z" fill="#4B5D8A"/>
<path d="M40.8966 59.1437C40.8966 59.737 40.8966 60.3405 40.8966 60.9338C40.8864 62.1306 40.1093 62.9898 39.0255 63.0001C37.9213 63.0103 37.1033 62.1613 37.0931 60.9543C37.0829 59.7063 37.0727 58.4686 37.1033 57.2207C37.1238 56.3103 37.727 55.6045 38.5552 55.3999C39.3732 55.1953 40.2525 55.584 40.6615 56.3717C40.7944 56.6274 40.8557 56.9547 40.8659 57.2514C40.8966 57.8753 40.8762 58.5095 40.8762 59.1437C40.8864 59.1437 40.8966 59.1437 40.8966 59.1437Z" fill="#4B5D8A"/>
<path d="M40.8762 20.8256C40.8762 21.4701 40.8967 22.1247 40.8762 22.7692C40.8455 23.8023 40.0685 24.6002 39.0869 24.6411C38.0645 24.682 37.175 23.966 37.1238 22.9021C37.0625 21.511 37.0523 20.1096 37.1136 18.7185C37.175 17.6649 38.0747 16.9591 39.1074 17C40.0889 17.0409 40.8558 17.849 40.8762 18.8821C40.8967 19.5368 40.8762 20.1812 40.8762 20.8256Z" fill="#4B5D8A"/>
</g>
<defs>
<clipPath id="clip0_32_50">
<rect width="46" height="46" fill="white" transform="translate(16 17)"/>
</clipPath>
</defs>
</svg>
