<svg width="180" height="80" viewBox="0 0 180 80" fill="none" xmlns="http://www.w3.org/2000/svg">
<rect width="180" height="80" rx="40" fill="#EEEEEE"/>
<path d="M98.704 49V32.2H101.248V46.984H108.88V49H98.704ZM112.962 34.84C112.482 34.84 112.082 34.696 111.762 34.408C111.458 34.104 111.306 33.728 111.306 33.28C111.306 32.832 111.458 32.464 111.762 32.176C112.082 31.872 112.482 31.72 112.962 31.72C113.442 31.72 113.834 31.872 114.138 32.176C114.458 32.464 114.618 32.832 114.618 33.28C114.618 33.728 114.458 34.104 114.138 34.408C113.834 34.696 113.442 34.84 112.962 34.84ZM111.69 49V37.096H114.234V49H111.69ZM122.464 45.352C121.84 45.352 121.264 45.28 120.736 45.136L119.704 46.144C119.88 46.256 120.096 46.352 120.352 46.432C120.608 46.512 120.968 46.584 121.432 46.648C121.896 46.712 122.528 46.776 123.328 46.84C124.912 46.984 126.056 47.368 126.76 47.992C127.464 48.6 127.816 49.416 127.816 50.44C127.816 51.144 127.624 51.808 127.24 52.432C126.872 53.072 126.288 53.584 125.488 53.968C124.704 54.368 123.696 54.568 122.464 54.568C120.8 54.568 119.448 54.248 118.408 53.608C117.384 52.984 116.872 52.032 116.872 50.752C116.872 50.256 117 49.76 117.256 49.264C117.528 48.784 117.952 48.328 118.528 47.896C118.192 47.752 117.896 47.6 117.64 47.44C117.4 47.264 117.184 47.088 116.992 46.912V46.336L119.056 44.224C118.128 43.424 117.664 42.376 117.664 41.08C117.664 40.296 117.848 39.584 118.216 38.944C118.6 38.288 119.152 37.768 119.872 37.384C120.592 37 121.456 36.808 122.464 36.808C123.136 36.808 123.76 36.904 124.336 37.096H128.776V38.776L126.664 38.896C127.048 39.552 127.24 40.28 127.24 41.08C127.24 41.88 127.048 42.6 126.664 43.24C126.296 43.88 125.752 44.392 125.032 44.776C124.328 45.16 123.472 45.352 122.464 45.352ZM122.464 43.36C123.2 43.36 123.792 43.168 124.24 42.784C124.704 42.384 124.936 41.824 124.936 41.104C124.936 40.368 124.704 39.808 124.24 39.424C123.792 39.04 123.2 38.848 122.464 38.848C121.712 38.848 121.104 39.04 120.64 39.424C120.192 39.808 119.968 40.368 119.968 41.104C119.968 41.824 120.192 42.384 120.64 42.784C121.104 43.168 121.712 43.36 122.464 43.36ZM119.272 50.512C119.272 51.2 119.576 51.712 120.184 52.048C120.792 52.4 121.552 52.576 122.464 52.576C123.344 52.576 124.056 52.384 124.6 52C125.144 51.632 125.416 51.136 125.416 50.512C125.416 50.048 125.232 49.648 124.864 49.312C124.496 48.992 123.8 48.792 122.776 48.712C122.008 48.664 121.328 48.592 120.736 48.496C120.176 48.8 119.792 49.128 119.584 49.48C119.376 49.832 119.272 50.176 119.272 50.512ZM131.046 49V31.72H133.59V39.016C133.99 38.328 134.542 37.792 135.246 37.408C135.966 37.008 136.758 36.808 137.622 36.808C139.046 36.808 140.166 37.256 140.982 38.152C141.798 39.048 142.206 40.384 142.206 42.16V49H139.686V42.424C139.686 40.12 138.766 38.968 136.926 38.968C135.966 38.968 135.166 39.304 134.526 39.976C133.902 40.648 133.59 41.608 133.59 42.856V49H131.046ZM150.194 49C149.026 49 148.098 48.72 147.41 48.16C146.722 47.584 146.378 46.568 146.378 45.112V39.232H144.338V37.096H146.378L146.69 34.072H148.922V37.096H152.282V39.232H148.922V45.112C148.922 45.768 149.058 46.224 149.33 46.48C149.618 46.72 150.106 46.84 150.794 46.84H152.162V49H150.194Z" fill="#484D60"/>
<circle cx="40" cy="40" r="30" fill="#484D60"/>
<g clip-path="url(#clip0_29_239)">
<path d="M34 40.2622C34 43.7206 36.794 46.5245 40.2524 46.5342C43.7206 46.544 46.5537 43.7109 46.5439 40.2427C46.5342 36.7843 43.7206 33.9903 40.2622 34C36.794 34.0098 34 36.8039 34 40.2622Z" fill="white"/>
<path d="M39.6257 30.159C39.6257 30.5303 39.6159 30.9015 39.6257 31.2825C39.6354 31.8687 39.9969 32.2692 40.4854 32.279C40.9738 32.2888 41.3549 31.8882 41.3646 31.3118C41.3744 30.5303 41.3744 29.7585 41.3646 28.9769C41.3549 28.4005 40.9836 28.0098 40.4854 28.0098C39.9871 28.0195 39.6452 28.4103 39.6257 28.9965C39.6159 29.3775 39.6257 29.7683 39.6257 30.159Z" fill="white"/>
<path d="M50.8898 41.3745C51.2806 41.3745 51.6714 41.3842 52.0621 41.3745C52.619 41.3549 53 41.0032 53.0098 40.5245C53.0195 40.0263 52.6288 39.6453 52.0524 39.6355C51.2708 39.6257 50.499 39.6257 49.7175 39.6355C49.1411 39.6453 48.7405 40.0165 48.7405 40.505C48.7405 40.9935 49.1508 41.3549 49.7272 41.3647C50.1082 41.3842 50.499 41.3745 50.8898 41.3745Z" fill="white"/>
<path d="M30.1493 41.3745C30.5205 41.3745 30.8917 41.3842 31.2728 41.3745C31.8492 41.3647 32.2595 41.0032 32.2692 40.5148C32.279 40.0263 31.8687 39.6453 31.3021 39.6355C30.5205 39.6257 29.7487 39.6257 28.9672 39.6355C28.3908 39.6453 28 40.0165 28.0098 40.5148C28.0195 41.013 28.4103 41.3549 28.9965 41.3745C29.016 41.3745 29.0258 41.3745 29.0453 41.3745C29.4068 41.3745 29.778 41.3745 30.1493 41.3745Z" fill="white"/>
<path d="M39.6256 50.8898C39.6256 51.2805 39.6158 51.6713 39.6256 52.0621C39.6452 52.6189 39.9871 53 40.4658 53.0097C40.964 53.0293 41.345 52.6287 41.3548 52.0621C41.3646 51.2708 41.3743 50.4697 41.3548 49.6783C41.345 49.1313 40.964 48.7502 40.4853 48.7502C40.0164 48.7502 39.6452 49.141 39.6158 49.6881C39.6158 49.7174 39.6158 49.7565 39.6158 49.7858C39.6256 50.1375 39.6256 50.5087 39.6256 50.8898Z" fill="white"/>
<path d="M31.3509 48.8383C31.517 49.0337 31.6635 49.3463 31.898 49.4635C32.1227 49.571 32.533 49.5612 32.6991 49.4147C33.422 48.7699 34.1157 48.0763 34.7702 47.3631C35.0535 47.0505 34.9754 46.6597 34.6823 46.3471C34.3892 46.0442 33.9887 45.927 33.676 46.2103C32.9336 46.8844 32.2399 47.6171 31.5365 48.3401C31.4486 48.428 31.4388 48.6038 31.3509 48.8383Z" fill="white"/>
<path d="M48.8284 31.3118C48.5353 31.4876 48.3009 31.5755 48.1348 31.7319C47.5486 32.2887 46.9722 32.8651 46.4154 33.4513C46.0344 33.8421 46.0246 34.3208 46.3568 34.6627C46.6889 35.0144 47.1872 35.0242 47.5682 34.6529C48.1739 34.0667 48.7991 33.4904 49.3462 32.8553C49.5318 32.6404 49.6002 32.2106 49.5123 31.937C49.4244 31.6928 49.0727 31.5267 48.8284 31.3118Z" fill="white"/>
<path d="M31.2826 32.2105C31.4584 32.5134 31.5463 32.7479 31.7026 32.9139C32.2497 33.4903 32.8164 34.0472 33.383 34.6041C33.8031 35.0144 34.2915 35.0339 34.6335 34.6822C34.9852 34.3305 34.9754 33.842 34.5749 33.4317C33.9985 32.8358 33.4123 32.2594 32.8164 31.6732C32.5526 31.4095 32.2107 31.2922 31.8883 31.5071C31.6538 31.683 31.4975 31.9565 31.2826 32.2105Z" fill="white"/>
<path d="M46.0051 46.8649C46.1711 47.1482 46.2395 47.3729 46.3861 47.5292C46.9527 48.1251 47.5389 48.7113 48.1348 49.2877C48.5256 49.6687 48.9945 49.6785 49.3462 49.3366C49.6784 49.0142 49.6881 48.4866 49.3267 48.1154C48.7503 47.5194 48.1641 46.9333 47.5682 46.3569C47.2946 46.0931 46.9429 45.927 46.601 46.1615C46.3665 46.3373 46.2102 46.6207 46.0051 46.8649Z" fill="white"/>
</g>
<defs>
<clipPath id="clip0_29_239">
<rect width="25" height="25" fill="white" transform="matrix(-1 0 0 1 53 28)"/>
</clipPath>
</defs>
</svg>
