<?xml version="1.0" encoding="utf-8"?>
<!-- Generator: Adobe Illustrator 21.0.2, SVG Export Plug-In . SVG Version: 6.00 Build 0)  -->
<svg version="1.1" id="Layer_1" xmlns="http://www.w3.org/2000/svg" xmlns:xlink="http://www.w3.org/1999/xlink" x="0px" y="0px"
	 viewBox="0 0 16 16" style="enable-background:new 0 0 16 16;" xml:space="preserve">
<style type="text/css">
	.st0{fill:#B9C1CB;}
</style>
<path class="st0" d="M16,1.7v12.6c0,0.9-0.8,1.7-1.7,1.7H1.7C0.8,16,0,15.2,0,14.3V1.7C0,0.8,0.8,0,1.7,0h12.6C15.2,0,16,0.8,16,1.7
	z M12,3.4h-1.1c-0.3,0-0.6,0.3-0.6,0.6v2.9H5.7V4c0-0.3-0.3-0.6-0.6-0.6H4C3.7,3.4,3.4,3.7,3.4,4v8c0,0.3,0.3,0.6,0.6,0.6h1.1
	c0.3,0,0.6-0.3,0.6-0.6V9.1h4.6V12c0,0.3,0.3,0.6,0.6,0.6H12c0.3,0,0.6-0.3,0.6-0.6V4C12.6,3.7,12.3,3.4,12,3.4z"/>
</svg>
