<svg version="1.0" xmlns="http://www.w3.org/2000/svg" width="682.667" height="682.667" viewBox="0 0 512 512"><path d="M242 487c-62-4-123-34-163-82-17-20-32-46-40-69-2-6-4-11-5-12l-1-2-5 13c-5 13-8 17-12 17-3 0-8-5-8-7 0-4 21-53 23-54 1-1 3-2 5-2 3 0 47 23 50 27 1 1 2 3 2 4 0 3-5 8-8 8-1 0-8-4-17-8l-15-8c-1 1 8 26 14 38 30 63 87 106 158 119 10 2 15 2 37 2 23 0 26 0 38-2 45-9 82-29 114-60 25-26 41-51 52-85 7-19 11-44 11-62 0-8 0-8 3-11 4-4 6-4 10 0 3 3 3 3 2 22-3 40-16 78-38 111-46 69-123 108-207 103Zm-15-57c-2-2-3-5-5-19-2-9-4-16-4-16s-4-2-8-3c-3-1-11-4-16-7-9-4-9-4-23 5-11 7-14 9-17 9s-5-2-22-19-19-19-19-22c0-2 2-7 9-17 9-14 9-14 5-22-2-4-5-11-7-15-1-5-3-9-3-10-1 0-8-2-16-4-22-4-21-1-21-34s-2-30 21-34c9-2 16-4 16-4 1 0 2-4 3-7 1-4 4-12 7-17 4-9 4-9-5-23-7-11-9-14-9-17s2-5 19-22 19-19 22-19 6 2 17 9c14 9 14 9 22 5 4-2 11-5 16-7 4-1 8-3 9-3 0-1 2-8 4-16 4-22 1-21 34-21s30-2 34 21c2 9 4 16 4 16s4 2 8 3c3 1 11 4 16 7 9 4 9 4 23-5 11-7 14-9 17-9s5 2 22 19 19 19 19 22c0 2-2 7-9 17-9 14-9 14-5 22 2 4 5 11 7 16 1 4 3 8 3 9 1 0 8 2 17 4 21 4 20 1 20 34s2 30-21 34c-9 2-16 4-16 4s-2 4-3 8c-1 3-4 11-7 16-4 9-4 9 5 23 7 11 9 14 9 17s-2 5-19 22-19 19-22 19-6-2-17-9c-14-9-14-9-22-5-4 2-11 5-15 7-5 1-9 3-10 3 0 1-2 8-4 17-4 21-1 20-34 20-26 0-26 0-29-2Zm50-30c2-8 3-16 4-17 1 0 6-2 12-4 7-2 16-6 22-9 6-4 12-6 13-6 2 0 8 4 16 9l13 9 12-13 13-12-9-14c-5-7-9-14-9-15s2-7 6-13c3-6 7-15 9-22 2-6 4-11 4-12 1-1 9-2 17-4l16-3v-36l-16-3c-8-2-16-3-17-4 0-1-2-6-4-12-2-7-6-16-9-22-4-6-6-12-6-13s4-8 9-15l9-14-12-12c-9-8-13-12-14-12-1 1-7 5-14 9s-13 8-14 8-7-2-12-5c-6-3-16-7-22-9-7-3-12-5-13-5-1-1-2-9-4-17l-3-16h-36l-3 16c-2 8-3 16-4 17-1 0-6 2-13 5-6 2-16 6-22 9-5 3-11 5-12 5s-7-4-14-8-13-8-14-9c-1 0-5 4-14 12l-12 12 9 14c5 7 9 14 9 15s-2 7-6 13c-3 6-7 15-9 22-2 6-4 11-4 12-1 1-9 2-17 4l-16 3v36l16 3c8 2 16 3 17 4 0 1 2 6 4 12s6 16 9 22c4 6 6 12 6 13s-4 8-9 15l-9 14 12 12c9 8 13 12 14 12 1-1 7-5 14-9s13-8 14-8 7 2 12 5c6 3 16 7 22 9 7 3 12 5 13 5 1 1 2 9 4 17l3 16h36l3-16ZM27 261c-3-3-3-3-2-22 3-33 11-63 26-91C94 67 179 20 270 25c92 6 172 65 203 152 2 5 4 10 5 11l1 2 5-13c5-13 8-17 12-17 3 0 8 5 8 7 0 4-21 53-23 54-1 1-3 2-5 2-3 0-47-23-50-27-1-1-2-3-2-4 0-3 5-8 8-8 1 0 8 4 17 8l15 8c1-1-8-26-14-38-11-24-25-44-44-62-31-29-69-48-111-57-12-2-16-2-38-2-20 0-27 0-35 1-21 4-37 9-54 16-40 18-77 51-99 90-18 31-29 69-29 102 0 8 0 8-3 11-2 2-4 3-5 3s-3-1-5-3Zm221 98c-11-1-19-3-26-5-29-10-53-33-63-62-5-14-6-21-6-36 0-12 0-16 2-24 6-21 14-35 28-50 35-34 88-39 130-12 10 6 25 22 31 32 10 16 15 34 15 53 0 14-1 23-5 35-14 40-51 67-93 69-6 1-12 1-13 0Zm31-18c30-9 52-30 62-60 2-8 2-10 2-24 0-18-1-24-7-38-15-32-45-51-81-51-23 0-44 9-61 26s-26 38-26 61c0 43 29 79 71 88 9 2 31 1 40-2Zm-28-16c-3-3-3-4-3-9s0-6 3-9c2-2 4-3 5-3s3 1 5 3c3 3 3 4 3 9s0 6-3 9c-2 2-4 3-5 3s-3-1-5-3Zm-64-64c-2-2-3-4-3-5s1-3 3-5c3-3 4-3 9-3s6 0 9 3c2 2 3 4 3 5s-1 3-3 5c-3 3-4 3-9 3s-6 0-9-3Zm64 0c-3-3-3-3-3-37s0-34 3-37c3-4 6-4 10-1 3 3 3 3 3 29l1 27 14-9c9-5 16-9 17-9 2 0 6 2 7 5s1 6-2 9c-4 3-43 26-45 26-1 0-3-1-5-3Zm56 0c-2-2-3-4-3-5s1-3 3-5c3-3 4-3 9-3s6 0 9 3c2 2 3 4 3 5s-1 3-3 5c-3 3-4 3-9 3s-6 0-9-3Z"/><path fill="#242424" d="M255 487h3l2 1h-6l1-1Zm155-58c0-1 1-1 2-2l2-1-2 1c-1 1-1 2-2 2Zm-1-20 4-4-3 4c-3 2-5 4-5 4l4-4Zm17 4c0-1 1-1 2-2l2-1-2 1c-1 1-1 2-2 2Zm-175-54h2v1h-3l1-1Zm8 0h2l2 1h-5l1-1Zm228-97v-3l1 1v4l-1 2v-4Zm-335-2v-1l1 1v2h-1v-2Zm207-7v-3l1 1v3l-1 2v-3Zm-207-1v-2l1 1v2l-1 2v-3Zm-128-2v-3l1 1v4l-1 2v-4Zm227-98h2v1h-3l1-1Zm9 0h2v1h-3l1-1Zm-157-49 4-4-3 4c-3 2-5 4-5 4l4-4Zm-20-1c0-1 1-1 2-2l2-1-2 1c-1 1-1 2-2 2Zm17-17c0-1 2-2 2-2l-1 2c-1 1-3 2-3 2l2-2Zm154-61h4l2 1h-8l2-1Z"/></svg>