<svg fill="none" height="128" width="128" xmlns="http://www.w3.org/2000/svg"><path d="m0 0h128v128h-128z" fill="none"/><path d="m26.788 82.574c10.376 0 18.787-8.412 18.787-18.788a18.79 18.79 0 0 0 -18.787-18.786c-10.376 0-18.788 8.412-18.788 18.788a18.79 18.79 0 0 0 18.788 18.786z" fill="#069e08"/><path d="m27.72 60.632v18.213l9.394-18.213zm-1.899 6.275v-18.178l-9.358 18.178z" fill="#fff"/><path d="m55.003 64.567-1.115-1.763c1.919-1.168 2.567-2.101 2.567-3.865v-10.194h-2.256v-1.944h4.799v11.62c0 2.957-.855 4.617-3.995 6.147zm20.101-6.951c0 .985.701 1.089 1.168 1.089s1.141-.156 1.66-.311v1.816a7.72 7.72 0 0 1 -2.516.415c-1.245 0-2.697-.467-2.697-2.646v-5.343h-1.323v-1.842h1.323v-2.723h2.386v2.724h3.008v1.842h-3.008v4.98zm4.98 7.858v-14.706h2.283v.882c.908-.7 1.919-1.141 3.164-1.141 2.153 0 3.865 1.505 3.865 4.747 0 3.217-1.867 5.343-4.954 5.343-.752 0-1.349-.104-1.972-.233v5.084h-2.386v.026zm4.824-12.995c-.701 0-1.582.337-2.412 1.064v5.006c.518.104 1.064.181 1.789.181 1.686 0 2.646-1.064 2.646-3.294 0-2.049-.7-2.957-2.023-2.957zm13.877 7.913h-2.23v-1.064h-.052c-.778.597-1.738 1.245-3.164 1.245-1.245 0-2.594-.908-2.594-2.75 0-2.464 2.101-2.931 3.579-3.138l2.1-.285v-.285c0-1.297-.518-1.712-1.738-1.712-.597 0-1.997.181-3.138.648l-.207-1.919a12.02 12.02 0 0 1 3.657-.622c2.334 0 3.839.934 3.839 3.709v6.173h-.051zm-2.386-4.487-1.972.311c-.597.078-1.219.441-1.219 1.322 0 .778.441 1.219 1.089 1.219.701 0 1.452-.415 2.1-.882v-1.971h.001zm12.244 4.176c-.986.337-1.867.544-2.983.544-3.58 0-5.007-2.049-5.007-5.031 0-3.138 1.972-5.084 5.162-5.084 1.192 0 1.919.207 2.723.467v2.023c-.7-.26-1.712-.544-2.697-.544-1.453 0-2.698.778-2.698 3.008 0 2.464 1.245 3.217 2.828 3.217.751 0 1.582-.156 2.697-.597v1.997zm4.512-5.162 3.372-4.125h3.112l-3.891 4.565 4.253 5.058h-3.112l-3.709-4.565v4.565h-2.385v-13.616h2.386v8.118zm-43.551 5.161a11.26 11.26 0 0 1 -3.554.544c-3.061 0-4.954-1.53-4.954-5.11 0-2.62 1.608-5.006 4.694-5.006 3.061 0 4.125 2.127 4.125 4.15 0 .674-.052 1.038-.078 1.426h-6.173c.052 2.1 1.245 2.594 3.035 2.594.985 0 1.867-.233 2.879-.597v1.997h.025v.002zm-2.178-5.577c0-1.168-.389-2.179-1.66-2.179-1.193 0-1.919.855-2.075 2.179zm-6.551 14.37c-.742 0-1.437.12-2.085.361a4.52 4.52 0 0 0 -1.674 1.063c-.474.468-.849 1.052-1.123 1.754-.274.695-.411 1.507-.411 2.436 0 .922.127 1.724.381 2.406.254.675.615 1.236 1.083 1.684.468.441 1.029.769 1.684.982.662.214 1.397.321 2.205.321l.702-.03.742-.1.732-.15.641-.191v1.443a6.49 6.49 0 0 1 -1.373.351c-.521.087-1.056.13-1.604.13-1.116 0-2.105-.154-2.967-.461-.862-.314-1.587-.762-2.175-1.343-.581-.581-1.022-1.29-1.323-2.125-.301-.842-.451-1.794-.451-2.857 0-1.042.157-2.001.471-2.877.321-.875.778-1.627 1.373-2.255.601-.628 1.326-1.116 2.175-1.463.855-.354 1.814-.531 2.877-.531l.832.04a6.93 6.93 0 0 1 .782.1 6.15 6.15 0 0 1 .702.15c.214.06.398.124.551.191v1.443a9.64 9.64 0 0 0 -1.313-.331 7.43 7.43 0 0 0 -1.433-.14zm6.918 6.655v5.553h-1.633v-13.411h3.478l1.493.07a6.8 6.8 0 0 1 1.133.2c.936.254 1.65.688 2.145 1.303.494.608.742 1.37.742 2.285 0 .541-.087 1.026-.261 1.453s-.418.799-.732 1.113a3.83 3.83 0 0 1 -1.133.772 5.91 5.91 0 0 1 -1.453.441v.04l4.38 5.733h-2.055l-4.13-5.553h-1.974zm0-6.385v4.911h1.614l1.283-.05a4.73 4.73 0 0 0 .952-.181c.568-.174 1.006-.451 1.313-.832s.461-.879.461-1.493c-.007-.575-.154-1.036-.441-1.383-.287-.354-.685-.608-1.193-.762a4.52 4.52 0 0 0 -.862-.16 13.19 13.19 0 0 0 -1.273-.05zm17.313 11.938h-.752l-3.378-8.009-1.403-3.598h-.08l.14 5.122v6.485h-1.633v-13.411h2.355l3.157 7.588 1.193 3.137h.05l1.193-3.137 3.157-7.588h2.355v13.411h-1.634v-6.485l.14-5.122h-.08l-1.403 3.598-3.378 8.009z" fill="#000"/></svg>