<svg xmlns="http://www.w3.org/2000/svg" width="256" height="256" xmlns:v="https://vecta.io/nano"><defs><linearGradient id="A" x1="31.456" y1="279.364" x2="42.209" y2="265.736" gradientUnits="userSpaceOnUse"><stop offset="0" stop-color="#00bfff"/><stop offset="1" stop-color="#70f7f9"/></linearGradient></defs><path transform="matrix(0 -11.425405 -11.425405 0 499.879302 -2898.919943)" d="M-271.23 23.771h.993c.274 0 .494.22.494.494v3.542c0 .274-.221.494-.494.494h-.993c-.274 0-.494-.22-.494-.494v-3.542c0-.274.22-.494.494-.494zm11.609 0h.993c.274 0 .494.22.494.494v3.542c0 .274-.22.494-.494.494h-.993c-.274 0-.494-.22-.494-.494v-3.542c0-.274.22-.494.494-.494zm1.488.749v.485c0 .415-.334.749-.749.749h-12.094c-.415 0-.749-.334-.749-.749v-.485c0-.415.334-.749.749-.749h12.094c.415 0 .749.334.749.749zm1.982 6.503v-1.433c0-.286-.222-.454-.497-.378l-16.561 4.59c-.275.076-.497.368-.497.653v1.433c0 .286.222.454.497.378l16.561-4.59c.275-.076.497-.368.497-.653zm-15.078 10.304h.993c.274 0 .494-.22.494-.494V37.29c0-.274-.221-.494-.494-.494h-.993c-.274 0-.494.22-.494.494v3.542c0 .274.22.494.494.494zm11.609 0h.993c.274 0 .494-.22.494-.494V37.29c0-.274-.22-.494-.494-.494h-.993c-.274 0-.494.22-.494.494v3.542c0 .274.22.494.494.494zm1.488-.749v-.485c0-.415-.334-.749-.749-.749h-12.094c-.415 0-.749.334-.749.749v.485c0 .415.334.749.749.749h12.094c.415 0 .749-.334.749-.749z" fill="url(#A)"/></svg>