<?xml version="1.0" encoding="utf-8"?>
<!DOCTYPE svg PUBLIC "-//W3C//DTD SVG 1.1//EN" "http://www.w3.org/Graphics/SVG/1.1/DTD/svg11.dtd">
<svg xmlns="http://www.w3.org/2000/svg"><symbol id="default" viewBox="0 0 32 32">
<title>default</title>
<path class="path1" d="M28.4 1c1.4 0 2.6 1.2 2.6 2.6v24.8c0 1.4-1.2 2.6-2.6 2.6h-24.8c-1.4 0-2.6-1.2-2.6-2.6v-13.2c0-0.1 0.2-14.2 19.4-14.2h8zM28.4 0h-8c-18.7 0-20.4 13.2-20.4 15.2v13.2c0 2 1.6 3.6 3.6 3.6h24.8c2 0 3.6-1.6 3.6-3.6v-24.8c0-2-1.6-3.6-3.6-3.6v0z"></path>
<path class="path2" d="M20.4 18.9c1.8 1.1 3 3 3.2 5.1 0 0.4-0.3 0.7-0.7 0.7h-11.9c-0.4 0-0.6-0.3-0.7-0.7 0.3-2.2 1.4-4 3.2-5.1 0.8 1.1 2.1 1.7 3.4 1.7 1.4 0 2.7-0.6 3.5-1.7zM20.1 17.6c-0.6 1.1-1.7 2-3.1 2s-2.5-0.9-3.1-2c-2.5 1.1-4.3 3.5-4.6 6.4 0 1 0.7 1.8 1.7 1.8h12c0.9 0 1.7-0.8 1.7-1.8-0.4-2.9-2.1-5.2-4.6-6.4v0z"></path>
<path class="path3" d="M17 9.2c1.9 0 3.4 1.5 3.4 3.4s-1.5 3.4-3.4 3.4-3.4-1.5-3.4-3.4c0-1.8 1.5-3.4 3.4-3.4zM17 8.2c-2.4 0-4.4 2-4.4 4.4s2 4.4 4.4 4.4 4.4-2 4.4-4.4c0-2.4-2-4.4-4.4-4.4v0z"></path>
</symbol></svg>
