<svg width="30" height="24" viewBox="0 0 30 24" fill="none" xmlns="http://www.w3.org/2000/svg">
    <path d="M4.01367 5.96612H12V7.95619H4.01367V5.96612ZM4.01367 11.9774H12V9.98735H4.01367V11.9774ZM4.01367 16.0045H12V14.0144H4.01367V16.0045ZM25.9863 5.96612H18V7.95619H25.9863V5.96612ZM25.9863 9.99322H18V11.9833H25.9863V9.99322ZM25.9863 13.9675H18V15.9575H25.9863V13.9675ZM30 1.9449V19.9788C30 21.0883 29.1211 21.9688 28.0137 21.9688H16.9863L15 24L13.0137 22.0099H1.98633C0.878906 22.0158 0 21.1352 0 20.0257V1.99186C0 0.882355 0.878906 0.00179491 1.98633 0.00179491H12.9727L14.959 1.99186L16.9453 0.00179491H27.9316C29.1211 -0.0451683 30 0.835392 30 1.9449ZM13.9863 2.96048L12.9727 1.9449H1.98633V19.9788H13.9863V2.96048ZM28.0137 1.9449H16.9863L15.9668 2.96048V19.9788H27.9668V1.9449H28.0137Z"
          fill="#675ED5"/>
</svg>
