<?xml version="1.0" encoding="UTF-8"?>
<svg width="85px" height="59px" viewBox="0 0 85 59" version="1.1" xmlns="http://www.w3.org/2000/svg" xmlns:xlink="http://www.w3.org/1999/xlink">
    <title>Group 5</title>
    <g id="Page-1" stroke="none" stroke-width="1" fill="none" fill-rule="evenodd">
        <g id="Group-5" transform="translate(0.000000, 1.000000)">
            <g id="button" transform="translate(0.000000, 29.000000)" fill="#292929" fill-rule="nonzero">
                <path d="M66,7.03652503 L66,14.3686309 C66.0033434,16.4573356 65.0737329,18.439059 63.463738,19.7753405 C63.2056492,19.9907347 62.8213069,19.9567314 62.6052854,19.699392 C62.3892639,19.4420527 62.4233662,19.0588265 62.681455,18.8434323 C64.0163439,17.738857 64.7876999,16.0982769 64.7853846,14.3686309 L64.7853846,7.03652503 C64.7717985,3.82977362 62.1631995,1.2360871 58.947083,1.23159912 L7.06936799,1.23159912 C3.85579014,1.24058003 1.25100156,3.83230562 1.23518369,7.03652503 L1.23518369,14.3686309 C1.23514462,17.5792848 3.83705047,20.186478 7.05701615,20.202294 L42.3297451,20.202294 C42.5586496,20.1834852 42.7787148,20.2946106 42.8989629,20.4897297 C43.0192109,20.6848487 43.0192109,20.9308095 42.8989629,21.1259285 C42.7787148,21.3210476 42.5586496,21.432173 42.3297451,21.4133642 L7.05701615,21.4133642 C3.15820211,21.4088333 0,18.2561254 0,14.3686309 L0,7.03652503 C0.00453768811,3.15223655 3.16141487,0.00452690669 7.05701615,1.19667652e-06 L58.9347312,1.19667652e-06 C60.8074603,-0.0010867207 62.6039212,0.739647288 63.9289128,2.05925133 C65.2539044,3.37885537 65.9988902,5.1692343 66,7.03652503 Z M61.0180743,17.0781437 L61.0180743,23.5563425 C61.0180743,26.5573332 58.1730346,29 54.6774647,29 L54.3769033,29 C51.9271224,29 49.6955572,28.109145 48.6538856,26.7174407 L44.7836433,21.7910538 C44.0143003,20.9510116 44.0305087,19.6599047 44.8206989,18.839327 C45.6760457,18.0611708 46.9670721,18.0041505 47.8880717,18.7038514 L49.2385392,19.70555 L49.2385392,10.550681 C49.2498288,9.42505183 50.1682147,8.51854643 51.2971787,8.51854643 L51.3671724,8.51854643 C52.4961364,8.51854643 53.4145223,9.42505183 53.4258119,10.550681 L53.4258119,14.216734 C53.6474018,14.1357362 53.8815047,14.0940535 54.1175148,14.0935743 C54.7392318,14.0887166 55.3244311,14.3858267 55.6861981,14.8900068 C55.979694,14.7230956 56.3117631,14.635367 56.6496413,14.6354768 C57.3186276,14.6269483 57.9433425,14.9679865 58.2965529,15.5345424 C58.5749161,15.3900333 58.8844088,15.3153507 59.198237,15.3169604 C60.1818937,15.3186845 60.9869896,16.0978318 61.0180743,17.0781437 L61.0180743,17.0781437 Z M59.803477,19.1841741 L59.803477,17.0781437 C59.7421302,16.7637401 59.4659439,16.5367697 59.1447124,16.5367697 C58.8234809,16.5367697 58.5472946,16.7637401 58.4859478,17.0781437 L58.4859478,18.2317393 C58.4859478,18.5718353 58.2094425,18.8475376 57.8683559,18.8475376 C57.5272694,18.8475376 57.2507641,18.5718353 57.2507641,18.2317393 L57.2507641,16.4212921 C57.1894172,16.1068886 56.9132309,15.8799182 56.5919994,15.8799182 C56.270768,15.8799182 55.9945817,16.1068886 55.9332348,16.4212921 L55.9332348,17.5748877 C55.9520985,17.8031275 55.8406494,18.0225536 55.644962,18.1424525 C55.4492747,18.2623513 55.2025976,18.2623513 55.0069103,18.1424525 C54.8112229,18.0225536 54.6997738,17.8031275 54.7186375,17.5748877 L54.7186375,15.8547576 C54.6572906,15.5403541 54.3811043,15.3133837 54.0598729,15.3133837 C53.7386414,15.3133837 53.4624551,15.5403541 53.4011082,15.8547576 L53.4011082,17.0083532 C53.400505,17.072669 53.3893793,17.1364555 53.36817,17.197198 L53.36817,17.5543611 C53.36817,17.8944571 53.0916647,18.1701594 52.7505782,18.1701594 C52.4094916,18.1701594 52.1329863,17.8944571 52.1329863,17.5543611 L52.1329863,10.550681 C52.1329863,10.0972196 51.7643126,9.72961654 51.3095305,9.72961654 L51.2395368,9.72961654 C50.7847547,9.72961654 50.416081,10.0972196 50.416081,10.550681 L50.416081,20.9371468 C50.416081,21.2727082 50.1432624,21.5447345 49.8067237,21.5447345 C49.6166334,21.5450698 49.4377451,21.4551232 49.3250021,21.3025205 C49.2975752,21.2899243 49.2713857,21.2748061 49.2467738,21.2573619 L47.1222578,19.6727075 C46.6798712,19.3427443 46.0692251,19.3545835 45.6400374,19.7014447 C45.3021249,20.0650861 45.3021249,20.6268746 45.6400374,20.990516 L45.6729756,21.0233585 L49.530866,25.9497454 L49.530866,25.9497454 L49.5885079,26.0236412 L49.5885079,26.0236412 C50.4119637,27.0910251 52.2853256,27.8012459 54.3233787,27.8012459 L54.6239401,27.8012459 C57.4483935,27.8012459 59.7499524,25.9045869 59.7499524,23.5727638 L59.803477,19.1841741 Z" id="Shape"></path>
            </g>
            <rect id="Rectangle" stroke="#000000" stroke-width="1.2" x="19" y="0" width="65" height="22"></rect>
            <line x1="26.5" y1="6" x2="77.5" y2="6" id="Line-4" stroke="#000000" stroke-linecap="square"></line>
            <line x1="26.5" y1="11" x2="77.5" y2="11" id="Line-4" stroke="#000000" stroke-linecap="square"></line>
            <line x1="26.5" y1="16" x2="77.5" y2="16" id="Line-4" stroke="#000000" stroke-linecap="square"></line>
        </g>
    </g>
</svg>