<?xml version="1.0" encoding="UTF-8"?>
<svg width="95px" height="95px" viewBox="0 0 95 95" version="1.1" xmlns="http://www.w3.org/2000/svg" xmlns:xlink="http://www.w3.org/1999/xlink">
    <title>Group 5</title>
    <defs>
        <filter color-interpolation-filters="auto" id="filter-1">
            <feColorMatrix in="SourceGraphic" type="matrix" values="0 0 0 0 0.533333 0 0 0 0 0.533333 0 0 0 0 0.533333 0 0 0 1.000000 0"></feColorMatrix>
        </filter>
    </defs>
    <g id="Page-1" stroke="none" stroke-width="1" fill="none" fill-rule="evenodd">
        <g id="Add-rule" transform="translate(-673.000000, -433.000000)">
            <g id="Group-5" transform="translate(673.623846, 433.623846)">
                <g filter="url(#filter-1)" id="sconto">
                    <g transform="translate(46.669048, 46.669048) rotate(-45.000000) translate(-46.669048, -46.669048) translate(13.669048, 13.669048)">
                        <path d="M23.8734597,1.99646337 C25.4800672,0.391703169 28.0830822,0.391703169 29.6896897,1.99646337 L61.3694908,33.673501 C62.6681346,34.9717725 63.5721212,36.6115444 63.9766201,38.4026613 L65.4928531,62.4228958 C65.617204,64.4010328 64.1037972,65.9100687 62.1283138,65.7857287 L38.1059837,64.269628 C36.3144885,63.865749 34.6744197,62.9617565 33.3764108,61.6627261 L1.70367515,29.9800367 C0.0987749505,28.3735693 0.0987749505,25.7707813 1.70367515,24.164314 L23.8734597,1.99646337 Z" id="Path" stroke="#000000" stroke-width="2"></path>
                    </g>
                </g>
                <path d="M32.5201543,45.8521543 L38.3581543,35.6461543 L37.0561543,35.0161543 L31.2741543,45.2361543 L32.5201543,45.8521543 Z M31.4421543,40.5881543 C32.1794877,40.5881543 32.8071543,40.3291543 33.3251543,39.8111543 C33.8431543,39.2931543 34.1021543,38.6701543 34.1021543,37.9421543 C34.1021543,37.204821 33.8431543,36.5794877 33.3251543,36.0661543 C32.8071543,35.552821 32.1794877,35.2961543 31.4421543,35.2961543 C30.704821,35.2961543 30.0771543,35.552821 29.5591543,36.0661543 C29.0411543,36.5794877 28.7821543,37.204821 28.7821543,37.9421543 C28.7821543,38.6701543 29.0411543,39.2931543 29.5591543,39.8111543 C30.0771543,40.3291543 30.704821,40.5881543 31.4421543,40.5881543 Z M31.4421543,39.0201543 C31.1434877,39.0201543 30.886821,38.9151543 30.6721543,38.7051543 C30.4574877,38.4951543 30.3501543,38.240821 30.3501543,37.9421543 C30.3501543,37.6434877 30.4574877,37.386821 30.6721543,37.1721543 C30.886821,36.9574877 31.1434877,36.8501543 31.4421543,36.8501543 C31.740821,36.8501543 31.9974877,36.9574877 32.2121543,37.1721543 C32.426821,37.386821 32.5341543,37.6434877 32.5341543,37.9421543 C32.5341543,38.240821 32.426821,38.4974877 32.2121543,38.7121543 C31.9974877,38.9174877 31.740821,39.0201543 31.4421543,39.0201543 Z M38.1621543,45.5441543 C38.8994877,45.5441543 39.5271543,45.2874877 40.0451543,44.7741543 C40.5631543,44.260821 40.8221543,43.6354877 40.8221543,42.8981543 C40.8221543,42.160821 40.560821,41.5354877 40.0381543,41.0221543 C39.524821,40.508821 38.8994877,40.2521543 38.1621543,40.2521543 C37.424821,40.2521543 36.7971543,40.508821 36.2791543,41.0221543 C35.7611543,41.5354877 35.5021543,42.160821 35.5021543,42.8981543 C35.5021543,43.6354877 35.7611543,44.260821 36.2791543,44.7741543 C36.7971543,45.2874877 37.424821,45.5441543 38.1621543,45.5441543 Z M38.1621543,43.9761543 C37.8634877,43.9761543 37.606821,43.8711543 37.3921543,43.6611543 C37.1774877,43.4511543 37.0701543,43.196821 37.0701543,42.8981543 C37.0701543,42.5994877 37.1774877,42.342821 37.3921543,42.1281543 C37.606821,41.9134877 37.8634877,41.8061543 38.1621543,41.8061543 C38.460821,41.8061543 38.7174877,41.9134877 38.9321543,42.1281543 C39.146821,42.342821 39.2541543,42.5994877 39.2541543,42.8981543 C39.2541543,43.196821 39.146821,43.4534877 38.9321543,43.6681543 C38.7174877,43.8734877 38.460821,43.9761543 38.1621543,43.9761543 Z M48.9801543,45.6421543 C50.5481543,45.6421543 51.840821,45.1544877 52.8581543,44.1791543 C53.8754877,43.203821 54.3841543,41.936821 54.3841543,40.3781543 C54.3841543,38.8101543 53.877821,37.554821 52.8651543,36.6121543 C51.8524877,35.6694877 50.5574877,35.1981543 48.9801543,35.1981543 C47.4121543,35.1981543 46.121821,35.6694877 45.1091543,36.6121543 C44.0964877,37.554821 43.5901543,38.8101543 43.5901543,40.3781543 C43.5901543,41.936821 44.098821,43.203821 45.1161543,44.1791543 C46.1334877,45.1544877 47.4214877,45.6421543 48.9801543,45.6421543 Z M48.9801543,43.4581543 C48.1494877,43.4581543 47.4704877,43.168821 46.9431543,42.5901543 C46.415821,42.0114877 46.1521543,41.2741543 46.1521543,40.3781543 C46.1521543,39.500821 46.415821,38.7774877 46.9431543,38.2081543 C47.4704877,37.638821 48.1494877,37.3541543 48.9801543,37.3541543 C49.810821,37.3541543 50.4921543,37.638821 51.0241543,38.2081543 C51.5561543,38.7774877 51.8221543,39.500821 51.8221543,40.3781543 C51.8221543,41.2741543 51.5561543,42.0114877 51.0241543,42.5901543 C50.4921543,43.168821 49.810821,43.4581543 48.9801543,43.4581543 Z M57.5321543,45.3761543 L57.5321543,41.5261543 L61.3681543,41.5261543 L61.3681543,39.5521543 L57.5321543,39.5521543 L57.5321543,37.5081543 L61.6901543,37.5081543 L61.6901543,35.4641543 L55.1661543,35.4641543 L55.1661543,45.3761543 L57.5321543,45.3761543 Z M64.7961543,45.3761543 L64.7961543,41.5261543 L68.6321543,41.5261543 L68.6321543,39.5521543 L64.7961543,39.5521543 L64.7961543,37.5081543 L68.9541543,37.5081543 L68.9541543,35.4641543 L62.4301543,35.4641543 L62.4301543,45.3761543 L64.7961543,45.3761543 Z M32.7861543,59.6001543 C33.8781543,59.6001543 34.7974877,59.254821 35.5441543,58.5641543 C36.290821,57.8734877 36.6641543,56.972821 36.6641543,55.8621543 C36.6641543,54.7514877 36.290821,53.8601543 35.5441543,53.1881543 C34.7974877,52.5161543 33.8781543,52.1801543 32.7861543,52.1801543 C31.7034877,52.1801543 30.788821,52.5161543 30.0421543,53.1881543 C29.2954877,53.8601543 28.9221543,54.7514877 28.9221543,55.8621543 C28.9221543,56.972821 29.2954877,57.8734877 30.0421543,58.5641543 C30.788821,59.254821 31.7034877,59.6001543 32.7861543,59.6001543 Z M32.8001543,57.6681543 C32.286821,57.6681543 31.8831543,57.4884877 31.5891543,57.1291543 C31.2951543,56.769821 31.1481543,56.3474877 31.1481543,55.8621543 C31.1481543,55.376821 31.292821,54.9591543 31.5821543,54.6091543 C31.8714877,54.2591543 32.272821,54.0841543 32.7861543,54.0841543 C33.2994877,54.0841543 33.7054877,54.2614877 34.0041543,54.6161543 C34.302821,54.970821 34.4521543,55.3861543 34.4521543,55.8621543 C34.4521543,56.3474877 34.3051543,56.769821 34.0111543,57.1291543 C33.7171543,57.4884877 33.3134877,57.6681543 32.8001543,57.6681543 Z M39.6301543,59.3761543 L39.6301543,55.5961543 C39.6301543,55.1761543 39.7374877,54.8214877 39.9521543,54.5321543 C40.166821,54.242821 40.4701543,54.0981543 40.8621543,54.0981543 C41.552821,54.0981543 41.8981543,54.5881543 41.8981543,55.5681543 L41.8981543,55.5681543 L41.8981543,59.3761543 L44.2081543,59.3761543 L44.2081543,55.0641543 C44.2081543,54.270821 44.0004877,53.5964877 43.5851543,53.0411543 C43.169821,52.485821 42.5281543,52.2081543 41.6601543,52.2081543 C41.1934877,52.2081543 40.7711543,52.3201543 40.3931543,52.5441543 C40.0151543,52.7681543 39.7421543,53.0434877 39.5741543,53.3701543 L39.5741543,53.3701543 L39.5461543,53.3701543 L39.5461543,52.4041543 L37.3201543,52.4041543 L37.3201543,59.3761543 L39.6301543,59.3761543 Z M55.0681543,59.3761543 L55.0681543,57.3321543 L51.0221543,57.3321543 L53.3181543,55.2881543 C53.8874877,54.7841543 54.3191543,54.3081543 54.6131543,53.8601543 C54.9071543,53.4121543 55.0541543,52.870821 55.0541543,52.2361543 C55.0541543,51.2561543 54.7041543,50.504821 54.0041543,49.9821543 C53.3041543,49.4594877 52.4594877,49.1981543 51.4701543,49.1981543 C50.480821,49.1981543 49.6314877,49.4851543 48.9221543,50.0591543 C48.212821,50.6331543 47.8021543,51.4101543 47.6901543,52.3901543 L47.6901543,52.3901543 L49.9441543,52.6981543 C49.990821,52.2501543 50.1401543,51.8884877 50.3921543,51.6131543 C50.6441543,51.337821 50.9614877,51.2001543 51.3441543,51.2001543 C51.7174877,51.2001543 52.0161543,51.309821 52.2401543,51.5291543 C52.4641543,51.7484877 52.5761543,52.0354877 52.5761543,52.3901543 C52.5761543,52.8941543 52.3054877,53.402821 51.7641543,53.9161543 L51.7641543,53.9161543 L47.9001543,57.4161543 L47.9001543,59.3761543 L55.0681543,59.3761543 Z M58.3981543,59.3761543 L58.3981543,55.5961543 C58.3981543,55.1761543 58.5054877,54.8214877 58.7201543,54.5321543 C58.934821,54.242821 59.2381543,54.0981543 59.6301543,54.0981543 C60.320821,54.0981543 60.6661543,54.5881543 60.6661543,55.5681543 L60.6661543,55.5681543 L60.6661543,59.3761543 L62.9761543,59.3761543 L62.9761543,55.0641543 C62.9761543,54.270821 62.7684877,53.5964877 62.3531543,53.0411543 C61.937821,52.485821 61.2961543,52.2081543 60.4281543,52.2081543 C59.9614877,52.2081543 59.5391543,52.3201543 59.1611543,52.5441543 C58.7831543,52.7681543 58.5101543,53.0434877 58.3421543,53.3701543 L58.3421543,53.3701543 L58.3141543,53.3701543 L58.3141543,52.4041543 L56.0881543,52.4041543 L56.0881543,59.3761543 L58.3981543,59.3761543 Z M66.8801543,59.5721543 C67.346821,59.5721543 67.787821,59.4741543 68.2031543,59.2781543 C68.6184877,59.0821543 68.9381543,58.8114877 69.1621543,58.4661543 L69.1621543,58.4661543 L69.1901543,58.4661543 L69.1901543,59.3761543 L71.3041543,59.3761543 L71.3041543,48.7921543 L69.0081543,48.7921543 L69.0081543,53.1461543 L68.9801543,53.1461543 C68.4481543,52.520821 67.738821,52.2081543 66.8521543,52.2081543 C65.8721543,52.2081543 65.078821,52.5651543 64.4721543,53.2791543 C63.8654877,53.9931543 63.5621543,54.8541543 63.5621543,55.8621543 C63.5621543,56.888821 63.8631543,57.763821 64.4651543,58.4871543 C65.0671543,59.2104877 65.8721543,59.5721543 66.8801543,59.5721543 Z M67.4261543,57.6681543 C66.912821,57.6681543 66.5091543,57.490821 66.2151543,57.1361543 C65.9211543,56.7814877 65.7741543,56.356821 65.7741543,55.8621543 C65.7741543,55.376821 65.9211543,54.9591543 66.2151543,54.6091543 C66.5091543,54.2591543 66.912821,54.0841543 67.4261543,54.0841543 C67.920821,54.0841543 68.3244877,54.2661543 68.6371543,54.6301543 C68.949821,54.9941543 69.1061543,55.4094877 69.1061543,55.8761543 C69.1061543,56.3521543 68.949821,56.769821 68.6371543,57.1291543 C68.3244877,57.4884877 67.920821,57.6681543 67.4261543,57.6681543 Z" id="%OFFon2nd" fill="#888888" fill-rule="nonzero"></path>
            </g>
        </g>
    </g>
</svg>