<?xml version="1.0" encoding="UTF-8"?>
<svg width="84px" height="84px" viewBox="0 0 84 84" version="1.1" xmlns="http://www.w3.org/2000/svg" xmlns:xlink="http://www.w3.org/1999/xlink">
    <title>Group 4</title>
    <defs>
        <filter color-interpolation-filters="auto" id="filter-1">
            <feColorMatrix in="SourceGraphic" type="matrix" values="0 0 0 0 0.588235 0 0 0 0 0.588235 0 0 0 0 0.588235 0 0 0 1.000000 0"></feColorMatrix>
        </filter>
    </defs>
    <g id="Page-1" stroke="none" stroke-width="1" fill="none" fill-rule="evenodd">
        <g id="Add-rule" transform="translate(-990.000000, -303.000000)">
            <g id="Group" transform="translate(657.000000, 213.000000)">
                <g id="Group-4" transform="translate(335.330952, 91.694913)">
                    <g id="sconto" filter="url(#filter-1)">
                        <g transform="translate(40.305087, 40.305087) rotate(-45.000000) translate(-40.305087, -40.305087) translate(11.805087, 11.805087)">
                            <path d="M20.187387,1.08717451 C21.5715412,-0.295388127 23.8141387,-0.295388127 25.1982929,1.08717451 L52.49166,28.3781607 C53.6104916,29.4966716 54.3893108,30.9093981 54.7378022,32.4525142 L56.0440952,53.1468702 C56.1512283,54.8511112 54.8473701,56.1512037 53.1454152,56.04408 L32.4492539,54.7379009 C30.9058119,54.3899437 29.4928295,53.6111194 28.3745449,52.4919547 L1.08726497,25.1960992 C-0.29541828,23.8120658 -0.29541828,21.5696638 1.08726497,20.1856304 L20.187387,1.08717451 Z" id="Path" stroke="#000000" stroke-width="2"></path>
                        </g>
                    </g>
                    <path d="M37.1090476,46.3050865 L37.1090476,43.6770865 L31.9070476,43.6770865 L34.8590476,41.0490865 C35.5910476,40.4010865 36.1460476,39.7890865 36.5240476,39.2130865 C36.9020476,38.6370865 37.0910476,37.9410865 37.0910476,37.1250865 C37.0910476,35.8650865 36.6410476,34.8990865 35.7410476,34.2270865 C34.8410476,33.5550865 33.7550476,33.2190865 32.4830476,33.2190865 C31.2110476,33.2190865 30.1190476,33.5880865 29.2070476,34.3260865 C28.2950476,35.0640865 27.7670476,36.0630865 27.6230476,37.3230865 L27.6230476,37.3230865 L30.5210476,37.7190865 C30.5810476,37.1430865 30.7730476,36.6780865 31.0970476,36.3240865 C31.4210476,35.9700865 31.8290476,35.7930865 32.3210476,35.7930865 C32.8010476,35.7930865 33.1850476,35.9340865 33.4730476,36.2160865 C33.7610476,36.4980865 33.9050476,36.8670865 33.9050476,37.3230865 C33.9050476,37.9710865 33.5570476,38.6250865 32.8610476,39.2850865 L32.8610476,39.2850865 L27.8930476,43.7850865 L27.8930476,46.3050865 L37.1090476,46.3050865 Z M41.6630476,46.3050865 L43.6430476,43.5510865 L45.5690476,46.3050865 L49.0430476,46.3050865 L45.4970476,41.6070865 L48.7190476,37.3410865 L45.3890476,37.3410865 L43.6970476,39.7350865 L42.0230476,37.3410865 L38.5850476,37.3410865 L41.8250476,41.6070865 L38.2430476,46.3050865 L41.6630476,46.3050865 Z M57.1070476,46.3050865 L57.1070476,33.5610865 L54.3350476,33.5610865 L50.1410476,36.6390865 L51.7070476,38.7810865 L54.0830476,36.9450865 L54.0830476,46.3050865 L57.1070476,46.3050865 Z" id="2x1" fill="#888888" fill-rule="nonzero"></path>
                </g>
            </g>
        </g>
    </g>
</svg>