<?xml version="1.0" encoding="UTF-8"?>
<svg width="84px" height="84px" viewBox="0 0 84 84" version="1.1" xmlns="http://www.w3.org/2000/svg" xmlns:xlink="http://www.w3.org/1999/xlink">
    <title>sconto</title>
    <defs>
        <filter color-interpolation-filters="auto" id="filter-1">
            <feColorMatrix in="SourceGraphic" type="matrix" values="0 0 0 0 0.270588 0 0 0 0 0.537255 0 0 0 0 0.650980 0 0 0 1.000000 0"></feColorMatrix>
        </filter>
    </defs>
    <g id="Page-1" stroke="none" stroke-width="1" fill="none" fill-rule="evenodd">
        <g id="sconto" transform="translate(-676.000000, -303.000000)" filter="url(#filter-1)">
            <g transform="translate(718.000000, 345.000000) rotate(-45.000000) translate(-718.000000, -345.000000) translate(690.000000, 317.000000)">
                <path d="M20.1371345,1.03692198 C21.5212886,-0.345640658 23.7638862,-0.345640658 25.1480404,1.03692198 L52.4414074,28.3279082 C53.5602391,29.446419 54.3390583,30.8591456 54.6875496,32.4022617 L55.9938427,53.0966176 C56.1009757,54.8008587 54.7971176,56.1009512 53.0951626,55.9938275 L32.3990013,54.6876484 C30.8555594,54.3396912 29.442577,53.5608668 28.3242924,52.4417021 L1.03701244,25.1458466 C-0.345670812,23.7618132 -0.345670812,21.5194113 1.03701244,20.1353779 L20.1371345,1.03692198 Z" id="Path" stroke="#969696" stroke-width="2"></path>
                <path d="M19.5458644,34.7353983 C20.3618644,34.7353983 21.1238644,34.5973983 21.8318644,34.3213983 C22.5398644,34.0453983 23.1368644,33.5923983 23.6228644,32.9623983 C24.1088644,32.3323983 24.3518644,31.5733983 24.3518644,30.6853983 C24.3518644,29.9773983 24.1238644,29.3503983 23.6678644,28.8043983 C23.2118644,28.2583983 22.6238644,27.9013983 21.9038644,27.7333983 L21.9038644,27.7333983 L21.9038644,27.6793983 C22.5398644,27.5113983 23.0558644,27.1783983 23.4518644,26.6803983 C23.8478644,26.1823983 24.0458644,25.5913983 24.0458644,24.9073983 C24.0458644,23.7553983 23.6048644,22.8673983 22.7228644,22.2433983 C21.8408644,21.6193983 20.7878644,21.3073983 19.5638644,21.3073983 C18.4478644,21.3073983 17.4518644,21.5893983 16.5758644,22.1533983 C15.6998644,22.7173983 15.1118644,23.5153983 14.8118644,24.5473983 L14.8118644,24.5473983 L17.6198644,25.1953983 C17.7158644,24.7633983 17.9228644,24.4183983 18.2408644,24.1603983 C18.5588644,23.9023983 18.9338644,23.7733983 19.3658644,23.7733983 C19.8098644,23.7733983 20.1878644,23.8993983 20.4998644,24.1513983 C20.8118644,24.4033983 20.9678644,24.7453983 20.9678644,25.1773983 C20.9678644,26.1853983 20.2238644,26.6893983 18.7358644,26.6893983 L18.7358644,26.6893983 L17.8538644,26.6893983 L17.8538644,28.9033983 L18.6638644,28.9033983 C19.3958644,28.9033983 20.0108644,29.0323983 20.5088644,29.2903983 C21.0068644,29.5483983 21.2558644,29.9773983 21.2558644,30.5773983 C21.2558644,31.1293983 21.0698644,31.5373983 20.6978644,31.8013983 C20.3258644,32.0653983 19.8938644,32.1973983 19.4018644,32.1973983 C18.8498644,32.1973983 18.3818644,32.0443983 17.9978644,31.7383983 C17.6138644,31.4323983 17.3618644,31.0573983 17.2418644,30.6133983 L17.2418644,30.6133983 L14.4338644,31.3513983 C14.7578644,32.4793983 15.3818644,33.3253983 16.3058644,33.8893983 C17.2298644,34.4533983 18.3098644,34.7353983 19.5458644,34.7353983 Z M28.8518644,34.3933983 L30.8318644,31.6393983 L32.7578644,34.3933983 L36.2318644,34.3933983 L32.6858644,29.6953983 L35.9078644,25.4293983 L32.5778644,25.4293983 L30.8858644,27.8233983 L29.2118644,25.4293983 L25.7738644,25.4293983 L29.0138644,29.6953983 L25.4318644,34.3933983 L28.8518644,34.3933983 Z M46.6178644,34.3933983 L46.6178644,31.7653983 L41.4158644,31.7653983 L44.3678644,29.1373983 C45.0998644,28.4893983 45.6548644,27.8773983 46.0328644,27.3013983 C46.4108644,26.7253983 46.5998644,26.0293983 46.5998644,25.2133983 C46.5998644,23.9533983 46.1498644,22.9873983 45.2498644,22.3153983 C44.3498644,21.6433983 43.2638644,21.3073983 41.9918644,21.3073983 C40.7198644,21.3073983 39.6278644,21.6763983 38.7158644,22.4143983 C37.8038644,23.1523983 37.2758644,24.1513983 37.1318644,25.4113983 L37.1318644,25.4113983 L40.0298644,25.8073983 C40.0898644,25.2313983 40.2818644,24.7663983 40.6058644,24.4123983 C40.9298644,24.0583983 41.3378644,23.8813983 41.8298644,23.8813983 C42.3098644,23.8813983 42.6938644,24.0223983 42.9818644,24.3043983 C43.2698644,24.5863983 43.4138644,24.9553983 43.4138644,25.4113983 C43.4138644,26.0593983 43.0658644,26.7133983 42.3698644,27.3733983 L42.3698644,27.3733983 L37.4018644,31.8733983 L37.4018644,34.3933983 L46.6178644,34.3933983 Z" id="3x2" fill="#9E9E9E" fill-rule="nonzero" transform="translate(30.525864, 28.021398) rotate(43.000000) translate(-30.525864, -28.021398) "></path>
            </g>
        </g>
    </g>
</svg>