<?xml version="1.0" encoding="UTF-8"?>
<svg width="44px" height="39px" viewBox="0 0 44 39" version="1.1" xmlns="http://www.w3.org/2000/svg" xmlns:xlink="http://www.w3.org/1999/xlink">
    <title>cart-gift</title>
    <defs>
        <filter color-interpolation-filters="auto" id="filter-1">
            <feColorMatrix in="SourceGraphic" type="matrix" values="0 0 0 0 0.270588 0 0 0 0 0.537255 0 0 0 0 0.650980 0 0 0 1.000000 0"></feColorMatrix>
        </filter>
    </defs>
    <g id="Page-1" stroke="none" stroke-width="1" fill="none" fill-rule="evenodd">
        <g id="cart-gift" transform="translate(-1011.000000, -593.000000)" filter="url(#filter-1)">
            <g transform="translate(1011.000000, 593.000000)">
                <g id="Group" transform="translate(17.000000, 0.000000)" fill="#333333" fill-rule="nonzero">
                    <g>
                        <path d="M17.0106996,21.2142857 L2.99012346,21.2142857 C2.17593633,21.2134 1.51613351,20.5692086 1.51522634,19.7742857 L1.51522634,9.17357143 L2.83209877,9.17357143 L2.83209877,19.7726786 C2.83254884,19.8577055 2.90303594,19.9265249 2.99012346,19.9269643 L17.0106996,19.9269643 C17.0977871,19.9265249 17.1682742,19.8577055 17.1687243,19.7726786 L17.1687243,9.17357143 L18.4855967,9.17357143 L18.4855967,19.7726786 C18.4855967,20.568229 17.825529,21.2133988 17.0106996,21.2142857 Z" id="Path"></path>
                        <path d="M18.4559671,9.81642857 L1.54485597,9.81642857 C0.730347439,9.81598579 0.0700437126,9.17166487 0.0691358025,8.37642857 L0.0691358025,6.170625 C0.0700437126,5.3753887 0.730347439,4.73106778 1.54485597,4.730625 L18.4559671,4.730625 C19.2693535,4.73370553 19.9280783,5.37648576 19.9316872,6.170625 L19.9316872,8.37642857 C19.9307793,9.17166487 19.2704756,9.81598579 18.4559671,9.81642857 L18.4559671,9.81642857 Z M1.54485597,6.01633929 C1.45763199,6.01677375 1.38690632,6.08546821 1.38600823,6.170625 L1.38600823,8.37642857 C1.38646113,8.46176804 1.4574472,8.53071429 1.54485597,8.53071429 L18.4559671,8.53071429 C18.5433758,8.53071429 18.6143619,8.46176804 18.6148148,8.37642857 L18.6148148,6.170625 C18.6139167,6.08546821 18.5431911,6.01677375 18.4559671,6.01633929 L1.54485597,6.01633929 Z" id="Shape"></path>
                        <path d="M10,6.01633937 C9.7962955,6.01643956 9.60401374,5.92447978 9.47923012,5.7672783 C9.3544465,5.61007681 9.31121376,5.40533716 9.36213992,5.21276786 C9.44855967,4.88330357 10.2419753,1.93339286 11.5226337,0.964285714 C12.9020576,-0.0763392857 14.8707819,-0.220982143 16.0049383,0.634821429 L16.0049383,0.634821429 C16.5209744,1.01101904 16.8241108,1.60354307 16.822231,2.23232143 C16.822231,3.02625 16.3654321,3.82580357 15.5687243,4.426875 C14.3341564,5.35982143 10.5308642,5.94241071 10.1012346,6.00589286 C10.0678127,6.01189524 10.0339687,6.01538761 10,6.01633937 L10,6.01633937 Z M14.162963,1.36125 C13.4980362,1.3717513 12.8541143,1.59032678 12.3259259,1.98482143 C11.8082305,2.37535714 11.2839506,3.54294643 10.9325103,4.56428571 C12.3909465,4.29107143 14.18107,3.85071429 14.7604938,3.41357143 C15.2255144,3.06241071 15.5012366,2.62205357 15.5012366,2.23473214 C15.5017978,2.00466695 15.387949,1.78864861 15.1958848,1.65535714 L15.1958848,1.65535714 C14.9341564,1.456875 14.5679012,1.36125 14.162963,1.36125 Z" id="Shape"></path>
                        <path d="M10,6.01634028 C9.96721365,6.01634028 9.93447512,6.01389528 9.90205761,6.00910714 C9.47242798,5.945625 5.66995885,5.36625 4.4345679,4.43008929 C3.63786008,3.82901786 3.1802404,3.02946429 3.1802404,2.23553571 C3.17862045,1.60681734 3.48170129,1.01440189 3.99753086,0.638035714 L3.99753086,0.638035714 C5.13251029,-0.217767857 7.10123457,-0.073125 8.47736626,0.964285714 C9.75555556,1.92857143 10.5489712,4.88008929 10.6353909,5.21276786 C10.6863536,5.40547395 10.6430219,5.61035938 10.518049,5.76759643 C10.3930761,5.92483347 10.2005568,6.01668849 9.99670782,6.01634028 L10,6.01634028 Z M4.80329218,1.65535714 C4.61057048,1.78854484 4.49633841,2.00500756 4.49711536,2.23553571 C4.49711536,2.62205357 4.77530864,3.06241071 5.23786008,3.41357143 C5.818107,3.85151786 7.60740741,4.291875 9.06584362,4.56428571 C8.71440329,3.54214286 8.18930041,2.37455357 7.67325103,1.98482143 C6.77695473,1.30821429 5.4617284,1.15714286 4.80164609,1.65535714 L4.80329218,1.65535714 Z" id="Shape"></path>
                    </g>
                    <rect id="Rectangle" x="9" y="5" width="2" height="15"></rect>
                </g>
                <g id="Group" transform="translate(0.000000, 1.000000)" fill="#333333" fill-rule="nonzero">
                    <path d="M38.3220444,28.0455694 L14.2755556,28.0455694 L10.8112889,8.32474227 L12.3522667,8.05345361 L15.5848,26.4824742 L38.3220444,26.4824742 C39.0323082,26.4828625 39.639045,25.9695195 39.7574222,25.2680412 L42.3162667,10.6752577 C42.3915187,10.2505163 42.2750382,9.81420615 41.9981799,9.48377528 C41.7213216,9.15334441 41.3125377,8.96275066 40.8818667,8.96329897 L40.8818667,7.39628859 C41.774536,7.39628859 42.6215699,7.79142743 43.1955995,8.47617771 C43.7696291,9.160928 44.0118505,10.0649461 43.8572444,10.945567 L41.2974222,25.5383505 C41.0478049,26.9884924 39.791172,28.0474001 38.3220444,28.0455694 L38.3220444,28.0455694 Z" id="Path"></path>
                    <path d="M40.3822222,33.8640772 L18.4633778,33.8640772 C16.6285183,33.8670513 15.0579409,32.5465121 14.7429333,30.7359278 L9.95182222,3.42097938 C9.7669594,2.3607797 8.84781903,1.58723715 7.77333333,1.58757732 L0,1.58757732 L0,0.0205670103 L7.77333333,0.0205670103 C9.6065119,0.0205670103 11.1742495,1.34075371 11.4888889,3.14969072 L16.28,30.4646392 C16.4646099,31.52524 17.3846312,32.2987632 18.4594667,32.2970619 L40.3822222,32.2970619 L40.3822222,33.8640772 Z" id="Path"></path>
                    <path d="M21.9608889,37.9177321 C20.3088718,37.9139567 18.9710392,36.572616 18.9688889,34.9178866 L20.5333333,34.9178866 C20.5536128,35.6948996 21.1883054,36.3142309 21.9643111,36.3142309 C22.7403168,36.3142309 23.3750094,35.6948996 23.3952889,34.9178866 L24.9597333,34.9178866 C24.9581141,36.5755131 23.6158018,37.9182734 21.9608889,37.9177321 L21.9608889,37.9177321 Z" id="Path"></path>
                    <path d="M33.3089778,37.917732 C31.6546697,37.9171931 30.3132686,36.5749066 30.3111111,34.9178866 L31.8755556,34.9178866 C31.8755556,35.7097604 32.516445,36.351701 33.3070222,36.351701 C34.0975994,36.351701 34.7384889,35.7097604 34.7384889,34.9178866 L36.3029333,34.9178866 C36.30078,36.573379 34.9617586,37.9150345 33.3089778,37.917732 Z" id="Path"></path>
                </g>
            </g>
        </g>
    </g>
</svg>