<?xml version="1.0" encoding="UTF-8"?>
<svg width="59px" height="31px" viewBox="0 0 59 31" version="1.1" xmlns="http://www.w3.org/2000/svg" xmlns:xlink="http://www.w3.org/1999/xlink">
    <title>Group 8</title>
    <defs>
        <filter color-interpolation-filters="auto" id="filter-1">
            <feColorMatrix in="SourceGraphic" type="matrix" values="0 0 0 0 0.270588 0 0 0 0 0.537255 0 0 0 0 0.650980 0 0 0 1.000000 0"></feColorMatrix>
        </filter>
        <filter color-interpolation-filters="auto" id="filter-2">
            <feColorMatrix in="SourceGraphic" type="matrix" values="0 0 0 0 0.560784 0 0 0 0 0.560784 0 0 0 0 0.560784 0 0 0 1.000000 0"></feColorMatrix>
        </filter>
    </defs>
    <g id="Page-1" stroke="none" stroke-width="1" fill="none" fill-rule="evenodd">
        <g id="Group-8" transform="translate(-845.000000, -744.000000)" filter="url(#filter-1)">
            <g transform="translate(845.092000, 745.000000)">
                <g id="Group" transform="translate(13.908000, 0.000000)" filter="url(#filter-2)">
                    <g transform="translate(0.000000, 0.000000)">
                        <path d="M0,18.5897436 L0,22.6794872 C0,23.7061704 0.834723348,24.5384615 1.86440678,24.5384615 L7.45762712,24.5384615" id="Path" stroke="#8C8C8C" stroke-width="1.5"></path>
                        <path d="M0,4.08974359 L0,1.85897436 C0,0.83229117 0.834723348,3.30220182e-16 1.86440678,3.30220182e-16 L25.7288136,3.30220182e-16 C26.223285,3.30220182e-16 26.6975041,0.195855665 27.0471482,0.544480984 C27.3967923,0.893106303 27.5932203,1.3659437 27.5932203,1.85897436 L27.5932203,22.6794872 C27.5932203,23.7061704 26.758497,24.5384615 25.7288136,24.5384615 L16.4067797,24.5384615" id="Path" stroke="#8C8C8C" stroke-width="1.5"></path>
                        <ellipse id="Oval" stroke="#8C8C8C" stroke-width="1.5" cx="11.9322034" cy="24.5384615" rx="4.47457627" ry="4.46153846"></ellipse>
                        <ellipse id="Oval" stroke="#8C8C8C" stroke-width="1.5" cx="35.7966102" cy="24.5384615" rx="4.47457627" ry="4.46153846"></ellipse>
                        <line x1="23.4915254" y1="24.5384615" x2="31.3220339" y2="24.5384615" id="Path" stroke="#8C8C8C" stroke-width="1.5"></line>
                        <path d="M40.2711864,24.5384615 L42.1355932,24.5384615 C43.1652767,24.5384615 44,23.7061704 44,22.6794872 L44,15.5949359 C44,15.1296209 43.8250831,14.6812064 43.509661,14.3382692 L36.3559322,6.55102564 C36.0014573,6.16573652 35.5006436,5.94710027 34.9762712,5.94870904 L27.5932203,5.94870904" id="Path" stroke="#8C8C8C" stroke-width="1.5"></path>
                        <path d="M44,14.8717949 L34.6779661,14.8717949 C33.6482827,14.8717949 32.8135593,14.0395037 32.8135593,13.0128205 L32.8135593,8.17948718" id="Path" stroke="#8C8C8C" stroke-width="1.5"></path>
                    </g>
                </g>
                <path d="M1.764,17 L1.764,12.828 L6.132,12.828 L6.132,11.344 L1.764,11.344 L1.764,8.628 L6.398,8.628 L6.398,7.088 L-1.13686838e-13,7.088 L-1.13686838e-13,17 L1.764,17 Z M9.786,17 L9.786,12.8 L11.074,12.8 L13.37,17 L15.498,17 L12.852,12.604 C13.5613333,12.4453333 14.1166667,12.135 14.518,11.673 C14.9193333,11.211 15.12,10.63 15.12,9.93 C15.12,9.26733333 14.9403333,8.71433333 14.581,8.271 C14.2216667,7.82766667 13.7783333,7.51966667 13.251,7.347 C12.7236667,7.17433333 12.1286667,7.088 11.466,7.088 L11.466,7.088 L8.022,7.088 L8.022,17 L9.786,17 Z M11.228,11.358 L9.786,11.358 L9.786,8.572 L11.382,8.572 C11.9326667,8.572 12.3993333,8.67466667 12.782,8.88 C13.1646667,9.08533333 13.356,9.43066667 13.356,9.916 C13.356,10.8773333 12.6466667,11.358 11.228,11.358 L11.228,11.358 Z M23.646,17 L23.646,15.432 L18.592,15.432 L18.592,12.632 L23.142,12.632 L23.142,11.148 L18.592,11.148 L18.592,8.628 L23.394,8.628 L23.394,7.088 L16.828,7.088 L16.828,17 L23.646,17 Z M32.186,17 L32.186,15.432 L27.132,15.432 L27.132,12.632 L31.682,12.632 L31.682,11.148 L27.132,11.148 L27.132,8.628 L31.934,8.628 L31.934,7.088 L25.368,7.088 L25.368,17 L32.186,17 Z" id="FREE" fill="#929292" fill-rule="nonzero"></path>
            </g>
        </g>
    </g>
</svg>