<svg xmlns="http://www.w3.org/2000/svg" viewBox="0 0 437.43 493.92">
  <defs>
    <style>
      .cls-1 {
        fill: #474747;
      }
    </style>
  </defs>
  <g id="Livello_2" data-name="Livello 2">
    <g id="Layer_2" data-name="Layer 2">
      <g>
        <g>
          <g>
            <path class="cls-1" d="M249.27,493.92a26.27,26.27,0,0,1-13.92-4L84.17,396.12a26.5,26.5,0,0,1-8.54-36.47L229.32,112A79.69,79.69,0,0,1,281.43,76L366.2,59.21a39.74,39.74,0,0,1,34.33,9.58,7.5,7.5,0,1,1-10.1,11.09,24.66,24.66,0,0,0-21.32-5.95L284.34,90.67a64.64,64.64,0,0,0-42.27,29.25L88.37,367.56a11.48,11.48,0,0,0,3.71,15.81L243.26,477.2a11.49,11.49,0,0,0,15.81-3.7L412.76,225.85A64.69,64.69,0,0,0,420.21,175l-18.7-68.93A7.5,7.5,0,1,1,416,102.14l18.69,68.93a79.68,79.68,0,0,1-9.17,62.69L271.82,481.41A26.51,26.51,0,0,1,249.27,493.92Z"/>
            <path class="cls-1" d="M47.87,356.67a7.47,7.47,0,0,1-5.19-2.09L8.13,321.42A26.53,26.53,0,0,1,7.36,284L209.2,73.71a79.68,79.68,0,0,1,58.46-24.43l.63,0,100.1,9.78A7.5,7.5,0,0,1,366.93,74l-99.78-9.75h-.62A64.68,64.68,0,0,0,220,84.09L18.19,294.36a11.49,11.49,0,0,0,.33,16.24l34.55,33.16a7.5,7.5,0,0,1-5.2,12.91Z"/>
          </g>
          <path class="cls-1" d="M359.27,113.56a15.06,15.06,0,0,1-8.59-2.56A7.5,7.5,0,0,1,359,98.52c3.51,1,20.35-8.18,38.44-34.92C415.38,37.09,417.71,18.12,415.6,15c-3.05-.65-16.11,5.77-32.06,26.27a7.5,7.5,0,0,1-11.84-9.21c8.48-10.9,17.72-20,26-25.51,13.4-8.94,21.69-7.12,26.29-4C429.13,6,434.16,14,429.08,32.61,425.81,44.53,419,58.52,409.87,72,395.18,93.74,374.66,113.55,359.27,113.56Z"/>
        </g>
        <g>
          <path class="cls-1" d="M242.53,375.49A63.55,63.55,0,0,1,208.27,365l-1.46-.94c-12.33-8-21.46-19.45-25.68-32.28-4.41-13.4-3-26.69,3.93-37.42a7.5,7.5,0,1,1,12.59,8.15c-4.43,6.85-5.24,15.58-2.27,24.58,3.16,9.59,10.11,18.24,19.58,24.37l1.46.95c9.48,6.13,20.22,8.93,30.25,7.88,9.44-1,17.07-5.29,21.5-12.14l.16-.25c9.49-14.66,1.73-36.62-17.32-48.94-12.33-8-21.45-19.45-25.68-32.27-4.41-13.41-3-26.7,3.93-37.43l.06-.08c6.89-10.65,18.44-17.37,32.48-18.83,13.43-1.4,27.62,2.22,40,10.21l1.45.94c12.34,8,21.46,19.45,25.69,32.27,4.41,13.41,3,26.7-3.93,37.43A7.5,7.5,0,0,1,312.38,283c4.43-6.85,5.24-15.58,2.27-24.59-3.16-9.58-10.11-18.24-19.58-24.37l-1.46-.94c-9.48-6.13-20.22-8.93-30.26-7.89-9.43,1-17.06,5.3-21.49,12.15l-.06.08c-4.38,6.77-5.18,15.5-2.22,24.51,3.16,9.58,10.11,18.24,19.58,24.37,26,16.81,35.75,48.08,21.76,69.69l-.16.25c-6.94,10.72-18.49,17.44-32.53,18.9A54.13,54.13,0,0,1,242.53,375.49Z"/>
          <path class="cls-1" d="M300.33,228.76A7.5,7.5,0,0,1,294,217.19l13.26-20.54a7.5,7.5,0,0,1,12.61,8.13l-13.27,20.55A7.5,7.5,0,0,1,300.33,228.76Z"/>
          <path class="cls-1" d="M199.91,388.2a7.5,7.5,0,0,1-6.29-11.57l13.26-20.54a7.5,7.5,0,1,1,12.6,8.13l-13.26,20.55A7.5,7.5,0,0,1,199.91,388.2Z"/>
        </g>
      </g>
    </g>
  </g>
</svg>
