<svg width="48" height="54" viewBox="0 0 48 54" fill="none" xmlns="http://www.w3.org/2000/svg">
<g clip-path="url(#clip0_2129_25909)">
<path d="M24.1178 22.2538C30.2591 22.2538 36.4004 22.2538 42.5629 22.2538C45.335 22.2538 47.1689 23.4351 47.7873 25.6921C47.9579 26.3249 48.0005 26.9999 48.0005 27.6749C48.0219 31.4296 48.0219 35.1843 48.0005 38.9601C47.9792 42.5671 46.1454 44.4022 42.499 44.4233C30.1738 44.4233 17.8486 44.4233 5.52341 44.4233C1.87703 44.4233 0.0431761 42.5882 0.0218523 38.9601C0.000528411 35.2054 0.000528411 31.4507 0.0218523 27.6749C0.0431761 24.1312 1.87703 22.2749 5.45944 22.2749C11.686 22.2327 17.8912 22.2538 24.1178 22.2538ZM28.7664 36.6397C28.8517 34.1085 27.0818 32.1468 24.4377 31.8093C23.0516 31.6405 22.4759 31.1554 22.4545 30.2062C22.4332 29.3624 23.009 28.7085 23.8406 28.6241C24.8428 28.5187 25.3333 28.9827 25.6531 30.3538C25.8664 31.303 26.4208 31.746 27.3804 31.6827C28.2546 31.6194 28.7877 30.9655 28.7664 30.0163C28.7238 27.5272 26.698 25.5233 24.1391 25.4601C21.5803 25.3757 19.4692 27.253 19.2773 29.7632C19.0854 32.3366 20.8126 34.5093 23.3075 34.8257C23.6913 34.8679 24.0965 34.9101 24.459 35.0155C25.3546 35.2897 25.6744 35.9437 25.5252 36.8085C25.3759 37.6733 24.7575 38.053 23.9259 38.0319C22.8597 37.9897 22.5398 37.2515 22.3693 36.3444C22.1773 35.3108 21.5376 34.8468 20.578 34.9733C19.6824 35.0788 19.2133 35.7327 19.256 36.8085C19.3839 39.3187 21.4736 41.2382 24.0325 41.2171C26.6127 41.196 28.6811 39.2132 28.7664 36.6397ZM36.7629 25.439C34.204 25.4601 32.1782 27.3796 32.0503 29.9108C31.9223 32.4421 33.6922 34.5093 36.2724 34.8257C36.6136 34.8679 36.9761 34.9101 37.3173 35.0155C38.1489 35.3108 38.4474 35.9226 38.3195 36.7663C38.1916 37.5679 37.6585 37.9897 36.8482 38.0108C35.8033 38.0319 35.3555 37.4202 35.1849 36.471C34.9503 35.2897 34.3106 34.8046 33.3084 34.9522C32.3915 35.0999 31.9863 35.7538 32.0716 36.9351C32.2635 39.3819 34.3746 41.2382 36.8908 41.1749C39.407 41.1327 41.3901 39.2343 41.5394 36.7452C41.6887 34.2351 39.9188 32.1046 37.4665 31.7882C37.0827 31.746 36.6776 31.7038 36.3151 31.5983C35.4195 31.3241 35.0996 30.6491 35.2702 29.7843C35.4408 28.9194 36.0378 28.5397 36.8908 28.5819C37.957 28.6241 38.2555 29.3835 38.4474 30.2905C38.6394 31.3241 39.3004 31.7882 40.2386 31.6616C41.1129 31.5351 41.582 30.9233 41.5607 29.9319C41.4754 27.4218 39.343 25.4179 36.7629 25.439ZM6.48298 33.2858C6.48298 33.2858 6.5043 33.2858 6.48298 33.2858C6.5043 34.6147 6.39769 35.9647 6.52563 37.2937C6.78151 39.6983 9.12714 41.3858 11.7286 41.1538C14.1382 40.9429 16.1 38.7702 15.9508 36.4288C15.9081 35.5851 15.4603 35.0366 14.586 34.9522C13.7331 34.8679 13.136 35.2265 12.8801 36.0491C12.8162 36.2812 12.7735 36.5343 12.7309 36.7663C12.539 37.6733 11.9419 38.0741 11.025 38.0108C10.1507 37.9476 9.63891 37.3991 9.61759 36.5554C9.57494 34.3827 9.55362 32.2101 9.63891 30.0163C9.68156 28.9616 10.5772 28.4132 11.6007 28.6452C12.4323 28.8351 12.6669 29.4679 12.8162 30.1851C13.0507 31.303 13.6691 31.7882 14.6287 31.6616C15.5669 31.5351 16.0147 30.8812 15.9294 29.721C15.7589 27.3163 13.7544 25.4601 11.2808 25.4179C8.80728 25.3757 6.69622 27.1687 6.5043 29.5733C6.39769 30.839 6.48298 32.0624 6.48298 33.2858Z" fill="#675ED5"/>
<path d="M31.9864 0.0421875C31.9864 1.98281 31.9864 3.83906 31.9864 5.69531C31.9864 7.38281 31.9651 9.07031 31.9864 10.7578C32.0077 12.1078 32.5834 12.6562 33.9695 12.6562C37.1254 12.6562 40.3027 12.6562 43.4586 12.6562C43.8424 12.6562 44.2263 12.6562 44.6954 12.6562C44.6954 14.8289 44.6954 16.9594 44.6954 19.132C30.8989 19.132 17.1237 19.132 3.28447 19.132C3.26315 18.8789 3.19917 18.6047 3.19917 18.3516C3.19917 12.9094 3.17785 7.46719 3.19917 2.00391C3.19917 0.548437 3.77492 0 5.18229 0C13.8611 0 22.5186 0 31.1974 0C31.4106 0 31.6239 0.0210938 31.9864 0.0421875Z" fill="#B5B2E6"/>
<path d="M3.19922 47.5242C17.1024 47.5242 30.8776 47.5242 44.7168 47.5242C44.7168 49.2539 44.7594 50.9624 44.6954 52.671C44.6741 53.4726 44.0557 53.8945 43.2667 53.9789C43.0322 54.021 42.7763 53.9789 42.5204 53.9789C30.1526 53.9789 17.7847 53.9789 5.43822 53.9789C3.68967 53.9789 3.19922 53.5148 3.19922 51.8062C3.19922 50.3929 3.19922 48.9585 3.19922 47.5242Z" fill="#B5B2E6"/>
<path d="M43.5432 9.4501C40.8137 9.4501 38.0843 9.4501 35.2695 9.4501C35.2695 6.68682 35.2695 3.94463 35.2695 1.24463C38.0203 3.98682 40.7711 6.70791 43.5432 9.4501Z" fill="#675ED5"/>
</g>
<defs>
<clipPath id="clip0_2129_25909">
<rect width="48" height="54" fill="white"/>
</clipPath>
</defs>
</svg>
