<svg width="48" height="27" viewBox="0 0 48 27" fill="none" xmlns="http://www.w3.org/2000/svg">
<g clip-path="url(#clip0_2501_23629)">
<path d="M19.1413 13.5001C19.1413 9.08205 21.0901 5.1032 24.178 2.36279H11.6752C5.22358 2.36279 0 7.51862 0 13.8778C0 20.2369 5.22358 25.4015 11.6752 25.4015H25.1034C21.4816 22.6611 19.1413 18.3397 19.1413 13.5001Z" fill="#B5B2E6"/>
<path d="M34.3315 0C26.7764 0 20.6541 6.04294 20.6541 13.5C20.6541 20.9571 26.7764 27 34.3315 27C41.8865 27 48.0089 20.9571 48.0089 13.5C48.0089 6.04294 41.8776 0 34.3315 0ZM31.7775 7.69421C32.4182 7.04424 33.0589 6.40306 33.7175 5.77066C34.0823 5.41932 34.5717 5.41054 34.9277 5.76187C35.5862 6.39427 36.2269 7.03546 36.8676 7.68543C37.2236 8.04554 37.2147 8.56376 36.8765 8.87996C36.5473 9.19616 36.0489 9.18738 35.693 8.85361C35.5328 8.70429 35.4082 8.52863 35.2658 8.36174C35.2302 8.37931 35.1947 8.39688 35.1591 8.42323C35.1591 8.68673 35.1591 8.95901 35.1591 9.22251C35.1591 9.87248 35.1591 10.5312 35.1591 11.1812C35.1591 11.7433 34.8209 12.121 34.3315 12.121C33.8331 12.121 33.4861 11.7521 33.4861 11.19C33.4861 10.3731 33.4861 9.56506 33.4861 8.74821C33.4861 8.63403 33.4861 8.52863 33.4861 8.41444C33.4594 8.39688 33.4327 8.37931 33.406 8.36174C33.2547 8.52863 33.1123 8.70429 32.9433 8.85361C32.5784 9.18738 32.0801 9.17859 31.7597 8.85361C31.4305 8.54619 31.4305 8.04554 31.7775 7.69421ZM29.6329 16.0384C29.2948 16.3634 28.7964 16.3546 28.4227 15.9945C27.7731 15.3709 27.1324 14.7385 26.5005 14.1061C26.1357 13.7372 26.1446 13.2541 26.5183 12.8852C27.1413 12.2703 27.7642 11.6555 28.396 11.0407C28.7875 10.663 29.2859 10.6366 29.6329 10.9616C29.9889 11.2954 29.9711 11.8136 29.5795 12.2088C29.446 12.3406 29.277 12.4548 29.1257 12.5777C29.1524 12.6129 29.1791 12.648 29.2058 12.6831C30.1312 12.6831 31.0656 12.6831 31.9911 12.6831C32.5606 12.6831 32.9433 13.0169 32.9433 13.5C32.9433 13.9919 32.5606 14.3256 32 14.3256C31.1724 14.3256 30.3537 14.3256 29.5261 14.3256C29.4193 14.3256 29.3037 14.2905 29.1257 14.3871C29.2948 14.5364 29.4549 14.6682 29.5973 14.8087C29.9622 15.1952 29.98 15.7046 29.6329 16.0384ZM36.8854 19.297C36.2358 19.9558 35.5862 20.6057 34.9188 21.2469C34.5717 21.5895 34.0823 21.5807 33.7353 21.2469C33.0767 20.6057 32.4182 19.9558 31.7686 19.297C31.4305 18.9457 31.4394 18.445 31.7686 18.1288C32.0979 17.8126 32.5962 17.8126 32.9522 18.1464C33.1123 18.2957 33.2458 18.4714 33.3882 18.6383C33.4238 18.6207 33.4594 18.6031 33.4861 18.5768C33.4861 17.6633 33.4861 16.7498 33.4861 15.8364C33.4861 15.2742 33.8153 14.8966 34.3048 14.8878C34.812 14.879 35.1591 15.2567 35.1591 15.8452C35.1591 16.7586 35.1591 17.6721 35.2391 18.647C35.3904 18.4802 35.5328 18.3045 35.693 18.1552C36.0578 17.8214 36.5562 17.8214 36.8765 18.1464C37.2147 18.445 37.2236 18.9457 36.8854 19.297ZM42.1713 14.0885C41.5217 14.7385 40.8632 15.3884 40.1958 16.0296C39.8398 16.3634 39.3326 16.3546 39.0122 16.0296C38.6919 15.7046 38.6919 15.2128 39.0389 14.8614C39.1902 14.7033 39.3682 14.5804 39.5373 14.4398C39.5195 14.4047 39.4928 14.3696 39.475 14.3344C38.5495 14.3344 37.624 14.3344 36.6985 14.3344C36.129 14.3344 35.7464 14.0094 35.7375 13.5176C35.7286 13.0169 36.1201 12.6831 36.7074 12.6831C37.6329 12.6831 38.5584 12.6831 39.5373 12.6041C39.3682 12.4548 39.1902 12.3142 39.0389 12.1474C38.7008 11.7872 38.7008 11.2954 39.03 10.9792C39.3593 10.6542 39.8576 10.6454 40.2136 10.988C40.881 11.6291 41.5395 12.2703 42.1891 12.9291C42.5183 13.2628 42.5094 13.7459 42.1713 14.0885Z" fill="#675ED5"/>
</g>
<defs>
<clipPath id="clip0_2501_23629">
<rect width="48" height="27" fill="white"/>
</clipPath>
</defs>
</svg>
