<svg width="48" height="27" viewBox="0 0 48 27" fill="none" xmlns="http://www.w3.org/2000/svg">
<path d="M19.1413 13.4006C19.1413 9.01507 21.0901 5.06547 24.178 2.34521H11.6752C5.22358 2.34521 0 7.46313 0 13.7755C0 20.0879 5.22358 25.2145 11.6752 25.2145H25.1034C21.4816 22.4943 19.1413 18.2046 19.1413 13.4006Z" fill="#B5B2E6"/>
<path d="M34.4 27C41.9111 27 48 20.9558 48 13.5C48 6.04416 41.9111 0 34.4 0C26.889 0 20.8 6.04416 20.8 13.5C20.8 20.9558 26.889 27 34.4 27Z" fill="#675ED5"/>
<path d="M40.8778 8.25842C40.8778 8.15798 40.8722 8.05195 40.8384 7.95709C40.6528 7.36561 39.9889 7.13682 39.4544 7.50511C38.6837 8.02963 37.9298 8.58206 37.159 9.10659C37.0409 9.19029 36.8721 9.24609 36.7258 9.24609C35.9325 9.25167 35.1449 9.25167 34.3516 9.25167C33.5696 9.25167 32.7819 9.25167 31.9999 9.24051C31.8368 9.24051 31.6511 9.17355 31.5217 9.07869C30.7791 8.55974 30.0421 8.02963 29.3107 7.49395C28.9956 7.26516 28.6637 7.20378 28.3092 7.37677C27.9548 7.54975 27.8142 7.85665 27.8142 8.24726C27.8198 9.22377 27.8142 10.2003 27.8142 11.1768C27.8142 12.0305 27.8085 12.8899 27.8198 13.7436C27.8254 14.084 27.8367 14.4356 27.8873 14.7704C28.4105 17.9956 31.1729 20.2444 34.346 20.25C34.7736 20.25 35.2011 20.2109 35.64 20.1272C38.5711 19.5692 40.8441 16.8964 40.8722 13.9445C40.8891 12.0529 40.8778 10.1556 40.8778 8.25842Z" fill="white"/>
<path d="M35.7243 15.3859C36.388 15.3796 36.919 15.1473 37.3678 14.6952C37.431 14.6324 37.5322 14.6073 37.6206 14.5634C37.6523 14.6513 37.7091 14.7455 37.7091 14.8334C37.627 16.3967 36.3564 17.734 34.7951 17.9224C33.0441 18.1296 31.5017 17.0748 31.0782 15.3859C30.5978 13.4835 31.9632 11.5183 33.9164 11.2986C34.0176 11.286 34.125 11.2609 34.2262 11.2734C34.2894 11.2797 34.3715 11.3237 34.3968 11.3739C34.4158 11.4116 34.3779 11.4995 34.3399 11.5434C34.2451 11.6564 34.1187 11.7569 34.0302 11.8762C33.0062 13.1947 33.7774 15.1033 35.4272 15.367C35.5283 15.3859 35.6421 15.3796 35.7243 15.3859Z" fill="#675ED5"/>
</svg>
