<svg width="48" height="49" viewBox="0 0 48 49" fill="none" xmlns="http://www.w3.org/2000/svg">
<g clip-path="url(#clip0_2129_26050)">
<path d="M41.808 14.2151C36.7375 18.8051 31.6849 23.413 26.6323 28.0208C26.4722 28.1632 26.3476 28.3411 26.1875 28.5368C30.1549 29.3018 32.4499 31.6502 33.2327 35.5464C33.375 35.4575 33.4462 35.4219 33.5174 35.3685C38.2676 30.1558 43 24.943 47.7323 19.7125C47.8569 19.5701 47.9992 19.3566 47.9992 19.1787C48.017 17.3818 48.017 15.585 48.017 13.6991C46.3269 13.6991 44.7435 13.6635 43.1601 13.7169C42.6797 13.7347 42.146 13.9304 41.808 14.2151Z" fill="#B5B2E6"/>
<path d="M29.142 22.1139C32.6824 18.876 36.2584 15.6202 39.8343 12.3467C35.9381 9.14432 31.5793 7.41859 26.669 7.08057C26.6335 7.16952 26.6157 7.2051 26.6157 7.22289C26.5979 11.3148 26.5801 15.4067 26.5801 19.4809C26.5801 19.6944 26.758 19.9612 26.9359 20.1213C27.6297 20.7974 28.3592 21.4201 29.142 22.1139Z" fill="#B5B2E6"/>
<path d="M19.8906 36.5425C19.8906 39.4603 22.2568 41.8265 25.1923 41.862C28.1456 41.8976 30.5652 39.4781 30.5652 36.5248C30.5652 33.5892 28.2168 31.2408 25.2635 31.223C22.2924 31.1875 19.8906 33.5715 19.8906 36.5425Z" fill="#B5B2E6"/>
<path d="M43.1964 36.0445C39.0156 42.9118 32.6286 46.2565 24.5337 46.5767C24.5337 45.6694 24.5337 44.7621 24.5337 43.8369C20.8154 43.4811 17.8799 40.3321 17.8799 36.5426C17.8799 34.5678 18.6449 32.7354 20.0326 31.3477C20.7443 30.636 21.5626 30.1023 22.4522 29.7465C23.1105 29.4796 23.8043 29.3017 24.5337 29.2483C24.5337 28.6257 24.5337 28.003 24.5337 27.3803C24.5337 19.0897 24.5337 10.7813 24.5337 2.40178C32.166 2.70423 38.2861 5.69311 42.4492 11.7776C42.6449 11.742 42.8406 11.7065 43.0541 11.7065C43.6946 11.6887 44.4062 11.6709 45.2958 11.6709C45.3136 11.6709 45.3136 11.6709 45.3314 11.6709C41.0082 4.66123 33.2869 0 24.4626 0C10.977 0 0 10.9948 0 24.4981C0 37.9837 10.9948 48.9785 24.4981 48.9607C34.9414 48.9607 43.9259 42.3425 47.4129 33.0912H44.7798C44.3173 34.0875 43.8013 35.066 43.1964 36.0445ZM13.8769 35.2617C11.6887 35.2973 11.404 35.2795 10.1053 35.2617C10.0519 35.2617 9.87398 35.2083 9.82061 35.1727C9.51816 35.0126 9.34025 34.7813 9.26909 34.4433C9.21572 34.212 9.19792 34.1231 9.26909 33.8028C9.37583 33.3225 9.90956 32.9666 10.301 32.9311C11.4218 32.8065 12.5604 32.7887 13.6635 32.9489C14.0726 33.0022 14.6775 33.4292 14.6775 34.0341C14.6597 34.728 14.1972 35.2439 13.8769 35.2617ZM16.3321 28.6968C16.0652 29.4085 15.4425 29.7643 14.7131 29.444C12.4537 28.4655 10.212 27.4692 8.00593 26.4018C7.59674 26.1527 7.41883 25.8325 7.45441 25.3877C7.52558 24.6227 8.0593 23.9644 9.02001 24.1957C9.12676 24.2135 9.23351 24.2313 9.32246 24.2669C11.4574 25.1742 13.5389 26.1705 15.656 27.1312C16.3499 27.4514 16.5634 28.0386 16.3321 28.6968ZM16.51 23.1816C16.0297 22.6657 16.172 22.0786 16.7057 21.5982C17.0437 21.2958 17.6664 21.2068 18.0756 21.4025C18.556 21.616 18.9118 22.0964 19.3032 22.5056C19.6946 22.9148 20.1216 23.3417 20.424 23.7687C20.94 24.5159 20.6197 24.9785 20.3529 25.3343C20.1216 25.619 19.5878 26.0993 18.9118 25.53C17.9689 24.7294 17.3818 24.1245 16.51 23.1816Z" fill="#675ED5"/>
<path d="M47.2702 24.1777C45.1531 26.5083 43.1249 28.7322 41.0078 31.0806C43.463 31.0806 45.6868 31.0806 47.9819 31.0806C48.0886 28.75 47.8929 26.5083 47.2702 24.1777Z" fill="#B5B2E6"/>
</g>
<defs>
<clipPath id="clip0_2129_26050">
<rect width="48" height="48.9607" fill="white"/>
</clipPath>
</defs>
</svg>
