<svg width="48" height="48" viewBox="0 0 48 48" fill="none" xmlns="http://www.w3.org/2000/svg">
<g clip-path="url(#clip0_2134_33970)">
<path d="M20.7755 42.5063C20.3508 42.5063 20.0418 42.5063 19.7136 42.5063C14.6356 42.5063 9.53821 42.5063 4.46018 42.5063C1.48673 42.5063 0 41.0813 0 38.2126C0 30.5626 0 22.8938 0 15.2438C0 14.9438 0.0193081 14.6438 0.0386163 14.2876C13.6315 14.2876 27.1665 14.2876 40.7595 14.2876C40.7595 16.4251 40.7595 18.5626 40.7595 20.7563C33.5382 18.1876 27.1665 19.3313 22.1271 25.1438C17.9952 29.9063 17.6862 35.1376 20.7755 42.5063Z" fill="#B5B2E6"/>
<path d="M48 34.5938C48.0193 41.9626 41.8793 47.9626 34.2912 47.9813C26.6645 48.0001 20.4666 42.0001 20.4859 34.5938C20.5052 27.2251 26.6645 21.2438 34.2333 21.2251C41.8021 21.2251 47.9807 27.2251 48 34.5938ZM34.407 34.8751C34.407 32.6251 34.407 30.5063 34.407 28.4063C34.407 27.7501 34.3491 27.0563 33.4996 27.0376C32.6307 27.0188 32.5342 27.7126 32.5342 28.3688C32.5342 30.6751 32.5342 32.9813 32.5342 35.2876C32.5342 36.3376 32.8431 36.6563 33.8857 36.6751C35.6814 36.6938 37.477 36.6751 39.2727 36.6751C39.9292 36.6751 40.5856 36.5438 40.547 35.7563C40.5277 34.9876 39.8906 34.8751 39.2148 34.8751C37.6894 34.8751 36.1062 34.8751 34.407 34.8751Z" fill="#675ED5"/>
<path d="M0.0772944 12.3751C0.0772944 10.8376 -0.0771705 9.31881 0.115911 7.85631C0.347608 5.90631 2.41358 4.68756 4.6147 5.04381C4.6147 5.75631 4.6147 6.50631 4.6147 7.23756C4.5954 8.06256 5.02017 8.41881 5.86973 8.41881C7.66539 8.40006 9.48035 8.41881 11.276 8.41881C12.28 8.41881 12.5697 8.10006 12.589 7.10631C12.6083 6.43131 12.589 5.73756 12.589 4.98756C17.8215 4.98756 22.9767 4.98756 28.2672 4.98756C28.2672 5.73756 28.2865 6.48756 28.2672 7.21881C28.2478 8.04381 28.634 8.43756 29.4836 8.41881C31.2792 8.40006 33.0942 8.40006 34.8898 8.41881C35.7973 8.41881 36.1642 7.98756 36.1449 7.14381C36.1256 6.43131 36.1449 5.71881 36.1449 5.02506C38.7322 4.59381 40.7595 6.15006 40.8367 8.56881C40.8754 9.80631 40.8367 11.0626 40.8367 12.3563C27.2438 12.3751 13.7088 12.3751 0.0772944 12.3751Z" fill="#675ED5"/>
<path d="M10.6967 6.56237C9.24855 6.56237 7.91629 6.56237 6.50679 6.56237C6.50679 4.89362 6.41025 3.20612 6.54541 1.55612C6.62264 0.56237 7.72321 -0.0751295 8.76584 -0.000129471C9.80848 0.0748705 10.6773 0.84362 10.6967 1.85612C10.7353 3.39362 10.6967 4.91237 10.6967 6.56237Z" fill="#675ED5"/>
<path d="M34.2526 6.54366C32.8817 6.54366 31.588 6.54366 30.1979 6.54366C30.1979 4.85616 30.1399 3.18741 30.2172 1.51866C30.2751 0.618665 31.2598 -0.0188353 32.2252 -8.53402e-05C33.2292 0.0186647 34.1753 0.712415 34.2139 1.66866C34.2912 3.28116 34.2526 4.89366 34.2526 6.54366Z" fill="#675ED5"/>
</g>
<defs>
<clipPath id="clip0_2134_33970">
<rect width="48" height="48" fill="white"/>
</clipPath>
</defs>
</svg>
