<svg width="48" height="36" viewBox="0 0 48 36" fill="none" xmlns="http://www.w3.org/2000/svg">
<g clip-path="url(#clip0_2129_25899)">
<path d="M15.8765 25.1479C12.7802 24.2201 10.5746 21.3806 10.5746 17.9788C10.5887 13.8179 13.9113 10.5145 18.1104 10.5145C19.2839 10.5145 20.3867 10.7816 21.3764 11.2455C22.154 9.29159 22.9316 7.33766 23.7234 5.38374C23.5113 5.31345 23.2851 5.201 23.0447 5.03231C22.974 4.97608 22.8468 4.99014 22.7902 4.91986C22.6206 4.73712 22.3943 4.54032 22.3519 4.32946C22.2105 3.57038 22.154 2.79725 22.0409 2.03817C21.8712 0.81521 20.9664 0.0139607 19.7363 0.0139607C18.6477 -9.62834e-05 17.5731 -9.62834e-05 16.4845 0.0139607C15.212 0.0280177 14.3072 0.843324 14.1516 2.0944C14.0527 2.85348 13.982 3.62661 13.8547 4.38569C13.8123 4.58249 13.6144 4.8074 13.4306 4.91986C12.9923 5.14477 12.5398 5.34157 12.0733 5.48214C11.8895 5.53836 11.6067 5.51025 11.4653 5.41185C10.815 4.94797 10.1929 4.44192 9.55664 3.96398C8.52453 3.19085 7.4076 3.24707 6.4886 4.13266C5.66857 4.9058 4.86268 5.70705 4.0992 6.52236C3.32159 7.33766 3.2509 8.42005 3.88713 9.34781C4.08506 9.64301 4.283 9.95227 4.53749 10.1772C5.55546 11.0909 5.80995 12.0608 5.0182 13.2697C4.82026 13.5649 4.72129 13.7758 4.32542 13.8039C3.5478 13.8601 2.78433 13.9726 2.02085 14.085C0.833223 14.2537 0.04147 15.1674 0.0273316 16.3623C-0.000945295 17.4587 -0.000945295 18.5552 0.0131931 19.6516C0.0273316 20.8746 0.8615 21.7742 2.09154 21.9148C2.85502 22.0132 3.63263 22.0835 4.39611 22.21C4.59405 22.2521 4.82026 22.4349 4.94751 22.6036C5.7534 23.7844 5.64029 24.8527 4.52335 25.8086C4.283 26.0194 4.07092 26.3006 3.92954 26.5817C3.70333 27.0034 3.5478 27.4673 3.33573 27.9874C3.57608 28.4794 3.7316 29.0276 4.07092 29.4072C4.86268 30.2928 5.73926 31.1362 6.61584 31.9515C7.39346 32.6824 8.45384 32.7387 9.34456 32.1623C9.69802 31.9374 10.0656 31.6985 10.3484 31.3892C11.1967 30.5177 12.0733 30.1803 13.2185 30.9253C13.3599 31.0237 13.5013 31.094 13.6144 31.1784C13.7416 30.6442 13.9113 30.2225 14.0244 29.9413C14.6041 28.4091 15.2262 26.8066 15.8765 25.1479Z" fill="#B5B2E6"/>
<path d="M47.9013 32.0358C47.7034 31.333 47.5196 30.6301 47.251 29.9413C44.4798 23.1237 41.7228 16.292 38.9234 9.47432C38.0468 7.33766 37.3823 5.11665 36.2088 3.12055C35.2757 1.51806 33.8619 0.74492 31.7411 0.758977C31.628 0.773034 31.2604 0.787091 30.8928 0.843319C29.0265 1.18069 27.9379 2.43176 27.2733 4.07643C25.5343 8.37788 23.8236 12.6934 22.1128 16.9948C20.2748 21.6477 18.4368 26.3006 16.613 30.9675C16.2171 31.9796 15.9626 33.0339 16.5281 34.0741C17.1644 35.2549 18.1541 35.9156 19.5255 35.9577C20.8828 36.014 21.7594 35.3533 22.3108 34.1584C23.258 32.1483 23.9791 30.0397 24.7426 27.9593C24.9405 27.4251 25.2091 27.2424 25.7888 27.2424C29.9314 27.2705 34.0598 27.2705 38.2024 27.2424C38.782 27.2424 39.0365 27.4392 39.2345 27.9733C40.0262 30.0819 40.7473 32.2186 41.7935 34.2147C42.6136 35.789 44.1122 36.3373 45.7381 35.775C47.0954 35.3111 48.3679 33.6805 47.9013 32.0358ZM36.4492 22.0835C33.4518 22.0694 30.4545 22.0694 27.443 22.0835C27.0754 22.0835 26.8351 22.0694 27.0189 21.5774C28.6306 17.1494 30.2283 12.7215 31.9108 8.02645C33.367 11.9765 34.7384 15.7156 36.1099 19.4548C36.3644 20.1436 36.5764 20.8324 36.8592 21.5071C37.0713 21.9991 36.9158 22.0835 36.4492 22.0835Z" fill="#675ED5"/>
</g>
<defs>
<clipPath id="clip0_2129_25899">
<rect width="48" height="36" fill="white"/>
</clipPath>
</defs>
</svg>
