<svg width="48" height="48" viewBox="0 0 48 48" fill="none" xmlns="http://www.w3.org/2000/svg">
<g clip-path="url(#clip0_2501_23621)">
<path d="M1.73333 11.4286C9.16191 11.4286 16.5905 11.4286 24 11.4286C31.4476 11.4286 38.9143 11.4286 46.3619 11.4286C47.6571 11.4286 47.981 11.1048 47.981 9.80952C47.981 8.19048 48 6.57143 47.981 4.95238C47.9619 2.17143 45.8095 0.0190476 43.0286 0C30.3429 0 17.6381 0 4.95238 0C2.17143 0.0190476 0.0380952 2.17143 0 4.95238C0 6.55238 0 8.13333 0 9.71429C0 11.1429 0.304762 11.4286 1.73333 11.4286ZM22.3619 4.57143C23.2381 4.57143 23.9619 5.27619 23.9619 6.17143C23.9619 7.06667 23.2571 7.77143 22.3619 7.77143H16.8952L14.6857 4.57143H22.3619ZM7.14286 4.57143H12.6095L14.819 7.75238H7.14286C6.26667 7.75238 5.54286 7.04762 5.54286 6.15238C5.54286 5.25714 6.26667 4.57143 7.14286 4.57143Z" fill="#B5B2E6"/>
<path d="M46.2857 13.7144C38.8571 13.7144 31.4286 13.7144 24.019 13.7144C16.5905 13.7144 9.16191 13.7144 1.75238 13.7144C0.304762 13.7144 0 14.0001 0 15.4286C0 24.5334 0 33.6382 0 42.7429C0 45.9048 2.09524 48.0001 5.2381 48.0001C17.7333 48.0001 30.2476 48.0001 42.7429 48.0001C45.9048 48.0001 48 45.9048 48 42.762C48 33.6572 48 24.5524 48 15.4477C48 14.0001 47.7143 13.7144 46.2857 13.7144ZM25.8476 35.981C24.8762 36.9715 23.9048 37.962 22.8952 38.9334C21.4476 40.3239 19.7524 40.781 17.8476 40.1525C15.9429 39.5239 14.8 38.1524 14.4952 36.1715C14.2476 34.6096 14.7238 33.2001 15.8286 32.0572C16.9524 30.8953 18.0952 29.7334 19.2571 28.6286C21.4286 26.5525 24.781 26.8001 26.6286 29.162C26.8381 29.4286 26.8952 29.6572 26.7048 29.981C26.381 30.5144 25.9619 30.8953 25.4286 31.2001C24.8952 29.3144 22.5524 28.7429 21.1619 30.2667C20.0762 31.4667 18.8952 32.5715 17.7333 33.7144C17.0286 34.4191 16.781 35.2572 17.0667 36.2096C17.3524 37.1429 18.0381 37.6763 19.0095 37.8477C19.7905 37.981 20.4762 37.7524 21.0476 37.2001C21.7333 36.5334 22.419 35.8667 23.0667 35.162C23.2571 34.9524 23.3905 34.8953 23.6762 35.0667C24.381 35.5239 25.181 35.6763 26 35.6572C26.0762 35.8477 25.9238 35.9048 25.8476 35.981ZM32.1143 29.7144C31.0095 30.8572 29.8857 31.981 28.7429 33.0858C26.5714 35.181 23.181 34.9144 21.3333 32.5334C21.1238 32.2667 21.1048 32.0572 21.2762 31.7524C21.6 31.2191 22.019 30.8191 22.5524 30.5144C22.8571 31.4667 23.4476 32.0763 24.4381 32.2858C25.219 32.4572 25.9238 32.2858 26.4952 31.7334C27.8286 30.4572 29.1429 29.1429 30.419 27.8096C31.2952 26.9144 31.219 25.4477 30.3238 24.5524C29.4095 23.6382 27.9619 23.581 27.0286 24.4382C26.3048 25.1239 25.6 25.8477 24.8952 26.5524C24.7048 26.7429 24.5905 26.8001 24.3238 26.6286C23.6571 26.1905 22.8952 25.981 22.0952 26.0763C22.019 26.0763 21.9619 26.1144 21.9048 26.0382C21.8476 25.9239 21.9619 25.9239 22 25.8667C23.0857 24.781 24.1524 23.6572 25.2762 22.6096C26.7238 21.2763 28.4571 20.9334 30.2857 21.6001C32.1143 22.2667 33.2 23.6382 33.4667 25.562C33.7333 27.1429 33.2571 28.5525 32.1143 29.7144Z" fill="#675ED5"/>
</g>
<defs>
<clipPath id="clip0_2501_23621">
<rect width="48" height="48" fill="white"/>
</clipPath>
</defs>
</svg>
