<svg xmlns="http://www.w3.org/2000/svg" fill="none" viewBox="0 0 24 24" ><path stroke="currentcolor" stroke-linecap="round" stroke-linejoin="round" d="m7.02877 1.24168 -0.48376 0c-1.10439 0 -1.99975 0.89516 -2 1.99956l-0.00148 6.77036c-0.00025 1.1044 -0.89561 1.9995 -2.00001 1.9995l-0.59444 0" stroke-width="1.5"></path><path stroke="currentcolor" stroke-linecap="round" stroke-linejoin="round" d="m16.9751 1.24168 0.4838 0c1.1044 0 1.9997 0.89516 2 1.99956l0.0015 6.77036c0.0002 1.1044 0.8956 1.9995 2 1.9995l0.5944 0" stroke-width="1.5"></path><path stroke="currentcolor" stroke-linecap="round" stroke-linejoin="round" d="M7.02877 22.7583h-0.48376c-1.10439 0 -1.99975 -0.8951 -2 -1.9995l-0.00148 -6.7704c-0.00025 -1.1044 -0.89561 -1.9995 -2.00001 -1.9995l-0.59444 0" stroke-width="1.5"></path><path stroke="currentcolor" stroke-linecap="round" stroke-linejoin="round" d="M16.9751 22.7583h0.4838c1.1044 0 1.9997 -0.8951 2 -1.9995l0.0015 -6.7704c0.0002 -1.1044 0.8956 -1.9995 2 -1.9995l0.5944 0" stroke-width="1.5"></path></svg>
