<?xml version="1.0" encoding="UTF-8"?><svg version="1.1" viewBox="0 0 30 30" xmlns="http://www.w3.org/2000/svg" xmlns:xlink="http://www.w3.org/1999/xlink"><!--Generated by IJSVG (https://github.com/iconjar/IJSVG)--><g fill="#000"><path d="M0.5,30c-0.3,0 -0.5,-0.2 -0.5,-0.5c0,-2.5 0.4,-5.1 4.7,-7c0.3,-0.1 0.5,0 0.7,0.3c0.1,0.3 0,0.5 -0.3,0.7c-4.1,1.7 -4.1,4.1 -4.1,6c0,0.3 -0.2,0.5 -0.5,0.5Z"></path><path d="M0.5,30c-0.3,0 -0.5,-0.2 -0.5,-0.5c0,-0.3 0.2,-0.5 0.5,-0.5c2.1,0 4.1,-0.3 5.8,-4.3c0.1,-0.3 0.4,-0.4 0.7,-0.3c0.3,0.1 0.4,0.4 0.3,0.7c-2,4.5 -4.6,4.9 -6.8,4.9Z"></path><path d="M6.5,17h-5c-0.2,0 -0.4,-0.1 -0.4,-0.3c-0.1,-0.2 -0.1,-0.4 0,-0.5l4,-5c0.1,-0.1 0.2,-0.2 0.4,-0.2h5c0.3,0 0.5,0.2 0.5,0.5c0,0.3 -0.2,0.5 -0.5,0.5h-4.8l-3.2,4h4c0.3,0 0.5,0.2 0.5,0.5c0,0.3 -0.2,0.5 -0.5,0.5Z"></path><path d="M11.8,24.8c-0.1,0 -0.2,0 -0.3,-0.1c-0.1,-0.1 -1.9,-1.2 -3.2,-2.6l-0.6,-0.6c-1.3,-1.3 -2.5,-3.1 -2.6,-3.2c-0.1,-0.2 -0.1,-0.4 0,-0.6c12.1,-16.4 18,-17.7 24.4,-17.7c0.3,0 0.5,0.2 0.5,0.5c0,6.2 -1.3,11.9 -18,24.2c0,0 -0.1,0.1 -0.2,0.1Zm-5.7,-6.8c0.4,0.6 1.3,1.8 2.2,2.8l0.7,0.6v0c0.9,0.9 2.2,1.9 2.8,2.2c15.5,-11.5 17.1,-16.9 17.2,-22.6c-5.9,0.1 -11.5,1.7 -22.9,17Z"></path><path d="M8,26c-0.1,0 -0.1,0 -0.2,0c0,0 -1.1,-0.4 -2.1,-1.4l-0.6,-0.6c-1,-1 -1.3,-2 -1.4,-2.1c-0.1,-0.2 0,-0.3 0.1,-0.5l1.9,-2.5c0.2,-0.2 0.5,-0.3 0.7,-0.1c0.2,0.2 0.3,0.5 0.1,0.7l-1.7,2.3c0.2,0.3 0.5,0.9 1,1.5l0.6,0.6c0.5,0.5 1.1,0.9 1.5,1l2.3,-1.7c0.2,-0.2 0.5,-0.1 0.7,0.1c0.2,0.2 0.1,0.5 -0.1,0.7l-2.5,1.9c-0.1,0.1 -0.2,0.1 -0.3,0.1Z"></path><path d="M13.5,28c-0.1,0 -0.2,0 -0.2,-0.1c-0.2,-0.1 -0.3,-0.3 -0.3,-0.4v-4.5c0,-0.3 0.2,-0.5 0.5,-0.5c0.3,0 0.5,0.2 0.5,0.5v3.6l4,-2.4v-5.2c0,-0.3 0.2,-0.5 0.5,-0.5c0.3,0 0.5,0.2 0.5,0.5v5.5c0,0.2 -0.1,0.3 -0.2,0.4l-5,3c-0.1,0.1 -0.2,0.1 -0.3,0.1Z"></path><path d="M20.5,13c-1.9,0 -3.5,-1.6 -3.5,-3.5c0,-1.9 1.6,-3.5 3.5,-3.5c1.9,0 3.5,1.6 3.5,3.5c0,1.9 -1.6,3.5 -3.5,3.5Zm0,-6c-1.4,0 -2.5,1.1 -2.5,2.5c0,1.4 1.1,2.5 2.5,2.5c1.4,0 2.5,-1.1 2.5,-2.5c0,-1.4 -1.1,-2.5 -2.5,-2.5Z"></path></g></svg>