<svg xmlns="http://www.w3.org/2000/svg" fill="none" viewBox="0 0 14 14"><g id="round-brackets"><path id="Union" fill="currentcolor" fill-rule="evenodd" d="M3.02727 1.09579c0.36115 -0.202842 0.81835 -0.07451 1.02119 0.28664 0.20284 0.36115 0.07451 0.81835 -0.28664 1.02119C2.33697 3.20389 1.5 4.70562 1.5 7.00003c0 2.29441 0.83697 3.79617 2.26182 4.59637 0.36115 0.2029 0.48948 0.6601 0.28664 1.0212 -0.20284 0.3612 -0.66004 0.4895 -1.02119 0.2867C1.01399 11.7735 0 9.68962 0 7.00003c0 -2.68959 1.01399 -4.77348 3.02727 -5.90424Zm7.94683 0c-0.3611 -0.202842 -0.8183 -0.07451 -1.02117 0.28664 -0.20284 0.36115 -0.0745 0.81835 0.28667 1.02119 1.4248 0.80027 2.2618 2.302 2.2618 4.59641 0 2.29441 -0.837 3.79617 -2.2618 4.59637 -0.36117 0.2029 -0.48951 0.6601 -0.28667 1.0212 0.20287 0.3612 0.66007 0.4895 1.02117 0.2867 2.0133 -1.1308 3.0273 -3.21468 3.0273 -5.90427 0 -2.68959 -1.014 -4.77348 -3.0273 -5.90424Z" clip-rule="evenodd" stroke-width="1"></path></g></svg>
